<?xml version="1.0" encoding="UTF-8" standalone="no"?>
<!DOCTYPE svg PUBLIC "-//W3C//DTD SVG 1.1//EN"
 "http://www.w3.org/Graphics/SVG/1.1/DTD/svg11.dtd">
<!-- Generated by graphviz version 2.40.1 (20161225.0304)
 -->
<!-- Title: compactRelationshipsDiagram Pages: 1 -->
<svg width="452pt" height="703pt"
 viewBox="0.00 0.00 452.00 703.20" xmlns="http://www.w3.org/2000/svg" xmlns:xlink="http://www.w3.org/1999/xlink">
<g id="graph0" class="graph" transform="scale(1 1) rotate(0) translate(4 699.2)">
<title>compactRelationshipsDiagram</title>
<polygon fill="#ffffff" stroke="transparent" points="-4,4 -4,-699.2 448,-699.2 448,4 -4,4"/>
<text text-anchor="middle" x="72.4936" y="-7.3" font-family="Helvetica,sans-Serif" font-size="11.00" fill="#000000">Generated by SchemaSpy</text>
<!-- RoleClaims -->
<g id="node1" class="node">
<title>RoleClaims</title>
<g id="a_node1"><a xlink:href="../../tables/RoleClaims.html" xlink:title="RoleClaims" target="_top">
<polygon fill="#ffffff" stroke="transparent" points="284.5,-586.2 284.5,-691.2 408.5,-691.2 408.5,-586.2 284.5,-586.2"/>
<polygon fill="#f5f5f5" stroke="transparent" points="284.5,-667.7 284.5,-690.7 408.5,-690.7 408.5,-667.7 284.5,-667.7"/>
<polygon fill="none" stroke="#000000" points="284.5,-667.7 284.5,-690.7 408.5,-690.7 408.5,-667.7 284.5,-667.7"/>
<text text-anchor="start" x="289.5" y="-676.3" font-family="Helvetica,sans-Serif" font-weight="bold" font-size="11.00" fill="#000000">RoleClaims</text>
<text text-anchor="start" x="373.5437" y="-675.8" font-family="Helvetica,sans-Serif" font-size="11.00" fill="#000000">[table]</text>
<polygon fill="none" stroke="#000000" points="284.5,-645.7 284.5,-667.7 408.5,-667.7 408.5,-645.7 284.5,-645.7"/>
<image xlink:href="../../images/primaryKeys.png" width="11px" height="12px" preserveAspectRatio="xMinYMin meet" x="289.5" y="-662.7"/>
<text text-anchor="start" x="304.5" y="-652.8" font-family="Helvetica,sans-Serif" font-size="11.00" fill="#000000">Id</text>
<polygon fill="#ffffff" stroke="transparent" points="284.5,-623.7 284.5,-645.7 408.5,-645.7 408.5,-623.7 284.5,-623.7"/>
<polygon fill="none" stroke="#000000" points="284.5,-623.7 284.5,-645.7 408.5,-645.7 408.5,-623.7 284.5,-623.7"/>
<image xlink:href="../../images/foreignKeys.png" width="11px" height="12px" preserveAspectRatio="xMinYMin meet" x="289.5" y="-640.7"/>
<text text-anchor="start" x="304.5" y="-630.8" font-family="Helvetica,sans-Serif" font-size="11.00" fill="#000000">RoleId</text>
<polygon fill="none" stroke="#000000" points="284.5,-604.7 284.5,-623.7 408.5,-623.7 408.5,-604.7 284.5,-604.7"/>
<text text-anchor="start" x="287.5" y="-610.8" font-family="Helvetica,sans-Serif" font-size="11.00" fill="#000000">...</text>
<polygon fill="#ffffff" stroke="transparent" points="284.5,-585.7 284.5,-604.7 408.5,-604.7 408.5,-585.7 284.5,-585.7"/>
<polygon fill="none" stroke="#000000" points="284.5,-585.7 284.5,-604.7 408.5,-604.7 408.5,-585.7 284.5,-585.7"/>
<polygon fill="#ffffff" stroke="transparent" points="285.5,-586.7 285.5,-603.7 332.5,-603.7 332.5,-586.7 285.5,-586.7"/>
<text text-anchor="start" x="287.5" y="-591.8" font-family="Helvetica,sans-Serif" font-size="11.00" fill="#000000">&lt; 1</text>
<polygon fill="#ffffff" stroke="transparent" points="332.5,-586.7 332.5,-603.7 370.5,-603.7 370.5,-586.7 332.5,-586.7"/>
<text text-anchor="start" x="348.4431" y="-591.8" font-family="Helvetica,sans-Serif" font-size="11.00" fill="#000000"> &#160;</text>
<polygon fill="#ffffff" stroke="transparent" points="370.5,-586.7 370.5,-603.7 407.5,-603.7 407.5,-586.7 370.5,-586.7"/>
<text text-anchor="start" x="399.3862" y="-591.8" font-family="Helvetica,sans-Serif" font-size="11.00" fill="#000000"> &#160;</text>
<polygon fill="#000000" stroke="#000000" points="332.5,-586.7 332.5,-603.7 332.5,-603.7 332.5,-586.7 332.5,-586.7"/>
<polygon fill="#000000" stroke="#000000" points="370.5,-586.7 370.5,-603.7 370.5,-603.7 370.5,-586.7 370.5,-586.7"/>
</a>
</g>
</g>
<!-- Roles -->
<g id="node3" class="node">
<title>Roles</title>
<g id="a_node3"><a xlink:href="../../tables/Roles.html" xlink:title="Roles" target="_top">
<polygon fill="#ffffff" stroke="transparent" points="28.5,-486.2 28.5,-591.2 187.5,-591.2 187.5,-486.2 28.5,-486.2"/>
<polygon fill="#f5f5f5" stroke="transparent" points="29,-567.7 29,-590.7 188,-590.7 188,-567.7 29,-567.7"/>
<polygon fill="none" stroke="#000000" points="29,-567.7 29,-590.7 188,-590.7 188,-567.7 29,-567.7"/>
<text text-anchor="start" x="34" y="-576.3" font-family="Helvetica,sans-Serif" font-weight="bold" font-size="11.00" fill="#000000">Roles</text>
<text text-anchor="start" x="153.0437" y="-575.8" font-family="Helvetica,sans-Serif" font-size="11.00" fill="#000000">[table]</text>
<polygon fill="none" stroke="#000000" points="29,-545.7 29,-567.7 188,-567.7 188,-545.7 29,-545.7"/>
<image xlink:href="../../images/primaryKeys.png" width="11px" height="12px" preserveAspectRatio="xMinYMin meet" x="34" y="-562.7"/>
<text text-anchor="start" x="49" y="-552.8" font-family="Helvetica,sans-Serif" font-size="11.00" fill="#000000">Id</text>
<polygon fill="#ffffff" stroke="transparent" points="29,-523.7 29,-545.7 188,-545.7 188,-523.7 29,-523.7"/>
<polygon fill="none" stroke="#000000" points="29,-523.7 29,-545.7 188,-545.7 188,-523.7 29,-523.7"/>
<text text-anchor="start" x="49" y="-530.8" font-family="Helvetica,sans-Serif" font-size="11.00" fill="#000000">NormalizedName</text>
<polygon fill="none" stroke="#000000" points="29,-504.7 29,-523.7 188,-523.7 188,-504.7 29,-504.7"/>
<text text-anchor="start" x="32" y="-510.8" font-family="Helvetica,sans-Serif" font-size="11.00" fill="#000000">...</text>
<polygon fill="#ffffff" stroke="transparent" points="29,-485.7 29,-504.7 188,-504.7 188,-485.7 29,-485.7"/>
<polygon fill="none" stroke="#000000" points="29,-485.7 29,-504.7 188,-504.7 188,-485.7 29,-485.7"/>
<polygon fill="#ffffff" stroke="transparent" points="30,-486.7 30,-503.7 80,-503.7 80,-486.7 30,-486.7"/>
<text text-anchor="start" x="32" y="-491.8" font-family="Helvetica,sans-Serif" font-size="11.00" fill="#000000"> &#160;</text>
<polygon fill="#ffffff" stroke="transparent" points="80,-486.7 80,-503.7 129,-503.7 129,-486.7 80,-486.7"/>
<text text-anchor="start" x="101.4431" y="-491.8" font-family="Helvetica,sans-Serif" font-size="11.00" fill="#000000"> &#160;</text>
<polygon fill="#ffffff" stroke="transparent" points="129,-486.7 129,-503.7 187,-503.7 187,-486.7 129,-486.7"/>
<text text-anchor="start" x="169.4053" y="-491.8" font-family="Helvetica,sans-Serif" font-size="11.00" fill="#000000">2 &gt;</text>
<polygon fill="#000000" stroke="#000000" points="80,-486.7 80,-503.7 80,-503.7 80,-486.7 80,-486.7"/>
<polygon fill="#000000" stroke="#000000" points="129,-486.7 129,-503.7 129,-503.7 129,-486.7 129,-486.7"/>
</a>
</g>
</g>
<!-- RoleClaims&#45;&gt;Roles -->
<g id="edge1" class="edge">
<title>RoleClaims:w&#45;&gt;Roles:e</title>
<path fill="none" stroke="#000000" d="M270.1876,-632.6137C231.3894,-620.2095 237.7619,-556.7 188,-556.7"/>
<polygon fill="#000000" stroke="#000000" points="276.5837,-633.546 283.9807,-638.2624 280.5418,-634.123 284.5,-634.7 284.5,-634.7 284.5,-634.7 280.5418,-634.123 285.0193,-631.1376 276.5837,-633.546 276.5837,-633.546"/>
<ellipse fill="none" stroke="#000000" cx="273.4171" cy="-633.0844" rx="3.2" ry="3.2"/>
</g>
<!-- UserTokens -->
<g id="node2" class="node">
<title>UserTokens</title>
<g id="a_node2"><a xlink:href="../../tables/UserTokens.html" xlink:title="UserTokens" target="_top">
<polygon fill="#ffffff" stroke="transparent" points="284.5,-312.2 284.5,-439.2 408.5,-439.2 408.5,-312.2 284.5,-312.2"/>
<polygon fill="#f5f5f5" stroke="transparent" points="284.5,-415.7 284.5,-438.7 408.5,-438.7 408.5,-415.7 284.5,-415.7"/>
<polygon fill="none" stroke="#000000" points="284.5,-415.7 284.5,-438.7 408.5,-438.7 408.5,-415.7 284.5,-415.7"/>
<text text-anchor="start" x="289.5" y="-424.3" font-family="Helvetica,sans-Serif" font-weight="bold" font-size="11.00" fill="#000000">UserTokens</text>
<text text-anchor="start" x="374.0219" y="-423.8" font-family="Helvetica,sans-Serif" font-size="11.00" fill="#000000">[table]</text>
<polygon fill="none" stroke="#000000" points="284.5,-393.7 284.5,-415.7 408.5,-415.7 408.5,-393.7 284.5,-393.7"/>
<image xlink:href="../../images/primaryKeys.png" width="11px" height="12px" preserveAspectRatio="xMinYMin meet" x="289.5" y="-410.7"/>
<text text-anchor="start" x="304.5" y="-400.8" font-family="Helvetica,sans-Serif" font-size="11.00" fill="#000000">UserId</text>
<polygon fill="none" stroke="#000000" points="284.5,-371.7 284.5,-393.7 408.5,-393.7 408.5,-371.7 284.5,-371.7"/>
<image xlink:href="../../images/primaryKeys.png" width="11px" height="12px" preserveAspectRatio="xMinYMin meet" x="289.5" y="-388.7"/>
<text text-anchor="start" x="304.5" y="-378.8" font-family="Helvetica,sans-Serif" font-size="11.00" fill="#000000">LoginProvider</text>
<polygon fill="none" stroke="#000000" points="284.5,-349.7 284.5,-371.7 408.5,-371.7 408.5,-349.7 284.5,-349.7"/>
<image xlink:href="../../images/primaryKeys.png" width="11px" height="12px" preserveAspectRatio="xMinYMin meet" x="289.5" y="-366.7"/>
<text text-anchor="start" x="304.5" y="-356.8" font-family="Helvetica,sans-Serif" font-size="11.00" fill="#000000">Name</text>
<polygon fill="none" stroke="#000000" points="284.5,-330.7 284.5,-349.7 408.5,-349.7 408.5,-330.7 284.5,-330.7"/>
<text text-anchor="start" x="287.5" y="-336.8" font-family="Helvetica,sans-Serif" font-size="11.00" fill="#000000">...</text>
<polygon fill="#ffffff" stroke="transparent" points="284.5,-311.7 284.5,-330.7 408.5,-330.7 408.5,-311.7 284.5,-311.7"/>
<polygon fill="none" stroke="#000000" points="284.5,-311.7 284.5,-330.7 408.5,-330.7 408.5,-311.7 284.5,-311.7"/>
<polygon fill="#ffffff" stroke="transparent" points="285.5,-312.7 285.5,-329.7 332.5,-329.7 332.5,-312.7 285.5,-312.7"/>
<text text-anchor="start" x="287.5" y="-317.8" font-family="Helvetica,sans-Serif" font-size="11.00" fill="#000000">&lt; 1</text>
<polygon fill="#ffffff" stroke="transparent" points="332.5,-312.7 332.5,-329.7 370.5,-329.7 370.5,-312.7 332.5,-312.7"/>
<text text-anchor="start" x="348.4431" y="-317.8" font-family="Helvetica,sans-Serif" font-size="11.00" fill="#000000"> &#160;</text>
<polygon fill="#ffffff" stroke="transparent" points="370.5,-312.7 370.5,-329.7 407.5,-329.7 407.5,-312.7 370.5,-312.7"/>
<text text-anchor="start" x="399.3862" y="-317.8" font-family="Helvetica,sans-Serif" font-size="11.00" fill="#000000"> &#160;</text>
<polygon fill="#000000" stroke="#000000" points="332.5,-312.7 332.5,-329.7 332.5,-329.7 332.5,-312.7 332.5,-312.7"/>
<polygon fill="#000000" stroke="#000000" points="370.5,-312.7 370.5,-329.7 370.5,-329.7 370.5,-312.7 370.5,-312.7"/>
</a>
</g>
</g>
<!-- Users -->
<g id="node7" class="node">
<title>Users</title>
<g id="a_node7"><a xlink:href="../../tables/Users.html" xlink:title="Users" target="_top">
<polygon fill="#ffffff" stroke="transparent" points="8,-264.2 8,-391.2 208,-391.2 208,-264.2 8,-264.2"/>
<polygon fill="#f5f5f5" stroke="transparent" points="8,-367.7 8,-390.7 208,-390.7 208,-367.7 8,-367.7"/>
<polygon fill="none" stroke="#000000" points="8,-367.7 8,-390.7 208,-390.7 208,-367.7 8,-367.7"/>
<text text-anchor="start" x="13" y="-376.3" font-family="Helvetica,sans-Serif" font-weight="bold" font-size="11.00" fill="#000000">Users</text>
<text text-anchor="start" x="173.0437" y="-375.8" font-family="Helvetica,sans-Serif" font-size="11.00" fill="#000000">[table]</text>
<polygon fill="none" stroke="#000000" points="8,-345.7 8,-367.7 208,-367.7 208,-345.7 8,-345.7"/>
<image xlink:href="../../images/primaryKeys.png" width="11px" height="12px" preserveAspectRatio="xMinYMin meet" x="13" y="-362.7"/>
<text text-anchor="start" x="28" y="-352.8" font-family="Helvetica,sans-Serif" font-size="11.00" fill="#000000">Id</text>
<polygon fill="#ffffff" stroke="transparent" points="8,-323.7 8,-345.7 208,-345.7 208,-323.7 8,-323.7"/>
<polygon fill="none" stroke="#000000" points="8,-323.7 8,-345.7 208,-345.7 208,-323.7 8,-323.7"/>
<text text-anchor="start" x="28" y="-330.8" font-family="Helvetica,sans-Serif" font-size="11.00" fill="#000000">NormalizedUserName</text>
<polygon fill="#ffffff" stroke="transparent" points="8,-301.7 8,-323.7 208,-323.7 208,-301.7 8,-301.7"/>
<polygon fill="none" stroke="#000000" points="8,-301.7 8,-323.7 208,-323.7 208,-301.7 8,-301.7"/>
<text text-anchor="start" x="28" y="-308.8" font-family="Helvetica,sans-Serif" font-size="11.00" fill="#000000">NormalizedEmail</text>
<polygon fill="none" stroke="#000000" points="8,-282.7 8,-301.7 208,-301.7 208,-282.7 8,-282.7"/>
<text text-anchor="start" x="11" y="-288.8" font-family="Helvetica,sans-Serif" font-size="11.00" fill="#000000">...</text>
<polygon fill="#ffffff" stroke="transparent" points="8,-263.7 8,-282.7 208,-282.7 208,-263.7 8,-263.7"/>
<polygon fill="none" stroke="#000000" points="8,-263.7 8,-282.7 208,-282.7 208,-263.7 8,-263.7"/>
<polygon fill="#ffffff" stroke="transparent" points="9,-264.7 9,-281.7 72,-281.7 72,-264.7 9,-264.7"/>
<text text-anchor="start" x="11" y="-269.8" font-family="Helvetica,sans-Serif" font-size="11.00" fill="#000000"> &#160;</text>
<polygon fill="#ffffff" stroke="transparent" points="72,-264.7 72,-281.7 135,-281.7 135,-264.7 72,-264.7"/>
<text text-anchor="start" x="100.4431" y="-269.8" font-family="Helvetica,sans-Serif" font-size="11.00" fill="#000000"> &#160;</text>
<polygon fill="#ffffff" stroke="transparent" points="135,-264.7 135,-281.7 207,-281.7 207,-264.7 135,-264.7"/>
<text text-anchor="start" x="189.4053" y="-269.8" font-family="Helvetica,sans-Serif" font-size="11.00" fill="#000000">4 &gt;</text>
<polygon fill="#000000" stroke="#000000" points="72,-264.7 72,-281.7 72,-281.7 72,-264.7 72,-264.7"/>
<polygon fill="#000000" stroke="#000000" points="135,-264.7 135,-281.7 135,-281.7 135,-264.7 135,-264.7"/>
</a>
</g>
</g>
<!-- UserTokens&#45;&gt;Users -->
<g id="edge6" class="edge">
<title>UserTokens:w&#45;&gt;Users:e</title>
<path fill="none" stroke="#000000" d="M270.2751,-402.2537C244.5733,-392.4722 242.6509,-356.7 208,-356.7"/>
<polygon fill="#000000" stroke="#000000" points="276.6157,-403.3441 283.8898,-408.2479 280.5579,-404.022 284.5,-404.7 284.5,-404.7 284.5,-404.7 280.5579,-404.022 285.1102,-401.1521 276.6157,-403.3441 276.6157,-403.3441"/>
<ellipse fill="none" stroke="#000000" cx="273.462" cy="-402.8017" rx="3.2" ry="3.2"/>
</g>
<!-- UserClaims -->
<g id="node4" class="node">
<title>UserClaims</title>
<g id="a_node4"><a xlink:href="../../tables/UserClaims.html" xlink:title="UserClaims" target="_top">
<polygon fill="#ffffff" stroke="transparent" points="284.5,-186.2 284.5,-291.2 408.5,-291.2 408.5,-186.2 284.5,-186.2"/>
<polygon fill="#f5f5f5" stroke="transparent" points="284.5,-267.7 284.5,-290.7 408.5,-290.7 408.5,-267.7 284.5,-267.7"/>
<polygon fill="none" stroke="#000000" points="284.5,-267.7 284.5,-290.7 408.5,-290.7 408.5,-267.7 284.5,-267.7"/>
<text text-anchor="start" x="289.5" y="-276.3" font-family="Helvetica,sans-Serif" font-weight="bold" font-size="11.00" fill="#000000">UserClaims</text>
<text text-anchor="start" x="373.5437" y="-275.8" font-family="Helvetica,sans-Serif" font-size="11.00" fill="#000000">[table]</text>
<polygon fill="none" stroke="#000000" points="284.5,-245.7 284.5,-267.7 408.5,-267.7 408.5,-245.7 284.5,-245.7"/>
<image xlink:href="../../images/primaryKeys.png" width="11px" height="12px" preserveAspectRatio="xMinYMin meet" x="289.5" y="-262.7"/>
<text text-anchor="start" x="304.5" y="-252.8" font-family="Helvetica,sans-Serif" font-size="11.00" fill="#000000">Id</text>
<polygon fill="#ffffff" stroke="transparent" points="284.5,-223.7 284.5,-245.7 408.5,-245.7 408.5,-223.7 284.5,-223.7"/>
<polygon fill="none" stroke="#000000" points="284.5,-223.7 284.5,-245.7 408.5,-245.7 408.5,-223.7 284.5,-223.7"/>
<image xlink:href="../../images/foreignKeys.png" width="11px" height="12px" preserveAspectRatio="xMinYMin meet" x="289.5" y="-240.7"/>
<text text-anchor="start" x="304.5" y="-230.8" font-family="Helvetica,sans-Serif" font-size="11.00" fill="#000000">UserId</text>
<polygon fill="none" stroke="#000000" points="284.5,-204.7 284.5,-223.7 408.5,-223.7 408.5,-204.7 284.5,-204.7"/>
<text text-anchor="start" x="287.5" y="-210.8" font-family="Helvetica,sans-Serif" font-size="11.00" fill="#000000">...</text>
<polygon fill="#ffffff" stroke="transparent" points="284.5,-185.7 284.5,-204.7 408.5,-204.7 408.5,-185.7 284.5,-185.7"/>
<polygon fill="none" stroke="#000000" points="284.5,-185.7 284.5,-204.7 408.5,-204.7 408.5,-185.7 284.5,-185.7"/>
<polygon fill="#ffffff" stroke="transparent" points="285.5,-186.7 285.5,-203.7 332.5,-203.7 332.5,-186.7 285.5,-186.7"/>
<text text-anchor="start" x="287.5" y="-191.8" font-family="Helvetica,sans-Serif" font-size="11.00" fill="#000000">&lt; 1</text>
<polygon fill="#ffffff" stroke="transparent" points="332.5,-186.7 332.5,-203.7 370.5,-203.7 370.5,-186.7 332.5,-186.7"/>
<text text-anchor="start" x="348.4431" y="-191.8" font-family="Helvetica,sans-Serif" font-size="11.00" fill="#000000"> &#160;</text>
<polygon fill="#ffffff" stroke="transparent" points="370.5,-186.7 370.5,-203.7 407.5,-203.7 407.5,-186.7 370.5,-186.7"/>
<text text-anchor="start" x="399.3862" y="-191.8" font-family="Helvetica,sans-Serif" font-size="11.00" fill="#000000"> &#160;</text>
<polygon fill="#000000" stroke="#000000" points="332.5,-186.7 332.5,-203.7 332.5,-203.7 332.5,-186.7 332.5,-186.7"/>
<polygon fill="#000000" stroke="#000000" points="370.5,-186.7 370.5,-203.7 370.5,-203.7 370.5,-186.7 370.5,-186.7"/>
</a>
</g>
</g>
<!-- UserClaims&#45;&gt;Users -->
<g id="edge2" class="edge">
<title>UserClaims:w&#45;&gt;Users:e</title>
<path fill="none" stroke="#000000" d="M270.1447,-237.3616C228.6603,-255.2029 266.3754,-356.7 208,-356.7"/>
<polygon fill="#000000" stroke="#000000" points="276.6341,-236.1585 285.1563,-238.2397 280.567,-235.4292 284.5,-234.7 284.5,-234.7 284.5,-234.7 280.567,-235.4292 283.8437,-231.1603 276.6341,-236.1585 276.6341,-236.1585"/>
<ellipse fill="none" stroke="#000000" cx="273.4877" cy="-236.7418" rx="3.2" ry="3.2"/>
</g>
<!-- UserLogins -->
<g id="node5" class="node">
<title>UserLogins</title>
<g id="a_node5"><a xlink:href="../../tables/UserLogins.html" xlink:title="UserLogins" target="_top">
<polygon fill="#ffffff" stroke="transparent" points="257,-38.2 257,-165.2 436,-165.2 436,-38.2 257,-38.2"/>
<polygon fill="#f5f5f5" stroke="transparent" points="257.5,-141.7 257.5,-164.7 436.5,-164.7 436.5,-141.7 257.5,-141.7"/>
<polygon fill="none" stroke="#000000" points="257.5,-141.7 257.5,-164.7 436.5,-164.7 436.5,-141.7 257.5,-141.7"/>
<text text-anchor="start" x="262.5" y="-150.3" font-family="Helvetica,sans-Serif" font-weight="bold" font-size="11.00" fill="#000000">UserLogins</text>
<text text-anchor="start" x="401.5437" y="-149.8" font-family="Helvetica,sans-Serif" font-size="11.00" fill="#000000">[table]</text>
<polygon fill="none" stroke="#000000" points="257.5,-119.7 257.5,-141.7 436.5,-141.7 436.5,-119.7 257.5,-119.7"/>
<image xlink:href="../../images/primaryKeys.png" width="11px" height="12px" preserveAspectRatio="xMinYMin meet" x="262.5" y="-136.7"/>
<text text-anchor="start" x="277.5" y="-126.8" font-family="Helvetica,sans-Serif" font-size="11.00" fill="#000000">LoginProvider</text>
<polygon fill="none" stroke="#000000" points="257.5,-97.7 257.5,-119.7 436.5,-119.7 436.5,-97.7 257.5,-97.7"/>
<image xlink:href="../../images/primaryKeys.png" width="11px" height="12px" preserveAspectRatio="xMinYMin meet" x="262.5" y="-114.7"/>
<text text-anchor="start" x="277.5" y="-104.8" font-family="Helvetica,sans-Serif" font-size="11.00" fill="#000000">ProviderKey</text>
<polygon fill="#ffffff" stroke="transparent" points="257.5,-75.7 257.5,-97.7 436.5,-97.7 436.5,-75.7 257.5,-75.7"/>
<polygon fill="none" stroke="#000000" points="257.5,-75.7 257.5,-97.7 436.5,-97.7 436.5,-75.7 257.5,-75.7"/>
<image xlink:href="../../images/foreignKeys.png" width="11px" height="12px" preserveAspectRatio="xMinYMin meet" x="262.5" y="-92.7"/>
<text text-anchor="start" x="277.5" y="-82.8" font-family="Helvetica,sans-Serif" font-size="11.00" fill="#000000">UserId</text>
<polygon fill="none" stroke="#000000" points="257.5,-56.7 257.5,-75.7 436.5,-75.7 436.5,-56.7 257.5,-56.7"/>
<text text-anchor="start" x="260.5" y="-62.8" font-family="Helvetica,sans-Serif" font-size="11.00" fill="#000000">...</text>
<polygon fill="#ffffff" stroke="transparent" points="257.5,-37.7 257.5,-56.7 436.5,-56.7 436.5,-37.7 257.5,-37.7"/>
<polygon fill="none" stroke="#000000" points="257.5,-37.7 257.5,-56.7 436.5,-56.7 436.5,-37.7 257.5,-37.7"/>
<polygon fill="#ffffff" stroke="transparent" points="258.5,-38.7 258.5,-55.7 323.5,-55.7 323.5,-38.7 258.5,-38.7"/>
<text text-anchor="start" x="260.5" y="-43.8" font-family="Helvetica,sans-Serif" font-size="11.00" fill="#000000">&lt; 1</text>
<polygon fill="#ffffff" stroke="transparent" points="323.5,-38.7 323.5,-55.7 379.5,-55.7 379.5,-38.7 323.5,-38.7"/>
<text text-anchor="start" x="348.4431" y="-43.8" font-family="Helvetica,sans-Serif" font-size="11.00" fill="#000000"> &#160;</text>
<polygon fill="#ffffff" stroke="transparent" points="379.5,-38.7 379.5,-55.7 435.5,-55.7 435.5,-38.7 379.5,-38.7"/>
<text text-anchor="start" x="427.3862" y="-43.8" font-family="Helvetica,sans-Serif" font-size="11.00" fill="#000000"> &#160;</text>
<polygon fill="#000000" stroke="#000000" points="323.5,-38.7 323.5,-55.7 323.5,-55.7 323.5,-38.7 323.5,-38.7"/>
<polygon fill="#000000" stroke="#000000" points="379.5,-38.7 379.5,-55.7 379.5,-55.7 379.5,-38.7 379.5,-38.7"/>
</a>
</g>
</g>
<!-- UserLogins&#45;&gt;Users -->
<g id="edge3" class="edge">
<title>UserLogins:w&#45;&gt;Users:e</title>
<path fill="none" stroke="#000000" d="M244.3285,-92.5904C208.2129,-132.0753 263.6387,-356.7 208,-356.7"/>
<polygon fill="#000000" stroke="#000000" points="250.197,-89.966 258.9697,-89.9863 253.8485,-88.333 257.5,-86.7 257.5,-86.7 257.5,-86.7 253.8485,-88.333 256.0303,-83.4137 250.197,-89.966 250.197,-89.966"/>
<ellipse fill="none" stroke="#000000" cx="247.2758" cy="-91.2724" rx="3.2" ry="3.2"/>
</g>
<!-- UserRoles -->
<g id="node6" class="node">
<title>UserRoles</title>
<g id="a_node6"><a xlink:href="../../tables/UserRoles.html" xlink:title="UserRoles" target="_top">
<polygon fill="#ffffff" stroke="transparent" points="284.5,-460.2 284.5,-565.2 408.5,-565.2 408.5,-460.2 284.5,-460.2"/>
<polygon fill="#f5f5f5" stroke="transparent" points="284.5,-541.7 284.5,-564.7 408.5,-564.7 408.5,-541.7 284.5,-541.7"/>
<polygon fill="none" stroke="#000000" points="284.5,-541.7 284.5,-564.7 408.5,-564.7 408.5,-541.7 284.5,-541.7"/>
<text text-anchor="start" x="289.5" y="-550.3" font-family="Helvetica,sans-Serif" font-weight="bold" font-size="11.00" fill="#000000">UserRoles</text>
<text text-anchor="start" x="373.5437" y="-549.8" font-family="Helvetica,sans-Serif" font-size="11.00" fill="#000000">[table]</text>
<polygon fill="none" stroke="#000000" points="284.5,-519.7 284.5,-541.7 408.5,-541.7 408.5,-519.7 284.5,-519.7"/>
<image xlink:href="../../images/primaryKeys.png" width="11px" height="12px" preserveAspectRatio="xMinYMin meet" x="289.5" y="-536.7"/>
<text text-anchor="start" x="304.5" y="-526.8" font-family="Helvetica,sans-Serif" font-size="11.00" fill="#000000">UserId</text>
<polygon fill="none" stroke="#000000" points="284.5,-497.7 284.5,-519.7 408.5,-519.7 408.5,-497.7 284.5,-497.7"/>
<image xlink:href="../../images/primaryKeys.png" width="11px" height="12px" preserveAspectRatio="xMinYMin meet" x="289.5" y="-514.7"/>
<text text-anchor="start" x="304.5" y="-504.8" font-family="Helvetica,sans-Serif" font-size="11.00" fill="#000000">RoleId</text>
<polygon fill="none" stroke="#000000" points="284.5,-478.7 284.5,-497.7 408.5,-497.7 408.5,-478.7 284.5,-478.7"/>
<text text-anchor="start" x="287.5" y="-484.8" font-family="Helvetica,sans-Serif" font-size="11.00" fill="#000000">...</text>
<polygon fill="#ffffff" stroke="transparent" points="284.5,-459.7 284.5,-478.7 408.5,-478.7 408.5,-459.7 284.5,-459.7"/>
<polygon fill="none" stroke="#000000" points="284.5,-459.7 284.5,-478.7 408.5,-478.7 408.5,-459.7 284.5,-459.7"/>
<polygon fill="#ffffff" stroke="transparent" points="285.5,-460.7 285.5,-477.7 332.5,-477.7 332.5,-460.7 285.5,-460.7"/>
<text text-anchor="start" x="287.5" y="-465.8" font-family="Helvetica,sans-Serif" font-size="11.00" fill="#000000">&lt; 2</text>
<polygon fill="#ffffff" stroke="transparent" points="332.5,-460.7 332.5,-477.7 370.5,-477.7 370.5,-460.7 332.5,-460.7"/>
<text text-anchor="start" x="348.4431" y="-465.8" font-family="Helvetica,sans-Serif" font-size="11.00" fill="#000000"> &#160;</text>
<polygon fill="#ffffff" stroke="transparent" points="370.5,-460.7 370.5,-477.7 407.5,-477.7 407.5,-460.7 370.5,-460.7"/>
<text text-anchor="start" x="399.3862" y="-465.8" font-family="Helvetica,sans-Serif" font-size="11.00" fill="#000000"> &#160;</text>
<polygon fill="#000000" stroke="#000000" points="332.5,-460.7 332.5,-477.7 332.5,-477.7 332.5,-460.7 332.5,-460.7"/>
<polygon fill="#000000" stroke="#000000" points="370.5,-460.7 370.5,-477.7 370.5,-477.7 370.5,-460.7 370.5,-460.7"/>
</a>
</g>
</g>
<!-- UserRoles&#45;&gt;Roles -->
<g id="edge4" class="edge">
<title>UserRoles:w&#45;&gt;Roles:e</title>
<path fill="none" stroke="#000000" d="M269.901,-510.4083C235.8347,-518.959 230.4753,-556.7 188,-556.7"/>
<polygon fill="#000000" stroke="#000000" points="276.5542,-509.6298 284.9184,-512.2756 280.5271,-509.1649 284.5,-508.7 284.5,-508.7 284.5,-508.7 280.5271,-509.1649 284.0816,-505.1244 276.5542,-509.6298 276.5542,-509.6298"/>
<ellipse fill="none" stroke="#000000" cx="273.3759" cy="-510.0018" rx="3.2" ry="3.2"/>
</g>
<!-- UserRoles&#45;&gt;Users -->
<g id="edge5" class="edge">
<title>UserRoles:w&#45;&gt;Users:e</title>
<path fill="none" stroke="#000000" d="M269.9076,-528.5C211.5215,-508.3579 286.8676,-356.7 208,-356.7"/>
<polygon fill="#000000" stroke="#000000" points="276.5894,-529.5073 283.9633,-534.2598 280.5447,-530.1037 284.5,-530.7 284.5,-530.7 284.5,-530.7 280.5447,-530.1037 285.0367,-527.1402 276.5894,-529.5073 276.5894,-529.5073"/>
<ellipse fill="none" stroke="#000000" cx="273.4252" cy="-529.0303" rx="3.2" ry="3.2"/>
</g>
</g>
</svg>
