<?xml version="1.0" encoding="UTF-8" standalone="no"?>
<!DOCTYPE svg PUBLIC "-//W3C//DTD SVG 1.1//EN"
 "http://www.w3.org/Graphics/SVG/1.1/DTD/svg11.dtd">
<!-- Generated by graphviz version 2.40.1 (20161225.0304)
 -->
<!-- Title: largeRelationshipsDiagram Pages: 1 -->
<svg width="452pt" height="1070pt"
 viewBox="0.00 0.00 452.00 1070.20" xmlns="http://www.w3.org/2000/svg" xmlns:xlink="http://www.w3.org/1999/xlink">
<g id="graph0" class="graph" transform="scale(1 1) rotate(0) translate(4 1066.2)">
<title>largeRelationshipsDiagram</title>
<polygon fill="#ffffff" stroke="transparent" points="-4,4 -4,-1066.2 448,-1066.2 448,4 -4,4"/>
<text text-anchor="middle" x="72.4936" y="-7.3" font-family="Helvetica,sans-Serif" font-size="11.00" fill="#000000">Generated by SchemaSpy</text>
<!-- RoleClaims -->
<g id="node1" class="node">
<title>RoleClaims</title>
<g id="a_node1"><a xlink:href="../../tables/RoleClaims.html" xlink:title="RoleClaims" target="_top">
<polygon fill="#ffffff" stroke="transparent" points="284.5,-862.2 284.5,-1058.2 408.5,-1058.2 408.5,-862.2 284.5,-862.2"/>
<polygon fill="#f5f5f5" stroke="transparent" points="284.5,-1035.2 284.5,-1058.2 408.5,-1058.2 408.5,-1035.2 284.5,-1035.2"/>
<polygon fill="none" stroke="#000000" points="284.5,-1035.2 284.5,-1058.2 408.5,-1058.2 408.5,-1035.2 284.5,-1035.2"/>
<text text-anchor="start" x="289.5" y="-1043.8" font-family="Helvetica,sans-Serif" font-weight="bold" font-size="11.00" fill="#000000">RoleClaims</text>
<text text-anchor="start" x="373.5437" y="-1043.3" font-family="Helvetica,sans-Serif" font-size="11.00" fill="#000000">[table]</text>
<polygon fill="none" stroke="#000000" points="284.5,-1013.2 284.5,-1035.2 408.5,-1035.2 408.5,-1013.2 284.5,-1013.2"/>
<image xlink:href="../../images/primaryKeys.png" width="11px" height="12px" preserveAspectRatio="xMinYMin meet" x="289.5" y="-1030.2"/>
<text text-anchor="start" x="304.5" y="-1020.3" font-family="Helvetica,sans-Serif" font-size="11.00" fill="#000000">Id</text>
<polygon fill="none" stroke="#000000" points="284.5,-991.2 284.5,-1013.2 408.5,-1013.2 408.5,-991.2 284.5,-991.2"/>
<text text-anchor="start" x="304.5" y="-998.3" font-family="Helvetica,sans-Serif" font-size="11.00" fill="#000000">CreatedAtUtc</text>
<polygon fill="none" stroke="#000000" points="284.5,-969.2 284.5,-991.2 408.5,-991.2 408.5,-969.2 284.5,-969.2"/>
<text text-anchor="start" x="304.5" y="-976.3" font-family="Helvetica,sans-Serif" font-size="11.00" fill="#000000">UpdatedAtUtc</text>
<polygon fill="none" stroke="#000000" points="284.5,-947.2 284.5,-969.2 408.5,-969.2 408.5,-947.2 284.5,-947.2"/>
<text text-anchor="start" x="304.5" y="-954.3" font-family="Helvetica,sans-Serif" font-size="11.00" fill="#000000">RowVersion</text>
<polygon fill="#ffffff" stroke="transparent" points="284.5,-925.2 284.5,-947.2 408.5,-947.2 408.5,-925.2 284.5,-925.2"/>
<polygon fill="none" stroke="#000000" points="284.5,-925.2 284.5,-947.2 408.5,-947.2 408.5,-925.2 284.5,-925.2"/>
<image xlink:href="../../images/foreignKeys.png" width="11px" height="12px" preserveAspectRatio="xMinYMin meet" x="289.5" y="-942.2"/>
<text text-anchor="start" x="304.5" y="-932.3" font-family="Helvetica,sans-Serif" font-size="11.00" fill="#000000">RoleId</text>
<polygon fill="none" stroke="#000000" points="284.5,-903.2 284.5,-925.2 408.5,-925.2 408.5,-903.2 284.5,-903.2"/>
<text text-anchor="start" x="304.5" y="-910.3" font-family="Helvetica,sans-Serif" font-size="11.00" fill="#000000">ClaimType</text>
<polygon fill="none" stroke="#000000" points="284.5,-881.2 284.5,-903.2 408.5,-903.2 408.5,-881.2 284.5,-881.2"/>
<text text-anchor="start" x="304.5" y="-888.3" font-family="Helvetica,sans-Serif" font-size="11.00" fill="#000000">ClaimValue</text>
<polygon fill="#ffffff" stroke="transparent" points="284.5,-862.2 284.5,-881.2 408.5,-881.2 408.5,-862.2 284.5,-862.2"/>
<polygon fill="none" stroke="#000000" points="284.5,-862.2 284.5,-881.2 408.5,-881.2 408.5,-862.2 284.5,-862.2"/>
<polygon fill="#ffffff" stroke="transparent" points="285.5,-863.2 285.5,-880.2 332.5,-880.2 332.5,-863.2 285.5,-863.2"/>
<text text-anchor="start" x="287.5" y="-868.3" font-family="Helvetica,sans-Serif" font-size="11.00" fill="#000000">&lt; 1</text>
<polygon fill="#ffffff" stroke="transparent" points="332.5,-863.2 332.5,-880.2 370.5,-880.2 370.5,-863.2 332.5,-863.2"/>
<text text-anchor="start" x="348.4431" y="-868.3" font-family="Helvetica,sans-Serif" font-size="11.00" fill="#000000"> &#160;</text>
<polygon fill="#ffffff" stroke="transparent" points="370.5,-863.2 370.5,-880.2 407.5,-880.2 407.5,-863.2 370.5,-863.2"/>
<text text-anchor="start" x="399.3862" y="-868.3" font-family="Helvetica,sans-Serif" font-size="11.00" fill="#000000"> &#160;</text>
<polygon fill="#000000" stroke="#000000" points="332.5,-863.2 332.5,-880.2 332.5,-880.2 332.5,-863.2 332.5,-863.2"/>
<polygon fill="#000000" stroke="#000000" points="370.5,-863.2 370.5,-880.2 370.5,-880.2 370.5,-863.2 370.5,-863.2"/>
</a>
</g>
</g>
<!-- Roles -->
<g id="node3" class="node">
<title>Roles</title>
<g id="a_node3"><a xlink:href="../../tables/Roles.html" xlink:title="Roles" target="_top">
<polygon fill="#ffffff" stroke="transparent" points="28.5,-698.2 28.5,-894.2 187.5,-894.2 187.5,-698.2 28.5,-698.2"/>
<polygon fill="#f5f5f5" stroke="transparent" points="29,-871.2 29,-894.2 188,-894.2 188,-871.2 29,-871.2"/>
<polygon fill="none" stroke="#000000" points="29,-871.2 29,-894.2 188,-894.2 188,-871.2 29,-871.2"/>
<text text-anchor="start" x="34" y="-879.8" font-family="Helvetica,sans-Serif" font-weight="bold" font-size="11.00" fill="#000000">Roles</text>
<text text-anchor="start" x="153.0437" y="-879.3" font-family="Helvetica,sans-Serif" font-size="11.00" fill="#000000">[table]</text>
<polygon fill="none" stroke="#000000" points="29,-849.2 29,-871.2 188,-871.2 188,-849.2 29,-849.2"/>
<image xlink:href="../../images/primaryKeys.png" width="11px" height="12px" preserveAspectRatio="xMinYMin meet" x="34" y="-866.2"/>
<text text-anchor="start" x="49" y="-856.3" font-family="Helvetica,sans-Serif" font-size="11.00" fill="#000000">Id</text>
<polygon fill="none" stroke="#000000" points="29,-827.2 29,-849.2 188,-849.2 188,-827.2 29,-827.2"/>
<text text-anchor="start" x="49" y="-834.3" font-family="Helvetica,sans-Serif" font-size="11.00" fill="#000000">CreatedAtUtc</text>
<polygon fill="none" stroke="#000000" points="29,-805.2 29,-827.2 188,-827.2 188,-805.2 29,-805.2"/>
<text text-anchor="start" x="49" y="-812.3" font-family="Helvetica,sans-Serif" font-size="11.00" fill="#000000">UpdatedAtUtc</text>
<polygon fill="none" stroke="#000000" points="29,-783.2 29,-805.2 188,-805.2 188,-783.2 29,-783.2"/>
<text text-anchor="start" x="49" y="-790.3" font-family="Helvetica,sans-Serif" font-size="11.00" fill="#000000">RowVersion</text>
<polygon fill="none" stroke="#000000" points="29,-761.2 29,-783.2 188,-783.2 188,-761.2 29,-761.2"/>
<text text-anchor="start" x="49" y="-768.3" font-family="Helvetica,sans-Serif" font-size="11.00" fill="#000000">Name</text>
<polygon fill="#ffffff" stroke="transparent" points="29,-739.2 29,-761.2 188,-761.2 188,-739.2 29,-739.2"/>
<polygon fill="none" stroke="#000000" points="29,-739.2 29,-761.2 188,-761.2 188,-739.2 29,-739.2"/>
<text text-anchor="start" x="49" y="-746.3" font-family="Helvetica,sans-Serif" font-size="11.00" fill="#000000">NormalizedName</text>
<polygon fill="none" stroke="#000000" points="29,-717.2 29,-739.2 188,-739.2 188,-717.2 29,-717.2"/>
<text text-anchor="start" x="49" y="-724.3" font-family="Helvetica,sans-Serif" font-size="11.00" fill="#000000">ConcurrencyStamp</text>
<polygon fill="#ffffff" stroke="transparent" points="29,-698.2 29,-717.2 188,-717.2 188,-698.2 29,-698.2"/>
<polygon fill="none" stroke="#000000" points="29,-698.2 29,-717.2 188,-717.2 188,-698.2 29,-698.2"/>
<polygon fill="#ffffff" stroke="transparent" points="30,-699.2 30,-716.2 80,-716.2 80,-699.2 30,-699.2"/>
<text text-anchor="start" x="32" y="-704.3" font-family="Helvetica,sans-Serif" font-size="11.00" fill="#000000"> &#160;</text>
<polygon fill="#ffffff" stroke="transparent" points="80,-699.2 80,-716.2 129,-716.2 129,-699.2 80,-699.2"/>
<text text-anchor="start" x="101.4431" y="-704.3" font-family="Helvetica,sans-Serif" font-size="11.00" fill="#000000"> &#160;</text>
<polygon fill="#ffffff" stroke="transparent" points="129,-699.2 129,-716.2 187,-716.2 187,-699.2 129,-699.2"/>
<text text-anchor="start" x="169.4053" y="-704.3" font-family="Helvetica,sans-Serif" font-size="11.00" fill="#000000">2 &gt;</text>
<polygon fill="#000000" stroke="#000000" points="80,-699.2 80,-716.2 80,-716.2 80,-699.2 80,-699.2"/>
<polygon fill="#000000" stroke="#000000" points="129,-699.2 129,-716.2 129,-716.2 129,-699.2 129,-699.2"/>
</a>
</g>
</g>
<!-- RoleClaims&#45;&gt;Roles -->
<g id="edge1" class="edge">
<title>RoleClaims:w&#45;&gt;Roles:e</title>
<path fill="none" stroke="#000000" d="M269.8072,-934.0074C231.7899,-921.5464 237.0484,-860.2 188,-860.2"/>
<polygon fill="#000000" stroke="#000000" points="276.5876,-935.0192 283.9686,-939.7606 280.5438,-935.6096 284.5,-936.2 284.5,-936.2 284.5,-936.2 280.5438,-935.6096 285.0314,-932.6394 276.5876,-935.0192 276.5876,-935.0192"/>
<ellipse fill="none" stroke="#000000" cx="273.4227" cy="-934.5469" rx="3.2" ry="3.2"/>
</g>
<!-- UserTokens -->
<g id="node2" class="node">
<title>UserTokens</title>
<g id="a_node2"><a xlink:href="../../tables/UserTokens.html" xlink:title="UserTokens" target="_top">
<polygon fill="#ffffff" stroke="transparent" points="284.5,-472.2 284.5,-668.2 408.5,-668.2 408.5,-472.2 284.5,-472.2"/>
<polygon fill="#f5f5f5" stroke="transparent" points="284.5,-645.2 284.5,-668.2 408.5,-668.2 408.5,-645.2 284.5,-645.2"/>
<polygon fill="none" stroke="#000000" points="284.5,-645.2 284.5,-668.2 408.5,-668.2 408.5,-645.2 284.5,-645.2"/>
<text text-anchor="start" x="289.5" y="-653.8" font-family="Helvetica,sans-Serif" font-weight="bold" font-size="11.00" fill="#000000">UserTokens</text>
<text text-anchor="start" x="374.0219" y="-653.3" font-family="Helvetica,sans-Serif" font-size="11.00" fill="#000000">[table]</text>
<polygon fill="none" stroke="#000000" points="284.5,-623.2 284.5,-645.2 408.5,-645.2 408.5,-623.2 284.5,-623.2"/>
<image xlink:href="../../images/primaryKeys.png" width="11px" height="12px" preserveAspectRatio="xMinYMin meet" x="289.5" y="-640.2"/>
<text text-anchor="start" x="304.5" y="-630.3" font-family="Helvetica,sans-Serif" font-size="11.00" fill="#000000">UserId</text>
<polygon fill="none" stroke="#000000" points="284.5,-601.2 284.5,-623.2 408.5,-623.2 408.5,-601.2 284.5,-601.2"/>
<image xlink:href="../../images/primaryKeys.png" width="11px" height="12px" preserveAspectRatio="xMinYMin meet" x="289.5" y="-618.2"/>
<text text-anchor="start" x="304.5" y="-608.3" font-family="Helvetica,sans-Serif" font-size="11.00" fill="#000000">LoginProvider</text>
<polygon fill="none" stroke="#000000" points="284.5,-579.2 284.5,-601.2 408.5,-601.2 408.5,-579.2 284.5,-579.2"/>
<image xlink:href="../../images/primaryKeys.png" width="11px" height="12px" preserveAspectRatio="xMinYMin meet" x="289.5" y="-596.2"/>
<text text-anchor="start" x="304.5" y="-586.3" font-family="Helvetica,sans-Serif" font-size="11.00" fill="#000000">Name</text>
<polygon fill="none" stroke="#000000" points="284.5,-557.2 284.5,-579.2 408.5,-579.2 408.5,-557.2 284.5,-557.2"/>
<text text-anchor="start" x="304.5" y="-564.3" font-family="Helvetica,sans-Serif" font-size="11.00" fill="#000000">CreatedAtUtc</text>
<polygon fill="none" stroke="#000000" points="284.5,-535.2 284.5,-557.2 408.5,-557.2 408.5,-535.2 284.5,-535.2"/>
<text text-anchor="start" x="304.5" y="-542.3" font-family="Helvetica,sans-Serif" font-size="11.00" fill="#000000">UpdatedAtUtc</text>
<polygon fill="none" stroke="#000000" points="284.5,-513.2 284.5,-535.2 408.5,-535.2 408.5,-513.2 284.5,-513.2"/>
<text text-anchor="start" x="304.5" y="-520.3" font-family="Helvetica,sans-Serif" font-size="11.00" fill="#000000">RowVersion</text>
<polygon fill="none" stroke="#000000" points="284.5,-491.2 284.5,-513.2 408.5,-513.2 408.5,-491.2 284.5,-491.2"/>
<text text-anchor="start" x="304.5" y="-498.3" font-family="Helvetica,sans-Serif" font-size="11.00" fill="#000000">Value</text>
<polygon fill="#ffffff" stroke="transparent" points="284.5,-472.2 284.5,-491.2 408.5,-491.2 408.5,-472.2 284.5,-472.2"/>
<polygon fill="none" stroke="#000000" points="284.5,-472.2 284.5,-491.2 408.5,-491.2 408.5,-472.2 284.5,-472.2"/>
<polygon fill="#ffffff" stroke="transparent" points="285.5,-473.2 285.5,-490.2 332.5,-490.2 332.5,-473.2 285.5,-473.2"/>
<text text-anchor="start" x="287.5" y="-478.3" font-family="Helvetica,sans-Serif" font-size="11.00" fill="#000000">&lt; 1</text>
<polygon fill="#ffffff" stroke="transparent" points="332.5,-473.2 332.5,-490.2 370.5,-490.2 370.5,-473.2 332.5,-473.2"/>
<text text-anchor="start" x="348.4431" y="-478.3" font-family="Helvetica,sans-Serif" font-size="11.00" fill="#000000"> &#160;</text>
<polygon fill="#ffffff" stroke="transparent" points="370.5,-473.2 370.5,-490.2 407.5,-490.2 407.5,-473.2 370.5,-473.2"/>
<text text-anchor="start" x="399.3862" y="-478.3" font-family="Helvetica,sans-Serif" font-size="11.00" fill="#000000"> &#160;</text>
<polygon fill="#000000" stroke="#000000" points="332.5,-473.2 332.5,-490.2 332.5,-490.2 332.5,-473.2 332.5,-473.2"/>
<polygon fill="#000000" stroke="#000000" points="370.5,-473.2 370.5,-490.2 370.5,-490.2 370.5,-473.2 370.5,-473.2"/>
</a>
</g>
</g>
<!-- Users -->
<g id="node7" class="node">
<title>Users</title>
<g id="a_node7"><a xlink:href="../../tables/Users.html" xlink:title="Users" target="_top">
<polygon fill="#ffffff" stroke="transparent" points="8,-120.2 8,-558.2 208,-558.2 208,-120.2 8,-120.2"/>
<polygon fill="#f5f5f5" stroke="transparent" points="8,-535.2 8,-558.2 208,-558.2 208,-535.2 8,-535.2"/>
<polygon fill="none" stroke="#000000" points="8,-535.2 8,-558.2 208,-558.2 208,-535.2 8,-535.2"/>
<text text-anchor="start" x="13" y="-543.8" font-family="Helvetica,sans-Serif" font-weight="bold" font-size="11.00" fill="#000000">Users</text>
<text text-anchor="start" x="173.0437" y="-543.3" font-family="Helvetica,sans-Serif" font-size="11.00" fill="#000000">[table]</text>
<polygon fill="none" stroke="#000000" points="8,-513.2 8,-535.2 208,-535.2 208,-513.2 8,-513.2"/>
<image xlink:href="../../images/primaryKeys.png" width="11px" height="12px" preserveAspectRatio="xMinYMin meet" x="13" y="-530.2"/>
<text text-anchor="start" x="28" y="-520.3" font-family="Helvetica,sans-Serif" font-size="11.00" fill="#000000">Id</text>
<polygon fill="none" stroke="#000000" points="8,-491.2 8,-513.2 208,-513.2 208,-491.2 8,-491.2"/>
<text text-anchor="start" x="28" y="-498.3" font-family="Helvetica,sans-Serif" font-size="11.00" fill="#000000">CreatedAtUtc</text>
<polygon fill="none" stroke="#000000" points="8,-469.2 8,-491.2 208,-491.2 208,-469.2 8,-469.2"/>
<text text-anchor="start" x="28" y="-476.3" font-family="Helvetica,sans-Serif" font-size="11.00" fill="#000000">UpdatedAtUtc</text>
<polygon fill="none" stroke="#000000" points="8,-447.2 8,-469.2 208,-469.2 208,-447.2 8,-447.2"/>
<text text-anchor="start" x="28" y="-454.3" font-family="Helvetica,sans-Serif" font-size="11.00" fill="#000000">RowVersion</text>
<polygon fill="none" stroke="#000000" points="8,-425.2 8,-447.2 208,-447.2 208,-425.2 8,-425.2"/>
<text text-anchor="start" x="28" y="-432.3" font-family="Helvetica,sans-Serif" font-size="11.00" fill="#000000">UserName</text>
<polygon fill="#ffffff" stroke="transparent" points="8,-403.2 8,-425.2 208,-425.2 208,-403.2 8,-403.2"/>
<polygon fill="none" stroke="#000000" points="8,-403.2 8,-425.2 208,-425.2 208,-403.2 8,-403.2"/>
<text text-anchor="start" x="28" y="-410.3" font-family="Helvetica,sans-Serif" font-size="11.00" fill="#000000">NormalizedUserName</text>
<polygon fill="none" stroke="#000000" points="8,-381.2 8,-403.2 208,-403.2 208,-381.2 8,-381.2"/>
<text text-anchor="start" x="28" y="-388.3" font-family="Helvetica,sans-Serif" font-size="11.00" fill="#000000">Email</text>
<polygon fill="#ffffff" stroke="transparent" points="8,-359.2 8,-381.2 208,-381.2 208,-359.2 8,-359.2"/>
<polygon fill="none" stroke="#000000" points="8,-359.2 8,-381.2 208,-381.2 208,-359.2 8,-359.2"/>
<text text-anchor="start" x="28" y="-366.3" font-family="Helvetica,sans-Serif" font-size="11.00" fill="#000000">NormalizedEmail</text>
<polygon fill="none" stroke="#000000" points="8,-337.2 8,-359.2 208,-359.2 208,-337.2 8,-337.2"/>
<text text-anchor="start" x="28" y="-344.3" font-family="Helvetica,sans-Serif" font-size="11.00" fill="#000000">EmailConfirmed</text>
<polygon fill="none" stroke="#000000" points="8,-315.2 8,-337.2 208,-337.2 208,-315.2 8,-315.2"/>
<text text-anchor="start" x="28" y="-322.3" font-family="Helvetica,sans-Serif" font-size="11.00" fill="#000000">PasswordHash</text>
<polygon fill="none" stroke="#000000" points="8,-293.2 8,-315.2 208,-315.2 208,-293.2 8,-293.2"/>
<text text-anchor="start" x="28" y="-300.3" font-family="Helvetica,sans-Serif" font-size="11.00" fill="#000000">SecurityStamp</text>
<polygon fill="none" stroke="#000000" points="8,-271.2 8,-293.2 208,-293.2 208,-271.2 8,-271.2"/>
<text text-anchor="start" x="28" y="-278.3" font-family="Helvetica,sans-Serif" font-size="11.00" fill="#000000">ConcurrencyStamp</text>
<polygon fill="none" stroke="#000000" points="8,-249.2 8,-271.2 208,-271.2 208,-249.2 8,-249.2"/>
<text text-anchor="start" x="28" y="-256.3" font-family="Helvetica,sans-Serif" font-size="11.00" fill="#000000">PhoneNumber</text>
<polygon fill="none" stroke="#000000" points="8,-227.2 8,-249.2 208,-249.2 208,-227.2 8,-227.2"/>
<text text-anchor="start" x="28" y="-234.3" font-family="Helvetica,sans-Serif" font-size="11.00" fill="#000000">PhoneNumberConfirmed</text>
<polygon fill="none" stroke="#000000" points="8,-205.2 8,-227.2 208,-227.2 208,-205.2 8,-205.2"/>
<text text-anchor="start" x="28" y="-212.3" font-family="Helvetica,sans-Serif" font-size="11.00" fill="#000000">TwoFactorEnabled</text>
<polygon fill="none" stroke="#000000" points="8,-183.2 8,-205.2 208,-205.2 208,-183.2 8,-183.2"/>
<text text-anchor="start" x="28" y="-190.3" font-family="Helvetica,sans-Serif" font-size="11.00" fill="#000000">LockoutEnd</text>
<polygon fill="none" stroke="#000000" points="8,-161.2 8,-183.2 208,-183.2 208,-161.2 8,-161.2"/>
<text text-anchor="start" x="28" y="-168.3" font-family="Helvetica,sans-Serif" font-size="11.00" fill="#000000">LockoutEnabled</text>
<polygon fill="none" stroke="#000000" points="8,-139.2 8,-161.2 208,-161.2 208,-139.2 8,-139.2"/>
<text text-anchor="start" x="28" y="-146.3" font-family="Helvetica,sans-Serif" font-size="11.00" fill="#000000">AccessFailedCount</text>
<polygon fill="#ffffff" stroke="transparent" points="8,-120.2 8,-139.2 208,-139.2 208,-120.2 8,-120.2"/>
<polygon fill="none" stroke="#000000" points="8,-120.2 8,-139.2 208,-139.2 208,-120.2 8,-120.2"/>
<polygon fill="#ffffff" stroke="transparent" points="9,-121.2 9,-138.2 72,-138.2 72,-121.2 9,-121.2"/>
<text text-anchor="start" x="11" y="-126.3" font-family="Helvetica,sans-Serif" font-size="11.00" fill="#000000"> &#160;</text>
<polygon fill="#ffffff" stroke="transparent" points="72,-121.2 72,-138.2 135,-138.2 135,-121.2 72,-121.2"/>
<text text-anchor="start" x="100.4431" y="-126.3" font-family="Helvetica,sans-Serif" font-size="11.00" fill="#000000"> &#160;</text>
<polygon fill="#ffffff" stroke="transparent" points="135,-121.2 135,-138.2 207,-138.2 207,-121.2 135,-121.2"/>
<text text-anchor="start" x="189.4053" y="-126.3" font-family="Helvetica,sans-Serif" font-size="11.00" fill="#000000">4 &gt;</text>
<polygon fill="#000000" stroke="#000000" points="72,-121.2 72,-138.2 72,-138.2 72,-121.2 72,-121.2"/>
<polygon fill="#000000" stroke="#000000" points="135,-121.2 135,-138.2 135,-138.2 135,-121.2 135,-121.2"/>
</a>
</g>
</g>
<!-- UserTokens&#45;&gt;Users -->
<g id="edge6" class="edge">
<title>UserTokens:w&#45;&gt;Users:e</title>
<path fill="none" stroke="#000000" d="M270.2768,-631.4809C232.0401,-614.5418 261.9666,-524.2 208,-524.2"/>
<polygon fill="#000000" stroke="#000000" points="276.6423,-632.6978 283.824,-637.736 280.5712,-633.4489 284.5,-634.2 284.5,-634.2 284.5,-634.2 280.5712,-633.4489 285.176,-630.664 276.6423,-632.6978 276.6423,-632.6978"/>
<ellipse fill="none" stroke="#000000" cx="273.4992" cy="-632.0969" rx="3.2" ry="3.2"/>
</g>
<!-- UserClaims -->
<g id="node4" class="node">
<title>UserClaims</title>
<g id="a_node4"><a xlink:href="../../tables/UserClaims.html" xlink:title="UserClaims" target="_top">
<polygon fill="#ffffff" stroke="transparent" points="284.5,-255.2 284.5,-451.2 408.5,-451.2 408.5,-255.2 284.5,-255.2"/>
<polygon fill="#f5f5f5" stroke="transparent" points="284.5,-428.2 284.5,-451.2 408.5,-451.2 408.5,-428.2 284.5,-428.2"/>
<polygon fill="none" stroke="#000000" points="284.5,-428.2 284.5,-451.2 408.5,-451.2 408.5,-428.2 284.5,-428.2"/>
<text text-anchor="start" x="289.5" y="-436.8" font-family="Helvetica,sans-Serif" font-weight="bold" font-size="11.00" fill="#000000">UserClaims</text>
<text text-anchor="start" x="373.5437" y="-436.3" font-family="Helvetica,sans-Serif" font-size="11.00" fill="#000000">[table]</text>
<polygon fill="none" stroke="#000000" points="284.5,-406.2 284.5,-428.2 408.5,-428.2 408.5,-406.2 284.5,-406.2"/>
<image xlink:href="../../images/primaryKeys.png" width="11px" height="12px" preserveAspectRatio="xMinYMin meet" x="289.5" y="-423.2"/>
<text text-anchor="start" x="304.5" y="-413.3" font-family="Helvetica,sans-Serif" font-size="11.00" fill="#000000">Id</text>
<polygon fill="none" stroke="#000000" points="284.5,-384.2 284.5,-406.2 408.5,-406.2 408.5,-384.2 284.5,-384.2"/>
<text text-anchor="start" x="304.5" y="-391.3" font-family="Helvetica,sans-Serif" font-size="11.00" fill="#000000">CreatedAtUtc</text>
<polygon fill="none" stroke="#000000" points="284.5,-362.2 284.5,-384.2 408.5,-384.2 408.5,-362.2 284.5,-362.2"/>
<text text-anchor="start" x="304.5" y="-369.3" font-family="Helvetica,sans-Serif" font-size="11.00" fill="#000000">UpdatedAtUtc</text>
<polygon fill="none" stroke="#000000" points="284.5,-340.2 284.5,-362.2 408.5,-362.2 408.5,-340.2 284.5,-340.2"/>
<text text-anchor="start" x="304.5" y="-347.3" font-family="Helvetica,sans-Serif" font-size="11.00" fill="#000000">RowVersion</text>
<polygon fill="#ffffff" stroke="transparent" points="284.5,-318.2 284.5,-340.2 408.5,-340.2 408.5,-318.2 284.5,-318.2"/>
<polygon fill="none" stroke="#000000" points="284.5,-318.2 284.5,-340.2 408.5,-340.2 408.5,-318.2 284.5,-318.2"/>
<image xlink:href="../../images/foreignKeys.png" width="11px" height="12px" preserveAspectRatio="xMinYMin meet" x="289.5" y="-335.2"/>
<text text-anchor="start" x="304.5" y="-325.3" font-family="Helvetica,sans-Serif" font-size="11.00" fill="#000000">UserId</text>
<polygon fill="none" stroke="#000000" points="284.5,-296.2 284.5,-318.2 408.5,-318.2 408.5,-296.2 284.5,-296.2"/>
<text text-anchor="start" x="304.5" y="-303.3" font-family="Helvetica,sans-Serif" font-size="11.00" fill="#000000">ClaimType</text>
<polygon fill="none" stroke="#000000" points="284.5,-274.2 284.5,-296.2 408.5,-296.2 408.5,-274.2 284.5,-274.2"/>
<text text-anchor="start" x="304.5" y="-281.3" font-family="Helvetica,sans-Serif" font-size="11.00" fill="#000000">ClaimValue</text>
<polygon fill="#ffffff" stroke="transparent" points="284.5,-255.2 284.5,-274.2 408.5,-274.2 408.5,-255.2 284.5,-255.2"/>
<polygon fill="none" stroke="#000000" points="284.5,-255.2 284.5,-274.2 408.5,-274.2 408.5,-255.2 284.5,-255.2"/>
<polygon fill="#ffffff" stroke="transparent" points="285.5,-256.2 285.5,-273.2 332.5,-273.2 332.5,-256.2 285.5,-256.2"/>
<text text-anchor="start" x="287.5" y="-261.3" font-family="Helvetica,sans-Serif" font-size="11.00" fill="#000000">&lt; 1</text>
<polygon fill="#ffffff" stroke="transparent" points="332.5,-256.2 332.5,-273.2 370.5,-273.2 370.5,-256.2 332.5,-256.2"/>
<text text-anchor="start" x="348.4431" y="-261.3" font-family="Helvetica,sans-Serif" font-size="11.00" fill="#000000"> &#160;</text>
<polygon fill="#ffffff" stroke="transparent" points="370.5,-256.2 370.5,-273.2 407.5,-273.2 407.5,-256.2 370.5,-256.2"/>
<text text-anchor="start" x="399.3862" y="-261.3" font-family="Helvetica,sans-Serif" font-size="11.00" fill="#000000"> &#160;</text>
<polygon fill="#000000" stroke="#000000" points="332.5,-256.2 332.5,-273.2 332.5,-273.2 332.5,-256.2 332.5,-256.2"/>
<polygon fill="#000000" stroke="#000000" points="370.5,-256.2 370.5,-273.2 370.5,-273.2 370.5,-256.2 370.5,-256.2"/>
</a>
</g>
</g>
<!-- UserClaims&#45;&gt;Users -->
<g id="edge2" class="edge">
<title>UserClaims:w&#45;&gt;Users:e</title>
<path fill="none" stroke="#000000" d="M270.1423,-331.13C203.5613,-351.3821 295.6424,-524.2 208,-524.2"/>
<polygon fill="#000000" stroke="#000000" points="276.5713,-330.2658 284.9796,-332.7679 280.5357,-329.7329 284.5,-329.2 284.5,-329.2 284.5,-329.2 280.5357,-329.7329 284.0204,-325.6321 276.5713,-330.2658 276.5713,-330.2658"/>
<ellipse fill="none" stroke="#000000" cx="273.3998" cy="-330.6922" rx="3.2" ry="3.2"/>
</g>
<!-- UserLogins -->
<g id="node5" class="node">
<title>UserLogins</title>
<g id="a_node5"><a xlink:href="../../tables/UserLogins.html" xlink:title="UserLogins" target="_top">
<polygon fill="#ffffff" stroke="transparent" points="257,-38.2 257,-234.2 436,-234.2 436,-38.2 257,-38.2"/>
<polygon fill="#f5f5f5" stroke="transparent" points="257.5,-211.2 257.5,-234.2 436.5,-234.2 436.5,-211.2 257.5,-211.2"/>
<polygon fill="none" stroke="#000000" points="257.5,-211.2 257.5,-234.2 436.5,-234.2 436.5,-211.2 257.5,-211.2"/>
<text text-anchor="start" x="262.5" y="-219.8" font-family="Helvetica,sans-Serif" font-weight="bold" font-size="11.00" fill="#000000">UserLogins</text>
<text text-anchor="start" x="401.5437" y="-219.3" font-family="Helvetica,sans-Serif" font-size="11.00" fill="#000000">[table]</text>
<polygon fill="none" stroke="#000000" points="257.5,-189.2 257.5,-211.2 436.5,-211.2 436.5,-189.2 257.5,-189.2"/>
<image xlink:href="../../images/primaryKeys.png" width="11px" height="12px" preserveAspectRatio="xMinYMin meet" x="262.5" y="-206.2"/>
<text text-anchor="start" x="277.5" y="-196.3" font-family="Helvetica,sans-Serif" font-size="11.00" fill="#000000">LoginProvider</text>
<polygon fill="none" stroke="#000000" points="257.5,-167.2 257.5,-189.2 436.5,-189.2 436.5,-167.2 257.5,-167.2"/>
<image xlink:href="../../images/primaryKeys.png" width="11px" height="12px" preserveAspectRatio="xMinYMin meet" x="262.5" y="-184.2"/>
<text text-anchor="start" x="277.5" y="-174.3" font-family="Helvetica,sans-Serif" font-size="11.00" fill="#000000">ProviderKey</text>
<polygon fill="none" stroke="#000000" points="257.5,-145.2 257.5,-167.2 436.5,-167.2 436.5,-145.2 257.5,-145.2"/>
<text text-anchor="start" x="277.5" y="-152.3" font-family="Helvetica,sans-Serif" font-size="11.00" fill="#000000">CreatedAtUtc</text>
<polygon fill="none" stroke="#000000" points="257.5,-123.2 257.5,-145.2 436.5,-145.2 436.5,-123.2 257.5,-123.2"/>
<text text-anchor="start" x="277.5" y="-130.3" font-family="Helvetica,sans-Serif" font-size="11.00" fill="#000000">UpdatedAtUtc</text>
<polygon fill="none" stroke="#000000" points="257.5,-101.2 257.5,-123.2 436.5,-123.2 436.5,-101.2 257.5,-101.2"/>
<text text-anchor="start" x="277.5" y="-108.3" font-family="Helvetica,sans-Serif" font-size="11.00" fill="#000000">RowVersion</text>
<polygon fill="none" stroke="#000000" points="257.5,-79.2 257.5,-101.2 436.5,-101.2 436.5,-79.2 257.5,-79.2"/>
<text text-anchor="start" x="277.5" y="-86.3" font-family="Helvetica,sans-Serif" font-size="11.00" fill="#000000">ProviderDisplayName</text>
<polygon fill="#ffffff" stroke="transparent" points="257.5,-57.2 257.5,-79.2 436.5,-79.2 436.5,-57.2 257.5,-57.2"/>
<polygon fill="none" stroke="#000000" points="257.5,-57.2 257.5,-79.2 436.5,-79.2 436.5,-57.2 257.5,-57.2"/>
<image xlink:href="../../images/foreignKeys.png" width="11px" height="12px" preserveAspectRatio="xMinYMin meet" x="262.5" y="-74.2"/>
<text text-anchor="start" x="277.5" y="-64.3" font-family="Helvetica,sans-Serif" font-size="11.00" fill="#000000">UserId</text>
<polygon fill="#ffffff" stroke="transparent" points="257.5,-38.2 257.5,-57.2 436.5,-57.2 436.5,-38.2 257.5,-38.2"/>
<polygon fill="none" stroke="#000000" points="257.5,-38.2 257.5,-57.2 436.5,-57.2 436.5,-38.2 257.5,-38.2"/>
<polygon fill="#ffffff" stroke="transparent" points="258.5,-39.2 258.5,-56.2 323.5,-56.2 323.5,-39.2 258.5,-39.2"/>
<text text-anchor="start" x="260.5" y="-44.3" font-family="Helvetica,sans-Serif" font-size="11.00" fill="#000000">&lt; 1</text>
<polygon fill="#ffffff" stroke="transparent" points="323.5,-39.2 323.5,-56.2 379.5,-56.2 379.5,-39.2 323.5,-39.2"/>
<text text-anchor="start" x="348.4431" y="-44.3" font-family="Helvetica,sans-Serif" font-size="11.00" fill="#000000"> &#160;</text>
<polygon fill="#ffffff" stroke="transparent" points="379.5,-39.2 379.5,-56.2 435.5,-56.2 435.5,-39.2 379.5,-39.2"/>
<text text-anchor="start" x="427.3862" y="-44.3" font-family="Helvetica,sans-Serif" font-size="11.00" fill="#000000"> &#160;</text>
<polygon fill="#000000" stroke="#000000" points="323.5,-39.2 323.5,-56.2 323.5,-56.2 323.5,-39.2 323.5,-39.2"/>
<polygon fill="#000000" stroke="#000000" points="379.5,-39.2 379.5,-56.2 379.5,-56.2 379.5,-39.2 379.5,-39.2"/>
</a>
</g>
</g>
<!-- UserLogins&#45;&gt;Users -->
<g id="edge3" class="edge">
<title>UserLogins:w&#45;&gt;Users:e</title>
<path fill="none" stroke="#000000" d="M243.4375,-71.8705C171.1385,-115.0257 304.5535,-524.2 208,-524.2"/>
<polygon fill="#000000" stroke="#000000" points="249.7593,-70.2205 258.4092,-71.6833 253.6297,-69.2102 257.5,-68.2 257.5,-68.2 257.5,-68.2 253.6297,-69.2102 256.5908,-64.7167 249.7593,-70.2205 249.7593,-70.2205"/>
<ellipse fill="none" stroke="#000000" cx="246.6631" cy="-71.0287" rx="3.2" ry="3.2"/>
</g>
<!-- UserRoles -->
<g id="node6" class="node">
<title>UserRoles</title>
<g id="a_node6"><a xlink:href="../../tables/UserRoles.html" xlink:title="UserRoles" target="_top">
<polygon fill="#ffffff" stroke="transparent" points="284.5,-689.2 284.5,-841.2 408.5,-841.2 408.5,-689.2 284.5,-689.2"/>
<polygon fill="#f5f5f5" stroke="transparent" points="284.5,-818.2 284.5,-841.2 408.5,-841.2 408.5,-818.2 284.5,-818.2"/>
<polygon fill="none" stroke="#000000" points="284.5,-818.2 284.5,-841.2 408.5,-841.2 408.5,-818.2 284.5,-818.2"/>
<text text-anchor="start" x="289.5" y="-826.8" font-family="Helvetica,sans-Serif" font-weight="bold" font-size="11.00" fill="#000000">UserRoles</text>
<text text-anchor="start" x="373.5437" y="-826.3" font-family="Helvetica,sans-Serif" font-size="11.00" fill="#000000">[table]</text>
<polygon fill="none" stroke="#000000" points="284.5,-796.2 284.5,-818.2 408.5,-818.2 408.5,-796.2 284.5,-796.2"/>
<image xlink:href="../../images/primaryKeys.png" width="11px" height="12px" preserveAspectRatio="xMinYMin meet" x="289.5" y="-813.2"/>
<text text-anchor="start" x="304.5" y="-803.3" font-family="Helvetica,sans-Serif" font-size="11.00" fill="#000000">UserId</text>
<polygon fill="none" stroke="#000000" points="284.5,-774.2 284.5,-796.2 408.5,-796.2 408.5,-774.2 284.5,-774.2"/>
<image xlink:href="../../images/primaryKeys.png" width="11px" height="12px" preserveAspectRatio="xMinYMin meet" x="289.5" y="-791.2"/>
<text text-anchor="start" x="304.5" y="-781.3" font-family="Helvetica,sans-Serif" font-size="11.00" fill="#000000">RoleId</text>
<polygon fill="none" stroke="#000000" points="284.5,-752.2 284.5,-774.2 408.5,-774.2 408.5,-752.2 284.5,-752.2"/>
<text text-anchor="start" x="304.5" y="-759.3" font-family="Helvetica,sans-Serif" font-size="11.00" fill="#000000">CreatedAtUtc</text>
<polygon fill="none" stroke="#000000" points="284.5,-730.2 284.5,-752.2 408.5,-752.2 408.5,-730.2 284.5,-730.2"/>
<text text-anchor="start" x="304.5" y="-737.3" font-family="Helvetica,sans-Serif" font-size="11.00" fill="#000000">UpdatedAtUtc</text>
<polygon fill="none" stroke="#000000" points="284.5,-708.2 284.5,-730.2 408.5,-730.2 408.5,-708.2 284.5,-708.2"/>
<text text-anchor="start" x="304.5" y="-715.3" font-family="Helvetica,sans-Serif" font-size="11.00" fill="#000000">RowVersion</text>
<polygon fill="#ffffff" stroke="transparent" points="284.5,-689.2 284.5,-708.2 408.5,-708.2 408.5,-689.2 284.5,-689.2"/>
<polygon fill="none" stroke="#000000" points="284.5,-689.2 284.5,-708.2 408.5,-708.2 408.5,-689.2 284.5,-689.2"/>
<polygon fill="#ffffff" stroke="transparent" points="285.5,-690.2 285.5,-707.2 332.5,-707.2 332.5,-690.2 285.5,-690.2"/>
<text text-anchor="start" x="287.5" y="-695.3" font-family="Helvetica,sans-Serif" font-size="11.00" fill="#000000">&lt; 2</text>
<polygon fill="#ffffff" stroke="transparent" points="332.5,-690.2 332.5,-707.2 370.5,-707.2 370.5,-690.2 332.5,-690.2"/>
<text text-anchor="start" x="348.4431" y="-695.3" font-family="Helvetica,sans-Serif" font-size="11.00" fill="#000000"> &#160;</text>
<polygon fill="#ffffff" stroke="transparent" points="370.5,-690.2 370.5,-707.2 407.5,-707.2 407.5,-690.2 370.5,-690.2"/>
<text text-anchor="start" x="399.3862" y="-695.3" font-family="Helvetica,sans-Serif" font-size="11.00" fill="#000000"> &#160;</text>
<polygon fill="#000000" stroke="#000000" points="332.5,-690.2 332.5,-707.2 332.5,-707.2 332.5,-690.2 332.5,-690.2"/>
<polygon fill="#000000" stroke="#000000" points="370.5,-690.2 370.5,-707.2 370.5,-707.2 370.5,-690.2 370.5,-690.2"/>
</a>
</g>
</g>
<!-- UserRoles&#45;&gt;Roles -->
<g id="edge4" class="edge">
<title>UserRoles:w&#45;&gt;Roles:e</title>
<path fill="none" stroke="#000000" d="M269.8669,-787.3637C231.9609,-799.6608 236.8023,-860.2 188,-860.2"/>
<polygon fill="#000000" stroke="#000000" points="276.586,-786.3702 285.0266,-788.7613 280.543,-785.7851 284.5,-785.2 284.5,-785.2 284.5,-785.2 280.543,-785.7851 283.9734,-781.6387 276.586,-786.3702 276.586,-786.3702"/>
<ellipse fill="none" stroke="#000000" cx="273.4205" cy="-786.8383" rx="3.2" ry="3.2"/>
</g>
<!-- UserRoles&#45;&gt;Users -->
<g id="edge5" class="edge">
<title>UserRoles:w&#45;&gt;Users:e</title>
<path fill="none" stroke="#000000" d="M271.0156,-802.0464C227.2064,-763.6905 267.9293,-524.2 208,-524.2"/>
<polygon fill="#000000" stroke="#000000" points="277.0272,-804.3439 283.2148,-810.5628 280.7636,-805.772 284.5,-807.2 284.5,-807.2 284.5,-807.2 280.7636,-805.772 285.7852,-803.8372 277.0272,-804.3439 277.0272,-804.3439"/>
<ellipse fill="none" stroke="#000000" cx="274.038" cy="-803.2015" rx="3.2" ry="3.2"/>
</g>
</g>
</svg>
