<?xml version="1.0" encoding="UTF-8" standalone="no"?>
<!DOCTYPE svg PUBLIC "-//W3C//DTD SVG 1.1//EN"
 "http://www.w3.org/Graphics/SVG/1.1/DTD/svg11.dtd">
<!-- Generated by graphviz version 2.40.1 (20161225.0304)
 -->
<!-- Title: twoDegreesRelationshipsDiagram Pages: 1 -->
<svg width="747pt" height="430pt"
 viewBox="0.00 0.00 747.00 430.20" xmlns="http://www.w3.org/2000/svg" xmlns:xlink="http://www.w3.org/1999/xlink">
<g id="graph0" class="graph" transform="scale(1 1) rotate(0) translate(4 426.2)">
<title>twoDegreesRelationshipsDiagram</title>
<polygon fill="#ffffff" stroke="transparent" points="-4,4 -4,-426.2 743,-426.2 743,4 -4,4"/>
<text text-anchor="middle" x="72.4936" y="-7.3" font-family="Helvetica,sans-Serif" font-size="11.00" fill="#000000">Generated by SchemaSpy</text>
<!-- HospitalizationInsurances -->
<g id="node1" class="node">
<title>HospitalizationInsurances</title>
<g id="a_node1"><a xlink:href="../../tables/HospitalizationInsurances.html" xlink:title="HospitalizationInsurances" target="_top">
<polygon fill="#ffffff" stroke="transparent" points="501.5,-166.2 501.5,-227.2 715.5,-227.2 715.5,-166.2 501.5,-166.2"/>
<polygon fill="#f5f5f5" stroke="transparent" points="501.5,-203.7 501.5,-226.7 715.5,-226.7 715.5,-203.7 501.5,-203.7"/>
<polygon fill="none" stroke="#000000" points="501.5,-203.7 501.5,-226.7 715.5,-226.7 715.5,-203.7 501.5,-203.7"/>
<text text-anchor="start" x="506.5" y="-212.3" font-family="Helvetica,sans-Serif" font-weight="bold" font-size="11.00" fill="#000000">HospitalizationInsurances</text>
<text text-anchor="start" x="681.0219" y="-211.8" font-family="Helvetica,sans-Serif" font-size="11.00" fill="#000000">[table]</text>
<polygon fill="none" stroke="#000000" points="501.5,-184.7 501.5,-203.7 715.5,-203.7 715.5,-184.7 501.5,-184.7"/>
<text text-anchor="start" x="504.5" y="-190.8" font-family="Helvetica,sans-Serif" font-size="11.00" fill="#000000">...</text>
<polygon fill="#ffffff" stroke="transparent" points="501.5,-165.7 501.5,-184.7 606.5,-184.7 606.5,-165.7 501.5,-165.7"/>
<polygon fill="none" stroke="#000000" points="501.5,-165.7 501.5,-184.7 606.5,-184.7 606.5,-165.7 501.5,-165.7"/>
<text text-anchor="start" x="504.5" y="-171.8" font-family="Helvetica,sans-Serif" font-size="11.00" fill="#000000">&lt; 2</text>
<polygon fill="#ffffff" stroke="transparent" points="606.5,-165.7 606.5,-184.7 660.5,-184.7 660.5,-165.7 606.5,-165.7"/>
<polygon fill="none" stroke="#000000" points="606.5,-165.7 606.5,-184.7 660.5,-184.7 660.5,-165.7 606.5,-165.7"/>
<text text-anchor="start" x="651.3862" y="-171.8" font-family="Helvetica,sans-Serif" font-size="11.00" fill="#000000"> &#160;</text>
<polygon fill="#ffffff" stroke="transparent" points="660.5,-165.7 660.5,-184.7 715.5,-184.7 715.5,-165.7 660.5,-165.7"/>
<polygon fill="none" stroke="#000000" points="660.5,-165.7 660.5,-184.7 715.5,-184.7 715.5,-165.7 660.5,-165.7"/>
<text text-anchor="start" x="706.3862" y="-171.8" font-family="Helvetica,sans-Serif" font-size="11.00" fill="#000000"> &#160;</text>
</a>
</g>
</g>
<!-- Hospitalizations -->
<g id="node2" class="node">
<title>Hospitalizations</title>
<g id="a_node2"><a xlink:href="../../tables/Hospitalizations.html" xlink:title="Hospitalizations" target="_top">
<polygon fill="#ffffff" stroke="transparent" points="258,-77.2 258,-248.2 437,-248.2 437,-77.2 258,-77.2"/>
<polygon fill="#f5f5f5" stroke="transparent" points="258.5,-224.7 258.5,-247.7 437.5,-247.7 437.5,-224.7 258.5,-224.7"/>
<polygon fill="none" stroke="#000000" points="258.5,-224.7 258.5,-247.7 437.5,-247.7 437.5,-224.7 258.5,-224.7"/>
<text text-anchor="start" x="263.5" y="-233.3" font-family="Helvetica,sans-Serif" font-weight="bold" font-size="11.00" fill="#000000">Hospitalizations</text>
<text text-anchor="start" x="402.5437" y="-232.8" font-family="Helvetica,sans-Serif" font-size="11.00" fill="#000000">[table]</text>
<polygon fill="none" stroke="#000000" points="258.5,-202.7 258.5,-224.7 437.5,-224.7 437.5,-202.7 258.5,-202.7"/>
<image xlink:href="../../images/primaryKeys.png" width="11px" height="12px" preserveAspectRatio="xMinYMin meet" x="263.5" y="-219.7"/>
<text text-anchor="start" x="278.5" y="-209.8" font-family="Helvetica,sans-Serif" font-size="11.00" fill="#000000">Id</text>
<polygon fill="#ffffff" stroke="transparent" points="258.5,-180.7 258.5,-202.7 437.5,-202.7 437.5,-180.7 258.5,-180.7"/>
<polygon fill="none" stroke="#000000" points="258.5,-180.7 258.5,-202.7 437.5,-202.7 437.5,-180.7 258.5,-180.7"/>
<image xlink:href="../../images/foreignKeys.png" width="11px" height="12px" preserveAspectRatio="xMinYMin meet" x="263.5" y="-197.7"/>
<text text-anchor="start" x="278.5" y="-187.8" font-family="Helvetica,sans-Serif" font-size="11.00" fill="#000000">PatientId</text>
<polygon fill="#ffffff" stroke="transparent" points="258.5,-158.7 258.5,-180.7 437.5,-180.7 437.5,-158.7 258.5,-158.7"/>
<polygon fill="none" stroke="#000000" points="258.5,-158.7 258.5,-180.7 437.5,-180.7 437.5,-158.7 258.5,-158.7"/>
<text text-anchor="start" x="278.5" y="-165.8" font-family="Helvetica,sans-Serif" font-size="11.00" fill="#000000">CaseId</text>
<polygon fill="#ffffff" stroke="transparent" points="258.5,-136.7 258.5,-158.7 437.5,-158.7 437.5,-136.7 258.5,-136.7"/>
<polygon fill="none" stroke="#000000" points="258.5,-136.7 258.5,-158.7 437.5,-158.7 437.5,-136.7 258.5,-136.7"/>
<image xlink:href="../../images/foreignKeys.png" width="11px" height="12px" preserveAspectRatio="xMinYMin meet" x="263.5" y="-153.7"/>
<text text-anchor="start" x="278.5" y="-143.8" font-family="Helvetica,sans-Serif" font-size="11.00" fill="#000000">FacilityId</text>
<polygon fill="none" stroke="#000000" points="258.5,-114.7 258.5,-136.7 437.5,-136.7 437.5,-114.7 258.5,-114.7"/>
<image xlink:href="../../images/foreignKeys.png" width="11px" height="12px" preserveAspectRatio="xMinYMin meet" x="263.5" y="-131.7"/>
<text text-anchor="start" x="278.5" y="-121.8" font-family="Helvetica,sans-Serif" font-size="11.00" fill="#000000">HospitalizationStatusId</text>
<polygon fill="none" stroke="#000000" points="258.5,-95.7 258.5,-114.7 437.5,-114.7 437.5,-95.7 258.5,-95.7"/>
<text text-anchor="start" x="261.5" y="-101.8" font-family="Helvetica,sans-Serif" font-size="11.00" fill="#000000">...</text>
<polygon fill="#ffffff" stroke="transparent" points="258.5,-76.7 258.5,-95.7 341.5,-95.7 341.5,-76.7 258.5,-76.7"/>
<polygon fill="none" stroke="#000000" points="258.5,-76.7 258.5,-95.7 341.5,-95.7 341.5,-76.7 258.5,-76.7"/>
<text text-anchor="start" x="261.5" y="-82.8" font-family="Helvetica,sans-Serif" font-size="11.00" fill="#000000">&lt; 3</text>
<polygon fill="#ffffff" stroke="transparent" points="341.5,-76.7 341.5,-95.7 384.5,-95.7 384.5,-76.7 341.5,-76.7"/>
<polygon fill="none" stroke="#000000" points="341.5,-76.7 341.5,-95.7 384.5,-95.7 384.5,-76.7 341.5,-76.7"/>
<text text-anchor="start" x="375.3862" y="-82.8" font-family="Helvetica,sans-Serif" font-size="11.00" fill="#000000"> &#160;</text>
<polygon fill="#ffffff" stroke="transparent" points="384.5,-76.7 384.5,-95.7 437.5,-95.7 437.5,-76.7 384.5,-76.7"/>
<polygon fill="none" stroke="#000000" points="384.5,-76.7 384.5,-95.7 437.5,-95.7 437.5,-76.7 384.5,-76.7"/>
<text text-anchor="start" x="418.9053" y="-82.8" font-family="Helvetica,sans-Serif" font-size="11.00" fill="#000000">3 &gt;</text>
</a>
</g>
</g>
<!-- HospitalizationInsurances&#45;&gt;Hospitalizations -->
<g id="edge1" class="edge">
<title>HospitalizationInsurances:w&#45;&gt;Hospitalizations:e</title>
<path fill="none" stroke="#000000" d="M487.0813,-195.5457C469.1567,-200.4969 461.7133,-213.7 437.5,-213.7"/>
<polygon fill="#000000" stroke="#000000" points="493.5647,-194.7158 501.9571,-197.2709 497.5324,-194.2079 501.5,-193.7 501.5,-193.7 501.5,-193.7 497.5324,-194.2079 501.0429,-190.1291 493.5647,-194.7158 493.5647,-194.7158"/>
<ellipse fill="none" stroke="#000000" cx="490.3906" cy="-195.1221" rx="3.2" ry="3.2"/>
</g>
<!-- Facilities -->
<g id="node3" class="node">
<title>Facilities</title>
<g id="a_node3"><a xlink:href="../../tables/Facilities.html" xlink:title="Facilities" target="_top">
<polygon fill="#ffffff" stroke="transparent" points="8,-127.7 8,-305.7 209,-305.7 209,-127.7 8,-127.7"/>
<polygon fill="#f5f5f5" stroke="transparent" points="10.5,-280.7 10.5,-303.7 207.5,-303.7 207.5,-280.7 10.5,-280.7"/>
<polygon fill="none" stroke="#000000" points="10.5,-280.7 10.5,-303.7 207.5,-303.7 207.5,-280.7 10.5,-280.7"/>
<text text-anchor="start" x="15.5" y="-289.3" font-family="Helvetica,sans-Serif" font-weight="bold" font-size="11.00" fill="#000000">Facilities</text>
<text text-anchor="start" x="172.5437" y="-288.8" font-family="Helvetica,sans-Serif" font-size="11.00" fill="#000000">[table]</text>
<polygon fill="none" stroke="#000000" points="10.5,-258.7 10.5,-280.7 126.5,-280.7 126.5,-258.7 10.5,-258.7"/>
<image xlink:href="../../images/primaryKeys.png" width="11px" height="12px" preserveAspectRatio="xMinYMin meet" x="15.5" y="-275.7"/>
<text text-anchor="start" x="30.5" y="-265.8" font-family="Helvetica,sans-Serif" font-size="11.00" fill="#000000">Id</text>
<polygon fill="none" stroke="#000000" points="126.5,-258.7 126.5,-280.7 207.5,-280.7 207.5,-258.7 126.5,-258.7"/>
<text text-anchor="start" x="129.5" y="-266.4" font-family="Helvetica,sans-Serif" font-size="11.00" fill="#000000">int identity[4]</text>
<polygon fill="none" stroke="#000000" points="10.5,-236.7 10.5,-258.7 126.5,-258.7 126.5,-236.7 10.5,-236.7"/>
<text text-anchor="start" x="30.5" y="-243.8" font-family="Helvetica,sans-Serif" font-size="11.00" fill="#000000">Name</text>
<polygon fill="none" stroke="#000000" points="126.5,-236.7 126.5,-258.7 207.5,-258.7 207.5,-236.7 126.5,-236.7"/>
<text text-anchor="start" x="129.5" y="-244.4" font-family="Helvetica,sans-Serif" font-size="11.00" fill="#000000">nvarchar[200]</text>
<polygon fill="none" stroke="#000000" points="10.5,-214.7 10.5,-236.7 126.5,-236.7 126.5,-214.7 10.5,-214.7"/>
<text text-anchor="start" x="30.5" y="-221.8" font-family="Helvetica,sans-Serif" font-size="11.00" fill="#000000">Abbreviation</text>
<polygon fill="none" stroke="#000000" points="126.5,-214.7 126.5,-236.7 207.5,-236.7 207.5,-214.7 126.5,-214.7"/>
<text text-anchor="start" x="129.5" y="-222.4" font-family="Helvetica,sans-Serif" font-size="11.00" fill="#000000">nvarchar[20]</text>
<polygon fill="none" stroke="#000000" points="10.5,-192.7 10.5,-214.7 126.5,-214.7 126.5,-192.7 10.5,-192.7"/>
<text text-anchor="start" x="30.5" y="-199.8" font-family="Helvetica,sans-Serif" font-size="11.00" fill="#000000">CreatedAtUtc</text>
<polygon fill="none" stroke="#000000" points="126.5,-192.7 126.5,-214.7 207.5,-214.7 207.5,-192.7 126.5,-192.7"/>
<text text-anchor="start" x="129.0967" y="-200.4" font-family="Helvetica,sans-Serif" font-size="11.00" fill="#000000">datetime2[16,7]</text>
<polygon fill="none" stroke="#000000" points="10.5,-170.7 10.5,-192.7 126.5,-192.7 126.5,-170.7 10.5,-170.7"/>
<text text-anchor="start" x="30.5" y="-177.8" font-family="Helvetica,sans-Serif" font-size="11.00" fill="#000000">UpdatedAtUtc</text>
<polygon fill="none" stroke="#000000" points="126.5,-170.7 126.5,-192.7 207.5,-192.7 207.5,-170.7 126.5,-170.7"/>
<text text-anchor="start" x="129.0967" y="-178.4" font-family="Helvetica,sans-Serif" font-size="11.00" fill="#000000">datetime2[16,7]</text>
<polygon fill="none" stroke="#000000" points="10.5,-148.7 10.5,-170.7 126.5,-170.7 126.5,-148.7 10.5,-148.7"/>
<text text-anchor="start" x="30.5" y="-155.8" font-family="Helvetica,sans-Serif" font-size="11.00" fill="#000000">RowVersion</text>
<polygon fill="none" stroke="#000000" points="126.5,-148.7 126.5,-170.7 207.5,-170.7 207.5,-148.7 126.5,-148.7"/>
<text text-anchor="start" x="129.5" y="-156.4" font-family="Helvetica,sans-Serif" font-size="11.00" fill="#000000">timestamp[8]</text>
<polygon fill="#ffffff" stroke="transparent" points="10.5,-129.7 10.5,-148.7 72.5,-148.7 72.5,-129.7 10.5,-129.7"/>
<polygon fill="none" stroke="#000000" points="10.5,-129.7 10.5,-148.7 72.5,-148.7 72.5,-129.7 10.5,-129.7"/>
<text text-anchor="start" x="13.5" y="-135.8" font-family="Helvetica,sans-Serif" font-size="11.00" fill="#000000">&lt; 0</text>
<polygon fill="#ffffff" stroke="transparent" points="72.5,-129.7 72.5,-148.7 126.5,-148.7 126.5,-129.7 72.5,-129.7"/>
<polygon fill="none" stroke="#000000" points="72.5,-129.7 72.5,-148.7 126.5,-148.7 126.5,-129.7 72.5,-129.7"/>
<text text-anchor="start" x="117.3862" y="-135.8" font-family="Helvetica,sans-Serif" font-size="11.00" fill="#000000"> &#160;</text>
<polygon fill="#ffffff" stroke="transparent" points="126.5,-129.7 126.5,-148.7 207.5,-148.7 207.5,-129.7 126.5,-129.7"/>
<polygon fill="none" stroke="#000000" points="126.5,-129.7 126.5,-148.7 207.5,-148.7 207.5,-129.7 126.5,-129.7"/>
<text text-anchor="start" x="188.9053" y="-135.8" font-family="Helvetica,sans-Serif" font-size="11.00" fill="#000000">2 &gt;</text>
<polygon fill="none" stroke="#000000" stroke-width="2" points="9,-128.7 9,-304.7 208,-304.7 208,-128.7 9,-128.7"/>
</a>
</g>
</g>
<!-- Hospitalizations&#45;&gt;Facilities -->
<g id="edge2" class="edge">
<title>Hospitalizations:w&#45;&gt;Facilities:e</title>
<path fill="none" stroke="#000000" d="M244.2088,-151.2197C211.9538,-171.2228 260.3005,-269.7 207.5,-269.7"/>
<polygon fill="#000000" stroke="#000000" points="250.7321,-149.6131 259.3609,-151.1956 254.6161,-148.6566 258.5,-147.7 258.5,-147.7 258.5,-147.7 254.6161,-148.6566 257.6391,-144.2044 250.7321,-149.6131 250.7321,-149.6131"/>
<ellipse fill="none" stroke="#000000" cx="247.625" cy="-150.3784" rx="3.2" ry="3.2"/>
</g>
<!-- HospitalizationStatuses -->
<g id="node4" class="node">
<title>HospitalizationStatuses</title>
<g id="a_node4"><a xlink:href="../../tables/HospitalizationStatuses.html" xlink:title="HospitalizationStatuses" target="_top">
<polygon fill="#ffffff" stroke="transparent" points="8.5,-38.2 8.5,-99.2 208.5,-99.2 208.5,-38.2 8.5,-38.2"/>
<polygon fill="#f5f5f5" stroke="transparent" points="8.5,-75.7 8.5,-98.7 208.5,-98.7 208.5,-75.7 8.5,-75.7"/>
<polygon fill="none" stroke="#000000" points="8.5,-75.7 8.5,-98.7 208.5,-98.7 208.5,-75.7 8.5,-75.7"/>
<text text-anchor="start" x="13.5" y="-84.3" font-family="Helvetica,sans-Serif" font-weight="bold" font-size="11.00" fill="#000000">HospitalizationStatuses</text>
<text text-anchor="start" x="174.0219" y="-83.8" font-family="Helvetica,sans-Serif" font-size="11.00" fill="#000000">[table]</text>
<polygon fill="none" stroke="#000000" points="8.5,-56.7 8.5,-75.7 208.5,-75.7 208.5,-56.7 8.5,-56.7"/>
<text text-anchor="start" x="11.5" y="-62.8" font-family="Helvetica,sans-Serif" font-size="11.00" fill="#000000">...</text>
<polygon fill="#ffffff" stroke="transparent" points="8.5,-37.7 8.5,-56.7 97.5,-56.7 97.5,-37.7 8.5,-37.7"/>
<polygon fill="none" stroke="#000000" points="8.5,-37.7 8.5,-56.7 97.5,-56.7 97.5,-37.7 8.5,-37.7"/>
<text text-anchor="start" x="11.5" y="-43.8" font-family="Helvetica,sans-Serif" font-size="11.00" fill="#000000"> &#160;</text>
<polygon fill="#ffffff" stroke="transparent" points="97.5,-37.7 97.5,-56.7 148.5,-56.7 148.5,-37.7 97.5,-37.7"/>
<polygon fill="none" stroke="#000000" points="97.5,-37.7 97.5,-56.7 148.5,-56.7 148.5,-37.7 97.5,-37.7"/>
<text text-anchor="start" x="139.3862" y="-43.8" font-family="Helvetica,sans-Serif" font-size="11.00" fill="#000000"> &#160;</text>
<polygon fill="#ffffff" stroke="transparent" points="148.5,-37.7 148.5,-56.7 208.5,-56.7 208.5,-37.7 148.5,-37.7"/>
<polygon fill="none" stroke="#000000" points="148.5,-37.7 148.5,-56.7 208.5,-56.7 208.5,-37.7 148.5,-37.7"/>
<text text-anchor="start" x="189.9053" y="-43.8" font-family="Helvetica,sans-Serif" font-size="11.00" fill="#000000">2 &gt;</text>
</a>
</g>
</g>
<!-- Hospitalizations&#45;&gt;HospitalizationStatuses -->
<g id="edge3" class="edge">
<title>Hospitalizations:w&#45;&gt;HospitalizationStatuses:e</title>
<path fill="none" stroke="#000000" d="M244.8495,-120.9919C228.8657,-106.8475 237.2461,-65.7 208.5,-65.7"/>
<polygon fill="#000000" stroke="#000000" points="250.9372,-123.0915 257.3262,-129.1033 254.7186,-124.3958 258.5,-125.7 258.5,-125.7 258.5,-125.7 254.7186,-124.3958 259.6738,-122.2967 250.9372,-123.0915 250.9372,-123.0915"/>
<ellipse fill="none" stroke="#000000" cx="247.9121" cy="-122.0481" rx="3.2" ry="3.2"/>
</g>
<!-- Patients -->
<g id="node5" class="node">
<title>Patients</title>
<g id="a_node5"><a xlink:href="../../tables/Patients.html" xlink:title="Patients" target="_top">
<polygon fill="#ffffff" stroke="transparent" points="61,-330.2 61,-391.2 156,-391.2 156,-330.2 61,-330.2"/>
<polygon fill="#f5f5f5" stroke="transparent" points="61.5,-367.7 61.5,-390.7 156.5,-390.7 156.5,-367.7 61.5,-367.7"/>
<polygon fill="none" stroke="#000000" points="61.5,-367.7 61.5,-390.7 156.5,-390.7 156.5,-367.7 61.5,-367.7"/>
<text text-anchor="start" x="66.5" y="-376.3" font-family="Helvetica,sans-Serif" font-weight="bold" font-size="11.00" fill="#000000">Patients</text>
<text text-anchor="start" x="122.0219" y="-375.8" font-family="Helvetica,sans-Serif" font-size="11.00" fill="#000000">[table]</text>
<polygon fill="none" stroke="#000000" points="61.5,-348.7 61.5,-367.7 156.5,-367.7 156.5,-348.7 61.5,-348.7"/>
<text text-anchor="start" x="64.5" y="-354.8" font-family="Helvetica,sans-Serif" font-size="11.00" fill="#000000">...</text>
<polygon fill="#ffffff" stroke="transparent" points="61.5,-329.7 61.5,-348.7 98.5,-348.7 98.5,-329.7 61.5,-329.7"/>
<polygon fill="none" stroke="#000000" points="61.5,-329.7 61.5,-348.7 98.5,-348.7 98.5,-329.7 61.5,-329.7"/>
<text text-anchor="start" x="64.5" y="-335.8" font-family="Helvetica,sans-Serif" font-size="11.00" fill="#000000"> &#160;</text>
<polygon fill="#ffffff" stroke="transparent" points="98.5,-329.7 98.5,-348.7 122.5,-348.7 122.5,-329.7 98.5,-329.7"/>
<polygon fill="none" stroke="#000000" points="98.5,-329.7 98.5,-348.7 122.5,-348.7 122.5,-329.7 98.5,-329.7"/>
<text text-anchor="start" x="113.3862" y="-335.8" font-family="Helvetica,sans-Serif" font-size="11.00" fill="#000000"> &#160;</text>
<polygon fill="#ffffff" stroke="transparent" points="122.5,-329.7 122.5,-348.7 156.5,-348.7 156.5,-329.7 122.5,-329.7"/>
<polygon fill="none" stroke="#000000" points="122.5,-329.7 122.5,-348.7 156.5,-348.7 156.5,-329.7 122.5,-329.7"/>
<text text-anchor="start" x="137.9053" y="-335.8" font-family="Helvetica,sans-Serif" font-size="11.00" fill="#000000">2 &gt;</text>
</a>
</g>
</g>
<!-- Hospitalizations&#45;&gt;Patients -->
<g id="edge4" class="edge">
<title>Hospitalizations:w&#45;&gt;Patients:e</title>
<path fill="none" stroke="#000000" d="M243.8882,-194.0085C209.6947,-207.2832 248.7391,-274.7648 217,-316.7 197.3975,-342.5998 188.9817,-357.7 156.5,-357.7"/>
<polygon fill="#000000" stroke="#000000" points="250.598,-192.9485 259.0618,-195.2559 254.549,-192.3242 258.5,-191.7 258.5,-191.7 258.5,-191.7 254.549,-192.3242 257.9382,-188.1441 250.598,-192.9485 250.598,-192.9485"/>
<ellipse fill="none" stroke="#000000" cx="247.4372" cy="-193.4479" rx="3.2" ry="3.2"/>
</g>
<!-- HospitalizationStatusHistories -->
<g id="node6" class="node">
<title>HospitalizationStatusHistories</title>
<g id="a_node6"><a xlink:href="../../tables/HospitalizationStatusHistories.html" xlink:title="HospitalizationStatusHistories" target="_top">
<polygon fill="#ffffff" stroke="transparent" points="486,-45.2 486,-106.2 731,-106.2 731,-45.2 486,-45.2"/>
<polygon fill="#f5f5f5" stroke="transparent" points="486.5,-82.7 486.5,-105.7 731.5,-105.7 731.5,-82.7 486.5,-82.7"/>
<polygon fill="none" stroke="#000000" points="486.5,-82.7 486.5,-105.7 731.5,-105.7 731.5,-82.7 486.5,-82.7"/>
<text text-anchor="start" x="491.5" y="-91.3" font-family="Helvetica,sans-Serif" font-weight="bold" font-size="11.00" fill="#000000">HospitalizationStatusHistories</text>
<text text-anchor="start" x="697.0219" y="-90.8" font-family="Helvetica,sans-Serif" font-size="11.00" fill="#000000">[table]</text>
<polygon fill="none" stroke="#000000" points="486.5,-63.7 486.5,-82.7 731.5,-82.7 731.5,-63.7 486.5,-63.7"/>
<text text-anchor="start" x="489.5" y="-69.8" font-family="Helvetica,sans-Serif" font-size="11.00" fill="#000000">...</text>
<polygon fill="#ffffff" stroke="transparent" points="486.5,-44.7 486.5,-63.7 607.5,-63.7 607.5,-44.7 486.5,-44.7"/>
<polygon fill="none" stroke="#000000" points="486.5,-44.7 486.5,-63.7 607.5,-63.7 607.5,-44.7 486.5,-44.7"/>
<text text-anchor="start" x="489.5" y="-50.8" font-family="Helvetica,sans-Serif" font-size="11.00" fill="#000000">&lt; 3</text>
<polygon fill="#ffffff" stroke="transparent" points="607.5,-44.7 607.5,-63.7 669.5,-63.7 669.5,-44.7 607.5,-44.7"/>
<polygon fill="none" stroke="#000000" points="607.5,-44.7 607.5,-63.7 669.5,-63.7 669.5,-44.7 607.5,-44.7"/>
<text text-anchor="start" x="660.3862" y="-50.8" font-family="Helvetica,sans-Serif" font-size="11.00" fill="#000000"> &#160;</text>
<polygon fill="#ffffff" stroke="transparent" points="669.5,-44.7 669.5,-63.7 731.5,-63.7 731.5,-44.7 669.5,-44.7"/>
<polygon fill="none" stroke="#000000" points="669.5,-44.7 669.5,-63.7 731.5,-63.7 731.5,-44.7 669.5,-44.7"/>
<text text-anchor="start" x="722.3862" y="-50.8" font-family="Helvetica,sans-Serif" font-size="11.00" fill="#000000"> &#160;</text>
</a>
</g>
</g>
<!-- HospitalizationStatusHistories&#45;&gt;Hospitalizations -->
<g id="edge5" class="edge">
<title>HospitalizationStatusHistories:w&#45;&gt;Hospitalizations:e</title>
<path fill="none" stroke="#000000" d="M472.034,-75.9099C433.9834,-96.8978 497.8824,-213.7 437.5,-213.7"/>
<polygon fill="#000000" stroke="#000000" points="478.69,-74.433 487.2799,-76.2145 482.595,-73.5665 486.5,-72.7 486.5,-72.7 486.5,-72.7 482.595,-73.5665 485.7201,-69.1855 478.69,-74.433 478.69,-74.433"/>
<ellipse fill="none" stroke="#000000" cx="475.5659" cy="-75.1262" rx="3.2" ry="3.2"/>
</g>
<!-- HospitalizationStatusHistories&#45;&gt;HospitalizationStatuses -->
<g id="edge6" class="edge">
<title>HospitalizationStatusHistories:w&#45;&gt;HospitalizationStatuses:e</title>
<path fill="none" stroke="#000000" d="M472.069,-71.5355C463.655,-70.071 457.6322,-67.6353 445,-66.7 340.1749,-58.9387 313.6121,-65.7 208.5,-65.7"/>
<polygon fill="#000000" stroke="#000000" points="478.5259,-72.0565 486.2104,-76.2883 482.513,-72.3782 486.5,-72.7 486.5,-72.7 486.5,-72.7 482.513,-72.3782 486.7896,-69.1117 478.5259,-72.0565 478.5259,-72.0565"/>
<ellipse fill="none" stroke="#000000" cx="475.3363" cy="-71.799" rx="3.2" ry="3.2"/>
</g>
<!-- PatientFacilities -->
<g id="node7" class="node">
<title>PatientFacilities</title>
<g id="a_node7"><a xlink:href="../../tables/PatientFacilities.html" xlink:title="PatientFacilities" target="_top">
<polygon fill="#ffffff" stroke="transparent" points="273,-269.2 273,-418.2 422,-418.2 422,-269.2 273,-269.2"/>
<polygon fill="#f5f5f5" stroke="transparent" points="273.5,-394.7 273.5,-417.7 422.5,-417.7 422.5,-394.7 273.5,-394.7"/>
<polygon fill="none" stroke="#000000" points="273.5,-394.7 273.5,-417.7 422.5,-417.7 422.5,-394.7 273.5,-394.7"/>
<text text-anchor="start" x="278.5" y="-403.3" font-family="Helvetica,sans-Serif" font-weight="bold" font-size="11.00" fill="#000000">PatientFacilities</text>
<text text-anchor="start" x="388.0219" y="-402.8" font-family="Helvetica,sans-Serif" font-size="11.00" fill="#000000">[table]</text>
<polygon fill="none" stroke="#000000" points="273.5,-372.7 273.5,-394.7 422.5,-394.7 422.5,-372.7 273.5,-372.7"/>
<image xlink:href="../../images/primaryKeys.png" width="11px" height="12px" preserveAspectRatio="xMinYMin meet" x="278.5" y="-389.7"/>
<text text-anchor="start" x="302.5" y="-379.8" font-family="Helvetica,sans-Serif" font-size="11.00" fill="#000000">Id</text>
<polygon fill="#ffffff" stroke="transparent" points="273.5,-350.7 273.5,-372.7 422.5,-372.7 422.5,-350.7 273.5,-350.7"/>
<polygon fill="none" stroke="#000000" points="273.5,-350.7 273.5,-372.7 422.5,-372.7 422.5,-350.7 273.5,-350.7"/>
<image xlink:href="../../images/foreignKeys.png" width="11px" height="12px" preserveAspectRatio="xMinYMin meet" x="278.5" y="-367.7"/>
<text text-anchor="start" x="302.5" y="-357.8" font-family="Helvetica,sans-Serif" font-size="11.00" fill="#000000">PatientId</text>
<polygon fill="#ffffff" stroke="transparent" points="273.5,-328.7 273.5,-350.7 422.5,-350.7 422.5,-328.7 273.5,-328.7"/>
<polygon fill="none" stroke="#000000" points="273.5,-328.7 273.5,-350.7 422.5,-350.7 422.5,-328.7 273.5,-328.7"/>
<image xlink:href="../../images/foreignKeys.png" width="11px" height="12px" preserveAspectRatio="xMinYMin meet" x="278.5" y="-345.7"/>
<text text-anchor="start" x="302.5" y="-335.8" font-family="Helvetica,sans-Serif" font-size="11.00" fill="#000000">FacilityId</text>
<polygon fill="#ffffff" stroke="transparent" points="273.5,-306.7 273.5,-328.7 422.5,-328.7 422.5,-306.7 273.5,-306.7"/>
<polygon fill="none" stroke="#000000" points="273.5,-306.7 273.5,-328.7 422.5,-328.7 422.5,-306.7 273.5,-306.7"/>
<text text-anchor="start" x="302.5" y="-313.8" font-family="Helvetica,sans-Serif" font-size="11.00" fill="#000000">MRN</text>
<polygon fill="none" stroke="#000000" points="273.5,-287.7 273.5,-306.7 422.5,-306.7 422.5,-287.7 273.5,-287.7"/>
<text text-anchor="start" x="276.5" y="-293.8" font-family="Helvetica,sans-Serif" font-size="11.00" fill="#000000">...</text>
<polygon fill="#ffffff" stroke="transparent" points="273.5,-268.7 273.5,-287.7 346.5,-287.7 346.5,-268.7 273.5,-268.7"/>
<polygon fill="none" stroke="#000000" points="273.5,-268.7 273.5,-287.7 346.5,-287.7 346.5,-268.7 273.5,-268.7"/>
<text text-anchor="start" x="276.5" y="-274.8" font-family="Helvetica,sans-Serif" font-size="11.00" fill="#000000">&lt; 2</text>
<polygon fill="#ffffff" stroke="transparent" points="346.5,-268.7 346.5,-287.7 384.5,-287.7 384.5,-268.7 346.5,-268.7"/>
<polygon fill="none" stroke="#000000" points="346.5,-268.7 346.5,-287.7 384.5,-287.7 384.5,-268.7 346.5,-268.7"/>
<text text-anchor="start" x="375.3862" y="-274.8" font-family="Helvetica,sans-Serif" font-size="11.00" fill="#000000"> &#160;</text>
<polygon fill="#ffffff" stroke="transparent" points="384.5,-268.7 384.5,-287.7 422.5,-287.7 422.5,-268.7 384.5,-268.7"/>
<polygon fill="none" stroke="#000000" points="384.5,-268.7 384.5,-287.7 422.5,-287.7 422.5,-268.7 384.5,-268.7"/>
<text text-anchor="start" x="413.3862" y="-274.8" font-family="Helvetica,sans-Serif" font-size="11.00" fill="#000000"> &#160;</text>
</a>
</g>
</g>
<!-- PatientFacilities&#45;&gt;Facilities -->
<g id="edge7" class="edge">
<title>PatientFacilities:w&#45;&gt;Facilities:e</title>
<path fill="none" stroke="#000000" d="M259.4669,-336.3238C234.8269,-322.341 244.5802,-269.7 207.5,-269.7"/>
<polygon fill="#000000" stroke="#000000" points="265.7219,-337.8286 272.6579,-343.2001 269.611,-338.7643 273.5,-339.7 273.5,-339.7 273.5,-339.7 269.611,-338.7643 274.3421,-336.1999 265.7219,-337.8286 265.7219,-337.8286"/>
<ellipse fill="none" stroke="#000000" cx="262.6107" cy="-337.0801" rx="3.2" ry="3.2"/>
</g>
<!-- PatientFacilities&#45;&gt;Patients -->
<g id="edge8" class="edge">
<title>PatientFacilities:w&#45;&gt;Patients:e</title>
<path fill="none" stroke="#000000" d="M259.0382,-361.5888C218.504,-360.9428 203.3477,-357.7 156.5,-357.7"/>
<polygon fill="#000000" stroke="#000000" points="265.5002,-361.6385 273.4723,-365.2999 269.5001,-361.6692 273.5,-361.7 273.5,-361.7 273.5,-361.7 269.5001,-361.6692 273.5277,-358.1001 265.5002,-361.6385 265.5002,-361.6385"/>
<ellipse fill="none" stroke="#000000" cx="262.3003" cy="-361.6138" rx="3.2" ry="3.2"/>
</g>
<!-- Visits -->
<g id="node8" class="node">
<title>Visits</title>
<g id="a_node8"><a xlink:href="../../tables/Visits.html" xlink:title="Visits" target="_top">
<polygon fill="#ffffff" stroke="transparent" points="570.5,-248.2 570.5,-309.2 646.5,-309.2 646.5,-248.2 570.5,-248.2"/>
<polygon fill="#f5f5f5" stroke="transparent" points="570.5,-285.7 570.5,-308.7 646.5,-308.7 646.5,-285.7 570.5,-285.7"/>
<polygon fill="none" stroke="#000000" points="570.5,-285.7 570.5,-308.7 646.5,-308.7 646.5,-285.7 570.5,-285.7"/>
<text text-anchor="start" x="575.5" y="-294.3" font-family="Helvetica,sans-Serif" font-weight="bold" font-size="11.00" fill="#000000">Visits</text>
<text text-anchor="start" x="612.0219" y="-293.8" font-family="Helvetica,sans-Serif" font-size="11.00" fill="#000000">[table]</text>
<polygon fill="none" stroke="#000000" points="570.5,-266.7 570.5,-285.7 646.5,-285.7 646.5,-266.7 570.5,-266.7"/>
<text text-anchor="start" x="573.5" y="-272.8" font-family="Helvetica,sans-Serif" font-size="11.00" fill="#000000">...</text>
<polygon fill="#ffffff" stroke="transparent" points="570.5,-247.7 570.5,-266.7 602.5,-266.7 602.5,-247.7 570.5,-247.7"/>
<polygon fill="none" stroke="#000000" points="570.5,-247.7 570.5,-266.7 602.5,-266.7 602.5,-247.7 570.5,-247.7"/>
<text text-anchor="start" x="573.5" y="-253.8" font-family="Helvetica,sans-Serif" font-size="11.00" fill="#000000">&lt; 2</text>
<polygon fill="#ffffff" stroke="transparent" points="602.5,-247.7 602.5,-266.7 619.5,-266.7 619.5,-247.7 602.5,-247.7"/>
<polygon fill="none" stroke="#000000" points="602.5,-247.7 602.5,-266.7 619.5,-266.7 619.5,-247.7 602.5,-247.7"/>
<text text-anchor="start" x="610.3862" y="-253.8" font-family="Helvetica,sans-Serif" font-size="11.00" fill="#000000"> &#160;</text>
<polygon fill="#ffffff" stroke="transparent" points="619.5,-247.7 619.5,-266.7 646.5,-266.7 646.5,-247.7 619.5,-247.7"/>
<polygon fill="none" stroke="#000000" points="619.5,-247.7 619.5,-266.7 646.5,-266.7 646.5,-247.7 619.5,-247.7"/>
<text text-anchor="start" x="627.9053" y="-253.8" font-family="Helvetica,sans-Serif" font-size="11.00" fill="#000000">2 &gt;</text>
</a>
</g>
</g>
<!-- Visits&#45;&gt;Hospitalizations -->
<g id="edge9" class="edge">
<title>Visits:w&#45;&gt;Hospitalizations:e</title>
<path fill="none" stroke="#000000" d="M555.8249,-274.9298C523.5885,-271.2742 512.9612,-255.125 478,-237.7 459.2739,-228.3667 458.4231,-213.7 437.5,-213.7"/>
<polygon fill="#000000" stroke="#000000" points="562.511,-275.2807 570.3113,-279.2951 566.5055,-275.4903 570.5,-275.7 570.5,-275.7 570.5,-275.7 566.5055,-275.4903 570.6887,-272.1049 562.511,-275.2807 562.511,-275.2807"/>
<ellipse fill="none" stroke="#000000" cx="559.3154" cy="-275.1129" rx="3.2" ry="3.2"/>
</g>
</g>
</svg>
