<?xml version="1.0" encoding="UTF-8" standalone="no"?>
<!DOCTYPE svg PUBLIC "-//W3C//DTD SVG 1.1//EN"
 "http://www.w3.org/Graphics/SVG/1.1/DTD/svg11.dtd">
<!-- Generated by graphviz version 2.40.1 (20161225.0304)
 -->
<!-- Title: oneDegreeRelationshipsDiagram Pages: 1 -->
<svg width="453pt" height="391pt"
 viewBox="0.00 0.00 453.00 391.20" xmlns="http://www.w3.org/2000/svg" xmlns:xlink="http://www.w3.org/1999/xlink">
<g id="graph0" class="graph" transform="scale(1 1) rotate(0) translate(4 387.2)">
<title>oneDegreeRelationshipsDiagram</title>
<polygon fill="#ffffff" stroke="transparent" points="-4,4 -4,-387.2 449,-387.2 449,4 -4,4"/>
<text text-anchor="middle" x="72.4936" y="-7.3" font-family="Helvetica,sans-Serif" font-size="11.00" fill="#000000">Generated by SchemaSpy</text>
<!-- Hospitalizations -->
<g id="node1" class="node">
<title>Hospitalizations</title>
<g id="a_node1"><a xlink:href="../../tables/Hospitalizations.html" xlink:title="Hospitalizations" target="_top">
<polygon fill="#ffffff" stroke="transparent" points="258,-208.2 258,-379.2 437,-379.2 437,-208.2 258,-208.2"/>
<polygon fill="#f5f5f5" stroke="transparent" points="258.5,-355.7 258.5,-378.7 437.5,-378.7 437.5,-355.7 258.5,-355.7"/>
<polygon fill="none" stroke="#000000" points="258.5,-355.7 258.5,-378.7 437.5,-378.7 437.5,-355.7 258.5,-355.7"/>
<text text-anchor="start" x="263.5" y="-364.3" font-family="Helvetica,sans-Serif" font-weight="bold" font-size="11.00" fill="#000000">Hospitalizations</text>
<text text-anchor="start" x="402.5437" y="-363.8" font-family="Helvetica,sans-Serif" font-size="11.00" fill="#000000">[table]</text>
<polygon fill="none" stroke="#000000" points="258.5,-333.7 258.5,-355.7 437.5,-355.7 437.5,-333.7 258.5,-333.7"/>
<image xlink:href="../../images/primaryKeys.png" width="11px" height="12px" preserveAspectRatio="xMinYMin meet" x="263.5" y="-350.7"/>
<text text-anchor="start" x="278.5" y="-340.8" font-family="Helvetica,sans-Serif" font-size="11.00" fill="#000000">Id</text>
<polygon fill="#ffffff" stroke="transparent" points="258.5,-311.7 258.5,-333.7 437.5,-333.7 437.5,-311.7 258.5,-311.7"/>
<polygon fill="none" stroke="#000000" points="258.5,-311.7 258.5,-333.7 437.5,-333.7 437.5,-311.7 258.5,-311.7"/>
<image xlink:href="../../images/foreignKeys.png" width="11px" height="12px" preserveAspectRatio="xMinYMin meet" x="263.5" y="-328.7"/>
<text text-anchor="start" x="278.5" y="-318.8" font-family="Helvetica,sans-Serif" font-size="11.00" fill="#000000">PatientId</text>
<polygon fill="#ffffff" stroke="transparent" points="258.5,-289.7 258.5,-311.7 437.5,-311.7 437.5,-289.7 258.5,-289.7"/>
<polygon fill="none" stroke="#000000" points="258.5,-289.7 258.5,-311.7 437.5,-311.7 437.5,-289.7 258.5,-289.7"/>
<text text-anchor="start" x="278.5" y="-296.8" font-family="Helvetica,sans-Serif" font-size="11.00" fill="#000000">CaseId</text>
<polygon fill="#ffffff" stroke="transparent" points="258.5,-267.7 258.5,-289.7 437.5,-289.7 437.5,-267.7 258.5,-267.7"/>
<polygon fill="none" stroke="#000000" points="258.5,-267.7 258.5,-289.7 437.5,-289.7 437.5,-267.7 258.5,-267.7"/>
<image xlink:href="../../images/foreignKeys.png" width="11px" height="12px" preserveAspectRatio="xMinYMin meet" x="263.5" y="-284.7"/>
<text text-anchor="start" x="278.5" y="-274.8" font-family="Helvetica,sans-Serif" font-size="11.00" fill="#000000">FacilityId</text>
<polygon fill="none" stroke="#000000" points="258.5,-245.7 258.5,-267.7 437.5,-267.7 437.5,-245.7 258.5,-245.7"/>
<image xlink:href="../../images/foreignKeys.png" width="11px" height="12px" preserveAspectRatio="xMinYMin meet" x="263.5" y="-262.7"/>
<text text-anchor="start" x="278.5" y="-252.8" font-family="Helvetica,sans-Serif" font-size="11.00" fill="#000000">HospitalizationStatusId</text>
<polygon fill="none" stroke="#000000" points="258.5,-226.7 258.5,-245.7 437.5,-245.7 437.5,-226.7 258.5,-226.7"/>
<text text-anchor="start" x="261.5" y="-232.8" font-family="Helvetica,sans-Serif" font-size="11.00" fill="#000000">...</text>
<polygon fill="#ffffff" stroke="transparent" points="258.5,-207.7 258.5,-226.7 341.5,-226.7 341.5,-207.7 258.5,-207.7"/>
<polygon fill="none" stroke="#000000" points="258.5,-207.7 258.5,-226.7 341.5,-226.7 341.5,-207.7 258.5,-207.7"/>
<text text-anchor="start" x="261.5" y="-213.8" font-family="Helvetica,sans-Serif" font-size="11.00" fill="#000000">&lt; 3</text>
<polygon fill="#ffffff" stroke="transparent" points="341.5,-207.7 341.5,-226.7 384.5,-226.7 384.5,-207.7 341.5,-207.7"/>
<polygon fill="none" stroke="#000000" points="341.5,-207.7 341.5,-226.7 384.5,-226.7 384.5,-207.7 341.5,-207.7"/>
<text text-anchor="start" x="375.3862" y="-213.8" font-family="Helvetica,sans-Serif" font-size="11.00" fill="#000000"> &#160;</text>
<polygon fill="#ffffff" stroke="transparent" points="384.5,-207.7 384.5,-226.7 437.5,-226.7 437.5,-207.7 384.5,-207.7"/>
<polygon fill="none" stroke="#000000" points="384.5,-207.7 384.5,-226.7 437.5,-226.7 437.5,-207.7 384.5,-207.7"/>
<text text-anchor="start" x="418.9053" y="-213.8" font-family="Helvetica,sans-Serif" font-size="11.00" fill="#000000">3 &gt;</text>
</a>
</g>
</g>
<!-- Facilities -->
<g id="node2" class="node">
<title>Facilities</title>
<g id="a_node2"><a xlink:href="../../tables/Facilities.html" xlink:title="Facilities" target="_top">
<polygon fill="#ffffff" stroke="transparent" points="8,-51.7 8,-229.7 209,-229.7 209,-51.7 8,-51.7"/>
<polygon fill="#f5f5f5" stroke="transparent" points="10.5,-204.7 10.5,-227.7 207.5,-227.7 207.5,-204.7 10.5,-204.7"/>
<polygon fill="none" stroke="#000000" points="10.5,-204.7 10.5,-227.7 207.5,-227.7 207.5,-204.7 10.5,-204.7"/>
<text text-anchor="start" x="15.5" y="-213.3" font-family="Helvetica,sans-Serif" font-weight="bold" font-size="11.00" fill="#000000">Facilities</text>
<text text-anchor="start" x="172.5437" y="-212.8" font-family="Helvetica,sans-Serif" font-size="11.00" fill="#000000">[table]</text>
<polygon fill="none" stroke="#000000" points="10.5,-182.7 10.5,-204.7 126.5,-204.7 126.5,-182.7 10.5,-182.7"/>
<image xlink:href="../../images/primaryKeys.png" width="11px" height="12px" preserveAspectRatio="xMinYMin meet" x="15.5" y="-199.7"/>
<text text-anchor="start" x="30.5" y="-189.8" font-family="Helvetica,sans-Serif" font-size="11.00" fill="#000000">Id</text>
<polygon fill="none" stroke="#000000" points="126.5,-182.7 126.5,-204.7 207.5,-204.7 207.5,-182.7 126.5,-182.7"/>
<text text-anchor="start" x="129.5" y="-190.4" font-family="Helvetica,sans-Serif" font-size="11.00" fill="#000000">int identity[4]</text>
<polygon fill="none" stroke="#000000" points="10.5,-160.7 10.5,-182.7 126.5,-182.7 126.5,-160.7 10.5,-160.7"/>
<text text-anchor="start" x="30.5" y="-167.8" font-family="Helvetica,sans-Serif" font-size="11.00" fill="#000000">Name</text>
<polygon fill="none" stroke="#000000" points="126.5,-160.7 126.5,-182.7 207.5,-182.7 207.5,-160.7 126.5,-160.7"/>
<text text-anchor="start" x="129.5" y="-168.4" font-family="Helvetica,sans-Serif" font-size="11.00" fill="#000000">nvarchar[200]</text>
<polygon fill="none" stroke="#000000" points="10.5,-138.7 10.5,-160.7 126.5,-160.7 126.5,-138.7 10.5,-138.7"/>
<text text-anchor="start" x="30.5" y="-145.8" font-family="Helvetica,sans-Serif" font-size="11.00" fill="#000000">Abbreviation</text>
<polygon fill="none" stroke="#000000" points="126.5,-138.7 126.5,-160.7 207.5,-160.7 207.5,-138.7 126.5,-138.7"/>
<text text-anchor="start" x="129.5" y="-146.4" font-family="Helvetica,sans-Serif" font-size="11.00" fill="#000000">nvarchar[20]</text>
<polygon fill="none" stroke="#000000" points="10.5,-116.7 10.5,-138.7 126.5,-138.7 126.5,-116.7 10.5,-116.7"/>
<text text-anchor="start" x="30.5" y="-123.8" font-family="Helvetica,sans-Serif" font-size="11.00" fill="#000000">CreatedAtUtc</text>
<polygon fill="none" stroke="#000000" points="126.5,-116.7 126.5,-138.7 207.5,-138.7 207.5,-116.7 126.5,-116.7"/>
<text text-anchor="start" x="129.0967" y="-124.4" font-family="Helvetica,sans-Serif" font-size="11.00" fill="#000000">datetime2[16,7]</text>
<polygon fill="none" stroke="#000000" points="10.5,-94.7 10.5,-116.7 126.5,-116.7 126.5,-94.7 10.5,-94.7"/>
<text text-anchor="start" x="30.5" y="-101.8" font-family="Helvetica,sans-Serif" font-size="11.00" fill="#000000">UpdatedAtUtc</text>
<polygon fill="none" stroke="#000000" points="126.5,-94.7 126.5,-116.7 207.5,-116.7 207.5,-94.7 126.5,-94.7"/>
<text text-anchor="start" x="129.0967" y="-102.4" font-family="Helvetica,sans-Serif" font-size="11.00" fill="#000000">datetime2[16,7]</text>
<polygon fill="none" stroke="#000000" points="10.5,-72.7 10.5,-94.7 126.5,-94.7 126.5,-72.7 10.5,-72.7"/>
<text text-anchor="start" x="30.5" y="-79.8" font-family="Helvetica,sans-Serif" font-size="11.00" fill="#000000">RowVersion</text>
<polygon fill="none" stroke="#000000" points="126.5,-72.7 126.5,-94.7 207.5,-94.7 207.5,-72.7 126.5,-72.7"/>
<text text-anchor="start" x="129.5" y="-80.4" font-family="Helvetica,sans-Serif" font-size="11.00" fill="#000000">timestamp[8]</text>
<polygon fill="#ffffff" stroke="transparent" points="10.5,-53.7 10.5,-72.7 72.5,-72.7 72.5,-53.7 10.5,-53.7"/>
<polygon fill="none" stroke="#000000" points="10.5,-53.7 10.5,-72.7 72.5,-72.7 72.5,-53.7 10.5,-53.7"/>
<text text-anchor="start" x="13.5" y="-59.8" font-family="Helvetica,sans-Serif" font-size="11.00" fill="#000000">&lt; 0</text>
<polygon fill="#ffffff" stroke="transparent" points="72.5,-53.7 72.5,-72.7 126.5,-72.7 126.5,-53.7 72.5,-53.7"/>
<polygon fill="none" stroke="#000000" points="72.5,-53.7 72.5,-72.7 126.5,-72.7 126.5,-53.7 72.5,-53.7"/>
<text text-anchor="start" x="117.3862" y="-59.8" font-family="Helvetica,sans-Serif" font-size="11.00" fill="#000000"> &#160;</text>
<polygon fill="#ffffff" stroke="transparent" points="126.5,-53.7 126.5,-72.7 207.5,-72.7 207.5,-53.7 126.5,-53.7"/>
<polygon fill="none" stroke="#000000" points="126.5,-53.7 126.5,-72.7 207.5,-72.7 207.5,-53.7 126.5,-53.7"/>
<text text-anchor="start" x="188.9053" y="-59.8" font-family="Helvetica,sans-Serif" font-size="11.00" fill="#000000">2 &gt;</text>
<polygon fill="none" stroke="#000000" stroke-width="2" points="9,-52.7 9,-228.7 208,-228.7 208,-52.7 9,-52.7"/>
</a>
</g>
</g>
<!-- Hospitalizations&#45;&gt;Facilities -->
<g id="edge1" class="edge">
<title>Hospitalizations:w&#45;&gt;Facilities:e</title>
<path fill="none" stroke="#000000" d="M244.5669,-274.368C223.0746,-257.0466 245.5328,-193.7 207.5,-193.7"/>
<polygon fill="#000000" stroke="#000000" points="250.8607,-276.3248 257.4312,-282.1377 254.6804,-277.5124 258.5,-278.7 258.5,-278.7 258.5,-278.7 254.6804,-277.5124 259.5688,-275.2623 250.8607,-276.3248 250.8607,-276.3248"/>
<ellipse fill="none" stroke="#000000" cx="247.805" cy="-275.3747" rx="3.2" ry="3.2"/>
</g>
<!-- PatientFacilities -->
<g id="node3" class="node">
<title>PatientFacilities</title>
<g id="a_node3"><a xlink:href="../../tables/PatientFacilities.html" xlink:title="PatientFacilities" target="_top">
<polygon fill="#ffffff" stroke="transparent" points="273,-38.2 273,-187.2 422,-187.2 422,-38.2 273,-38.2"/>
<polygon fill="#f5f5f5" stroke="transparent" points="273.5,-163.7 273.5,-186.7 422.5,-186.7 422.5,-163.7 273.5,-163.7"/>
<polygon fill="none" stroke="#000000" points="273.5,-163.7 273.5,-186.7 422.5,-186.7 422.5,-163.7 273.5,-163.7"/>
<text text-anchor="start" x="278.5" y="-172.3" font-family="Helvetica,sans-Serif" font-weight="bold" font-size="11.00" fill="#000000">PatientFacilities</text>
<text text-anchor="start" x="388.0219" y="-171.8" font-family="Helvetica,sans-Serif" font-size="11.00" fill="#000000">[table]</text>
<polygon fill="none" stroke="#000000" points="273.5,-141.7 273.5,-163.7 422.5,-163.7 422.5,-141.7 273.5,-141.7"/>
<image xlink:href="../../images/primaryKeys.png" width="11px" height="12px" preserveAspectRatio="xMinYMin meet" x="278.5" y="-158.7"/>
<text text-anchor="start" x="302.5" y="-148.8" font-family="Helvetica,sans-Serif" font-size="11.00" fill="#000000">Id</text>
<polygon fill="#ffffff" stroke="transparent" points="273.5,-119.7 273.5,-141.7 422.5,-141.7 422.5,-119.7 273.5,-119.7"/>
<polygon fill="none" stroke="#000000" points="273.5,-119.7 273.5,-141.7 422.5,-141.7 422.5,-119.7 273.5,-119.7"/>
<image xlink:href="../../images/foreignKeys.png" width="11px" height="12px" preserveAspectRatio="xMinYMin meet" x="278.5" y="-136.7"/>
<text text-anchor="start" x="302.5" y="-126.8" font-family="Helvetica,sans-Serif" font-size="11.00" fill="#000000">PatientId</text>
<polygon fill="#ffffff" stroke="transparent" points="273.5,-97.7 273.5,-119.7 422.5,-119.7 422.5,-97.7 273.5,-97.7"/>
<polygon fill="none" stroke="#000000" points="273.5,-97.7 273.5,-119.7 422.5,-119.7 422.5,-97.7 273.5,-97.7"/>
<image xlink:href="../../images/foreignKeys.png" width="11px" height="12px" preserveAspectRatio="xMinYMin meet" x="278.5" y="-114.7"/>
<text text-anchor="start" x="302.5" y="-104.8" font-family="Helvetica,sans-Serif" font-size="11.00" fill="#000000">FacilityId</text>
<polygon fill="#ffffff" stroke="transparent" points="273.5,-75.7 273.5,-97.7 422.5,-97.7 422.5,-75.7 273.5,-75.7"/>
<polygon fill="none" stroke="#000000" points="273.5,-75.7 273.5,-97.7 422.5,-97.7 422.5,-75.7 273.5,-75.7"/>
<text text-anchor="start" x="302.5" y="-82.8" font-family="Helvetica,sans-Serif" font-size="11.00" fill="#000000">MRN</text>
<polygon fill="none" stroke="#000000" points="273.5,-56.7 273.5,-75.7 422.5,-75.7 422.5,-56.7 273.5,-56.7"/>
<text text-anchor="start" x="276.5" y="-62.8" font-family="Helvetica,sans-Serif" font-size="11.00" fill="#000000">...</text>
<polygon fill="#ffffff" stroke="transparent" points="273.5,-37.7 273.5,-56.7 346.5,-56.7 346.5,-37.7 273.5,-37.7"/>
<polygon fill="none" stroke="#000000" points="273.5,-37.7 273.5,-56.7 346.5,-56.7 346.5,-37.7 273.5,-37.7"/>
<text text-anchor="start" x="276.5" y="-43.8" font-family="Helvetica,sans-Serif" font-size="11.00" fill="#000000">&lt; 2</text>
<polygon fill="#ffffff" stroke="transparent" points="346.5,-37.7 346.5,-56.7 384.5,-56.7 384.5,-37.7 346.5,-37.7"/>
<polygon fill="none" stroke="#000000" points="346.5,-37.7 346.5,-56.7 384.5,-56.7 384.5,-37.7 346.5,-37.7"/>
<text text-anchor="start" x="375.3862" y="-43.8" font-family="Helvetica,sans-Serif" font-size="11.00" fill="#000000"> &#160;</text>
<polygon fill="#ffffff" stroke="transparent" points="384.5,-37.7 384.5,-56.7 422.5,-56.7 422.5,-37.7 384.5,-37.7"/>
<polygon fill="none" stroke="#000000" points="384.5,-37.7 384.5,-56.7 422.5,-56.7 422.5,-37.7 384.5,-37.7"/>
<text text-anchor="start" x="413.3862" y="-43.8" font-family="Helvetica,sans-Serif" font-size="11.00" fill="#000000"> &#160;</text>
</a>
</g>
</g>
<!-- PatientFacilities&#45;&gt;Facilities -->
<g id="edge2" class="edge">
<title>PatientFacilities:w&#45;&gt;Facilities:e</title>
<path fill="none" stroke="#000000" d="M259.2582,-112.1374C231.7176,-128.0395 249.5371,-193.7 207.5,-193.7"/>
<polygon fill="#000000" stroke="#000000" points="265.7233,-110.577 274.3447,-112.1995 269.6117,-109.6385 273.5,-108.7 273.5,-108.7 273.5,-108.7 269.6117,-109.6385 272.6553,-105.2005 265.7233,-110.577 265.7233,-110.577"/>
<ellipse fill="none" stroke="#000000" cx="262.6126" cy="-111.3278" rx="3.2" ry="3.2"/>
</g>
</g>
</svg>
