<?xml version="1.0" encoding="UTF-8" standalone="no"?>
<!DOCTYPE svg PUBLIC "-//W3C//DTD SVG 1.1//EN"
 "http://www.w3.org/Graphics/SVG/1.1/DTD/svg11.dtd">
<!-- Generated by graphviz version 2.40.1 (20161225.0304)
 -->
<!-- Title: oneDegreeRelationshipsDiagram Pages: 1 -->
<svg width="831pt" height="592pt"
 viewBox="0.00 0.00 831.00 592.20" xmlns="http://www.w3.org/2000/svg" xmlns:xlink="http://www.w3.org/1999/xlink">
<g id="graph0" class="graph" transform="scale(1 1) rotate(0) translate(4 588.2)">
<title>oneDegreeRelationshipsDiagram</title>
<polygon fill="#ffffff" stroke="transparent" points="-4,4 -4,-588.2 827,-588.2 827,4 -4,4"/>
<text text-anchor="middle" x="72.4936" y="-7.3" font-family="Helvetica,sans-Serif" font-size="11.00" fill="#000000">Generated by SchemaSpy</text>
<!-- HospitalizationInsurances -->
<g id="node1" class="node">
<title>HospitalizationInsurances</title>
<g id="a_node1"><a xlink:href="../../tables/HospitalizationInsurances.html" xlink:title="HospitalizationInsurances" target="_top">
<polygon fill="#ffffff" stroke="transparent" points="585.5,-453.2 585.5,-580.2 799.5,-580.2 799.5,-453.2 585.5,-453.2"/>
<polygon fill="#f5f5f5" stroke="transparent" points="585.5,-556.7 585.5,-579.7 799.5,-579.7 799.5,-556.7 585.5,-556.7"/>
<polygon fill="none" stroke="#000000" points="585.5,-556.7 585.5,-579.7 799.5,-579.7 799.5,-556.7 585.5,-556.7"/>
<text text-anchor="start" x="590.5" y="-565.3" font-family="Helvetica,sans-Serif" font-weight="bold" font-size="11.00" fill="#000000">HospitalizationInsurances</text>
<text text-anchor="start" x="765.0219" y="-564.8" font-family="Helvetica,sans-Serif" font-size="11.00" fill="#000000">[table]</text>
<polygon fill="none" stroke="#000000" points="585.5,-534.7 585.5,-556.7 799.5,-556.7 799.5,-534.7 585.5,-534.7"/>
<image xlink:href="../../images/primaryKeys.png" width="11px" height="12px" preserveAspectRatio="xMinYMin meet" x="590.5" y="-551.7"/>
<text text-anchor="start" x="614.5" y="-541.8" font-family="Helvetica,sans-Serif" font-size="11.00" fill="#000000">Id</text>
<polygon fill="#ffffff" stroke="transparent" points="585.5,-512.7 585.5,-534.7 799.5,-534.7 799.5,-512.7 585.5,-512.7"/>
<polygon fill="none" stroke="#000000" points="585.5,-512.7 585.5,-534.7 799.5,-534.7 799.5,-512.7 585.5,-512.7"/>
<image xlink:href="../../images/foreignKeys.png" width="11px" height="12px" preserveAspectRatio="xMinYMin meet" x="590.5" y="-529.7"/>
<text text-anchor="start" x="614.5" y="-519.8" font-family="Helvetica,sans-Serif" font-size="11.00" fill="#000000">HospitalizationId</text>
<polygon fill="#ffffff" stroke="transparent" points="585.5,-490.7 585.5,-512.7 799.5,-512.7 799.5,-490.7 585.5,-490.7"/>
<polygon fill="none" stroke="#000000" points="585.5,-490.7 585.5,-512.7 799.5,-512.7 799.5,-490.7 585.5,-490.7"/>
<image xlink:href="../../images/foreignKeys.png" width="11px" height="12px" preserveAspectRatio="xMinYMin meet" x="590.5" y="-507.7"/>
<text text-anchor="start" x="614.5" y="-497.8" font-family="Helvetica,sans-Serif" font-size="11.00" fill="#000000">InsuranceId</text>
<polygon fill="none" stroke="#000000" points="585.5,-471.7 585.5,-490.7 799.5,-490.7 799.5,-471.7 585.5,-471.7"/>
<text text-anchor="start" x="588.5" y="-477.8" font-family="Helvetica,sans-Serif" font-size="11.00" fill="#000000">...</text>
<polygon fill="#ffffff" stroke="transparent" points="585.5,-452.7 585.5,-471.7 690.5,-471.7 690.5,-452.7 585.5,-452.7"/>
<polygon fill="none" stroke="#000000" points="585.5,-452.7 585.5,-471.7 690.5,-471.7 690.5,-452.7 585.5,-452.7"/>
<text text-anchor="start" x="588.5" y="-458.8" font-family="Helvetica,sans-Serif" font-size="11.00" fill="#000000">&lt; 2</text>
<polygon fill="#ffffff" stroke="transparent" points="690.5,-452.7 690.5,-471.7 744.5,-471.7 744.5,-452.7 690.5,-452.7"/>
<polygon fill="none" stroke="#000000" points="690.5,-452.7 690.5,-471.7 744.5,-471.7 744.5,-452.7 690.5,-452.7"/>
<text text-anchor="start" x="735.3862" y="-458.8" font-family="Helvetica,sans-Serif" font-size="11.00" fill="#000000"> &#160;</text>
<polygon fill="#ffffff" stroke="transparent" points="744.5,-452.7 744.5,-471.7 799.5,-471.7 799.5,-452.7 744.5,-452.7"/>
<polygon fill="none" stroke="#000000" points="744.5,-452.7 744.5,-471.7 799.5,-471.7 799.5,-452.7 744.5,-452.7"/>
<text text-anchor="start" x="790.3862" y="-458.8" font-family="Helvetica,sans-Serif" font-size="11.00" fill="#000000"> &#160;</text>
</a>
</g>
</g>
<!-- Hospitalizations -->
<g id="node2" class="node">
<title>Hospitalizations</title>
<g id="a_node2"><a xlink:href="../../tables/Hospitalizations.html" xlink:title="Hospitalizations" target="_top">
<polygon fill="#ffffff" stroke="transparent" points="257,-128.7 257,-416.7 521,-416.7 521,-128.7 257,-128.7"/>
<polygon fill="#f5f5f5" stroke="transparent" points="259,-391.7 259,-414.7 519,-414.7 519,-391.7 259,-391.7"/>
<polygon fill="none" stroke="#000000" points="259,-391.7 259,-414.7 519,-414.7 519,-391.7 259,-391.7"/>
<text text-anchor="start" x="264" y="-400.3" font-family="Helvetica,sans-Serif" font-weight="bold" font-size="11.00" fill="#000000">Hospitalizations</text>
<text text-anchor="start" x="484.0437" y="-399.8" font-family="Helvetica,sans-Serif" font-size="11.00" fill="#000000">[table]</text>
<polygon fill="none" stroke="#000000" points="259,-369.7 259,-391.7 438,-391.7 438,-369.7 259,-369.7"/>
<image xlink:href="../../images/primaryKeys.png" width="11px" height="12px" preserveAspectRatio="xMinYMin meet" x="264" y="-386.7"/>
<text text-anchor="start" x="279" y="-376.8" font-family="Helvetica,sans-Serif" font-size="11.00" fill="#000000">Id</text>
<polygon fill="none" stroke="#000000" points="438,-369.7 438,-391.7 519,-391.7 519,-369.7 438,-369.7"/>
<text text-anchor="start" x="441" y="-377.4" font-family="Helvetica,sans-Serif" font-size="11.00" fill="#000000">int identity[4]</text>
<polygon fill="#ffffff" stroke="transparent" points="259,-347.7 259,-369.7 438,-369.7 438,-347.7 259,-347.7"/>
<polygon fill="none" stroke="#000000" points="259,-347.7 259,-369.7 438,-369.7 438,-347.7 259,-347.7"/>
<image xlink:href="../../images/foreignKeys.png" width="11px" height="12px" preserveAspectRatio="xMinYMin meet" x="264" y="-364.7"/>
<text text-anchor="start" x="279" y="-354.8" font-family="Helvetica,sans-Serif" font-size="11.00" fill="#000000">PatientId</text>
<polygon fill="none" stroke="#000000" points="438,-347.7 438,-369.7 519,-369.7 519,-347.7 438,-347.7"/>
<text text-anchor="start" x="441" y="-355.4" font-family="Helvetica,sans-Serif" font-size="11.00" fill="#000000">int[4]</text>
<polygon fill="#ffffff" stroke="transparent" points="259,-325.7 259,-347.7 438,-347.7 438,-325.7 259,-325.7"/>
<polygon fill="none" stroke="#000000" points="259,-325.7 259,-347.7 438,-347.7 438,-325.7 259,-325.7"/>
<text text-anchor="start" x="279" y="-332.8" font-family="Helvetica,sans-Serif" font-size="11.00" fill="#000000">CaseId</text>
<polygon fill="none" stroke="#000000" points="438,-325.7 438,-347.7 519,-347.7 519,-325.7 438,-325.7"/>
<text text-anchor="start" x="441" y="-333.4" font-family="Helvetica,sans-Serif" font-size="11.00" fill="#000000">int[4]</text>
<polygon fill="#ffffff" stroke="transparent" points="259,-303.7 259,-325.7 438,-325.7 438,-303.7 259,-303.7"/>
<polygon fill="none" stroke="#000000" points="259,-303.7 259,-325.7 438,-325.7 438,-303.7 259,-303.7"/>
<image xlink:href="../../images/foreignKeys.png" width="11px" height="12px" preserveAspectRatio="xMinYMin meet" x="264" y="-320.7"/>
<text text-anchor="start" x="279" y="-310.8" font-family="Helvetica,sans-Serif" font-size="11.00" fill="#000000">FacilityId</text>
<polygon fill="none" stroke="#000000" points="438,-303.7 438,-325.7 519,-325.7 519,-303.7 438,-303.7"/>
<text text-anchor="start" x="441" y="-311.4" font-family="Helvetica,sans-Serif" font-size="11.00" fill="#000000">int[4]</text>
<polygon fill="none" stroke="#000000" points="259,-281.7 259,-303.7 438,-303.7 438,-281.7 259,-281.7"/>
<text text-anchor="start" x="279" y="-288.8" font-family="Helvetica,sans-Serif" font-size="11.00" fill="#000000">PsychEvaluation</text>
<polygon fill="none" stroke="#000000" points="438,-281.7 438,-303.7 519,-303.7 519,-281.7 438,-281.7"/>
<text text-anchor="start" x="441" y="-289.4" font-family="Helvetica,sans-Serif" font-size="11.00" fill="#000000">bit[1]</text>
<polygon fill="none" stroke="#000000" points="259,-259.7 259,-281.7 438,-281.7 438,-259.7 259,-259.7"/>
<text text-anchor="start" x="279" y="-266.8" font-family="Helvetica,sans-Serif" font-size="11.00" fill="#000000">AdmissionDate</text>
<polygon fill="none" stroke="#000000" points="438,-259.7 438,-281.7 519,-281.7 519,-259.7 438,-259.7"/>
<text text-anchor="start" x="440.5968" y="-267.4" font-family="Helvetica,sans-Serif" font-size="11.00" fill="#000000">datetime2[16,7]</text>
<polygon fill="none" stroke="#000000" points="259,-237.7 259,-259.7 438,-259.7 438,-237.7 259,-237.7"/>
<text text-anchor="start" x="279" y="-244.8" font-family="Helvetica,sans-Serif" font-size="11.00" fill="#000000">DischargeDate</text>
<polygon fill="none" stroke="#000000" points="438,-237.7 438,-259.7 519,-259.7 519,-237.7 438,-237.7"/>
<text text-anchor="start" x="440.5968" y="-245.4" font-family="Helvetica,sans-Serif" font-size="11.00" fill="#000000">datetime2[16,7]</text>
<polygon fill="none" stroke="#000000" points="259,-215.7 259,-237.7 438,-237.7 438,-215.7 259,-215.7"/>
<image xlink:href="../../images/foreignKeys.png" width="11px" height="12px" preserveAspectRatio="xMinYMin meet" x="264" y="-232.7"/>
<text text-anchor="start" x="279" y="-222.8" font-family="Helvetica,sans-Serif" font-size="11.00" fill="#000000">HospitalizationStatusId</text>
<polygon fill="none" stroke="#000000" points="438,-215.7 438,-237.7 519,-237.7 519,-215.7 438,-215.7"/>
<text text-anchor="start" x="441" y="-223.4" font-family="Helvetica,sans-Serif" font-size="11.00" fill="#000000">int[4]</text>
<polygon fill="none" stroke="#000000" points="259,-193.7 259,-215.7 438,-215.7 438,-193.7 259,-193.7"/>
<text text-anchor="start" x="279" y="-200.8" font-family="Helvetica,sans-Serif" font-size="11.00" fill="#000000">CreatedAtUtc</text>
<polygon fill="none" stroke="#000000" points="438,-193.7 438,-215.7 519,-215.7 519,-193.7 438,-193.7"/>
<text text-anchor="start" x="440.5968" y="-201.4" font-family="Helvetica,sans-Serif" font-size="11.00" fill="#000000">datetime2[16,7]</text>
<polygon fill="none" stroke="#000000" points="259,-171.7 259,-193.7 438,-193.7 438,-171.7 259,-171.7"/>
<text text-anchor="start" x="279" y="-178.8" font-family="Helvetica,sans-Serif" font-size="11.00" fill="#000000">UpdatedAtUtc</text>
<polygon fill="none" stroke="#000000" points="438,-171.7 438,-193.7 519,-193.7 519,-171.7 438,-171.7"/>
<text text-anchor="start" x="440.5968" y="-179.4" font-family="Helvetica,sans-Serif" font-size="11.00" fill="#000000">datetime2[16,7]</text>
<polygon fill="none" stroke="#000000" points="259,-149.7 259,-171.7 438,-171.7 438,-149.7 259,-149.7"/>
<text text-anchor="start" x="279" y="-156.8" font-family="Helvetica,sans-Serif" font-size="11.00" fill="#000000">RowVersion</text>
<polygon fill="none" stroke="#000000" points="438,-149.7 438,-171.7 519,-171.7 519,-149.7 438,-149.7"/>
<text text-anchor="start" x="441" y="-157.4" font-family="Helvetica,sans-Serif" font-size="11.00" fill="#000000">timestamp[8]</text>
<polygon fill="#ffffff" stroke="transparent" points="259,-130.7 259,-149.7 353,-149.7 353,-130.7 259,-130.7"/>
<polygon fill="none" stroke="#000000" points="259,-130.7 259,-149.7 353,-149.7 353,-130.7 259,-130.7"/>
<text text-anchor="start" x="262" y="-136.8" font-family="Helvetica,sans-Serif" font-size="11.00" fill="#000000">&lt; 3</text>
<polygon fill="#ffffff" stroke="transparent" points="353,-130.7 353,-149.7 438,-149.7 438,-130.7 353,-130.7"/>
<polygon fill="none" stroke="#000000" points="353,-130.7 353,-149.7 438,-149.7 438,-130.7 353,-130.7"/>
<text text-anchor="start" x="428.8862" y="-136.8" font-family="Helvetica,sans-Serif" font-size="11.00" fill="#000000"> &#160;</text>
<polygon fill="#ffffff" stroke="transparent" points="438,-130.7 438,-149.7 519,-149.7 519,-130.7 438,-130.7"/>
<polygon fill="none" stroke="#000000" points="438,-130.7 438,-149.7 519,-149.7 519,-130.7 438,-130.7"/>
<text text-anchor="start" x="500.4053" y="-136.8" font-family="Helvetica,sans-Serif" font-size="11.00" fill="#000000">3 &gt;</text>
<polygon fill="none" stroke="#000000" stroke-width="2" points="258,-129.7 258,-415.7 520,-415.7 520,-129.7 258,-129.7"/>
</a>
</g>
</g>
<!-- HospitalizationInsurances&#45;&gt;Hospitalizations -->
<g id="edge1" class="edge">
<title>HospitalizationInsurances:w&#45;&gt;Hospitalizations:e</title>
<path fill="none" stroke="#000000" d="M571.2798,-521.0959C526.2872,-501.7146 583.4788,-380.7 519,-380.7"/>
<polygon fill="#000000" stroke="#000000" points="577.6309,-522.2589 584.8515,-527.2411 581.5654,-522.9795 585.5,-523.7 585.5,-523.7 585.5,-523.7 581.5654,-522.9795 586.1485,-520.1589 577.6309,-522.2589 577.6309,-522.2589"/>
<ellipse fill="none" stroke="#000000" cx="574.4832" cy="-521.6825" rx="3.2" ry="3.2"/>
</g>
<!-- Facilities -->
<g id="node3" class="node">
<title>Facilities</title>
<g id="a_node3"><a xlink:href="../../tables/Facilities.html" xlink:title="Facilities" target="_top">
<polygon fill="#ffffff" stroke="transparent" points="50,-236.2 50,-319.2 166,-319.2 166,-236.2 50,-236.2"/>
<polygon fill="#f5f5f5" stroke="transparent" points="50,-295.7 50,-318.7 166,-318.7 166,-295.7 50,-295.7"/>
<polygon fill="none" stroke="#000000" points="50,-295.7 50,-318.7 166,-318.7 166,-295.7 50,-295.7"/>
<text text-anchor="start" x="55" y="-304.3" font-family="Helvetica,sans-Serif" font-weight="bold" font-size="11.00" fill="#000000">Facilities</text>
<text text-anchor="start" x="131.0437" y="-303.8" font-family="Helvetica,sans-Serif" font-size="11.00" fill="#000000">[table]</text>
<polygon fill="none" stroke="#000000" points="50,-273.7 50,-295.7 166,-295.7 166,-273.7 50,-273.7"/>
<image xlink:href="../../images/primaryKeys.png" width="11px" height="12px" preserveAspectRatio="xMinYMin meet" x="55" y="-290.7"/>
<text text-anchor="start" x="70" y="-280.8" font-family="Helvetica,sans-Serif" font-size="11.00" fill="#000000">Id</text>
<polygon fill="none" stroke="#000000" points="50,-254.7 50,-273.7 166,-273.7 166,-254.7 50,-254.7"/>
<text text-anchor="start" x="53" y="-260.8" font-family="Helvetica,sans-Serif" font-size="11.00" fill="#000000">...</text>
<polygon fill="#ffffff" stroke="transparent" points="50,-235.7 50,-254.7 97,-254.7 97,-235.7 50,-235.7"/>
<polygon fill="none" stroke="#000000" points="50,-235.7 50,-254.7 97,-254.7 97,-235.7 50,-235.7"/>
<text text-anchor="start" x="53" y="-241.8" font-family="Helvetica,sans-Serif" font-size="11.00" fill="#000000"> &#160;</text>
<polygon fill="#ffffff" stroke="transparent" points="97,-235.7 97,-254.7 127,-254.7 127,-235.7 97,-235.7"/>
<polygon fill="none" stroke="#000000" points="97,-235.7 97,-254.7 127,-254.7 127,-235.7 97,-235.7"/>
<text text-anchor="start" x="117.8862" y="-241.8" font-family="Helvetica,sans-Serif" font-size="11.00" fill="#000000"> &#160;</text>
<polygon fill="#ffffff" stroke="transparent" points="127,-235.7 127,-254.7 166,-254.7 166,-235.7 127,-235.7"/>
<polygon fill="none" stroke="#000000" points="127,-235.7 127,-254.7 166,-254.7 166,-235.7 127,-235.7"/>
<text text-anchor="start" x="147.4053" y="-241.8" font-family="Helvetica,sans-Serif" font-size="11.00" fill="#000000">2 &gt;</text>
</a>
</g>
</g>
<!-- Hospitalizations&#45;&gt;Facilities -->
<g id="edge2" class="edge">
<title>Hospitalizations:w&#45;&gt;Facilities:e</title>
<path fill="none" stroke="#000000" d="M244.3159,-313.4109C213.452,-307.6688 204.0018,-284.7 166,-284.7"/>
<polygon fill="#000000" stroke="#000000" points="251.0306,-314.0004 258.6852,-318.2862 255.0153,-314.3502 259,-314.7 259,-314.7 259,-314.7 255.0153,-314.3502 259.3148,-311.1138 251.0306,-314.0004 251.0306,-314.0004"/>
<ellipse fill="none" stroke="#000000" cx="247.8429" cy="-313.7205" rx="3.2" ry="3.2"/>
</g>
<!-- HospitalizationStatuses -->
<g id="node4" class="node">
<title>HospitalizationStatuses</title>
<g id="a_node4"><a xlink:href="../../tables/HospitalizationStatuses.html" xlink:title="HospitalizationStatuses" target="_top">
<polygon fill="#ffffff" stroke="transparent" points="8,-94.2 8,-177.2 208,-177.2 208,-94.2 8,-94.2"/>
<polygon fill="#f5f5f5" stroke="transparent" points="8,-153.7 8,-176.7 208,-176.7 208,-153.7 8,-153.7"/>
<polygon fill="none" stroke="#000000" points="8,-153.7 8,-176.7 208,-176.7 208,-153.7 8,-153.7"/>
<text text-anchor="start" x="13" y="-162.3" font-family="Helvetica,sans-Serif" font-weight="bold" font-size="11.00" fill="#000000">HospitalizationStatuses</text>
<text text-anchor="start" x="173.5219" y="-161.8" font-family="Helvetica,sans-Serif" font-size="11.00" fill="#000000">[table]</text>
<polygon fill="none" stroke="#000000" points="8,-131.7 8,-153.7 208,-153.7 208,-131.7 8,-131.7"/>
<image xlink:href="../../images/primaryKeys.png" width="11px" height="12px" preserveAspectRatio="xMinYMin meet" x="13" y="-148.7"/>
<text text-anchor="start" x="37" y="-138.8" font-family="Helvetica,sans-Serif" font-size="11.00" fill="#000000">Id</text>
<polygon fill="none" stroke="#000000" points="8,-112.7 8,-131.7 208,-131.7 208,-112.7 8,-112.7"/>
<text text-anchor="start" x="11" y="-118.8" font-family="Helvetica,sans-Serif" font-size="11.00" fill="#000000">...</text>
<polygon fill="#ffffff" stroke="transparent" points="8,-93.7 8,-112.7 97,-112.7 97,-93.7 8,-93.7"/>
<polygon fill="none" stroke="#000000" points="8,-93.7 8,-112.7 97,-112.7 97,-93.7 8,-93.7"/>
<text text-anchor="start" x="11" y="-99.8" font-family="Helvetica,sans-Serif" font-size="11.00" fill="#000000"> &#160;</text>
<polygon fill="#ffffff" stroke="transparent" points="97,-93.7 97,-112.7 148,-112.7 148,-93.7 97,-93.7"/>
<polygon fill="none" stroke="#000000" points="97,-93.7 97,-112.7 148,-112.7 148,-93.7 97,-93.7"/>
<text text-anchor="start" x="138.8862" y="-99.8" font-family="Helvetica,sans-Serif" font-size="11.00" fill="#000000"> &#160;</text>
<polygon fill="#ffffff" stroke="transparent" points="148,-93.7 148,-112.7 208,-112.7 208,-93.7 148,-93.7"/>
<polygon fill="none" stroke="#000000" points="148,-93.7 148,-112.7 208,-112.7 208,-93.7 148,-93.7"/>
<text text-anchor="start" x="189.4053" y="-99.8" font-family="Helvetica,sans-Serif" font-size="11.00" fill="#000000">2 &gt;</text>
</a>
</g>
</g>
<!-- Hospitalizations&#45;&gt;HospitalizationStatuses -->
<g id="edge3" class="edge">
<title>Hospitalizations:w&#45;&gt;HospitalizationStatuses:e</title>
<path fill="none" stroke="#000000" d="M245.1647,-222.4189C223.7683,-205.3014 245.7043,-142.7 208,-142.7"/>
<polygon fill="#000000" stroke="#000000" points="251.3575,-224.3351 257.9358,-230.1391 255.1788,-225.5176 259,-226.7 259,-226.7 259,-226.7 255.1788,-225.5176 260.0642,-223.2609 251.3575,-224.3351 251.3575,-224.3351"/>
<ellipse fill="none" stroke="#000000" cx="248.3005" cy="-223.3892" rx="3.2" ry="3.2"/>
</g>
<!-- Patients -->
<g id="node5" class="node">
<title>Patients</title>
<g id="a_node5"><a xlink:href="../../tables/Patients.html" xlink:title="Patients" target="_top">
<polygon fill="#ffffff" stroke="transparent" points="50,-340.2 50,-423.2 166,-423.2 166,-340.2 50,-340.2"/>
<polygon fill="#f5f5f5" stroke="transparent" points="50,-399.7 50,-422.7 166,-422.7 166,-399.7 50,-399.7"/>
<polygon fill="none" stroke="#000000" points="50,-399.7 50,-422.7 166,-422.7 166,-399.7 50,-399.7"/>
<text text-anchor="start" x="55" y="-408.3" font-family="Helvetica,sans-Serif" font-weight="bold" font-size="11.00" fill="#000000">Patients</text>
<text text-anchor="start" x="131.0437" y="-407.8" font-family="Helvetica,sans-Serif" font-size="11.00" fill="#000000">[table]</text>
<polygon fill="none" stroke="#000000" points="50,-377.7 50,-399.7 166,-399.7 166,-377.7 50,-377.7"/>
<image xlink:href="../../images/primaryKeys.png" width="11px" height="12px" preserveAspectRatio="xMinYMin meet" x="55" y="-394.7"/>
<text text-anchor="start" x="70" y="-384.8" font-family="Helvetica,sans-Serif" font-size="11.00" fill="#000000">Id</text>
<polygon fill="none" stroke="#000000" points="50,-358.7 50,-377.7 166,-377.7 166,-358.7 50,-358.7"/>
<text text-anchor="start" x="53" y="-364.8" font-family="Helvetica,sans-Serif" font-size="11.00" fill="#000000">...</text>
<polygon fill="#ffffff" stroke="transparent" points="50,-339.7 50,-358.7 97,-358.7 97,-339.7 50,-339.7"/>
<polygon fill="none" stroke="#000000" points="50,-339.7 50,-358.7 97,-358.7 97,-339.7 50,-339.7"/>
<text text-anchor="start" x="53" y="-345.8" font-family="Helvetica,sans-Serif" font-size="11.00" fill="#000000"> &#160;</text>
<polygon fill="#ffffff" stroke="transparent" points="97,-339.7 97,-358.7 127,-358.7 127,-339.7 97,-339.7"/>
<polygon fill="none" stroke="#000000" points="97,-339.7 97,-358.7 127,-358.7 127,-339.7 97,-339.7"/>
<text text-anchor="start" x="117.8862" y="-345.8" font-family="Helvetica,sans-Serif" font-size="11.00" fill="#000000"> &#160;</text>
<polygon fill="#ffffff" stroke="transparent" points="127,-339.7 127,-358.7 166,-358.7 166,-339.7 127,-339.7"/>
<polygon fill="none" stroke="#000000" points="127,-339.7 127,-358.7 166,-358.7 166,-339.7 127,-339.7"/>
<text text-anchor="start" x="147.4053" y="-345.8" font-family="Helvetica,sans-Serif" font-size="11.00" fill="#000000">2 &gt;</text>
</a>
</g>
</g>
<!-- Hospitalizations&#45;&gt;Patients -->
<g id="edge4" class="edge">
<title>Hospitalizations:w&#45;&gt;Patients:e</title>
<path fill="none" stroke="#000000" d="M244.3159,-359.9891C213.452,-365.7313 204.0018,-388.7 166,-388.7"/>
<polygon fill="#000000" stroke="#000000" points="251.0306,-359.3996 259.3148,-362.2862 255.0153,-359.0498 259,-358.7 259,-358.7 259,-358.7 255.0153,-359.0498 258.6852,-355.1138 251.0306,-359.3996 251.0306,-359.3996"/>
<ellipse fill="none" stroke="#000000" cx="247.8429" cy="-359.6795" rx="3.2" ry="3.2"/>
</g>
<!-- HospitalizationStatusHistories -->
<g id="node6" class="node">
<title>HospitalizationStatusHistories</title>
<g id="a_node6"><a xlink:href="../../tables/HospitalizationStatusHistories.html" xlink:title="HospitalizationStatusHistories" target="_top">
<polygon fill="#ffffff" stroke="transparent" points="570,-38.2 570,-209.2 815,-209.2 815,-38.2 570,-38.2"/>
<polygon fill="#f5f5f5" stroke="transparent" points="570.5,-185.7 570.5,-208.7 815.5,-208.7 815.5,-185.7 570.5,-185.7"/>
<polygon fill="none" stroke="#000000" points="570.5,-185.7 570.5,-208.7 815.5,-208.7 815.5,-185.7 570.5,-185.7"/>
<text text-anchor="start" x="575.5" y="-194.3" font-family="Helvetica,sans-Serif" font-weight="bold" font-size="11.00" fill="#000000">HospitalizationStatusHistories</text>
<text text-anchor="start" x="781.0219" y="-193.8" font-family="Helvetica,sans-Serif" font-size="11.00" fill="#000000">[table]</text>
<polygon fill="none" stroke="#000000" points="570.5,-163.7 570.5,-185.7 815.5,-185.7 815.5,-163.7 570.5,-163.7"/>
<image xlink:href="../../images/primaryKeys.png" width="11px" height="12px" preserveAspectRatio="xMinYMin meet" x="575.5" y="-180.7"/>
<text text-anchor="start" x="599.5" y="-170.8" font-family="Helvetica,sans-Serif" font-size="11.00" fill="#000000">Id</text>
<polygon fill="#ffffff" stroke="transparent" points="570.5,-141.7 570.5,-163.7 815.5,-163.7 815.5,-141.7 570.5,-141.7"/>
<polygon fill="none" stroke="#000000" points="570.5,-141.7 570.5,-163.7 815.5,-163.7 815.5,-141.7 570.5,-141.7"/>
<image xlink:href="../../images/foreignKeys.png" width="11px" height="12px" preserveAspectRatio="xMinYMin meet" x="575.5" y="-158.7"/>
<text text-anchor="start" x="599.5" y="-148.8" font-family="Helvetica,sans-Serif" font-size="11.00" fill="#000000">HospitalizationId</text>
<polygon fill="#ffffff" stroke="transparent" points="570.5,-119.7 570.5,-141.7 815.5,-141.7 815.5,-119.7 570.5,-119.7"/>
<polygon fill="none" stroke="#000000" points="570.5,-119.7 570.5,-141.7 815.5,-141.7 815.5,-119.7 570.5,-119.7"/>
<image xlink:href="../../images/foreignKeys.png" width="11px" height="12px" preserveAspectRatio="xMinYMin meet" x="575.5" y="-136.7"/>
<text text-anchor="start" x="599.5" y="-126.8" font-family="Helvetica,sans-Serif" font-size="11.00" fill="#000000">NewStatusId</text>
<polygon fill="#ffffff" stroke="transparent" points="570.5,-97.7 570.5,-119.7 815.5,-119.7 815.5,-97.7 570.5,-97.7"/>
<polygon fill="none" stroke="#000000" points="570.5,-97.7 570.5,-119.7 815.5,-119.7 815.5,-97.7 570.5,-97.7"/>
<text text-anchor="start" x="599.5" y="-104.8" font-family="Helvetica,sans-Serif" font-size="11.00" fill="#000000">ChangedAt</text>
<polygon fill="#ffffff" stroke="transparent" points="570.5,-75.7 570.5,-97.7 815.5,-97.7 815.5,-75.7 570.5,-75.7"/>
<polygon fill="none" stroke="#000000" points="570.5,-75.7 570.5,-97.7 815.5,-97.7 815.5,-75.7 570.5,-75.7"/>
<image xlink:href="../../images/foreignKeys.png" width="11px" height="12px" preserveAspectRatio="xMinYMin meet" x="575.5" y="-92.7"/>
<text text-anchor="start" x="599.5" y="-82.8" font-family="Helvetica,sans-Serif" font-size="11.00" fill="#000000">ChangedByUserId</text>
<polygon fill="none" stroke="#000000" points="570.5,-56.7 570.5,-75.7 815.5,-75.7 815.5,-56.7 570.5,-56.7"/>
<text text-anchor="start" x="573.5" y="-62.8" font-family="Helvetica,sans-Serif" font-size="11.00" fill="#000000">...</text>
<polygon fill="#ffffff" stroke="transparent" points="570.5,-37.7 570.5,-56.7 691.5,-56.7 691.5,-37.7 570.5,-37.7"/>
<polygon fill="none" stroke="#000000" points="570.5,-37.7 570.5,-56.7 691.5,-56.7 691.5,-37.7 570.5,-37.7"/>
<text text-anchor="start" x="573.5" y="-43.8" font-family="Helvetica,sans-Serif" font-size="11.00" fill="#000000">&lt; 3</text>
<polygon fill="#ffffff" stroke="transparent" points="691.5,-37.7 691.5,-56.7 753.5,-56.7 753.5,-37.7 691.5,-37.7"/>
<polygon fill="none" stroke="#000000" points="691.5,-37.7 691.5,-56.7 753.5,-56.7 753.5,-37.7 691.5,-37.7"/>
<text text-anchor="start" x="744.3862" y="-43.8" font-family="Helvetica,sans-Serif" font-size="11.00" fill="#000000"> &#160;</text>
<polygon fill="#ffffff" stroke="transparent" points="753.5,-37.7 753.5,-56.7 815.5,-56.7 815.5,-37.7 753.5,-37.7"/>
<polygon fill="none" stroke="#000000" points="753.5,-37.7 753.5,-56.7 815.5,-56.7 815.5,-37.7 753.5,-37.7"/>
<text text-anchor="start" x="806.3862" y="-43.8" font-family="Helvetica,sans-Serif" font-size="11.00" fill="#000000"> &#160;</text>
</a>
</g>
</g>
<!-- HospitalizationStatusHistories&#45;&gt;Hospitalizations -->
<g id="edge5" class="edge">
<title>HospitalizationStatusHistories:w&#45;&gt;Hospitalizations:e</title>
<path fill="none" stroke="#000000" d="M556.159,-154.5353C482.3722,-176.1128 617.4078,-380.7 519,-380.7"/>
<polygon fill="#000000" stroke="#000000" points="562.5647,-153.7156 570.957,-156.2709 566.5324,-153.2078 570.5,-152.7 570.5,-152.7 570.5,-152.7 566.5324,-153.2078 570.043,-149.1291 562.5647,-153.7156 562.5647,-153.7156"/>
<ellipse fill="none" stroke="#000000" cx="559.3906" cy="-154.1218" rx="3.2" ry="3.2"/>
</g>
<!-- HospitalizationStatusHistories&#45;&gt;HospitalizationStatuses -->
<g id="edge6" class="edge">
<title>HospitalizationStatusHistories:w&#45;&gt;HospitalizationStatuses:e</title>
<path fill="none" stroke="#000000" d="M556.1584,-128.2735C547.6892,-125.1003 542.1354,-119.7092 529,-117.7 405.9863,-98.8836 368.8096,-84.0535 249,-117.7 228.4523,-123.4705 229.3426,-142.7 208,-142.7"/>
<polygon fill="#000000" stroke="#000000" points="562.6121,-129.3654 569.8994,-134.2496 566.5561,-130.0327 570.5,-130.7 570.5,-130.7 570.5,-130.7 566.5561,-130.0327 571.1006,-127.1504 562.6121,-129.3654 562.6121,-129.3654"/>
<ellipse fill="none" stroke="#000000" cx="559.4569" cy="-128.8315" rx="3.2" ry="3.2"/>
</g>
<!-- Visits -->
<g id="node7" class="node">
<title>Visits</title>
<g id="a_node7"><a xlink:href="../../tables/Visits.html" xlink:title="Visits" target="_top">
<polygon fill="#ffffff" stroke="transparent" points="615,-283.2 615,-432.2 770,-432.2 770,-283.2 615,-283.2"/>
<polygon fill="#f5f5f5" stroke="transparent" points="615.5,-408.7 615.5,-431.7 770.5,-431.7 770.5,-408.7 615.5,-408.7"/>
<polygon fill="none" stroke="#000000" points="615.5,-408.7 615.5,-431.7 770.5,-431.7 770.5,-408.7 615.5,-408.7"/>
<text text-anchor="start" x="620.5" y="-417.3" font-family="Helvetica,sans-Serif" font-weight="bold" font-size="11.00" fill="#000000">Visits</text>
<text text-anchor="start" x="735.5437" y="-416.8" font-family="Helvetica,sans-Serif" font-size="11.00" fill="#000000">[table]</text>
<polygon fill="none" stroke="#000000" points="615.5,-386.7 615.5,-408.7 770.5,-408.7 770.5,-386.7 615.5,-386.7"/>
<image xlink:href="../../images/primaryKeys.png" width="11px" height="12px" preserveAspectRatio="xMinYMin meet" x="620.5" y="-403.7"/>
<text text-anchor="start" x="635.5" y="-393.8" font-family="Helvetica,sans-Serif" font-size="11.00" fill="#000000">Id</text>
<polygon fill="#ffffff" stroke="transparent" points="615.5,-364.7 615.5,-386.7 770.5,-386.7 770.5,-364.7 615.5,-364.7"/>
<polygon fill="none" stroke="#000000" points="615.5,-364.7 615.5,-386.7 770.5,-386.7 770.5,-364.7 615.5,-364.7"/>
<text text-anchor="start" x="635.5" y="-371.8" font-family="Helvetica,sans-Serif" font-size="11.00" fill="#000000">DateServiced</text>
<polygon fill="#ffffff" stroke="transparent" points="615.5,-342.7 615.5,-364.7 770.5,-364.7 770.5,-342.7 615.5,-342.7"/>
<polygon fill="none" stroke="#000000" points="615.5,-342.7 615.5,-364.7 770.5,-364.7 770.5,-342.7 615.5,-342.7"/>
<image xlink:href="../../images/foreignKeys.png" width="11px" height="12px" preserveAspectRatio="xMinYMin meet" x="620.5" y="-359.7"/>
<text text-anchor="start" x="635.5" y="-349.8" font-family="Helvetica,sans-Serif" font-size="11.00" fill="#000000">HospitalizationId</text>
<polygon fill="#ffffff" stroke="transparent" points="615.5,-320.7 615.5,-342.7 770.5,-342.7 770.5,-320.7 615.5,-320.7"/>
<polygon fill="none" stroke="#000000" points="615.5,-320.7 615.5,-342.7 770.5,-342.7 770.5,-320.7 615.5,-320.7"/>
<image xlink:href="../../images/foreignKeys.png" width="11px" height="12px" preserveAspectRatio="xMinYMin meet" x="620.5" y="-337.7"/>
<text text-anchor="start" x="635.5" y="-327.8" font-family="Helvetica,sans-Serif" font-size="11.00" fill="#000000">ServiceTypeId</text>
<polygon fill="none" stroke="#000000" points="615.5,-301.7 615.5,-320.7 770.5,-320.7 770.5,-301.7 615.5,-301.7"/>
<text text-anchor="start" x="618.5" y="-307.8" font-family="Helvetica,sans-Serif" font-size="11.00" fill="#000000">...</text>
<polygon fill="#ffffff" stroke="transparent" points="615.5,-282.7 615.5,-301.7 686.5,-301.7 686.5,-282.7 615.5,-282.7"/>
<polygon fill="none" stroke="#000000" points="615.5,-282.7 615.5,-301.7 686.5,-301.7 686.5,-282.7 615.5,-282.7"/>
<text text-anchor="start" x="618.5" y="-288.8" font-family="Helvetica,sans-Serif" font-size="11.00" fill="#000000">&lt; 2</text>
<polygon fill="#ffffff" stroke="transparent" points="686.5,-282.7 686.5,-301.7 723.5,-301.7 723.5,-282.7 686.5,-282.7"/>
<polygon fill="none" stroke="#000000" points="686.5,-282.7 686.5,-301.7 723.5,-301.7 723.5,-282.7 686.5,-282.7"/>
<text text-anchor="start" x="714.3862" y="-288.8" font-family="Helvetica,sans-Serif" font-size="11.00" fill="#000000"> &#160;</text>
<polygon fill="#ffffff" stroke="transparent" points="723.5,-282.7 723.5,-301.7 770.5,-301.7 770.5,-282.7 723.5,-282.7"/>
<polygon fill="none" stroke="#000000" points="723.5,-282.7 723.5,-301.7 770.5,-301.7 770.5,-282.7 723.5,-282.7"/>
<text text-anchor="start" x="751.9053" y="-288.8" font-family="Helvetica,sans-Serif" font-size="11.00" fill="#000000">2 &gt;</text>
</a>
</g>
</g>
<!-- Visits&#45;&gt;Hospitalizations -->
<g id="edge7" class="edge">
<title>Visits:w&#45;&gt;Hospitalizations:e</title>
<path fill="none" stroke="#000000" d="M600.8215,-354.7919C568.6209,-359.8431 558.143,-380.7 519,-380.7"/>
<polygon fill="#000000" stroke="#000000" points="607.522,-354.2935 615.7671,-357.2901 611.511,-353.9967 615.5,-353.7 615.5,-353.7 615.5,-353.7 611.511,-353.9967 615.2329,-350.1099 607.522,-354.2935 607.522,-354.2935"/>
<ellipse fill="none" stroke="#000000" cx="604.3309" cy="-354.5309" rx="3.2" ry="3.2"/>
</g>
</g>
</svg>
