<?xml version="1.0" encoding="UTF-8" standalone="no"?>
<!DOCTYPE svg PUBLIC "-//W3C//DTD SVG 1.1//EN"
 "http://www.w3.org/Graphics/SVG/1.1/DTD/svg11.dtd">
<!-- Generated by graphviz version 2.40.1 (20161225.0304)
 -->
<!-- Title: twoDegreesRelationshipsDiagram Pages: 1 -->
<svg width="817pt" height="459pt"
 viewBox="0.00 0.00 817.00 458.70" xmlns="http://www.w3.org/2000/svg" xmlns:xlink="http://www.w3.org/1999/xlink">
<g id="graph0" class="graph" transform="scale(1 1) rotate(0) translate(4 454.7)">
<title>twoDegreesRelationshipsDiagram</title>
<polygon fill="#ffffff" stroke="transparent" points="-4,4 -4,-454.7 813,-454.7 813,4 -4,4"/>
<text text-anchor="middle" x="72.4936" y="-7.3" font-family="Helvetica,sans-Serif" font-size="11.00" fill="#000000">Generated by SchemaSpy</text>
<!-- HospitalizationInsurances -->
<g id="node1" class="node">
<title>HospitalizationInsurances</title>
<g id="a_node1"><a xlink:href="../../tables/HospitalizationInsurances.html" xlink:title="HospitalizationInsurances" target="_top">
<polygon fill="#ffffff" stroke="transparent" points="571.5,-383.7 571.5,-444.7 785.5,-444.7 785.5,-383.7 571.5,-383.7"/>
<polygon fill="#f5f5f5" stroke="transparent" points="571.5,-421.2 571.5,-444.2 785.5,-444.2 785.5,-421.2 571.5,-421.2"/>
<polygon fill="none" stroke="#000000" points="571.5,-421.2 571.5,-444.2 785.5,-444.2 785.5,-421.2 571.5,-421.2"/>
<text text-anchor="start" x="576.5" y="-429.8" font-family="Helvetica,sans-Serif" font-weight="bold" font-size="11.00" fill="#000000">HospitalizationInsurances</text>
<text text-anchor="start" x="751.0219" y="-429.3" font-family="Helvetica,sans-Serif" font-size="11.00" fill="#000000">[table]</text>
<polygon fill="none" stroke="#000000" points="571.5,-402.2 571.5,-421.2 785.5,-421.2 785.5,-402.2 571.5,-402.2"/>
<text text-anchor="start" x="574.5" y="-408.3" font-family="Helvetica,sans-Serif" font-size="11.00" fill="#000000">...</text>
<polygon fill="#ffffff" stroke="transparent" points="571.5,-383.2 571.5,-402.2 676.5,-402.2 676.5,-383.2 571.5,-383.2"/>
<polygon fill="none" stroke="#000000" points="571.5,-383.2 571.5,-402.2 676.5,-402.2 676.5,-383.2 571.5,-383.2"/>
<text text-anchor="start" x="574.5" y="-389.3" font-family="Helvetica,sans-Serif" font-size="11.00" fill="#000000">&lt; 2</text>
<polygon fill="#ffffff" stroke="transparent" points="676.5,-383.2 676.5,-402.2 730.5,-402.2 730.5,-383.2 676.5,-383.2"/>
<polygon fill="none" stroke="#000000" points="676.5,-383.2 676.5,-402.2 730.5,-402.2 730.5,-383.2 676.5,-383.2"/>
<text text-anchor="start" x="721.3862" y="-389.3" font-family="Helvetica,sans-Serif" font-size="11.00" fill="#000000"> &#160;</text>
<polygon fill="#ffffff" stroke="transparent" points="730.5,-383.2 730.5,-402.2 785.5,-402.2 785.5,-383.2 730.5,-383.2"/>
<polygon fill="none" stroke="#000000" points="730.5,-383.2 730.5,-402.2 785.5,-402.2 785.5,-383.2 730.5,-383.2"/>
<text text-anchor="start" x="776.3862" y="-389.3" font-family="Helvetica,sans-Serif" font-size="11.00" fill="#000000"> &#160;</text>
</a>
</g>
</g>
<!-- Hospitalizations -->
<g id="node2" class="node">
<title>Hospitalizations</title>
<g id="a_node2"><a xlink:href="../../tables/Hospitalizations.html" xlink:title="Hospitalizations" target="_top">
<polygon fill="#ffffff" stroke="transparent" points="359,-299.7 359,-360.7 507,-360.7 507,-299.7 359,-299.7"/>
<polygon fill="#f5f5f5" stroke="transparent" points="359,-337.2 359,-360.2 507,-360.2 507,-337.2 359,-337.2"/>
<polygon fill="none" stroke="#000000" points="359,-337.2 359,-360.2 507,-360.2 507,-337.2 359,-337.2"/>
<text text-anchor="start" x="364" y="-345.8" font-family="Helvetica,sans-Serif" font-weight="bold" font-size="11.00" fill="#000000">Hospitalizations</text>
<text text-anchor="start" x="472.5219" y="-345.3" font-family="Helvetica,sans-Serif" font-size="11.00" fill="#000000">[table]</text>
<polygon fill="none" stroke="#000000" points="359,-318.2 359,-337.2 507,-337.2 507,-318.2 359,-318.2"/>
<text text-anchor="start" x="362" y="-324.3" font-family="Helvetica,sans-Serif" font-size="11.00" fill="#000000">...</text>
<polygon fill="#ffffff" stroke="transparent" points="359,-299.2 359,-318.2 427,-318.2 427,-299.2 359,-299.2"/>
<polygon fill="none" stroke="#000000" points="359,-299.2 359,-318.2 427,-318.2 427,-299.2 359,-299.2"/>
<text text-anchor="start" x="362" y="-305.3" font-family="Helvetica,sans-Serif" font-size="11.00" fill="#000000">&lt; 3</text>
<polygon fill="#ffffff" stroke="transparent" points="427,-299.2 427,-318.2 462,-318.2 462,-299.2 427,-299.2"/>
<polygon fill="none" stroke="#000000" points="427,-299.2 427,-318.2 462,-318.2 462,-299.2 427,-299.2"/>
<text text-anchor="start" x="452.8862" y="-305.3" font-family="Helvetica,sans-Serif" font-size="11.00" fill="#000000"> &#160;</text>
<polygon fill="#ffffff" stroke="transparent" points="462,-299.2 462,-318.2 507,-318.2 507,-299.2 462,-299.2"/>
<polygon fill="none" stroke="#000000" points="462,-299.2 462,-318.2 507,-318.2 507,-299.2 462,-299.2"/>
<text text-anchor="start" x="488.4053" y="-305.3" font-family="Helvetica,sans-Serif" font-size="11.00" fill="#000000">3 &gt;</text>
</a>
</g>
</g>
<!-- HospitalizationInsurances&#45;&gt;Hospitalizations -->
<g id="edge1" class="edge">
<title>HospitalizationInsurances:w&#45;&gt;Hospitalizations:e</title>
<path fill="none" stroke="#000000" d="M556.9022,-410.1086C523.0715,-405.1377 491.1887,-384.0499 468.2386,-364.7862"/>
<polygon fill="#000000" stroke="#000000" points="563.5223,-410.6035 571.2316,-414.79 567.5111,-410.9018 571.5,-411.2 571.5,-411.2 571.5,-411.2 567.5111,-410.9018 571.7684,-407.61 563.5223,-410.6035 563.5223,-410.6035"/>
<ellipse fill="none" stroke="#000000" cx="560.3312" cy="-410.3649" rx="3.2" ry="3.2"/>
</g>
<!-- Facilities -->
<g id="node3" class="node">
<title>Facilities</title>
<g id="a_node3"><a xlink:href="../../tables/Facilities.html" xlink:title="Facilities" target="_top">
<polygon fill="#ffffff" stroke="transparent" points="109.5,-385.7 109.5,-446.7 208.5,-446.7 208.5,-385.7 109.5,-385.7"/>
<polygon fill="#f5f5f5" stroke="transparent" points="110,-423.2 110,-446.2 209,-446.2 209,-423.2 110,-423.2"/>
<polygon fill="none" stroke="#000000" points="110,-423.2 110,-446.2 209,-446.2 209,-423.2 110,-423.2"/>
<text text-anchor="start" x="115" y="-431.8" font-family="Helvetica,sans-Serif" font-weight="bold" font-size="11.00" fill="#000000">Facilities</text>
<text text-anchor="start" x="174.5219" y="-431.3" font-family="Helvetica,sans-Serif" font-size="11.00" fill="#000000">[table]</text>
<polygon fill="none" stroke="#000000" points="110,-404.2 110,-423.2 209,-423.2 209,-404.2 110,-404.2"/>
<text text-anchor="start" x="113" y="-410.3" font-family="Helvetica,sans-Serif" font-size="11.00" fill="#000000">...</text>
<polygon fill="#ffffff" stroke="transparent" points="110,-385.2 110,-404.2 149,-404.2 149,-385.2 110,-385.2"/>
<polygon fill="none" stroke="#000000" points="110,-385.2 110,-404.2 149,-404.2 149,-385.2 110,-385.2"/>
<text text-anchor="start" x="113" y="-391.3" font-family="Helvetica,sans-Serif" font-size="11.00" fill="#000000"> &#160;</text>
<polygon fill="#ffffff" stroke="transparent" points="149,-385.2 149,-404.2 174,-404.2 174,-385.2 149,-385.2"/>
<polygon fill="none" stroke="#000000" points="149,-385.2 149,-404.2 174,-404.2 174,-385.2 149,-385.2"/>
<text text-anchor="start" x="164.8862" y="-391.3" font-family="Helvetica,sans-Serif" font-size="11.00" fill="#000000"> &#160;</text>
<polygon fill="#ffffff" stroke="transparent" points="174,-385.2 174,-404.2 209,-404.2 209,-385.2 174,-385.2"/>
<polygon fill="none" stroke="#000000" points="174,-385.2 174,-404.2 209,-404.2 209,-385.2 174,-385.2"/>
<text text-anchor="start" x="190.4053" y="-391.3" font-family="Helvetica,sans-Serif" font-size="11.00" fill="#000000">2 &gt;</text>
</a>
</g>
</g>
<!-- Hospitalizations&#45;&gt;Facilities -->
<g id="edge2" class="edge">
<title>Hospitalizations:w&#45;&gt;Facilities:e</title>
<path fill="none" stroke="#000000" d="M361.2241,-371.5005C318.444,-392.3168 262.2552,-413.2 209,-413.2"/>
<polygon fill="#000000" stroke="#000000" points="367.1869,-368.5075 375.9517,-368.136 370.7618,-366.713 374.3367,-364.9186 374.3367,-364.9186 374.3367,-364.9186 370.7618,-366.713 372.7217,-361.7011 367.1869,-368.5075 367.1869,-368.5075"/>
<ellipse fill="none" stroke="#000000" cx="364.327" cy="-369.9431" rx="3.2" ry="3.2"/>
</g>
<!-- HospitalizationStatuses -->
<g id="node4" class="node">
<title>HospitalizationStatuses</title>
<g id="a_node4"><a xlink:href="../../tables/HospitalizationStatuses.html" xlink:title="HospitalizationStatuses" target="_top">
<polygon fill="#ffffff" stroke="transparent" points="8,-38.2 8,-282.2 310,-282.2 310,-38.2 8,-38.2"/>
<polygon fill="#f5f5f5" stroke="transparent" points="10,-257.2 10,-280.2 308,-280.2 308,-257.2 10,-257.2"/>
<polygon fill="none" stroke="#000000" points="10,-257.2 10,-280.2 308,-280.2 308,-257.2 10,-257.2"/>
<text text-anchor="start" x="15" y="-265.8" font-family="Helvetica,sans-Serif" font-weight="bold" font-size="11.00" fill="#000000">HospitalizationStatuses</text>
<text text-anchor="start" x="273.0437" y="-265.3" font-family="Helvetica,sans-Serif" font-size="11.00" fill="#000000">[table]</text>
<polygon fill="none" stroke="#000000" points="10,-235.2 10,-257.2 192,-257.2 192,-235.2 10,-235.2"/>
<image xlink:href="../../images/primaryKeys.png" width="11px" height="12px" preserveAspectRatio="xMinYMin meet" x="15" y="-252.2"/>
<text text-anchor="start" x="30" y="-242.3" font-family="Helvetica,sans-Serif" font-size="11.00" fill="#000000">Id</text>
<polygon fill="none" stroke="#000000" points="192,-235.2 192,-257.2 308,-257.2 308,-235.2 192,-235.2"/>
<text text-anchor="start" x="195" y="-242.9" font-family="Helvetica,sans-Serif" font-size="11.00" fill="#000000">int identity[4]</text>
<polygon fill="none" stroke="#000000" points="10,-213.2 10,-235.2 192,-235.2 192,-213.2 10,-213.2"/>
<text text-anchor="start" x="30" y="-220.3" font-family="Helvetica,sans-Serif" font-size="11.00" fill="#000000">Code</text>
<polygon fill="none" stroke="#000000" points="192,-213.2 192,-235.2 308,-235.2 308,-213.2 192,-213.2"/>
<text text-anchor="start" x="195" y="-220.9" font-family="Helvetica,sans-Serif" font-size="11.00" fill="#000000">nvarchar[40]</text>
<polygon fill="none" stroke="#000000" points="10,-191.2 10,-213.2 192,-213.2 192,-191.2 10,-191.2"/>
<text text-anchor="start" x="30" y="-198.3" font-family="Helvetica,sans-Serif" font-size="11.00" fill="#000000">Name</text>
<polygon fill="none" stroke="#000000" points="192,-191.2 192,-213.2 308,-213.2 308,-191.2 192,-191.2"/>
<text text-anchor="start" x="195" y="-198.9" font-family="Helvetica,sans-Serif" font-size="11.00" fill="#000000">nvarchar[200]</text>
<polygon fill="none" stroke="#000000" points="10,-169.2 10,-191.2 192,-191.2 192,-169.2 10,-169.2"/>
<text text-anchor="start" x="30" y="-176.3" font-family="Helvetica,sans-Serif" font-size="11.00" fill="#000000">BillingCode</text>
<polygon fill="none" stroke="#000000" points="192,-169.2 192,-191.2 308,-191.2 308,-169.2 192,-169.2"/>
<text text-anchor="start" x="194.9769" y="-176.9" font-family="Helvetica,sans-Serif" font-size="11.00" fill="#000000">nvarchar[2147483647]</text>
<polygon fill="none" stroke="#000000" points="10,-147.2 10,-169.2 192,-169.2 192,-147.2 10,-147.2"/>
<text text-anchor="start" x="30" y="-154.3" font-family="Helvetica,sans-Serif" font-size="11.00" fill="#000000">Color</text>
<polygon fill="none" stroke="#000000" points="192,-147.2 192,-169.2 308,-169.2 308,-147.2 192,-147.2"/>
<text text-anchor="start" x="195" y="-154.9" font-family="Helvetica,sans-Serif" font-size="11.00" fill="#000000">nvarchar[40]</text>
<polygon fill="none" stroke="#000000" points="10,-125.2 10,-147.2 192,-147.2 192,-125.2 10,-125.2"/>
<text text-anchor="start" x="30" y="-132.3" font-family="Helvetica,sans-Serif" font-size="11.00" fill="#000000">DisplayOrder</text>
<polygon fill="none" stroke="#000000" points="192,-125.2 192,-147.2 308,-147.2 308,-125.2 192,-125.2"/>
<text text-anchor="start" x="195" y="-132.9" font-family="Helvetica,sans-Serif" font-size="11.00" fill="#000000">int[4]</text>
<polygon fill="none" stroke="#000000" points="10,-103.2 10,-125.2 192,-125.2 192,-103.2 10,-103.2"/>
<text text-anchor="start" x="30" y="-110.3" font-family="Helvetica,sans-Serif" font-size="11.00" fill="#000000">CreatedAtUtc</text>
<polygon fill="none" stroke="#000000" points="192,-103.2 192,-125.2 308,-125.2 308,-103.2 192,-103.2"/>
<text text-anchor="start" x="195" y="-110.9" font-family="Helvetica,sans-Serif" font-size="11.00" fill="#000000">datetime2[16,7]</text>
<polygon fill="none" stroke="#000000" points="10,-81.2 10,-103.2 192,-103.2 192,-81.2 10,-81.2"/>
<text text-anchor="start" x="30" y="-88.3" font-family="Helvetica,sans-Serif" font-size="11.00" fill="#000000">UpdatedAtUtc</text>
<polygon fill="none" stroke="#000000" points="192,-81.2 192,-103.2 308,-103.2 308,-81.2 192,-81.2"/>
<text text-anchor="start" x="195" y="-88.9" font-family="Helvetica,sans-Serif" font-size="11.00" fill="#000000">datetime2[16,7]</text>
<polygon fill="none" stroke="#000000" points="10,-59.2 10,-81.2 192,-81.2 192,-59.2 10,-59.2"/>
<text text-anchor="start" x="30" y="-66.3" font-family="Helvetica,sans-Serif" font-size="11.00" fill="#000000">RowVersion</text>
<polygon fill="none" stroke="#000000" points="192,-59.2 192,-81.2 308,-81.2 308,-59.2 192,-59.2"/>
<text text-anchor="start" x="195" y="-66.9" font-family="Helvetica,sans-Serif" font-size="11.00" fill="#000000">timestamp[8]</text>
<polygon fill="#ffffff" stroke="transparent" points="10,-40.2 10,-59.2 105,-59.2 105,-40.2 10,-40.2"/>
<polygon fill="none" stroke="#000000" points="10,-40.2 10,-59.2 105,-59.2 105,-40.2 10,-40.2"/>
<text text-anchor="start" x="13" y="-46.3" font-family="Helvetica,sans-Serif" font-size="11.00" fill="#000000">&lt; 0</text>
<polygon fill="#ffffff" stroke="transparent" points="105,-40.2 105,-59.2 192,-59.2 192,-40.2 105,-40.2"/>
<polygon fill="none" stroke="#000000" points="105,-40.2 105,-59.2 192,-59.2 192,-40.2 105,-40.2"/>
<text text-anchor="start" x="182.8862" y="-46.3" font-family="Helvetica,sans-Serif" font-size="11.00" fill="#000000"> &#160;</text>
<polygon fill="#ffffff" stroke="transparent" points="192,-40.2 192,-59.2 308,-59.2 308,-40.2 192,-40.2"/>
<polygon fill="none" stroke="#000000" points="192,-40.2 192,-59.2 308,-59.2 308,-40.2 192,-40.2"/>
<text text-anchor="start" x="289.4053" y="-46.3" font-family="Helvetica,sans-Serif" font-size="11.00" fill="#000000">2 &gt;</text>
<polygon fill="none" stroke="#000000" stroke-width="2" points="9,-39.2 9,-281.2 309,-281.2 309,-39.2 9,-39.2"/>
</a>
</g>
</g>
<!-- Hospitalizations&#45;&gt;HospitalizationStatuses -->
<g id="edge3" class="edge">
<title>Hospitalizations:w&#45;&gt;HospitalizationStatuses:e</title>
<path fill="none" stroke="#000000" d="M380.8633,-286.5104C354.3175,-266.0885 324.2847,-246.2 308,-246.2"/>
<polygon fill="#000000" stroke="#000000" points="386.0735,-290.6055 390.1387,-298.3794 389.2184,-293.0772 392.3633,-295.549 392.3633,-295.549 392.3633,-295.549 389.2184,-293.0772 394.5879,-292.7186 386.0735,-290.6055 386.0735,-290.6055"/>
<ellipse fill="none" stroke="#000000" cx="383.5576" cy="-288.628" rx="3.2" ry="3.2"/>
</g>
<!-- Patients -->
<g id="node5" class="node">
<title>Patients</title>
<g id="a_node5"><a xlink:href="../../tables/Patients.html" xlink:title="Patients" target="_top">
<polygon fill="#ffffff" stroke="transparent" points="111.5,-303.7 111.5,-364.7 206.5,-364.7 206.5,-303.7 111.5,-303.7"/>
<polygon fill="#f5f5f5" stroke="transparent" points="112,-341.2 112,-364.2 207,-364.2 207,-341.2 112,-341.2"/>
<polygon fill="none" stroke="#000000" points="112,-341.2 112,-364.2 207,-364.2 207,-341.2 112,-341.2"/>
<text text-anchor="start" x="117" y="-349.8" font-family="Helvetica,sans-Serif" font-weight="bold" font-size="11.00" fill="#000000">Patients</text>
<text text-anchor="start" x="172.5219" y="-349.3" font-family="Helvetica,sans-Serif" font-size="11.00" fill="#000000">[table]</text>
<polygon fill="none" stroke="#000000" points="112,-322.2 112,-341.2 207,-341.2 207,-322.2 112,-322.2"/>
<text text-anchor="start" x="115" y="-328.3" font-family="Helvetica,sans-Serif" font-size="11.00" fill="#000000">...</text>
<polygon fill="#ffffff" stroke="transparent" points="112,-303.2 112,-322.2 149,-322.2 149,-303.2 112,-303.2"/>
<polygon fill="none" stroke="#000000" points="112,-303.2 112,-322.2 149,-322.2 149,-303.2 112,-303.2"/>
<text text-anchor="start" x="115" y="-309.3" font-family="Helvetica,sans-Serif" font-size="11.00" fill="#000000"> &#160;</text>
<polygon fill="#ffffff" stroke="transparent" points="149,-303.2 149,-322.2 173,-322.2 173,-303.2 149,-303.2"/>
<polygon fill="none" stroke="#000000" points="149,-303.2 149,-322.2 173,-322.2 173,-303.2 149,-303.2"/>
<text text-anchor="start" x="163.8862" y="-309.3" font-family="Helvetica,sans-Serif" font-size="11.00" fill="#000000"> &#160;</text>
<polygon fill="#ffffff" stroke="transparent" points="173,-303.2 173,-322.2 207,-322.2 207,-303.2 173,-303.2"/>
<polygon fill="none" stroke="#000000" points="173,-303.2 173,-322.2 207,-322.2 207,-303.2 173,-303.2"/>
<text text-anchor="start" x="188.4053" y="-309.3" font-family="Helvetica,sans-Serif" font-size="11.00" fill="#000000">2 &gt;</text>
</a>
</g>
</g>
<!-- Hospitalizations&#45;&gt;Patients -->
<g id="edge4" class="edge">
<title>Hospitalizations:w&#45;&gt;Patients:e</title>
<path fill="none" stroke="#000000" d="M336.4547,-330.815C296.4027,-331.0213 249.4582,-331.2 207,-331.2"/>
<polygon fill="#000000" stroke="#000000" points="342.8778,-330.7808 350.897,-334.338 346.8778,-330.7594 350.8777,-330.7381 350.8777,-330.7381 350.8777,-330.7381 346.8778,-330.7594 350.8585,-327.1381 342.8778,-330.7808 342.8778,-330.7808"/>
<ellipse fill="none" stroke="#000000" cx="339.6779" cy="-330.7979" rx="3.2" ry="3.2"/>
</g>
<!-- HospitalizationStatusHistories -->
<g id="node6" class="node">
<title>HospitalizationStatusHistories</title>
<g id="a_node6"><a xlink:href="../../tables/HospitalizationStatusHistories.html" xlink:title="HospitalizationStatusHistories" target="_top">
<polygon fill="#ffffff" stroke="transparent" points="556,-216.7 556,-277.7 801,-277.7 801,-216.7 556,-216.7"/>
<polygon fill="#f5f5f5" stroke="transparent" points="556.5,-254.2 556.5,-277.2 801.5,-277.2 801.5,-254.2 556.5,-254.2"/>
<polygon fill="none" stroke="#000000" points="556.5,-254.2 556.5,-277.2 801.5,-277.2 801.5,-254.2 556.5,-254.2"/>
<text text-anchor="start" x="561.5" y="-262.8" font-family="Helvetica,sans-Serif" font-weight="bold" font-size="11.00" fill="#000000">HospitalizationStatusHistories</text>
<text text-anchor="start" x="767.0219" y="-262.3" font-family="Helvetica,sans-Serif" font-size="11.00" fill="#000000">[table]</text>
<polygon fill="none" stroke="#000000" points="556.5,-235.2 556.5,-254.2 801.5,-254.2 801.5,-235.2 556.5,-235.2"/>
<text text-anchor="start" x="559.5" y="-241.3" font-family="Helvetica,sans-Serif" font-size="11.00" fill="#000000">...</text>
<polygon fill="#ffffff" stroke="transparent" points="556.5,-216.2 556.5,-235.2 677.5,-235.2 677.5,-216.2 556.5,-216.2"/>
<polygon fill="none" stroke="#000000" points="556.5,-216.2 556.5,-235.2 677.5,-235.2 677.5,-216.2 556.5,-216.2"/>
<text text-anchor="start" x="559.5" y="-222.3" font-family="Helvetica,sans-Serif" font-size="11.00" fill="#000000">&lt; 3</text>
<polygon fill="#ffffff" stroke="transparent" points="677.5,-216.2 677.5,-235.2 739.5,-235.2 739.5,-216.2 677.5,-216.2"/>
<polygon fill="none" stroke="#000000" points="677.5,-216.2 677.5,-235.2 739.5,-235.2 739.5,-216.2 677.5,-216.2"/>
<text text-anchor="start" x="730.3862" y="-222.3" font-family="Helvetica,sans-Serif" font-size="11.00" fill="#000000"> &#160;</text>
<polygon fill="#ffffff" stroke="transparent" points="739.5,-216.2 739.5,-235.2 801.5,-235.2 801.5,-216.2 739.5,-216.2"/>
<polygon fill="none" stroke="#000000" points="739.5,-216.2 739.5,-235.2 801.5,-235.2 801.5,-216.2 739.5,-216.2"/>
<text text-anchor="start" x="792.3862" y="-222.3" font-family="Helvetica,sans-Serif" font-size="11.00" fill="#000000"> &#160;</text>
</a>
</g>
</g>
<!-- HospitalizationStatusHistories&#45;&gt;Hospitalizations -->
<g id="edge6" class="edge">
<title>HospitalizationStatusHistories:w&#45;&gt;Hospitalizations:e</title>
<path fill="none" stroke="#000000" d="M562.2519,-286.3831C557.4373,-288.0096 552.6715,-289.6204 548,-291.2 537.4152,-294.7792 526.2841,-298.548 515.2865,-302.2745"/>
<polygon fill="#000000" stroke="#000000" points="568.3324,-284.3297 577.0637,-285.1809 572.1221,-283.0499 575.9119,-281.7701 575.9119,-281.7701 575.9119,-281.7701 572.1221,-283.0499 574.76,-278.3593 568.3324,-284.3297 568.3324,-284.3297"/>
<ellipse fill="none" stroke="#000000" cx="565.3006" cy="-285.3536" rx="3.2" ry="3.2"/>
</g>
<!-- HospitalizationStatusHistories&#45;&gt;HospitalizationStatuses -->
<g id="edge7" class="edge">
<title>HospitalizationStatusHistories:w&#45;&gt;HospitalizationStatuses:e</title>
<path fill="none" stroke="#000000" d="M532.962,-246.6258C464.6661,-246.4028 382.1585,-246.2 308,-246.2"/>
<polygon fill="#000000" stroke="#000000" points="539.7573,-246.6484 547.7452,-250.2751 543.7573,-246.6617 547.7573,-246.6751 547.7573,-246.6751 547.7573,-246.6751 543.7573,-246.6617 547.7693,-243.0751 539.7573,-246.6484 539.7573,-246.6484"/>
<ellipse fill="none" stroke="#000000" cx="536.5573" cy="-246.6377" rx="3.2" ry="3.2"/>
</g>
<!-- Identity.Users -->
<g id="node7" class="node">
<title>Identity.Users</title>
<g id="a_node7"><a xlink:title="Identity.Users">
<polygon fill="#ffffff" stroke="transparent" points="366,-161.7 366,-222.7 500,-222.7 500,-161.7 366,-161.7"/>
<polygon fill="#f5f5f5" stroke="transparent" points="366,-199.2 366,-222.2 500,-222.2 500,-199.2 366,-199.2"/>
<polygon fill="none" stroke="#000000" points="366,-199.2 366,-222.2 500,-222.2 500,-199.2 366,-199.2"/>
<text text-anchor="start" x="371" y="-207.8" font-family="Helvetica,sans-Serif" font-weight="bold" font-size="11.00" fill="#000000">Identity.Users</text>
<text text-anchor="start" x="465.5219" y="-207.3" font-family="Helvetica,sans-Serif" font-size="11.00" fill="#000000">[table]</text>
<polygon fill="none" stroke="#000000" points="366,-180.2 366,-199.2 500,-199.2 500,-180.2 366,-180.2"/>
<text text-anchor="start" x="369" y="-186.3" font-family="Helvetica,sans-Serif" font-size="11.00" fill="#000000">...</text>
<polygon fill="#ffffff" stroke="transparent" points="366,-161.2 366,-180.2 422,-180.2 422,-161.2 366,-161.2"/>
<polygon fill="none" stroke="#000000" points="366,-161.2 366,-180.2 422,-180.2 422,-161.2 366,-161.2"/>
<text text-anchor="start" x="369" y="-167.3" font-family="Helvetica,sans-Serif" font-size="11.00" fill="#000000"> &#160;</text>
<polygon fill="#ffffff" stroke="transparent" points="422,-161.2 422,-180.2 456,-180.2 456,-161.2 422,-161.2"/>
<polygon fill="none" stroke="#000000" points="422,-161.2 422,-180.2 456,-180.2 456,-161.2 422,-161.2"/>
<text text-anchor="start" x="446.8862" y="-167.3" font-family="Helvetica,sans-Serif" font-size="11.00" fill="#000000"> &#160;</text>
<polygon fill="#ffffff" stroke="transparent" points="456,-161.2 456,-180.2 500,-180.2 500,-161.2 456,-161.2"/>
<polygon fill="none" stroke="#000000" points="456,-161.2 456,-180.2 500,-180.2 500,-161.2 456,-161.2"/>
<text text-anchor="start" x="481.4053" y="-167.3" font-family="Helvetica,sans-Serif" font-size="11.00" fill="#000000">2 &gt;</text>
</a>
</g>
</g>
<!-- HospitalizationStatusHistories&#45;&gt;Identity.Users -->
<g id="edge5" class="edge">
<title>HospitalizationStatusHistories:w&#45;&gt;Identity.Users:e</title>
<path fill="none" stroke="#000000" d="M592.9735,-207.4943C564.0797,-197.3257 531.2225,-189.2 500,-189.2"/>
<polygon fill="#000000" stroke="#000000" points="599.3134,-209.8437 605.5639,-215.9993 603.0641,-211.2337 606.8149,-212.6236 606.8149,-212.6236 606.8149,-212.6236 603.0641,-211.2337 608.0659,-209.248 599.3134,-209.8437 599.3134,-209.8437"/>
<ellipse fill="none" stroke="#000000" cx="596.3128" cy="-208.7317" rx="3.2" ry="3.2"/>
</g>
<!-- Visits -->
<g id="node8" class="node">
<title>Visits</title>
<g id="a_node8"><a xlink:href="../../tables/Visits.html" xlink:title="Visits" target="_top">
<polygon fill="#ffffff" stroke="transparent" points="640.5,-301.7 640.5,-362.7 716.5,-362.7 716.5,-301.7 640.5,-301.7"/>
<polygon fill="#f5f5f5" stroke="transparent" points="640.5,-339.2 640.5,-362.2 716.5,-362.2 716.5,-339.2 640.5,-339.2"/>
<polygon fill="none" stroke="#000000" points="640.5,-339.2 640.5,-362.2 716.5,-362.2 716.5,-339.2 640.5,-339.2"/>
<text text-anchor="start" x="645.5" y="-347.8" font-family="Helvetica,sans-Serif" font-weight="bold" font-size="11.00" fill="#000000">Visits</text>
<text text-anchor="start" x="682.0219" y="-347.3" font-family="Helvetica,sans-Serif" font-size="11.00" fill="#000000">[table]</text>
<polygon fill="none" stroke="#000000" points="640.5,-320.2 640.5,-339.2 716.5,-339.2 716.5,-320.2 640.5,-320.2"/>
<text text-anchor="start" x="643.5" y="-326.3" font-family="Helvetica,sans-Serif" font-size="11.00" fill="#000000">...</text>
<polygon fill="#ffffff" stroke="transparent" points="640.5,-301.2 640.5,-320.2 672.5,-320.2 672.5,-301.2 640.5,-301.2"/>
<polygon fill="none" stroke="#000000" points="640.5,-301.2 640.5,-320.2 672.5,-320.2 672.5,-301.2 640.5,-301.2"/>
<text text-anchor="start" x="643.5" y="-307.3" font-family="Helvetica,sans-Serif" font-size="11.00" fill="#000000">&lt; 2</text>
<polygon fill="#ffffff" stroke="transparent" points="672.5,-301.2 672.5,-320.2 689.5,-320.2 689.5,-301.2 672.5,-301.2"/>
<polygon fill="none" stroke="#000000" points="672.5,-301.2 672.5,-320.2 689.5,-320.2 689.5,-301.2 672.5,-301.2"/>
<text text-anchor="start" x="680.3862" y="-307.3" font-family="Helvetica,sans-Serif" font-size="11.00" fill="#000000"> &#160;</text>
<polygon fill="#ffffff" stroke="transparent" points="689.5,-301.2 689.5,-320.2 716.5,-320.2 716.5,-301.2 689.5,-301.2"/>
<polygon fill="none" stroke="#000000" points="689.5,-301.2 689.5,-320.2 716.5,-320.2 716.5,-301.2 689.5,-301.2"/>
<text text-anchor="start" x="697.9053" y="-307.3" font-family="Helvetica,sans-Serif" font-size="11.00" fill="#000000">2 &gt;</text>
</a>
</g>
</g>
<!-- Visits&#45;&gt;Hospitalizations -->
<g id="edge8" class="edge">
<title>Visits:w&#45;&gt;Hospitalizations:e</title>
<path fill="none" stroke="#000000" d="M625.8286,-329.208C588.6099,-329.2472 548.9274,-329.426 515.2967,-329.6212"/>
<polygon fill="#000000" stroke="#000000" points="632.5,-329.2044 640.502,-332.8 636.5,-329.2022 640.5,-329.2 640.5,-329.2 640.5,-329.2 636.5,-329.2022 640.498,-325.6 632.5,-329.2044 632.5,-329.2044"/>
<ellipse fill="none" stroke="#000000" cx="629.3" cy="-329.2061" rx="3.2" ry="3.2"/>
</g>
</g>
</svg>
