<?xml version="1.0" encoding="UTF-8" standalone="no"?>
<!DOCTYPE svg PUBLIC "-//W3C//DTD SVG 1.1//EN"
 "http://www.w3.org/Graphics/SVG/1.1/DTD/svg11.dtd">
<!-- Generated by graphviz version 2.40.1 (20161225.0304)
 -->
<!-- Title: twoDegreesRelationshipsDiagram Pages: 1 -->
<svg width="945pt" height="486pt"
 viewBox="0.00 0.00 945.00 485.86" xmlns="http://www.w3.org/2000/svg" xmlns:xlink="http://www.w3.org/1999/xlink">
<g id="graph0" class="graph" transform="scale(1 1) rotate(0) translate(4 481.8634)">
<title>twoDegreesRelationshipsDiagram</title>
<polygon fill="#ffffff" stroke="transparent" points="-4,4 -4,-481.8634 941,-481.8634 941,4 -4,4"/>
<text text-anchor="middle" x="72.4936" y="-7.3" font-family="Helvetica,sans-Serif" font-size="11.00" fill="#000000">Generated by SchemaSpy</text>
<!-- HospitalizationInsurances -->
<g id="node1" class="node">
<title>HospitalizationInsurances</title>
<g id="a_node1"><a xlink:href="../../tables/HospitalizationInsurances.html" xlink:title="HospitalizationInsurances" target="_top">
<polygon fill="#ffffff" stroke="transparent" points="503,-412.8634 503,-473.8634 717,-473.8634 717,-412.8634 503,-412.8634"/>
<polygon fill="#f5f5f5" stroke="transparent" points="503,-450.3634 503,-473.3634 717,-473.3634 717,-450.3634 503,-450.3634"/>
<polygon fill="none" stroke="#000000" points="503,-450.3634 503,-473.3634 717,-473.3634 717,-450.3634 503,-450.3634"/>
<text text-anchor="start" x="508" y="-458.9634" font-family="Helvetica,sans-Serif" font-weight="bold" font-size="11.00" fill="#000000">HospitalizationInsurances</text>
<text text-anchor="start" x="682.5219" y="-458.4634" font-family="Helvetica,sans-Serif" font-size="11.00" fill="#000000">[table]</text>
<polygon fill="none" stroke="#000000" points="503,-431.3634 503,-450.3634 717,-450.3634 717,-431.3634 503,-431.3634"/>
<text text-anchor="start" x="506" y="-437.4634" font-family="Helvetica,sans-Serif" font-size="11.00" fill="#000000">...</text>
<polygon fill="#ffffff" stroke="transparent" points="503,-412.3634 503,-431.3634 608,-431.3634 608,-412.3634 503,-412.3634"/>
<polygon fill="none" stroke="#000000" points="503,-412.3634 503,-431.3634 608,-431.3634 608,-412.3634 503,-412.3634"/>
<text text-anchor="start" x="506" y="-418.4634" font-family="Helvetica,sans-Serif" font-size="11.00" fill="#000000">&lt; 2</text>
<polygon fill="#ffffff" stroke="transparent" points="608,-412.3634 608,-431.3634 662,-431.3634 662,-412.3634 608,-412.3634"/>
<polygon fill="none" stroke="#000000" points="608,-412.3634 608,-431.3634 662,-431.3634 662,-412.3634 608,-412.3634"/>
<text text-anchor="start" x="652.8862" y="-418.4634" font-family="Helvetica,sans-Serif" font-size="11.00" fill="#000000"> &#160;</text>
<polygon fill="#ffffff" stroke="transparent" points="662,-412.3634 662,-431.3634 717,-431.3634 717,-412.3634 662,-412.3634"/>
<polygon fill="none" stroke="#000000" points="662,-412.3634 662,-431.3634 717,-431.3634 717,-412.3634 662,-412.3634"/>
<text text-anchor="start" x="707.8862" y="-418.4634" font-family="Helvetica,sans-Serif" font-size="11.00" fill="#000000"> &#160;</text>
</a>
</g>
</g>
<!-- Hospitalizations -->
<g id="node2" class="node">
<title>Hospitalizations</title>
<g id="a_node2"><a xlink:href="../../tables/Hospitalizations.html" xlink:title="Hospitalizations" target="_top">
<polygon fill="#ffffff" stroke="transparent" points="257,-323.8634 257,-384.8634 405,-384.8634 405,-323.8634 257,-323.8634"/>
<polygon fill="#f5f5f5" stroke="transparent" points="257,-361.3634 257,-384.3634 405,-384.3634 405,-361.3634 257,-361.3634"/>
<polygon fill="none" stroke="#000000" points="257,-361.3634 257,-384.3634 405,-384.3634 405,-361.3634 257,-361.3634"/>
<text text-anchor="start" x="262" y="-369.9634" font-family="Helvetica,sans-Serif" font-weight="bold" font-size="11.00" fill="#000000">Hospitalizations</text>
<text text-anchor="start" x="370.5219" y="-369.4634" font-family="Helvetica,sans-Serif" font-size="11.00" fill="#000000">[table]</text>
<polygon fill="none" stroke="#000000" points="257,-342.3634 257,-361.3634 405,-361.3634 405,-342.3634 257,-342.3634"/>
<text text-anchor="start" x="260" y="-348.4634" font-family="Helvetica,sans-Serif" font-size="11.00" fill="#000000">...</text>
<polygon fill="#ffffff" stroke="transparent" points="257,-323.3634 257,-342.3634 325,-342.3634 325,-323.3634 257,-323.3634"/>
<polygon fill="none" stroke="#000000" points="257,-323.3634 257,-342.3634 325,-342.3634 325,-323.3634 257,-323.3634"/>
<text text-anchor="start" x="260" y="-329.4634" font-family="Helvetica,sans-Serif" font-size="11.00" fill="#000000">&lt; 3</text>
<polygon fill="#ffffff" stroke="transparent" points="325,-323.3634 325,-342.3634 360,-342.3634 360,-323.3634 325,-323.3634"/>
<polygon fill="none" stroke="#000000" points="325,-323.3634 325,-342.3634 360,-342.3634 360,-323.3634 325,-323.3634"/>
<text text-anchor="start" x="350.8862" y="-329.4634" font-family="Helvetica,sans-Serif" font-size="11.00" fill="#000000"> &#160;</text>
<polygon fill="#ffffff" stroke="transparent" points="360,-323.3634 360,-342.3634 405,-342.3634 405,-323.3634 360,-323.3634"/>
<polygon fill="none" stroke="#000000" points="360,-323.3634 360,-342.3634 405,-342.3634 405,-323.3634 360,-323.3634"/>
<text text-anchor="start" x="386.4053" y="-329.4634" font-family="Helvetica,sans-Serif" font-size="11.00" fill="#000000">3 &gt;</text>
</a>
</g>
</g>
<!-- HospitalizationInsurances&#45;&gt;Hospitalizations -->
<g id="edge1" class="edge">
<title>HospitalizationInsurances:w&#45;&gt;Hospitalizations:e</title>
<path fill="none" stroke="#000000" d="M488.5893,-439.5783C445.2322,-434.9398 402.8721,-410.5856 373.0083,-389.095"/>
<polygon fill="#000000" stroke="#000000" points="495.0118,-439.9282 502.8042,-443.958 499.0059,-440.1458 503,-440.3634 503,-440.3634 503,-440.3634 499.0059,-440.1458 503.1958,-436.7687 495.0118,-439.9282 495.0118,-439.9282"/>
<ellipse fill="none" stroke="#000000" cx="491.8166" cy="-439.7541" rx="3.2" ry="3.2"/>
</g>
<!-- Facilities -->
<g id="node3" class="node">
<title>Facilities</title>
<g id="a_node3"><a xlink:href="../../tables/Facilities.html" xlink:title="Facilities" target="_top">
<polygon fill="#ffffff" stroke="transparent" points="58.5,-405.8634 58.5,-466.8634 157.5,-466.8634 157.5,-405.8634 58.5,-405.8634"/>
<polygon fill="#f5f5f5" stroke="transparent" points="59,-443.3634 59,-466.3634 158,-466.3634 158,-443.3634 59,-443.3634"/>
<polygon fill="none" stroke="#000000" points="59,-443.3634 59,-466.3634 158,-466.3634 158,-443.3634 59,-443.3634"/>
<text text-anchor="start" x="64" y="-451.9634" font-family="Helvetica,sans-Serif" font-weight="bold" font-size="11.00" fill="#000000">Facilities</text>
<text text-anchor="start" x="123.5219" y="-451.4634" font-family="Helvetica,sans-Serif" font-size="11.00" fill="#000000">[table]</text>
<polygon fill="none" stroke="#000000" points="59,-424.3634 59,-443.3634 158,-443.3634 158,-424.3634 59,-424.3634"/>
<text text-anchor="start" x="62" y="-430.4634" font-family="Helvetica,sans-Serif" font-size="11.00" fill="#000000">...</text>
<polygon fill="#ffffff" stroke="transparent" points="59,-405.3634 59,-424.3634 98,-424.3634 98,-405.3634 59,-405.3634"/>
<polygon fill="none" stroke="#000000" points="59,-405.3634 59,-424.3634 98,-424.3634 98,-405.3634 59,-405.3634"/>
<text text-anchor="start" x="62" y="-411.4634" font-family="Helvetica,sans-Serif" font-size="11.00" fill="#000000"> &#160;</text>
<polygon fill="#ffffff" stroke="transparent" points="98,-405.3634 98,-424.3634 123,-424.3634 123,-405.3634 98,-405.3634"/>
<polygon fill="none" stroke="#000000" points="98,-405.3634 98,-424.3634 123,-424.3634 123,-405.3634 98,-405.3634"/>
<text text-anchor="start" x="113.8862" y="-411.4634" font-family="Helvetica,sans-Serif" font-size="11.00" fill="#000000"> &#160;</text>
<polygon fill="#ffffff" stroke="transparent" points="123,-405.3634 123,-424.3634 158,-424.3634 158,-405.3634 123,-405.3634"/>
<polygon fill="none" stroke="#000000" points="123,-405.3634 123,-424.3634 158,-424.3634 158,-405.3634 123,-405.3634"/>
<text text-anchor="start" x="139.4053" y="-411.4634" font-family="Helvetica,sans-Serif" font-size="11.00" fill="#000000">2 &gt;</text>
</a>
</g>
</g>
<!-- Hospitalizations&#45;&gt;Facilities -->
<g id="edge2" class="edge">
<title>Hospitalizations:w&#45;&gt;Facilities:e</title>
<path fill="none" stroke="#000000" d="M271.3184,-396.764C239.2774,-415.5013 198.1924,-433.3634 158,-433.3634"/>
<polygon fill="#000000" stroke="#000000" points="277.1918,-393.1806 285.8961,-392.0871 280.6064,-391.0973 284.0211,-389.0139 284.0211,-389.0139 284.0211,-389.0139 280.6064,-391.0973 282.146,-385.9407 277.1918,-393.1806 277.1918,-393.1806"/>
<ellipse fill="none" stroke="#000000" cx="274.4601" cy="-394.8473" rx="3.2" ry="3.2"/>
</g>
<!-- HospitalizationStatuses -->
<g id="node4" class="node">
<title>HospitalizationStatuses</title>
<g id="a_node4"><a xlink:href="../../tables/HospitalizationStatuses.html" xlink:title="HospitalizationStatuses" target="_top">
<polygon fill="#ffffff" stroke="transparent" points="8,-229.8634 8,-290.8634 208,-290.8634 208,-229.8634 8,-229.8634"/>
<polygon fill="#f5f5f5" stroke="transparent" points="8,-267.3634 8,-290.3634 208,-290.3634 208,-267.3634 8,-267.3634"/>
<polygon fill="none" stroke="#000000" points="8,-267.3634 8,-290.3634 208,-290.3634 208,-267.3634 8,-267.3634"/>
<text text-anchor="start" x="13" y="-275.9634" font-family="Helvetica,sans-Serif" font-weight="bold" font-size="11.00" fill="#000000">HospitalizationStatuses</text>
<text text-anchor="start" x="173.5219" y="-275.4634" font-family="Helvetica,sans-Serif" font-size="11.00" fill="#000000">[table]</text>
<polygon fill="none" stroke="#000000" points="8,-248.3634 8,-267.3634 208,-267.3634 208,-248.3634 8,-248.3634"/>
<text text-anchor="start" x="11" y="-254.4634" font-family="Helvetica,sans-Serif" font-size="11.00" fill="#000000">...</text>
<polygon fill="#ffffff" stroke="transparent" points="8,-229.3634 8,-248.3634 97,-248.3634 97,-229.3634 8,-229.3634"/>
<polygon fill="none" stroke="#000000" points="8,-229.3634 8,-248.3634 97,-248.3634 97,-229.3634 8,-229.3634"/>
<text text-anchor="start" x="11" y="-235.4634" font-family="Helvetica,sans-Serif" font-size="11.00" fill="#000000"> &#160;</text>
<polygon fill="#ffffff" stroke="transparent" points="97,-229.3634 97,-248.3634 148,-248.3634 148,-229.3634 97,-229.3634"/>
<polygon fill="none" stroke="#000000" points="97,-229.3634 97,-248.3634 148,-248.3634 148,-229.3634 97,-229.3634"/>
<text text-anchor="start" x="138.8862" y="-235.4634" font-family="Helvetica,sans-Serif" font-size="11.00" fill="#000000"> &#160;</text>
<polygon fill="#ffffff" stroke="transparent" points="148,-229.3634 148,-248.3634 208,-248.3634 208,-229.3634 148,-229.3634"/>
<polygon fill="none" stroke="#000000" points="148,-229.3634 148,-248.3634 208,-248.3634 208,-229.3634 148,-229.3634"/>
<text text-anchor="start" x="189.4053" y="-235.4634" font-family="Helvetica,sans-Serif" font-size="11.00" fill="#000000">2 &gt;</text>
</a>
</g>
</g>
<!-- Hospitalizations&#45;&gt;HospitalizationStatuses -->
<g id="edge3" class="edge">
<title>Hospitalizations:w&#45;&gt;HospitalizationStatuses:e</title>
<path fill="none" stroke="#000000" d="M235.2034,-313.9827C220.1199,-307.6247 204.6452,-301.1017 189.9134,-294.8919"/>
<polygon fill="#000000" stroke="#000000" points="241.5412,-316.6542 247.5147,-323.079 245.2271,-318.208 248.9131,-319.7617 248.9131,-319.7617 248.9131,-319.7617 245.2271,-318.208 250.3114,-316.4444 241.5412,-316.6542 241.5412,-316.6542"/>
<ellipse fill="none" stroke="#000000" cx="238.5925" cy="-315.4113" rx="3.2" ry="3.2"/>
</g>
<!-- Patients -->
<g id="node5" class="node">
<title>Patients</title>
<g id="a_node5"><a xlink:href="../../tables/Patients.html" xlink:title="Patients" target="_top">
<polygon fill="#ffffff" stroke="transparent" points="60.5,-323.8634 60.5,-384.8634 155.5,-384.8634 155.5,-323.8634 60.5,-323.8634"/>
<polygon fill="#f5f5f5" stroke="transparent" points="61,-361.3634 61,-384.3634 156,-384.3634 156,-361.3634 61,-361.3634"/>
<polygon fill="none" stroke="#000000" points="61,-361.3634 61,-384.3634 156,-384.3634 156,-361.3634 61,-361.3634"/>
<text text-anchor="start" x="66" y="-369.9634" font-family="Helvetica,sans-Serif" font-weight="bold" font-size="11.00" fill="#000000">Patients</text>
<text text-anchor="start" x="121.5219" y="-369.4634" font-family="Helvetica,sans-Serif" font-size="11.00" fill="#000000">[table]</text>
<polygon fill="none" stroke="#000000" points="61,-342.3634 61,-361.3634 156,-361.3634 156,-342.3634 61,-342.3634"/>
<text text-anchor="start" x="64" y="-348.4634" font-family="Helvetica,sans-Serif" font-size="11.00" fill="#000000">...</text>
<polygon fill="#ffffff" stroke="transparent" points="61,-323.3634 61,-342.3634 98,-342.3634 98,-323.3634 61,-323.3634"/>
<polygon fill="none" stroke="#000000" points="61,-323.3634 61,-342.3634 98,-342.3634 98,-323.3634 61,-323.3634"/>
<text text-anchor="start" x="64" y="-329.4634" font-family="Helvetica,sans-Serif" font-size="11.00" fill="#000000"> &#160;</text>
<polygon fill="#ffffff" stroke="transparent" points="98,-323.3634 98,-342.3634 122,-342.3634 122,-323.3634 98,-323.3634"/>
<polygon fill="none" stroke="#000000" points="98,-323.3634 98,-342.3634 122,-342.3634 122,-323.3634 98,-323.3634"/>
<text text-anchor="start" x="112.8862" y="-329.4634" font-family="Helvetica,sans-Serif" font-size="11.00" fill="#000000"> &#160;</text>
<polygon fill="#ffffff" stroke="transparent" points="122,-323.3634 122,-342.3634 156,-342.3634 156,-323.3634 122,-323.3634"/>
<polygon fill="none" stroke="#000000" points="122,-323.3634 122,-342.3634 156,-342.3634 156,-323.3634 122,-323.3634"/>
<text text-anchor="start" x="137.4053" y="-329.4634" font-family="Helvetica,sans-Serif" font-size="11.00" fill="#000000">2 &gt;</text>
</a>
</g>
</g>
<!-- Hospitalizations&#45;&gt;Patients -->
<g id="edge4" class="edge">
<title>Hospitalizations:w&#45;&gt;Patients:e</title>
<path fill="none" stroke="#000000" d="M233.9728,-352.1076C208.5985,-351.6801 181.2741,-351.3634 156,-351.3634"/>
<polygon fill="#000000" stroke="#000000" points="240.6585,-352.2273 248.5927,-355.9701 244.6578,-352.299 248.6572,-352.3707 248.6572,-352.3707 248.6572,-352.3707 244.6578,-352.299 248.7217,-348.7712 240.6585,-352.2273 240.6585,-352.2273"/>
<ellipse fill="none" stroke="#000000" cx="237.459" cy="-352.17" rx="3.2" ry="3.2"/>
</g>
<!-- HospitalizationStatusHistories -->
<g id="node6" class="node">
<title>HospitalizationStatusHistories</title>
<g id="a_node6"><a xlink:href="../../tables/HospitalizationStatusHistories.html" xlink:title="HospitalizationStatusHistories" target="_top">
<polygon fill="#ffffff" stroke="transparent" points="454,-87.3634 454,-309.3634 766,-309.3634 766,-87.3634 454,-87.3634"/>
<polygon fill="#f5f5f5" stroke="transparent" points="456,-284.3634 456,-307.3634 764,-307.3634 764,-284.3634 456,-284.3634"/>
<polygon fill="none" stroke="#000000" points="456,-284.3634 456,-307.3634 764,-307.3634 764,-284.3634 456,-284.3634"/>
<text text-anchor="start" x="461" y="-292.9634" font-family="Helvetica,sans-Serif" font-weight="bold" font-size="11.00" fill="#000000">HospitalizationStatusHistories</text>
<text text-anchor="start" x="729.0437" y="-292.4634" font-family="Helvetica,sans-Serif" font-size="11.00" fill="#000000">[table]</text>
<polygon fill="none" stroke="#000000" points="456,-262.3634 456,-284.3634 683,-284.3634 683,-262.3634 456,-262.3634"/>
<image xlink:href="../../images/primaryKeys.png" width="11px" height="12px" preserveAspectRatio="xMinYMin meet" x="461" y="-279.363"/>
<text text-anchor="start" x="476" y="-269.4634" font-family="Helvetica,sans-Serif" font-size="11.00" fill="#000000">Id</text>
<polygon fill="none" stroke="#000000" points="683,-262.3634 683,-284.3634 764,-284.3634 764,-262.3634 683,-262.3634"/>
<text text-anchor="start" x="686" y="-270.0634" font-family="Helvetica,sans-Serif" font-size="11.00" fill="#000000">int identity[4]</text>
<polygon fill="#ffffff" stroke="transparent" points="456,-240.3634 456,-262.3634 683,-262.3634 683,-240.3634 456,-240.3634"/>
<polygon fill="none" stroke="#000000" points="456,-240.3634 456,-262.3634 683,-262.3634 683,-240.3634 456,-240.3634"/>
<image xlink:href="../../images/foreignKeys.png" width="11px" height="12px" preserveAspectRatio="xMinYMin meet" x="461" y="-257.363"/>
<text text-anchor="start" x="476" y="-247.4634" font-family="Helvetica,sans-Serif" font-size="11.00" fill="#000000">HospitalizationId</text>
<polygon fill="none" stroke="#000000" points="683,-240.3634 683,-262.3634 764,-262.3634 764,-240.3634 683,-240.3634"/>
<text text-anchor="start" x="686" y="-248.0634" font-family="Helvetica,sans-Serif" font-size="11.00" fill="#000000">int[4]</text>
<polygon fill="#ffffff" stroke="transparent" points="456,-218.3634 456,-240.3634 683,-240.3634 683,-218.3634 456,-218.3634"/>
<polygon fill="none" stroke="#000000" points="456,-218.3634 456,-240.3634 683,-240.3634 683,-218.3634 456,-218.3634"/>
<image xlink:href="../../images/foreignKeys.png" width="11px" height="12px" preserveAspectRatio="xMinYMin meet" x="461" y="-235.363"/>
<text text-anchor="start" x="476" y="-225.4634" font-family="Helvetica,sans-Serif" font-size="11.00" fill="#000000">NewStatusId</text>
<polygon fill="none" stroke="#000000" points="683,-218.3634 683,-240.3634 764,-240.3634 764,-218.3634 683,-218.3634"/>
<text text-anchor="start" x="686" y="-226.0634" font-family="Helvetica,sans-Serif" font-size="11.00" fill="#000000">int[4]</text>
<polygon fill="#ffffff" stroke="transparent" points="456,-196.3634 456,-218.3634 683,-218.3634 683,-196.3634 456,-196.3634"/>
<polygon fill="none" stroke="#000000" points="456,-196.3634 456,-218.3634 683,-218.3634 683,-196.3634 456,-196.3634"/>
<text text-anchor="start" x="476" y="-203.4634" font-family="Helvetica,sans-Serif" font-size="11.00" fill="#000000">ChangedAt</text>
<polygon fill="none" stroke="#000000" points="683,-196.3634 683,-218.3634 764,-218.3634 764,-196.3634 683,-196.3634"/>
<text text-anchor="start" x="685.5968" y="-204.0634" font-family="Helvetica,sans-Serif" font-size="11.00" fill="#000000">datetime2[16,7]</text>
<polygon fill="#ffffff" stroke="transparent" points="456,-174.3634 456,-196.3634 683,-196.3634 683,-174.3634 456,-174.3634"/>
<polygon fill="none" stroke="#000000" points="456,-174.3634 456,-196.3634 683,-196.3634 683,-174.3634 456,-174.3634"/>
<image xlink:href="../../images/foreignKeys.png" width="11px" height="12px" preserveAspectRatio="xMinYMin meet" x="461" y="-191.363"/>
<text text-anchor="start" x="476" y="-181.4634" font-family="Helvetica,sans-Serif" font-size="11.00" fill="#000000">ChangedByUserId</text>
<polygon fill="none" stroke="#000000" points="683,-174.3634 683,-196.3634 764,-196.3634 764,-174.3634 683,-174.3634"/>
<text text-anchor="start" x="686" y="-182.0634" font-family="Helvetica,sans-Serif" font-size="11.00" fill="#000000">int[4]</text>
<polygon fill="none" stroke="#000000" points="456,-152.3634 456,-174.3634 683,-174.3634 683,-152.3634 456,-152.3634"/>
<text text-anchor="start" x="476" y="-159.4634" font-family="Helvetica,sans-Serif" font-size="11.00" fill="#000000">CreatedAtUtc</text>
<polygon fill="none" stroke="#000000" points="683,-152.3634 683,-174.3634 764,-174.3634 764,-152.3634 683,-152.3634"/>
<text text-anchor="start" x="685.5968" y="-160.0634" font-family="Helvetica,sans-Serif" font-size="11.00" fill="#000000">datetime2[16,7]</text>
<polygon fill="none" stroke="#000000" points="456,-130.3634 456,-152.3634 683,-152.3634 683,-130.3634 456,-130.3634"/>
<text text-anchor="start" x="476" y="-137.4634" font-family="Helvetica,sans-Serif" font-size="11.00" fill="#000000">UpdatedAtUtc</text>
<polygon fill="none" stroke="#000000" points="683,-130.3634 683,-152.3634 764,-152.3634 764,-130.3634 683,-130.3634"/>
<text text-anchor="start" x="685.5968" y="-138.0634" font-family="Helvetica,sans-Serif" font-size="11.00" fill="#000000">datetime2[16,7]</text>
<polygon fill="none" stroke="#000000" points="456,-108.3634 456,-130.3634 683,-130.3634 683,-108.3634 456,-108.3634"/>
<text text-anchor="start" x="476" y="-115.4634" font-family="Helvetica,sans-Serif" font-size="11.00" fill="#000000">RowVersion</text>
<polygon fill="none" stroke="#000000" points="683,-108.3634 683,-130.3634 764,-130.3634 764,-108.3634 683,-108.3634"/>
<text text-anchor="start" x="686" y="-116.0634" font-family="Helvetica,sans-Serif" font-size="11.00" fill="#000000">timestamp[8]</text>
<polygon fill="#ffffff" stroke="transparent" points="456,-89.3634 456,-108.3634 574,-108.3634 574,-89.3634 456,-89.3634"/>
<polygon fill="none" stroke="#000000" points="456,-89.3634 456,-108.3634 574,-108.3634 574,-89.3634 456,-89.3634"/>
<text text-anchor="start" x="459" y="-95.4634" font-family="Helvetica,sans-Serif" font-size="11.00" fill="#000000">&lt; 3</text>
<polygon fill="#ffffff" stroke="transparent" points="574,-89.3634 574,-108.3634 683,-108.3634 683,-89.3634 574,-89.3634"/>
<polygon fill="none" stroke="#000000" points="574,-89.3634 574,-108.3634 683,-108.3634 683,-89.3634 574,-89.3634"/>
<text text-anchor="start" x="673.8862" y="-95.4634" font-family="Helvetica,sans-Serif" font-size="11.00" fill="#000000"> &#160;</text>
<polygon fill="#ffffff" stroke="transparent" points="683,-89.3634 683,-108.3634 764,-108.3634 764,-89.3634 683,-89.3634"/>
<polygon fill="none" stroke="#000000" points="683,-89.3634 683,-108.3634 764,-108.3634 764,-89.3634 683,-89.3634"/>
<text text-anchor="start" x="745.4053" y="-95.4634" font-family="Helvetica,sans-Serif" font-size="11.00" fill="#000000">0 &gt;</text>
<polygon fill="none" stroke="#000000" stroke-width="2" points="455,-88.3634 455,-308.3634 765,-308.3634 765,-88.3634 455,-88.3634"/>
</a>
</g>
</g>
<!-- HospitalizationStatusHistories&#45;&gt;Hospitalizations -->
<g id="edge6" class="edge">
<title>HospitalizationStatusHistories:w&#45;&gt;Hospitalizations:e</title>
<path fill="none" stroke="#000000" d="M441.3287,-252.7769C403.8196,-259.9745 372.5782,-293.2464 353.027,-319.7793"/>
<polygon fill="#000000" stroke="#000000" points="448.0369,-252.1306 456.3453,-254.9468 452.0184,-251.747 456,-251.3634 456,-251.3634 456,-251.3634 452.0184,-251.747 455.6547,-247.78 448.0369,-252.1306 448.0369,-252.1306"/>
<ellipse fill="none" stroke="#000000" cx="444.8516" cy="-252.4375" rx="3.2" ry="3.2"/>
</g>
<!-- HospitalizationStatusHistories&#45;&gt;HospitalizationStatuses -->
<g id="edge7" class="edge">
<title>HospitalizationStatusHistories:w&#45;&gt;HospitalizationStatuses:e</title>
<path fill="none" stroke="#000000" d="M441.2706,-229.4531C364.5903,-230.3716 280.7392,-238.1852 216.3273,-245.7258"/>
<polygon fill="#000000" stroke="#000000" points="448.0001,-229.4122 456.022,-232.9633 452.0001,-229.3878 456,-229.3634 456,-229.3634 456,-229.3634 452.0001,-229.3878 455.978,-225.7634 448.0001,-229.4122 448.0001,-229.4122"/>
<ellipse fill="none" stroke="#000000" cx="444.8002" cy="-229.4317" rx="3.2" ry="3.2"/>
</g>
<!-- Identity.Users -->
<g id="node7" class="node">
<title>Identity.Users</title>
<g id="a_node7"><a xlink:title="Identity.Users">
<polygon fill="#ffffff" stroke="transparent" points="264,-94.8634 264,-155.8634 398,-155.8634 398,-94.8634 264,-94.8634"/>
<polygon fill="#f5f5f5" stroke="transparent" points="264,-132.3634 264,-155.3634 398,-155.3634 398,-132.3634 264,-132.3634"/>
<polygon fill="none" stroke="#000000" points="264,-132.3634 264,-155.3634 398,-155.3634 398,-132.3634 264,-132.3634"/>
<text text-anchor="start" x="269" y="-140.9634" font-family="Helvetica,sans-Serif" font-weight="bold" font-size="11.00" fill="#000000">Identity.Users</text>
<text text-anchor="start" x="363.5219" y="-140.4634" font-family="Helvetica,sans-Serif" font-size="11.00" fill="#000000">[table]</text>
<polygon fill="none" stroke="#000000" points="264,-113.3634 264,-132.3634 398,-132.3634 398,-113.3634 264,-113.3634"/>
<text text-anchor="start" x="267" y="-119.4634" font-family="Helvetica,sans-Serif" font-size="11.00" fill="#000000">...</text>
<polygon fill="#ffffff" stroke="transparent" points="264,-94.3634 264,-113.3634 320,-113.3634 320,-94.3634 264,-94.3634"/>
<polygon fill="none" stroke="#000000" points="264,-94.3634 264,-113.3634 320,-113.3634 320,-94.3634 264,-94.3634"/>
<text text-anchor="start" x="267" y="-100.4634" font-family="Helvetica,sans-Serif" font-size="11.00" fill="#000000"> &#160;</text>
<polygon fill="#ffffff" stroke="transparent" points="320,-94.3634 320,-113.3634 354,-113.3634 354,-94.3634 320,-94.3634"/>
<polygon fill="none" stroke="#000000" points="320,-94.3634 320,-113.3634 354,-113.3634 354,-94.3634 320,-94.3634"/>
<text text-anchor="start" x="344.8862" y="-100.4634" font-family="Helvetica,sans-Serif" font-size="11.00" fill="#000000"> &#160;</text>
<polygon fill="#ffffff" stroke="transparent" points="354,-94.3634 354,-113.3634 398,-113.3634 398,-94.3634 354,-94.3634"/>
<polygon fill="none" stroke="#000000" points="354,-94.3634 354,-113.3634 398,-113.3634 398,-94.3634 354,-94.3634"/>
<text text-anchor="start" x="379.4053" y="-100.4634" font-family="Helvetica,sans-Serif" font-size="11.00" fill="#000000">2 &gt;</text>
</a>
</g>
</g>
<!-- HospitalizationStatusHistories&#45;&gt;Identity.Users -->
<g id="edge5" class="edge">
<title>HospitalizationStatusHistories:w&#45;&gt;Identity.Users:e</title>
<path fill="none" stroke="#000000" d="M441.401,-184.3001C418.6323,-181.0687 396.3285,-170.911 377.7953,-159.918"/>
<polygon fill="#000000" stroke="#000000" points="448.0211,-184.7822 455.7385,-188.9538 452.0106,-185.0728 456,-185.3634 456,-185.3634 456,-185.3634 452.0106,-185.0728 456.2615,-181.7729 448.0211,-184.7822 448.0211,-184.7822"/>
<ellipse fill="none" stroke="#000000" cx="444.8296" cy="-184.5497" rx="3.2" ry="3.2"/>
</g>
<!-- VisitEvents -->
<g id="node8" class="node">
<title>VisitEvents</title>
<g id="a_node8"><a xlink:href="../../tables/VisitEvents.html" xlink:title="VisitEvents" target="_top">
<polygon fill="#ffffff" stroke="transparent" points="815,-182.8634 815,-243.8634 929,-243.8634 929,-182.8634 815,-182.8634"/>
<polygon fill="#f5f5f5" stroke="transparent" points="815,-220.3634 815,-243.3634 929,-243.3634 929,-220.3634 815,-220.3634"/>
<polygon fill="none" stroke="#000000" points="815,-220.3634 815,-243.3634 929,-243.3634 929,-220.3634 815,-220.3634"/>
<text text-anchor="start" x="820" y="-228.9634" font-family="Helvetica,sans-Serif" font-weight="bold" font-size="11.00" fill="#000000">VisitEvents</text>
<text text-anchor="start" x="894.5219" y="-228.4634" font-family="Helvetica,sans-Serif" font-size="11.00" fill="#000000">[table]</text>
<polygon fill="none" stroke="#000000" points="815,-201.3634 815,-220.3634 929,-220.3634 929,-201.3634 815,-201.3634"/>
<text text-anchor="start" x="818" y="-207.4634" font-family="Helvetica,sans-Serif" font-size="11.00" fill="#000000">...</text>
<polygon fill="#ffffff" stroke="transparent" points="815,-182.3634 815,-201.3634 870,-201.3634 870,-182.3634 815,-182.3634"/>
<polygon fill="none" stroke="#000000" points="815,-182.3634 815,-201.3634 870,-201.3634 870,-182.3634 815,-182.3634"/>
<text text-anchor="start" x="818" y="-188.4634" font-family="Helvetica,sans-Serif" font-size="11.00" fill="#000000">&lt; 4</text>
<polygon fill="#ffffff" stroke="transparent" points="870,-182.3634 870,-201.3634 899,-201.3634 899,-182.3634 870,-182.3634"/>
<polygon fill="none" stroke="#000000" points="870,-182.3634 870,-201.3634 899,-201.3634 899,-182.3634 870,-182.3634"/>
<text text-anchor="start" x="889.8862" y="-188.4634" font-family="Helvetica,sans-Serif" font-size="11.00" fill="#000000"> &#160;</text>
<polygon fill="#ffffff" stroke="transparent" points="899,-182.3634 899,-201.3634 929,-201.3634 929,-182.3634 899,-182.3634"/>
<polygon fill="none" stroke="#000000" points="899,-182.3634 899,-201.3634 929,-201.3634 929,-182.3634 899,-182.3634"/>
<text text-anchor="start" x="919.8862" y="-188.4634" font-family="Helvetica,sans-Serif" font-size="11.00" fill="#000000"> &#160;</text>
</a>
</g>
</g>
<!-- VisitEvents&#45;&gt;Identity.Users -->
<g id="edge8" class="edge">
<title>VisitEvents:w&#45;&gt;Identity.Users:e</title>
<path fill="none" stroke="#000000" d="M800.7968,-207.9361C765.03,-192.7101 819.375,-109.9314 774,-76.3634 664.05,4.9767 494.7504,-49.3604 400.4671,-90.7978"/>
<polygon fill="#000000" stroke="#000000" points="807.1143,-209.0157 814.3935,-213.9119 811.0572,-209.6895 815,-210.3634 815,-210.3634 815,-210.3634 811.0572,-209.6895 815.6065,-206.8148 807.1143,-209.0157 807.1143,-209.0157"/>
<ellipse fill="none" stroke="#000000" cx="803.9601" cy="-208.4766" rx="3.2" ry="3.2"/>
</g>
<!-- Visits -->
<g id="node9" class="node">
<title>Visits</title>
<g id="a_node9"><a xlink:href="../../tables/Visits.html" xlink:title="Visits" target="_top">
<polygon fill="#ffffff" stroke="transparent" points="572,-330.8634 572,-391.8634 648,-391.8634 648,-330.8634 572,-330.8634"/>
<polygon fill="#f5f5f5" stroke="transparent" points="572,-368.3634 572,-391.3634 648,-391.3634 648,-368.3634 572,-368.3634"/>
<polygon fill="none" stroke="#000000" points="572,-368.3634 572,-391.3634 648,-391.3634 648,-368.3634 572,-368.3634"/>
<text text-anchor="start" x="577" y="-376.9634" font-family="Helvetica,sans-Serif" font-weight="bold" font-size="11.00" fill="#000000">Visits</text>
<text text-anchor="start" x="613.5219" y="-376.4634" font-family="Helvetica,sans-Serif" font-size="11.00" fill="#000000">[table]</text>
<polygon fill="none" stroke="#000000" points="572,-349.3634 572,-368.3634 648,-368.3634 648,-349.3634 572,-349.3634"/>
<text text-anchor="start" x="575" y="-355.4634" font-family="Helvetica,sans-Serif" font-size="11.00" fill="#000000">...</text>
<polygon fill="#ffffff" stroke="transparent" points="572,-330.3634 572,-349.3634 604,-349.3634 604,-330.3634 572,-330.3634"/>
<polygon fill="none" stroke="#000000" points="572,-330.3634 572,-349.3634 604,-349.3634 604,-330.3634 572,-330.3634"/>
<text text-anchor="start" x="575" y="-336.4634" font-family="Helvetica,sans-Serif" font-size="11.00" fill="#000000">&lt; 2</text>
<polygon fill="#ffffff" stroke="transparent" points="604,-330.3634 604,-349.3634 621,-349.3634 621,-330.3634 604,-330.3634"/>
<polygon fill="none" stroke="#000000" points="604,-330.3634 604,-349.3634 621,-349.3634 621,-330.3634 604,-330.3634"/>
<text text-anchor="start" x="611.8862" y="-336.4634" font-family="Helvetica,sans-Serif" font-size="11.00" fill="#000000"> &#160;</text>
<polygon fill="#ffffff" stroke="transparent" points="621,-330.3634 621,-349.3634 648,-349.3634 648,-330.3634 621,-330.3634"/>
<polygon fill="none" stroke="#000000" points="621,-330.3634 621,-349.3634 648,-349.3634 648,-330.3634 621,-330.3634"/>
<text text-anchor="start" x="629.4053" y="-336.4634" font-family="Helvetica,sans-Serif" font-size="11.00" fill="#000000">2 &gt;</text>
</a>
</g>
</g>
<!-- VisitEvents&#45;&gt;Visits -->
<g id="edge9" class="edge">
<title>VisitEvents:w&#45;&gt;Visits:e</title>
<path fill="none" stroke="#000000" d="M800.5314,-213.2429C773.1644,-227.2481 807.5928,-288.8503 774,-320.3634 731.341,-360.3814 706.4913,-358.3634 648,-358.3634"/>
<polygon fill="#000000" stroke="#000000" points="807.1539,-211.9249 815.7027,-213.8941 811.0769,-211.1441 815,-210.3634 815,-210.3634 815,-210.3634 811.0769,-211.1441 814.2973,-206.8326 807.1539,-211.9249 807.1539,-211.9249"/>
<ellipse fill="none" stroke="#000000" cx="804.0154" cy="-212.5495" rx="3.2" ry="3.2"/>
</g>
<!-- Visits&#45;&gt;Hospitalizations -->
<g id="edge10" class="edge">
<title>Visits:w&#45;&gt;Hospitalizations:e</title>
<path fill="none" stroke="#000000" d="M557.3014,-358.3395C508.3832,-358.1846 455.5577,-357.3 413.2572,-356.4044"/>
<polygon fill="#000000" stroke="#000000" points="564,-358.3503 571.9941,-361.9634 568,-358.3568 572,-358.3634 572,-358.3634 572,-358.3634 568,-358.3568 572.0059,-354.7634 564,-358.3503 564,-358.3503"/>
<ellipse fill="none" stroke="#000000" cx="560.8" cy="-358.3451" rx="3.2" ry="3.2"/>
</g>
</g>
</svg>
