<?xml version="1.0" encoding="UTF-8" standalone="no"?>
<!DOCTYPE svg PUBLIC "-//W3C//DTD SVG 1.1//EN"
 "http://www.w3.org/Graphics/SVG/1.1/DTD/svg11.dtd">
<!-- Generated by graphviz version 2.40.1 (20161225.0304)
 -->
<!-- Title: twoDegreesRelationshipsDiagram Pages: 1 -->
<svg width="1024pt" height="695pt"
 viewBox="0.00 0.00 1024.00 695.20" xmlns="http://www.w3.org/2000/svg" xmlns:xlink="http://www.w3.org/1999/xlink">
<g id="graph0" class="graph" transform="scale(1 1) rotate(0) translate(4 691.2)">
<title>twoDegreesRelationshipsDiagram</title>
<polygon fill="#ffffff" stroke="transparent" points="-4,4 -4,-691.2 1020,-691.2 1020,4 -4,4"/>
<text text-anchor="middle" x="72.4936" y="-7.3" font-family="Helvetica,sans-Serif" font-size="11.00" fill="#000000">Generated by SchemaSpy</text>
<!-- HospitalizationInsurances -->
<g id="node1" class="node">
<title>HospitalizationInsurances</title>
<g id="a_node1"><a xlink:href="../../tables/HospitalizationInsurances.html" xlink:title="HospitalizationInsurances" target="_top">
<polygon fill="#ffffff" stroke="transparent" points="585.5,-465.2 585.5,-592.2 799.5,-592.2 799.5,-465.2 585.5,-465.2"/>
<polygon fill="#f5f5f5" stroke="transparent" points="585.5,-568.7 585.5,-591.7 799.5,-591.7 799.5,-568.7 585.5,-568.7"/>
<polygon fill="none" stroke="#000000" points="585.5,-568.7 585.5,-591.7 799.5,-591.7 799.5,-568.7 585.5,-568.7"/>
<text text-anchor="start" x="590.5" y="-577.3" font-family="Helvetica,sans-Serif" font-weight="bold" font-size="11.00" fill="#000000">HospitalizationInsurances</text>
<text text-anchor="start" x="765.0219" y="-576.8" font-family="Helvetica,sans-Serif" font-size="11.00" fill="#000000">[table]</text>
<polygon fill="none" stroke="#000000" points="585.5,-546.7 585.5,-568.7 799.5,-568.7 799.5,-546.7 585.5,-546.7"/>
<image xlink:href="../../images/primaryKeys.png" width="11px" height="12px" preserveAspectRatio="xMinYMin meet" x="590.5" y="-563.7"/>
<text text-anchor="start" x="614.5" y="-553.8" font-family="Helvetica,sans-Serif" font-size="11.00" fill="#000000">Id</text>
<polygon fill="#ffffff" stroke="transparent" points="585.5,-524.7 585.5,-546.7 799.5,-546.7 799.5,-524.7 585.5,-524.7"/>
<polygon fill="none" stroke="#000000" points="585.5,-524.7 585.5,-546.7 799.5,-546.7 799.5,-524.7 585.5,-524.7"/>
<image xlink:href="../../images/foreignKeys.png" width="11px" height="12px" preserveAspectRatio="xMinYMin meet" x="590.5" y="-541.7"/>
<text text-anchor="start" x="614.5" y="-531.8" font-family="Helvetica,sans-Serif" font-size="11.00" fill="#000000">HospitalizationId</text>
<polygon fill="#ffffff" stroke="transparent" points="585.5,-502.7 585.5,-524.7 799.5,-524.7 799.5,-502.7 585.5,-502.7"/>
<polygon fill="none" stroke="#000000" points="585.5,-502.7 585.5,-524.7 799.5,-524.7 799.5,-502.7 585.5,-502.7"/>
<image xlink:href="../../images/foreignKeys.png" width="11px" height="12px" preserveAspectRatio="xMinYMin meet" x="590.5" y="-519.7"/>
<text text-anchor="start" x="614.5" y="-509.8" font-family="Helvetica,sans-Serif" font-size="11.00" fill="#000000">InsuranceId</text>
<polygon fill="none" stroke="#000000" points="585.5,-483.7 585.5,-502.7 799.5,-502.7 799.5,-483.7 585.5,-483.7"/>
<text text-anchor="start" x="588.5" y="-489.8" font-family="Helvetica,sans-Serif" font-size="11.00" fill="#000000">...</text>
<polygon fill="#ffffff" stroke="transparent" points="585.5,-464.7 585.5,-483.7 690.5,-483.7 690.5,-464.7 585.5,-464.7"/>
<polygon fill="none" stroke="#000000" points="585.5,-464.7 585.5,-483.7 690.5,-483.7 690.5,-464.7 585.5,-464.7"/>
<text text-anchor="start" x="588.5" y="-470.8" font-family="Helvetica,sans-Serif" font-size="11.00" fill="#000000">&lt; 2</text>
<polygon fill="#ffffff" stroke="transparent" points="690.5,-464.7 690.5,-483.7 744.5,-483.7 744.5,-464.7 690.5,-464.7"/>
<polygon fill="none" stroke="#000000" points="690.5,-464.7 690.5,-483.7 744.5,-483.7 744.5,-464.7 690.5,-464.7"/>
<text text-anchor="start" x="735.3862" y="-470.8" font-family="Helvetica,sans-Serif" font-size="11.00" fill="#000000"> &#160;</text>
<polygon fill="#ffffff" stroke="transparent" points="744.5,-464.7 744.5,-483.7 799.5,-483.7 799.5,-464.7 744.5,-464.7"/>
<polygon fill="none" stroke="#000000" points="744.5,-464.7 744.5,-483.7 799.5,-483.7 799.5,-464.7 744.5,-464.7"/>
<text text-anchor="start" x="790.3862" y="-470.8" font-family="Helvetica,sans-Serif" font-size="11.00" fill="#000000"> &#160;</text>
</a>
</g>
</g>
<!-- Hospitalizations -->
<g id="node2" class="node">
<title>Hospitalizations</title>
<g id="a_node2"><a xlink:href="../../tables/Hospitalizations.html" xlink:title="Hospitalizations" target="_top">
<polygon fill="#ffffff" stroke="transparent" points="257,-230.7 257,-518.7 521,-518.7 521,-230.7 257,-230.7"/>
<polygon fill="#f5f5f5" stroke="transparent" points="259,-493.7 259,-516.7 519,-516.7 519,-493.7 259,-493.7"/>
<polygon fill="none" stroke="#000000" points="259,-493.7 259,-516.7 519,-516.7 519,-493.7 259,-493.7"/>
<text text-anchor="start" x="264" y="-502.3" font-family="Helvetica,sans-Serif" font-weight="bold" font-size="11.00" fill="#000000">Hospitalizations</text>
<text text-anchor="start" x="484.0437" y="-501.8" font-family="Helvetica,sans-Serif" font-size="11.00" fill="#000000">[table]</text>
<polygon fill="none" stroke="#000000" points="259,-471.7 259,-493.7 438,-493.7 438,-471.7 259,-471.7"/>
<image xlink:href="../../images/primaryKeys.png" width="11px" height="12px" preserveAspectRatio="xMinYMin meet" x="264" y="-488.7"/>
<text text-anchor="start" x="279" y="-478.8" font-family="Helvetica,sans-Serif" font-size="11.00" fill="#000000">Id</text>
<polygon fill="none" stroke="#000000" points="438,-471.7 438,-493.7 519,-493.7 519,-471.7 438,-471.7"/>
<text text-anchor="start" x="441" y="-479.4" font-family="Helvetica,sans-Serif" font-size="11.00" fill="#000000">int identity[4]</text>
<polygon fill="#ffffff" stroke="transparent" points="259,-449.7 259,-471.7 438,-471.7 438,-449.7 259,-449.7"/>
<polygon fill="none" stroke="#000000" points="259,-449.7 259,-471.7 438,-471.7 438,-449.7 259,-449.7"/>
<image xlink:href="../../images/foreignKeys.png" width="11px" height="12px" preserveAspectRatio="xMinYMin meet" x="264" y="-466.7"/>
<text text-anchor="start" x="279" y="-456.8" font-family="Helvetica,sans-Serif" font-size="11.00" fill="#000000">PatientId</text>
<polygon fill="none" stroke="#000000" points="438,-449.7 438,-471.7 519,-471.7 519,-449.7 438,-449.7"/>
<text text-anchor="start" x="441" y="-457.4" font-family="Helvetica,sans-Serif" font-size="11.00" fill="#000000">int[4]</text>
<polygon fill="#ffffff" stroke="transparent" points="259,-427.7 259,-449.7 438,-449.7 438,-427.7 259,-427.7"/>
<polygon fill="none" stroke="#000000" points="259,-427.7 259,-449.7 438,-449.7 438,-427.7 259,-427.7"/>
<text text-anchor="start" x="279" y="-434.8" font-family="Helvetica,sans-Serif" font-size="11.00" fill="#000000">CaseId</text>
<polygon fill="none" stroke="#000000" points="438,-427.7 438,-449.7 519,-449.7 519,-427.7 438,-427.7"/>
<text text-anchor="start" x="441" y="-435.4" font-family="Helvetica,sans-Serif" font-size="11.00" fill="#000000">int[4]</text>
<polygon fill="#ffffff" stroke="transparent" points="259,-405.7 259,-427.7 438,-427.7 438,-405.7 259,-405.7"/>
<polygon fill="none" stroke="#000000" points="259,-405.7 259,-427.7 438,-427.7 438,-405.7 259,-405.7"/>
<image xlink:href="../../images/foreignKeys.png" width="11px" height="12px" preserveAspectRatio="xMinYMin meet" x="264" y="-422.7"/>
<text text-anchor="start" x="279" y="-412.8" font-family="Helvetica,sans-Serif" font-size="11.00" fill="#000000">FacilityId</text>
<polygon fill="none" stroke="#000000" points="438,-405.7 438,-427.7 519,-427.7 519,-405.7 438,-405.7"/>
<text text-anchor="start" x="441" y="-413.4" font-family="Helvetica,sans-Serif" font-size="11.00" fill="#000000">int[4]</text>
<polygon fill="none" stroke="#000000" points="259,-383.7 259,-405.7 438,-405.7 438,-383.7 259,-383.7"/>
<text text-anchor="start" x="279" y="-390.8" font-family="Helvetica,sans-Serif" font-size="11.00" fill="#000000">PsychEvaluation</text>
<polygon fill="none" stroke="#000000" points="438,-383.7 438,-405.7 519,-405.7 519,-383.7 438,-383.7"/>
<text text-anchor="start" x="441" y="-391.4" font-family="Helvetica,sans-Serif" font-size="11.00" fill="#000000">bit[1]</text>
<polygon fill="none" stroke="#000000" points="259,-361.7 259,-383.7 438,-383.7 438,-361.7 259,-361.7"/>
<text text-anchor="start" x="279" y="-368.8" font-family="Helvetica,sans-Serif" font-size="11.00" fill="#000000">AdmissionDate</text>
<polygon fill="none" stroke="#000000" points="438,-361.7 438,-383.7 519,-383.7 519,-361.7 438,-361.7"/>
<text text-anchor="start" x="440.5968" y="-369.4" font-family="Helvetica,sans-Serif" font-size="11.00" fill="#000000">datetime2[16,7]</text>
<polygon fill="none" stroke="#000000" points="259,-339.7 259,-361.7 438,-361.7 438,-339.7 259,-339.7"/>
<text text-anchor="start" x="279" y="-346.8" font-family="Helvetica,sans-Serif" font-size="11.00" fill="#000000">DischargeDate</text>
<polygon fill="none" stroke="#000000" points="438,-339.7 438,-361.7 519,-361.7 519,-339.7 438,-339.7"/>
<text text-anchor="start" x="440.5968" y="-347.4" font-family="Helvetica,sans-Serif" font-size="11.00" fill="#000000">datetime2[16,7]</text>
<polygon fill="none" stroke="#000000" points="259,-317.7 259,-339.7 438,-339.7 438,-317.7 259,-317.7"/>
<image xlink:href="../../images/foreignKeys.png" width="11px" height="12px" preserveAspectRatio="xMinYMin meet" x="264" y="-334.7"/>
<text text-anchor="start" x="279" y="-324.8" font-family="Helvetica,sans-Serif" font-size="11.00" fill="#000000">HospitalizationStatusId</text>
<polygon fill="none" stroke="#000000" points="438,-317.7 438,-339.7 519,-339.7 519,-317.7 438,-317.7"/>
<text text-anchor="start" x="441" y="-325.4" font-family="Helvetica,sans-Serif" font-size="11.00" fill="#000000">int[4]</text>
<polygon fill="none" stroke="#000000" points="259,-295.7 259,-317.7 438,-317.7 438,-295.7 259,-295.7"/>
<text text-anchor="start" x="279" y="-302.8" font-family="Helvetica,sans-Serif" font-size="11.00" fill="#000000">CreatedAtUtc</text>
<polygon fill="none" stroke="#000000" points="438,-295.7 438,-317.7 519,-317.7 519,-295.7 438,-295.7"/>
<text text-anchor="start" x="440.5968" y="-303.4" font-family="Helvetica,sans-Serif" font-size="11.00" fill="#000000">datetime2[16,7]</text>
<polygon fill="none" stroke="#000000" points="259,-273.7 259,-295.7 438,-295.7 438,-273.7 259,-273.7"/>
<text text-anchor="start" x="279" y="-280.8" font-family="Helvetica,sans-Serif" font-size="11.00" fill="#000000">UpdatedAtUtc</text>
<polygon fill="none" stroke="#000000" points="438,-273.7 438,-295.7 519,-295.7 519,-273.7 438,-273.7"/>
<text text-anchor="start" x="440.5968" y="-281.4" font-family="Helvetica,sans-Serif" font-size="11.00" fill="#000000">datetime2[16,7]</text>
<polygon fill="none" stroke="#000000" points="259,-251.7 259,-273.7 438,-273.7 438,-251.7 259,-251.7"/>
<text text-anchor="start" x="279" y="-258.8" font-family="Helvetica,sans-Serif" font-size="11.00" fill="#000000">RowVersion</text>
<polygon fill="none" stroke="#000000" points="438,-251.7 438,-273.7 519,-273.7 519,-251.7 438,-251.7"/>
<text text-anchor="start" x="441" y="-259.4" font-family="Helvetica,sans-Serif" font-size="11.00" fill="#000000">timestamp[8]</text>
<polygon fill="#ffffff" stroke="transparent" points="259,-232.7 259,-251.7 353,-251.7 353,-232.7 259,-232.7"/>
<polygon fill="none" stroke="#000000" points="259,-232.7 259,-251.7 353,-251.7 353,-232.7 259,-232.7"/>
<text text-anchor="start" x="262" y="-238.8" font-family="Helvetica,sans-Serif" font-size="11.00" fill="#000000">&lt; 3</text>
<polygon fill="#ffffff" stroke="transparent" points="353,-232.7 353,-251.7 438,-251.7 438,-232.7 353,-232.7"/>
<polygon fill="none" stroke="#000000" points="353,-232.7 353,-251.7 438,-251.7 438,-232.7 353,-232.7"/>
<text text-anchor="start" x="428.8862" y="-238.8" font-family="Helvetica,sans-Serif" font-size="11.00" fill="#000000"> &#160;</text>
<polygon fill="#ffffff" stroke="transparent" points="438,-232.7 438,-251.7 519,-251.7 519,-232.7 438,-232.7"/>
<polygon fill="none" stroke="#000000" points="438,-232.7 438,-251.7 519,-251.7 519,-232.7 438,-232.7"/>
<text text-anchor="start" x="500.4053" y="-238.8" font-family="Helvetica,sans-Serif" font-size="11.00" fill="#000000">3 &gt;</text>
<polygon fill="none" stroke="#000000" stroke-width="2" points="258,-231.7 258,-517.7 520,-517.7 520,-231.7 258,-231.7"/>
</a>
</g>
</g>
<!-- HospitalizationInsurances&#45;&gt;Hospitalizations -->
<g id="edge1" class="edge">
<title>HospitalizationInsurances:w&#45;&gt;Hospitalizations:e</title>
<path fill="none" stroke="#000000" d="M571.1596,-532.3846C549.3869,-520.7816 551.0364,-482.7 519,-482.7"/>
<polygon fill="#000000" stroke="#000000" points="577.7056,-533.898 584.6891,-539.2075 581.6028,-534.799 585.5,-535.7 585.5,-535.7 585.5,-535.7 581.6028,-534.799 586.3109,-532.1925 577.7056,-533.898 577.7056,-533.898"/>
<ellipse fill="none" stroke="#000000" cx="574.5878" cy="-533.1771" rx="3.2" ry="3.2"/>
</g>
<!-- Insurances -->
<g id="node3" class="node">
<title>Insurances</title>
<g id="a_node3"><a xlink:href="../../tables/Insurances.html" xlink:title="Insurances" target="_top">
<polygon fill="#ffffff" stroke="transparent" points="333,-540.2 333,-601.2 445,-601.2 445,-540.2 333,-540.2"/>
<polygon fill="#f5f5f5" stroke="transparent" points="333,-577.7 333,-600.7 445,-600.7 445,-577.7 333,-577.7"/>
<polygon fill="none" stroke="#000000" points="333,-577.7 333,-600.7 445,-600.7 445,-577.7 333,-577.7"/>
<text text-anchor="start" x="338" y="-586.3" font-family="Helvetica,sans-Serif" font-weight="bold" font-size="11.00" fill="#000000">Insurances</text>
<text text-anchor="start" x="410.5219" y="-585.8" font-family="Helvetica,sans-Serif" font-size="11.00" fill="#000000">[table]</text>
<polygon fill="none" stroke="#000000" points="333,-558.7 333,-577.7 445,-577.7 445,-558.7 333,-558.7"/>
<text text-anchor="start" x="336" y="-564.8" font-family="Helvetica,sans-Serif" font-size="11.00" fill="#000000">...</text>
<polygon fill="#ffffff" stroke="transparent" points="333,-539.7 333,-558.7 378,-558.7 378,-539.7 333,-539.7"/>
<polygon fill="none" stroke="#000000" points="333,-539.7 333,-558.7 378,-558.7 378,-539.7 333,-539.7"/>
<text text-anchor="start" x="336" y="-545.8" font-family="Helvetica,sans-Serif" font-size="11.00" fill="#000000"> &#160;</text>
<polygon fill="#ffffff" stroke="transparent" points="378,-539.7 378,-558.7 407,-558.7 407,-539.7 378,-539.7"/>
<polygon fill="none" stroke="#000000" points="378,-539.7 378,-558.7 407,-558.7 407,-539.7 378,-539.7"/>
<text text-anchor="start" x="397.8862" y="-545.8" font-family="Helvetica,sans-Serif" font-size="11.00" fill="#000000"> &#160;</text>
<polygon fill="#ffffff" stroke="transparent" points="407,-539.7 407,-558.7 445,-558.7 445,-539.7 407,-539.7"/>
<polygon fill="none" stroke="#000000" points="407,-539.7 407,-558.7 445,-558.7 445,-539.7 407,-539.7"/>
<text text-anchor="start" x="426.4053" y="-545.8" font-family="Helvetica,sans-Serif" font-size="11.00" fill="#000000">1 &gt;</text>
</a>
</g>
</g>
<!-- HospitalizationInsurances&#45;&gt;Insurances -->
<g id="edge2" class="edge">
<title>HospitalizationInsurances:w&#45;&gt;Insurances:e</title>
<path fill="none" stroke="#000000" d="M570.8656,-514.6373C517.1873,-521.8079 506.6714,-567.7 445,-567.7"/>
<polygon fill="#000000" stroke="#000000" points="577.5164,-514.2114 585.7301,-517.2926 581.5082,-513.9557 585.5,-513.7 585.5,-513.7 585.5,-513.7 581.5082,-513.9557 585.2699,-510.1074 577.5164,-514.2114 577.5164,-514.2114"/>
<ellipse fill="none" stroke="#000000" cx="574.3229" cy="-514.4159" rx="3.2" ry="3.2"/>
</g>
<!-- Facilities -->
<g id="node4" class="node">
<title>Facilities</title>
<g id="a_node4"><a xlink:href="../../tables/Facilities.html" xlink:title="Facilities" target="_top">
<polygon fill="#ffffff" stroke="transparent" points="50,-400.2 50,-483.2 166,-483.2 166,-400.2 50,-400.2"/>
<polygon fill="#f5f5f5" stroke="transparent" points="50,-459.7 50,-482.7 166,-482.7 166,-459.7 50,-459.7"/>
<polygon fill="none" stroke="#000000" points="50,-459.7 50,-482.7 166,-482.7 166,-459.7 50,-459.7"/>
<text text-anchor="start" x="55" y="-468.3" font-family="Helvetica,sans-Serif" font-weight="bold" font-size="11.00" fill="#000000">Facilities</text>
<text text-anchor="start" x="131.0437" y="-467.8" font-family="Helvetica,sans-Serif" font-size="11.00" fill="#000000">[table]</text>
<polygon fill="none" stroke="#000000" points="50,-437.7 50,-459.7 166,-459.7 166,-437.7 50,-437.7"/>
<image xlink:href="../../images/primaryKeys.png" width="11px" height="12px" preserveAspectRatio="xMinYMin meet" x="55" y="-454.7"/>
<text text-anchor="start" x="70" y="-444.8" font-family="Helvetica,sans-Serif" font-size="11.00" fill="#000000">Id</text>
<polygon fill="none" stroke="#000000" points="50,-418.7 50,-437.7 166,-437.7 166,-418.7 50,-418.7"/>
<text text-anchor="start" x="53" y="-424.8" font-family="Helvetica,sans-Serif" font-size="11.00" fill="#000000">...</text>
<polygon fill="#ffffff" stroke="transparent" points="50,-399.7 50,-418.7 97,-418.7 97,-399.7 50,-399.7"/>
<polygon fill="none" stroke="#000000" points="50,-399.7 50,-418.7 97,-418.7 97,-399.7 50,-399.7"/>
<text text-anchor="start" x="53" y="-405.8" font-family="Helvetica,sans-Serif" font-size="11.00" fill="#000000"> &#160;</text>
<polygon fill="#ffffff" stroke="transparent" points="97,-399.7 97,-418.7 127,-418.7 127,-399.7 97,-399.7"/>
<polygon fill="none" stroke="#000000" points="97,-399.7 97,-418.7 127,-418.7 127,-399.7 97,-399.7"/>
<text text-anchor="start" x="117.8862" y="-405.8" font-family="Helvetica,sans-Serif" font-size="11.00" fill="#000000"> &#160;</text>
<polygon fill="#ffffff" stroke="transparent" points="127,-399.7 127,-418.7 166,-418.7 166,-399.7 127,-399.7"/>
<polygon fill="none" stroke="#000000" points="127,-399.7 127,-418.7 166,-418.7 166,-399.7 127,-399.7"/>
<text text-anchor="start" x="147.4053" y="-405.8" font-family="Helvetica,sans-Serif" font-size="11.00" fill="#000000">2 &gt;</text>
</a>
</g>
</g>
<!-- Hospitalizations&#45;&gt;Facilities -->
<g id="edge3" class="edge">
<title>Hospitalizations:w&#45;&gt;Facilities:e</title>
<path fill="none" stroke="#000000" d="M244.2467,-418.075C213.2983,-424.2 204.2478,-448.7 166,-448.7"/>
<polygon fill="#000000" stroke="#000000" points="251.0345,-417.4424 259.3341,-420.2845 255.0173,-417.0712 259,-416.7 259,-416.7 259,-416.7 255.0173,-417.0712 258.6659,-413.1155 251.0345,-417.4424 251.0345,-417.4424"/>
<ellipse fill="none" stroke="#000000" cx="247.8483" cy="-417.7394" rx="3.2" ry="3.2"/>
</g>
<!-- HospitalizationStatuses -->
<g id="node5" class="node">
<title>HospitalizationStatuses</title>
<g id="a_node5"><a xlink:href="../../tables/HospitalizationStatuses.html" xlink:title="HospitalizationStatuses" target="_top">
<polygon fill="#ffffff" stroke="transparent" points="8,-222.2 8,-283.2 208,-283.2 208,-222.2 8,-222.2"/>
<polygon fill="#f5f5f5" stroke="transparent" points="8,-259.7 8,-282.7 208,-282.7 208,-259.7 8,-259.7"/>
<polygon fill="none" stroke="#000000" points="8,-259.7 8,-282.7 208,-282.7 208,-259.7 8,-259.7"/>
<text text-anchor="start" x="13" y="-268.3" font-family="Helvetica,sans-Serif" font-weight="bold" font-size="11.00" fill="#000000">HospitalizationStatuses</text>
<text text-anchor="start" x="173.5219" y="-267.8" font-family="Helvetica,sans-Serif" font-size="11.00" fill="#000000">[table]</text>
<polygon fill="none" stroke="#000000" points="8,-240.7 8,-259.7 208,-259.7 208,-240.7 8,-240.7"/>
<text text-anchor="start" x="11" y="-246.8" font-family="Helvetica,sans-Serif" font-size="11.00" fill="#000000">...</text>
<polygon fill="#ffffff" stroke="transparent" points="8,-221.7 8,-240.7 97,-240.7 97,-221.7 8,-221.7"/>
<polygon fill="none" stroke="#000000" points="8,-221.7 8,-240.7 97,-240.7 97,-221.7 8,-221.7"/>
<text text-anchor="start" x="11" y="-227.8" font-family="Helvetica,sans-Serif" font-size="11.00" fill="#000000"> &#160;</text>
<polygon fill="#ffffff" stroke="transparent" points="97,-221.7 97,-240.7 148,-240.7 148,-221.7 97,-221.7"/>
<polygon fill="none" stroke="#000000" points="97,-221.7 97,-240.7 148,-240.7 148,-221.7 97,-221.7"/>
<text text-anchor="start" x="138.8862" y="-227.8" font-family="Helvetica,sans-Serif" font-size="11.00" fill="#000000"> &#160;</text>
<polygon fill="#ffffff" stroke="transparent" points="148,-221.7 148,-240.7 208,-240.7 208,-221.7 148,-221.7"/>
<polygon fill="none" stroke="#000000" points="148,-221.7 148,-240.7 208,-240.7 208,-221.7 148,-221.7"/>
<text text-anchor="start" x="189.4053" y="-227.8" font-family="Helvetica,sans-Serif" font-size="11.00" fill="#000000">2 &gt;</text>
</a>
</g>
</g>
<!-- Hospitalizations&#45;&gt;HospitalizationStatuses -->
<g id="edge4" class="edge">
<title>Hospitalizations:w&#45;&gt;HospitalizationStatuses:e</title>
<path fill="none" stroke="#000000" d="M244.5644,-327.8034C209.7153,-323.5617 175.7695,-304.981 150.4392,-287.364"/>
<polygon fill="#000000" stroke="#000000" points="251.0154,-328.204 258.7768,-332.2931 255.0077,-328.452 259,-328.7 259,-328.7 259,-328.7 255.0077,-328.452 259.2232,-325.1069 251.0154,-328.204 251.0154,-328.204"/>
<ellipse fill="none" stroke="#000000" cx="247.8215" cy="-328.0056" rx="3.2" ry="3.2"/>
</g>
<!-- Patients -->
<g id="node6" class="node">
<title>Patients</title>
<g id="a_node6"><a xlink:href="../../tables/Patients.html" xlink:title="Patients" target="_top">
<polygon fill="#ffffff" stroke="transparent" points="50,-568.2 50,-651.2 166,-651.2 166,-568.2 50,-568.2"/>
<polygon fill="#f5f5f5" stroke="transparent" points="50,-627.7 50,-650.7 166,-650.7 166,-627.7 50,-627.7"/>
<polygon fill="none" stroke="#000000" points="50,-627.7 50,-650.7 166,-650.7 166,-627.7 50,-627.7"/>
<text text-anchor="start" x="55" y="-636.3" font-family="Helvetica,sans-Serif" font-weight="bold" font-size="11.00" fill="#000000">Patients</text>
<text text-anchor="start" x="131.0437" y="-635.8" font-family="Helvetica,sans-Serif" font-size="11.00" fill="#000000">[table]</text>
<polygon fill="none" stroke="#000000" points="50,-605.7 50,-627.7 166,-627.7 166,-605.7 50,-605.7"/>
<image xlink:href="../../images/primaryKeys.png" width="11px" height="12px" preserveAspectRatio="xMinYMin meet" x="55" y="-622.7"/>
<text text-anchor="start" x="70" y="-612.8" font-family="Helvetica,sans-Serif" font-size="11.00" fill="#000000">Id</text>
<polygon fill="none" stroke="#000000" points="50,-586.7 50,-605.7 166,-605.7 166,-586.7 50,-586.7"/>
<text text-anchor="start" x="53" y="-592.8" font-family="Helvetica,sans-Serif" font-size="11.00" fill="#000000">...</text>
<polygon fill="#ffffff" stroke="transparent" points="50,-567.7 50,-586.7 97,-586.7 97,-567.7 50,-567.7"/>
<polygon fill="none" stroke="#000000" points="50,-567.7 50,-586.7 97,-586.7 97,-567.7 50,-567.7"/>
<text text-anchor="start" x="53" y="-573.8" font-family="Helvetica,sans-Serif" font-size="11.00" fill="#000000"> &#160;</text>
<polygon fill="#ffffff" stroke="transparent" points="97,-567.7 97,-586.7 127,-586.7 127,-567.7 97,-567.7"/>
<polygon fill="none" stroke="#000000" points="97,-567.7 97,-586.7 127,-586.7 127,-567.7 97,-567.7"/>
<text text-anchor="start" x="117.8862" y="-573.8" font-family="Helvetica,sans-Serif" font-size="11.00" fill="#000000"> &#160;</text>
<polygon fill="#ffffff" stroke="transparent" points="127,-567.7 127,-586.7 166,-586.7 166,-567.7 127,-567.7"/>
<polygon fill="none" stroke="#000000" points="127,-567.7 127,-586.7 166,-586.7 166,-567.7 127,-567.7"/>
<text text-anchor="start" x="147.4053" y="-573.8" font-family="Helvetica,sans-Serif" font-size="11.00" fill="#000000">2 &gt;</text>
</a>
</g>
</g>
<!-- Hospitalizations&#45;&gt;Patients -->
<g id="edge5" class="edge">
<title>Hospitalizations:w&#45;&gt;Patients:e</title>
<path fill="none" stroke="#000000" d="M244.442,-462.7873C186.9408,-481.2991 241.2011,-616.7 166,-616.7"/>
<polygon fill="#000000" stroke="#000000" points="251.081,-461.8355 259.511,-464.2636 255.0405,-461.2677 259,-460.7 259,-460.7 259,-460.7 255.0405,-461.2677 258.489,-457.1364 251.081,-461.8355 251.081,-461.8355"/>
<ellipse fill="none" stroke="#000000" cx="247.9134" cy="-462.2896" rx="3.2" ry="3.2"/>
</g>
<!-- HospitalizationStatusHistories -->
<g id="node7" class="node">
<title>HospitalizationStatusHistories</title>
<g id="a_node7"><a xlink:href="../../tables/HospitalizationStatusHistories.html" xlink:title="HospitalizationStatusHistories" target="_top">
<polygon fill="#ffffff" stroke="transparent" points="570,-92.2 570,-153.2 815,-153.2 815,-92.2 570,-92.2"/>
<polygon fill="#f5f5f5" stroke="transparent" points="570.5,-129.7 570.5,-152.7 815.5,-152.7 815.5,-129.7 570.5,-129.7"/>
<polygon fill="none" stroke="#000000" points="570.5,-129.7 570.5,-152.7 815.5,-152.7 815.5,-129.7 570.5,-129.7"/>
<text text-anchor="start" x="575.5" y="-138.3" font-family="Helvetica,sans-Serif" font-weight="bold" font-size="11.00" fill="#000000">HospitalizationStatusHistories</text>
<text text-anchor="start" x="781.0219" y="-137.8" font-family="Helvetica,sans-Serif" font-size="11.00" fill="#000000">[table]</text>
<polygon fill="none" stroke="#000000" points="570.5,-110.7 570.5,-129.7 815.5,-129.7 815.5,-110.7 570.5,-110.7"/>
<text text-anchor="start" x="573.5" y="-116.8" font-family="Helvetica,sans-Serif" font-size="11.00" fill="#000000">...</text>
<polygon fill="#ffffff" stroke="transparent" points="570.5,-91.7 570.5,-110.7 691.5,-110.7 691.5,-91.7 570.5,-91.7"/>
<polygon fill="none" stroke="#000000" points="570.5,-91.7 570.5,-110.7 691.5,-110.7 691.5,-91.7 570.5,-91.7"/>
<text text-anchor="start" x="573.5" y="-97.8" font-family="Helvetica,sans-Serif" font-size="11.00" fill="#000000">&lt; 3</text>
<polygon fill="#ffffff" stroke="transparent" points="691.5,-91.7 691.5,-110.7 753.5,-110.7 753.5,-91.7 691.5,-91.7"/>
<polygon fill="none" stroke="#000000" points="691.5,-91.7 691.5,-110.7 753.5,-110.7 753.5,-91.7 691.5,-91.7"/>
<text text-anchor="start" x="744.3862" y="-97.8" font-family="Helvetica,sans-Serif" font-size="11.00" fill="#000000"> &#160;</text>
<polygon fill="#ffffff" stroke="transparent" points="753.5,-91.7 753.5,-110.7 815.5,-110.7 815.5,-91.7 753.5,-91.7"/>
<polygon fill="none" stroke="#000000" points="753.5,-91.7 753.5,-110.7 815.5,-110.7 815.5,-91.7 753.5,-91.7"/>
<text text-anchor="start" x="806.3862" y="-97.8" font-family="Helvetica,sans-Serif" font-size="11.00" fill="#000000"> &#160;</text>
</a>
</g>
</g>
<!-- HospitalizationStatusHistories&#45;&gt;Hospitalizations -->
<g id="edge7" class="edge">
<title>HospitalizationStatusHistories:w&#45;&gt;Hospitalizations:e</title>
<path fill="none" stroke="#000000" d="M560.398,-169.5152C523.8932,-247.4928 586.4785,-482.7 519,-482.7"/>
<polygon fill="#000000" stroke="#000000" points="563.8412,-164.0304 571.1437,-159.1689 565.9679,-160.6426 568.0947,-157.2549 568.0947,-157.2549 568.0947,-157.2549 565.9679,-160.6426 565.0457,-155.3408 563.8412,-164.0304 563.8412,-164.0304"/>
<ellipse fill="none" stroke="#000000" cx="562.1398" cy="-166.7406" rx="3.2" ry="3.2"/>
</g>
<!-- HospitalizationStatusHistories&#45;&gt;HospitalizationStatuses -->
<g id="edge8" class="edge">
<title>HospitalizationStatusHistories:w&#45;&gt;HospitalizationStatuses:e</title>
<path fill="none" stroke="#000000" d="M547.2589,-117.6991C439.2437,-115.8296 301.7971,-117.8875 249,-137.7 204.7856,-154.2918 164.1259,-190.7242 137.9479,-218.1656"/>
<polygon fill="#000000" stroke="#000000" points="553.9576,-117.8273 561.8872,-121.5798 557.9568,-117.9039 561.9561,-117.9805 561.9561,-117.9805 561.9561,-117.9805 557.9568,-117.9039 562.025,-114.3812 553.9576,-117.8273 553.9576,-117.8273"/>
<ellipse fill="none" stroke="#000000" cx="550.7581" cy="-117.7661" rx="3.2" ry="3.2"/>
</g>
<!-- Identity.Users -->
<g id="node8" class="node">
<title>Identity.Users</title>
<g id="a_node8"><a xlink:title="Identity.Users">
<polygon fill="#ffffff" stroke="transparent" points="322,-38.2 322,-99.2 456,-99.2 456,-38.2 322,-38.2"/>
<polygon fill="#f5f5f5" stroke="transparent" points="322,-75.7 322,-98.7 456,-98.7 456,-75.7 322,-75.7"/>
<polygon fill="none" stroke="#000000" points="322,-75.7 322,-98.7 456,-98.7 456,-75.7 322,-75.7"/>
<text text-anchor="start" x="327" y="-84.3" font-family="Helvetica,sans-Serif" font-weight="bold" font-size="11.00" fill="#000000">Identity.Users</text>
<text text-anchor="start" x="421.5219" y="-83.8" font-family="Helvetica,sans-Serif" font-size="11.00" fill="#000000">[table]</text>
<polygon fill="none" stroke="#000000" points="322,-56.7 322,-75.7 456,-75.7 456,-56.7 322,-56.7"/>
<text text-anchor="start" x="325" y="-62.8" font-family="Helvetica,sans-Serif" font-size="11.00" fill="#000000">...</text>
<polygon fill="#ffffff" stroke="transparent" points="322,-37.7 322,-56.7 378,-56.7 378,-37.7 322,-37.7"/>
<polygon fill="none" stroke="#000000" points="322,-37.7 322,-56.7 378,-56.7 378,-37.7 322,-37.7"/>
<text text-anchor="start" x="325" y="-43.8" font-family="Helvetica,sans-Serif" font-size="11.00" fill="#000000"> &#160;</text>
<polygon fill="#ffffff" stroke="transparent" points="378,-37.7 378,-56.7 412,-56.7 412,-37.7 378,-37.7"/>
<polygon fill="none" stroke="#000000" points="378,-37.7 378,-56.7 412,-56.7 412,-37.7 378,-37.7"/>
<text text-anchor="start" x="402.8862" y="-43.8" font-family="Helvetica,sans-Serif" font-size="11.00" fill="#000000"> &#160;</text>
<polygon fill="#ffffff" stroke="transparent" points="412,-37.7 412,-56.7 456,-56.7 456,-37.7 412,-37.7"/>
<polygon fill="none" stroke="#000000" points="412,-37.7 412,-56.7 456,-56.7 456,-37.7 412,-37.7"/>
<text text-anchor="start" x="437.4053" y="-43.8" font-family="Helvetica,sans-Serif" font-size="11.00" fill="#000000">2 &gt;</text>
</a>
</g>
</g>
<!-- HospitalizationStatusHistories&#45;&gt;Identity.Users -->
<g id="edge6" class="edge">
<title>HospitalizationStatusHistories:w&#45;&gt;Identity.Users:e</title>
<path fill="none" stroke="#000000" d="M580.4347,-84.2838C541.519,-74.0099 497.2828,-65.7 456,-65.7"/>
<polygon fill="#000000" stroke="#000000" points="586.801,-86.0299 593.5638,-91.6179 590.6585,-87.088 594.516,-88.1461 594.516,-88.1461 594.516,-88.1461 590.6585,-87.088 595.4683,-84.6743 586.801,-86.0299 586.801,-86.0299"/>
<ellipse fill="none" stroke="#000000" cx="583.715" cy="-85.1835" rx="3.2" ry="3.2"/>
</g>
<!-- PatientFacilities -->
<g id="node9" class="node">
<title>PatientFacilities</title>
<g id="a_node9"><a xlink:href="../../tables/PatientFacilities.html" xlink:title="PatientFacilities" target="_top">
<polygon fill="#ffffff" stroke="transparent" points="314.5,-622.2 314.5,-683.2 463.5,-683.2 463.5,-622.2 314.5,-622.2"/>
<polygon fill="#f5f5f5" stroke="transparent" points="315,-659.7 315,-682.7 464,-682.7 464,-659.7 315,-659.7"/>
<polygon fill="none" stroke="#000000" points="315,-659.7 315,-682.7 464,-682.7 464,-659.7 315,-659.7"/>
<text text-anchor="start" x="320" y="-668.3" font-family="Helvetica,sans-Serif" font-weight="bold" font-size="11.00" fill="#000000">PatientFacilities</text>
<text text-anchor="start" x="429.5219" y="-667.8" font-family="Helvetica,sans-Serif" font-size="11.00" fill="#000000">[table]</text>
<polygon fill="none" stroke="#000000" points="315,-640.7 315,-659.7 464,-659.7 464,-640.7 315,-640.7"/>
<text text-anchor="start" x="318" y="-646.8" font-family="Helvetica,sans-Serif" font-size="11.00" fill="#000000">...</text>
<polygon fill="#ffffff" stroke="transparent" points="315,-621.7 315,-640.7 388,-640.7 388,-621.7 315,-621.7"/>
<polygon fill="none" stroke="#000000" points="315,-621.7 315,-640.7 388,-640.7 388,-621.7 315,-621.7"/>
<text text-anchor="start" x="318" y="-627.8" font-family="Helvetica,sans-Serif" font-size="11.00" fill="#000000">&lt; 2</text>
<polygon fill="#ffffff" stroke="transparent" points="388,-621.7 388,-640.7 426,-640.7 426,-621.7 388,-621.7"/>
<polygon fill="none" stroke="#000000" points="388,-621.7 388,-640.7 426,-640.7 426,-621.7 388,-621.7"/>
<text text-anchor="start" x="416.8862" y="-627.8" font-family="Helvetica,sans-Serif" font-size="11.00" fill="#000000"> &#160;</text>
<polygon fill="#ffffff" stroke="transparent" points="426,-621.7 426,-640.7 464,-640.7 464,-621.7 426,-621.7"/>
<polygon fill="none" stroke="#000000" points="426,-621.7 426,-640.7 464,-640.7 464,-621.7 426,-621.7"/>
<text text-anchor="start" x="454.8862" y="-627.8" font-family="Helvetica,sans-Serif" font-size="11.00" fill="#000000"> &#160;</text>
</a>
</g>
</g>
<!-- PatientFacilities&#45;&gt;Facilities -->
<g id="edge9" class="edge">
<title>PatientFacilities:w&#45;&gt;Facilities:e</title>
<path fill="none" stroke="#000000" d="M300.4992,-648.6741C277.949,-645.1048 268.5775,-632.311 249,-611.7 193.0121,-552.7565 247.2957,-448.7 166,-448.7"/>
<polygon fill="#000000" stroke="#000000" points="307.0199,-649.1354 314.7459,-653.291 311.01,-649.4177 315,-649.7 315,-649.7 315,-649.7 311.01,-649.4177 315.2541,-646.109 307.0199,-649.1354 307.0199,-649.1354"/>
<ellipse fill="none" stroke="#000000" cx="303.8279" cy="-648.9095" rx="3.2" ry="3.2"/>
</g>
<!-- PatientFacilities&#45;&gt;Patients -->
<g id="edge10" class="edge">
<title>PatientFacilities:w&#45;&gt;Patients:e</title>
<path fill="none" stroke="#000000" d="M300.4006,-649.1548C244.8238,-644.8641 228.6604,-616.7 166,-616.7"/>
<polygon fill="#000000" stroke="#000000" points="307.0056,-649.4014 314.8656,-653.2975 311.0028,-649.5507 315,-649.7 315,-649.7 315,-649.7 311.0028,-649.5507 315.1344,-646.1025 307.0056,-649.4014 307.0056,-649.4014"/>
<ellipse fill="none" stroke="#000000" cx="303.8078" cy="-649.2819" rx="3.2" ry="3.2"/>
</g>
<!-- VisitAttendants -->
<g id="node10" class="node">
<title>VisitAttendants</title>
<g id="a_node10"><a xlink:href="../../tables/VisitAttendants.html" xlink:title="VisitAttendants" target="_top">
<polygon fill="#ffffff" stroke="transparent" points="864,-261.2 864,-322.2 1008,-322.2 1008,-261.2 864,-261.2"/>
<polygon fill="#f5f5f5" stroke="transparent" points="864,-298.7 864,-321.7 1008,-321.7 1008,-298.7 864,-298.7"/>
<polygon fill="none" stroke="#000000" points="864,-298.7 864,-321.7 1008,-321.7 1008,-298.7 864,-298.7"/>
<text text-anchor="start" x="869" y="-307.3" font-family="Helvetica,sans-Serif" font-weight="bold" font-size="11.00" fill="#000000">VisitAttendants</text>
<text text-anchor="start" x="973.5219" y="-306.8" font-family="Helvetica,sans-Serif" font-size="11.00" fill="#000000">[table]</text>
<polygon fill="none" stroke="#000000" points="864,-279.7 864,-298.7 1008,-298.7 1008,-279.7 864,-279.7"/>
<text text-anchor="start" x="867" y="-285.8" font-family="Helvetica,sans-Serif" font-size="11.00" fill="#000000">...</text>
<polygon fill="#ffffff" stroke="transparent" points="864,-260.7 864,-279.7 934,-279.7 934,-260.7 864,-260.7"/>
<polygon fill="none" stroke="#000000" points="864,-260.7 864,-279.7 934,-279.7 934,-260.7 864,-260.7"/>
<text text-anchor="start" x="867" y="-266.8" font-family="Helvetica,sans-Serif" font-size="11.00" fill="#000000">&lt; 2</text>
<polygon fill="#ffffff" stroke="transparent" points="934,-260.7 934,-279.7 971,-279.7 971,-260.7 934,-260.7"/>
<polygon fill="none" stroke="#000000" points="934,-260.7 934,-279.7 971,-279.7 971,-260.7 934,-260.7"/>
<text text-anchor="start" x="961.8862" y="-266.8" font-family="Helvetica,sans-Serif" font-size="11.00" fill="#000000"> &#160;</text>
<polygon fill="#ffffff" stroke="transparent" points="971,-260.7 971,-279.7 1008,-279.7 1008,-260.7 971,-260.7"/>
<polygon fill="none" stroke="#000000" points="971,-260.7 971,-279.7 1008,-279.7 1008,-260.7 971,-260.7"/>
<text text-anchor="start" x="998.8862" y="-266.8" font-family="Helvetica,sans-Serif" font-size="11.00" fill="#000000"> &#160;</text>
</a>
</g>
</g>
<!-- Visits -->
<g id="node11" class="node">
<title>Visits</title>
<g id="a_node11"><a xlink:href="../../tables/Visits.html" xlink:title="Visits" target="_top">
<polygon fill="#ffffff" stroke="transparent" points="615,-174.2 615,-323.2 770,-323.2 770,-174.2 615,-174.2"/>
<polygon fill="#f5f5f5" stroke="transparent" points="615.5,-299.7 615.5,-322.7 770.5,-322.7 770.5,-299.7 615.5,-299.7"/>
<polygon fill="none" stroke="#000000" points="615.5,-299.7 615.5,-322.7 770.5,-322.7 770.5,-299.7 615.5,-299.7"/>
<text text-anchor="start" x="620.5" y="-308.3" font-family="Helvetica,sans-Serif" font-weight="bold" font-size="11.00" fill="#000000">Visits</text>
<text text-anchor="start" x="735.5437" y="-307.8" font-family="Helvetica,sans-Serif" font-size="11.00" fill="#000000">[table]</text>
<polygon fill="none" stroke="#000000" points="615.5,-277.7 615.5,-299.7 770.5,-299.7 770.5,-277.7 615.5,-277.7"/>
<image xlink:href="../../images/primaryKeys.png" width="11px" height="12px" preserveAspectRatio="xMinYMin meet" x="620.5" y="-294.7"/>
<text text-anchor="start" x="635.5" y="-284.8" font-family="Helvetica,sans-Serif" font-size="11.00" fill="#000000">Id</text>
<polygon fill="#ffffff" stroke="transparent" points="615.5,-255.7 615.5,-277.7 770.5,-277.7 770.5,-255.7 615.5,-255.7"/>
<polygon fill="none" stroke="#000000" points="615.5,-255.7 615.5,-277.7 770.5,-277.7 770.5,-255.7 615.5,-255.7"/>
<text text-anchor="start" x="635.5" y="-262.8" font-family="Helvetica,sans-Serif" font-size="11.00" fill="#000000">DateServiced</text>
<polygon fill="#ffffff" stroke="transparent" points="615.5,-233.7 615.5,-255.7 770.5,-255.7 770.5,-233.7 615.5,-233.7"/>
<polygon fill="none" stroke="#000000" points="615.5,-233.7 615.5,-255.7 770.5,-255.7 770.5,-233.7 615.5,-233.7"/>
<image xlink:href="../../images/foreignKeys.png" width="11px" height="12px" preserveAspectRatio="xMinYMin meet" x="620.5" y="-250.7"/>
<text text-anchor="start" x="635.5" y="-240.8" font-family="Helvetica,sans-Serif" font-size="11.00" fill="#000000">HospitalizationId</text>
<polygon fill="#ffffff" stroke="transparent" points="615.5,-211.7 615.5,-233.7 770.5,-233.7 770.5,-211.7 615.5,-211.7"/>
<polygon fill="none" stroke="#000000" points="615.5,-211.7 615.5,-233.7 770.5,-233.7 770.5,-211.7 615.5,-211.7"/>
<image xlink:href="../../images/foreignKeys.png" width="11px" height="12px" preserveAspectRatio="xMinYMin meet" x="620.5" y="-228.7"/>
<text text-anchor="start" x="635.5" y="-218.8" font-family="Helvetica,sans-Serif" font-size="11.00" fill="#000000">ServiceTypeId</text>
<polygon fill="none" stroke="#000000" points="615.5,-192.7 615.5,-211.7 770.5,-211.7 770.5,-192.7 615.5,-192.7"/>
<text text-anchor="start" x="618.5" y="-198.8" font-family="Helvetica,sans-Serif" font-size="11.00" fill="#000000">...</text>
<polygon fill="#ffffff" stroke="transparent" points="615.5,-173.7 615.5,-192.7 686.5,-192.7 686.5,-173.7 615.5,-173.7"/>
<polygon fill="none" stroke="#000000" points="615.5,-173.7 615.5,-192.7 686.5,-192.7 686.5,-173.7 615.5,-173.7"/>
<text text-anchor="start" x="618.5" y="-179.8" font-family="Helvetica,sans-Serif" font-size="11.00" fill="#000000">&lt; 2</text>
<polygon fill="#ffffff" stroke="transparent" points="686.5,-173.7 686.5,-192.7 723.5,-192.7 723.5,-173.7 686.5,-173.7"/>
<polygon fill="none" stroke="#000000" points="686.5,-173.7 686.5,-192.7 723.5,-192.7 723.5,-173.7 686.5,-173.7"/>
<text text-anchor="start" x="714.3862" y="-179.8" font-family="Helvetica,sans-Serif" font-size="11.00" fill="#000000"> &#160;</text>
<polygon fill="#ffffff" stroke="transparent" points="723.5,-173.7 723.5,-192.7 770.5,-192.7 770.5,-173.7 723.5,-173.7"/>
<polygon fill="none" stroke="#000000" points="723.5,-173.7 723.5,-192.7 770.5,-192.7 770.5,-173.7 723.5,-173.7"/>
<text text-anchor="start" x="751.9053" y="-179.8" font-family="Helvetica,sans-Serif" font-size="11.00" fill="#000000">2 &gt;</text>
</a>
</g>
</g>
<!-- VisitAttendants&#45;&gt;Visits -->
<g id="edge11" class="edge">
<title>VisitAttendants:w&#45;&gt;Visits:e</title>
<path fill="none" stroke="#000000" d="M849.3498,-288.7C819.2482,-288.7 806.6988,-288.7 770.5,-288.7"/>
<polygon fill="#000000" stroke="#000000" points="856,-288.7001 864,-292.3 860,-288.7 864,-288.7 864,-288.7 864,-288.7 860,-288.7 864,-285.1 856,-288.7001 856,-288.7001"/>
<ellipse fill="none" stroke="#000000" cx="852.8" cy="-288.7001" rx="3.2" ry="3.2"/>
</g>
<!-- Visits&#45;&gt;Hospitalizations -->
<g id="edge14" class="edge">
<title>Visits:w&#45;&gt;Hospitalizations:e</title>
<path fill="none" stroke="#000000" d="M601.8184,-250.1181C560.996,-285.5445 570.9435,-482.7 519,-482.7"/>
<polygon fill="#000000" stroke="#000000" points="608.062,-247.6456 616.8255,-248.0471 611.781,-246.1728 615.5,-244.7 615.5,-244.7 615.5,-244.7 611.781,-246.1728 614.1745,-241.3529 608.062,-247.6456 608.062,-247.6456"/>
<ellipse fill="none" stroke="#000000" cx="605.0868" cy="-248.8238" rx="3.2" ry="3.2"/>
</g>
<!-- ServiceTypes -->
<g id="node13" class="node">
<title>ServiceTypes</title>
<g id="a_node13"><a xlink:href="../../tables/ServiceTypes.html" xlink:title="ServiceTypes" target="_top">
<polygon fill="#ffffff" stroke="transparent" points="325,-148.2 325,-209.2 453,-209.2 453,-148.2 325,-148.2"/>
<polygon fill="#f5f5f5" stroke="transparent" points="325,-185.7 325,-208.7 453,-208.7 453,-185.7 325,-185.7"/>
<polygon fill="none" stroke="#000000" points="325,-185.7 325,-208.7 453,-208.7 453,-185.7 325,-185.7"/>
<text text-anchor="start" x="330" y="-194.3" font-family="Helvetica,sans-Serif" font-weight="bold" font-size="11.00" fill="#000000">ServiceTypes</text>
<text text-anchor="start" x="418.5219" y="-193.8" font-family="Helvetica,sans-Serif" font-size="11.00" fill="#000000">[table]</text>
<polygon fill="none" stroke="#000000" points="325,-166.7 325,-185.7 453,-185.7 453,-166.7 325,-166.7"/>
<text text-anchor="start" x="328" y="-172.8" font-family="Helvetica,sans-Serif" font-size="11.00" fill="#000000">...</text>
<polygon fill="#ffffff" stroke="transparent" points="325,-147.7 325,-166.7 378,-166.7 378,-147.7 325,-147.7"/>
<polygon fill="none" stroke="#000000" points="325,-147.7 325,-166.7 378,-166.7 378,-147.7 325,-147.7"/>
<text text-anchor="start" x="328" y="-153.8" font-family="Helvetica,sans-Serif" font-size="11.00" fill="#000000"> &#160;</text>
<polygon fill="#ffffff" stroke="transparent" points="378,-147.7 378,-166.7 411,-166.7 411,-147.7 378,-147.7"/>
<polygon fill="none" stroke="#000000" points="378,-147.7 378,-166.7 411,-166.7 411,-147.7 378,-147.7"/>
<text text-anchor="start" x="401.8862" y="-153.8" font-family="Helvetica,sans-Serif" font-size="11.00" fill="#000000"> &#160;</text>
<polygon fill="#ffffff" stroke="transparent" points="411,-147.7 411,-166.7 453,-166.7 453,-147.7 411,-147.7"/>
<polygon fill="none" stroke="#000000" points="411,-147.7 411,-166.7 453,-166.7 453,-147.7 411,-147.7"/>
<text text-anchor="start" x="434.4053" y="-153.8" font-family="Helvetica,sans-Serif" font-size="11.00" fill="#000000">1 &gt;</text>
</a>
</g>
</g>
<!-- Visits&#45;&gt;ServiceTypes -->
<g id="edge15" class="edge">
<title>Visits:w&#45;&gt;ServiceTypes:e</title>
<path fill="none" stroke="#000000" d="M600.9253,-222.0711C538.3639,-216.4938 523.043,-175.7 453,-175.7"/>
<polygon fill="#000000" stroke="#000000" points="607.5074,-222.3551 615.3448,-226.2967 611.5037,-222.5275 615.5,-222.7 615.5,-222.7 615.5,-222.7 611.5037,-222.5275 615.6552,-219.1033 607.5074,-222.3551 607.5074,-222.3551"/>
<ellipse fill="none" stroke="#000000" cx="604.3104" cy="-222.2171" rx="3.2" ry="3.2"/>
</g>
<!-- VisitEvents -->
<g id="node12" class="node">
<title>VisitEvents</title>
<g id="a_node12"><a xlink:href="../../tables/VisitEvents.html" xlink:title="VisitEvents" target="_top">
<polygon fill="#ffffff" stroke="transparent" points="879,-109.2 879,-170.2 993,-170.2 993,-109.2 879,-109.2"/>
<polygon fill="#f5f5f5" stroke="transparent" points="879,-146.7 879,-169.7 993,-169.7 993,-146.7 879,-146.7"/>
<polygon fill="none" stroke="#000000" points="879,-146.7 879,-169.7 993,-169.7 993,-146.7 879,-146.7"/>
<text text-anchor="start" x="884" y="-155.3" font-family="Helvetica,sans-Serif" font-weight="bold" font-size="11.00" fill="#000000">VisitEvents</text>
<text text-anchor="start" x="958.5219" y="-154.8" font-family="Helvetica,sans-Serif" font-size="11.00" fill="#000000">[table]</text>
<polygon fill="none" stroke="#000000" points="879,-127.7 879,-146.7 993,-146.7 993,-127.7 879,-127.7"/>
<text text-anchor="start" x="882" y="-133.8" font-family="Helvetica,sans-Serif" font-size="11.00" fill="#000000">...</text>
<polygon fill="#ffffff" stroke="transparent" points="879,-108.7 879,-127.7 934,-127.7 934,-108.7 879,-108.7"/>
<polygon fill="none" stroke="#000000" points="879,-108.7 879,-127.7 934,-127.7 934,-108.7 879,-108.7"/>
<text text-anchor="start" x="882" y="-114.8" font-family="Helvetica,sans-Serif" font-size="11.00" fill="#000000">&lt; 4</text>
<polygon fill="#ffffff" stroke="transparent" points="934,-108.7 934,-127.7 963,-127.7 963,-108.7 934,-108.7"/>
<polygon fill="none" stroke="#000000" points="934,-108.7 934,-127.7 963,-127.7 963,-108.7 934,-108.7"/>
<text text-anchor="start" x="953.8862" y="-114.8" font-family="Helvetica,sans-Serif" font-size="11.00" fill="#000000"> &#160;</text>
<polygon fill="#ffffff" stroke="transparent" points="963,-108.7 963,-127.7 993,-127.7 993,-108.7 963,-108.7"/>
<polygon fill="none" stroke="#000000" points="963,-108.7 963,-127.7 993,-127.7 993,-108.7 963,-108.7"/>
<text text-anchor="start" x="983.8862" y="-114.8" font-family="Helvetica,sans-Serif" font-size="11.00" fill="#000000"> &#160;</text>
</a>
</g>
</g>
<!-- VisitEvents&#45;&gt;Identity.Users -->
<g id="edge12" class="edge">
<title>VisitEvents:w&#45;&gt;Identity.Users:e</title>
<path fill="none" stroke="#000000" d="M864.8746,-133.5453C846.5599,-123.6618 849.6203,-93.2694 823,-81.7 673.264,-16.6237 619.266,-65.7 456,-65.7"/>
<polygon fill="#000000" stroke="#000000" points="871.1923,-134.9562 878.2153,-140.2134 875.0962,-135.8281 879,-136.7 879,-136.7 879,-136.7 875.0962,-135.8281 879.7847,-133.1866 871.1923,-134.9562 871.1923,-134.9562"/>
<ellipse fill="none" stroke="#000000" cx="868.0693" cy="-134.2587" rx="3.2" ry="3.2"/>
</g>
<!-- VisitEvents&#45;&gt;Visits -->
<g id="edge13" class="edge">
<title>VisitEvents:w&#45;&gt;Visits:e</title>
<path fill="none" stroke="#000000" d="M864.6268,-138.5129C802.8278,-155.6623 848.1512,-288.7 770.5,-288.7"/>
<polygon fill="#000000" stroke="#000000" points="871.0629,-137.7012 879.4505,-140.2717 875.0314,-137.2006 879,-136.7 879,-136.7 879,-136.7 875.0314,-137.2006 878.5495,-133.1283 871.0629,-137.7012 871.0629,-137.7012"/>
<ellipse fill="none" stroke="#000000" cx="867.888" cy="-138.1016" rx="3.2" ry="3.2"/>
</g>
</g>
</svg>
