<?xml version="1.0" encoding="UTF-8" standalone="no"?>
<!DOCTYPE svg PUBLIC "-//W3C//DTD SVG 1.1//EN"
 "http://www.w3.org/Graphics/SVG/1.1/DTD/svg11.dtd">
<!-- Generated by graphviz version 2.40.1 (20161225.0304)
 -->
<!-- Title: twoDegreesRelationshipsDiagram Pages: 1 -->
<svg width="782pt" height="415pt"
 viewBox="0.00 0.00 782.00 415.20" xmlns="http://www.w3.org/2000/svg" xmlns:xlink="http://www.w3.org/1999/xlink">
<g id="graph0" class="graph" transform="scale(1 1) rotate(0) translate(4 411.2)">
<title>twoDegreesRelationshipsDiagram</title>
<polygon fill="#ffffff" stroke="transparent" points="-4,4 -4,-411.2 778,-411.2 778,4 -4,4"/>
<text text-anchor="middle" x="72.4936" y="-7.3" font-family="Helvetica,sans-Serif" font-size="11.00" fill="#000000">Generated by SchemaSpy</text>
<!-- HospitalizationInsurances -->
<g id="node1" class="node">
<title>HospitalizationInsurances</title>
<g id="a_node1"><a xlink:href="../../tables/HospitalizationInsurances.html" xlink:title="HospitalizationInsurances" target="_top">
<polygon fill="#ffffff" stroke="transparent" points="485,-120.7 485,-320.7 766,-320.7 766,-120.7 485,-120.7"/>
<polygon fill="#f5f5f5" stroke="transparent" points="487.5,-295.7 487.5,-318.7 764.5,-318.7 764.5,-295.7 487.5,-295.7"/>
<polygon fill="none" stroke="#000000" points="487.5,-295.7 487.5,-318.7 764.5,-318.7 764.5,-295.7 487.5,-295.7"/>
<text text-anchor="start" x="492.5" y="-304.3" font-family="Helvetica,sans-Serif" font-weight="bold" font-size="11.00" fill="#000000">HospitalizationInsurances</text>
<text text-anchor="start" x="729.5437" y="-303.8" font-family="Helvetica,sans-Serif" font-size="11.00" fill="#000000">[table]</text>
<polygon fill="none" stroke="#000000" points="487.5,-273.7 487.5,-295.7 683.5,-295.7 683.5,-273.7 487.5,-273.7"/>
<image xlink:href="../../images/primaryKeys.png" width="11px" height="12px" preserveAspectRatio="xMinYMin meet" x="492.5" y="-290.7"/>
<text text-anchor="start" x="507.5" y="-280.8" font-family="Helvetica,sans-Serif" font-size="11.00" fill="#000000">Id</text>
<polygon fill="none" stroke="#000000" points="683.5,-273.7 683.5,-295.7 764.5,-295.7 764.5,-273.7 683.5,-273.7"/>
<text text-anchor="start" x="686.5" y="-281.4" font-family="Helvetica,sans-Serif" font-size="11.00" fill="#000000">int identity[4]</text>
<polygon fill="#ffffff" stroke="transparent" points="487.5,-251.7 487.5,-273.7 683.5,-273.7 683.5,-251.7 487.5,-251.7"/>
<polygon fill="none" stroke="#000000" points="487.5,-251.7 487.5,-273.7 683.5,-273.7 683.5,-251.7 487.5,-251.7"/>
<image xlink:href="../../images/foreignKeys.png" width="11px" height="12px" preserveAspectRatio="xMinYMin meet" x="492.5" y="-268.7"/>
<text text-anchor="start" x="507.5" y="-258.8" font-family="Helvetica,sans-Serif" font-size="11.00" fill="#000000">HospitalizationId</text>
<polygon fill="none" stroke="#000000" points="683.5,-251.7 683.5,-273.7 764.5,-273.7 764.5,-251.7 683.5,-251.7"/>
<text text-anchor="start" x="686.5" y="-259.4" font-family="Helvetica,sans-Serif" font-size="11.00" fill="#000000">int[4]</text>
<polygon fill="#ffffff" stroke="transparent" points="487.5,-229.7 487.5,-251.7 683.5,-251.7 683.5,-229.7 487.5,-229.7"/>
<polygon fill="none" stroke="#000000" points="487.5,-229.7 487.5,-251.7 683.5,-251.7 683.5,-229.7 487.5,-229.7"/>
<image xlink:href="../../images/foreignKeys.png" width="11px" height="12px" preserveAspectRatio="xMinYMin meet" x="492.5" y="-246.7"/>
<text text-anchor="start" x="507.5" y="-236.8" font-family="Helvetica,sans-Serif" font-size="11.00" fill="#000000">InsuranceId</text>
<polygon fill="none" stroke="#000000" points="683.5,-229.7 683.5,-251.7 764.5,-251.7 764.5,-229.7 683.5,-229.7"/>
<text text-anchor="start" x="686.5" y="-237.4" font-family="Helvetica,sans-Serif" font-size="11.00" fill="#000000">int[4]</text>
<polygon fill="none" stroke="#000000" points="487.5,-207.7 487.5,-229.7 683.5,-229.7 683.5,-207.7 487.5,-207.7"/>
<text text-anchor="start" x="507.5" y="-214.8" font-family="Helvetica,sans-Serif" font-size="11.00" fill="#000000">StartDate</text>
<polygon fill="none" stroke="#000000" points="683.5,-207.7 683.5,-229.7 764.5,-229.7 764.5,-207.7 683.5,-207.7"/>
<text text-anchor="start" x="686.0968" y="-215.4" font-family="Helvetica,sans-Serif" font-size="11.00" fill="#000000">datetime2[16,7]</text>
<polygon fill="none" stroke="#000000" points="487.5,-185.7 487.5,-207.7 683.5,-207.7 683.5,-185.7 487.5,-185.7"/>
<text text-anchor="start" x="507.5" y="-192.8" font-family="Helvetica,sans-Serif" font-size="11.00" fill="#000000">CreatedAtUtc</text>
<polygon fill="none" stroke="#000000" points="683.5,-185.7 683.5,-207.7 764.5,-207.7 764.5,-185.7 683.5,-185.7"/>
<text text-anchor="start" x="686.0968" y="-193.4" font-family="Helvetica,sans-Serif" font-size="11.00" fill="#000000">datetime2[16,7]</text>
<polygon fill="none" stroke="#000000" points="487.5,-163.7 487.5,-185.7 683.5,-185.7 683.5,-163.7 487.5,-163.7"/>
<text text-anchor="start" x="507.5" y="-170.8" font-family="Helvetica,sans-Serif" font-size="11.00" fill="#000000">UpdatedAtUtc</text>
<polygon fill="none" stroke="#000000" points="683.5,-163.7 683.5,-185.7 764.5,-185.7 764.5,-163.7 683.5,-163.7"/>
<text text-anchor="start" x="686.0968" y="-171.4" font-family="Helvetica,sans-Serif" font-size="11.00" fill="#000000">datetime2[16,7]</text>
<polygon fill="none" stroke="#000000" points="487.5,-141.7 487.5,-163.7 683.5,-163.7 683.5,-141.7 487.5,-141.7"/>
<text text-anchor="start" x="507.5" y="-148.8" font-family="Helvetica,sans-Serif" font-size="11.00" fill="#000000">RowVersion</text>
<polygon fill="none" stroke="#000000" points="683.5,-141.7 683.5,-163.7 764.5,-163.7 764.5,-141.7 683.5,-141.7"/>
<text text-anchor="start" x="686.5" y="-149.4" font-family="Helvetica,sans-Serif" font-size="11.00" fill="#000000">timestamp[8]</text>
<polygon fill="#ffffff" stroke="transparent" points="487.5,-122.7 487.5,-141.7 589.5,-141.7 589.5,-122.7 487.5,-122.7"/>
<polygon fill="none" stroke="#000000" points="487.5,-122.7 487.5,-141.7 589.5,-141.7 589.5,-122.7 487.5,-122.7"/>
<text text-anchor="start" x="490.5" y="-128.8" font-family="Helvetica,sans-Serif" font-size="11.00" fill="#000000">&lt; 2</text>
<polygon fill="#ffffff" stroke="transparent" points="589.5,-122.7 589.5,-141.7 683.5,-141.7 683.5,-122.7 589.5,-122.7"/>
<polygon fill="none" stroke="#000000" points="589.5,-122.7 589.5,-141.7 683.5,-141.7 683.5,-122.7 589.5,-122.7"/>
<text text-anchor="start" x="674.3862" y="-128.8" font-family="Helvetica,sans-Serif" font-size="11.00" fill="#000000"> &#160;</text>
<polygon fill="#ffffff" stroke="transparent" points="683.5,-122.7 683.5,-141.7 764.5,-141.7 764.5,-122.7 683.5,-122.7"/>
<polygon fill="none" stroke="#000000" points="683.5,-122.7 683.5,-141.7 764.5,-141.7 764.5,-122.7 683.5,-122.7"/>
<text text-anchor="start" x="745.9053" y="-128.8" font-family="Helvetica,sans-Serif" font-size="11.00" fill="#000000">0 &gt;</text>
<polygon fill="none" stroke="#000000" stroke-width="2" points="486,-121.7 486,-319.7 765,-319.7 765,-121.7 486,-121.7"/>
</a>
</g>
</g>
<!-- Hospitalizations -->
<g id="node2" class="node">
<title>Hospitalizations</title>
<g id="a_node2"><a xlink:href="../../tables/Hospitalizations.html" xlink:title="Hospitalizations" target="_top">
<polygon fill="#ffffff" stroke="transparent" points="257,-194.2 257,-365.2 436,-365.2 436,-194.2 257,-194.2"/>
<polygon fill="#f5f5f5" stroke="transparent" points="257.5,-341.7 257.5,-364.7 436.5,-364.7 436.5,-341.7 257.5,-341.7"/>
<polygon fill="none" stroke="#000000" points="257.5,-341.7 257.5,-364.7 436.5,-364.7 436.5,-341.7 257.5,-341.7"/>
<text text-anchor="start" x="262.5" y="-350.3" font-family="Helvetica,sans-Serif" font-weight="bold" font-size="11.00" fill="#000000">Hospitalizations</text>
<text text-anchor="start" x="401.5437" y="-349.8" font-family="Helvetica,sans-Serif" font-size="11.00" fill="#000000">[table]</text>
<polygon fill="none" stroke="#000000" points="257.5,-319.7 257.5,-341.7 436.5,-341.7 436.5,-319.7 257.5,-319.7"/>
<image xlink:href="../../images/primaryKeys.png" width="11px" height="12px" preserveAspectRatio="xMinYMin meet" x="262.5" y="-336.7"/>
<text text-anchor="start" x="277.5" y="-326.8" font-family="Helvetica,sans-Serif" font-size="11.00" fill="#000000">Id</text>
<polygon fill="#ffffff" stroke="transparent" points="257.5,-297.7 257.5,-319.7 436.5,-319.7 436.5,-297.7 257.5,-297.7"/>
<polygon fill="none" stroke="#000000" points="257.5,-297.7 257.5,-319.7 436.5,-319.7 436.5,-297.7 257.5,-297.7"/>
<image xlink:href="../../images/foreignKeys.png" width="11px" height="12px" preserveAspectRatio="xMinYMin meet" x="262.5" y="-314.7"/>
<text text-anchor="start" x="277.5" y="-304.8" font-family="Helvetica,sans-Serif" font-size="11.00" fill="#000000">PatientId</text>
<polygon fill="#ffffff" stroke="transparent" points="257.5,-275.7 257.5,-297.7 436.5,-297.7 436.5,-275.7 257.5,-275.7"/>
<polygon fill="none" stroke="#000000" points="257.5,-275.7 257.5,-297.7 436.5,-297.7 436.5,-275.7 257.5,-275.7"/>
<text text-anchor="start" x="277.5" y="-282.8" font-family="Helvetica,sans-Serif" font-size="11.00" fill="#000000">CaseId</text>
<polygon fill="#ffffff" stroke="transparent" points="257.5,-253.7 257.5,-275.7 436.5,-275.7 436.5,-253.7 257.5,-253.7"/>
<polygon fill="none" stroke="#000000" points="257.5,-253.7 257.5,-275.7 436.5,-275.7 436.5,-253.7 257.5,-253.7"/>
<image xlink:href="../../images/foreignKeys.png" width="11px" height="12px" preserveAspectRatio="xMinYMin meet" x="262.5" y="-270.7"/>
<text text-anchor="start" x="277.5" y="-260.8" font-family="Helvetica,sans-Serif" font-size="11.00" fill="#000000">FacilityId</text>
<polygon fill="none" stroke="#000000" points="257.5,-231.7 257.5,-253.7 436.5,-253.7 436.5,-231.7 257.5,-231.7"/>
<image xlink:href="../../images/foreignKeys.png" width="11px" height="12px" preserveAspectRatio="xMinYMin meet" x="262.5" y="-248.7"/>
<text text-anchor="start" x="277.5" y="-238.8" font-family="Helvetica,sans-Serif" font-size="11.00" fill="#000000">HospitalizationStatusId</text>
<polygon fill="none" stroke="#000000" points="257.5,-212.7 257.5,-231.7 436.5,-231.7 436.5,-212.7 257.5,-212.7"/>
<text text-anchor="start" x="260.5" y="-218.8" font-family="Helvetica,sans-Serif" font-size="11.00" fill="#000000">...</text>
<polygon fill="#ffffff" stroke="transparent" points="257.5,-193.7 257.5,-212.7 340.5,-212.7 340.5,-193.7 257.5,-193.7"/>
<polygon fill="none" stroke="#000000" points="257.5,-193.7 257.5,-212.7 340.5,-212.7 340.5,-193.7 257.5,-193.7"/>
<text text-anchor="start" x="260.5" y="-199.8" font-family="Helvetica,sans-Serif" font-size="11.00" fill="#000000">&lt; 3</text>
<polygon fill="#ffffff" stroke="transparent" points="340.5,-193.7 340.5,-212.7 383.5,-212.7 383.5,-193.7 340.5,-193.7"/>
<polygon fill="none" stroke="#000000" points="340.5,-193.7 340.5,-212.7 383.5,-212.7 383.5,-193.7 340.5,-193.7"/>
<text text-anchor="start" x="374.3862" y="-199.8" font-family="Helvetica,sans-Serif" font-size="11.00" fill="#000000"> &#160;</text>
<polygon fill="#ffffff" stroke="transparent" points="383.5,-193.7 383.5,-212.7 436.5,-212.7 436.5,-193.7 383.5,-193.7"/>
<polygon fill="none" stroke="#000000" points="383.5,-193.7 383.5,-212.7 436.5,-212.7 436.5,-193.7 383.5,-193.7"/>
<text text-anchor="start" x="417.9053" y="-199.8" font-family="Helvetica,sans-Serif" font-size="11.00" fill="#000000">3 &gt;</text>
</a>
</g>
</g>
<!-- HospitalizationInsurances&#45;&gt;Hospitalizations -->
<g id="edge1" class="edge">
<title>HospitalizationInsurances:w&#45;&gt;Hospitalizations:e</title>
<path fill="none" stroke="#000000" d="M473.3891,-267.5904C456.1017,-283.1822 468.0799,-330.7 436.5,-330.7"/>
<polygon fill="#000000" stroke="#000000" points="479.9411,-265.3197 488.6789,-266.1015 483.7205,-264.0099 487.5,-262.7 487.5,-262.7 487.5,-262.7 483.7205,-264.0099 486.3211,-259.2985 479.9411,-265.3197 479.9411,-265.3197"/>
<ellipse fill="none" stroke="#000000" cx="476.9175" cy="-266.3676" rx="3.2" ry="3.2"/>
</g>
<!-- Insurances -->
<g id="node3" class="node">
<title>Insurances</title>
<g id="a_node3"><a xlink:href="../../tables/Insurances.html" xlink:title="Insurances" target="_top">
<polygon fill="#ffffff" stroke="transparent" points="275,-90.2 275,-173.2 418,-173.2 418,-90.2 275,-90.2"/>
<polygon fill="#f5f5f5" stroke="transparent" points="275.5,-149.7 275.5,-172.7 418.5,-172.7 418.5,-149.7 275.5,-149.7"/>
<polygon fill="none" stroke="#000000" points="275.5,-149.7 275.5,-172.7 418.5,-172.7 418.5,-149.7 275.5,-149.7"/>
<text text-anchor="start" x="280.5" y="-158.3" font-family="Helvetica,sans-Serif" font-weight="bold" font-size="11.00" fill="#000000">Insurances</text>
<text text-anchor="start" x="383.5437" y="-157.8" font-family="Helvetica,sans-Serif" font-size="11.00" fill="#000000">[table]</text>
<polygon fill="none" stroke="#000000" points="275.5,-127.7 275.5,-149.7 418.5,-149.7 418.5,-127.7 275.5,-127.7"/>
<image xlink:href="../../images/primaryKeys.png" width="11px" height="12px" preserveAspectRatio="xMinYMin meet" x="280.5" y="-144.7"/>
<text text-anchor="start" x="295.5" y="-134.8" font-family="Helvetica,sans-Serif" font-size="11.00" fill="#000000">Id</text>
<polygon fill="none" stroke="#000000" points="275.5,-108.7 275.5,-127.7 418.5,-127.7 418.5,-108.7 275.5,-108.7"/>
<text text-anchor="start" x="278.5" y="-114.8" font-family="Helvetica,sans-Serif" font-size="11.00" fill="#000000">...</text>
<polygon fill="#ffffff" stroke="transparent" points="275.5,-89.7 275.5,-108.7 336.5,-108.7 336.5,-89.7 275.5,-89.7"/>
<polygon fill="none" stroke="#000000" points="275.5,-89.7 275.5,-108.7 336.5,-108.7 336.5,-89.7 275.5,-89.7"/>
<text text-anchor="start" x="278.5" y="-95.8" font-family="Helvetica,sans-Serif" font-size="11.00" fill="#000000"> &#160;</text>
<polygon fill="#ffffff" stroke="transparent" points="336.5,-89.7 336.5,-108.7 372.5,-108.7 372.5,-89.7 336.5,-89.7"/>
<polygon fill="none" stroke="#000000" points="336.5,-89.7 336.5,-108.7 372.5,-108.7 372.5,-89.7 336.5,-89.7"/>
<text text-anchor="start" x="363.3862" y="-95.8" font-family="Helvetica,sans-Serif" font-size="11.00" fill="#000000"> &#160;</text>
<polygon fill="#ffffff" stroke="transparent" points="372.5,-89.7 372.5,-108.7 418.5,-108.7 418.5,-89.7 372.5,-89.7"/>
<polygon fill="none" stroke="#000000" points="372.5,-89.7 372.5,-108.7 418.5,-108.7 418.5,-89.7 372.5,-89.7"/>
<text text-anchor="start" x="399.9053" y="-95.8" font-family="Helvetica,sans-Serif" font-size="11.00" fill="#000000">1 &gt;</text>
</a>
</g>
</g>
<!-- HospitalizationInsurances&#45;&gt;Insurances -->
<g id="edge2" class="edge">
<title>HospitalizationInsurances:w&#45;&gt;Insurances:e</title>
<path fill="none" stroke="#000000" d="M473.1359,-237.5355C440.2446,-220.319 467.4592,-138.7 418.5,-138.7"/>
<polygon fill="#000000" stroke="#000000" points="479.6873,-238.9788 486.7254,-244.2157 483.5937,-239.8394 487.5,-240.7 487.5,-240.7 487.5,-240.7 483.5937,-239.8394 488.2746,-237.1843 479.6873,-238.9788 479.6873,-238.9788"/>
<ellipse fill="none" stroke="#000000" cx="476.5623" cy="-238.2903" rx="3.2" ry="3.2"/>
</g>
<!-- Facilities -->
<g id="node4" class="node">
<title>Facilities</title>
<g id="a_node4"><a xlink:href="../../tables/Facilities.html" xlink:title="Facilities" target="_top">
<polygon fill="#ffffff" stroke="transparent" points="58.5,-218.2 58.5,-279.2 157.5,-279.2 157.5,-218.2 58.5,-218.2"/>
<polygon fill="#f5f5f5" stroke="transparent" points="59,-255.7 59,-278.7 158,-278.7 158,-255.7 59,-255.7"/>
<polygon fill="none" stroke="#000000" points="59,-255.7 59,-278.7 158,-278.7 158,-255.7 59,-255.7"/>
<text text-anchor="start" x="64" y="-264.3" font-family="Helvetica,sans-Serif" font-weight="bold" font-size="11.00" fill="#000000">Facilities</text>
<text text-anchor="start" x="123.5219" y="-263.8" font-family="Helvetica,sans-Serif" font-size="11.00" fill="#000000">[table]</text>
<polygon fill="none" stroke="#000000" points="59,-236.7 59,-255.7 158,-255.7 158,-236.7 59,-236.7"/>
<text text-anchor="start" x="62" y="-242.8" font-family="Helvetica,sans-Serif" font-size="11.00" fill="#000000">...</text>
<polygon fill="#ffffff" stroke="transparent" points="59,-217.7 59,-236.7 98,-236.7 98,-217.7 59,-217.7"/>
<polygon fill="none" stroke="#000000" points="59,-217.7 59,-236.7 98,-236.7 98,-217.7 59,-217.7"/>
<text text-anchor="start" x="62" y="-223.8" font-family="Helvetica,sans-Serif" font-size="11.00" fill="#000000"> &#160;</text>
<polygon fill="#ffffff" stroke="transparent" points="98,-217.7 98,-236.7 123,-236.7 123,-217.7 98,-217.7"/>
<polygon fill="none" stroke="#000000" points="98,-217.7 98,-236.7 123,-236.7 123,-217.7 98,-217.7"/>
<text text-anchor="start" x="113.8862" y="-223.8" font-family="Helvetica,sans-Serif" font-size="11.00" fill="#000000"> &#160;</text>
<polygon fill="#ffffff" stroke="transparent" points="123,-217.7 123,-236.7 158,-236.7 158,-217.7 123,-217.7"/>
<polygon fill="none" stroke="#000000" points="123,-217.7 123,-236.7 158,-236.7 158,-217.7 123,-217.7"/>
<text text-anchor="start" x="139.4053" y="-223.8" font-family="Helvetica,sans-Serif" font-size="11.00" fill="#000000">2 &gt;</text>
</a>
</g>
</g>
<!-- Hospitalizations&#45;&gt;Facilities -->
<g id="edge3" class="edge">
<title>Hospitalizations:w&#45;&gt;Facilities:e</title>
<path fill="none" stroke="#000000" d="M243.0229,-263.9784C209.7738,-260.5078 197.7453,-245.7 158,-245.7"/>
<polygon fill="#000000" stroke="#000000" points="249.5099,-264.3017 257.3208,-268.2955 253.505,-264.5008 257.5,-264.7 257.5,-264.7 257.5,-264.7 253.505,-264.5008 257.6792,-261.1045 249.5099,-264.3017 249.5099,-264.3017"/>
<ellipse fill="none" stroke="#000000" cx="246.3139" cy="-264.1423" rx="3.2" ry="3.2"/>
</g>
<!-- HospitalizationStatuses -->
<g id="node5" class="node">
<title>HospitalizationStatuses</title>
<g id="a_node5"><a xlink:href="../../tables/HospitalizationStatuses.html" xlink:title="HospitalizationStatuses" target="_top">
<polygon fill="#ffffff" stroke="transparent" points="8,-97.2 8,-158.2 208,-158.2 208,-97.2 8,-97.2"/>
<polygon fill="#f5f5f5" stroke="transparent" points="8,-134.7 8,-157.7 208,-157.7 208,-134.7 8,-134.7"/>
<polygon fill="none" stroke="#000000" points="8,-134.7 8,-157.7 208,-157.7 208,-134.7 8,-134.7"/>
<text text-anchor="start" x="13" y="-143.3" font-family="Helvetica,sans-Serif" font-weight="bold" font-size="11.00" fill="#000000">HospitalizationStatuses</text>
<text text-anchor="start" x="173.5219" y="-142.8" font-family="Helvetica,sans-Serif" font-size="11.00" fill="#000000">[table]</text>
<polygon fill="none" stroke="#000000" points="8,-115.7 8,-134.7 208,-134.7 208,-115.7 8,-115.7"/>
<text text-anchor="start" x="11" y="-121.8" font-family="Helvetica,sans-Serif" font-size="11.00" fill="#000000">...</text>
<polygon fill="#ffffff" stroke="transparent" points="8,-96.7 8,-115.7 97,-115.7 97,-96.7 8,-96.7"/>
<polygon fill="none" stroke="#000000" points="8,-96.7 8,-115.7 97,-115.7 97,-96.7 8,-96.7"/>
<text text-anchor="start" x="11" y="-102.8" font-family="Helvetica,sans-Serif" font-size="11.00" fill="#000000"> &#160;</text>
<polygon fill="#ffffff" stroke="transparent" points="97,-96.7 97,-115.7 148,-115.7 148,-96.7 97,-96.7"/>
<polygon fill="none" stroke="#000000" points="97,-96.7 97,-115.7 148,-115.7 148,-96.7 97,-96.7"/>
<text text-anchor="start" x="138.8862" y="-102.8" font-family="Helvetica,sans-Serif" font-size="11.00" fill="#000000"> &#160;</text>
<polygon fill="#ffffff" stroke="transparent" points="148,-96.7 148,-115.7 208,-115.7 208,-96.7 148,-96.7"/>
<polygon fill="none" stroke="#000000" points="148,-96.7 148,-115.7 208,-115.7 208,-96.7 148,-96.7"/>
<text text-anchor="start" x="189.4053" y="-102.8" font-family="Helvetica,sans-Serif" font-size="11.00" fill="#000000">2 &gt;</text>
</a>
</g>
</g>
<!-- Hospitalizations&#45;&gt;HospitalizationStatuses -->
<g id="edge4" class="edge">
<title>Hospitalizations:w&#45;&gt;HospitalizationStatuses:e</title>
<path fill="none" stroke="#000000" d="M243.2629,-239.0391C212.8322,-219.122 258.8737,-124.7 208,-124.7"/>
<polygon fill="#000000" stroke="#000000" points="249.752,-240.7077 256.6034,-246.1866 253.626,-241.7038 257.5,-242.7 257.5,-242.7 257.5,-242.7 253.626,-241.7038 258.3966,-239.2134 249.752,-240.7077 249.752,-240.7077"/>
<ellipse fill="none" stroke="#000000" cx="246.6529" cy="-239.9107" rx="3.2" ry="3.2"/>
</g>
<!-- Patients -->
<g id="node6" class="node">
<title>Patients</title>
<g id="a_node6"><a xlink:href="../../tables/Patients.html" xlink:title="Patients" target="_top">
<polygon fill="#ffffff" stroke="transparent" points="60.5,-300.2 60.5,-361.2 155.5,-361.2 155.5,-300.2 60.5,-300.2"/>
<polygon fill="#f5f5f5" stroke="transparent" points="61,-337.7 61,-360.7 156,-360.7 156,-337.7 61,-337.7"/>
<polygon fill="none" stroke="#000000" points="61,-337.7 61,-360.7 156,-360.7 156,-337.7 61,-337.7"/>
<text text-anchor="start" x="66" y="-346.3" font-family="Helvetica,sans-Serif" font-weight="bold" font-size="11.00" fill="#000000">Patients</text>
<text text-anchor="start" x="121.5219" y="-345.8" font-family="Helvetica,sans-Serif" font-size="11.00" fill="#000000">[table]</text>
<polygon fill="none" stroke="#000000" points="61,-318.7 61,-337.7 156,-337.7 156,-318.7 61,-318.7"/>
<text text-anchor="start" x="64" y="-324.8" font-family="Helvetica,sans-Serif" font-size="11.00" fill="#000000">...</text>
<polygon fill="#ffffff" stroke="transparent" points="61,-299.7 61,-318.7 98,-318.7 98,-299.7 61,-299.7"/>
<polygon fill="none" stroke="#000000" points="61,-299.7 61,-318.7 98,-318.7 98,-299.7 61,-299.7"/>
<text text-anchor="start" x="64" y="-305.8" font-family="Helvetica,sans-Serif" font-size="11.00" fill="#000000"> &#160;</text>
<polygon fill="#ffffff" stroke="transparent" points="98,-299.7 98,-318.7 122,-318.7 122,-299.7 98,-299.7"/>
<polygon fill="none" stroke="#000000" points="98,-299.7 98,-318.7 122,-318.7 122,-299.7 98,-299.7"/>
<text text-anchor="start" x="112.8862" y="-305.8" font-family="Helvetica,sans-Serif" font-size="11.00" fill="#000000"> &#160;</text>
<polygon fill="#ffffff" stroke="transparent" points="122,-299.7 122,-318.7 156,-318.7 156,-299.7 122,-299.7"/>
<polygon fill="none" stroke="#000000" points="122,-299.7 122,-318.7 156,-318.7 156,-299.7 122,-299.7"/>
<text text-anchor="start" x="137.4053" y="-305.8" font-family="Helvetica,sans-Serif" font-size="11.00" fill="#000000">2 &gt;</text>
</a>
</g>
</g>
<!-- Hospitalizations&#45;&gt;Patients -->
<g id="edge5" class="edge">
<title>Hospitalizations:w&#45;&gt;Patients:e</title>
<path fill="none" stroke="#000000" d="M242.7394,-309.4216C208.8325,-312.8922 196.5164,-327.7 156,-327.7"/>
<polygon fill="#000000" stroke="#000000" points="249.5095,-309.0907 257.6758,-312.2957 253.5048,-308.8953 257.5,-308.7 257.5,-308.7 257.5,-308.7 253.5048,-308.8953 257.3242,-305.1043 249.5095,-309.0907 249.5095,-309.0907"/>
<ellipse fill="none" stroke="#000000" cx="246.3134" cy="-309.247" rx="3.2" ry="3.2"/>
</g>
<!-- HospitalizationStatusHistories -->
<g id="node7" class="node">
<title>HospitalizationStatusHistories</title>
<g id="a_node7"><a xlink:href="../../tables/HospitalizationStatusHistories.html" xlink:title="HospitalizationStatusHistories" target="_top">
<polygon fill="#ffffff" stroke="transparent" points="503,-38.2 503,-99.2 748,-99.2 748,-38.2 503,-38.2"/>
<polygon fill="#f5f5f5" stroke="transparent" points="503.5,-75.7 503.5,-98.7 748.5,-98.7 748.5,-75.7 503.5,-75.7"/>
<polygon fill="none" stroke="#000000" points="503.5,-75.7 503.5,-98.7 748.5,-98.7 748.5,-75.7 503.5,-75.7"/>
<text text-anchor="start" x="508.5" y="-84.3" font-family="Helvetica,sans-Serif" font-weight="bold" font-size="11.00" fill="#000000">HospitalizationStatusHistories</text>
<text text-anchor="start" x="714.0219" y="-83.8" font-family="Helvetica,sans-Serif" font-size="11.00" fill="#000000">[table]</text>
<polygon fill="none" stroke="#000000" points="503.5,-56.7 503.5,-75.7 748.5,-75.7 748.5,-56.7 503.5,-56.7"/>
<text text-anchor="start" x="506.5" y="-62.8" font-family="Helvetica,sans-Serif" font-size="11.00" fill="#000000">...</text>
<polygon fill="#ffffff" stroke="transparent" points="503.5,-37.7 503.5,-56.7 624.5,-56.7 624.5,-37.7 503.5,-37.7"/>
<polygon fill="none" stroke="#000000" points="503.5,-37.7 503.5,-56.7 624.5,-56.7 624.5,-37.7 503.5,-37.7"/>
<text text-anchor="start" x="506.5" y="-43.8" font-family="Helvetica,sans-Serif" font-size="11.00" fill="#000000">&lt; 3</text>
<polygon fill="#ffffff" stroke="transparent" points="624.5,-37.7 624.5,-56.7 686.5,-56.7 686.5,-37.7 624.5,-37.7"/>
<polygon fill="none" stroke="#000000" points="624.5,-37.7 624.5,-56.7 686.5,-56.7 686.5,-37.7 624.5,-37.7"/>
<text text-anchor="start" x="677.3862" y="-43.8" font-family="Helvetica,sans-Serif" font-size="11.00" fill="#000000"> &#160;</text>
<polygon fill="#ffffff" stroke="transparent" points="686.5,-37.7 686.5,-56.7 748.5,-56.7 748.5,-37.7 686.5,-37.7"/>
<polygon fill="none" stroke="#000000" points="686.5,-37.7 686.5,-56.7 748.5,-56.7 748.5,-37.7 686.5,-37.7"/>
<text text-anchor="start" x="739.3862" y="-43.8" font-family="Helvetica,sans-Serif" font-size="11.00" fill="#000000"> &#160;</text>
</a>
</g>
</g>
<!-- HospitalizationStatusHistories&#45;&gt;Hospitalizations -->
<g id="edge6" class="edge">
<title>HospitalizationStatusHistories:w&#45;&gt;Hospitalizations:e</title>
<path fill="none" stroke="#000000" d="M489.7513,-71.7328C451.6181,-111.1781 491.7846,-330.7 436.5,-330.7"/>
<polygon fill="#000000" stroke="#000000" points="496.1742,-68.9145 504.9465,-68.9966 499.8371,-67.3073 503.5,-65.7 503.5,-65.7 503.5,-65.7 499.8371,-67.3073 502.0535,-62.4034 496.1742,-68.9145 496.1742,-68.9145"/>
<ellipse fill="none" stroke="#000000" cx="493.2439" cy="-70.2003" rx="3.2" ry="3.2"/>
</g>
<!-- HospitalizationStatusHistories&#45;&gt;HospitalizationStatuses -->
<g id="edge7" class="edge">
<title>HospitalizationStatusHistories:w&#45;&gt;HospitalizationStatuses:e</title>
<path fill="none" stroke="#000000" d="M488.9846,-65.5095C386.6772,-62.8196 346.83,-33.2347 249,-79.7 224.5602,-91.3079 235.0564,-124.7 208,-124.7"/>
<polygon fill="#000000" stroke="#000000" points="495.5007,-65.595 503.4527,-69.2997 499.5003,-65.6475 503.5,-65.7 503.5,-65.7 503.5,-65.7 499.5003,-65.6475 503.5473,-62.1003 495.5007,-65.595 495.5007,-65.595"/>
<ellipse fill="none" stroke="#000000" cx="492.301" cy="-65.553" rx="3.2" ry="3.2"/>
</g>
<!-- Visits -->
<g id="node8" class="node">
<title>Visits</title>
<g id="a_node8"><a xlink:href="../../tables/Visits.html" xlink:title="Visits" target="_top">
<polygon fill="#ffffff" stroke="transparent" points="587.5,-342.2 587.5,-403.2 663.5,-403.2 663.5,-342.2 587.5,-342.2"/>
<polygon fill="#f5f5f5" stroke="transparent" points="587.5,-379.7 587.5,-402.7 663.5,-402.7 663.5,-379.7 587.5,-379.7"/>
<polygon fill="none" stroke="#000000" points="587.5,-379.7 587.5,-402.7 663.5,-402.7 663.5,-379.7 587.5,-379.7"/>
<text text-anchor="start" x="592.5" y="-388.3" font-family="Helvetica,sans-Serif" font-weight="bold" font-size="11.00" fill="#000000">Visits</text>
<text text-anchor="start" x="629.0219" y="-387.8" font-family="Helvetica,sans-Serif" font-size="11.00" fill="#000000">[table]</text>
<polygon fill="none" stroke="#000000" points="587.5,-360.7 587.5,-379.7 663.5,-379.7 663.5,-360.7 587.5,-360.7"/>
<text text-anchor="start" x="590.5" y="-366.8" font-family="Helvetica,sans-Serif" font-size="11.00" fill="#000000">...</text>
<polygon fill="#ffffff" stroke="transparent" points="587.5,-341.7 587.5,-360.7 619.5,-360.7 619.5,-341.7 587.5,-341.7"/>
<polygon fill="none" stroke="#000000" points="587.5,-341.7 587.5,-360.7 619.5,-360.7 619.5,-341.7 587.5,-341.7"/>
<text text-anchor="start" x="590.5" y="-347.8" font-family="Helvetica,sans-Serif" font-size="11.00" fill="#000000">&lt; 2</text>
<polygon fill="#ffffff" stroke="transparent" points="619.5,-341.7 619.5,-360.7 636.5,-360.7 636.5,-341.7 619.5,-341.7"/>
<polygon fill="none" stroke="#000000" points="619.5,-341.7 619.5,-360.7 636.5,-360.7 636.5,-341.7 619.5,-341.7"/>
<text text-anchor="start" x="627.3862" y="-347.8" font-family="Helvetica,sans-Serif" font-size="11.00" fill="#000000"> &#160;</text>
<polygon fill="#ffffff" stroke="transparent" points="636.5,-341.7 636.5,-360.7 663.5,-360.7 663.5,-341.7 636.5,-341.7"/>
<polygon fill="none" stroke="#000000" points="636.5,-341.7 636.5,-360.7 663.5,-360.7 663.5,-341.7 636.5,-341.7"/>
<text text-anchor="start" x="644.9053" y="-347.8" font-family="Helvetica,sans-Serif" font-size="11.00" fill="#000000">2 &gt;</text>
</a>
</g>
</g>
<!-- Visits&#45;&gt;Hospitalizations -->
<g id="edge8" class="edge">
<title>Visits:w&#45;&gt;Hospitalizations:e</title>
<path fill="none" stroke="#000000" d="M572.9613,-369.0874C516.0363,-364.1258 500.669,-330.7 436.5,-330.7"/>
<polygon fill="#000000" stroke="#000000" points="579.5071,-369.3632 587.3484,-373.2968 583.5035,-369.5316 587.5,-369.7 587.5,-369.7 587.5,-369.7 583.5035,-369.5316 587.6516,-366.1032 579.5071,-369.3632 579.5071,-369.3632"/>
<ellipse fill="none" stroke="#000000" cx="576.3099" cy="-369.2284" rx="3.2" ry="3.2"/>
</g>
</g>
</svg>
