<?xml version="1.0" encoding="UTF-8" standalone="no"?>
<!DOCTYPE svg PUBLIC "-//W3C//DTD SVG 1.1//EN"
 "http://www.w3.org/Graphics/SVG/1.1/DTD/svg11.dtd">
<!-- Generated by graphviz version 2.40.1 (20161225.0304)
 -->
<!-- Title: oneDegreeRelationshipsDiagram Pages: 1 -->
<svg width="848pt" height="418pt"
 viewBox="0.00 0.00 848.00 417.70" xmlns="http://www.w3.org/2000/svg" xmlns:xlink="http://www.w3.org/1999/xlink">
<g id="graph0" class="graph" transform="scale(1 1) rotate(0) translate(4 413.7)">
<title>oneDegreeRelationshipsDiagram</title>
<polygon fill="#ffffff" stroke="transparent" points="-4,4 -4,-413.7 844,-413.7 844,4 -4,4"/>
<text text-anchor="middle" x="72.4936" y="-7.3" font-family="Helvetica,sans-Serif" font-size="11.00" fill="#000000">Generated by SchemaSpy</text>
<!-- Hospitalizations -->
<g id="node1" class="node">
<title>Hospitalizations</title>
<g id="a_node1"><a xlink:href="../../tables/Hospitalizations.html" xlink:title="Hospitalizations" target="_top">
<polygon fill="#ffffff" stroke="transparent" points="359,-234.7 359,-405.7 538,-405.7 538,-234.7 359,-234.7"/>
<polygon fill="#f5f5f5" stroke="transparent" points="359.5,-382.2 359.5,-405.2 538.5,-405.2 538.5,-382.2 359.5,-382.2"/>
<polygon fill="none" stroke="#000000" points="359.5,-382.2 359.5,-405.2 538.5,-405.2 538.5,-382.2 359.5,-382.2"/>
<text text-anchor="start" x="364.5" y="-390.8" font-family="Helvetica,sans-Serif" font-weight="bold" font-size="11.00" fill="#000000">Hospitalizations</text>
<text text-anchor="start" x="503.5437" y="-390.3" font-family="Helvetica,sans-Serif" font-size="11.00" fill="#000000">[table]</text>
<polygon fill="none" stroke="#000000" points="359.5,-360.2 359.5,-382.2 538.5,-382.2 538.5,-360.2 359.5,-360.2"/>
<image xlink:href="../../images/primaryKeys.png" width="11px" height="12px" preserveAspectRatio="xMinYMin meet" x="364.5" y="-377.2"/>
<text text-anchor="start" x="379.5" y="-367.3" font-family="Helvetica,sans-Serif" font-size="11.00" fill="#000000">Id</text>
<polygon fill="#ffffff" stroke="transparent" points="359.5,-338.2 359.5,-360.2 538.5,-360.2 538.5,-338.2 359.5,-338.2"/>
<polygon fill="none" stroke="#000000" points="359.5,-338.2 359.5,-360.2 538.5,-360.2 538.5,-338.2 359.5,-338.2"/>
<image xlink:href="../../images/foreignKeys.png" width="11px" height="12px" preserveAspectRatio="xMinYMin meet" x="364.5" y="-355.2"/>
<text text-anchor="start" x="379.5" y="-345.3" font-family="Helvetica,sans-Serif" font-size="11.00" fill="#000000">PatientId</text>
<polygon fill="#ffffff" stroke="transparent" points="359.5,-316.2 359.5,-338.2 538.5,-338.2 538.5,-316.2 359.5,-316.2"/>
<polygon fill="none" stroke="#000000" points="359.5,-316.2 359.5,-338.2 538.5,-338.2 538.5,-316.2 359.5,-316.2"/>
<text text-anchor="start" x="379.5" y="-323.3" font-family="Helvetica,sans-Serif" font-size="11.00" fill="#000000">CaseId</text>
<polygon fill="#ffffff" stroke="transparent" points="359.5,-294.2 359.5,-316.2 538.5,-316.2 538.5,-294.2 359.5,-294.2"/>
<polygon fill="none" stroke="#000000" points="359.5,-294.2 359.5,-316.2 538.5,-316.2 538.5,-294.2 359.5,-294.2"/>
<image xlink:href="../../images/foreignKeys.png" width="11px" height="12px" preserveAspectRatio="xMinYMin meet" x="364.5" y="-311.2"/>
<text text-anchor="start" x="379.5" y="-301.3" font-family="Helvetica,sans-Serif" font-size="11.00" fill="#000000">FacilityId</text>
<polygon fill="none" stroke="#000000" points="359.5,-272.2 359.5,-294.2 538.5,-294.2 538.5,-272.2 359.5,-272.2"/>
<image xlink:href="../../images/foreignKeys.png" width="11px" height="12px" preserveAspectRatio="xMinYMin meet" x="364.5" y="-289.2"/>
<text text-anchor="start" x="379.5" y="-279.3" font-family="Helvetica,sans-Serif" font-size="11.00" fill="#000000">HospitalizationStatusId</text>
<polygon fill="none" stroke="#000000" points="359.5,-253.2 359.5,-272.2 538.5,-272.2 538.5,-253.2 359.5,-253.2"/>
<text text-anchor="start" x="362.5" y="-259.3" font-family="Helvetica,sans-Serif" font-size="11.00" fill="#000000">...</text>
<polygon fill="#ffffff" stroke="transparent" points="359.5,-234.2 359.5,-253.2 442.5,-253.2 442.5,-234.2 359.5,-234.2"/>
<polygon fill="none" stroke="#000000" points="359.5,-234.2 359.5,-253.2 442.5,-253.2 442.5,-234.2 359.5,-234.2"/>
<text text-anchor="start" x="362.5" y="-240.3" font-family="Helvetica,sans-Serif" font-size="11.00" fill="#000000">&lt; 3</text>
<polygon fill="#ffffff" stroke="transparent" points="442.5,-234.2 442.5,-253.2 485.5,-253.2 485.5,-234.2 442.5,-234.2"/>
<polygon fill="none" stroke="#000000" points="442.5,-234.2 442.5,-253.2 485.5,-253.2 485.5,-234.2 442.5,-234.2"/>
<text text-anchor="start" x="476.3862" y="-240.3" font-family="Helvetica,sans-Serif" font-size="11.00" fill="#000000"> &#160;</text>
<polygon fill="#ffffff" stroke="transparent" points="485.5,-234.2 485.5,-253.2 538.5,-253.2 538.5,-234.2 485.5,-234.2"/>
<polygon fill="none" stroke="#000000" points="485.5,-234.2 485.5,-253.2 538.5,-253.2 538.5,-234.2 485.5,-234.2"/>
<text text-anchor="start" x="519.9053" y="-240.3" font-family="Helvetica,sans-Serif" font-size="11.00" fill="#000000">3 &gt;</text>
</a>
</g>
</g>
<!-- HospitalizationStatuses -->
<g id="node2" class="node">
<title>HospitalizationStatuses</title>
<g id="a_node2"><a xlink:href="../../tables/HospitalizationStatuses.html" xlink:title="HospitalizationStatuses" target="_top">
<polygon fill="#ffffff" stroke="transparent" points="8,-38.2 8,-282.2 310,-282.2 310,-38.2 8,-38.2"/>
<polygon fill="#f5f5f5" stroke="transparent" points="10,-257.2 10,-280.2 308,-280.2 308,-257.2 10,-257.2"/>
<polygon fill="none" stroke="#000000" points="10,-257.2 10,-280.2 308,-280.2 308,-257.2 10,-257.2"/>
<text text-anchor="start" x="15" y="-265.8" font-family="Helvetica,sans-Serif" font-weight="bold" font-size="11.00" fill="#000000">HospitalizationStatuses</text>
<text text-anchor="start" x="273.0437" y="-265.3" font-family="Helvetica,sans-Serif" font-size="11.00" fill="#000000">[table]</text>
<polygon fill="none" stroke="#000000" points="10,-235.2 10,-257.2 192,-257.2 192,-235.2 10,-235.2"/>
<image xlink:href="../../images/primaryKeys.png" width="11px" height="12px" preserveAspectRatio="xMinYMin meet" x="15" y="-252.2"/>
<text text-anchor="start" x="30" y="-242.3" font-family="Helvetica,sans-Serif" font-size="11.00" fill="#000000">Id</text>
<polygon fill="none" stroke="#000000" points="192,-235.2 192,-257.2 308,-257.2 308,-235.2 192,-235.2"/>
<text text-anchor="start" x="195" y="-242.9" font-family="Helvetica,sans-Serif" font-size="11.00" fill="#000000">int identity[4]</text>
<polygon fill="none" stroke="#000000" points="10,-213.2 10,-235.2 192,-235.2 192,-213.2 10,-213.2"/>
<text text-anchor="start" x="30" y="-220.3" font-family="Helvetica,sans-Serif" font-size="11.00" fill="#000000">Code</text>
<polygon fill="none" stroke="#000000" points="192,-213.2 192,-235.2 308,-235.2 308,-213.2 192,-213.2"/>
<text text-anchor="start" x="195" y="-220.9" font-family="Helvetica,sans-Serif" font-size="11.00" fill="#000000">nvarchar[40]</text>
<polygon fill="none" stroke="#000000" points="10,-191.2 10,-213.2 192,-213.2 192,-191.2 10,-191.2"/>
<text text-anchor="start" x="30" y="-198.3" font-family="Helvetica,sans-Serif" font-size="11.00" fill="#000000">Name</text>
<polygon fill="none" stroke="#000000" points="192,-191.2 192,-213.2 308,-213.2 308,-191.2 192,-191.2"/>
<text text-anchor="start" x="195" y="-198.9" font-family="Helvetica,sans-Serif" font-size="11.00" fill="#000000">nvarchar[200]</text>
<polygon fill="none" stroke="#000000" points="10,-169.2 10,-191.2 192,-191.2 192,-169.2 10,-169.2"/>
<text text-anchor="start" x="30" y="-176.3" font-family="Helvetica,sans-Serif" font-size="11.00" fill="#000000">BillingCode</text>
<polygon fill="none" stroke="#000000" points="192,-169.2 192,-191.2 308,-191.2 308,-169.2 192,-169.2"/>
<text text-anchor="start" x="194.9769" y="-176.9" font-family="Helvetica,sans-Serif" font-size="11.00" fill="#000000">nvarchar[2147483647]</text>
<polygon fill="none" stroke="#000000" points="10,-147.2 10,-169.2 192,-169.2 192,-147.2 10,-147.2"/>
<text text-anchor="start" x="30" y="-154.3" font-family="Helvetica,sans-Serif" font-size="11.00" fill="#000000">Color</text>
<polygon fill="none" stroke="#000000" points="192,-147.2 192,-169.2 308,-169.2 308,-147.2 192,-147.2"/>
<text text-anchor="start" x="195" y="-154.9" font-family="Helvetica,sans-Serif" font-size="11.00" fill="#000000">nvarchar[40]</text>
<polygon fill="none" stroke="#000000" points="10,-125.2 10,-147.2 192,-147.2 192,-125.2 10,-125.2"/>
<text text-anchor="start" x="30" y="-132.3" font-family="Helvetica,sans-Serif" font-size="11.00" fill="#000000">DisplayOrder</text>
<polygon fill="none" stroke="#000000" points="192,-125.2 192,-147.2 308,-147.2 308,-125.2 192,-125.2"/>
<text text-anchor="start" x="195" y="-132.9" font-family="Helvetica,sans-Serif" font-size="11.00" fill="#000000">int[4]</text>
<polygon fill="none" stroke="#000000" points="10,-103.2 10,-125.2 192,-125.2 192,-103.2 10,-103.2"/>
<text text-anchor="start" x="30" y="-110.3" font-family="Helvetica,sans-Serif" font-size="11.00" fill="#000000">CreatedAtUtc</text>
<polygon fill="none" stroke="#000000" points="192,-103.2 192,-125.2 308,-125.2 308,-103.2 192,-103.2"/>
<text text-anchor="start" x="195" y="-110.9" font-family="Helvetica,sans-Serif" font-size="11.00" fill="#000000">datetime2[16,7]</text>
<polygon fill="none" stroke="#000000" points="10,-81.2 10,-103.2 192,-103.2 192,-81.2 10,-81.2"/>
<text text-anchor="start" x="30" y="-88.3" font-family="Helvetica,sans-Serif" font-size="11.00" fill="#000000">UpdatedAtUtc</text>
<polygon fill="none" stroke="#000000" points="192,-81.2 192,-103.2 308,-103.2 308,-81.2 192,-81.2"/>
<text text-anchor="start" x="195" y="-88.9" font-family="Helvetica,sans-Serif" font-size="11.00" fill="#000000">datetime2[16,7]</text>
<polygon fill="none" stroke="#000000" points="10,-59.2 10,-81.2 192,-81.2 192,-59.2 10,-59.2"/>
<text text-anchor="start" x="30" y="-66.3" font-family="Helvetica,sans-Serif" font-size="11.00" fill="#000000">RowVersion</text>
<polygon fill="none" stroke="#000000" points="192,-59.2 192,-81.2 308,-81.2 308,-59.2 192,-59.2"/>
<text text-anchor="start" x="195" y="-66.9" font-family="Helvetica,sans-Serif" font-size="11.00" fill="#000000">timestamp[8]</text>
<polygon fill="#ffffff" stroke="transparent" points="10,-40.2 10,-59.2 105,-59.2 105,-40.2 10,-40.2"/>
<polygon fill="none" stroke="#000000" points="10,-40.2 10,-59.2 105,-59.2 105,-40.2 10,-40.2"/>
<text text-anchor="start" x="13" y="-46.3" font-family="Helvetica,sans-Serif" font-size="11.00" fill="#000000">&lt; 0</text>
<polygon fill="#ffffff" stroke="transparent" points="105,-40.2 105,-59.2 192,-59.2 192,-40.2 105,-40.2"/>
<polygon fill="none" stroke="#000000" points="105,-40.2 105,-59.2 192,-59.2 192,-40.2 105,-40.2"/>
<text text-anchor="start" x="182.8862" y="-46.3" font-family="Helvetica,sans-Serif" font-size="11.00" fill="#000000"> &#160;</text>
<polygon fill="#ffffff" stroke="transparent" points="192,-40.2 192,-59.2 308,-59.2 308,-40.2 192,-40.2"/>
<polygon fill="none" stroke="#000000" points="192,-40.2 192,-59.2 308,-59.2 308,-40.2 192,-40.2"/>
<text text-anchor="start" x="289.4053" y="-46.3" font-family="Helvetica,sans-Serif" font-size="11.00" fill="#000000">2 &gt;</text>
<polygon fill="none" stroke="#000000" stroke-width="2" points="9,-39.2 9,-281.2 309,-281.2 309,-39.2 9,-39.2"/>
</a>
</g>
</g>
<!-- Hospitalizations&#45;&gt;HospitalizationStatuses -->
<g id="edge1" class="edge">
<title>Hospitalizations:w&#45;&gt;HospitalizationStatuses:e</title>
<path fill="none" stroke="#000000" d="M345.4564,-278.9556C331.8991,-269.2369 330.2387,-246.2 308,-246.2"/>
<polygon fill="#000000" stroke="#000000" points="351.8421,-280.8855 358.4585,-286.6461 355.671,-282.0428 359.5,-283.2 359.5,-283.2 359.5,-283.2 355.671,-282.0428 360.5415,-279.7539 351.8421,-280.8855 351.8421,-280.8855"/>
<ellipse fill="none" stroke="#000000" cx="348.7789" cy="-279.9597" rx="3.2" ry="3.2"/>
</g>
<!-- HospitalizationStatusHistories -->
<g id="node3" class="node">
<title>HospitalizationStatusHistories</title>
<g id="a_node3"><a xlink:href="../../tables/HospitalizationStatusHistories.html" xlink:title="HospitalizationStatusHistories" target="_top">
<polygon fill="#ffffff" stroke="transparent" points="587,-186.7 587,-357.7 832,-357.7 832,-186.7 587,-186.7"/>
<polygon fill="#f5f5f5" stroke="transparent" points="587.5,-334.2 587.5,-357.2 832.5,-357.2 832.5,-334.2 587.5,-334.2"/>
<polygon fill="none" stroke="#000000" points="587.5,-334.2 587.5,-357.2 832.5,-357.2 832.5,-334.2 587.5,-334.2"/>
<text text-anchor="start" x="592.5" y="-342.8" font-family="Helvetica,sans-Serif" font-weight="bold" font-size="11.00" fill="#000000">HospitalizationStatusHistories</text>
<text text-anchor="start" x="798.0219" y="-342.3" font-family="Helvetica,sans-Serif" font-size="11.00" fill="#000000">[table]</text>
<polygon fill="none" stroke="#000000" points="587.5,-312.2 587.5,-334.2 832.5,-334.2 832.5,-312.2 587.5,-312.2"/>
<image xlink:href="../../images/primaryKeys.png" width="11px" height="12px" preserveAspectRatio="xMinYMin meet" x="592.5" y="-329.2"/>
<text text-anchor="start" x="616.5" y="-319.3" font-family="Helvetica,sans-Serif" font-size="11.00" fill="#000000">Id</text>
<polygon fill="#ffffff" stroke="transparent" points="587.5,-290.2 587.5,-312.2 832.5,-312.2 832.5,-290.2 587.5,-290.2"/>
<polygon fill="none" stroke="#000000" points="587.5,-290.2 587.5,-312.2 832.5,-312.2 832.5,-290.2 587.5,-290.2"/>
<image xlink:href="../../images/foreignKeys.png" width="11px" height="12px" preserveAspectRatio="xMinYMin meet" x="592.5" y="-307.2"/>
<text text-anchor="start" x="616.5" y="-297.3" font-family="Helvetica,sans-Serif" font-size="11.00" fill="#000000">HospitalizationId</text>
<polygon fill="#ffffff" stroke="transparent" points="587.5,-268.2 587.5,-290.2 832.5,-290.2 832.5,-268.2 587.5,-268.2"/>
<polygon fill="none" stroke="#000000" points="587.5,-268.2 587.5,-290.2 832.5,-290.2 832.5,-268.2 587.5,-268.2"/>
<image xlink:href="../../images/foreignKeys.png" width="11px" height="12px" preserveAspectRatio="xMinYMin meet" x="592.5" y="-285.2"/>
<text text-anchor="start" x="616.5" y="-275.3" font-family="Helvetica,sans-Serif" font-size="11.00" fill="#000000">NewStatusId</text>
<polygon fill="#ffffff" stroke="transparent" points="587.5,-246.2 587.5,-268.2 832.5,-268.2 832.5,-246.2 587.5,-246.2"/>
<polygon fill="none" stroke="#000000" points="587.5,-246.2 587.5,-268.2 832.5,-268.2 832.5,-246.2 587.5,-246.2"/>
<text text-anchor="start" x="616.5" y="-253.3" font-family="Helvetica,sans-Serif" font-size="11.00" fill="#000000">ChangedAt</text>
<polygon fill="#ffffff" stroke="transparent" points="587.5,-224.2 587.5,-246.2 832.5,-246.2 832.5,-224.2 587.5,-224.2"/>
<polygon fill="none" stroke="#000000" points="587.5,-224.2 587.5,-246.2 832.5,-246.2 832.5,-224.2 587.5,-224.2"/>
<image xlink:href="../../images/foreignKeys.png" width="11px" height="12px" preserveAspectRatio="xMinYMin meet" x="592.5" y="-241.2"/>
<text text-anchor="start" x="616.5" y="-231.3" font-family="Helvetica,sans-Serif" font-size="11.00" fill="#000000">ChangedByUserId</text>
<polygon fill="none" stroke="#000000" points="587.5,-205.2 587.5,-224.2 832.5,-224.2 832.5,-205.2 587.5,-205.2"/>
<text text-anchor="start" x="590.5" y="-211.3" font-family="Helvetica,sans-Serif" font-size="11.00" fill="#000000">...</text>
<polygon fill="#ffffff" stroke="transparent" points="587.5,-186.2 587.5,-205.2 708.5,-205.2 708.5,-186.2 587.5,-186.2"/>
<polygon fill="none" stroke="#000000" points="587.5,-186.2 587.5,-205.2 708.5,-205.2 708.5,-186.2 587.5,-186.2"/>
<text text-anchor="start" x="590.5" y="-192.3" font-family="Helvetica,sans-Serif" font-size="11.00" fill="#000000">&lt; 3</text>
<polygon fill="#ffffff" stroke="transparent" points="708.5,-186.2 708.5,-205.2 770.5,-205.2 770.5,-186.2 708.5,-186.2"/>
<polygon fill="none" stroke="#000000" points="708.5,-186.2 708.5,-205.2 770.5,-205.2 770.5,-186.2 708.5,-186.2"/>
<text text-anchor="start" x="761.3862" y="-192.3" font-family="Helvetica,sans-Serif" font-size="11.00" fill="#000000"> &#160;</text>
<polygon fill="#ffffff" stroke="transparent" points="770.5,-186.2 770.5,-205.2 832.5,-205.2 832.5,-186.2 770.5,-186.2"/>
<polygon fill="none" stroke="#000000" points="770.5,-186.2 770.5,-205.2 832.5,-205.2 832.5,-186.2 770.5,-186.2"/>
<text text-anchor="start" x="823.3862" y="-192.3" font-family="Helvetica,sans-Serif" font-size="11.00" fill="#000000"> &#160;</text>
</a>
</g>
</g>
<!-- HospitalizationStatusHistories&#45;&gt;Hospitalizations -->
<g id="edge2" class="edge">
<title>HospitalizationStatusHistories:w&#45;&gt;Hospitalizations:e</title>
<path fill="none" stroke="#000000" d="M573.4782,-306.2342C556.62,-322.2846 570.2455,-371.2 538.5,-371.2"/>
<polygon fill="#000000" stroke="#000000" points="579.9706,-303.9033 588.7165,-304.5882 583.7353,-302.5517 587.5,-301.2 587.5,-301.2 587.5,-301.2 583.7353,-302.5517 586.2835,-297.8118 579.9706,-303.9033 579.9706,-303.9033"/>
<ellipse fill="none" stroke="#000000" cx="576.9588" cy="-304.9846" rx="3.2" ry="3.2"/>
</g>
<!-- HospitalizationStatusHistories&#45;&gt;HospitalizationStatuses -->
<g id="edge3" class="edge">
<title>HospitalizationStatusHistories:w&#45;&gt;HospitalizationStatuses:e</title>
<path fill="none" stroke="#000000" d="M573.5611,-274.329C561.8968,-262.9896 567.6277,-234.9746 546,-224.2 468.4268,-185.554 435.2552,-203.8978 351,-224.2 330.1302,-229.2288 329.4672,-246.2 308,-246.2"/>
<polygon fill="#000000" stroke="#000000" points="579.9478,-276.5609 586.3124,-282.5985 583.7239,-277.8804 587.5,-279.2 587.5,-279.2 587.5,-279.2 583.7239,-277.8804 588.6876,-275.8015 579.9478,-276.5609 579.9478,-276.5609"/>
<ellipse fill="none" stroke="#000000" cx="576.927" cy="-275.5052" rx="3.2" ry="3.2"/>
</g>
</g>
</svg>
