<?xml version="1.0" encoding="UTF-8" standalone="no"?>
<!DOCTYPE svg PUBLIC "-//W3C//DTD SVG 1.1//EN"
 "http://www.w3.org/Graphics/SVG/1.1/DTD/svg11.dtd">
<!-- Generated by graphviz version 2.40.1 (20161225.0304)
 -->
<!-- Title: oneDegreeRelationshipsDiagram Pages: 1 -->
<svg width="813pt" height="388pt"
 viewBox="0.00 0.00 813.00 387.70" xmlns="http://www.w3.org/2000/svg" xmlns:xlink="http://www.w3.org/1999/xlink">
<g id="graph0" class="graph" transform="scale(1 1) rotate(0) translate(4 383.7)">
<title>oneDegreeRelationshipsDiagram</title>
<polygon fill="#ffffff" stroke="transparent" points="-4,4 -4,-383.7 809,-383.7 809,4 -4,4"/>
<text text-anchor="middle" x="72.4936" y="-7.3" font-family="Helvetica,sans-Serif" font-size="11.00" fill="#000000">Generated by SchemaSpy</text>
<!-- Hospitalizations -->
<g id="node1" class="node">
<title>Hospitalizations</title>
<g id="a_node1"><a xlink:href="../../tables/Hospitalizations.html" xlink:title="Hospitalizations" target="_top">
<polygon fill="#ffffff" stroke="transparent" points="257,-204.7 257,-375.7 436,-375.7 436,-204.7 257,-204.7"/>
<polygon fill="#f5f5f5" stroke="transparent" points="257.5,-352.2 257.5,-375.2 436.5,-375.2 436.5,-352.2 257.5,-352.2"/>
<polygon fill="none" stroke="#000000" points="257.5,-352.2 257.5,-375.2 436.5,-375.2 436.5,-352.2 257.5,-352.2"/>
<text text-anchor="start" x="262.5" y="-360.8" font-family="Helvetica,sans-Serif" font-weight="bold" font-size="11.00" fill="#000000">Hospitalizations</text>
<text text-anchor="start" x="401.5437" y="-360.3" font-family="Helvetica,sans-Serif" font-size="11.00" fill="#000000">[table]</text>
<polygon fill="none" stroke="#000000" points="257.5,-330.2 257.5,-352.2 436.5,-352.2 436.5,-330.2 257.5,-330.2"/>
<image xlink:href="../../images/primaryKeys.png" width="11px" height="12px" preserveAspectRatio="xMinYMin meet" x="262.5" y="-347.2"/>
<text text-anchor="start" x="277.5" y="-337.3" font-family="Helvetica,sans-Serif" font-size="11.00" fill="#000000">Id</text>
<polygon fill="#ffffff" stroke="transparent" points="257.5,-308.2 257.5,-330.2 436.5,-330.2 436.5,-308.2 257.5,-308.2"/>
<polygon fill="none" stroke="#000000" points="257.5,-308.2 257.5,-330.2 436.5,-330.2 436.5,-308.2 257.5,-308.2"/>
<image xlink:href="../../images/foreignKeys.png" width="11px" height="12px" preserveAspectRatio="xMinYMin meet" x="262.5" y="-325.2"/>
<text text-anchor="start" x="277.5" y="-315.3" font-family="Helvetica,sans-Serif" font-size="11.00" fill="#000000">PatientId</text>
<polygon fill="#ffffff" stroke="transparent" points="257.5,-286.2 257.5,-308.2 436.5,-308.2 436.5,-286.2 257.5,-286.2"/>
<polygon fill="none" stroke="#000000" points="257.5,-286.2 257.5,-308.2 436.5,-308.2 436.5,-286.2 257.5,-286.2"/>
<text text-anchor="start" x="277.5" y="-293.3" font-family="Helvetica,sans-Serif" font-size="11.00" fill="#000000">CaseId</text>
<polygon fill="#ffffff" stroke="transparent" points="257.5,-264.2 257.5,-286.2 436.5,-286.2 436.5,-264.2 257.5,-264.2"/>
<polygon fill="none" stroke="#000000" points="257.5,-264.2 257.5,-286.2 436.5,-286.2 436.5,-264.2 257.5,-264.2"/>
<image xlink:href="../../images/foreignKeys.png" width="11px" height="12px" preserveAspectRatio="xMinYMin meet" x="262.5" y="-281.2"/>
<text text-anchor="start" x="277.5" y="-271.3" font-family="Helvetica,sans-Serif" font-size="11.00" fill="#000000">FacilityId</text>
<polygon fill="none" stroke="#000000" points="257.5,-242.2 257.5,-264.2 436.5,-264.2 436.5,-242.2 257.5,-242.2"/>
<image xlink:href="../../images/foreignKeys.png" width="11px" height="12px" preserveAspectRatio="xMinYMin meet" x="262.5" y="-259.2"/>
<text text-anchor="start" x="277.5" y="-249.3" font-family="Helvetica,sans-Serif" font-size="11.00" fill="#000000">HospitalizationStatusId</text>
<polygon fill="none" stroke="#000000" points="257.5,-223.2 257.5,-242.2 436.5,-242.2 436.5,-223.2 257.5,-223.2"/>
<text text-anchor="start" x="260.5" y="-229.3" font-family="Helvetica,sans-Serif" font-size="11.00" fill="#000000">...</text>
<polygon fill="#ffffff" stroke="transparent" points="257.5,-204.2 257.5,-223.2 340.5,-223.2 340.5,-204.2 257.5,-204.2"/>
<polygon fill="none" stroke="#000000" points="257.5,-204.2 257.5,-223.2 340.5,-223.2 340.5,-204.2 257.5,-204.2"/>
<text text-anchor="start" x="260.5" y="-210.3" font-family="Helvetica,sans-Serif" font-size="11.00" fill="#000000">&lt; 3</text>
<polygon fill="#ffffff" stroke="transparent" points="340.5,-204.2 340.5,-223.2 383.5,-223.2 383.5,-204.2 340.5,-204.2"/>
<polygon fill="none" stroke="#000000" points="340.5,-204.2 340.5,-223.2 383.5,-223.2 383.5,-204.2 340.5,-204.2"/>
<text text-anchor="start" x="374.3862" y="-210.3" font-family="Helvetica,sans-Serif" font-size="11.00" fill="#000000"> &#160;</text>
<polygon fill="#ffffff" stroke="transparent" points="383.5,-204.2 383.5,-223.2 436.5,-223.2 436.5,-204.2 383.5,-204.2"/>
<polygon fill="none" stroke="#000000" points="383.5,-204.2 383.5,-223.2 436.5,-223.2 436.5,-204.2 383.5,-204.2"/>
<text text-anchor="start" x="417.9053" y="-210.3" font-family="Helvetica,sans-Serif" font-size="11.00" fill="#000000">3 &gt;</text>
</a>
</g>
</g>
<!-- HospitalizationStatuses -->
<g id="node2" class="node">
<title>HospitalizationStatuses</title>
<g id="a_node2"><a xlink:href="../../tables/HospitalizationStatuses.html" xlink:title="HospitalizationStatuses" target="_top">
<polygon fill="#ffffff" stroke="transparent" points="8,-167.7 8,-250.7 208,-250.7 208,-167.7 8,-167.7"/>
<polygon fill="#f5f5f5" stroke="transparent" points="8,-227.2 8,-250.2 208,-250.2 208,-227.2 8,-227.2"/>
<polygon fill="none" stroke="#000000" points="8,-227.2 8,-250.2 208,-250.2 208,-227.2 8,-227.2"/>
<text text-anchor="start" x="13" y="-235.8" font-family="Helvetica,sans-Serif" font-weight="bold" font-size="11.00" fill="#000000">HospitalizationStatuses</text>
<text text-anchor="start" x="173.5219" y="-235.3" font-family="Helvetica,sans-Serif" font-size="11.00" fill="#000000">[table]</text>
<polygon fill="none" stroke="#000000" points="8,-205.2 8,-227.2 208,-227.2 208,-205.2 8,-205.2"/>
<image xlink:href="../../images/primaryKeys.png" width="11px" height="12px" preserveAspectRatio="xMinYMin meet" x="13" y="-222.2"/>
<text text-anchor="start" x="37" y="-212.3" font-family="Helvetica,sans-Serif" font-size="11.00" fill="#000000">Id</text>
<polygon fill="none" stroke="#000000" points="8,-186.2 8,-205.2 208,-205.2 208,-186.2 8,-186.2"/>
<text text-anchor="start" x="11" y="-192.3" font-family="Helvetica,sans-Serif" font-size="11.00" fill="#000000">...</text>
<polygon fill="#ffffff" stroke="transparent" points="8,-167.2 8,-186.2 97,-186.2 97,-167.2 8,-167.2"/>
<polygon fill="none" stroke="#000000" points="8,-167.2 8,-186.2 97,-186.2 97,-167.2 8,-167.2"/>
<text text-anchor="start" x="11" y="-173.3" font-family="Helvetica,sans-Serif" font-size="11.00" fill="#000000"> &#160;</text>
<polygon fill="#ffffff" stroke="transparent" points="97,-167.2 97,-186.2 148,-186.2 148,-167.2 97,-167.2"/>
<polygon fill="none" stroke="#000000" points="97,-167.2 97,-186.2 148,-186.2 148,-167.2 97,-167.2"/>
<text text-anchor="start" x="138.8862" y="-173.3" font-family="Helvetica,sans-Serif" font-size="11.00" fill="#000000"> &#160;</text>
<polygon fill="#ffffff" stroke="transparent" points="148,-167.2 148,-186.2 208,-186.2 208,-167.2 148,-167.2"/>
<polygon fill="none" stroke="#000000" points="148,-167.2 148,-186.2 208,-186.2 208,-167.2 148,-167.2"/>
<text text-anchor="start" x="189.4053" y="-173.3" font-family="Helvetica,sans-Serif" font-size="11.00" fill="#000000">2 &gt;</text>
</a>
</g>
</g>
<!-- Hospitalizations&#45;&gt;HospitalizationStatuses -->
<g id="edge1" class="edge">
<title>Hospitalizations:w&#45;&gt;HospitalizationStatuses:e</title>
<path fill="none" stroke="#000000" d="M243.5092,-248.6631C230.8361,-238.783 229.4584,-216.2 208,-216.2"/>
<polygon fill="#000000" stroke="#000000" points="249.8901,-250.7322 256.3895,-256.6244 253.6951,-251.9661 257.5,-253.2 257.5,-253.2 257.5,-253.2 253.6951,-251.9661 258.6105,-249.7756 249.8901,-250.7322 249.8901,-250.7322"/>
<ellipse fill="none" stroke="#000000" cx="246.8462" cy="-249.7451" rx="3.2" ry="3.2"/>
</g>
<!-- HospitalizationStatusHistories -->
<g id="node3" class="node">
<title>HospitalizationStatusHistories</title>
<g id="a_node3"><a xlink:href="../../tables/HospitalizationStatusHistories.html" xlink:title="HospitalizationStatusHistories" target="_top">
<polygon fill="#ffffff" stroke="transparent" points="485,-38.2 485,-260.2 797,-260.2 797,-38.2 485,-38.2"/>
<polygon fill="#f5f5f5" stroke="transparent" points="487,-235.2 487,-258.2 795,-258.2 795,-235.2 487,-235.2"/>
<polygon fill="none" stroke="#000000" points="487,-235.2 487,-258.2 795,-258.2 795,-235.2 487,-235.2"/>
<text text-anchor="start" x="492" y="-243.8" font-family="Helvetica,sans-Serif" font-weight="bold" font-size="11.00" fill="#000000">HospitalizationStatusHistories</text>
<text text-anchor="start" x="760.0437" y="-243.3" font-family="Helvetica,sans-Serif" font-size="11.00" fill="#000000">[table]</text>
<polygon fill="none" stroke="#000000" points="487,-213.2 487,-235.2 714,-235.2 714,-213.2 487,-213.2"/>
<image xlink:href="../../images/primaryKeys.png" width="11px" height="12px" preserveAspectRatio="xMinYMin meet" x="492" y="-230.2"/>
<text text-anchor="start" x="507" y="-220.3" font-family="Helvetica,sans-Serif" font-size="11.00" fill="#000000">Id</text>
<polygon fill="none" stroke="#000000" points="714,-213.2 714,-235.2 795,-235.2 795,-213.2 714,-213.2"/>
<text text-anchor="start" x="717" y="-220.9" font-family="Helvetica,sans-Serif" font-size="11.00" fill="#000000">int identity[4]</text>
<polygon fill="#ffffff" stroke="transparent" points="487,-191.2 487,-213.2 714,-213.2 714,-191.2 487,-191.2"/>
<polygon fill="none" stroke="#000000" points="487,-191.2 487,-213.2 714,-213.2 714,-191.2 487,-191.2"/>
<image xlink:href="../../images/foreignKeys.png" width="11px" height="12px" preserveAspectRatio="xMinYMin meet" x="492" y="-208.2"/>
<text text-anchor="start" x="507" y="-198.3" font-family="Helvetica,sans-Serif" font-size="11.00" fill="#000000">HospitalizationId</text>
<polygon fill="none" stroke="#000000" points="714,-191.2 714,-213.2 795,-213.2 795,-191.2 714,-191.2"/>
<text text-anchor="start" x="717" y="-198.9" font-family="Helvetica,sans-Serif" font-size="11.00" fill="#000000">int[4]</text>
<polygon fill="#ffffff" stroke="transparent" points="487,-169.2 487,-191.2 714,-191.2 714,-169.2 487,-169.2"/>
<polygon fill="none" stroke="#000000" points="487,-169.2 487,-191.2 714,-191.2 714,-169.2 487,-169.2"/>
<image xlink:href="../../images/foreignKeys.png" width="11px" height="12px" preserveAspectRatio="xMinYMin meet" x="492" y="-186.2"/>
<text text-anchor="start" x="507" y="-176.3" font-family="Helvetica,sans-Serif" font-size="11.00" fill="#000000">NewStatusId</text>
<polygon fill="none" stroke="#000000" points="714,-169.2 714,-191.2 795,-191.2 795,-169.2 714,-169.2"/>
<text text-anchor="start" x="717" y="-176.9" font-family="Helvetica,sans-Serif" font-size="11.00" fill="#000000">int[4]</text>
<polygon fill="#ffffff" stroke="transparent" points="487,-147.2 487,-169.2 714,-169.2 714,-147.2 487,-147.2"/>
<polygon fill="none" stroke="#000000" points="487,-147.2 487,-169.2 714,-169.2 714,-147.2 487,-147.2"/>
<text text-anchor="start" x="507" y="-154.3" font-family="Helvetica,sans-Serif" font-size="11.00" fill="#000000">ChangedAt</text>
<polygon fill="none" stroke="#000000" points="714,-147.2 714,-169.2 795,-169.2 795,-147.2 714,-147.2"/>
<text text-anchor="start" x="716.5968" y="-154.9" font-family="Helvetica,sans-Serif" font-size="11.00" fill="#000000">datetime2[16,7]</text>
<polygon fill="#ffffff" stroke="transparent" points="487,-125.2 487,-147.2 714,-147.2 714,-125.2 487,-125.2"/>
<polygon fill="none" stroke="#000000" points="487,-125.2 487,-147.2 714,-147.2 714,-125.2 487,-125.2"/>
<image xlink:href="../../images/foreignKeys.png" width="11px" height="12px" preserveAspectRatio="xMinYMin meet" x="492" y="-142.2"/>
<text text-anchor="start" x="507" y="-132.3" font-family="Helvetica,sans-Serif" font-size="11.00" fill="#000000">ChangedByUserId</text>
<polygon fill="none" stroke="#000000" points="714,-125.2 714,-147.2 795,-147.2 795,-125.2 714,-125.2"/>
<text text-anchor="start" x="717" y="-132.9" font-family="Helvetica,sans-Serif" font-size="11.00" fill="#000000">int[4]</text>
<polygon fill="none" stroke="#000000" points="487,-103.2 487,-125.2 714,-125.2 714,-103.2 487,-103.2"/>
<text text-anchor="start" x="507" y="-110.3" font-family="Helvetica,sans-Serif" font-size="11.00" fill="#000000">CreatedAtUtc</text>
<polygon fill="none" stroke="#000000" points="714,-103.2 714,-125.2 795,-125.2 795,-103.2 714,-103.2"/>
<text text-anchor="start" x="716.5968" y="-110.9" font-family="Helvetica,sans-Serif" font-size="11.00" fill="#000000">datetime2[16,7]</text>
<polygon fill="none" stroke="#000000" points="487,-81.2 487,-103.2 714,-103.2 714,-81.2 487,-81.2"/>
<text text-anchor="start" x="507" y="-88.3" font-family="Helvetica,sans-Serif" font-size="11.00" fill="#000000">UpdatedAtUtc</text>
<polygon fill="none" stroke="#000000" points="714,-81.2 714,-103.2 795,-103.2 795,-81.2 714,-81.2"/>
<text text-anchor="start" x="716.5968" y="-88.9" font-family="Helvetica,sans-Serif" font-size="11.00" fill="#000000">datetime2[16,7]</text>
<polygon fill="none" stroke="#000000" points="487,-59.2 487,-81.2 714,-81.2 714,-59.2 487,-59.2"/>
<text text-anchor="start" x="507" y="-66.3" font-family="Helvetica,sans-Serif" font-size="11.00" fill="#000000">RowVersion</text>
<polygon fill="none" stroke="#000000" points="714,-59.2 714,-81.2 795,-81.2 795,-59.2 714,-59.2"/>
<text text-anchor="start" x="717" y="-66.9" font-family="Helvetica,sans-Serif" font-size="11.00" fill="#000000">timestamp[8]</text>
<polygon fill="#ffffff" stroke="transparent" points="487,-40.2 487,-59.2 605,-59.2 605,-40.2 487,-40.2"/>
<polygon fill="none" stroke="#000000" points="487,-40.2 487,-59.2 605,-59.2 605,-40.2 487,-40.2"/>
<text text-anchor="start" x="490" y="-46.3" font-family="Helvetica,sans-Serif" font-size="11.00" fill="#000000">&lt; 3</text>
<polygon fill="#ffffff" stroke="transparent" points="605,-40.2 605,-59.2 714,-59.2 714,-40.2 605,-40.2"/>
<polygon fill="none" stroke="#000000" points="605,-40.2 605,-59.2 714,-59.2 714,-40.2 605,-40.2"/>
<text text-anchor="start" x="704.8862" y="-46.3" font-family="Helvetica,sans-Serif" font-size="11.00" fill="#000000"> &#160;</text>
<polygon fill="#ffffff" stroke="transparent" points="714,-40.2 714,-59.2 795,-59.2 795,-40.2 714,-40.2"/>
<polygon fill="none" stroke="#000000" points="714,-40.2 714,-59.2 795,-59.2 795,-40.2 714,-40.2"/>
<text text-anchor="start" x="776.4053" y="-46.3" font-family="Helvetica,sans-Serif" font-size="11.00" fill="#000000">0 &gt;</text>
<polygon fill="none" stroke="#000000" stroke-width="2" points="486,-39.2 486,-259.2 796,-259.2 796,-39.2 486,-39.2"/>
</a>
</g>
</g>
<!-- HospitalizationStatusHistories&#45;&gt;Hospitalizations -->
<g id="edge3" class="edge">
<title>HospitalizationStatusHistories:w&#45;&gt;Hospitalizations:e</title>
<path fill="none" stroke="#000000" d="M472.6234,-205.3644C434.6344,-226.0546 496.3233,-341.2 436.5,-341.2"/>
<polygon fill="#000000" stroke="#000000" points="479.187,-203.9197 487.7739,-205.7158 483.0935,-203.0599 487,-202.2 487,-202.2 487,-202.2 483.0935,-203.0599 486.2261,-198.6842 479.187,-203.9197 479.187,-203.9197"/>
<ellipse fill="none" stroke="#000000" cx="476.0618" cy="-204.6076" rx="3.2" ry="3.2"/>
</g>
<!-- HospitalizationStatusHistories&#45;&gt;HospitalizationStatuses -->
<g id="edge4" class="edge">
<title>HospitalizationStatusHistories:w&#45;&gt;HospitalizationStatuses:e</title>
<path fill="none" stroke="#000000" d="M472.5843,-180.1082C378.0616,-178.905 346.1819,-166.7151 249,-194.2 229.1007,-199.8279 228.6798,-216.2 208,-216.2"/>
<polygon fill="#000000" stroke="#000000" points="479.0002,-180.149 486.9771,-183.7999 483.0001,-180.1745 487,-180.2 487,-180.2 487,-180.2 483.0001,-180.1745 487.0229,-176.6001 479.0002,-180.149 479.0002,-180.149"/>
<ellipse fill="none" stroke="#000000" cx="475.8002" cy="-180.1286" rx="3.2" ry="3.2"/>
</g>
<!-- Identity.Users -->
<g id="node4" class="node">
<title>Identity.Users</title>
<g id="a_node4"><a xlink:title="Identity.Users">
<polygon fill="#ffffff" stroke="transparent" points="279.5,-94.7 279.5,-155.7 413.5,-155.7 413.5,-94.7 279.5,-94.7"/>
<polygon fill="#f5f5f5" stroke="transparent" points="279.5,-132.2 279.5,-155.2 413.5,-155.2 413.5,-132.2 279.5,-132.2"/>
<polygon fill="none" stroke="#000000" points="279.5,-132.2 279.5,-155.2 413.5,-155.2 413.5,-132.2 279.5,-132.2"/>
<text text-anchor="start" x="284.5" y="-140.8" font-family="Helvetica,sans-Serif" font-weight="bold" font-size="11.00" fill="#000000">Identity.Users</text>
<text text-anchor="start" x="379.0219" y="-140.3" font-family="Helvetica,sans-Serif" font-size="11.00" fill="#000000">[table]</text>
<polygon fill="none" stroke="#000000" points="279.5,-113.2 279.5,-132.2 413.5,-132.2 413.5,-113.2 279.5,-113.2"/>
<text text-anchor="start" x="282.5" y="-119.3" font-family="Helvetica,sans-Serif" font-size="11.00" fill="#000000">...</text>
<polygon fill="#ffffff" stroke="transparent" points="279.5,-94.2 279.5,-113.2 335.5,-113.2 335.5,-94.2 279.5,-94.2"/>
<polygon fill="none" stroke="#000000" points="279.5,-94.2 279.5,-113.2 335.5,-113.2 335.5,-94.2 279.5,-94.2"/>
<text text-anchor="start" x="282.5" y="-100.3" font-family="Helvetica,sans-Serif" font-size="11.00" fill="#000000"> &#160;</text>
<polygon fill="#ffffff" stroke="transparent" points="335.5,-94.2 335.5,-113.2 369.5,-113.2 369.5,-94.2 335.5,-94.2"/>
<polygon fill="none" stroke="#000000" points="335.5,-94.2 335.5,-113.2 369.5,-113.2 369.5,-94.2 335.5,-94.2"/>
<text text-anchor="start" x="360.3862" y="-100.3" font-family="Helvetica,sans-Serif" font-size="11.00" fill="#000000"> &#160;</text>
<polygon fill="#ffffff" stroke="transparent" points="369.5,-94.2 369.5,-113.2 413.5,-113.2 413.5,-94.2 369.5,-94.2"/>
<polygon fill="none" stroke="#000000" points="369.5,-94.2 369.5,-113.2 413.5,-113.2 413.5,-94.2 369.5,-94.2"/>
<text text-anchor="start" x="394.9053" y="-100.3" font-family="Helvetica,sans-Serif" font-size="11.00" fill="#000000">2 &gt;</text>
</a>
</g>
</g>
<!-- HospitalizationStatusHistories&#45;&gt;Identity.Users -->
<g id="edge2" class="edge">
<title>HospitalizationStatusHistories:w&#45;&gt;Identity.Users:e</title>
<path fill="none" stroke="#000000" d="M472.5602,-136.0206C455.5454,-135.6141 437.9594,-134.5561 421.5185,-133.2522"/>
<polygon fill="#000000" stroke="#000000" points="479.0006,-136.1006 486.9552,-139.7997 483.0003,-136.1503 487,-136.2 487,-136.2 487,-136.2 483.0003,-136.1503 487.0448,-132.6003 479.0006,-136.1006 479.0006,-136.1006"/>
<ellipse fill="none" stroke="#000000" cx="475.8009" cy="-136.0608" rx="3.2" ry="3.2"/>
</g>
</g>
</svg>
