<?xml version="1.0" encoding="UTF-8" standalone="no"?>
<!DOCTYPE svg PUBLIC "-//W3C//DTD SVG 1.1//EN"
 "http://www.w3.org/Graphics/SVG/1.1/DTD/svg11.dtd">
<!-- Generated by graphviz version 2.40.1 (20161225.0304)
 -->
<!-- Title: oneDegreeRelationshipsDiagram Pages: 1 -->
<svg width="533pt" height="325pt"
 viewBox="0.00 0.00 533.00 325.20" xmlns="http://www.w3.org/2000/svg" xmlns:xlink="http://www.w3.org/1999/xlink">
<g id="graph0" class="graph" transform="scale(1 1) rotate(0) translate(4 321.2)">
<title>oneDegreeRelationshipsDiagram</title>
<polygon fill="#ffffff" stroke="transparent" points="-4,4 -4,-321.2 529,-321.2 529,4 -4,4"/>
<text text-anchor="middle" x="72.4936" y="-7.3" font-family="Helvetica,sans-Serif" font-size="11.00" fill="#000000">Generated by SchemaSpy</text>
<!-- HospitalizationInsurances -->
<g id="node1" class="node">
<title>HospitalizationInsurances</title>
<g id="a_node1"><a xlink:href="../../tables/HospitalizationInsurances.html" xlink:title="HospitalizationInsurances" target="_top">
<polygon fill="#ffffff" stroke="transparent" points="236,-51.7 236,-251.7 517,-251.7 517,-51.7 236,-51.7"/>
<polygon fill="#f5f5f5" stroke="transparent" points="238.5,-226.7 238.5,-249.7 515.5,-249.7 515.5,-226.7 238.5,-226.7"/>
<polygon fill="none" stroke="#000000" points="238.5,-226.7 238.5,-249.7 515.5,-249.7 515.5,-226.7 238.5,-226.7"/>
<text text-anchor="start" x="243.5" y="-235.3" font-family="Helvetica,sans-Serif" font-weight="bold" font-size="11.00" fill="#000000">HospitalizationInsurances</text>
<text text-anchor="start" x="480.5437" y="-234.8" font-family="Helvetica,sans-Serif" font-size="11.00" fill="#000000">[table]</text>
<polygon fill="none" stroke="#000000" points="238.5,-204.7 238.5,-226.7 434.5,-226.7 434.5,-204.7 238.5,-204.7"/>
<image xlink:href="../../images/primaryKeys.png" width="11px" height="12px" preserveAspectRatio="xMinYMin meet" x="243.5" y="-221.7"/>
<text text-anchor="start" x="258.5" y="-211.8" font-family="Helvetica,sans-Serif" font-size="11.00" fill="#000000">Id</text>
<polygon fill="none" stroke="#000000" points="434.5,-204.7 434.5,-226.7 515.5,-226.7 515.5,-204.7 434.5,-204.7"/>
<text text-anchor="start" x="437.5" y="-212.4" font-family="Helvetica,sans-Serif" font-size="11.00" fill="#000000">int identity[4]</text>
<polygon fill="#ffffff" stroke="transparent" points="238.5,-182.7 238.5,-204.7 434.5,-204.7 434.5,-182.7 238.5,-182.7"/>
<polygon fill="none" stroke="#000000" points="238.5,-182.7 238.5,-204.7 434.5,-204.7 434.5,-182.7 238.5,-182.7"/>
<image xlink:href="../../images/foreignKeys.png" width="11px" height="12px" preserveAspectRatio="xMinYMin meet" x="243.5" y="-199.7"/>
<text text-anchor="start" x="258.5" y="-189.8" font-family="Helvetica,sans-Serif" font-size="11.00" fill="#000000">HospitalizationId</text>
<polygon fill="none" stroke="#000000" points="434.5,-182.7 434.5,-204.7 515.5,-204.7 515.5,-182.7 434.5,-182.7"/>
<text text-anchor="start" x="437.5" y="-190.4" font-family="Helvetica,sans-Serif" font-size="11.00" fill="#000000">int[4]</text>
<polygon fill="#ffffff" stroke="transparent" points="238.5,-160.7 238.5,-182.7 434.5,-182.7 434.5,-160.7 238.5,-160.7"/>
<polygon fill="none" stroke="#000000" points="238.5,-160.7 238.5,-182.7 434.5,-182.7 434.5,-160.7 238.5,-160.7"/>
<image xlink:href="../../images/foreignKeys.png" width="11px" height="12px" preserveAspectRatio="xMinYMin meet" x="243.5" y="-177.7"/>
<text text-anchor="start" x="258.5" y="-167.8" font-family="Helvetica,sans-Serif" font-size="11.00" fill="#000000">InsuranceId</text>
<polygon fill="none" stroke="#000000" points="434.5,-160.7 434.5,-182.7 515.5,-182.7 515.5,-160.7 434.5,-160.7"/>
<text text-anchor="start" x="437.5" y="-168.4" font-family="Helvetica,sans-Serif" font-size="11.00" fill="#000000">int[4]</text>
<polygon fill="none" stroke="#000000" points="238.5,-138.7 238.5,-160.7 434.5,-160.7 434.5,-138.7 238.5,-138.7"/>
<text text-anchor="start" x="258.5" y="-145.8" font-family="Helvetica,sans-Serif" font-size="11.00" fill="#000000">StartDate</text>
<polygon fill="none" stroke="#000000" points="434.5,-138.7 434.5,-160.7 515.5,-160.7 515.5,-138.7 434.5,-138.7"/>
<text text-anchor="start" x="437.0968" y="-146.4" font-family="Helvetica,sans-Serif" font-size="11.00" fill="#000000">datetime2[16,7]</text>
<polygon fill="none" stroke="#000000" points="238.5,-116.7 238.5,-138.7 434.5,-138.7 434.5,-116.7 238.5,-116.7"/>
<text text-anchor="start" x="258.5" y="-123.8" font-family="Helvetica,sans-Serif" font-size="11.00" fill="#000000">CreatedAtUtc</text>
<polygon fill="none" stroke="#000000" points="434.5,-116.7 434.5,-138.7 515.5,-138.7 515.5,-116.7 434.5,-116.7"/>
<text text-anchor="start" x="437.0968" y="-124.4" font-family="Helvetica,sans-Serif" font-size="11.00" fill="#000000">datetime2[16,7]</text>
<polygon fill="none" stroke="#000000" points="238.5,-94.7 238.5,-116.7 434.5,-116.7 434.5,-94.7 238.5,-94.7"/>
<text text-anchor="start" x="258.5" y="-101.8" font-family="Helvetica,sans-Serif" font-size="11.00" fill="#000000">UpdatedAtUtc</text>
<polygon fill="none" stroke="#000000" points="434.5,-94.7 434.5,-116.7 515.5,-116.7 515.5,-94.7 434.5,-94.7"/>
<text text-anchor="start" x="437.0968" y="-102.4" font-family="Helvetica,sans-Serif" font-size="11.00" fill="#000000">datetime2[16,7]</text>
<polygon fill="none" stroke="#000000" points="238.5,-72.7 238.5,-94.7 434.5,-94.7 434.5,-72.7 238.5,-72.7"/>
<text text-anchor="start" x="258.5" y="-79.8" font-family="Helvetica,sans-Serif" font-size="11.00" fill="#000000">RowVersion</text>
<polygon fill="none" stroke="#000000" points="434.5,-72.7 434.5,-94.7 515.5,-94.7 515.5,-72.7 434.5,-72.7"/>
<text text-anchor="start" x="437.5" y="-80.4" font-family="Helvetica,sans-Serif" font-size="11.00" fill="#000000">timestamp[8]</text>
<polygon fill="#ffffff" stroke="transparent" points="238.5,-53.7 238.5,-72.7 340.5,-72.7 340.5,-53.7 238.5,-53.7"/>
<polygon fill="none" stroke="#000000" points="238.5,-53.7 238.5,-72.7 340.5,-72.7 340.5,-53.7 238.5,-53.7"/>
<text text-anchor="start" x="241.5" y="-59.8" font-family="Helvetica,sans-Serif" font-size="11.00" fill="#000000">&lt; 2</text>
<polygon fill="#ffffff" stroke="transparent" points="340.5,-53.7 340.5,-72.7 434.5,-72.7 434.5,-53.7 340.5,-53.7"/>
<polygon fill="none" stroke="#000000" points="340.5,-53.7 340.5,-72.7 434.5,-72.7 434.5,-53.7 340.5,-53.7"/>
<text text-anchor="start" x="425.3862" y="-59.8" font-family="Helvetica,sans-Serif" font-size="11.00" fill="#000000"> &#160;</text>
<polygon fill="#ffffff" stroke="transparent" points="434.5,-53.7 434.5,-72.7 515.5,-72.7 515.5,-53.7 434.5,-53.7"/>
<polygon fill="none" stroke="#000000" points="434.5,-53.7 434.5,-72.7 515.5,-72.7 515.5,-53.7 434.5,-53.7"/>
<text text-anchor="start" x="496.9053" y="-59.8" font-family="Helvetica,sans-Serif" font-size="11.00" fill="#000000">0 &gt;</text>
<polygon fill="none" stroke="#000000" stroke-width="2" points="237,-52.7 237,-250.7 516,-250.7 516,-52.7 237,-52.7"/>
</a>
</g>
</g>
<!-- Hospitalizations -->
<g id="node2" class="node">
<title>Hospitalizations</title>
<g id="a_node2"><a xlink:href="../../tables/Hospitalizations.html" xlink:title="Hospitalizations" target="_top">
<polygon fill="#ffffff" stroke="transparent" points="8,-142.2 8,-313.2 187,-313.2 187,-142.2 8,-142.2"/>
<polygon fill="#f5f5f5" stroke="transparent" points="8.5,-289.7 8.5,-312.7 187.5,-312.7 187.5,-289.7 8.5,-289.7"/>
<polygon fill="none" stroke="#000000" points="8.5,-289.7 8.5,-312.7 187.5,-312.7 187.5,-289.7 8.5,-289.7"/>
<text text-anchor="start" x="13.5" y="-298.3" font-family="Helvetica,sans-Serif" font-weight="bold" font-size="11.00" fill="#000000">Hospitalizations</text>
<text text-anchor="start" x="152.5437" y="-297.8" font-family="Helvetica,sans-Serif" font-size="11.00" fill="#000000">[table]</text>
<polygon fill="none" stroke="#000000" points="8.5,-267.7 8.5,-289.7 187.5,-289.7 187.5,-267.7 8.5,-267.7"/>
<image xlink:href="../../images/primaryKeys.png" width="11px" height="12px" preserveAspectRatio="xMinYMin meet" x="13.5" y="-284.7"/>
<text text-anchor="start" x="28.5" y="-274.8" font-family="Helvetica,sans-Serif" font-size="11.00" fill="#000000">Id</text>
<polygon fill="#ffffff" stroke="transparent" points="8.5,-245.7 8.5,-267.7 187.5,-267.7 187.5,-245.7 8.5,-245.7"/>
<polygon fill="none" stroke="#000000" points="8.5,-245.7 8.5,-267.7 187.5,-267.7 187.5,-245.7 8.5,-245.7"/>
<image xlink:href="../../images/foreignKeys.png" width="11px" height="12px" preserveAspectRatio="xMinYMin meet" x="13.5" y="-262.7"/>
<text text-anchor="start" x="28.5" y="-252.8" font-family="Helvetica,sans-Serif" font-size="11.00" fill="#000000">PatientId</text>
<polygon fill="#ffffff" stroke="transparent" points="8.5,-223.7 8.5,-245.7 187.5,-245.7 187.5,-223.7 8.5,-223.7"/>
<polygon fill="none" stroke="#000000" points="8.5,-223.7 8.5,-245.7 187.5,-245.7 187.5,-223.7 8.5,-223.7"/>
<text text-anchor="start" x="28.5" y="-230.8" font-family="Helvetica,sans-Serif" font-size="11.00" fill="#000000">CaseId</text>
<polygon fill="#ffffff" stroke="transparent" points="8.5,-201.7 8.5,-223.7 187.5,-223.7 187.5,-201.7 8.5,-201.7"/>
<polygon fill="none" stroke="#000000" points="8.5,-201.7 8.5,-223.7 187.5,-223.7 187.5,-201.7 8.5,-201.7"/>
<image xlink:href="../../images/foreignKeys.png" width="11px" height="12px" preserveAspectRatio="xMinYMin meet" x="13.5" y="-218.7"/>
<text text-anchor="start" x="28.5" y="-208.8" font-family="Helvetica,sans-Serif" font-size="11.00" fill="#000000">FacilityId</text>
<polygon fill="none" stroke="#000000" points="8.5,-179.7 8.5,-201.7 187.5,-201.7 187.5,-179.7 8.5,-179.7"/>
<image xlink:href="../../images/foreignKeys.png" width="11px" height="12px" preserveAspectRatio="xMinYMin meet" x="13.5" y="-196.7"/>
<text text-anchor="start" x="28.5" y="-186.8" font-family="Helvetica,sans-Serif" font-size="11.00" fill="#000000">HospitalizationStatusId</text>
<polygon fill="none" stroke="#000000" points="8.5,-160.7 8.5,-179.7 187.5,-179.7 187.5,-160.7 8.5,-160.7"/>
<text text-anchor="start" x="11.5" y="-166.8" font-family="Helvetica,sans-Serif" font-size="11.00" fill="#000000">...</text>
<polygon fill="#ffffff" stroke="transparent" points="8.5,-141.7 8.5,-160.7 91.5,-160.7 91.5,-141.7 8.5,-141.7"/>
<polygon fill="none" stroke="#000000" points="8.5,-141.7 8.5,-160.7 91.5,-160.7 91.5,-141.7 8.5,-141.7"/>
<text text-anchor="start" x="11.5" y="-147.8" font-family="Helvetica,sans-Serif" font-size="11.00" fill="#000000">&lt; 3</text>
<polygon fill="#ffffff" stroke="transparent" points="91.5,-141.7 91.5,-160.7 134.5,-160.7 134.5,-141.7 91.5,-141.7"/>
<polygon fill="none" stroke="#000000" points="91.5,-141.7 91.5,-160.7 134.5,-160.7 134.5,-141.7 91.5,-141.7"/>
<text text-anchor="start" x="125.3862" y="-147.8" font-family="Helvetica,sans-Serif" font-size="11.00" fill="#000000"> &#160;</text>
<polygon fill="#ffffff" stroke="transparent" points="134.5,-141.7 134.5,-160.7 187.5,-160.7 187.5,-141.7 134.5,-141.7"/>
<polygon fill="none" stroke="#000000" points="134.5,-141.7 134.5,-160.7 187.5,-160.7 187.5,-141.7 134.5,-141.7"/>
<text text-anchor="start" x="168.9053" y="-147.8" font-family="Helvetica,sans-Serif" font-size="11.00" fill="#000000">3 &gt;</text>
</a>
</g>
</g>
<!-- HospitalizationInsurances&#45;&gt;Hospitalizations -->
<g id="edge1" class="edge">
<title>HospitalizationInsurances:w&#45;&gt;Hospitalizations:e</title>
<path fill="none" stroke="#000000" d="M224.5669,-198.032C203.0746,-215.3534 225.5328,-278.7 187.5,-278.7"/>
<polygon fill="#000000" stroke="#000000" points="230.8607,-196.0752 239.5688,-197.1377 234.6804,-194.8876 238.5,-193.7 238.5,-193.7 238.5,-193.7 234.6804,-194.8876 237.4312,-190.2623 230.8607,-196.0752 230.8607,-196.0752"/>
<ellipse fill="none" stroke="#000000" cx="227.805" cy="-197.0253" rx="3.2" ry="3.2"/>
</g>
<!-- Insurances -->
<g id="node3" class="node">
<title>Insurances</title>
<g id="a_node3"><a xlink:href="../../tables/Insurances.html" xlink:title="Insurances" target="_top">
<polygon fill="#ffffff" stroke="transparent" points="26,-38.2 26,-121.2 169,-121.2 169,-38.2 26,-38.2"/>
<polygon fill="#f5f5f5" stroke="transparent" points="26.5,-97.7 26.5,-120.7 169.5,-120.7 169.5,-97.7 26.5,-97.7"/>
<polygon fill="none" stroke="#000000" points="26.5,-97.7 26.5,-120.7 169.5,-120.7 169.5,-97.7 26.5,-97.7"/>
<text text-anchor="start" x="31.5" y="-106.3" font-family="Helvetica,sans-Serif" font-weight="bold" font-size="11.00" fill="#000000">Insurances</text>
<text text-anchor="start" x="134.5437" y="-105.8" font-family="Helvetica,sans-Serif" font-size="11.00" fill="#000000">[table]</text>
<polygon fill="none" stroke="#000000" points="26.5,-75.7 26.5,-97.7 169.5,-97.7 169.5,-75.7 26.5,-75.7"/>
<image xlink:href="../../images/primaryKeys.png" width="11px" height="12px" preserveAspectRatio="xMinYMin meet" x="31.5" y="-92.7"/>
<text text-anchor="start" x="46.5" y="-82.8" font-family="Helvetica,sans-Serif" font-size="11.00" fill="#000000">Id</text>
<polygon fill="none" stroke="#000000" points="26.5,-56.7 26.5,-75.7 169.5,-75.7 169.5,-56.7 26.5,-56.7"/>
<text text-anchor="start" x="29.5" y="-62.8" font-family="Helvetica,sans-Serif" font-size="11.00" fill="#000000">...</text>
<polygon fill="#ffffff" stroke="transparent" points="26.5,-37.7 26.5,-56.7 87.5,-56.7 87.5,-37.7 26.5,-37.7"/>
<polygon fill="none" stroke="#000000" points="26.5,-37.7 26.5,-56.7 87.5,-56.7 87.5,-37.7 26.5,-37.7"/>
<text text-anchor="start" x="29.5" y="-43.8" font-family="Helvetica,sans-Serif" font-size="11.00" fill="#000000"> &#160;</text>
<polygon fill="#ffffff" stroke="transparent" points="87.5,-37.7 87.5,-56.7 123.5,-56.7 123.5,-37.7 87.5,-37.7"/>
<polygon fill="none" stroke="#000000" points="87.5,-37.7 87.5,-56.7 123.5,-56.7 123.5,-37.7 87.5,-37.7"/>
<text text-anchor="start" x="114.3862" y="-43.8" font-family="Helvetica,sans-Serif" font-size="11.00" fill="#000000"> &#160;</text>
<polygon fill="#ffffff" stroke="transparent" points="123.5,-37.7 123.5,-56.7 169.5,-56.7 169.5,-37.7 123.5,-37.7"/>
<polygon fill="none" stroke="#000000" points="123.5,-37.7 123.5,-56.7 169.5,-56.7 169.5,-37.7 123.5,-37.7"/>
<text text-anchor="start" x="150.9053" y="-43.8" font-family="Helvetica,sans-Serif" font-size="11.00" fill="#000000">1 &gt;</text>
</a>
</g>
</g>
<!-- HospitalizationInsurances&#45;&gt;Insurances -->
<g id="edge2" class="edge">
<title>HospitalizationInsurances:w&#45;&gt;Insurances:e</title>
<path fill="none" stroke="#000000" d="M224.3171,-168.4717C195.4215,-152.9454 212.4559,-86.7 169.5,-86.7"/>
<polygon fill="#000000" stroke="#000000" points="230.6995,-169.9244 237.701,-175.2102 234.5998,-170.8122 238.5,-171.7 238.5,-171.7 238.5,-171.7 234.5998,-170.8122 239.299,-168.1898 230.6995,-169.9244 230.6995,-169.9244"/>
<ellipse fill="none" stroke="#000000" cx="227.5793" cy="-169.2142" rx="3.2" ry="3.2"/>
</g>
</g>
</svg>
