<?xml version="1.0" encoding="UTF-8" standalone="no"?>
<!DOCTYPE svg PUBLIC "-//W3C//DTD SVG 1.1//EN"
 "http://www.w3.org/Graphics/SVG/1.1/DTD/svg11.dtd">
<!-- Generated by graphviz version 2.40.1 (20161225.0304)
 -->
<!-- Title: twoDegreesRelationshipsDiagram Pages: 1 -->
<svg width="515pt" height="355pt"
 viewBox="0.00 0.00 515.00 354.70" xmlns="http://www.w3.org/2000/svg" xmlns:xlink="http://www.w3.org/1999/xlink">
<g id="graph0" class="graph" transform="scale(1 1) rotate(0) translate(4 350.7)">
<title>twoDegreesRelationshipsDiagram</title>
<polygon fill="#ffffff" stroke="transparent" points="-4,4 -4,-350.7 511,-350.7 511,4 -4,4"/>
<text text-anchor="middle" x="72.4936" y="-7.3" font-family="Helvetica,sans-Serif" font-size="11.00" fill="#000000">Generated by SchemaSpy</text>
<!-- HospitalizationInsurances -->
<g id="node1" class="node">
<title>HospitalizationInsurances</title>
<g id="a_node1"><a xlink:href="../../tables/HospitalizationInsurances.html" xlink:title="HospitalizationInsurances" target="_top">
<polygon fill="#ffffff" stroke="transparent" points="285,-206.7 285,-333.7 499,-333.7 499,-206.7 285,-206.7"/>
<polygon fill="#f5f5f5" stroke="transparent" points="285,-310.2 285,-333.2 499,-333.2 499,-310.2 285,-310.2"/>
<polygon fill="none" stroke="#000000" points="285,-310.2 285,-333.2 499,-333.2 499,-310.2 285,-310.2"/>
<text text-anchor="start" x="290" y="-318.8" font-family="Helvetica,sans-Serif" font-weight="bold" font-size="11.00" fill="#000000">HospitalizationInsurances</text>
<text text-anchor="start" x="464.5219" y="-318.3" font-family="Helvetica,sans-Serif" font-size="11.00" fill="#000000">[table]</text>
<polygon fill="none" stroke="#000000" points="285,-288.2 285,-310.2 499,-310.2 499,-288.2 285,-288.2"/>
<image xlink:href="../../images/primaryKeys.png" width="11px" height="12px" preserveAspectRatio="xMinYMin meet" x="290" y="-305.2"/>
<text text-anchor="start" x="314" y="-295.3" font-family="Helvetica,sans-Serif" font-size="11.00" fill="#000000">Id</text>
<polygon fill="#ffffff" stroke="transparent" points="285,-266.2 285,-288.2 499,-288.2 499,-266.2 285,-266.2"/>
<polygon fill="none" stroke="#000000" points="285,-266.2 285,-288.2 499,-288.2 499,-266.2 285,-266.2"/>
<image xlink:href="../../images/foreignKeys.png" width="11px" height="12px" preserveAspectRatio="xMinYMin meet" x="290" y="-283.2"/>
<text text-anchor="start" x="314" y="-273.3" font-family="Helvetica,sans-Serif" font-size="11.00" fill="#000000">HospitalizationId</text>
<polygon fill="#ffffff" stroke="transparent" points="285,-244.2 285,-266.2 499,-266.2 499,-244.2 285,-244.2"/>
<polygon fill="none" stroke="#000000" points="285,-244.2 285,-266.2 499,-266.2 499,-244.2 285,-244.2"/>
<image xlink:href="../../images/foreignKeys.png" width="11px" height="12px" preserveAspectRatio="xMinYMin meet" x="290" y="-261.2"/>
<text text-anchor="start" x="314" y="-251.3" font-family="Helvetica,sans-Serif" font-size="11.00" fill="#000000">InsuranceId</text>
<polygon fill="none" stroke="#000000" points="285,-225.2 285,-244.2 499,-244.2 499,-225.2 285,-225.2"/>
<text text-anchor="start" x="288" y="-231.3" font-family="Helvetica,sans-Serif" font-size="11.00" fill="#000000">...</text>
<polygon fill="#ffffff" stroke="transparent" points="285,-206.2 285,-225.2 390,-225.2 390,-206.2 285,-206.2"/>
<polygon fill="none" stroke="#000000" points="285,-206.2 285,-225.2 390,-225.2 390,-206.2 285,-206.2"/>
<text text-anchor="start" x="288" y="-212.3" font-family="Helvetica,sans-Serif" font-size="11.00" fill="#000000">&lt; 2</text>
<polygon fill="#ffffff" stroke="transparent" points="390,-206.2 390,-225.2 444,-225.2 444,-206.2 390,-206.2"/>
<polygon fill="none" stroke="#000000" points="390,-206.2 390,-225.2 444,-225.2 444,-206.2 390,-206.2"/>
<text text-anchor="start" x="434.8862" y="-212.3" font-family="Helvetica,sans-Serif" font-size="11.00" fill="#000000"> &#160;</text>
<polygon fill="#ffffff" stroke="transparent" points="444,-206.2 444,-225.2 499,-225.2 499,-206.2 444,-206.2"/>
<polygon fill="none" stroke="#000000" points="444,-206.2 444,-225.2 499,-225.2 499,-206.2 444,-206.2"/>
<text text-anchor="start" x="489.8862" y="-212.3" font-family="Helvetica,sans-Serif" font-size="11.00" fill="#000000"> &#160;</text>
</a>
</g>
</g>
<!-- Hospitalizations -->
<g id="node2" class="node">
<title>Hospitalizations</title>
<g id="a_node2"><a xlink:href="../../tables/Hospitalizations.html" xlink:title="Hospitalizations" target="_top">
<polygon fill="#ffffff" stroke="transparent" points="48,-281.7 48,-342.7 196,-342.7 196,-281.7 48,-281.7"/>
<polygon fill="#f5f5f5" stroke="transparent" points="48,-319.2 48,-342.2 196,-342.2 196,-319.2 48,-319.2"/>
<polygon fill="none" stroke="#000000" points="48,-319.2 48,-342.2 196,-342.2 196,-319.2 48,-319.2"/>
<text text-anchor="start" x="53" y="-327.8" font-family="Helvetica,sans-Serif" font-weight="bold" font-size="11.00" fill="#000000">Hospitalizations</text>
<text text-anchor="start" x="161.5219" y="-327.3" font-family="Helvetica,sans-Serif" font-size="11.00" fill="#000000">[table]</text>
<polygon fill="none" stroke="#000000" points="48,-300.2 48,-319.2 196,-319.2 196,-300.2 48,-300.2"/>
<text text-anchor="start" x="51" y="-306.3" font-family="Helvetica,sans-Serif" font-size="11.00" fill="#000000">...</text>
<polygon fill="#ffffff" stroke="transparent" points="48,-281.2 48,-300.2 116,-300.2 116,-281.2 48,-281.2"/>
<polygon fill="none" stroke="#000000" points="48,-281.2 48,-300.2 116,-300.2 116,-281.2 48,-281.2"/>
<text text-anchor="start" x="51" y="-287.3" font-family="Helvetica,sans-Serif" font-size="11.00" fill="#000000">&lt; 3</text>
<polygon fill="#ffffff" stroke="transparent" points="116,-281.2 116,-300.2 151,-300.2 151,-281.2 116,-281.2"/>
<polygon fill="none" stroke="#000000" points="116,-281.2 116,-300.2 151,-300.2 151,-281.2 116,-281.2"/>
<text text-anchor="start" x="141.8862" y="-287.3" font-family="Helvetica,sans-Serif" font-size="11.00" fill="#000000"> &#160;</text>
<polygon fill="#ffffff" stroke="transparent" points="151,-281.2 151,-300.2 196,-300.2 196,-281.2 151,-281.2"/>
<polygon fill="none" stroke="#000000" points="151,-281.2 151,-300.2 196,-300.2 196,-281.2 151,-281.2"/>
<text text-anchor="start" x="177.4053" y="-287.3" font-family="Helvetica,sans-Serif" font-size="11.00" fill="#000000">3 &gt;</text>
</a>
</g>
</g>
<!-- HospitalizationInsurances&#45;&gt;Hospitalizations -->
<g id="edge1" class="edge">
<title>HospitalizationInsurances:w&#45;&gt;Hospitalizations:e</title>
<path fill="none" stroke="#000000" d="M270.4351,-278.6581C241.0776,-284.9183 232.6161,-309.2 196,-309.2"/>
<polygon fill="#000000" stroke="#000000" points="277.0398,-277.997 285.3586,-280.7821 281.0199,-277.5985 285,-277.2 285,-277.2 285,-277.2 281.0199,-277.5985 284.6414,-273.6179 277.0398,-277.997 277.0398,-277.997"/>
<ellipse fill="none" stroke="#000000" cx="273.8557" cy="-278.3158" rx="3.2" ry="3.2"/>
</g>
<!-- Insurances -->
<g id="node3" class="node">
<title>Insurances</title>
<g id="a_node3"><a xlink:href="../../tables/Insurances.html" xlink:title="Insurances" target="_top">
<polygon fill="#ffffff" stroke="transparent" points="8,-38.2 8,-260.2 236,-260.2 236,-38.2 8,-38.2"/>
<polygon fill="#f5f5f5" stroke="transparent" points="10,-235.2 10,-258.2 234,-258.2 234,-235.2 10,-235.2"/>
<polygon fill="none" stroke="#000000" points="10,-235.2 10,-258.2 234,-258.2 234,-235.2 10,-235.2"/>
<text text-anchor="start" x="15" y="-243.8" font-family="Helvetica,sans-Serif" font-weight="bold" font-size="11.00" fill="#000000">Insurances</text>
<text text-anchor="start" x="199.0437" y="-243.3" font-family="Helvetica,sans-Serif" font-size="11.00" fill="#000000">[table]</text>
<polygon fill="none" stroke="#000000" points="10,-213.2 10,-235.2 153,-235.2 153,-213.2 10,-213.2"/>
<image xlink:href="../../images/primaryKeys.png" width="11px" height="12px" preserveAspectRatio="xMinYMin meet" x="15" y="-230.2"/>
<text text-anchor="start" x="30" y="-220.3" font-family="Helvetica,sans-Serif" font-size="11.00" fill="#000000">Id</text>
<polygon fill="none" stroke="#000000" points="153,-213.2 153,-235.2 234,-235.2 234,-213.2 153,-213.2"/>
<text text-anchor="start" x="156" y="-220.9" font-family="Helvetica,sans-Serif" font-size="11.00" fill="#000000">int identity[4]</text>
<polygon fill="none" stroke="#000000" points="10,-191.2 10,-213.2 153,-213.2 153,-191.2 10,-191.2"/>
<text text-anchor="start" x="30" y="-198.3" font-family="Helvetica,sans-Serif" font-size="11.00" fill="#000000">Code</text>
<polygon fill="none" stroke="#000000" points="153,-191.2 153,-213.2 234,-213.2 234,-191.2 153,-191.2"/>
<text text-anchor="start" x="156" y="-198.9" font-family="Helvetica,sans-Serif" font-size="11.00" fill="#000000">nvarchar[20]</text>
<polygon fill="none" stroke="#000000" points="10,-169.2 10,-191.2 153,-191.2 153,-169.2 10,-169.2"/>
<text text-anchor="start" x="30" y="-176.3" font-family="Helvetica,sans-Serif" font-size="11.00" fill="#000000">Description</text>
<polygon fill="none" stroke="#000000" points="153,-169.2 153,-191.2 234,-191.2 234,-169.2 153,-169.2"/>
<text text-anchor="start" x="156" y="-176.9" font-family="Helvetica,sans-Serif" font-size="11.00" fill="#000000">nvarchar[200]</text>
<polygon fill="none" stroke="#000000" points="10,-147.2 10,-169.2 153,-169.2 153,-147.2 10,-147.2"/>
<text text-anchor="start" x="30" y="-154.3" font-family="Helvetica,sans-Serif" font-size="11.00" fill="#000000">PhysicianIncluded</text>
<polygon fill="none" stroke="#000000" points="153,-147.2 153,-169.2 234,-169.2 234,-147.2 153,-147.2"/>
<text text-anchor="start" x="156" y="-154.9" font-family="Helvetica,sans-Serif" font-size="11.00" fill="#000000">bit[1]</text>
<polygon fill="none" stroke="#000000" points="10,-125.2 10,-147.2 153,-147.2 153,-125.2 10,-125.2"/>
<text text-anchor="start" x="30" y="-132.3" font-family="Helvetica,sans-Serif" font-size="11.00" fill="#000000">IsContracted</text>
<polygon fill="none" stroke="#000000" points="153,-125.2 153,-147.2 234,-147.2 234,-125.2 153,-125.2"/>
<text text-anchor="start" x="156" y="-132.9" font-family="Helvetica,sans-Serif" font-size="11.00" fill="#000000">bit[1]</text>
<polygon fill="none" stroke="#000000" points="10,-103.2 10,-125.2 153,-125.2 153,-103.2 10,-103.2"/>
<text text-anchor="start" x="30" y="-110.3" font-family="Helvetica,sans-Serif" font-size="11.00" fill="#000000">CreatedAtUtc</text>
<polygon fill="none" stroke="#000000" points="153,-103.2 153,-125.2 234,-125.2 234,-103.2 153,-103.2"/>
<text text-anchor="start" x="155.5967" y="-110.9" font-family="Helvetica,sans-Serif" font-size="11.00" fill="#000000">datetime2[16,7]</text>
<polygon fill="none" stroke="#000000" points="10,-81.2 10,-103.2 153,-103.2 153,-81.2 10,-81.2"/>
<text text-anchor="start" x="30" y="-88.3" font-family="Helvetica,sans-Serif" font-size="11.00" fill="#000000">UpdatedAtUtc</text>
<polygon fill="none" stroke="#000000" points="153,-81.2 153,-103.2 234,-103.2 234,-81.2 153,-81.2"/>
<text text-anchor="start" x="155.5967" y="-88.9" font-family="Helvetica,sans-Serif" font-size="11.00" fill="#000000">datetime2[16,7]</text>
<polygon fill="none" stroke="#000000" points="10,-59.2 10,-81.2 153,-81.2 153,-59.2 10,-59.2"/>
<text text-anchor="start" x="30" y="-66.3" font-family="Helvetica,sans-Serif" font-size="11.00" fill="#000000">RowVersion</text>
<polygon fill="none" stroke="#000000" points="153,-59.2 153,-81.2 234,-81.2 234,-59.2 153,-59.2"/>
<text text-anchor="start" x="156" y="-66.9" font-family="Helvetica,sans-Serif" font-size="11.00" fill="#000000">timestamp[8]</text>
<polygon fill="#ffffff" stroke="transparent" points="10,-40.2 10,-59.2 86,-59.2 86,-40.2 10,-40.2"/>
<polygon fill="none" stroke="#000000" points="10,-40.2 10,-59.2 86,-59.2 86,-40.2 10,-40.2"/>
<text text-anchor="start" x="13" y="-46.3" font-family="Helvetica,sans-Serif" font-size="11.00" fill="#000000">&lt; 0</text>
<polygon fill="#ffffff" stroke="transparent" points="86,-40.2 86,-59.2 153,-59.2 153,-40.2 86,-40.2"/>
<polygon fill="none" stroke="#000000" points="86,-40.2 86,-59.2 153,-59.2 153,-40.2 86,-40.2"/>
<text text-anchor="start" x="143.8862" y="-46.3" font-family="Helvetica,sans-Serif" font-size="11.00" fill="#000000"> &#160;</text>
<polygon fill="#ffffff" stroke="transparent" points="153,-40.2 153,-59.2 234,-59.2 234,-40.2 153,-40.2"/>
<polygon fill="none" stroke="#000000" points="153,-40.2 153,-59.2 234,-59.2 234,-40.2 153,-40.2"/>
<text text-anchor="start" x="215.4053" y="-46.3" font-family="Helvetica,sans-Serif" font-size="11.00" fill="#000000">1 &gt;</text>
<polygon fill="none" stroke="#000000" stroke-width="2" points="9,-39.2 9,-259.2 235,-259.2 235,-39.2 9,-39.2"/>
</a>
</g>
</g>
<!-- HospitalizationInsurances&#45;&gt;Insurances -->
<g id="edge2" class="edge">
<title>HospitalizationInsurances:w&#45;&gt;Insurances:e</title>
<path fill="none" stroke="#000000" d="M271.0967,-251.3988C258.0044,-243.1209 254.7231,-224.2 234,-224.2"/>
<polygon fill="#000000" stroke="#000000" points="277.2832,-253.0902 284.0506,-258.6726 281.1416,-254.1451 285,-255.2 285,-255.2 285,-255.2 281.1416,-254.1451 285.9494,-251.7274 277.2832,-253.0902 277.2832,-253.0902"/>
<ellipse fill="none" stroke="#000000" cx="274.1965" cy="-252.2462" rx="3.2" ry="3.2"/>
</g>
</g>
</svg>
