<?xml version="1.0" encoding="UTF-8" standalone="no"?>
<!DOCTYPE svg PUBLIC "-//W3C//DTD SVG 1.1//EN"
 "http://www.w3.org/Graphics/SVG/1.1/DTD/svg11.dtd">
<!-- Generated by graphviz version 2.40.1 (20161225.0304)
 -->
<!-- Title: oneDegreeRelationshipsDiagram Pages: 1 -->
<svg width="405pt" height="268pt"
 viewBox="0.00 0.00 405.00 267.70" xmlns="http://www.w3.org/2000/svg" xmlns:xlink="http://www.w3.org/1999/xlink">
<g id="graph0" class="graph" transform="scale(1 1) rotate(0) translate(4 263.7)">
<title>oneDegreeRelationshipsDiagram</title>
<polygon fill="#ffffff" stroke="transparent" points="-4,4 -4,-263.7 401,-263.7 401,4 -4,4"/>
<text text-anchor="middle" x="72.4936" y="-7.3" font-family="Helvetica,sans-Serif" font-size="11.00" fill="#000000">Generated by SchemaSpy</text>
<!-- PatientFacilities -->
<g id="node1" class="node">
<title>PatientFacilities</title>
<g id="a_node1"><a xlink:href="../../tables/PatientFacilities.html" xlink:title="PatientFacilities" target="_top">
<polygon fill="#ffffff" stroke="transparent" points="173,-38.2 173,-238.2 389,-238.2 389,-38.2 173,-38.2"/>
<polygon fill="#f5f5f5" stroke="transparent" points="175,-213.2 175,-236.2 387,-236.2 387,-213.2 175,-213.2"/>
<polygon fill="none" stroke="#000000" points="175,-213.2 175,-236.2 387,-236.2 387,-213.2 175,-213.2"/>
<text text-anchor="start" x="180" y="-221.8" font-family="Helvetica,sans-Serif" font-weight="bold" font-size="11.00" fill="#000000">PatientFacilities</text>
<text text-anchor="start" x="352.0437" y="-221.3" font-family="Helvetica,sans-Serif" font-size="11.00" fill="#000000">[table]</text>
<polygon fill="none" stroke="#000000" points="175,-191.2 175,-213.2 306,-213.2 306,-191.2 175,-191.2"/>
<image xlink:href="../../images/primaryKeys.png" width="11px" height="12px" preserveAspectRatio="xMinYMin meet" x="180" y="-208.2"/>
<text text-anchor="start" x="195" y="-198.3" font-family="Helvetica,sans-Serif" font-size="11.00" fill="#000000">Id</text>
<polygon fill="none" stroke="#000000" points="306,-191.2 306,-213.2 387,-213.2 387,-191.2 306,-191.2"/>
<text text-anchor="start" x="309" y="-198.9" font-family="Helvetica,sans-Serif" font-size="11.00" fill="#000000">int identity[4]</text>
<polygon fill="#ffffff" stroke="transparent" points="175,-169.2 175,-191.2 306,-191.2 306,-169.2 175,-169.2"/>
<polygon fill="none" stroke="#000000" points="175,-169.2 175,-191.2 306,-191.2 306,-169.2 175,-169.2"/>
<image xlink:href="../../images/foreignKeys.png" width="11px" height="12px" preserveAspectRatio="xMinYMin meet" x="180" y="-186.2"/>
<text text-anchor="start" x="195" y="-176.3" font-family="Helvetica,sans-Serif" font-size="11.00" fill="#000000">PatientId</text>
<polygon fill="none" stroke="#000000" points="306,-169.2 306,-191.2 387,-191.2 387,-169.2 306,-169.2"/>
<text text-anchor="start" x="309" y="-176.9" font-family="Helvetica,sans-Serif" font-size="11.00" fill="#000000">int[4]</text>
<polygon fill="#ffffff" stroke="transparent" points="175,-147.2 175,-169.2 306,-169.2 306,-147.2 175,-147.2"/>
<polygon fill="none" stroke="#000000" points="175,-147.2 175,-169.2 306,-169.2 306,-147.2 175,-147.2"/>
<image xlink:href="../../images/foreignKeys.png" width="11px" height="12px" preserveAspectRatio="xMinYMin meet" x="180" y="-164.2"/>
<text text-anchor="start" x="195" y="-154.3" font-family="Helvetica,sans-Serif" font-size="11.00" fill="#000000">FacilityId</text>
<polygon fill="none" stroke="#000000" points="306,-147.2 306,-169.2 387,-169.2 387,-147.2 306,-147.2"/>
<text text-anchor="start" x="309" y="-154.9" font-family="Helvetica,sans-Serif" font-size="11.00" fill="#000000">int[4]</text>
<polygon fill="#ffffff" stroke="transparent" points="175,-125.2 175,-147.2 306,-147.2 306,-125.2 175,-125.2"/>
<polygon fill="none" stroke="#000000" points="175,-125.2 175,-147.2 306,-147.2 306,-125.2 175,-125.2"/>
<text text-anchor="start" x="195" y="-132.3" font-family="Helvetica,sans-Serif" font-size="11.00" fill="#000000">MRN</text>
<polygon fill="none" stroke="#000000" points="306,-125.2 306,-147.2 387,-147.2 387,-125.2 306,-125.2"/>
<text text-anchor="start" x="309" y="-132.9" font-family="Helvetica,sans-Serif" font-size="11.00" fill="#000000">int[4]</text>
<polygon fill="none" stroke="#000000" points="175,-103.2 175,-125.2 306,-125.2 306,-103.2 175,-103.2"/>
<text text-anchor="start" x="195" y="-110.3" font-family="Helvetica,sans-Serif" font-size="11.00" fill="#000000">CreatedAtUtc</text>
<polygon fill="none" stroke="#000000" points="306,-103.2 306,-125.2 387,-125.2 387,-103.2 306,-103.2"/>
<text text-anchor="start" x="308.5968" y="-110.9" font-family="Helvetica,sans-Serif" font-size="11.00" fill="#000000">datetime2[16,7]</text>
<polygon fill="none" stroke="#000000" points="175,-81.2 175,-103.2 306,-103.2 306,-81.2 175,-81.2"/>
<text text-anchor="start" x="195" y="-88.3" font-family="Helvetica,sans-Serif" font-size="11.00" fill="#000000">UpdatedAtUtc</text>
<polygon fill="none" stroke="#000000" points="306,-81.2 306,-103.2 387,-103.2 387,-81.2 306,-81.2"/>
<text text-anchor="start" x="308.5968" y="-88.9" font-family="Helvetica,sans-Serif" font-size="11.00" fill="#000000">datetime2[16,7]</text>
<polygon fill="none" stroke="#000000" points="175,-59.2 175,-81.2 306,-81.2 306,-59.2 175,-59.2"/>
<text text-anchor="start" x="195" y="-66.3" font-family="Helvetica,sans-Serif" font-size="11.00" fill="#000000">RowVersion</text>
<polygon fill="none" stroke="#000000" points="306,-59.2 306,-81.2 387,-81.2 387,-59.2 306,-59.2"/>
<text text-anchor="start" x="309" y="-66.9" font-family="Helvetica,sans-Serif" font-size="11.00" fill="#000000">timestamp[8]</text>
<polygon fill="#ffffff" stroke="transparent" points="175,-40.2 175,-59.2 245,-59.2 245,-40.2 175,-40.2"/>
<polygon fill="none" stroke="#000000" points="175,-40.2 175,-59.2 245,-59.2 245,-40.2 175,-40.2"/>
<text text-anchor="start" x="178" y="-46.3" font-family="Helvetica,sans-Serif" font-size="11.00" fill="#000000">&lt; 2</text>
<polygon fill="#ffffff" stroke="transparent" points="245,-40.2 245,-59.2 306,-59.2 306,-40.2 245,-40.2"/>
<polygon fill="none" stroke="#000000" points="245,-40.2 245,-59.2 306,-59.2 306,-40.2 245,-40.2"/>
<text text-anchor="start" x="296.8862" y="-46.3" font-family="Helvetica,sans-Serif" font-size="11.00" fill="#000000"> &#160;</text>
<polygon fill="#ffffff" stroke="transparent" points="306,-40.2 306,-59.2 387,-59.2 387,-40.2 306,-40.2"/>
<polygon fill="none" stroke="#000000" points="306,-40.2 306,-59.2 387,-59.2 387,-40.2 306,-40.2"/>
<text text-anchor="start" x="368.4053" y="-46.3" font-family="Helvetica,sans-Serif" font-size="11.00" fill="#000000">0 &gt;</text>
<polygon fill="none" stroke="#000000" stroke-width="2" points="174,-39.2 174,-237.2 388,-237.2 388,-39.2 174,-39.2"/>
</a>
</g>
</g>
<!-- Facilities -->
<g id="node2" class="node">
<title>Facilities</title>
<g id="a_node2"><a xlink:href="../../tables/Facilities.html" xlink:title="Facilities" target="_top">
<polygon fill="#ffffff" stroke="transparent" points="8,-68.7 8,-151.7 124,-151.7 124,-68.7 8,-68.7"/>
<polygon fill="#f5f5f5" stroke="transparent" points="8,-128.2 8,-151.2 124,-151.2 124,-128.2 8,-128.2"/>
<polygon fill="none" stroke="#000000" points="8,-128.2 8,-151.2 124,-151.2 124,-128.2 8,-128.2"/>
<text text-anchor="start" x="13" y="-136.8" font-family="Helvetica,sans-Serif" font-weight="bold" font-size="11.00" fill="#000000">Facilities</text>
<text text-anchor="start" x="89.0437" y="-136.3" font-family="Helvetica,sans-Serif" font-size="11.00" fill="#000000">[table]</text>
<polygon fill="none" stroke="#000000" points="8,-106.2 8,-128.2 124,-128.2 124,-106.2 8,-106.2"/>
<image xlink:href="../../images/primaryKeys.png" width="11px" height="12px" preserveAspectRatio="xMinYMin meet" x="13" y="-123.2"/>
<text text-anchor="start" x="28" y="-113.3" font-family="Helvetica,sans-Serif" font-size="11.00" fill="#000000">Id</text>
<polygon fill="none" stroke="#000000" points="8,-87.2 8,-106.2 124,-106.2 124,-87.2 8,-87.2"/>
<text text-anchor="start" x="11" y="-93.3" font-family="Helvetica,sans-Serif" font-size="11.00" fill="#000000">...</text>
<polygon fill="#ffffff" stroke="transparent" points="8,-68.2 8,-87.2 55,-87.2 55,-68.2 8,-68.2"/>
<polygon fill="none" stroke="#000000" points="8,-68.2 8,-87.2 55,-87.2 55,-68.2 8,-68.2"/>
<text text-anchor="start" x="11" y="-74.3" font-family="Helvetica,sans-Serif" font-size="11.00" fill="#000000"> &#160;</text>
<polygon fill="#ffffff" stroke="transparent" points="55,-68.2 55,-87.2 85,-87.2 85,-68.2 55,-68.2"/>
<polygon fill="none" stroke="#000000" points="55,-68.2 55,-87.2 85,-87.2 85,-68.2 55,-68.2"/>
<text text-anchor="start" x="75.8862" y="-74.3" font-family="Helvetica,sans-Serif" font-size="11.00" fill="#000000"> &#160;</text>
<polygon fill="#ffffff" stroke="transparent" points="85,-68.2 85,-87.2 124,-87.2 124,-68.2 85,-68.2"/>
<polygon fill="none" stroke="#000000" points="85,-68.2 85,-87.2 124,-87.2 124,-68.2 85,-68.2"/>
<text text-anchor="start" x="105.4053" y="-74.3" font-family="Helvetica,sans-Serif" font-size="11.00" fill="#000000">2 &gt;</text>
</a>
</g>
</g>
<!-- PatientFacilities&#45;&gt;Facilities -->
<g id="edge1" class="edge">
<title>PatientFacilities:w&#45;&gt;Facilities:e</title>
<path fill="none" stroke="#000000" d="M161.1568,-153.8123C147.3325,-143.2354 147.1756,-117.2 124,-117.2"/>
<polygon fill="#000000" stroke="#000000" points="167.3739,-155.7828 173.9123,-161.6317 171.1869,-156.9914 175,-158.2 175,-158.2 175,-158.2 171.1869,-156.9914 176.0877,-154.7683 167.3739,-155.7828 167.3739,-155.7828"/>
<ellipse fill="none" stroke="#000000" cx="164.3235" cy="-154.8159" rx="3.2" ry="3.2"/>
</g>
<!-- Patients -->
<g id="node3" class="node">
<title>Patients</title>
<g id="a_node3"><a xlink:href="../../tables/Patients.html" xlink:title="Patients" target="_top">
<polygon fill="#ffffff" stroke="transparent" points="8,-172.7 8,-255.7 124,-255.7 124,-172.7 8,-172.7"/>
<polygon fill="#f5f5f5" stroke="transparent" points="8,-232.2 8,-255.2 124,-255.2 124,-232.2 8,-232.2"/>
<polygon fill="none" stroke="#000000" points="8,-232.2 8,-255.2 124,-255.2 124,-232.2 8,-232.2"/>
<text text-anchor="start" x="13" y="-240.8" font-family="Helvetica,sans-Serif" font-weight="bold" font-size="11.00" fill="#000000">Patients</text>
<text text-anchor="start" x="89.0437" y="-240.3" font-family="Helvetica,sans-Serif" font-size="11.00" fill="#000000">[table]</text>
<polygon fill="none" stroke="#000000" points="8,-210.2 8,-232.2 124,-232.2 124,-210.2 8,-210.2"/>
<image xlink:href="../../images/primaryKeys.png" width="11px" height="12px" preserveAspectRatio="xMinYMin meet" x="13" y="-227.2"/>
<text text-anchor="start" x="28" y="-217.3" font-family="Helvetica,sans-Serif" font-size="11.00" fill="#000000">Id</text>
<polygon fill="none" stroke="#000000" points="8,-191.2 8,-210.2 124,-210.2 124,-191.2 8,-191.2"/>
<text text-anchor="start" x="11" y="-197.3" font-family="Helvetica,sans-Serif" font-size="11.00" fill="#000000">...</text>
<polygon fill="#ffffff" stroke="transparent" points="8,-172.2 8,-191.2 55,-191.2 55,-172.2 8,-172.2"/>
<polygon fill="none" stroke="#000000" points="8,-172.2 8,-191.2 55,-191.2 55,-172.2 8,-172.2"/>
<text text-anchor="start" x="11" y="-178.3" font-family="Helvetica,sans-Serif" font-size="11.00" fill="#000000"> &#160;</text>
<polygon fill="#ffffff" stroke="transparent" points="55,-172.2 55,-191.2 85,-191.2 85,-172.2 55,-172.2"/>
<polygon fill="none" stroke="#000000" points="55,-172.2 55,-191.2 85,-191.2 85,-172.2 55,-172.2"/>
<text text-anchor="start" x="75.8862" y="-178.3" font-family="Helvetica,sans-Serif" font-size="11.00" fill="#000000"> &#160;</text>
<polygon fill="#ffffff" stroke="transparent" points="85,-172.2 85,-191.2 124,-191.2 124,-172.2 85,-172.2"/>
<polygon fill="none" stroke="#000000" points="85,-172.2 85,-191.2 124,-191.2 124,-172.2 85,-172.2"/>
<text text-anchor="start" x="105.4053" y="-178.3" font-family="Helvetica,sans-Serif" font-size="11.00" fill="#000000">2 &gt;</text>
</a>
</g>
</g>
<!-- PatientFacilities&#45;&gt;Patients -->
<g id="edge2" class="edge">
<title>PatientFacilities:w&#45;&gt;Patients:e</title>
<path fill="none" stroke="#000000" d="M161.1568,-184.5877C147.3325,-195.1646 147.1756,-221.2 124,-221.2"/>
<polygon fill="#000000" stroke="#000000" points="167.3739,-182.6172 176.0877,-183.6317 171.1869,-181.4086 175,-180.2 175,-180.2 175,-180.2 171.1869,-181.4086 173.9123,-176.7683 167.3739,-182.6172 167.3739,-182.6172"/>
<ellipse fill="none" stroke="#000000" cx="164.3235" cy="-183.5841" rx="3.2" ry="3.2"/>
</g>
</g>
</svg>
