<?xml version="1.0" encoding="UTF-8" standalone="no"?>
<!DOCTYPE svg PUBLIC "-//W3C//DTD SVG 1.1//EN"
 "http://www.w3.org/Graphics/SVG/1.1/DTD/svg11.dtd">
<!-- Generated by graphviz version 2.40.1 (20161225.0304)
 -->
<!-- Title: twoDegreesRelationshipsDiagram Pages: 1 -->
<svg width="405pt" height="333pt"
 viewBox="0.00 0.00 405.00 332.70" xmlns="http://www.w3.org/2000/svg" xmlns:xlink="http://www.w3.org/1999/xlink">
<g id="graph0" class="graph" transform="scale(1 1) rotate(0) translate(4 328.7)">
<title>twoDegreesRelationshipsDiagram</title>
<polygon fill="#ffffff" stroke="transparent" points="-4,4 -4,-328.7 401,-328.7 401,4 -4,4"/>
<text text-anchor="middle" x="72.4936" y="-7.3" font-family="Helvetica,sans-Serif" font-size="11.00" fill="#000000">Generated by SchemaSpy</text>
<!-- Hospitalizations -->
<g id="node1" class="node">
<title>Hospitalizations</title>
<g id="a_node1"><a xlink:href="../../tables/Hospitalizations.html" xlink:title="Hospitalizations" target="_top">
<polygon fill="#ffffff" stroke="transparent" points="207,-259.7 207,-320.7 355,-320.7 355,-259.7 207,-259.7"/>
<polygon fill="#f5f5f5" stroke="transparent" points="207,-297.2 207,-320.2 355,-320.2 355,-297.2 207,-297.2"/>
<polygon fill="none" stroke="#000000" points="207,-297.2 207,-320.2 355,-320.2 355,-297.2 207,-297.2"/>
<text text-anchor="start" x="212" y="-305.8" font-family="Helvetica,sans-Serif" font-weight="bold" font-size="11.00" fill="#000000">Hospitalizations</text>
<text text-anchor="start" x="320.5219" y="-305.3" font-family="Helvetica,sans-Serif" font-size="11.00" fill="#000000">[table]</text>
<polygon fill="none" stroke="#000000" points="207,-278.2 207,-297.2 355,-297.2 355,-278.2 207,-278.2"/>
<text text-anchor="start" x="210" y="-284.3" font-family="Helvetica,sans-Serif" font-size="11.00" fill="#000000">...</text>
<polygon fill="#ffffff" stroke="transparent" points="207,-259.2 207,-278.2 275,-278.2 275,-259.2 207,-259.2"/>
<polygon fill="none" stroke="#000000" points="207,-259.2 207,-278.2 275,-278.2 275,-259.2 207,-259.2"/>
<text text-anchor="start" x="210" y="-265.3" font-family="Helvetica,sans-Serif" font-size="11.00" fill="#000000">&lt; 3</text>
<polygon fill="#ffffff" stroke="transparent" points="275,-259.2 275,-278.2 310,-278.2 310,-259.2 275,-259.2"/>
<polygon fill="none" stroke="#000000" points="275,-259.2 275,-278.2 310,-278.2 310,-259.2 275,-259.2"/>
<text text-anchor="start" x="300.8862" y="-265.3" font-family="Helvetica,sans-Serif" font-size="11.00" fill="#000000"> &#160;</text>
<polygon fill="#ffffff" stroke="transparent" points="310,-259.2 310,-278.2 355,-278.2 355,-259.2 310,-259.2"/>
<polygon fill="none" stroke="#000000" points="310,-259.2 310,-278.2 355,-278.2 355,-259.2 310,-259.2"/>
<text text-anchor="start" x="336.4053" y="-265.3" font-family="Helvetica,sans-Serif" font-size="11.00" fill="#000000">3 &gt;</text>
</a>
</g>
</g>
<!-- Facilities -->
<g id="node2" class="node">
<title>Facilities</title>
<g id="a_node2"><a xlink:href="../../tables/Facilities.html" xlink:title="Facilities" target="_top">
<polygon fill="#ffffff" stroke="transparent" points="8,-121.7 8,-204.7 124,-204.7 124,-121.7 8,-121.7"/>
<polygon fill="#f5f5f5" stroke="transparent" points="8,-181.2 8,-204.2 124,-204.2 124,-181.2 8,-181.2"/>
<polygon fill="none" stroke="#000000" points="8,-181.2 8,-204.2 124,-204.2 124,-181.2 8,-181.2"/>
<text text-anchor="start" x="13" y="-189.8" font-family="Helvetica,sans-Serif" font-weight="bold" font-size="11.00" fill="#000000">Facilities</text>
<text text-anchor="start" x="89.0437" y="-189.3" font-family="Helvetica,sans-Serif" font-size="11.00" fill="#000000">[table]</text>
<polygon fill="none" stroke="#000000" points="8,-159.2 8,-181.2 124,-181.2 124,-159.2 8,-159.2"/>
<image xlink:href="../../images/primaryKeys.png" width="11px" height="12px" preserveAspectRatio="xMinYMin meet" x="13" y="-176.2"/>
<text text-anchor="start" x="28" y="-166.3" font-family="Helvetica,sans-Serif" font-size="11.00" fill="#000000">Id</text>
<polygon fill="none" stroke="#000000" points="8,-140.2 8,-159.2 124,-159.2 124,-140.2 8,-140.2"/>
<text text-anchor="start" x="11" y="-146.3" font-family="Helvetica,sans-Serif" font-size="11.00" fill="#000000">...</text>
<polygon fill="#ffffff" stroke="transparent" points="8,-121.2 8,-140.2 55,-140.2 55,-121.2 8,-121.2"/>
<polygon fill="none" stroke="#000000" points="8,-121.2 8,-140.2 55,-140.2 55,-121.2 8,-121.2"/>
<text text-anchor="start" x="11" y="-127.3" font-family="Helvetica,sans-Serif" font-size="11.00" fill="#000000"> &#160;</text>
<polygon fill="#ffffff" stroke="transparent" points="55,-121.2 55,-140.2 85,-140.2 85,-121.2 55,-121.2"/>
<polygon fill="none" stroke="#000000" points="55,-121.2 55,-140.2 85,-140.2 85,-121.2 55,-121.2"/>
<text text-anchor="start" x="75.8862" y="-127.3" font-family="Helvetica,sans-Serif" font-size="11.00" fill="#000000"> &#160;</text>
<polygon fill="#ffffff" stroke="transparent" points="85,-121.2 85,-140.2 124,-140.2 124,-121.2 85,-121.2"/>
<polygon fill="none" stroke="#000000" points="85,-121.2 85,-140.2 124,-140.2 124,-121.2 85,-121.2"/>
<text text-anchor="start" x="105.4053" y="-127.3" font-family="Helvetica,sans-Serif" font-size="11.00" fill="#000000">2 &gt;</text>
</a>
</g>
</g>
<!-- Hospitalizations&#45;&gt;Facilities -->
<g id="edge1" class="edge">
<title>Hospitalizations:w&#45;&gt;Facilities:e</title>
<path fill="none" stroke="#000000" d="M192.6142,-284.3296C180.2434,-278.3213 176.8523,-263.6884 165,-248.2 141.1993,-217.0977 163.1641,-170.2 124,-170.2"/>
<polygon fill="#000000" stroke="#000000" points="199.1546,-285.6346 206.2956,-290.7304 203.0773,-286.4173 207,-287.2 207,-287.2 207,-287.2 203.0773,-286.4173 207.7044,-283.6696 199.1546,-285.6346 199.1546,-285.6346"/>
<ellipse fill="none" stroke="#000000" cx="196.0165" cy="-285.0084" rx="3.2" ry="3.2"/>
</g>
<!-- Patients -->
<g id="node3" class="node">
<title>Patients</title>
<g id="a_node3"><a xlink:href="../../tables/Patients.html" xlink:title="Patients" target="_top">
<polygon fill="#ffffff" stroke="transparent" points="8,-231.7 8,-314.7 124,-314.7 124,-231.7 8,-231.7"/>
<polygon fill="#f5f5f5" stroke="transparent" points="8,-291.2 8,-314.2 124,-314.2 124,-291.2 8,-291.2"/>
<polygon fill="none" stroke="#000000" points="8,-291.2 8,-314.2 124,-314.2 124,-291.2 8,-291.2"/>
<text text-anchor="start" x="13" y="-299.8" font-family="Helvetica,sans-Serif" font-weight="bold" font-size="11.00" fill="#000000">Patients</text>
<text text-anchor="start" x="89.0437" y="-299.3" font-family="Helvetica,sans-Serif" font-size="11.00" fill="#000000">[table]</text>
<polygon fill="none" stroke="#000000" points="8,-269.2 8,-291.2 124,-291.2 124,-269.2 8,-269.2"/>
<image xlink:href="../../images/primaryKeys.png" width="11px" height="12px" preserveAspectRatio="xMinYMin meet" x="13" y="-286.2"/>
<text text-anchor="start" x="28" y="-276.3" font-family="Helvetica,sans-Serif" font-size="11.00" fill="#000000">Id</text>
<polygon fill="none" stroke="#000000" points="8,-250.2 8,-269.2 124,-269.2 124,-250.2 8,-250.2"/>
<text text-anchor="start" x="11" y="-256.3" font-family="Helvetica,sans-Serif" font-size="11.00" fill="#000000">...</text>
<polygon fill="#ffffff" stroke="transparent" points="8,-231.2 8,-250.2 55,-250.2 55,-231.2 8,-231.2"/>
<polygon fill="none" stroke="#000000" points="8,-231.2 8,-250.2 55,-250.2 55,-231.2 8,-231.2"/>
<text text-anchor="start" x="11" y="-237.3" font-family="Helvetica,sans-Serif" font-size="11.00" fill="#000000"> &#160;</text>
<polygon fill="#ffffff" stroke="transparent" points="55,-231.2 55,-250.2 85,-250.2 85,-231.2 55,-231.2"/>
<polygon fill="none" stroke="#000000" points="55,-231.2 55,-250.2 85,-250.2 85,-231.2 55,-231.2"/>
<text text-anchor="start" x="75.8862" y="-237.3" font-family="Helvetica,sans-Serif" font-size="11.00" fill="#000000"> &#160;</text>
<polygon fill="#ffffff" stroke="transparent" points="85,-231.2 85,-250.2 124,-250.2 124,-231.2 85,-231.2"/>
<polygon fill="none" stroke="#000000" points="85,-231.2 85,-250.2 124,-250.2 124,-231.2 85,-231.2"/>
<text text-anchor="start" x="105.4053" y="-237.3" font-family="Helvetica,sans-Serif" font-size="11.00" fill="#000000">2 &gt;</text>
</a>
</g>
</g>
<!-- Hospitalizations&#45;&gt;Patients -->
<g id="edge2" class="edge">
<title>Hospitalizations:w&#45;&gt;Patients:e</title>
<path fill="none" stroke="#000000" d="M192.5374,-286.8036C166.8039,-285.3228 155.6693,-280.2 124,-280.2"/>
<polygon fill="#000000" stroke="#000000" points="199.003,-286.9808 206.9013,-290.7986 203.0015,-287.0904 207,-287.2 207,-287.2 207,-287.2 203.0015,-287.0904 207.0987,-283.6014 199.003,-286.9808 199.003,-286.9808"/>
<ellipse fill="none" stroke="#000000" cx="195.8042" cy="-286.8931" rx="3.2" ry="3.2"/>
</g>
<!-- PatientFacilities -->
<g id="node4" class="node">
<title>PatientFacilities</title>
<g id="a_node4"><a xlink:href="../../tables/PatientFacilities.html" xlink:title="PatientFacilities" target="_top">
<polygon fill="#ffffff" stroke="transparent" points="173,-38.2 173,-238.2 389,-238.2 389,-38.2 173,-38.2"/>
<polygon fill="#f5f5f5" stroke="transparent" points="175,-213.2 175,-236.2 387,-236.2 387,-213.2 175,-213.2"/>
<polygon fill="none" stroke="#000000" points="175,-213.2 175,-236.2 387,-236.2 387,-213.2 175,-213.2"/>
<text text-anchor="start" x="180" y="-221.8" font-family="Helvetica,sans-Serif" font-weight="bold" font-size="11.00" fill="#000000">PatientFacilities</text>
<text text-anchor="start" x="352.0437" y="-221.3" font-family="Helvetica,sans-Serif" font-size="11.00" fill="#000000">[table]</text>
<polygon fill="none" stroke="#000000" points="175,-191.2 175,-213.2 306,-213.2 306,-191.2 175,-191.2"/>
<image xlink:href="../../images/primaryKeys.png" width="11px" height="12px" preserveAspectRatio="xMinYMin meet" x="180" y="-208.2"/>
<text text-anchor="start" x="195" y="-198.3" font-family="Helvetica,sans-Serif" font-size="11.00" fill="#000000">Id</text>
<polygon fill="none" stroke="#000000" points="306,-191.2 306,-213.2 387,-213.2 387,-191.2 306,-191.2"/>
<text text-anchor="start" x="309" y="-198.9" font-family="Helvetica,sans-Serif" font-size="11.00" fill="#000000">int identity[4]</text>
<polygon fill="#ffffff" stroke="transparent" points="175,-169.2 175,-191.2 306,-191.2 306,-169.2 175,-169.2"/>
<polygon fill="none" stroke="#000000" points="175,-169.2 175,-191.2 306,-191.2 306,-169.2 175,-169.2"/>
<image xlink:href="../../images/foreignKeys.png" width="11px" height="12px" preserveAspectRatio="xMinYMin meet" x="180" y="-186.2"/>
<text text-anchor="start" x="195" y="-176.3" font-family="Helvetica,sans-Serif" font-size="11.00" fill="#000000">PatientId</text>
<polygon fill="none" stroke="#000000" points="306,-169.2 306,-191.2 387,-191.2 387,-169.2 306,-169.2"/>
<text text-anchor="start" x="309" y="-176.9" font-family="Helvetica,sans-Serif" font-size="11.00" fill="#000000">int[4]</text>
<polygon fill="#ffffff" stroke="transparent" points="175,-147.2 175,-169.2 306,-169.2 306,-147.2 175,-147.2"/>
<polygon fill="none" stroke="#000000" points="175,-147.2 175,-169.2 306,-169.2 306,-147.2 175,-147.2"/>
<image xlink:href="../../images/foreignKeys.png" width="11px" height="12px" preserveAspectRatio="xMinYMin meet" x="180" y="-164.2"/>
<text text-anchor="start" x="195" y="-154.3" font-family="Helvetica,sans-Serif" font-size="11.00" fill="#000000">FacilityId</text>
<polygon fill="none" stroke="#000000" points="306,-147.2 306,-169.2 387,-169.2 387,-147.2 306,-147.2"/>
<text text-anchor="start" x="309" y="-154.9" font-family="Helvetica,sans-Serif" font-size="11.00" fill="#000000">int[4]</text>
<polygon fill="#ffffff" stroke="transparent" points="175,-125.2 175,-147.2 306,-147.2 306,-125.2 175,-125.2"/>
<polygon fill="none" stroke="#000000" points="175,-125.2 175,-147.2 306,-147.2 306,-125.2 175,-125.2"/>
<text text-anchor="start" x="195" y="-132.3" font-family="Helvetica,sans-Serif" font-size="11.00" fill="#000000">MRN</text>
<polygon fill="none" stroke="#000000" points="306,-125.2 306,-147.2 387,-147.2 387,-125.2 306,-125.2"/>
<text text-anchor="start" x="309" y="-132.9" font-family="Helvetica,sans-Serif" font-size="11.00" fill="#000000">int[4]</text>
<polygon fill="none" stroke="#000000" points="175,-103.2 175,-125.2 306,-125.2 306,-103.2 175,-103.2"/>
<text text-anchor="start" x="195" y="-110.3" font-family="Helvetica,sans-Serif" font-size="11.00" fill="#000000">CreatedAtUtc</text>
<polygon fill="none" stroke="#000000" points="306,-103.2 306,-125.2 387,-125.2 387,-103.2 306,-103.2"/>
<text text-anchor="start" x="308.5968" y="-110.9" font-family="Helvetica,sans-Serif" font-size="11.00" fill="#000000">datetime2[16,7]</text>
<polygon fill="none" stroke="#000000" points="175,-81.2 175,-103.2 306,-103.2 306,-81.2 175,-81.2"/>
<text text-anchor="start" x="195" y="-88.3" font-family="Helvetica,sans-Serif" font-size="11.00" fill="#000000">UpdatedAtUtc</text>
<polygon fill="none" stroke="#000000" points="306,-81.2 306,-103.2 387,-103.2 387,-81.2 306,-81.2"/>
<text text-anchor="start" x="308.5968" y="-88.9" font-family="Helvetica,sans-Serif" font-size="11.00" fill="#000000">datetime2[16,7]</text>
<polygon fill="none" stroke="#000000" points="175,-59.2 175,-81.2 306,-81.2 306,-59.2 175,-59.2"/>
<text text-anchor="start" x="195" y="-66.3" font-family="Helvetica,sans-Serif" font-size="11.00" fill="#000000">RowVersion</text>
<polygon fill="none" stroke="#000000" points="306,-59.2 306,-81.2 387,-81.2 387,-59.2 306,-59.2"/>
<text text-anchor="start" x="309" y="-66.9" font-family="Helvetica,sans-Serif" font-size="11.00" fill="#000000">timestamp[8]</text>
<polygon fill="#ffffff" stroke="transparent" points="175,-40.2 175,-59.2 245,-59.2 245,-40.2 175,-40.2"/>
<polygon fill="none" stroke="#000000" points="175,-40.2 175,-59.2 245,-59.2 245,-40.2 175,-40.2"/>
<text text-anchor="start" x="178" y="-46.3" font-family="Helvetica,sans-Serif" font-size="11.00" fill="#000000">&lt; 2</text>
<polygon fill="#ffffff" stroke="transparent" points="245,-40.2 245,-59.2 306,-59.2 306,-40.2 245,-40.2"/>
<polygon fill="none" stroke="#000000" points="245,-40.2 245,-59.2 306,-59.2 306,-40.2 245,-40.2"/>
<text text-anchor="start" x="296.8862" y="-46.3" font-family="Helvetica,sans-Serif" font-size="11.00" fill="#000000"> &#160;</text>
<polygon fill="#ffffff" stroke="transparent" points="306,-40.2 306,-59.2 387,-59.2 387,-40.2 306,-40.2"/>
<polygon fill="none" stroke="#000000" points="306,-40.2 306,-59.2 387,-59.2 387,-40.2 306,-40.2"/>
<text text-anchor="start" x="368.4053" y="-46.3" font-family="Helvetica,sans-Serif" font-size="11.00" fill="#000000">0 &gt;</text>
<polygon fill="none" stroke="#000000" stroke-width="2" points="174,-39.2 174,-237.2 388,-237.2 388,-39.2 174,-39.2"/>
</a>
</g>
</g>
<!-- PatientFacilities&#45;&gt;Facilities -->
<g id="edge3" class="edge">
<title>PatientFacilities:w&#45;&gt;Facilities:e</title>
<path fill="none" stroke="#000000" d="M160.4822,-160.075C148.3214,-163.45 141.4642,-170.2 124,-170.2"/>
<polygon fill="#000000" stroke="#000000" points="167.0659,-159.2247 175.4611,-161.7703 171.0329,-158.7124 175,-158.2 175,-158.2 175,-158.2 171.0329,-158.7124 174.5389,-154.6297 167.0659,-159.2247 167.0659,-159.2247"/>
<ellipse fill="none" stroke="#000000" cx="163.8923" cy="-159.6346" rx="3.2" ry="3.2"/>
</g>
<!-- PatientFacilities&#45;&gt;Patients -->
<g id="edge4" class="edge">
<title>PatientFacilities:w&#45;&gt;Patients:e</title>
<path fill="none" stroke="#000000" d="M160.8659,-184.244C135.4766,-202.9524 167.8493,-280.2 124,-280.2"/>
<polygon fill="#000000" stroke="#000000" points="167.3086,-182.4007 175.9903,-183.6611 171.1543,-181.3003 175,-180.2 175,-180.2 175,-180.2 171.1543,-181.3003 174.0097,-176.7389 167.3086,-182.4007 167.3086,-182.4007"/>
<ellipse fill="none" stroke="#000000" cx="164.2321" cy="-183.2809" rx="3.2" ry="3.2"/>
</g>
</g>
</svg>
