<?xml version="1.0" encoding="UTF-8" standalone="no"?>
<!DOCTYPE svg PUBLIC "-//W3C//DTD SVG 1.1//EN"
 "http://www.w3.org/Graphics/SVG/1.1/DTD/svg11.dtd">
<!-- Generated by graphviz version 2.40.1 (20161225.0304)
 -->
<!-- Title: twoDegreesRelationshipsDiagram Pages: 1 -->
<svg width="747pt" height="448pt"
 viewBox="0.00 0.00 747.00 448.20" xmlns="http://www.w3.org/2000/svg" xmlns:xlink="http://www.w3.org/1999/xlink">
<g id="graph0" class="graph" transform="scale(1 1) rotate(0) translate(4 444.2)">
<title>twoDegreesRelationshipsDiagram</title>
<polygon fill="#ffffff" stroke="transparent" points="-4,4 -4,-444.2 743,-444.2 743,4 -4,4"/>
<text text-anchor="middle" x="72.4936" y="-7.3" font-family="Helvetica,sans-Serif" font-size="11.00" fill="#000000">Generated by SchemaSpy</text>
<!-- HospitalizationInsurances -->
<g id="node1" class="node">
<title>HospitalizationInsurances</title>
<g id="a_node1"><a xlink:href="../../tables/HospitalizationInsurances.html" xlink:title="HospitalizationInsurances" target="_top">
<polygon fill="#ffffff" stroke="transparent" points="501.5,-173.2 501.5,-234.2 715.5,-234.2 715.5,-173.2 501.5,-173.2"/>
<polygon fill="#f5f5f5" stroke="transparent" points="501.5,-210.7 501.5,-233.7 715.5,-233.7 715.5,-210.7 501.5,-210.7"/>
<polygon fill="none" stroke="#000000" points="501.5,-210.7 501.5,-233.7 715.5,-233.7 715.5,-210.7 501.5,-210.7"/>
<text text-anchor="start" x="506.5" y="-219.3" font-family="Helvetica,sans-Serif" font-weight="bold" font-size="11.00" fill="#000000">HospitalizationInsurances</text>
<text text-anchor="start" x="681.0219" y="-218.8" font-family="Helvetica,sans-Serif" font-size="11.00" fill="#000000">[table]</text>
<polygon fill="none" stroke="#000000" points="501.5,-191.7 501.5,-210.7 715.5,-210.7 715.5,-191.7 501.5,-191.7"/>
<text text-anchor="start" x="504.5" y="-197.8" font-family="Helvetica,sans-Serif" font-size="11.00" fill="#000000">...</text>
<polygon fill="#ffffff" stroke="transparent" points="501.5,-172.7 501.5,-191.7 606.5,-191.7 606.5,-172.7 501.5,-172.7"/>
<polygon fill="none" stroke="#000000" points="501.5,-172.7 501.5,-191.7 606.5,-191.7 606.5,-172.7 501.5,-172.7"/>
<text text-anchor="start" x="504.5" y="-178.8" font-family="Helvetica,sans-Serif" font-size="11.00" fill="#000000">&lt; 2</text>
<polygon fill="#ffffff" stroke="transparent" points="606.5,-172.7 606.5,-191.7 660.5,-191.7 660.5,-172.7 606.5,-172.7"/>
<polygon fill="none" stroke="#000000" points="606.5,-172.7 606.5,-191.7 660.5,-191.7 660.5,-172.7 606.5,-172.7"/>
<text text-anchor="start" x="651.3862" y="-178.8" font-family="Helvetica,sans-Serif" font-size="11.00" fill="#000000"> &#160;</text>
<polygon fill="#ffffff" stroke="transparent" points="660.5,-172.7 660.5,-191.7 715.5,-191.7 715.5,-172.7 660.5,-172.7"/>
<polygon fill="none" stroke="#000000" points="660.5,-172.7 660.5,-191.7 715.5,-191.7 715.5,-172.7 660.5,-172.7"/>
<text text-anchor="start" x="706.3862" y="-178.8" font-family="Helvetica,sans-Serif" font-size="11.00" fill="#000000"> &#160;</text>
</a>
</g>
</g>
<!-- Hospitalizations -->
<g id="node2" class="node">
<title>Hospitalizations</title>
<g id="a_node2"><a xlink:href="../../tables/Hospitalizations.html" xlink:title="Hospitalizations" target="_top">
<polygon fill="#ffffff" stroke="transparent" points="258,-84.2 258,-255.2 437,-255.2 437,-84.2 258,-84.2"/>
<polygon fill="#f5f5f5" stroke="transparent" points="258.5,-231.7 258.5,-254.7 437.5,-254.7 437.5,-231.7 258.5,-231.7"/>
<polygon fill="none" stroke="#000000" points="258.5,-231.7 258.5,-254.7 437.5,-254.7 437.5,-231.7 258.5,-231.7"/>
<text text-anchor="start" x="263.5" y="-240.3" font-family="Helvetica,sans-Serif" font-weight="bold" font-size="11.00" fill="#000000">Hospitalizations</text>
<text text-anchor="start" x="402.5437" y="-239.8" font-family="Helvetica,sans-Serif" font-size="11.00" fill="#000000">[table]</text>
<polygon fill="none" stroke="#000000" points="258.5,-209.7 258.5,-231.7 437.5,-231.7 437.5,-209.7 258.5,-209.7"/>
<image xlink:href="../../images/primaryKeys.png" width="11px" height="12px" preserveAspectRatio="xMinYMin meet" x="263.5" y="-226.7"/>
<text text-anchor="start" x="278.5" y="-216.8" font-family="Helvetica,sans-Serif" font-size="11.00" fill="#000000">Id</text>
<polygon fill="#ffffff" stroke="transparent" points="258.5,-187.7 258.5,-209.7 437.5,-209.7 437.5,-187.7 258.5,-187.7"/>
<polygon fill="none" stroke="#000000" points="258.5,-187.7 258.5,-209.7 437.5,-209.7 437.5,-187.7 258.5,-187.7"/>
<image xlink:href="../../images/foreignKeys.png" width="11px" height="12px" preserveAspectRatio="xMinYMin meet" x="263.5" y="-204.7"/>
<text text-anchor="start" x="278.5" y="-194.8" font-family="Helvetica,sans-Serif" font-size="11.00" fill="#000000">PatientId</text>
<polygon fill="#ffffff" stroke="transparent" points="258.5,-165.7 258.5,-187.7 437.5,-187.7 437.5,-165.7 258.5,-165.7"/>
<polygon fill="none" stroke="#000000" points="258.5,-165.7 258.5,-187.7 437.5,-187.7 437.5,-165.7 258.5,-165.7"/>
<text text-anchor="start" x="278.5" y="-172.8" font-family="Helvetica,sans-Serif" font-size="11.00" fill="#000000">CaseId</text>
<polygon fill="#ffffff" stroke="transparent" points="258.5,-143.7 258.5,-165.7 437.5,-165.7 437.5,-143.7 258.5,-143.7"/>
<polygon fill="none" stroke="#000000" points="258.5,-143.7 258.5,-165.7 437.5,-165.7 437.5,-143.7 258.5,-143.7"/>
<image xlink:href="../../images/foreignKeys.png" width="11px" height="12px" preserveAspectRatio="xMinYMin meet" x="263.5" y="-160.7"/>
<text text-anchor="start" x="278.5" y="-150.8" font-family="Helvetica,sans-Serif" font-size="11.00" fill="#000000">FacilityId</text>
<polygon fill="none" stroke="#000000" points="258.5,-121.7 258.5,-143.7 437.5,-143.7 437.5,-121.7 258.5,-121.7"/>
<image xlink:href="../../images/foreignKeys.png" width="11px" height="12px" preserveAspectRatio="xMinYMin meet" x="263.5" y="-138.7"/>
<text text-anchor="start" x="278.5" y="-128.8" font-family="Helvetica,sans-Serif" font-size="11.00" fill="#000000">HospitalizationStatusId</text>
<polygon fill="none" stroke="#000000" points="258.5,-102.7 258.5,-121.7 437.5,-121.7 437.5,-102.7 258.5,-102.7"/>
<text text-anchor="start" x="261.5" y="-108.8" font-family="Helvetica,sans-Serif" font-size="11.00" fill="#000000">...</text>
<polygon fill="#ffffff" stroke="transparent" points="258.5,-83.7 258.5,-102.7 341.5,-102.7 341.5,-83.7 258.5,-83.7"/>
<polygon fill="none" stroke="#000000" points="258.5,-83.7 258.5,-102.7 341.5,-102.7 341.5,-83.7 258.5,-83.7"/>
<text text-anchor="start" x="261.5" y="-89.8" font-family="Helvetica,sans-Serif" font-size="11.00" fill="#000000">&lt; 3</text>
<polygon fill="#ffffff" stroke="transparent" points="341.5,-83.7 341.5,-102.7 384.5,-102.7 384.5,-83.7 341.5,-83.7"/>
<polygon fill="none" stroke="#000000" points="341.5,-83.7 341.5,-102.7 384.5,-102.7 384.5,-83.7 341.5,-83.7"/>
<text text-anchor="start" x="375.3862" y="-89.8" font-family="Helvetica,sans-Serif" font-size="11.00" fill="#000000"> &#160;</text>
<polygon fill="#ffffff" stroke="transparent" points="384.5,-83.7 384.5,-102.7 437.5,-102.7 437.5,-83.7 384.5,-83.7"/>
<polygon fill="none" stroke="#000000" points="384.5,-83.7 384.5,-102.7 437.5,-102.7 437.5,-83.7 384.5,-83.7"/>
<text text-anchor="start" x="418.9053" y="-89.8" font-family="Helvetica,sans-Serif" font-size="11.00" fill="#000000">3 &gt;</text>
</a>
</g>
</g>
<!-- HospitalizationInsurances&#45;&gt;Hospitalizations -->
<g id="edge1" class="edge">
<title>HospitalizationInsurances:w&#45;&gt;Hospitalizations:e</title>
<path fill="none" stroke="#000000" d="M487.0813,-202.5457C469.1567,-207.4969 461.7133,-220.7 437.5,-220.7"/>
<polygon fill="#000000" stroke="#000000" points="493.5647,-201.7158 501.9571,-204.2709 497.5324,-201.2079 501.5,-200.7 501.5,-200.7 501.5,-200.7 497.5324,-201.2079 501.0429,-197.1291 493.5647,-201.7158 493.5647,-201.7158"/>
<ellipse fill="none" stroke="#000000" cx="490.3906" cy="-202.1221" rx="3.2" ry="3.2"/>
</g>
<!-- Facilities -->
<g id="node3" class="node">
<title>Facilities</title>
<g id="a_node3"><a xlink:href="../../tables/Facilities.html" xlink:title="Facilities" target="_top">
<polygon fill="#ffffff" stroke="transparent" points="59,-123.2 59,-184.2 158,-184.2 158,-123.2 59,-123.2"/>
<polygon fill="#f5f5f5" stroke="transparent" points="59.5,-160.7 59.5,-183.7 158.5,-183.7 158.5,-160.7 59.5,-160.7"/>
<polygon fill="none" stroke="#000000" points="59.5,-160.7 59.5,-183.7 158.5,-183.7 158.5,-160.7 59.5,-160.7"/>
<text text-anchor="start" x="64.5" y="-169.3" font-family="Helvetica,sans-Serif" font-weight="bold" font-size="11.00" fill="#000000">Facilities</text>
<text text-anchor="start" x="124.0219" y="-168.8" font-family="Helvetica,sans-Serif" font-size="11.00" fill="#000000">[table]</text>
<polygon fill="none" stroke="#000000" points="59.5,-141.7 59.5,-160.7 158.5,-160.7 158.5,-141.7 59.5,-141.7"/>
<text text-anchor="start" x="62.5" y="-147.8" font-family="Helvetica,sans-Serif" font-size="11.00" fill="#000000">...</text>
<polygon fill="#ffffff" stroke="transparent" points="59.5,-122.7 59.5,-141.7 98.5,-141.7 98.5,-122.7 59.5,-122.7"/>
<polygon fill="none" stroke="#000000" points="59.5,-122.7 59.5,-141.7 98.5,-141.7 98.5,-122.7 59.5,-122.7"/>
<text text-anchor="start" x="62.5" y="-128.8" font-family="Helvetica,sans-Serif" font-size="11.00" fill="#000000"> &#160;</text>
<polygon fill="#ffffff" stroke="transparent" points="98.5,-122.7 98.5,-141.7 123.5,-141.7 123.5,-122.7 98.5,-122.7"/>
<polygon fill="none" stroke="#000000" points="98.5,-122.7 98.5,-141.7 123.5,-141.7 123.5,-122.7 98.5,-122.7"/>
<text text-anchor="start" x="114.3862" y="-128.8" font-family="Helvetica,sans-Serif" font-size="11.00" fill="#000000"> &#160;</text>
<polygon fill="#ffffff" stroke="transparent" points="123.5,-122.7 123.5,-141.7 158.5,-141.7 158.5,-122.7 123.5,-122.7"/>
<polygon fill="none" stroke="#000000" points="123.5,-122.7 123.5,-141.7 158.5,-141.7 158.5,-122.7 123.5,-122.7"/>
<text text-anchor="start" x="139.9053" y="-128.8" font-family="Helvetica,sans-Serif" font-size="11.00" fill="#000000">2 &gt;</text>
</a>
</g>
</g>
<!-- Hospitalizations&#45;&gt;Facilities -->
<g id="edge2" class="edge">
<title>Hospitalizations:w&#45;&gt;Facilities:e</title>
<path fill="none" stroke="#000000" d="M243.6936,-154.5382C210.8559,-153.7899 197.5937,-150.7 158.5,-150.7"/>
<polygon fill="#000000" stroke="#000000" points="250.5005,-154.6126 258.4606,-158.2998 254.5002,-154.6563 258.5,-154.7 258.5,-154.7 258.5,-154.7 254.5002,-154.6563 258.5394,-151.1002 250.5005,-154.6126 250.5005,-154.6126"/>
<ellipse fill="none" stroke="#000000" cx="247.3007" cy="-154.5776" rx="3.2" ry="3.2"/>
</g>
<!-- HospitalizationStatuses -->
<g id="node4" class="node">
<title>HospitalizationStatuses</title>
<g id="a_node4"><a xlink:href="../../tables/HospitalizationStatuses.html" xlink:title="HospitalizationStatuses" target="_top">
<polygon fill="#ffffff" stroke="transparent" points="8.5,-38.2 8.5,-99.2 208.5,-99.2 208.5,-38.2 8.5,-38.2"/>
<polygon fill="#f5f5f5" stroke="transparent" points="8.5,-75.7 8.5,-98.7 208.5,-98.7 208.5,-75.7 8.5,-75.7"/>
<polygon fill="none" stroke="#000000" points="8.5,-75.7 8.5,-98.7 208.5,-98.7 208.5,-75.7 8.5,-75.7"/>
<text text-anchor="start" x="13.5" y="-84.3" font-family="Helvetica,sans-Serif" font-weight="bold" font-size="11.00" fill="#000000">HospitalizationStatuses</text>
<text text-anchor="start" x="174.0219" y="-83.8" font-family="Helvetica,sans-Serif" font-size="11.00" fill="#000000">[table]</text>
<polygon fill="none" stroke="#000000" points="8.5,-56.7 8.5,-75.7 208.5,-75.7 208.5,-56.7 8.5,-56.7"/>
<text text-anchor="start" x="11.5" y="-62.8" font-family="Helvetica,sans-Serif" font-size="11.00" fill="#000000">...</text>
<polygon fill="#ffffff" stroke="transparent" points="8.5,-37.7 8.5,-56.7 97.5,-56.7 97.5,-37.7 8.5,-37.7"/>
<polygon fill="none" stroke="#000000" points="8.5,-37.7 8.5,-56.7 97.5,-56.7 97.5,-37.7 8.5,-37.7"/>
<text text-anchor="start" x="11.5" y="-43.8" font-family="Helvetica,sans-Serif" font-size="11.00" fill="#000000"> &#160;</text>
<polygon fill="#ffffff" stroke="transparent" points="97.5,-37.7 97.5,-56.7 148.5,-56.7 148.5,-37.7 97.5,-37.7"/>
<polygon fill="none" stroke="#000000" points="97.5,-37.7 97.5,-56.7 148.5,-56.7 148.5,-37.7 97.5,-37.7"/>
<text text-anchor="start" x="139.3862" y="-43.8" font-family="Helvetica,sans-Serif" font-size="11.00" fill="#000000"> &#160;</text>
<polygon fill="#ffffff" stroke="transparent" points="148.5,-37.7 148.5,-56.7 208.5,-56.7 208.5,-37.7 148.5,-37.7"/>
<polygon fill="none" stroke="#000000" points="148.5,-37.7 148.5,-56.7 208.5,-56.7 208.5,-37.7 148.5,-37.7"/>
<text text-anchor="start" x="189.9053" y="-43.8" font-family="Helvetica,sans-Serif" font-size="11.00" fill="#000000">2 &gt;</text>
</a>
</g>
</g>
<!-- Hospitalizations&#45;&gt;HospitalizationStatuses -->
<g id="edge3" class="edge">
<title>Hospitalizations:w&#45;&gt;HospitalizationStatuses:e</title>
<path fill="none" stroke="#000000" d="M244.633,-127.8815C227.667,-112.519 239.5598,-65.7 208.5,-65.7"/>
<polygon fill="#000000" stroke="#000000" points="250.9432,-130.0741 257.3184,-136.1006 254.7216,-131.3871 258.5,-132.7 258.5,-132.7 258.5,-132.7 254.7216,-131.3871 259.6816,-129.2994 250.9432,-130.0741 250.9432,-130.0741"/>
<ellipse fill="none" stroke="#000000" cx="247.9205" cy="-129.0238" rx="3.2" ry="3.2"/>
</g>
<!-- Patients -->
<g id="node5" class="node">
<title>Patients</title>
<g id="a_node5"><a xlink:href="../../tables/Patients.html" xlink:title="Patients" target="_top">
<polygon fill="#ffffff" stroke="transparent" points="8,-205.7 8,-427.7 209,-427.7 209,-205.7 8,-205.7"/>
<polygon fill="#f5f5f5" stroke="transparent" points="10.5,-402.7 10.5,-425.7 207.5,-425.7 207.5,-402.7 10.5,-402.7"/>
<polygon fill="none" stroke="#000000" points="10.5,-402.7 10.5,-425.7 207.5,-425.7 207.5,-402.7 10.5,-402.7"/>
<text text-anchor="start" x="15.5" y="-411.3" font-family="Helvetica,sans-Serif" font-weight="bold" font-size="11.00" fill="#000000">Patients</text>
<text text-anchor="start" x="172.5437" y="-410.8" font-family="Helvetica,sans-Serif" font-size="11.00" fill="#000000">[table]</text>
<polygon fill="none" stroke="#000000" points="10.5,-380.7 10.5,-402.7 126.5,-402.7 126.5,-380.7 10.5,-380.7"/>
<image xlink:href="../../images/primaryKeys.png" width="11px" height="12px" preserveAspectRatio="xMinYMin meet" x="15.5" y="-397.7"/>
<text text-anchor="start" x="30.5" y="-387.8" font-family="Helvetica,sans-Serif" font-size="11.00" fill="#000000">Id</text>
<polygon fill="none" stroke="#000000" points="126.5,-380.7 126.5,-402.7 207.5,-402.7 207.5,-380.7 126.5,-380.7"/>
<text text-anchor="start" x="129.5" y="-388.4" font-family="Helvetica,sans-Serif" font-size="11.00" fill="#000000">int identity[4]</text>
<polygon fill="none" stroke="#000000" points="10.5,-358.7 10.5,-380.7 126.5,-380.7 126.5,-358.7 10.5,-358.7"/>
<text text-anchor="start" x="30.5" y="-365.8" font-family="Helvetica,sans-Serif" font-size="11.00" fill="#000000">BirthDate</text>
<polygon fill="none" stroke="#000000" points="126.5,-358.7 126.5,-380.7 207.5,-380.7 207.5,-358.7 126.5,-358.7"/>
<text text-anchor="start" x="129.5" y="-366.4" font-family="Helvetica,sans-Serif" font-size="11.00" fill="#000000">date[6]</text>
<polygon fill="none" stroke="#000000" points="10.5,-336.7 10.5,-358.7 126.5,-358.7 126.5,-336.7 10.5,-336.7"/>
<text text-anchor="start" x="30.5" y="-343.8" font-family="Helvetica,sans-Serif" font-size="11.00" fill="#000000">FirstName</text>
<polygon fill="none" stroke="#000000" points="126.5,-336.7 126.5,-358.7 207.5,-358.7 207.5,-336.7 126.5,-336.7"/>
<text text-anchor="start" x="129.5" y="-344.4" font-family="Helvetica,sans-Serif" font-size="11.00" fill="#000000">nvarchar[100]</text>
<polygon fill="none" stroke="#000000" points="10.5,-314.7 10.5,-336.7 126.5,-336.7 126.5,-314.7 10.5,-314.7"/>
<text text-anchor="start" x="30.5" y="-321.8" font-family="Helvetica,sans-Serif" font-size="11.00" fill="#000000">Gender</text>
<polygon fill="none" stroke="#000000" points="126.5,-314.7 126.5,-336.7 207.5,-336.7 207.5,-314.7 126.5,-314.7"/>
<text text-anchor="start" x="129.5" y="-322.4" font-family="Helvetica,sans-Serif" font-size="11.00" fill="#000000">int[4]</text>
<polygon fill="none" stroke="#000000" points="10.5,-292.7 10.5,-314.7 126.5,-314.7 126.5,-292.7 10.5,-292.7"/>
<text text-anchor="start" x="30.5" y="-299.8" font-family="Helvetica,sans-Serif" font-size="11.00" fill="#000000">LastName</text>
<polygon fill="none" stroke="#000000" points="126.5,-292.7 126.5,-314.7 207.5,-314.7 207.5,-292.7 126.5,-292.7"/>
<text text-anchor="start" x="129.5" y="-300.4" font-family="Helvetica,sans-Serif" font-size="11.00" fill="#000000">nvarchar[100]</text>
<polygon fill="none" stroke="#000000" points="10.5,-270.7 10.5,-292.7 126.5,-292.7 126.5,-270.7 10.5,-270.7"/>
<text text-anchor="start" x="30.5" y="-277.8" font-family="Helvetica,sans-Serif" font-size="11.00" fill="#000000">CreatedAtUtc</text>
<polygon fill="none" stroke="#000000" points="126.5,-270.7 126.5,-292.7 207.5,-292.7 207.5,-270.7 126.5,-270.7"/>
<text text-anchor="start" x="129.0967" y="-278.4" font-family="Helvetica,sans-Serif" font-size="11.00" fill="#000000">datetime2[16,7]</text>
<polygon fill="none" stroke="#000000" points="10.5,-248.7 10.5,-270.7 126.5,-270.7 126.5,-248.7 10.5,-248.7"/>
<text text-anchor="start" x="30.5" y="-255.8" font-family="Helvetica,sans-Serif" font-size="11.00" fill="#000000">UpdatedAtUtc</text>
<polygon fill="none" stroke="#000000" points="126.5,-248.7 126.5,-270.7 207.5,-270.7 207.5,-248.7 126.5,-248.7"/>
<text text-anchor="start" x="129.0967" y="-256.4" font-family="Helvetica,sans-Serif" font-size="11.00" fill="#000000">datetime2[16,7]</text>
<polygon fill="none" stroke="#000000" points="10.5,-226.7 10.5,-248.7 126.5,-248.7 126.5,-226.7 10.5,-226.7"/>
<text text-anchor="start" x="30.5" y="-233.8" font-family="Helvetica,sans-Serif" font-size="11.00" fill="#000000">RowVersion</text>
<polygon fill="none" stroke="#000000" points="126.5,-226.7 126.5,-248.7 207.5,-248.7 207.5,-226.7 126.5,-226.7"/>
<text text-anchor="start" x="129.5" y="-234.4" font-family="Helvetica,sans-Serif" font-size="11.00" fill="#000000">timestamp[8]</text>
<polygon fill="#ffffff" stroke="transparent" points="10.5,-207.7 10.5,-226.7 72.5,-226.7 72.5,-207.7 10.5,-207.7"/>
<polygon fill="none" stroke="#000000" points="10.5,-207.7 10.5,-226.7 72.5,-226.7 72.5,-207.7 10.5,-207.7"/>
<text text-anchor="start" x="13.5" y="-213.8" font-family="Helvetica,sans-Serif" font-size="11.00" fill="#000000">&lt; 0</text>
<polygon fill="#ffffff" stroke="transparent" points="72.5,-207.7 72.5,-226.7 126.5,-226.7 126.5,-207.7 72.5,-207.7"/>
<polygon fill="none" stroke="#000000" points="72.5,-207.7 72.5,-226.7 126.5,-226.7 126.5,-207.7 72.5,-207.7"/>
<text text-anchor="start" x="117.3862" y="-213.8" font-family="Helvetica,sans-Serif" font-size="11.00" fill="#000000"> &#160;</text>
<polygon fill="#ffffff" stroke="transparent" points="126.5,-207.7 126.5,-226.7 207.5,-226.7 207.5,-207.7 126.5,-207.7"/>
<polygon fill="none" stroke="#000000" points="126.5,-207.7 126.5,-226.7 207.5,-226.7 207.5,-207.7 126.5,-207.7"/>
<text text-anchor="start" x="188.9053" y="-213.8" font-family="Helvetica,sans-Serif" font-size="11.00" fill="#000000">2 &gt;</text>
<polygon fill="none" stroke="#000000" stroke-width="2" points="9,-206.7 9,-426.7 208,-426.7 208,-206.7 9,-206.7"/>
</a>
</g>
</g>
<!-- Hospitalizations&#45;&gt;Patients -->
<g id="edge4" class="edge">
<title>Hospitalizations:w&#45;&gt;Patients:e</title>
<path fill="none" stroke="#000000" d="M243.9111,-201.0019C185.1835,-222.7771 290.5037,-391.7 207.5,-391.7"/>
<polygon fill="#000000" stroke="#000000" points="250.5978,-199.9469 259.0611,-202.256 254.5489,-199.3235 258.5,-198.7 258.5,-198.7 258.5,-198.7 254.5489,-199.3235 257.9389,-195.144 250.5978,-199.9469 250.5978,-199.9469"/>
<ellipse fill="none" stroke="#000000" cx="247.4369" cy="-200.4457" rx="3.2" ry="3.2"/>
</g>
<!-- HospitalizationStatusHistories -->
<g id="node6" class="node">
<title>HospitalizationStatusHistories</title>
<g id="a_node6"><a xlink:href="../../tables/HospitalizationStatusHistories.html" xlink:title="HospitalizationStatusHistories" target="_top">
<polygon fill="#ffffff" stroke="transparent" points="486,-52.2 486,-113.2 731,-113.2 731,-52.2 486,-52.2"/>
<polygon fill="#f5f5f5" stroke="transparent" points="486.5,-89.7 486.5,-112.7 731.5,-112.7 731.5,-89.7 486.5,-89.7"/>
<polygon fill="none" stroke="#000000" points="486.5,-89.7 486.5,-112.7 731.5,-112.7 731.5,-89.7 486.5,-89.7"/>
<text text-anchor="start" x="491.5" y="-98.3" font-family="Helvetica,sans-Serif" font-weight="bold" font-size="11.00" fill="#000000">HospitalizationStatusHistories</text>
<text text-anchor="start" x="697.0219" y="-97.8" font-family="Helvetica,sans-Serif" font-size="11.00" fill="#000000">[table]</text>
<polygon fill="none" stroke="#000000" points="486.5,-70.7 486.5,-89.7 731.5,-89.7 731.5,-70.7 486.5,-70.7"/>
<text text-anchor="start" x="489.5" y="-76.8" font-family="Helvetica,sans-Serif" font-size="11.00" fill="#000000">...</text>
<polygon fill="#ffffff" stroke="transparent" points="486.5,-51.7 486.5,-70.7 607.5,-70.7 607.5,-51.7 486.5,-51.7"/>
<polygon fill="none" stroke="#000000" points="486.5,-51.7 486.5,-70.7 607.5,-70.7 607.5,-51.7 486.5,-51.7"/>
<text text-anchor="start" x="489.5" y="-57.8" font-family="Helvetica,sans-Serif" font-size="11.00" fill="#000000">&lt; 3</text>
<polygon fill="#ffffff" stroke="transparent" points="607.5,-51.7 607.5,-70.7 669.5,-70.7 669.5,-51.7 607.5,-51.7"/>
<polygon fill="none" stroke="#000000" points="607.5,-51.7 607.5,-70.7 669.5,-70.7 669.5,-51.7 607.5,-51.7"/>
<text text-anchor="start" x="660.3862" y="-57.8" font-family="Helvetica,sans-Serif" font-size="11.00" fill="#000000"> &#160;</text>
<polygon fill="#ffffff" stroke="transparent" points="669.5,-51.7 669.5,-70.7 731.5,-70.7 731.5,-51.7 669.5,-51.7"/>
<polygon fill="none" stroke="#000000" points="669.5,-51.7 669.5,-70.7 731.5,-70.7 731.5,-51.7 669.5,-51.7"/>
<text text-anchor="start" x="722.3862" y="-57.8" font-family="Helvetica,sans-Serif" font-size="11.00" fill="#000000"> &#160;</text>
</a>
</g>
</g>
<!-- HospitalizationStatusHistories&#45;&gt;Hospitalizations -->
<g id="edge5" class="edge">
<title>HospitalizationStatusHistories:w&#45;&gt;Hospitalizations:e</title>
<path fill="none" stroke="#000000" d="M472.034,-82.9099C433.9834,-103.8978 497.8824,-220.7 437.5,-220.7"/>
<polygon fill="#000000" stroke="#000000" points="478.69,-81.433 487.2799,-83.2145 482.595,-80.5665 486.5,-79.7 486.5,-79.7 486.5,-79.7 482.595,-80.5665 485.7201,-76.1855 478.69,-81.433 478.69,-81.433"/>
<ellipse fill="none" stroke="#000000" cx="475.5659" cy="-82.1262" rx="3.2" ry="3.2"/>
</g>
<!-- HospitalizationStatusHistories&#45;&gt;HospitalizationStatuses -->
<g id="edge6" class="edge">
<title>HospitalizationStatusHistories:w&#45;&gt;HospitalizationStatuses:e</title>
<path fill="none" stroke="#000000" d="M472.0644,-78.5929C463.6453,-77.1907 457.617,-74.8221 445,-73.7 340.2422,-64.3837 313.6712,-65.7 208.5,-65.7"/>
<polygon fill="#000000" stroke="#000000" points="478.5234,-79.0882 486.2247,-83.2895 482.5117,-79.3941 486.5,-79.7 486.5,-79.7 486.5,-79.7 482.5117,-79.3941 486.7753,-76.1105 478.5234,-79.0882 478.5234,-79.0882"/>
<ellipse fill="none" stroke="#000000" cx="475.3328" cy="-78.8435" rx="3.2" ry="3.2"/>
</g>
<!-- PatientFacilities -->
<g id="node7" class="node">
<title>PatientFacilities</title>
<g id="a_node7"><a xlink:href="../../tables/PatientFacilities.html" xlink:title="PatientFacilities" target="_top">
<polygon fill="#ffffff" stroke="transparent" points="273,-287.2 273,-436.2 422,-436.2 422,-287.2 273,-287.2"/>
<polygon fill="#f5f5f5" stroke="transparent" points="273.5,-412.7 273.5,-435.7 422.5,-435.7 422.5,-412.7 273.5,-412.7"/>
<polygon fill="none" stroke="#000000" points="273.5,-412.7 273.5,-435.7 422.5,-435.7 422.5,-412.7 273.5,-412.7"/>
<text text-anchor="start" x="278.5" y="-421.3" font-family="Helvetica,sans-Serif" font-weight="bold" font-size="11.00" fill="#000000">PatientFacilities</text>
<text text-anchor="start" x="388.0219" y="-420.8" font-family="Helvetica,sans-Serif" font-size="11.00" fill="#000000">[table]</text>
<polygon fill="none" stroke="#000000" points="273.5,-390.7 273.5,-412.7 422.5,-412.7 422.5,-390.7 273.5,-390.7"/>
<image xlink:href="../../images/primaryKeys.png" width="11px" height="12px" preserveAspectRatio="xMinYMin meet" x="278.5" y="-407.7"/>
<text text-anchor="start" x="302.5" y="-397.8" font-family="Helvetica,sans-Serif" font-size="11.00" fill="#000000">Id</text>
<polygon fill="#ffffff" stroke="transparent" points="273.5,-368.7 273.5,-390.7 422.5,-390.7 422.5,-368.7 273.5,-368.7"/>
<polygon fill="none" stroke="#000000" points="273.5,-368.7 273.5,-390.7 422.5,-390.7 422.5,-368.7 273.5,-368.7"/>
<image xlink:href="../../images/foreignKeys.png" width="11px" height="12px" preserveAspectRatio="xMinYMin meet" x="278.5" y="-385.7"/>
<text text-anchor="start" x="302.5" y="-375.8" font-family="Helvetica,sans-Serif" font-size="11.00" fill="#000000">PatientId</text>
<polygon fill="#ffffff" stroke="transparent" points="273.5,-346.7 273.5,-368.7 422.5,-368.7 422.5,-346.7 273.5,-346.7"/>
<polygon fill="none" stroke="#000000" points="273.5,-346.7 273.5,-368.7 422.5,-368.7 422.5,-346.7 273.5,-346.7"/>
<image xlink:href="../../images/foreignKeys.png" width="11px" height="12px" preserveAspectRatio="xMinYMin meet" x="278.5" y="-363.7"/>
<text text-anchor="start" x="302.5" y="-353.8" font-family="Helvetica,sans-Serif" font-size="11.00" fill="#000000">FacilityId</text>
<polygon fill="#ffffff" stroke="transparent" points="273.5,-324.7 273.5,-346.7 422.5,-346.7 422.5,-324.7 273.5,-324.7"/>
<polygon fill="none" stroke="#000000" points="273.5,-324.7 273.5,-346.7 422.5,-346.7 422.5,-324.7 273.5,-324.7"/>
<text text-anchor="start" x="302.5" y="-331.8" font-family="Helvetica,sans-Serif" font-size="11.00" fill="#000000">MRN</text>
<polygon fill="none" stroke="#000000" points="273.5,-305.7 273.5,-324.7 422.5,-324.7 422.5,-305.7 273.5,-305.7"/>
<text text-anchor="start" x="276.5" y="-311.8" font-family="Helvetica,sans-Serif" font-size="11.00" fill="#000000">...</text>
<polygon fill="#ffffff" stroke="transparent" points="273.5,-286.7 273.5,-305.7 346.5,-305.7 346.5,-286.7 273.5,-286.7"/>
<polygon fill="none" stroke="#000000" points="273.5,-286.7 273.5,-305.7 346.5,-305.7 346.5,-286.7 273.5,-286.7"/>
<text text-anchor="start" x="276.5" y="-292.8" font-family="Helvetica,sans-Serif" font-size="11.00" fill="#000000">&lt; 2</text>
<polygon fill="#ffffff" stroke="transparent" points="346.5,-286.7 346.5,-305.7 384.5,-305.7 384.5,-286.7 346.5,-286.7"/>
<polygon fill="none" stroke="#000000" points="346.5,-286.7 346.5,-305.7 384.5,-305.7 384.5,-286.7 346.5,-286.7"/>
<text text-anchor="start" x="375.3862" y="-292.8" font-family="Helvetica,sans-Serif" font-size="11.00" fill="#000000"> &#160;</text>
<polygon fill="#ffffff" stroke="transparent" points="384.5,-286.7 384.5,-305.7 422.5,-305.7 422.5,-286.7 384.5,-286.7"/>
<polygon fill="none" stroke="#000000" points="384.5,-286.7 384.5,-305.7 422.5,-305.7 422.5,-286.7 384.5,-286.7"/>
<text text-anchor="start" x="413.3862" y="-292.8" font-family="Helvetica,sans-Serif" font-size="11.00" fill="#000000"> &#160;</text>
</a>
</g>
</g>
<!-- PatientFacilities&#45;&gt;Facilities -->
<g id="edge7" class="edge">
<title>PatientFacilities:w&#45;&gt;Facilities:e</title>
<path fill="none" stroke="#000000" d="M259.0777,-356.1828C205.9837,-343.4217 258.4108,-253.0558 217,-195.7 197.7984,-169.1049 191.3024,-150.7 158.5,-150.7"/>
<polygon fill="#000000" stroke="#000000" points="265.5439,-356.863 273.1233,-361.2802 269.522,-357.2815 273.5,-357.7 273.5,-357.7 273.5,-357.7 269.522,-357.2815 273.8767,-354.1198 265.5439,-356.863 265.5439,-356.863"/>
<ellipse fill="none" stroke="#000000" cx="262.3615" cy="-356.5282" rx="3.2" ry="3.2"/>
</g>
<!-- PatientFacilities&#45;&gt;Patients -->
<g id="edge8" class="edge">
<title>PatientFacilities:w&#45;&gt;Patients:e</title>
<path fill="none" stroke="#000000" d="M258.8929,-380.8074C240.4723,-383.7781 231.7241,-391.7 207.5,-391.7"/>
<polygon fill="#000000" stroke="#000000" points="265.5229,-380.3048 273.7722,-383.2897 269.5114,-380.0024 273.5,-379.7 273.5,-379.7 273.5,-379.7 269.5114,-380.0024 273.2278,-376.1103 265.5229,-380.3048 265.5229,-380.3048"/>
<ellipse fill="none" stroke="#000000" cx="262.332" cy="-380.5468" rx="3.2" ry="3.2"/>
</g>
<!-- Visits -->
<g id="node8" class="node">
<title>Visits</title>
<g id="a_node8"><a xlink:href="../../tables/Visits.html" xlink:title="Visits" target="_top">
<polygon fill="#ffffff" stroke="transparent" points="570.5,-255.2 570.5,-316.2 646.5,-316.2 646.5,-255.2 570.5,-255.2"/>
<polygon fill="#f5f5f5" stroke="transparent" points="570.5,-292.7 570.5,-315.7 646.5,-315.7 646.5,-292.7 570.5,-292.7"/>
<polygon fill="none" stroke="#000000" points="570.5,-292.7 570.5,-315.7 646.5,-315.7 646.5,-292.7 570.5,-292.7"/>
<text text-anchor="start" x="575.5" y="-301.3" font-family="Helvetica,sans-Serif" font-weight="bold" font-size="11.00" fill="#000000">Visits</text>
<text text-anchor="start" x="612.0219" y="-300.8" font-family="Helvetica,sans-Serif" font-size="11.00" fill="#000000">[table]</text>
<polygon fill="none" stroke="#000000" points="570.5,-273.7 570.5,-292.7 646.5,-292.7 646.5,-273.7 570.5,-273.7"/>
<text text-anchor="start" x="573.5" y="-279.8" font-family="Helvetica,sans-Serif" font-size="11.00" fill="#000000">...</text>
<polygon fill="#ffffff" stroke="transparent" points="570.5,-254.7 570.5,-273.7 602.5,-273.7 602.5,-254.7 570.5,-254.7"/>
<polygon fill="none" stroke="#000000" points="570.5,-254.7 570.5,-273.7 602.5,-273.7 602.5,-254.7 570.5,-254.7"/>
<text text-anchor="start" x="573.5" y="-260.8" font-family="Helvetica,sans-Serif" font-size="11.00" fill="#000000">&lt; 2</text>
<polygon fill="#ffffff" stroke="transparent" points="602.5,-254.7 602.5,-273.7 619.5,-273.7 619.5,-254.7 602.5,-254.7"/>
<polygon fill="none" stroke="#000000" points="602.5,-254.7 602.5,-273.7 619.5,-273.7 619.5,-254.7 602.5,-254.7"/>
<text text-anchor="start" x="610.3862" y="-260.8" font-family="Helvetica,sans-Serif" font-size="11.00" fill="#000000"> &#160;</text>
<polygon fill="#ffffff" stroke="transparent" points="619.5,-254.7 619.5,-273.7 646.5,-273.7 646.5,-254.7 619.5,-254.7"/>
<polygon fill="none" stroke="#000000" points="619.5,-254.7 619.5,-273.7 646.5,-273.7 646.5,-254.7 619.5,-254.7"/>
<text text-anchor="start" x="627.9053" y="-260.8" font-family="Helvetica,sans-Serif" font-size="11.00" fill="#000000">2 &gt;</text>
</a>
</g>
</g>
<!-- Visits&#45;&gt;Hospitalizations -->
<g id="edge9" class="edge">
<title>Visits:w&#45;&gt;Hospitalizations:e</title>
<path fill="none" stroke="#000000" d="M555.8249,-281.9298C523.5885,-278.2742 512.9612,-262.125 478,-244.7 459.2739,-235.3667 458.4231,-220.7 437.5,-220.7"/>
<polygon fill="#000000" stroke="#000000" points="562.511,-282.2807 570.3113,-286.2951 566.5055,-282.4903 570.5,-282.7 570.5,-282.7 570.5,-282.7 566.5055,-282.4903 570.6887,-279.1049 562.511,-282.2807 562.511,-282.2807"/>
<ellipse fill="none" stroke="#000000" cx="559.3154" cy="-282.1129" rx="3.2" ry="3.2"/>
</g>
</g>
</svg>
