<?xml version="1.0" encoding="UTF-8" standalone="no"?>
<!DOCTYPE svg PUBLIC "-//W3C//DTD SVG 1.1//EN"
 "http://www.w3.org/Graphics/SVG/1.1/DTD/svg11.dtd">
<!-- Generated by graphviz version 2.40.1 (20161225.0304)
 -->
<!-- Title: oneDegreeRelationshipsDiagram Pages: 1 -->
<svg width="429pt" height="293pt"
 viewBox="0.00 0.00 429.00 292.70" xmlns="http://www.w3.org/2000/svg" xmlns:xlink="http://www.w3.org/1999/xlink">
<g id="graph0" class="graph" transform="scale(1 1) rotate(0) translate(4 288.7)">
<title>oneDegreeRelationshipsDiagram</title>
<polygon fill="#ffffff" stroke="transparent" points="-4,4 -4,-288.7 425,-288.7 425,4 -4,4"/>
<text text-anchor="middle" x="72.4936" y="-7.3" font-family="Helvetica,sans-Serif" font-size="11.00" fill="#000000">Generated by SchemaSpy</text>
<!-- Visits -->
<g id="node1" class="node">
<title>Visits</title>
<g id="a_node1"><a xlink:href="../../tables/Visits.html" xlink:title="Visits" target="_top">
<polygon fill="#ffffff" stroke="transparent" points="258,-131.7 258,-280.7 413,-280.7 413,-131.7 258,-131.7"/>
<polygon fill="#f5f5f5" stroke="transparent" points="258.5,-257.2 258.5,-280.2 413.5,-280.2 413.5,-257.2 258.5,-257.2"/>
<polygon fill="none" stroke="#000000" points="258.5,-257.2 258.5,-280.2 413.5,-280.2 413.5,-257.2 258.5,-257.2"/>
<text text-anchor="start" x="263.5" y="-265.8" font-family="Helvetica,sans-Serif" font-weight="bold" font-size="11.00" fill="#000000">Visits</text>
<text text-anchor="start" x="378.5437" y="-265.3" font-family="Helvetica,sans-Serif" font-size="11.00" fill="#000000">[table]</text>
<polygon fill="none" stroke="#000000" points="258.5,-235.2 258.5,-257.2 413.5,-257.2 413.5,-235.2 258.5,-235.2"/>
<image xlink:href="../../images/primaryKeys.png" width="11px" height="12px" preserveAspectRatio="xMinYMin meet" x="263.5" y="-252.2"/>
<text text-anchor="start" x="278.5" y="-242.3" font-family="Helvetica,sans-Serif" font-size="11.00" fill="#000000">Id</text>
<polygon fill="#ffffff" stroke="transparent" points="258.5,-213.2 258.5,-235.2 413.5,-235.2 413.5,-213.2 258.5,-213.2"/>
<polygon fill="none" stroke="#000000" points="258.5,-213.2 258.5,-235.2 413.5,-235.2 413.5,-213.2 258.5,-213.2"/>
<text text-anchor="start" x="278.5" y="-220.3" font-family="Helvetica,sans-Serif" font-size="11.00" fill="#000000">DateServiced</text>
<polygon fill="#ffffff" stroke="transparent" points="258.5,-191.2 258.5,-213.2 413.5,-213.2 413.5,-191.2 258.5,-191.2"/>
<polygon fill="none" stroke="#000000" points="258.5,-191.2 258.5,-213.2 413.5,-213.2 413.5,-191.2 258.5,-191.2"/>
<image xlink:href="../../images/foreignKeys.png" width="11px" height="12px" preserveAspectRatio="xMinYMin meet" x="263.5" y="-208.2"/>
<text text-anchor="start" x="278.5" y="-198.3" font-family="Helvetica,sans-Serif" font-size="11.00" fill="#000000">HospitalizationId</text>
<polygon fill="#ffffff" stroke="transparent" points="258.5,-169.2 258.5,-191.2 413.5,-191.2 413.5,-169.2 258.5,-169.2"/>
<polygon fill="none" stroke="#000000" points="258.5,-169.2 258.5,-191.2 413.5,-191.2 413.5,-169.2 258.5,-169.2"/>
<image xlink:href="../../images/foreignKeys.png" width="11px" height="12px" preserveAspectRatio="xMinYMin meet" x="263.5" y="-186.2"/>
<text text-anchor="start" x="278.5" y="-176.3" font-family="Helvetica,sans-Serif" font-size="11.00" fill="#000000">ServiceTypeId</text>
<polygon fill="none" stroke="#000000" points="258.5,-150.2 258.5,-169.2 413.5,-169.2 413.5,-150.2 258.5,-150.2"/>
<text text-anchor="start" x="261.5" y="-156.3" font-family="Helvetica,sans-Serif" font-size="11.00" fill="#000000">...</text>
<polygon fill="#ffffff" stroke="transparent" points="258.5,-131.2 258.5,-150.2 329.5,-150.2 329.5,-131.2 258.5,-131.2"/>
<polygon fill="none" stroke="#000000" points="258.5,-131.2 258.5,-150.2 329.5,-150.2 329.5,-131.2 258.5,-131.2"/>
<text text-anchor="start" x="261.5" y="-137.3" font-family="Helvetica,sans-Serif" font-size="11.00" fill="#000000">&lt; 2</text>
<polygon fill="#ffffff" stroke="transparent" points="329.5,-131.2 329.5,-150.2 366.5,-150.2 366.5,-131.2 329.5,-131.2"/>
<polygon fill="none" stroke="#000000" points="329.5,-131.2 329.5,-150.2 366.5,-150.2 366.5,-131.2 329.5,-131.2"/>
<text text-anchor="start" x="357.3862" y="-137.3" font-family="Helvetica,sans-Serif" font-size="11.00" fill="#000000"> &#160;</text>
<polygon fill="#ffffff" stroke="transparent" points="366.5,-131.2 366.5,-150.2 413.5,-150.2 413.5,-131.2 366.5,-131.2"/>
<polygon fill="none" stroke="#000000" points="366.5,-131.2 366.5,-150.2 413.5,-150.2 413.5,-131.2 366.5,-131.2"/>
<text text-anchor="start" x="394.9053" y="-137.3" font-family="Helvetica,sans-Serif" font-size="11.00" fill="#000000">2 &gt;</text>
</a>
</g>
</g>
<!-- ServiceTypes -->
<g id="node2" class="node">
<title>ServiceTypes</title>
<g id="a_node2"><a xlink:href="../../tables/ServiceTypes.html" xlink:title="ServiceTypes" target="_top">
<polygon fill="#ffffff" stroke="transparent" points="8,-38.2 8,-216.2 209,-216.2 209,-38.2 8,-38.2"/>
<polygon fill="#f5f5f5" stroke="transparent" points="10.5,-191.2 10.5,-214.2 207.5,-214.2 207.5,-191.2 10.5,-191.2"/>
<polygon fill="none" stroke="#000000" points="10.5,-191.2 10.5,-214.2 207.5,-214.2 207.5,-191.2 10.5,-191.2"/>
<text text-anchor="start" x="15.5" y="-199.8" font-family="Helvetica,sans-Serif" font-weight="bold" font-size="11.00" fill="#000000">ServiceTypes</text>
<text text-anchor="start" x="172.5437" y="-199.3" font-family="Helvetica,sans-Serif" font-size="11.00" fill="#000000">[table]</text>
<polygon fill="none" stroke="#000000" points="10.5,-169.2 10.5,-191.2 126.5,-191.2 126.5,-169.2 10.5,-169.2"/>
<image xlink:href="../../images/primaryKeys.png" width="11px" height="12px" preserveAspectRatio="xMinYMin meet" x="15.5" y="-186.2"/>
<text text-anchor="start" x="30.5" y="-176.3" font-family="Helvetica,sans-Serif" font-size="11.00" fill="#000000">Id</text>
<polygon fill="none" stroke="#000000" points="126.5,-169.2 126.5,-191.2 207.5,-191.2 207.5,-169.2 126.5,-169.2"/>
<text text-anchor="start" x="129.5" y="-176.9" font-family="Helvetica,sans-Serif" font-size="11.00" fill="#000000">int identity[4]</text>
<polygon fill="none" stroke="#000000" points="10.5,-147.2 10.5,-169.2 126.5,-169.2 126.5,-147.2 10.5,-147.2"/>
<text text-anchor="start" x="30.5" y="-154.3" font-family="Helvetica,sans-Serif" font-size="11.00" fill="#000000">Description</text>
<polygon fill="none" stroke="#000000" points="126.5,-147.2 126.5,-169.2 207.5,-169.2 207.5,-147.2 126.5,-147.2"/>
<text text-anchor="start" x="129.5" y="-154.9" font-family="Helvetica,sans-Serif" font-size="11.00" fill="#000000">nvarchar[200]</text>
<polygon fill="none" stroke="#000000" points="10.5,-125.2 10.5,-147.2 126.5,-147.2 126.5,-125.2 10.5,-125.2"/>
<text text-anchor="start" x="30.5" y="-132.3" font-family="Helvetica,sans-Serif" font-size="11.00" fill="#000000">CPTCode</text>
<polygon fill="none" stroke="#000000" points="126.5,-125.2 126.5,-147.2 207.5,-147.2 207.5,-125.2 126.5,-125.2"/>
<text text-anchor="start" x="129.5" y="-132.9" font-family="Helvetica,sans-Serif" font-size="11.00" fill="#000000">int[4]</text>
<polygon fill="none" stroke="#000000" points="10.5,-103.2 10.5,-125.2 126.5,-125.2 126.5,-103.2 10.5,-103.2"/>
<text text-anchor="start" x="30.5" y="-110.3" font-family="Helvetica,sans-Serif" font-size="11.00" fill="#000000">CreatedAtUtc</text>
<polygon fill="none" stroke="#000000" points="126.5,-103.2 126.5,-125.2 207.5,-125.2 207.5,-103.2 126.5,-103.2"/>
<text text-anchor="start" x="129.0967" y="-110.9" font-family="Helvetica,sans-Serif" font-size="11.00" fill="#000000">datetime2[16,7]</text>
<polygon fill="none" stroke="#000000" points="10.5,-81.2 10.5,-103.2 126.5,-103.2 126.5,-81.2 10.5,-81.2"/>
<text text-anchor="start" x="30.5" y="-88.3" font-family="Helvetica,sans-Serif" font-size="11.00" fill="#000000">UpdatedAtUtc</text>
<polygon fill="none" stroke="#000000" points="126.5,-81.2 126.5,-103.2 207.5,-103.2 207.5,-81.2 126.5,-81.2"/>
<text text-anchor="start" x="129.0967" y="-88.9" font-family="Helvetica,sans-Serif" font-size="11.00" fill="#000000">datetime2[16,7]</text>
<polygon fill="none" stroke="#000000" points="10.5,-59.2 10.5,-81.2 126.5,-81.2 126.5,-59.2 10.5,-59.2"/>
<text text-anchor="start" x="30.5" y="-66.3" font-family="Helvetica,sans-Serif" font-size="11.00" fill="#000000">RowVersion</text>
<polygon fill="none" stroke="#000000" points="126.5,-59.2 126.5,-81.2 207.5,-81.2 207.5,-59.2 126.5,-59.2"/>
<text text-anchor="start" x="129.5" y="-66.9" font-family="Helvetica,sans-Serif" font-size="11.00" fill="#000000">timestamp[8]</text>
<polygon fill="#ffffff" stroke="transparent" points="10.5,-40.2 10.5,-59.2 72.5,-59.2 72.5,-40.2 10.5,-40.2"/>
<polygon fill="none" stroke="#000000" points="10.5,-40.2 10.5,-59.2 72.5,-59.2 72.5,-40.2 10.5,-40.2"/>
<text text-anchor="start" x="13.5" y="-46.3" font-family="Helvetica,sans-Serif" font-size="11.00" fill="#000000">&lt; 0</text>
<polygon fill="#ffffff" stroke="transparent" points="72.5,-40.2 72.5,-59.2 126.5,-59.2 126.5,-40.2 72.5,-40.2"/>
<polygon fill="none" stroke="#000000" points="72.5,-40.2 72.5,-59.2 126.5,-59.2 126.5,-40.2 72.5,-40.2"/>
<text text-anchor="start" x="117.3862" y="-46.3" font-family="Helvetica,sans-Serif" font-size="11.00" fill="#000000"> &#160;</text>
<polygon fill="#ffffff" stroke="transparent" points="126.5,-40.2 126.5,-59.2 207.5,-59.2 207.5,-40.2 126.5,-40.2"/>
<polygon fill="none" stroke="#000000" points="126.5,-40.2 126.5,-59.2 207.5,-59.2 207.5,-40.2 126.5,-40.2"/>
<text text-anchor="start" x="188.9053" y="-46.3" font-family="Helvetica,sans-Serif" font-size="11.00" fill="#000000">1 &gt;</text>
<polygon fill="none" stroke="#000000" stroke-width="2" points="9,-39.2 9,-215.2 208,-215.2 208,-39.2 9,-39.2"/>
</a>
</g>
</g>
<!-- Visits&#45;&gt;ServiceTypes -->
<g id="edge1" class="edge">
<title>Visits:w&#45;&gt;ServiceTypes:e</title>
<path fill="none" stroke="#000000" d="M243.776,-180.2C231.7815,-180.2 224.3229,-180.2 207.5,-180.2"/>
<polygon fill="#000000" stroke="#000000" points="250.5,-180.2001 258.5,-183.8 254.5,-180.2 258.5,-180.2 258.5,-180.2 258.5,-180.2 254.5,-180.2 258.5,-176.6 250.5,-180.2001 250.5,-180.2001"/>
<ellipse fill="none" stroke="#000000" cx="247.3" cy="-180.2001" rx="3.2" ry="3.2"/>
</g>
</g>
</svg>
