<?xml version="1.0" encoding="UTF-8" standalone="no"?>
<!DOCTYPE svg PUBLIC "-//W3C//DTD SVG 1.1//EN"
 "http://www.w3.org/Graphics/SVG/1.1/DTD/svg11.dtd">
<!-- Generated by graphviz version 2.40.1 (20161225.0304)
 -->
<!-- Title: twoDegreesRelationshipsDiagram Pages: 1 -->
<svg width="622pt" height="364pt"
 viewBox="0.00 0.00 622.00 363.70" xmlns="http://www.w3.org/2000/svg" xmlns:xlink="http://www.w3.org/1999/xlink">
<g id="graph0" class="graph" transform="scale(1 1) rotate(0) translate(4 359.7)">
<title>twoDegreesRelationshipsDiagram</title>
<polygon fill="#ffffff" stroke="transparent" points="-4,4 -4,-359.7 618,-359.7 618,4 -4,4"/>
<text text-anchor="middle" x="72.4936" y="-7.3" font-family="Helvetica,sans-Serif" font-size="11.00" fill="#000000">Generated by SchemaSpy</text>
<!-- VisitAttendants -->
<g id="node1" class="node">
<title>VisitAttendants</title>
<g id="a_node1"><a xlink:href="../../tables/VisitAttendants.html" xlink:title="VisitAttendants" target="_top">
<polygon fill="#ffffff" stroke="transparent" points="462,-290.7 462,-351.7 606,-351.7 606,-290.7 462,-290.7"/>
<polygon fill="#f5f5f5" stroke="transparent" points="462,-328.2 462,-351.2 606,-351.2 606,-328.2 462,-328.2"/>
<polygon fill="none" stroke="#000000" points="462,-328.2 462,-351.2 606,-351.2 606,-328.2 462,-328.2"/>
<text text-anchor="start" x="467" y="-336.8" font-family="Helvetica,sans-Serif" font-weight="bold" font-size="11.00" fill="#000000">VisitAttendants</text>
<text text-anchor="start" x="571.5219" y="-336.3" font-family="Helvetica,sans-Serif" font-size="11.00" fill="#000000">[table]</text>
<polygon fill="none" stroke="#000000" points="462,-309.2 462,-328.2 606,-328.2 606,-309.2 462,-309.2"/>
<text text-anchor="start" x="465" y="-315.3" font-family="Helvetica,sans-Serif" font-size="11.00" fill="#000000">...</text>
<polygon fill="#ffffff" stroke="transparent" points="462,-290.2 462,-309.2 532,-309.2 532,-290.2 462,-290.2"/>
<polygon fill="none" stroke="#000000" points="462,-290.2 462,-309.2 532,-309.2 532,-290.2 462,-290.2"/>
<text text-anchor="start" x="465" y="-296.3" font-family="Helvetica,sans-Serif" font-size="11.00" fill="#000000">&lt; 2</text>
<polygon fill="#ffffff" stroke="transparent" points="532,-290.2 532,-309.2 569,-309.2 569,-290.2 532,-290.2"/>
<polygon fill="none" stroke="#000000" points="532,-290.2 532,-309.2 569,-309.2 569,-290.2 532,-290.2"/>
<text text-anchor="start" x="559.8862" y="-296.3" font-family="Helvetica,sans-Serif" font-size="11.00" fill="#000000"> &#160;</text>
<polygon fill="#ffffff" stroke="transparent" points="569,-290.2 569,-309.2 606,-309.2 606,-290.2 569,-290.2"/>
<polygon fill="none" stroke="#000000" points="569,-290.2 569,-309.2 606,-309.2 606,-290.2 569,-290.2"/>
<text text-anchor="start" x="596.8862" y="-296.3" font-family="Helvetica,sans-Serif" font-size="11.00" fill="#000000"> &#160;</text>
</a>
</g>
</g>
<!-- Visits -->
<g id="node2" class="node">
<title>Visits</title>
<g id="a_node2"><a xlink:href="../../tables/Visits.html" xlink:title="Visits" target="_top">
<polygon fill="#ffffff" stroke="transparent" points="258,-162.7 258,-311.7 413,-311.7 413,-162.7 258,-162.7"/>
<polygon fill="#f5f5f5" stroke="transparent" points="258.5,-288.2 258.5,-311.2 413.5,-311.2 413.5,-288.2 258.5,-288.2"/>
<polygon fill="none" stroke="#000000" points="258.5,-288.2 258.5,-311.2 413.5,-311.2 413.5,-288.2 258.5,-288.2"/>
<text text-anchor="start" x="263.5" y="-296.8" font-family="Helvetica,sans-Serif" font-weight="bold" font-size="11.00" fill="#000000">Visits</text>
<text text-anchor="start" x="378.5437" y="-296.3" font-family="Helvetica,sans-Serif" font-size="11.00" fill="#000000">[table]</text>
<polygon fill="none" stroke="#000000" points="258.5,-266.2 258.5,-288.2 413.5,-288.2 413.5,-266.2 258.5,-266.2"/>
<image xlink:href="../../images/primaryKeys.png" width="11px" height="12px" preserveAspectRatio="xMinYMin meet" x="263.5" y="-283.2"/>
<text text-anchor="start" x="278.5" y="-273.3" font-family="Helvetica,sans-Serif" font-size="11.00" fill="#000000">Id</text>
<polygon fill="#ffffff" stroke="transparent" points="258.5,-244.2 258.5,-266.2 413.5,-266.2 413.5,-244.2 258.5,-244.2"/>
<polygon fill="none" stroke="#000000" points="258.5,-244.2 258.5,-266.2 413.5,-266.2 413.5,-244.2 258.5,-244.2"/>
<text text-anchor="start" x="278.5" y="-251.3" font-family="Helvetica,sans-Serif" font-size="11.00" fill="#000000">DateServiced</text>
<polygon fill="#ffffff" stroke="transparent" points="258.5,-222.2 258.5,-244.2 413.5,-244.2 413.5,-222.2 258.5,-222.2"/>
<polygon fill="none" stroke="#000000" points="258.5,-222.2 258.5,-244.2 413.5,-244.2 413.5,-222.2 258.5,-222.2"/>
<image xlink:href="../../images/foreignKeys.png" width="11px" height="12px" preserveAspectRatio="xMinYMin meet" x="263.5" y="-239.2"/>
<text text-anchor="start" x="278.5" y="-229.3" font-family="Helvetica,sans-Serif" font-size="11.00" fill="#000000">HospitalizationId</text>
<polygon fill="#ffffff" stroke="transparent" points="258.5,-200.2 258.5,-222.2 413.5,-222.2 413.5,-200.2 258.5,-200.2"/>
<polygon fill="none" stroke="#000000" points="258.5,-200.2 258.5,-222.2 413.5,-222.2 413.5,-200.2 258.5,-200.2"/>
<image xlink:href="../../images/foreignKeys.png" width="11px" height="12px" preserveAspectRatio="xMinYMin meet" x="263.5" y="-217.2"/>
<text text-anchor="start" x="278.5" y="-207.3" font-family="Helvetica,sans-Serif" font-size="11.00" fill="#000000">ServiceTypeId</text>
<polygon fill="none" stroke="#000000" points="258.5,-181.2 258.5,-200.2 413.5,-200.2 413.5,-181.2 258.5,-181.2"/>
<text text-anchor="start" x="261.5" y="-187.3" font-family="Helvetica,sans-Serif" font-size="11.00" fill="#000000">...</text>
<polygon fill="#ffffff" stroke="transparent" points="258.5,-162.2 258.5,-181.2 329.5,-181.2 329.5,-162.2 258.5,-162.2"/>
<polygon fill="none" stroke="#000000" points="258.5,-162.2 258.5,-181.2 329.5,-181.2 329.5,-162.2 258.5,-162.2"/>
<text text-anchor="start" x="261.5" y="-168.3" font-family="Helvetica,sans-Serif" font-size="11.00" fill="#000000">&lt; 2</text>
<polygon fill="#ffffff" stroke="transparent" points="329.5,-162.2 329.5,-181.2 366.5,-181.2 366.5,-162.2 329.5,-162.2"/>
<polygon fill="none" stroke="#000000" points="329.5,-162.2 329.5,-181.2 366.5,-181.2 366.5,-162.2 329.5,-162.2"/>
<text text-anchor="start" x="357.3862" y="-168.3" font-family="Helvetica,sans-Serif" font-size="11.00" fill="#000000"> &#160;</text>
<polygon fill="#ffffff" stroke="transparent" points="366.5,-162.2 366.5,-181.2 413.5,-181.2 413.5,-162.2 366.5,-162.2"/>
<polygon fill="none" stroke="#000000" points="366.5,-162.2 366.5,-181.2 413.5,-181.2 413.5,-162.2 366.5,-162.2"/>
<text text-anchor="start" x="394.9053" y="-168.3" font-family="Helvetica,sans-Serif" font-size="11.00" fill="#000000">2 &gt;</text>
</a>
</g>
</g>
<!-- VisitAttendants&#45;&gt;Visits -->
<g id="edge1" class="edge">
<title>VisitAttendants:w&#45;&gt;Visits:e</title>
<path fill="none" stroke="#000000" d="M448.2884,-313.4968C435.5191,-302.7274 435.7719,-277.2 413.5,-277.2"/>
<polygon fill="#000000" stroke="#000000" points="454.4328,-315.6043 460.8319,-321.6052 458.2164,-316.9022 462,-318.2 462,-318.2 462,-318.2 458.2164,-316.9022 463.1681,-314.7948 454.4328,-315.6043 454.4328,-315.6043"/>
<ellipse fill="none" stroke="#000000" cx="451.4059" cy="-314.5661" rx="3.2" ry="3.2"/>
</g>
<!-- Hospitalizations -->
<g id="node4" class="node">
<title>Hospitalizations</title>
<g id="a_node4"><a xlink:href="../../tables/Hospitalizations.html" xlink:title="Hospitalizations" target="_top">
<polygon fill="#ffffff" stroke="transparent" points="34.5,-237.7 34.5,-298.7 182.5,-298.7 182.5,-237.7 34.5,-237.7"/>
<polygon fill="#f5f5f5" stroke="transparent" points="34.5,-275.2 34.5,-298.2 182.5,-298.2 182.5,-275.2 34.5,-275.2"/>
<polygon fill="none" stroke="#000000" points="34.5,-275.2 34.5,-298.2 182.5,-298.2 182.5,-275.2 34.5,-275.2"/>
<text text-anchor="start" x="39.5" y="-283.8" font-family="Helvetica,sans-Serif" font-weight="bold" font-size="11.00" fill="#000000">Hospitalizations</text>
<text text-anchor="start" x="148.0219" y="-283.3" font-family="Helvetica,sans-Serif" font-size="11.00" fill="#000000">[table]</text>
<polygon fill="none" stroke="#000000" points="34.5,-256.2 34.5,-275.2 182.5,-275.2 182.5,-256.2 34.5,-256.2"/>
<text text-anchor="start" x="37.5" y="-262.3" font-family="Helvetica,sans-Serif" font-size="11.00" fill="#000000">...</text>
<polygon fill="#ffffff" stroke="transparent" points="34.5,-237.2 34.5,-256.2 102.5,-256.2 102.5,-237.2 34.5,-237.2"/>
<polygon fill="none" stroke="#000000" points="34.5,-237.2 34.5,-256.2 102.5,-256.2 102.5,-237.2 34.5,-237.2"/>
<text text-anchor="start" x="37.5" y="-243.3" font-family="Helvetica,sans-Serif" font-size="11.00" fill="#000000">&lt; 3</text>
<polygon fill="#ffffff" stroke="transparent" points="102.5,-237.2 102.5,-256.2 137.5,-256.2 137.5,-237.2 102.5,-237.2"/>
<polygon fill="none" stroke="#000000" points="102.5,-237.2 102.5,-256.2 137.5,-256.2 137.5,-237.2 102.5,-237.2"/>
<text text-anchor="start" x="128.3862" y="-243.3" font-family="Helvetica,sans-Serif" font-size="11.00" fill="#000000"> &#160;</text>
<polygon fill="#ffffff" stroke="transparent" points="137.5,-237.2 137.5,-256.2 182.5,-256.2 182.5,-237.2 137.5,-237.2"/>
<polygon fill="none" stroke="#000000" points="137.5,-237.2 137.5,-256.2 182.5,-256.2 182.5,-237.2 137.5,-237.2"/>
<text text-anchor="start" x="163.9053" y="-243.3" font-family="Helvetica,sans-Serif" font-size="11.00" fill="#000000">3 &gt;</text>
</a>
</g>
</g>
<!-- Visits&#45;&gt;Hospitalizations -->
<g id="edge3" class="edge">
<title>Visits:w&#45;&gt;Hospitalizations:e</title>
<path fill="none" stroke="#000000" d="M244.2014,-235.1059C220.3005,-241.9949 213.7096,-265.2 182.5,-265.2"/>
<polygon fill="#000000" stroke="#000000" points="250.5701,-234.257 258.9757,-236.7684 254.5351,-233.7285 258.5,-233.2 258.5,-233.2 258.5,-233.2 254.5351,-233.7285 258.0243,-229.6316 250.5701,-234.257 250.5701,-234.257"/>
<ellipse fill="none" stroke="#000000" cx="247.3982" cy="-234.6799" rx="3.2" ry="3.2"/>
</g>
<!-- ServiceTypes -->
<g id="node5" class="node">
<title>ServiceTypes</title>
<g id="a_node5"><a xlink:href="../../tables/ServiceTypes.html" xlink:title="ServiceTypes" target="_top">
<polygon fill="#ffffff" stroke="transparent" points="8,-38.2 8,-216.2 209,-216.2 209,-38.2 8,-38.2"/>
<polygon fill="#f5f5f5" stroke="transparent" points="10.5,-191.2 10.5,-214.2 207.5,-214.2 207.5,-191.2 10.5,-191.2"/>
<polygon fill="none" stroke="#000000" points="10.5,-191.2 10.5,-214.2 207.5,-214.2 207.5,-191.2 10.5,-191.2"/>
<text text-anchor="start" x="15.5" y="-199.8" font-family="Helvetica,sans-Serif" font-weight="bold" font-size="11.00" fill="#000000">ServiceTypes</text>
<text text-anchor="start" x="172.5437" y="-199.3" font-family="Helvetica,sans-Serif" font-size="11.00" fill="#000000">[table]</text>
<polygon fill="none" stroke="#000000" points="10.5,-169.2 10.5,-191.2 126.5,-191.2 126.5,-169.2 10.5,-169.2"/>
<image xlink:href="../../images/primaryKeys.png" width="11px" height="12px" preserveAspectRatio="xMinYMin meet" x="15.5" y="-186.2"/>
<text text-anchor="start" x="30.5" y="-176.3" font-family="Helvetica,sans-Serif" font-size="11.00" fill="#000000">Id</text>
<polygon fill="none" stroke="#000000" points="126.5,-169.2 126.5,-191.2 207.5,-191.2 207.5,-169.2 126.5,-169.2"/>
<text text-anchor="start" x="129.5" y="-176.9" font-family="Helvetica,sans-Serif" font-size="11.00" fill="#000000">int identity[4]</text>
<polygon fill="none" stroke="#000000" points="10.5,-147.2 10.5,-169.2 126.5,-169.2 126.5,-147.2 10.5,-147.2"/>
<text text-anchor="start" x="30.5" y="-154.3" font-family="Helvetica,sans-Serif" font-size="11.00" fill="#000000">Description</text>
<polygon fill="none" stroke="#000000" points="126.5,-147.2 126.5,-169.2 207.5,-169.2 207.5,-147.2 126.5,-147.2"/>
<text text-anchor="start" x="129.5" y="-154.9" font-family="Helvetica,sans-Serif" font-size="11.00" fill="#000000">nvarchar[200]</text>
<polygon fill="none" stroke="#000000" points="10.5,-125.2 10.5,-147.2 126.5,-147.2 126.5,-125.2 10.5,-125.2"/>
<text text-anchor="start" x="30.5" y="-132.3" font-family="Helvetica,sans-Serif" font-size="11.00" fill="#000000">CPTCode</text>
<polygon fill="none" stroke="#000000" points="126.5,-125.2 126.5,-147.2 207.5,-147.2 207.5,-125.2 126.5,-125.2"/>
<text text-anchor="start" x="129.5" y="-132.9" font-family="Helvetica,sans-Serif" font-size="11.00" fill="#000000">int[4]</text>
<polygon fill="none" stroke="#000000" points="10.5,-103.2 10.5,-125.2 126.5,-125.2 126.5,-103.2 10.5,-103.2"/>
<text text-anchor="start" x="30.5" y="-110.3" font-family="Helvetica,sans-Serif" font-size="11.00" fill="#000000">CreatedAtUtc</text>
<polygon fill="none" stroke="#000000" points="126.5,-103.2 126.5,-125.2 207.5,-125.2 207.5,-103.2 126.5,-103.2"/>
<text text-anchor="start" x="129.0967" y="-110.9" font-family="Helvetica,sans-Serif" font-size="11.00" fill="#000000">datetime2[16,7]</text>
<polygon fill="none" stroke="#000000" points="10.5,-81.2 10.5,-103.2 126.5,-103.2 126.5,-81.2 10.5,-81.2"/>
<text text-anchor="start" x="30.5" y="-88.3" font-family="Helvetica,sans-Serif" font-size="11.00" fill="#000000">UpdatedAtUtc</text>
<polygon fill="none" stroke="#000000" points="126.5,-81.2 126.5,-103.2 207.5,-103.2 207.5,-81.2 126.5,-81.2"/>
<text text-anchor="start" x="129.0967" y="-88.9" font-family="Helvetica,sans-Serif" font-size="11.00" fill="#000000">datetime2[16,7]</text>
<polygon fill="none" stroke="#000000" points="10.5,-59.2 10.5,-81.2 126.5,-81.2 126.5,-59.2 10.5,-59.2"/>
<text text-anchor="start" x="30.5" y="-66.3" font-family="Helvetica,sans-Serif" font-size="11.00" fill="#000000">RowVersion</text>
<polygon fill="none" stroke="#000000" points="126.5,-59.2 126.5,-81.2 207.5,-81.2 207.5,-59.2 126.5,-59.2"/>
<text text-anchor="start" x="129.5" y="-66.9" font-family="Helvetica,sans-Serif" font-size="11.00" fill="#000000">timestamp[8]</text>
<polygon fill="#ffffff" stroke="transparent" points="10.5,-40.2 10.5,-59.2 72.5,-59.2 72.5,-40.2 10.5,-40.2"/>
<polygon fill="none" stroke="#000000" points="10.5,-40.2 10.5,-59.2 72.5,-59.2 72.5,-40.2 10.5,-40.2"/>
<text text-anchor="start" x="13.5" y="-46.3" font-family="Helvetica,sans-Serif" font-size="11.00" fill="#000000">&lt; 0</text>
<polygon fill="#ffffff" stroke="transparent" points="72.5,-40.2 72.5,-59.2 126.5,-59.2 126.5,-40.2 72.5,-40.2"/>
<polygon fill="none" stroke="#000000" points="72.5,-40.2 72.5,-59.2 126.5,-59.2 126.5,-40.2 72.5,-40.2"/>
<text text-anchor="start" x="117.3862" y="-46.3" font-family="Helvetica,sans-Serif" font-size="11.00" fill="#000000"> &#160;</text>
<polygon fill="#ffffff" stroke="transparent" points="126.5,-40.2 126.5,-59.2 207.5,-59.2 207.5,-40.2 126.5,-40.2"/>
<polygon fill="none" stroke="#000000" points="126.5,-40.2 126.5,-59.2 207.5,-59.2 207.5,-40.2 126.5,-40.2"/>
<text text-anchor="start" x="188.9053" y="-46.3" font-family="Helvetica,sans-Serif" font-size="11.00" fill="#000000">1 &gt;</text>
<polygon fill="none" stroke="#000000" stroke-width="2" points="9,-39.2 9,-215.2 208,-215.2 208,-39.2 9,-39.2"/>
</a>
</g>
</g>
<!-- Visits&#45;&gt;ServiceTypes -->
<g id="edge4" class="edge">
<title>Visits:w&#45;&gt;ServiceTypes:e</title>
<path fill="none" stroke="#000000" d="M244.5967,-207.3988C231.5044,-199.1209 228.2231,-180.2 207.5,-180.2"/>
<polygon fill="#000000" stroke="#000000" points="250.7832,-209.0902 257.5506,-214.6726 254.6416,-210.1451 258.5,-211.2 258.5,-211.2 258.5,-211.2 254.6416,-210.1451 259.4494,-207.7274 250.7832,-209.0902 250.7832,-209.0902"/>
<ellipse fill="none" stroke="#000000" cx="247.6965" cy="-208.2462" rx="3.2" ry="3.2"/>
</g>
<!-- VisitEvents -->
<g id="node3" class="node">
<title>VisitEvents</title>
<g id="a_node3"><a xlink:href="../../tables/VisitEvents.html" xlink:title="VisitEvents" target="_top">
<polygon fill="#ffffff" stroke="transparent" points="477,-208.7 477,-269.7 591,-269.7 591,-208.7 477,-208.7"/>
<polygon fill="#f5f5f5" stroke="transparent" points="477,-246.2 477,-269.2 591,-269.2 591,-246.2 477,-246.2"/>
<polygon fill="none" stroke="#000000" points="477,-246.2 477,-269.2 591,-269.2 591,-246.2 477,-246.2"/>
<text text-anchor="start" x="482" y="-254.8" font-family="Helvetica,sans-Serif" font-weight="bold" font-size="11.00" fill="#000000">VisitEvents</text>
<text text-anchor="start" x="556.5219" y="-254.3" font-family="Helvetica,sans-Serif" font-size="11.00" fill="#000000">[table]</text>
<polygon fill="none" stroke="#000000" points="477,-227.2 477,-246.2 591,-246.2 591,-227.2 477,-227.2"/>
<text text-anchor="start" x="480" y="-233.3" font-family="Helvetica,sans-Serif" font-size="11.00" fill="#000000">...</text>
<polygon fill="#ffffff" stroke="transparent" points="477,-208.2 477,-227.2 532,-227.2 532,-208.2 477,-208.2"/>
<polygon fill="none" stroke="#000000" points="477,-208.2 477,-227.2 532,-227.2 532,-208.2 477,-208.2"/>
<text text-anchor="start" x="480" y="-214.3" font-family="Helvetica,sans-Serif" font-size="11.00" fill="#000000">&lt; 4</text>
<polygon fill="#ffffff" stroke="transparent" points="532,-208.2 532,-227.2 561,-227.2 561,-208.2 532,-208.2"/>
<polygon fill="none" stroke="#000000" points="532,-208.2 532,-227.2 561,-227.2 561,-208.2 532,-208.2"/>
<text text-anchor="start" x="551.8862" y="-214.3" font-family="Helvetica,sans-Serif" font-size="11.00" fill="#000000"> &#160;</text>
<polygon fill="#ffffff" stroke="transparent" points="561,-208.2 561,-227.2 591,-227.2 591,-208.2 561,-208.2"/>
<polygon fill="none" stroke="#000000" points="561,-208.2 561,-227.2 591,-227.2 591,-208.2 561,-208.2"/>
<text text-anchor="start" x="581.8862" y="-214.3" font-family="Helvetica,sans-Serif" font-size="11.00" fill="#000000"> &#160;</text>
</a>
</g>
</g>
<!-- VisitEvents&#45;&gt;Visits -->
<g id="edge2" class="edge">
<title>VisitEvents:w&#45;&gt;Visits:e</title>
<path fill="none" stroke="#000000" d="M462.874,-239.2817C443.5932,-248.8167 441.4511,-277.2 413.5,-277.2"/>
<polygon fill="#000000" stroke="#000000" points="469.1838,-237.9052 477.7673,-239.7173 473.0919,-237.0526 477,-236.2 477,-236.2 477,-236.2 473.0919,-237.0526 476.2327,-232.6827 469.1838,-237.9052 469.1838,-237.9052"/>
<ellipse fill="none" stroke="#000000" cx="466.0574" cy="-238.5873" rx="3.2" ry="3.2"/>
</g>
</g>
</svg>
