<?xml version="1.0" encoding="UTF-8" standalone="no"?>
<!DOCTYPE svg PUBLIC "-//W3C//DTD SVG 1.1//EN"
 "http://www.w3.org/Graphics/SVG/1.1/DTD/svg11.dtd">
<!-- Generated by graphviz version 2.40.1 (20161225.0304)
 -->
<!-- Title: oneDegreeRelationshipsDiagram Pages: 1 -->
<svg width="541pt" height="489pt"
 viewBox="0.00 0.00 541.00 489.20" xmlns="http://www.w3.org/2000/svg" xmlns:xlink="http://www.w3.org/1999/xlink">
<g id="graph0" class="graph" transform="scale(1 1) rotate(0) translate(4 485.2)">
<title>oneDegreeRelationshipsDiagram</title>
<polygon fill="#ffffff" stroke="transparent" points="-4,4 -4,-485.2 537,-485.2 537,4 -4,4"/>
<text text-anchor="middle" x="72.4936" y="-7.3" font-family="Helvetica,sans-Serif" font-size="11.00" fill="#000000">Generated by SchemaSpy</text>
<!-- VisitEvents -->
<g id="node1" class="node">
<title>VisitEvents</title>
<g id="a_node1"><a xlink:href="../../tables/VisitEvents.html" xlink:title="VisitEvents" target="_top">
<polygon fill="#ffffff" stroke="transparent" points="270,-58.7 270,-324.7 525,-324.7 525,-58.7 270,-58.7"/>
<polygon fill="#f5f5f5" stroke="transparent" points="272.5,-299.7 272.5,-322.7 523.5,-322.7 523.5,-299.7 272.5,-299.7"/>
<polygon fill="none" stroke="#000000" points="272.5,-299.7 272.5,-322.7 523.5,-322.7 523.5,-299.7 272.5,-299.7"/>
<text text-anchor="start" x="277.5" y="-308.3" font-family="Helvetica,sans-Serif" font-weight="bold" font-size="11.00" fill="#000000">VisitEvents</text>
<text text-anchor="start" x="488.5437" y="-307.8" font-family="Helvetica,sans-Serif" font-size="11.00" fill="#000000">[table]</text>
<polygon fill="none" stroke="#000000" points="272.5,-277.7 272.5,-299.7 407.5,-299.7 407.5,-277.7 272.5,-277.7"/>
<image xlink:href="../../images/primaryKeys.png" width="11px" height="12px" preserveAspectRatio="xMinYMin meet" x="277.5" y="-294.7"/>
<text text-anchor="start" x="292.5" y="-284.8" font-family="Helvetica,sans-Serif" font-size="11.00" fill="#000000">Id</text>
<polygon fill="none" stroke="#000000" points="407.5,-277.7 407.5,-299.7 523.5,-299.7 523.5,-277.7 407.5,-277.7"/>
<text text-anchor="start" x="410.5" y="-285.4" font-family="Helvetica,sans-Serif" font-size="11.00" fill="#000000">int identity[4]</text>
<polygon fill="#ffffff" stroke="transparent" points="272.5,-255.7 272.5,-277.7 407.5,-277.7 407.5,-255.7 272.5,-255.7"/>
<polygon fill="none" stroke="#000000" points="272.5,-255.7 272.5,-277.7 407.5,-277.7 407.5,-255.7 272.5,-255.7"/>
<image xlink:href="../../images/foreignKeys.png" width="11px" height="12px" preserveAspectRatio="xMinYMin meet" x="277.5" y="-272.7"/>
<text text-anchor="start" x="292.5" y="-262.8" font-family="Helvetica,sans-Serif" font-size="11.00" fill="#000000">VisitId</text>
<polygon fill="none" stroke="#000000" points="407.5,-255.7 407.5,-277.7 523.5,-277.7 523.5,-255.7 407.5,-255.7"/>
<text text-anchor="start" x="410.5" y="-263.4" font-family="Helvetica,sans-Serif" font-size="11.00" fill="#000000">int[4]</text>
<polygon fill="#ffffff" stroke="transparent" points="272.5,-233.7 272.5,-255.7 407.5,-255.7 407.5,-233.7 272.5,-233.7"/>
<polygon fill="none" stroke="#000000" points="272.5,-233.7 272.5,-255.7 407.5,-255.7 407.5,-233.7 272.5,-233.7"/>
<image xlink:href="../../images/foreignKeys.png" width="11px" height="12px" preserveAspectRatio="xMinYMin meet" x="277.5" y="-250.7"/>
<text text-anchor="start" x="292.5" y="-240.8" font-family="Helvetica,sans-Serif" font-size="11.00" fill="#000000">EventTypeId</text>
<polygon fill="none" stroke="#000000" points="407.5,-233.7 407.5,-255.7 523.5,-255.7 523.5,-233.7 407.5,-233.7"/>
<text text-anchor="start" x="410.5" y="-241.4" font-family="Helvetica,sans-Serif" font-size="11.00" fill="#000000">int[4]</text>
<polygon fill="#ffffff" stroke="transparent" points="272.5,-211.7 272.5,-233.7 407.5,-233.7 407.5,-211.7 272.5,-211.7"/>
<polygon fill="none" stroke="#000000" points="272.5,-211.7 272.5,-233.7 407.5,-233.7 407.5,-211.7 272.5,-211.7"/>
<text text-anchor="start" x="292.5" y="-218.8" font-family="Helvetica,sans-Serif" font-size="11.00" fill="#000000">EventOccurredAt</text>
<polygon fill="none" stroke="#000000" points="407.5,-211.7 407.5,-233.7 523.5,-233.7 523.5,-211.7 407.5,-211.7"/>
<text text-anchor="start" x="410.5" y="-219.4" font-family="Helvetica,sans-Serif" font-size="11.00" fill="#000000">datetime2[16,7]</text>
<polygon fill="none" stroke="#000000" points="272.5,-189.7 272.5,-211.7 407.5,-211.7 407.5,-189.7 272.5,-189.7"/>
<text text-anchor="start" x="292.5" y="-196.8" font-family="Helvetica,sans-Serif" font-size="11.00" fill="#000000">Description</text>
<polygon fill="none" stroke="#000000" points="407.5,-189.7 407.5,-211.7 523.5,-211.7 523.5,-189.7 407.5,-189.7"/>
<text text-anchor="start" x="410.4769" y="-197.4" font-family="Helvetica,sans-Serif" font-size="11.00" fill="#000000">nvarchar[2147483647]</text>
<polygon fill="#ffffff" stroke="transparent" points="272.5,-167.7 272.5,-189.7 407.5,-189.7 407.5,-167.7 272.5,-167.7"/>
<polygon fill="none" stroke="#000000" points="272.5,-167.7 272.5,-189.7 407.5,-189.7 407.5,-167.7 272.5,-167.7"/>
<image xlink:href="../../images/foreignKeys.png" width="11px" height="12px" preserveAspectRatio="xMinYMin meet" x="277.5" y="-184.7"/>
<text text-anchor="start" x="292.5" y="-174.8" font-family="Helvetica,sans-Serif" font-size="11.00" fill="#000000">EnteredByUserId</text>
<polygon fill="none" stroke="#000000" points="407.5,-167.7 407.5,-189.7 523.5,-189.7 523.5,-167.7 407.5,-167.7"/>
<text text-anchor="start" x="410.5" y="-175.4" font-family="Helvetica,sans-Serif" font-size="11.00" fill="#000000">int[4]</text>
<polygon fill="#ffffff" stroke="transparent" points="272.5,-145.7 272.5,-167.7 407.5,-167.7 407.5,-145.7 272.5,-145.7"/>
<polygon fill="none" stroke="#000000" points="272.5,-145.7 272.5,-167.7 407.5,-167.7 407.5,-145.7 272.5,-145.7"/>
<image xlink:href="../../images/foreignKeys.png" width="11px" height="12px" preserveAspectRatio="xMinYMin meet" x="277.5" y="-162.7"/>
<text text-anchor="start" x="292.5" y="-152.8" font-family="Helvetica,sans-Serif" font-size="11.00" fill="#000000">EmployeeId</text>
<polygon fill="none" stroke="#000000" points="407.5,-145.7 407.5,-167.7 523.5,-167.7 523.5,-145.7 407.5,-145.7"/>
<text text-anchor="start" x="410.5" y="-153.4" font-family="Helvetica,sans-Serif" font-size="11.00" fill="#000000">int[4]</text>
<polygon fill="none" stroke="#000000" points="272.5,-123.7 272.5,-145.7 407.5,-145.7 407.5,-123.7 272.5,-123.7"/>
<text text-anchor="start" x="292.5" y="-130.8" font-family="Helvetica,sans-Serif" font-size="11.00" fill="#000000">CreatedAtUtc</text>
<polygon fill="none" stroke="#000000" points="407.5,-123.7 407.5,-145.7 523.5,-145.7 523.5,-123.7 407.5,-123.7"/>
<text text-anchor="start" x="410.5" y="-131.4" font-family="Helvetica,sans-Serif" font-size="11.00" fill="#000000">datetime2[16,7]</text>
<polygon fill="none" stroke="#000000" points="272.5,-101.7 272.5,-123.7 407.5,-123.7 407.5,-101.7 272.5,-101.7"/>
<text text-anchor="start" x="292.5" y="-108.8" font-family="Helvetica,sans-Serif" font-size="11.00" fill="#000000">UpdatedAtUtc</text>
<polygon fill="none" stroke="#000000" points="407.5,-101.7 407.5,-123.7 523.5,-123.7 523.5,-101.7 407.5,-101.7"/>
<text text-anchor="start" x="410.5" y="-109.4" font-family="Helvetica,sans-Serif" font-size="11.00" fill="#000000">datetime2[16,7]</text>
<polygon fill="none" stroke="#000000" points="272.5,-79.7 272.5,-101.7 407.5,-101.7 407.5,-79.7 272.5,-79.7"/>
<text text-anchor="start" x="292.5" y="-86.8" font-family="Helvetica,sans-Serif" font-size="11.00" fill="#000000">RowVersion</text>
<polygon fill="none" stroke="#000000" points="407.5,-79.7 407.5,-101.7 523.5,-101.7 523.5,-79.7 407.5,-79.7"/>
<text text-anchor="start" x="410.5" y="-87.4" font-family="Helvetica,sans-Serif" font-size="11.00" fill="#000000">timestamp[8]</text>
<polygon fill="#ffffff" stroke="transparent" points="272.5,-60.7 272.5,-79.7 344.5,-79.7 344.5,-60.7 272.5,-60.7"/>
<polygon fill="none" stroke="#000000" points="272.5,-60.7 272.5,-79.7 344.5,-79.7 344.5,-60.7 272.5,-60.7"/>
<text text-anchor="start" x="275.5" y="-66.8" font-family="Helvetica,sans-Serif" font-size="11.00" fill="#000000">&lt; 4</text>
<polygon fill="#ffffff" stroke="transparent" points="344.5,-60.7 344.5,-79.7 407.5,-79.7 407.5,-60.7 344.5,-60.7"/>
<polygon fill="none" stroke="#000000" points="344.5,-60.7 344.5,-79.7 407.5,-79.7 407.5,-60.7 344.5,-60.7"/>
<text text-anchor="start" x="398.3862" y="-66.8" font-family="Helvetica,sans-Serif" font-size="11.00" fill="#000000"> &#160;</text>
<polygon fill="#ffffff" stroke="transparent" points="407.5,-60.7 407.5,-79.7 523.5,-79.7 523.5,-60.7 407.5,-60.7"/>
<polygon fill="none" stroke="#000000" points="407.5,-60.7 407.5,-79.7 523.5,-79.7 523.5,-60.7 407.5,-60.7"/>
<text text-anchor="start" x="504.9053" y="-66.8" font-family="Helvetica,sans-Serif" font-size="11.00" fill="#000000">0 &gt;</text>
<polygon fill="none" stroke="#000000" stroke-width="2" points="271,-59.7 271,-323.7 524,-323.7 524,-59.7 271,-59.7"/>
</a>
</g>
</g>
<!-- Compensation.Employees -->
<g id="node2" class="node">
<title>Compensation.Employees</title>
<g id="a_node2"><a xlink:title="Compensation.Employees">
<polygon fill="#ffffff" stroke="transparent" points="8,-38.2 8,-99.2 221,-99.2 221,-38.2 8,-38.2"/>
<polygon fill="#f5f5f5" stroke="transparent" points="8.5,-75.7 8.5,-98.7 221.5,-98.7 221.5,-75.7 8.5,-75.7"/>
<polygon fill="none" stroke="#000000" points="8.5,-75.7 8.5,-98.7 221.5,-98.7 221.5,-75.7 8.5,-75.7"/>
<text text-anchor="start" x="13.5" y="-84.3" font-family="Helvetica,sans-Serif" font-weight="bold" font-size="11.00" fill="#000000">Compensation.Employees</text>
<text text-anchor="start" x="187.0219" y="-83.8" font-family="Helvetica,sans-Serif" font-size="11.00" fill="#000000">[table]</text>
<polygon fill="none" stroke="#000000" points="8.5,-56.7 8.5,-75.7 221.5,-75.7 221.5,-56.7 8.5,-56.7"/>
<text text-anchor="start" x="11.5" y="-62.8" font-family="Helvetica,sans-Serif" font-size="11.00" fill="#000000">...</text>
<polygon fill="#ffffff" stroke="transparent" points="8.5,-37.7 8.5,-56.7 104.5,-56.7 104.5,-37.7 8.5,-37.7"/>
<polygon fill="none" stroke="#000000" points="8.5,-37.7 8.5,-56.7 104.5,-56.7 104.5,-37.7 8.5,-37.7"/>
<text text-anchor="start" x="11.5" y="-43.8" font-family="Helvetica,sans-Serif" font-size="11.00" fill="#000000"> &#160;</text>
<polygon fill="#ffffff" stroke="transparent" points="104.5,-37.7 104.5,-56.7 158.5,-56.7 158.5,-37.7 104.5,-37.7"/>
<polygon fill="none" stroke="#000000" points="104.5,-37.7 104.5,-56.7 158.5,-56.7 158.5,-37.7 104.5,-37.7"/>
<text text-anchor="start" x="149.3862" y="-43.8" font-family="Helvetica,sans-Serif" font-size="11.00" fill="#000000"> &#160;</text>
<polygon fill="#ffffff" stroke="transparent" points="158.5,-37.7 158.5,-56.7 221.5,-56.7 221.5,-37.7 158.5,-37.7"/>
<polygon fill="none" stroke="#000000" points="158.5,-37.7 158.5,-56.7 221.5,-56.7 221.5,-37.7 158.5,-37.7"/>
<text text-anchor="start" x="202.9053" y="-43.8" font-family="Helvetica,sans-Serif" font-size="11.00" fill="#000000">2 &gt;</text>
</a>
</g>
</g>
<!-- VisitEvents&#45;&gt;Compensation.Employees -->
<g id="edge1" class="edge">
<title>VisitEvents:w&#45;&gt;Compensation.Employees:e</title>
<path fill="none" stroke="#000000" d="M258.4287,-152.6968C246.2944,-143.7501 247.5516,-121.9595 229,-109.7 225.565,-107.43 221.9889,-105.268 218.3132,-103.2106"/>
<polygon fill="#000000" stroke="#000000" points="264.8053,-154.5109 271.5149,-160.1626 268.6527,-155.6054 272.5,-156.7 272.5,-156.7 272.5,-156.7 268.6527,-155.6054 273.4851,-153.2374 264.8053,-154.5109 264.8053,-154.5109"/>
<ellipse fill="none" stroke="#000000" cx="261.7275" cy="-153.6352" rx="3.2" ry="3.2"/>
</g>
<!-- Identity.Users -->
<g id="node3" class="node">
<title>Identity.Users</title>
<g id="a_node3"><a xlink:title="Identity.Users">
<polygon fill="#ffffff" stroke="transparent" points="47.5,-120.2 47.5,-181.2 181.5,-181.2 181.5,-120.2 47.5,-120.2"/>
<polygon fill="#f5f5f5" stroke="transparent" points="47.5,-157.7 47.5,-180.7 181.5,-180.7 181.5,-157.7 47.5,-157.7"/>
<polygon fill="none" stroke="#000000" points="47.5,-157.7 47.5,-180.7 181.5,-180.7 181.5,-157.7 47.5,-157.7"/>
<text text-anchor="start" x="52.5" y="-166.3" font-family="Helvetica,sans-Serif" font-weight="bold" font-size="11.00" fill="#000000">Identity.Users</text>
<text text-anchor="start" x="147.0219" y="-165.8" font-family="Helvetica,sans-Serif" font-size="11.00" fill="#000000">[table]</text>
<polygon fill="none" stroke="#000000" points="47.5,-138.7 47.5,-157.7 181.5,-157.7 181.5,-138.7 47.5,-138.7"/>
<text text-anchor="start" x="50.5" y="-144.8" font-family="Helvetica,sans-Serif" font-size="11.00" fill="#000000">...</text>
<polygon fill="#ffffff" stroke="transparent" points="47.5,-119.7 47.5,-138.7 103.5,-138.7 103.5,-119.7 47.5,-119.7"/>
<polygon fill="none" stroke="#000000" points="47.5,-119.7 47.5,-138.7 103.5,-138.7 103.5,-119.7 47.5,-119.7"/>
<text text-anchor="start" x="50.5" y="-125.8" font-family="Helvetica,sans-Serif" font-size="11.00" fill="#000000"> &#160;</text>
<polygon fill="#ffffff" stroke="transparent" points="103.5,-119.7 103.5,-138.7 137.5,-138.7 137.5,-119.7 103.5,-119.7"/>
<polygon fill="none" stroke="#000000" points="103.5,-119.7 103.5,-138.7 137.5,-138.7 137.5,-119.7 103.5,-119.7"/>
<text text-anchor="start" x="128.3862" y="-125.8" font-family="Helvetica,sans-Serif" font-size="11.00" fill="#000000"> &#160;</text>
<polygon fill="#ffffff" stroke="transparent" points="137.5,-119.7 137.5,-138.7 181.5,-138.7 181.5,-119.7 137.5,-119.7"/>
<polygon fill="none" stroke="#000000" points="137.5,-119.7 137.5,-138.7 181.5,-138.7 181.5,-119.7 137.5,-119.7"/>
<text text-anchor="start" x="162.9053" y="-125.8" font-family="Helvetica,sans-Serif" font-size="11.00" fill="#000000">2 &gt;</text>
</a>
</g>
</g>
<!-- VisitEvents&#45;&gt;Identity.Users -->
<g id="edge2" class="edge">
<title>VisitEvents:w&#45;&gt;Identity.Users:e</title>
<path fill="none" stroke="#000000" d="M257.9254,-178.3367C234.9169,-177.2277 211.0621,-173.7064 189.5666,-169.5318"/>
<polygon fill="#000000" stroke="#000000" points="264.5025,-178.5006 272.4103,-182.2989 268.5012,-178.6003 272.5,-178.7 272.5,-178.7 272.5,-178.7 268.5012,-178.6003 272.5897,-175.1011 264.5025,-178.5006 264.5025,-178.5006"/>
<ellipse fill="none" stroke="#000000" cx="261.3035" cy="-178.4208" rx="3.2" ry="3.2"/>
</g>
<!-- VisitEventTypes -->
<g id="node4" class="node">
<title>VisitEventTypes</title>
<g id="a_node4"><a xlink:href="../../tables/VisitEventTypes.html" xlink:title="VisitEventTypes" target="_top">
<polygon fill="#ffffff" stroke="transparent" points="41,-202.2 41,-307.2 188,-307.2 188,-202.2 41,-202.2"/>
<polygon fill="#f5f5f5" stroke="transparent" points="41.5,-283.7 41.5,-306.7 188.5,-306.7 188.5,-283.7 41.5,-283.7"/>
<polygon fill="none" stroke="#000000" points="41.5,-283.7 41.5,-306.7 188.5,-306.7 188.5,-283.7 41.5,-283.7"/>
<text text-anchor="start" x="46.5" y="-292.3" font-family="Helvetica,sans-Serif" font-weight="bold" font-size="11.00" fill="#000000">VisitEventTypes</text>
<text text-anchor="start" x="154.0219" y="-291.8" font-family="Helvetica,sans-Serif" font-size="11.00" fill="#000000">[table]</text>
<polygon fill="none" stroke="#000000" points="41.5,-261.7 41.5,-283.7 188.5,-283.7 188.5,-261.7 41.5,-261.7"/>
<image xlink:href="../../images/primaryKeys.png" width="11px" height="12px" preserveAspectRatio="xMinYMin meet" x="46.5" y="-278.7"/>
<text text-anchor="start" x="70.5" y="-268.8" font-family="Helvetica,sans-Serif" font-size="11.00" fill="#000000">Id</text>
<polygon fill="#ffffff" stroke="transparent" points="41.5,-239.7 41.5,-261.7 188.5,-261.7 188.5,-239.7 41.5,-239.7"/>
<polygon fill="none" stroke="#000000" points="41.5,-239.7 41.5,-261.7 188.5,-261.7 188.5,-239.7 41.5,-239.7"/>
<text text-anchor="start" x="70.5" y="-246.8" font-family="Helvetica,sans-Serif" font-size="11.00" fill="#000000">Code</text>
<polygon fill="none" stroke="#000000" points="41.5,-220.7 41.5,-239.7 188.5,-239.7 188.5,-220.7 41.5,-220.7"/>
<text text-anchor="start" x="44.5" y="-226.8" font-family="Helvetica,sans-Serif" font-size="11.00" fill="#000000">...</text>
<polygon fill="#ffffff" stroke="transparent" points="41.5,-201.7 41.5,-220.7 104.5,-220.7 104.5,-201.7 41.5,-201.7"/>
<polygon fill="none" stroke="#000000" points="41.5,-201.7 41.5,-220.7 104.5,-220.7 104.5,-201.7 41.5,-201.7"/>
<text text-anchor="start" x="44.5" y="-207.8" font-family="Helvetica,sans-Serif" font-size="11.00" fill="#000000"> &#160;</text>
<polygon fill="#ffffff" stroke="transparent" points="104.5,-201.7 104.5,-220.7 141.5,-220.7 141.5,-201.7 104.5,-201.7"/>
<polygon fill="none" stroke="#000000" points="104.5,-201.7 104.5,-220.7 141.5,-220.7 141.5,-201.7 104.5,-201.7"/>
<text text-anchor="start" x="132.3862" y="-207.8" font-family="Helvetica,sans-Serif" font-size="11.00" fill="#000000"> &#160;</text>
<polygon fill="#ffffff" stroke="transparent" points="141.5,-201.7 141.5,-220.7 188.5,-220.7 188.5,-201.7 141.5,-201.7"/>
<polygon fill="none" stroke="#000000" points="141.5,-201.7 141.5,-220.7 188.5,-220.7 188.5,-201.7 141.5,-201.7"/>
<text text-anchor="start" x="169.9053" y="-207.8" font-family="Helvetica,sans-Serif" font-size="11.00" fill="#000000">1 &gt;</text>
</a>
</g>
</g>
<!-- VisitEvents&#45;&gt;VisitEventTypes -->
<g id="edge3" class="edge">
<title>VisitEvents:w&#45;&gt;VisitEventTypes:e</title>
<path fill="none" stroke="#000000" d="M258.095,-246.127C231.0629,-251.8329 222.4725,-272.7 188.5,-272.7"/>
<polygon fill="#000000" stroke="#000000" points="264.539,-245.4887 272.8549,-248.2825 268.5195,-245.0944 272.5,-244.7 272.5,-244.7 272.5,-244.7 268.5195,-245.0944 272.1451,-241.1175 264.539,-245.4887 264.539,-245.4887"/>
<ellipse fill="none" stroke="#000000" cx="261.3546" cy="-245.8042" rx="3.2" ry="3.2"/>
</g>
<!-- Visits -->
<g id="node5" class="node">
<title>Visits</title>
<g id="a_node5"><a xlink:href="../../tables/Visits.html" xlink:title="Visits" target="_top">
<polygon fill="#ffffff" stroke="transparent" points="37,-328.2 37,-477.2 192,-477.2 192,-328.2 37,-328.2"/>
<polygon fill="#f5f5f5" stroke="transparent" points="37.5,-453.7 37.5,-476.7 192.5,-476.7 192.5,-453.7 37.5,-453.7"/>
<polygon fill="none" stroke="#000000" points="37.5,-453.7 37.5,-476.7 192.5,-476.7 192.5,-453.7 37.5,-453.7"/>
<text text-anchor="start" x="42.5" y="-462.3" font-family="Helvetica,sans-Serif" font-weight="bold" font-size="11.00" fill="#000000">Visits</text>
<text text-anchor="start" x="157.5437" y="-461.8" font-family="Helvetica,sans-Serif" font-size="11.00" fill="#000000">[table]</text>
<polygon fill="none" stroke="#000000" points="37.5,-431.7 37.5,-453.7 192.5,-453.7 192.5,-431.7 37.5,-431.7"/>
<image xlink:href="../../images/primaryKeys.png" width="11px" height="12px" preserveAspectRatio="xMinYMin meet" x="42.5" y="-448.7"/>
<text text-anchor="start" x="57.5" y="-438.8" font-family="Helvetica,sans-Serif" font-size="11.00" fill="#000000">Id</text>
<polygon fill="#ffffff" stroke="transparent" points="37.5,-409.7 37.5,-431.7 192.5,-431.7 192.5,-409.7 37.5,-409.7"/>
<polygon fill="none" stroke="#000000" points="37.5,-409.7 37.5,-431.7 192.5,-431.7 192.5,-409.7 37.5,-409.7"/>
<text text-anchor="start" x="57.5" y="-416.8" font-family="Helvetica,sans-Serif" font-size="11.00" fill="#000000">DateServiced</text>
<polygon fill="#ffffff" stroke="transparent" points="37.5,-387.7 37.5,-409.7 192.5,-409.7 192.5,-387.7 37.5,-387.7"/>
<polygon fill="none" stroke="#000000" points="37.5,-387.7 37.5,-409.7 192.5,-409.7 192.5,-387.7 37.5,-387.7"/>
<image xlink:href="../../images/foreignKeys.png" width="11px" height="12px" preserveAspectRatio="xMinYMin meet" x="42.5" y="-404.7"/>
<text text-anchor="start" x="57.5" y="-394.8" font-family="Helvetica,sans-Serif" font-size="11.00" fill="#000000">HospitalizationId</text>
<polygon fill="#ffffff" stroke="transparent" points="37.5,-365.7 37.5,-387.7 192.5,-387.7 192.5,-365.7 37.5,-365.7"/>
<polygon fill="none" stroke="#000000" points="37.5,-365.7 37.5,-387.7 192.5,-387.7 192.5,-365.7 37.5,-365.7"/>
<image xlink:href="../../images/foreignKeys.png" width="11px" height="12px" preserveAspectRatio="xMinYMin meet" x="42.5" y="-382.7"/>
<text text-anchor="start" x="57.5" y="-372.8" font-family="Helvetica,sans-Serif" font-size="11.00" fill="#000000">ServiceTypeId</text>
<polygon fill="none" stroke="#000000" points="37.5,-346.7 37.5,-365.7 192.5,-365.7 192.5,-346.7 37.5,-346.7"/>
<text text-anchor="start" x="40.5" y="-352.8" font-family="Helvetica,sans-Serif" font-size="11.00" fill="#000000">...</text>
<polygon fill="#ffffff" stroke="transparent" points="37.5,-327.7 37.5,-346.7 108.5,-346.7 108.5,-327.7 37.5,-327.7"/>
<polygon fill="none" stroke="#000000" points="37.5,-327.7 37.5,-346.7 108.5,-346.7 108.5,-327.7 37.5,-327.7"/>
<text text-anchor="start" x="40.5" y="-333.8" font-family="Helvetica,sans-Serif" font-size="11.00" fill="#000000">&lt; 2</text>
<polygon fill="#ffffff" stroke="transparent" points="108.5,-327.7 108.5,-346.7 145.5,-346.7 145.5,-327.7 108.5,-327.7"/>
<polygon fill="none" stroke="#000000" points="108.5,-327.7 108.5,-346.7 145.5,-346.7 145.5,-327.7 108.5,-327.7"/>
<text text-anchor="start" x="136.3862" y="-333.8" font-family="Helvetica,sans-Serif" font-size="11.00" fill="#000000"> &#160;</text>
<polygon fill="#ffffff" stroke="transparent" points="145.5,-327.7 145.5,-346.7 192.5,-346.7 192.5,-327.7 145.5,-327.7"/>
<polygon fill="none" stroke="#000000" points="145.5,-327.7 145.5,-346.7 192.5,-346.7 192.5,-327.7 145.5,-327.7"/>
<text text-anchor="start" x="173.9053" y="-333.8" font-family="Helvetica,sans-Serif" font-size="11.00" fill="#000000">2 &gt;</text>
</a>
</g>
</g>
<!-- VisitEvents&#45;&gt;Visits -->
<g id="edge4" class="edge">
<title>VisitEvents:w&#45;&gt;Visits:e</title>
<path fill="none" stroke="#000000" d="M258.0061,-268.7992C197.6774,-288.6564 272.8858,-442.7 192.5,-442.7"/>
<polygon fill="#000000" stroke="#000000" points="264.5826,-267.8467 273.016,-270.2628 268.5413,-267.2734 272.5,-266.7 272.5,-266.7 272.5,-266.7 268.5413,-267.2734 271.984,-263.1372 264.5826,-267.8467 264.5826,-267.8467"/>
<ellipse fill="none" stroke="#000000" cx="261.4156" cy="-268.3054" rx="3.2" ry="3.2"/>
</g>
</g>
</svg>
