<?xml version="1.0" encoding="UTF-8" standalone="no"?>
<!DOCTYPE svg PUBLIC "-//W3C//DTD SVG 1.1//EN"
 "http://www.w3.org/Graphics/SVG/1.1/DTD/svg11.dtd">
<!-- Generated by graphviz version 2.40.1 (20161225.0304)
 -->
<!-- Title: oneDegreeRelationshipsDiagram Pages: 1 -->
<svg width="497pt" height="281pt"
 viewBox="0.00 0.00 497.00 281.20" xmlns="http://www.w3.org/2000/svg" xmlns:xlink="http://www.w3.org/1999/xlink">
<g id="graph0" class="graph" transform="scale(1 1) rotate(0) translate(4 277.2)">
<title>oneDegreeRelationshipsDiagram</title>
<polygon fill="#ffffff" stroke="transparent" points="-4,4 -4,-277.2 493,-277.2 493,4 -4,4"/>
<text text-anchor="middle" x="72.4936" y="-7.3" font-family="Helvetica,sans-Serif" font-size="11.00" fill="#000000">Generated by SchemaSpy</text>
<!-- VisitAttendants -->
<g id="node1" class="node">
<title>VisitAttendants</title>
<g id="a_node1"><a xlink:href="../../tables/VisitAttendants.html" xlink:title="VisitAttendants" target="_top">
<polygon fill="#ffffff" stroke="transparent" points="270,-42.7 270,-220.7 481,-220.7 481,-42.7 270,-42.7"/>
<polygon fill="#f5f5f5" stroke="transparent" points="272.5,-195.7 272.5,-218.7 479.5,-218.7 479.5,-195.7 272.5,-195.7"/>
<polygon fill="none" stroke="#000000" points="272.5,-195.7 272.5,-218.7 479.5,-218.7 479.5,-195.7 272.5,-195.7"/>
<text text-anchor="start" x="277.5" y="-204.3" font-family="Helvetica,sans-Serif" font-weight="bold" font-size="11.00" fill="#000000">VisitAttendants</text>
<text text-anchor="start" x="444.5437" y="-203.8" font-family="Helvetica,sans-Serif" font-size="11.00" fill="#000000">[table]</text>
<polygon fill="none" stroke="#000000" points="272.5,-173.7 272.5,-195.7 398.5,-195.7 398.5,-173.7 272.5,-173.7"/>
<image xlink:href="../../images/primaryKeys.png" width="11px" height="12px" preserveAspectRatio="xMinYMin meet" x="277.5" y="-190.7"/>
<text text-anchor="start" x="292.5" y="-180.8" font-family="Helvetica,sans-Serif" font-size="11.00" fill="#000000">Id</text>
<polygon fill="none" stroke="#000000" points="398.5,-173.7 398.5,-195.7 479.5,-195.7 479.5,-173.7 398.5,-173.7"/>
<text text-anchor="start" x="401.5" y="-181.4" font-family="Helvetica,sans-Serif" font-size="11.00" fill="#000000">int identity[4]</text>
<polygon fill="#ffffff" stroke="transparent" points="272.5,-151.7 272.5,-173.7 398.5,-173.7 398.5,-151.7 272.5,-151.7"/>
<polygon fill="none" stroke="#000000" points="272.5,-151.7 272.5,-173.7 398.5,-173.7 398.5,-151.7 272.5,-151.7"/>
<image xlink:href="../../images/foreignKeys.png" width="11px" height="12px" preserveAspectRatio="xMinYMin meet" x="277.5" y="-168.7"/>
<text text-anchor="start" x="292.5" y="-158.8" font-family="Helvetica,sans-Serif" font-size="11.00" fill="#000000">VisitId</text>
<polygon fill="none" stroke="#000000" points="398.5,-151.7 398.5,-173.7 479.5,-173.7 479.5,-151.7 398.5,-151.7"/>
<text text-anchor="start" x="401.5" y="-159.4" font-family="Helvetica,sans-Serif" font-size="11.00" fill="#000000">int[4]</text>
<polygon fill="#ffffff" stroke="transparent" points="272.5,-129.7 272.5,-151.7 398.5,-151.7 398.5,-129.7 272.5,-129.7"/>
<polygon fill="none" stroke="#000000" points="272.5,-129.7 272.5,-151.7 398.5,-151.7 398.5,-129.7 272.5,-129.7"/>
<image xlink:href="../../images/foreignKeys.png" width="11px" height="12px" preserveAspectRatio="xMinYMin meet" x="277.5" y="-146.7"/>
<text text-anchor="start" x="292.5" y="-136.8" font-family="Helvetica,sans-Serif" font-size="11.00" fill="#000000">EmployeeId</text>
<polygon fill="none" stroke="#000000" points="398.5,-129.7 398.5,-151.7 479.5,-151.7 479.5,-129.7 398.5,-129.7"/>
<text text-anchor="start" x="401.5" y="-137.4" font-family="Helvetica,sans-Serif" font-size="11.00" fill="#000000">int[4]</text>
<polygon fill="none" stroke="#000000" points="272.5,-107.7 272.5,-129.7 398.5,-129.7 398.5,-107.7 272.5,-107.7"/>
<text text-anchor="start" x="292.5" y="-114.8" font-family="Helvetica,sans-Serif" font-size="11.00" fill="#000000">CreatedAtUtc</text>
<polygon fill="none" stroke="#000000" points="398.5,-107.7 398.5,-129.7 479.5,-129.7 479.5,-107.7 398.5,-107.7"/>
<text text-anchor="start" x="401.0968" y="-115.4" font-family="Helvetica,sans-Serif" font-size="11.00" fill="#000000">datetime2[16,7]</text>
<polygon fill="none" stroke="#000000" points="272.5,-85.7 272.5,-107.7 398.5,-107.7 398.5,-85.7 272.5,-85.7"/>
<text text-anchor="start" x="292.5" y="-92.8" font-family="Helvetica,sans-Serif" font-size="11.00" fill="#000000">UpdatedAtUtc</text>
<polygon fill="none" stroke="#000000" points="398.5,-85.7 398.5,-107.7 479.5,-107.7 479.5,-85.7 398.5,-85.7"/>
<text text-anchor="start" x="401.0968" y="-93.4" font-family="Helvetica,sans-Serif" font-size="11.00" fill="#000000">datetime2[16,7]</text>
<polygon fill="none" stroke="#000000" points="272.5,-63.7 272.5,-85.7 398.5,-85.7 398.5,-63.7 272.5,-63.7"/>
<text text-anchor="start" x="292.5" y="-70.8" font-family="Helvetica,sans-Serif" font-size="11.00" fill="#000000">RowVersion</text>
<polygon fill="none" stroke="#000000" points="398.5,-63.7 398.5,-85.7 479.5,-85.7 479.5,-63.7 398.5,-63.7"/>
<text text-anchor="start" x="401.5" y="-71.4" font-family="Helvetica,sans-Serif" font-size="11.00" fill="#000000">timestamp[8]</text>
<polygon fill="#ffffff" stroke="transparent" points="272.5,-44.7 272.5,-63.7 339.5,-63.7 339.5,-44.7 272.5,-44.7"/>
<polygon fill="none" stroke="#000000" points="272.5,-44.7 272.5,-63.7 339.5,-63.7 339.5,-44.7 272.5,-44.7"/>
<text text-anchor="start" x="275.5" y="-50.8" font-family="Helvetica,sans-Serif" font-size="11.00" fill="#000000">&lt; 2</text>
<polygon fill="#ffffff" stroke="transparent" points="339.5,-44.7 339.5,-63.7 398.5,-63.7 398.5,-44.7 339.5,-44.7"/>
<polygon fill="none" stroke="#000000" points="339.5,-44.7 339.5,-63.7 398.5,-63.7 398.5,-44.7 339.5,-44.7"/>
<text text-anchor="start" x="389.3862" y="-50.8" font-family="Helvetica,sans-Serif" font-size="11.00" fill="#000000"> &#160;</text>
<polygon fill="#ffffff" stroke="transparent" points="398.5,-44.7 398.5,-63.7 479.5,-63.7 479.5,-44.7 398.5,-44.7"/>
<polygon fill="none" stroke="#000000" points="398.5,-44.7 398.5,-63.7 479.5,-63.7 479.5,-44.7 398.5,-44.7"/>
<text text-anchor="start" x="460.9053" y="-50.8" font-family="Helvetica,sans-Serif" font-size="11.00" fill="#000000">0 &gt;</text>
<polygon fill="none" stroke="#000000" stroke-width="2" points="271,-43.7 271,-219.7 480,-219.7 480,-43.7 271,-43.7"/>
</a>
</g>
</g>
<!-- Compensation.Employees -->
<g id="node2" class="node">
<title>Compensation.Employees</title>
<g id="a_node2"><a xlink:title="Compensation.Employees">
<polygon fill="#ffffff" stroke="transparent" points="8,-38.2 8,-99.2 221,-99.2 221,-38.2 8,-38.2"/>
<polygon fill="#f5f5f5" stroke="transparent" points="8.5,-75.7 8.5,-98.7 221.5,-98.7 221.5,-75.7 8.5,-75.7"/>
<polygon fill="none" stroke="#000000" points="8.5,-75.7 8.5,-98.7 221.5,-98.7 221.5,-75.7 8.5,-75.7"/>
<text text-anchor="start" x="13.5" y="-84.3" font-family="Helvetica,sans-Serif" font-weight="bold" font-size="11.00" fill="#000000">Compensation.Employees</text>
<text text-anchor="start" x="187.0219" y="-83.8" font-family="Helvetica,sans-Serif" font-size="11.00" fill="#000000">[table]</text>
<polygon fill="none" stroke="#000000" points="8.5,-56.7 8.5,-75.7 221.5,-75.7 221.5,-56.7 8.5,-56.7"/>
<text text-anchor="start" x="11.5" y="-62.8" font-family="Helvetica,sans-Serif" font-size="11.00" fill="#000000">...</text>
<polygon fill="#ffffff" stroke="transparent" points="8.5,-37.7 8.5,-56.7 104.5,-56.7 104.5,-37.7 8.5,-37.7"/>
<polygon fill="none" stroke="#000000" points="8.5,-37.7 8.5,-56.7 104.5,-56.7 104.5,-37.7 8.5,-37.7"/>
<text text-anchor="start" x="11.5" y="-43.8" font-family="Helvetica,sans-Serif" font-size="11.00" fill="#000000"> &#160;</text>
<polygon fill="#ffffff" stroke="transparent" points="104.5,-37.7 104.5,-56.7 158.5,-56.7 158.5,-37.7 104.5,-37.7"/>
<polygon fill="none" stroke="#000000" points="104.5,-37.7 104.5,-56.7 158.5,-56.7 158.5,-37.7 104.5,-37.7"/>
<text text-anchor="start" x="149.3862" y="-43.8" font-family="Helvetica,sans-Serif" font-size="11.00" fill="#000000"> &#160;</text>
<polygon fill="#ffffff" stroke="transparent" points="158.5,-37.7 158.5,-56.7 221.5,-56.7 221.5,-37.7 158.5,-37.7"/>
<polygon fill="none" stroke="#000000" points="158.5,-37.7 158.5,-56.7 221.5,-56.7 221.5,-37.7 158.5,-37.7"/>
<text text-anchor="start" x="202.9053" y="-43.8" font-family="Helvetica,sans-Serif" font-size="11.00" fill="#000000">2 &gt;</text>
</a>
</g>
</g>
<!-- VisitAttendants&#45;&gt;Compensation.Employees -->
<g id="edge1" class="edge">
<title>VisitAttendants:w&#45;&gt;Compensation.Employees:e</title>
<path fill="none" stroke="#000000" d="M258.3164,-137.2081C247.9366,-130.9836 244.6164,-117.86 229,-109.7 224.7894,-107.4999 220.4345,-105.3697 215.9931,-103.3143"/>
<polygon fill="#000000" stroke="#000000" points="264.7319,-138.7875 271.6394,-144.1956 268.616,-139.7438 272.5,-140.7 272.5,-140.7 272.5,-140.7 268.616,-139.7438 273.3606,-137.2044 264.7319,-138.7875 264.7319,-138.7875"/>
<ellipse fill="none" stroke="#000000" cx="261.6247" cy="-138.0225" rx="3.2" ry="3.2"/>
</g>
<!-- Visits -->
<g id="node3" class="node">
<title>Visits</title>
<g id="a_node3"><a xlink:href="../../tables/Visits.html" xlink:title="Visits" target="_top">
<polygon fill="#ffffff" stroke="transparent" points="37,-120.2 37,-269.2 192,-269.2 192,-120.2 37,-120.2"/>
<polygon fill="#f5f5f5" stroke="transparent" points="37.5,-245.7 37.5,-268.7 192.5,-268.7 192.5,-245.7 37.5,-245.7"/>
<polygon fill="none" stroke="#000000" points="37.5,-245.7 37.5,-268.7 192.5,-268.7 192.5,-245.7 37.5,-245.7"/>
<text text-anchor="start" x="42.5" y="-254.3" font-family="Helvetica,sans-Serif" font-weight="bold" font-size="11.00" fill="#000000">Visits</text>
<text text-anchor="start" x="157.5437" y="-253.8" font-family="Helvetica,sans-Serif" font-size="11.00" fill="#000000">[table]</text>
<polygon fill="none" stroke="#000000" points="37.5,-223.7 37.5,-245.7 192.5,-245.7 192.5,-223.7 37.5,-223.7"/>
<image xlink:href="../../images/primaryKeys.png" width="11px" height="12px" preserveAspectRatio="xMinYMin meet" x="42.5" y="-240.7"/>
<text text-anchor="start" x="57.5" y="-230.8" font-family="Helvetica,sans-Serif" font-size="11.00" fill="#000000">Id</text>
<polygon fill="#ffffff" stroke="transparent" points="37.5,-201.7 37.5,-223.7 192.5,-223.7 192.5,-201.7 37.5,-201.7"/>
<polygon fill="none" stroke="#000000" points="37.5,-201.7 37.5,-223.7 192.5,-223.7 192.5,-201.7 37.5,-201.7"/>
<text text-anchor="start" x="57.5" y="-208.8" font-family="Helvetica,sans-Serif" font-size="11.00" fill="#000000">DateServiced</text>
<polygon fill="#ffffff" stroke="transparent" points="37.5,-179.7 37.5,-201.7 192.5,-201.7 192.5,-179.7 37.5,-179.7"/>
<polygon fill="none" stroke="#000000" points="37.5,-179.7 37.5,-201.7 192.5,-201.7 192.5,-179.7 37.5,-179.7"/>
<image xlink:href="../../images/foreignKeys.png" width="11px" height="12px" preserveAspectRatio="xMinYMin meet" x="42.5" y="-196.7"/>
<text text-anchor="start" x="57.5" y="-186.8" font-family="Helvetica,sans-Serif" font-size="11.00" fill="#000000">HospitalizationId</text>
<polygon fill="#ffffff" stroke="transparent" points="37.5,-157.7 37.5,-179.7 192.5,-179.7 192.5,-157.7 37.5,-157.7"/>
<polygon fill="none" stroke="#000000" points="37.5,-157.7 37.5,-179.7 192.5,-179.7 192.5,-157.7 37.5,-157.7"/>
<image xlink:href="../../images/foreignKeys.png" width="11px" height="12px" preserveAspectRatio="xMinYMin meet" x="42.5" y="-174.7"/>
<text text-anchor="start" x="57.5" y="-164.8" font-family="Helvetica,sans-Serif" font-size="11.00" fill="#000000">ServiceTypeId</text>
<polygon fill="none" stroke="#000000" points="37.5,-138.7 37.5,-157.7 192.5,-157.7 192.5,-138.7 37.5,-138.7"/>
<text text-anchor="start" x="40.5" y="-144.8" font-family="Helvetica,sans-Serif" font-size="11.00" fill="#000000">...</text>
<polygon fill="#ffffff" stroke="transparent" points="37.5,-119.7 37.5,-138.7 108.5,-138.7 108.5,-119.7 37.5,-119.7"/>
<polygon fill="none" stroke="#000000" points="37.5,-119.7 37.5,-138.7 108.5,-138.7 108.5,-119.7 37.5,-119.7"/>
<text text-anchor="start" x="40.5" y="-125.8" font-family="Helvetica,sans-Serif" font-size="11.00" fill="#000000">&lt; 2</text>
<polygon fill="#ffffff" stroke="transparent" points="108.5,-119.7 108.5,-138.7 145.5,-138.7 145.5,-119.7 108.5,-119.7"/>
<polygon fill="none" stroke="#000000" points="108.5,-119.7 108.5,-138.7 145.5,-138.7 145.5,-119.7 108.5,-119.7"/>
<text text-anchor="start" x="136.3862" y="-125.8" font-family="Helvetica,sans-Serif" font-size="11.00" fill="#000000"> &#160;</text>
<polygon fill="#ffffff" stroke="transparent" points="145.5,-119.7 145.5,-138.7 192.5,-138.7 192.5,-119.7 145.5,-119.7"/>
<polygon fill="none" stroke="#000000" points="145.5,-119.7 145.5,-138.7 192.5,-138.7 192.5,-119.7 145.5,-119.7"/>
<text text-anchor="start" x="173.9053" y="-125.8" font-family="Helvetica,sans-Serif" font-size="11.00" fill="#000000">2 &gt;</text>
</a>
</g>
</g>
<!-- VisitAttendants&#45;&gt;Visits -->
<g id="edge2" class="edge">
<title>VisitAttendants:w&#45;&gt;Visits:e</title>
<path fill="none" stroke="#000000" d="M258.0949,-165.4346C227.4655,-178.5862 234.7294,-234.7 192.5,-234.7"/>
<polygon fill="#000000" stroke="#000000" points="264.6404,-164.1921 273.1714,-166.2368 268.5702,-163.446 272.5,-162.7 272.5,-162.7 272.5,-162.7 268.5702,-163.446 271.8286,-159.1632 264.6404,-164.1921 264.6404,-164.1921"/>
<ellipse fill="none" stroke="#000000" cx="261.4965" cy="-164.7889" rx="3.2" ry="3.2"/>
</g>
</g>
</svg>
