<?xml version="1.0" encoding="UTF-8" standalone="no"?>
<!DOCTYPE svg PUBLIC "-//W3C//DTD SVG 1.1//EN"
 "http://www.w3.org/Graphics/SVG/1.1/DTD/svg11.dtd">
<!-- Generated by graphviz version 2.40.1 (20161225.0304)
 -->
<!-- Title: twoDegreesRelationshipsDiagram Pages: 1 -->
<svg width="939pt" height="673pt"
 viewBox="0.00 0.00 939.00 673.20" xmlns="http://www.w3.org/2000/svg" xmlns:xlink="http://www.w3.org/1999/xlink">
<g id="graph0" class="graph" transform="scale(1 1) rotate(0) translate(4 669.2)">
<title>twoDegreesRelationshipsDiagram</title>
<polygon fill="#ffffff" stroke="transparent" points="-4,4 -4,-669.2 935,-669.2 935,4 -4,4"/>
<text text-anchor="middle" x="72.4936" y="-7.3" font-family="Helvetica,sans-Serif" font-size="11.00" fill="#000000">Generated by SchemaSpy</text>
<!-- HospitalizationInsurances -->
<g id="node1" class="node">
<title>HospitalizationInsurances</title>
<g id="a_node1"><a xlink:href="../../tables/HospitalizationInsurances.html" xlink:title="HospitalizationInsurances" target="_top">
<polygon fill="#ffffff" stroke="transparent" points="500.5,-600.2 500.5,-661.2 714.5,-661.2 714.5,-600.2 500.5,-600.2"/>
<polygon fill="#f5f5f5" stroke="transparent" points="500.5,-637.7 500.5,-660.7 714.5,-660.7 714.5,-637.7 500.5,-637.7"/>
<polygon fill="none" stroke="#000000" points="500.5,-637.7 500.5,-660.7 714.5,-660.7 714.5,-637.7 500.5,-637.7"/>
<text text-anchor="start" x="505.5" y="-646.3" font-family="Helvetica,sans-Serif" font-weight="bold" font-size="11.00" fill="#000000">HospitalizationInsurances</text>
<text text-anchor="start" x="680.0219" y="-645.8" font-family="Helvetica,sans-Serif" font-size="11.00" fill="#000000">[table]</text>
<polygon fill="none" stroke="#000000" points="500.5,-618.7 500.5,-637.7 714.5,-637.7 714.5,-618.7 500.5,-618.7"/>
<text text-anchor="start" x="503.5" y="-624.8" font-family="Helvetica,sans-Serif" font-size="11.00" fill="#000000">...</text>
<polygon fill="#ffffff" stroke="transparent" points="500.5,-599.7 500.5,-618.7 605.5,-618.7 605.5,-599.7 500.5,-599.7"/>
<polygon fill="none" stroke="#000000" points="500.5,-599.7 500.5,-618.7 605.5,-618.7 605.5,-599.7 500.5,-599.7"/>
<text text-anchor="start" x="503.5" y="-605.8" font-family="Helvetica,sans-Serif" font-size="11.00" fill="#000000">&lt; 2</text>
<polygon fill="#ffffff" stroke="transparent" points="605.5,-599.7 605.5,-618.7 659.5,-618.7 659.5,-599.7 605.5,-599.7"/>
<polygon fill="none" stroke="#000000" points="605.5,-599.7 605.5,-618.7 659.5,-618.7 659.5,-599.7 605.5,-599.7"/>
<text text-anchor="start" x="650.3862" y="-605.8" font-family="Helvetica,sans-Serif" font-size="11.00" fill="#000000"> &#160;</text>
<polygon fill="#ffffff" stroke="transparent" points="659.5,-599.7 659.5,-618.7 714.5,-618.7 714.5,-599.7 659.5,-599.7"/>
<polygon fill="none" stroke="#000000" points="659.5,-599.7 659.5,-618.7 714.5,-618.7 714.5,-599.7 659.5,-599.7"/>
<text text-anchor="start" x="705.3862" y="-605.8" font-family="Helvetica,sans-Serif" font-size="11.00" fill="#000000"> &#160;</text>
</a>
</g>
</g>
<!-- Hospitalizations -->
<g id="node2" class="node">
<title>Hospitalizations</title>
<g id="a_node2"><a xlink:href="../../tables/Hospitalizations.html" xlink:title="Hospitalizations" target="_top">
<polygon fill="#ffffff" stroke="transparent" points="257,-386.2 257,-557.2 436,-557.2 436,-386.2 257,-386.2"/>
<polygon fill="#f5f5f5" stroke="transparent" points="257.5,-533.7 257.5,-556.7 436.5,-556.7 436.5,-533.7 257.5,-533.7"/>
<polygon fill="none" stroke="#000000" points="257.5,-533.7 257.5,-556.7 436.5,-556.7 436.5,-533.7 257.5,-533.7"/>
<text text-anchor="start" x="262.5" y="-542.3" font-family="Helvetica,sans-Serif" font-weight="bold" font-size="11.00" fill="#000000">Hospitalizations</text>
<text text-anchor="start" x="401.5437" y="-541.8" font-family="Helvetica,sans-Serif" font-size="11.00" fill="#000000">[table]</text>
<polygon fill="none" stroke="#000000" points="257.5,-511.7 257.5,-533.7 436.5,-533.7 436.5,-511.7 257.5,-511.7"/>
<image xlink:href="../../images/primaryKeys.png" width="11px" height="12px" preserveAspectRatio="xMinYMin meet" x="262.5" y="-528.7"/>
<text text-anchor="start" x="277.5" y="-518.8" font-family="Helvetica,sans-Serif" font-size="11.00" fill="#000000">Id</text>
<polygon fill="#ffffff" stroke="transparent" points="257.5,-489.7 257.5,-511.7 436.5,-511.7 436.5,-489.7 257.5,-489.7"/>
<polygon fill="none" stroke="#000000" points="257.5,-489.7 257.5,-511.7 436.5,-511.7 436.5,-489.7 257.5,-489.7"/>
<image xlink:href="../../images/foreignKeys.png" width="11px" height="12px" preserveAspectRatio="xMinYMin meet" x="262.5" y="-506.7"/>
<text text-anchor="start" x="277.5" y="-496.8" font-family="Helvetica,sans-Serif" font-size="11.00" fill="#000000">PatientId</text>
<polygon fill="#ffffff" stroke="transparent" points="257.5,-467.7 257.5,-489.7 436.5,-489.7 436.5,-467.7 257.5,-467.7"/>
<polygon fill="none" stroke="#000000" points="257.5,-467.7 257.5,-489.7 436.5,-489.7 436.5,-467.7 257.5,-467.7"/>
<text text-anchor="start" x="277.5" y="-474.8" font-family="Helvetica,sans-Serif" font-size="11.00" fill="#000000">CaseId</text>
<polygon fill="#ffffff" stroke="transparent" points="257.5,-445.7 257.5,-467.7 436.5,-467.7 436.5,-445.7 257.5,-445.7"/>
<polygon fill="none" stroke="#000000" points="257.5,-445.7 257.5,-467.7 436.5,-467.7 436.5,-445.7 257.5,-445.7"/>
<image xlink:href="../../images/foreignKeys.png" width="11px" height="12px" preserveAspectRatio="xMinYMin meet" x="262.5" y="-462.7"/>
<text text-anchor="start" x="277.5" y="-452.8" font-family="Helvetica,sans-Serif" font-size="11.00" fill="#000000">FacilityId</text>
<polygon fill="none" stroke="#000000" points="257.5,-423.7 257.5,-445.7 436.5,-445.7 436.5,-423.7 257.5,-423.7"/>
<image xlink:href="../../images/foreignKeys.png" width="11px" height="12px" preserveAspectRatio="xMinYMin meet" x="262.5" y="-440.7"/>
<text text-anchor="start" x="277.5" y="-430.8" font-family="Helvetica,sans-Serif" font-size="11.00" fill="#000000">HospitalizationStatusId</text>
<polygon fill="none" stroke="#000000" points="257.5,-404.7 257.5,-423.7 436.5,-423.7 436.5,-404.7 257.5,-404.7"/>
<text text-anchor="start" x="260.5" y="-410.8" font-family="Helvetica,sans-Serif" font-size="11.00" fill="#000000">...</text>
<polygon fill="#ffffff" stroke="transparent" points="257.5,-385.7 257.5,-404.7 340.5,-404.7 340.5,-385.7 257.5,-385.7"/>
<polygon fill="none" stroke="#000000" points="257.5,-385.7 257.5,-404.7 340.5,-404.7 340.5,-385.7 257.5,-385.7"/>
<text text-anchor="start" x="260.5" y="-391.8" font-family="Helvetica,sans-Serif" font-size="11.00" fill="#000000">&lt; 3</text>
<polygon fill="#ffffff" stroke="transparent" points="340.5,-385.7 340.5,-404.7 383.5,-404.7 383.5,-385.7 340.5,-385.7"/>
<polygon fill="none" stroke="#000000" points="340.5,-385.7 340.5,-404.7 383.5,-404.7 383.5,-385.7 340.5,-385.7"/>
<text text-anchor="start" x="374.3862" y="-391.8" font-family="Helvetica,sans-Serif" font-size="11.00" fill="#000000"> &#160;</text>
<polygon fill="#ffffff" stroke="transparent" points="383.5,-385.7 383.5,-404.7 436.5,-404.7 436.5,-385.7 383.5,-385.7"/>
<polygon fill="none" stroke="#000000" points="383.5,-385.7 383.5,-404.7 436.5,-404.7 436.5,-385.7 383.5,-385.7"/>
<text text-anchor="start" x="417.9053" y="-391.8" font-family="Helvetica,sans-Serif" font-size="11.00" fill="#000000">3 &gt;</text>
</a>
</g>
</g>
<!-- HospitalizationInsurances&#45;&gt;Hospitalizations -->
<g id="edge1" class="edge">
<title>HospitalizationInsurances:w&#45;&gt;Hospitalizations:e</title>
<path fill="none" stroke="#000000" d="M486.3088,-624.4424C454.2923,-606.7195 485.3881,-522.7 436.5,-522.7"/>
<polygon fill="#000000" stroke="#000000" points="492.7028,-625.9101 499.6946,-631.2087 496.6014,-626.8051 500.5,-627.7 500.5,-627.7 500.5,-627.7 496.6014,-626.8051 501.3054,-624.1913 492.7028,-625.9101 492.7028,-625.9101"/>
<ellipse fill="none" stroke="#000000" cx="489.5839" cy="-625.1942" rx="3.2" ry="3.2"/>
</g>
<!-- Facilities -->
<g id="node3" class="node">
<title>Facilities</title>
<g id="a_node3"><a xlink:href="../../tables/Facilities.html" xlink:title="Facilities" target="_top">
<polygon fill="#ffffff" stroke="transparent" points="58.5,-410.2 58.5,-471.2 157.5,-471.2 157.5,-410.2 58.5,-410.2"/>
<polygon fill="#f5f5f5" stroke="transparent" points="59,-447.7 59,-470.7 158,-470.7 158,-447.7 59,-447.7"/>
<polygon fill="none" stroke="#000000" points="59,-447.7 59,-470.7 158,-470.7 158,-447.7 59,-447.7"/>
<text text-anchor="start" x="64" y="-456.3" font-family="Helvetica,sans-Serif" font-weight="bold" font-size="11.00" fill="#000000">Facilities</text>
<text text-anchor="start" x="123.5219" y="-455.8" font-family="Helvetica,sans-Serif" font-size="11.00" fill="#000000">[table]</text>
<polygon fill="none" stroke="#000000" points="59,-428.7 59,-447.7 158,-447.7 158,-428.7 59,-428.7"/>
<text text-anchor="start" x="62" y="-434.8" font-family="Helvetica,sans-Serif" font-size="11.00" fill="#000000">...</text>
<polygon fill="#ffffff" stroke="transparent" points="59,-409.7 59,-428.7 98,-428.7 98,-409.7 59,-409.7"/>
<polygon fill="none" stroke="#000000" points="59,-409.7 59,-428.7 98,-428.7 98,-409.7 59,-409.7"/>
<text text-anchor="start" x="62" y="-415.8" font-family="Helvetica,sans-Serif" font-size="11.00" fill="#000000"> &#160;</text>
<polygon fill="#ffffff" stroke="transparent" points="98,-409.7 98,-428.7 123,-428.7 123,-409.7 98,-409.7"/>
<polygon fill="none" stroke="#000000" points="98,-409.7 98,-428.7 123,-428.7 123,-409.7 98,-409.7"/>
<text text-anchor="start" x="113.8862" y="-415.8" font-family="Helvetica,sans-Serif" font-size="11.00" fill="#000000"> &#160;</text>
<polygon fill="#ffffff" stroke="transparent" points="123,-409.7 123,-428.7 158,-428.7 158,-409.7 123,-409.7"/>
<polygon fill="none" stroke="#000000" points="123,-409.7 123,-428.7 158,-428.7 158,-409.7 123,-409.7"/>
<text text-anchor="start" x="139.4053" y="-415.8" font-family="Helvetica,sans-Serif" font-size="11.00" fill="#000000">2 &gt;</text>
</a>
</g>
</g>
<!-- Hospitalizations&#45;&gt;Facilities -->
<g id="edge2" class="edge">
<title>Hospitalizations:w&#45;&gt;Facilities:e</title>
<path fill="none" stroke="#000000" d="M243.0229,-455.9784C209.7738,-452.5078 197.7453,-437.7 158,-437.7"/>
<polygon fill="#000000" stroke="#000000" points="249.5099,-456.3017 257.3208,-460.2955 253.505,-456.5008 257.5,-456.7 257.5,-456.7 257.5,-456.7 253.505,-456.5008 257.6792,-453.1045 249.5099,-456.3017 249.5099,-456.3017"/>
<ellipse fill="none" stroke="#000000" cx="246.3139" cy="-456.1423" rx="3.2" ry="3.2"/>
</g>
<!-- HospitalizationStatuses -->
<g id="node4" class="node">
<title>HospitalizationStatuses</title>
<g id="a_node4"><a xlink:href="../../tables/HospitalizationStatuses.html" xlink:title="HospitalizationStatuses" target="_top">
<polygon fill="#ffffff" stroke="transparent" points="8,-289.2 8,-350.2 208,-350.2 208,-289.2 8,-289.2"/>
<polygon fill="#f5f5f5" stroke="transparent" points="8,-326.7 8,-349.7 208,-349.7 208,-326.7 8,-326.7"/>
<polygon fill="none" stroke="#000000" points="8,-326.7 8,-349.7 208,-349.7 208,-326.7 8,-326.7"/>
<text text-anchor="start" x="13" y="-335.3" font-family="Helvetica,sans-Serif" font-weight="bold" font-size="11.00" fill="#000000">HospitalizationStatuses</text>
<text text-anchor="start" x="173.5219" y="-334.8" font-family="Helvetica,sans-Serif" font-size="11.00" fill="#000000">[table]</text>
<polygon fill="none" stroke="#000000" points="8,-307.7 8,-326.7 208,-326.7 208,-307.7 8,-307.7"/>
<text text-anchor="start" x="11" y="-313.8" font-family="Helvetica,sans-Serif" font-size="11.00" fill="#000000">...</text>
<polygon fill="#ffffff" stroke="transparent" points="8,-288.7 8,-307.7 97,-307.7 97,-288.7 8,-288.7"/>
<polygon fill="none" stroke="#000000" points="8,-288.7 8,-307.7 97,-307.7 97,-288.7 8,-288.7"/>
<text text-anchor="start" x="11" y="-294.8" font-family="Helvetica,sans-Serif" font-size="11.00" fill="#000000"> &#160;</text>
<polygon fill="#ffffff" stroke="transparent" points="97,-288.7 97,-307.7 148,-307.7 148,-288.7 97,-288.7"/>
<polygon fill="none" stroke="#000000" points="97,-288.7 97,-307.7 148,-307.7 148,-288.7 97,-288.7"/>
<text text-anchor="start" x="138.8862" y="-294.8" font-family="Helvetica,sans-Serif" font-size="11.00" fill="#000000"> &#160;</text>
<polygon fill="#ffffff" stroke="transparent" points="148,-288.7 148,-307.7 208,-307.7 208,-288.7 148,-288.7"/>
<polygon fill="none" stroke="#000000" points="148,-288.7 148,-307.7 208,-307.7 208,-288.7 148,-288.7"/>
<text text-anchor="start" x="189.4053" y="-294.8" font-family="Helvetica,sans-Serif" font-size="11.00" fill="#000000">2 &gt;</text>
</a>
</g>
</g>
<!-- Hospitalizations&#45;&gt;HospitalizationStatuses -->
<g id="edge3" class="edge">
<title>Hospitalizations:w&#45;&gt;HospitalizationStatuses:e</title>
<path fill="none" stroke="#000000" d="M243.2629,-431.0391C212.8322,-411.122 258.8737,-316.7 208,-316.7"/>
<polygon fill="#000000" stroke="#000000" points="249.752,-432.7077 256.6034,-438.1866 253.626,-433.7038 257.5,-434.7 257.5,-434.7 257.5,-434.7 253.626,-433.7038 258.3966,-431.2134 249.752,-432.7077 249.752,-432.7077"/>
<ellipse fill="none" stroke="#000000" cx="246.6529" cy="-431.9107" rx="3.2" ry="3.2"/>
</g>
<!-- Patients -->
<g id="node5" class="node">
<title>Patients</title>
<g id="a_node5"><a xlink:href="../../tables/Patients.html" xlink:title="Patients" target="_top">
<polygon fill="#ffffff" stroke="transparent" points="60.5,-492.2 60.5,-553.2 155.5,-553.2 155.5,-492.2 60.5,-492.2"/>
<polygon fill="#f5f5f5" stroke="transparent" points="61,-529.7 61,-552.7 156,-552.7 156,-529.7 61,-529.7"/>
<polygon fill="none" stroke="#000000" points="61,-529.7 61,-552.7 156,-552.7 156,-529.7 61,-529.7"/>
<text text-anchor="start" x="66" y="-538.3" font-family="Helvetica,sans-Serif" font-weight="bold" font-size="11.00" fill="#000000">Patients</text>
<text text-anchor="start" x="121.5219" y="-537.8" font-family="Helvetica,sans-Serif" font-size="11.00" fill="#000000">[table]</text>
<polygon fill="none" stroke="#000000" points="61,-510.7 61,-529.7 156,-529.7 156,-510.7 61,-510.7"/>
<text text-anchor="start" x="64" y="-516.8" font-family="Helvetica,sans-Serif" font-size="11.00" fill="#000000">...</text>
<polygon fill="#ffffff" stroke="transparent" points="61,-491.7 61,-510.7 98,-510.7 98,-491.7 61,-491.7"/>
<polygon fill="none" stroke="#000000" points="61,-491.7 61,-510.7 98,-510.7 98,-491.7 61,-491.7"/>
<text text-anchor="start" x="64" y="-497.8" font-family="Helvetica,sans-Serif" font-size="11.00" fill="#000000"> &#160;</text>
<polygon fill="#ffffff" stroke="transparent" points="98,-491.7 98,-510.7 122,-510.7 122,-491.7 98,-491.7"/>
<polygon fill="none" stroke="#000000" points="98,-491.7 98,-510.7 122,-510.7 122,-491.7 98,-491.7"/>
<text text-anchor="start" x="112.8862" y="-497.8" font-family="Helvetica,sans-Serif" font-size="11.00" fill="#000000"> &#160;</text>
<polygon fill="#ffffff" stroke="transparent" points="122,-491.7 122,-510.7 156,-510.7 156,-491.7 122,-491.7"/>
<polygon fill="none" stroke="#000000" points="122,-491.7 122,-510.7 156,-510.7 156,-491.7 122,-491.7"/>
<text text-anchor="start" x="137.4053" y="-497.8" font-family="Helvetica,sans-Serif" font-size="11.00" fill="#000000">2 &gt;</text>
</a>
</g>
</g>
<!-- Hospitalizations&#45;&gt;Patients -->
<g id="edge4" class="edge">
<title>Hospitalizations:w&#45;&gt;Patients:e</title>
<path fill="none" stroke="#000000" d="M242.7394,-501.4216C208.8325,-504.8922 196.5164,-519.7 156,-519.7"/>
<polygon fill="#000000" stroke="#000000" points="249.5095,-501.0907 257.6758,-504.2957 253.5048,-500.8953 257.5,-500.7 257.5,-500.7 257.5,-500.7 253.5048,-500.8953 257.3242,-497.1043 249.5095,-501.0907 249.5095,-501.0907"/>
<ellipse fill="none" stroke="#000000" cx="246.3134" cy="-501.247" rx="3.2" ry="3.2"/>
</g>
<!-- HospitalizationStatusHistories -->
<g id="node6" class="node">
<title>HospitalizationStatusHistories</title>
<g id="a_node6"><a xlink:href="../../tables/HospitalizationStatusHistories.html" xlink:title="HospitalizationStatusHistories" target="_top">
<polygon fill="#ffffff" stroke="transparent" points="485,-230.2 485,-291.2 730,-291.2 730,-230.2 485,-230.2"/>
<polygon fill="#f5f5f5" stroke="transparent" points="485.5,-267.7 485.5,-290.7 730.5,-290.7 730.5,-267.7 485.5,-267.7"/>
<polygon fill="none" stroke="#000000" points="485.5,-267.7 485.5,-290.7 730.5,-290.7 730.5,-267.7 485.5,-267.7"/>
<text text-anchor="start" x="490.5" y="-276.3" font-family="Helvetica,sans-Serif" font-weight="bold" font-size="11.00" fill="#000000">HospitalizationStatusHistories</text>
<text text-anchor="start" x="696.0219" y="-275.8" font-family="Helvetica,sans-Serif" font-size="11.00" fill="#000000">[table]</text>
<polygon fill="none" stroke="#000000" points="485.5,-248.7 485.5,-267.7 730.5,-267.7 730.5,-248.7 485.5,-248.7"/>
<text text-anchor="start" x="488.5" y="-254.8" font-family="Helvetica,sans-Serif" font-size="11.00" fill="#000000">...</text>
<polygon fill="#ffffff" stroke="transparent" points="485.5,-229.7 485.5,-248.7 606.5,-248.7 606.5,-229.7 485.5,-229.7"/>
<polygon fill="none" stroke="#000000" points="485.5,-229.7 485.5,-248.7 606.5,-248.7 606.5,-229.7 485.5,-229.7"/>
<text text-anchor="start" x="488.5" y="-235.8" font-family="Helvetica,sans-Serif" font-size="11.00" fill="#000000">&lt; 3</text>
<polygon fill="#ffffff" stroke="transparent" points="606.5,-229.7 606.5,-248.7 668.5,-248.7 668.5,-229.7 606.5,-229.7"/>
<polygon fill="none" stroke="#000000" points="606.5,-229.7 606.5,-248.7 668.5,-248.7 668.5,-229.7 606.5,-229.7"/>
<text text-anchor="start" x="659.3862" y="-235.8" font-family="Helvetica,sans-Serif" font-size="11.00" fill="#000000"> &#160;</text>
<polygon fill="#ffffff" stroke="transparent" points="668.5,-229.7 668.5,-248.7 730.5,-248.7 730.5,-229.7 668.5,-229.7"/>
<polygon fill="none" stroke="#000000" points="668.5,-229.7 668.5,-248.7 730.5,-248.7 730.5,-229.7 668.5,-229.7"/>
<text text-anchor="start" x="721.3862" y="-235.8" font-family="Helvetica,sans-Serif" font-size="11.00" fill="#000000"> &#160;</text>
</a>
</g>
</g>
<!-- HospitalizationStatusHistories&#45;&gt;Hospitalizations -->
<g id="edge6" class="edge">
<title>HospitalizationStatusHistories:w&#45;&gt;Hospitalizations:e</title>
<path fill="none" stroke="#000000" d="M472.3331,-263.7328C437.2754,-303.1781 491.0067,-522.7 436.5,-522.7"/>
<polygon fill="#000000" stroke="#000000" points="478.2271,-261.0323 486.9996,-260.9728 481.8635,-259.3662 485.5,-257.7 485.5,-257.7 485.5,-257.7 481.8635,-259.3662 484.0004,-254.4272 478.2271,-261.0323 478.2271,-261.0323"/>
<ellipse fill="none" stroke="#000000" cx="475.3179" cy="-262.3653" rx="3.2" ry="3.2"/>
</g>
<!-- HospitalizationStatusHistories&#45;&gt;HospitalizationStatuses -->
<g id="edge7" class="edge">
<title>HospitalizationStatusHistories:w&#45;&gt;HospitalizationStatuses:e</title>
<path fill="none" stroke="#000000" d="M470.8451,-257.4963C376.607,-254.8733 339.471,-228.4983 249,-271.7 224.5844,-283.3589 235.0564,-316.7 208,-316.7"/>
<polygon fill="#000000" stroke="#000000" points="477.5008,-257.5888 485.45,-261.2997 481.5004,-257.6444 485.5,-257.7 485.5,-257.7 485.5,-257.7 481.5004,-257.6444 485.55,-254.1003 477.5008,-257.5888 477.5008,-257.5888"/>
<ellipse fill="none" stroke="#000000" cx="474.3011" cy="-257.5443" rx="3.2" ry="3.2"/>
</g>
<!-- Identity.Users -->
<g id="node7" class="node">
<title>Identity.Users</title>
<g id="a_node7"><a xlink:title="Identity.Users">
<polygon fill="#ffffff" stroke="transparent" points="279.5,-134.2 279.5,-195.2 413.5,-195.2 413.5,-134.2 279.5,-134.2"/>
<polygon fill="#f5f5f5" stroke="transparent" points="279.5,-171.7 279.5,-194.7 413.5,-194.7 413.5,-171.7 279.5,-171.7"/>
<polygon fill="none" stroke="#000000" points="279.5,-171.7 279.5,-194.7 413.5,-194.7 413.5,-171.7 279.5,-171.7"/>
<text text-anchor="start" x="284.5" y="-180.3" font-family="Helvetica,sans-Serif" font-weight="bold" font-size="11.00" fill="#000000">Identity.Users</text>
<text text-anchor="start" x="379.0219" y="-179.8" font-family="Helvetica,sans-Serif" font-size="11.00" fill="#000000">[table]</text>
<polygon fill="none" stroke="#000000" points="279.5,-152.7 279.5,-171.7 413.5,-171.7 413.5,-152.7 279.5,-152.7"/>
<text text-anchor="start" x="282.5" y="-158.8" font-family="Helvetica,sans-Serif" font-size="11.00" fill="#000000">...</text>
<polygon fill="#ffffff" stroke="transparent" points="279.5,-133.7 279.5,-152.7 335.5,-152.7 335.5,-133.7 279.5,-133.7"/>
<polygon fill="none" stroke="#000000" points="279.5,-133.7 279.5,-152.7 335.5,-152.7 335.5,-133.7 279.5,-133.7"/>
<text text-anchor="start" x="282.5" y="-139.8" font-family="Helvetica,sans-Serif" font-size="11.00" fill="#000000"> &#160;</text>
<polygon fill="#ffffff" stroke="transparent" points="335.5,-133.7 335.5,-152.7 369.5,-152.7 369.5,-133.7 335.5,-133.7"/>
<polygon fill="none" stroke="#000000" points="335.5,-133.7 335.5,-152.7 369.5,-152.7 369.5,-133.7 335.5,-133.7"/>
<text text-anchor="start" x="360.3862" y="-139.8" font-family="Helvetica,sans-Serif" font-size="11.00" fill="#000000"> &#160;</text>
<polygon fill="#ffffff" stroke="transparent" points="369.5,-133.7 369.5,-152.7 413.5,-152.7 413.5,-133.7 369.5,-133.7"/>
<polygon fill="none" stroke="#000000" points="369.5,-133.7 369.5,-152.7 413.5,-152.7 413.5,-133.7 369.5,-133.7"/>
<text text-anchor="start" x="394.9053" y="-139.8" font-family="Helvetica,sans-Serif" font-size="11.00" fill="#000000">2 &gt;</text>
</a>
</g>
</g>
<!-- HospitalizationStatusHistories&#45;&gt;Identity.Users -->
<g id="edge5" class="edge">
<title>HospitalizationStatusHistories:w&#45;&gt;Identity.Users:e</title>
<path fill="none" stroke="#000000" d="M471.3552,-254.7216C438.5003,-238.5179 461.2083,-161.7 413.5,-161.7"/>
<polygon fill="#000000" stroke="#000000" points="477.6717,-256.0516 484.7582,-261.2228 481.5858,-256.8758 485.5,-257.7 485.5,-257.7 485.5,-257.7 481.5858,-256.8758 486.2418,-254.1772 477.6717,-256.0516 477.6717,-256.0516"/>
<ellipse fill="none" stroke="#000000" cx="474.5403" cy="-255.3923" rx="3.2" ry="3.2"/>
</g>
<!-- VisitAttendants -->
<g id="node8" class="node">
<title>VisitAttendants</title>
<g id="a_node8"><a xlink:href="../../tables/VisitAttendants.html" xlink:title="VisitAttendants" target="_top">
<polygon fill="#ffffff" stroke="transparent" points="779,-373.2 779,-500.2 923,-500.2 923,-373.2 779,-373.2"/>
<polygon fill="#f5f5f5" stroke="transparent" points="779,-476.7 779,-499.7 923,-499.7 923,-476.7 779,-476.7"/>
<polygon fill="none" stroke="#000000" points="779,-476.7 779,-499.7 923,-499.7 923,-476.7 779,-476.7"/>
<text text-anchor="start" x="784" y="-485.3" font-family="Helvetica,sans-Serif" font-weight="bold" font-size="11.00" fill="#000000">VisitAttendants</text>
<text text-anchor="start" x="888.5219" y="-484.8" font-family="Helvetica,sans-Serif" font-size="11.00" fill="#000000">[table]</text>
<polygon fill="none" stroke="#000000" points="779,-454.7 779,-476.7 923,-476.7 923,-454.7 779,-454.7"/>
<image xlink:href="../../images/primaryKeys.png" width="11px" height="12px" preserveAspectRatio="xMinYMin meet" x="784" y="-471.7"/>
<text text-anchor="start" x="808" y="-461.8" font-family="Helvetica,sans-Serif" font-size="11.00" fill="#000000">Id</text>
<polygon fill="#ffffff" stroke="transparent" points="779,-432.7 779,-454.7 923,-454.7 923,-432.7 779,-432.7"/>
<polygon fill="none" stroke="#000000" points="779,-432.7 779,-454.7 923,-454.7 923,-432.7 779,-432.7"/>
<image xlink:href="../../images/foreignKeys.png" width="11px" height="12px" preserveAspectRatio="xMinYMin meet" x="784" y="-449.7"/>
<text text-anchor="start" x="808" y="-439.8" font-family="Helvetica,sans-Serif" font-size="11.00" fill="#000000">VisitId</text>
<polygon fill="#ffffff" stroke="transparent" points="779,-410.7 779,-432.7 923,-432.7 923,-410.7 779,-410.7"/>
<polygon fill="none" stroke="#000000" points="779,-410.7 779,-432.7 923,-432.7 923,-410.7 779,-410.7"/>
<image xlink:href="../../images/foreignKeys.png" width="11px" height="12px" preserveAspectRatio="xMinYMin meet" x="784" y="-427.7"/>
<text text-anchor="start" x="808" y="-417.8" font-family="Helvetica,sans-Serif" font-size="11.00" fill="#000000">EmployeeId</text>
<polygon fill="none" stroke="#000000" points="779,-391.7 779,-410.7 923,-410.7 923,-391.7 779,-391.7"/>
<text text-anchor="start" x="782" y="-397.8" font-family="Helvetica,sans-Serif" font-size="11.00" fill="#000000">...</text>
<polygon fill="#ffffff" stroke="transparent" points="779,-372.7 779,-391.7 849,-391.7 849,-372.7 779,-372.7"/>
<polygon fill="none" stroke="#000000" points="779,-372.7 779,-391.7 849,-391.7 849,-372.7 779,-372.7"/>
<text text-anchor="start" x="782" y="-378.8" font-family="Helvetica,sans-Serif" font-size="11.00" fill="#000000">&lt; 2</text>
<polygon fill="#ffffff" stroke="transparent" points="849,-372.7 849,-391.7 886,-391.7 886,-372.7 849,-372.7"/>
<polygon fill="none" stroke="#000000" points="849,-372.7 849,-391.7 886,-391.7 886,-372.7 849,-372.7"/>
<text text-anchor="start" x="876.8862" y="-378.8" font-family="Helvetica,sans-Serif" font-size="11.00" fill="#000000"> &#160;</text>
<polygon fill="#ffffff" stroke="transparent" points="886,-372.7 886,-391.7 923,-391.7 923,-372.7 886,-372.7"/>
<polygon fill="none" stroke="#000000" points="886,-372.7 886,-391.7 923,-391.7 923,-372.7 886,-372.7"/>
<text text-anchor="start" x="913.8862" y="-378.8" font-family="Helvetica,sans-Serif" font-size="11.00" fill="#000000"> &#160;</text>
</a>
</g>
</g>
<!-- Compensation.Employees -->
<g id="node9" class="node">
<title>Compensation.Employees</title>
<g id="a_node9"><a xlink:title="Compensation.Employees">
<polygon fill="#ffffff" stroke="transparent" points="501,-38.2 501,-99.2 714,-99.2 714,-38.2 501,-38.2"/>
<polygon fill="#f5f5f5" stroke="transparent" points="501.5,-75.7 501.5,-98.7 714.5,-98.7 714.5,-75.7 501.5,-75.7"/>
<polygon fill="none" stroke="#000000" points="501.5,-75.7 501.5,-98.7 714.5,-98.7 714.5,-75.7 501.5,-75.7"/>
<text text-anchor="start" x="506.5" y="-84.3" font-family="Helvetica,sans-Serif" font-weight="bold" font-size="11.00" fill="#000000">Compensation.Employees</text>
<text text-anchor="start" x="680.0219" y="-83.8" font-family="Helvetica,sans-Serif" font-size="11.00" fill="#000000">[table]</text>
<polygon fill="none" stroke="#000000" points="501.5,-56.7 501.5,-75.7 714.5,-75.7 714.5,-56.7 501.5,-56.7"/>
<text text-anchor="start" x="504.5" y="-62.8" font-family="Helvetica,sans-Serif" font-size="11.00" fill="#000000">...</text>
<polygon fill="#ffffff" stroke="transparent" points="501.5,-37.7 501.5,-56.7 597.5,-56.7 597.5,-37.7 501.5,-37.7"/>
<polygon fill="none" stroke="#000000" points="501.5,-37.7 501.5,-56.7 597.5,-56.7 597.5,-37.7 501.5,-37.7"/>
<text text-anchor="start" x="504.5" y="-43.8" font-family="Helvetica,sans-Serif" font-size="11.00" fill="#000000"> &#160;</text>
<polygon fill="#ffffff" stroke="transparent" points="597.5,-37.7 597.5,-56.7 651.5,-56.7 651.5,-37.7 597.5,-37.7"/>
<polygon fill="none" stroke="#000000" points="597.5,-37.7 597.5,-56.7 651.5,-56.7 651.5,-37.7 597.5,-37.7"/>
<text text-anchor="start" x="642.3862" y="-43.8" font-family="Helvetica,sans-Serif" font-size="11.00" fill="#000000"> &#160;</text>
<polygon fill="#ffffff" stroke="transparent" points="651.5,-37.7 651.5,-56.7 714.5,-56.7 714.5,-37.7 651.5,-37.7"/>
<polygon fill="none" stroke="#000000" points="651.5,-37.7 651.5,-56.7 714.5,-56.7 714.5,-37.7 651.5,-37.7"/>
<text text-anchor="start" x="695.9053" y="-43.8" font-family="Helvetica,sans-Serif" font-size="11.00" fill="#000000">2 &gt;</text>
</a>
</g>
</g>
<!-- VisitAttendants&#45;&gt;Compensation.Employees -->
<g id="edge8" class="edge">
<title>VisitAttendants:w&#45;&gt;Compensation.Employees:e</title>
<path fill="none" stroke="#000000" d="M765.2171,-417.1988C710.6113,-375.9886 789.5601,-65.7 714.5,-65.7"/>
<polygon fill="#000000" stroke="#000000" points="771.3953,-419.2164 777.8824,-425.1221 775.1976,-420.4582 779,-421.7 779,-421.7 779,-421.7 775.1976,-420.4582 780.1176,-418.2779 771.3953,-419.2164 771.3953,-419.2164"/>
<ellipse fill="none" stroke="#000000" cx="768.3534" cy="-418.223" rx="3.2" ry="3.2"/>
</g>
<!-- Visits -->
<g id="node10" class="node">
<title>Visits</title>
<g id="a_node10"><a xlink:href="../../tables/Visits.html" xlink:title="Visits" target="_top">
<polygon fill="#ffffff" stroke="transparent" points="487.5,-312.7 487.5,-578.7 727.5,-578.7 727.5,-312.7 487.5,-312.7"/>
<polygon fill="#f5f5f5" stroke="transparent" points="489.5,-553.7 489.5,-576.7 725.5,-576.7 725.5,-553.7 489.5,-553.7"/>
<polygon fill="none" stroke="#000000" points="489.5,-553.7 489.5,-576.7 725.5,-576.7 725.5,-553.7 489.5,-553.7"/>
<text text-anchor="start" x="494.5" y="-562.3" font-family="Helvetica,sans-Serif" font-weight="bold" font-size="11.00" fill="#000000">Visits</text>
<text text-anchor="start" x="690.5437" y="-561.8" font-family="Helvetica,sans-Serif" font-size="11.00" fill="#000000">[table]</text>
<polygon fill="none" stroke="#000000" points="489.5,-531.7 489.5,-553.7 644.5,-553.7 644.5,-531.7 489.5,-531.7"/>
<image xlink:href="../../images/primaryKeys.png" width="11px" height="12px" preserveAspectRatio="xMinYMin meet" x="494.5" y="-548.7"/>
<text text-anchor="start" x="509.5" y="-538.8" font-family="Helvetica,sans-Serif" font-size="11.00" fill="#000000">Id</text>
<polygon fill="none" stroke="#000000" points="644.5,-531.7 644.5,-553.7 725.5,-553.7 725.5,-531.7 644.5,-531.7"/>
<text text-anchor="start" x="647.5" y="-539.4" font-family="Helvetica,sans-Serif" font-size="11.00" fill="#000000">int identity[4]</text>
<polygon fill="#ffffff" stroke="transparent" points="489.5,-509.7 489.5,-531.7 644.5,-531.7 644.5,-509.7 489.5,-509.7"/>
<polygon fill="none" stroke="#000000" points="489.5,-509.7 489.5,-531.7 644.5,-531.7 644.5,-509.7 489.5,-509.7"/>
<text text-anchor="start" x="509.5" y="-516.8" font-family="Helvetica,sans-Serif" font-size="11.00" fill="#000000">DateServiced</text>
<polygon fill="none" stroke="#000000" points="644.5,-509.7 644.5,-531.7 725.5,-531.7 725.5,-509.7 644.5,-509.7"/>
<text text-anchor="start" x="647.5" y="-517.4" font-family="Helvetica,sans-Serif" font-size="11.00" fill="#000000">date[6]</text>
<polygon fill="#ffffff" stroke="transparent" points="489.5,-487.7 489.5,-509.7 644.5,-509.7 644.5,-487.7 489.5,-487.7"/>
<polygon fill="none" stroke="#000000" points="489.5,-487.7 489.5,-509.7 644.5,-509.7 644.5,-487.7 489.5,-487.7"/>
<image xlink:href="../../images/foreignKeys.png" width="11px" height="12px" preserveAspectRatio="xMinYMin meet" x="494.5" y="-504.7"/>
<text text-anchor="start" x="509.5" y="-494.8" font-family="Helvetica,sans-Serif" font-size="11.00" fill="#000000">HospitalizationId</text>
<polygon fill="none" stroke="#000000" points="644.5,-487.7 644.5,-509.7 725.5,-509.7 725.5,-487.7 644.5,-487.7"/>
<text text-anchor="start" x="647.5" y="-495.4" font-family="Helvetica,sans-Serif" font-size="11.00" fill="#000000">int[4]</text>
<polygon fill="none" stroke="#000000" points="489.5,-465.7 489.5,-487.7 644.5,-487.7 644.5,-465.7 489.5,-465.7"/>
<text text-anchor="start" x="509.5" y="-472.8" font-family="Helvetica,sans-Serif" font-size="11.00" fill="#000000">IsScribeServiceOnly</text>
<polygon fill="none" stroke="#000000" points="644.5,-465.7 644.5,-487.7 725.5,-487.7 725.5,-465.7 644.5,-465.7"/>
<text text-anchor="start" x="647.5" y="-473.4" font-family="Helvetica,sans-Serif" font-size="11.00" fill="#000000">bit[1]</text>
<polygon fill="#ffffff" stroke="transparent" points="489.5,-443.7 489.5,-465.7 644.5,-465.7 644.5,-443.7 489.5,-443.7"/>
<polygon fill="none" stroke="#000000" points="489.5,-443.7 489.5,-465.7 644.5,-465.7 644.5,-443.7 489.5,-443.7"/>
<image xlink:href="../../images/foreignKeys.png" width="11px" height="12px" preserveAspectRatio="xMinYMin meet" x="494.5" y="-460.7"/>
<text text-anchor="start" x="509.5" y="-450.8" font-family="Helvetica,sans-Serif" font-size="11.00" fill="#000000">ServiceTypeId</text>
<polygon fill="none" stroke="#000000" points="644.5,-443.7 644.5,-465.7 725.5,-465.7 725.5,-443.7 644.5,-443.7"/>
<text text-anchor="start" x="647.5" y="-451.4" font-family="Helvetica,sans-Serif" font-size="11.00" fill="#000000">int[4]</text>
<polygon fill="none" stroke="#000000" points="489.5,-421.7 489.5,-443.7 644.5,-443.7 644.5,-421.7 489.5,-421.7"/>
<text text-anchor="start" x="509.5" y="-428.8" font-family="Helvetica,sans-Serif" font-size="11.00" fill="#000000">Room</text>
<polygon fill="none" stroke="#000000" points="644.5,-421.7 644.5,-443.7 725.5,-443.7 725.5,-421.7 644.5,-421.7"/>
<text text-anchor="start" x="647.5" y="-429.4" font-family="Helvetica,sans-Serif" font-size="11.00" fill="#000000">nvarchar[40]</text>
<polygon fill="none" stroke="#000000" points="489.5,-399.7 489.5,-421.7 644.5,-421.7 644.5,-399.7 489.5,-399.7"/>
<text text-anchor="start" x="509.5" y="-406.8" font-family="Helvetica,sans-Serif" font-size="11.00" fill="#000000">Bed</text>
<polygon fill="none" stroke="#000000" points="644.5,-399.7 644.5,-421.7 725.5,-421.7 725.5,-399.7 644.5,-399.7"/>
<text text-anchor="start" x="647.5" y="-407.4" font-family="Helvetica,sans-Serif" font-size="11.00" fill="#000000">nvarchar[10]</text>
<polygon fill="none" stroke="#000000" points="489.5,-377.7 489.5,-399.7 644.5,-399.7 644.5,-377.7 489.5,-377.7"/>
<text text-anchor="start" x="509.5" y="-384.8" font-family="Helvetica,sans-Serif" font-size="11.00" fill="#000000">CreatedAtUtc</text>
<polygon fill="none" stroke="#000000" points="644.5,-377.7 644.5,-399.7 725.5,-399.7 725.5,-377.7 644.5,-377.7"/>
<text text-anchor="start" x="647.0968" y="-385.4" font-family="Helvetica,sans-Serif" font-size="11.00" fill="#000000">datetime2[16,7]</text>
<polygon fill="none" stroke="#000000" points="489.5,-355.7 489.5,-377.7 644.5,-377.7 644.5,-355.7 489.5,-355.7"/>
<text text-anchor="start" x="509.5" y="-362.8" font-family="Helvetica,sans-Serif" font-size="11.00" fill="#000000">UpdatedAtUtc</text>
<polygon fill="none" stroke="#000000" points="644.5,-355.7 644.5,-377.7 725.5,-377.7 725.5,-355.7 644.5,-355.7"/>
<text text-anchor="start" x="647.0968" y="-363.4" font-family="Helvetica,sans-Serif" font-size="11.00" fill="#000000">datetime2[16,7]</text>
<polygon fill="none" stroke="#000000" points="489.5,-333.7 489.5,-355.7 644.5,-355.7 644.5,-333.7 489.5,-333.7"/>
<text text-anchor="start" x="509.5" y="-340.8" font-family="Helvetica,sans-Serif" font-size="11.00" fill="#000000">RowVersion</text>
<polygon fill="none" stroke="#000000" points="644.5,-333.7 644.5,-355.7 725.5,-355.7 725.5,-333.7 644.5,-333.7"/>
<text text-anchor="start" x="647.5" y="-341.4" font-family="Helvetica,sans-Serif" font-size="11.00" fill="#000000">timestamp[8]</text>
<polygon fill="#ffffff" stroke="transparent" points="489.5,-314.7 489.5,-333.7 571.5,-333.7 571.5,-314.7 489.5,-314.7"/>
<polygon fill="none" stroke="#000000" points="489.5,-314.7 489.5,-333.7 571.5,-333.7 571.5,-314.7 489.5,-314.7"/>
<text text-anchor="start" x="492.5" y="-320.8" font-family="Helvetica,sans-Serif" font-size="11.00" fill="#000000">&lt; 2</text>
<polygon fill="#ffffff" stroke="transparent" points="571.5,-314.7 571.5,-333.7 644.5,-333.7 644.5,-314.7 571.5,-314.7"/>
<polygon fill="none" stroke="#000000" points="571.5,-314.7 571.5,-333.7 644.5,-333.7 644.5,-314.7 571.5,-314.7"/>
<text text-anchor="start" x="635.3862" y="-320.8" font-family="Helvetica,sans-Serif" font-size="11.00" fill="#000000"> &#160;</text>
<polygon fill="#ffffff" stroke="transparent" points="644.5,-314.7 644.5,-333.7 725.5,-333.7 725.5,-314.7 644.5,-314.7"/>
<polygon fill="none" stroke="#000000" points="644.5,-314.7 644.5,-333.7 725.5,-333.7 725.5,-314.7 644.5,-314.7"/>
<text text-anchor="start" x="706.9053" y="-320.8" font-family="Helvetica,sans-Serif" font-size="11.00" fill="#000000">2 &gt;</text>
<polygon fill="none" stroke="#000000" stroke-width="2" points="488.5,-313.7 488.5,-577.7 726.5,-577.7 726.5,-313.7 488.5,-313.7"/>
</a>
</g>
</g>
<!-- VisitAttendants&#45;&gt;Visits -->
<g id="edge9" class="edge">
<title>VisitAttendants:w&#45;&gt;Visits:e</title>
<path fill="none" stroke="#000000" d="M765.0837,-447.46C738.5653,-465.5436 769.6528,-542.7 725.5,-542.7"/>
<polygon fill="#000000" stroke="#000000" points="771.2769,-445.7867 779.939,-447.1754 775.1385,-444.7434 779,-443.7 779,-443.7 779,-443.7 775.1385,-444.7434 778.061,-440.2246 771.2769,-445.7867 771.2769,-445.7867"/>
<ellipse fill="none" stroke="#000000" cx="768.1877" cy="-446.6214" rx="3.2" ry="3.2"/>
</g>
<!-- Visits&#45;&gt;Hospitalizations -->
<g id="edge14" class="edge">
<title>Visits:w&#45;&gt;Hospitalizations:e</title>
<path fill="none" stroke="#000000" d="M475.1372,-501.8376C461.7988,-508.3431 456.4996,-522.7 436.5,-522.7"/>
<polygon fill="#000000" stroke="#000000" points="481.6843,-500.4074 490.2683,-502.2171 485.5922,-499.5537 489.5,-498.7 489.5,-498.7 489.5,-498.7 485.5922,-499.5537 488.7317,-495.1829 481.6843,-500.4074 481.6843,-500.4074"/>
<ellipse fill="none" stroke="#000000" cx="478.558" cy="-501.0904" rx="3.2" ry="3.2"/>
</g>
<!-- ServiceTypes -->
<g id="node13" class="node">
<title>ServiceTypes</title>
<g id="a_node13"><a xlink:href="../../tables/ServiceTypes.html" xlink:title="ServiceTypes" target="_top">
<polygon fill="#ffffff" stroke="transparent" points="282.5,-282.2 282.5,-365.2 410.5,-365.2 410.5,-282.2 282.5,-282.2"/>
<polygon fill="#f5f5f5" stroke="transparent" points="282.5,-341.7 282.5,-364.7 410.5,-364.7 410.5,-341.7 282.5,-341.7"/>
<polygon fill="none" stroke="#000000" points="282.5,-341.7 282.5,-364.7 410.5,-364.7 410.5,-341.7 282.5,-341.7"/>
<text text-anchor="start" x="287.5" y="-350.3" font-family="Helvetica,sans-Serif" font-weight="bold" font-size="11.00" fill="#000000">ServiceTypes</text>
<text text-anchor="start" x="376.0219" y="-349.8" font-family="Helvetica,sans-Serif" font-size="11.00" fill="#000000">[table]</text>
<polygon fill="none" stroke="#000000" points="282.5,-319.7 282.5,-341.7 410.5,-341.7 410.5,-319.7 282.5,-319.7"/>
<image xlink:href="../../images/primaryKeys.png" width="11px" height="12px" preserveAspectRatio="xMinYMin meet" x="287.5" y="-336.7"/>
<text text-anchor="start" x="308.5" y="-326.8" font-family="Helvetica,sans-Serif" font-size="11.00" fill="#000000">Id</text>
<polygon fill="none" stroke="#000000" points="282.5,-300.7 282.5,-319.7 410.5,-319.7 410.5,-300.7 282.5,-300.7"/>
<text text-anchor="start" x="285.5" y="-306.8" font-family="Helvetica,sans-Serif" font-size="11.00" fill="#000000">...</text>
<polygon fill="#ffffff" stroke="transparent" points="282.5,-281.7 282.5,-300.7 335.5,-300.7 335.5,-281.7 282.5,-281.7"/>
<polygon fill="none" stroke="#000000" points="282.5,-281.7 282.5,-300.7 335.5,-300.7 335.5,-281.7 282.5,-281.7"/>
<text text-anchor="start" x="285.5" y="-287.8" font-family="Helvetica,sans-Serif" font-size="11.00" fill="#000000"> &#160;</text>
<polygon fill="#ffffff" stroke="transparent" points="335.5,-281.7 335.5,-300.7 368.5,-300.7 368.5,-281.7 335.5,-281.7"/>
<polygon fill="none" stroke="#000000" points="335.5,-281.7 335.5,-300.7 368.5,-300.7 368.5,-281.7 335.5,-281.7"/>
<text text-anchor="start" x="359.3862" y="-287.8" font-family="Helvetica,sans-Serif" font-size="11.00" fill="#000000"> &#160;</text>
<polygon fill="#ffffff" stroke="transparent" points="368.5,-281.7 368.5,-300.7 410.5,-300.7 410.5,-281.7 368.5,-281.7"/>
<polygon fill="none" stroke="#000000" points="368.5,-281.7 368.5,-300.7 410.5,-300.7 410.5,-281.7 368.5,-281.7"/>
<text text-anchor="start" x="391.9053" y="-287.8" font-family="Helvetica,sans-Serif" font-size="11.00" fill="#000000">1 &gt;</text>
</a>
</g>
</g>
<!-- Visits&#45;&gt;ServiceTypes -->
<g id="edge15" class="edge">
<title>Visits:w&#45;&gt;ServiceTypes:e</title>
<path fill="none" stroke="#000000" d="M475.0976,-452.1101C432.1746,-434.3033 470.2298,-330.7 410.5,-330.7"/>
<polygon fill="#000000" stroke="#000000" points="481.6263,-453.2841 488.8628,-458.2432 485.5631,-453.992 489.5,-454.7 489.5,-454.7 489.5,-454.7 485.5631,-453.992 490.1372,-451.1568 481.6263,-453.2841 481.6263,-453.2841"/>
<ellipse fill="none" stroke="#000000" cx="478.4768" cy="-452.7177" rx="3.2" ry="3.2"/>
</g>
<!-- VisitEvents -->
<g id="node11" class="node">
<title>VisitEvents</title>
<g id="a_node11"><a xlink:href="../../tables/VisitEvents.html" xlink:title="VisitEvents" target="_top">
<polygon fill="#ffffff" stroke="transparent" points="783.5,-57.2 783.5,-250.2 918.5,-250.2 918.5,-57.2 783.5,-57.2"/>
<polygon fill="#f5f5f5" stroke="transparent" points="784,-226.7 784,-249.7 919,-249.7 919,-226.7 784,-226.7"/>
<polygon fill="none" stroke="#000000" points="784,-226.7 784,-249.7 919,-249.7 919,-226.7 784,-226.7"/>
<text text-anchor="start" x="789" y="-235.3" font-family="Helvetica,sans-Serif" font-weight="bold" font-size="11.00" fill="#000000">VisitEvents</text>
<text text-anchor="start" x="884.0437" y="-234.8" font-family="Helvetica,sans-Serif" font-size="11.00" fill="#000000">[table]</text>
<polygon fill="none" stroke="#000000" points="784,-204.7 784,-226.7 919,-226.7 919,-204.7 784,-204.7"/>
<image xlink:href="../../images/primaryKeys.png" width="11px" height="12px" preserveAspectRatio="xMinYMin meet" x="789" y="-221.7"/>
<text text-anchor="start" x="804" y="-211.8" font-family="Helvetica,sans-Serif" font-size="11.00" fill="#000000">Id</text>
<polygon fill="#ffffff" stroke="transparent" points="784,-182.7 784,-204.7 919,-204.7 919,-182.7 784,-182.7"/>
<polygon fill="none" stroke="#000000" points="784,-182.7 784,-204.7 919,-204.7 919,-182.7 784,-182.7"/>
<image xlink:href="../../images/foreignKeys.png" width="11px" height="12px" preserveAspectRatio="xMinYMin meet" x="789" y="-199.7"/>
<text text-anchor="start" x="804" y="-189.8" font-family="Helvetica,sans-Serif" font-size="11.00" fill="#000000">VisitId</text>
<polygon fill="#ffffff" stroke="transparent" points="784,-160.7 784,-182.7 919,-182.7 919,-160.7 784,-160.7"/>
<polygon fill="none" stroke="#000000" points="784,-160.7 784,-182.7 919,-182.7 919,-160.7 784,-160.7"/>
<image xlink:href="../../images/foreignKeys.png" width="11px" height="12px" preserveAspectRatio="xMinYMin meet" x="789" y="-177.7"/>
<text text-anchor="start" x="804" y="-167.8" font-family="Helvetica,sans-Serif" font-size="11.00" fill="#000000">EventTypeId</text>
<polygon fill="#ffffff" stroke="transparent" points="784,-138.7 784,-160.7 919,-160.7 919,-138.7 784,-138.7"/>
<polygon fill="none" stroke="#000000" points="784,-138.7 784,-160.7 919,-160.7 919,-138.7 784,-138.7"/>
<text text-anchor="start" x="804" y="-145.8" font-family="Helvetica,sans-Serif" font-size="11.00" fill="#000000">EventOccurredAt</text>
<polygon fill="#ffffff" stroke="transparent" points="784,-116.7 784,-138.7 919,-138.7 919,-116.7 784,-116.7"/>
<polygon fill="none" stroke="#000000" points="784,-116.7 784,-138.7 919,-138.7 919,-116.7 784,-116.7"/>
<image xlink:href="../../images/foreignKeys.png" width="11px" height="12px" preserveAspectRatio="xMinYMin meet" x="789" y="-133.7"/>
<text text-anchor="start" x="804" y="-123.8" font-family="Helvetica,sans-Serif" font-size="11.00" fill="#000000">EnteredByUserId</text>
<polygon fill="#ffffff" stroke="transparent" points="784,-94.7 784,-116.7 919,-116.7 919,-94.7 784,-94.7"/>
<polygon fill="none" stroke="#000000" points="784,-94.7 784,-116.7 919,-116.7 919,-94.7 784,-94.7"/>
<image xlink:href="../../images/foreignKeys.png" width="11px" height="12px" preserveAspectRatio="xMinYMin meet" x="789" y="-111.7"/>
<text text-anchor="start" x="804" y="-101.8" font-family="Helvetica,sans-Serif" font-size="11.00" fill="#000000">EmployeeId</text>
<polygon fill="none" stroke="#000000" points="784,-75.7 784,-94.7 919,-94.7 919,-75.7 784,-75.7"/>
<text text-anchor="start" x="787" y="-81.8" font-family="Helvetica,sans-Serif" font-size="11.00" fill="#000000">...</text>
<polygon fill="#ffffff" stroke="transparent" points="784,-56.7 784,-75.7 850,-75.7 850,-56.7 784,-56.7"/>
<polygon fill="none" stroke="#000000" points="784,-56.7 784,-75.7 850,-75.7 850,-56.7 784,-56.7"/>
<text text-anchor="start" x="787" y="-62.8" font-family="Helvetica,sans-Serif" font-size="11.00" fill="#000000">&lt; 4</text>
<polygon fill="#ffffff" stroke="transparent" points="850,-56.7 850,-75.7 884,-75.7 884,-56.7 850,-56.7"/>
<polygon fill="none" stroke="#000000" points="850,-56.7 850,-75.7 884,-75.7 884,-56.7 850,-56.7"/>
<text text-anchor="start" x="874.8862" y="-62.8" font-family="Helvetica,sans-Serif" font-size="11.00" fill="#000000"> &#160;</text>
<polygon fill="#ffffff" stroke="transparent" points="884,-56.7 884,-75.7 919,-75.7 919,-56.7 884,-56.7"/>
<polygon fill="none" stroke="#000000" points="884,-56.7 884,-75.7 919,-75.7 919,-56.7 884,-56.7"/>
<text text-anchor="start" x="909.8862" y="-62.8" font-family="Helvetica,sans-Serif" font-size="11.00" fill="#000000"> &#160;</text>
</a>
</g>
</g>
<!-- VisitEvents&#45;&gt;Identity.Users -->
<g id="edge11" class="edge">
<title>VisitEvents:w&#45;&gt;Identity.Users:e</title>
<path fill="none" stroke="#000000" d="M769.5838,-127.6374C644.7109,-126.5488 606.04,-111.9505 477,-137.7 447.4126,-143.6041 443.6707,-161.7 413.5,-161.7"/>
<polygon fill="#000000" stroke="#000000" points="776.0001,-127.6652 783.9843,-131.3 780,-127.6826 784,-127.7 784,-127.7 784,-127.7 780,-127.6826 784.0157,-124.1 776.0001,-127.6652 776.0001,-127.6652"/>
<ellipse fill="none" stroke="#000000" cx="772.8001" cy="-127.6513" rx="3.2" ry="3.2"/>
</g>
<!-- VisitEvents&#45;&gt;Compensation.Employees -->
<g id="edge10" class="edge">
<title>VisitEvents:w&#45;&gt;Compensation.Employees:e</title>
<path fill="none" stroke="#000000" d="M769.7491,-103.0755C748.0029,-94.1766 744.5708,-65.7 714.5,-65.7"/>
<polygon fill="#000000" stroke="#000000" points="776.1323,-104.251 783.348,-109.2405 780.0662,-104.9755 784,-105.7 784,-105.7 784,-105.7 780.0662,-104.9755 784.652,-102.1595 776.1323,-104.251 776.1323,-104.251"/>
<ellipse fill="none" stroke="#000000" cx="772.9852" cy="-103.6714" rx="3.2" ry="3.2"/>
</g>
<!-- VisitEvents&#45;&gt;Visits -->
<g id="edge13" class="edge">
<title>VisitEvents:w&#45;&gt;Visits:e</title>
<path fill="none" stroke="#000000" d="M770.247,-198.3697C718.0378,-239.784 798.7619,-542.7 725.5,-542.7"/>
<polygon fill="#000000" stroke="#000000" points="776.4247,-196.2721 785.1575,-197.1089 780.2124,-194.9861 784,-193.7 784,-193.7 784,-193.7 780.2124,-194.9861 782.8425,-190.2911 776.4247,-196.2721 776.4247,-196.2721"/>
<ellipse fill="none" stroke="#000000" cx="773.3946" cy="-197.301" rx="3.2" ry="3.2"/>
</g>
<!-- VisitEventTypes -->
<g id="node12" class="node">
<title>VisitEventTypes</title>
<g id="a_node12"><a xlink:href="../../tables/VisitEventTypes.html" xlink:title="VisitEventTypes" target="_top">
<polygon fill="#ffffff" stroke="transparent" points="534,-148.2 534,-209.2 681,-209.2 681,-148.2 534,-148.2"/>
<polygon fill="#f5f5f5" stroke="transparent" points="534.5,-185.7 534.5,-208.7 681.5,-208.7 681.5,-185.7 534.5,-185.7"/>
<polygon fill="none" stroke="#000000" points="534.5,-185.7 534.5,-208.7 681.5,-208.7 681.5,-185.7 534.5,-185.7"/>
<text text-anchor="start" x="539.5" y="-194.3" font-family="Helvetica,sans-Serif" font-weight="bold" font-size="11.00" fill="#000000">VisitEventTypes</text>
<text text-anchor="start" x="647.0219" y="-193.8" font-family="Helvetica,sans-Serif" font-size="11.00" fill="#000000">[table]</text>
<polygon fill="none" stroke="#000000" points="534.5,-166.7 534.5,-185.7 681.5,-185.7 681.5,-166.7 534.5,-166.7"/>
<text text-anchor="start" x="537.5" y="-172.8" font-family="Helvetica,sans-Serif" font-size="11.00" fill="#000000">...</text>
<polygon fill="#ffffff" stroke="transparent" points="534.5,-147.7 534.5,-166.7 597.5,-166.7 597.5,-147.7 534.5,-147.7"/>
<polygon fill="none" stroke="#000000" points="534.5,-147.7 534.5,-166.7 597.5,-166.7 597.5,-147.7 534.5,-147.7"/>
<text text-anchor="start" x="537.5" y="-153.8" font-family="Helvetica,sans-Serif" font-size="11.00" fill="#000000"> &#160;</text>
<polygon fill="#ffffff" stroke="transparent" points="597.5,-147.7 597.5,-166.7 634.5,-166.7 634.5,-147.7 597.5,-147.7"/>
<polygon fill="none" stroke="#000000" points="597.5,-147.7 597.5,-166.7 634.5,-166.7 634.5,-147.7 597.5,-147.7"/>
<text text-anchor="start" x="625.3862" y="-153.8" font-family="Helvetica,sans-Serif" font-size="11.00" fill="#000000"> &#160;</text>
<polygon fill="#ffffff" stroke="transparent" points="634.5,-147.7 634.5,-166.7 681.5,-166.7 681.5,-147.7 634.5,-147.7"/>
<polygon fill="none" stroke="#000000" points="634.5,-147.7 634.5,-166.7 681.5,-166.7 681.5,-147.7 634.5,-147.7"/>
<text text-anchor="start" x="662.9053" y="-153.8" font-family="Helvetica,sans-Serif" font-size="11.00" fill="#000000">1 &gt;</text>
</a>
</g>
</g>
<!-- VisitEvents&#45;&gt;VisitEventTypes -->
<g id="edge12" class="edge">
<title>VisitEvents:w&#45;&gt;VisitEventTypes:e</title>
<path fill="none" stroke="#000000" d="M769.2738,-171.8519C735.2861,-172.5826 721.7476,-175.7 681.5,-175.7"/>
<polygon fill="#000000" stroke="#000000" points="776.0004,-171.7826 784.0372,-175.2998 780.0002,-171.7413 784,-171.7 784,-171.7 784,-171.7 780.0002,-171.7413 783.9628,-168.1002 776.0004,-171.7826 776.0004,-171.7826"/>
<ellipse fill="none" stroke="#000000" cx="772.8006" cy="-171.8156" rx="3.2" ry="3.2"/>
</g>
</g>
</svg>
