<?xml version="1.0" encoding="UTF-8" standalone="no"?>
<!DOCTYPE svg PUBLIC "-//W3C//DTD SVG 1.1//EN"
 "http://www.w3.org/Graphics/SVG/1.1/DTD/svg11.dtd">
<!-- Generated by graphviz version 2.40.1 (20161225.0304)
 -->
<!-- Title: twoDegreesRelationshipsDiagram Pages: 1 -->
<svg width="694pt" height="312pt"
 viewBox="0.00 0.00 694.00 311.70" xmlns="http://www.w3.org/2000/svg" xmlns:xlink="http://www.w3.org/1999/xlink">
<g id="graph0" class="graph" transform="scale(1 1) rotate(0) translate(4 307.7)">
<title>twoDegreesRelationshipsDiagram</title>
<polygon fill="#ffffff" stroke="transparent" points="-4,4 -4,-307.7 690,-307.7 690,4 -4,4"/>
<text text-anchor="middle" x="72.4936" y="-7.3" font-family="Helvetica,sans-Serif" font-size="11.00" fill="#000000">Generated by SchemaSpy</text>
<!-- VisitAttendants -->
<g id="node1" class="node">
<title>VisitAttendants</title>
<g id="a_node1"><a xlink:href="../../tables/VisitAttendants.html" xlink:title="VisitAttendants" target="_top">
<polygon fill="#ffffff" stroke="transparent" points="467,-121.7 467,-299.7 678,-299.7 678,-121.7 467,-121.7"/>
<polygon fill="#f5f5f5" stroke="transparent" points="469.5,-274.7 469.5,-297.7 676.5,-297.7 676.5,-274.7 469.5,-274.7"/>
<polygon fill="none" stroke="#000000" points="469.5,-274.7 469.5,-297.7 676.5,-297.7 676.5,-274.7 469.5,-274.7"/>
<text text-anchor="start" x="474.5" y="-283.3" font-family="Helvetica,sans-Serif" font-weight="bold" font-size="11.00" fill="#000000">VisitAttendants</text>
<text text-anchor="start" x="641.5437" y="-282.8" font-family="Helvetica,sans-Serif" font-size="11.00" fill="#000000">[table]</text>
<polygon fill="none" stroke="#000000" points="469.5,-252.7 469.5,-274.7 595.5,-274.7 595.5,-252.7 469.5,-252.7"/>
<image xlink:href="../../images/primaryKeys.png" width="11px" height="12px" preserveAspectRatio="xMinYMin meet" x="474.5" y="-269.7"/>
<text text-anchor="start" x="489.5" y="-259.8" font-family="Helvetica,sans-Serif" font-size="11.00" fill="#000000">Id</text>
<polygon fill="none" stroke="#000000" points="595.5,-252.7 595.5,-274.7 676.5,-274.7 676.5,-252.7 595.5,-252.7"/>
<text text-anchor="start" x="598.5" y="-260.4" font-family="Helvetica,sans-Serif" font-size="11.00" fill="#000000">int identity[4]</text>
<polygon fill="#ffffff" stroke="transparent" points="469.5,-230.7 469.5,-252.7 595.5,-252.7 595.5,-230.7 469.5,-230.7"/>
<polygon fill="none" stroke="#000000" points="469.5,-230.7 469.5,-252.7 595.5,-252.7 595.5,-230.7 469.5,-230.7"/>
<image xlink:href="../../images/foreignKeys.png" width="11px" height="12px" preserveAspectRatio="xMinYMin meet" x="474.5" y="-247.7"/>
<text text-anchor="start" x="489.5" y="-237.8" font-family="Helvetica,sans-Serif" font-size="11.00" fill="#000000">VisitId</text>
<polygon fill="none" stroke="#000000" points="595.5,-230.7 595.5,-252.7 676.5,-252.7 676.5,-230.7 595.5,-230.7"/>
<text text-anchor="start" x="598.5" y="-238.4" font-family="Helvetica,sans-Serif" font-size="11.00" fill="#000000">int[4]</text>
<polygon fill="#ffffff" stroke="transparent" points="469.5,-208.7 469.5,-230.7 595.5,-230.7 595.5,-208.7 469.5,-208.7"/>
<polygon fill="none" stroke="#000000" points="469.5,-208.7 469.5,-230.7 595.5,-230.7 595.5,-208.7 469.5,-208.7"/>
<image xlink:href="../../images/foreignKeys.png" width="11px" height="12px" preserveAspectRatio="xMinYMin meet" x="474.5" y="-225.7"/>
<text text-anchor="start" x="489.5" y="-215.8" font-family="Helvetica,sans-Serif" font-size="11.00" fill="#000000">EmployeeId</text>
<polygon fill="none" stroke="#000000" points="595.5,-208.7 595.5,-230.7 676.5,-230.7 676.5,-208.7 595.5,-208.7"/>
<text text-anchor="start" x="598.5" y="-216.4" font-family="Helvetica,sans-Serif" font-size="11.00" fill="#000000">int[4]</text>
<polygon fill="none" stroke="#000000" points="469.5,-186.7 469.5,-208.7 595.5,-208.7 595.5,-186.7 469.5,-186.7"/>
<text text-anchor="start" x="489.5" y="-193.8" font-family="Helvetica,sans-Serif" font-size="11.00" fill="#000000">CreatedAtUtc</text>
<polygon fill="none" stroke="#000000" points="595.5,-186.7 595.5,-208.7 676.5,-208.7 676.5,-186.7 595.5,-186.7"/>
<text text-anchor="start" x="598.0968" y="-194.4" font-family="Helvetica,sans-Serif" font-size="11.00" fill="#000000">datetime2[16,7]</text>
<polygon fill="none" stroke="#000000" points="469.5,-164.7 469.5,-186.7 595.5,-186.7 595.5,-164.7 469.5,-164.7"/>
<text text-anchor="start" x="489.5" y="-171.8" font-family="Helvetica,sans-Serif" font-size="11.00" fill="#000000">UpdatedAtUtc</text>
<polygon fill="none" stroke="#000000" points="595.5,-164.7 595.5,-186.7 676.5,-186.7 676.5,-164.7 595.5,-164.7"/>
<text text-anchor="start" x="598.0968" y="-172.4" font-family="Helvetica,sans-Serif" font-size="11.00" fill="#000000">datetime2[16,7]</text>
<polygon fill="none" stroke="#000000" points="469.5,-142.7 469.5,-164.7 595.5,-164.7 595.5,-142.7 469.5,-142.7"/>
<text text-anchor="start" x="489.5" y="-149.8" font-family="Helvetica,sans-Serif" font-size="11.00" fill="#000000">RowVersion</text>
<polygon fill="none" stroke="#000000" points="595.5,-142.7 595.5,-164.7 676.5,-164.7 676.5,-142.7 595.5,-142.7"/>
<text text-anchor="start" x="598.5" y="-150.4" font-family="Helvetica,sans-Serif" font-size="11.00" fill="#000000">timestamp[8]</text>
<polygon fill="#ffffff" stroke="transparent" points="469.5,-123.7 469.5,-142.7 536.5,-142.7 536.5,-123.7 469.5,-123.7"/>
<polygon fill="none" stroke="#000000" points="469.5,-123.7 469.5,-142.7 536.5,-142.7 536.5,-123.7 469.5,-123.7"/>
<text text-anchor="start" x="472.5" y="-129.8" font-family="Helvetica,sans-Serif" font-size="11.00" fill="#000000">&lt; 2</text>
<polygon fill="#ffffff" stroke="transparent" points="536.5,-123.7 536.5,-142.7 595.5,-142.7 595.5,-123.7 536.5,-123.7"/>
<polygon fill="none" stroke="#000000" points="536.5,-123.7 536.5,-142.7 595.5,-142.7 595.5,-123.7 536.5,-123.7"/>
<text text-anchor="start" x="586.3862" y="-129.8" font-family="Helvetica,sans-Serif" font-size="11.00" fill="#000000"> &#160;</text>
<polygon fill="#ffffff" stroke="transparent" points="595.5,-123.7 595.5,-142.7 676.5,-142.7 676.5,-123.7 595.5,-123.7"/>
<polygon fill="none" stroke="#000000" points="595.5,-123.7 595.5,-142.7 676.5,-142.7 676.5,-123.7 595.5,-123.7"/>
<text text-anchor="start" x="657.9053" y="-129.8" font-family="Helvetica,sans-Serif" font-size="11.00" fill="#000000">0 &gt;</text>
<polygon fill="none" stroke="#000000" stroke-width="2" points="468,-122.7 468,-298.7 677,-298.7 677,-122.7 468,-122.7"/>
</a>
</g>
</g>
<!-- Compensation.Employees -->
<g id="node2" class="node">
<title>Compensation.Employees</title>
<g id="a_node2"><a xlink:title="Compensation.Employees">
<polygon fill="#ffffff" stroke="transparent" points="205,-38.2 205,-99.2 418,-99.2 418,-38.2 205,-38.2"/>
<polygon fill="#f5f5f5" stroke="transparent" points="205.5,-75.7 205.5,-98.7 418.5,-98.7 418.5,-75.7 205.5,-75.7"/>
<polygon fill="none" stroke="#000000" points="205.5,-75.7 205.5,-98.7 418.5,-98.7 418.5,-75.7 205.5,-75.7"/>
<text text-anchor="start" x="210.5" y="-84.3" font-family="Helvetica,sans-Serif" font-weight="bold" font-size="11.00" fill="#000000">Compensation.Employees</text>
<text text-anchor="start" x="384.0219" y="-83.8" font-family="Helvetica,sans-Serif" font-size="11.00" fill="#000000">[table]</text>
<polygon fill="none" stroke="#000000" points="205.5,-56.7 205.5,-75.7 418.5,-75.7 418.5,-56.7 205.5,-56.7"/>
<text text-anchor="start" x="208.5" y="-62.8" font-family="Helvetica,sans-Serif" font-size="11.00" fill="#000000">...</text>
<polygon fill="#ffffff" stroke="transparent" points="205.5,-37.7 205.5,-56.7 301.5,-56.7 301.5,-37.7 205.5,-37.7"/>
<polygon fill="none" stroke="#000000" points="205.5,-37.7 205.5,-56.7 301.5,-56.7 301.5,-37.7 205.5,-37.7"/>
<text text-anchor="start" x="208.5" y="-43.8" font-family="Helvetica,sans-Serif" font-size="11.00" fill="#000000"> &#160;</text>
<polygon fill="#ffffff" stroke="transparent" points="301.5,-37.7 301.5,-56.7 355.5,-56.7 355.5,-37.7 301.5,-37.7"/>
<polygon fill="none" stroke="#000000" points="301.5,-37.7 301.5,-56.7 355.5,-56.7 355.5,-37.7 301.5,-37.7"/>
<text text-anchor="start" x="346.3862" y="-43.8" font-family="Helvetica,sans-Serif" font-size="11.00" fill="#000000"> &#160;</text>
<polygon fill="#ffffff" stroke="transparent" points="355.5,-37.7 355.5,-56.7 418.5,-56.7 418.5,-37.7 355.5,-37.7"/>
<polygon fill="none" stroke="#000000" points="355.5,-37.7 355.5,-56.7 418.5,-56.7 418.5,-37.7 355.5,-37.7"/>
<text text-anchor="start" x="399.9053" y="-43.8" font-family="Helvetica,sans-Serif" font-size="11.00" fill="#000000">2 &gt;</text>
</a>
</g>
</g>
<!-- VisitAttendants&#45;&gt;Compensation.Employees -->
<g id="edge1" class="edge">
<title>VisitAttendants:w&#45;&gt;Compensation.Employees:e</title>
<path fill="none" stroke="#000000" d="M455.2145,-216.9739C427.7202,-203.7065 458.0256,-145.2503 426,-113.7 422.1962,-109.9526 418.0433,-106.508 413.6459,-103.3428"/>
<polygon fill="#000000" stroke="#000000" points="461.6418,-218.2004 468.8252,-223.2362 465.5709,-218.9502 469.5,-219.7 469.5,-219.7 469.5,-219.7 465.5709,-218.9502 470.1748,-216.1638 461.6418,-218.2004 461.6418,-218.2004"/>
<ellipse fill="none" stroke="#000000" cx="458.4985" cy="-217.6006" rx="3.2" ry="3.2"/>
</g>
<!-- Visits -->
<g id="node3" class="node">
<title>Visits</title>
<g id="a_node3"><a xlink:href="../../tables/Visits.html" xlink:title="Visits" target="_top">
<polygon fill="#ffffff" stroke="transparent" points="234,-124.2 234,-273.2 389,-273.2 389,-124.2 234,-124.2"/>
<polygon fill="#f5f5f5" stroke="transparent" points="234.5,-249.7 234.5,-272.7 389.5,-272.7 389.5,-249.7 234.5,-249.7"/>
<polygon fill="none" stroke="#000000" points="234.5,-249.7 234.5,-272.7 389.5,-272.7 389.5,-249.7 234.5,-249.7"/>
<text text-anchor="start" x="239.5" y="-258.3" font-family="Helvetica,sans-Serif" font-weight="bold" font-size="11.00" fill="#000000">Visits</text>
<text text-anchor="start" x="354.5437" y="-257.8" font-family="Helvetica,sans-Serif" font-size="11.00" fill="#000000">[table]</text>
<polygon fill="none" stroke="#000000" points="234.5,-227.7 234.5,-249.7 389.5,-249.7 389.5,-227.7 234.5,-227.7"/>
<image xlink:href="../../images/primaryKeys.png" width="11px" height="12px" preserveAspectRatio="xMinYMin meet" x="239.5" y="-244.7"/>
<text text-anchor="start" x="254.5" y="-234.8" font-family="Helvetica,sans-Serif" font-size="11.00" fill="#000000">Id</text>
<polygon fill="#ffffff" stroke="transparent" points="234.5,-205.7 234.5,-227.7 389.5,-227.7 389.5,-205.7 234.5,-205.7"/>
<polygon fill="none" stroke="#000000" points="234.5,-205.7 234.5,-227.7 389.5,-227.7 389.5,-205.7 234.5,-205.7"/>
<text text-anchor="start" x="254.5" y="-212.8" font-family="Helvetica,sans-Serif" font-size="11.00" fill="#000000">DateServiced</text>
<polygon fill="#ffffff" stroke="transparent" points="234.5,-183.7 234.5,-205.7 389.5,-205.7 389.5,-183.7 234.5,-183.7"/>
<polygon fill="none" stroke="#000000" points="234.5,-183.7 234.5,-205.7 389.5,-205.7 389.5,-183.7 234.5,-183.7"/>
<image xlink:href="../../images/foreignKeys.png" width="11px" height="12px" preserveAspectRatio="xMinYMin meet" x="239.5" y="-200.7"/>
<text text-anchor="start" x="254.5" y="-190.8" font-family="Helvetica,sans-Serif" font-size="11.00" fill="#000000">HospitalizationId</text>
<polygon fill="#ffffff" stroke="transparent" points="234.5,-161.7 234.5,-183.7 389.5,-183.7 389.5,-161.7 234.5,-161.7"/>
<polygon fill="none" stroke="#000000" points="234.5,-161.7 234.5,-183.7 389.5,-183.7 389.5,-161.7 234.5,-161.7"/>
<image xlink:href="../../images/foreignKeys.png" width="11px" height="12px" preserveAspectRatio="xMinYMin meet" x="239.5" y="-178.7"/>
<text text-anchor="start" x="254.5" y="-168.8" font-family="Helvetica,sans-Serif" font-size="11.00" fill="#000000">ServiceTypeId</text>
<polygon fill="none" stroke="#000000" points="234.5,-142.7 234.5,-161.7 389.5,-161.7 389.5,-142.7 234.5,-142.7"/>
<text text-anchor="start" x="237.5" y="-148.8" font-family="Helvetica,sans-Serif" font-size="11.00" fill="#000000">...</text>
<polygon fill="#ffffff" stroke="transparent" points="234.5,-123.7 234.5,-142.7 305.5,-142.7 305.5,-123.7 234.5,-123.7"/>
<polygon fill="none" stroke="#000000" points="234.5,-123.7 234.5,-142.7 305.5,-142.7 305.5,-123.7 234.5,-123.7"/>
<text text-anchor="start" x="237.5" y="-129.8" font-family="Helvetica,sans-Serif" font-size="11.00" fill="#000000">&lt; 2</text>
<polygon fill="#ffffff" stroke="transparent" points="305.5,-123.7 305.5,-142.7 342.5,-142.7 342.5,-123.7 305.5,-123.7"/>
<polygon fill="none" stroke="#000000" points="305.5,-123.7 305.5,-142.7 342.5,-142.7 342.5,-123.7 305.5,-123.7"/>
<text text-anchor="start" x="333.3862" y="-129.8" font-family="Helvetica,sans-Serif" font-size="11.00" fill="#000000"> &#160;</text>
<polygon fill="#ffffff" stroke="transparent" points="342.5,-123.7 342.5,-142.7 389.5,-142.7 389.5,-123.7 342.5,-123.7"/>
<polygon fill="none" stroke="#000000" points="342.5,-123.7 342.5,-142.7 389.5,-142.7 389.5,-123.7 342.5,-123.7"/>
<text text-anchor="start" x="370.9053" y="-129.8" font-family="Helvetica,sans-Serif" font-size="11.00" fill="#000000">2 &gt;</text>
</a>
</g>
</g>
<!-- VisitAttendants&#45;&gt;Visits -->
<g id="edge2" class="edge">
<title>VisitAttendants:w&#45;&gt;Visits:e</title>
<path fill="none" stroke="#000000" d="M454.9114,-241.5123C430.6057,-240.8556 419.6601,-238.7 389.5,-238.7"/>
<polygon fill="#000000" stroke="#000000" points="461.5007,-241.597 469.4537,-245.2997 465.5003,-241.6485 469.5,-241.7 469.5,-241.7 469.5,-241.7 465.5003,-241.6485 469.5463,-238.1003 461.5007,-241.597 461.5007,-241.597"/>
<ellipse fill="none" stroke="#000000" cx="458.3009" cy="-241.5559" rx="3.2" ry="3.2"/>
</g>
<!-- Hospitalizations -->
<g id="node5" class="node">
<title>Hospitalizations</title>
<g id="a_node5"><a xlink:href="../../tables/Hospitalizations.html" xlink:title="Hospitalizations" target="_top">
<polygon fill="#ffffff" stroke="transparent" points="8,-197.2 8,-258.2 156,-258.2 156,-197.2 8,-197.2"/>
<polygon fill="#f5f5f5" stroke="transparent" points="8,-234.7 8,-257.7 156,-257.7 156,-234.7 8,-234.7"/>
<polygon fill="none" stroke="#000000" points="8,-234.7 8,-257.7 156,-257.7 156,-234.7 8,-234.7"/>
<text text-anchor="start" x="13" y="-243.3" font-family="Helvetica,sans-Serif" font-weight="bold" font-size="11.00" fill="#000000">Hospitalizations</text>
<text text-anchor="start" x="121.5219" y="-242.8" font-family="Helvetica,sans-Serif" font-size="11.00" fill="#000000">[table]</text>
<polygon fill="none" stroke="#000000" points="8,-215.7 8,-234.7 156,-234.7 156,-215.7 8,-215.7"/>
<text text-anchor="start" x="11" y="-221.8" font-family="Helvetica,sans-Serif" font-size="11.00" fill="#000000">...</text>
<polygon fill="#ffffff" stroke="transparent" points="8,-196.7 8,-215.7 76,-215.7 76,-196.7 8,-196.7"/>
<polygon fill="none" stroke="#000000" points="8,-196.7 8,-215.7 76,-215.7 76,-196.7 8,-196.7"/>
<text text-anchor="start" x="11" y="-202.8" font-family="Helvetica,sans-Serif" font-size="11.00" fill="#000000">&lt; 3</text>
<polygon fill="#ffffff" stroke="transparent" points="76,-196.7 76,-215.7 111,-215.7 111,-196.7 76,-196.7"/>
<polygon fill="none" stroke="#000000" points="76,-196.7 76,-215.7 111,-215.7 111,-196.7 76,-196.7"/>
<text text-anchor="start" x="101.8862" y="-202.8" font-family="Helvetica,sans-Serif" font-size="11.00" fill="#000000"> &#160;</text>
<polygon fill="#ffffff" stroke="transparent" points="111,-196.7 111,-215.7 156,-215.7 156,-196.7 111,-196.7"/>
<polygon fill="none" stroke="#000000" points="111,-196.7 111,-215.7 156,-215.7 156,-196.7 111,-196.7"/>
<text text-anchor="start" x="137.4053" y="-202.8" font-family="Helvetica,sans-Serif" font-size="11.00" fill="#000000">3 &gt;</text>
</a>
</g>
</g>
<!-- Visits&#45;&gt;Hospitalizations -->
<g id="edge5" class="edge">
<title>Visits:w&#45;&gt;Hospitalizations:e</title>
<path fill="none" stroke="#000000" d="M219.8658,-196.4868C195.2827,-202.9452 187.8057,-224.7 156,-224.7"/>
<polygon fill="#000000" stroke="#000000" points="226.559,-195.6696 234.9363,-198.2735 230.5295,-195.1848 234.5,-194.7 234.5,-194.7 234.5,-194.7 230.5295,-195.1848 234.0637,-191.1265 226.559,-195.6696 226.559,-195.6696"/>
<ellipse fill="none" stroke="#000000" cx="223.3826" cy="-196.0575" rx="3.2" ry="3.2"/>
</g>
<!-- ServiceTypes -->
<g id="node6" class="node">
<title>ServiceTypes</title>
<g id="a_node6"><a xlink:href="../../tables/ServiceTypes.html" xlink:title="ServiceTypes" target="_top">
<polygon fill="#ffffff" stroke="transparent" points="18,-115.2 18,-176.2 146,-176.2 146,-115.2 18,-115.2"/>
<polygon fill="#f5f5f5" stroke="transparent" points="18,-152.7 18,-175.7 146,-175.7 146,-152.7 18,-152.7"/>
<polygon fill="none" stroke="#000000" points="18,-152.7 18,-175.7 146,-175.7 146,-152.7 18,-152.7"/>
<text text-anchor="start" x="23" y="-161.3" font-family="Helvetica,sans-Serif" font-weight="bold" font-size="11.00" fill="#000000">ServiceTypes</text>
<text text-anchor="start" x="111.5219" y="-160.8" font-family="Helvetica,sans-Serif" font-size="11.00" fill="#000000">[table]</text>
<polygon fill="none" stroke="#000000" points="18,-133.7 18,-152.7 146,-152.7 146,-133.7 18,-133.7"/>
<text text-anchor="start" x="21" y="-139.8" font-family="Helvetica,sans-Serif" font-size="11.00" fill="#000000">...</text>
<polygon fill="#ffffff" stroke="transparent" points="18,-114.7 18,-133.7 71,-133.7 71,-114.7 18,-114.7"/>
<polygon fill="none" stroke="#000000" points="18,-114.7 18,-133.7 71,-133.7 71,-114.7 18,-114.7"/>
<text text-anchor="start" x="21" y="-120.8" font-family="Helvetica,sans-Serif" font-size="11.00" fill="#000000"> &#160;</text>
<polygon fill="#ffffff" stroke="transparent" points="71,-114.7 71,-133.7 104,-133.7 104,-114.7 71,-114.7"/>
<polygon fill="none" stroke="#000000" points="71,-114.7 71,-133.7 104,-133.7 104,-114.7 71,-114.7"/>
<text text-anchor="start" x="94.8862" y="-120.8" font-family="Helvetica,sans-Serif" font-size="11.00" fill="#000000"> &#160;</text>
<polygon fill="#ffffff" stroke="transparent" points="104,-114.7 104,-133.7 146,-133.7 146,-114.7 104,-114.7"/>
<polygon fill="none" stroke="#000000" points="104,-114.7 104,-133.7 146,-133.7 146,-114.7 104,-114.7"/>
<text text-anchor="start" x="127.4053" y="-120.8" font-family="Helvetica,sans-Serif" font-size="11.00" fill="#000000">1 &gt;</text>
</a>
</g>
</g>
<!-- Visits&#45;&gt;ServiceTypes -->
<g id="edge6" class="edge">
<title>Visits:w&#45;&gt;ServiceTypes:e</title>
<path fill="none" stroke="#000000" d="M220.0836,-171.333C190.9668,-165.4641 182.1781,-142.7 146,-142.7"/>
<polygon fill="#000000" stroke="#000000" points="226.5357,-171.9448 234.1601,-176.2839 230.5179,-172.3224 234.5,-172.7 234.5,-172.7 234.5,-172.7 230.5179,-172.3224 234.8399,-169.1161 226.5357,-171.9448 226.5357,-171.9448"/>
<ellipse fill="none" stroke="#000000" cx="223.35" cy="-171.6427" rx="3.2" ry="3.2"/>
</g>
<!-- VisitEvents -->
<g id="node4" class="node">
<title>VisitEvents</title>
<g id="a_node4"><a xlink:href="../../tables/VisitEvents.html" xlink:title="VisitEvents" target="_top">
<polygon fill="#ffffff" stroke="transparent" points="515.5,-39.2 515.5,-100.2 629.5,-100.2 629.5,-39.2 515.5,-39.2"/>
<polygon fill="#f5f5f5" stroke="transparent" points="515.5,-76.7 515.5,-99.7 629.5,-99.7 629.5,-76.7 515.5,-76.7"/>
<polygon fill="none" stroke="#000000" points="515.5,-76.7 515.5,-99.7 629.5,-99.7 629.5,-76.7 515.5,-76.7"/>
<text text-anchor="start" x="520.5" y="-85.3" font-family="Helvetica,sans-Serif" font-weight="bold" font-size="11.00" fill="#000000">VisitEvents</text>
<text text-anchor="start" x="595.0219" y="-84.8" font-family="Helvetica,sans-Serif" font-size="11.00" fill="#000000">[table]</text>
<polygon fill="none" stroke="#000000" points="515.5,-57.7 515.5,-76.7 629.5,-76.7 629.5,-57.7 515.5,-57.7"/>
<text text-anchor="start" x="518.5" y="-63.8" font-family="Helvetica,sans-Serif" font-size="11.00" fill="#000000">...</text>
<polygon fill="#ffffff" stroke="transparent" points="515.5,-38.7 515.5,-57.7 570.5,-57.7 570.5,-38.7 515.5,-38.7"/>
<polygon fill="none" stroke="#000000" points="515.5,-38.7 515.5,-57.7 570.5,-57.7 570.5,-38.7 515.5,-38.7"/>
<text text-anchor="start" x="518.5" y="-44.8" font-family="Helvetica,sans-Serif" font-size="11.00" fill="#000000">&lt; 4</text>
<polygon fill="#ffffff" stroke="transparent" points="570.5,-38.7 570.5,-57.7 599.5,-57.7 599.5,-38.7 570.5,-38.7"/>
<polygon fill="none" stroke="#000000" points="570.5,-38.7 570.5,-57.7 599.5,-57.7 599.5,-38.7 570.5,-38.7"/>
<text text-anchor="start" x="590.3862" y="-44.8" font-family="Helvetica,sans-Serif" font-size="11.00" fill="#000000"> &#160;</text>
<polygon fill="#ffffff" stroke="transparent" points="599.5,-38.7 599.5,-57.7 629.5,-57.7 629.5,-38.7 599.5,-38.7"/>
<polygon fill="none" stroke="#000000" points="599.5,-38.7 599.5,-57.7 629.5,-57.7 629.5,-38.7 599.5,-38.7"/>
<text text-anchor="start" x="620.3862" y="-44.8" font-family="Helvetica,sans-Serif" font-size="11.00" fill="#000000"> &#160;</text>
</a>
</g>
</g>
<!-- VisitEvents&#45;&gt;Compensation.Employees -->
<g id="edge3" class="edge">
<title>VisitEvents:w&#45;&gt;Compensation.Employees:e</title>
<path fill="none" stroke="#000000" d="M501.0819,-66.7159C476.3436,-66.7689 450.4984,-66.9495 426.1331,-67.1816"/>
<polygon fill="#000000" stroke="#000000" points="507.5,-66.7089 515.504,-70.3 511.5,-66.7044 515.5,-66.7 515.5,-66.7 515.5,-66.7 511.5,-66.7044 515.496,-63.1 507.5,-66.7089 507.5,-66.7089"/>
<ellipse fill="none" stroke="#000000" cx="504.3" cy="-66.7124" rx="3.2" ry="3.2"/>
</g>
<!-- VisitEvents&#45;&gt;Visits -->
<g id="edge4" class="edge">
<title>VisitEvents:w&#45;&gt;Visits:e</title>
<path fill="none" stroke="#000000" d="M501.047,-68.446C481.7254,-73.775 475.9654,-90.6917 459,-110.7 417.1349,-160.0739 454.2338,-238.7 389.5,-238.7"/>
<polygon fill="#000000" stroke="#000000" points="507.5577,-67.6595 515.9318,-70.274 511.5289,-67.1798 515.5,-66.7 515.5,-66.7 515.5,-66.7 511.5289,-67.1798 515.0682,-63.126 507.5577,-67.6595 507.5577,-67.6595"/>
<ellipse fill="none" stroke="#000000" cx="504.3808" cy="-68.0433" rx="3.2" ry="3.2"/>
</g>
</g>
</svg>
