<?xml version="1.0" encoding="UTF-8" standalone="no"?>
<!DOCTYPE svg PUBLIC "-//W3C//DTD SVG 1.1//EN"
 "http://www.w3.org/Graphics/SVG/1.1/DTD/svg11.dtd">
<!-- Generated by graphviz version 2.40.1 (20161225.0304)
 -->
<!-- Title: oneDegreeRelationshipsDiagram Pages: 1 -->
<svg width="422pt" height="271pt"
 viewBox="0.00 0.00 422.00 270.70" xmlns="http://www.w3.org/2000/svg" xmlns:xlink="http://www.w3.org/1999/xlink">
<g id="graph0" class="graph" transform="scale(1 1) rotate(0) translate(4 266.7)">
<title>oneDegreeRelationshipsDiagram</title>
<polygon fill="#ffffff" stroke="transparent" points="-4,4 -4,-266.7 418,-266.7 418,4 -4,4"/>
<text text-anchor="middle" x="72.4936" y="-7.3" font-family="Helvetica,sans-Serif" font-size="11.00" fill="#000000">Generated by SchemaSpy</text>
<!-- VisitEvents -->
<g id="node1" class="node">
<title>VisitEvents</title>
<g id="a_node1"><a xlink:href="../../tables/VisitEvents.html" xlink:title="VisitEvents" target="_top">
<polygon fill="#ffffff" stroke="transparent" points="271,-65.7 271,-258.7 406,-258.7 406,-65.7 271,-65.7"/>
<polygon fill="#f5f5f5" stroke="transparent" points="271.5,-235.2 271.5,-258.2 406.5,-258.2 406.5,-235.2 271.5,-235.2"/>
<polygon fill="none" stroke="#000000" points="271.5,-235.2 271.5,-258.2 406.5,-258.2 406.5,-235.2 271.5,-235.2"/>
<text text-anchor="start" x="276.5" y="-243.8" font-family="Helvetica,sans-Serif" font-weight="bold" font-size="11.00" fill="#000000">VisitEvents</text>
<text text-anchor="start" x="371.5437" y="-243.3" font-family="Helvetica,sans-Serif" font-size="11.00" fill="#000000">[table]</text>
<polygon fill="none" stroke="#000000" points="271.5,-213.2 271.5,-235.2 406.5,-235.2 406.5,-213.2 271.5,-213.2"/>
<image xlink:href="../../images/primaryKeys.png" width="11px" height="12px" preserveAspectRatio="xMinYMin meet" x="276.5" y="-230.2"/>
<text text-anchor="start" x="291.5" y="-220.3" font-family="Helvetica,sans-Serif" font-size="11.00" fill="#000000">Id</text>
<polygon fill="#ffffff" stroke="transparent" points="271.5,-191.2 271.5,-213.2 406.5,-213.2 406.5,-191.2 271.5,-191.2"/>
<polygon fill="none" stroke="#000000" points="271.5,-191.2 271.5,-213.2 406.5,-213.2 406.5,-191.2 271.5,-191.2"/>
<image xlink:href="../../images/foreignKeys.png" width="11px" height="12px" preserveAspectRatio="xMinYMin meet" x="276.5" y="-208.2"/>
<text text-anchor="start" x="291.5" y="-198.3" font-family="Helvetica,sans-Serif" font-size="11.00" fill="#000000">VisitId</text>
<polygon fill="#ffffff" stroke="transparent" points="271.5,-169.2 271.5,-191.2 406.5,-191.2 406.5,-169.2 271.5,-169.2"/>
<polygon fill="none" stroke="#000000" points="271.5,-169.2 271.5,-191.2 406.5,-191.2 406.5,-169.2 271.5,-169.2"/>
<image xlink:href="../../images/foreignKeys.png" width="11px" height="12px" preserveAspectRatio="xMinYMin meet" x="276.5" y="-186.2"/>
<text text-anchor="start" x="291.5" y="-176.3" font-family="Helvetica,sans-Serif" font-size="11.00" fill="#000000">EventTypeId</text>
<polygon fill="#ffffff" stroke="transparent" points="271.5,-147.2 271.5,-169.2 406.5,-169.2 406.5,-147.2 271.5,-147.2"/>
<polygon fill="none" stroke="#000000" points="271.5,-147.2 271.5,-169.2 406.5,-169.2 406.5,-147.2 271.5,-147.2"/>
<text text-anchor="start" x="291.5" y="-154.3" font-family="Helvetica,sans-Serif" font-size="11.00" fill="#000000">EventOccurredAt</text>
<polygon fill="#ffffff" stroke="transparent" points="271.5,-125.2 271.5,-147.2 406.5,-147.2 406.5,-125.2 271.5,-125.2"/>
<polygon fill="none" stroke="#000000" points="271.5,-125.2 271.5,-147.2 406.5,-147.2 406.5,-125.2 271.5,-125.2"/>
<image xlink:href="../../images/foreignKeys.png" width="11px" height="12px" preserveAspectRatio="xMinYMin meet" x="276.5" y="-142.2"/>
<text text-anchor="start" x="291.5" y="-132.3" font-family="Helvetica,sans-Serif" font-size="11.00" fill="#000000">EnteredByUserId</text>
<polygon fill="#ffffff" stroke="transparent" points="271.5,-103.2 271.5,-125.2 406.5,-125.2 406.5,-103.2 271.5,-103.2"/>
<polygon fill="none" stroke="#000000" points="271.5,-103.2 271.5,-125.2 406.5,-125.2 406.5,-103.2 271.5,-103.2"/>
<image xlink:href="../../images/foreignKeys.png" width="11px" height="12px" preserveAspectRatio="xMinYMin meet" x="276.5" y="-120.2"/>
<text text-anchor="start" x="291.5" y="-110.3" font-family="Helvetica,sans-Serif" font-size="11.00" fill="#000000">EmployeeId</text>
<polygon fill="none" stroke="#000000" points="271.5,-84.2 271.5,-103.2 406.5,-103.2 406.5,-84.2 271.5,-84.2"/>
<text text-anchor="start" x="274.5" y="-90.3" font-family="Helvetica,sans-Serif" font-size="11.00" fill="#000000">...</text>
<polygon fill="#ffffff" stroke="transparent" points="271.5,-65.2 271.5,-84.2 337.5,-84.2 337.5,-65.2 271.5,-65.2"/>
<polygon fill="none" stroke="#000000" points="271.5,-65.2 271.5,-84.2 337.5,-84.2 337.5,-65.2 271.5,-65.2"/>
<text text-anchor="start" x="274.5" y="-71.3" font-family="Helvetica,sans-Serif" font-size="11.00" fill="#000000">&lt; 4</text>
<polygon fill="#ffffff" stroke="transparent" points="337.5,-65.2 337.5,-84.2 371.5,-84.2 371.5,-65.2 337.5,-65.2"/>
<polygon fill="none" stroke="#000000" points="337.5,-65.2 337.5,-84.2 371.5,-84.2 371.5,-65.2 337.5,-65.2"/>
<text text-anchor="start" x="362.3862" y="-71.3" font-family="Helvetica,sans-Serif" font-size="11.00" fill="#000000"> &#160;</text>
<polygon fill="#ffffff" stroke="transparent" points="371.5,-65.2 371.5,-84.2 406.5,-84.2 406.5,-65.2 371.5,-65.2"/>
<polygon fill="none" stroke="#000000" points="371.5,-65.2 371.5,-84.2 406.5,-84.2 406.5,-65.2 371.5,-65.2"/>
<text text-anchor="start" x="397.3862" y="-71.3" font-family="Helvetica,sans-Serif" font-size="11.00" fill="#000000"> &#160;</text>
</a>
</g>
</g>
<!-- VisitEventTypes -->
<g id="node2" class="node">
<title>VisitEventTypes</title>
<g id="a_node2"><a xlink:href="../../tables/VisitEventTypes.html" xlink:title="VisitEventTypes" target="_top">
<polygon fill="#ffffff" stroke="transparent" points="8,-38.2 8,-216.2 222,-216.2 222,-38.2 8,-38.2"/>
<polygon fill="#f5f5f5" stroke="transparent" points="10,-191.2 10,-214.2 220,-214.2 220,-191.2 10,-191.2"/>
<polygon fill="none" stroke="#000000" points="10,-191.2 10,-214.2 220,-214.2 220,-191.2 10,-191.2"/>
<text text-anchor="start" x="15" y="-199.8" font-family="Helvetica,sans-Serif" font-weight="bold" font-size="11.00" fill="#000000">VisitEventTypes</text>
<text text-anchor="start" x="185.0437" y="-199.3" font-family="Helvetica,sans-Serif" font-size="11.00" fill="#000000">[table]</text>
<polygon fill="none" stroke="#000000" points="10,-169.2 10,-191.2 139,-191.2 139,-169.2 10,-169.2"/>
<image xlink:href="../../images/primaryKeys.png" width="11px" height="12px" preserveAspectRatio="xMinYMin meet" x="15" y="-186.2"/>
<text text-anchor="start" x="30" y="-176.3" font-family="Helvetica,sans-Serif" font-size="11.00" fill="#000000">Id</text>
<polygon fill="none" stroke="#000000" points="139,-169.2 139,-191.2 220,-191.2 220,-169.2 139,-169.2"/>
<text text-anchor="start" x="142" y="-176.9" font-family="Helvetica,sans-Serif" font-size="11.00" fill="#000000">int identity[4]</text>
<polygon fill="#ffffff" stroke="transparent" points="10,-147.2 10,-169.2 139,-169.2 139,-147.2 10,-147.2"/>
<polygon fill="none" stroke="#000000" points="10,-147.2 10,-169.2 139,-169.2 139,-147.2 10,-147.2"/>
<text text-anchor="start" x="30" y="-154.3" font-family="Helvetica,sans-Serif" font-size="11.00" fill="#000000">Code</text>
<polygon fill="none" stroke="#000000" points="139,-147.2 139,-169.2 220,-169.2 220,-147.2 139,-147.2"/>
<text text-anchor="start" x="142" y="-154.9" font-family="Helvetica,sans-Serif" font-size="11.00" fill="#000000">nvarchar[100]</text>
<polygon fill="none" stroke="#000000" points="10,-125.2 10,-147.2 139,-147.2 139,-125.2 10,-125.2"/>
<text text-anchor="start" x="30" y="-132.3" font-family="Helvetica,sans-Serif" font-size="11.00" fill="#000000">Name</text>
<polygon fill="none" stroke="#000000" points="139,-125.2 139,-147.2 220,-147.2 220,-125.2 139,-125.2"/>
<text text-anchor="start" x="142" y="-132.9" font-family="Helvetica,sans-Serif" font-size="11.00" fill="#000000">nvarchar[200]</text>
<polygon fill="none" stroke="#000000" points="10,-103.2 10,-125.2 139,-125.2 139,-103.2 10,-103.2"/>
<text text-anchor="start" x="30" y="-110.3" font-family="Helvetica,sans-Serif" font-size="11.00" fill="#000000">CreatedAtUtc</text>
<polygon fill="none" stroke="#000000" points="139,-103.2 139,-125.2 220,-125.2 220,-103.2 139,-103.2"/>
<text text-anchor="start" x="141.5967" y="-110.9" font-family="Helvetica,sans-Serif" font-size="11.00" fill="#000000">datetime2[16,7]</text>
<polygon fill="none" stroke="#000000" points="10,-81.2 10,-103.2 139,-103.2 139,-81.2 10,-81.2"/>
<text text-anchor="start" x="30" y="-88.3" font-family="Helvetica,sans-Serif" font-size="11.00" fill="#000000">UpdatedAtUtc</text>
<polygon fill="none" stroke="#000000" points="139,-81.2 139,-103.2 220,-103.2 220,-81.2 139,-81.2"/>
<text text-anchor="start" x="141.5967" y="-88.9" font-family="Helvetica,sans-Serif" font-size="11.00" fill="#000000">datetime2[16,7]</text>
<polygon fill="none" stroke="#000000" points="10,-59.2 10,-81.2 139,-81.2 139,-59.2 10,-59.2"/>
<text text-anchor="start" x="30" y="-66.3" font-family="Helvetica,sans-Serif" font-size="11.00" fill="#000000">RowVersion</text>
<polygon fill="none" stroke="#000000" points="139,-59.2 139,-81.2 220,-81.2 220,-59.2 139,-59.2"/>
<text text-anchor="start" x="142" y="-66.9" font-family="Helvetica,sans-Serif" font-size="11.00" fill="#000000">timestamp[8]</text>
<polygon fill="#ffffff" stroke="transparent" points="10,-40.2 10,-59.2 79,-59.2 79,-40.2 10,-40.2"/>
<polygon fill="none" stroke="#000000" points="10,-40.2 10,-59.2 79,-59.2 79,-40.2 10,-40.2"/>
<text text-anchor="start" x="13" y="-46.3" font-family="Helvetica,sans-Serif" font-size="11.00" fill="#000000">&lt; 0</text>
<polygon fill="#ffffff" stroke="transparent" points="79,-40.2 79,-59.2 139,-59.2 139,-40.2 79,-40.2"/>
<polygon fill="none" stroke="#000000" points="79,-40.2 79,-59.2 139,-59.2 139,-40.2 79,-40.2"/>
<text text-anchor="start" x="129.8862" y="-46.3" font-family="Helvetica,sans-Serif" font-size="11.00" fill="#000000"> &#160;</text>
<polygon fill="#ffffff" stroke="transparent" points="139,-40.2 139,-59.2 220,-59.2 220,-40.2 139,-40.2"/>
<polygon fill="none" stroke="#000000" points="139,-40.2 139,-59.2 220,-59.2 220,-40.2 139,-40.2"/>
<text text-anchor="start" x="201.4053" y="-46.3" font-family="Helvetica,sans-Serif" font-size="11.00" fill="#000000">1 &gt;</text>
<polygon fill="none" stroke="#000000" stroke-width="2" points="9,-39.2 9,-215.2 221,-215.2 221,-39.2 9,-39.2"/>
</a>
</g>
</g>
<!-- VisitEvents&#45;&gt;VisitEventTypes -->
<g id="edge1" class="edge">
<title>VisitEvents:w&#45;&gt;VisitEventTypes:e</title>
<path fill="none" stroke="#000000" d="M257.0156,-180.2C244.6771,-180.2 237.1667,-180.2 220,-180.2"/>
<polygon fill="#000000" stroke="#000000" points="263.5,-180.2001 271.5,-183.8 267.5,-180.2 271.5,-180.2 271.5,-180.2 271.5,-180.2 267.5,-180.2 271.5,-176.6 263.5,-180.2001 263.5,-180.2001"/>
<ellipse fill="none" stroke="#000000" cx="260.3" cy="-180.2001" rx="3.2" ry="3.2"/>
</g>
</g>
</svg>
