<?xml version="1.0" encoding="UTF-8" standalone="no"?>
<!DOCTYPE svg PUBLIC "-//W3C//DTD SVG 1.1//EN"
 "http://www.w3.org/Graphics/SVG/1.1/DTD/svg11.dtd">
<!-- Generated by graphviz version 2.40.1 (20161225.0304)
 -->
<!-- Title: oneDegreeRelationshipsDiagram Pages: 1 -->
<svg width="685pt" height="411pt"
 viewBox="0.00 0.00 685.00 410.70" xmlns="http://www.w3.org/2000/svg" xmlns:xlink="http://www.w3.org/1999/xlink">
<g id="graph0" class="graph" transform="scale(1 1) rotate(0) translate(4 406.7)">
<title>oneDegreeRelationshipsDiagram</title>
<polygon fill="#ffffff" stroke="transparent" points="-4,4 -4,-406.7 681,-406.7 681,4 -4,4"/>
<text text-anchor="middle" x="72.4936" y="-7.3" font-family="Helvetica,sans-Serif" font-size="11.00" fill="#000000">Generated by SchemaSpy</text>
<!-- VisitAttendants -->
<g id="node1" class="node">
<title>VisitAttendants</title>
<g id="a_node1"><a xlink:href="../../tables/VisitAttendants.html" xlink:title="VisitAttendants" target="_top">
<polygon fill="#ffffff" stroke="transparent" points="525,-271.7 525,-398.7 669,-398.7 669,-271.7 525,-271.7"/>
<polygon fill="#f5f5f5" stroke="transparent" points="525,-375.2 525,-398.2 669,-398.2 669,-375.2 525,-375.2"/>
<polygon fill="none" stroke="#000000" points="525,-375.2 525,-398.2 669,-398.2 669,-375.2 525,-375.2"/>
<text text-anchor="start" x="530" y="-383.8" font-family="Helvetica,sans-Serif" font-weight="bold" font-size="11.00" fill="#000000">VisitAttendants</text>
<text text-anchor="start" x="634.5219" y="-383.3" font-family="Helvetica,sans-Serif" font-size="11.00" fill="#000000">[table]</text>
<polygon fill="none" stroke="#000000" points="525,-353.2 525,-375.2 669,-375.2 669,-353.2 525,-353.2"/>
<image xlink:href="../../images/primaryKeys.png" width="11px" height="12px" preserveAspectRatio="xMinYMin meet" x="530" y="-370.2"/>
<text text-anchor="start" x="554" y="-360.3" font-family="Helvetica,sans-Serif" font-size="11.00" fill="#000000">Id</text>
<polygon fill="#ffffff" stroke="transparent" points="525,-331.2 525,-353.2 669,-353.2 669,-331.2 525,-331.2"/>
<polygon fill="none" stroke="#000000" points="525,-331.2 525,-353.2 669,-353.2 669,-331.2 525,-331.2"/>
<image xlink:href="../../images/foreignKeys.png" width="11px" height="12px" preserveAspectRatio="xMinYMin meet" x="530" y="-348.2"/>
<text text-anchor="start" x="554" y="-338.3" font-family="Helvetica,sans-Serif" font-size="11.00" fill="#000000">VisitId</text>
<polygon fill="#ffffff" stroke="transparent" points="525,-309.2 525,-331.2 669,-331.2 669,-309.2 525,-309.2"/>
<polygon fill="none" stroke="#000000" points="525,-309.2 525,-331.2 669,-331.2 669,-309.2 525,-309.2"/>
<image xlink:href="../../images/foreignKeys.png" width="11px" height="12px" preserveAspectRatio="xMinYMin meet" x="530" y="-326.2"/>
<text text-anchor="start" x="554" y="-316.3" font-family="Helvetica,sans-Serif" font-size="11.00" fill="#000000">EmployeeId</text>
<polygon fill="none" stroke="#000000" points="525,-290.2 525,-309.2 669,-309.2 669,-290.2 525,-290.2"/>
<text text-anchor="start" x="528" y="-296.3" font-family="Helvetica,sans-Serif" font-size="11.00" fill="#000000">...</text>
<polygon fill="#ffffff" stroke="transparent" points="525,-271.2 525,-290.2 595,-290.2 595,-271.2 525,-271.2"/>
<polygon fill="none" stroke="#000000" points="525,-271.2 525,-290.2 595,-290.2 595,-271.2 525,-271.2"/>
<text text-anchor="start" x="528" y="-277.3" font-family="Helvetica,sans-Serif" font-size="11.00" fill="#000000">&lt; 2</text>
<polygon fill="#ffffff" stroke="transparent" points="595,-271.2 595,-290.2 632,-290.2 632,-271.2 595,-271.2"/>
<polygon fill="none" stroke="#000000" points="595,-271.2 595,-290.2 632,-290.2 632,-271.2 595,-271.2"/>
<text text-anchor="start" x="622.8862" y="-277.3" font-family="Helvetica,sans-Serif" font-size="11.00" fill="#000000"> &#160;</text>
<polygon fill="#ffffff" stroke="transparent" points="632,-271.2 632,-290.2 669,-290.2 669,-271.2 632,-271.2"/>
<polygon fill="none" stroke="#000000" points="632,-271.2 632,-290.2 669,-290.2 669,-271.2 632,-271.2"/>
<text text-anchor="start" x="659.8862" y="-277.3" font-family="Helvetica,sans-Serif" font-size="11.00" fill="#000000"> &#160;</text>
</a>
</g>
</g>
<!-- Visits -->
<g id="node2" class="node">
<title>Visits</title>
<g id="a_node2"><a xlink:href="../../tables/Visits.html" xlink:title="Visits" target="_top">
<polygon fill="#ffffff" stroke="transparent" points="236,-38.2 236,-304.2 476,-304.2 476,-38.2 236,-38.2"/>
<polygon fill="#f5f5f5" stroke="transparent" points="238,-279.2 238,-302.2 474,-302.2 474,-279.2 238,-279.2"/>
<polygon fill="none" stroke="#000000" points="238,-279.2 238,-302.2 474,-302.2 474,-279.2 238,-279.2"/>
<text text-anchor="start" x="243" y="-287.8" font-family="Helvetica,sans-Serif" font-weight="bold" font-size="11.00" fill="#000000">Visits</text>
<text text-anchor="start" x="439.0437" y="-287.3" font-family="Helvetica,sans-Serif" font-size="11.00" fill="#000000">[table]</text>
<polygon fill="none" stroke="#000000" points="238,-257.2 238,-279.2 393,-279.2 393,-257.2 238,-257.2"/>
<image xlink:href="../../images/primaryKeys.png" width="11px" height="12px" preserveAspectRatio="xMinYMin meet" x="243" y="-274.2"/>
<text text-anchor="start" x="258" y="-264.3" font-family="Helvetica,sans-Serif" font-size="11.00" fill="#000000">Id</text>
<polygon fill="none" stroke="#000000" points="393,-257.2 393,-279.2 474,-279.2 474,-257.2 393,-257.2"/>
<text text-anchor="start" x="396" y="-264.9" font-family="Helvetica,sans-Serif" font-size="11.00" fill="#000000">int identity[4]</text>
<polygon fill="#ffffff" stroke="transparent" points="238,-235.2 238,-257.2 393,-257.2 393,-235.2 238,-235.2"/>
<polygon fill="none" stroke="#000000" points="238,-235.2 238,-257.2 393,-257.2 393,-235.2 238,-235.2"/>
<text text-anchor="start" x="258" y="-242.3" font-family="Helvetica,sans-Serif" font-size="11.00" fill="#000000">DateServiced</text>
<polygon fill="none" stroke="#000000" points="393,-235.2 393,-257.2 474,-257.2 474,-235.2 393,-235.2"/>
<text text-anchor="start" x="396" y="-242.9" font-family="Helvetica,sans-Serif" font-size="11.00" fill="#000000">date[6]</text>
<polygon fill="#ffffff" stroke="transparent" points="238,-213.2 238,-235.2 393,-235.2 393,-213.2 238,-213.2"/>
<polygon fill="none" stroke="#000000" points="238,-213.2 238,-235.2 393,-235.2 393,-213.2 238,-213.2"/>
<image xlink:href="../../images/foreignKeys.png" width="11px" height="12px" preserveAspectRatio="xMinYMin meet" x="243" y="-230.2"/>
<text text-anchor="start" x="258" y="-220.3" font-family="Helvetica,sans-Serif" font-size="11.00" fill="#000000">HospitalizationId</text>
<polygon fill="none" stroke="#000000" points="393,-213.2 393,-235.2 474,-235.2 474,-213.2 393,-213.2"/>
<text text-anchor="start" x="396" y="-220.9" font-family="Helvetica,sans-Serif" font-size="11.00" fill="#000000">int[4]</text>
<polygon fill="none" stroke="#000000" points="238,-191.2 238,-213.2 393,-213.2 393,-191.2 238,-191.2"/>
<text text-anchor="start" x="258" y="-198.3" font-family="Helvetica,sans-Serif" font-size="11.00" fill="#000000">IsScribeServiceOnly</text>
<polygon fill="none" stroke="#000000" points="393,-191.2 393,-213.2 474,-213.2 474,-191.2 393,-191.2"/>
<text text-anchor="start" x="396" y="-198.9" font-family="Helvetica,sans-Serif" font-size="11.00" fill="#000000">bit[1]</text>
<polygon fill="#ffffff" stroke="transparent" points="238,-169.2 238,-191.2 393,-191.2 393,-169.2 238,-169.2"/>
<polygon fill="none" stroke="#000000" points="238,-169.2 238,-191.2 393,-191.2 393,-169.2 238,-169.2"/>
<image xlink:href="../../images/foreignKeys.png" width="11px" height="12px" preserveAspectRatio="xMinYMin meet" x="243" y="-186.2"/>
<text text-anchor="start" x="258" y="-176.3" font-family="Helvetica,sans-Serif" font-size="11.00" fill="#000000">ServiceTypeId</text>
<polygon fill="none" stroke="#000000" points="393,-169.2 393,-191.2 474,-191.2 474,-169.2 393,-169.2"/>
<text text-anchor="start" x="396" y="-176.9" font-family="Helvetica,sans-Serif" font-size="11.00" fill="#000000">int[4]</text>
<polygon fill="none" stroke="#000000" points="238,-147.2 238,-169.2 393,-169.2 393,-147.2 238,-147.2"/>
<text text-anchor="start" x="258" y="-154.3" font-family="Helvetica,sans-Serif" font-size="11.00" fill="#000000">Room</text>
<polygon fill="none" stroke="#000000" points="393,-147.2 393,-169.2 474,-169.2 474,-147.2 393,-147.2"/>
<text text-anchor="start" x="396" y="-154.9" font-family="Helvetica,sans-Serif" font-size="11.00" fill="#000000">nvarchar[40]</text>
<polygon fill="none" stroke="#000000" points="238,-125.2 238,-147.2 393,-147.2 393,-125.2 238,-125.2"/>
<text text-anchor="start" x="258" y="-132.3" font-family="Helvetica,sans-Serif" font-size="11.00" fill="#000000">Bed</text>
<polygon fill="none" stroke="#000000" points="393,-125.2 393,-147.2 474,-147.2 474,-125.2 393,-125.2"/>
<text text-anchor="start" x="396" y="-132.9" font-family="Helvetica,sans-Serif" font-size="11.00" fill="#000000">nvarchar[10]</text>
<polygon fill="none" stroke="#000000" points="238,-103.2 238,-125.2 393,-125.2 393,-103.2 238,-103.2"/>
<text text-anchor="start" x="258" y="-110.3" font-family="Helvetica,sans-Serif" font-size="11.00" fill="#000000">CreatedAtUtc</text>
<polygon fill="none" stroke="#000000" points="393,-103.2 393,-125.2 474,-125.2 474,-103.2 393,-103.2"/>
<text text-anchor="start" x="395.5968" y="-110.9" font-family="Helvetica,sans-Serif" font-size="11.00" fill="#000000">datetime2[16,7]</text>
<polygon fill="none" stroke="#000000" points="238,-81.2 238,-103.2 393,-103.2 393,-81.2 238,-81.2"/>
<text text-anchor="start" x="258" y="-88.3" font-family="Helvetica,sans-Serif" font-size="11.00" fill="#000000">UpdatedAtUtc</text>
<polygon fill="none" stroke="#000000" points="393,-81.2 393,-103.2 474,-103.2 474,-81.2 393,-81.2"/>
<text text-anchor="start" x="395.5968" y="-88.9" font-family="Helvetica,sans-Serif" font-size="11.00" fill="#000000">datetime2[16,7]</text>
<polygon fill="none" stroke="#000000" points="238,-59.2 238,-81.2 393,-81.2 393,-59.2 238,-59.2"/>
<text text-anchor="start" x="258" y="-66.3" font-family="Helvetica,sans-Serif" font-size="11.00" fill="#000000">RowVersion</text>
<polygon fill="none" stroke="#000000" points="393,-59.2 393,-81.2 474,-81.2 474,-59.2 393,-59.2"/>
<text text-anchor="start" x="396" y="-66.9" font-family="Helvetica,sans-Serif" font-size="11.00" fill="#000000">timestamp[8]</text>
<polygon fill="#ffffff" stroke="transparent" points="238,-40.2 238,-59.2 320,-59.2 320,-40.2 238,-40.2"/>
<polygon fill="none" stroke="#000000" points="238,-40.2 238,-59.2 320,-59.2 320,-40.2 238,-40.2"/>
<text text-anchor="start" x="241" y="-46.3" font-family="Helvetica,sans-Serif" font-size="11.00" fill="#000000">&lt; 2</text>
<polygon fill="#ffffff" stroke="transparent" points="320,-40.2 320,-59.2 393,-59.2 393,-40.2 320,-40.2"/>
<polygon fill="none" stroke="#000000" points="320,-40.2 320,-59.2 393,-59.2 393,-40.2 320,-40.2"/>
<text text-anchor="start" x="383.8862" y="-46.3" font-family="Helvetica,sans-Serif" font-size="11.00" fill="#000000"> &#160;</text>
<polygon fill="#ffffff" stroke="transparent" points="393,-40.2 393,-59.2 474,-59.2 474,-40.2 393,-40.2"/>
<polygon fill="none" stroke="#000000" points="393,-40.2 393,-59.2 474,-59.2 474,-40.2 393,-40.2"/>
<text text-anchor="start" x="455.4053" y="-46.3" font-family="Helvetica,sans-Serif" font-size="11.00" fill="#000000">2 &gt;</text>
<polygon fill="none" stroke="#000000" stroke-width="2" points="237,-39.2 237,-303.2 475,-303.2 475,-39.2 237,-39.2"/>
</a>
</g>
</g>
<!-- VisitAttendants&#45;&gt;Visits -->
<g id="edge1" class="edge">
<title>VisitAttendants:w&#45;&gt;Visits:e</title>
<path fill="none" stroke="#000000" d="M511.0503,-337.571C492.2607,-321.3706 507.8581,-268.2 474,-268.2"/>
<polygon fill="#000000" stroke="#000000" points="517.4071,-339.6804 523.8662,-345.6168 521.2036,-340.9402 525,-342.2 525,-342.2 525,-342.2 521.2036,-340.9402 526.1338,-338.7832 517.4071,-339.6804 517.4071,-339.6804"/>
<ellipse fill="none" stroke="#000000" cx="514.37" cy="-338.6725" rx="3.2" ry="3.2"/>
</g>
<!-- Hospitalizations -->
<g id="node4" class="node">
<title>Hospitalizations</title>
<g id="a_node4"><a xlink:href="../../tables/Hospitalizations.html" xlink:title="Hospitalizations" target="_top">
<polygon fill="#ffffff" stroke="transparent" points="8,-161.7 8,-332.7 187,-332.7 187,-161.7 8,-161.7"/>
<polygon fill="#f5f5f5" stroke="transparent" points="8.5,-309.2 8.5,-332.2 187.5,-332.2 187.5,-309.2 8.5,-309.2"/>
<polygon fill="none" stroke="#000000" points="8.5,-309.2 8.5,-332.2 187.5,-332.2 187.5,-309.2 8.5,-309.2"/>
<text text-anchor="start" x="13.5" y="-317.8" font-family="Helvetica,sans-Serif" font-weight="bold" font-size="11.00" fill="#000000">Hospitalizations</text>
<text text-anchor="start" x="152.5437" y="-317.3" font-family="Helvetica,sans-Serif" font-size="11.00" fill="#000000">[table]</text>
<polygon fill="none" stroke="#000000" points="8.5,-287.2 8.5,-309.2 187.5,-309.2 187.5,-287.2 8.5,-287.2"/>
<image xlink:href="../../images/primaryKeys.png" width="11px" height="12px" preserveAspectRatio="xMinYMin meet" x="13.5" y="-304.2"/>
<text text-anchor="start" x="28.5" y="-294.3" font-family="Helvetica,sans-Serif" font-size="11.00" fill="#000000">Id</text>
<polygon fill="#ffffff" stroke="transparent" points="8.5,-265.2 8.5,-287.2 187.5,-287.2 187.5,-265.2 8.5,-265.2"/>
<polygon fill="none" stroke="#000000" points="8.5,-265.2 8.5,-287.2 187.5,-287.2 187.5,-265.2 8.5,-265.2"/>
<image xlink:href="../../images/foreignKeys.png" width="11px" height="12px" preserveAspectRatio="xMinYMin meet" x="13.5" y="-282.2"/>
<text text-anchor="start" x="28.5" y="-272.3" font-family="Helvetica,sans-Serif" font-size="11.00" fill="#000000">PatientId</text>
<polygon fill="#ffffff" stroke="transparent" points="8.5,-243.2 8.5,-265.2 187.5,-265.2 187.5,-243.2 8.5,-243.2"/>
<polygon fill="none" stroke="#000000" points="8.5,-243.2 8.5,-265.2 187.5,-265.2 187.5,-243.2 8.5,-243.2"/>
<text text-anchor="start" x="28.5" y="-250.3" font-family="Helvetica,sans-Serif" font-size="11.00" fill="#000000">CaseId</text>
<polygon fill="#ffffff" stroke="transparent" points="8.5,-221.2 8.5,-243.2 187.5,-243.2 187.5,-221.2 8.5,-221.2"/>
<polygon fill="none" stroke="#000000" points="8.5,-221.2 8.5,-243.2 187.5,-243.2 187.5,-221.2 8.5,-221.2"/>
<image xlink:href="../../images/foreignKeys.png" width="11px" height="12px" preserveAspectRatio="xMinYMin meet" x="13.5" y="-238.2"/>
<text text-anchor="start" x="28.5" y="-228.3" font-family="Helvetica,sans-Serif" font-size="11.00" fill="#000000">FacilityId</text>
<polygon fill="none" stroke="#000000" points="8.5,-199.2 8.5,-221.2 187.5,-221.2 187.5,-199.2 8.5,-199.2"/>
<image xlink:href="../../images/foreignKeys.png" width="11px" height="12px" preserveAspectRatio="xMinYMin meet" x="13.5" y="-216.2"/>
<text text-anchor="start" x="28.5" y="-206.3" font-family="Helvetica,sans-Serif" font-size="11.00" fill="#000000">HospitalizationStatusId</text>
<polygon fill="none" stroke="#000000" points="8.5,-180.2 8.5,-199.2 187.5,-199.2 187.5,-180.2 8.5,-180.2"/>
<text text-anchor="start" x="11.5" y="-186.3" font-family="Helvetica,sans-Serif" font-size="11.00" fill="#000000">...</text>
<polygon fill="#ffffff" stroke="transparent" points="8.5,-161.2 8.5,-180.2 91.5,-180.2 91.5,-161.2 8.5,-161.2"/>
<polygon fill="none" stroke="#000000" points="8.5,-161.2 8.5,-180.2 91.5,-180.2 91.5,-161.2 8.5,-161.2"/>
<text text-anchor="start" x="11.5" y="-167.3" font-family="Helvetica,sans-Serif" font-size="11.00" fill="#000000">&lt; 3</text>
<polygon fill="#ffffff" stroke="transparent" points="91.5,-161.2 91.5,-180.2 134.5,-180.2 134.5,-161.2 91.5,-161.2"/>
<polygon fill="none" stroke="#000000" points="91.5,-161.2 91.5,-180.2 134.5,-180.2 134.5,-161.2 91.5,-161.2"/>
<text text-anchor="start" x="125.3862" y="-167.3" font-family="Helvetica,sans-Serif" font-size="11.00" fill="#000000"> &#160;</text>
<polygon fill="#ffffff" stroke="transparent" points="134.5,-161.2 134.5,-180.2 187.5,-180.2 187.5,-161.2 134.5,-161.2"/>
<polygon fill="none" stroke="#000000" points="134.5,-161.2 134.5,-180.2 187.5,-180.2 187.5,-161.2 134.5,-161.2"/>
<text text-anchor="start" x="168.9053" y="-167.3" font-family="Helvetica,sans-Serif" font-size="11.00" fill="#000000">3 &gt;</text>
</a>
</g>
</g>
<!-- Visits&#45;&gt;Hospitalizations -->
<g id="edge3" class="edge">
<title>Visits:w&#45;&gt;Hospitalizations:e</title>
<path fill="none" stroke="#000000" d="M224.1154,-228.829C205.4593,-245.0294 221.2515,-298.2 187.5,-298.2"/>
<polygon fill="#000000" stroke="#000000" points="230.4107,-226.7303 239.1386,-227.6152 234.2053,-225.4651 238,-224.2 238,-224.2 238,-224.2 234.2053,-225.4651 236.8614,-220.7848 230.4107,-226.7303 230.4107,-226.7303"/>
<ellipse fill="none" stroke="#000000" cx="227.3749" cy="-227.7424" rx="3.2" ry="3.2"/>
</g>
<!-- ServiceTypes -->
<g id="node5" class="node">
<title>ServiceTypes</title>
<g id="a_node5"><a xlink:href="../../tables/ServiceTypes.html" xlink:title="ServiceTypes" target="_top">
<polygon fill="#ffffff" stroke="transparent" points="33.5,-57.7 33.5,-140.7 161.5,-140.7 161.5,-57.7 33.5,-57.7"/>
<polygon fill="#f5f5f5" stroke="transparent" points="33.5,-117.2 33.5,-140.2 161.5,-140.2 161.5,-117.2 33.5,-117.2"/>
<polygon fill="none" stroke="#000000" points="33.5,-117.2 33.5,-140.2 161.5,-140.2 161.5,-117.2 33.5,-117.2"/>
<text text-anchor="start" x="38.5" y="-125.8" font-family="Helvetica,sans-Serif" font-weight="bold" font-size="11.00" fill="#000000">ServiceTypes</text>
<text text-anchor="start" x="127.0219" y="-125.3" font-family="Helvetica,sans-Serif" font-size="11.00" fill="#000000">[table]</text>
<polygon fill="none" stroke="#000000" points="33.5,-95.2 33.5,-117.2 161.5,-117.2 161.5,-95.2 33.5,-95.2"/>
<image xlink:href="../../images/primaryKeys.png" width="11px" height="12px" preserveAspectRatio="xMinYMin meet" x="38.5" y="-112.2"/>
<text text-anchor="start" x="59.5" y="-102.3" font-family="Helvetica,sans-Serif" font-size="11.00" fill="#000000">Id</text>
<polygon fill="none" stroke="#000000" points="33.5,-76.2 33.5,-95.2 161.5,-95.2 161.5,-76.2 33.5,-76.2"/>
<text text-anchor="start" x="36.5" y="-82.3" font-family="Helvetica,sans-Serif" font-size="11.00" fill="#000000">...</text>
<polygon fill="#ffffff" stroke="transparent" points="33.5,-57.2 33.5,-76.2 86.5,-76.2 86.5,-57.2 33.5,-57.2"/>
<polygon fill="none" stroke="#000000" points="33.5,-57.2 33.5,-76.2 86.5,-76.2 86.5,-57.2 33.5,-57.2"/>
<text text-anchor="start" x="36.5" y="-63.3" font-family="Helvetica,sans-Serif" font-size="11.00" fill="#000000"> &#160;</text>
<polygon fill="#ffffff" stroke="transparent" points="86.5,-57.2 86.5,-76.2 119.5,-76.2 119.5,-57.2 86.5,-57.2"/>
<polygon fill="none" stroke="#000000" points="86.5,-57.2 86.5,-76.2 119.5,-76.2 119.5,-57.2 86.5,-57.2"/>
<text text-anchor="start" x="110.3862" y="-63.3" font-family="Helvetica,sans-Serif" font-size="11.00" fill="#000000"> &#160;</text>
<polygon fill="#ffffff" stroke="transparent" points="119.5,-57.2 119.5,-76.2 161.5,-76.2 161.5,-57.2 119.5,-57.2"/>
<polygon fill="none" stroke="#000000" points="119.5,-57.2 119.5,-76.2 161.5,-76.2 161.5,-57.2 119.5,-57.2"/>
<text text-anchor="start" x="142.9053" y="-63.3" font-family="Helvetica,sans-Serif" font-size="11.00" fill="#000000">1 &gt;</text>
</a>
</g>
</g>
<!-- Visits&#45;&gt;ServiceTypes -->
<g id="edge4" class="edge">
<title>Visits:w&#45;&gt;ServiceTypes:e</title>
<path fill="none" stroke="#000000" d="M223.854,-177.3895C194.0417,-163.8725 203.2607,-106.2 161.5,-106.2"/>
<polygon fill="#000000" stroke="#000000" points="230.1534,-178.641 237.2984,-183.731 234.0767,-179.4205 238,-180.2 238,-180.2 238,-180.2 234.0767,-179.4205 238.7016,-176.669 230.1534,-178.641 230.1534,-178.641"/>
<ellipse fill="none" stroke="#000000" cx="227.0147" cy="-178.0174" rx="3.2" ry="3.2"/>
</g>
<!-- VisitEvents -->
<g id="node3" class="node">
<title>VisitEvents</title>
<g id="a_node3"><a xlink:href="../../tables/VisitEvents.html" xlink:title="VisitEvents" target="_top">
<polygon fill="#ffffff" stroke="transparent" points="529.5,-57.7 529.5,-250.7 664.5,-250.7 664.5,-57.7 529.5,-57.7"/>
<polygon fill="#f5f5f5" stroke="transparent" points="530,-227.2 530,-250.2 665,-250.2 665,-227.2 530,-227.2"/>
<polygon fill="none" stroke="#000000" points="530,-227.2 530,-250.2 665,-250.2 665,-227.2 530,-227.2"/>
<text text-anchor="start" x="535" y="-235.8" font-family="Helvetica,sans-Serif" font-weight="bold" font-size="11.00" fill="#000000">VisitEvents</text>
<text text-anchor="start" x="630.0437" y="-235.3" font-family="Helvetica,sans-Serif" font-size="11.00" fill="#000000">[table]</text>
<polygon fill="none" stroke="#000000" points="530,-205.2 530,-227.2 665,-227.2 665,-205.2 530,-205.2"/>
<image xlink:href="../../images/primaryKeys.png" width="11px" height="12px" preserveAspectRatio="xMinYMin meet" x="535" y="-222.2"/>
<text text-anchor="start" x="550" y="-212.3" font-family="Helvetica,sans-Serif" font-size="11.00" fill="#000000">Id</text>
<polygon fill="#ffffff" stroke="transparent" points="530,-183.2 530,-205.2 665,-205.2 665,-183.2 530,-183.2"/>
<polygon fill="none" stroke="#000000" points="530,-183.2 530,-205.2 665,-205.2 665,-183.2 530,-183.2"/>
<image xlink:href="../../images/foreignKeys.png" width="11px" height="12px" preserveAspectRatio="xMinYMin meet" x="535" y="-200.2"/>
<text text-anchor="start" x="550" y="-190.3" font-family="Helvetica,sans-Serif" font-size="11.00" fill="#000000">VisitId</text>
<polygon fill="#ffffff" stroke="transparent" points="530,-161.2 530,-183.2 665,-183.2 665,-161.2 530,-161.2"/>
<polygon fill="none" stroke="#000000" points="530,-161.2 530,-183.2 665,-183.2 665,-161.2 530,-161.2"/>
<image xlink:href="../../images/foreignKeys.png" width="11px" height="12px" preserveAspectRatio="xMinYMin meet" x="535" y="-178.2"/>
<text text-anchor="start" x="550" y="-168.3" font-family="Helvetica,sans-Serif" font-size="11.00" fill="#000000">EventTypeId</text>
<polygon fill="#ffffff" stroke="transparent" points="530,-139.2 530,-161.2 665,-161.2 665,-139.2 530,-139.2"/>
<polygon fill="none" stroke="#000000" points="530,-139.2 530,-161.2 665,-161.2 665,-139.2 530,-139.2"/>
<text text-anchor="start" x="550" y="-146.3" font-family="Helvetica,sans-Serif" font-size="11.00" fill="#000000">EventOccurredAt</text>
<polygon fill="#ffffff" stroke="transparent" points="530,-117.2 530,-139.2 665,-139.2 665,-117.2 530,-117.2"/>
<polygon fill="none" stroke="#000000" points="530,-117.2 530,-139.2 665,-139.2 665,-117.2 530,-117.2"/>
<image xlink:href="../../images/foreignKeys.png" width="11px" height="12px" preserveAspectRatio="xMinYMin meet" x="535" y="-134.2"/>
<text text-anchor="start" x="550" y="-124.3" font-family="Helvetica,sans-Serif" font-size="11.00" fill="#000000">EnteredByUserId</text>
<polygon fill="#ffffff" stroke="transparent" points="530,-95.2 530,-117.2 665,-117.2 665,-95.2 530,-95.2"/>
<polygon fill="none" stroke="#000000" points="530,-95.2 530,-117.2 665,-117.2 665,-95.2 530,-95.2"/>
<image xlink:href="../../images/foreignKeys.png" width="11px" height="12px" preserveAspectRatio="xMinYMin meet" x="535" y="-112.2"/>
<text text-anchor="start" x="550" y="-102.3" font-family="Helvetica,sans-Serif" font-size="11.00" fill="#000000">EmployeeId</text>
<polygon fill="none" stroke="#000000" points="530,-76.2 530,-95.2 665,-95.2 665,-76.2 530,-76.2"/>
<text text-anchor="start" x="533" y="-82.3" font-family="Helvetica,sans-Serif" font-size="11.00" fill="#000000">...</text>
<polygon fill="#ffffff" stroke="transparent" points="530,-57.2 530,-76.2 596,-76.2 596,-57.2 530,-57.2"/>
<polygon fill="none" stroke="#000000" points="530,-57.2 530,-76.2 596,-76.2 596,-57.2 530,-57.2"/>
<text text-anchor="start" x="533" y="-63.3" font-family="Helvetica,sans-Serif" font-size="11.00" fill="#000000">&lt; 4</text>
<polygon fill="#ffffff" stroke="transparent" points="596,-57.2 596,-76.2 630,-76.2 630,-57.2 596,-57.2"/>
<polygon fill="none" stroke="#000000" points="596,-57.2 596,-76.2 630,-76.2 630,-57.2 596,-57.2"/>
<text text-anchor="start" x="620.8862" y="-63.3" font-family="Helvetica,sans-Serif" font-size="11.00" fill="#000000"> &#160;</text>
<polygon fill="#ffffff" stroke="transparent" points="630,-57.2 630,-76.2 665,-76.2 665,-57.2 630,-57.2"/>
<polygon fill="none" stroke="#000000" points="630,-57.2 630,-76.2 665,-76.2 665,-57.2 630,-57.2"/>
<text text-anchor="start" x="655.8862" y="-63.3" font-family="Helvetica,sans-Serif" font-size="11.00" fill="#000000"> &#160;</text>
</a>
</g>
</g>
<!-- VisitEvents&#45;&gt;Visits -->
<g id="edge2" class="edge">
<title>VisitEvents:w&#45;&gt;Visits:e</title>
<path fill="none" stroke="#000000" d="M515.9523,-198.3906C494.9974,-214.0448 509.2837,-268.2 474,-268.2"/>
<polygon fill="#000000" stroke="#000000" points="522.3338,-196.4869 531.0291,-197.6498 526.1669,-195.3435 530,-194.2 530,-194.2 530,-194.2 526.1669,-195.3435 528.9709,-190.7502 522.3338,-196.4869 522.3338,-196.4869"/>
<ellipse fill="none" stroke="#000000" cx="519.2674" cy="-197.4017" rx="3.2" ry="3.2"/>
</g>
</g>
</svg>
