<?xml version="1.0" encoding="UTF-8" standalone="no"?>
<!DOCTYPE svg PUBLIC "-//W3C//DTD SVG 1.1//EN"
 "http://www.w3.org/Graphics/SVG/1.1/DTD/svg11.dtd">
<!-- Generated by graphviz version 2.40.1 (20161225.0304)
 -->
<!-- Title: twoDegreesRelationshipsDiagram Pages: 1 -->
<svg width="738pt" height="539pt"
 viewBox="0.00 0.00 738.00 539.20" xmlns="http://www.w3.org/2000/svg" xmlns:xlink="http://www.w3.org/1999/xlink">
<g id="graph0" class="graph" transform="scale(1 1) rotate(0) translate(4 535.2)">
<title>twoDegreesRelationshipsDiagram</title>
<polygon fill="#ffffff" stroke="transparent" points="-4,4 -4,-535.2 734,-535.2 734,4 -4,4"/>
<text text-anchor="middle" x="72.4936" y="-7.3" font-family="Helvetica,sans-Serif" font-size="11.00" fill="#000000">Generated by SchemaSpy</text>
<!-- HospitalizationStatusHistories -->
<g id="node1" class="node">
<title>HospitalizationStatusHistories</title>
<g id="a_node1"><a xlink:href="../../tables/HospitalizationStatusHistories.html" xlink:title="HospitalizationStatusHistories" target="_top">
<polygon fill="#ffffff" stroke="transparent" points="472,-466.2 472,-527.2 717,-527.2 717,-466.2 472,-466.2"/>
<polygon fill="#f5f5f5" stroke="transparent" points="472.5,-503.7 472.5,-526.7 717.5,-526.7 717.5,-503.7 472.5,-503.7"/>
<polygon fill="none" stroke="#000000" points="472.5,-503.7 472.5,-526.7 717.5,-526.7 717.5,-503.7 472.5,-503.7"/>
<text text-anchor="start" x="477.5" y="-512.3" font-family="Helvetica,sans-Serif" font-weight="bold" font-size="11.00" fill="#000000">HospitalizationStatusHistories</text>
<text text-anchor="start" x="683.0219" y="-511.8" font-family="Helvetica,sans-Serif" font-size="11.00" fill="#000000">[table]</text>
<polygon fill="none" stroke="#000000" points="472.5,-484.7 472.5,-503.7 717.5,-503.7 717.5,-484.7 472.5,-484.7"/>
<text text-anchor="start" x="475.5" y="-490.8" font-family="Helvetica,sans-Serif" font-size="11.00" fill="#000000">...</text>
<polygon fill="#ffffff" stroke="transparent" points="472.5,-465.7 472.5,-484.7 593.5,-484.7 593.5,-465.7 472.5,-465.7"/>
<polygon fill="none" stroke="#000000" points="472.5,-465.7 472.5,-484.7 593.5,-484.7 593.5,-465.7 472.5,-465.7"/>
<text text-anchor="start" x="475.5" y="-471.8" font-family="Helvetica,sans-Serif" font-size="11.00" fill="#000000">&lt; 3</text>
<polygon fill="#ffffff" stroke="transparent" points="593.5,-465.7 593.5,-484.7 655.5,-484.7 655.5,-465.7 593.5,-465.7"/>
<polygon fill="none" stroke="#000000" points="593.5,-465.7 593.5,-484.7 655.5,-484.7 655.5,-465.7 593.5,-465.7"/>
<text text-anchor="start" x="646.3862" y="-471.8" font-family="Helvetica,sans-Serif" font-size="11.00" fill="#000000"> &#160;</text>
<polygon fill="#ffffff" stroke="transparent" points="655.5,-465.7 655.5,-484.7 717.5,-484.7 717.5,-465.7 655.5,-465.7"/>
<polygon fill="none" stroke="#000000" points="655.5,-465.7 655.5,-484.7 717.5,-484.7 717.5,-465.7 655.5,-465.7"/>
<text text-anchor="start" x="708.3862" y="-471.8" font-family="Helvetica,sans-Serif" font-size="11.00" fill="#000000"> &#160;</text>
</a>
</g>
</g>
<!-- Identity.Users -->
<g id="node2" class="node">
<title>Identity.Users</title>
<g id="a_node2"><a xlink:title="Identity.Users">
<polygon fill="#ffffff" stroke="transparent" points="244.5,-290.2 244.5,-351.2 378.5,-351.2 378.5,-290.2 244.5,-290.2"/>
<polygon fill="#f5f5f5" stroke="transparent" points="244.5,-327.7 244.5,-350.7 378.5,-350.7 378.5,-327.7 244.5,-327.7"/>
<polygon fill="none" stroke="#000000" points="244.5,-327.7 244.5,-350.7 378.5,-350.7 378.5,-327.7 244.5,-327.7"/>
<text text-anchor="start" x="249.5" y="-336.3" font-family="Helvetica,sans-Serif" font-weight="bold" font-size="11.00" fill="#000000">Identity.Users</text>
<text text-anchor="start" x="344.0219" y="-335.8" font-family="Helvetica,sans-Serif" font-size="11.00" fill="#000000">[table]</text>
<polygon fill="none" stroke="#000000" points="244.5,-308.7 244.5,-327.7 378.5,-327.7 378.5,-308.7 244.5,-308.7"/>
<text text-anchor="start" x="247.5" y="-314.8" font-family="Helvetica,sans-Serif" font-size="11.00" fill="#000000">...</text>
<polygon fill="#ffffff" stroke="transparent" points="244.5,-289.7 244.5,-308.7 300.5,-308.7 300.5,-289.7 244.5,-289.7"/>
<polygon fill="none" stroke="#000000" points="244.5,-289.7 244.5,-308.7 300.5,-308.7 300.5,-289.7 244.5,-289.7"/>
<text text-anchor="start" x="247.5" y="-295.8" font-family="Helvetica,sans-Serif" font-size="11.00" fill="#000000"> &#160;</text>
<polygon fill="#ffffff" stroke="transparent" points="300.5,-289.7 300.5,-308.7 334.5,-308.7 334.5,-289.7 300.5,-289.7"/>
<polygon fill="none" stroke="#000000" points="300.5,-289.7 300.5,-308.7 334.5,-308.7 334.5,-289.7 300.5,-289.7"/>
<text text-anchor="start" x="325.3862" y="-295.8" font-family="Helvetica,sans-Serif" font-size="11.00" fill="#000000"> &#160;</text>
<polygon fill="#ffffff" stroke="transparent" points="334.5,-289.7 334.5,-308.7 378.5,-308.7 378.5,-289.7 334.5,-289.7"/>
<polygon fill="none" stroke="#000000" points="334.5,-289.7 334.5,-308.7 378.5,-308.7 378.5,-289.7 334.5,-289.7"/>
<text text-anchor="start" x="359.9053" y="-295.8" font-family="Helvetica,sans-Serif" font-size="11.00" fill="#000000">2 &gt;</text>
</a>
</g>
</g>
<!-- HospitalizationStatusHistories&#45;&gt;Identity.Users -->
<g id="edge1" class="edge">
<title>HospitalizationStatusHistories:w&#45;&gt;Identity.Users:e</title>
<path fill="none" stroke="#000000" d="M458.0313,-491.4907C420.5597,-477.603 465.7561,-401.6616 426,-361.7 415.1291,-350.7729 401.1475,-342.7438 386.7133,-336.8484"/>
<polygon fill="#000000" stroke="#000000" points="464.5917,-492.4924 471.9566,-497.2588 468.5458,-493.0962 472.5,-493.7 472.5,-493.7 472.5,-493.7 468.5458,-493.0962 473.0434,-490.1412 464.5917,-492.4924 464.5917,-492.4924"/>
<ellipse fill="none" stroke="#000000" cx="461.4283" cy="-492.0094" rx="3.2" ry="3.2"/>
</g>
<!-- Hospitalizations -->
<g id="node3" class="node">
<title>Hospitalizations</title>
<g id="a_node3"><a xlink:href="../../tables/Hospitalizations.html" xlink:title="Hospitalizations" target="_top">
<polygon fill="#ffffff" stroke="transparent" points="8,-348.2 8,-409.2 156,-409.2 156,-348.2 8,-348.2"/>
<polygon fill="#f5f5f5" stroke="transparent" points="8,-385.7 8,-408.7 156,-408.7 156,-385.7 8,-385.7"/>
<polygon fill="none" stroke="#000000" points="8,-385.7 8,-408.7 156,-408.7 156,-385.7 8,-385.7"/>
<text text-anchor="start" x="13" y="-394.3" font-family="Helvetica,sans-Serif" font-weight="bold" font-size="11.00" fill="#000000">Hospitalizations</text>
<text text-anchor="start" x="121.5219" y="-393.8" font-family="Helvetica,sans-Serif" font-size="11.00" fill="#000000">[table]</text>
<polygon fill="none" stroke="#000000" points="8,-366.7 8,-385.7 156,-385.7 156,-366.7 8,-366.7"/>
<text text-anchor="start" x="11" y="-372.8" font-family="Helvetica,sans-Serif" font-size="11.00" fill="#000000">...</text>
<polygon fill="#ffffff" stroke="transparent" points="8,-347.7 8,-366.7 76,-366.7 76,-347.7 8,-347.7"/>
<polygon fill="none" stroke="#000000" points="8,-347.7 8,-366.7 76,-366.7 76,-347.7 8,-347.7"/>
<text text-anchor="start" x="11" y="-353.8" font-family="Helvetica,sans-Serif" font-size="11.00" fill="#000000">&lt; 3</text>
<polygon fill="#ffffff" stroke="transparent" points="76,-347.7 76,-366.7 111,-366.7 111,-347.7 76,-347.7"/>
<polygon fill="none" stroke="#000000" points="76,-347.7 76,-366.7 111,-366.7 111,-347.7 76,-347.7"/>
<text text-anchor="start" x="101.8862" y="-353.8" font-family="Helvetica,sans-Serif" font-size="11.00" fill="#000000"> &#160;</text>
<polygon fill="#ffffff" stroke="transparent" points="111,-347.7 111,-366.7 156,-366.7 156,-347.7 111,-347.7"/>
<polygon fill="none" stroke="#000000" points="111,-347.7 111,-366.7 156,-366.7 156,-347.7 111,-347.7"/>
<text text-anchor="start" x="137.4053" y="-353.8" font-family="Helvetica,sans-Serif" font-size="11.00" fill="#000000">3 &gt;</text>
</a>
</g>
</g>
<!-- HospitalizationStatusHistories&#45;&gt;Hospitalizations -->
<g id="edge2" class="edge">
<title>HospitalizationStatusHistories:w&#45;&gt;Hospitalizations:e</title>
<path fill="none" stroke="#000000" d="M457.7706,-494.0154C345.5678,-498.8224 292.5338,-556.0216 197,-487.7 153.8832,-456.8647 209.0083,-375.7 156,-375.7"/>
<polygon fill="#000000" stroke="#000000" points="464.5018,-493.8713 472.5771,-497.2992 468.5009,-493.7856 472.5,-493.7 472.5,-493.7 472.5,-493.7 468.5009,-493.7856 472.4229,-490.1008 464.5018,-493.8713 464.5018,-493.8713"/>
<ellipse fill="none" stroke="#000000" cx="461.3026" cy="-493.9398" rx="3.2" ry="3.2"/>
</g>
<!-- VisitAttendants -->
<g id="node4" class="node">
<title>VisitAttendants</title>
<g id="a_node4"><a xlink:href="../../tables/VisitAttendants.html" xlink:title="VisitAttendants" target="_top">
<polygon fill="#ffffff" stroke="transparent" points="522.5,-49.2 522.5,-110.2 666.5,-110.2 666.5,-49.2 522.5,-49.2"/>
<polygon fill="#f5f5f5" stroke="transparent" points="522.5,-86.7 522.5,-109.7 666.5,-109.7 666.5,-86.7 522.5,-86.7"/>
<polygon fill="none" stroke="#000000" points="522.5,-86.7 522.5,-109.7 666.5,-109.7 666.5,-86.7 522.5,-86.7"/>
<text text-anchor="start" x="527.5" y="-95.3" font-family="Helvetica,sans-Serif" font-weight="bold" font-size="11.00" fill="#000000">VisitAttendants</text>
<text text-anchor="start" x="632.0219" y="-94.8" font-family="Helvetica,sans-Serif" font-size="11.00" fill="#000000">[table]</text>
<polygon fill="none" stroke="#000000" points="522.5,-67.7 522.5,-86.7 666.5,-86.7 666.5,-67.7 522.5,-67.7"/>
<text text-anchor="start" x="525.5" y="-73.8" font-family="Helvetica,sans-Serif" font-size="11.00" fill="#000000">...</text>
<polygon fill="#ffffff" stroke="transparent" points="522.5,-48.7 522.5,-67.7 592.5,-67.7 592.5,-48.7 522.5,-48.7"/>
<polygon fill="none" stroke="#000000" points="522.5,-48.7 522.5,-67.7 592.5,-67.7 592.5,-48.7 522.5,-48.7"/>
<text text-anchor="start" x="525.5" y="-54.8" font-family="Helvetica,sans-Serif" font-size="11.00" fill="#000000">&lt; 2</text>
<polygon fill="#ffffff" stroke="transparent" points="592.5,-48.7 592.5,-67.7 629.5,-67.7 629.5,-48.7 592.5,-48.7"/>
<polygon fill="none" stroke="#000000" points="592.5,-48.7 592.5,-67.7 629.5,-67.7 629.5,-48.7 592.5,-48.7"/>
<text text-anchor="start" x="620.3862" y="-54.8" font-family="Helvetica,sans-Serif" font-size="11.00" fill="#000000"> &#160;</text>
<polygon fill="#ffffff" stroke="transparent" points="629.5,-48.7 629.5,-67.7 666.5,-67.7 666.5,-48.7 629.5,-48.7"/>
<polygon fill="none" stroke="#000000" points="629.5,-48.7 629.5,-67.7 666.5,-67.7 666.5,-48.7 629.5,-48.7"/>
<text text-anchor="start" x="657.3862" y="-54.8" font-family="Helvetica,sans-Serif" font-size="11.00" fill="#000000"> &#160;</text>
</a>
</g>
</g>
<!-- Compensation.Employees -->
<g id="node5" class="node">
<title>Compensation.Employees</title>
<g id="a_node5"><a xlink:title="Compensation.Employees">
<polygon fill="#ffffff" stroke="transparent" points="205,-38.2 205,-99.2 418,-99.2 418,-38.2 205,-38.2"/>
<polygon fill="#f5f5f5" stroke="transparent" points="205.5,-75.7 205.5,-98.7 418.5,-98.7 418.5,-75.7 205.5,-75.7"/>
<polygon fill="none" stroke="#000000" points="205.5,-75.7 205.5,-98.7 418.5,-98.7 418.5,-75.7 205.5,-75.7"/>
<text text-anchor="start" x="210.5" y="-84.3" font-family="Helvetica,sans-Serif" font-weight="bold" font-size="11.00" fill="#000000">Compensation.Employees</text>
<text text-anchor="start" x="384.0219" y="-83.8" font-family="Helvetica,sans-Serif" font-size="11.00" fill="#000000">[table]</text>
<polygon fill="none" stroke="#000000" points="205.5,-56.7 205.5,-75.7 418.5,-75.7 418.5,-56.7 205.5,-56.7"/>
<text text-anchor="start" x="208.5" y="-62.8" font-family="Helvetica,sans-Serif" font-size="11.00" fill="#000000">...</text>
<polygon fill="#ffffff" stroke="transparent" points="205.5,-37.7 205.5,-56.7 301.5,-56.7 301.5,-37.7 205.5,-37.7"/>
<polygon fill="none" stroke="#000000" points="205.5,-37.7 205.5,-56.7 301.5,-56.7 301.5,-37.7 205.5,-37.7"/>
<text text-anchor="start" x="208.5" y="-43.8" font-family="Helvetica,sans-Serif" font-size="11.00" fill="#000000"> &#160;</text>
<polygon fill="#ffffff" stroke="transparent" points="301.5,-37.7 301.5,-56.7 355.5,-56.7 355.5,-37.7 301.5,-37.7"/>
<polygon fill="none" stroke="#000000" points="301.5,-37.7 301.5,-56.7 355.5,-56.7 355.5,-37.7 301.5,-37.7"/>
<text text-anchor="start" x="346.3862" y="-43.8" font-family="Helvetica,sans-Serif" font-size="11.00" fill="#000000"> &#160;</text>
<polygon fill="#ffffff" stroke="transparent" points="355.5,-37.7 355.5,-56.7 418.5,-56.7 418.5,-37.7 355.5,-37.7"/>
<polygon fill="none" stroke="#000000" points="355.5,-37.7 355.5,-56.7 418.5,-56.7 418.5,-37.7 355.5,-37.7"/>
<text text-anchor="start" x="399.9053" y="-43.8" font-family="Helvetica,sans-Serif" font-size="11.00" fill="#000000">2 &gt;</text>
</a>
</g>
</g>
<!-- VisitAttendants&#45;&gt;Compensation.Employees -->
<g id="edge3" class="edge">
<title>VisitAttendants:w&#45;&gt;Compensation.Employees:e</title>
<path fill="none" stroke="#000000" d="M508.0556,-76.6403C480.9998,-76.4228 452.6545,-75.6326 426.1789,-74.6294"/>
<polygon fill="#000000" stroke="#000000" points="514.5001,-76.6669 522.4851,-80.3 518.5,-76.6834 522.5,-76.7 522.5,-76.7 522.5,-76.7 518.5,-76.6834 522.5149,-73.1 514.5001,-76.6669 514.5001,-76.6669"/>
<ellipse fill="none" stroke="#000000" cx="511.3001" cy="-76.6536" rx="3.2" ry="3.2"/>
</g>
<!-- Visits -->
<g id="node6" class="node">
<title>Visits</title>
<g id="a_node6"><a xlink:href="../../tables/Visits.html" xlink:title="Visits" target="_top">
<polygon fill="#ffffff" stroke="transparent" points="234,-120.2 234,-269.2 389,-269.2 389,-120.2 234,-120.2"/>
<polygon fill="#f5f5f5" stroke="transparent" points="234.5,-245.7 234.5,-268.7 389.5,-268.7 389.5,-245.7 234.5,-245.7"/>
<polygon fill="none" stroke="#000000" points="234.5,-245.7 234.5,-268.7 389.5,-268.7 389.5,-245.7 234.5,-245.7"/>
<text text-anchor="start" x="239.5" y="-254.3" font-family="Helvetica,sans-Serif" font-weight="bold" font-size="11.00" fill="#000000">Visits</text>
<text text-anchor="start" x="354.5437" y="-253.8" font-family="Helvetica,sans-Serif" font-size="11.00" fill="#000000">[table]</text>
<polygon fill="none" stroke="#000000" points="234.5,-223.7 234.5,-245.7 389.5,-245.7 389.5,-223.7 234.5,-223.7"/>
<image xlink:href="../../images/primaryKeys.png" width="11px" height="12px" preserveAspectRatio="xMinYMin meet" x="239.5" y="-240.7"/>
<text text-anchor="start" x="254.5" y="-230.8" font-family="Helvetica,sans-Serif" font-size="11.00" fill="#000000">Id</text>
<polygon fill="#ffffff" stroke="transparent" points="234.5,-201.7 234.5,-223.7 389.5,-223.7 389.5,-201.7 234.5,-201.7"/>
<polygon fill="none" stroke="#000000" points="234.5,-201.7 234.5,-223.7 389.5,-223.7 389.5,-201.7 234.5,-201.7"/>
<text text-anchor="start" x="254.5" y="-208.8" font-family="Helvetica,sans-Serif" font-size="11.00" fill="#000000">DateServiced</text>
<polygon fill="#ffffff" stroke="transparent" points="234.5,-179.7 234.5,-201.7 389.5,-201.7 389.5,-179.7 234.5,-179.7"/>
<polygon fill="none" stroke="#000000" points="234.5,-179.7 234.5,-201.7 389.5,-201.7 389.5,-179.7 234.5,-179.7"/>
<image xlink:href="../../images/foreignKeys.png" width="11px" height="12px" preserveAspectRatio="xMinYMin meet" x="239.5" y="-196.7"/>
<text text-anchor="start" x="254.5" y="-186.8" font-family="Helvetica,sans-Serif" font-size="11.00" fill="#000000">HospitalizationId</text>
<polygon fill="#ffffff" stroke="transparent" points="234.5,-157.7 234.5,-179.7 389.5,-179.7 389.5,-157.7 234.5,-157.7"/>
<polygon fill="none" stroke="#000000" points="234.5,-157.7 234.5,-179.7 389.5,-179.7 389.5,-157.7 234.5,-157.7"/>
<image xlink:href="../../images/foreignKeys.png" width="11px" height="12px" preserveAspectRatio="xMinYMin meet" x="239.5" y="-174.7"/>
<text text-anchor="start" x="254.5" y="-164.8" font-family="Helvetica,sans-Serif" font-size="11.00" fill="#000000">ServiceTypeId</text>
<polygon fill="none" stroke="#000000" points="234.5,-138.7 234.5,-157.7 389.5,-157.7 389.5,-138.7 234.5,-138.7"/>
<text text-anchor="start" x="237.5" y="-144.8" font-family="Helvetica,sans-Serif" font-size="11.00" fill="#000000">...</text>
<polygon fill="#ffffff" stroke="transparent" points="234.5,-119.7 234.5,-138.7 305.5,-138.7 305.5,-119.7 234.5,-119.7"/>
<polygon fill="none" stroke="#000000" points="234.5,-119.7 234.5,-138.7 305.5,-138.7 305.5,-119.7 234.5,-119.7"/>
<text text-anchor="start" x="237.5" y="-125.8" font-family="Helvetica,sans-Serif" font-size="11.00" fill="#000000">&lt; 2</text>
<polygon fill="#ffffff" stroke="transparent" points="305.5,-119.7 305.5,-138.7 342.5,-138.7 342.5,-119.7 305.5,-119.7"/>
<polygon fill="none" stroke="#000000" points="305.5,-119.7 305.5,-138.7 342.5,-138.7 342.5,-119.7 305.5,-119.7"/>
<text text-anchor="start" x="333.3862" y="-125.8" font-family="Helvetica,sans-Serif" font-size="11.00" fill="#000000"> &#160;</text>
<polygon fill="#ffffff" stroke="transparent" points="342.5,-119.7 342.5,-138.7 389.5,-138.7 389.5,-119.7 342.5,-119.7"/>
<polygon fill="none" stroke="#000000" points="342.5,-119.7 342.5,-138.7 389.5,-138.7 389.5,-119.7 342.5,-119.7"/>
<text text-anchor="start" x="370.9053" y="-125.8" font-family="Helvetica,sans-Serif" font-size="11.00" fill="#000000">2 &gt;</text>
</a>
</g>
</g>
<!-- VisitAttendants&#45;&gt;Visits -->
<g id="edge4" class="edge">
<title>VisitAttendants:w&#45;&gt;Visits:e</title>
<path fill="none" stroke="#000000" d="M507.7742,-78.2638C436.1491,-94.6732 475.9111,-234.7 389.5,-234.7"/>
<polygon fill="#000000" stroke="#000000" points="514.5447,-77.5448 522.8802,-80.2799 518.5224,-77.1224 522.5,-76.7 522.5,-76.7 522.5,-76.7 518.5224,-77.1224 522.1198,-73.1201 514.5447,-77.5448 514.5447,-77.5448"/>
<ellipse fill="none" stroke="#000000" cx="511.3626" cy="-77.8828" rx="3.2" ry="3.2"/>
</g>
<!-- Visits&#45;&gt;Hospitalizations -->
<g id="edge9" class="edge">
<title>Visits:w&#45;&gt;Hospitalizations:e</title>
<path fill="none" stroke="#000000" d="M219.8805,-192.7776C156.9588,-213.1023 239.7357,-375.7 156,-375.7"/>
<polygon fill="#000000" stroke="#000000" points="226.5796,-191.8257 235.0065,-194.2642 230.5398,-191.2628 234.5,-190.7 234.5,-190.7 234.5,-190.7 230.5398,-191.2628 233.9935,-187.1358 226.5796,-191.8257 226.5796,-191.8257"/>
<ellipse fill="none" stroke="#000000" cx="223.4114" cy="-192.2759" rx="3.2" ry="3.2"/>
</g>
<!-- ServiceTypes -->
<g id="node9" class="node">
<title>ServiceTypes</title>
<g id="a_node9"><a xlink:href="../../tables/ServiceTypes.html" xlink:title="ServiceTypes" target="_top">
<polygon fill="#ffffff" stroke="transparent" points="18,-141.2 18,-202.2 146,-202.2 146,-141.2 18,-141.2"/>
<polygon fill="#f5f5f5" stroke="transparent" points="18,-178.7 18,-201.7 146,-201.7 146,-178.7 18,-178.7"/>
<polygon fill="none" stroke="#000000" points="18,-178.7 18,-201.7 146,-201.7 146,-178.7 18,-178.7"/>
<text text-anchor="start" x="23" y="-187.3" font-family="Helvetica,sans-Serif" font-weight="bold" font-size="11.00" fill="#000000">ServiceTypes</text>
<text text-anchor="start" x="111.5219" y="-186.8" font-family="Helvetica,sans-Serif" font-size="11.00" fill="#000000">[table]</text>
<polygon fill="none" stroke="#000000" points="18,-159.7 18,-178.7 146,-178.7 146,-159.7 18,-159.7"/>
<text text-anchor="start" x="21" y="-165.8" font-family="Helvetica,sans-Serif" font-size="11.00" fill="#000000">...</text>
<polygon fill="#ffffff" stroke="transparent" points="18,-140.7 18,-159.7 71,-159.7 71,-140.7 18,-140.7"/>
<polygon fill="none" stroke="#000000" points="18,-140.7 18,-159.7 71,-159.7 71,-140.7 18,-140.7"/>
<text text-anchor="start" x="21" y="-146.8" font-family="Helvetica,sans-Serif" font-size="11.00" fill="#000000"> &#160;</text>
<polygon fill="#ffffff" stroke="transparent" points="71,-140.7 71,-159.7 104,-159.7 104,-140.7 71,-140.7"/>
<polygon fill="none" stroke="#000000" points="71,-140.7 71,-159.7 104,-159.7 104,-140.7 71,-140.7"/>
<text text-anchor="start" x="94.8862" y="-146.8" font-family="Helvetica,sans-Serif" font-size="11.00" fill="#000000"> &#160;</text>
<polygon fill="#ffffff" stroke="transparent" points="104,-140.7 104,-159.7 146,-159.7 146,-140.7 104,-140.7"/>
<polygon fill="none" stroke="#000000" points="104,-140.7 104,-159.7 146,-159.7 146,-140.7 104,-140.7"/>
<text text-anchor="start" x="127.4053" y="-146.8" font-family="Helvetica,sans-Serif" font-size="11.00" fill="#000000">1 &gt;</text>
</a>
</g>
</g>
<!-- Visits&#45;&gt;ServiceTypes -->
<g id="edge10" class="edge">
<title>Visits:w&#45;&gt;ServiceTypes:e</title>
<path fill="none" stroke="#000000" d="M219.8707,-168.7C191.9265,-168.7 179.9557,-168.7 146,-168.7"/>
<polygon fill="#000000" stroke="#000000" points="226.5,-168.7001 234.5,-172.3 230.5,-168.7 234.5,-168.7 234.5,-168.7 234.5,-168.7 230.5,-168.7 234.5,-165.1 226.5,-168.7001 226.5,-168.7001"/>
<ellipse fill="none" stroke="#000000" cx="223.3" cy="-168.7001" rx="3.2" ry="3.2"/>
</g>
<!-- VisitEvents -->
<g id="node7" class="node">
<title>VisitEvents</title>
<g id="a_node7"><a xlink:href="../../tables/VisitEvents.html" xlink:title="VisitEvents" target="_top">
<polygon fill="#ffffff" stroke="transparent" points="467,-162.7 467,-428.7 722,-428.7 722,-162.7 467,-162.7"/>
<polygon fill="#f5f5f5" stroke="transparent" points="469.5,-403.7 469.5,-426.7 720.5,-426.7 720.5,-403.7 469.5,-403.7"/>
<polygon fill="none" stroke="#000000" points="469.5,-403.7 469.5,-426.7 720.5,-426.7 720.5,-403.7 469.5,-403.7"/>
<text text-anchor="start" x="474.5" y="-412.3" font-family="Helvetica,sans-Serif" font-weight="bold" font-size="11.00" fill="#000000">VisitEvents</text>
<text text-anchor="start" x="685.5437" y="-411.8" font-family="Helvetica,sans-Serif" font-size="11.00" fill="#000000">[table]</text>
<polygon fill="none" stroke="#000000" points="469.5,-381.7 469.5,-403.7 604.5,-403.7 604.5,-381.7 469.5,-381.7"/>
<image xlink:href="../../images/primaryKeys.png" width="11px" height="12px" preserveAspectRatio="xMinYMin meet" x="474.5" y="-398.7"/>
<text text-anchor="start" x="489.5" y="-388.8" font-family="Helvetica,sans-Serif" font-size="11.00" fill="#000000">Id</text>
<polygon fill="none" stroke="#000000" points="604.5,-381.7 604.5,-403.7 720.5,-403.7 720.5,-381.7 604.5,-381.7"/>
<text text-anchor="start" x="607.5" y="-389.4" font-family="Helvetica,sans-Serif" font-size="11.00" fill="#000000">int identity[4]</text>
<polygon fill="#ffffff" stroke="transparent" points="469.5,-359.7 469.5,-381.7 604.5,-381.7 604.5,-359.7 469.5,-359.7"/>
<polygon fill="none" stroke="#000000" points="469.5,-359.7 469.5,-381.7 604.5,-381.7 604.5,-359.7 469.5,-359.7"/>
<image xlink:href="../../images/foreignKeys.png" width="11px" height="12px" preserveAspectRatio="xMinYMin meet" x="474.5" y="-376.7"/>
<text text-anchor="start" x="489.5" y="-366.8" font-family="Helvetica,sans-Serif" font-size="11.00" fill="#000000">VisitId</text>
<polygon fill="none" stroke="#000000" points="604.5,-359.7 604.5,-381.7 720.5,-381.7 720.5,-359.7 604.5,-359.7"/>
<text text-anchor="start" x="607.5" y="-367.4" font-family="Helvetica,sans-Serif" font-size="11.00" fill="#000000">int[4]</text>
<polygon fill="#ffffff" stroke="transparent" points="469.5,-337.7 469.5,-359.7 604.5,-359.7 604.5,-337.7 469.5,-337.7"/>
<polygon fill="none" stroke="#000000" points="469.5,-337.7 469.5,-359.7 604.5,-359.7 604.5,-337.7 469.5,-337.7"/>
<image xlink:href="../../images/foreignKeys.png" width="11px" height="12px" preserveAspectRatio="xMinYMin meet" x="474.5" y="-354.7"/>
<text text-anchor="start" x="489.5" y="-344.8" font-family="Helvetica,sans-Serif" font-size="11.00" fill="#000000">EventTypeId</text>
<polygon fill="none" stroke="#000000" points="604.5,-337.7 604.5,-359.7 720.5,-359.7 720.5,-337.7 604.5,-337.7"/>
<text text-anchor="start" x="607.5" y="-345.4" font-family="Helvetica,sans-Serif" font-size="11.00" fill="#000000">int[4]</text>
<polygon fill="#ffffff" stroke="transparent" points="469.5,-315.7 469.5,-337.7 604.5,-337.7 604.5,-315.7 469.5,-315.7"/>
<polygon fill="none" stroke="#000000" points="469.5,-315.7 469.5,-337.7 604.5,-337.7 604.5,-315.7 469.5,-315.7"/>
<text text-anchor="start" x="489.5" y="-322.8" font-family="Helvetica,sans-Serif" font-size="11.00" fill="#000000">EventOccurredAt</text>
<polygon fill="none" stroke="#000000" points="604.5,-315.7 604.5,-337.7 720.5,-337.7 720.5,-315.7 604.5,-315.7"/>
<text text-anchor="start" x="607.5" y="-323.4" font-family="Helvetica,sans-Serif" font-size="11.00" fill="#000000">datetime2[16,7]</text>
<polygon fill="none" stroke="#000000" points="469.5,-293.7 469.5,-315.7 604.5,-315.7 604.5,-293.7 469.5,-293.7"/>
<text text-anchor="start" x="489.5" y="-300.8" font-family="Helvetica,sans-Serif" font-size="11.00" fill="#000000">Description</text>
<polygon fill="none" stroke="#000000" points="604.5,-293.7 604.5,-315.7 720.5,-315.7 720.5,-293.7 604.5,-293.7"/>
<text text-anchor="start" x="607.4769" y="-301.4" font-family="Helvetica,sans-Serif" font-size="11.00" fill="#000000">nvarchar[2147483647]</text>
<polygon fill="#ffffff" stroke="transparent" points="469.5,-271.7 469.5,-293.7 604.5,-293.7 604.5,-271.7 469.5,-271.7"/>
<polygon fill="none" stroke="#000000" points="469.5,-271.7 469.5,-293.7 604.5,-293.7 604.5,-271.7 469.5,-271.7"/>
<image xlink:href="../../images/foreignKeys.png" width="11px" height="12px" preserveAspectRatio="xMinYMin meet" x="474.5" y="-288.7"/>
<text text-anchor="start" x="489.5" y="-278.8" font-family="Helvetica,sans-Serif" font-size="11.00" fill="#000000">EnteredByUserId</text>
<polygon fill="none" stroke="#000000" points="604.5,-271.7 604.5,-293.7 720.5,-293.7 720.5,-271.7 604.5,-271.7"/>
<text text-anchor="start" x="607.5" y="-279.4" font-family="Helvetica,sans-Serif" font-size="11.00" fill="#000000">int[4]</text>
<polygon fill="#ffffff" stroke="transparent" points="469.5,-249.7 469.5,-271.7 604.5,-271.7 604.5,-249.7 469.5,-249.7"/>
<polygon fill="none" stroke="#000000" points="469.5,-249.7 469.5,-271.7 604.5,-271.7 604.5,-249.7 469.5,-249.7"/>
<image xlink:href="../../images/foreignKeys.png" width="11px" height="12px" preserveAspectRatio="xMinYMin meet" x="474.5" y="-266.7"/>
<text text-anchor="start" x="489.5" y="-256.8" font-family="Helvetica,sans-Serif" font-size="11.00" fill="#000000">EmployeeId</text>
<polygon fill="none" stroke="#000000" points="604.5,-249.7 604.5,-271.7 720.5,-271.7 720.5,-249.7 604.5,-249.7"/>
<text text-anchor="start" x="607.5" y="-257.4" font-family="Helvetica,sans-Serif" font-size="11.00" fill="#000000">int[4]</text>
<polygon fill="none" stroke="#000000" points="469.5,-227.7 469.5,-249.7 604.5,-249.7 604.5,-227.7 469.5,-227.7"/>
<text text-anchor="start" x="489.5" y="-234.8" font-family="Helvetica,sans-Serif" font-size="11.00" fill="#000000">CreatedAtUtc</text>
<polygon fill="none" stroke="#000000" points="604.5,-227.7 604.5,-249.7 720.5,-249.7 720.5,-227.7 604.5,-227.7"/>
<text text-anchor="start" x="607.5" y="-235.4" font-family="Helvetica,sans-Serif" font-size="11.00" fill="#000000">datetime2[16,7]</text>
<polygon fill="none" stroke="#000000" points="469.5,-205.7 469.5,-227.7 604.5,-227.7 604.5,-205.7 469.5,-205.7"/>
<text text-anchor="start" x="489.5" y="-212.8" font-family="Helvetica,sans-Serif" font-size="11.00" fill="#000000">UpdatedAtUtc</text>
<polygon fill="none" stroke="#000000" points="604.5,-205.7 604.5,-227.7 720.5,-227.7 720.5,-205.7 604.5,-205.7"/>
<text text-anchor="start" x="607.5" y="-213.4" font-family="Helvetica,sans-Serif" font-size="11.00" fill="#000000">datetime2[16,7]</text>
<polygon fill="none" stroke="#000000" points="469.5,-183.7 469.5,-205.7 604.5,-205.7 604.5,-183.7 469.5,-183.7"/>
<text text-anchor="start" x="489.5" y="-190.8" font-family="Helvetica,sans-Serif" font-size="11.00" fill="#000000">RowVersion</text>
<polygon fill="none" stroke="#000000" points="604.5,-183.7 604.5,-205.7 720.5,-205.7 720.5,-183.7 604.5,-183.7"/>
<text text-anchor="start" x="607.5" y="-191.4" font-family="Helvetica,sans-Serif" font-size="11.00" fill="#000000">timestamp[8]</text>
<polygon fill="#ffffff" stroke="transparent" points="469.5,-164.7 469.5,-183.7 541.5,-183.7 541.5,-164.7 469.5,-164.7"/>
<polygon fill="none" stroke="#000000" points="469.5,-164.7 469.5,-183.7 541.5,-183.7 541.5,-164.7 469.5,-164.7"/>
<text text-anchor="start" x="472.5" y="-170.8" font-family="Helvetica,sans-Serif" font-size="11.00" fill="#000000">&lt; 4</text>
<polygon fill="#ffffff" stroke="transparent" points="541.5,-164.7 541.5,-183.7 604.5,-183.7 604.5,-164.7 541.5,-164.7"/>
<polygon fill="none" stroke="#000000" points="541.5,-164.7 541.5,-183.7 604.5,-183.7 604.5,-164.7 541.5,-164.7"/>
<text text-anchor="start" x="595.3862" y="-170.8" font-family="Helvetica,sans-Serif" font-size="11.00" fill="#000000"> &#160;</text>
<polygon fill="#ffffff" stroke="transparent" points="604.5,-164.7 604.5,-183.7 720.5,-183.7 720.5,-164.7 604.5,-164.7"/>
<polygon fill="none" stroke="#000000" points="604.5,-164.7 604.5,-183.7 720.5,-183.7 720.5,-164.7 604.5,-164.7"/>
<text text-anchor="start" x="701.9053" y="-170.8" font-family="Helvetica,sans-Serif" font-size="11.00" fill="#000000">0 &gt;</text>
<polygon fill="none" stroke="#000000" stroke-width="2" points="468,-163.7 468,-427.7 721,-427.7 721,-163.7 468,-163.7"/>
</a>
</g>
</g>
<!-- VisitEvents&#45;&gt;Identity.Users -->
<g id="edge6" class="edge">
<title>VisitEvents:w&#45;&gt;Identity.Users:e</title>
<path fill="none" stroke="#000000" d="M454.8417,-283.1881C431.7398,-284.6784 407.9578,-289.4118 386.5682,-295.0375"/>
<polygon fill="#000000" stroke="#000000" points="461.5044,-282.9663 469.6198,-286.298 465.5022,-282.8332 469.5,-282.7 469.5,-282.7 469.5,-282.7 465.5022,-282.8332 469.3802,-279.102 461.5044,-282.9663 461.5044,-282.9663"/>
<ellipse fill="none" stroke="#000000" cx="458.3062" cy="-283.0728" rx="3.2" ry="3.2"/>
</g>
<!-- VisitEvents&#45;&gt;Compensation.Employees -->
<g id="edge5" class="edge">
<title>VisitEvents:w&#45;&gt;Compensation.Employees:e</title>
<path fill="none" stroke="#000000" d="M455.0724,-258.7621C411.002,-244.6121 469.8747,-156.4469 426,-109.7 423.977,-107.5446 421.8329,-105.5023 419.5869,-103.5673"/>
<polygon fill="#000000" stroke="#000000" points="461.5712,-259.635 469.0207,-264.268 465.5356,-260.1675 469.5,-260.7 469.5,-260.7 469.5,-260.7 465.5356,-260.1675 469.9793,-257.132 461.5712,-259.635 461.5712,-259.635"/>
<ellipse fill="none" stroke="#000000" cx="458.3997" cy="-259.209" rx="3.2" ry="3.2"/>
</g>
<!-- VisitEvents&#45;&gt;Visits -->
<g id="edge8" class="edge">
<title>VisitEvents:w&#45;&gt;Visits:e</title>
<path fill="none" stroke="#000000" d="M455.0275,-368.2234C408.1873,-349.7909 454.0109,-234.7 389.5,-234.7"/>
<polygon fill="#000000" stroke="#000000" points="461.6146,-369.3506 468.8928,-374.2484 465.5573,-370.0253 469.5,-370.7 469.5,-370.7 469.5,-370.7 465.5573,-370.0253 470.1072,-367.1516 461.6146,-369.3506 461.6146,-369.3506"/>
<ellipse fill="none" stroke="#000000" cx="458.4605" cy="-368.8108" rx="3.2" ry="3.2"/>
</g>
<!-- VisitEventTypes -->
<g id="node8" class="node">
<title>VisitEventTypes</title>
<g id="a_node8"><a xlink:href="../../tables/VisitEventTypes.html" xlink:title="VisitEventTypes" target="_top">
<polygon fill="#ffffff" stroke="transparent" points="238,-372.2 238,-477.2 385,-477.2 385,-372.2 238,-372.2"/>
<polygon fill="#f5f5f5" stroke="transparent" points="238.5,-453.7 238.5,-476.7 385.5,-476.7 385.5,-453.7 238.5,-453.7"/>
<polygon fill="none" stroke="#000000" points="238.5,-453.7 238.5,-476.7 385.5,-476.7 385.5,-453.7 238.5,-453.7"/>
<text text-anchor="start" x="243.5" y="-462.3" font-family="Helvetica,sans-Serif" font-weight="bold" font-size="11.00" fill="#000000">VisitEventTypes</text>
<text text-anchor="start" x="351.0219" y="-461.8" font-family="Helvetica,sans-Serif" font-size="11.00" fill="#000000">[table]</text>
<polygon fill="none" stroke="#000000" points="238.5,-431.7 238.5,-453.7 385.5,-453.7 385.5,-431.7 238.5,-431.7"/>
<image xlink:href="../../images/primaryKeys.png" width="11px" height="12px" preserveAspectRatio="xMinYMin meet" x="243.5" y="-448.7"/>
<text text-anchor="start" x="267.5" y="-438.8" font-family="Helvetica,sans-Serif" font-size="11.00" fill="#000000">Id</text>
<polygon fill="#ffffff" stroke="transparent" points="238.5,-409.7 238.5,-431.7 385.5,-431.7 385.5,-409.7 238.5,-409.7"/>
<polygon fill="none" stroke="#000000" points="238.5,-409.7 238.5,-431.7 385.5,-431.7 385.5,-409.7 238.5,-409.7"/>
<text text-anchor="start" x="267.5" y="-416.8" font-family="Helvetica,sans-Serif" font-size="11.00" fill="#000000">Code</text>
<polygon fill="none" stroke="#000000" points="238.5,-390.7 238.5,-409.7 385.5,-409.7 385.5,-390.7 238.5,-390.7"/>
<text text-anchor="start" x="241.5" y="-396.8" font-family="Helvetica,sans-Serif" font-size="11.00" fill="#000000">...</text>
<polygon fill="#ffffff" stroke="transparent" points="238.5,-371.7 238.5,-390.7 301.5,-390.7 301.5,-371.7 238.5,-371.7"/>
<polygon fill="none" stroke="#000000" points="238.5,-371.7 238.5,-390.7 301.5,-390.7 301.5,-371.7 238.5,-371.7"/>
<text text-anchor="start" x="241.5" y="-377.8" font-family="Helvetica,sans-Serif" font-size="11.00" fill="#000000"> &#160;</text>
<polygon fill="#ffffff" stroke="transparent" points="301.5,-371.7 301.5,-390.7 338.5,-390.7 338.5,-371.7 301.5,-371.7"/>
<polygon fill="none" stroke="#000000" points="301.5,-371.7 301.5,-390.7 338.5,-390.7 338.5,-371.7 301.5,-371.7"/>
<text text-anchor="start" x="329.3862" y="-377.8" font-family="Helvetica,sans-Serif" font-size="11.00" fill="#000000"> &#160;</text>
<polygon fill="#ffffff" stroke="transparent" points="338.5,-371.7 338.5,-390.7 385.5,-390.7 385.5,-371.7 338.5,-371.7"/>
<polygon fill="none" stroke="#000000" points="338.5,-371.7 338.5,-390.7 385.5,-390.7 385.5,-371.7 338.5,-371.7"/>
<text text-anchor="start" x="366.9053" y="-377.8" font-family="Helvetica,sans-Serif" font-size="11.00" fill="#000000">1 &gt;</text>
</a>
</g>
</g>
<!-- VisitEvents&#45;&gt;VisitEventTypes -->
<g id="edge7" class="edge">
<title>VisitEvents:w&#45;&gt;VisitEventTypes:e</title>
<path fill="none" stroke="#000000" d="M454.8547,-351.4119C418.3034,-366.8241 435.8378,-442.7 385.5,-442.7"/>
<polygon fill="#000000" stroke="#000000" points="461.6337,-350.1566 470.1555,-352.2398 465.5669,-349.4283 469.5,-348.7 469.5,-348.7 469.5,-348.7 465.5669,-349.4283 468.8445,-345.1602 461.6337,-350.1566 461.6337,-350.1566"/>
<ellipse fill="none" stroke="#000000" cx="458.4872" cy="-350.7393" rx="3.2" ry="3.2"/>
</g>
</g>
</svg>
