<?xml version="1.0" encoding="UTF-8" standalone="no"?>
<!DOCTYPE svg PUBLIC "-//W3C//DTD SVG 1.1//EN"
 "http://www.w3.org/Graphics/SVG/1.1/DTD/svg11.dtd">
<!-- Generated by graphviz version 2.40.1 (20161225.0304)
 -->
<!-- Title: twoDegreesRelationshipsDiagram Pages: 1 -->
<svg width="422pt" height="475pt"
 viewBox="0.00 0.00 422.00 475.20" xmlns="http://www.w3.org/2000/svg" xmlns:xlink="http://www.w3.org/1999/xlink">
<g id="graph0" class="graph" transform="scale(1 1) rotate(0) translate(4 471.2)">
<title>twoDegreesRelationshipsDiagram</title>
<polygon fill="#ffffff" stroke="transparent" points="-4,4 -4,-471.2 418,-471.2 418,4 -4,4"/>
<text text-anchor="middle" x="72.4936" y="-7.3" font-family="Helvetica,sans-Serif" font-size="11.00" fill="#000000">Generated by SchemaSpy</text>
<!-- VisitEvents -->
<g id="node1" class="node">
<title>VisitEvents</title>
<g id="a_node1"><a xlink:href="../../tables/VisitEvents.html" xlink:title="VisitEvents" target="_top">
<polygon fill="#ffffff" stroke="transparent" points="271,-153.2 271,-346.2 406,-346.2 406,-153.2 271,-153.2"/>
<polygon fill="#f5f5f5" stroke="transparent" points="271.5,-322.7 271.5,-345.7 406.5,-345.7 406.5,-322.7 271.5,-322.7"/>
<polygon fill="none" stroke="#000000" points="271.5,-322.7 271.5,-345.7 406.5,-345.7 406.5,-322.7 271.5,-322.7"/>
<text text-anchor="start" x="276.5" y="-331.3" font-family="Helvetica,sans-Serif" font-weight="bold" font-size="11.00" fill="#000000">VisitEvents</text>
<text text-anchor="start" x="371.5437" y="-330.8" font-family="Helvetica,sans-Serif" font-size="11.00" fill="#000000">[table]</text>
<polygon fill="none" stroke="#000000" points="271.5,-300.7 271.5,-322.7 406.5,-322.7 406.5,-300.7 271.5,-300.7"/>
<image xlink:href="../../images/primaryKeys.png" width="11px" height="12px" preserveAspectRatio="xMinYMin meet" x="276.5" y="-317.7"/>
<text text-anchor="start" x="291.5" y="-307.8" font-family="Helvetica,sans-Serif" font-size="11.00" fill="#000000">Id</text>
<polygon fill="#ffffff" stroke="transparent" points="271.5,-278.7 271.5,-300.7 406.5,-300.7 406.5,-278.7 271.5,-278.7"/>
<polygon fill="none" stroke="#000000" points="271.5,-278.7 271.5,-300.7 406.5,-300.7 406.5,-278.7 271.5,-278.7"/>
<image xlink:href="../../images/foreignKeys.png" width="11px" height="12px" preserveAspectRatio="xMinYMin meet" x="276.5" y="-295.7"/>
<text text-anchor="start" x="291.5" y="-285.8" font-family="Helvetica,sans-Serif" font-size="11.00" fill="#000000">VisitId</text>
<polygon fill="#ffffff" stroke="transparent" points="271.5,-256.7 271.5,-278.7 406.5,-278.7 406.5,-256.7 271.5,-256.7"/>
<polygon fill="none" stroke="#000000" points="271.5,-256.7 271.5,-278.7 406.5,-278.7 406.5,-256.7 271.5,-256.7"/>
<image xlink:href="../../images/foreignKeys.png" width="11px" height="12px" preserveAspectRatio="xMinYMin meet" x="276.5" y="-273.7"/>
<text text-anchor="start" x="291.5" y="-263.8" font-family="Helvetica,sans-Serif" font-size="11.00" fill="#000000">EventTypeId</text>
<polygon fill="#ffffff" stroke="transparent" points="271.5,-234.7 271.5,-256.7 406.5,-256.7 406.5,-234.7 271.5,-234.7"/>
<polygon fill="none" stroke="#000000" points="271.5,-234.7 271.5,-256.7 406.5,-256.7 406.5,-234.7 271.5,-234.7"/>
<text text-anchor="start" x="291.5" y="-241.8" font-family="Helvetica,sans-Serif" font-size="11.00" fill="#000000">EventOccurredAt</text>
<polygon fill="#ffffff" stroke="transparent" points="271.5,-212.7 271.5,-234.7 406.5,-234.7 406.5,-212.7 271.5,-212.7"/>
<polygon fill="none" stroke="#000000" points="271.5,-212.7 271.5,-234.7 406.5,-234.7 406.5,-212.7 271.5,-212.7"/>
<image xlink:href="../../images/foreignKeys.png" width="11px" height="12px" preserveAspectRatio="xMinYMin meet" x="276.5" y="-229.7"/>
<text text-anchor="start" x="291.5" y="-219.8" font-family="Helvetica,sans-Serif" font-size="11.00" fill="#000000">EnteredByUserId</text>
<polygon fill="#ffffff" stroke="transparent" points="271.5,-190.7 271.5,-212.7 406.5,-212.7 406.5,-190.7 271.5,-190.7"/>
<polygon fill="none" stroke="#000000" points="271.5,-190.7 271.5,-212.7 406.5,-212.7 406.5,-190.7 271.5,-190.7"/>
<image xlink:href="../../images/foreignKeys.png" width="11px" height="12px" preserveAspectRatio="xMinYMin meet" x="276.5" y="-207.7"/>
<text text-anchor="start" x="291.5" y="-197.8" font-family="Helvetica,sans-Serif" font-size="11.00" fill="#000000">EmployeeId</text>
<polygon fill="none" stroke="#000000" points="271.5,-171.7 271.5,-190.7 406.5,-190.7 406.5,-171.7 271.5,-171.7"/>
<text text-anchor="start" x="274.5" y="-177.8" font-family="Helvetica,sans-Serif" font-size="11.00" fill="#000000">...</text>
<polygon fill="#ffffff" stroke="transparent" points="271.5,-152.7 271.5,-171.7 337.5,-171.7 337.5,-152.7 271.5,-152.7"/>
<polygon fill="none" stroke="#000000" points="271.5,-152.7 271.5,-171.7 337.5,-171.7 337.5,-152.7 271.5,-152.7"/>
<text text-anchor="start" x="274.5" y="-158.8" font-family="Helvetica,sans-Serif" font-size="11.00" fill="#000000">&lt; 4</text>
<polygon fill="#ffffff" stroke="transparent" points="337.5,-152.7 337.5,-171.7 371.5,-171.7 371.5,-152.7 337.5,-152.7"/>
<polygon fill="none" stroke="#000000" points="337.5,-152.7 337.5,-171.7 371.5,-171.7 371.5,-152.7 337.5,-152.7"/>
<text text-anchor="start" x="362.3862" y="-158.8" font-family="Helvetica,sans-Serif" font-size="11.00" fill="#000000"> &#160;</text>
<polygon fill="#ffffff" stroke="transparent" points="371.5,-152.7 371.5,-171.7 406.5,-171.7 406.5,-152.7 371.5,-152.7"/>
<polygon fill="none" stroke="#000000" points="371.5,-152.7 371.5,-171.7 406.5,-171.7 406.5,-152.7 371.5,-152.7"/>
<text text-anchor="start" x="397.3862" y="-158.8" font-family="Helvetica,sans-Serif" font-size="11.00" fill="#000000"> &#160;</text>
</a>
</g>
</g>
<!-- Compensation.Employees -->
<g id="node2" class="node">
<title>Compensation.Employees</title>
<g id="a_node2"><a xlink:title="Compensation.Employees">
<polygon fill="#ffffff" stroke="transparent" points="8.5,-38.2 8.5,-99.2 221.5,-99.2 221.5,-38.2 8.5,-38.2"/>
<polygon fill="#f5f5f5" stroke="transparent" points="9,-75.7 9,-98.7 222,-98.7 222,-75.7 9,-75.7"/>
<polygon fill="none" stroke="#000000" points="9,-75.7 9,-98.7 222,-98.7 222,-75.7 9,-75.7"/>
<text text-anchor="start" x="14" y="-84.3" font-family="Helvetica,sans-Serif" font-weight="bold" font-size="11.00" fill="#000000">Compensation.Employees</text>
<text text-anchor="start" x="187.5219" y="-83.8" font-family="Helvetica,sans-Serif" font-size="11.00" fill="#000000">[table]</text>
<polygon fill="none" stroke="#000000" points="9,-56.7 9,-75.7 222,-75.7 222,-56.7 9,-56.7"/>
<text text-anchor="start" x="12" y="-62.8" font-family="Helvetica,sans-Serif" font-size="11.00" fill="#000000">...</text>
<polygon fill="#ffffff" stroke="transparent" points="9,-37.7 9,-56.7 105,-56.7 105,-37.7 9,-37.7"/>
<polygon fill="none" stroke="#000000" points="9,-37.7 9,-56.7 105,-56.7 105,-37.7 9,-37.7"/>
<text text-anchor="start" x="12" y="-43.8" font-family="Helvetica,sans-Serif" font-size="11.00" fill="#000000"> &#160;</text>
<polygon fill="#ffffff" stroke="transparent" points="105,-37.7 105,-56.7 159,-56.7 159,-37.7 105,-37.7"/>
<polygon fill="none" stroke="#000000" points="105,-37.7 105,-56.7 159,-56.7 159,-37.7 105,-37.7"/>
<text text-anchor="start" x="149.8862" y="-43.8" font-family="Helvetica,sans-Serif" font-size="11.00" fill="#000000"> &#160;</text>
<polygon fill="#ffffff" stroke="transparent" points="159,-37.7 159,-56.7 222,-56.7 222,-37.7 159,-37.7"/>
<polygon fill="none" stroke="#000000" points="159,-37.7 159,-56.7 222,-56.7 222,-37.7 159,-37.7"/>
<text text-anchor="start" x="203.4053" y="-43.8" font-family="Helvetica,sans-Serif" font-size="11.00" fill="#000000">2 &gt;</text>
</a>
</g>
</g>
<!-- VisitEvents&#45;&gt;Compensation.Employees -->
<g id="edge1" class="edge">
<title>VisitEvents:w&#45;&gt;Compensation.Employees:e</title>
<path fill="none" stroke="#000000" d="M257.4289,-198.6039C220.2401,-178.3603 280.5446,-65.7 222,-65.7"/>
<polygon fill="#000000" stroke="#000000" points="263.6869,-199.9808 270.7264,-205.2159 267.5934,-200.8404 271.5,-201.7 271.5,-201.7 271.5,-201.7 267.5934,-200.8404 272.2736,-198.1841 263.6869,-199.9808 263.6869,-199.9808"/>
<ellipse fill="none" stroke="#000000" cx="260.5617" cy="-199.2932" rx="3.2" ry="3.2"/>
</g>
<!-- Identity.Users -->
<g id="node3" class="node">
<title>Identity.Users</title>
<g id="a_node3"><a xlink:title="Identity.Users">
<polygon fill="#ffffff" stroke="transparent" points="48,-120.2 48,-181.2 182,-181.2 182,-120.2 48,-120.2"/>
<polygon fill="#f5f5f5" stroke="transparent" points="48,-157.7 48,-180.7 182,-180.7 182,-157.7 48,-157.7"/>
<polygon fill="none" stroke="#000000" points="48,-157.7 48,-180.7 182,-180.7 182,-157.7 48,-157.7"/>
<text text-anchor="start" x="53" y="-166.3" font-family="Helvetica,sans-Serif" font-weight="bold" font-size="11.00" fill="#000000">Identity.Users</text>
<text text-anchor="start" x="147.5219" y="-165.8" font-family="Helvetica,sans-Serif" font-size="11.00" fill="#000000">[table]</text>
<polygon fill="none" stroke="#000000" points="48,-138.7 48,-157.7 182,-157.7 182,-138.7 48,-138.7"/>
<text text-anchor="start" x="51" y="-144.8" font-family="Helvetica,sans-Serif" font-size="11.00" fill="#000000">...</text>
<polygon fill="#ffffff" stroke="transparent" points="48,-119.7 48,-138.7 104,-138.7 104,-119.7 48,-119.7"/>
<polygon fill="none" stroke="#000000" points="48,-119.7 48,-138.7 104,-138.7 104,-119.7 48,-119.7"/>
<text text-anchor="start" x="51" y="-125.8" font-family="Helvetica,sans-Serif" font-size="11.00" fill="#000000"> &#160;</text>
<polygon fill="#ffffff" stroke="transparent" points="104,-119.7 104,-138.7 138,-138.7 138,-119.7 104,-119.7"/>
<polygon fill="none" stroke="#000000" points="104,-119.7 104,-138.7 138,-138.7 138,-119.7 104,-119.7"/>
<text text-anchor="start" x="128.8862" y="-125.8" font-family="Helvetica,sans-Serif" font-size="11.00" fill="#000000"> &#160;</text>
<polygon fill="#ffffff" stroke="transparent" points="138,-119.7 138,-138.7 182,-138.7 182,-119.7 138,-119.7"/>
<polygon fill="none" stroke="#000000" points="138,-119.7 138,-138.7 182,-138.7 182,-119.7 138,-119.7"/>
<text text-anchor="start" x="163.4053" y="-125.8" font-family="Helvetica,sans-Serif" font-size="11.00" fill="#000000">2 &gt;</text>
</a>
</g>
</g>
<!-- VisitEvents&#45;&gt;Identity.Users -->
<g id="edge2" class="edge">
<title>VisitEvents:w&#45;&gt;Identity.Users:e</title>
<path fill="none" stroke="#000000" d="M257.8506,-218.2343C233.4657,-200.8082 203.8114,-147.7 182,-147.7"/>
<polygon fill="#000000" stroke="#000000" points="264.0733,-220.726 270.1617,-227.042 267.7867,-222.213 271.5,-223.7 271.5,-223.7 271.5,-223.7 267.7867,-222.213 272.8383,-220.358 264.0733,-220.726 264.0733,-220.726"/>
<ellipse fill="none" stroke="#000000" cx="261.1026" cy="-219.5365" rx="3.2" ry="3.2"/>
</g>
<!-- VisitEventTypes -->
<g id="node4" class="node">
<title>VisitEventTypes</title>
<g id="a_node4"><a xlink:href="../../tables/VisitEventTypes.html" xlink:title="VisitEventTypes" target="_top">
<polygon fill="#ffffff" stroke="transparent" points="8,-202.7 8,-380.7 222,-380.7 222,-202.7 8,-202.7"/>
<polygon fill="#f5f5f5" stroke="transparent" points="10,-355.7 10,-378.7 220,-378.7 220,-355.7 10,-355.7"/>
<polygon fill="none" stroke="#000000" points="10,-355.7 10,-378.7 220,-378.7 220,-355.7 10,-355.7"/>
<text text-anchor="start" x="15" y="-364.3" font-family="Helvetica,sans-Serif" font-weight="bold" font-size="11.00" fill="#000000">VisitEventTypes</text>
<text text-anchor="start" x="185.0437" y="-363.8" font-family="Helvetica,sans-Serif" font-size="11.00" fill="#000000">[table]</text>
<polygon fill="none" stroke="#000000" points="10,-333.7 10,-355.7 139,-355.7 139,-333.7 10,-333.7"/>
<image xlink:href="../../images/primaryKeys.png" width="11px" height="12px" preserveAspectRatio="xMinYMin meet" x="15" y="-350.7"/>
<text text-anchor="start" x="30" y="-340.8" font-family="Helvetica,sans-Serif" font-size="11.00" fill="#000000">Id</text>
<polygon fill="none" stroke="#000000" points="139,-333.7 139,-355.7 220,-355.7 220,-333.7 139,-333.7"/>
<text text-anchor="start" x="142" y="-341.4" font-family="Helvetica,sans-Serif" font-size="11.00" fill="#000000">int identity[4]</text>
<polygon fill="#ffffff" stroke="transparent" points="10,-311.7 10,-333.7 139,-333.7 139,-311.7 10,-311.7"/>
<polygon fill="none" stroke="#000000" points="10,-311.7 10,-333.7 139,-333.7 139,-311.7 10,-311.7"/>
<text text-anchor="start" x="30" y="-318.8" font-family="Helvetica,sans-Serif" font-size="11.00" fill="#000000">Code</text>
<polygon fill="none" stroke="#000000" points="139,-311.7 139,-333.7 220,-333.7 220,-311.7 139,-311.7"/>
<text text-anchor="start" x="142" y="-319.4" font-family="Helvetica,sans-Serif" font-size="11.00" fill="#000000">nvarchar[100]</text>
<polygon fill="none" stroke="#000000" points="10,-289.7 10,-311.7 139,-311.7 139,-289.7 10,-289.7"/>
<text text-anchor="start" x="30" y="-296.8" font-family="Helvetica,sans-Serif" font-size="11.00" fill="#000000">Name</text>
<polygon fill="none" stroke="#000000" points="139,-289.7 139,-311.7 220,-311.7 220,-289.7 139,-289.7"/>
<text text-anchor="start" x="142" y="-297.4" font-family="Helvetica,sans-Serif" font-size="11.00" fill="#000000">nvarchar[200]</text>
<polygon fill="none" stroke="#000000" points="10,-267.7 10,-289.7 139,-289.7 139,-267.7 10,-267.7"/>
<text text-anchor="start" x="30" y="-274.8" font-family="Helvetica,sans-Serif" font-size="11.00" fill="#000000">CreatedAtUtc</text>
<polygon fill="none" stroke="#000000" points="139,-267.7 139,-289.7 220,-289.7 220,-267.7 139,-267.7"/>
<text text-anchor="start" x="141.5967" y="-275.4" font-family="Helvetica,sans-Serif" font-size="11.00" fill="#000000">datetime2[16,7]</text>
<polygon fill="none" stroke="#000000" points="10,-245.7 10,-267.7 139,-267.7 139,-245.7 10,-245.7"/>
<text text-anchor="start" x="30" y="-252.8" font-family="Helvetica,sans-Serif" font-size="11.00" fill="#000000">UpdatedAtUtc</text>
<polygon fill="none" stroke="#000000" points="139,-245.7 139,-267.7 220,-267.7 220,-245.7 139,-245.7"/>
<text text-anchor="start" x="141.5967" y="-253.4" font-family="Helvetica,sans-Serif" font-size="11.00" fill="#000000">datetime2[16,7]</text>
<polygon fill="none" stroke="#000000" points="10,-223.7 10,-245.7 139,-245.7 139,-223.7 10,-223.7"/>
<text text-anchor="start" x="30" y="-230.8" font-family="Helvetica,sans-Serif" font-size="11.00" fill="#000000">RowVersion</text>
<polygon fill="none" stroke="#000000" points="139,-223.7 139,-245.7 220,-245.7 220,-223.7 139,-223.7"/>
<text text-anchor="start" x="142" y="-231.4" font-family="Helvetica,sans-Serif" font-size="11.00" fill="#000000">timestamp[8]</text>
<polygon fill="#ffffff" stroke="transparent" points="10,-204.7 10,-223.7 79,-223.7 79,-204.7 10,-204.7"/>
<polygon fill="none" stroke="#000000" points="10,-204.7 10,-223.7 79,-223.7 79,-204.7 10,-204.7"/>
<text text-anchor="start" x="13" y="-210.8" font-family="Helvetica,sans-Serif" font-size="11.00" fill="#000000">&lt; 0</text>
<polygon fill="#ffffff" stroke="transparent" points="79,-204.7 79,-223.7 139,-223.7 139,-204.7 79,-204.7"/>
<polygon fill="none" stroke="#000000" points="79,-204.7 79,-223.7 139,-223.7 139,-204.7 79,-204.7"/>
<text text-anchor="start" x="129.8862" y="-210.8" font-family="Helvetica,sans-Serif" font-size="11.00" fill="#000000"> &#160;</text>
<polygon fill="#ffffff" stroke="transparent" points="139,-204.7 139,-223.7 220,-223.7 220,-204.7 139,-204.7"/>
<polygon fill="none" stroke="#000000" points="139,-204.7 139,-223.7 220,-223.7 220,-204.7 139,-204.7"/>
<text text-anchor="start" x="201.4053" y="-210.8" font-family="Helvetica,sans-Serif" font-size="11.00" fill="#000000">1 &gt;</text>
<polygon fill="none" stroke="#000000" stroke-width="2" points="9,-203.7 9,-379.7 221,-379.7 221,-203.7 9,-203.7"/>
</a>
</g>
</g>
<!-- VisitEvents&#45;&gt;VisitEventTypes -->
<g id="edge3" class="edge">
<title>VisitEvents:w&#45;&gt;VisitEventTypes:e</title>
<path fill="none" stroke="#000000" d="M257.7265,-272.0605C237.7399,-288.3493 255.2206,-344.7 220,-344.7"/>
<polygon fill="#000000" stroke="#000000" points="263.8731,-270.1146 272.5866,-271.1321 267.6865,-268.9073 271.5,-267.7 271.5,-267.7 271.5,-267.7 267.6865,-268.9073 270.4134,-264.2679 263.8731,-270.1146 263.8731,-270.1146"/>
<ellipse fill="none" stroke="#000000" cx="260.8223" cy="-271.0805" rx="3.2" ry="3.2"/>
</g>
<!-- Visits -->
<g id="node5" class="node">
<title>Visits</title>
<g id="a_node5"><a xlink:href="../../tables/Visits.html" xlink:title="Visits" target="_top">
<polygon fill="#ffffff" stroke="transparent" points="77,-402.2 77,-463.2 153,-463.2 153,-402.2 77,-402.2"/>
<polygon fill="#f5f5f5" stroke="transparent" points="77,-439.7 77,-462.7 153,-462.7 153,-439.7 77,-439.7"/>
<polygon fill="none" stroke="#000000" points="77,-439.7 77,-462.7 153,-462.7 153,-439.7 77,-439.7"/>
<text text-anchor="start" x="82" y="-448.3" font-family="Helvetica,sans-Serif" font-weight="bold" font-size="11.00" fill="#000000">Visits</text>
<text text-anchor="start" x="118.5219" y="-447.8" font-family="Helvetica,sans-Serif" font-size="11.00" fill="#000000">[table]</text>
<polygon fill="none" stroke="#000000" points="77,-420.7 77,-439.7 153,-439.7 153,-420.7 77,-420.7"/>
<text text-anchor="start" x="80" y="-426.8" font-family="Helvetica,sans-Serif" font-size="11.00" fill="#000000">...</text>
<polygon fill="#ffffff" stroke="transparent" points="77,-401.7 77,-420.7 109,-420.7 109,-401.7 77,-401.7"/>
<polygon fill="none" stroke="#000000" points="77,-401.7 77,-420.7 109,-420.7 109,-401.7 77,-401.7"/>
<text text-anchor="start" x="80" y="-407.8" font-family="Helvetica,sans-Serif" font-size="11.00" fill="#000000">&lt; 2</text>
<polygon fill="#ffffff" stroke="transparent" points="109,-401.7 109,-420.7 126,-420.7 126,-401.7 109,-401.7"/>
<polygon fill="none" stroke="#000000" points="109,-401.7 109,-420.7 126,-420.7 126,-401.7 109,-401.7"/>
<text text-anchor="start" x="116.8862" y="-407.8" font-family="Helvetica,sans-Serif" font-size="11.00" fill="#000000"> &#160;</text>
<polygon fill="#ffffff" stroke="transparent" points="126,-401.7 126,-420.7 153,-420.7 153,-401.7 126,-401.7"/>
<polygon fill="none" stroke="#000000" points="126,-401.7 126,-420.7 153,-420.7 153,-401.7 126,-401.7"/>
<text text-anchor="start" x="134.4053" y="-407.8" font-family="Helvetica,sans-Serif" font-size="11.00" fill="#000000">2 &gt;</text>
</a>
</g>
</g>
<!-- VisitEvents&#45;&gt;Visits -->
<g id="edge4" class="edge">
<title>VisitEvents:w&#45;&gt;Visits:e</title>
<path fill="none" stroke="#000000" d="M257.0325,-292.6132C231.5951,-305.7683 259.1713,-360.348 230,-391.7 204.004,-419.6393 191.1627,-429.7 153,-429.7"/>
<polygon fill="#000000" stroke="#000000" points="263.6574,-291.2792 272.2107,-293.2292 267.5787,-290.4896 271.5,-289.7 271.5,-289.7 271.5,-289.7 267.5787,-290.4896 270.7893,-286.1708 263.6574,-291.2792 263.6574,-291.2792"/>
<ellipse fill="none" stroke="#000000" cx="260.5204" cy="-291.9109" rx="3.2" ry="3.2"/>
</g>
</g>
</svg>
