<?xml version="1.0" encoding="UTF-8" standalone="no"?>
<!DOCTYPE svg PUBLIC "-//W3C//DTD SVG 1.1//EN"
 "http://www.w3.org/Graphics/SVG/1.1/DTD/svg11.dtd">
<!-- Generated by graphviz version 2.40.1 (20161225.0304)
 -->
<!-- Title: compactRelationshipsDiagram Pages: 1 -->
<svg width="486pt" height="363pt"
 viewBox="0.00 0.00 486.00 363.20" xmlns="http://www.w3.org/2000/svg" xmlns:xlink="http://www.w3.org/1999/xlink">
<g id="graph0" class="graph" transform="scale(1 1) rotate(0) translate(4 359.2)">
<title>compactRelationshipsDiagram</title>
<polygon fill="#ffffff" stroke="transparent" points="-4,4 -4,-359.2 482,-359.2 482,4 -4,4"/>
<text text-anchor="middle" x="72.4936" y="-7.3" font-family="Helvetica,sans-Serif" font-size="11.00" fill="#000000">Generated by SchemaSpy</text>
<!-- BillingCodes -->
<g id="node1" class="node">
<title>BillingCodes</title>
<g id="a_node1"><a xlink:href="../../tables/BillingCodes.html" xlink:title="BillingCodes" target="_top">
<polygon fill="#ffffff" stroke="transparent" points="40.5,-38.2 40.5,-143.2 169.5,-143.2 169.5,-38.2 40.5,-38.2"/>
<polygon fill="#f5f5f5" stroke="transparent" points="41,-119.7 41,-142.7 170,-142.7 170,-119.7 41,-119.7"/>
<polygon fill="none" stroke="#000000" points="41,-119.7 41,-142.7 170,-142.7 170,-119.7 41,-119.7"/>
<text text-anchor="start" x="46" y="-128.3" font-family="Helvetica,sans-Serif" font-weight="bold" font-size="11.00" fill="#000000">BillingCodes</text>
<text text-anchor="start" x="135.5219" y="-127.8" font-family="Helvetica,sans-Serif" font-size="11.00" fill="#000000">[table]</text>
<polygon fill="none" stroke="#000000" points="41,-97.7 41,-119.7 170,-119.7 170,-97.7 41,-97.7"/>
<image xlink:href="../../images/primaryKeys.png" width="11px" height="12px" preserveAspectRatio="xMinYMin meet" x="46" y="-114.7"/>
<text text-anchor="start" x="64" y="-104.8" font-family="Helvetica,sans-Serif" font-size="11.00" fill="#000000">Id</text>
<polygon fill="#ffffff" stroke="transparent" points="41,-75.7 41,-97.7 170,-97.7 170,-75.7 41,-75.7"/>
<polygon fill="none" stroke="#000000" points="41,-75.7 41,-97.7 170,-97.7 170,-75.7 41,-75.7"/>
<text text-anchor="start" x="64" y="-82.8" font-family="Helvetica,sans-Serif" font-size="11.00" fill="#000000">Code</text>
<polygon fill="none" stroke="#000000" points="41,-56.7 41,-75.7 170,-75.7 170,-56.7 41,-56.7"/>
<text text-anchor="start" x="44" y="-62.8" font-family="Helvetica,sans-Serif" font-size="11.00" fill="#000000">...</text>
<polygon fill="#ffffff" stroke="transparent" points="41,-37.7 41,-56.7 170,-56.7 170,-37.7 41,-37.7"/>
<polygon fill="none" stroke="#000000" points="41,-37.7 41,-56.7 170,-56.7 170,-37.7 41,-37.7"/>
<polygon fill="#ffffff" stroke="transparent" points="42,-38.7 42,-55.7 82,-55.7 82,-38.7 42,-38.7"/>
<text text-anchor="start" x="44" y="-43.8" font-family="Helvetica,sans-Serif" font-size="11.00" fill="#000000"> &#160;</text>
<polygon fill="#ffffff" stroke="transparent" points="82,-38.7 82,-55.7 121,-55.7 121,-38.7 82,-38.7"/>
<text text-anchor="start" x="98.4431" y="-43.8" font-family="Helvetica,sans-Serif" font-size="11.00" fill="#000000"> &#160;</text>
<polygon fill="#ffffff" stroke="transparent" points="121,-38.7 121,-55.7 169,-55.7 169,-38.7 121,-38.7"/>
<text text-anchor="start" x="151.4053" y="-43.8" font-family="Helvetica,sans-Serif" font-size="11.00" fill="#000000">2 &gt;</text>
<polygon fill="#000000" stroke="#000000" points="82,-38.7 82,-55.7 82,-55.7 82,-38.7 82,-38.7"/>
<polygon fill="#000000" stroke="#000000" points="121,-38.7 121,-55.7 121,-55.7 121,-38.7 121,-38.7"/>
</a>
</g>
</g>
<!-- ServiceTypeBillingCodes -->
<g id="node2" class="node">
<title>ServiceTypeBillingCodes</title>
<g id="a_node2"><a xlink:href="../../tables/ServiceTypeBillingCodes.html" xlink:title="ServiceTypeBillingCodes" target="_top">
<polygon fill="#ffffff" stroke="transparent" points="251,-54.2 251,-181.2 470,-181.2 470,-54.2 251,-54.2"/>
<polygon fill="#f5f5f5" stroke="transparent" points="251.5,-157.7 251.5,-180.7 470.5,-180.7 470.5,-157.7 251.5,-157.7"/>
<polygon fill="none" stroke="#000000" points="251.5,-157.7 251.5,-180.7 470.5,-180.7 470.5,-157.7 251.5,-157.7"/>
<text text-anchor="start" x="256.5" y="-166.3" font-family="Helvetica,sans-Serif" font-weight="bold" font-size="11.00" fill="#000000">ServiceTypeBillingCodes</text>
<text text-anchor="start" x="436.0219" y="-165.8" font-family="Helvetica,sans-Serif" font-size="11.00" fill="#000000">[table]</text>
<polygon fill="none" stroke="#000000" points="251.5,-135.7 251.5,-157.7 470.5,-157.7 470.5,-135.7 251.5,-135.7"/>
<image xlink:href="../../images/primaryKeys.png" width="11px" height="12px" preserveAspectRatio="xMinYMin meet" x="256.5" y="-152.7"/>
<text text-anchor="start" x="280.5" y="-142.8" font-family="Helvetica,sans-Serif" font-size="11.00" fill="#000000">Id</text>
<polygon fill="#ffffff" stroke="transparent" points="251.5,-113.7 251.5,-135.7 470.5,-135.7 470.5,-113.7 251.5,-113.7"/>
<polygon fill="none" stroke="#000000" points="251.5,-113.7 251.5,-135.7 470.5,-135.7 470.5,-113.7 251.5,-113.7"/>
<image xlink:href="../../images/foreignKeys.png" width="11px" height="12px" preserveAspectRatio="xMinYMin meet" x="256.5" y="-130.7"/>
<text text-anchor="start" x="280.5" y="-120.8" font-family="Helvetica,sans-Serif" font-size="11.00" fill="#000000">ServiceTypeId</text>
<polygon fill="#ffffff" stroke="transparent" points="251.5,-91.7 251.5,-113.7 470.5,-113.7 470.5,-91.7 251.5,-91.7"/>
<polygon fill="none" stroke="#000000" points="251.5,-91.7 251.5,-113.7 470.5,-113.7 470.5,-91.7 251.5,-91.7"/>
<image xlink:href="../../images/foreignKeys.png" width="11px" height="12px" preserveAspectRatio="xMinYMin meet" x="256.5" y="-108.7"/>
<text text-anchor="start" x="280.5" y="-98.8" font-family="Helvetica,sans-Serif" font-size="11.00" fill="#000000">BillingCodeId</text>
<polygon fill="none" stroke="#000000" points="251.5,-72.7 251.5,-91.7 470.5,-91.7 470.5,-72.7 251.5,-72.7"/>
<text text-anchor="start" x="254.5" y="-78.8" font-family="Helvetica,sans-Serif" font-size="11.00" fill="#000000">...</text>
<polygon fill="#ffffff" stroke="transparent" points="251.5,-53.7 251.5,-72.7 470.5,-72.7 470.5,-53.7 251.5,-53.7"/>
<polygon fill="none" stroke="#000000" points="251.5,-53.7 251.5,-72.7 470.5,-72.7 470.5,-53.7 251.5,-53.7"/>
<polygon fill="#ffffff" stroke="transparent" points="252.5,-54.7 252.5,-71.7 331.5,-71.7 331.5,-54.7 252.5,-54.7"/>
<text text-anchor="start" x="254.5" y="-59.8" font-family="Helvetica,sans-Serif" font-size="11.00" fill="#000000">&lt; 2</text>
<polygon fill="#ffffff" stroke="transparent" points="331.5,-54.7 331.5,-71.7 400.5,-71.7 400.5,-54.7 331.5,-54.7"/>
<text text-anchor="start" x="362.9431" y="-59.8" font-family="Helvetica,sans-Serif" font-size="11.00" fill="#000000"> &#160;</text>
<polygon fill="#ffffff" stroke="transparent" points="400.5,-54.7 400.5,-71.7 469.5,-71.7 469.5,-54.7 400.5,-54.7"/>
<text text-anchor="start" x="461.3862" y="-59.8" font-family="Helvetica,sans-Serif" font-size="11.00" fill="#000000"> &#160;</text>
<polygon fill="#000000" stroke="#000000" points="331.5,-54.7 331.5,-71.7 331.5,-71.7 331.5,-54.7 331.5,-54.7"/>
<polygon fill="#000000" stroke="#000000" points="400.5,-54.7 400.5,-71.7 400.5,-71.7 400.5,-54.7 400.5,-54.7"/>
</a>
</g>
</g>
<!-- ServiceTypeBillingCodes&#45;&gt;BillingCodes -->
<g id="edge1" class="edge">
<title>ServiceTypeBillingCodes:w&#45;&gt;BillingCodes:e</title>
<path fill="none" stroke="#000000" d="M236.9617,-103.0574C211.9445,-104.349 200.929,-108.7 170,-108.7"/>
<polygon fill="#000000" stroke="#000000" points="243.5024,-102.8966 251.5885,-106.2989 247.5012,-102.7983 251.5,-102.7 251.5,-102.7 251.5,-102.7 247.5012,-102.7983 251.4115,-99.1011 243.5024,-102.8966 243.5024,-102.8966"/>
<ellipse fill="none" stroke="#000000" cx="240.3034" cy="-102.9753" rx="3.2" ry="3.2"/>
</g>
<!-- Clinical.ServiceTypes -->
<g id="node4" class="node">
<title>Clinical.ServiceTypes</title>
<g id="a_node4"><a xlink:title="Clinical.ServiceTypes">
<polygon fill="#ffffff" stroke="transparent" points="8,-176.2 8,-237.2 202,-237.2 202,-176.2 8,-176.2"/>
<polygon fill="#f5f5f5" stroke="transparent" points="8,-213.7 8,-236.7 202,-236.7 202,-213.7 8,-213.7"/>
<polygon fill="none" stroke="#000000" points="8,-213.7 8,-236.7 202,-236.7 202,-213.7 8,-213.7"/>
<text text-anchor="start" x="13" y="-222.3" font-family="Helvetica,sans-Serif" font-weight="bold" font-size="11.00" fill="#000000">Clinical.ServiceTypes</text>
<text text-anchor="start" x="167.5219" y="-221.8" font-family="Helvetica,sans-Serif" font-size="11.00" fill="#000000">[table]</text>
<polygon fill="none" stroke="#000000" points="8,-194.7 8,-213.7 202,-213.7 202,-194.7 8,-194.7"/>
<text text-anchor="start" x="11" y="-200.8" font-family="Helvetica,sans-Serif" font-size="11.00" fill="#000000">...</text>
<polygon fill="#ffffff" stroke="transparent" points="8,-175.7 8,-194.7 202,-194.7 202,-175.7 8,-175.7"/>
<polygon fill="none" stroke="#000000" points="8,-175.7 8,-194.7 202,-194.7 202,-175.7 8,-175.7"/>
<polygon fill="#ffffff" stroke="transparent" points="9,-176.7 9,-193.7 70,-193.7 70,-176.7 9,-176.7"/>
<text text-anchor="start" x="11" y="-181.8" font-family="Helvetica,sans-Serif" font-size="11.00" fill="#000000"> &#160;</text>
<polygon fill="#ffffff" stroke="transparent" points="70,-176.7 70,-193.7 131,-193.7 131,-176.7 70,-176.7"/>
<text text-anchor="start" x="97.4431" y="-181.8" font-family="Helvetica,sans-Serif" font-size="11.00" fill="#000000"> &#160;</text>
<polygon fill="#ffffff" stroke="transparent" points="131,-176.7 131,-193.7 201,-193.7 201,-176.7 131,-176.7"/>
<text text-anchor="start" x="183.4053" y="-181.8" font-family="Helvetica,sans-Serif" font-size="11.00" fill="#000000">2 &gt;</text>
<polygon fill="#000000" stroke="#000000" points="70,-176.7 70,-193.7 70,-193.7 70,-176.7 70,-176.7"/>
<polygon fill="#000000" stroke="#000000" points="131,-176.7 131,-193.7 131,-193.7 131,-176.7 131,-176.7"/>
</a>
</g>
</g>
<!-- ServiceTypeBillingCodes&#45;&gt;Clinical.ServiceTypes -->
<g id="edge2" class="edge">
<title>ServiceTypeBillingCodes:w&#45;&gt;Clinical.ServiceTypes:e</title>
<path fill="none" stroke="#000000" d="M237.292,-128.1378C227.7037,-133.8044 224.0336,-145.313 210,-153.7 199.4832,-159.9853 188.1283,-166.2357 176.9059,-172.1224"/>
<polygon fill="#000000" stroke="#000000" points="243.7244,-126.5815 252.3467,-128.199 247.6122,-125.6407 251.5,-124.7 251.5,-124.7 251.5,-124.7 247.6122,-125.6407 250.6533,-121.201 243.7244,-126.5815 243.7244,-126.5815"/>
<ellipse fill="none" stroke="#000000" cx="240.6141" cy="-127.334" rx="3.2" ry="3.2"/>
</g>
<!-- VisitServiceBillings -->
<g id="node3" class="node">
<title>VisitServiceBillings</title>
<g id="a_node3"><a xlink:href="../../tables/VisitServiceBillings.html" xlink:title="VisitServiceBillings" target="_top">
<polygon fill="#ffffff" stroke="transparent" points="270.5,-202.2 270.5,-351.2 450.5,-351.2 450.5,-202.2 270.5,-202.2"/>
<polygon fill="#f5f5f5" stroke="transparent" points="270.5,-327.7 270.5,-350.7 450.5,-350.7 450.5,-327.7 270.5,-327.7"/>
<polygon fill="none" stroke="#000000" points="270.5,-327.7 270.5,-350.7 450.5,-350.7 450.5,-327.7 270.5,-327.7"/>
<text text-anchor="start" x="275.5" y="-336.3" font-family="Helvetica,sans-Serif" font-weight="bold" font-size="11.00" fill="#000000">VisitServiceBillings</text>
<text text-anchor="start" x="416.0219" y="-335.8" font-family="Helvetica,sans-Serif" font-size="11.00" fill="#000000">[table]</text>
<polygon fill="none" stroke="#000000" points="270.5,-305.7 270.5,-327.7 450.5,-327.7 450.5,-305.7 270.5,-305.7"/>
<image xlink:href="../../images/primaryKeys.png" width="11px" height="12px" preserveAspectRatio="xMinYMin meet" x="275.5" y="-322.7"/>
<text text-anchor="start" x="299.5" y="-312.8" font-family="Helvetica,sans-Serif" font-size="11.00" fill="#000000">Id</text>
<polygon fill="#ffffff" stroke="transparent" points="270.5,-283.7 270.5,-305.7 450.5,-305.7 450.5,-283.7 270.5,-283.7"/>
<polygon fill="none" stroke="#000000" points="270.5,-283.7 270.5,-305.7 450.5,-305.7 450.5,-283.7 270.5,-283.7"/>
<image xlink:href="../../images/foreignKeys.png" width="11px" height="12px" preserveAspectRatio="xMinYMin meet" x="275.5" y="-300.7"/>
<text text-anchor="start" x="299.5" y="-290.8" font-family="Helvetica,sans-Serif" font-size="11.00" fill="#000000">VisitId</text>
<polygon fill="#ffffff" stroke="transparent" points="270.5,-261.7 270.5,-283.7 450.5,-283.7 450.5,-261.7 270.5,-261.7"/>
<polygon fill="none" stroke="#000000" points="270.5,-261.7 270.5,-283.7 450.5,-283.7 450.5,-261.7 270.5,-261.7"/>
<image xlink:href="../../images/foreignKeys.png" width="11px" height="12px" preserveAspectRatio="xMinYMin meet" x="275.5" y="-278.7"/>
<text text-anchor="start" x="299.5" y="-268.8" font-family="Helvetica,sans-Serif" font-size="11.00" fill="#000000">ServiceTypeId</text>
<polygon fill="#ffffff" stroke="transparent" points="270.5,-239.7 270.5,-261.7 450.5,-261.7 450.5,-239.7 270.5,-239.7"/>
<polygon fill="none" stroke="#000000" points="270.5,-239.7 270.5,-261.7 450.5,-261.7 450.5,-239.7 270.5,-239.7"/>
<image xlink:href="../../images/foreignKeys.png" width="11px" height="12px" preserveAspectRatio="xMinYMin meet" x="275.5" y="-256.7"/>
<text text-anchor="start" x="299.5" y="-246.8" font-family="Helvetica,sans-Serif" font-size="11.00" fill="#000000">BillingCodeId</text>
<polygon fill="none" stroke="#000000" points="270.5,-220.7 270.5,-239.7 450.5,-239.7 450.5,-220.7 270.5,-220.7"/>
<text text-anchor="start" x="273.5" y="-226.8" font-family="Helvetica,sans-Serif" font-size="11.00" fill="#000000">...</text>
<polygon fill="#ffffff" stroke="transparent" points="270.5,-201.7 270.5,-220.7 450.5,-220.7 450.5,-201.7 270.5,-201.7"/>
<polygon fill="none" stroke="#000000" points="270.5,-201.7 270.5,-220.7 450.5,-220.7 450.5,-201.7 270.5,-201.7"/>
<polygon fill="#ffffff" stroke="transparent" points="271.5,-202.7 271.5,-219.7 337.5,-219.7 337.5,-202.7 271.5,-202.7"/>
<text text-anchor="start" x="273.5" y="-207.8" font-family="Helvetica,sans-Serif" font-size="11.00" fill="#000000">&lt; 3</text>
<polygon fill="#ffffff" stroke="transparent" points="337.5,-202.7 337.5,-219.7 393.5,-219.7 393.5,-202.7 337.5,-202.7"/>
<text text-anchor="start" x="362.4431" y="-207.8" font-family="Helvetica,sans-Serif" font-size="11.00" fill="#000000"> &#160;</text>
<polygon fill="#ffffff" stroke="transparent" points="393.5,-202.7 393.5,-219.7 449.5,-219.7 449.5,-202.7 393.5,-202.7"/>
<text text-anchor="start" x="441.3862" y="-207.8" font-family="Helvetica,sans-Serif" font-size="11.00" fill="#000000"> &#160;</text>
<polygon fill="#000000" stroke="#000000" points="337.5,-202.7 337.5,-219.7 337.5,-219.7 337.5,-202.7 337.5,-202.7"/>
<polygon fill="#000000" stroke="#000000" points="393.5,-202.7 393.5,-219.7 393.5,-219.7 393.5,-202.7 393.5,-202.7"/>
</a>
</g>
</g>
<!-- VisitServiceBillings&#45;&gt;BillingCodes -->
<g id="edge3" class="edge">
<title>VisitServiceBillings:w&#45;&gt;BillingCodes:e</title>
<path fill="none" stroke="#000000" d="M256.049,-248.6926C200.1447,-231.4333 241.8819,-108.7 170,-108.7"/>
<polygon fill="#000000" stroke="#000000" points="262.5761,-249.5993 270.0047,-254.2658 266.538,-250.1496 270.5,-250.7 270.5,-250.7 270.5,-250.7 266.538,-250.1496 270.9953,-247.1342 262.5761,-249.5993 262.5761,-249.5993"/>
<ellipse fill="none" stroke="#000000" cx="259.4065" cy="-249.159" rx="3.2" ry="3.2"/>
</g>
<!-- VisitServiceBillings&#45;&gt;Clinical.ServiceTypes -->
<g id="edge4" class="edge">
<title>VisitServiceBillings:w&#45;&gt;Clinical.ServiceTypes:e</title>
<path fill="none" stroke="#000000" d="M256.3633,-269.4468C239.3083,-264.0735 211.2973,-252.7863 183.9792,-241.2464"/>
<polygon fill="#000000" stroke="#000000" points="262.7038,-270.9058 269.6926,-276.2083 266.6019,-271.8029 270.5,-272.7 270.5,-272.7 270.5,-272.7 266.6019,-271.8029 271.3074,-269.1917 262.7038,-270.9058 262.7038,-270.9058"/>
<ellipse fill="none" stroke="#000000" cx="259.5853" cy="-270.1882" rx="3.2" ry="3.2"/>
</g>
<!-- Clinical.Visits -->
<g id="node5" class="node">
<title>Clinical.Visits</title>
<g id="a_node5"><a xlink:title="Clinical.Visits">
<polygon fill="#ffffff" stroke="transparent" points="36.5,-264.2 36.5,-325.2 173.5,-325.2 173.5,-264.2 36.5,-264.2"/>
<polygon fill="#f5f5f5" stroke="transparent" points="37,-301.7 37,-324.7 174,-324.7 174,-301.7 37,-301.7"/>
<polygon fill="none" stroke="#000000" points="37,-301.7 37,-324.7 174,-324.7 174,-301.7 37,-301.7"/>
<text text-anchor="start" x="42" y="-310.3" font-family="Helvetica,sans-Serif" font-weight="bold" font-size="11.00" fill="#000000">Clinical.Visits</text>
<text text-anchor="start" x="139.5219" y="-309.8" font-family="Helvetica,sans-Serif" font-size="11.00" fill="#000000">[table]</text>
<polygon fill="none" stroke="#000000" points="37,-282.7 37,-301.7 174,-301.7 174,-282.7 37,-282.7"/>
<text text-anchor="start" x="40" y="-288.8" font-family="Helvetica,sans-Serif" font-size="11.00" fill="#000000">...</text>
<polygon fill="#ffffff" stroke="transparent" points="37,-263.7 37,-282.7 174,-282.7 174,-263.7 37,-263.7"/>
<polygon fill="none" stroke="#000000" points="37,-263.7 37,-282.7 174,-282.7 174,-263.7 37,-263.7"/>
<polygon fill="#ffffff" stroke="transparent" points="38,-264.7 38,-281.7 80,-281.7 80,-264.7 38,-264.7"/>
<text text-anchor="start" x="40" y="-269.8" font-family="Helvetica,sans-Serif" font-size="11.00" fill="#000000"> &#160;</text>
<polygon fill="#ffffff" stroke="transparent" points="80,-264.7 80,-281.7 122,-281.7 122,-264.7 80,-264.7"/>
<text text-anchor="start" x="97.9431" y="-269.8" font-family="Helvetica,sans-Serif" font-size="11.00" fill="#000000"> &#160;</text>
<polygon fill="#ffffff" stroke="transparent" points="122,-264.7 122,-281.7 173,-281.7 173,-264.7 122,-264.7"/>
<text text-anchor="start" x="155.4053" y="-269.8" font-family="Helvetica,sans-Serif" font-size="11.00" fill="#000000">1 &gt;</text>
<polygon fill="#000000" stroke="#000000" points="80,-264.7 80,-281.7 80,-281.7 80,-264.7 80,-264.7"/>
<polygon fill="#000000" stroke="#000000" points="122,-264.7 122,-281.7 122,-281.7 122,-264.7 122,-264.7"/>
</a>
</g>
</g>
<!-- VisitServiceBillings&#45;&gt;Clinical.Visits -->
<g id="edge5" class="edge">
<title>VisitServiceBillings:w&#45;&gt;Clinical.Visits:e</title>
<path fill="none" stroke="#000000" d="M256.0155,-294.7C231.124,-294.7 205.0091,-294.7 181.6288,-294.7"/>
<polygon fill="#000000" stroke="#000000" points="262.5,-294.7001 270.5,-298.3 266.5,-294.7 270.5,-294.7 270.5,-294.7 270.5,-294.7 266.5,-294.7 270.5,-291.1 262.5,-294.7001 262.5,-294.7001"/>
<ellipse fill="none" stroke="#000000" cx="259.3" cy="-294.7001" rx="3.2" ry="3.2"/>
</g>
</g>
</svg>
