<?xml version="1.0" encoding="UTF-8" standalone="no"?>
<!DOCTYPE svg PUBLIC "-//W3C//DTD SVG 1.1//EN"
 "http://www.w3.org/Graphics/SVG/1.1/DTD/svg11.dtd">
<!-- Generated by graphviz version 2.40.1 (20161225.0304)
 -->
<!-- Title: largeRelationshipsDiagram Pages: 1 -->
<svg width="447pt" height="658pt"
 viewBox="0.00 0.00 447.00 658.20" xmlns="http://www.w3.org/2000/svg" xmlns:xlink="http://www.w3.org/1999/xlink">
<g id="graph0" class="graph" transform="scale(1 1) rotate(0) translate(4 654.2)">
<title>largeRelationshipsDiagram</title>
<polygon fill="#ffffff" stroke="transparent" points="-4,4 -4,-654.2 443,-654.2 443,4 -4,4"/>
<text text-anchor="middle" x="72.4936" y="-7.3" font-family="Helvetica,sans-Serif" font-size="11.00" fill="#000000">Generated by SchemaSpy</text>
<!-- BillingCodes -->
<g id="node1" class="node">
<title>BillingCodes</title>
<g id="a_node1"><a xlink:href="../../tables/BillingCodes.html" xlink:title="BillingCodes" target="_top">
<polygon fill="#ffffff" stroke="transparent" points="40.5,-38.2 40.5,-212.2 169.5,-212.2 169.5,-38.2 40.5,-38.2"/>
<polygon fill="#f5f5f5" stroke="transparent" points="41,-189.2 41,-212.2 170,-212.2 170,-189.2 41,-189.2"/>
<polygon fill="none" stroke="#000000" points="41,-189.2 41,-212.2 170,-212.2 170,-189.2 41,-189.2"/>
<text text-anchor="start" x="46" y="-197.8" font-family="Helvetica,sans-Serif" font-weight="bold" font-size="11.00" fill="#000000">BillingCodes</text>
<text text-anchor="start" x="135.5219" y="-197.3" font-family="Helvetica,sans-Serif" font-size="11.00" fill="#000000">[table]</text>
<polygon fill="none" stroke="#000000" points="41,-167.2 41,-189.2 170,-189.2 170,-167.2 41,-167.2"/>
<image xlink:href="../../images/primaryKeys.png" width="11px" height="12px" preserveAspectRatio="xMinYMin meet" x="46" y="-184.2"/>
<text text-anchor="start" x="64" y="-174.3" font-family="Helvetica,sans-Serif" font-size="11.00" fill="#000000">Id</text>
<polygon fill="#ffffff" stroke="transparent" points="41,-145.2 41,-167.2 170,-167.2 170,-145.2 41,-145.2"/>
<polygon fill="none" stroke="#000000" points="41,-145.2 41,-167.2 170,-167.2 170,-145.2 41,-145.2"/>
<text text-anchor="start" x="64" y="-152.3" font-family="Helvetica,sans-Serif" font-size="11.00" fill="#000000">Code</text>
<polygon fill="none" stroke="#000000" points="41,-123.2 41,-145.2 170,-145.2 170,-123.2 41,-123.2"/>
<text text-anchor="start" x="64" y="-130.3" font-family="Helvetica,sans-Serif" font-size="11.00" fill="#000000">Description</text>
<polygon fill="none" stroke="#000000" points="41,-101.2 41,-123.2 170,-123.2 170,-101.2 41,-101.2"/>
<text text-anchor="start" x="64" y="-108.3" font-family="Helvetica,sans-Serif" font-size="11.00" fill="#000000">CreatedAtUtc</text>
<polygon fill="none" stroke="#000000" points="41,-79.2 41,-101.2 170,-101.2 170,-79.2 41,-79.2"/>
<text text-anchor="start" x="64" y="-86.3" font-family="Helvetica,sans-Serif" font-size="11.00" fill="#000000">UpdatedAtUtc</text>
<polygon fill="none" stroke="#000000" points="41,-57.2 41,-79.2 170,-79.2 170,-57.2 41,-57.2"/>
<text text-anchor="start" x="64" y="-64.3" font-family="Helvetica,sans-Serif" font-size="11.00" fill="#000000">RowVersion</text>
<polygon fill="#ffffff" stroke="transparent" points="41,-38.2 41,-57.2 170,-57.2 170,-38.2 41,-38.2"/>
<polygon fill="none" stroke="#000000" points="41,-38.2 41,-57.2 170,-57.2 170,-38.2 41,-38.2"/>
<polygon fill="#ffffff" stroke="transparent" points="42,-39.2 42,-56.2 82,-56.2 82,-39.2 42,-39.2"/>
<text text-anchor="start" x="44" y="-44.3" font-family="Helvetica,sans-Serif" font-size="11.00" fill="#000000"> &#160;</text>
<polygon fill="#ffffff" stroke="transparent" points="82,-39.2 82,-56.2 121,-56.2 121,-39.2 82,-39.2"/>
<text text-anchor="start" x="98.4431" y="-44.3" font-family="Helvetica,sans-Serif" font-size="11.00" fill="#000000"> &#160;</text>
<polygon fill="#ffffff" stroke="transparent" points="121,-39.2 121,-56.2 169,-56.2 169,-39.2 121,-39.2"/>
<text text-anchor="start" x="151.4053" y="-44.3" font-family="Helvetica,sans-Serif" font-size="11.00" fill="#000000">1 &gt;</text>
<polygon fill="#000000" stroke="#000000" points="82,-39.2 82,-56.2 82,-56.2 82,-39.2 82,-39.2"/>
<polygon fill="#000000" stroke="#000000" points="121,-39.2 121,-56.2 121,-56.2 121,-39.2 121,-39.2"/>
</a>
</g>
</g>
<!-- VisitServiceBillings -->
<g id="node2" class="node">
<title>VisitServiceBillings</title>
<g id="a_node2"><a xlink:href="../../tables/VisitServiceBillings.html" xlink:title="VisitServiceBillings" target="_top">
<polygon fill="#ffffff" stroke="transparent" points="251,-233.2 251,-429.2 431,-429.2 431,-233.2 251,-233.2"/>
<polygon fill="#f5f5f5" stroke="transparent" points="251,-406.2 251,-429.2 431,-429.2 431,-406.2 251,-406.2"/>
<polygon fill="none" stroke="#000000" points="251,-406.2 251,-429.2 431,-429.2 431,-406.2 251,-406.2"/>
<text text-anchor="start" x="256" y="-414.8" font-family="Helvetica,sans-Serif" font-weight="bold" font-size="11.00" fill="#000000">VisitServiceBillings</text>
<text text-anchor="start" x="396.5219" y="-414.3" font-family="Helvetica,sans-Serif" font-size="11.00" fill="#000000">[table]</text>
<polygon fill="none" stroke="#000000" points="251,-384.2 251,-406.2 431,-406.2 431,-384.2 251,-384.2"/>
<image xlink:href="../../images/primaryKeys.png" width="11px" height="12px" preserveAspectRatio="xMinYMin meet" x="256" y="-401.2"/>
<text text-anchor="start" x="280" y="-391.3" font-family="Helvetica,sans-Serif" font-size="11.00" fill="#000000">Id</text>
<polygon fill="#ffffff" stroke="transparent" points="251,-362.2 251,-384.2 431,-384.2 431,-362.2 251,-362.2"/>
<polygon fill="none" stroke="#000000" points="251,-362.2 251,-384.2 431,-384.2 431,-362.2 251,-362.2"/>
<image xlink:href="../../images/foreignKeys.png" width="11px" height="12px" preserveAspectRatio="xMinYMin meet" x="256" y="-379.2"/>
<text text-anchor="start" x="280" y="-369.3" font-family="Helvetica,sans-Serif" font-size="11.00" fill="#000000">VisitId</text>
<polygon fill="#ffffff" stroke="transparent" points="251,-340.2 251,-362.2 431,-362.2 431,-340.2 251,-340.2"/>
<polygon fill="none" stroke="#000000" points="251,-340.2 251,-362.2 431,-362.2 431,-340.2 251,-340.2"/>
<image xlink:href="../../images/foreignKeys.png" width="11px" height="12px" preserveAspectRatio="xMinYMin meet" x="256" y="-357.2"/>
<text text-anchor="start" x="280" y="-347.3" font-family="Helvetica,sans-Serif" font-size="11.00" fill="#000000">ServiceTypeId</text>
<polygon fill="#ffffff" stroke="transparent" points="251,-318.2 251,-340.2 431,-340.2 431,-318.2 251,-318.2"/>
<polygon fill="none" stroke="#000000" points="251,-318.2 251,-340.2 431,-340.2 431,-318.2 251,-318.2"/>
<image xlink:href="../../images/foreignKeys.png" width="11px" height="12px" preserveAspectRatio="xMinYMin meet" x="256" y="-335.2"/>
<text text-anchor="start" x="280" y="-325.3" font-family="Helvetica,sans-Serif" font-size="11.00" fill="#000000">BillingCodeId</text>
<polygon fill="none" stroke="#000000" points="251,-296.2 251,-318.2 431,-318.2 431,-296.2 251,-296.2"/>
<text text-anchor="start" x="280" y="-303.3" font-family="Helvetica,sans-Serif" font-size="11.00" fill="#000000">CreatedAtUtc</text>
<polygon fill="none" stroke="#000000" points="251,-274.2 251,-296.2 431,-296.2 431,-274.2 251,-274.2"/>
<text text-anchor="start" x="280" y="-281.3" font-family="Helvetica,sans-Serif" font-size="11.00" fill="#000000">UpdatedAtUtc</text>
<polygon fill="none" stroke="#000000" points="251,-252.2 251,-274.2 431,-274.2 431,-252.2 251,-252.2"/>
<text text-anchor="start" x="280" y="-259.3" font-family="Helvetica,sans-Serif" font-size="11.00" fill="#000000">RowVersion</text>
<polygon fill="#ffffff" stroke="transparent" points="251,-233.2 251,-252.2 431,-252.2 431,-233.2 251,-233.2"/>
<polygon fill="none" stroke="#000000" points="251,-233.2 251,-252.2 431,-252.2 431,-233.2 251,-233.2"/>
<polygon fill="#ffffff" stroke="transparent" points="252,-234.2 252,-251.2 318,-251.2 318,-234.2 252,-234.2"/>
<text text-anchor="start" x="254" y="-239.3" font-family="Helvetica,sans-Serif" font-size="11.00" fill="#000000">&lt; 3</text>
<polygon fill="#ffffff" stroke="transparent" points="318,-234.2 318,-251.2 374,-251.2 374,-234.2 318,-234.2"/>
<text text-anchor="start" x="342.9431" y="-239.3" font-family="Helvetica,sans-Serif" font-size="11.00" fill="#000000"> &#160;</text>
<polygon fill="#ffffff" stroke="transparent" points="374,-234.2 374,-251.2 430,-251.2 430,-234.2 374,-234.2"/>
<text text-anchor="start" x="421.8862" y="-239.3" font-family="Helvetica,sans-Serif" font-size="11.00" fill="#000000"> &#160;</text>
<polygon fill="#000000" stroke="#000000" points="318,-234.2 318,-251.2 318,-251.2 318,-234.2 318,-234.2"/>
<polygon fill="#000000" stroke="#000000" points="374,-234.2 374,-251.2 374,-251.2 374,-234.2 374,-234.2"/>
</a>
</g>
</g>
<!-- VisitServiceBillings&#45;&gt;BillingCodes -->
<g id="edge1" class="edge">
<title>VisitServiceBillings:w&#45;&gt;BillingCodes:e</title>
<path fill="none" stroke="#000000" d="M236.4602,-326.7134C207.7876,-314.5643 233.5711,-260.4848 210,-222.2 196.1441,-199.6948 196.4286,-178.2 170,-178.2"/>
<polygon fill="#000000" stroke="#000000" points="243.1145,-327.8514 250.3931,-332.7485 247.0572,-328.5257 251,-329.2 251,-329.2 251,-329.2 247.0572,-328.5257 251.6069,-325.6515 243.1145,-327.8514 243.1145,-327.8514"/>
<ellipse fill="none" stroke="#000000" cx="239.9603" cy="-327.3119" rx="3.2" ry="3.2"/>
</g>
<!-- Clinical.ServiceTypes -->
<g id="node3" class="node">
<title>Clinical.ServiceTypes</title>
<g id="a_node3"><a xlink:title="Clinical.ServiceTypes">
<polygon fill="#ffffff" stroke="transparent" points="8,-233.2 8,-385.2 202,-385.2 202,-233.2 8,-233.2"/>
<polygon fill="#f5f5f5" stroke="transparent" points="8,-362.2 8,-385.2 202,-385.2 202,-362.2 8,-362.2"/>
<polygon fill="none" stroke="#000000" points="8,-362.2 8,-385.2 202,-385.2 202,-362.2 8,-362.2"/>
<text text-anchor="start" x="13" y="-370.8" font-family="Helvetica,sans-Serif" font-weight="bold" font-size="11.00" fill="#000000">Clinical.ServiceTypes</text>
<text text-anchor="start" x="167.5219" y="-370.3" font-family="Helvetica,sans-Serif" font-size="11.00" fill="#000000">[table]</text>
<polygon fill="none" stroke="#000000" points="8,-340.2 8,-362.2 202,-362.2 202,-340.2 8,-340.2"/>
<text text-anchor="start" x="63" y="-347.3" font-family="Helvetica,sans-Serif" font-size="11.00" fill="#000000">Id</text>
<polygon fill="none" stroke="#000000" points="8,-318.2 8,-340.2 202,-340.2 202,-318.2 8,-318.2"/>
<text text-anchor="start" x="63" y="-325.3" font-family="Helvetica,sans-Serif" font-size="11.00" fill="#000000">Description</text>
<polygon fill="none" stroke="#000000" points="8,-296.2 8,-318.2 202,-318.2 202,-296.2 8,-296.2"/>
<text text-anchor="start" x="63" y="-303.3" font-family="Helvetica,sans-Serif" font-size="11.00" fill="#000000">CreatedAtUtc</text>
<polygon fill="none" stroke="#000000" points="8,-274.2 8,-296.2 202,-296.2 202,-274.2 8,-274.2"/>
<text text-anchor="start" x="63" y="-281.3" font-family="Helvetica,sans-Serif" font-size="11.00" fill="#000000">UpdatedAtUtc</text>
<polygon fill="none" stroke="#000000" points="8,-252.2 8,-274.2 202,-274.2 202,-252.2 8,-252.2"/>
<text text-anchor="start" x="63" y="-259.3" font-family="Helvetica,sans-Serif" font-size="11.00" fill="#000000">RowVersion</text>
<polygon fill="#ffffff" stroke="transparent" points="8,-233.2 8,-252.2 202,-252.2 202,-233.2 8,-233.2"/>
<polygon fill="none" stroke="#000000" points="8,-233.2 8,-252.2 202,-252.2 202,-233.2 8,-233.2"/>
<polygon fill="#ffffff" stroke="transparent" points="9,-234.2 9,-251.2 70,-251.2 70,-234.2 9,-234.2"/>
<text text-anchor="start" x="11" y="-239.3" font-family="Helvetica,sans-Serif" font-size="11.00" fill="#000000"> &#160;</text>
<polygon fill="#ffffff" stroke="transparent" points="70,-234.2 70,-251.2 131,-251.2 131,-234.2 70,-234.2"/>
<text text-anchor="start" x="97.4431" y="-239.3" font-family="Helvetica,sans-Serif" font-size="11.00" fill="#000000"> &#160;</text>
<polygon fill="#ffffff" stroke="transparent" points="131,-234.2 131,-251.2 201,-251.2 201,-234.2 131,-234.2"/>
<text text-anchor="start" x="183.4053" y="-239.3" font-family="Helvetica,sans-Serif" font-size="11.00" fill="#000000">1 &gt;</text>
<polygon fill="#000000" stroke="#000000" points="70,-234.2 70,-251.2 70,-251.2 70,-234.2 70,-234.2"/>
<polygon fill="#000000" stroke="#000000" points="131,-234.2 131,-251.2 131,-251.2 131,-234.2 131,-234.2"/>
</a>
</g>
</g>
<!-- VisitServiceBillings&#45;&gt;Clinical.ServiceTypes -->
<g id="edge2" class="edge">
<title>VisitServiceBillings:w&#45;&gt;Clinical.ServiceTypes:e</title>
<path fill="none" stroke="#000000" d="M236.4909,-351.2C225.1774,-351.2 217.9931,-351.2 202,-351.2"/>
<polygon fill="#000000" stroke="#000000" points="243,-351.2001 251,-354.8 247,-351.2 251,-351.2 251,-351.2 251,-351.2 247,-351.2 251,-347.6 243,-351.2001 243,-351.2001"/>
<ellipse fill="none" stroke="#000000" cx="239.8" cy="-351.2001" rx="3.2" ry="3.2"/>
</g>
<!-- Clinical.Visits -->
<g id="node4" class="node">
<title>Clinical.Visits</title>
<g id="a_node4"><a xlink:title="Clinical.Visits">
<polygon fill="#ffffff" stroke="transparent" points="22,-406.2 22,-646.2 188,-646.2 188,-406.2 22,-406.2"/>
<polygon fill="#f5f5f5" stroke="transparent" points="22,-623.2 22,-646.2 188,-646.2 188,-623.2 22,-623.2"/>
<polygon fill="none" stroke="#000000" points="22,-623.2 22,-646.2 188,-646.2 188,-623.2 22,-623.2"/>
<text text-anchor="start" x="27" y="-631.8" font-family="Helvetica,sans-Serif" font-weight="bold" font-size="11.00" fill="#000000">Clinical.Visits</text>
<text text-anchor="start" x="153.0437" y="-631.3" font-family="Helvetica,sans-Serif" font-size="11.00" fill="#000000">[table]</text>
<polygon fill="none" stroke="#000000" points="22,-601.2 22,-623.2 188,-623.2 188,-601.2 22,-601.2"/>
<text text-anchor="start" x="42" y="-608.3" font-family="Helvetica,sans-Serif" font-size="11.00" fill="#000000">Id</text>
<polygon fill="none" stroke="#000000" points="22,-579.2 22,-601.2 188,-601.2 188,-579.2 22,-579.2"/>
<text text-anchor="start" x="42" y="-586.3" font-family="Helvetica,sans-Serif" font-size="11.00" fill="#000000">DateServiced</text>
<polygon fill="none" stroke="#000000" points="22,-557.2 22,-579.2 188,-579.2 188,-557.2 22,-557.2"/>
<text text-anchor="start" x="42" y="-564.3" font-family="Helvetica,sans-Serif" font-size="11.00" fill="#000000">HospitalizationId</text>
<polygon fill="none" stroke="#000000" points="22,-535.2 22,-557.2 188,-557.2 188,-535.2 22,-535.2"/>
<text text-anchor="start" x="42" y="-542.3" font-family="Helvetica,sans-Serif" font-size="11.00" fill="#000000">IsScribeServiceOnly</text>
<polygon fill="none" stroke="#000000" points="22,-513.2 22,-535.2 188,-535.2 188,-513.2 22,-513.2"/>
<text text-anchor="start" x="42" y="-520.3" font-family="Helvetica,sans-Serif" font-size="11.00" fill="#000000">Room</text>
<polygon fill="none" stroke="#000000" points="22,-491.2 22,-513.2 188,-513.2 188,-491.2 22,-491.2"/>
<text text-anchor="start" x="42" y="-498.3" font-family="Helvetica,sans-Serif" font-size="11.00" fill="#000000">Bed</text>
<polygon fill="none" stroke="#000000" points="22,-469.2 22,-491.2 188,-491.2 188,-469.2 22,-469.2"/>
<text text-anchor="start" x="42" y="-476.3" font-family="Helvetica,sans-Serif" font-size="11.00" fill="#000000">CreatedAtUtc</text>
<polygon fill="none" stroke="#000000" points="22,-447.2 22,-469.2 188,-469.2 188,-447.2 22,-447.2"/>
<text text-anchor="start" x="42" y="-454.3" font-family="Helvetica,sans-Serif" font-size="11.00" fill="#000000">UpdatedAtUtc</text>
<polygon fill="none" stroke="#000000" points="22,-425.2 22,-447.2 188,-447.2 188,-425.2 22,-425.2"/>
<text text-anchor="start" x="42" y="-432.3" font-family="Helvetica,sans-Serif" font-size="11.00" fill="#000000">RowVersion</text>
<polygon fill="#ffffff" stroke="transparent" points="22,-406.2 22,-425.2 188,-425.2 188,-406.2 22,-406.2"/>
<polygon fill="none" stroke="#000000" points="22,-406.2 22,-425.2 188,-425.2 188,-406.2 22,-406.2"/>
<polygon fill="#ffffff" stroke="transparent" points="23,-407.2 23,-424.2 75,-424.2 75,-407.2 23,-407.2"/>
<text text-anchor="start" x="25" y="-412.3" font-family="Helvetica,sans-Serif" font-size="11.00" fill="#000000"> &#160;</text>
<polygon fill="#ffffff" stroke="transparent" points="75,-407.2 75,-424.2 127,-424.2 127,-407.2 75,-407.2"/>
<text text-anchor="start" x="97.9431" y="-412.3" font-family="Helvetica,sans-Serif" font-size="11.00" fill="#000000"> &#160;</text>
<polygon fill="#ffffff" stroke="transparent" points="127,-407.2 127,-424.2 187,-424.2 187,-407.2 127,-407.2"/>
<text text-anchor="start" x="169.4053" y="-412.3" font-family="Helvetica,sans-Serif" font-size="11.00" fill="#000000">1 &gt;</text>
<polygon fill="#000000" stroke="#000000" points="75,-407.2 75,-424.2 75,-424.2 75,-407.2 75,-407.2"/>
<polygon fill="#000000" stroke="#000000" points="127,-407.2 127,-424.2 127,-424.2 127,-407.2 127,-407.2"/>
</a>
</g>
</g>
<!-- VisitServiceBillings&#45;&gt;Clinical.Visits -->
<g id="edge3" class="edge">
<title>VisitServiceBillings:w&#45;&gt;Clinical.Visits:e</title>
<path fill="none" stroke="#000000" d="M236.2572,-374.9864C156.377,-396.8571 292.2723,-612.2 188,-612.2"/>
<polygon fill="#000000" stroke="#000000" points="243.0581,-374.1624 251.4331,-376.7739 247.029,-373.6812 251,-373.2 251,-373.2 251,-373.2 247.029,-373.6812 250.5669,-369.6261 243.0581,-374.1624 243.0581,-374.1624"/>
<ellipse fill="none" stroke="#000000" cx="239.8813" cy="-374.5473" rx="3.2" ry="3.2"/>
</g>
</g>
</svg>
