<?xml version="1.0" encoding="UTF-8" standalone="no"?>
<!DOCTYPE svg PUBLIC "-//W3C//DTD SVG 1.1//EN"
 "http://www.w3.org/Graphics/SVG/1.1/DTD/svg11.dtd">
<!-- Generated by graphviz version 2.40.1 (20161225.0304)
 -->
<!-- Title: largeRelationshipsDiagram Pages: 1 -->
<svg width="486pt" height="702pt"
 viewBox="0.00 0.00 486.00 702.20" xmlns="http://www.w3.org/2000/svg" xmlns:xlink="http://www.w3.org/1999/xlink">
<g id="graph0" class="graph" transform="scale(1 1) rotate(0) translate(4 698.2)">
<title>largeRelationshipsDiagram</title>
<polygon fill="#ffffff" stroke="transparent" points="-4,4 -4,-698.2 482,-698.2 482,4 -4,4"/>
<text text-anchor="middle" x="72.4936" y="-7.3" font-family="Helvetica,sans-Serif" font-size="11.00" fill="#000000">Generated by SchemaSpy</text>
<!-- BillingCodes -->
<g id="node1" class="node">
<title>BillingCodes</title>
<g id="a_node1"><a xlink:href="../../tables/BillingCodes.html" xlink:title="BillingCodes" target="_top">
<polygon fill="#ffffff" stroke="transparent" points="40.5,-38.2 40.5,-212.2 169.5,-212.2 169.5,-38.2 40.5,-38.2"/>
<polygon fill="#f5f5f5" stroke="transparent" points="41,-189.2 41,-212.2 170,-212.2 170,-189.2 41,-189.2"/>
<polygon fill="none" stroke="#000000" points="41,-189.2 41,-212.2 170,-212.2 170,-189.2 41,-189.2"/>
<text text-anchor="start" x="46" y="-197.8" font-family="Helvetica,sans-Serif" font-weight="bold" font-size="11.00" fill="#000000">BillingCodes</text>
<text text-anchor="start" x="135.5219" y="-197.3" font-family="Helvetica,sans-Serif" font-size="11.00" fill="#000000">[table]</text>
<polygon fill="none" stroke="#000000" points="41,-167.2 41,-189.2 170,-189.2 170,-167.2 41,-167.2"/>
<image xlink:href="../../images/primaryKeys.png" width="11px" height="12px" preserveAspectRatio="xMinYMin meet" x="46" y="-184.2"/>
<text text-anchor="start" x="64" y="-174.3" font-family="Helvetica,sans-Serif" font-size="11.00" fill="#000000">Id</text>
<polygon fill="#ffffff" stroke="transparent" points="41,-145.2 41,-167.2 170,-167.2 170,-145.2 41,-145.2"/>
<polygon fill="none" stroke="#000000" points="41,-145.2 41,-167.2 170,-167.2 170,-145.2 41,-145.2"/>
<text text-anchor="start" x="64" y="-152.3" font-family="Helvetica,sans-Serif" font-size="11.00" fill="#000000">Code</text>
<polygon fill="none" stroke="#000000" points="41,-123.2 41,-145.2 170,-145.2 170,-123.2 41,-123.2"/>
<text text-anchor="start" x="64" y="-130.3" font-family="Helvetica,sans-Serif" font-size="11.00" fill="#000000">Description</text>
<polygon fill="none" stroke="#000000" points="41,-101.2 41,-123.2 170,-123.2 170,-101.2 41,-101.2"/>
<text text-anchor="start" x="64" y="-108.3" font-family="Helvetica,sans-Serif" font-size="11.00" fill="#000000">CreatedAtUtc</text>
<polygon fill="none" stroke="#000000" points="41,-79.2 41,-101.2 170,-101.2 170,-79.2 41,-79.2"/>
<text text-anchor="start" x="64" y="-86.3" font-family="Helvetica,sans-Serif" font-size="11.00" fill="#000000">UpdatedAtUtc</text>
<polygon fill="none" stroke="#000000" points="41,-57.2 41,-79.2 170,-79.2 170,-57.2 41,-57.2"/>
<text text-anchor="start" x="64" y="-64.3" font-family="Helvetica,sans-Serif" font-size="11.00" fill="#000000">RowVersion</text>
<polygon fill="#ffffff" stroke="transparent" points="41,-38.2 41,-57.2 170,-57.2 170,-38.2 41,-38.2"/>
<polygon fill="none" stroke="#000000" points="41,-38.2 41,-57.2 170,-57.2 170,-38.2 41,-38.2"/>
<polygon fill="#ffffff" stroke="transparent" points="42,-39.2 42,-56.2 82,-56.2 82,-39.2 42,-39.2"/>
<text text-anchor="start" x="44" y="-44.3" font-family="Helvetica,sans-Serif" font-size="11.00" fill="#000000"> &#160;</text>
<polygon fill="#ffffff" stroke="transparent" points="82,-39.2 82,-56.2 121,-56.2 121,-39.2 82,-39.2"/>
<text text-anchor="start" x="98.4431" y="-44.3" font-family="Helvetica,sans-Serif" font-size="11.00" fill="#000000"> &#160;</text>
<polygon fill="#ffffff" stroke="transparent" points="121,-39.2 121,-56.2 169,-56.2 169,-39.2 121,-39.2"/>
<text text-anchor="start" x="151.4053" y="-44.3" font-family="Helvetica,sans-Serif" font-size="11.00" fill="#000000">2 &gt;</text>
<polygon fill="#000000" stroke="#000000" points="82,-39.2 82,-56.2 82,-56.2 82,-39.2 82,-39.2"/>
<polygon fill="#000000" stroke="#000000" points="121,-39.2 121,-56.2 121,-56.2 121,-39.2 121,-39.2"/>
</a>
</g>
</g>
<!-- ServiceTypeBillingCodes -->
<g id="node2" class="node">
<title>ServiceTypeBillingCodes</title>
<g id="a_node2"><a xlink:href="../../tables/ServiceTypeBillingCodes.html" xlink:title="ServiceTypeBillingCodes" target="_top">
<polygon fill="#ffffff" stroke="transparent" points="251,-60.2 251,-256.2 470,-256.2 470,-60.2 251,-60.2"/>
<polygon fill="#f5f5f5" stroke="transparent" points="251.5,-233.2 251.5,-256.2 470.5,-256.2 470.5,-233.2 251.5,-233.2"/>
<polygon fill="none" stroke="#000000" points="251.5,-233.2 251.5,-256.2 470.5,-256.2 470.5,-233.2 251.5,-233.2"/>
<text text-anchor="start" x="256.5" y="-241.8" font-family="Helvetica,sans-Serif" font-weight="bold" font-size="11.00" fill="#000000">ServiceTypeBillingCodes</text>
<text text-anchor="start" x="436.0219" y="-241.3" font-family="Helvetica,sans-Serif" font-size="11.00" fill="#000000">[table]</text>
<polygon fill="none" stroke="#000000" points="251.5,-211.2 251.5,-233.2 470.5,-233.2 470.5,-211.2 251.5,-211.2"/>
<image xlink:href="../../images/primaryKeys.png" width="11px" height="12px" preserveAspectRatio="xMinYMin meet" x="256.5" y="-228.2"/>
<text text-anchor="start" x="280.5" y="-218.3" font-family="Helvetica,sans-Serif" font-size="11.00" fill="#000000">Id</text>
<polygon fill="#ffffff" stroke="transparent" points="251.5,-189.2 251.5,-211.2 470.5,-211.2 470.5,-189.2 251.5,-189.2"/>
<polygon fill="none" stroke="#000000" points="251.5,-189.2 251.5,-211.2 470.5,-211.2 470.5,-189.2 251.5,-189.2"/>
<image xlink:href="../../images/foreignKeys.png" width="11px" height="12px" preserveAspectRatio="xMinYMin meet" x="256.5" y="-206.2"/>
<text text-anchor="start" x="280.5" y="-196.3" font-family="Helvetica,sans-Serif" font-size="11.00" fill="#000000">ServiceTypeId</text>
<polygon fill="#ffffff" stroke="transparent" points="251.5,-167.2 251.5,-189.2 470.5,-189.2 470.5,-167.2 251.5,-167.2"/>
<polygon fill="none" stroke="#000000" points="251.5,-167.2 251.5,-189.2 470.5,-189.2 470.5,-167.2 251.5,-167.2"/>
<image xlink:href="../../images/foreignKeys.png" width="11px" height="12px" preserveAspectRatio="xMinYMin meet" x="256.5" y="-184.2"/>
<text text-anchor="start" x="280.5" y="-174.3" font-family="Helvetica,sans-Serif" font-size="11.00" fill="#000000">BillingCodeId</text>
<polygon fill="none" stroke="#000000" points="251.5,-145.2 251.5,-167.2 470.5,-167.2 470.5,-145.2 251.5,-145.2"/>
<text text-anchor="start" x="280.5" y="-152.3" font-family="Helvetica,sans-Serif" font-size="11.00" fill="#000000">IsDefault</text>
<polygon fill="none" stroke="#000000" points="251.5,-123.2 251.5,-145.2 470.5,-145.2 470.5,-123.2 251.5,-123.2"/>
<text text-anchor="start" x="280.5" y="-130.3" font-family="Helvetica,sans-Serif" font-size="11.00" fill="#000000">CreatedAtUtc</text>
<polygon fill="none" stroke="#000000" points="251.5,-101.2 251.5,-123.2 470.5,-123.2 470.5,-101.2 251.5,-101.2"/>
<text text-anchor="start" x="280.5" y="-108.3" font-family="Helvetica,sans-Serif" font-size="11.00" fill="#000000">UpdatedAtUtc</text>
<polygon fill="none" stroke="#000000" points="251.5,-79.2 251.5,-101.2 470.5,-101.2 470.5,-79.2 251.5,-79.2"/>
<text text-anchor="start" x="280.5" y="-86.3" font-family="Helvetica,sans-Serif" font-size="11.00" fill="#000000">RowVersion</text>
<polygon fill="#ffffff" stroke="transparent" points="251.5,-60.2 251.5,-79.2 470.5,-79.2 470.5,-60.2 251.5,-60.2"/>
<polygon fill="none" stroke="#000000" points="251.5,-60.2 251.5,-79.2 470.5,-79.2 470.5,-60.2 251.5,-60.2"/>
<polygon fill="#ffffff" stroke="transparent" points="252.5,-61.2 252.5,-78.2 331.5,-78.2 331.5,-61.2 252.5,-61.2"/>
<text text-anchor="start" x="254.5" y="-66.3" font-family="Helvetica,sans-Serif" font-size="11.00" fill="#000000">&lt; 2</text>
<polygon fill="#ffffff" stroke="transparent" points="331.5,-61.2 331.5,-78.2 400.5,-78.2 400.5,-61.2 331.5,-61.2"/>
<text text-anchor="start" x="362.9431" y="-66.3" font-family="Helvetica,sans-Serif" font-size="11.00" fill="#000000"> &#160;</text>
<polygon fill="#ffffff" stroke="transparent" points="400.5,-61.2 400.5,-78.2 469.5,-78.2 469.5,-61.2 400.5,-61.2"/>
<text text-anchor="start" x="461.3862" y="-66.3" font-family="Helvetica,sans-Serif" font-size="11.00" fill="#000000"> &#160;</text>
<polygon fill="#000000" stroke="#000000" points="331.5,-61.2 331.5,-78.2 331.5,-78.2 331.5,-61.2 331.5,-61.2"/>
<polygon fill="#000000" stroke="#000000" points="400.5,-61.2 400.5,-78.2 400.5,-78.2 400.5,-61.2 400.5,-61.2"/>
</a>
</g>
</g>
<!-- ServiceTypeBillingCodes&#45;&gt;BillingCodes -->
<g id="edge1" class="edge">
<title>ServiceTypeBillingCodes:w&#45;&gt;BillingCodes:e</title>
<path fill="none" stroke="#000000" d="M236.9878,-178.2C211.9908,-178.2 200.8455,-178.2 170,-178.2"/>
<polygon fill="#000000" stroke="#000000" points="243.5,-178.2001 251.5,-181.8 247.5,-178.2 251.5,-178.2 251.5,-178.2 251.5,-178.2 247.5,-178.2 251.5,-174.6 243.5,-178.2001 243.5,-178.2001"/>
<ellipse fill="none" stroke="#000000" cx="240.3" cy="-178.2001" rx="3.2" ry="3.2"/>
</g>
<!-- Clinical.ServiceTypes -->
<g id="node4" class="node">
<title>Clinical.ServiceTypes</title>
<g id="a_node4"><a xlink:title="Clinical.ServiceTypes">
<polygon fill="#ffffff" stroke="transparent" points="8,-233.2 8,-429.2 202,-429.2 202,-233.2 8,-233.2"/>
<polygon fill="#f5f5f5" stroke="transparent" points="8,-406.2 8,-429.2 202,-429.2 202,-406.2 8,-406.2"/>
<polygon fill="none" stroke="#000000" points="8,-406.2 8,-429.2 202,-429.2 202,-406.2 8,-406.2"/>
<text text-anchor="start" x="13" y="-414.8" font-family="Helvetica,sans-Serif" font-weight="bold" font-size="11.00" fill="#000000">Clinical.ServiceTypes</text>
<text text-anchor="start" x="167.5219" y="-414.3" font-family="Helvetica,sans-Serif" font-size="11.00" fill="#000000">[table]</text>
<polygon fill="none" stroke="#000000" points="8,-384.2 8,-406.2 202,-406.2 202,-384.2 8,-384.2"/>
<text text-anchor="start" x="63" y="-391.3" font-family="Helvetica,sans-Serif" font-size="11.00" fill="#000000">Id</text>
<polygon fill="none" stroke="#000000" points="8,-362.2 8,-384.2 202,-384.2 202,-362.2 8,-362.2"/>
<text text-anchor="start" x="63" y="-369.3" font-family="Helvetica,sans-Serif" font-size="11.00" fill="#000000">Code</text>
<polygon fill="none" stroke="#000000" points="8,-340.2 8,-362.2 202,-362.2 202,-340.2 8,-340.2"/>
<text text-anchor="start" x="63" y="-347.3" font-family="Helvetica,sans-Serif" font-size="11.00" fill="#000000">Name</text>
<polygon fill="none" stroke="#000000" points="8,-318.2 8,-340.2 202,-340.2 202,-318.2 8,-318.2"/>
<text text-anchor="start" x="63" y="-325.3" font-family="Helvetica,sans-Serif" font-size="11.00" fill="#000000">DisplayOrder</text>
<polygon fill="none" stroke="#000000" points="8,-296.2 8,-318.2 202,-318.2 202,-296.2 8,-296.2"/>
<text text-anchor="start" x="63" y="-303.3" font-family="Helvetica,sans-Serif" font-size="11.00" fill="#000000">CreatedAtUtc</text>
<polygon fill="none" stroke="#000000" points="8,-274.2 8,-296.2 202,-296.2 202,-274.2 8,-274.2"/>
<text text-anchor="start" x="63" y="-281.3" font-family="Helvetica,sans-Serif" font-size="11.00" fill="#000000">UpdatedAtUtc</text>
<polygon fill="none" stroke="#000000" points="8,-252.2 8,-274.2 202,-274.2 202,-252.2 8,-252.2"/>
<text text-anchor="start" x="63" y="-259.3" font-family="Helvetica,sans-Serif" font-size="11.00" fill="#000000">RowVersion</text>
<polygon fill="#ffffff" stroke="transparent" points="8,-233.2 8,-252.2 202,-252.2 202,-233.2 8,-233.2"/>
<polygon fill="none" stroke="#000000" points="8,-233.2 8,-252.2 202,-252.2 202,-233.2 8,-233.2"/>
<polygon fill="#ffffff" stroke="transparent" points="9,-234.2 9,-251.2 70,-251.2 70,-234.2 9,-234.2"/>
<text text-anchor="start" x="11" y="-239.3" font-family="Helvetica,sans-Serif" font-size="11.00" fill="#000000"> &#160;</text>
<polygon fill="#ffffff" stroke="transparent" points="70,-234.2 70,-251.2 131,-251.2 131,-234.2 70,-234.2"/>
<text text-anchor="start" x="97.4431" y="-239.3" font-family="Helvetica,sans-Serif" font-size="11.00" fill="#000000"> &#160;</text>
<polygon fill="#ffffff" stroke="transparent" points="131,-234.2 131,-251.2 201,-251.2 201,-234.2 131,-234.2"/>
<text text-anchor="start" x="183.4053" y="-239.3" font-family="Helvetica,sans-Serif" font-size="11.00" fill="#000000">2 &gt;</text>
<polygon fill="#000000" stroke="#000000" points="70,-234.2 70,-251.2 70,-251.2 70,-234.2 70,-234.2"/>
<polygon fill="#000000" stroke="#000000" points="131,-234.2 131,-251.2 131,-251.2 131,-234.2 131,-234.2"/>
</a>
</g>
</g>
<!-- ServiceTypeBillingCodes&#45;&gt;Clinical.ServiceTypes -->
<g id="edge2" class="edge">
<title>ServiceTypeBillingCodes:w&#45;&gt;Clinical.ServiceTypes:e</title>
<path fill="none" stroke="#000000" d="M237.1912,-202.3899C177.3965,-223.8133 285.8269,-395.2 202,-395.2"/>
<polygon fill="#000000" stroke="#000000" points="243.5921,-201.4103 252.0447,-203.7586 247.546,-200.8052 251.5,-200.2 251.5,-200.2 251.5,-200.2 247.546,-200.8052 250.9553,-196.6414 243.5921,-201.4103 243.5921,-201.4103"/>
<ellipse fill="none" stroke="#000000" cx="240.4289" cy="-201.8945" rx="3.2" ry="3.2"/>
</g>
<!-- VisitServiceBillings -->
<g id="node3" class="node">
<title>VisitServiceBillings</title>
<g id="a_node3"><a xlink:href="../../tables/VisitServiceBillings.html" xlink:title="VisitServiceBillings" target="_top">
<polygon fill="#ffffff" stroke="transparent" points="270.5,-277.2 270.5,-473.2 450.5,-473.2 450.5,-277.2 270.5,-277.2"/>
<polygon fill="#f5f5f5" stroke="transparent" points="270.5,-450.2 270.5,-473.2 450.5,-473.2 450.5,-450.2 270.5,-450.2"/>
<polygon fill="none" stroke="#000000" points="270.5,-450.2 270.5,-473.2 450.5,-473.2 450.5,-450.2 270.5,-450.2"/>
<text text-anchor="start" x="275.5" y="-458.8" font-family="Helvetica,sans-Serif" font-weight="bold" font-size="11.00" fill="#000000">VisitServiceBillings</text>
<text text-anchor="start" x="416.0219" y="-458.3" font-family="Helvetica,sans-Serif" font-size="11.00" fill="#000000">[table]</text>
<polygon fill="none" stroke="#000000" points="270.5,-428.2 270.5,-450.2 450.5,-450.2 450.5,-428.2 270.5,-428.2"/>
<image xlink:href="../../images/primaryKeys.png" width="11px" height="12px" preserveAspectRatio="xMinYMin meet" x="275.5" y="-445.2"/>
<text text-anchor="start" x="299.5" y="-435.3" font-family="Helvetica,sans-Serif" font-size="11.00" fill="#000000">Id</text>
<polygon fill="#ffffff" stroke="transparent" points="270.5,-406.2 270.5,-428.2 450.5,-428.2 450.5,-406.2 270.5,-406.2"/>
<polygon fill="none" stroke="#000000" points="270.5,-406.2 270.5,-428.2 450.5,-428.2 450.5,-406.2 270.5,-406.2"/>
<image xlink:href="../../images/foreignKeys.png" width="11px" height="12px" preserveAspectRatio="xMinYMin meet" x="275.5" y="-423.2"/>
<text text-anchor="start" x="299.5" y="-413.3" font-family="Helvetica,sans-Serif" font-size="11.00" fill="#000000">VisitId</text>
<polygon fill="#ffffff" stroke="transparent" points="270.5,-384.2 270.5,-406.2 450.5,-406.2 450.5,-384.2 270.5,-384.2"/>
<polygon fill="none" stroke="#000000" points="270.5,-384.2 270.5,-406.2 450.5,-406.2 450.5,-384.2 270.5,-384.2"/>
<image xlink:href="../../images/foreignKeys.png" width="11px" height="12px" preserveAspectRatio="xMinYMin meet" x="275.5" y="-401.2"/>
<text text-anchor="start" x="299.5" y="-391.3" font-family="Helvetica,sans-Serif" font-size="11.00" fill="#000000">ServiceTypeId</text>
<polygon fill="#ffffff" stroke="transparent" points="270.5,-362.2 270.5,-384.2 450.5,-384.2 450.5,-362.2 270.5,-362.2"/>
<polygon fill="none" stroke="#000000" points="270.5,-362.2 270.5,-384.2 450.5,-384.2 450.5,-362.2 270.5,-362.2"/>
<image xlink:href="../../images/foreignKeys.png" width="11px" height="12px" preserveAspectRatio="xMinYMin meet" x="275.5" y="-379.2"/>
<text text-anchor="start" x="299.5" y="-369.3" font-family="Helvetica,sans-Serif" font-size="11.00" fill="#000000">BillingCodeId</text>
<polygon fill="none" stroke="#000000" points="270.5,-340.2 270.5,-362.2 450.5,-362.2 450.5,-340.2 270.5,-340.2"/>
<text text-anchor="start" x="299.5" y="-347.3" font-family="Helvetica,sans-Serif" font-size="11.00" fill="#000000">CreatedAtUtc</text>
<polygon fill="none" stroke="#000000" points="270.5,-318.2 270.5,-340.2 450.5,-340.2 450.5,-318.2 270.5,-318.2"/>
<text text-anchor="start" x="299.5" y="-325.3" font-family="Helvetica,sans-Serif" font-size="11.00" fill="#000000">UpdatedAtUtc</text>
<polygon fill="none" stroke="#000000" points="270.5,-296.2 270.5,-318.2 450.5,-318.2 450.5,-296.2 270.5,-296.2"/>
<text text-anchor="start" x="299.5" y="-303.3" font-family="Helvetica,sans-Serif" font-size="11.00" fill="#000000">RowVersion</text>
<polygon fill="#ffffff" stroke="transparent" points="270.5,-277.2 270.5,-296.2 450.5,-296.2 450.5,-277.2 270.5,-277.2"/>
<polygon fill="none" stroke="#000000" points="270.5,-277.2 270.5,-296.2 450.5,-296.2 450.5,-277.2 270.5,-277.2"/>
<polygon fill="#ffffff" stroke="transparent" points="271.5,-278.2 271.5,-295.2 337.5,-295.2 337.5,-278.2 271.5,-278.2"/>
<text text-anchor="start" x="273.5" y="-283.3" font-family="Helvetica,sans-Serif" font-size="11.00" fill="#000000">&lt; 3</text>
<polygon fill="#ffffff" stroke="transparent" points="337.5,-278.2 337.5,-295.2 393.5,-295.2 393.5,-278.2 337.5,-278.2"/>
<text text-anchor="start" x="362.4431" y="-283.3" font-family="Helvetica,sans-Serif" font-size="11.00" fill="#000000"> &#160;</text>
<polygon fill="#ffffff" stroke="transparent" points="393.5,-278.2 393.5,-295.2 449.5,-295.2 449.5,-278.2 393.5,-278.2"/>
<text text-anchor="start" x="441.3862" y="-283.3" font-family="Helvetica,sans-Serif" font-size="11.00" fill="#000000"> &#160;</text>
<polygon fill="#000000" stroke="#000000" points="337.5,-278.2 337.5,-295.2 337.5,-295.2 337.5,-278.2 337.5,-278.2"/>
<polygon fill="#000000" stroke="#000000" points="393.5,-278.2 393.5,-295.2 393.5,-295.2 393.5,-278.2 393.5,-278.2"/>
</a>
</g>
</g>
<!-- VisitServiceBillings&#45;&gt;BillingCodes -->
<g id="edge3" class="edge">
<title>VisitServiceBillings:w&#45;&gt;BillingCodes:e</title>
<path fill="none" stroke="#000000" d="M256.1638,-371.5142C182.7618,-352.4551 262.1678,-178.2 170,-178.2"/>
<polygon fill="#000000" stroke="#000000" points="262.5547,-372.2657 270.0796,-376.7754 266.5274,-372.7328 270.5,-373.2 270.5,-373.2 270.5,-373.2 266.5274,-372.7328 270.9204,-369.6246 262.5547,-372.2657 262.5547,-372.2657"/>
<ellipse fill="none" stroke="#000000" cx="259.3766" cy="-371.8919" rx="3.2" ry="3.2"/>
</g>
<!-- VisitServiceBillings&#45;&gt;Clinical.ServiceTypes -->
<g id="edge4" class="edge">
<title>VisitServiceBillings:w&#45;&gt;Clinical.ServiceTypes:e</title>
<path fill="none" stroke="#000000" d="M256.0353,-395.2C236.5831,-395.2 226.974,-395.2 202,-395.2"/>
<polygon fill="#000000" stroke="#000000" points="262.5,-395.2001 270.5,-398.8 266.5,-395.2 270.5,-395.2 270.5,-395.2 270.5,-395.2 266.5,-395.2 270.5,-391.6 262.5,-395.2001 262.5,-395.2001"/>
<ellipse fill="none" stroke="#000000" cx="259.3" cy="-395.2001" rx="3.2" ry="3.2"/>
</g>
<!-- Clinical.Visits -->
<g id="node5" class="node">
<title>Clinical.Visits</title>
<g id="a_node5"><a xlink:title="Clinical.Visits">
<polygon fill="#ffffff" stroke="transparent" points="22,-450.2 22,-690.2 188,-690.2 188,-450.2 22,-450.2"/>
<polygon fill="#f5f5f5" stroke="transparent" points="22,-667.2 22,-690.2 188,-690.2 188,-667.2 22,-667.2"/>
<polygon fill="none" stroke="#000000" points="22,-667.2 22,-690.2 188,-690.2 188,-667.2 22,-667.2"/>
<text text-anchor="start" x="27" y="-675.8" font-family="Helvetica,sans-Serif" font-weight="bold" font-size="11.00" fill="#000000">Clinical.Visits</text>
<text text-anchor="start" x="153.0437" y="-675.3" font-family="Helvetica,sans-Serif" font-size="11.00" fill="#000000">[table]</text>
<polygon fill="none" stroke="#000000" points="22,-645.2 22,-667.2 188,-667.2 188,-645.2 22,-645.2"/>
<text text-anchor="start" x="42" y="-652.3" font-family="Helvetica,sans-Serif" font-size="11.00" fill="#000000">Id</text>
<polygon fill="none" stroke="#000000" points="22,-623.2 22,-645.2 188,-645.2 188,-623.2 22,-623.2"/>
<text text-anchor="start" x="42" y="-630.3" font-family="Helvetica,sans-Serif" font-size="11.00" fill="#000000">DateServiced</text>
<polygon fill="none" stroke="#000000" points="22,-601.2 22,-623.2 188,-623.2 188,-601.2 22,-601.2"/>
<text text-anchor="start" x="42" y="-608.3" font-family="Helvetica,sans-Serif" font-size="11.00" fill="#000000">HospitalizationId</text>
<polygon fill="none" stroke="#000000" points="22,-579.2 22,-601.2 188,-601.2 188,-579.2 22,-579.2"/>
<text text-anchor="start" x="42" y="-586.3" font-family="Helvetica,sans-Serif" font-size="11.00" fill="#000000">IsScribeServiceOnly</text>
<polygon fill="none" stroke="#000000" points="22,-557.2 22,-579.2 188,-579.2 188,-557.2 22,-557.2"/>
<text text-anchor="start" x="42" y="-564.3" font-family="Helvetica,sans-Serif" font-size="11.00" fill="#000000">Room</text>
<polygon fill="none" stroke="#000000" points="22,-535.2 22,-557.2 188,-557.2 188,-535.2 22,-535.2"/>
<text text-anchor="start" x="42" y="-542.3" font-family="Helvetica,sans-Serif" font-size="11.00" fill="#000000">Bed</text>
<polygon fill="none" stroke="#000000" points="22,-513.2 22,-535.2 188,-535.2 188,-513.2 22,-513.2"/>
<text text-anchor="start" x="42" y="-520.3" font-family="Helvetica,sans-Serif" font-size="11.00" fill="#000000">CreatedAtUtc</text>
<polygon fill="none" stroke="#000000" points="22,-491.2 22,-513.2 188,-513.2 188,-491.2 22,-491.2"/>
<text text-anchor="start" x="42" y="-498.3" font-family="Helvetica,sans-Serif" font-size="11.00" fill="#000000">UpdatedAtUtc</text>
<polygon fill="none" stroke="#000000" points="22,-469.2 22,-491.2 188,-491.2 188,-469.2 22,-469.2"/>
<text text-anchor="start" x="42" y="-476.3" font-family="Helvetica,sans-Serif" font-size="11.00" fill="#000000">RowVersion</text>
<polygon fill="#ffffff" stroke="transparent" points="22,-450.2 22,-469.2 188,-469.2 188,-450.2 22,-450.2"/>
<polygon fill="none" stroke="#000000" points="22,-450.2 22,-469.2 188,-469.2 188,-450.2 22,-450.2"/>
<polygon fill="#ffffff" stroke="transparent" points="23,-451.2 23,-468.2 75,-468.2 75,-451.2 23,-451.2"/>
<text text-anchor="start" x="25" y="-456.3" font-family="Helvetica,sans-Serif" font-size="11.00" fill="#000000"> &#160;</text>
<polygon fill="#ffffff" stroke="transparent" points="75,-451.2 75,-468.2 127,-468.2 127,-451.2 75,-451.2"/>
<text text-anchor="start" x="97.9431" y="-456.3" font-family="Helvetica,sans-Serif" font-size="11.00" fill="#000000"> &#160;</text>
<polygon fill="#ffffff" stroke="transparent" points="127,-451.2 127,-468.2 187,-468.2 187,-451.2 127,-451.2"/>
<text text-anchor="start" x="169.4053" y="-456.3" font-family="Helvetica,sans-Serif" font-size="11.00" fill="#000000">1 &gt;</text>
<polygon fill="#000000" stroke="#000000" points="75,-451.2 75,-468.2 75,-468.2 75,-451.2 75,-451.2"/>
<polygon fill="#000000" stroke="#000000" points="127,-451.2 127,-468.2 127,-468.2 127,-451.2 127,-451.2"/>
</a>
</g>
</g>
<!-- VisitServiceBillings&#45;&gt;Clinical.Visits -->
<g id="edge5" class="edge">
<title>VisitServiceBillings:w&#45;&gt;Clinical.Visits:e</title>
<path fill="none" stroke="#000000" d="M256.0616,-418.7894C171.1577,-439.5258 294.9954,-656.2 188,-656.2"/>
<polygon fill="#000000" stroke="#000000" points="262.548,-418.0754 270.8939,-420.7784 266.524,-417.6377 270.5,-417.2 270.5,-417.2 270.5,-417.2 266.524,-417.6377 270.1061,-413.6216 262.548,-418.0754 262.548,-418.0754"/>
<ellipse fill="none" stroke="#000000" cx="259.3672" cy="-418.4256" rx="3.2" ry="3.2"/>
</g>
</g>
</svg>
