<?xml version="1.0" encoding="UTF-8" standalone="no"?>
<!DOCTYPE svg PUBLIC "-//W3C//DTD SVG 1.1//EN"
 "http://www.w3.org/Graphics/SVG/1.1/DTD/svg11.dtd">
<!-- Generated by graphviz version 2.40.1 (20161225.0304)
 -->
<!-- Title: compactRelationshipsDiagram Pages: 1 -->
<svg width="447pt" height="319pt"
 viewBox="0.00 0.00 447.00 319.20" xmlns="http://www.w3.org/2000/svg" xmlns:xlink="http://www.w3.org/1999/xlink">
<g id="graph0" class="graph" transform="scale(1 1) rotate(0) translate(4 315.2)">
<title>compactRelationshipsDiagram</title>
<polygon fill="#ffffff" stroke="transparent" points="-4,4 -4,-315.2 443,-315.2 443,4 -4,4"/>
<text text-anchor="middle" x="72.4936" y="-7.3" font-family="Helvetica,sans-Serif" font-size="11.00" fill="#000000">Generated by SchemaSpy</text>
<!-- BillingCodes -->
<g id="node1" class="node">
<title>BillingCodes</title>
<g id="a_node1"><a xlink:href="../../tables/BillingCodes.html" xlink:title="BillingCodes" target="_top">
<polygon fill="#ffffff" stroke="transparent" points="40.5,-38.2 40.5,-143.2 169.5,-143.2 169.5,-38.2 40.5,-38.2"/>
<polygon fill="#f5f5f5" stroke="transparent" points="41,-119.7 41,-142.7 170,-142.7 170,-119.7 41,-119.7"/>
<polygon fill="none" stroke="#000000" points="41,-119.7 41,-142.7 170,-142.7 170,-119.7 41,-119.7"/>
<text text-anchor="start" x="46" y="-128.3" font-family="Helvetica,sans-Serif" font-weight="bold" font-size="11.00" fill="#000000">BillingCodes</text>
<text text-anchor="start" x="135.5219" y="-127.8" font-family="Helvetica,sans-Serif" font-size="11.00" fill="#000000">[table]</text>
<polygon fill="none" stroke="#000000" points="41,-97.7 41,-119.7 170,-119.7 170,-97.7 41,-97.7"/>
<image xlink:href="../../images/primaryKeys.png" width="11px" height="12px" preserveAspectRatio="xMinYMin meet" x="46" y="-114.7"/>
<text text-anchor="start" x="64" y="-104.8" font-family="Helvetica,sans-Serif" font-size="11.00" fill="#000000">Id</text>
<polygon fill="#ffffff" stroke="transparent" points="41,-75.7 41,-97.7 170,-97.7 170,-75.7 41,-75.7"/>
<polygon fill="none" stroke="#000000" points="41,-75.7 41,-97.7 170,-97.7 170,-75.7 41,-75.7"/>
<text text-anchor="start" x="64" y="-82.8" font-family="Helvetica,sans-Serif" font-size="11.00" fill="#000000">Code</text>
<polygon fill="none" stroke="#000000" points="41,-56.7 41,-75.7 170,-75.7 170,-56.7 41,-56.7"/>
<text text-anchor="start" x="44" y="-62.8" font-family="Helvetica,sans-Serif" font-size="11.00" fill="#000000">...</text>
<polygon fill="#ffffff" stroke="transparent" points="41,-37.7 41,-56.7 170,-56.7 170,-37.7 41,-37.7"/>
<polygon fill="none" stroke="#000000" points="41,-37.7 41,-56.7 170,-56.7 170,-37.7 41,-37.7"/>
<polygon fill="#ffffff" stroke="transparent" points="42,-38.7 42,-55.7 82,-55.7 82,-38.7 42,-38.7"/>
<text text-anchor="start" x="44" y="-43.8" font-family="Helvetica,sans-Serif" font-size="11.00" fill="#000000"> &#160;</text>
<polygon fill="#ffffff" stroke="transparent" points="82,-38.7 82,-55.7 121,-55.7 121,-38.7 82,-38.7"/>
<text text-anchor="start" x="98.4431" y="-43.8" font-family="Helvetica,sans-Serif" font-size="11.00" fill="#000000"> &#160;</text>
<polygon fill="#ffffff" stroke="transparent" points="121,-38.7 121,-55.7 169,-55.7 169,-38.7 121,-38.7"/>
<text text-anchor="start" x="151.4053" y="-43.8" font-family="Helvetica,sans-Serif" font-size="11.00" fill="#000000">1 &gt;</text>
<polygon fill="#000000" stroke="#000000" points="82,-38.7 82,-55.7 82,-55.7 82,-38.7 82,-38.7"/>
<polygon fill="#000000" stroke="#000000" points="121,-38.7 121,-55.7 121,-55.7 121,-38.7 121,-38.7"/>
</a>
</g>
</g>
<!-- VisitServiceBillings -->
<g id="node2" class="node">
<title>VisitServiceBillings</title>
<g id="a_node2"><a xlink:href="../../tables/VisitServiceBillings.html" xlink:title="VisitServiceBillings" target="_top">
<polygon fill="#ffffff" stroke="transparent" points="251,-124.2 251,-273.2 431,-273.2 431,-124.2 251,-124.2"/>
<polygon fill="#f5f5f5" stroke="transparent" points="251,-249.7 251,-272.7 431,-272.7 431,-249.7 251,-249.7"/>
<polygon fill="none" stroke="#000000" points="251,-249.7 251,-272.7 431,-272.7 431,-249.7 251,-249.7"/>
<text text-anchor="start" x="256" y="-258.3" font-family="Helvetica,sans-Serif" font-weight="bold" font-size="11.00" fill="#000000">VisitServiceBillings</text>
<text text-anchor="start" x="396.5219" y="-257.8" font-family="Helvetica,sans-Serif" font-size="11.00" fill="#000000">[table]</text>
<polygon fill="none" stroke="#000000" points="251,-227.7 251,-249.7 431,-249.7 431,-227.7 251,-227.7"/>
<image xlink:href="../../images/primaryKeys.png" width="11px" height="12px" preserveAspectRatio="xMinYMin meet" x="256" y="-244.7"/>
<text text-anchor="start" x="280" y="-234.8" font-family="Helvetica,sans-Serif" font-size="11.00" fill="#000000">Id</text>
<polygon fill="#ffffff" stroke="transparent" points="251,-205.7 251,-227.7 431,-227.7 431,-205.7 251,-205.7"/>
<polygon fill="none" stroke="#000000" points="251,-205.7 251,-227.7 431,-227.7 431,-205.7 251,-205.7"/>
<image xlink:href="../../images/foreignKeys.png" width="11px" height="12px" preserveAspectRatio="xMinYMin meet" x="256" y="-222.7"/>
<text text-anchor="start" x="280" y="-212.8" font-family="Helvetica,sans-Serif" font-size="11.00" fill="#000000">VisitId</text>
<polygon fill="#ffffff" stroke="transparent" points="251,-183.7 251,-205.7 431,-205.7 431,-183.7 251,-183.7"/>
<polygon fill="none" stroke="#000000" points="251,-183.7 251,-205.7 431,-205.7 431,-183.7 251,-183.7"/>
<image xlink:href="../../images/foreignKeys.png" width="11px" height="12px" preserveAspectRatio="xMinYMin meet" x="256" y="-200.7"/>
<text text-anchor="start" x="280" y="-190.8" font-family="Helvetica,sans-Serif" font-size="11.00" fill="#000000">ServiceTypeId</text>
<polygon fill="#ffffff" stroke="transparent" points="251,-161.7 251,-183.7 431,-183.7 431,-161.7 251,-161.7"/>
<polygon fill="none" stroke="#000000" points="251,-161.7 251,-183.7 431,-183.7 431,-161.7 251,-161.7"/>
<image xlink:href="../../images/foreignKeys.png" width="11px" height="12px" preserveAspectRatio="xMinYMin meet" x="256" y="-178.7"/>
<text text-anchor="start" x="280" y="-168.8" font-family="Helvetica,sans-Serif" font-size="11.00" fill="#000000">BillingCodeId</text>
<polygon fill="none" stroke="#000000" points="251,-142.7 251,-161.7 431,-161.7 431,-142.7 251,-142.7"/>
<text text-anchor="start" x="254" y="-148.8" font-family="Helvetica,sans-Serif" font-size="11.00" fill="#000000">...</text>
<polygon fill="#ffffff" stroke="transparent" points="251,-123.7 251,-142.7 431,-142.7 431,-123.7 251,-123.7"/>
<polygon fill="none" stroke="#000000" points="251,-123.7 251,-142.7 431,-142.7 431,-123.7 251,-123.7"/>
<polygon fill="#ffffff" stroke="transparent" points="252,-124.7 252,-141.7 318,-141.7 318,-124.7 252,-124.7"/>
<text text-anchor="start" x="254" y="-129.8" font-family="Helvetica,sans-Serif" font-size="11.00" fill="#000000">&lt; 3</text>
<polygon fill="#ffffff" stroke="transparent" points="318,-124.7 318,-141.7 374,-141.7 374,-124.7 318,-124.7"/>
<text text-anchor="start" x="342.9431" y="-129.8" font-family="Helvetica,sans-Serif" font-size="11.00" fill="#000000"> &#160;</text>
<polygon fill="#ffffff" stroke="transparent" points="374,-124.7 374,-141.7 430,-141.7 430,-124.7 374,-124.7"/>
<text text-anchor="start" x="421.8862" y="-129.8" font-family="Helvetica,sans-Serif" font-size="11.00" fill="#000000"> &#160;</text>
<polygon fill="#000000" stroke="#000000" points="318,-124.7 318,-141.7 318,-141.7 318,-124.7 318,-124.7"/>
<polygon fill="#000000" stroke="#000000" points="374,-124.7 374,-141.7 374,-141.7 374,-124.7 374,-124.7"/>
</a>
</g>
</g>
<!-- VisitServiceBillings&#45;&gt;BillingCodes -->
<g id="edge1" class="edge">
<title>VisitServiceBillings:w&#45;&gt;BillingCodes:e</title>
<path fill="none" stroke="#000000" d="M236.6229,-170.1119C206.8947,-158.1385 210.3253,-108.7 170,-108.7"/>
<polygon fill="#000000" stroke="#000000" points="243.1266,-171.2826 250.3622,-176.243 247.0633,-171.9913 251,-172.7 251,-172.7 251,-172.7 247.0633,-171.9913 251.6378,-169.157 243.1266,-171.2826 243.1266,-171.2826"/>
<ellipse fill="none" stroke="#000000" cx="239.9772" cy="-170.7156" rx="3.2" ry="3.2"/>
</g>
<!-- Clinical.ServiceTypes -->
<g id="node3" class="node">
<title>Clinical.ServiceTypes</title>
<g id="a_node3"><a xlink:title="Clinical.ServiceTypes">
<polygon fill="#ffffff" stroke="transparent" points="8,-164.2 8,-225.2 202,-225.2 202,-164.2 8,-164.2"/>
<polygon fill="#f5f5f5" stroke="transparent" points="8,-201.7 8,-224.7 202,-224.7 202,-201.7 8,-201.7"/>
<polygon fill="none" stroke="#000000" points="8,-201.7 8,-224.7 202,-224.7 202,-201.7 8,-201.7"/>
<text text-anchor="start" x="13" y="-210.3" font-family="Helvetica,sans-Serif" font-weight="bold" font-size="11.00" fill="#000000">Clinical.ServiceTypes</text>
<text text-anchor="start" x="167.5219" y="-209.8" font-family="Helvetica,sans-Serif" font-size="11.00" fill="#000000">[table]</text>
<polygon fill="none" stroke="#000000" points="8,-182.7 8,-201.7 202,-201.7 202,-182.7 8,-182.7"/>
<text text-anchor="start" x="11" y="-188.8" font-family="Helvetica,sans-Serif" font-size="11.00" fill="#000000">...</text>
<polygon fill="#ffffff" stroke="transparent" points="8,-163.7 8,-182.7 202,-182.7 202,-163.7 8,-163.7"/>
<polygon fill="none" stroke="#000000" points="8,-163.7 8,-182.7 202,-182.7 202,-163.7 8,-163.7"/>
<polygon fill="#ffffff" stroke="transparent" points="9,-164.7 9,-181.7 70,-181.7 70,-164.7 9,-164.7"/>
<text text-anchor="start" x="11" y="-169.8" font-family="Helvetica,sans-Serif" font-size="11.00" fill="#000000"> &#160;</text>
<polygon fill="#ffffff" stroke="transparent" points="70,-164.7 70,-181.7 131,-181.7 131,-164.7 70,-164.7"/>
<text text-anchor="start" x="97.4431" y="-169.8" font-family="Helvetica,sans-Serif" font-size="11.00" fill="#000000"> &#160;</text>
<polygon fill="#ffffff" stroke="transparent" points="131,-164.7 131,-181.7 201,-181.7 201,-164.7 131,-164.7"/>
<text text-anchor="start" x="183.4053" y="-169.8" font-family="Helvetica,sans-Serif" font-size="11.00" fill="#000000">1 &gt;</text>
<polygon fill="#000000" stroke="#000000" points="70,-164.7 70,-181.7 70,-181.7 70,-164.7 70,-164.7"/>
<polygon fill="#000000" stroke="#000000" points="131,-164.7 131,-181.7 131,-181.7 131,-164.7 131,-164.7"/>
</a>
</g>
</g>
<!-- VisitServiceBillings&#45;&gt;Clinical.ServiceTypes -->
<g id="edge2" class="edge">
<title>VisitServiceBillings:w&#45;&gt;Clinical.ServiceTypes:e</title>
<path fill="none" stroke="#000000" d="M236.5682,-194.7C227.8838,-194.7 219.0449,-194.7 210.2661,-194.7"/>
<polygon fill="#000000" stroke="#000000" points="243,-194.7001 251,-198.3 247,-194.7 251,-194.7 251,-194.7 251,-194.7 247,-194.7 251,-191.1 243,-194.7001 243,-194.7001"/>
<ellipse fill="none" stroke="#000000" cx="239.8" cy="-194.7001" rx="3.2" ry="3.2"/>
</g>
<!-- Clinical.Visits -->
<g id="node4" class="node">
<title>Clinical.Visits</title>
<g id="a_node4"><a xlink:title="Clinical.Visits">
<polygon fill="#ffffff" stroke="transparent" points="36.5,-246.2 36.5,-307.2 173.5,-307.2 173.5,-246.2 36.5,-246.2"/>
<polygon fill="#f5f5f5" stroke="transparent" points="37,-283.7 37,-306.7 174,-306.7 174,-283.7 37,-283.7"/>
<polygon fill="none" stroke="#000000" points="37,-283.7 37,-306.7 174,-306.7 174,-283.7 37,-283.7"/>
<text text-anchor="start" x="42" y="-292.3" font-family="Helvetica,sans-Serif" font-weight="bold" font-size="11.00" fill="#000000">Clinical.Visits</text>
<text text-anchor="start" x="139.5219" y="-291.8" font-family="Helvetica,sans-Serif" font-size="11.00" fill="#000000">[table]</text>
<polygon fill="none" stroke="#000000" points="37,-264.7 37,-283.7 174,-283.7 174,-264.7 37,-264.7"/>
<text text-anchor="start" x="40" y="-270.8" font-family="Helvetica,sans-Serif" font-size="11.00" fill="#000000">...</text>
<polygon fill="#ffffff" stroke="transparent" points="37,-245.7 37,-264.7 174,-264.7 174,-245.7 37,-245.7"/>
<polygon fill="none" stroke="#000000" points="37,-245.7 37,-264.7 174,-264.7 174,-245.7 37,-245.7"/>
<polygon fill="#ffffff" stroke="transparent" points="38,-246.7 38,-263.7 80,-263.7 80,-246.7 38,-246.7"/>
<text text-anchor="start" x="40" y="-251.8" font-family="Helvetica,sans-Serif" font-size="11.00" fill="#000000"> &#160;</text>
<polygon fill="#ffffff" stroke="transparent" points="80,-246.7 80,-263.7 122,-263.7 122,-246.7 80,-246.7"/>
<text text-anchor="start" x="97.9431" y="-251.8" font-family="Helvetica,sans-Serif" font-size="11.00" fill="#000000"> &#160;</text>
<polygon fill="#ffffff" stroke="transparent" points="122,-246.7 122,-263.7 173,-263.7 173,-246.7 122,-246.7"/>
<text text-anchor="start" x="155.4053" y="-251.8" font-family="Helvetica,sans-Serif" font-size="11.00" fill="#000000">1 &gt;</text>
<polygon fill="#000000" stroke="#000000" points="80,-246.7 80,-263.7 80,-263.7 80,-246.7 80,-246.7"/>
<polygon fill="#000000" stroke="#000000" points="122,-246.7 122,-263.7 122,-263.7 122,-246.7 122,-246.7"/>
</a>
</g>
</g>
<!-- VisitServiceBillings&#45;&gt;Clinical.Visits -->
<g id="edge3" class="edge">
<title>VisitServiceBillings:w&#45;&gt;Clinical.Visits:e</title>
<path fill="none" stroke="#000000" d="M236.6029,-219.3911C227.9397,-223.1761 222.8452,-230.222 210,-235.7 200.9095,-239.5768 191.3195,-243.5195 181.7809,-247.3513"/>
<polygon fill="#000000" stroke="#000000" points="243.1362,-218.1699 251.6615,-220.2387 247.0681,-217.435 251,-216.7 251,-216.7 251,-216.7 247.0681,-217.435 250.3385,-213.1613 243.1362,-218.1699 243.1362,-218.1699"/>
<ellipse fill="none" stroke="#000000" cx="239.9907" cy="-218.7579" rx="3.2" ry="3.2"/>
</g>
</g>
</svg>
