<?xml version="1.0" encoding="UTF-8" standalone="no"?>
<!DOCTYPE svg PUBLIC "-//W3C//DTD SVG 1.1//EN"
 "http://www.w3.org/Graphics/SVG/1.1/DTD/svg11.dtd">
<!-- Generated by graphviz version 2.40.1 (20161225.0304)
 -->
<!-- Title: oneDegreeRelationshipsDiagram Pages: 1 -->
<svg width="476pt" height="250pt"
 viewBox="0.00 0.00 476.00 250.20" xmlns="http://www.w3.org/2000/svg" xmlns:xlink="http://www.w3.org/1999/xlink">
<g id="graph0" class="graph" transform="scale(1 1) rotate(0) translate(4 246.2)">
<title>oneDegreeRelationshipsDiagram</title>
<polygon fill="#ffffff" stroke="transparent" points="-4,4 -4,-246.2 472,-246.2 472,4 -4,4"/>
<text text-anchor="middle" x="72.4936" y="-7.3" font-family="Helvetica,sans-Serif" font-size="11.00" fill="#000000">Generated by SchemaSpy</text>
<!-- RoleClaims -->
<g id="node1" class="node">
<title>RoleClaims</title>
<g id="a_node1"><a xlink:href="../../tables/RoleClaims.html" xlink:title="RoleClaims" target="_top">
<polygon fill="#ffffff" stroke="transparent" points="216,-38.2 216,-238.2 460,-238.2 460,-38.2 216,-38.2"/>
<polygon fill="#f5f5f5" stroke="transparent" points="218,-213.2 218,-236.2 458,-236.2 458,-213.2 218,-213.2"/>
<polygon fill="none" stroke="#000000" points="218,-213.2 218,-236.2 458,-236.2 458,-213.2 218,-213.2"/>
<text text-anchor="start" x="223" y="-221.8" font-family="Helvetica,sans-Serif" font-weight="bold" font-size="11.00" fill="#000000">RoleClaims</text>
<text text-anchor="start" x="423.0437" y="-221.3" font-family="Helvetica,sans-Serif" font-size="11.00" fill="#000000">[table]</text>
<polygon fill="none" stroke="#000000" points="218,-191.2 218,-213.2 342,-213.2 342,-191.2 218,-191.2"/>
<image xlink:href="../../images/primaryKeys.png" width="11px" height="12px" preserveAspectRatio="xMinYMin meet" x="223" y="-208.2"/>
<text text-anchor="start" x="238" y="-198.3" font-family="Helvetica,sans-Serif" font-size="11.00" fill="#000000">Id</text>
<polygon fill="none" stroke="#000000" points="342,-191.2 342,-213.2 458,-213.2 458,-191.2 342,-191.2"/>
<text text-anchor="start" x="345" y="-198.9" font-family="Helvetica,sans-Serif" font-size="11.00" fill="#000000">int identity[4]</text>
<polygon fill="none" stroke="#000000" points="218,-169.2 218,-191.2 342,-191.2 342,-169.2 218,-169.2"/>
<text text-anchor="start" x="238" y="-176.3" font-family="Helvetica,sans-Serif" font-size="11.00" fill="#000000">CreatedAtUtc</text>
<polygon fill="none" stroke="#000000" points="342,-169.2 342,-191.2 458,-191.2 458,-169.2 342,-169.2"/>
<text text-anchor="start" x="345" y="-176.9" font-family="Helvetica,sans-Serif" font-size="11.00" fill="#000000">datetime2[16,7]</text>
<polygon fill="none" stroke="#000000" points="218,-147.2 218,-169.2 342,-169.2 342,-147.2 218,-147.2"/>
<text text-anchor="start" x="238" y="-154.3" font-family="Helvetica,sans-Serif" font-size="11.00" fill="#000000">UpdatedAtUtc</text>
<polygon fill="none" stroke="#000000" points="342,-147.2 342,-169.2 458,-169.2 458,-147.2 342,-147.2"/>
<text text-anchor="start" x="345" y="-154.9" font-family="Helvetica,sans-Serif" font-size="11.00" fill="#000000">datetime2[16,7]</text>
<polygon fill="none" stroke="#000000" points="218,-125.2 218,-147.2 342,-147.2 342,-125.2 218,-125.2"/>
<text text-anchor="start" x="238" y="-132.3" font-family="Helvetica,sans-Serif" font-size="11.00" fill="#000000">RowVersion</text>
<polygon fill="none" stroke="#000000" points="342,-125.2 342,-147.2 458,-147.2 458,-125.2 342,-125.2"/>
<text text-anchor="start" x="345" y="-132.9" font-family="Helvetica,sans-Serif" font-size="11.00" fill="#000000">timestamp[8]</text>
<polygon fill="#ffffff" stroke="transparent" points="218,-103.2 218,-125.2 342,-125.2 342,-103.2 218,-103.2"/>
<polygon fill="none" stroke="#000000" points="218,-103.2 218,-125.2 342,-125.2 342,-103.2 218,-103.2"/>
<image xlink:href="../../images/foreignKeys.png" width="11px" height="12px" preserveAspectRatio="xMinYMin meet" x="223" y="-120.2"/>
<text text-anchor="start" x="238" y="-110.3" font-family="Helvetica,sans-Serif" font-size="11.00" fill="#000000">RoleId</text>
<polygon fill="none" stroke="#000000" points="342,-103.2 342,-125.2 458,-125.2 458,-103.2 342,-103.2"/>
<text text-anchor="start" x="345" y="-110.9" font-family="Helvetica,sans-Serif" font-size="11.00" fill="#000000">int[4]</text>
<polygon fill="none" stroke="#000000" points="218,-81.2 218,-103.2 342,-103.2 342,-81.2 218,-81.2"/>
<text text-anchor="start" x="238" y="-88.3" font-family="Helvetica,sans-Serif" font-size="11.00" fill="#000000">ClaimType</text>
<polygon fill="none" stroke="#000000" points="342,-81.2 342,-103.2 458,-103.2 458,-81.2 342,-81.2"/>
<text text-anchor="start" x="344.9769" y="-88.9" font-family="Helvetica,sans-Serif" font-size="11.00" fill="#000000">nvarchar[2147483647]</text>
<polygon fill="none" stroke="#000000" points="218,-59.2 218,-81.2 342,-81.2 342,-59.2 218,-59.2"/>
<text text-anchor="start" x="238" y="-66.3" font-family="Helvetica,sans-Serif" font-size="11.00" fill="#000000">ClaimValue</text>
<polygon fill="none" stroke="#000000" points="342,-59.2 342,-81.2 458,-81.2 458,-59.2 342,-59.2"/>
<text text-anchor="start" x="344.9769" y="-66.9" font-family="Helvetica,sans-Serif" font-size="11.00" fill="#000000">nvarchar[2147483647]</text>
<polygon fill="#ffffff" stroke="transparent" points="218,-40.2 218,-59.2 458,-59.2 458,-40.2 218,-40.2"/>
<polygon fill="none" stroke="#000000" points="218,-40.2 218,-59.2 458,-59.2 458,-40.2 218,-40.2"/>
<polygon fill="#ffffff" stroke="transparent" points="219,-41.2 219,-58.2 302,-58.2 302,-41.2 219,-41.2"/>
<text text-anchor="start" x="221" y="-46.3" font-family="Helvetica,sans-Serif" font-size="11.00" fill="#000000">&lt; 1</text>
<polygon fill="#ffffff" stroke="transparent" points="302,-41.2 302,-58.2 375,-58.2 375,-41.2 302,-41.2"/>
<text text-anchor="start" x="335.4431" y="-46.3" font-family="Helvetica,sans-Serif" font-size="11.00" fill="#000000"> &#160;</text>
<polygon fill="#ffffff" stroke="transparent" points="375,-41.2 375,-58.2 457,-58.2 457,-41.2 375,-41.2"/>
<text text-anchor="start" x="439.4053" y="-46.3" font-family="Helvetica,sans-Serif" font-size="11.00" fill="#000000">0 &gt;</text>
<polygon fill="#000000" stroke="#000000" points="302,-41.2 302,-58.2 302,-58.2 302,-41.2 302,-41.2"/>
<polygon fill="#000000" stroke="#000000" points="375,-41.2 375,-58.2 375,-58.2 375,-41.2 375,-41.2"/>
<polygon fill="none" stroke="#000000" stroke-width="2" points="217,-39.2 217,-237.2 459,-237.2 459,-39.2 217,-39.2"/>
</a>
</g>
</g>
<!-- Roles -->
<g id="node2" class="node">
<title>Roles</title>
<g id="a_node2"><a xlink:href="../../tables/Roles.html" xlink:title="Roles" target="_top">
<polygon fill="#ffffff" stroke="transparent" points="8,-43.7 8,-148.7 167,-148.7 167,-43.7 8,-43.7"/>
<polygon fill="#f5f5f5" stroke="transparent" points="8.5,-125.2 8.5,-148.2 167.5,-148.2 167.5,-125.2 8.5,-125.2"/>
<polygon fill="none" stroke="#000000" points="8.5,-125.2 8.5,-148.2 167.5,-148.2 167.5,-125.2 8.5,-125.2"/>
<text text-anchor="start" x="13.5" y="-133.8" font-family="Helvetica,sans-Serif" font-weight="bold" font-size="11.00" fill="#000000">Roles</text>
<text text-anchor="start" x="132.5437" y="-133.3" font-family="Helvetica,sans-Serif" font-size="11.00" fill="#000000">[table]</text>
<polygon fill="none" stroke="#000000" points="8.5,-103.2 8.5,-125.2 167.5,-125.2 167.5,-103.2 8.5,-103.2"/>
<image xlink:href="../../images/primaryKeys.png" width="11px" height="12px" preserveAspectRatio="xMinYMin meet" x="13.5" y="-120.2"/>
<text text-anchor="start" x="28.5" y="-110.3" font-family="Helvetica,sans-Serif" font-size="11.00" fill="#000000">Id</text>
<polygon fill="#ffffff" stroke="transparent" points="8.5,-81.2 8.5,-103.2 167.5,-103.2 167.5,-81.2 8.5,-81.2"/>
<polygon fill="none" stroke="#000000" points="8.5,-81.2 8.5,-103.2 167.5,-103.2 167.5,-81.2 8.5,-81.2"/>
<text text-anchor="start" x="28.5" y="-88.3" font-family="Helvetica,sans-Serif" font-size="11.00" fill="#000000">NormalizedName</text>
<polygon fill="none" stroke="#000000" points="8.5,-62.2 8.5,-81.2 167.5,-81.2 167.5,-62.2 8.5,-62.2"/>
<text text-anchor="start" x="11.5" y="-68.3" font-family="Helvetica,sans-Serif" font-size="11.00" fill="#000000">...</text>
<polygon fill="#ffffff" stroke="transparent" points="8.5,-43.2 8.5,-62.2 167.5,-62.2 167.5,-43.2 8.5,-43.2"/>
<polygon fill="none" stroke="#000000" points="8.5,-43.2 8.5,-62.2 167.5,-62.2 167.5,-43.2 8.5,-43.2"/>
<polygon fill="#ffffff" stroke="transparent" points="9.5,-44.2 9.5,-61.2 59.5,-61.2 59.5,-44.2 9.5,-44.2"/>
<text text-anchor="start" x="11.5" y="-49.3" font-family="Helvetica,sans-Serif" font-size="11.00" fill="#000000"> &#160;</text>
<polygon fill="#ffffff" stroke="transparent" points="59.5,-44.2 59.5,-61.2 108.5,-61.2 108.5,-44.2 59.5,-44.2"/>
<text text-anchor="start" x="80.9431" y="-49.3" font-family="Helvetica,sans-Serif" font-size="11.00" fill="#000000"> &#160;</text>
<polygon fill="#ffffff" stroke="transparent" points="108.5,-44.2 108.5,-61.2 166.5,-61.2 166.5,-44.2 108.5,-44.2"/>
<text text-anchor="start" x="148.9053" y="-49.3" font-family="Helvetica,sans-Serif" font-size="11.00" fill="#000000">2 &gt;</text>
<polygon fill="#000000" stroke="#000000" points="59.5,-44.2 59.5,-61.2 59.5,-61.2 59.5,-44.2 59.5,-44.2"/>
<polygon fill="#000000" stroke="#000000" points="108.5,-44.2 108.5,-61.2 108.5,-61.2 108.5,-44.2 108.5,-44.2"/>
</a>
</g>
</g>
<!-- RoleClaims&#45;&gt;Roles -->
<g id="edge1" class="edge">
<title>RoleClaims:w&#45;&gt;Roles:e</title>
<path fill="none" stroke="#000000" d="M203.4203,-114.2C191.5435,-114.2 184.158,-114.2 167.5,-114.2"/>
<polygon fill="#000000" stroke="#000000" points="210,-114.2001 218,-117.8 214,-114.2 218,-114.2 218,-114.2 218,-114.2 214,-114.2 218,-110.6 210,-114.2001 210,-114.2001"/>
<ellipse fill="none" stroke="#000000" cx="206.8" cy="-114.2001" rx="3.2" ry="3.2"/>
</g>
</g>
</svg>
