<?xml version="1.0" encoding="UTF-8" standalone="no"?>
<!DOCTYPE svg PUBLIC "-//W3C//DTD SVG 1.1//EN"
 "http://www.w3.org/Graphics/SVG/1.1/DTD/svg11.dtd">
<!-- Generated by graphviz version 2.40.1 (20161225.0304)
 -->
<!-- Title: twoDegreesRelationshipsDiagram Pages: 1 -->
<svg width="476pt" height="365pt"
 viewBox="0.00 0.00 476.00 364.70" xmlns="http://www.w3.org/2000/svg" xmlns:xlink="http://www.w3.org/1999/xlink">
<g id="graph0" class="graph" transform="scale(1 1) rotate(0) translate(4 360.7)">
<title>twoDegreesRelationshipsDiagram</title>
<polygon fill="#ffffff" stroke="transparent" points="-4,4 -4,-360.7 472,-360.7 472,4 -4,4"/>
<text text-anchor="middle" x="72.4936" y="-7.3" font-family="Helvetica,sans-Serif" font-size="11.00" fill="#000000">Generated by SchemaSpy</text>
<!-- RoleClaims -->
<g id="node1" class="node">
<title>RoleClaims</title>
<g id="a_node1"><a xlink:href="../../tables/RoleClaims.html" xlink:title="RoleClaims" target="_top">
<polygon fill="#ffffff" stroke="transparent" points="336,-121.7 336,-226.7 460,-226.7 460,-121.7 336,-121.7"/>
<polygon fill="#f5f5f5" stroke="transparent" points="336,-203.2 336,-226.2 460,-226.2 460,-203.2 336,-203.2"/>
<polygon fill="none" stroke="#000000" points="336,-203.2 336,-226.2 460,-226.2 460,-203.2 336,-203.2"/>
<text text-anchor="start" x="341" y="-211.8" font-family="Helvetica,sans-Serif" font-weight="bold" font-size="11.00" fill="#000000">RoleClaims</text>
<text text-anchor="start" x="425.0437" y="-211.3" font-family="Helvetica,sans-Serif" font-size="11.00" fill="#000000">[table]</text>
<polygon fill="none" stroke="#000000" points="336,-181.2 336,-203.2 460,-203.2 460,-181.2 336,-181.2"/>
<image xlink:href="../../images/primaryKeys.png" width="11px" height="12px" preserveAspectRatio="xMinYMin meet" x="341" y="-198.2"/>
<text text-anchor="start" x="356" y="-188.3" font-family="Helvetica,sans-Serif" font-size="11.00" fill="#000000">Id</text>
<polygon fill="#ffffff" stroke="transparent" points="336,-159.2 336,-181.2 460,-181.2 460,-159.2 336,-159.2"/>
<polygon fill="none" stroke="#000000" points="336,-159.2 336,-181.2 460,-181.2 460,-159.2 336,-159.2"/>
<image xlink:href="../../images/foreignKeys.png" width="11px" height="12px" preserveAspectRatio="xMinYMin meet" x="341" y="-176.2"/>
<text text-anchor="start" x="356" y="-166.3" font-family="Helvetica,sans-Serif" font-size="11.00" fill="#000000">RoleId</text>
<polygon fill="none" stroke="#000000" points="336,-140.2 336,-159.2 460,-159.2 460,-140.2 336,-140.2"/>
<text text-anchor="start" x="339" y="-146.3" font-family="Helvetica,sans-Serif" font-size="11.00" fill="#000000">...</text>
<polygon fill="#ffffff" stroke="transparent" points="336,-121.2 336,-140.2 460,-140.2 460,-121.2 336,-121.2"/>
<polygon fill="none" stroke="#000000" points="336,-121.2 336,-140.2 460,-140.2 460,-121.2 336,-121.2"/>
<polygon fill="#ffffff" stroke="transparent" points="337,-122.2 337,-139.2 384,-139.2 384,-122.2 337,-122.2"/>
<text text-anchor="start" x="339" y="-127.3" font-family="Helvetica,sans-Serif" font-size="11.00" fill="#000000">&lt; 1</text>
<polygon fill="#ffffff" stroke="transparent" points="384,-122.2 384,-139.2 422,-139.2 422,-122.2 384,-122.2"/>
<text text-anchor="start" x="399.9431" y="-127.3" font-family="Helvetica,sans-Serif" font-size="11.00" fill="#000000"> &#160;</text>
<polygon fill="#ffffff" stroke="transparent" points="422,-122.2 422,-139.2 459,-139.2 459,-122.2 422,-122.2"/>
<text text-anchor="start" x="450.8862" y="-127.3" font-family="Helvetica,sans-Serif" font-size="11.00" fill="#000000"> &#160;</text>
<polygon fill="#000000" stroke="#000000" points="384,-122.2 384,-139.2 384,-139.2 384,-122.2 384,-122.2"/>
<polygon fill="#000000" stroke="#000000" points="422,-122.2 422,-139.2 422,-139.2 422,-122.2 422,-122.2"/>
</a>
</g>
</g>
<!-- Roles -->
<g id="node2" class="node">
<title>Roles</title>
<g id="a_node2"><a xlink:href="../../tables/Roles.html" xlink:title="Roles" target="_top">
<polygon fill="#ffffff" stroke="transparent" points="8,-38.2 8,-238.2 287,-238.2 287,-38.2 8,-38.2"/>
<polygon fill="#f5f5f5" stroke="transparent" points="10.5,-213.2 10.5,-236.2 285.5,-236.2 285.5,-213.2 10.5,-213.2"/>
<polygon fill="none" stroke="#000000" points="10.5,-213.2 10.5,-236.2 285.5,-236.2 285.5,-213.2 10.5,-213.2"/>
<text text-anchor="start" x="15.5" y="-221.8" font-family="Helvetica,sans-Serif" font-weight="bold" font-size="11.00" fill="#000000">Roles</text>
<text text-anchor="start" x="250.5437" y="-221.3" font-family="Helvetica,sans-Serif" font-size="11.00" fill="#000000">[table]</text>
<polygon fill="none" stroke="#000000" points="10.5,-191.2 10.5,-213.2 169.5,-213.2 169.5,-191.2 10.5,-191.2"/>
<image xlink:href="../../images/primaryKeys.png" width="11px" height="12px" preserveAspectRatio="xMinYMin meet" x="15.5" y="-208.2"/>
<text text-anchor="start" x="30.5" y="-198.3" font-family="Helvetica,sans-Serif" font-size="11.00" fill="#000000">Id</text>
<polygon fill="none" stroke="#000000" points="169.5,-191.2 169.5,-213.2 285.5,-213.2 285.5,-191.2 169.5,-191.2"/>
<text text-anchor="start" x="172.5" y="-198.9" font-family="Helvetica,sans-Serif" font-size="11.00" fill="#000000">int identity[4]</text>
<polygon fill="none" stroke="#000000" points="10.5,-169.2 10.5,-191.2 169.5,-191.2 169.5,-169.2 10.5,-169.2"/>
<text text-anchor="start" x="30.5" y="-176.3" font-family="Helvetica,sans-Serif" font-size="11.00" fill="#000000">CreatedAtUtc</text>
<polygon fill="none" stroke="#000000" points="169.5,-169.2 169.5,-191.2 285.5,-191.2 285.5,-169.2 169.5,-169.2"/>
<text text-anchor="start" x="172.5" y="-176.9" font-family="Helvetica,sans-Serif" font-size="11.00" fill="#000000">datetime2[16,7]</text>
<polygon fill="none" stroke="#000000" points="10.5,-147.2 10.5,-169.2 169.5,-169.2 169.5,-147.2 10.5,-147.2"/>
<text text-anchor="start" x="30.5" y="-154.3" font-family="Helvetica,sans-Serif" font-size="11.00" fill="#000000">UpdatedAtUtc</text>
<polygon fill="none" stroke="#000000" points="169.5,-147.2 169.5,-169.2 285.5,-169.2 285.5,-147.2 169.5,-147.2"/>
<text text-anchor="start" x="172.5" y="-154.9" font-family="Helvetica,sans-Serif" font-size="11.00" fill="#000000">datetime2[16,7]</text>
<polygon fill="none" stroke="#000000" points="10.5,-125.2 10.5,-147.2 169.5,-147.2 169.5,-125.2 10.5,-125.2"/>
<text text-anchor="start" x="30.5" y="-132.3" font-family="Helvetica,sans-Serif" font-size="11.00" fill="#000000">RowVersion</text>
<polygon fill="none" stroke="#000000" points="169.5,-125.2 169.5,-147.2 285.5,-147.2 285.5,-125.2 169.5,-125.2"/>
<text text-anchor="start" x="172.5" y="-132.9" font-family="Helvetica,sans-Serif" font-size="11.00" fill="#000000">timestamp[8]</text>
<polygon fill="none" stroke="#000000" points="10.5,-103.2 10.5,-125.2 169.5,-125.2 169.5,-103.2 10.5,-103.2"/>
<text text-anchor="start" x="30.5" y="-110.3" font-family="Helvetica,sans-Serif" font-size="11.00" fill="#000000">Name</text>
<polygon fill="none" stroke="#000000" points="169.5,-103.2 169.5,-125.2 285.5,-125.2 285.5,-103.2 169.5,-103.2"/>
<text text-anchor="start" x="172.5" y="-110.9" font-family="Helvetica,sans-Serif" font-size="11.00" fill="#000000">nvarchar[512]</text>
<polygon fill="#ffffff" stroke="transparent" points="10.5,-81.2 10.5,-103.2 169.5,-103.2 169.5,-81.2 10.5,-81.2"/>
<polygon fill="none" stroke="#000000" points="10.5,-81.2 10.5,-103.2 169.5,-103.2 169.5,-81.2 10.5,-81.2"/>
<text text-anchor="start" x="30.5" y="-88.3" font-family="Helvetica,sans-Serif" font-size="11.00" fill="#000000">NormalizedName</text>
<polygon fill="none" stroke="#000000" points="169.5,-81.2 169.5,-103.2 285.5,-103.2 285.5,-81.2 169.5,-81.2"/>
<text text-anchor="start" x="172.5" y="-88.9" font-family="Helvetica,sans-Serif" font-size="11.00" fill="#000000">nvarchar[512]</text>
<polygon fill="none" stroke="#000000" points="10.5,-59.2 10.5,-81.2 169.5,-81.2 169.5,-59.2 10.5,-59.2"/>
<text text-anchor="start" x="30.5" y="-66.3" font-family="Helvetica,sans-Serif" font-size="11.00" fill="#000000">ConcurrencyStamp</text>
<polygon fill="none" stroke="#000000" points="169.5,-59.2 169.5,-81.2 285.5,-81.2 285.5,-59.2 169.5,-59.2"/>
<text text-anchor="start" x="172.4769" y="-66.9" font-family="Helvetica,sans-Serif" font-size="11.00" fill="#000000">nvarchar[2147483647]</text>
<polygon fill="#ffffff" stroke="transparent" points="10.5,-40.2 10.5,-59.2 285.5,-59.2 285.5,-40.2 10.5,-40.2"/>
<polygon fill="none" stroke="#000000" points="10.5,-40.2 10.5,-59.2 285.5,-59.2 285.5,-40.2 10.5,-40.2"/>
<polygon fill="#ffffff" stroke="transparent" points="11.5,-41.2 11.5,-58.2 105.5,-58.2 105.5,-41.2 11.5,-41.2"/>
<text text-anchor="start" x="13.5" y="-46.3" font-family="Helvetica,sans-Serif" font-size="11.00" fill="#000000">&lt; 0</text>
<polygon fill="#ffffff" stroke="transparent" points="105.5,-41.2 105.5,-58.2 190.5,-58.2 190.5,-41.2 105.5,-41.2"/>
<text text-anchor="start" x="144.9431" y="-46.3" font-family="Helvetica,sans-Serif" font-size="11.00" fill="#000000"> &#160;</text>
<polygon fill="#ffffff" stroke="transparent" points="190.5,-41.2 190.5,-58.2 284.5,-58.2 284.5,-41.2 190.5,-41.2"/>
<text text-anchor="start" x="266.9053" y="-46.3" font-family="Helvetica,sans-Serif" font-size="11.00" fill="#000000">2 &gt;</text>
<polygon fill="#000000" stroke="#000000" points="105.5,-41.2 105.5,-58.2 105.5,-58.2 105.5,-41.2 105.5,-41.2"/>
<polygon fill="#000000" stroke="#000000" points="190.5,-41.2 190.5,-58.2 190.5,-58.2 190.5,-41.2 190.5,-41.2"/>
<polygon fill="none" stroke="#000000" stroke-width="2" points="9,-39.2 9,-237.2 286,-237.2 286,-39.2 9,-39.2"/>
</a>
</g>
</g>
<!-- RoleClaims&#45;&gt;Roles -->
<g id="edge1" class="edge">
<title>RoleClaims:w&#45;&gt;Roles:e</title>
<path fill="none" stroke="#000000" d="M322.1448,-174.1238C309.187,-182.6688 306.2587,-202.2 285.5,-202.2"/>
<polygon fill="#000000" stroke="#000000" points="328.3027,-172.3799 336.981,-173.6638 332.1514,-171.29 336,-170.2 336,-170.2 336,-170.2 332.1514,-171.29 335.019,-166.7362 328.3027,-172.3799 328.3027,-172.3799"/>
<ellipse fill="none" stroke="#000000" cx="325.2238" cy="-173.2519" rx="3.2" ry="3.2"/>
</g>
<!-- UserRoles -->
<g id="node3" class="node">
<title>UserRoles</title>
<g id="a_node3"><a xlink:href="../../tables/UserRoles.html" xlink:title="UserRoles" target="_top">
<polygon fill="#ffffff" stroke="transparent" points="336,-247.7 336,-352.7 460,-352.7 460,-247.7 336,-247.7"/>
<polygon fill="#f5f5f5" stroke="transparent" points="336,-329.2 336,-352.2 460,-352.2 460,-329.2 336,-329.2"/>
<polygon fill="none" stroke="#000000" points="336,-329.2 336,-352.2 460,-352.2 460,-329.2 336,-329.2"/>
<text text-anchor="start" x="341" y="-337.8" font-family="Helvetica,sans-Serif" font-weight="bold" font-size="11.00" fill="#000000">UserRoles</text>
<text text-anchor="start" x="425.0437" y="-337.3" font-family="Helvetica,sans-Serif" font-size="11.00" fill="#000000">[table]</text>
<polygon fill="none" stroke="#000000" points="336,-307.2 336,-329.2 460,-329.2 460,-307.2 336,-307.2"/>
<image xlink:href="../../images/primaryKeys.png" width="11px" height="12px" preserveAspectRatio="xMinYMin meet" x="341" y="-324.2"/>
<text text-anchor="start" x="356" y="-314.3" font-family="Helvetica,sans-Serif" font-size="11.00" fill="#000000">UserId</text>
<polygon fill="none" stroke="#000000" points="336,-285.2 336,-307.2 460,-307.2 460,-285.2 336,-285.2"/>
<image xlink:href="../../images/primaryKeys.png" width="11px" height="12px" preserveAspectRatio="xMinYMin meet" x="341" y="-302.2"/>
<text text-anchor="start" x="356" y="-292.3" font-family="Helvetica,sans-Serif" font-size="11.00" fill="#000000">RoleId</text>
<polygon fill="none" stroke="#000000" points="336,-266.2 336,-285.2 460,-285.2 460,-266.2 336,-266.2"/>
<text text-anchor="start" x="339" y="-272.3" font-family="Helvetica,sans-Serif" font-size="11.00" fill="#000000">...</text>
<polygon fill="#ffffff" stroke="transparent" points="336,-247.2 336,-266.2 460,-266.2 460,-247.2 336,-247.2"/>
<polygon fill="none" stroke="#000000" points="336,-247.2 336,-266.2 460,-266.2 460,-247.2 336,-247.2"/>
<polygon fill="#ffffff" stroke="transparent" points="337,-248.2 337,-265.2 384,-265.2 384,-248.2 337,-248.2"/>
<text text-anchor="start" x="339" y="-253.3" font-family="Helvetica,sans-Serif" font-size="11.00" fill="#000000">&lt; 2</text>
<polygon fill="#ffffff" stroke="transparent" points="384,-248.2 384,-265.2 422,-265.2 422,-248.2 384,-248.2"/>
<text text-anchor="start" x="399.9431" y="-253.3" font-family="Helvetica,sans-Serif" font-size="11.00" fill="#000000"> &#160;</text>
<polygon fill="#ffffff" stroke="transparent" points="422,-248.2 422,-265.2 459,-265.2 459,-248.2 422,-248.2"/>
<text text-anchor="start" x="450.8862" y="-253.3" font-family="Helvetica,sans-Serif" font-size="11.00" fill="#000000"> &#160;</text>
<polygon fill="#000000" stroke="#000000" points="384,-248.2 384,-265.2 384,-265.2 384,-248.2 384,-248.2"/>
<polygon fill="#000000" stroke="#000000" points="422,-248.2 422,-265.2 422,-265.2 422,-248.2 422,-248.2"/>
</a>
</g>
</g>
<!-- UserRoles&#45;&gt;Roles -->
<g id="edge2" class="edge">
<title>UserRoles:w&#45;&gt;Roles:e</title>
<path fill="none" stroke="#000000" d="M322.1591,-292.1609C298.2285,-274.1688 326.9969,-202.2 285.5,-202.2"/>
<polygon fill="#000000" stroke="#000000" points="328.3203,-293.9589 334.9915,-299.6559 332.1602,-295.0794 336,-296.2 336,-296.2 336,-296.2 332.1602,-295.0794 337.0085,-292.7441 328.3203,-293.9589 328.3203,-293.9589"/>
<ellipse fill="none" stroke="#000000" cx="325.2484" cy="-293.0624" rx="3.2" ry="3.2"/>
</g>
<!-- Users -->
<g id="node4" class="node">
<title>Users</title>
<g id="a_node4"><a xlink:href="../../tables/Users.html" xlink:title="Users" target="_top">
<polygon fill="#ffffff" stroke="transparent" points="107.5,-290.7 107.5,-351.7 187.5,-351.7 187.5,-290.7 107.5,-290.7"/>
<polygon fill="#f5f5f5" stroke="transparent" points="107.5,-328.2 107.5,-351.2 187.5,-351.2 187.5,-328.2 107.5,-328.2"/>
<polygon fill="none" stroke="#000000" points="107.5,-328.2 107.5,-351.2 187.5,-351.2 187.5,-328.2 107.5,-328.2"/>
<text text-anchor="start" x="112.5" y="-336.8" font-family="Helvetica,sans-Serif" font-weight="bold" font-size="11.00" fill="#000000">Users</text>
<text text-anchor="start" x="153.0219" y="-336.3" font-family="Helvetica,sans-Serif" font-size="11.00" fill="#000000">[table]</text>
<polygon fill="none" stroke="#000000" points="107.5,-309.2 107.5,-328.2 187.5,-328.2 187.5,-309.2 107.5,-309.2"/>
<text text-anchor="start" x="110.5" y="-315.3" font-family="Helvetica,sans-Serif" font-size="11.00" fill="#000000">...</text>
<polygon fill="#ffffff" stroke="transparent" points="107.5,-290.2 107.5,-309.2 187.5,-309.2 187.5,-290.2 107.5,-290.2"/>
<polygon fill="none" stroke="#000000" points="107.5,-290.2 107.5,-309.2 187.5,-309.2 187.5,-290.2 107.5,-290.2"/>
<polygon fill="#ffffff" stroke="transparent" points="108.5,-291.2 108.5,-308.2 131.5,-308.2 131.5,-291.2 108.5,-291.2"/>
<text text-anchor="start" x="110.5" y="-296.3" font-family="Helvetica,sans-Serif" font-size="11.00" fill="#000000"> &#160;</text>
<polygon fill="#ffffff" stroke="transparent" points="131.5,-291.2 131.5,-308.2 154.5,-308.2 154.5,-291.2 131.5,-291.2"/>
<text text-anchor="start" x="139.9431" y="-296.3" font-family="Helvetica,sans-Serif" font-size="11.00" fill="#000000"> &#160;</text>
<polygon fill="#ffffff" stroke="transparent" points="154.5,-291.2 154.5,-308.2 186.5,-308.2 186.5,-291.2 154.5,-291.2"/>
<text text-anchor="start" x="168.9053" y="-296.3" font-family="Helvetica,sans-Serif" font-size="11.00" fill="#000000">4 &gt;</text>
<polygon fill="#000000" stroke="#000000" points="131.5,-291.2 131.5,-308.2 131.5,-308.2 131.5,-291.2 131.5,-291.2"/>
<polygon fill="#000000" stroke="#000000" points="154.5,-291.2 154.5,-308.2 154.5,-308.2 154.5,-291.2 154.5,-291.2"/>
</a>
</g>
</g>
<!-- UserRoles&#45;&gt;Users -->
<g id="edge3" class="edge">
<title>UserRoles:w&#45;&gt;Users:e</title>
<path fill="none" stroke="#000000" d="M321.3904,-318.2C267.1198,-318.2 248.3438,-318.2 187.5,-318.2"/>
<polygon fill="#000000" stroke="#000000" points="328,-318.2001 336,-321.8 332,-318.2 336,-318.2 336,-318.2 336,-318.2 332,-318.2 336,-314.6 328,-318.2001 328,-318.2001"/>
<ellipse fill="none" stroke="#000000" cx="324.8" cy="-318.2001" rx="3.2" ry="3.2"/>
</g>
</g>
</svg>
