<?xml version="1.0" encoding="UTF-8" standalone="no"?>
<!DOCTYPE svg PUBLIC "-//W3C//DTD SVG 1.1//EN"
 "http://www.w3.org/Graphics/SVG/1.1/DTD/svg11.dtd">
<!-- Generated by graphviz version 2.40.1 (20161225.0304)
 -->
<!-- Title: twoDegreesRelationshipsDiagram Pages: 1 -->
<svg width="476pt" height="333pt"
 viewBox="0.00 0.00 476.00 332.70" xmlns="http://www.w3.org/2000/svg" xmlns:xlink="http://www.w3.org/1999/xlink">
<g id="graph0" class="graph" transform="scale(1 1) rotate(0) translate(4 328.7)">
<title>twoDegreesRelationshipsDiagram</title>
<polygon fill="#ffffff" stroke="transparent" points="-4,4 -4,-328.7 472,-328.7 472,4 -4,4"/>
<text text-anchor="middle" x="72.4936" y="-7.3" font-family="Helvetica,sans-Serif" font-size="11.00" fill="#000000">Generated by SchemaSpy</text>
<!-- RoleClaims -->
<g id="node1" class="node">
<title>RoleClaims</title>
<g id="a_node1"><a xlink:href="../../tables/RoleClaims.html" xlink:title="RoleClaims" target="_top">
<polygon fill="#ffffff" stroke="transparent" points="216,-120.7 216,-320.7 460,-320.7 460,-120.7 216,-120.7"/>
<polygon fill="#f5f5f5" stroke="transparent" points="218,-295.7 218,-318.7 458,-318.7 458,-295.7 218,-295.7"/>
<polygon fill="none" stroke="#000000" points="218,-295.7 218,-318.7 458,-318.7 458,-295.7 218,-295.7"/>
<text text-anchor="start" x="223" y="-304.3" font-family="Helvetica,sans-Serif" font-weight="bold" font-size="11.00" fill="#000000">RoleClaims</text>
<text text-anchor="start" x="423.0437" y="-303.8" font-family="Helvetica,sans-Serif" font-size="11.00" fill="#000000">[table]</text>
<polygon fill="none" stroke="#000000" points="218,-273.7 218,-295.7 342,-295.7 342,-273.7 218,-273.7"/>
<image xlink:href="../../images/primaryKeys.png" width="11px" height="12px" preserveAspectRatio="xMinYMin meet" x="223" y="-290.7"/>
<text text-anchor="start" x="238" y="-280.8" font-family="Helvetica,sans-Serif" font-size="11.00" fill="#000000">Id</text>
<polygon fill="none" stroke="#000000" points="342,-273.7 342,-295.7 458,-295.7 458,-273.7 342,-273.7"/>
<text text-anchor="start" x="345" y="-281.4" font-family="Helvetica,sans-Serif" font-size="11.00" fill="#000000">int identity[4]</text>
<polygon fill="none" stroke="#000000" points="218,-251.7 218,-273.7 342,-273.7 342,-251.7 218,-251.7"/>
<text text-anchor="start" x="238" y="-258.8" font-family="Helvetica,sans-Serif" font-size="11.00" fill="#000000">CreatedAtUtc</text>
<polygon fill="none" stroke="#000000" points="342,-251.7 342,-273.7 458,-273.7 458,-251.7 342,-251.7"/>
<text text-anchor="start" x="345" y="-259.4" font-family="Helvetica,sans-Serif" font-size="11.00" fill="#000000">datetime2[16,7]</text>
<polygon fill="none" stroke="#000000" points="218,-229.7 218,-251.7 342,-251.7 342,-229.7 218,-229.7"/>
<text text-anchor="start" x="238" y="-236.8" font-family="Helvetica,sans-Serif" font-size="11.00" fill="#000000">UpdatedAtUtc</text>
<polygon fill="none" stroke="#000000" points="342,-229.7 342,-251.7 458,-251.7 458,-229.7 342,-229.7"/>
<text text-anchor="start" x="345" y="-237.4" font-family="Helvetica,sans-Serif" font-size="11.00" fill="#000000">datetime2[16,7]</text>
<polygon fill="none" stroke="#000000" points="218,-207.7 218,-229.7 342,-229.7 342,-207.7 218,-207.7"/>
<text text-anchor="start" x="238" y="-214.8" font-family="Helvetica,sans-Serif" font-size="11.00" fill="#000000">RowVersion</text>
<polygon fill="none" stroke="#000000" points="342,-207.7 342,-229.7 458,-229.7 458,-207.7 342,-207.7"/>
<text text-anchor="start" x="345" y="-215.4" font-family="Helvetica,sans-Serif" font-size="11.00" fill="#000000">timestamp[8]</text>
<polygon fill="#ffffff" stroke="transparent" points="218,-185.7 218,-207.7 342,-207.7 342,-185.7 218,-185.7"/>
<polygon fill="none" stroke="#000000" points="218,-185.7 218,-207.7 342,-207.7 342,-185.7 218,-185.7"/>
<image xlink:href="../../images/foreignKeys.png" width="11px" height="12px" preserveAspectRatio="xMinYMin meet" x="223" y="-202.7"/>
<text text-anchor="start" x="238" y="-192.8" font-family="Helvetica,sans-Serif" font-size="11.00" fill="#000000">RoleId</text>
<polygon fill="none" stroke="#000000" points="342,-185.7 342,-207.7 458,-207.7 458,-185.7 342,-185.7"/>
<text text-anchor="start" x="345" y="-193.4" font-family="Helvetica,sans-Serif" font-size="11.00" fill="#000000">int[4]</text>
<polygon fill="none" stroke="#000000" points="218,-163.7 218,-185.7 342,-185.7 342,-163.7 218,-163.7"/>
<text text-anchor="start" x="238" y="-170.8" font-family="Helvetica,sans-Serif" font-size="11.00" fill="#000000">ClaimType</text>
<polygon fill="none" stroke="#000000" points="342,-163.7 342,-185.7 458,-185.7 458,-163.7 342,-163.7"/>
<text text-anchor="start" x="344.9769" y="-171.4" font-family="Helvetica,sans-Serif" font-size="11.00" fill="#000000">nvarchar[2147483647]</text>
<polygon fill="none" stroke="#000000" points="218,-141.7 218,-163.7 342,-163.7 342,-141.7 218,-141.7"/>
<text text-anchor="start" x="238" y="-148.8" font-family="Helvetica,sans-Serif" font-size="11.00" fill="#000000">ClaimValue</text>
<polygon fill="none" stroke="#000000" points="342,-141.7 342,-163.7 458,-163.7 458,-141.7 342,-141.7"/>
<text text-anchor="start" x="344.9769" y="-149.4" font-family="Helvetica,sans-Serif" font-size="11.00" fill="#000000">nvarchar[2147483647]</text>
<polygon fill="#ffffff" stroke="transparent" points="218,-122.7 218,-141.7 458,-141.7 458,-122.7 218,-122.7"/>
<polygon fill="none" stroke="#000000" points="218,-122.7 218,-141.7 458,-141.7 458,-122.7 218,-122.7"/>
<polygon fill="#ffffff" stroke="transparent" points="219,-123.7 219,-140.7 302,-140.7 302,-123.7 219,-123.7"/>
<text text-anchor="start" x="221" y="-128.8" font-family="Helvetica,sans-Serif" font-size="11.00" fill="#000000">&lt; 1</text>
<polygon fill="#ffffff" stroke="transparent" points="302,-123.7 302,-140.7 375,-140.7 375,-123.7 302,-123.7"/>
<text text-anchor="start" x="335.4431" y="-128.8" font-family="Helvetica,sans-Serif" font-size="11.00" fill="#000000"> &#160;</text>
<polygon fill="#ffffff" stroke="transparent" points="375,-123.7 375,-140.7 457,-140.7 457,-123.7 375,-123.7"/>
<text text-anchor="start" x="439.4053" y="-128.8" font-family="Helvetica,sans-Serif" font-size="11.00" fill="#000000">0 &gt;</text>
<polygon fill="#000000" stroke="#000000" points="302,-123.7 302,-140.7 302,-140.7 302,-123.7 302,-123.7"/>
<polygon fill="#000000" stroke="#000000" points="375,-123.7 375,-140.7 375,-140.7 375,-123.7 375,-123.7"/>
<polygon fill="none" stroke="#000000" stroke-width="2" points="217,-121.7 217,-319.7 459,-319.7 459,-121.7 217,-121.7"/>
</a>
</g>
</g>
<!-- Roles -->
<g id="node2" class="node">
<title>Roles</title>
<g id="a_node2"><a xlink:href="../../tables/Roles.html" xlink:title="Roles" target="_top">
<polygon fill="#ffffff" stroke="transparent" points="8,-60.2 8,-165.2 167,-165.2 167,-60.2 8,-60.2"/>
<polygon fill="#f5f5f5" stroke="transparent" points="8.5,-141.7 8.5,-164.7 167.5,-164.7 167.5,-141.7 8.5,-141.7"/>
<polygon fill="none" stroke="#000000" points="8.5,-141.7 8.5,-164.7 167.5,-164.7 167.5,-141.7 8.5,-141.7"/>
<text text-anchor="start" x="13.5" y="-150.3" font-family="Helvetica,sans-Serif" font-weight="bold" font-size="11.00" fill="#000000">Roles</text>
<text text-anchor="start" x="132.5437" y="-149.8" font-family="Helvetica,sans-Serif" font-size="11.00" fill="#000000">[table]</text>
<polygon fill="none" stroke="#000000" points="8.5,-119.7 8.5,-141.7 167.5,-141.7 167.5,-119.7 8.5,-119.7"/>
<image xlink:href="../../images/primaryKeys.png" width="11px" height="12px" preserveAspectRatio="xMinYMin meet" x="13.5" y="-136.7"/>
<text text-anchor="start" x="28.5" y="-126.8" font-family="Helvetica,sans-Serif" font-size="11.00" fill="#000000">Id</text>
<polygon fill="#ffffff" stroke="transparent" points="8.5,-97.7 8.5,-119.7 167.5,-119.7 167.5,-97.7 8.5,-97.7"/>
<polygon fill="none" stroke="#000000" points="8.5,-97.7 8.5,-119.7 167.5,-119.7 167.5,-97.7 8.5,-97.7"/>
<text text-anchor="start" x="28.5" y="-104.8" font-family="Helvetica,sans-Serif" font-size="11.00" fill="#000000">NormalizedName</text>
<polygon fill="none" stroke="#000000" points="8.5,-78.7 8.5,-97.7 167.5,-97.7 167.5,-78.7 8.5,-78.7"/>
<text text-anchor="start" x="11.5" y="-84.8" font-family="Helvetica,sans-Serif" font-size="11.00" fill="#000000">...</text>
<polygon fill="#ffffff" stroke="transparent" points="8.5,-59.7 8.5,-78.7 167.5,-78.7 167.5,-59.7 8.5,-59.7"/>
<polygon fill="none" stroke="#000000" points="8.5,-59.7 8.5,-78.7 167.5,-78.7 167.5,-59.7 8.5,-59.7"/>
<polygon fill="#ffffff" stroke="transparent" points="9.5,-60.7 9.5,-77.7 59.5,-77.7 59.5,-60.7 9.5,-60.7"/>
<text text-anchor="start" x="11.5" y="-65.8" font-family="Helvetica,sans-Serif" font-size="11.00" fill="#000000"> &#160;</text>
<polygon fill="#ffffff" stroke="transparent" points="59.5,-60.7 59.5,-77.7 108.5,-77.7 108.5,-60.7 59.5,-60.7"/>
<text text-anchor="start" x="80.9431" y="-65.8" font-family="Helvetica,sans-Serif" font-size="11.00" fill="#000000"> &#160;</text>
<polygon fill="#ffffff" stroke="transparent" points="108.5,-60.7 108.5,-77.7 166.5,-77.7 166.5,-60.7 108.5,-60.7"/>
<text text-anchor="start" x="148.9053" y="-65.8" font-family="Helvetica,sans-Serif" font-size="11.00" fill="#000000">2 &gt;</text>
<polygon fill="#000000" stroke="#000000" points="59.5,-60.7 59.5,-77.7 59.5,-77.7 59.5,-60.7 59.5,-60.7"/>
<polygon fill="#000000" stroke="#000000" points="108.5,-60.7 108.5,-77.7 108.5,-77.7 108.5,-60.7 108.5,-60.7"/>
</a>
</g>
</g>
<!-- RoleClaims&#45;&gt;Roles -->
<g id="edge1" class="edge">
<title>RoleClaims:w&#45;&gt;Roles:e</title>
<path fill="none" stroke="#000000" d="M204.158,-191.9534C187.1101,-176.8202 198.3754,-130.7 167.5,-130.7"/>
<polygon fill="#000000" stroke="#000000" points="210.4326,-194.105 216.8323,-200.1054 214.2163,-195.4025 218,-196.7 218,-196.7 218,-196.7 214.2163,-195.4025 219.1677,-193.2946 210.4326,-194.105 210.4326,-194.105"/>
<ellipse fill="none" stroke="#000000" cx="207.4056" cy="-193.067" rx="3.2" ry="3.2"/>
</g>
<!-- UserRoles -->
<g id="node3" class="node">
<title>UserRoles</title>
<g id="a_node3"><a xlink:href="../../tables/UserRoles.html" xlink:title="UserRoles" target="_top">
<polygon fill="#ffffff" stroke="transparent" points="282,-38.2 282,-99.2 394,-99.2 394,-38.2 282,-38.2"/>
<polygon fill="#f5f5f5" stroke="transparent" points="282,-75.7 282,-98.7 394,-98.7 394,-75.7 282,-75.7"/>
<polygon fill="none" stroke="#000000" points="282,-75.7 282,-98.7 394,-98.7 394,-75.7 282,-75.7"/>
<text text-anchor="start" x="287" y="-84.3" font-family="Helvetica,sans-Serif" font-weight="bold" font-size="11.00" fill="#000000">UserRoles</text>
<text text-anchor="start" x="359.5219" y="-83.8" font-family="Helvetica,sans-Serif" font-size="11.00" fill="#000000">[table]</text>
<polygon fill="none" stroke="#000000" points="282,-56.7 282,-75.7 394,-75.7 394,-56.7 282,-56.7"/>
<text text-anchor="start" x="285" y="-62.8" font-family="Helvetica,sans-Serif" font-size="11.00" fill="#000000">...</text>
<polygon fill="#ffffff" stroke="transparent" points="282,-37.7 282,-56.7 394,-56.7 394,-37.7 282,-37.7"/>
<polygon fill="none" stroke="#000000" points="282,-37.7 282,-56.7 394,-56.7 394,-37.7 282,-37.7"/>
<polygon fill="#ffffff" stroke="transparent" points="283,-38.7 283,-55.7 326,-55.7 326,-38.7 283,-38.7"/>
<text text-anchor="start" x="285" y="-43.8" font-family="Helvetica,sans-Serif" font-size="11.00" fill="#000000">&lt; 2</text>
<polygon fill="#ffffff" stroke="transparent" points="326,-38.7 326,-55.7 360,-55.7 360,-38.7 326,-38.7"/>
<text text-anchor="start" x="339.9431" y="-43.8" font-family="Helvetica,sans-Serif" font-size="11.00" fill="#000000"> &#160;</text>
<polygon fill="#ffffff" stroke="transparent" points="360,-38.7 360,-55.7 393,-55.7 393,-38.7 360,-38.7"/>
<text text-anchor="start" x="384.8862" y="-43.8" font-family="Helvetica,sans-Serif" font-size="11.00" fill="#000000"> &#160;</text>
<polygon fill="#000000" stroke="#000000" points="326,-38.7 326,-55.7 326,-55.7 326,-38.7 326,-38.7"/>
<polygon fill="#000000" stroke="#000000" points="360,-38.7 360,-55.7 360,-55.7 360,-38.7 360,-38.7"/>
</a>
</g>
</g>
<!-- UserRoles&#45;&gt;Roles -->
<g id="edge2" class="edge">
<title>UserRoles:w&#45;&gt;Roles:e</title>
<path fill="none" stroke="#000000" d="M268.5069,-71.0192C239.5849,-86.5431 179.5577,-130.7 167.5,-130.7"/>
<polygon fill="#000000" stroke="#000000" points="274.5574,-68.634 283.3203,-69.0492 278.2787,-67.167 282,-65.7 282,-65.7 282,-65.7 278.2787,-67.167 280.6797,-62.3508 274.5574,-68.634 274.5574,-68.634"/>
<ellipse fill="none" stroke="#000000" cx="271.5804" cy="-69.8076" rx="3.2" ry="3.2"/>
</g>
</g>
</svg>
