<?xml version="1.0" encoding="UTF-8" standalone="no"?>
<!DOCTYPE svg PUBLIC "-//W3C//DTD SVG 1.1//EN"
 "http://www.w3.org/Graphics/SVG/1.1/DTD/svg11.dtd">
<!-- Generated by graphviz version 2.40.1 (20161225.0304)
 -->
<!-- Title: oneDegreeRelationshipsDiagram Pages: 1 -->
<svg width="476pt" height="334pt"
 viewBox="0.00 0.00 476.00 333.70" xmlns="http://www.w3.org/2000/svg" xmlns:xlink="http://www.w3.org/1999/xlink">
<g id="graph0" class="graph" transform="scale(1 1) rotate(0) translate(4 329.7)">
<title>oneDegreeRelationshipsDiagram</title>
<polygon fill="#ffffff" stroke="transparent" points="-4,4 -4,-329.7 472,-329.7 472,4 -4,4"/>
<text text-anchor="middle" x="72.4936" y="-7.3" font-family="Helvetica,sans-Serif" font-size="11.00" fill="#000000">Generated by SchemaSpy</text>
<!-- RoleClaims -->
<g id="node1" class="node">
<title>RoleClaims</title>
<g id="a_node1"><a xlink:href="../../tables/RoleClaims.html" xlink:title="RoleClaims" target="_top">
<polygon fill="#ffffff" stroke="transparent" points="336,-216.7 336,-321.7 460,-321.7 460,-216.7 336,-216.7"/>
<polygon fill="#f5f5f5" stroke="transparent" points="336,-298.2 336,-321.2 460,-321.2 460,-298.2 336,-298.2"/>
<polygon fill="none" stroke="#000000" points="336,-298.2 336,-321.2 460,-321.2 460,-298.2 336,-298.2"/>
<text text-anchor="start" x="341" y="-306.8" font-family="Helvetica,sans-Serif" font-weight="bold" font-size="11.00" fill="#000000">RoleClaims</text>
<text text-anchor="start" x="425.0437" y="-306.3" font-family="Helvetica,sans-Serif" font-size="11.00" fill="#000000">[table]</text>
<polygon fill="none" stroke="#000000" points="336,-276.2 336,-298.2 460,-298.2 460,-276.2 336,-276.2"/>
<image xlink:href="../../images/primaryKeys.png" width="11px" height="12px" preserveAspectRatio="xMinYMin meet" x="341" y="-293.2"/>
<text text-anchor="start" x="356" y="-283.3" font-family="Helvetica,sans-Serif" font-size="11.00" fill="#000000">Id</text>
<polygon fill="#ffffff" stroke="transparent" points="336,-254.2 336,-276.2 460,-276.2 460,-254.2 336,-254.2"/>
<polygon fill="none" stroke="#000000" points="336,-254.2 336,-276.2 460,-276.2 460,-254.2 336,-254.2"/>
<image xlink:href="../../images/foreignKeys.png" width="11px" height="12px" preserveAspectRatio="xMinYMin meet" x="341" y="-271.2"/>
<text text-anchor="start" x="356" y="-261.3" font-family="Helvetica,sans-Serif" font-size="11.00" fill="#000000">RoleId</text>
<polygon fill="none" stroke="#000000" points="336,-235.2 336,-254.2 460,-254.2 460,-235.2 336,-235.2"/>
<text text-anchor="start" x="339" y="-241.3" font-family="Helvetica,sans-Serif" font-size="11.00" fill="#000000">...</text>
<polygon fill="#ffffff" stroke="transparent" points="336,-216.2 336,-235.2 460,-235.2 460,-216.2 336,-216.2"/>
<polygon fill="none" stroke="#000000" points="336,-216.2 336,-235.2 460,-235.2 460,-216.2 336,-216.2"/>
<polygon fill="#ffffff" stroke="transparent" points="337,-217.2 337,-234.2 384,-234.2 384,-217.2 337,-217.2"/>
<text text-anchor="start" x="339" y="-222.3" font-family="Helvetica,sans-Serif" font-size="11.00" fill="#000000">&lt; 1</text>
<polygon fill="#ffffff" stroke="transparent" points="384,-217.2 384,-234.2 422,-234.2 422,-217.2 384,-217.2"/>
<text text-anchor="start" x="399.9431" y="-222.3" font-family="Helvetica,sans-Serif" font-size="11.00" fill="#000000"> &#160;</text>
<polygon fill="#ffffff" stroke="transparent" points="422,-217.2 422,-234.2 459,-234.2 459,-217.2 422,-217.2"/>
<text text-anchor="start" x="450.8862" y="-222.3" font-family="Helvetica,sans-Serif" font-size="11.00" fill="#000000"> &#160;</text>
<polygon fill="#000000" stroke="#000000" points="384,-217.2 384,-234.2 384,-234.2 384,-217.2 384,-217.2"/>
<polygon fill="#000000" stroke="#000000" points="422,-217.2 422,-234.2 422,-234.2 422,-217.2 422,-217.2"/>
</a>
</g>
</g>
<!-- Roles -->
<g id="node2" class="node">
<title>Roles</title>
<g id="a_node2"><a xlink:href="../../tables/Roles.html" xlink:title="Roles" target="_top">
<polygon fill="#ffffff" stroke="transparent" points="8,-38.2 8,-238.2 287,-238.2 287,-38.2 8,-38.2"/>
<polygon fill="#f5f5f5" stroke="transparent" points="10.5,-213.2 10.5,-236.2 285.5,-236.2 285.5,-213.2 10.5,-213.2"/>
<polygon fill="none" stroke="#000000" points="10.5,-213.2 10.5,-236.2 285.5,-236.2 285.5,-213.2 10.5,-213.2"/>
<text text-anchor="start" x="15.5" y="-221.8" font-family="Helvetica,sans-Serif" font-weight="bold" font-size="11.00" fill="#000000">Roles</text>
<text text-anchor="start" x="250.5437" y="-221.3" font-family="Helvetica,sans-Serif" font-size="11.00" fill="#000000">[table]</text>
<polygon fill="none" stroke="#000000" points="10.5,-191.2 10.5,-213.2 169.5,-213.2 169.5,-191.2 10.5,-191.2"/>
<image xlink:href="../../images/primaryKeys.png" width="11px" height="12px" preserveAspectRatio="xMinYMin meet" x="15.5" y="-208.2"/>
<text text-anchor="start" x="30.5" y="-198.3" font-family="Helvetica,sans-Serif" font-size="11.00" fill="#000000">Id</text>
<polygon fill="none" stroke="#000000" points="169.5,-191.2 169.5,-213.2 285.5,-213.2 285.5,-191.2 169.5,-191.2"/>
<text text-anchor="start" x="172.5" y="-198.9" font-family="Helvetica,sans-Serif" font-size="11.00" fill="#000000">int identity[4]</text>
<polygon fill="none" stroke="#000000" points="10.5,-169.2 10.5,-191.2 169.5,-191.2 169.5,-169.2 10.5,-169.2"/>
<text text-anchor="start" x="30.5" y="-176.3" font-family="Helvetica,sans-Serif" font-size="11.00" fill="#000000">CreatedAtUtc</text>
<polygon fill="none" stroke="#000000" points="169.5,-169.2 169.5,-191.2 285.5,-191.2 285.5,-169.2 169.5,-169.2"/>
<text text-anchor="start" x="172.5" y="-176.9" font-family="Helvetica,sans-Serif" font-size="11.00" fill="#000000">datetime2[16,7]</text>
<polygon fill="none" stroke="#000000" points="10.5,-147.2 10.5,-169.2 169.5,-169.2 169.5,-147.2 10.5,-147.2"/>
<text text-anchor="start" x="30.5" y="-154.3" font-family="Helvetica,sans-Serif" font-size="11.00" fill="#000000">UpdatedAtUtc</text>
<polygon fill="none" stroke="#000000" points="169.5,-147.2 169.5,-169.2 285.5,-169.2 285.5,-147.2 169.5,-147.2"/>
<text text-anchor="start" x="172.5" y="-154.9" font-family="Helvetica,sans-Serif" font-size="11.00" fill="#000000">datetime2[16,7]</text>
<polygon fill="none" stroke="#000000" points="10.5,-125.2 10.5,-147.2 169.5,-147.2 169.5,-125.2 10.5,-125.2"/>
<text text-anchor="start" x="30.5" y="-132.3" font-family="Helvetica,sans-Serif" font-size="11.00" fill="#000000">RowVersion</text>
<polygon fill="none" stroke="#000000" points="169.5,-125.2 169.5,-147.2 285.5,-147.2 285.5,-125.2 169.5,-125.2"/>
<text text-anchor="start" x="172.5" y="-132.9" font-family="Helvetica,sans-Serif" font-size="11.00" fill="#000000">timestamp[8]</text>
<polygon fill="none" stroke="#000000" points="10.5,-103.2 10.5,-125.2 169.5,-125.2 169.5,-103.2 10.5,-103.2"/>
<text text-anchor="start" x="30.5" y="-110.3" font-family="Helvetica,sans-Serif" font-size="11.00" fill="#000000">Name</text>
<polygon fill="none" stroke="#000000" points="169.5,-103.2 169.5,-125.2 285.5,-125.2 285.5,-103.2 169.5,-103.2"/>
<text text-anchor="start" x="172.5" y="-110.9" font-family="Helvetica,sans-Serif" font-size="11.00" fill="#000000">nvarchar[512]</text>
<polygon fill="#ffffff" stroke="transparent" points="10.5,-81.2 10.5,-103.2 169.5,-103.2 169.5,-81.2 10.5,-81.2"/>
<polygon fill="none" stroke="#000000" points="10.5,-81.2 10.5,-103.2 169.5,-103.2 169.5,-81.2 10.5,-81.2"/>
<text text-anchor="start" x="30.5" y="-88.3" font-family="Helvetica,sans-Serif" font-size="11.00" fill="#000000">NormalizedName</text>
<polygon fill="none" stroke="#000000" points="169.5,-81.2 169.5,-103.2 285.5,-103.2 285.5,-81.2 169.5,-81.2"/>
<text text-anchor="start" x="172.5" y="-88.9" font-family="Helvetica,sans-Serif" font-size="11.00" fill="#000000">nvarchar[512]</text>
<polygon fill="none" stroke="#000000" points="10.5,-59.2 10.5,-81.2 169.5,-81.2 169.5,-59.2 10.5,-59.2"/>
<text text-anchor="start" x="30.5" y="-66.3" font-family="Helvetica,sans-Serif" font-size="11.00" fill="#000000">ConcurrencyStamp</text>
<polygon fill="none" stroke="#000000" points="169.5,-59.2 169.5,-81.2 285.5,-81.2 285.5,-59.2 169.5,-59.2"/>
<text text-anchor="start" x="172.4769" y="-66.9" font-family="Helvetica,sans-Serif" font-size="11.00" fill="#000000">nvarchar[2147483647]</text>
<polygon fill="#ffffff" stroke="transparent" points="10.5,-40.2 10.5,-59.2 285.5,-59.2 285.5,-40.2 10.5,-40.2"/>
<polygon fill="none" stroke="#000000" points="10.5,-40.2 10.5,-59.2 285.5,-59.2 285.5,-40.2 10.5,-40.2"/>
<polygon fill="#ffffff" stroke="transparent" points="11.5,-41.2 11.5,-58.2 105.5,-58.2 105.5,-41.2 11.5,-41.2"/>
<text text-anchor="start" x="13.5" y="-46.3" font-family="Helvetica,sans-Serif" font-size="11.00" fill="#000000">&lt; 0</text>
<polygon fill="#ffffff" stroke="transparent" points="105.5,-41.2 105.5,-58.2 190.5,-58.2 190.5,-41.2 105.5,-41.2"/>
<text text-anchor="start" x="144.9431" y="-46.3" font-family="Helvetica,sans-Serif" font-size="11.00" fill="#000000"> &#160;</text>
<polygon fill="#ffffff" stroke="transparent" points="190.5,-41.2 190.5,-58.2 284.5,-58.2 284.5,-41.2 190.5,-41.2"/>
<text text-anchor="start" x="266.9053" y="-46.3" font-family="Helvetica,sans-Serif" font-size="11.00" fill="#000000">2 &gt;</text>
<polygon fill="#000000" stroke="#000000" points="105.5,-41.2 105.5,-58.2 105.5,-58.2 105.5,-41.2 105.5,-41.2"/>
<polygon fill="#000000" stroke="#000000" points="190.5,-41.2 190.5,-58.2 190.5,-58.2 190.5,-41.2 190.5,-41.2"/>
<polygon fill="none" stroke="#000000" stroke-width="2" points="9,-39.2 9,-237.2 286,-237.2 286,-39.2 9,-39.2"/>
</a>
</g>
</g>
<!-- RoleClaims&#45;&gt;Roles -->
<g id="edge1" class="edge">
<title>RoleClaims:w&#45;&gt;Roles:e</title>
<path fill="none" stroke="#000000" d="M321.9816,-260.2565C305.738,-245.4048 315.2175,-202.2 285.5,-202.2"/>
<polygon fill="#000000" stroke="#000000" points="328.4554,-262.5394 334.8027,-268.5951 332.2277,-263.8697 336,-265.2 336,-265.2 336,-265.2 332.2277,-263.8697 337.1973,-261.8049 328.4554,-262.5394 328.4554,-262.5394"/>
<ellipse fill="none" stroke="#000000" cx="325.4375" cy="-261.4752" rx="3.2" ry="3.2"/>
</g>
<!-- UserRoles -->
<g id="node3" class="node">
<title>UserRoles</title>
<g id="a_node3"><a xlink:href="../../tables/UserRoles.html" xlink:title="UserRoles" target="_top">
<polygon fill="#ffffff" stroke="transparent" points="336,-90.7 336,-195.7 460,-195.7 460,-90.7 336,-90.7"/>
<polygon fill="#f5f5f5" stroke="transparent" points="336,-172.2 336,-195.2 460,-195.2 460,-172.2 336,-172.2"/>
<polygon fill="none" stroke="#000000" points="336,-172.2 336,-195.2 460,-195.2 460,-172.2 336,-172.2"/>
<text text-anchor="start" x="341" y="-180.8" font-family="Helvetica,sans-Serif" font-weight="bold" font-size="11.00" fill="#000000">UserRoles</text>
<text text-anchor="start" x="425.0437" y="-180.3" font-family="Helvetica,sans-Serif" font-size="11.00" fill="#000000">[table]</text>
<polygon fill="none" stroke="#000000" points="336,-150.2 336,-172.2 460,-172.2 460,-150.2 336,-150.2"/>
<image xlink:href="../../images/primaryKeys.png" width="11px" height="12px" preserveAspectRatio="xMinYMin meet" x="341" y="-167.2"/>
<text text-anchor="start" x="356" y="-157.3" font-family="Helvetica,sans-Serif" font-size="11.00" fill="#000000">UserId</text>
<polygon fill="none" stroke="#000000" points="336,-128.2 336,-150.2 460,-150.2 460,-128.2 336,-128.2"/>
<image xlink:href="../../images/primaryKeys.png" width="11px" height="12px" preserveAspectRatio="xMinYMin meet" x="341" y="-145.2"/>
<text text-anchor="start" x="356" y="-135.3" font-family="Helvetica,sans-Serif" font-size="11.00" fill="#000000">RoleId</text>
<polygon fill="none" stroke="#000000" points="336,-109.2 336,-128.2 460,-128.2 460,-109.2 336,-109.2"/>
<text text-anchor="start" x="339" y="-115.3" font-family="Helvetica,sans-Serif" font-size="11.00" fill="#000000">...</text>
<polygon fill="#ffffff" stroke="transparent" points="336,-90.2 336,-109.2 460,-109.2 460,-90.2 336,-90.2"/>
<polygon fill="none" stroke="#000000" points="336,-90.2 336,-109.2 460,-109.2 460,-90.2 336,-90.2"/>
<polygon fill="#ffffff" stroke="transparent" points="337,-91.2 337,-108.2 384,-108.2 384,-91.2 337,-91.2"/>
<text text-anchor="start" x="339" y="-96.3" font-family="Helvetica,sans-Serif" font-size="11.00" fill="#000000">&lt; 2</text>
<polygon fill="#ffffff" stroke="transparent" points="384,-91.2 384,-108.2 422,-108.2 422,-91.2 384,-91.2"/>
<text text-anchor="start" x="399.9431" y="-96.3" font-family="Helvetica,sans-Serif" font-size="11.00" fill="#000000"> &#160;</text>
<polygon fill="#ffffff" stroke="transparent" points="422,-91.2 422,-108.2 459,-108.2 459,-91.2 422,-91.2"/>
<text text-anchor="start" x="450.8862" y="-96.3" font-family="Helvetica,sans-Serif" font-size="11.00" fill="#000000"> &#160;</text>
<polygon fill="#000000" stroke="#000000" points="384,-91.2 384,-108.2 384,-108.2 384,-91.2 384,-91.2"/>
<polygon fill="#000000" stroke="#000000" points="422,-91.2 422,-108.2 422,-108.2 422,-91.2 422,-91.2"/>
</a>
</g>
</g>
<!-- UserRoles&#45;&gt;Roles -->
<g id="edge2" class="edge">
<title>UserRoles:w&#45;&gt;Roles:e</title>
<path fill="none" stroke="#000000" d="M321.9816,-144.1435C305.738,-158.9952 315.2175,-202.2 285.5,-202.2"/>
<polygon fill="#000000" stroke="#000000" points="328.4554,-141.8606 337.1973,-142.5951 332.2277,-140.5303 336,-139.2 336,-139.2 336,-139.2 332.2277,-140.5303 334.8027,-135.8049 328.4554,-141.8606 328.4554,-141.8606"/>
<ellipse fill="none" stroke="#000000" cx="325.4375" cy="-142.9248" rx="3.2" ry="3.2"/>
</g>
</g>
</svg>
