<?xml version="1.0" encoding="UTF-8" standalone="no"?>
<!DOCTYPE svg PUBLIC "-//W3C//DTD SVG 1.1//EN"
 "http://www.w3.org/Graphics/SVG/1.1/DTD/svg11.dtd">
<!-- Generated by graphviz version 2.40.1 (20161225.0304)
 -->
<!-- Title: twoDegreesRelationshipsDiagram Pages: 1 -->
<svg width="537pt" height="497pt"
 viewBox="0.00 0.00 537.00 497.20" xmlns="http://www.w3.org/2000/svg" xmlns:xlink="http://www.w3.org/1999/xlink">
<g id="graph0" class="graph" transform="scale(1 1) rotate(0) translate(4 493.2)">
<title>twoDegreesRelationshipsDiagram</title>
<polygon fill="#ffffff" stroke="transparent" points="-4,4 -4,-493.2 533,-493.2 533,4 -4,4"/>
<text text-anchor="middle" x="72.4936" y="-7.3" font-family="Helvetica,sans-Serif" font-size="11.00" fill="#000000">Generated by SchemaSpy</text>
<!-- UserClaims -->
<g id="node1" class="node">
<title>UserClaims</title>
<g id="a_node1"><a xlink:href="../../tables/UserClaims.html" xlink:title="UserClaims" target="_top">
<polygon fill="#ffffff" stroke="transparent" points="328.5,-424.2 328.5,-485.2 449.5,-485.2 449.5,-424.2 328.5,-424.2"/>
<polygon fill="#f5f5f5" stroke="transparent" points="329,-461.7 329,-484.7 450,-484.7 450,-461.7 329,-461.7"/>
<polygon fill="none" stroke="#000000" points="329,-461.7 329,-484.7 450,-484.7 450,-461.7 329,-461.7"/>
<text text-anchor="start" x="334" y="-470.3" font-family="Helvetica,sans-Serif" font-weight="bold" font-size="11.00" fill="#000000">UserClaims</text>
<text text-anchor="start" x="415.5219" y="-469.8" font-family="Helvetica,sans-Serif" font-size="11.00" fill="#000000">[table]</text>
<polygon fill="none" stroke="#000000" points="329,-442.7 329,-461.7 450,-461.7 450,-442.7 329,-442.7"/>
<text text-anchor="start" x="332" y="-448.8" font-family="Helvetica,sans-Serif" font-size="11.00" fill="#000000">...</text>
<polygon fill="#ffffff" stroke="transparent" points="329,-423.7 329,-442.7 450,-442.7 450,-423.7 329,-423.7"/>
<polygon fill="none" stroke="#000000" points="329,-423.7 329,-442.7 450,-442.7 450,-423.7 329,-423.7"/>
<polygon fill="#ffffff" stroke="transparent" points="330,-424.7 330,-441.7 376,-441.7 376,-424.7 330,-424.7"/>
<text text-anchor="start" x="332" y="-429.8" font-family="Helvetica,sans-Serif" font-size="11.00" fill="#000000">&lt; 1</text>
<polygon fill="#ffffff" stroke="transparent" points="376,-424.7 376,-441.7 413,-441.7 413,-424.7 376,-424.7"/>
<text text-anchor="start" x="391.4431" y="-429.8" font-family="Helvetica,sans-Serif" font-size="11.00" fill="#000000"> &#160;</text>
<polygon fill="#ffffff" stroke="transparent" points="413,-424.7 413,-441.7 449,-441.7 449,-424.7 413,-424.7"/>
<text text-anchor="start" x="440.8862" y="-429.8" font-family="Helvetica,sans-Serif" font-size="11.00" fill="#000000"> &#160;</text>
<polygon fill="#000000" stroke="#000000" points="376,-424.7 376,-441.7 376,-441.7 376,-424.7 376,-424.7"/>
<polygon fill="#000000" stroke="#000000" points="413,-424.7 413,-441.7 413,-441.7 413,-424.7 413,-424.7"/>
</a>
</g>
</g>
<!-- Users -->
<g id="node2" class="node">
<title>Users</title>
<g id="a_node2"><a xlink:href="../../tables/Users.html" xlink:title="Users" target="_top">
<polygon fill="#ffffff" stroke="transparent" points="8,-98.2 8,-225.2 208,-225.2 208,-98.2 8,-98.2"/>
<polygon fill="#f5f5f5" stroke="transparent" points="8,-201.7 8,-224.7 208,-224.7 208,-201.7 8,-201.7"/>
<polygon fill="none" stroke="#000000" points="8,-201.7 8,-224.7 208,-224.7 208,-201.7 8,-201.7"/>
<text text-anchor="start" x="13" y="-210.3" font-family="Helvetica,sans-Serif" font-weight="bold" font-size="11.00" fill="#000000">Users</text>
<text text-anchor="start" x="173.0437" y="-209.8" font-family="Helvetica,sans-Serif" font-size="11.00" fill="#000000">[table]</text>
<polygon fill="none" stroke="#000000" points="8,-179.7 8,-201.7 208,-201.7 208,-179.7 8,-179.7"/>
<image xlink:href="../../images/primaryKeys.png" width="11px" height="12px" preserveAspectRatio="xMinYMin meet" x="13" y="-196.7"/>
<text text-anchor="start" x="28" y="-186.8" font-family="Helvetica,sans-Serif" font-size="11.00" fill="#000000">Id</text>
<polygon fill="#ffffff" stroke="transparent" points="8,-157.7 8,-179.7 208,-179.7 208,-157.7 8,-157.7"/>
<polygon fill="none" stroke="#000000" points="8,-157.7 8,-179.7 208,-179.7 208,-157.7 8,-157.7"/>
<text text-anchor="start" x="28" y="-164.8" font-family="Helvetica,sans-Serif" font-size="11.00" fill="#000000">NormalizedUserName</text>
<polygon fill="#ffffff" stroke="transparent" points="8,-135.7 8,-157.7 208,-157.7 208,-135.7 8,-135.7"/>
<polygon fill="none" stroke="#000000" points="8,-135.7 8,-157.7 208,-157.7 208,-135.7 8,-135.7"/>
<text text-anchor="start" x="28" y="-142.8" font-family="Helvetica,sans-Serif" font-size="11.00" fill="#000000">NormalizedEmail</text>
<polygon fill="none" stroke="#000000" points="8,-116.7 8,-135.7 208,-135.7 208,-116.7 8,-116.7"/>
<text text-anchor="start" x="11" y="-122.8" font-family="Helvetica,sans-Serif" font-size="11.00" fill="#000000">...</text>
<polygon fill="#ffffff" stroke="transparent" points="8,-97.7 8,-116.7 208,-116.7 208,-97.7 8,-97.7"/>
<polygon fill="none" stroke="#000000" points="8,-97.7 8,-116.7 208,-116.7 208,-97.7 8,-97.7"/>
<polygon fill="#ffffff" stroke="transparent" points="9,-98.7 9,-115.7 72,-115.7 72,-98.7 9,-98.7"/>
<text text-anchor="start" x="11" y="-103.8" font-family="Helvetica,sans-Serif" font-size="11.00" fill="#000000"> &#160;</text>
<polygon fill="#ffffff" stroke="transparent" points="72,-98.7 72,-115.7 135,-115.7 135,-98.7 72,-98.7"/>
<text text-anchor="start" x="100.4431" y="-103.8" font-family="Helvetica,sans-Serif" font-size="11.00" fill="#000000"> &#160;</text>
<polygon fill="#ffffff" stroke="transparent" points="135,-98.7 135,-115.7 207,-115.7 207,-98.7 135,-98.7"/>
<text text-anchor="start" x="189.4053" y="-103.8" font-family="Helvetica,sans-Serif" font-size="11.00" fill="#000000">4 &gt;</text>
<polygon fill="#000000" stroke="#000000" points="72,-98.7 72,-115.7 72,-115.7 72,-98.7 72,-98.7"/>
<polygon fill="#000000" stroke="#000000" points="135,-98.7 135,-115.7 135,-115.7 135,-98.7 135,-98.7"/>
</a>
</g>
</g>
<!-- UserClaims&#45;&gt;Users -->
<g id="edge1" class="edge">
<title>UserClaims:w&#45;&gt;Users:e</title>
<path fill="none" stroke="#000000" d="M314.4469,-451.3001C285.0801,-449.4695 269.7824,-440.7792 249,-413.7 218.3233,-373.7287 258.3862,-190.7 208,-190.7"/>
<polygon fill="#000000" stroke="#000000" points="321.003,-451.4802 328.9011,-455.2986 325.0015,-451.5901 329,-451.7 329,-451.7 329,-451.7 325.0015,-451.5901 329.0989,-448.1014 321.003,-451.4802 321.003,-451.4802"/>
<ellipse fill="none" stroke="#000000" cx="317.8042" cy="-451.3923" rx="3.2" ry="3.2"/>
</g>
<!-- UserLogins -->
<g id="node3" class="node">
<title>UserLogins</title>
<g id="a_node3"><a xlink:href="../../tables/UserLogins.html" xlink:title="UserLogins" target="_top">
<polygon fill="#ffffff" stroke="transparent" points="257,-202.7 257,-402.7 521,-402.7 521,-202.7 257,-202.7"/>
<polygon fill="#f5f5f5" stroke="transparent" points="259,-377.7 259,-400.7 519,-400.7 519,-377.7 259,-377.7"/>
<polygon fill="none" stroke="#000000" points="259,-377.7 259,-400.7 519,-400.7 519,-377.7 259,-377.7"/>
<text text-anchor="start" x="264" y="-386.3" font-family="Helvetica,sans-Serif" font-weight="bold" font-size="11.00" fill="#000000">UserLogins</text>
<text text-anchor="start" x="484.0437" y="-385.8" font-family="Helvetica,sans-Serif" font-size="11.00" fill="#000000">[table]</text>
<polygon fill="none" stroke="#000000" points="259,-355.7 259,-377.7 438,-377.7 438,-355.7 259,-355.7"/>
<image xlink:href="../../images/primaryKeys.png" width="11px" height="12px" preserveAspectRatio="xMinYMin meet" x="264" y="-372.7"/>
<text text-anchor="start" x="279" y="-362.8" font-family="Helvetica,sans-Serif" font-size="11.00" fill="#000000">LoginProvider</text>
<polygon fill="none" stroke="#000000" points="438,-355.7 438,-377.7 519,-377.7 519,-355.7 438,-355.7"/>
<text text-anchor="start" x="441" y="-363.4" font-family="Helvetica,sans-Serif" font-size="11.00" fill="#000000">nvarchar[256]</text>
<polygon fill="none" stroke="#000000" points="259,-333.7 259,-355.7 438,-355.7 438,-333.7 259,-333.7"/>
<image xlink:href="../../images/primaryKeys.png" width="11px" height="12px" preserveAspectRatio="xMinYMin meet" x="264" y="-350.7"/>
<text text-anchor="start" x="279" y="-340.8" font-family="Helvetica,sans-Serif" font-size="11.00" fill="#000000">ProviderKey</text>
<polygon fill="none" stroke="#000000" points="438,-333.7 438,-355.7 519,-355.7 519,-333.7 438,-333.7"/>
<text text-anchor="start" x="441" y="-341.4" font-family="Helvetica,sans-Serif" font-size="11.00" fill="#000000">nvarchar[256]</text>
<polygon fill="none" stroke="#000000" points="259,-311.7 259,-333.7 438,-333.7 438,-311.7 259,-311.7"/>
<text text-anchor="start" x="279" y="-318.8" font-family="Helvetica,sans-Serif" font-size="11.00" fill="#000000">CreatedAtUtc</text>
<polygon fill="none" stroke="#000000" points="438,-311.7 438,-333.7 519,-333.7 519,-311.7 438,-311.7"/>
<text text-anchor="start" x="440.5968" y="-319.4" font-family="Helvetica,sans-Serif" font-size="11.00" fill="#000000">datetime2[16,7]</text>
<polygon fill="none" stroke="#000000" points="259,-289.7 259,-311.7 438,-311.7 438,-289.7 259,-289.7"/>
<text text-anchor="start" x="279" y="-296.8" font-family="Helvetica,sans-Serif" font-size="11.00" fill="#000000">UpdatedAtUtc</text>
<polygon fill="none" stroke="#000000" points="438,-289.7 438,-311.7 519,-311.7 519,-289.7 438,-289.7"/>
<text text-anchor="start" x="440.5968" y="-297.4" font-family="Helvetica,sans-Serif" font-size="11.00" fill="#000000">datetime2[16,7]</text>
<polygon fill="none" stroke="#000000" points="259,-267.7 259,-289.7 438,-289.7 438,-267.7 259,-267.7"/>
<text text-anchor="start" x="279" y="-274.8" font-family="Helvetica,sans-Serif" font-size="11.00" fill="#000000">RowVersion</text>
<polygon fill="none" stroke="#000000" points="438,-267.7 438,-289.7 519,-289.7 519,-267.7 438,-267.7"/>
<text text-anchor="start" x="441" y="-275.4" font-family="Helvetica,sans-Serif" font-size="11.00" fill="#000000">timestamp[8]</text>
<polygon fill="none" stroke="#000000" points="259,-245.7 259,-267.7 438,-267.7 438,-245.7 259,-245.7"/>
<text text-anchor="start" x="279" y="-252.8" font-family="Helvetica,sans-Serif" font-size="11.00" fill="#000000">ProviderDisplayName</text>
<polygon fill="none" stroke="#000000" points="438,-245.7 438,-267.7 519,-267.7 519,-245.7 438,-245.7"/>
<text text-anchor="start" x="441" y="-253.4" font-family="Helvetica,sans-Serif" font-size="11.00" fill="#000000">nvarchar[512]</text>
<polygon fill="#ffffff" stroke="transparent" points="259,-223.7 259,-245.7 438,-245.7 438,-223.7 259,-223.7"/>
<polygon fill="none" stroke="#000000" points="259,-223.7 259,-245.7 438,-245.7 438,-223.7 259,-223.7"/>
<image xlink:href="../../images/foreignKeys.png" width="11px" height="12px" preserveAspectRatio="xMinYMin meet" x="264" y="-240.7"/>
<text text-anchor="start" x="279" y="-230.8" font-family="Helvetica,sans-Serif" font-size="11.00" fill="#000000">UserId</text>
<polygon fill="none" stroke="#000000" points="438,-223.7 438,-245.7 519,-245.7 519,-223.7 438,-223.7"/>
<text text-anchor="start" x="441" y="-231.4" font-family="Helvetica,sans-Serif" font-size="11.00" fill="#000000">int[4]</text>
<polygon fill="#ffffff" stroke="transparent" points="259,-204.7 259,-223.7 519,-223.7 519,-204.7 259,-204.7"/>
<polygon fill="none" stroke="#000000" points="259,-204.7 259,-223.7 519,-223.7 519,-204.7 259,-204.7"/>
<polygon fill="#ffffff" stroke="transparent" points="260,-205.7 260,-222.7 349,-222.7 349,-205.7 260,-205.7"/>
<text text-anchor="start" x="262" y="-210.8" font-family="Helvetica,sans-Serif" font-size="11.00" fill="#000000">&lt; 1</text>
<polygon fill="#ffffff" stroke="transparent" points="349,-205.7 349,-222.7 429,-222.7 429,-205.7 349,-205.7"/>
<text text-anchor="start" x="385.9431" y="-210.8" font-family="Helvetica,sans-Serif" font-size="11.00" fill="#000000"> &#160;</text>
<polygon fill="#ffffff" stroke="transparent" points="429,-205.7 429,-222.7 518,-222.7 518,-205.7 429,-205.7"/>
<text text-anchor="start" x="500.4053" y="-210.8" font-family="Helvetica,sans-Serif" font-size="11.00" fill="#000000">0 &gt;</text>
<polygon fill="#000000" stroke="#000000" points="349,-205.7 349,-222.7 349,-222.7 349,-205.7 349,-205.7"/>
<polygon fill="#000000" stroke="#000000" points="429,-205.7 429,-222.7 429,-222.7 429,-205.7 429,-205.7"/>
<polygon fill="none" stroke="#000000" stroke-width="2" points="258,-203.7 258,-401.7 520,-401.7 520,-203.7 258,-203.7"/>
</a>
</g>
</g>
<!-- UserLogins&#45;&gt;Users -->
<g id="edge2" class="edge">
<title>UserLogins:w&#45;&gt;Users:e</title>
<path fill="none" stroke="#000000" d="M244.9107,-229.9912C231.0669,-218.6404 231.8557,-190.7 208,-190.7"/>
<polygon fill="#000000" stroke="#000000" points="251.4125,-232.1642 257.8589,-238.1144 255.2063,-233.4321 259,-234.7 259,-234.7 259,-234.7 255.2063,-233.4321 260.1411,-231.2856 251.4125,-232.1642 251.4125,-232.1642"/>
<ellipse fill="none" stroke="#000000" cx="248.3775" cy="-231.1498" rx="3.2" ry="3.2"/>
</g>
<!-- UserRoles -->
<g id="node4" class="node">
<title>UserRoles</title>
<g id="a_node4"><a xlink:href="../../tables/UserRoles.html" xlink:title="UserRoles" target="_top">
<polygon fill="#ffffff" stroke="transparent" points="333,-120.2 333,-181.2 445,-181.2 445,-120.2 333,-120.2"/>
<polygon fill="#f5f5f5" stroke="transparent" points="333,-157.7 333,-180.7 445,-180.7 445,-157.7 333,-157.7"/>
<polygon fill="none" stroke="#000000" points="333,-157.7 333,-180.7 445,-180.7 445,-157.7 333,-157.7"/>
<text text-anchor="start" x="338" y="-166.3" font-family="Helvetica,sans-Serif" font-weight="bold" font-size="11.00" fill="#000000">UserRoles</text>
<text text-anchor="start" x="410.5219" y="-165.8" font-family="Helvetica,sans-Serif" font-size="11.00" fill="#000000">[table]</text>
<polygon fill="none" stroke="#000000" points="333,-138.7 333,-157.7 445,-157.7 445,-138.7 333,-138.7"/>
<text text-anchor="start" x="336" y="-144.8" font-family="Helvetica,sans-Serif" font-size="11.00" fill="#000000">...</text>
<polygon fill="#ffffff" stroke="transparent" points="333,-119.7 333,-138.7 445,-138.7 445,-119.7 333,-119.7"/>
<polygon fill="none" stroke="#000000" points="333,-119.7 333,-138.7 445,-138.7 445,-119.7 333,-119.7"/>
<polygon fill="#ffffff" stroke="transparent" points="334,-120.7 334,-137.7 377,-137.7 377,-120.7 334,-120.7"/>
<text text-anchor="start" x="336" y="-125.8" font-family="Helvetica,sans-Serif" font-size="11.00" fill="#000000">&lt; 2</text>
<polygon fill="#ffffff" stroke="transparent" points="377,-120.7 377,-137.7 411,-137.7 411,-120.7 377,-120.7"/>
<text text-anchor="start" x="390.9431" y="-125.8" font-family="Helvetica,sans-Serif" font-size="11.00" fill="#000000"> &#160;</text>
<polygon fill="#ffffff" stroke="transparent" points="411,-120.7 411,-137.7 444,-137.7 444,-120.7 411,-120.7"/>
<text text-anchor="start" x="435.8862" y="-125.8" font-family="Helvetica,sans-Serif" font-size="11.00" fill="#000000"> &#160;</text>
<polygon fill="#000000" stroke="#000000" points="377,-120.7 377,-137.7 377,-137.7 377,-120.7 377,-120.7"/>
<polygon fill="#000000" stroke="#000000" points="411,-120.7 411,-137.7 411,-137.7 411,-120.7 411,-120.7"/>
</a>
</g>
</g>
<!-- UserRoles&#45;&gt;Users -->
<g id="edge3" class="edge">
<title>UserRoles:w&#45;&gt;Users:e</title>
<path fill="none" stroke="#000000" d="M318.6272,-148.6381C272.5352,-154.9264 261.5871,-190.7 208,-190.7"/>
<polygon fill="#000000" stroke="#000000" points="325.017,-148.2211 333.2345,-151.2924 329.0085,-147.9606 333,-147.7 333,-147.7 333,-147.7 329.0085,-147.9606 332.7655,-144.1076 325.017,-148.2211 325.017,-148.2211"/>
<ellipse fill="none" stroke="#000000" cx="321.8238" cy="-148.4295" rx="3.2" ry="3.2"/>
</g>
<!-- UserTokens -->
<g id="node5" class="node">
<title>UserTokens</title>
<g id="a_node5"><a xlink:href="../../tables/UserTokens.html" xlink:title="UserTokens" target="_top">
<polygon fill="#ffffff" stroke="transparent" points="327,-38.2 327,-99.2 451,-99.2 451,-38.2 327,-38.2"/>
<polygon fill="#f5f5f5" stroke="transparent" points="327,-75.7 327,-98.7 451,-98.7 451,-75.7 327,-75.7"/>
<polygon fill="none" stroke="#000000" points="327,-75.7 327,-98.7 451,-98.7 451,-75.7 327,-75.7"/>
<text text-anchor="start" x="332" y="-84.3" font-family="Helvetica,sans-Serif" font-weight="bold" font-size="11.00" fill="#000000">UserTokens</text>
<text text-anchor="start" x="416.5219" y="-83.8" font-family="Helvetica,sans-Serif" font-size="11.00" fill="#000000">[table]</text>
<polygon fill="none" stroke="#000000" points="327,-56.7 327,-75.7 451,-75.7 451,-56.7 327,-56.7"/>
<text text-anchor="start" x="330" y="-62.8" font-family="Helvetica,sans-Serif" font-size="11.00" fill="#000000">...</text>
<polygon fill="#ffffff" stroke="transparent" points="327,-37.7 327,-56.7 451,-56.7 451,-37.7 327,-37.7"/>
<polygon fill="none" stroke="#000000" points="327,-37.7 327,-56.7 451,-56.7 451,-37.7 327,-37.7"/>
<polygon fill="#ffffff" stroke="transparent" points="328,-38.7 328,-55.7 375,-55.7 375,-38.7 328,-38.7"/>
<text text-anchor="start" x="330" y="-43.8" font-family="Helvetica,sans-Serif" font-size="11.00" fill="#000000">&lt; 1</text>
<polygon fill="#ffffff" stroke="transparent" points="375,-38.7 375,-55.7 413,-55.7 413,-38.7 375,-38.7"/>
<text text-anchor="start" x="390.9431" y="-43.8" font-family="Helvetica,sans-Serif" font-size="11.00" fill="#000000"> &#160;</text>
<polygon fill="#ffffff" stroke="transparent" points="413,-38.7 413,-55.7 450,-55.7 450,-38.7 413,-38.7"/>
<text text-anchor="start" x="441.8862" y="-43.8" font-family="Helvetica,sans-Serif" font-size="11.00" fill="#000000"> &#160;</text>
<polygon fill="#000000" stroke="#000000" points="375,-38.7 375,-55.7 375,-55.7 375,-38.7 375,-38.7"/>
<polygon fill="#000000" stroke="#000000" points="413,-38.7 413,-55.7 413,-55.7 413,-38.7 413,-38.7"/>
</a>
</g>
</g>
<!-- UserTokens&#45;&gt;Users -->
<g id="edge4" class="edge">
<title>UserTokens:w&#45;&gt;Users:e</title>
<path fill="none" stroke="#000000" d="M312.5741,-66.5019C284.0608,-69.9841 272.8507,-84.7504 249,-109.7 221.1185,-138.8662 248.3491,-190.7 208,-190.7"/>
<polygon fill="#000000" stroke="#000000" points="319.0123,-66.1441 327.1998,-69.2945 323.0062,-65.922 327,-65.7 327,-65.7 327,-65.7 323.0062,-65.922 326.8002,-62.1055 319.0123,-66.1441 319.0123,-66.1441"/>
<ellipse fill="none" stroke="#000000" cx="315.8173" cy="-66.3217" rx="3.2" ry="3.2"/>
</g>
</g>
</svg>
