<?xml version="1.0" encoding="UTF-8" standalone="no"?>
<!DOCTYPE svg PUBLIC "-//W3C//DTD SVG 1.1//EN"
 "http://www.w3.org/Graphics/SVG/1.1/DTD/svg11.dtd">
<!-- Generated by graphviz version 2.40.1 (20161225.0304)
 -->
<!-- Title: twoDegreesRelationshipsDiagram Pages: 1 -->
<svg width="517pt" height="497pt"
 viewBox="0.00 0.00 517.00 496.70" xmlns="http://www.w3.org/2000/svg" xmlns:xlink="http://www.w3.org/1999/xlink">
<g id="graph0" class="graph" transform="scale(1 1) rotate(0) translate(4 492.7)">
<title>twoDegreesRelationshipsDiagram</title>
<polygon fill="#ffffff" stroke="transparent" points="-4,4 -4,-492.7 513,-492.7 513,4 -4,4"/>
<text text-anchor="middle" x="72.4936" y="-7.3" font-family="Helvetica,sans-Serif" font-size="11.00" fill="#000000">Generated by SchemaSpy</text>
<!-- UserClaims -->
<g id="node1" class="node">
<title>UserClaims</title>
<g id="a_node1"><a xlink:href="../../tables/UserClaims.html" xlink:title="UserClaims" target="_top">
<polygon fill="#ffffff" stroke="transparent" points="257,-284.7 257,-484.7 501,-484.7 501,-284.7 257,-284.7"/>
<polygon fill="#f5f5f5" stroke="transparent" points="259,-459.7 259,-482.7 499,-482.7 499,-459.7 259,-459.7"/>
<polygon fill="none" stroke="#000000" points="259,-459.7 259,-482.7 499,-482.7 499,-459.7 259,-459.7"/>
<text text-anchor="start" x="264" y="-468.3" font-family="Helvetica,sans-Serif" font-weight="bold" font-size="11.00" fill="#000000">UserClaims</text>
<text text-anchor="start" x="464.0437" y="-467.8" font-family="Helvetica,sans-Serif" font-size="11.00" fill="#000000">[table]</text>
<polygon fill="none" stroke="#000000" points="259,-437.7 259,-459.7 383,-459.7 383,-437.7 259,-437.7"/>
<image xlink:href="../../images/primaryKeys.png" width="11px" height="12px" preserveAspectRatio="xMinYMin meet" x="264" y="-454.7"/>
<text text-anchor="start" x="279" y="-444.8" font-family="Helvetica,sans-Serif" font-size="11.00" fill="#000000">Id</text>
<polygon fill="none" stroke="#000000" points="383,-437.7 383,-459.7 499,-459.7 499,-437.7 383,-437.7"/>
<text text-anchor="start" x="386" y="-445.4" font-family="Helvetica,sans-Serif" font-size="11.00" fill="#000000">int identity[4]</text>
<polygon fill="none" stroke="#000000" points="259,-415.7 259,-437.7 383,-437.7 383,-415.7 259,-415.7"/>
<text text-anchor="start" x="279" y="-422.8" font-family="Helvetica,sans-Serif" font-size="11.00" fill="#000000">CreatedAtUtc</text>
<polygon fill="none" stroke="#000000" points="383,-415.7 383,-437.7 499,-437.7 499,-415.7 383,-415.7"/>
<text text-anchor="start" x="386" y="-423.4" font-family="Helvetica,sans-Serif" font-size="11.00" fill="#000000">datetime2[16,7]</text>
<polygon fill="none" stroke="#000000" points="259,-393.7 259,-415.7 383,-415.7 383,-393.7 259,-393.7"/>
<text text-anchor="start" x="279" y="-400.8" font-family="Helvetica,sans-Serif" font-size="11.00" fill="#000000">UpdatedAtUtc</text>
<polygon fill="none" stroke="#000000" points="383,-393.7 383,-415.7 499,-415.7 499,-393.7 383,-393.7"/>
<text text-anchor="start" x="386" y="-401.4" font-family="Helvetica,sans-Serif" font-size="11.00" fill="#000000">datetime2[16,7]</text>
<polygon fill="none" stroke="#000000" points="259,-371.7 259,-393.7 383,-393.7 383,-371.7 259,-371.7"/>
<text text-anchor="start" x="279" y="-378.8" font-family="Helvetica,sans-Serif" font-size="11.00" fill="#000000">RowVersion</text>
<polygon fill="none" stroke="#000000" points="383,-371.7 383,-393.7 499,-393.7 499,-371.7 383,-371.7"/>
<text text-anchor="start" x="386" y="-379.4" font-family="Helvetica,sans-Serif" font-size="11.00" fill="#000000">timestamp[8]</text>
<polygon fill="#ffffff" stroke="transparent" points="259,-349.7 259,-371.7 383,-371.7 383,-349.7 259,-349.7"/>
<polygon fill="none" stroke="#000000" points="259,-349.7 259,-371.7 383,-371.7 383,-349.7 259,-349.7"/>
<image xlink:href="../../images/foreignKeys.png" width="11px" height="12px" preserveAspectRatio="xMinYMin meet" x="264" y="-366.7"/>
<text text-anchor="start" x="279" y="-356.8" font-family="Helvetica,sans-Serif" font-size="11.00" fill="#000000">UserId</text>
<polygon fill="none" stroke="#000000" points="383,-349.7 383,-371.7 499,-371.7 499,-349.7 383,-349.7"/>
<text text-anchor="start" x="386" y="-357.4" font-family="Helvetica,sans-Serif" font-size="11.00" fill="#000000">int[4]</text>
<polygon fill="none" stroke="#000000" points="259,-327.7 259,-349.7 383,-349.7 383,-327.7 259,-327.7"/>
<text text-anchor="start" x="279" y="-334.8" font-family="Helvetica,sans-Serif" font-size="11.00" fill="#000000">ClaimType</text>
<polygon fill="none" stroke="#000000" points="383,-327.7 383,-349.7 499,-349.7 499,-327.7 383,-327.7"/>
<text text-anchor="start" x="385.9769" y="-335.4" font-family="Helvetica,sans-Serif" font-size="11.00" fill="#000000">nvarchar[2147483647]</text>
<polygon fill="none" stroke="#000000" points="259,-305.7 259,-327.7 383,-327.7 383,-305.7 259,-305.7"/>
<text text-anchor="start" x="279" y="-312.8" font-family="Helvetica,sans-Serif" font-size="11.00" fill="#000000">ClaimValue</text>
<polygon fill="none" stroke="#000000" points="383,-305.7 383,-327.7 499,-327.7 499,-305.7 383,-305.7"/>
<text text-anchor="start" x="385.9769" y="-313.4" font-family="Helvetica,sans-Serif" font-size="11.00" fill="#000000">nvarchar[2147483647]</text>
<polygon fill="#ffffff" stroke="transparent" points="259,-286.7 259,-305.7 499,-305.7 499,-286.7 259,-286.7"/>
<polygon fill="none" stroke="#000000" points="259,-286.7 259,-305.7 499,-305.7 499,-286.7 259,-286.7"/>
<polygon fill="#ffffff" stroke="transparent" points="260,-287.7 260,-304.7 343,-304.7 343,-287.7 260,-287.7"/>
<text text-anchor="start" x="262" y="-292.8" font-family="Helvetica,sans-Serif" font-size="11.00" fill="#000000">&lt; 1</text>
<polygon fill="#ffffff" stroke="transparent" points="343,-287.7 343,-304.7 416,-304.7 416,-287.7 343,-287.7"/>
<text text-anchor="start" x="376.4431" y="-292.8" font-family="Helvetica,sans-Serif" font-size="11.00" fill="#000000"> &#160;</text>
<polygon fill="#ffffff" stroke="transparent" points="416,-287.7 416,-304.7 498,-304.7 498,-287.7 416,-287.7"/>
<text text-anchor="start" x="480.4053" y="-292.8" font-family="Helvetica,sans-Serif" font-size="11.00" fill="#000000">0 &gt;</text>
<polygon fill="#000000" stroke="#000000" points="343,-287.7 343,-304.7 343,-304.7 343,-287.7 343,-287.7"/>
<polygon fill="#000000" stroke="#000000" points="416,-287.7 416,-304.7 416,-304.7 416,-287.7 416,-287.7"/>
<polygon fill="none" stroke="#000000" stroke-width="2" points="258,-285.7 258,-483.7 500,-483.7 500,-285.7 258,-285.7"/>
</a>
</g>
</g>
<!-- Users -->
<g id="node2" class="node">
<title>Users</title>
<g id="a_node2"><a xlink:href="../../tables/Users.html" xlink:title="Users" target="_top">
<polygon fill="#ffffff" stroke="transparent" points="8,-96.2 8,-223.2 208,-223.2 208,-96.2 8,-96.2"/>
<polygon fill="#f5f5f5" stroke="transparent" points="8,-199.7 8,-222.7 208,-222.7 208,-199.7 8,-199.7"/>
<polygon fill="none" stroke="#000000" points="8,-199.7 8,-222.7 208,-222.7 208,-199.7 8,-199.7"/>
<text text-anchor="start" x="13" y="-208.3" font-family="Helvetica,sans-Serif" font-weight="bold" font-size="11.00" fill="#000000">Users</text>
<text text-anchor="start" x="173.0437" y="-207.8" font-family="Helvetica,sans-Serif" font-size="11.00" fill="#000000">[table]</text>
<polygon fill="none" stroke="#000000" points="8,-177.7 8,-199.7 208,-199.7 208,-177.7 8,-177.7"/>
<image xlink:href="../../images/primaryKeys.png" width="11px" height="12px" preserveAspectRatio="xMinYMin meet" x="13" y="-194.7"/>
<text text-anchor="start" x="28" y="-184.8" font-family="Helvetica,sans-Serif" font-size="11.00" fill="#000000">Id</text>
<polygon fill="#ffffff" stroke="transparent" points="8,-155.7 8,-177.7 208,-177.7 208,-155.7 8,-155.7"/>
<polygon fill="none" stroke="#000000" points="8,-155.7 8,-177.7 208,-177.7 208,-155.7 8,-155.7"/>
<text text-anchor="start" x="28" y="-162.8" font-family="Helvetica,sans-Serif" font-size="11.00" fill="#000000">NormalizedUserName</text>
<polygon fill="#ffffff" stroke="transparent" points="8,-133.7 8,-155.7 208,-155.7 208,-133.7 8,-133.7"/>
<polygon fill="none" stroke="#000000" points="8,-133.7 8,-155.7 208,-155.7 208,-133.7 8,-133.7"/>
<text text-anchor="start" x="28" y="-140.8" font-family="Helvetica,sans-Serif" font-size="11.00" fill="#000000">NormalizedEmail</text>
<polygon fill="none" stroke="#000000" points="8,-114.7 8,-133.7 208,-133.7 208,-114.7 8,-114.7"/>
<text text-anchor="start" x="11" y="-120.8" font-family="Helvetica,sans-Serif" font-size="11.00" fill="#000000">...</text>
<polygon fill="#ffffff" stroke="transparent" points="8,-95.7 8,-114.7 208,-114.7 208,-95.7 8,-95.7"/>
<polygon fill="none" stroke="#000000" points="8,-95.7 8,-114.7 208,-114.7 208,-95.7 8,-95.7"/>
<polygon fill="#ffffff" stroke="transparent" points="9,-96.7 9,-113.7 72,-113.7 72,-96.7 9,-96.7"/>
<text text-anchor="start" x="11" y="-101.8" font-family="Helvetica,sans-Serif" font-size="11.00" fill="#000000"> &#160;</text>
<polygon fill="#ffffff" stroke="transparent" points="72,-96.7 72,-113.7 135,-113.7 135,-96.7 72,-96.7"/>
<text text-anchor="start" x="100.4431" y="-101.8" font-family="Helvetica,sans-Serif" font-size="11.00" fill="#000000"> &#160;</text>
<polygon fill="#ffffff" stroke="transparent" points="135,-96.7 135,-113.7 207,-113.7 207,-96.7 135,-96.7"/>
<text text-anchor="start" x="189.4053" y="-101.8" font-family="Helvetica,sans-Serif" font-size="11.00" fill="#000000">4 &gt;</text>
<polygon fill="#000000" stroke="#000000" points="72,-96.7 72,-113.7 72,-113.7 72,-96.7 72,-96.7"/>
<polygon fill="#000000" stroke="#000000" points="135,-96.7 135,-113.7 135,-113.7 135,-96.7 135,-96.7"/>
</a>
</g>
</g>
<!-- UserClaims&#45;&gt;Users -->
<g id="edge1" class="edge">
<title>UserClaims:w&#45;&gt;Users:e</title>
<path fill="none" stroke="#000000" d="M244.5204,-358.1351C193.9601,-336.7389 281.9721,-188.7 208,-188.7"/>
<polygon fill="#000000" stroke="#000000" points="251.1226,-359.3046 258.3721,-364.2448 255.0613,-360.0023 259,-360.7 259,-360.7 259,-360.7 255.0613,-360.0023 259.6279,-357.1552 251.1226,-359.3046 251.1226,-359.3046"/>
<ellipse fill="none" stroke="#000000" cx="247.9717" cy="-358.7464" rx="3.2" ry="3.2"/>
</g>
<!-- UserLogins -->
<g id="node3" class="node">
<title>UserLogins</title>
<g id="a_node3"><a xlink:href="../../tables/UserLogins.html" xlink:title="UserLogins" target="_top">
<polygon fill="#ffffff" stroke="transparent" points="319,-202.2 319,-263.2 439,-263.2 439,-202.2 319,-202.2"/>
<polygon fill="#f5f5f5" stroke="transparent" points="319,-239.7 319,-262.7 439,-262.7 439,-239.7 319,-239.7"/>
<polygon fill="none" stroke="#000000" points="319,-239.7 319,-262.7 439,-262.7 439,-239.7 319,-239.7"/>
<text text-anchor="start" x="324" y="-248.3" font-family="Helvetica,sans-Serif" font-weight="bold" font-size="11.00" fill="#000000">UserLogins</text>
<text text-anchor="start" x="404.5219" y="-247.8" font-family="Helvetica,sans-Serif" font-size="11.00" fill="#000000">[table]</text>
<polygon fill="none" stroke="#000000" points="319,-220.7 319,-239.7 439,-239.7 439,-220.7 319,-220.7"/>
<text text-anchor="start" x="322" y="-226.8" font-family="Helvetica,sans-Serif" font-size="11.00" fill="#000000">...</text>
<polygon fill="#ffffff" stroke="transparent" points="319,-201.7 319,-220.7 439,-220.7 439,-201.7 319,-201.7"/>
<polygon fill="none" stroke="#000000" points="319,-201.7 319,-220.7 439,-220.7 439,-201.7 319,-201.7"/>
<polygon fill="#ffffff" stroke="transparent" points="320,-202.7 320,-219.7 366,-219.7 366,-202.7 320,-202.7"/>
<text text-anchor="start" x="322" y="-207.8" font-family="Helvetica,sans-Serif" font-size="11.00" fill="#000000">&lt; 1</text>
<polygon fill="#ffffff" stroke="transparent" points="366,-202.7 366,-219.7 402,-219.7 402,-202.7 366,-202.7"/>
<text text-anchor="start" x="380.9431" y="-207.8" font-family="Helvetica,sans-Serif" font-size="11.00" fill="#000000"> &#160;</text>
<polygon fill="#ffffff" stroke="transparent" points="402,-202.7 402,-219.7 438,-219.7 438,-202.7 402,-202.7"/>
<text text-anchor="start" x="429.8862" y="-207.8" font-family="Helvetica,sans-Serif" font-size="11.00" fill="#000000"> &#160;</text>
<polygon fill="#000000" stroke="#000000" points="366,-202.7 366,-219.7 366,-219.7 366,-202.7 366,-202.7"/>
<polygon fill="#000000" stroke="#000000" points="402,-202.7 402,-219.7 402,-219.7 402,-202.7 402,-202.7"/>
</a>
</g>
</g>
<!-- UserLogins&#45;&gt;Users -->
<g id="edge2" class="edge">
<title>UserLogins:w&#45;&gt;Users:e</title>
<path fill="none" stroke="#000000" d="M304.5841,-228.5606C264.7858,-221.9388 255.3526,-188.7 208,-188.7"/>
<polygon fill="#000000" stroke="#000000" points="311.0249,-229.0696 318.7163,-233.2888 315.0124,-229.3848 319,-229.7 319,-229.7 319,-229.7 315.0124,-229.3848 319.2837,-226.1112 311.0249,-229.0696 311.0249,-229.0696"/>
<ellipse fill="none" stroke="#000000" cx="307.8348" cy="-228.8175" rx="3.2" ry="3.2"/>
</g>
<!-- UserRoles -->
<g id="node4" class="node">
<title>UserRoles</title>
<g id="a_node4"><a xlink:href="../../tables/UserRoles.html" xlink:title="UserRoles" target="_top">
<polygon fill="#ffffff" stroke="transparent" points="323,-120.2 323,-181.2 435,-181.2 435,-120.2 323,-120.2"/>
<polygon fill="#f5f5f5" stroke="transparent" points="323,-157.7 323,-180.7 435,-180.7 435,-157.7 323,-157.7"/>
<polygon fill="none" stroke="#000000" points="323,-157.7 323,-180.7 435,-180.7 435,-157.7 323,-157.7"/>
<text text-anchor="start" x="328" y="-166.3" font-family="Helvetica,sans-Serif" font-weight="bold" font-size="11.00" fill="#000000">UserRoles</text>
<text text-anchor="start" x="400.5219" y="-165.8" font-family="Helvetica,sans-Serif" font-size="11.00" fill="#000000">[table]</text>
<polygon fill="none" stroke="#000000" points="323,-138.7 323,-157.7 435,-157.7 435,-138.7 323,-138.7"/>
<text text-anchor="start" x="326" y="-144.8" font-family="Helvetica,sans-Serif" font-size="11.00" fill="#000000">...</text>
<polygon fill="#ffffff" stroke="transparent" points="323,-119.7 323,-138.7 435,-138.7 435,-119.7 323,-119.7"/>
<polygon fill="none" stroke="#000000" points="323,-119.7 323,-138.7 435,-138.7 435,-119.7 323,-119.7"/>
<polygon fill="#ffffff" stroke="transparent" points="324,-120.7 324,-137.7 367,-137.7 367,-120.7 324,-120.7"/>
<text text-anchor="start" x="326" y="-125.8" font-family="Helvetica,sans-Serif" font-size="11.00" fill="#000000">&lt; 2</text>
<polygon fill="#ffffff" stroke="transparent" points="367,-120.7 367,-137.7 401,-137.7 401,-120.7 367,-120.7"/>
<text text-anchor="start" x="380.9431" y="-125.8" font-family="Helvetica,sans-Serif" font-size="11.00" fill="#000000"> &#160;</text>
<polygon fill="#ffffff" stroke="transparent" points="401,-120.7 401,-137.7 434,-137.7 434,-120.7 401,-120.7"/>
<text text-anchor="start" x="425.8862" y="-125.8" font-family="Helvetica,sans-Serif" font-size="11.00" fill="#000000"> &#160;</text>
<polygon fill="#000000" stroke="#000000" points="367,-120.7 367,-137.7 367,-137.7 367,-120.7 367,-120.7"/>
<polygon fill="#000000" stroke="#000000" points="401,-120.7 401,-137.7 401,-137.7 401,-120.7 401,-120.7"/>
</a>
</g>
</g>
<!-- UserRoles&#45;&gt;Users -->
<g id="edge3" class="edge">
<title>UserRoles:w&#45;&gt;Users:e</title>
<path fill="none" stroke="#000000" d="M308.381,-148.7967C267.0173,-155.3168 256.9632,-188.7 208,-188.7"/>
<polygon fill="#000000" stroke="#000000" points="315.0224,-148.2985 323.2693,-151.2899 319.0112,-147.9992 323,-147.7 323,-147.7 323,-147.7 319.0112,-147.9992 322.7307,-144.1101 315.0224,-148.2985 315.0224,-148.2985"/>
<ellipse fill="none" stroke="#000000" cx="311.8314" cy="-148.5379" rx="3.2" ry="3.2"/>
</g>
<!-- UserTokens -->
<g id="node5" class="node">
<title>UserTokens</title>
<g id="a_node5"><a xlink:href="../../tables/UserTokens.html" xlink:title="UserTokens" target="_top">
<polygon fill="#ffffff" stroke="transparent" points="317,-38.2 317,-99.2 441,-99.2 441,-38.2 317,-38.2"/>
<polygon fill="#f5f5f5" stroke="transparent" points="317,-75.7 317,-98.7 441,-98.7 441,-75.7 317,-75.7"/>
<polygon fill="none" stroke="#000000" points="317,-75.7 317,-98.7 441,-98.7 441,-75.7 317,-75.7"/>
<text text-anchor="start" x="322" y="-84.3" font-family="Helvetica,sans-Serif" font-weight="bold" font-size="11.00" fill="#000000">UserTokens</text>
<text text-anchor="start" x="406.5219" y="-83.8" font-family="Helvetica,sans-Serif" font-size="11.00" fill="#000000">[table]</text>
<polygon fill="none" stroke="#000000" points="317,-56.7 317,-75.7 441,-75.7 441,-56.7 317,-56.7"/>
<text text-anchor="start" x="320" y="-62.8" font-family="Helvetica,sans-Serif" font-size="11.00" fill="#000000">...</text>
<polygon fill="#ffffff" stroke="transparent" points="317,-37.7 317,-56.7 441,-56.7 441,-37.7 317,-37.7"/>
<polygon fill="none" stroke="#000000" points="317,-37.7 317,-56.7 441,-56.7 441,-37.7 317,-37.7"/>
<polygon fill="#ffffff" stroke="transparent" points="318,-38.7 318,-55.7 365,-55.7 365,-38.7 318,-38.7"/>
<text text-anchor="start" x="320" y="-43.8" font-family="Helvetica,sans-Serif" font-size="11.00" fill="#000000">&lt; 1</text>
<polygon fill="#ffffff" stroke="transparent" points="365,-38.7 365,-55.7 403,-55.7 403,-38.7 365,-38.7"/>
<text text-anchor="start" x="380.9431" y="-43.8" font-family="Helvetica,sans-Serif" font-size="11.00" fill="#000000"> &#160;</text>
<polygon fill="#ffffff" stroke="transparent" points="403,-38.7 403,-55.7 440,-55.7 440,-38.7 403,-38.7"/>
<text text-anchor="start" x="431.8862" y="-43.8" font-family="Helvetica,sans-Serif" font-size="11.00" fill="#000000"> &#160;</text>
<polygon fill="#000000" stroke="#000000" points="365,-38.7 365,-55.7 365,-55.7 365,-38.7 365,-38.7"/>
<polygon fill="#000000" stroke="#000000" points="403,-38.7 403,-55.7 403,-55.7 403,-38.7 403,-38.7"/>
</a>
</g>
</g>
<!-- UserTokens&#45;&gt;Users -->
<g id="edge4" class="edge">
<title>UserTokens:w&#45;&gt;Users:e</title>
<path fill="none" stroke="#000000" d="M302.3541,-66.8801C278.2471,-71.2045 269.5208,-87.1177 249,-109.7 222.3965,-138.9761 247.5581,-188.7 208,-188.7"/>
<polygon fill="#000000" stroke="#000000" points="309.0258,-66.3426 317.2892,-69.2884 313.0129,-66.0213 317,-65.7 317,-65.7 317,-65.7 313.0129,-66.0213 316.7108,-62.1116 309.0258,-66.3426 309.0258,-66.3426"/>
<ellipse fill="none" stroke="#000000" cx="305.8362" cy="-66.5996" rx="3.2" ry="3.2"/>
</g>
</g>
</svg>
