<?xml version="1.0" encoding="UTF-8" standalone="no"?>
<!DOCTYPE svg PUBLIC "-//W3C//DTD SVG 1.1//EN"
 "http://www.w3.org/Graphics/SVG/1.1/DTD/svg11.dtd">
<!-- Generated by graphviz version 2.40.1 (20161225.0304)
 -->
<!-- Title: oneDegreeRelationshipsDiagram Pages: 1 -->
<svg width="482pt" height="303pt"
 viewBox="0.00 0.00 482.00 303.20" xmlns="http://www.w3.org/2000/svg" xmlns:xlink="http://www.w3.org/1999/xlink">
<g id="graph0" class="graph" transform="scale(1 1) rotate(0) translate(4 299.2)">
<title>oneDegreeRelationshipsDiagram</title>
<polygon fill="#ffffff" stroke="transparent" points="-4,4 -4,-299.2 478,-299.2 478,4 -4,4"/>
<text text-anchor="middle" x="72.4936" y="-7.3" font-family="Helvetica,sans-Serif" font-size="11.00" fill="#000000">Generated by SchemaSpy</text>
<!-- UserRoles -->
<g id="node1" class="node">
<title>UserRoles</title>
<g id="a_node1"><a xlink:href="../../tables/UserRoles.html" xlink:title="UserRoles" target="_top">
<polygon fill="#ffffff" stroke="transparent" points="257,-73.7 257,-229.7 466,-229.7 466,-73.7 257,-73.7"/>
<polygon fill="#f5f5f5" stroke="transparent" points="259.5,-204.7 259.5,-227.7 464.5,-227.7 464.5,-204.7 259.5,-204.7"/>
<polygon fill="none" stroke="#000000" points="259.5,-204.7 259.5,-227.7 464.5,-227.7 464.5,-204.7 259.5,-204.7"/>
<text text-anchor="start" x="264.5" y="-213.3" font-family="Helvetica,sans-Serif" font-weight="bold" font-size="11.00" fill="#000000">UserRoles</text>
<text text-anchor="start" x="429.5437" y="-212.8" font-family="Helvetica,sans-Serif" font-size="11.00" fill="#000000">[table]</text>
<polygon fill="none" stroke="#000000" points="259.5,-182.7 259.5,-204.7 383.5,-204.7 383.5,-182.7 259.5,-182.7"/>
<image xlink:href="../../images/primaryKeys.png" width="11px" height="12px" preserveAspectRatio="xMinYMin meet" x="264.5" y="-199.7"/>
<text text-anchor="start" x="279.5" y="-189.8" font-family="Helvetica,sans-Serif" font-size="11.00" fill="#000000">UserId</text>
<polygon fill="none" stroke="#000000" points="383.5,-182.7 383.5,-204.7 464.5,-204.7 464.5,-182.7 383.5,-182.7"/>
<text text-anchor="start" x="386.5" y="-190.4" font-family="Helvetica,sans-Serif" font-size="11.00" fill="#000000">int[4]</text>
<polygon fill="none" stroke="#000000" points="259.5,-160.7 259.5,-182.7 383.5,-182.7 383.5,-160.7 259.5,-160.7"/>
<image xlink:href="../../images/primaryKeys.png" width="11px" height="12px" preserveAspectRatio="xMinYMin meet" x="264.5" y="-177.7"/>
<text text-anchor="start" x="279.5" y="-167.8" font-family="Helvetica,sans-Serif" font-size="11.00" fill="#000000">RoleId</text>
<polygon fill="none" stroke="#000000" points="383.5,-160.7 383.5,-182.7 464.5,-182.7 464.5,-160.7 383.5,-160.7"/>
<text text-anchor="start" x="386.5" y="-168.4" font-family="Helvetica,sans-Serif" font-size="11.00" fill="#000000">int[4]</text>
<polygon fill="none" stroke="#000000" points="259.5,-138.7 259.5,-160.7 383.5,-160.7 383.5,-138.7 259.5,-138.7"/>
<text text-anchor="start" x="279.5" y="-145.8" font-family="Helvetica,sans-Serif" font-size="11.00" fill="#000000">CreatedAtUtc</text>
<polygon fill="none" stroke="#000000" points="383.5,-138.7 383.5,-160.7 464.5,-160.7 464.5,-138.7 383.5,-138.7"/>
<text text-anchor="start" x="386.0968" y="-146.4" font-family="Helvetica,sans-Serif" font-size="11.00" fill="#000000">datetime2[16,7]</text>
<polygon fill="none" stroke="#000000" points="259.5,-116.7 259.5,-138.7 383.5,-138.7 383.5,-116.7 259.5,-116.7"/>
<text text-anchor="start" x="279.5" y="-123.8" font-family="Helvetica,sans-Serif" font-size="11.00" fill="#000000">UpdatedAtUtc</text>
<polygon fill="none" stroke="#000000" points="383.5,-116.7 383.5,-138.7 464.5,-138.7 464.5,-116.7 383.5,-116.7"/>
<text text-anchor="start" x="386.0968" y="-124.4" font-family="Helvetica,sans-Serif" font-size="11.00" fill="#000000">datetime2[16,7]</text>
<polygon fill="none" stroke="#000000" points="259.5,-94.7 259.5,-116.7 383.5,-116.7 383.5,-94.7 259.5,-94.7"/>
<text text-anchor="start" x="279.5" y="-101.8" font-family="Helvetica,sans-Serif" font-size="11.00" fill="#000000">RowVersion</text>
<polygon fill="none" stroke="#000000" points="383.5,-94.7 383.5,-116.7 464.5,-116.7 464.5,-94.7 383.5,-94.7"/>
<text text-anchor="start" x="386.5" y="-102.4" font-family="Helvetica,sans-Serif" font-size="11.00" fill="#000000">timestamp[8]</text>
<polygon fill="#ffffff" stroke="transparent" points="259.5,-75.7 259.5,-94.7 464.5,-94.7 464.5,-75.7 259.5,-75.7"/>
<polygon fill="none" stroke="#000000" points="259.5,-75.7 259.5,-94.7 464.5,-94.7 464.5,-75.7 259.5,-75.7"/>
<polygon fill="#ffffff" stroke="transparent" points="260.5,-76.7 260.5,-93.7 331.5,-93.7 331.5,-76.7 260.5,-76.7"/>
<text text-anchor="start" x="262.5" y="-81.8" font-family="Helvetica,sans-Serif" font-size="11.00" fill="#000000">&lt; 2</text>
<polygon fill="#ffffff" stroke="transparent" points="331.5,-76.7 331.5,-93.7 393.5,-93.7 393.5,-76.7 331.5,-76.7"/>
<text text-anchor="start" x="359.4431" y="-81.8" font-family="Helvetica,sans-Serif" font-size="11.00" fill="#000000"> &#160;</text>
<polygon fill="#ffffff" stroke="transparent" points="393.5,-76.7 393.5,-93.7 463.5,-93.7 463.5,-76.7 393.5,-76.7"/>
<text text-anchor="start" x="445.9053" y="-81.8" font-family="Helvetica,sans-Serif" font-size="11.00" fill="#000000">0 &gt;</text>
<polygon fill="#000000" stroke="#000000" points="331.5,-76.7 331.5,-93.7 331.5,-93.7 331.5,-76.7 331.5,-76.7"/>
<polygon fill="#000000" stroke="#000000" points="393.5,-76.7 393.5,-93.7 393.5,-93.7 393.5,-76.7 393.5,-76.7"/>
<polygon fill="none" stroke="#000000" stroke-width="2" points="258,-74.7 258,-228.7 465,-228.7 465,-74.7 258,-74.7"/>
</a>
</g>
</g>
<!-- Roles -->
<g id="node2" class="node">
<title>Roles</title>
<g id="a_node2"><a xlink:href="../../tables/Roles.html" xlink:title="Roles" target="_top">
<polygon fill="#ffffff" stroke="transparent" points="28.5,-38.2 28.5,-143.2 187.5,-143.2 187.5,-38.2 28.5,-38.2"/>
<polygon fill="#f5f5f5" stroke="transparent" points="29,-119.7 29,-142.7 188,-142.7 188,-119.7 29,-119.7"/>
<polygon fill="none" stroke="#000000" points="29,-119.7 29,-142.7 188,-142.7 188,-119.7 29,-119.7"/>
<text text-anchor="start" x="34" y="-128.3" font-family="Helvetica,sans-Serif" font-weight="bold" font-size="11.00" fill="#000000">Roles</text>
<text text-anchor="start" x="153.0437" y="-127.8" font-family="Helvetica,sans-Serif" font-size="11.00" fill="#000000">[table]</text>
<polygon fill="none" stroke="#000000" points="29,-97.7 29,-119.7 188,-119.7 188,-97.7 29,-97.7"/>
<image xlink:href="../../images/primaryKeys.png" width="11px" height="12px" preserveAspectRatio="xMinYMin meet" x="34" y="-114.7"/>
<text text-anchor="start" x="49" y="-104.8" font-family="Helvetica,sans-Serif" font-size="11.00" fill="#000000">Id</text>
<polygon fill="#ffffff" stroke="transparent" points="29,-75.7 29,-97.7 188,-97.7 188,-75.7 29,-75.7"/>
<polygon fill="none" stroke="#000000" points="29,-75.7 29,-97.7 188,-97.7 188,-75.7 29,-75.7"/>
<text text-anchor="start" x="49" y="-82.8" font-family="Helvetica,sans-Serif" font-size="11.00" fill="#000000">NormalizedName</text>
<polygon fill="none" stroke="#000000" points="29,-56.7 29,-75.7 188,-75.7 188,-56.7 29,-56.7"/>
<text text-anchor="start" x="32" y="-62.8" font-family="Helvetica,sans-Serif" font-size="11.00" fill="#000000">...</text>
<polygon fill="#ffffff" stroke="transparent" points="29,-37.7 29,-56.7 188,-56.7 188,-37.7 29,-37.7"/>
<polygon fill="none" stroke="#000000" points="29,-37.7 29,-56.7 188,-56.7 188,-37.7 29,-37.7"/>
<polygon fill="#ffffff" stroke="transparent" points="30,-38.7 30,-55.7 80,-55.7 80,-38.7 30,-38.7"/>
<text text-anchor="start" x="32" y="-43.8" font-family="Helvetica,sans-Serif" font-size="11.00" fill="#000000"> &#160;</text>
<polygon fill="#ffffff" stroke="transparent" points="80,-38.7 80,-55.7 129,-55.7 129,-38.7 80,-38.7"/>
<text text-anchor="start" x="101.4431" y="-43.8" font-family="Helvetica,sans-Serif" font-size="11.00" fill="#000000"> &#160;</text>
<polygon fill="#ffffff" stroke="transparent" points="129,-38.7 129,-55.7 187,-55.7 187,-38.7 129,-38.7"/>
<text text-anchor="start" x="169.4053" y="-43.8" font-family="Helvetica,sans-Serif" font-size="11.00" fill="#000000">2 &gt;</text>
<polygon fill="#000000" stroke="#000000" points="80,-38.7 80,-55.7 80,-55.7 80,-38.7 80,-38.7"/>
<polygon fill="#000000" stroke="#000000" points="129,-38.7 129,-55.7 129,-55.7 129,-38.7 129,-38.7"/>
</a>
</g>
</g>
<!-- UserRoles&#45;&gt;Roles -->
<g id="edge1" class="edge">
<title>UserRoles:w&#45;&gt;Roles:e</title>
<path fill="none" stroke="#000000" d="M245.3046,-168.6614C219.6745,-156.0769 224.7285,-108.7 188,-108.7"/>
<polygon fill="#000000" stroke="#000000" points="251.6772,-170.0254 258.7464,-175.2203 255.5886,-170.8627 259.5,-171.7 259.5,-171.7 259.5,-171.7 255.5886,-170.8627 260.2536,-168.1797 251.6772,-170.0254 251.6772,-170.0254"/>
<ellipse fill="none" stroke="#000000" cx="248.5481" cy="-169.3556" rx="3.2" ry="3.2"/>
</g>
<!-- Users -->
<g id="node3" class="node">
<title>Users</title>
<g id="a_node3"><a xlink:href="../../tables/Users.html" xlink:title="Users" target="_top">
<polygon fill="#ffffff" stroke="transparent" points="8,-164.2 8,-291.2 208,-291.2 208,-164.2 8,-164.2"/>
<polygon fill="#f5f5f5" stroke="transparent" points="8,-267.7 8,-290.7 208,-290.7 208,-267.7 8,-267.7"/>
<polygon fill="none" stroke="#000000" points="8,-267.7 8,-290.7 208,-290.7 208,-267.7 8,-267.7"/>
<text text-anchor="start" x="13" y="-276.3" font-family="Helvetica,sans-Serif" font-weight="bold" font-size="11.00" fill="#000000">Users</text>
<text text-anchor="start" x="173.0437" y="-275.8" font-family="Helvetica,sans-Serif" font-size="11.00" fill="#000000">[table]</text>
<polygon fill="none" stroke="#000000" points="8,-245.7 8,-267.7 208,-267.7 208,-245.7 8,-245.7"/>
<image xlink:href="../../images/primaryKeys.png" width="11px" height="12px" preserveAspectRatio="xMinYMin meet" x="13" y="-262.7"/>
<text text-anchor="start" x="28" y="-252.8" font-family="Helvetica,sans-Serif" font-size="11.00" fill="#000000">Id</text>
<polygon fill="#ffffff" stroke="transparent" points="8,-223.7 8,-245.7 208,-245.7 208,-223.7 8,-223.7"/>
<polygon fill="none" stroke="#000000" points="8,-223.7 8,-245.7 208,-245.7 208,-223.7 8,-223.7"/>
<text text-anchor="start" x="28" y="-230.8" font-family="Helvetica,sans-Serif" font-size="11.00" fill="#000000">NormalizedUserName</text>
<polygon fill="#ffffff" stroke="transparent" points="8,-201.7 8,-223.7 208,-223.7 208,-201.7 8,-201.7"/>
<polygon fill="none" stroke="#000000" points="8,-201.7 8,-223.7 208,-223.7 208,-201.7 8,-201.7"/>
<text text-anchor="start" x="28" y="-208.8" font-family="Helvetica,sans-Serif" font-size="11.00" fill="#000000">NormalizedEmail</text>
<polygon fill="none" stroke="#000000" points="8,-182.7 8,-201.7 208,-201.7 208,-182.7 8,-182.7"/>
<text text-anchor="start" x="11" y="-188.8" font-family="Helvetica,sans-Serif" font-size="11.00" fill="#000000">...</text>
<polygon fill="#ffffff" stroke="transparent" points="8,-163.7 8,-182.7 208,-182.7 208,-163.7 8,-163.7"/>
<polygon fill="none" stroke="#000000" points="8,-163.7 8,-182.7 208,-182.7 208,-163.7 8,-163.7"/>
<polygon fill="#ffffff" stroke="transparent" points="9,-164.7 9,-181.7 72,-181.7 72,-164.7 9,-164.7"/>
<text text-anchor="start" x="11" y="-169.8" font-family="Helvetica,sans-Serif" font-size="11.00" fill="#000000"> &#160;</text>
<polygon fill="#ffffff" stroke="transparent" points="72,-164.7 72,-181.7 135,-181.7 135,-164.7 72,-164.7"/>
<text text-anchor="start" x="100.4431" y="-169.8" font-family="Helvetica,sans-Serif" font-size="11.00" fill="#000000"> &#160;</text>
<polygon fill="#ffffff" stroke="transparent" points="135,-164.7 135,-181.7 207,-181.7 207,-164.7 135,-164.7"/>
<text text-anchor="start" x="189.4053" y="-169.8" font-family="Helvetica,sans-Serif" font-size="11.00" fill="#000000">4 &gt;</text>
<polygon fill="#000000" stroke="#000000" points="72,-164.7 72,-181.7 72,-181.7 72,-164.7 72,-164.7"/>
<polygon fill="#000000" stroke="#000000" points="135,-164.7 135,-181.7 135,-181.7 135,-164.7 135,-164.7"/>
</a>
</g>
</g>
<!-- UserRoles&#45;&gt;Users -->
<g id="edge2" class="edge">
<title>UserRoles:w&#45;&gt;Users:e</title>
<path fill="none" stroke="#000000" d="M245.799,-198.2308C228.6358,-212.6761 238.2316,-256.7 208,-256.7"/>
<polygon fill="#000000" stroke="#000000" points="251.9045,-196.2118 260.6303,-197.118 255.7023,-194.9559 259.5,-193.7 259.5,-193.7 259.5,-193.7 255.7023,-194.9559 258.3697,-190.282 251.9045,-196.2118 251.9045,-196.2118"/>
<ellipse fill="none" stroke="#000000" cx="248.8663" cy="-197.2165" rx="3.2" ry="3.2"/>
</g>
</g>
</svg>
