<?xml version="1.0" encoding="UTF-8" standalone="no"?>
<!DOCTYPE svg PUBLIC "-//W3C//DTD SVG 1.1//EN"
 "http://www.w3.org/Graphics/SVG/1.1/DTD/svg11.dtd">
<!-- Generated by graphviz version 2.40.1 (20161225.0304)
 -->
<!-- Title: oneDegreeRelationshipsDiagram Pages: 1 -->
<svg width="572pt" height="713pt"
 viewBox="0.00 0.00 572.00 712.70" xmlns="http://www.w3.org/2000/svg" xmlns:xlink="http://www.w3.org/1999/xlink">
<g id="graph0" class="graph" transform="scale(1 1) rotate(0) translate(4 708.7)">
<title>oneDegreeRelationshipsDiagram</title>
<polygon fill="#ffffff" stroke="transparent" points="-4,4 -4,-708.7 568,-708.7 568,4 -4,4"/>
<text text-anchor="middle" x="72.4936" y="-7.3" font-family="Helvetica,sans-Serif" font-size="11.00" fill="#000000">Generated by SchemaSpy</text>
<!-- UserClaims -->
<g id="node1" class="node">
<title>UserClaims</title>
<g id="a_node1"><a xlink:href="../../tables/UserClaims.html" xlink:title="UserClaims" target="_top">
<polygon fill="#ffffff" stroke="transparent" points="404.5,-595.7 404.5,-700.7 528.5,-700.7 528.5,-595.7 404.5,-595.7"/>
<polygon fill="#f5f5f5" stroke="transparent" points="404.5,-677.2 404.5,-700.2 528.5,-700.2 528.5,-677.2 404.5,-677.2"/>
<polygon fill="none" stroke="#000000" points="404.5,-677.2 404.5,-700.2 528.5,-700.2 528.5,-677.2 404.5,-677.2"/>
<text text-anchor="start" x="409.5" y="-685.8" font-family="Helvetica,sans-Serif" font-weight="bold" font-size="11.00" fill="#000000">UserClaims</text>
<text text-anchor="start" x="493.5437" y="-685.3" font-family="Helvetica,sans-Serif" font-size="11.00" fill="#000000">[table]</text>
<polygon fill="none" stroke="#000000" points="404.5,-655.2 404.5,-677.2 528.5,-677.2 528.5,-655.2 404.5,-655.2"/>
<image xlink:href="../../images/primaryKeys.png" width="11px" height="12px" preserveAspectRatio="xMinYMin meet" x="409.5" y="-672.2"/>
<text text-anchor="start" x="424.5" y="-662.3" font-family="Helvetica,sans-Serif" font-size="11.00" fill="#000000">Id</text>
<polygon fill="#ffffff" stroke="transparent" points="404.5,-633.2 404.5,-655.2 528.5,-655.2 528.5,-633.2 404.5,-633.2"/>
<polygon fill="none" stroke="#000000" points="404.5,-633.2 404.5,-655.2 528.5,-655.2 528.5,-633.2 404.5,-633.2"/>
<image xlink:href="../../images/foreignKeys.png" width="11px" height="12px" preserveAspectRatio="xMinYMin meet" x="409.5" y="-650.2"/>
<text text-anchor="start" x="424.5" y="-640.3" font-family="Helvetica,sans-Serif" font-size="11.00" fill="#000000">UserId</text>
<polygon fill="none" stroke="#000000" points="404.5,-614.2 404.5,-633.2 528.5,-633.2 528.5,-614.2 404.5,-614.2"/>
<text text-anchor="start" x="407.5" y="-620.3" font-family="Helvetica,sans-Serif" font-size="11.00" fill="#000000">...</text>
<polygon fill="#ffffff" stroke="transparent" points="404.5,-595.2 404.5,-614.2 528.5,-614.2 528.5,-595.2 404.5,-595.2"/>
<polygon fill="none" stroke="#000000" points="404.5,-595.2 404.5,-614.2 528.5,-614.2 528.5,-595.2 404.5,-595.2"/>
<polygon fill="#ffffff" stroke="transparent" points="405.5,-596.2 405.5,-613.2 452.5,-613.2 452.5,-596.2 405.5,-596.2"/>
<text text-anchor="start" x="407.5" y="-601.3" font-family="Helvetica,sans-Serif" font-size="11.00" fill="#000000">&lt; 1</text>
<polygon fill="#ffffff" stroke="transparent" points="452.5,-596.2 452.5,-613.2 490.5,-613.2 490.5,-596.2 452.5,-596.2"/>
<text text-anchor="start" x="468.4431" y="-601.3" font-family="Helvetica,sans-Serif" font-size="11.00" fill="#000000"> &#160;</text>
<polygon fill="#ffffff" stroke="transparent" points="490.5,-596.2 490.5,-613.2 527.5,-613.2 527.5,-596.2 490.5,-596.2"/>
<text text-anchor="start" x="519.3862" y="-601.3" font-family="Helvetica,sans-Serif" font-size="11.00" fill="#000000"> &#160;</text>
<polygon fill="#000000" stroke="#000000" points="452.5,-596.2 452.5,-613.2 452.5,-613.2 452.5,-596.2 452.5,-596.2"/>
<polygon fill="#000000" stroke="#000000" points="490.5,-596.2 490.5,-613.2 490.5,-613.2 490.5,-596.2 490.5,-596.2"/>
</a>
</g>
</g>
<!-- Users -->
<g id="node2" class="node">
<title>Users</title>
<g id="a_node2"><a xlink:href="../../tables/Users.html" xlink:title="Users" target="_top">
<polygon fill="#ffffff" stroke="transparent" points="8,-38.2 8,-480.2 328,-480.2 328,-38.2 8,-38.2"/>
<polygon fill="#f5f5f5" stroke="transparent" points="10,-455.2 10,-478.2 326,-478.2 326,-455.2 10,-455.2"/>
<polygon fill="none" stroke="#000000" points="10,-455.2 10,-478.2 326,-478.2 326,-455.2 10,-455.2"/>
<text text-anchor="start" x="15" y="-463.8" font-family="Helvetica,sans-Serif" font-weight="bold" font-size="11.00" fill="#000000">Users</text>
<text text-anchor="start" x="291.0437" y="-463.3" font-family="Helvetica,sans-Serif" font-size="11.00" fill="#000000">[table]</text>
<polygon fill="none" stroke="#000000" points="10,-433.2 10,-455.2 210,-455.2 210,-433.2 10,-433.2"/>
<image xlink:href="../../images/primaryKeys.png" width="11px" height="12px" preserveAspectRatio="xMinYMin meet" x="15" y="-450.2"/>
<text text-anchor="start" x="30" y="-440.3" font-family="Helvetica,sans-Serif" font-size="11.00" fill="#000000">Id</text>
<polygon fill="none" stroke="#000000" points="210,-433.2 210,-455.2 326,-455.2 326,-433.2 210,-433.2"/>
<text text-anchor="start" x="213" y="-440.9" font-family="Helvetica,sans-Serif" font-size="11.00" fill="#000000">int identity[4]</text>
<polygon fill="none" stroke="#000000" points="10,-411.2 10,-433.2 210,-433.2 210,-411.2 10,-411.2"/>
<text text-anchor="start" x="30" y="-418.3" font-family="Helvetica,sans-Serif" font-size="11.00" fill="#000000">CreatedAtUtc</text>
<polygon fill="none" stroke="#000000" points="210,-411.2 210,-433.2 326,-433.2 326,-411.2 210,-411.2"/>
<text text-anchor="start" x="213" y="-418.9" font-family="Helvetica,sans-Serif" font-size="11.00" fill="#000000">datetime2[16,7]</text>
<polygon fill="none" stroke="#000000" points="10,-389.2 10,-411.2 210,-411.2 210,-389.2 10,-389.2"/>
<text text-anchor="start" x="30" y="-396.3" font-family="Helvetica,sans-Serif" font-size="11.00" fill="#000000">UpdatedAtUtc</text>
<polygon fill="none" stroke="#000000" points="210,-389.2 210,-411.2 326,-411.2 326,-389.2 210,-389.2"/>
<text text-anchor="start" x="213" y="-396.9" font-family="Helvetica,sans-Serif" font-size="11.00" fill="#000000">datetime2[16,7]</text>
<polygon fill="none" stroke="#000000" points="10,-367.2 10,-389.2 210,-389.2 210,-367.2 10,-367.2"/>
<text text-anchor="start" x="30" y="-374.3" font-family="Helvetica,sans-Serif" font-size="11.00" fill="#000000">RowVersion</text>
<polygon fill="none" stroke="#000000" points="210,-367.2 210,-389.2 326,-389.2 326,-367.2 210,-367.2"/>
<text text-anchor="start" x="213" y="-374.9" font-family="Helvetica,sans-Serif" font-size="11.00" fill="#000000">timestamp[8]</text>
<polygon fill="none" stroke="#000000" points="10,-345.2 10,-367.2 210,-367.2 210,-345.2 10,-345.2"/>
<text text-anchor="start" x="30" y="-352.3" font-family="Helvetica,sans-Serif" font-size="11.00" fill="#000000">UserName</text>
<polygon fill="none" stroke="#000000" points="210,-345.2 210,-367.2 326,-367.2 326,-345.2 210,-345.2"/>
<text text-anchor="start" x="213" y="-352.9" font-family="Helvetica,sans-Serif" font-size="11.00" fill="#000000">nvarchar[512]</text>
<polygon fill="#ffffff" stroke="transparent" points="10,-323.2 10,-345.2 210,-345.2 210,-323.2 10,-323.2"/>
<polygon fill="none" stroke="#000000" points="10,-323.2 10,-345.2 210,-345.2 210,-323.2 10,-323.2"/>
<text text-anchor="start" x="30" y="-330.3" font-family="Helvetica,sans-Serif" font-size="11.00" fill="#000000">NormalizedUserName</text>
<polygon fill="none" stroke="#000000" points="210,-323.2 210,-345.2 326,-345.2 326,-323.2 210,-323.2"/>
<text text-anchor="start" x="213" y="-330.9" font-family="Helvetica,sans-Serif" font-size="11.00" fill="#000000">nvarchar[512]</text>
<polygon fill="none" stroke="#000000" points="10,-301.2 10,-323.2 210,-323.2 210,-301.2 10,-301.2"/>
<text text-anchor="start" x="30" y="-308.3" font-family="Helvetica,sans-Serif" font-size="11.00" fill="#000000">Email</text>
<polygon fill="none" stroke="#000000" points="210,-301.2 210,-323.2 326,-323.2 326,-301.2 210,-301.2"/>
<text text-anchor="start" x="213" y="-308.9" font-family="Helvetica,sans-Serif" font-size="11.00" fill="#000000">nvarchar[512]</text>
<polygon fill="#ffffff" stroke="transparent" points="10,-279.2 10,-301.2 210,-301.2 210,-279.2 10,-279.2"/>
<polygon fill="none" stroke="#000000" points="10,-279.2 10,-301.2 210,-301.2 210,-279.2 10,-279.2"/>
<text text-anchor="start" x="30" y="-286.3" font-family="Helvetica,sans-Serif" font-size="11.00" fill="#000000">NormalizedEmail</text>
<polygon fill="none" stroke="#000000" points="210,-279.2 210,-301.2 326,-301.2 326,-279.2 210,-279.2"/>
<text text-anchor="start" x="213" y="-286.9" font-family="Helvetica,sans-Serif" font-size="11.00" fill="#000000">nvarchar[512]</text>
<polygon fill="none" stroke="#000000" points="10,-257.2 10,-279.2 210,-279.2 210,-257.2 10,-257.2"/>
<text text-anchor="start" x="30" y="-264.3" font-family="Helvetica,sans-Serif" font-size="11.00" fill="#000000">EmailConfirmed</text>
<polygon fill="none" stroke="#000000" points="210,-257.2 210,-279.2 326,-279.2 326,-257.2 210,-257.2"/>
<text text-anchor="start" x="213" y="-264.9" font-family="Helvetica,sans-Serif" font-size="11.00" fill="#000000">bit[1]</text>
<polygon fill="none" stroke="#000000" points="10,-235.2 10,-257.2 210,-257.2 210,-235.2 10,-235.2"/>
<text text-anchor="start" x="30" y="-242.3" font-family="Helvetica,sans-Serif" font-size="11.00" fill="#000000">PasswordHash</text>
<polygon fill="none" stroke="#000000" points="210,-235.2 210,-257.2 326,-257.2 326,-235.2 210,-235.2"/>
<text text-anchor="start" x="212.9769" y="-242.9" font-family="Helvetica,sans-Serif" font-size="11.00" fill="#000000">nvarchar[2147483647]</text>
<polygon fill="none" stroke="#000000" points="10,-213.2 10,-235.2 210,-235.2 210,-213.2 10,-213.2"/>
<text text-anchor="start" x="30" y="-220.3" font-family="Helvetica,sans-Serif" font-size="11.00" fill="#000000">SecurityStamp</text>
<polygon fill="none" stroke="#000000" points="210,-213.2 210,-235.2 326,-235.2 326,-213.2 210,-213.2"/>
<text text-anchor="start" x="212.9769" y="-220.9" font-family="Helvetica,sans-Serif" font-size="11.00" fill="#000000">nvarchar[2147483647]</text>
<polygon fill="none" stroke="#000000" points="10,-191.2 10,-213.2 210,-213.2 210,-191.2 10,-191.2"/>
<text text-anchor="start" x="30" y="-198.3" font-family="Helvetica,sans-Serif" font-size="11.00" fill="#000000">ConcurrencyStamp</text>
<polygon fill="none" stroke="#000000" points="210,-191.2 210,-213.2 326,-213.2 326,-191.2 210,-191.2"/>
<text text-anchor="start" x="212.9769" y="-198.9" font-family="Helvetica,sans-Serif" font-size="11.00" fill="#000000">nvarchar[2147483647]</text>
<polygon fill="none" stroke="#000000" points="10,-169.2 10,-191.2 210,-191.2 210,-169.2 10,-169.2"/>
<text text-anchor="start" x="30" y="-176.3" font-family="Helvetica,sans-Serif" font-size="11.00" fill="#000000">PhoneNumber</text>
<polygon fill="none" stroke="#000000" points="210,-169.2 210,-191.2 326,-191.2 326,-169.2 210,-169.2"/>
<text text-anchor="start" x="212.9769" y="-176.9" font-family="Helvetica,sans-Serif" font-size="11.00" fill="#000000">nvarchar[2147483647]</text>
<polygon fill="none" stroke="#000000" points="10,-147.2 10,-169.2 210,-169.2 210,-147.2 10,-147.2"/>
<text text-anchor="start" x="30" y="-154.3" font-family="Helvetica,sans-Serif" font-size="11.00" fill="#000000">PhoneNumberConfirmed</text>
<polygon fill="none" stroke="#000000" points="210,-147.2 210,-169.2 326,-169.2 326,-147.2 210,-147.2"/>
<text text-anchor="start" x="213" y="-154.9" font-family="Helvetica,sans-Serif" font-size="11.00" fill="#000000">bit[1]</text>
<polygon fill="none" stroke="#000000" points="10,-125.2 10,-147.2 210,-147.2 210,-125.2 10,-125.2"/>
<text text-anchor="start" x="30" y="-132.3" font-family="Helvetica,sans-Serif" font-size="11.00" fill="#000000">TwoFactorEnabled</text>
<polygon fill="none" stroke="#000000" points="210,-125.2 210,-147.2 326,-147.2 326,-125.2 210,-125.2"/>
<text text-anchor="start" x="213" y="-132.9" font-family="Helvetica,sans-Serif" font-size="11.00" fill="#000000">bit[1]</text>
<polygon fill="none" stroke="#000000" points="10,-103.2 10,-125.2 210,-125.2 210,-103.2 10,-103.2"/>
<text text-anchor="start" x="30" y="-110.3" font-family="Helvetica,sans-Serif" font-size="11.00" fill="#000000">LockoutEnd</text>
<polygon fill="none" stroke="#000000" points="210,-103.2 210,-125.2 326,-125.2 326,-103.2 210,-103.2"/>
<text text-anchor="start" x="213" y="-110.9" font-family="Helvetica,sans-Serif" font-size="11.00" fill="#000000">datetimeoffset[20,7]</text>
<polygon fill="none" stroke="#000000" points="10,-81.2 10,-103.2 210,-103.2 210,-81.2 10,-81.2"/>
<text text-anchor="start" x="30" y="-88.3" font-family="Helvetica,sans-Serif" font-size="11.00" fill="#000000">LockoutEnabled</text>
<polygon fill="none" stroke="#000000" points="210,-81.2 210,-103.2 326,-103.2 326,-81.2 210,-81.2"/>
<text text-anchor="start" x="213" y="-88.9" font-family="Helvetica,sans-Serif" font-size="11.00" fill="#000000">bit[1]</text>
<polygon fill="none" stroke="#000000" points="10,-59.2 10,-81.2 210,-81.2 210,-59.2 10,-59.2"/>
<text text-anchor="start" x="30" y="-66.3" font-family="Helvetica,sans-Serif" font-size="11.00" fill="#000000">AccessFailedCount</text>
<polygon fill="none" stroke="#000000" points="210,-59.2 210,-81.2 326,-81.2 326,-59.2 210,-59.2"/>
<text text-anchor="start" x="213" y="-66.9" font-family="Helvetica,sans-Serif" font-size="11.00" fill="#000000">int[4]</text>
<polygon fill="#ffffff" stroke="transparent" points="10,-40.2 10,-59.2 326,-59.2 326,-40.2 10,-40.2"/>
<polygon fill="none" stroke="#000000" points="10,-40.2 10,-59.2 326,-59.2 326,-40.2 10,-40.2"/>
<polygon fill="#ffffff" stroke="transparent" points="11,-41.2 11,-58.2 119,-58.2 119,-41.2 11,-41.2"/>
<text text-anchor="start" x="13" y="-46.3" font-family="Helvetica,sans-Serif" font-size="11.00" fill="#000000">&lt; 0</text>
<polygon fill="#ffffff" stroke="transparent" points="119,-41.2 119,-58.2 218,-58.2 218,-41.2 119,-41.2"/>
<text text-anchor="start" x="165.4431" y="-46.3" font-family="Helvetica,sans-Serif" font-size="11.00" fill="#000000"> &#160;</text>
<polygon fill="#ffffff" stroke="transparent" points="218,-41.2 218,-58.2 325,-58.2 325,-41.2 218,-41.2"/>
<text text-anchor="start" x="307.4053" y="-46.3" font-family="Helvetica,sans-Serif" font-size="11.00" fill="#000000">4 &gt;</text>
<polygon fill="#000000" stroke="#000000" points="119,-41.2 119,-58.2 119,-58.2 119,-41.2 119,-41.2"/>
<polygon fill="#000000" stroke="#000000" points="218,-41.2 218,-58.2 218,-58.2 218,-41.2 218,-41.2"/>
<polygon fill="none" stroke="#000000" stroke-width="2" points="9,-39.2 9,-479.2 327,-479.2 327,-39.2 9,-39.2"/>
</a>
</g>
</g>
<!-- UserClaims&#45;&gt;Users -->
<g id="edge1" class="edge">
<title>UserClaims:w&#45;&gt;Users:e</title>
<path fill="none" stroke="#000000" d="M390.2001,-642.3478C321.0841,-622.1854 416.082,-444.2 326,-444.2"/>
<polygon fill="#000000" stroke="#000000" points="396.5663,-643.1723 404.0375,-647.7702 400.5331,-643.6862 404.5,-644.2 404.5,-644.2 404.5,-644.2 400.5331,-643.6862 404.9625,-640.6298 396.5663,-643.1723 396.5663,-643.1723"/>
<ellipse fill="none" stroke="#000000" cx="393.3928" cy="-642.7613" rx="3.2" ry="3.2"/>
</g>
<!-- UserLogins -->
<g id="node3" class="node">
<title>UserLogins</title>
<g id="a_node3"><a xlink:href="../../tables/UserLogins.html" xlink:title="UserLogins" target="_top">
<polygon fill="#ffffff" stroke="transparent" points="377,-447.7 377,-574.7 556,-574.7 556,-447.7 377,-447.7"/>
<polygon fill="#f5f5f5" stroke="transparent" points="377.5,-551.2 377.5,-574.2 556.5,-574.2 556.5,-551.2 377.5,-551.2"/>
<polygon fill="none" stroke="#000000" points="377.5,-551.2 377.5,-574.2 556.5,-574.2 556.5,-551.2 377.5,-551.2"/>
<text text-anchor="start" x="382.5" y="-559.8" font-family="Helvetica,sans-Serif" font-weight="bold" font-size="11.00" fill="#000000">UserLogins</text>
<text text-anchor="start" x="521.5437" y="-559.3" font-family="Helvetica,sans-Serif" font-size="11.00" fill="#000000">[table]</text>
<polygon fill="none" stroke="#000000" points="377.5,-529.2 377.5,-551.2 556.5,-551.2 556.5,-529.2 377.5,-529.2"/>
<image xlink:href="../../images/primaryKeys.png" width="11px" height="12px" preserveAspectRatio="xMinYMin meet" x="382.5" y="-546.2"/>
<text text-anchor="start" x="397.5" y="-536.3" font-family="Helvetica,sans-Serif" font-size="11.00" fill="#000000">LoginProvider</text>
<polygon fill="none" stroke="#000000" points="377.5,-507.2 377.5,-529.2 556.5,-529.2 556.5,-507.2 377.5,-507.2"/>
<image xlink:href="../../images/primaryKeys.png" width="11px" height="12px" preserveAspectRatio="xMinYMin meet" x="382.5" y="-524.2"/>
<text text-anchor="start" x="397.5" y="-514.3" font-family="Helvetica,sans-Serif" font-size="11.00" fill="#000000">ProviderKey</text>
<polygon fill="#ffffff" stroke="transparent" points="377.5,-485.2 377.5,-507.2 556.5,-507.2 556.5,-485.2 377.5,-485.2"/>
<polygon fill="none" stroke="#000000" points="377.5,-485.2 377.5,-507.2 556.5,-507.2 556.5,-485.2 377.5,-485.2"/>
<image xlink:href="../../images/foreignKeys.png" width="11px" height="12px" preserveAspectRatio="xMinYMin meet" x="382.5" y="-502.2"/>
<text text-anchor="start" x="397.5" y="-492.3" font-family="Helvetica,sans-Serif" font-size="11.00" fill="#000000">UserId</text>
<polygon fill="none" stroke="#000000" points="377.5,-466.2 377.5,-485.2 556.5,-485.2 556.5,-466.2 377.5,-466.2"/>
<text text-anchor="start" x="380.5" y="-472.3" font-family="Helvetica,sans-Serif" font-size="11.00" fill="#000000">...</text>
<polygon fill="#ffffff" stroke="transparent" points="377.5,-447.2 377.5,-466.2 556.5,-466.2 556.5,-447.2 377.5,-447.2"/>
<polygon fill="none" stroke="#000000" points="377.5,-447.2 377.5,-466.2 556.5,-466.2 556.5,-447.2 377.5,-447.2"/>
<polygon fill="#ffffff" stroke="transparent" points="378.5,-448.2 378.5,-465.2 443.5,-465.2 443.5,-448.2 378.5,-448.2"/>
<text text-anchor="start" x="380.5" y="-453.3" font-family="Helvetica,sans-Serif" font-size="11.00" fill="#000000">&lt; 1</text>
<polygon fill="#ffffff" stroke="transparent" points="443.5,-448.2 443.5,-465.2 499.5,-465.2 499.5,-448.2 443.5,-448.2"/>
<text text-anchor="start" x="468.4431" y="-453.3" font-family="Helvetica,sans-Serif" font-size="11.00" fill="#000000"> &#160;</text>
<polygon fill="#ffffff" stroke="transparent" points="499.5,-448.2 499.5,-465.2 555.5,-465.2 555.5,-448.2 499.5,-448.2"/>
<text text-anchor="start" x="547.3862" y="-453.3" font-family="Helvetica,sans-Serif" font-size="11.00" fill="#000000"> &#160;</text>
<polygon fill="#000000" stroke="#000000" points="443.5,-448.2 443.5,-465.2 443.5,-465.2 443.5,-448.2 443.5,-448.2"/>
<polygon fill="#000000" stroke="#000000" points="499.5,-448.2 499.5,-465.2 499.5,-465.2 499.5,-448.2 499.5,-448.2"/>
</a>
</g>
</g>
<!-- UserLogins&#45;&gt;Users -->
<g id="edge2" class="edge">
<title>UserLogins:w&#45;&gt;Users:e</title>
<path fill="none" stroke="#000000" d="M363.4561,-491.4012C348.4356,-478.5281 352.4284,-444.2 326,-444.2"/>
<polygon fill="#000000" stroke="#000000" points="369.9297,-493.6132 376.3359,-499.6066 373.7149,-494.9066 377.5,-496.2 377.5,-496.2 377.5,-496.2 373.7149,-494.9066 378.6641,-492.7934 369.9297,-493.6132 369.9297,-493.6132"/>
<ellipse fill="none" stroke="#000000" cx="366.9016" cy="-492.5785" rx="3.2" ry="3.2"/>
</g>
<!-- UserRoles -->
<g id="node4" class="node">
<title>UserRoles</title>
<g id="a_node4"><a xlink:href="../../tables/UserRoles.html" xlink:title="UserRoles" target="_top">
<polygon fill="#ffffff" stroke="transparent" points="404.5,-321.7 404.5,-426.7 528.5,-426.7 528.5,-321.7 404.5,-321.7"/>
<polygon fill="#f5f5f5" stroke="transparent" points="404.5,-403.2 404.5,-426.2 528.5,-426.2 528.5,-403.2 404.5,-403.2"/>
<polygon fill="none" stroke="#000000" points="404.5,-403.2 404.5,-426.2 528.5,-426.2 528.5,-403.2 404.5,-403.2"/>
<text text-anchor="start" x="409.5" y="-411.8" font-family="Helvetica,sans-Serif" font-weight="bold" font-size="11.00" fill="#000000">UserRoles</text>
<text text-anchor="start" x="493.5437" y="-411.3" font-family="Helvetica,sans-Serif" font-size="11.00" fill="#000000">[table]</text>
<polygon fill="none" stroke="#000000" points="404.5,-381.2 404.5,-403.2 528.5,-403.2 528.5,-381.2 404.5,-381.2"/>
<image xlink:href="../../images/primaryKeys.png" width="11px" height="12px" preserveAspectRatio="xMinYMin meet" x="409.5" y="-398.2"/>
<text text-anchor="start" x="424.5" y="-388.3" font-family="Helvetica,sans-Serif" font-size="11.00" fill="#000000">UserId</text>
<polygon fill="none" stroke="#000000" points="404.5,-359.2 404.5,-381.2 528.5,-381.2 528.5,-359.2 404.5,-359.2"/>
<image xlink:href="../../images/primaryKeys.png" width="11px" height="12px" preserveAspectRatio="xMinYMin meet" x="409.5" y="-376.2"/>
<text text-anchor="start" x="424.5" y="-366.3" font-family="Helvetica,sans-Serif" font-size="11.00" fill="#000000">RoleId</text>
<polygon fill="none" stroke="#000000" points="404.5,-340.2 404.5,-359.2 528.5,-359.2 528.5,-340.2 404.5,-340.2"/>
<text text-anchor="start" x="407.5" y="-346.3" font-family="Helvetica,sans-Serif" font-size="11.00" fill="#000000">...</text>
<polygon fill="#ffffff" stroke="transparent" points="404.5,-321.2 404.5,-340.2 528.5,-340.2 528.5,-321.2 404.5,-321.2"/>
<polygon fill="none" stroke="#000000" points="404.5,-321.2 404.5,-340.2 528.5,-340.2 528.5,-321.2 404.5,-321.2"/>
<polygon fill="#ffffff" stroke="transparent" points="405.5,-322.2 405.5,-339.2 452.5,-339.2 452.5,-322.2 405.5,-322.2"/>
<text text-anchor="start" x="407.5" y="-327.3" font-family="Helvetica,sans-Serif" font-size="11.00" fill="#000000">&lt; 2</text>
<polygon fill="#ffffff" stroke="transparent" points="452.5,-322.2 452.5,-339.2 490.5,-339.2 490.5,-322.2 452.5,-322.2"/>
<text text-anchor="start" x="468.4431" y="-327.3" font-family="Helvetica,sans-Serif" font-size="11.00" fill="#000000"> &#160;</text>
<polygon fill="#ffffff" stroke="transparent" points="490.5,-322.2 490.5,-339.2 527.5,-339.2 527.5,-322.2 490.5,-322.2"/>
<text text-anchor="start" x="519.3862" y="-327.3" font-family="Helvetica,sans-Serif" font-size="11.00" fill="#000000"> &#160;</text>
<polygon fill="#000000" stroke="#000000" points="452.5,-322.2 452.5,-339.2 452.5,-339.2 452.5,-322.2 452.5,-322.2"/>
<polygon fill="#000000" stroke="#000000" points="490.5,-322.2 490.5,-339.2 490.5,-339.2 490.5,-322.2 490.5,-322.2"/>
</a>
</g>
</g>
<!-- UserRoles&#45;&gt;Users -->
<g id="edge3" class="edge">
<title>UserRoles:w&#45;&gt;Users:e</title>
<path fill="none" stroke="#000000" d="M390.0949,-394.7081C363.2017,-405.0953 362.2911,-444.2 326,-444.2"/>
<polygon fill="#000000" stroke="#000000" points="396.6186,-393.5723 405.1175,-395.7466 400.5593,-392.8861 404.5,-392.2 404.5,-392.2 404.5,-392.2 400.5593,-392.8861 403.8825,-388.6534 396.6186,-393.5723 396.6186,-393.5723"/>
<ellipse fill="none" stroke="#000000" cx="393.466" cy="-394.1212" rx="3.2" ry="3.2"/>
</g>
<!-- UserTokens -->
<g id="node5" class="node">
<title>UserTokens</title>
<g id="a_node5"><a xlink:href="../../tables/UserTokens.html" xlink:title="UserTokens" target="_top">
<polygon fill="#ffffff" stroke="transparent" points="404.5,-173.7 404.5,-300.7 528.5,-300.7 528.5,-173.7 404.5,-173.7"/>
<polygon fill="#f5f5f5" stroke="transparent" points="404.5,-277.2 404.5,-300.2 528.5,-300.2 528.5,-277.2 404.5,-277.2"/>
<polygon fill="none" stroke="#000000" points="404.5,-277.2 404.5,-300.2 528.5,-300.2 528.5,-277.2 404.5,-277.2"/>
<text text-anchor="start" x="409.5" y="-285.8" font-family="Helvetica,sans-Serif" font-weight="bold" font-size="11.00" fill="#000000">UserTokens</text>
<text text-anchor="start" x="494.0219" y="-285.3" font-family="Helvetica,sans-Serif" font-size="11.00" fill="#000000">[table]</text>
<polygon fill="none" stroke="#000000" points="404.5,-255.2 404.5,-277.2 528.5,-277.2 528.5,-255.2 404.5,-255.2"/>
<image xlink:href="../../images/primaryKeys.png" width="11px" height="12px" preserveAspectRatio="xMinYMin meet" x="409.5" y="-272.2"/>
<text text-anchor="start" x="424.5" y="-262.3" font-family="Helvetica,sans-Serif" font-size="11.00" fill="#000000">UserId</text>
<polygon fill="none" stroke="#000000" points="404.5,-233.2 404.5,-255.2 528.5,-255.2 528.5,-233.2 404.5,-233.2"/>
<image xlink:href="../../images/primaryKeys.png" width="11px" height="12px" preserveAspectRatio="xMinYMin meet" x="409.5" y="-250.2"/>
<text text-anchor="start" x="424.5" y="-240.3" font-family="Helvetica,sans-Serif" font-size="11.00" fill="#000000">LoginProvider</text>
<polygon fill="none" stroke="#000000" points="404.5,-211.2 404.5,-233.2 528.5,-233.2 528.5,-211.2 404.5,-211.2"/>
<image xlink:href="../../images/primaryKeys.png" width="11px" height="12px" preserveAspectRatio="xMinYMin meet" x="409.5" y="-228.2"/>
<text text-anchor="start" x="424.5" y="-218.3" font-family="Helvetica,sans-Serif" font-size="11.00" fill="#000000">Name</text>
<polygon fill="none" stroke="#000000" points="404.5,-192.2 404.5,-211.2 528.5,-211.2 528.5,-192.2 404.5,-192.2"/>
<text text-anchor="start" x="407.5" y="-198.3" font-family="Helvetica,sans-Serif" font-size="11.00" fill="#000000">...</text>
<polygon fill="#ffffff" stroke="transparent" points="404.5,-173.2 404.5,-192.2 528.5,-192.2 528.5,-173.2 404.5,-173.2"/>
<polygon fill="none" stroke="#000000" points="404.5,-173.2 404.5,-192.2 528.5,-192.2 528.5,-173.2 404.5,-173.2"/>
<polygon fill="#ffffff" stroke="transparent" points="405.5,-174.2 405.5,-191.2 452.5,-191.2 452.5,-174.2 405.5,-174.2"/>
<text text-anchor="start" x="407.5" y="-179.3" font-family="Helvetica,sans-Serif" font-size="11.00" fill="#000000">&lt; 1</text>
<polygon fill="#ffffff" stroke="transparent" points="452.5,-174.2 452.5,-191.2 490.5,-191.2 490.5,-174.2 452.5,-174.2"/>
<text text-anchor="start" x="468.4431" y="-179.3" font-family="Helvetica,sans-Serif" font-size="11.00" fill="#000000"> &#160;</text>
<polygon fill="#ffffff" stroke="transparent" points="490.5,-174.2 490.5,-191.2 527.5,-191.2 527.5,-174.2 490.5,-174.2"/>
<text text-anchor="start" x="519.3862" y="-179.3" font-family="Helvetica,sans-Serif" font-size="11.00" fill="#000000"> &#160;</text>
<polygon fill="#000000" stroke="#000000" points="452.5,-174.2 452.5,-191.2 452.5,-191.2 452.5,-174.2 452.5,-174.2"/>
<polygon fill="#000000" stroke="#000000" points="490.5,-174.2 490.5,-191.2 490.5,-191.2 490.5,-174.2 490.5,-174.2"/>
</a>
</g>
</g>
<!-- UserTokens&#45;&gt;Users -->
<g id="edge4" class="edge">
<title>UserTokens:w&#45;&gt;Users:e</title>
<path fill="none" stroke="#000000" d="M389.9391,-268.323C329.4579,-288.4059 406.8899,-444.2 326,-444.2"/>
<polygon fill="#000000" stroke="#000000" points="396.5837,-267.3543 405.0194,-269.7623 400.5419,-266.7771 404.5,-266.2 404.5,-266.2 404.5,-266.2 400.5419,-266.7771 403.9806,-262.6377 396.5837,-267.3543 396.5837,-267.3543"/>
<ellipse fill="none" stroke="#000000" cx="393.4172" cy="-267.816" rx="3.2" ry="3.2"/>
</g>
</g>
</svg>
