<?xml version="1.0" encoding="UTF-8" standalone="no"?>
<!DOCTYPE svg PUBLIC "-//W3C//DTD SVG 1.1//EN"
 "http://www.w3.org/Graphics/SVG/1.1/DTD/svg11.dtd">
<!-- Generated by graphviz version 2.40.1 (20161225.0304)
 -->
<!-- Title: twoDegreesRelationshipsDiagram Pages: 1 -->
<svg width="517pt" height="497pt"
 viewBox="0.00 0.00 517.00 496.70" xmlns="http://www.w3.org/2000/svg" xmlns:xlink="http://www.w3.org/1999/xlink">
<g id="graph0" class="graph" transform="scale(1 1) rotate(0) translate(4 492.7)">
<title>twoDegreesRelationshipsDiagram</title>
<polygon fill="#ffffff" stroke="transparent" points="-4,4 -4,-492.7 513,-492.7 513,4 -4,4"/>
<text text-anchor="middle" x="72.4936" y="-7.3" font-family="Helvetica,sans-Serif" font-size="11.00" fill="#000000">Generated by SchemaSpy</text>
<!-- UserClaims -->
<g id="node1" class="node">
<title>UserClaims</title>
<g id="a_node1"><a xlink:href="../../tables/UserClaims.html" xlink:title="UserClaims" target="_top">
<polygon fill="#ffffff" stroke="transparent" points="318.5,-423.7 318.5,-484.7 439.5,-484.7 439.5,-423.7 318.5,-423.7"/>
<polygon fill="#f5f5f5" stroke="transparent" points="319,-461.2 319,-484.2 440,-484.2 440,-461.2 319,-461.2"/>
<polygon fill="none" stroke="#000000" points="319,-461.2 319,-484.2 440,-484.2 440,-461.2 319,-461.2"/>
<text text-anchor="start" x="324" y="-469.8" font-family="Helvetica,sans-Serif" font-weight="bold" font-size="11.00" fill="#000000">UserClaims</text>
<text text-anchor="start" x="405.5219" y="-469.3" font-family="Helvetica,sans-Serif" font-size="11.00" fill="#000000">[table]</text>
<polygon fill="none" stroke="#000000" points="319,-442.2 319,-461.2 440,-461.2 440,-442.2 319,-442.2"/>
<text text-anchor="start" x="322" y="-448.3" font-family="Helvetica,sans-Serif" font-size="11.00" fill="#000000">...</text>
<polygon fill="#ffffff" stroke="transparent" points="319,-423.2 319,-442.2 440,-442.2 440,-423.2 319,-423.2"/>
<polygon fill="none" stroke="#000000" points="319,-423.2 319,-442.2 440,-442.2 440,-423.2 319,-423.2"/>
<polygon fill="#ffffff" stroke="transparent" points="320,-424.2 320,-441.2 366,-441.2 366,-424.2 320,-424.2"/>
<text text-anchor="start" x="322" y="-429.3" font-family="Helvetica,sans-Serif" font-size="11.00" fill="#000000">&lt; 1</text>
<polygon fill="#ffffff" stroke="transparent" points="366,-424.2 366,-441.2 403,-441.2 403,-424.2 366,-424.2"/>
<text text-anchor="start" x="381.4431" y="-429.3" font-family="Helvetica,sans-Serif" font-size="11.00" fill="#000000"> &#160;</text>
<polygon fill="#ffffff" stroke="transparent" points="403,-424.2 403,-441.2 439,-441.2 439,-424.2 403,-424.2"/>
<text text-anchor="start" x="430.8862" y="-429.3" font-family="Helvetica,sans-Serif" font-size="11.00" fill="#000000"> &#160;</text>
<polygon fill="#000000" stroke="#000000" points="366,-424.2 366,-441.2 366,-441.2 366,-424.2 366,-424.2"/>
<polygon fill="#000000" stroke="#000000" points="403,-424.2 403,-441.2 403,-441.2 403,-424.2 403,-424.2"/>
</a>
</g>
</g>
<!-- Users -->
<g id="node2" class="node">
<title>Users</title>
<g id="a_node2"><a xlink:href="../../tables/Users.html" xlink:title="Users" target="_top">
<polygon fill="#ffffff" stroke="transparent" points="8,-235.7 8,-362.7 208,-362.7 208,-235.7 8,-235.7"/>
<polygon fill="#f5f5f5" stroke="transparent" points="8,-339.2 8,-362.2 208,-362.2 208,-339.2 8,-339.2"/>
<polygon fill="none" stroke="#000000" points="8,-339.2 8,-362.2 208,-362.2 208,-339.2 8,-339.2"/>
<text text-anchor="start" x="13" y="-347.8" font-family="Helvetica,sans-Serif" font-weight="bold" font-size="11.00" fill="#000000">Users</text>
<text text-anchor="start" x="173.0437" y="-347.3" font-family="Helvetica,sans-Serif" font-size="11.00" fill="#000000">[table]</text>
<polygon fill="none" stroke="#000000" points="8,-317.2 8,-339.2 208,-339.2 208,-317.2 8,-317.2"/>
<image xlink:href="../../images/primaryKeys.png" width="11px" height="12px" preserveAspectRatio="xMinYMin meet" x="13" y="-334.2"/>
<text text-anchor="start" x="28" y="-324.3" font-family="Helvetica,sans-Serif" font-size="11.00" fill="#000000">Id</text>
<polygon fill="#ffffff" stroke="transparent" points="8,-295.2 8,-317.2 208,-317.2 208,-295.2 8,-295.2"/>
<polygon fill="none" stroke="#000000" points="8,-295.2 8,-317.2 208,-317.2 208,-295.2 8,-295.2"/>
<text text-anchor="start" x="28" y="-302.3" font-family="Helvetica,sans-Serif" font-size="11.00" fill="#000000">NormalizedUserName</text>
<polygon fill="#ffffff" stroke="transparent" points="8,-273.2 8,-295.2 208,-295.2 208,-273.2 8,-273.2"/>
<polygon fill="none" stroke="#000000" points="8,-273.2 8,-295.2 208,-295.2 208,-273.2 8,-273.2"/>
<text text-anchor="start" x="28" y="-280.3" font-family="Helvetica,sans-Serif" font-size="11.00" fill="#000000">NormalizedEmail</text>
<polygon fill="none" stroke="#000000" points="8,-254.2 8,-273.2 208,-273.2 208,-254.2 8,-254.2"/>
<text text-anchor="start" x="11" y="-260.3" font-family="Helvetica,sans-Serif" font-size="11.00" fill="#000000">...</text>
<polygon fill="#ffffff" stroke="transparent" points="8,-235.2 8,-254.2 208,-254.2 208,-235.2 8,-235.2"/>
<polygon fill="none" stroke="#000000" points="8,-235.2 8,-254.2 208,-254.2 208,-235.2 8,-235.2"/>
<polygon fill="#ffffff" stroke="transparent" points="9,-236.2 9,-253.2 72,-253.2 72,-236.2 9,-236.2"/>
<text text-anchor="start" x="11" y="-241.3" font-family="Helvetica,sans-Serif" font-size="11.00" fill="#000000"> &#160;</text>
<polygon fill="#ffffff" stroke="transparent" points="72,-236.2 72,-253.2 135,-253.2 135,-236.2 72,-236.2"/>
<text text-anchor="start" x="100.4431" y="-241.3" font-family="Helvetica,sans-Serif" font-size="11.00" fill="#000000"> &#160;</text>
<polygon fill="#ffffff" stroke="transparent" points="135,-236.2 135,-253.2 207,-253.2 207,-236.2 135,-236.2"/>
<text text-anchor="start" x="189.4053" y="-241.3" font-family="Helvetica,sans-Serif" font-size="11.00" fill="#000000">4 &gt;</text>
<polygon fill="#000000" stroke="#000000" points="72,-236.2 72,-253.2 72,-253.2 72,-236.2 72,-236.2"/>
<polygon fill="#000000" stroke="#000000" points="135,-236.2 135,-253.2 135,-253.2 135,-236.2 135,-236.2"/>
</a>
</g>
</g>
<!-- UserClaims&#45;&gt;Users -->
<g id="edge1" class="edge">
<title>UserClaims:w&#45;&gt;Users:e</title>
<path fill="none" stroke="#000000" d="M304.4379,-450.3352C280.1692,-447.1217 269.7036,-434.9201 249,-413.2 220.0608,-382.84 249.9429,-328.2 208,-328.2"/>
<polygon fill="#000000" stroke="#000000" points="311.0141,-450.7257 318.7866,-454.7937 315.007,-450.9628 319,-451.2 319,-451.2 319,-451.2 315.007,-450.9628 319.2134,-447.6063 311.0141,-450.7257 311.0141,-450.7257"/>
<ellipse fill="none" stroke="#000000" cx="307.8197" cy="-450.536" rx="3.2" ry="3.2"/>
</g>
<!-- UserLogins -->
<g id="node3" class="node">
<title>UserLogins</title>
<g id="a_node3"><a xlink:href="../../tables/UserLogins.html" xlink:title="UserLogins" target="_top">
<polygon fill="#ffffff" stroke="transparent" points="319,-341.7 319,-402.7 439,-402.7 439,-341.7 319,-341.7"/>
<polygon fill="#f5f5f5" stroke="transparent" points="319,-379.2 319,-402.2 439,-402.2 439,-379.2 319,-379.2"/>
<polygon fill="none" stroke="#000000" points="319,-379.2 319,-402.2 439,-402.2 439,-379.2 319,-379.2"/>
<text text-anchor="start" x="324" y="-387.8" font-family="Helvetica,sans-Serif" font-weight="bold" font-size="11.00" fill="#000000">UserLogins</text>
<text text-anchor="start" x="404.5219" y="-387.3" font-family="Helvetica,sans-Serif" font-size="11.00" fill="#000000">[table]</text>
<polygon fill="none" stroke="#000000" points="319,-360.2 319,-379.2 439,-379.2 439,-360.2 319,-360.2"/>
<text text-anchor="start" x="322" y="-366.3" font-family="Helvetica,sans-Serif" font-size="11.00" fill="#000000">...</text>
<polygon fill="#ffffff" stroke="transparent" points="319,-341.2 319,-360.2 439,-360.2 439,-341.2 319,-341.2"/>
<polygon fill="none" stroke="#000000" points="319,-341.2 319,-360.2 439,-360.2 439,-341.2 319,-341.2"/>
<polygon fill="#ffffff" stroke="transparent" points="320,-342.2 320,-359.2 366,-359.2 366,-342.2 320,-342.2"/>
<text text-anchor="start" x="322" y="-347.3" font-family="Helvetica,sans-Serif" font-size="11.00" fill="#000000">&lt; 1</text>
<polygon fill="#ffffff" stroke="transparent" points="366,-342.2 366,-359.2 402,-359.2 402,-342.2 366,-342.2"/>
<text text-anchor="start" x="380.9431" y="-347.3" font-family="Helvetica,sans-Serif" font-size="11.00" fill="#000000"> &#160;</text>
<polygon fill="#ffffff" stroke="transparent" points="402,-342.2 402,-359.2 438,-359.2 438,-342.2 402,-342.2"/>
<text text-anchor="start" x="429.8862" y="-347.3" font-family="Helvetica,sans-Serif" font-size="11.00" fill="#000000"> &#160;</text>
<polygon fill="#000000" stroke="#000000" points="366,-342.2 366,-359.2 366,-359.2 366,-342.2 366,-342.2"/>
<polygon fill="#000000" stroke="#000000" points="402,-342.2 402,-359.2 402,-359.2 402,-342.2 402,-342.2"/>
</a>
</g>
</g>
<!-- UserLogins&#45;&gt;Users -->
<g id="edge2" class="edge">
<title>UserLogins:w&#45;&gt;Users:e</title>
<path fill="none" stroke="#000000" d="M304.5841,-368.0606C264.7858,-361.4388 255.3526,-328.2 208,-328.2"/>
<polygon fill="#000000" stroke="#000000" points="311.0249,-368.5696 318.7163,-372.7888 315.0124,-368.8848 319,-369.2 319,-369.2 319,-369.2 315.0124,-368.8848 319.2837,-365.6112 311.0249,-368.5696 311.0249,-368.5696"/>
<ellipse fill="none" stroke="#000000" cx="307.8348" cy="-368.3175" rx="3.2" ry="3.2"/>
</g>
<!-- UserRoles -->
<g id="node4" class="node">
<title>UserRoles</title>
<g id="a_node4"><a xlink:href="../../tables/UserRoles.html" xlink:title="UserRoles" target="_top">
<polygon fill="#ffffff" stroke="transparent" points="323,-259.7 323,-320.7 435,-320.7 435,-259.7 323,-259.7"/>
<polygon fill="#f5f5f5" stroke="transparent" points="323,-297.2 323,-320.2 435,-320.2 435,-297.2 323,-297.2"/>
<polygon fill="none" stroke="#000000" points="323,-297.2 323,-320.2 435,-320.2 435,-297.2 323,-297.2"/>
<text text-anchor="start" x="328" y="-305.8" font-family="Helvetica,sans-Serif" font-weight="bold" font-size="11.00" fill="#000000">UserRoles</text>
<text text-anchor="start" x="400.5219" y="-305.3" font-family="Helvetica,sans-Serif" font-size="11.00" fill="#000000">[table]</text>
<polygon fill="none" stroke="#000000" points="323,-278.2 323,-297.2 435,-297.2 435,-278.2 323,-278.2"/>
<text text-anchor="start" x="326" y="-284.3" font-family="Helvetica,sans-Serif" font-size="11.00" fill="#000000">...</text>
<polygon fill="#ffffff" stroke="transparent" points="323,-259.2 323,-278.2 435,-278.2 435,-259.2 323,-259.2"/>
<polygon fill="none" stroke="#000000" points="323,-259.2 323,-278.2 435,-278.2 435,-259.2 323,-259.2"/>
<polygon fill="#ffffff" stroke="transparent" points="324,-260.2 324,-277.2 367,-277.2 367,-260.2 324,-260.2"/>
<text text-anchor="start" x="326" y="-265.3" font-family="Helvetica,sans-Serif" font-size="11.00" fill="#000000">&lt; 2</text>
<polygon fill="#ffffff" stroke="transparent" points="367,-260.2 367,-277.2 401,-277.2 401,-260.2 367,-260.2"/>
<text text-anchor="start" x="380.9431" y="-265.3" font-family="Helvetica,sans-Serif" font-size="11.00" fill="#000000"> &#160;</text>
<polygon fill="#ffffff" stroke="transparent" points="401,-260.2 401,-277.2 434,-277.2 434,-260.2 401,-260.2"/>
<text text-anchor="start" x="425.8862" y="-265.3" font-family="Helvetica,sans-Serif" font-size="11.00" fill="#000000"> &#160;</text>
<polygon fill="#000000" stroke="#000000" points="367,-260.2 367,-277.2 367,-277.2 367,-260.2 367,-260.2"/>
<polygon fill="#000000" stroke="#000000" points="401,-260.2 401,-277.2 401,-277.2 401,-260.2 401,-260.2"/>
</a>
</g>
</g>
<!-- UserRoles&#45;&gt;Users -->
<g id="edge3" class="edge">
<title>UserRoles:w&#45;&gt;Users:e</title>
<path fill="none" stroke="#000000" d="M308.381,-288.2967C267.0173,-294.8168 256.9632,-328.2 208,-328.2"/>
<polygon fill="#000000" stroke="#000000" points="315.0224,-287.7985 323.2693,-290.7899 319.0112,-287.4992 323,-287.2 323,-287.2 323,-287.2 319.0112,-287.4992 322.7307,-283.6101 315.0224,-287.7985 315.0224,-287.7985"/>
<ellipse fill="none" stroke="#000000" cx="311.8314" cy="-288.0379" rx="3.2" ry="3.2"/>
</g>
<!-- UserTokens -->
<g id="node5" class="node">
<title>UserTokens</title>
<g id="a_node5"><a xlink:href="../../tables/UserTokens.html" xlink:title="UserTokens" target="_top">
<polygon fill="#ffffff" stroke="transparent" points="257,-38.2 257,-238.2 501,-238.2 501,-38.2 257,-38.2"/>
<polygon fill="#f5f5f5" stroke="transparent" points="259,-213.2 259,-236.2 499,-236.2 499,-213.2 259,-213.2"/>
<polygon fill="none" stroke="#000000" points="259,-213.2 259,-236.2 499,-236.2 499,-213.2 259,-213.2"/>
<text text-anchor="start" x="264" y="-221.8" font-family="Helvetica,sans-Serif" font-weight="bold" font-size="11.00" fill="#000000">UserTokens</text>
<text text-anchor="start" x="464.0437" y="-221.3" font-family="Helvetica,sans-Serif" font-size="11.00" fill="#000000">[table]</text>
<polygon fill="none" stroke="#000000" points="259,-191.2 259,-213.2 383,-213.2 383,-191.2 259,-191.2"/>
<image xlink:href="../../images/primaryKeys.png" width="11px" height="12px" preserveAspectRatio="xMinYMin meet" x="264" y="-208.2"/>
<text text-anchor="start" x="279" y="-198.3" font-family="Helvetica,sans-Serif" font-size="11.00" fill="#000000">UserId</text>
<polygon fill="none" stroke="#000000" points="383,-191.2 383,-213.2 499,-213.2 499,-191.2 383,-191.2"/>
<text text-anchor="start" x="386" y="-198.9" font-family="Helvetica,sans-Serif" font-size="11.00" fill="#000000">int[4]</text>
<polygon fill="none" stroke="#000000" points="259,-169.2 259,-191.2 383,-191.2 383,-169.2 259,-169.2"/>
<image xlink:href="../../images/primaryKeys.png" width="11px" height="12px" preserveAspectRatio="xMinYMin meet" x="264" y="-186.2"/>
<text text-anchor="start" x="279" y="-176.3" font-family="Helvetica,sans-Serif" font-size="11.00" fill="#000000">LoginProvider</text>
<polygon fill="none" stroke="#000000" points="383,-169.2 383,-191.2 499,-191.2 499,-169.2 383,-169.2"/>
<text text-anchor="start" x="386" y="-176.9" font-family="Helvetica,sans-Serif" font-size="11.00" fill="#000000">nvarchar[256]</text>
<polygon fill="none" stroke="#000000" points="259,-147.2 259,-169.2 383,-169.2 383,-147.2 259,-147.2"/>
<image xlink:href="../../images/primaryKeys.png" width="11px" height="12px" preserveAspectRatio="xMinYMin meet" x="264" y="-164.2"/>
<text text-anchor="start" x="279" y="-154.3" font-family="Helvetica,sans-Serif" font-size="11.00" fill="#000000">Name</text>
<polygon fill="none" stroke="#000000" points="383,-147.2 383,-169.2 499,-169.2 499,-147.2 383,-147.2"/>
<text text-anchor="start" x="386" y="-154.9" font-family="Helvetica,sans-Serif" font-size="11.00" fill="#000000">nvarchar[256]</text>
<polygon fill="none" stroke="#000000" points="259,-125.2 259,-147.2 383,-147.2 383,-125.2 259,-125.2"/>
<text text-anchor="start" x="279" y="-132.3" font-family="Helvetica,sans-Serif" font-size="11.00" fill="#000000">CreatedAtUtc</text>
<polygon fill="none" stroke="#000000" points="383,-125.2 383,-147.2 499,-147.2 499,-125.2 383,-125.2"/>
<text text-anchor="start" x="386" y="-132.9" font-family="Helvetica,sans-Serif" font-size="11.00" fill="#000000">datetime2[16,7]</text>
<polygon fill="none" stroke="#000000" points="259,-103.2 259,-125.2 383,-125.2 383,-103.2 259,-103.2"/>
<text text-anchor="start" x="279" y="-110.3" font-family="Helvetica,sans-Serif" font-size="11.00" fill="#000000">UpdatedAtUtc</text>
<polygon fill="none" stroke="#000000" points="383,-103.2 383,-125.2 499,-125.2 499,-103.2 383,-103.2"/>
<text text-anchor="start" x="386" y="-110.9" font-family="Helvetica,sans-Serif" font-size="11.00" fill="#000000">datetime2[16,7]</text>
<polygon fill="none" stroke="#000000" points="259,-81.2 259,-103.2 383,-103.2 383,-81.2 259,-81.2"/>
<text text-anchor="start" x="279" y="-88.3" font-family="Helvetica,sans-Serif" font-size="11.00" fill="#000000">RowVersion</text>
<polygon fill="none" stroke="#000000" points="383,-81.2 383,-103.2 499,-103.2 499,-81.2 383,-81.2"/>
<text text-anchor="start" x="386" y="-88.9" font-family="Helvetica,sans-Serif" font-size="11.00" fill="#000000">timestamp[8]</text>
<polygon fill="none" stroke="#000000" points="259,-59.2 259,-81.2 383,-81.2 383,-59.2 259,-59.2"/>
<text text-anchor="start" x="279" y="-66.3" font-family="Helvetica,sans-Serif" font-size="11.00" fill="#000000">Value</text>
<polygon fill="none" stroke="#000000" points="383,-59.2 383,-81.2 499,-81.2 499,-59.2 383,-59.2"/>
<text text-anchor="start" x="385.9769" y="-66.9" font-family="Helvetica,sans-Serif" font-size="11.00" fill="#000000">nvarchar[2147483647]</text>
<polygon fill="#ffffff" stroke="transparent" points="259,-40.2 259,-59.2 499,-59.2 499,-40.2 259,-40.2"/>
<polygon fill="none" stroke="#000000" points="259,-40.2 259,-59.2 499,-59.2 499,-40.2 259,-40.2"/>
<polygon fill="#ffffff" stroke="transparent" points="260,-41.2 260,-58.2 343,-58.2 343,-41.2 260,-41.2"/>
<text text-anchor="start" x="262" y="-46.3" font-family="Helvetica,sans-Serif" font-size="11.00" fill="#000000">&lt; 1</text>
<polygon fill="#ffffff" stroke="transparent" points="343,-41.2 343,-58.2 416,-58.2 416,-41.2 343,-41.2"/>
<text text-anchor="start" x="376.4431" y="-46.3" font-family="Helvetica,sans-Serif" font-size="11.00" fill="#000000"> &#160;</text>
<polygon fill="#ffffff" stroke="transparent" points="416,-41.2 416,-58.2 498,-58.2 498,-41.2 416,-41.2"/>
<text text-anchor="start" x="480.4053" y="-46.3" font-family="Helvetica,sans-Serif" font-size="11.00" fill="#000000">0 &gt;</text>
<polygon fill="#000000" stroke="#000000" points="343,-41.2 343,-58.2 343,-58.2 343,-41.2 343,-41.2"/>
<polygon fill="#000000" stroke="#000000" points="416,-41.2 416,-58.2 416,-58.2 416,-41.2 416,-41.2"/>
<polygon fill="none" stroke="#000000" stroke-width="2" points="258,-39.2 258,-237.2 500,-237.2 500,-39.2 258,-39.2"/>
</a>
</g>
</g>
<!-- UserTokens&#45;&gt;Users -->
<g id="edge4" class="edge">
<title>UserTokens:w&#45;&gt;Users:e</title>
<path fill="none" stroke="#000000" d="M244.7844,-205.5702C210.9826,-225.6077 262.5136,-328.2 208,-328.2"/>
<polygon fill="#000000" stroke="#000000" points="251.2158,-204.0455 259.8305,-205.7029 255.1079,-203.1228 259,-202.2 259,-202.2 259,-202.2 255.1079,-203.1228 258.1695,-198.6971 251.2158,-204.0455 251.2158,-204.0455"/>
<ellipse fill="none" stroke="#000000" cx="248.1021" cy="-204.7837" rx="3.2" ry="3.2"/>
</g>
</g>
</svg>
