<?xml version="1.0" encoding="UTF-8" standalone="no"?>
<!DOCTYPE svg PUBLIC "-//W3C//DTD SVG 1.1//EN"
 "http://www.w3.org/Graphics/SVG/1.1/DTD/svg11.dtd">
<!-- Generated by graphviz version 2.40.1 (20161225.0304)
 -->
<!-- Title: twoDegreesRelationshipsDiagram Pages: 1 -->
<svg width="482pt" height="535pt"
 viewBox="0.00 0.00 482.00 535.20" xmlns="http://www.w3.org/2000/svg" xmlns:xlink="http://www.w3.org/1999/xlink">
<g id="graph0" class="graph" transform="scale(1 1) rotate(0) translate(4 531.2)">
<title>twoDegreesRelationshipsDiagram</title>
<polygon fill="#ffffff" stroke="transparent" points="-4,4 -4,-531.2 478,-531.2 478,4 -4,4"/>
<text text-anchor="middle" x="72.4936" y="-7.3" font-family="Helvetica,sans-Serif" font-size="11.00" fill="#000000">Generated by SchemaSpy</text>
<!-- RoleClaims -->
<g id="node1" class="node">
<title>RoleClaims</title>
<g id="a_node1"><a xlink:href="../../tables/RoleClaims.html" xlink:title="RoleClaims" target="_top">
<polygon fill="#ffffff" stroke="transparent" points="302,-462.2 302,-523.2 421,-523.2 421,-462.2 302,-462.2"/>
<polygon fill="#f5f5f5" stroke="transparent" points="302.5,-499.7 302.5,-522.7 421.5,-522.7 421.5,-499.7 302.5,-499.7"/>
<polygon fill="none" stroke="#000000" points="302.5,-499.7 302.5,-522.7 421.5,-522.7 421.5,-499.7 302.5,-499.7"/>
<text text-anchor="start" x="307.5" y="-508.3" font-family="Helvetica,sans-Serif" font-weight="bold" font-size="11.00" fill="#000000">RoleClaims</text>
<text text-anchor="start" x="387.0219" y="-507.8" font-family="Helvetica,sans-Serif" font-size="11.00" fill="#000000">[table]</text>
<polygon fill="none" stroke="#000000" points="302.5,-480.7 302.5,-499.7 421.5,-499.7 421.5,-480.7 302.5,-480.7"/>
<text text-anchor="start" x="305.5" y="-486.8" font-family="Helvetica,sans-Serif" font-size="11.00" fill="#000000">...</text>
<polygon fill="#ffffff" stroke="transparent" points="302.5,-461.7 302.5,-480.7 421.5,-480.7 421.5,-461.7 302.5,-461.7"/>
<polygon fill="none" stroke="#000000" points="302.5,-461.7 302.5,-480.7 421.5,-480.7 421.5,-461.7 302.5,-461.7"/>
<polygon fill="#ffffff" stroke="transparent" points="303.5,-462.7 303.5,-479.7 348.5,-479.7 348.5,-462.7 303.5,-462.7"/>
<text text-anchor="start" x="305.5" y="-467.8" font-family="Helvetica,sans-Serif" font-size="11.00" fill="#000000">&lt; 1</text>
<polygon fill="#ffffff" stroke="transparent" points="348.5,-462.7 348.5,-479.7 384.5,-479.7 384.5,-462.7 348.5,-462.7"/>
<text text-anchor="start" x="363.4431" y="-467.8" font-family="Helvetica,sans-Serif" font-size="11.00" fill="#000000"> &#160;</text>
<polygon fill="#ffffff" stroke="transparent" points="384.5,-462.7 384.5,-479.7 420.5,-479.7 420.5,-462.7 384.5,-462.7"/>
<text text-anchor="start" x="412.3862" y="-467.8" font-family="Helvetica,sans-Serif" font-size="11.00" fill="#000000"> &#160;</text>
<polygon fill="#000000" stroke="#000000" points="348.5,-462.7 348.5,-479.7 348.5,-479.7 348.5,-462.7 348.5,-462.7"/>
<polygon fill="#000000" stroke="#000000" points="384.5,-462.7 384.5,-479.7 384.5,-479.7 384.5,-462.7 384.5,-462.7"/>
</a>
</g>
</g>
<!-- Roles -->
<g id="node2" class="node">
<title>Roles</title>
<g id="a_node2"><a xlink:href="../../tables/Roles.html" xlink:title="Roles" target="_top">
<polygon fill="#ffffff" stroke="transparent" points="28.5,-365.2 28.5,-470.2 187.5,-470.2 187.5,-365.2 28.5,-365.2"/>
<polygon fill="#f5f5f5" stroke="transparent" points="29,-446.7 29,-469.7 188,-469.7 188,-446.7 29,-446.7"/>
<polygon fill="none" stroke="#000000" points="29,-446.7 29,-469.7 188,-469.7 188,-446.7 29,-446.7"/>
<text text-anchor="start" x="34" y="-455.3" font-family="Helvetica,sans-Serif" font-weight="bold" font-size="11.00" fill="#000000">Roles</text>
<text text-anchor="start" x="153.0437" y="-454.8" font-family="Helvetica,sans-Serif" font-size="11.00" fill="#000000">[table]</text>
<polygon fill="none" stroke="#000000" points="29,-424.7 29,-446.7 188,-446.7 188,-424.7 29,-424.7"/>
<image xlink:href="../../images/primaryKeys.png" width="11px" height="12px" preserveAspectRatio="xMinYMin meet" x="34" y="-441.7"/>
<text text-anchor="start" x="49" y="-431.8" font-family="Helvetica,sans-Serif" font-size="11.00" fill="#000000">Id</text>
<polygon fill="#ffffff" stroke="transparent" points="29,-402.7 29,-424.7 188,-424.7 188,-402.7 29,-402.7"/>
<polygon fill="none" stroke="#000000" points="29,-402.7 29,-424.7 188,-424.7 188,-402.7 29,-402.7"/>
<text text-anchor="start" x="49" y="-409.8" font-family="Helvetica,sans-Serif" font-size="11.00" fill="#000000">NormalizedName</text>
<polygon fill="none" stroke="#000000" points="29,-383.7 29,-402.7 188,-402.7 188,-383.7 29,-383.7"/>
<text text-anchor="start" x="32" y="-389.8" font-family="Helvetica,sans-Serif" font-size="11.00" fill="#000000">...</text>
<polygon fill="#ffffff" stroke="transparent" points="29,-364.7 29,-383.7 188,-383.7 188,-364.7 29,-364.7"/>
<polygon fill="none" stroke="#000000" points="29,-364.7 29,-383.7 188,-383.7 188,-364.7 29,-364.7"/>
<polygon fill="#ffffff" stroke="transparent" points="30,-365.7 30,-382.7 80,-382.7 80,-365.7 30,-365.7"/>
<text text-anchor="start" x="32" y="-370.8" font-family="Helvetica,sans-Serif" font-size="11.00" fill="#000000"> &#160;</text>
<polygon fill="#ffffff" stroke="transparent" points="80,-365.7 80,-382.7 129,-382.7 129,-365.7 80,-365.7"/>
<text text-anchor="start" x="101.4431" y="-370.8" font-family="Helvetica,sans-Serif" font-size="11.00" fill="#000000"> &#160;</text>
<polygon fill="#ffffff" stroke="transparent" points="129,-365.7 129,-382.7 187,-382.7 187,-365.7 129,-365.7"/>
<text text-anchor="start" x="169.4053" y="-370.8" font-family="Helvetica,sans-Serif" font-size="11.00" fill="#000000">2 &gt;</text>
<polygon fill="#000000" stroke="#000000" points="80,-365.7 80,-382.7 80,-382.7 80,-365.7 80,-365.7"/>
<polygon fill="#000000" stroke="#000000" points="129,-365.7 129,-382.7 129,-382.7 129,-365.7 129,-365.7"/>
</a>
</g>
</g>
<!-- RoleClaims&#45;&gt;Roles -->
<g id="edge1" class="edge">
<title>RoleClaims:w&#45;&gt;Roles:e</title>
<path fill="none" stroke="#000000" d="M288.0177,-488.3652C245.3888,-480.0496 238.9896,-435.7 188,-435.7"/>
<polygon fill="#000000" stroke="#000000" points="294.5338,-488.9657 302.1696,-493.2848 298.5169,-489.3328 302.5,-489.7 302.5,-489.7 302.5,-489.7 298.5169,-489.3328 302.8304,-486.1152 294.5338,-488.9657 294.5338,-488.9657"/>
<ellipse fill="none" stroke="#000000" cx="291.3473" cy="-488.672" rx="3.2" ry="3.2"/>
</g>
<!-- UserClaims -->
<g id="node3" class="node">
<title>UserClaims</title>
<g id="a_node3"><a xlink:href="../../tables/UserClaims.html" xlink:title="UserClaims" target="_top">
<polygon fill="#ffffff" stroke="transparent" points="301,-202.2 301,-263.2 422,-263.2 422,-202.2 301,-202.2"/>
<polygon fill="#f5f5f5" stroke="transparent" points="301.5,-239.7 301.5,-262.7 422.5,-262.7 422.5,-239.7 301.5,-239.7"/>
<polygon fill="none" stroke="#000000" points="301.5,-239.7 301.5,-262.7 422.5,-262.7 422.5,-239.7 301.5,-239.7"/>
<text text-anchor="start" x="306.5" y="-248.3" font-family="Helvetica,sans-Serif" font-weight="bold" font-size="11.00" fill="#000000">UserClaims</text>
<text text-anchor="start" x="388.0219" y="-247.8" font-family="Helvetica,sans-Serif" font-size="11.00" fill="#000000">[table]</text>
<polygon fill="none" stroke="#000000" points="301.5,-220.7 301.5,-239.7 422.5,-239.7 422.5,-220.7 301.5,-220.7"/>
<text text-anchor="start" x="304.5" y="-226.8" font-family="Helvetica,sans-Serif" font-size="11.00" fill="#000000">...</text>
<polygon fill="#ffffff" stroke="transparent" points="301.5,-201.7 301.5,-220.7 422.5,-220.7 422.5,-201.7 301.5,-201.7"/>
<polygon fill="none" stroke="#000000" points="301.5,-201.7 301.5,-220.7 422.5,-220.7 422.5,-201.7 301.5,-201.7"/>
<polygon fill="#ffffff" stroke="transparent" points="302.5,-202.7 302.5,-219.7 348.5,-219.7 348.5,-202.7 302.5,-202.7"/>
<text text-anchor="start" x="304.5" y="-207.8" font-family="Helvetica,sans-Serif" font-size="11.00" fill="#000000">&lt; 1</text>
<polygon fill="#ffffff" stroke="transparent" points="348.5,-202.7 348.5,-219.7 385.5,-219.7 385.5,-202.7 348.5,-202.7"/>
<text text-anchor="start" x="363.9431" y="-207.8" font-family="Helvetica,sans-Serif" font-size="11.00" fill="#000000"> &#160;</text>
<polygon fill="#ffffff" stroke="transparent" points="385.5,-202.7 385.5,-219.7 421.5,-219.7 421.5,-202.7 385.5,-202.7"/>
<text text-anchor="start" x="413.3862" y="-207.8" font-family="Helvetica,sans-Serif" font-size="11.00" fill="#000000"> &#160;</text>
<polygon fill="#000000" stroke="#000000" points="348.5,-202.7 348.5,-219.7 348.5,-219.7 348.5,-202.7 348.5,-202.7"/>
<polygon fill="#000000" stroke="#000000" points="385.5,-202.7 385.5,-219.7 385.5,-219.7 385.5,-202.7 385.5,-202.7"/>
</a>
</g>
</g>
<!-- Users -->
<g id="node4" class="node">
<title>Users</title>
<g id="a_node4"><a xlink:href="../../tables/Users.html" xlink:title="Users" target="_top">
<polygon fill="#ffffff" stroke="transparent" points="8,-96.2 8,-223.2 208,-223.2 208,-96.2 8,-96.2"/>
<polygon fill="#f5f5f5" stroke="transparent" points="8,-199.7 8,-222.7 208,-222.7 208,-199.7 8,-199.7"/>
<polygon fill="none" stroke="#000000" points="8,-199.7 8,-222.7 208,-222.7 208,-199.7 8,-199.7"/>
<text text-anchor="start" x="13" y="-208.3" font-family="Helvetica,sans-Serif" font-weight="bold" font-size="11.00" fill="#000000">Users</text>
<text text-anchor="start" x="173.0437" y="-207.8" font-family="Helvetica,sans-Serif" font-size="11.00" fill="#000000">[table]</text>
<polygon fill="none" stroke="#000000" points="8,-177.7 8,-199.7 208,-199.7 208,-177.7 8,-177.7"/>
<image xlink:href="../../images/primaryKeys.png" width="11px" height="12px" preserveAspectRatio="xMinYMin meet" x="13" y="-194.7"/>
<text text-anchor="start" x="28" y="-184.8" font-family="Helvetica,sans-Serif" font-size="11.00" fill="#000000">Id</text>
<polygon fill="#ffffff" stroke="transparent" points="8,-155.7 8,-177.7 208,-177.7 208,-155.7 8,-155.7"/>
<polygon fill="none" stroke="#000000" points="8,-155.7 8,-177.7 208,-177.7 208,-155.7 8,-155.7"/>
<text text-anchor="start" x="28" y="-162.8" font-family="Helvetica,sans-Serif" font-size="11.00" fill="#000000">NormalizedUserName</text>
<polygon fill="#ffffff" stroke="transparent" points="8,-133.7 8,-155.7 208,-155.7 208,-133.7 8,-133.7"/>
<polygon fill="none" stroke="#000000" points="8,-133.7 8,-155.7 208,-155.7 208,-133.7 8,-133.7"/>
<text text-anchor="start" x="28" y="-140.8" font-family="Helvetica,sans-Serif" font-size="11.00" fill="#000000">NormalizedEmail</text>
<polygon fill="none" stroke="#000000" points="8,-114.7 8,-133.7 208,-133.7 208,-114.7 8,-114.7"/>
<text text-anchor="start" x="11" y="-120.8" font-family="Helvetica,sans-Serif" font-size="11.00" fill="#000000">...</text>
<polygon fill="#ffffff" stroke="transparent" points="8,-95.7 8,-114.7 208,-114.7 208,-95.7 8,-95.7"/>
<polygon fill="none" stroke="#000000" points="8,-95.7 8,-114.7 208,-114.7 208,-95.7 8,-95.7"/>
<polygon fill="#ffffff" stroke="transparent" points="9,-96.7 9,-113.7 72,-113.7 72,-96.7 9,-96.7"/>
<text text-anchor="start" x="11" y="-101.8" font-family="Helvetica,sans-Serif" font-size="11.00" fill="#000000"> &#160;</text>
<polygon fill="#ffffff" stroke="transparent" points="72,-96.7 72,-113.7 135,-113.7 135,-96.7 72,-96.7"/>
<text text-anchor="start" x="100.4431" y="-101.8" font-family="Helvetica,sans-Serif" font-size="11.00" fill="#000000"> &#160;</text>
<polygon fill="#ffffff" stroke="transparent" points="135,-96.7 135,-113.7 207,-113.7 207,-96.7 135,-96.7"/>
<text text-anchor="start" x="189.4053" y="-101.8" font-family="Helvetica,sans-Serif" font-size="11.00" fill="#000000">4 &gt;</text>
<polygon fill="#000000" stroke="#000000" points="72,-96.7 72,-113.7 72,-113.7 72,-96.7 72,-96.7"/>
<polygon fill="#000000" stroke="#000000" points="135,-96.7 135,-113.7 135,-113.7 135,-96.7 135,-96.7"/>
</a>
</g>
</g>
<!-- UserClaims&#45;&gt;Users -->
<g id="edge2" class="edge">
<title>UserClaims:w&#45;&gt;Users:e</title>
<path fill="none" stroke="#000000" d="M287.1667,-228.1428C254.895,-220.6537 248.0578,-188.7 208,-188.7"/>
<polygon fill="#000000" stroke="#000000" points="293.5468,-228.8359 301.1112,-233.2789 297.5234,-229.268 301.5,-229.7 301.5,-229.7 301.5,-229.7 297.5234,-229.268 301.8888,-226.1211 293.5468,-228.8359 293.5468,-228.8359"/>
<ellipse fill="none" stroke="#000000" cx="290.3655" cy="-228.4903" rx="3.2" ry="3.2"/>
</g>
<!-- UserLogins -->
<g id="node5" class="node">
<title>UserLogins</title>
<g id="a_node5"><a xlink:href="../../tables/UserLogins.html" xlink:title="UserLogins" target="_top">
<polygon fill="#ffffff" stroke="transparent" points="301.5,-120.2 301.5,-181.2 421.5,-181.2 421.5,-120.2 301.5,-120.2"/>
<polygon fill="#f5f5f5" stroke="transparent" points="301.5,-157.7 301.5,-180.7 421.5,-180.7 421.5,-157.7 301.5,-157.7"/>
<polygon fill="none" stroke="#000000" points="301.5,-157.7 301.5,-180.7 421.5,-180.7 421.5,-157.7 301.5,-157.7"/>
<text text-anchor="start" x="306.5" y="-166.3" font-family="Helvetica,sans-Serif" font-weight="bold" font-size="11.00" fill="#000000">UserLogins</text>
<text text-anchor="start" x="387.0219" y="-165.8" font-family="Helvetica,sans-Serif" font-size="11.00" fill="#000000">[table]</text>
<polygon fill="none" stroke="#000000" points="301.5,-138.7 301.5,-157.7 421.5,-157.7 421.5,-138.7 301.5,-138.7"/>
<text text-anchor="start" x="304.5" y="-144.8" font-family="Helvetica,sans-Serif" font-size="11.00" fill="#000000">...</text>
<polygon fill="#ffffff" stroke="transparent" points="301.5,-119.7 301.5,-138.7 421.5,-138.7 421.5,-119.7 301.5,-119.7"/>
<polygon fill="none" stroke="#000000" points="301.5,-119.7 301.5,-138.7 421.5,-138.7 421.5,-119.7 301.5,-119.7"/>
<polygon fill="#ffffff" stroke="transparent" points="302.5,-120.7 302.5,-137.7 348.5,-137.7 348.5,-120.7 302.5,-120.7"/>
<text text-anchor="start" x="304.5" y="-125.8" font-family="Helvetica,sans-Serif" font-size="11.00" fill="#000000">&lt; 1</text>
<polygon fill="#ffffff" stroke="transparent" points="348.5,-120.7 348.5,-137.7 384.5,-137.7 384.5,-120.7 348.5,-120.7"/>
<text text-anchor="start" x="363.4431" y="-125.8" font-family="Helvetica,sans-Serif" font-size="11.00" fill="#000000"> &#160;</text>
<polygon fill="#ffffff" stroke="transparent" points="384.5,-120.7 384.5,-137.7 420.5,-137.7 420.5,-120.7 384.5,-120.7"/>
<text text-anchor="start" x="412.3862" y="-125.8" font-family="Helvetica,sans-Serif" font-size="11.00" fill="#000000"> &#160;</text>
<polygon fill="#000000" stroke="#000000" points="348.5,-120.7 348.5,-137.7 348.5,-137.7 348.5,-120.7 348.5,-120.7"/>
<polygon fill="#000000" stroke="#000000" points="384.5,-120.7 384.5,-137.7 384.5,-137.7 384.5,-120.7 384.5,-120.7"/>
</a>
</g>
</g>
<!-- UserLogins&#45;&gt;Users -->
<g id="edge3" class="edge">
<title>UserLogins:w&#45;&gt;Users:e</title>
<path fill="none" stroke="#000000" d="M287.1667,-149.2572C254.895,-156.7463 248.0578,-188.7 208,-188.7"/>
<polygon fill="#000000" stroke="#000000" points="293.5468,-148.5641 301.8888,-151.2789 297.5234,-148.132 301.5,-147.7 301.5,-147.7 301.5,-147.7 297.5234,-148.132 301.1112,-144.1211 293.5468,-148.5641 293.5468,-148.5641"/>
<ellipse fill="none" stroke="#000000" cx="290.3655" cy="-148.9097" rx="3.2" ry="3.2"/>
</g>
<!-- UserRoles -->
<g id="node6" class="node">
<title>UserRoles</title>
<g id="a_node6"><a xlink:href="../../tables/UserRoles.html" xlink:title="UserRoles" target="_top">
<polygon fill="#ffffff" stroke="transparent" points="257,-284.7 257,-440.7 466,-440.7 466,-284.7 257,-284.7"/>
<polygon fill="#f5f5f5" stroke="transparent" points="259.5,-415.7 259.5,-438.7 464.5,-438.7 464.5,-415.7 259.5,-415.7"/>
<polygon fill="none" stroke="#000000" points="259.5,-415.7 259.5,-438.7 464.5,-438.7 464.5,-415.7 259.5,-415.7"/>
<text text-anchor="start" x="264.5" y="-424.3" font-family="Helvetica,sans-Serif" font-weight="bold" font-size="11.00" fill="#000000">UserRoles</text>
<text text-anchor="start" x="429.5437" y="-423.8" font-family="Helvetica,sans-Serif" font-size="11.00" fill="#000000">[table]</text>
<polygon fill="none" stroke="#000000" points="259.5,-393.7 259.5,-415.7 383.5,-415.7 383.5,-393.7 259.5,-393.7"/>
<image xlink:href="../../images/primaryKeys.png" width="11px" height="12px" preserveAspectRatio="xMinYMin meet" x="264.5" y="-410.7"/>
<text text-anchor="start" x="279.5" y="-400.8" font-family="Helvetica,sans-Serif" font-size="11.00" fill="#000000">UserId</text>
<polygon fill="none" stroke="#000000" points="383.5,-393.7 383.5,-415.7 464.5,-415.7 464.5,-393.7 383.5,-393.7"/>
<text text-anchor="start" x="386.5" y="-401.4" font-family="Helvetica,sans-Serif" font-size="11.00" fill="#000000">int[4]</text>
<polygon fill="none" stroke="#000000" points="259.5,-371.7 259.5,-393.7 383.5,-393.7 383.5,-371.7 259.5,-371.7"/>
<image xlink:href="../../images/primaryKeys.png" width="11px" height="12px" preserveAspectRatio="xMinYMin meet" x="264.5" y="-388.7"/>
<text text-anchor="start" x="279.5" y="-378.8" font-family="Helvetica,sans-Serif" font-size="11.00" fill="#000000">RoleId</text>
<polygon fill="none" stroke="#000000" points="383.5,-371.7 383.5,-393.7 464.5,-393.7 464.5,-371.7 383.5,-371.7"/>
<text text-anchor="start" x="386.5" y="-379.4" font-family="Helvetica,sans-Serif" font-size="11.00" fill="#000000">int[4]</text>
<polygon fill="none" stroke="#000000" points="259.5,-349.7 259.5,-371.7 383.5,-371.7 383.5,-349.7 259.5,-349.7"/>
<text text-anchor="start" x="279.5" y="-356.8" font-family="Helvetica,sans-Serif" font-size="11.00" fill="#000000">CreatedAtUtc</text>
<polygon fill="none" stroke="#000000" points="383.5,-349.7 383.5,-371.7 464.5,-371.7 464.5,-349.7 383.5,-349.7"/>
<text text-anchor="start" x="386.0968" y="-357.4" font-family="Helvetica,sans-Serif" font-size="11.00" fill="#000000">datetime2[16,7]</text>
<polygon fill="none" stroke="#000000" points="259.5,-327.7 259.5,-349.7 383.5,-349.7 383.5,-327.7 259.5,-327.7"/>
<text text-anchor="start" x="279.5" y="-334.8" font-family="Helvetica,sans-Serif" font-size="11.00" fill="#000000">UpdatedAtUtc</text>
<polygon fill="none" stroke="#000000" points="383.5,-327.7 383.5,-349.7 464.5,-349.7 464.5,-327.7 383.5,-327.7"/>
<text text-anchor="start" x="386.0968" y="-335.4" font-family="Helvetica,sans-Serif" font-size="11.00" fill="#000000">datetime2[16,7]</text>
<polygon fill="none" stroke="#000000" points="259.5,-305.7 259.5,-327.7 383.5,-327.7 383.5,-305.7 259.5,-305.7"/>
<text text-anchor="start" x="279.5" y="-312.8" font-family="Helvetica,sans-Serif" font-size="11.00" fill="#000000">RowVersion</text>
<polygon fill="none" stroke="#000000" points="383.5,-305.7 383.5,-327.7 464.5,-327.7 464.5,-305.7 383.5,-305.7"/>
<text text-anchor="start" x="386.5" y="-313.4" font-family="Helvetica,sans-Serif" font-size="11.00" fill="#000000">timestamp[8]</text>
<polygon fill="#ffffff" stroke="transparent" points="259.5,-286.7 259.5,-305.7 464.5,-305.7 464.5,-286.7 259.5,-286.7"/>
<polygon fill="none" stroke="#000000" points="259.5,-286.7 259.5,-305.7 464.5,-305.7 464.5,-286.7 259.5,-286.7"/>
<polygon fill="#ffffff" stroke="transparent" points="260.5,-287.7 260.5,-304.7 331.5,-304.7 331.5,-287.7 260.5,-287.7"/>
<text text-anchor="start" x="262.5" y="-292.8" font-family="Helvetica,sans-Serif" font-size="11.00" fill="#000000">&lt; 2</text>
<polygon fill="#ffffff" stroke="transparent" points="331.5,-287.7 331.5,-304.7 393.5,-304.7 393.5,-287.7 331.5,-287.7"/>
<text text-anchor="start" x="359.4431" y="-292.8" font-family="Helvetica,sans-Serif" font-size="11.00" fill="#000000"> &#160;</text>
<polygon fill="#ffffff" stroke="transparent" points="393.5,-287.7 393.5,-304.7 463.5,-304.7 463.5,-287.7 393.5,-287.7"/>
<text text-anchor="start" x="445.9053" y="-292.8" font-family="Helvetica,sans-Serif" font-size="11.00" fill="#000000">0 &gt;</text>
<polygon fill="#000000" stroke="#000000" points="331.5,-287.7 331.5,-304.7 331.5,-304.7 331.5,-287.7 331.5,-287.7"/>
<polygon fill="#000000" stroke="#000000" points="393.5,-287.7 393.5,-304.7 393.5,-304.7 393.5,-287.7 393.5,-287.7"/>
<polygon fill="none" stroke="#000000" stroke-width="2" points="258,-285.7 258,-439.7 465,-439.7 465,-285.7 258,-285.7"/>
</a>
</g>
</g>
<!-- UserRoles&#45;&gt;Roles -->
<g id="edge4" class="edge">
<title>UserRoles:w&#45;&gt;Roles:e</title>
<path fill="none" stroke="#000000" d="M245.3482,-385.5495C221.152,-396.5582 221.9936,-435.7 188,-435.7"/>
<polygon fill="#000000" stroke="#000000" points="251.6574,-384.2792 260.2106,-386.2292 255.5787,-383.4896 259.5,-382.7 259.5,-382.7 259.5,-382.7 255.5787,-383.4896 258.7894,-379.1708 251.6574,-384.2792 251.6574,-384.2792"/>
<ellipse fill="none" stroke="#000000" cx="248.5204" cy="-384.9109" rx="3.2" ry="3.2"/>
</g>
<!-- UserRoles&#45;&gt;Users -->
<g id="edge5" class="edge">
<title>UserRoles:w&#45;&gt;Users:e</title>
<path fill="none" stroke="#000000" d="M244.9953,-402.6996C176.5501,-380.9242 301.101,-188.7 208,-188.7"/>
<polygon fill="#000000" stroke="#000000" points="251.575,-403.607 259.0081,-408.2662 255.5375,-404.1535 259.5,-404.7 259.5,-404.7 259.5,-404.7 255.5375,-404.1535 259.9919,-401.1338 251.575,-403.607 251.575,-403.607"/>
<ellipse fill="none" stroke="#000000" cx="248.405" cy="-403.1698" rx="3.2" ry="3.2"/>
</g>
<!-- UserTokens -->
<g id="node7" class="node">
<title>UserTokens</title>
<g id="a_node7"><a xlink:href="../../tables/UserTokens.html" xlink:title="UserTokens" target="_top">
<polygon fill="#ffffff" stroke="transparent" points="299.5,-38.2 299.5,-99.2 423.5,-99.2 423.5,-38.2 299.5,-38.2"/>
<polygon fill="#f5f5f5" stroke="transparent" points="299.5,-75.7 299.5,-98.7 423.5,-98.7 423.5,-75.7 299.5,-75.7"/>
<polygon fill="none" stroke="#000000" points="299.5,-75.7 299.5,-98.7 423.5,-98.7 423.5,-75.7 299.5,-75.7"/>
<text text-anchor="start" x="304.5" y="-84.3" font-family="Helvetica,sans-Serif" font-weight="bold" font-size="11.00" fill="#000000">UserTokens</text>
<text text-anchor="start" x="389.0219" y="-83.8" font-family="Helvetica,sans-Serif" font-size="11.00" fill="#000000">[table]</text>
<polygon fill="none" stroke="#000000" points="299.5,-56.7 299.5,-75.7 423.5,-75.7 423.5,-56.7 299.5,-56.7"/>
<text text-anchor="start" x="302.5" y="-62.8" font-family="Helvetica,sans-Serif" font-size="11.00" fill="#000000">...</text>
<polygon fill="#ffffff" stroke="transparent" points="299.5,-37.7 299.5,-56.7 423.5,-56.7 423.5,-37.7 299.5,-37.7"/>
<polygon fill="none" stroke="#000000" points="299.5,-37.7 299.5,-56.7 423.5,-56.7 423.5,-37.7 299.5,-37.7"/>
<polygon fill="#ffffff" stroke="transparent" points="300.5,-38.7 300.5,-55.7 347.5,-55.7 347.5,-38.7 300.5,-38.7"/>
<text text-anchor="start" x="302.5" y="-43.8" font-family="Helvetica,sans-Serif" font-size="11.00" fill="#000000">&lt; 1</text>
<polygon fill="#ffffff" stroke="transparent" points="347.5,-38.7 347.5,-55.7 385.5,-55.7 385.5,-38.7 347.5,-38.7"/>
<text text-anchor="start" x="363.4431" y="-43.8" font-family="Helvetica,sans-Serif" font-size="11.00" fill="#000000"> &#160;</text>
<polygon fill="#ffffff" stroke="transparent" points="385.5,-38.7 385.5,-55.7 422.5,-55.7 422.5,-38.7 385.5,-38.7"/>
<text text-anchor="start" x="414.3862" y="-43.8" font-family="Helvetica,sans-Serif" font-size="11.00" fill="#000000"> &#160;</text>
<polygon fill="#000000" stroke="#000000" points="347.5,-38.7 347.5,-55.7 347.5,-55.7 347.5,-38.7 347.5,-38.7"/>
<polygon fill="#000000" stroke="#000000" points="385.5,-38.7 385.5,-55.7 385.5,-55.7 385.5,-38.7 385.5,-38.7"/>
</a>
</g>
</g>
<!-- UserTokens&#45;&gt;Users -->
<g id="edge6" class="edge">
<title>UserTokens:w&#45;&gt;Users:e</title>
<path fill="none" stroke="#000000" d="M284.8734,-67.9249C268.2082,-73.8538 263.8076,-90.8705 249,-109.7 224.5469,-140.7948 247.5581,-188.7 208,-188.7"/>
<polygon fill="#000000" stroke="#000000" points="291.591,-66.9031 300.0414,-69.2591 295.5455,-66.3016 299.5,-65.7 299.5,-65.7 299.5,-65.7 295.5455,-66.3016 298.9586,-62.1409 291.591,-66.9031 291.591,-66.9031"/>
<ellipse fill="none" stroke="#000000" cx="288.4274" cy="-67.3843" rx="3.2" ry="3.2"/>
</g>
</g>
</svg>
