<?xml version="1.0" encoding="UTF-8" standalone="no"?>
<!DOCTYPE svg PUBLIC "-//W3C//DTD SVG 1.1//EN"
 "http://www.w3.org/Graphics/SVG/1.1/DTD/svg11.dtd">
<!-- Generated by graphviz version 2.40.1 (20161225.0304)
 -->
<!-- Title: twoDegreesRelationshipsDiagram Pages: 1 -->
<svg width="572pt" height="743pt"
 viewBox="0.00 0.00 572.00 743.20" xmlns="http://www.w3.org/2000/svg" xmlns:xlink="http://www.w3.org/1999/xlink">
<g id="graph0" class="graph" transform="scale(1 1) rotate(0) translate(4 739.2)">
<title>twoDegreesRelationshipsDiagram</title>
<polygon fill="#ffffff" stroke="transparent" points="-4,4 -4,-739.2 568,-739.2 568,4 -4,4"/>
<text text-anchor="middle" x="72.4936" y="-7.3" font-family="Helvetica,sans-Serif" font-size="11.00" fill="#000000">Generated by SchemaSpy</text>
<!-- UserClaims -->
<g id="node1" class="node">
<title>UserClaims</title>
<g id="a_node1"><a xlink:href="../../tables/UserClaims.html" xlink:title="UserClaims" target="_top">
<polygon fill="#ffffff" stroke="transparent" points="404.5,-626.2 404.5,-731.2 528.5,-731.2 528.5,-626.2 404.5,-626.2"/>
<polygon fill="#f5f5f5" stroke="transparent" points="404.5,-707.7 404.5,-730.7 528.5,-730.7 528.5,-707.7 404.5,-707.7"/>
<polygon fill="none" stroke="#000000" points="404.5,-707.7 404.5,-730.7 528.5,-730.7 528.5,-707.7 404.5,-707.7"/>
<text text-anchor="start" x="409.5" y="-716.3" font-family="Helvetica,sans-Serif" font-weight="bold" font-size="11.00" fill="#000000">UserClaims</text>
<text text-anchor="start" x="493.5437" y="-715.8" font-family="Helvetica,sans-Serif" font-size="11.00" fill="#000000">[table]</text>
<polygon fill="none" stroke="#000000" points="404.5,-685.7 404.5,-707.7 528.5,-707.7 528.5,-685.7 404.5,-685.7"/>
<image xlink:href="../../images/primaryKeys.png" width="11px" height="12px" preserveAspectRatio="xMinYMin meet" x="409.5" y="-702.7"/>
<text text-anchor="start" x="424.5" y="-692.8" font-family="Helvetica,sans-Serif" font-size="11.00" fill="#000000">Id</text>
<polygon fill="#ffffff" stroke="transparent" points="404.5,-663.7 404.5,-685.7 528.5,-685.7 528.5,-663.7 404.5,-663.7"/>
<polygon fill="none" stroke="#000000" points="404.5,-663.7 404.5,-685.7 528.5,-685.7 528.5,-663.7 404.5,-663.7"/>
<image xlink:href="../../images/foreignKeys.png" width="11px" height="12px" preserveAspectRatio="xMinYMin meet" x="409.5" y="-680.7"/>
<text text-anchor="start" x="424.5" y="-670.8" font-family="Helvetica,sans-Serif" font-size="11.00" fill="#000000">UserId</text>
<polygon fill="none" stroke="#000000" points="404.5,-644.7 404.5,-663.7 528.5,-663.7 528.5,-644.7 404.5,-644.7"/>
<text text-anchor="start" x="407.5" y="-650.8" font-family="Helvetica,sans-Serif" font-size="11.00" fill="#000000">...</text>
<polygon fill="#ffffff" stroke="transparent" points="404.5,-625.7 404.5,-644.7 528.5,-644.7 528.5,-625.7 404.5,-625.7"/>
<polygon fill="none" stroke="#000000" points="404.5,-625.7 404.5,-644.7 528.5,-644.7 528.5,-625.7 404.5,-625.7"/>
<polygon fill="#ffffff" stroke="transparent" points="405.5,-626.7 405.5,-643.7 452.5,-643.7 452.5,-626.7 405.5,-626.7"/>
<text text-anchor="start" x="407.5" y="-631.8" font-family="Helvetica,sans-Serif" font-size="11.00" fill="#000000">&lt; 1</text>
<polygon fill="#ffffff" stroke="transparent" points="452.5,-626.7 452.5,-643.7 490.5,-643.7 490.5,-626.7 452.5,-626.7"/>
<text text-anchor="start" x="468.4431" y="-631.8" font-family="Helvetica,sans-Serif" font-size="11.00" fill="#000000"> &#160;</text>
<polygon fill="#ffffff" stroke="transparent" points="490.5,-626.7 490.5,-643.7 527.5,-643.7 527.5,-626.7 490.5,-626.7"/>
<text text-anchor="start" x="519.3862" y="-631.8" font-family="Helvetica,sans-Serif" font-size="11.00" fill="#000000"> &#160;</text>
<polygon fill="#000000" stroke="#000000" points="452.5,-626.7 452.5,-643.7 452.5,-643.7 452.5,-626.7 452.5,-626.7"/>
<polygon fill="#000000" stroke="#000000" points="490.5,-626.7 490.5,-643.7 490.5,-643.7 490.5,-626.7 490.5,-626.7"/>
</a>
</g>
</g>
<!-- Users -->
<g id="node2" class="node">
<title>Users</title>
<g id="a_node2"><a xlink:href="../../tables/Users.html" xlink:title="Users" target="_top">
<polygon fill="#ffffff" stroke="transparent" points="8,-120.7 8,-562.7 328,-562.7 328,-120.7 8,-120.7"/>
<polygon fill="#f5f5f5" stroke="transparent" points="10,-537.7 10,-560.7 326,-560.7 326,-537.7 10,-537.7"/>
<polygon fill="none" stroke="#000000" points="10,-537.7 10,-560.7 326,-560.7 326,-537.7 10,-537.7"/>
<text text-anchor="start" x="15" y="-546.3" font-family="Helvetica,sans-Serif" font-weight="bold" font-size="11.00" fill="#000000">Users</text>
<text text-anchor="start" x="291.0437" y="-545.8" font-family="Helvetica,sans-Serif" font-size="11.00" fill="#000000">[table]</text>
<polygon fill="none" stroke="#000000" points="10,-515.7 10,-537.7 210,-537.7 210,-515.7 10,-515.7"/>
<image xlink:href="../../images/primaryKeys.png" width="11px" height="12px" preserveAspectRatio="xMinYMin meet" x="15" y="-532.7"/>
<text text-anchor="start" x="30" y="-522.8" font-family="Helvetica,sans-Serif" font-size="11.00" fill="#000000">Id</text>
<polygon fill="none" stroke="#000000" points="210,-515.7 210,-537.7 326,-537.7 326,-515.7 210,-515.7"/>
<text text-anchor="start" x="213" y="-523.4" font-family="Helvetica,sans-Serif" font-size="11.00" fill="#000000">int identity[4]</text>
<polygon fill="none" stroke="#000000" points="10,-493.7 10,-515.7 210,-515.7 210,-493.7 10,-493.7"/>
<text text-anchor="start" x="30" y="-500.8" font-family="Helvetica,sans-Serif" font-size="11.00" fill="#000000">CreatedAtUtc</text>
<polygon fill="none" stroke="#000000" points="210,-493.7 210,-515.7 326,-515.7 326,-493.7 210,-493.7"/>
<text text-anchor="start" x="213" y="-501.4" font-family="Helvetica,sans-Serif" font-size="11.00" fill="#000000">datetime2[16,7]</text>
<polygon fill="none" stroke="#000000" points="10,-471.7 10,-493.7 210,-493.7 210,-471.7 10,-471.7"/>
<text text-anchor="start" x="30" y="-478.8" font-family="Helvetica,sans-Serif" font-size="11.00" fill="#000000">UpdatedAtUtc</text>
<polygon fill="none" stroke="#000000" points="210,-471.7 210,-493.7 326,-493.7 326,-471.7 210,-471.7"/>
<text text-anchor="start" x="213" y="-479.4" font-family="Helvetica,sans-Serif" font-size="11.00" fill="#000000">datetime2[16,7]</text>
<polygon fill="none" stroke="#000000" points="10,-449.7 10,-471.7 210,-471.7 210,-449.7 10,-449.7"/>
<text text-anchor="start" x="30" y="-456.8" font-family="Helvetica,sans-Serif" font-size="11.00" fill="#000000">RowVersion</text>
<polygon fill="none" stroke="#000000" points="210,-449.7 210,-471.7 326,-471.7 326,-449.7 210,-449.7"/>
<text text-anchor="start" x="213" y="-457.4" font-family="Helvetica,sans-Serif" font-size="11.00" fill="#000000">timestamp[8]</text>
<polygon fill="none" stroke="#000000" points="10,-427.7 10,-449.7 210,-449.7 210,-427.7 10,-427.7"/>
<text text-anchor="start" x="30" y="-434.8" font-family="Helvetica,sans-Serif" font-size="11.00" fill="#000000">UserName</text>
<polygon fill="none" stroke="#000000" points="210,-427.7 210,-449.7 326,-449.7 326,-427.7 210,-427.7"/>
<text text-anchor="start" x="213" y="-435.4" font-family="Helvetica,sans-Serif" font-size="11.00" fill="#000000">nvarchar[512]</text>
<polygon fill="#ffffff" stroke="transparent" points="10,-405.7 10,-427.7 210,-427.7 210,-405.7 10,-405.7"/>
<polygon fill="none" stroke="#000000" points="10,-405.7 10,-427.7 210,-427.7 210,-405.7 10,-405.7"/>
<text text-anchor="start" x="30" y="-412.8" font-family="Helvetica,sans-Serif" font-size="11.00" fill="#000000">NormalizedUserName</text>
<polygon fill="none" stroke="#000000" points="210,-405.7 210,-427.7 326,-427.7 326,-405.7 210,-405.7"/>
<text text-anchor="start" x="213" y="-413.4" font-family="Helvetica,sans-Serif" font-size="11.00" fill="#000000">nvarchar[512]</text>
<polygon fill="none" stroke="#000000" points="10,-383.7 10,-405.7 210,-405.7 210,-383.7 10,-383.7"/>
<text text-anchor="start" x="30" y="-390.8" font-family="Helvetica,sans-Serif" font-size="11.00" fill="#000000">Email</text>
<polygon fill="none" stroke="#000000" points="210,-383.7 210,-405.7 326,-405.7 326,-383.7 210,-383.7"/>
<text text-anchor="start" x="213" y="-391.4" font-family="Helvetica,sans-Serif" font-size="11.00" fill="#000000">nvarchar[512]</text>
<polygon fill="#ffffff" stroke="transparent" points="10,-361.7 10,-383.7 210,-383.7 210,-361.7 10,-361.7"/>
<polygon fill="none" stroke="#000000" points="10,-361.7 10,-383.7 210,-383.7 210,-361.7 10,-361.7"/>
<text text-anchor="start" x="30" y="-368.8" font-family="Helvetica,sans-Serif" font-size="11.00" fill="#000000">NormalizedEmail</text>
<polygon fill="none" stroke="#000000" points="210,-361.7 210,-383.7 326,-383.7 326,-361.7 210,-361.7"/>
<text text-anchor="start" x="213" y="-369.4" font-family="Helvetica,sans-Serif" font-size="11.00" fill="#000000">nvarchar[512]</text>
<polygon fill="none" stroke="#000000" points="10,-339.7 10,-361.7 210,-361.7 210,-339.7 10,-339.7"/>
<text text-anchor="start" x="30" y="-346.8" font-family="Helvetica,sans-Serif" font-size="11.00" fill="#000000">EmailConfirmed</text>
<polygon fill="none" stroke="#000000" points="210,-339.7 210,-361.7 326,-361.7 326,-339.7 210,-339.7"/>
<text text-anchor="start" x="213" y="-347.4" font-family="Helvetica,sans-Serif" font-size="11.00" fill="#000000">bit[1]</text>
<polygon fill="none" stroke="#000000" points="10,-317.7 10,-339.7 210,-339.7 210,-317.7 10,-317.7"/>
<text text-anchor="start" x="30" y="-324.8" font-family="Helvetica,sans-Serif" font-size="11.00" fill="#000000">PasswordHash</text>
<polygon fill="none" stroke="#000000" points="210,-317.7 210,-339.7 326,-339.7 326,-317.7 210,-317.7"/>
<text text-anchor="start" x="212.9769" y="-325.4" font-family="Helvetica,sans-Serif" font-size="11.00" fill="#000000">nvarchar[2147483647]</text>
<polygon fill="none" stroke="#000000" points="10,-295.7 10,-317.7 210,-317.7 210,-295.7 10,-295.7"/>
<text text-anchor="start" x="30" y="-302.8" font-family="Helvetica,sans-Serif" font-size="11.00" fill="#000000">SecurityStamp</text>
<polygon fill="none" stroke="#000000" points="210,-295.7 210,-317.7 326,-317.7 326,-295.7 210,-295.7"/>
<text text-anchor="start" x="212.9769" y="-303.4" font-family="Helvetica,sans-Serif" font-size="11.00" fill="#000000">nvarchar[2147483647]</text>
<polygon fill="none" stroke="#000000" points="10,-273.7 10,-295.7 210,-295.7 210,-273.7 10,-273.7"/>
<text text-anchor="start" x="30" y="-280.8" font-family="Helvetica,sans-Serif" font-size="11.00" fill="#000000">ConcurrencyStamp</text>
<polygon fill="none" stroke="#000000" points="210,-273.7 210,-295.7 326,-295.7 326,-273.7 210,-273.7"/>
<text text-anchor="start" x="212.9769" y="-281.4" font-family="Helvetica,sans-Serif" font-size="11.00" fill="#000000">nvarchar[2147483647]</text>
<polygon fill="none" stroke="#000000" points="10,-251.7 10,-273.7 210,-273.7 210,-251.7 10,-251.7"/>
<text text-anchor="start" x="30" y="-258.8" font-family="Helvetica,sans-Serif" font-size="11.00" fill="#000000">PhoneNumber</text>
<polygon fill="none" stroke="#000000" points="210,-251.7 210,-273.7 326,-273.7 326,-251.7 210,-251.7"/>
<text text-anchor="start" x="212.9769" y="-259.4" font-family="Helvetica,sans-Serif" font-size="11.00" fill="#000000">nvarchar[2147483647]</text>
<polygon fill="none" stroke="#000000" points="10,-229.7 10,-251.7 210,-251.7 210,-229.7 10,-229.7"/>
<text text-anchor="start" x="30" y="-236.8" font-family="Helvetica,sans-Serif" font-size="11.00" fill="#000000">PhoneNumberConfirmed</text>
<polygon fill="none" stroke="#000000" points="210,-229.7 210,-251.7 326,-251.7 326,-229.7 210,-229.7"/>
<text text-anchor="start" x="213" y="-237.4" font-family="Helvetica,sans-Serif" font-size="11.00" fill="#000000">bit[1]</text>
<polygon fill="none" stroke="#000000" points="10,-207.7 10,-229.7 210,-229.7 210,-207.7 10,-207.7"/>
<text text-anchor="start" x="30" y="-214.8" font-family="Helvetica,sans-Serif" font-size="11.00" fill="#000000">TwoFactorEnabled</text>
<polygon fill="none" stroke="#000000" points="210,-207.7 210,-229.7 326,-229.7 326,-207.7 210,-207.7"/>
<text text-anchor="start" x="213" y="-215.4" font-family="Helvetica,sans-Serif" font-size="11.00" fill="#000000">bit[1]</text>
<polygon fill="none" stroke="#000000" points="10,-185.7 10,-207.7 210,-207.7 210,-185.7 10,-185.7"/>
<text text-anchor="start" x="30" y="-192.8" font-family="Helvetica,sans-Serif" font-size="11.00" fill="#000000">LockoutEnd</text>
<polygon fill="none" stroke="#000000" points="210,-185.7 210,-207.7 326,-207.7 326,-185.7 210,-185.7"/>
<text text-anchor="start" x="213" y="-193.4" font-family="Helvetica,sans-Serif" font-size="11.00" fill="#000000">datetimeoffset[20,7]</text>
<polygon fill="none" stroke="#000000" points="10,-163.7 10,-185.7 210,-185.7 210,-163.7 10,-163.7"/>
<text text-anchor="start" x="30" y="-170.8" font-family="Helvetica,sans-Serif" font-size="11.00" fill="#000000">LockoutEnabled</text>
<polygon fill="none" stroke="#000000" points="210,-163.7 210,-185.7 326,-185.7 326,-163.7 210,-163.7"/>
<text text-anchor="start" x="213" y="-171.4" font-family="Helvetica,sans-Serif" font-size="11.00" fill="#000000">bit[1]</text>
<polygon fill="none" stroke="#000000" points="10,-141.7 10,-163.7 210,-163.7 210,-141.7 10,-141.7"/>
<text text-anchor="start" x="30" y="-148.8" font-family="Helvetica,sans-Serif" font-size="11.00" fill="#000000">AccessFailedCount</text>
<polygon fill="none" stroke="#000000" points="210,-141.7 210,-163.7 326,-163.7 326,-141.7 210,-141.7"/>
<text text-anchor="start" x="213" y="-149.4" font-family="Helvetica,sans-Serif" font-size="11.00" fill="#000000">int[4]</text>
<polygon fill="#ffffff" stroke="transparent" points="10,-122.7 10,-141.7 326,-141.7 326,-122.7 10,-122.7"/>
<polygon fill="none" stroke="#000000" points="10,-122.7 10,-141.7 326,-141.7 326,-122.7 10,-122.7"/>
<polygon fill="#ffffff" stroke="transparent" points="11,-123.7 11,-140.7 119,-140.7 119,-123.7 11,-123.7"/>
<text text-anchor="start" x="13" y="-128.8" font-family="Helvetica,sans-Serif" font-size="11.00" fill="#000000">&lt; 0</text>
<polygon fill="#ffffff" stroke="transparent" points="119,-123.7 119,-140.7 218,-140.7 218,-123.7 119,-123.7"/>
<text text-anchor="start" x="165.4431" y="-128.8" font-family="Helvetica,sans-Serif" font-size="11.00" fill="#000000"> &#160;</text>
<polygon fill="#ffffff" stroke="transparent" points="218,-123.7 218,-140.7 325,-140.7 325,-123.7 218,-123.7"/>
<text text-anchor="start" x="307.4053" y="-128.8" font-family="Helvetica,sans-Serif" font-size="11.00" fill="#000000">4 &gt;</text>
<polygon fill="#000000" stroke="#000000" points="119,-123.7 119,-140.7 119,-140.7 119,-123.7 119,-123.7"/>
<polygon fill="#000000" stroke="#000000" points="218,-123.7 218,-140.7 218,-140.7 218,-123.7 218,-123.7"/>
<polygon fill="none" stroke="#000000" stroke-width="2" points="9,-121.7 9,-561.7 327,-561.7 327,-121.7 9,-121.7"/>
</a>
</g>
</g>
<!-- UserClaims&#45;&gt;Users -->
<g id="edge1" class="edge">
<title>UserClaims:w&#45;&gt;Users:e</title>
<path fill="none" stroke="#000000" d="M390.1971,-672.3753C339.6966,-653.5465 394.9316,-526.7 326,-526.7"/>
<polygon fill="#000000" stroke="#000000" points="396.6036,-673.4165 403.9224,-678.2534 400.5518,-674.0583 404.5,-674.7 404.5,-674.7 404.5,-674.7 400.5518,-674.0583 405.0776,-671.1466 396.6036,-673.4165 396.6036,-673.4165"/>
<ellipse fill="none" stroke="#000000" cx="393.4451" cy="-672.9031" rx="3.2" ry="3.2"/>
</g>
<!-- UserLogins -->
<g id="node3" class="node">
<title>UserLogins</title>
<g id="a_node3"><a xlink:href="../../tables/UserLogins.html" xlink:title="UserLogins" target="_top">
<polygon fill="#ffffff" stroke="transparent" points="377,-478.2 377,-605.2 556,-605.2 556,-478.2 377,-478.2"/>
<polygon fill="#f5f5f5" stroke="transparent" points="377.5,-581.7 377.5,-604.7 556.5,-604.7 556.5,-581.7 377.5,-581.7"/>
<polygon fill="none" stroke="#000000" points="377.5,-581.7 377.5,-604.7 556.5,-604.7 556.5,-581.7 377.5,-581.7"/>
<text text-anchor="start" x="382.5" y="-590.3" font-family="Helvetica,sans-Serif" font-weight="bold" font-size="11.00" fill="#000000">UserLogins</text>
<text text-anchor="start" x="521.5437" y="-589.8" font-family="Helvetica,sans-Serif" font-size="11.00" fill="#000000">[table]</text>
<polygon fill="none" stroke="#000000" points="377.5,-559.7 377.5,-581.7 556.5,-581.7 556.5,-559.7 377.5,-559.7"/>
<image xlink:href="../../images/primaryKeys.png" width="11px" height="12px" preserveAspectRatio="xMinYMin meet" x="382.5" y="-576.7"/>
<text text-anchor="start" x="397.5" y="-566.8" font-family="Helvetica,sans-Serif" font-size="11.00" fill="#000000">LoginProvider</text>
<polygon fill="none" stroke="#000000" points="377.5,-537.7 377.5,-559.7 556.5,-559.7 556.5,-537.7 377.5,-537.7"/>
<image xlink:href="../../images/primaryKeys.png" width="11px" height="12px" preserveAspectRatio="xMinYMin meet" x="382.5" y="-554.7"/>
<text text-anchor="start" x="397.5" y="-544.8" font-family="Helvetica,sans-Serif" font-size="11.00" fill="#000000">ProviderKey</text>
<polygon fill="#ffffff" stroke="transparent" points="377.5,-515.7 377.5,-537.7 556.5,-537.7 556.5,-515.7 377.5,-515.7"/>
<polygon fill="none" stroke="#000000" points="377.5,-515.7 377.5,-537.7 556.5,-537.7 556.5,-515.7 377.5,-515.7"/>
<image xlink:href="../../images/foreignKeys.png" width="11px" height="12px" preserveAspectRatio="xMinYMin meet" x="382.5" y="-532.7"/>
<text text-anchor="start" x="397.5" y="-522.8" font-family="Helvetica,sans-Serif" font-size="11.00" fill="#000000">UserId</text>
<polygon fill="none" stroke="#000000" points="377.5,-496.7 377.5,-515.7 556.5,-515.7 556.5,-496.7 377.5,-496.7"/>
<text text-anchor="start" x="380.5" y="-502.8" font-family="Helvetica,sans-Serif" font-size="11.00" fill="#000000">...</text>
<polygon fill="#ffffff" stroke="transparent" points="377.5,-477.7 377.5,-496.7 556.5,-496.7 556.5,-477.7 377.5,-477.7"/>
<polygon fill="none" stroke="#000000" points="377.5,-477.7 377.5,-496.7 556.5,-496.7 556.5,-477.7 377.5,-477.7"/>
<polygon fill="#ffffff" stroke="transparent" points="378.5,-478.7 378.5,-495.7 443.5,-495.7 443.5,-478.7 378.5,-478.7"/>
<text text-anchor="start" x="380.5" y="-483.8" font-family="Helvetica,sans-Serif" font-size="11.00" fill="#000000">&lt; 1</text>
<polygon fill="#ffffff" stroke="transparent" points="443.5,-478.7 443.5,-495.7 499.5,-495.7 499.5,-478.7 443.5,-478.7"/>
<text text-anchor="start" x="468.4431" y="-483.8" font-family="Helvetica,sans-Serif" font-size="11.00" fill="#000000"> &#160;</text>
<polygon fill="#ffffff" stroke="transparent" points="499.5,-478.7 499.5,-495.7 555.5,-495.7 555.5,-478.7 499.5,-478.7"/>
<text text-anchor="start" x="547.3862" y="-483.8" font-family="Helvetica,sans-Serif" font-size="11.00" fill="#000000"> &#160;</text>
<polygon fill="#000000" stroke="#000000" points="443.5,-478.7 443.5,-495.7 443.5,-495.7 443.5,-478.7 443.5,-478.7"/>
<polygon fill="#000000" stroke="#000000" points="499.5,-478.7 499.5,-495.7 499.5,-495.7 499.5,-478.7 499.5,-478.7"/>
</a>
</g>
</g>
<!-- UserLogins&#45;&gt;Users -->
<g id="edge2" class="edge">
<title>UserLogins:w&#45;&gt;Users:e</title>
<path fill="none" stroke="#000000" d="M363.0156,-526.7C350.6771,-526.7 343.1667,-526.7 326,-526.7"/>
<polygon fill="#000000" stroke="#000000" points="369.5,-526.7001 377.5,-530.3 373.5,-526.7 377.5,-526.7 377.5,-526.7 377.5,-526.7 373.5,-526.7 377.5,-523.1 369.5,-526.7001 369.5,-526.7001"/>
<ellipse fill="none" stroke="#000000" cx="366.3" cy="-526.7001" rx="3.2" ry="3.2"/>
</g>
<!-- UserRoles -->
<g id="node4" class="node">
<title>UserRoles</title>
<g id="a_node4"><a xlink:href="../../tables/UserRoles.html" xlink:title="UserRoles" target="_top">
<polygon fill="#ffffff" stroke="transparent" points="404.5,-111.2 404.5,-216.2 528.5,-216.2 528.5,-111.2 404.5,-111.2"/>
<polygon fill="#f5f5f5" stroke="transparent" points="404.5,-192.7 404.5,-215.7 528.5,-215.7 528.5,-192.7 404.5,-192.7"/>
<polygon fill="none" stroke="#000000" points="404.5,-192.7 404.5,-215.7 528.5,-215.7 528.5,-192.7 404.5,-192.7"/>
<text text-anchor="start" x="409.5" y="-201.3" font-family="Helvetica,sans-Serif" font-weight="bold" font-size="11.00" fill="#000000">UserRoles</text>
<text text-anchor="start" x="493.5437" y="-200.8" font-family="Helvetica,sans-Serif" font-size="11.00" fill="#000000">[table]</text>
<polygon fill="none" stroke="#000000" points="404.5,-170.7 404.5,-192.7 528.5,-192.7 528.5,-170.7 404.5,-170.7"/>
<image xlink:href="../../images/primaryKeys.png" width="11px" height="12px" preserveAspectRatio="xMinYMin meet" x="409.5" y="-187.7"/>
<text text-anchor="start" x="424.5" y="-177.8" font-family="Helvetica,sans-Serif" font-size="11.00" fill="#000000">UserId</text>
<polygon fill="none" stroke="#000000" points="404.5,-148.7 404.5,-170.7 528.5,-170.7 528.5,-148.7 404.5,-148.7"/>
<image xlink:href="../../images/primaryKeys.png" width="11px" height="12px" preserveAspectRatio="xMinYMin meet" x="409.5" y="-165.7"/>
<text text-anchor="start" x="424.5" y="-155.8" font-family="Helvetica,sans-Serif" font-size="11.00" fill="#000000">RoleId</text>
<polygon fill="none" stroke="#000000" points="404.5,-129.7 404.5,-148.7 528.5,-148.7 528.5,-129.7 404.5,-129.7"/>
<text text-anchor="start" x="407.5" y="-135.8" font-family="Helvetica,sans-Serif" font-size="11.00" fill="#000000">...</text>
<polygon fill="#ffffff" stroke="transparent" points="404.5,-110.7 404.5,-129.7 528.5,-129.7 528.5,-110.7 404.5,-110.7"/>
<polygon fill="none" stroke="#000000" points="404.5,-110.7 404.5,-129.7 528.5,-129.7 528.5,-110.7 404.5,-110.7"/>
<polygon fill="#ffffff" stroke="transparent" points="405.5,-111.7 405.5,-128.7 452.5,-128.7 452.5,-111.7 405.5,-111.7"/>
<text text-anchor="start" x="407.5" y="-116.8" font-family="Helvetica,sans-Serif" font-size="11.00" fill="#000000">&lt; 2</text>
<polygon fill="#ffffff" stroke="transparent" points="452.5,-111.7 452.5,-128.7 490.5,-128.7 490.5,-111.7 452.5,-111.7"/>
<text text-anchor="start" x="468.4431" y="-116.8" font-family="Helvetica,sans-Serif" font-size="11.00" fill="#000000"> &#160;</text>
<polygon fill="#ffffff" stroke="transparent" points="490.5,-111.7 490.5,-128.7 527.5,-128.7 527.5,-111.7 490.5,-111.7"/>
<text text-anchor="start" x="519.3862" y="-116.8" font-family="Helvetica,sans-Serif" font-size="11.00" fill="#000000"> &#160;</text>
<polygon fill="#000000" stroke="#000000" points="452.5,-111.7 452.5,-128.7 452.5,-128.7 452.5,-111.7 452.5,-111.7"/>
<polygon fill="#000000" stroke="#000000" points="490.5,-111.7 490.5,-128.7 490.5,-128.7 490.5,-111.7 490.5,-111.7"/>
</a>
</g>
</g>
<!-- UserRoles&#45;&gt;Users -->
<g id="edge4" class="edge">
<title>UserRoles:w&#45;&gt;Users:e</title>
<path fill="none" stroke="#000000" d="M390.4812,-186.3161C335.9053,-227.2558 399.2514,-526.7 326,-526.7"/>
<polygon fill="#000000" stroke="#000000" points="396.9013,-184.2021 405.626,-185.1194 400.7007,-182.9511 404.5,-181.7 404.5,-181.7 404.5,-181.7 400.7007,-182.9511 403.374,-178.2806 396.9013,-184.2021 396.9013,-184.2021"/>
<ellipse fill="none" stroke="#000000" cx="393.8619" cy="-185.203" rx="3.2" ry="3.2"/>
</g>
<!-- Roles -->
<g id="node5" class="node">
<title>Roles</title>
<g id="a_node5"><a xlink:href="../../tables/Roles.html" xlink:title="Roles" target="_top">
<polygon fill="#ffffff" stroke="transparent" points="129,-38.2 129,-99.2 207,-99.2 207,-38.2 129,-38.2"/>
<polygon fill="#f5f5f5" stroke="transparent" points="129,-75.7 129,-98.7 207,-98.7 207,-75.7 129,-75.7"/>
<polygon fill="none" stroke="#000000" points="129,-75.7 129,-98.7 207,-98.7 207,-75.7 129,-75.7"/>
<text text-anchor="start" x="134" y="-84.3" font-family="Helvetica,sans-Serif" font-weight="bold" font-size="11.00" fill="#000000">Roles</text>
<text text-anchor="start" x="172.5219" y="-83.8" font-family="Helvetica,sans-Serif" font-size="11.00" fill="#000000">[table]</text>
<polygon fill="none" stroke="#000000" points="129,-56.7 129,-75.7 207,-75.7 207,-56.7 129,-56.7"/>
<text text-anchor="start" x="132" y="-62.8" font-family="Helvetica,sans-Serif" font-size="11.00" fill="#000000">...</text>
<polygon fill="#ffffff" stroke="transparent" points="129,-37.7 129,-56.7 207,-56.7 207,-37.7 129,-37.7"/>
<polygon fill="none" stroke="#000000" points="129,-37.7 129,-56.7 207,-56.7 207,-37.7 129,-37.7"/>
<polygon fill="#ffffff" stroke="transparent" points="130,-38.7 130,-55.7 153,-55.7 153,-38.7 130,-38.7"/>
<text text-anchor="start" x="132" y="-43.8" font-family="Helvetica,sans-Serif" font-size="11.00" fill="#000000"> &#160;</text>
<polygon fill="#ffffff" stroke="transparent" points="153,-38.7 153,-55.7 175,-55.7 175,-38.7 153,-38.7"/>
<text text-anchor="start" x="160.9431" y="-43.8" font-family="Helvetica,sans-Serif" font-size="11.00" fill="#000000"> &#160;</text>
<polygon fill="#ffffff" stroke="transparent" points="175,-38.7 175,-55.7 206,-55.7 206,-38.7 175,-38.7"/>
<text text-anchor="start" x="188.4053" y="-43.8" font-family="Helvetica,sans-Serif" font-size="11.00" fill="#000000">2 &gt;</text>
<polygon fill="#000000" stroke="#000000" points="153,-38.7 153,-55.7 153,-55.7 153,-38.7 153,-38.7"/>
<polygon fill="#000000" stroke="#000000" points="175,-38.7 175,-55.7 175,-55.7 175,-38.7 175,-38.7"/>
</a>
</g>
</g>
<!-- UserRoles&#45;&gt;Roles -->
<g id="edge3" class="edge">
<title>UserRoles:w&#45;&gt;Roles:e</title>
<path fill="none" stroke="#000000" d="M390.2032,-157.7513C366.9305,-150.5882 364.2985,-125.371 336,-110.7 282.0924,-82.7522 267.7216,-65.7 207,-65.7"/>
<polygon fill="#000000" stroke="#000000" points="396.5733,-158.6195 404.0138,-163.267 400.5366,-159.1598 404.5,-159.7 404.5,-159.7 404.5,-159.7 400.5366,-159.1598 404.9862,-156.133 396.5733,-158.6195 396.5733,-158.6195"/>
<ellipse fill="none" stroke="#000000" cx="393.4026" cy="-158.1874" rx="3.2" ry="3.2"/>
</g>
<!-- UserTokens -->
<g id="node6" class="node">
<title>UserTokens</title>
<g id="a_node6"><a xlink:href="../../tables/UserTokens.html" xlink:title="UserTokens" target="_top">
<polygon fill="#ffffff" stroke="transparent" points="404.5,-330.2 404.5,-457.2 528.5,-457.2 528.5,-330.2 404.5,-330.2"/>
<polygon fill="#f5f5f5" stroke="transparent" points="404.5,-433.7 404.5,-456.7 528.5,-456.7 528.5,-433.7 404.5,-433.7"/>
<polygon fill="none" stroke="#000000" points="404.5,-433.7 404.5,-456.7 528.5,-456.7 528.5,-433.7 404.5,-433.7"/>
<text text-anchor="start" x="409.5" y="-442.3" font-family="Helvetica,sans-Serif" font-weight="bold" font-size="11.00" fill="#000000">UserTokens</text>
<text text-anchor="start" x="494.0219" y="-441.8" font-family="Helvetica,sans-Serif" font-size="11.00" fill="#000000">[table]</text>
<polygon fill="none" stroke="#000000" points="404.5,-411.7 404.5,-433.7 528.5,-433.7 528.5,-411.7 404.5,-411.7"/>
<image xlink:href="../../images/primaryKeys.png" width="11px" height="12px" preserveAspectRatio="xMinYMin meet" x="409.5" y="-428.7"/>
<text text-anchor="start" x="424.5" y="-418.8" font-family="Helvetica,sans-Serif" font-size="11.00" fill="#000000">UserId</text>
<polygon fill="none" stroke="#000000" points="404.5,-389.7 404.5,-411.7 528.5,-411.7 528.5,-389.7 404.5,-389.7"/>
<image xlink:href="../../images/primaryKeys.png" width="11px" height="12px" preserveAspectRatio="xMinYMin meet" x="409.5" y="-406.7"/>
<text text-anchor="start" x="424.5" y="-396.8" font-family="Helvetica,sans-Serif" font-size="11.00" fill="#000000">LoginProvider</text>
<polygon fill="none" stroke="#000000" points="404.5,-367.7 404.5,-389.7 528.5,-389.7 528.5,-367.7 404.5,-367.7"/>
<image xlink:href="../../images/primaryKeys.png" width="11px" height="12px" preserveAspectRatio="xMinYMin meet" x="409.5" y="-384.7"/>
<text text-anchor="start" x="424.5" y="-374.8" font-family="Helvetica,sans-Serif" font-size="11.00" fill="#000000">Name</text>
<polygon fill="none" stroke="#000000" points="404.5,-348.7 404.5,-367.7 528.5,-367.7 528.5,-348.7 404.5,-348.7"/>
<text text-anchor="start" x="407.5" y="-354.8" font-family="Helvetica,sans-Serif" font-size="11.00" fill="#000000">...</text>
<polygon fill="#ffffff" stroke="transparent" points="404.5,-329.7 404.5,-348.7 528.5,-348.7 528.5,-329.7 404.5,-329.7"/>
<polygon fill="none" stroke="#000000" points="404.5,-329.7 404.5,-348.7 528.5,-348.7 528.5,-329.7 404.5,-329.7"/>
<polygon fill="#ffffff" stroke="transparent" points="405.5,-330.7 405.5,-347.7 452.5,-347.7 452.5,-330.7 405.5,-330.7"/>
<text text-anchor="start" x="407.5" y="-335.8" font-family="Helvetica,sans-Serif" font-size="11.00" fill="#000000">&lt; 1</text>
<polygon fill="#ffffff" stroke="transparent" points="452.5,-330.7 452.5,-347.7 490.5,-347.7 490.5,-330.7 452.5,-330.7"/>
<text text-anchor="start" x="468.4431" y="-335.8" font-family="Helvetica,sans-Serif" font-size="11.00" fill="#000000"> &#160;</text>
<polygon fill="#ffffff" stroke="transparent" points="490.5,-330.7 490.5,-347.7 527.5,-347.7 527.5,-330.7 490.5,-330.7"/>
<text text-anchor="start" x="519.3862" y="-335.8" font-family="Helvetica,sans-Serif" font-size="11.00" fill="#000000"> &#160;</text>
<polygon fill="#000000" stroke="#000000" points="452.5,-330.7 452.5,-347.7 452.5,-347.7 452.5,-330.7 452.5,-330.7"/>
<polygon fill="#000000" stroke="#000000" points="490.5,-330.7 490.5,-347.7 490.5,-347.7 490.5,-330.7 490.5,-330.7"/>
</a>
</g>
</g>
<!-- UserTokens&#45;&gt;Users -->
<g id="edge5" class="edge">
<title>UserTokens:w&#45;&gt;Users:e</title>
<path fill="none" stroke="#000000" d="M390.0811,-425.4817C352.97,-442.0207 378.256,-526.7 326,-526.7"/>
<polygon fill="#000000" stroke="#000000" points="396.6448,-424.2155 405.182,-426.2348 400.5724,-423.4577 404.5,-422.7 404.5,-422.7 404.5,-422.7 400.5724,-423.4577 403.818,-419.1652 396.6448,-424.2155 396.6448,-424.2155"/>
<ellipse fill="none" stroke="#000000" cx="393.5028" cy="-424.8217" rx="3.2" ry="3.2"/>
</g>
</g>
</svg>
