<?xml version="1.0" encoding="UTF-8" standalone="no"?>
<!DOCTYPE svg PUBLIC "-//W3C//DTD SVG 1.1//EN"
 "http://www.w3.org/Graphics/SVG/1.1/DTD/svg11.dtd">
<!-- Generated by graphviz version 2.40.1 (20161225.0304)
 -->
<!-- Title: oneDegreeRelationshipsDiagram Pages: 1 -->
<svg width="517pt" height="267pt"
 viewBox="0.00 0.00 517.00 266.70" xmlns="http://www.w3.org/2000/svg" xmlns:xlink="http://www.w3.org/1999/xlink">
<g id="graph0" class="graph" transform="scale(1 1) rotate(0) translate(4 262.7)">
<title>oneDegreeRelationshipsDiagram</title>
<polygon fill="#ffffff" stroke="transparent" points="-4,4 -4,-262.7 513,-262.7 513,4 -4,4"/>
<text text-anchor="middle" x="72.4936" y="-7.3" font-family="Helvetica,sans-Serif" font-size="11.00" fill="#000000">Generated by SchemaSpy</text>
<!-- UserClaims -->
<g id="node1" class="node">
<title>UserClaims</title>
<g id="a_node1"><a xlink:href="../../tables/UserClaims.html" xlink:title="UserClaims" target="_top">
<polygon fill="#ffffff" stroke="transparent" points="257,-54.7 257,-254.7 501,-254.7 501,-54.7 257,-54.7"/>
<polygon fill="#f5f5f5" stroke="transparent" points="259,-229.7 259,-252.7 499,-252.7 499,-229.7 259,-229.7"/>
<polygon fill="none" stroke="#000000" points="259,-229.7 259,-252.7 499,-252.7 499,-229.7 259,-229.7"/>
<text text-anchor="start" x="264" y="-238.3" font-family="Helvetica,sans-Serif" font-weight="bold" font-size="11.00" fill="#000000">UserClaims</text>
<text text-anchor="start" x="464.0437" y="-237.8" font-family="Helvetica,sans-Serif" font-size="11.00" fill="#000000">[table]</text>
<polygon fill="none" stroke="#000000" points="259,-207.7 259,-229.7 383,-229.7 383,-207.7 259,-207.7"/>
<image xlink:href="../../images/primaryKeys.png" width="11px" height="12px" preserveAspectRatio="xMinYMin meet" x="264" y="-224.7"/>
<text text-anchor="start" x="279" y="-214.8" font-family="Helvetica,sans-Serif" font-size="11.00" fill="#000000">Id</text>
<polygon fill="none" stroke="#000000" points="383,-207.7 383,-229.7 499,-229.7 499,-207.7 383,-207.7"/>
<text text-anchor="start" x="386" y="-215.4" font-family="Helvetica,sans-Serif" font-size="11.00" fill="#000000">int identity[4]</text>
<polygon fill="none" stroke="#000000" points="259,-185.7 259,-207.7 383,-207.7 383,-185.7 259,-185.7"/>
<text text-anchor="start" x="279" y="-192.8" font-family="Helvetica,sans-Serif" font-size="11.00" fill="#000000">CreatedAtUtc</text>
<polygon fill="none" stroke="#000000" points="383,-185.7 383,-207.7 499,-207.7 499,-185.7 383,-185.7"/>
<text text-anchor="start" x="386" y="-193.4" font-family="Helvetica,sans-Serif" font-size="11.00" fill="#000000">datetime2[16,7]</text>
<polygon fill="none" stroke="#000000" points="259,-163.7 259,-185.7 383,-185.7 383,-163.7 259,-163.7"/>
<text text-anchor="start" x="279" y="-170.8" font-family="Helvetica,sans-Serif" font-size="11.00" fill="#000000">UpdatedAtUtc</text>
<polygon fill="none" stroke="#000000" points="383,-163.7 383,-185.7 499,-185.7 499,-163.7 383,-163.7"/>
<text text-anchor="start" x="386" y="-171.4" font-family="Helvetica,sans-Serif" font-size="11.00" fill="#000000">datetime2[16,7]</text>
<polygon fill="none" stroke="#000000" points="259,-141.7 259,-163.7 383,-163.7 383,-141.7 259,-141.7"/>
<text text-anchor="start" x="279" y="-148.8" font-family="Helvetica,sans-Serif" font-size="11.00" fill="#000000">RowVersion</text>
<polygon fill="none" stroke="#000000" points="383,-141.7 383,-163.7 499,-163.7 499,-141.7 383,-141.7"/>
<text text-anchor="start" x="386" y="-149.4" font-family="Helvetica,sans-Serif" font-size="11.00" fill="#000000">timestamp[8]</text>
<polygon fill="#ffffff" stroke="transparent" points="259,-119.7 259,-141.7 383,-141.7 383,-119.7 259,-119.7"/>
<polygon fill="none" stroke="#000000" points="259,-119.7 259,-141.7 383,-141.7 383,-119.7 259,-119.7"/>
<image xlink:href="../../images/foreignKeys.png" width="11px" height="12px" preserveAspectRatio="xMinYMin meet" x="264" y="-136.7"/>
<text text-anchor="start" x="279" y="-126.8" font-family="Helvetica,sans-Serif" font-size="11.00" fill="#000000">UserId</text>
<polygon fill="none" stroke="#000000" points="383,-119.7 383,-141.7 499,-141.7 499,-119.7 383,-119.7"/>
<text text-anchor="start" x="386" y="-127.4" font-family="Helvetica,sans-Serif" font-size="11.00" fill="#000000">int[4]</text>
<polygon fill="none" stroke="#000000" points="259,-97.7 259,-119.7 383,-119.7 383,-97.7 259,-97.7"/>
<text text-anchor="start" x="279" y="-104.8" font-family="Helvetica,sans-Serif" font-size="11.00" fill="#000000">ClaimType</text>
<polygon fill="none" stroke="#000000" points="383,-97.7 383,-119.7 499,-119.7 499,-97.7 383,-97.7"/>
<text text-anchor="start" x="385.9769" y="-105.4" font-family="Helvetica,sans-Serif" font-size="11.00" fill="#000000">nvarchar[2147483647]</text>
<polygon fill="none" stroke="#000000" points="259,-75.7 259,-97.7 383,-97.7 383,-75.7 259,-75.7"/>
<text text-anchor="start" x="279" y="-82.8" font-family="Helvetica,sans-Serif" font-size="11.00" fill="#000000">ClaimValue</text>
<polygon fill="none" stroke="#000000" points="383,-75.7 383,-97.7 499,-97.7 499,-75.7 383,-75.7"/>
<text text-anchor="start" x="385.9769" y="-83.4" font-family="Helvetica,sans-Serif" font-size="11.00" fill="#000000">nvarchar[2147483647]</text>
<polygon fill="#ffffff" stroke="transparent" points="259,-56.7 259,-75.7 499,-75.7 499,-56.7 259,-56.7"/>
<polygon fill="none" stroke="#000000" points="259,-56.7 259,-75.7 499,-75.7 499,-56.7 259,-56.7"/>
<polygon fill="#ffffff" stroke="transparent" points="260,-57.7 260,-74.7 343,-74.7 343,-57.7 260,-57.7"/>
<text text-anchor="start" x="262" y="-62.8" font-family="Helvetica,sans-Serif" font-size="11.00" fill="#000000">&lt; 1</text>
<polygon fill="#ffffff" stroke="transparent" points="343,-57.7 343,-74.7 416,-74.7 416,-57.7 343,-57.7"/>
<text text-anchor="start" x="376.4431" y="-62.8" font-family="Helvetica,sans-Serif" font-size="11.00" fill="#000000"> &#160;</text>
<polygon fill="#ffffff" stroke="transparent" points="416,-57.7 416,-74.7 498,-74.7 498,-57.7 416,-57.7"/>
<text text-anchor="start" x="480.4053" y="-62.8" font-family="Helvetica,sans-Serif" font-size="11.00" fill="#000000">0 &gt;</text>
<polygon fill="#000000" stroke="#000000" points="343,-57.7 343,-74.7 343,-74.7 343,-57.7 343,-57.7"/>
<polygon fill="#000000" stroke="#000000" points="416,-57.7 416,-74.7 416,-74.7 416,-57.7 416,-57.7"/>
<polygon fill="none" stroke="#000000" stroke-width="2" points="258,-55.7 258,-253.7 500,-253.7 500,-55.7 258,-55.7"/>
</a>
</g>
</g>
<!-- Users -->
<g id="node2" class="node">
<title>Users</title>
<g id="a_node2"><a xlink:href="../../tables/Users.html" xlink:title="Users" target="_top">
<polygon fill="#ffffff" stroke="transparent" points="8,-38.2 8,-165.2 208,-165.2 208,-38.2 8,-38.2"/>
<polygon fill="#f5f5f5" stroke="transparent" points="8,-141.7 8,-164.7 208,-164.7 208,-141.7 8,-141.7"/>
<polygon fill="none" stroke="#000000" points="8,-141.7 8,-164.7 208,-164.7 208,-141.7 8,-141.7"/>
<text text-anchor="start" x="13" y="-150.3" font-family="Helvetica,sans-Serif" font-weight="bold" font-size="11.00" fill="#000000">Users</text>
<text text-anchor="start" x="173.0437" y="-149.8" font-family="Helvetica,sans-Serif" font-size="11.00" fill="#000000">[table]</text>
<polygon fill="none" stroke="#000000" points="8,-119.7 8,-141.7 208,-141.7 208,-119.7 8,-119.7"/>
<image xlink:href="../../images/primaryKeys.png" width="11px" height="12px" preserveAspectRatio="xMinYMin meet" x="13" y="-136.7"/>
<text text-anchor="start" x="28" y="-126.8" font-family="Helvetica,sans-Serif" font-size="11.00" fill="#000000">Id</text>
<polygon fill="#ffffff" stroke="transparent" points="8,-97.7 8,-119.7 208,-119.7 208,-97.7 8,-97.7"/>
<polygon fill="none" stroke="#000000" points="8,-97.7 8,-119.7 208,-119.7 208,-97.7 8,-97.7"/>
<text text-anchor="start" x="28" y="-104.8" font-family="Helvetica,sans-Serif" font-size="11.00" fill="#000000">NormalizedUserName</text>
<polygon fill="#ffffff" stroke="transparent" points="8,-75.7 8,-97.7 208,-97.7 208,-75.7 8,-75.7"/>
<polygon fill="none" stroke="#000000" points="8,-75.7 8,-97.7 208,-97.7 208,-75.7 8,-75.7"/>
<text text-anchor="start" x="28" y="-82.8" font-family="Helvetica,sans-Serif" font-size="11.00" fill="#000000">NormalizedEmail</text>
<polygon fill="none" stroke="#000000" points="8,-56.7 8,-75.7 208,-75.7 208,-56.7 8,-56.7"/>
<text text-anchor="start" x="11" y="-62.8" font-family="Helvetica,sans-Serif" font-size="11.00" fill="#000000">...</text>
<polygon fill="#ffffff" stroke="transparent" points="8,-37.7 8,-56.7 208,-56.7 208,-37.7 8,-37.7"/>
<polygon fill="none" stroke="#000000" points="8,-37.7 8,-56.7 208,-56.7 208,-37.7 8,-37.7"/>
<polygon fill="#ffffff" stroke="transparent" points="9,-38.7 9,-55.7 72,-55.7 72,-38.7 9,-38.7"/>
<text text-anchor="start" x="11" y="-43.8" font-family="Helvetica,sans-Serif" font-size="11.00" fill="#000000"> &#160;</text>
<polygon fill="#ffffff" stroke="transparent" points="72,-38.7 72,-55.7 135,-55.7 135,-38.7 72,-38.7"/>
<text text-anchor="start" x="100.4431" y="-43.8" font-family="Helvetica,sans-Serif" font-size="11.00" fill="#000000"> &#160;</text>
<polygon fill="#ffffff" stroke="transparent" points="135,-38.7 135,-55.7 207,-55.7 207,-38.7 135,-38.7"/>
<text text-anchor="start" x="189.4053" y="-43.8" font-family="Helvetica,sans-Serif" font-size="11.00" fill="#000000">4 &gt;</text>
<polygon fill="#000000" stroke="#000000" points="72,-38.7 72,-55.7 72,-55.7 72,-38.7 72,-38.7"/>
<polygon fill="#000000" stroke="#000000" points="135,-38.7 135,-55.7 135,-55.7 135,-38.7 135,-38.7"/>
</a>
</g>
</g>
<!-- UserClaims&#45;&gt;Users -->
<g id="edge1" class="edge">
<title>UserClaims:w&#45;&gt;Users:e</title>
<path fill="none" stroke="#000000" d="M244.276,-130.7C232.2815,-130.7 224.8229,-130.7 208,-130.7"/>
<polygon fill="#000000" stroke="#000000" points="251,-130.7001 259,-134.3 255,-130.7 259,-130.7 259,-130.7 259,-130.7 255,-130.7 259,-127.1 251,-130.7001 251,-130.7001"/>
<ellipse fill="none" stroke="#000000" cx="247.8" cy="-130.7001" rx="3.2" ry="3.2"/>
</g>
</g>
</svg>
