<?xml version="1.0" encoding="UTF-8" standalone="no"?>
<!DOCTYPE svg PUBLIC "-//W3C//DTD SVG 1.1//EN"
 "http://www.w3.org/Graphics/SVG/1.1/DTD/svg11.dtd">
<!-- Generated by graphviz version 2.40.1 (20161225.0304)
 -->
<!-- Title: oneDegreeRelationshipsDiagram Pages: 1 -->
<svg width="517pt" height="250pt"
 viewBox="0.00 0.00 517.00 250.20" xmlns="http://www.w3.org/2000/svg" xmlns:xlink="http://www.w3.org/1999/xlink">
<g id="graph0" class="graph" transform="scale(1 1) rotate(0) translate(4 246.2)">
<title>oneDegreeRelationshipsDiagram</title>
<polygon fill="#ffffff" stroke="transparent" points="-4,4 -4,-246.2 513,-246.2 513,4 -4,4"/>
<text text-anchor="middle" x="72.4936" y="-7.3" font-family="Helvetica,sans-Serif" font-size="11.00" fill="#000000">Generated by SchemaSpy</text>
<!-- UserTokens -->
<g id="node1" class="node">
<title>UserTokens</title>
<g id="a_node1"><a xlink:href="../../tables/UserTokens.html" xlink:title="UserTokens" target="_top">
<polygon fill="#ffffff" stroke="transparent" points="257,-38.2 257,-238.2 501,-238.2 501,-38.2 257,-38.2"/>
<polygon fill="#f5f5f5" stroke="transparent" points="259,-213.2 259,-236.2 499,-236.2 499,-213.2 259,-213.2"/>
<polygon fill="none" stroke="#000000" points="259,-213.2 259,-236.2 499,-236.2 499,-213.2 259,-213.2"/>
<text text-anchor="start" x="264" y="-221.8" font-family="Helvetica,sans-Serif" font-weight="bold" font-size="11.00" fill="#000000">UserTokens</text>
<text text-anchor="start" x="464.0437" y="-221.3" font-family="Helvetica,sans-Serif" font-size="11.00" fill="#000000">[table]</text>
<polygon fill="none" stroke="#000000" points="259,-191.2 259,-213.2 383,-213.2 383,-191.2 259,-191.2"/>
<image xlink:href="../../images/primaryKeys.png" width="11px" height="12px" preserveAspectRatio="xMinYMin meet" x="264" y="-208.2"/>
<text text-anchor="start" x="279" y="-198.3" font-family="Helvetica,sans-Serif" font-size="11.00" fill="#000000">UserId</text>
<polygon fill="none" stroke="#000000" points="383,-191.2 383,-213.2 499,-213.2 499,-191.2 383,-191.2"/>
<text text-anchor="start" x="386" y="-198.9" font-family="Helvetica,sans-Serif" font-size="11.00" fill="#000000">int[4]</text>
<polygon fill="none" stroke="#000000" points="259,-169.2 259,-191.2 383,-191.2 383,-169.2 259,-169.2"/>
<image xlink:href="../../images/primaryKeys.png" width="11px" height="12px" preserveAspectRatio="xMinYMin meet" x="264" y="-186.2"/>
<text text-anchor="start" x="279" y="-176.3" font-family="Helvetica,sans-Serif" font-size="11.00" fill="#000000">LoginProvider</text>
<polygon fill="none" stroke="#000000" points="383,-169.2 383,-191.2 499,-191.2 499,-169.2 383,-169.2"/>
<text text-anchor="start" x="386" y="-176.9" font-family="Helvetica,sans-Serif" font-size="11.00" fill="#000000">nvarchar[256]</text>
<polygon fill="none" stroke="#000000" points="259,-147.2 259,-169.2 383,-169.2 383,-147.2 259,-147.2"/>
<image xlink:href="../../images/primaryKeys.png" width="11px" height="12px" preserveAspectRatio="xMinYMin meet" x="264" y="-164.2"/>
<text text-anchor="start" x="279" y="-154.3" font-family="Helvetica,sans-Serif" font-size="11.00" fill="#000000">Name</text>
<polygon fill="none" stroke="#000000" points="383,-147.2 383,-169.2 499,-169.2 499,-147.2 383,-147.2"/>
<text text-anchor="start" x="386" y="-154.9" font-family="Helvetica,sans-Serif" font-size="11.00" fill="#000000">nvarchar[256]</text>
<polygon fill="none" stroke="#000000" points="259,-125.2 259,-147.2 383,-147.2 383,-125.2 259,-125.2"/>
<text text-anchor="start" x="279" y="-132.3" font-family="Helvetica,sans-Serif" font-size="11.00" fill="#000000">CreatedAtUtc</text>
<polygon fill="none" stroke="#000000" points="383,-125.2 383,-147.2 499,-147.2 499,-125.2 383,-125.2"/>
<text text-anchor="start" x="386" y="-132.9" font-family="Helvetica,sans-Serif" font-size="11.00" fill="#000000">datetime2[16,7]</text>
<polygon fill="none" stroke="#000000" points="259,-103.2 259,-125.2 383,-125.2 383,-103.2 259,-103.2"/>
<text text-anchor="start" x="279" y="-110.3" font-family="Helvetica,sans-Serif" font-size="11.00" fill="#000000">UpdatedAtUtc</text>
<polygon fill="none" stroke="#000000" points="383,-103.2 383,-125.2 499,-125.2 499,-103.2 383,-103.2"/>
<text text-anchor="start" x="386" y="-110.9" font-family="Helvetica,sans-Serif" font-size="11.00" fill="#000000">datetime2[16,7]</text>
<polygon fill="none" stroke="#000000" points="259,-81.2 259,-103.2 383,-103.2 383,-81.2 259,-81.2"/>
<text text-anchor="start" x="279" y="-88.3" font-family="Helvetica,sans-Serif" font-size="11.00" fill="#000000">RowVersion</text>
<polygon fill="none" stroke="#000000" points="383,-81.2 383,-103.2 499,-103.2 499,-81.2 383,-81.2"/>
<text text-anchor="start" x="386" y="-88.9" font-family="Helvetica,sans-Serif" font-size="11.00" fill="#000000">timestamp[8]</text>
<polygon fill="none" stroke="#000000" points="259,-59.2 259,-81.2 383,-81.2 383,-59.2 259,-59.2"/>
<text text-anchor="start" x="279" y="-66.3" font-family="Helvetica,sans-Serif" font-size="11.00" fill="#000000">Value</text>
<polygon fill="none" stroke="#000000" points="383,-59.2 383,-81.2 499,-81.2 499,-59.2 383,-59.2"/>
<text text-anchor="start" x="385.9769" y="-66.9" font-family="Helvetica,sans-Serif" font-size="11.00" fill="#000000">nvarchar[2147483647]</text>
<polygon fill="#ffffff" stroke="transparent" points="259,-40.2 259,-59.2 499,-59.2 499,-40.2 259,-40.2"/>
<polygon fill="none" stroke="#000000" points="259,-40.2 259,-59.2 499,-59.2 499,-40.2 259,-40.2"/>
<polygon fill="#ffffff" stroke="transparent" points="260,-41.2 260,-58.2 343,-58.2 343,-41.2 260,-41.2"/>
<text text-anchor="start" x="262" y="-46.3" font-family="Helvetica,sans-Serif" font-size="11.00" fill="#000000">&lt; 1</text>
<polygon fill="#ffffff" stroke="transparent" points="343,-41.2 343,-58.2 416,-58.2 416,-41.2 343,-41.2"/>
<text text-anchor="start" x="376.4431" y="-46.3" font-family="Helvetica,sans-Serif" font-size="11.00" fill="#000000"> &#160;</text>
<polygon fill="#ffffff" stroke="transparent" points="416,-41.2 416,-58.2 498,-58.2 498,-41.2 416,-41.2"/>
<text text-anchor="start" x="480.4053" y="-46.3" font-family="Helvetica,sans-Serif" font-size="11.00" fill="#000000">0 &gt;</text>
<polygon fill="#000000" stroke="#000000" points="343,-41.2 343,-58.2 343,-58.2 343,-41.2 343,-41.2"/>
<polygon fill="#000000" stroke="#000000" points="416,-41.2 416,-58.2 416,-58.2 416,-41.2 416,-41.2"/>
<polygon fill="none" stroke="#000000" stroke-width="2" points="258,-39.2 258,-237.2 500,-237.2 500,-39.2 258,-39.2"/>
</a>
</g>
</g>
<!-- Users -->
<g id="node2" class="node">
<title>Users</title>
<g id="a_node2"><a xlink:href="../../tables/Users.html" xlink:title="Users" target="_top">
<polygon fill="#ffffff" stroke="transparent" points="8,-109.7 8,-236.7 208,-236.7 208,-109.7 8,-109.7"/>
<polygon fill="#f5f5f5" stroke="transparent" points="8,-213.2 8,-236.2 208,-236.2 208,-213.2 8,-213.2"/>
<polygon fill="none" stroke="#000000" points="8,-213.2 8,-236.2 208,-236.2 208,-213.2 8,-213.2"/>
<text text-anchor="start" x="13" y="-221.8" font-family="Helvetica,sans-Serif" font-weight="bold" font-size="11.00" fill="#000000">Users</text>
<text text-anchor="start" x="173.0437" y="-221.3" font-family="Helvetica,sans-Serif" font-size="11.00" fill="#000000">[table]</text>
<polygon fill="none" stroke="#000000" points="8,-191.2 8,-213.2 208,-213.2 208,-191.2 8,-191.2"/>
<image xlink:href="../../images/primaryKeys.png" width="11px" height="12px" preserveAspectRatio="xMinYMin meet" x="13" y="-208.2"/>
<text text-anchor="start" x="28" y="-198.3" font-family="Helvetica,sans-Serif" font-size="11.00" fill="#000000">Id</text>
<polygon fill="#ffffff" stroke="transparent" points="8,-169.2 8,-191.2 208,-191.2 208,-169.2 8,-169.2"/>
<polygon fill="none" stroke="#000000" points="8,-169.2 8,-191.2 208,-191.2 208,-169.2 8,-169.2"/>
<text text-anchor="start" x="28" y="-176.3" font-family="Helvetica,sans-Serif" font-size="11.00" fill="#000000">NormalizedUserName</text>
<polygon fill="#ffffff" stroke="transparent" points="8,-147.2 8,-169.2 208,-169.2 208,-147.2 8,-147.2"/>
<polygon fill="none" stroke="#000000" points="8,-147.2 8,-169.2 208,-169.2 208,-147.2 8,-147.2"/>
<text text-anchor="start" x="28" y="-154.3" font-family="Helvetica,sans-Serif" font-size="11.00" fill="#000000">NormalizedEmail</text>
<polygon fill="none" stroke="#000000" points="8,-128.2 8,-147.2 208,-147.2 208,-128.2 8,-128.2"/>
<text text-anchor="start" x="11" y="-134.3" font-family="Helvetica,sans-Serif" font-size="11.00" fill="#000000">...</text>
<polygon fill="#ffffff" stroke="transparent" points="8,-109.2 8,-128.2 208,-128.2 208,-109.2 8,-109.2"/>
<polygon fill="none" stroke="#000000" points="8,-109.2 8,-128.2 208,-128.2 208,-109.2 8,-109.2"/>
<polygon fill="#ffffff" stroke="transparent" points="9,-110.2 9,-127.2 72,-127.2 72,-110.2 9,-110.2"/>
<text text-anchor="start" x="11" y="-115.3" font-family="Helvetica,sans-Serif" font-size="11.00" fill="#000000"> &#160;</text>
<polygon fill="#ffffff" stroke="transparent" points="72,-110.2 72,-127.2 135,-127.2 135,-110.2 72,-110.2"/>
<text text-anchor="start" x="100.4431" y="-115.3" font-family="Helvetica,sans-Serif" font-size="11.00" fill="#000000"> &#160;</text>
<polygon fill="#ffffff" stroke="transparent" points="135,-110.2 135,-127.2 207,-127.2 207,-110.2 135,-110.2"/>
<text text-anchor="start" x="189.4053" y="-115.3" font-family="Helvetica,sans-Serif" font-size="11.00" fill="#000000">4 &gt;</text>
<polygon fill="#000000" stroke="#000000" points="72,-110.2 72,-127.2 72,-127.2 72,-110.2 72,-110.2"/>
<polygon fill="#000000" stroke="#000000" points="135,-110.2 135,-127.2 135,-127.2 135,-110.2 135,-110.2"/>
</a>
</g>
</g>
<!-- UserTokens&#45;&gt;Users -->
<g id="edge1" class="edge">
<title>UserTokens:w&#45;&gt;Users:e</title>
<path fill="none" stroke="#000000" d="M244.276,-202.2C232.2815,-202.2 224.8229,-202.2 208,-202.2"/>
<polygon fill="#000000" stroke="#000000" points="251,-202.2001 259,-205.8 255,-202.2 259,-202.2 259,-202.2 259,-202.2 255,-202.2 259,-198.6 251,-202.2001 251,-202.2001"/>
<ellipse fill="none" stroke="#000000" cx="247.8" cy="-202.2001" rx="3.2" ry="3.2"/>
</g>
</g>
</svg>
