<?xml version="1.0" encoding="UTF-8" standalone="no"?>
<!DOCTYPE svg PUBLIC "-//W3C//DTD SVG 1.1//EN"
 "http://www.w3.org/Graphics/SVG/1.1/DTD/svg11.dtd">
<!-- Generated by graphviz version 2.40.1 (20161225.0304)
 -->
<!-- Title: oneDegreeRelationshipsDiagram Pages: 1 -->
<svg width="540pt" height="315pt"
 viewBox="0.00 0.00 540.00 314.70" xmlns="http://www.w3.org/2000/svg" xmlns:xlink="http://www.w3.org/1999/xlink">
<g id="graph0" class="graph" transform="scale(1 1) rotate(0) translate(4 310.7)">
<title>oneDegreeRelationshipsDiagram</title>
<polygon fill="#ffffff" stroke="transparent" points="-4,4 -4,-310.7 536,-310.7 536,4 -4,4"/>
<text text-anchor="middle" x="72.4936" y="-7.3" font-family="Helvetica,sans-Serif" font-size="11.00" fill="#000000">Generated by SchemaSpy</text>
<!-- HospitalizationInsurances -->
<g id="node1" class="node">
<title>HospitalizationInsurances</title>
<g id="a_node1"><a xlink:href="../../tables/HospitalizationInsurances.html" xlink:title="HospitalizationInsurances" target="_top">
<polygon fill="#ffffff" stroke="transparent" points="295,-175.7 295,-302.7 524,-302.7 524,-175.7 295,-175.7"/>
<polygon fill="#f5f5f5" stroke="transparent" points="295.5,-279.2 295.5,-302.2 524.5,-302.2 524.5,-279.2 295.5,-279.2"/>
<polygon fill="none" stroke="#000000" points="295.5,-279.2 295.5,-302.2 524.5,-302.2 524.5,-279.2 295.5,-279.2"/>
<text text-anchor="start" x="300.5" y="-287.8" font-family="Helvetica,sans-Serif" font-weight="bold" font-size="11.00" fill="#000000">HospitalizationInsurances</text>
<text text-anchor="start" x="490.0219" y="-287.3" font-family="Helvetica,sans-Serif" font-size="11.00" fill="#000000">[table]</text>
<polygon fill="none" stroke="#000000" points="295.5,-257.2 295.5,-279.2 524.5,-279.2 524.5,-257.2 295.5,-257.2"/>
<image xlink:href="../../images/primaryKeys.png" width="11px" height="12px" preserveAspectRatio="xMinYMin meet" x="300.5" y="-274.2"/>
<text text-anchor="start" x="324.5" y="-264.3" font-family="Helvetica,sans-Serif" font-size="11.00" fill="#000000">Id</text>
<polygon fill="#ffffff" stroke="transparent" points="295.5,-235.2 295.5,-257.2 524.5,-257.2 524.5,-235.2 295.5,-235.2"/>
<polygon fill="none" stroke="#000000" points="295.5,-235.2 295.5,-257.2 524.5,-257.2 524.5,-235.2 295.5,-235.2"/>
<image xlink:href="../../images/foreignKeys.png" width="11px" height="12px" preserveAspectRatio="xMinYMin meet" x="300.5" y="-252.2"/>
<text text-anchor="start" x="324.5" y="-242.3" font-family="Helvetica,sans-Serif" font-size="11.00" fill="#000000">HospitalizationId</text>
<polygon fill="#ffffff" stroke="transparent" points="295.5,-213.2 295.5,-235.2 524.5,-235.2 524.5,-213.2 295.5,-213.2"/>
<polygon fill="none" stroke="#000000" points="295.5,-213.2 295.5,-235.2 524.5,-235.2 524.5,-213.2 295.5,-213.2"/>
<image xlink:href="../../images/foreignKeys.png" width="11px" height="12px" preserveAspectRatio="xMinYMin meet" x="300.5" y="-230.2"/>
<text text-anchor="start" x="324.5" y="-220.3" font-family="Helvetica,sans-Serif" font-size="11.00" fill="#000000">InsuranceId</text>
<polygon fill="none" stroke="#000000" points="295.5,-194.2 295.5,-213.2 524.5,-213.2 524.5,-194.2 295.5,-194.2"/>
<text text-anchor="start" x="298.5" y="-200.3" font-family="Helvetica,sans-Serif" font-size="11.00" fill="#000000">...</text>
<polygon fill="#ffffff" stroke="transparent" points="295.5,-175.2 295.5,-194.2 524.5,-194.2 524.5,-175.2 295.5,-175.2"/>
<polygon fill="none" stroke="#000000" points="295.5,-175.2 295.5,-194.2 524.5,-194.2 524.5,-175.2 295.5,-175.2"/>
<polygon fill="#ffffff" stroke="transparent" points="296.5,-176.2 296.5,-193.2 378.5,-193.2 378.5,-176.2 296.5,-176.2"/>
<text text-anchor="start" x="298.5" y="-181.3" font-family="Helvetica,sans-Serif" font-size="11.00" fill="#000000">&lt; 2</text>
<polygon fill="#ffffff" stroke="transparent" points="378.5,-176.2 378.5,-193.2 451.5,-193.2 451.5,-176.2 378.5,-176.2"/>
<text text-anchor="start" x="411.9431" y="-181.3" font-family="Helvetica,sans-Serif" font-size="11.00" fill="#000000"> &#160;</text>
<polygon fill="#ffffff" stroke="transparent" points="451.5,-176.2 451.5,-193.2 523.5,-193.2 523.5,-176.2 451.5,-176.2"/>
<text text-anchor="start" x="515.3862" y="-181.3" font-family="Helvetica,sans-Serif" font-size="11.00" fill="#000000"> &#160;</text>
<polygon fill="#000000" stroke="#000000" points="378.5,-176.2 378.5,-193.2 378.5,-193.2 378.5,-176.2 378.5,-176.2"/>
<polygon fill="#000000" stroke="#000000" points="451.5,-176.2 451.5,-193.2 451.5,-193.2 451.5,-176.2 451.5,-176.2"/>
</a>
</g>
</g>
<!-- Insurances -->
<g id="node2" class="node">
<title>Insurances</title>
<g id="a_node2"><a xlink:href="../../tables/Insurances.html" xlink:title="Insurances" target="_top">
<polygon fill="#ffffff" stroke="transparent" points="8,-38.2 8,-260.2 246,-260.2 246,-38.2 8,-38.2"/>
<polygon fill="#f5f5f5" stroke="transparent" points="10,-235.2 10,-258.2 244,-258.2 244,-235.2 10,-235.2"/>
<polygon fill="none" stroke="#000000" points="10,-235.2 10,-258.2 244,-258.2 244,-235.2 10,-235.2"/>
<text text-anchor="start" x="15" y="-243.8" font-family="Helvetica,sans-Serif" font-weight="bold" font-size="11.00" fill="#000000">Insurances</text>
<text text-anchor="start" x="209.0437" y="-243.3" font-family="Helvetica,sans-Serif" font-size="11.00" fill="#000000">[table]</text>
<polygon fill="none" stroke="#000000" points="10,-213.2 10,-235.2 163,-235.2 163,-213.2 10,-213.2"/>
<image xlink:href="../../images/primaryKeys.png" width="11px" height="12px" preserveAspectRatio="xMinYMin meet" x="15" y="-230.2"/>
<text text-anchor="start" x="30" y="-220.3" font-family="Helvetica,sans-Serif" font-size="11.00" fill="#000000">Id</text>
<polygon fill="none" stroke="#000000" points="163,-213.2 163,-235.2 244,-235.2 244,-213.2 163,-213.2"/>
<text text-anchor="start" x="166" y="-220.9" font-family="Helvetica,sans-Serif" font-size="11.00" fill="#000000">int identity[4]</text>
<polygon fill="none" stroke="#000000" points="10,-191.2 10,-213.2 163,-213.2 163,-191.2 10,-191.2"/>
<text text-anchor="start" x="30" y="-198.3" font-family="Helvetica,sans-Serif" font-size="11.00" fill="#000000">Code</text>
<polygon fill="none" stroke="#000000" points="163,-191.2 163,-213.2 244,-213.2 244,-191.2 163,-191.2"/>
<text text-anchor="start" x="166" y="-198.9" font-family="Helvetica,sans-Serif" font-size="11.00" fill="#000000">nvarchar[20]</text>
<polygon fill="none" stroke="#000000" points="10,-169.2 10,-191.2 163,-191.2 163,-169.2 10,-169.2"/>
<text text-anchor="start" x="30" y="-176.3" font-family="Helvetica,sans-Serif" font-size="11.00" fill="#000000">Description</text>
<polygon fill="none" stroke="#000000" points="163,-169.2 163,-191.2 244,-191.2 244,-169.2 163,-169.2"/>
<text text-anchor="start" x="166" y="-176.9" font-family="Helvetica,sans-Serif" font-size="11.00" fill="#000000">nvarchar[200]</text>
<polygon fill="none" stroke="#000000" points="10,-147.2 10,-169.2 163,-169.2 163,-147.2 10,-147.2"/>
<text text-anchor="start" x="30" y="-154.3" font-family="Helvetica,sans-Serif" font-size="11.00" fill="#000000">PhysicianIncluded</text>
<polygon fill="none" stroke="#000000" points="163,-147.2 163,-169.2 244,-169.2 244,-147.2 163,-147.2"/>
<text text-anchor="start" x="166" y="-154.9" font-family="Helvetica,sans-Serif" font-size="11.00" fill="#000000">bit[1]</text>
<polygon fill="none" stroke="#000000" points="10,-125.2 10,-147.2 163,-147.2 163,-125.2 10,-125.2"/>
<text text-anchor="start" x="30" y="-132.3" font-family="Helvetica,sans-Serif" font-size="11.00" fill="#000000">IsContracted</text>
<polygon fill="none" stroke="#000000" points="163,-125.2 163,-147.2 244,-147.2 244,-125.2 163,-125.2"/>
<text text-anchor="start" x="166" y="-132.9" font-family="Helvetica,sans-Serif" font-size="11.00" fill="#000000">bit[1]</text>
<polygon fill="none" stroke="#000000" points="10,-103.2 10,-125.2 163,-125.2 163,-103.2 10,-103.2"/>
<text text-anchor="start" x="30" y="-110.3" font-family="Helvetica,sans-Serif" font-size="11.00" fill="#000000">CreatedAtUtc</text>
<polygon fill="none" stroke="#000000" points="163,-103.2 163,-125.2 244,-125.2 244,-103.2 163,-103.2"/>
<text text-anchor="start" x="165.5967" y="-110.9" font-family="Helvetica,sans-Serif" font-size="11.00" fill="#000000">datetime2[16,7]</text>
<polygon fill="none" stroke="#000000" points="10,-81.2 10,-103.2 163,-103.2 163,-81.2 10,-81.2"/>
<text text-anchor="start" x="30" y="-88.3" font-family="Helvetica,sans-Serif" font-size="11.00" fill="#000000">UpdatedAtUtc</text>
<polygon fill="none" stroke="#000000" points="163,-81.2 163,-103.2 244,-103.2 244,-81.2 163,-81.2"/>
<text text-anchor="start" x="165.5967" y="-88.9" font-family="Helvetica,sans-Serif" font-size="11.00" fill="#000000">datetime2[16,7]</text>
<polygon fill="none" stroke="#000000" points="10,-59.2 10,-81.2 163,-81.2 163,-59.2 10,-59.2"/>
<text text-anchor="start" x="30" y="-66.3" font-family="Helvetica,sans-Serif" font-size="11.00" fill="#000000">RowVersion</text>
<polygon fill="none" stroke="#000000" points="163,-59.2 163,-81.2 244,-81.2 244,-59.2 163,-59.2"/>
<text text-anchor="start" x="166" y="-66.9" font-family="Helvetica,sans-Serif" font-size="11.00" fill="#000000">timestamp[8]</text>
<polygon fill="#ffffff" stroke="transparent" points="10,-40.2 10,-59.2 244,-59.2 244,-40.2 10,-40.2"/>
<polygon fill="none" stroke="#000000" points="10,-40.2 10,-59.2 244,-59.2 244,-40.2 10,-40.2"/>
<polygon fill="#ffffff" stroke="transparent" points="11,-41.2 11,-58.2 92,-58.2 92,-41.2 11,-41.2"/>
<text text-anchor="start" x="13" y="-46.3" font-family="Helvetica,sans-Serif" font-size="11.00" fill="#000000">&lt; 0</text>
<polygon fill="#ffffff" stroke="transparent" points="92,-41.2 92,-58.2 163,-58.2 163,-41.2 92,-41.2"/>
<text text-anchor="start" x="124.4431" y="-46.3" font-family="Helvetica,sans-Serif" font-size="11.00" fill="#000000"> &#160;</text>
<polygon fill="#ffffff" stroke="transparent" points="163,-41.2 163,-58.2 243,-58.2 243,-41.2 163,-41.2"/>
<text text-anchor="start" x="225.4053" y="-46.3" font-family="Helvetica,sans-Serif" font-size="11.00" fill="#000000">1 &gt;</text>
<polygon fill="#000000" stroke="#000000" points="92,-41.2 92,-58.2 92,-58.2 92,-41.2 92,-41.2"/>
<polygon fill="#000000" stroke="#000000" points="163,-41.2 163,-58.2 163,-58.2 163,-41.2 163,-41.2"/>
<polygon fill="none" stroke="#000000" stroke-width="2" points="9,-39.2 9,-259.2 245,-259.2 245,-39.2 9,-39.2"/>
</a>
</g>
</g>
<!-- HospitalizationInsurances&#45;&gt;Insurances -->
<g id="edge1" class="edge">
<title>HospitalizationInsurances:w&#45;&gt;Insurances:e</title>
<path fill="none" stroke="#000000" d="M281.0156,-224.2C268.6771,-224.2 261.1667,-224.2 244,-224.2"/>
<polygon fill="#000000" stroke="#000000" points="287.5,-224.2001 295.5,-227.8 291.5,-224.2 295.5,-224.2 295.5,-224.2 295.5,-224.2 291.5,-224.2 295.5,-220.6 287.5,-224.2001 287.5,-224.2001"/>
<ellipse fill="none" stroke="#000000" cx="284.3" cy="-224.2001" rx="3.2" ry="3.2"/>
</g>
</g>
</svg>
