<?xml version="1.0" encoding="UTF-8" standalone="no"?>
<!DOCTYPE svg PUBLIC "-//W3C//DTD SVG 1.1//EN"
 "http://www.w3.org/Graphics/SVG/1.1/DTD/svg11.dtd">
<!-- Generated by graphviz version 2.40.1 (20161225.0304)
 -->
<!-- Title: twoDegreesRelationshipsDiagram Pages: 1 -->
<svg width="782pt" height="451pt"
 viewBox="0.00 0.00 782.00 451.25" xmlns="http://www.w3.org/2000/svg" xmlns:xlink="http://www.w3.org/1999/xlink">
<g id="graph0" class="graph" transform="scale(1 1) rotate(0) translate(4 447.2541)">
<title>twoDegreesRelationshipsDiagram</title>
<polygon fill="#ffffff" stroke="transparent" points="-4,4 -4,-447.2541 778,-447.2541 778,4 -4,4"/>
<text text-anchor="middle" x="72.4936" y="-7.3" font-family="Helvetica,sans-Serif" font-size="11.00" fill="#000000">Generated by SchemaSpy</text>
<!-- Hospitalizations -->
<g id="node1" class="node">
<title>Hospitalizations</title>
<g id="a_node1"><a xlink:href="../../tables/Hospitalizations.html" xlink:title="Hospitalizations" target="_top">
<polygon fill="#ffffff" stroke="transparent" points="243,-296.2541 243,-357.2541 400,-357.2541 400,-296.2541 243,-296.2541"/>
<polygon fill="#f5f5f5" stroke="transparent" points="243.5,-333.7541 243.5,-356.7541 400.5,-356.7541 400.5,-333.7541 243.5,-333.7541"/>
<polygon fill="none" stroke="#000000" points="243.5,-333.7541 243.5,-356.7541 400.5,-356.7541 400.5,-333.7541 243.5,-333.7541"/>
<text text-anchor="start" x="248.5" y="-342.3541" font-family="Helvetica,sans-Serif" font-weight="bold" font-size="11.00" fill="#000000">Hospitalizations</text>
<text text-anchor="start" x="366.0219" y="-341.8541" font-family="Helvetica,sans-Serif" font-size="11.00" fill="#000000">[table]</text>
<polygon fill="none" stroke="#000000" points="243.5,-314.7541 243.5,-333.7541 400.5,-333.7541 400.5,-314.7541 243.5,-314.7541"/>
<text text-anchor="start" x="246.5" y="-320.8541" font-family="Helvetica,sans-Serif" font-size="11.00" fill="#000000">...</text>
<polygon fill="#ffffff" stroke="transparent" points="243.5,-295.7541 243.5,-314.7541 400.5,-314.7541 400.5,-295.7541 243.5,-295.7541"/>
<polygon fill="none" stroke="#000000" points="243.5,-295.7541 243.5,-314.7541 400.5,-314.7541 400.5,-295.7541 243.5,-295.7541"/>
<polygon fill="#ffffff" stroke="transparent" points="244.5,-296.7541 244.5,-313.7541 299.5,-313.7541 299.5,-296.7541 244.5,-296.7541"/>
<text text-anchor="start" x="246.5" y="-301.8541" font-family="Helvetica,sans-Serif" font-size="11.00" fill="#000000">&lt; 3</text>
<polygon fill="#ffffff" stroke="transparent" points="299.5,-296.7541 299.5,-313.7541 345.5,-313.7541 345.5,-296.7541 299.5,-296.7541"/>
<text text-anchor="start" x="319.4431" y="-301.8541" font-family="Helvetica,sans-Serif" font-size="11.00" fill="#000000"> &#160;</text>
<polygon fill="#ffffff" stroke="transparent" points="345.5,-296.7541 345.5,-313.7541 399.5,-313.7541 399.5,-296.7541 345.5,-296.7541"/>
<text text-anchor="start" x="381.9053" y="-301.8541" font-family="Helvetica,sans-Serif" font-size="11.00" fill="#000000">4 &gt;</text>
<polygon fill="#000000" stroke="#000000" points="299.5,-296.7541 299.5,-313.7541 299.5,-313.7541 299.5,-296.7541 299.5,-296.7541"/>
<polygon fill="#000000" stroke="#000000" points="345.5,-296.7541 345.5,-313.7541 345.5,-313.7541 345.5,-296.7541 345.5,-296.7541"/>
</a>
</g>
</g>
<!-- Facilities -->
<g id="node2" class="node">
<title>Facilities</title>
<g id="a_node2"><a xlink:href="../../tables/Facilities.html" xlink:title="Facilities" target="_top">
<polygon fill="#ffffff" stroke="transparent" points="8,-275.2541 8,-358.2541 132,-358.2541 132,-275.2541 8,-275.2541"/>
<polygon fill="#f5f5f5" stroke="transparent" points="8,-334.7541 8,-357.7541 132,-357.7541 132,-334.7541 8,-334.7541"/>
<polygon fill="none" stroke="#000000" points="8,-334.7541 8,-357.7541 132,-357.7541 132,-334.7541 8,-334.7541"/>
<text text-anchor="start" x="13" y="-343.3541" font-family="Helvetica,sans-Serif" font-weight="bold" font-size="11.00" fill="#000000">Facilities</text>
<text text-anchor="start" x="97.0437" y="-342.8541" font-family="Helvetica,sans-Serif" font-size="11.00" fill="#000000">[table]</text>
<polygon fill="none" stroke="#000000" points="8,-312.7541 8,-334.7541 132,-334.7541 132,-312.7541 8,-312.7541"/>
<image xlink:href="../../images/primaryKeys.png" width="11px" height="12px" preserveAspectRatio="xMinYMin meet" x="13" y="-329.754"/>
<text text-anchor="start" x="28" y="-319.8541" font-family="Helvetica,sans-Serif" font-size="11.00" fill="#000000">Id</text>
<polygon fill="none" stroke="#000000" points="8,-293.7541 8,-312.7541 132,-312.7541 132,-293.7541 8,-293.7541"/>
<text text-anchor="start" x="11" y="-299.8541" font-family="Helvetica,sans-Serif" font-size="11.00" fill="#000000">...</text>
<polygon fill="#ffffff" stroke="transparent" points="8,-274.7541 8,-293.7541 132,-293.7541 132,-274.7541 8,-274.7541"/>
<polygon fill="none" stroke="#000000" points="8,-274.7541 8,-293.7541 132,-293.7541 132,-274.7541 8,-274.7541"/>
<polygon fill="#ffffff" stroke="transparent" points="9,-275.7541 9,-292.7541 47,-292.7541 47,-275.7541 9,-275.7541"/>
<text text-anchor="start" x="11" y="-280.8541" font-family="Helvetica,sans-Serif" font-size="11.00" fill="#000000"> &#160;</text>
<polygon fill="#ffffff" stroke="transparent" points="47,-275.7541 47,-292.7541 85,-292.7541 85,-275.7541 47,-275.7541"/>
<text text-anchor="start" x="62.9431" y="-280.8541" font-family="Helvetica,sans-Serif" font-size="11.00" fill="#000000"> &#160;</text>
<polygon fill="#ffffff" stroke="transparent" points="85,-275.7541 85,-292.7541 131,-292.7541 131,-275.7541 85,-275.7541"/>
<text text-anchor="start" x="113.4053" y="-280.8541" font-family="Helvetica,sans-Serif" font-size="11.00" fill="#000000">3 &gt;</text>
<polygon fill="#000000" stroke="#000000" points="47,-275.7541 47,-292.7541 47,-292.7541 47,-275.7541 47,-275.7541"/>
<polygon fill="#000000" stroke="#000000" points="85,-275.7541 85,-292.7541 85,-292.7541 85,-275.7541 85,-275.7541"/>
</a>
</g>
</g>
<!-- Hospitalizations&#45;&gt;Facilities -->
<g id="edge1" class="edge">
<title>Hospitalizations:w&#45;&gt;Facilities:e</title>
<path fill="none" stroke="#000000" d="M228.9734,-323.7541C190.9177,-323.7541 176.329,-323.7541 132,-323.7541"/>
<polygon fill="#000000" stroke="#000000" points="235.5,-323.7542 243.5,-327.3541 239.5,-323.7542 243.5,-323.7541 243.5,-323.7541 243.5,-323.7541 239.5,-323.7542 243.5,-320.1541 235.5,-323.7542 235.5,-323.7542"/>
<ellipse fill="none" stroke="#000000" cx="232.3" cy="-323.7542" rx="3.2" ry="3.2"/>
</g>
<!-- Patients -->
<g id="node3" class="node">
<title>Patients</title>
<g id="a_node3"><a xlink:href="../../tables/Patients.html" xlink:title="Patients" target="_top">
<polygon fill="#ffffff" stroke="transparent" points="8,-168.2541 8,-251.2541 132,-251.2541 132,-168.2541 8,-168.2541"/>
<polygon fill="#f5f5f5" stroke="transparent" points="8,-227.7541 8,-250.7541 132,-250.7541 132,-227.7541 8,-227.7541"/>
<polygon fill="none" stroke="#000000" points="8,-227.7541 8,-250.7541 132,-250.7541 132,-227.7541 8,-227.7541"/>
<text text-anchor="start" x="13" y="-236.3541" font-family="Helvetica,sans-Serif" font-weight="bold" font-size="11.00" fill="#000000">Patients</text>
<text text-anchor="start" x="97.0437" y="-235.8541" font-family="Helvetica,sans-Serif" font-size="11.00" fill="#000000">[table]</text>
<polygon fill="none" stroke="#000000" points="8,-205.7541 8,-227.7541 132,-227.7541 132,-205.7541 8,-205.7541"/>
<image xlink:href="../../images/primaryKeys.png" width="11px" height="12px" preserveAspectRatio="xMinYMin meet" x="13" y="-222.754"/>
<text text-anchor="start" x="28" y="-212.8541" font-family="Helvetica,sans-Serif" font-size="11.00" fill="#000000">Id</text>
<polygon fill="none" stroke="#000000" points="8,-186.7541 8,-205.7541 132,-205.7541 132,-186.7541 8,-186.7541"/>
<text text-anchor="start" x="11" y="-192.8541" font-family="Helvetica,sans-Serif" font-size="11.00" fill="#000000">...</text>
<polygon fill="#ffffff" stroke="transparent" points="8,-167.7541 8,-186.7541 132,-186.7541 132,-167.7541 8,-167.7541"/>
<polygon fill="none" stroke="#000000" points="8,-167.7541 8,-186.7541 132,-186.7541 132,-167.7541 8,-167.7541"/>
<polygon fill="#ffffff" stroke="transparent" points="9,-168.7541 9,-185.7541 47,-185.7541 47,-168.7541 9,-168.7541"/>
<text text-anchor="start" x="11" y="-173.8541" font-family="Helvetica,sans-Serif" font-size="11.00" fill="#000000"> &#160;</text>
<polygon fill="#ffffff" stroke="transparent" points="47,-168.7541 47,-185.7541 85,-185.7541 85,-168.7541 47,-168.7541"/>
<text text-anchor="start" x="62.9431" y="-173.8541" font-family="Helvetica,sans-Serif" font-size="11.00" fill="#000000"> &#160;</text>
<polygon fill="#ffffff" stroke="transparent" points="85,-168.7541 85,-185.7541 131,-185.7541 131,-168.7541 85,-168.7541"/>
<text text-anchor="start" x="113.4053" y="-173.8541" font-family="Helvetica,sans-Serif" font-size="11.00" fill="#000000">3 &gt;</text>
<polygon fill="#000000" stroke="#000000" points="47,-168.7541 47,-185.7541 47,-185.7541 47,-168.7541 47,-168.7541"/>
<polygon fill="#000000" stroke="#000000" points="85,-168.7541 85,-185.7541 85,-185.7541 85,-168.7541 85,-168.7541"/>
</a>
</g>
</g>
<!-- Hospitalizations&#45;&gt;Patients -->
<g id="edge2" class="edge">
<title>Hospitalizations:w&#45;&gt;Patients:e</title>
<path fill="none" stroke="#000000" d="M228.9171,-322.8312C204.7148,-319.4213 194.7761,-306.6389 173,-285.7541 147.2547,-261.0626 167.672,-216.7541 132,-216.7541"/>
<polygon fill="#000000" stroke="#000000" points="235.516,-323.2488 243.2726,-327.3469 239.508,-323.5015 243.5,-323.7541 243.5,-323.7541 243.5,-323.7541 239.508,-323.5015 243.7274,-320.1613 235.516,-323.2488 235.516,-323.2488"/>
<ellipse fill="none" stroke="#000000" cx="232.3224" cy="-323.0466" rx="3.2" ry="3.2"/>
</g>
<!-- PatientFacilities -->
<g id="node4" class="node">
<title>PatientFacilities</title>
<g id="a_node4"><a xlink:href="../../tables/PatientFacilities.html" xlink:title="PatientFacilities" target="_top">
<polygon fill="#ffffff" stroke="transparent" points="209,-74.7541 209,-274.7541 434,-274.7541 434,-74.7541 209,-74.7541"/>
<polygon fill="#f5f5f5" stroke="transparent" points="211.5,-249.7541 211.5,-272.7541 432.5,-272.7541 432.5,-249.7541 211.5,-249.7541"/>
<polygon fill="none" stroke="#000000" points="211.5,-249.7541 211.5,-272.7541 432.5,-272.7541 432.5,-249.7541 211.5,-249.7541"/>
<text text-anchor="start" x="216.5" y="-258.3541" font-family="Helvetica,sans-Serif" font-weight="bold" font-size="11.00" fill="#000000">PatientFacilities</text>
<text text-anchor="start" x="397.5437" y="-257.8541" font-family="Helvetica,sans-Serif" font-size="11.00" fill="#000000">[table]</text>
<polygon fill="none" stroke="#000000" points="211.5,-227.7541 211.5,-249.7541 351.5,-249.7541 351.5,-227.7541 211.5,-227.7541"/>
<image xlink:href="../../images/primaryKeys.png" width="11px" height="12px" preserveAspectRatio="xMinYMin meet" x="216.5" y="-244.754"/>
<text text-anchor="start" x="231.5" y="-234.8541" font-family="Helvetica,sans-Serif" font-size="11.00" fill="#000000">Id</text>
<polygon fill="none" stroke="#000000" points="351.5,-227.7541 351.5,-249.7541 432.5,-249.7541 432.5,-227.7541 351.5,-227.7541"/>
<text text-anchor="start" x="354.5" y="-235.4541" font-family="Helvetica,sans-Serif" font-size="11.00" fill="#000000">int identity[4]</text>
<polygon fill="#ffffff" stroke="transparent" points="211.5,-205.7541 211.5,-227.7541 351.5,-227.7541 351.5,-205.7541 211.5,-205.7541"/>
<polygon fill="none" stroke="#000000" points="211.5,-205.7541 211.5,-227.7541 351.5,-227.7541 351.5,-205.7541 211.5,-205.7541"/>
<image xlink:href="../../images/foreignKeys.png" width="11px" height="12px" preserveAspectRatio="xMinYMin meet" x="216.5" y="-222.754"/>
<text text-anchor="start" x="231.5" y="-212.8541" font-family="Helvetica,sans-Serif" font-size="11.00" fill="#000000">PatientId</text>
<polygon fill="none" stroke="#000000" points="351.5,-205.7541 351.5,-227.7541 432.5,-227.7541 432.5,-205.7541 351.5,-205.7541"/>
<text text-anchor="start" x="354.5" y="-213.4541" font-family="Helvetica,sans-Serif" font-size="11.00" fill="#000000">int[4]</text>
<polygon fill="#ffffff" stroke="transparent" points="211.5,-183.7541 211.5,-205.7541 351.5,-205.7541 351.5,-183.7541 211.5,-183.7541"/>
<polygon fill="none" stroke="#000000" points="211.5,-183.7541 211.5,-205.7541 351.5,-205.7541 351.5,-183.7541 211.5,-183.7541"/>
<image xlink:href="../../images/foreignKeys.png" width="11px" height="12px" preserveAspectRatio="xMinYMin meet" x="216.5" y="-200.754"/>
<text text-anchor="start" x="231.5" y="-190.8541" font-family="Helvetica,sans-Serif" font-size="11.00" fill="#000000">FacilityId</text>
<polygon fill="none" stroke="#000000" points="351.5,-183.7541 351.5,-205.7541 432.5,-205.7541 432.5,-183.7541 351.5,-183.7541"/>
<text text-anchor="start" x="354.5" y="-191.4541" font-family="Helvetica,sans-Serif" font-size="11.00" fill="#000000">int[4]</text>
<polygon fill="#ffffff" stroke="transparent" points="211.5,-161.7541 211.5,-183.7541 351.5,-183.7541 351.5,-161.7541 211.5,-161.7541"/>
<polygon fill="none" stroke="#000000" points="211.5,-161.7541 211.5,-183.7541 351.5,-183.7541 351.5,-161.7541 211.5,-161.7541"/>
<text text-anchor="start" x="231.5" y="-168.8541" font-family="Helvetica,sans-Serif" font-size="11.00" fill="#000000">MRN</text>
<polygon fill="none" stroke="#000000" points="351.5,-161.7541 351.5,-183.7541 432.5,-183.7541 432.5,-161.7541 351.5,-161.7541"/>
<text text-anchor="start" x="354.5" y="-169.4541" font-family="Helvetica,sans-Serif" font-size="11.00" fill="#000000">nvarchar[900]</text>
<polygon fill="none" stroke="#000000" points="211.5,-139.7541 211.5,-161.7541 351.5,-161.7541 351.5,-139.7541 211.5,-139.7541"/>
<text text-anchor="start" x="231.5" y="-146.8541" font-family="Helvetica,sans-Serif" font-size="11.00" fill="#000000">CreatedAtUtc</text>
<polygon fill="none" stroke="#000000" points="351.5,-139.7541 351.5,-161.7541 432.5,-161.7541 432.5,-139.7541 351.5,-139.7541"/>
<text text-anchor="start" x="354.0968" y="-147.4541" font-family="Helvetica,sans-Serif" font-size="11.00" fill="#000000">datetime2[16,7]</text>
<polygon fill="none" stroke="#000000" points="211.5,-117.7541 211.5,-139.7541 351.5,-139.7541 351.5,-117.7541 211.5,-117.7541"/>
<text text-anchor="start" x="231.5" y="-124.8541" font-family="Helvetica,sans-Serif" font-size="11.00" fill="#000000">UpdatedAtUtc</text>
<polygon fill="none" stroke="#000000" points="351.5,-117.7541 351.5,-139.7541 432.5,-139.7541 432.5,-117.7541 351.5,-117.7541"/>
<text text-anchor="start" x="354.0968" y="-125.4541" font-family="Helvetica,sans-Serif" font-size="11.00" fill="#000000">datetime2[16,7]</text>
<polygon fill="none" stroke="#000000" points="211.5,-95.7541 211.5,-117.7541 351.5,-117.7541 351.5,-95.7541 211.5,-95.7541"/>
<text text-anchor="start" x="231.5" y="-102.8541" font-family="Helvetica,sans-Serif" font-size="11.00" fill="#000000">RowVersion</text>
<polygon fill="none" stroke="#000000" points="351.5,-95.7541 351.5,-117.7541 432.5,-117.7541 432.5,-95.7541 351.5,-95.7541"/>
<text text-anchor="start" x="354.5" y="-103.4541" font-family="Helvetica,sans-Serif" font-size="11.00" fill="#000000">timestamp[8]</text>
<polygon fill="#ffffff" stroke="transparent" points="211.5,-76.7541 211.5,-95.7541 432.5,-95.7541 432.5,-76.7541 211.5,-76.7541"/>
<polygon fill="none" stroke="#000000" points="211.5,-76.7541 211.5,-95.7541 432.5,-95.7541 432.5,-76.7541 211.5,-76.7541"/>
<polygon fill="#ffffff" stroke="transparent" points="212.5,-77.7541 212.5,-94.7541 288.5,-94.7541 288.5,-77.7541 212.5,-77.7541"/>
<text text-anchor="start" x="214.5" y="-82.8541" font-family="Helvetica,sans-Serif" font-size="11.00" fill="#000000">&lt; 2</text>
<polygon fill="#ffffff" stroke="transparent" points="288.5,-77.7541 288.5,-94.7541 355.5,-94.7541 355.5,-77.7541 288.5,-77.7541"/>
<text text-anchor="start" x="318.9431" y="-82.8541" font-family="Helvetica,sans-Serif" font-size="11.00" fill="#000000"> &#160;</text>
<polygon fill="#ffffff" stroke="transparent" points="355.5,-77.7541 355.5,-94.7541 431.5,-94.7541 431.5,-77.7541 355.5,-77.7541"/>
<text text-anchor="start" x="413.9053" y="-82.8541" font-family="Helvetica,sans-Serif" font-size="11.00" fill="#000000">0 &gt;</text>
<polygon fill="#000000" stroke="#000000" points="288.5,-77.7541 288.5,-94.7541 288.5,-94.7541 288.5,-77.7541 288.5,-77.7541"/>
<polygon fill="#000000" stroke="#000000" points="355.5,-77.7541 355.5,-94.7541 355.5,-94.7541 355.5,-77.7541 355.5,-77.7541"/>
<polygon fill="none" stroke="#000000" stroke-width="2" points="210,-75.7541 210,-273.7541 433,-273.7541 433,-75.7541 210,-75.7541"/>
</a>
</g>
</g>
<!-- PatientFacilities&#45;&gt;Facilities -->
<g id="edge3" class="edge">
<title>PatientFacilities:w&#45;&gt;Facilities:e</title>
<path fill="none" stroke="#000000" d="M197.2649,-197.2159C152.384,-215.0501 193.822,-323.7541 132,-323.7541"/>
<polygon fill="#000000" stroke="#000000" points="203.617,-196.1174 212.1135,-198.3015 207.5585,-195.4358 211.5,-194.7541 211.5,-194.7541 211.5,-194.7541 207.5585,-195.4358 210.8865,-191.2068 203.617,-196.1174 203.617,-196.1174"/>
<ellipse fill="none" stroke="#000000" cx="200.4638" cy="-196.6628" rx="3.2" ry="3.2"/>
</g>
<!-- PatientFacilities&#45;&gt;Patients -->
<g id="edge4" class="edge">
<title>PatientFacilities:w&#45;&gt;Patients:e</title>
<path fill="none" stroke="#000000" d="M197.0093,-216.7541C172.8602,-216.7541 161.9505,-216.7541 132,-216.7541"/>
<polygon fill="#000000" stroke="#000000" points="203.5,-216.7542 211.5,-220.3541 207.5,-216.7542 211.5,-216.7541 211.5,-216.7541 211.5,-216.7541 207.5,-216.7542 211.5,-213.1541 203.5,-216.7542 203.5,-216.7542"/>
<ellipse fill="none" stroke="#000000" cx="200.3" cy="-216.7542" rx="3.2" ry="3.2"/>
</g>
<!-- Compensation.ProviderContracts -->
<g id="node5" class="node">
<title>Compensation.ProviderContracts</title>
<g id="a_node5"><a xlink:title="Compensation.ProviderContracts">
<polygon fill="#ffffff" stroke="transparent" points="181,-378.2541 181,-439.2541 462,-439.2541 462,-378.2541 181,-378.2541"/>
<polygon fill="#f5f5f5" stroke="transparent" points="181.5,-415.7541 181.5,-438.7541 462.5,-438.7541 462.5,-415.7541 181.5,-415.7541"/>
<polygon fill="none" stroke="#000000" points="181.5,-415.7541 181.5,-438.7541 462.5,-438.7541 462.5,-415.7541 181.5,-415.7541"/>
<text text-anchor="start" x="186.5" y="-424.3541" font-family="Helvetica,sans-Serif" font-weight="bold" font-size="11.00" fill="#000000">Compensation.ProviderContracts</text>
<text text-anchor="start" x="428.0219" y="-423.8541" font-family="Helvetica,sans-Serif" font-size="11.00" fill="#000000">[table]</text>
<polygon fill="none" stroke="#000000" points="181.5,-396.7541 181.5,-415.7541 462.5,-415.7541 462.5,-396.7541 181.5,-396.7541"/>
<text text-anchor="start" x="184.5" y="-402.8541" font-family="Helvetica,sans-Serif" font-size="11.00" fill="#000000">...</text>
<polygon fill="#ffffff" stroke="transparent" points="181.5,-377.7541 181.5,-396.7541 462.5,-396.7541 462.5,-377.7541 181.5,-377.7541"/>
<polygon fill="none" stroke="#000000" points="181.5,-377.7541 181.5,-396.7541 462.5,-396.7541 462.5,-377.7541 181.5,-377.7541"/>
<polygon fill="#ffffff" stroke="transparent" points="182.5,-378.7541 182.5,-395.7541 281.5,-395.7541 281.5,-378.7541 182.5,-378.7541"/>
<text text-anchor="start" x="184.5" y="-383.8541" font-family="Helvetica,sans-Serif" font-size="11.00" fill="#000000">&lt; 1</text>
<polygon fill="#ffffff" stroke="transparent" points="281.5,-378.7541 281.5,-395.7541 371.5,-395.7541 371.5,-378.7541 281.5,-378.7541"/>
<text text-anchor="start" x="323.4431" y="-383.8541" font-family="Helvetica,sans-Serif" font-size="11.00" fill="#000000"> &#160;</text>
<polygon fill="#ffffff" stroke="transparent" points="371.5,-378.7541 371.5,-395.7541 461.5,-395.7541 461.5,-378.7541 371.5,-378.7541"/>
<text text-anchor="start" x="453.3862" y="-383.8541" font-family="Helvetica,sans-Serif" font-size="11.00" fill="#000000"> &#160;</text>
<polygon fill="#000000" stroke="#000000" points="281.5,-378.7541 281.5,-395.7541 281.5,-395.7541 281.5,-378.7541 281.5,-378.7541"/>
<polygon fill="#000000" stroke="#000000" points="371.5,-378.7541 371.5,-395.7541 371.5,-395.7541 371.5,-378.7541 371.5,-378.7541"/>
</a>
</g>
</g>
<!-- Compensation.ProviderContracts&#45;&gt;Facilities -->
<g id="edge5" class="edge">
<title>Compensation.ProviderContracts:w&#45;&gt;Facilities:e</title>
<path fill="none" stroke="#000000" d="M167.7457,-401.3455C147.4072,-384.3132 168.5835,-323.7541 132,-323.7541"/>
<polygon fill="#000000" stroke="#000000" points="173.8818,-403.3122 180.4011,-409.1823 177.6909,-404.5332 181.5,-405.7541 181.5,-405.7541 181.5,-405.7541 177.6909,-404.5332 182.5989,-402.3259 173.8818,-403.3122 173.8818,-403.3122"/>
<ellipse fill="none" stroke="#000000" cx="170.8345" cy="-402.3355" rx="3.2" ry="3.2"/>
</g>
<!-- staging.ProviderAssignments -->
<g id="node6" class="node">
<title>staging.ProviderAssignments</title>
<g id="a_node6"><a xlink:title="staging.ProviderAssignments">
<polygon fill="#ffffff" stroke="transparent" points="511,-159.2541 511,-220.2541 766,-220.2541 766,-159.2541 511,-159.2541"/>
<polygon fill="#f5f5f5" stroke="transparent" points="511.5,-196.7541 511.5,-219.7541 766.5,-219.7541 766.5,-196.7541 511.5,-196.7541"/>
<polygon fill="none" stroke="#000000" points="511.5,-196.7541 511.5,-219.7541 766.5,-219.7541 766.5,-196.7541 511.5,-196.7541"/>
<text text-anchor="start" x="516.5" y="-205.3541" font-family="Helvetica,sans-Serif" font-weight="bold" font-size="11.00" fill="#000000">staging.ProviderAssignments</text>
<text text-anchor="start" x="732.0219" y="-204.8541" font-family="Helvetica,sans-Serif" font-size="11.00" fill="#000000">[table]</text>
<polygon fill="none" stroke="#000000" points="511.5,-177.7541 511.5,-196.7541 766.5,-196.7541 766.5,-177.7541 511.5,-177.7541"/>
<text text-anchor="start" x="514.5" y="-183.8541" font-family="Helvetica,sans-Serif" font-size="11.00" fill="#000000">...</text>
<polygon fill="#ffffff" stroke="transparent" points="511.5,-158.7541 511.5,-177.7541 766.5,-177.7541 766.5,-158.7541 511.5,-158.7541"/>
<polygon fill="none" stroke="#000000" points="511.5,-158.7541 511.5,-177.7541 766.5,-177.7541 766.5,-158.7541 511.5,-158.7541"/>
<polygon fill="#ffffff" stroke="transparent" points="512.5,-159.7541 512.5,-176.7541 603.5,-176.7541 603.5,-159.7541 512.5,-159.7541"/>
<text text-anchor="start" x="514.5" y="-164.8541" font-family="Helvetica,sans-Serif" font-size="11.00" fill="#000000">&lt; 6</text>
<polygon fill="#ffffff" stroke="transparent" points="603.5,-159.7541 603.5,-176.7541 684.5,-176.7541 684.5,-159.7541 603.5,-159.7541"/>
<text text-anchor="start" x="640.9431" y="-164.8541" font-family="Helvetica,sans-Serif" font-size="11.00" fill="#000000"> &#160;</text>
<polygon fill="#ffffff" stroke="transparent" points="684.5,-159.7541 684.5,-176.7541 765.5,-176.7541 765.5,-159.7541 684.5,-159.7541"/>
<text text-anchor="start" x="757.3862" y="-164.8541" font-family="Helvetica,sans-Serif" font-size="11.00" fill="#000000"> &#160;</text>
<polygon fill="#000000" stroke="#000000" points="603.5,-159.7541 603.5,-176.7541 603.5,-176.7541 603.5,-159.7541 603.5,-159.7541"/>
<polygon fill="#000000" stroke="#000000" points="684.5,-159.7541 684.5,-176.7541 684.5,-176.7541 684.5,-159.7541 684.5,-159.7541"/>
</a>
</g>
</g>
<!-- staging.ProviderAssignments&#45;&gt;Hospitalizations -->
<g id="edge6" class="edge">
<title>staging.ProviderAssignments:w&#45;&gt;Hospitalizations:e</title>
<path fill="none" stroke="#000000" d="M497.3293,-189.5547C472.2343,-202.206 497.9537,-254.7492 470,-285.7541 446.4265,-311.9008 435.7045,-323.7541 400.5,-323.7541"/>
<polygon fill="#000000" stroke="#000000" points="503.6518,-188.3052 512.198,-190.2858 507.5759,-187.5297 511.5,-186.7541 511.5,-186.7541 511.5,-186.7541 507.5759,-187.5297 510.802,-183.2224 503.6518,-188.3052 503.6518,-188.3052"/>
<ellipse fill="none" stroke="#000000" cx="500.5125" cy="-188.9256" rx="3.2" ry="3.2"/>
</g>
<!-- staging.ProviderAssignments&#45;&gt;Patients -->
<g id="edge7" class="edge">
<title>staging.ProviderAssignments:w&#45;&gt;Patients:e</title>
<path fill="none" stroke="#000000" d="M497.0042,-183.9426C465.8846,-168.5263 511.9228,-93.8542 470,-63.7541 416.3876,-25.2611 225.3618,-23.5765 173,-63.7541 117.1481,-106.6098 202.3992,-216.7541 132,-216.7541"/>
<polygon fill="#000000" stroke="#000000" points="503.6464,-185.2308 510.8145,-190.2883 507.5732,-185.9925 511.5,-186.7541 511.5,-186.7541 511.5,-186.7541 507.5732,-185.9925 512.1855,-183.22 503.6464,-185.2308 503.6464,-185.2308"/>
<ellipse fill="none" stroke="#000000" cx="500.5049" cy="-184.6215" rx="3.2" ry="3.2"/>
</g>
</g>
</svg>
