<?xml version="1.0" encoding="UTF-8" standalone="no"?>
<!DOCTYPE svg PUBLIC "-//W3C//DTD SVG 1.1//EN"
 "http://www.w3.org/Graphics/SVG/1.1/DTD/svg11.dtd">
<!-- Generated by graphviz version 2.40.1 (20161225.0304)
 -->
<!-- Title: twoDegreesRelationshipsDiagram Pages: 1 -->
<svg width="1128pt" height="478pt"
 viewBox="0.00 0.00 1128.00 477.70" xmlns="http://www.w3.org/2000/svg" xmlns:xlink="http://www.w3.org/1999/xlink">
<g id="graph0" class="graph" transform="scale(1 1) rotate(0) translate(4 473.7)">
<title>twoDegreesRelationshipsDiagram</title>
<polygon fill="#ffffff" stroke="transparent" points="-4,4 -4,-473.7 1124,-473.7 1124,4 -4,4"/>
<text text-anchor="middle" x="72.4936" y="-7.3" font-family="Helvetica,sans-Serif" font-size="11.00" fill="#000000">Generated by SchemaSpy</text>
<!-- Hospitalizations -->
<g id="node1" class="node">
<title>Hospitalizations</title>
<g id="a_node1"><a xlink:href="../../tables/Hospitalizations.html" xlink:title="Hospitalizations" target="_top">
<polygon fill="#ffffff" stroke="transparent" points="305,-77.2 305,-138.2 462,-138.2 462,-77.2 305,-77.2"/>
<polygon fill="#f5f5f5" stroke="transparent" points="305.5,-114.7 305.5,-137.7 462.5,-137.7 462.5,-114.7 305.5,-114.7"/>
<polygon fill="none" stroke="#000000" points="305.5,-114.7 305.5,-137.7 462.5,-137.7 462.5,-114.7 305.5,-114.7"/>
<text text-anchor="start" x="310.5" y="-123.3" font-family="Helvetica,sans-Serif" font-weight="bold" font-size="11.00" fill="#000000">Hospitalizations</text>
<text text-anchor="start" x="428.0219" y="-122.8" font-family="Helvetica,sans-Serif" font-size="11.00" fill="#000000">[table]</text>
<polygon fill="none" stroke="#000000" points="305.5,-95.7 305.5,-114.7 462.5,-114.7 462.5,-95.7 305.5,-95.7"/>
<text text-anchor="start" x="308.5" y="-101.8" font-family="Helvetica,sans-Serif" font-size="11.00" fill="#000000">...</text>
<polygon fill="#ffffff" stroke="transparent" points="305.5,-76.7 305.5,-95.7 462.5,-95.7 462.5,-76.7 305.5,-76.7"/>
<polygon fill="none" stroke="#000000" points="305.5,-76.7 305.5,-95.7 462.5,-95.7 462.5,-76.7 305.5,-76.7"/>
<polygon fill="#ffffff" stroke="transparent" points="306.5,-77.7 306.5,-94.7 361.5,-94.7 361.5,-77.7 306.5,-77.7"/>
<text text-anchor="start" x="308.5" y="-82.8" font-family="Helvetica,sans-Serif" font-size="11.00" fill="#000000">&lt; 3</text>
<polygon fill="#ffffff" stroke="transparent" points="361.5,-77.7 361.5,-94.7 407.5,-94.7 407.5,-77.7 361.5,-77.7"/>
<text text-anchor="start" x="381.4431" y="-82.8" font-family="Helvetica,sans-Serif" font-size="11.00" fill="#000000"> &#160;</text>
<polygon fill="#ffffff" stroke="transparent" points="407.5,-77.7 407.5,-94.7 461.5,-94.7 461.5,-77.7 407.5,-77.7"/>
<text text-anchor="start" x="443.9053" y="-82.8" font-family="Helvetica,sans-Serif" font-size="11.00" fill="#000000">4 &gt;</text>
<polygon fill="#000000" stroke="#000000" points="361.5,-77.7 361.5,-94.7 361.5,-94.7 361.5,-77.7 361.5,-77.7"/>
<polygon fill="#000000" stroke="#000000" points="407.5,-77.7 407.5,-94.7 407.5,-94.7 407.5,-77.7 407.5,-77.7"/>
</a>
</g>
</g>
<!-- HospitalizationStatuses -->
<g id="node2" class="node">
<title>HospitalizationStatuses</title>
<g id="a_node2"><a xlink:href="../../tables/HospitalizationStatuses.html" xlink:title="HospitalizationStatuses" target="_top">
<polygon fill="#ffffff" stroke="transparent" points="8,-38.2 8,-99.2 221,-99.2 221,-38.2 8,-38.2"/>
<polygon fill="#f5f5f5" stroke="transparent" points="8.5,-75.7 8.5,-98.7 221.5,-98.7 221.5,-75.7 8.5,-75.7"/>
<polygon fill="none" stroke="#000000" points="8.5,-75.7 8.5,-98.7 221.5,-98.7 221.5,-75.7 8.5,-75.7"/>
<text text-anchor="start" x="13.5" y="-84.3" font-family="Helvetica,sans-Serif" font-weight="bold" font-size="11.00" fill="#000000">HospitalizationStatuses</text>
<text text-anchor="start" x="187.0219" y="-83.8" font-family="Helvetica,sans-Serif" font-size="11.00" fill="#000000">[table]</text>
<polygon fill="none" stroke="#000000" points="8.5,-56.7 8.5,-75.7 221.5,-75.7 221.5,-56.7 8.5,-56.7"/>
<text text-anchor="start" x="11.5" y="-62.8" font-family="Helvetica,sans-Serif" font-size="11.00" fill="#000000">...</text>
<polygon fill="#ffffff" stroke="transparent" points="8.5,-37.7 8.5,-56.7 221.5,-56.7 221.5,-37.7 8.5,-37.7"/>
<polygon fill="none" stroke="#000000" points="8.5,-37.7 8.5,-56.7 221.5,-56.7 221.5,-37.7 8.5,-37.7"/>
<polygon fill="#ffffff" stroke="transparent" points="9.5,-38.7 9.5,-55.7 77.5,-55.7 77.5,-38.7 9.5,-38.7"/>
<text text-anchor="start" x="11.5" y="-43.8" font-family="Helvetica,sans-Serif" font-size="11.00" fill="#000000"> &#160;</text>
<polygon fill="#ffffff" stroke="transparent" points="77.5,-38.7 77.5,-55.7 144.5,-55.7 144.5,-38.7 77.5,-38.7"/>
<text text-anchor="start" x="107.9431" y="-43.8" font-family="Helvetica,sans-Serif" font-size="11.00" fill="#000000"> &#160;</text>
<polygon fill="#ffffff" stroke="transparent" points="144.5,-38.7 144.5,-55.7 220.5,-55.7 220.5,-38.7 144.5,-38.7"/>
<text text-anchor="start" x="202.9053" y="-43.8" font-family="Helvetica,sans-Serif" font-size="11.00" fill="#000000">3 &gt;</text>
<polygon fill="#000000" stroke="#000000" points="77.5,-38.7 77.5,-55.7 77.5,-55.7 77.5,-38.7 77.5,-38.7"/>
<polygon fill="#000000" stroke="#000000" points="144.5,-38.7 144.5,-55.7 144.5,-55.7 144.5,-38.7 144.5,-38.7"/>
</a>
</g>
</g>
<!-- Hospitalizations&#45;&gt;HospitalizationStatuses -->
<g id="edge1" class="edge">
<title>Hospitalizations:w&#45;&gt;HospitalizationStatuses:e</title>
<path fill="none" stroke="#000000" d="M291.0043,-102.8189C263.1969,-95.0286 257.1942,-65.7 221.5,-65.7"/>
<polygon fill="#000000" stroke="#000000" points="297.5665,-103.6705 305.0367,-108.2701 301.5333,-104.1852 305.5,-104.7 305.5,-104.7 305.5,-104.7 301.5333,-104.1852 305.9633,-101.1299 297.5665,-103.6705 297.5665,-103.6705"/>
<ellipse fill="none" stroke="#000000" cx="294.3931" cy="-103.2586" rx="3.2" ry="3.2"/>
</g>
<!-- Patients -->
<g id="node3" class="node">
<title>Patients</title>
<g id="a_node3"><a xlink:href="../../tables/Patients.html" xlink:title="Patients" target="_top">
<polygon fill="#ffffff" stroke="transparent" points="65,-134.2 65,-195.2 164,-195.2 164,-134.2 65,-134.2"/>
<polygon fill="#f5f5f5" stroke="transparent" points="65.5,-171.7 65.5,-194.7 164.5,-194.7 164.5,-171.7 65.5,-171.7"/>
<polygon fill="none" stroke="#000000" points="65.5,-171.7 65.5,-194.7 164.5,-194.7 164.5,-171.7 65.5,-171.7"/>
<text text-anchor="start" x="70.5" y="-180.3" font-family="Helvetica,sans-Serif" font-weight="bold" font-size="11.00" fill="#000000">Patients</text>
<text text-anchor="start" x="130.0219" y="-179.8" font-family="Helvetica,sans-Serif" font-size="11.00" fill="#000000">[table]</text>
<polygon fill="none" stroke="#000000" points="65.5,-152.7 65.5,-171.7 164.5,-171.7 164.5,-152.7 65.5,-152.7"/>
<text text-anchor="start" x="68.5" y="-158.8" font-family="Helvetica,sans-Serif" font-size="11.00" fill="#000000">...</text>
<polygon fill="#ffffff" stroke="transparent" points="65.5,-133.7 65.5,-152.7 164.5,-152.7 164.5,-133.7 65.5,-133.7"/>
<polygon fill="none" stroke="#000000" points="65.5,-133.7 65.5,-152.7 164.5,-152.7 164.5,-133.7 65.5,-133.7"/>
<polygon fill="#ffffff" stroke="transparent" points="66.5,-134.7 66.5,-151.7 96.5,-151.7 96.5,-134.7 66.5,-134.7"/>
<text text-anchor="start" x="68.5" y="-139.8" font-family="Helvetica,sans-Serif" font-size="11.00" fill="#000000"> &#160;</text>
<polygon fill="#ffffff" stroke="transparent" points="96.5,-134.7 96.5,-151.7 125.5,-151.7 125.5,-134.7 96.5,-134.7"/>
<text text-anchor="start" x="107.9431" y="-139.8" font-family="Helvetica,sans-Serif" font-size="11.00" fill="#000000"> &#160;</text>
<polygon fill="#ffffff" stroke="transparent" points="125.5,-134.7 125.5,-151.7 163.5,-151.7 163.5,-134.7 125.5,-134.7"/>
<text text-anchor="start" x="145.9053" y="-139.8" font-family="Helvetica,sans-Serif" font-size="11.00" fill="#000000">3 &gt;</text>
<polygon fill="#000000" stroke="#000000" points="96.5,-134.7 96.5,-151.7 96.5,-151.7 96.5,-134.7 96.5,-134.7"/>
<polygon fill="#000000" stroke="#000000" points="125.5,-134.7 125.5,-151.7 125.5,-151.7 125.5,-134.7 125.5,-134.7"/>
</a>
</g>
</g>
<!-- Hospitalizations&#45;&gt;Patients -->
<g id="edge2" class="edge">
<title>Hospitalizations:w&#45;&gt;Patients:e</title>
<path fill="none" stroke="#000000" d="M291.0746,-105.6418C236.6624,-113.0529 226.9448,-161.7 164.5,-161.7"/>
<polygon fill="#000000" stroke="#000000" points="297.517,-105.2212 305.7346,-108.2924 301.5085,-104.9606 305.5,-104.7 305.5,-104.7 305.5,-104.7 301.5085,-104.9606 305.2654,-101.1076 297.517,-105.2212 297.517,-105.2212"/>
<ellipse fill="none" stroke="#000000" cx="294.3238" cy="-105.4297" rx="3.2" ry="3.2"/>
</g>
<!-- Providers -->
<g id="node4" class="node">
<title>Providers</title>
<g id="a_node4"><a xlink:href="../../tables/Providers.html" xlink:title="Providers" target="_top">
<polygon fill="#ffffff" stroke="transparent" points="546,-199.7 546,-465.7 756,-465.7 756,-199.7 546,-199.7"/>
<polygon fill="#f5f5f5" stroke="transparent" points="548,-440.7 548,-463.7 754,-463.7 754,-440.7 548,-440.7"/>
<polygon fill="none" stroke="#000000" points="548,-440.7 548,-463.7 754,-463.7 754,-440.7 548,-440.7"/>
<text text-anchor="start" x="553" y="-449.3" font-family="Helvetica,sans-Serif" font-weight="bold" font-size="11.00" fill="#000000">Providers</text>
<text text-anchor="start" x="719.0437" y="-448.8" font-family="Helvetica,sans-Serif" font-size="11.00" fill="#000000">[table]</text>
<polygon fill="none" stroke="#000000" points="548,-418.7 548,-440.7 673,-440.7 673,-418.7 548,-418.7"/>
<image xlink:href="../../images/primaryKeys.png" width="11px" height="12px" preserveAspectRatio="xMinYMin meet" x="553" y="-435.7"/>
<text text-anchor="start" x="568" y="-425.8" font-family="Helvetica,sans-Serif" font-size="11.00" fill="#000000">Id</text>
<polygon fill="none" stroke="#000000" points="673,-418.7 673,-440.7 754,-440.7 754,-418.7 673,-418.7"/>
<text text-anchor="start" x="676" y="-426.4" font-family="Helvetica,sans-Serif" font-size="11.00" fill="#000000">int identity[4]</text>
<polygon fill="none" stroke="#000000" points="548,-396.7 548,-418.7 673,-418.7 673,-396.7 548,-396.7"/>
<text text-anchor="start" x="568" y="-403.8" font-family="Helvetica,sans-Serif" font-size="11.00" fill="#000000">FirstName</text>
<polygon fill="none" stroke="#000000" points="673,-396.7 673,-418.7 754,-418.7 754,-396.7 673,-396.7"/>
<text text-anchor="start" x="676" y="-404.4" font-family="Helvetica,sans-Serif" font-size="11.00" fill="#000000">nvarchar[100]</text>
<polygon fill="none" stroke="#000000" points="548,-374.7 548,-396.7 673,-396.7 673,-374.7 548,-374.7"/>
<text text-anchor="start" x="568" y="-381.8" font-family="Helvetica,sans-Serif" font-size="11.00" fill="#000000">LastName</text>
<polygon fill="none" stroke="#000000" points="673,-374.7 673,-396.7 754,-396.7 754,-374.7 673,-374.7"/>
<text text-anchor="start" x="676" y="-382.4" font-family="Helvetica,sans-Serif" font-size="11.00" fill="#000000">nvarchar[100]</text>
<polygon fill="none" stroke="#000000" points="548,-352.7 548,-374.7 673,-374.7 673,-352.7 548,-352.7"/>
<text text-anchor="start" x="568" y="-359.8" font-family="Helvetica,sans-Serif" font-size="11.00" fill="#000000">TitleExtension</text>
<polygon fill="none" stroke="#000000" points="673,-352.7 673,-374.7 754,-374.7 754,-352.7 673,-352.7"/>
<text text-anchor="start" x="676" y="-360.4" font-family="Helvetica,sans-Serif" font-size="11.00" fill="#000000">nvarchar[20]</text>
<polygon fill="none" stroke="#000000" points="548,-330.7 548,-352.7 673,-352.7 673,-330.7 548,-330.7"/>
<text text-anchor="start" x="568" y="-337.8" font-family="Helvetica,sans-Serif" font-size="11.00" fill="#000000">Type</text>
<polygon fill="none" stroke="#000000" points="673,-330.7 673,-352.7 754,-352.7 754,-330.7 673,-330.7"/>
<text text-anchor="start" x="676" y="-338.4" font-family="Helvetica,sans-Serif" font-size="11.00" fill="#000000">int[4]</text>
<polygon fill="none" stroke="#000000" points="548,-308.7 548,-330.7 673,-330.7 673,-308.7 548,-308.7"/>
<text text-anchor="start" x="568" y="-315.8" font-family="Helvetica,sans-Serif" font-size="11.00" fill="#000000">Email</text>
<polygon fill="none" stroke="#000000" points="673,-308.7 673,-330.7 754,-330.7 754,-308.7 673,-308.7"/>
<text text-anchor="start" x="676" y="-316.4" font-family="Helvetica,sans-Serif" font-size="11.00" fill="#000000">nvarchar[200]</text>
<polygon fill="#ffffff" stroke="transparent" points="548,-286.7 548,-308.7 673,-308.7 673,-286.7 548,-286.7"/>
<polygon fill="none" stroke="#000000" points="548,-286.7 548,-308.7 673,-308.7 673,-286.7 548,-286.7"/>
<image xlink:href="../../images/foreignKeys.png" width="11px" height="12px" preserveAspectRatio="xMinYMin meet" x="553" y="-303.7"/>
<text text-anchor="start" x="568" y="-293.8" font-family="Helvetica,sans-Serif" font-size="11.00" fill="#000000">EmployeeId</text>
<polygon fill="none" stroke="#000000" points="673,-286.7 673,-308.7 754,-308.7 754,-286.7 673,-286.7"/>
<text text-anchor="start" x="676" y="-294.4" font-family="Helvetica,sans-Serif" font-size="11.00" fill="#000000">int[4]</text>
<polygon fill="none" stroke="#000000" points="548,-264.7 548,-286.7 673,-286.7 673,-264.7 548,-264.7"/>
<text text-anchor="start" x="568" y="-271.8" font-family="Helvetica,sans-Serif" font-size="11.00" fill="#000000">CreatedAtUtc</text>
<polygon fill="none" stroke="#000000" points="673,-264.7 673,-286.7 754,-286.7 754,-264.7 673,-264.7"/>
<text text-anchor="start" x="675.5968" y="-272.4" font-family="Helvetica,sans-Serif" font-size="11.00" fill="#000000">datetime2[16,7]</text>
<polygon fill="none" stroke="#000000" points="548,-242.7 548,-264.7 673,-264.7 673,-242.7 548,-242.7"/>
<text text-anchor="start" x="568" y="-249.8" font-family="Helvetica,sans-Serif" font-size="11.00" fill="#000000">UpdatedAtUtc</text>
<polygon fill="none" stroke="#000000" points="673,-242.7 673,-264.7 754,-264.7 754,-242.7 673,-242.7"/>
<text text-anchor="start" x="675.5968" y="-250.4" font-family="Helvetica,sans-Serif" font-size="11.00" fill="#000000">datetime2[16,7]</text>
<polygon fill="none" stroke="#000000" points="548,-220.7 548,-242.7 673,-242.7 673,-220.7 548,-220.7"/>
<text text-anchor="start" x="568" y="-227.8" font-family="Helvetica,sans-Serif" font-size="11.00" fill="#000000">RowVersion</text>
<polygon fill="none" stroke="#000000" points="673,-220.7 673,-242.7 754,-242.7 754,-220.7 673,-220.7"/>
<text text-anchor="start" x="676" y="-228.4" font-family="Helvetica,sans-Serif" font-size="11.00" fill="#000000">timestamp[8]</text>
<polygon fill="#ffffff" stroke="transparent" points="548,-201.7 548,-220.7 754,-220.7 754,-201.7 548,-201.7"/>
<polygon fill="none" stroke="#000000" points="548,-201.7 548,-220.7 754,-220.7 754,-201.7 548,-201.7"/>
<polygon fill="#ffffff" stroke="transparent" points="549,-202.7 549,-219.7 620,-219.7 620,-202.7 549,-202.7"/>
<text text-anchor="start" x="551" y="-207.8" font-family="Helvetica,sans-Serif" font-size="11.00" fill="#000000">&lt; 1</text>
<polygon fill="#ffffff" stroke="transparent" points="620,-202.7 620,-219.7 682,-219.7 682,-202.7 620,-202.7"/>
<text text-anchor="start" x="647.9431" y="-207.8" font-family="Helvetica,sans-Serif" font-size="11.00" fill="#000000"> &#160;</text>
<polygon fill="#ffffff" stroke="transparent" points="682,-202.7 682,-219.7 753,-219.7 753,-202.7 682,-202.7"/>
<text text-anchor="start" x="735.4053" y="-207.8" font-family="Helvetica,sans-Serif" font-size="11.00" fill="#000000">3 &gt;</text>
<polygon fill="#000000" stroke="#000000" points="620,-202.7 620,-219.7 620,-219.7 620,-202.7 620,-202.7"/>
<polygon fill="#000000" stroke="#000000" points="682,-202.7 682,-219.7 682,-219.7 682,-202.7 682,-202.7"/>
<polygon fill="none" stroke="#000000" stroke-width="2" points="547,-200.7 547,-464.7 755,-464.7 755,-200.7 547,-200.7"/>
</a>
</g>
</g>
<!-- Compensation.Employees -->
<g id="node5" class="node">
<title>Compensation.Employees</title>
<g id="a_node5"><a xlink:title="Compensation.Employees">
<polygon fill="#ffffff" stroke="transparent" points="270,-267.2 270,-328.2 497,-328.2 497,-267.2 270,-267.2"/>
<polygon fill="#f5f5f5" stroke="transparent" points="270.5,-304.7 270.5,-327.7 497.5,-327.7 497.5,-304.7 270.5,-304.7"/>
<polygon fill="none" stroke="#000000" points="270.5,-304.7 270.5,-327.7 497.5,-327.7 497.5,-304.7 270.5,-304.7"/>
<text text-anchor="start" x="275.5" y="-313.3" font-family="Helvetica,sans-Serif" font-weight="bold" font-size="11.00" fill="#000000">Compensation.Employees</text>
<text text-anchor="start" x="463.0219" y="-312.8" font-family="Helvetica,sans-Serif" font-size="11.00" fill="#000000">[table]</text>
<polygon fill="none" stroke="#000000" points="270.5,-285.7 270.5,-304.7 497.5,-304.7 497.5,-285.7 270.5,-285.7"/>
<text text-anchor="start" x="273.5" y="-291.8" font-family="Helvetica,sans-Serif" font-size="11.00" fill="#000000">...</text>
<polygon fill="#ffffff" stroke="transparent" points="270.5,-266.7 270.5,-285.7 497.5,-285.7 497.5,-266.7 270.5,-266.7"/>
<polygon fill="none" stroke="#000000" points="270.5,-266.7 270.5,-285.7 497.5,-285.7 497.5,-266.7 270.5,-266.7"/>
<polygon fill="#ffffff" stroke="transparent" points="271.5,-267.7 271.5,-284.7 343.5,-284.7 343.5,-267.7 271.5,-267.7"/>
<text text-anchor="start" x="273.5" y="-272.8" font-family="Helvetica,sans-Serif" font-size="11.00" fill="#000000"> &#160;</text>
<polygon fill="#ffffff" stroke="transparent" points="343.5,-267.7 343.5,-284.7 415.5,-284.7 415.5,-267.7 343.5,-267.7"/>
<text text-anchor="start" x="376.4431" y="-272.8" font-family="Helvetica,sans-Serif" font-size="11.00" fill="#000000"> &#160;</text>
<polygon fill="#ffffff" stroke="transparent" points="415.5,-267.7 415.5,-284.7 496.5,-284.7 496.5,-267.7 415.5,-267.7"/>
<text text-anchor="start" x="478.9053" y="-272.8" font-family="Helvetica,sans-Serif" font-size="11.00" fill="#000000">1 &gt;</text>
<polygon fill="#000000" stroke="#000000" points="343.5,-267.7 343.5,-284.7 343.5,-284.7 343.5,-267.7 343.5,-267.7"/>
<polygon fill="#000000" stroke="#000000" points="415.5,-267.7 415.5,-284.7 415.5,-284.7 415.5,-267.7 415.5,-267.7"/>
</a>
</g>
</g>
<!-- Providers&#45;&gt;Compensation.Employees -->
<g id="edge3" class="edge">
<title>Providers:w&#45;&gt;Compensation.Employees:e</title>
<path fill="none" stroke="#000000" d="M537.5003,-297.7C526.9009,-297.7 516.0373,-297.7 505.2242,-297.7"/>
<polygon fill="#000000" stroke="#000000" points="547.2,-293.7 547.2,-301.7 545.6,-301.7 545.6,-293.7 547.2,-293.7"/>
<polyline fill="none" stroke="#000000" points="548,-297.7 544,-297.7 "/>
<ellipse fill="none" stroke="#000000" cx="540.8" cy="-297.7001" rx="3.2" ry="3.2"/>
</g>
<!-- VisitAttendants -->
<g id="node6" class="node">
<title>VisitAttendants</title>
<g id="a_node6"><a xlink:href="../../tables/VisitAttendants.html" xlink:title="VisitAttendants" target="_top">
<polygon fill="#ffffff" stroke="transparent" points="882,-321.2 882,-448.2 1035,-448.2 1035,-321.2 882,-321.2"/>
<polygon fill="#f5f5f5" stroke="transparent" points="882.5,-424.7 882.5,-447.7 1035.5,-447.7 1035.5,-424.7 882.5,-424.7"/>
<polygon fill="none" stroke="#000000" points="882.5,-424.7 882.5,-447.7 1035.5,-447.7 1035.5,-424.7 882.5,-424.7"/>
<text text-anchor="start" x="887.5" y="-433.3" font-family="Helvetica,sans-Serif" font-weight="bold" font-size="11.00" fill="#000000">VisitAttendants</text>
<text text-anchor="start" x="1001.0219" y="-432.8" font-family="Helvetica,sans-Serif" font-size="11.00" fill="#000000">[table]</text>
<polygon fill="none" stroke="#000000" points="882.5,-402.7 882.5,-424.7 1035.5,-424.7 1035.5,-402.7 882.5,-402.7"/>
<image xlink:href="../../images/primaryKeys.png" width="11px" height="12px" preserveAspectRatio="xMinYMin meet" x="887.5" y="-419.7"/>
<text text-anchor="start" x="911.5" y="-409.8" font-family="Helvetica,sans-Serif" font-size="11.00" fill="#000000">Id</text>
<polygon fill="#ffffff" stroke="transparent" points="882.5,-380.7 882.5,-402.7 1035.5,-402.7 1035.5,-380.7 882.5,-380.7"/>
<polygon fill="none" stroke="#000000" points="882.5,-380.7 882.5,-402.7 1035.5,-402.7 1035.5,-380.7 882.5,-380.7"/>
<image xlink:href="../../images/foreignKeys.png" width="11px" height="12px" preserveAspectRatio="xMinYMin meet" x="887.5" y="-397.7"/>
<text text-anchor="start" x="911.5" y="-387.8" font-family="Helvetica,sans-Serif" font-size="11.00" fill="#000000">VisitId</text>
<polygon fill="#ffffff" stroke="transparent" points="882.5,-358.7 882.5,-380.7 1035.5,-380.7 1035.5,-358.7 882.5,-358.7"/>
<polygon fill="none" stroke="#000000" points="882.5,-358.7 882.5,-380.7 1035.5,-380.7 1035.5,-358.7 882.5,-358.7"/>
<image xlink:href="../../images/foreignKeys.png" width="11px" height="12px" preserveAspectRatio="xMinYMin meet" x="887.5" y="-375.7"/>
<text text-anchor="start" x="911.5" y="-365.8" font-family="Helvetica,sans-Serif" font-size="11.00" fill="#000000">ProviderId</text>
<polygon fill="none" stroke="#000000" points="882.5,-339.7 882.5,-358.7 1035.5,-358.7 1035.5,-339.7 882.5,-339.7"/>
<text text-anchor="start" x="885.5" y="-345.8" font-family="Helvetica,sans-Serif" font-size="11.00" fill="#000000">...</text>
<polygon fill="#ffffff" stroke="transparent" points="882.5,-320.7 882.5,-339.7 1035.5,-339.7 1035.5,-320.7 882.5,-320.7"/>
<polygon fill="none" stroke="#000000" points="882.5,-320.7 882.5,-339.7 1035.5,-339.7 1035.5,-320.7 882.5,-320.7"/>
<polygon fill="#ffffff" stroke="transparent" points="883.5,-321.7 883.5,-338.7 940.5,-338.7 940.5,-321.7 883.5,-321.7"/>
<text text-anchor="start" x="885.5" y="-326.8" font-family="Helvetica,sans-Serif" font-size="11.00" fill="#000000">&lt; 2</text>
<polygon fill="#ffffff" stroke="transparent" points="940.5,-321.7 940.5,-338.7 987.5,-338.7 987.5,-321.7 940.5,-321.7"/>
<text text-anchor="start" x="960.9431" y="-326.8" font-family="Helvetica,sans-Serif" font-size="11.00" fill="#000000"> &#160;</text>
<polygon fill="#ffffff" stroke="transparent" points="987.5,-321.7 987.5,-338.7 1034.5,-338.7 1034.5,-321.7 987.5,-321.7"/>
<text text-anchor="start" x="1026.3862" y="-326.8" font-family="Helvetica,sans-Serif" font-size="11.00" fill="#000000"> &#160;</text>
<polygon fill="#000000" stroke="#000000" points="940.5,-321.7 940.5,-338.7 940.5,-338.7 940.5,-321.7 940.5,-321.7"/>
<polygon fill="#000000" stroke="#000000" points="987.5,-321.7 987.5,-338.7 987.5,-338.7 987.5,-321.7 987.5,-321.7"/>
</a>
</g>
</g>
<!-- VisitAttendants&#45;&gt;Providers -->
<g id="edge4" class="edge">
<title>VisitAttendants:w&#45;&gt;Providers:e</title>
<path fill="none" stroke="#000000" d="M868.145,-370.845C818.6619,-379.14 811.8596,-429.7 754,-429.7"/>
<polygon fill="#000000" stroke="#000000" points="874.5253,-370.3361 882.7863,-373.2886 878.5127,-370.0181 882.5,-369.7 882.5,-369.7 882.5,-369.7 878.5127,-370.0181 882.2137,-366.1114 874.5253,-370.3361 874.5253,-370.3361"/>
<ellipse fill="none" stroke="#000000" cx="871.3355" cy="-370.5906" rx="3.2" ry="3.2"/>
</g>
<!-- Visits -->
<g id="node7" class="node">
<title>Visits</title>
<g id="a_node7"><a xlink:href="../../tables/Visits.html" xlink:title="Visits" target="_top">
<polygon fill="#ffffff" stroke="transparent" points="611.5,-90.2 611.5,-151.2 690.5,-151.2 690.5,-90.2 611.5,-90.2"/>
<polygon fill="#f5f5f5" stroke="transparent" points="612,-127.7 612,-150.7 691,-150.7 691,-127.7 612,-127.7"/>
<polygon fill="none" stroke="#000000" points="612,-127.7 612,-150.7 691,-150.7 691,-127.7 612,-127.7"/>
<text text-anchor="start" x="617" y="-136.3" font-family="Helvetica,sans-Serif" font-weight="bold" font-size="11.00" fill="#000000">Visits</text>
<text text-anchor="start" x="656.5219" y="-135.8" font-family="Helvetica,sans-Serif" font-size="11.00" fill="#000000">[table]</text>
<polygon fill="none" stroke="#000000" points="612,-108.7 612,-127.7 691,-127.7 691,-108.7 612,-108.7"/>
<text text-anchor="start" x="615" y="-114.8" font-family="Helvetica,sans-Serif" font-size="11.00" fill="#000000">...</text>
<polygon fill="#ffffff" stroke="transparent" points="612,-89.7 612,-108.7 691,-108.7 691,-89.7 612,-89.7"/>
<polygon fill="none" stroke="#000000" points="612,-89.7 612,-108.7 691,-108.7 691,-89.7 612,-89.7"/>
<polygon fill="#ffffff" stroke="transparent" points="613,-90.7 613,-107.7 642,-107.7 642,-90.7 613,-90.7"/>
<text text-anchor="start" x="615" y="-95.8" font-family="Helvetica,sans-Serif" font-size="11.00" fill="#000000">&lt; 2</text>
<polygon fill="#ffffff" stroke="transparent" points="642,-90.7 642,-107.7 662,-107.7 662,-90.7 642,-90.7"/>
<text text-anchor="start" x="648.9431" y="-95.8" font-family="Helvetica,sans-Serif" font-size="11.00" fill="#000000"> &#160;</text>
<polygon fill="#ffffff" stroke="transparent" points="662,-90.7 662,-107.7 690,-107.7 690,-90.7 662,-90.7"/>
<text text-anchor="start" x="672.4053" y="-95.8" font-family="Helvetica,sans-Serif" font-size="11.00" fill="#000000">3 &gt;</text>
<polygon fill="#000000" stroke="#000000" points="642,-90.7 642,-107.7 642,-107.7 642,-90.7 642,-90.7"/>
<polygon fill="#000000" stroke="#000000" points="662,-90.7 662,-107.7 662,-107.7 662,-90.7 662,-90.7"/>
</a>
</g>
</g>
<!-- VisitAttendants&#45;&gt;Visits -->
<g id="edge5" class="edge">
<title>VisitAttendants:w&#45;&gt;Visits:e</title>
<path fill="none" stroke="#000000" d="M867.7508,-390.7079C741.0416,-372.773 834.3491,-117.7 691,-117.7"/>
<polygon fill="#000000" stroke="#000000" points="874.518,-391.163 882.2584,-395.2919 878.509,-391.4315 882.5,-391.7 882.5,-391.7 882.5,-391.7 878.509,-391.4315 882.7416,-388.1081 874.518,-391.163 874.518,-391.163"/>
<ellipse fill="none" stroke="#000000" cx="871.3253" cy="-390.9482" rx="3.2" ry="3.2"/>
</g>
<!-- Visits&#45;&gt;Hospitalizations -->
<g id="edge6" class="edge">
<title>Visits:w&#45;&gt;Hospitalizations:e</title>
<path fill="none" stroke="#000000" d="M597.5949,-117.4852C542.5571,-115.795 524.1149,-104.7 462.5,-104.7"/>
<polygon fill="#000000" stroke="#000000" points="604.0009,-117.5807 611.9463,-121.2996 608.0004,-117.6403 612,-117.7 612,-117.7 612,-117.7 608.0004,-117.6403 612.0537,-114.1004 604.0009,-117.5807 604.0009,-117.5807"/>
<ellipse fill="none" stroke="#000000" cx="600.8012" cy="-117.5329" rx="3.2" ry="3.2"/>
</g>
<!-- staging.ProviderAssignments -->
<g id="node8" class="node">
<title>staging.ProviderAssignments</title>
<g id="a_node8"><a xlink:title="staging.ProviderAssignments">
<polygon fill="#ffffff" stroke="transparent" points="805,-54.2 805,-247.2 1112,-247.2 1112,-54.2 805,-54.2"/>
<polygon fill="#f5f5f5" stroke="transparent" points="805.5,-223.7 805.5,-246.7 1112.5,-246.7 1112.5,-223.7 805.5,-223.7"/>
<polygon fill="none" stroke="#000000" points="805.5,-223.7 805.5,-246.7 1112.5,-246.7 1112.5,-223.7 805.5,-223.7"/>
<text text-anchor="start" x="810.5" y="-232.3" font-family="Helvetica,sans-Serif" font-weight="bold" font-size="11.00" fill="#000000">staging.ProviderAssignments</text>
<text text-anchor="start" x="1077.5437" y="-231.8" font-family="Helvetica,sans-Serif" font-size="11.00" fill="#000000">[table]</text>
<polygon fill="none" stroke="#000000" points="805.5,-201.7 805.5,-223.7 1112.5,-223.7 1112.5,-201.7 805.5,-201.7"/>
<image xlink:href="../../images/foreignKeys.png" width="11px" height="12px" preserveAspectRatio="xMinYMin meet" x="810.5" y="-218.7"/>
<text text-anchor="start" x="825.5" y="-208.8" font-family="Helvetica,sans-Serif" font-size="11.00" fill="#000000">ResolvedPhysicianId</text>
<polygon fill="none" stroke="#000000" points="805.5,-179.7 805.5,-201.7 1112.5,-201.7 1112.5,-179.7 805.5,-179.7"/>
<image xlink:href="../../images/foreignKeys.png" width="11px" height="12px" preserveAspectRatio="xMinYMin meet" x="810.5" y="-196.7"/>
<text text-anchor="start" x="825.5" y="-186.8" font-family="Helvetica,sans-Serif" font-size="11.00" fill="#000000">ResolvedHospitalizationId</text>
<polygon fill="none" stroke="#000000" points="805.5,-157.7 805.5,-179.7 1112.5,-179.7 1112.5,-157.7 805.5,-157.7"/>
<image xlink:href="../../images/foreignKeys.png" width="11px" height="12px" preserveAspectRatio="xMinYMin meet" x="810.5" y="-174.7"/>
<text text-anchor="start" x="825.5" y="-164.8" font-family="Helvetica,sans-Serif" font-size="11.00" fill="#000000">ResolvedPatientId</text>
<polygon fill="none" stroke="#000000" points="805.5,-135.7 805.5,-157.7 1112.5,-157.7 1112.5,-135.7 805.5,-135.7"/>
<image xlink:href="../../images/foreignKeys.png" width="11px" height="12px" preserveAspectRatio="xMinYMin meet" x="810.5" y="-152.7"/>
<text text-anchor="start" x="825.5" y="-142.8" font-family="Helvetica,sans-Serif" font-size="11.00" fill="#000000">ResolvedNursePractitionerId</text>
<polygon fill="none" stroke="#000000" points="805.5,-113.7 805.5,-135.7 1112.5,-135.7 1112.5,-113.7 805.5,-113.7"/>
<image xlink:href="../../images/foreignKeys.png" width="11px" height="12px" preserveAspectRatio="xMinYMin meet" x="810.5" y="-130.7"/>
<text text-anchor="start" x="825.5" y="-120.8" font-family="Helvetica,sans-Serif" font-size="11.00" fill="#000000">ResolvedVisitId</text>
<polygon fill="none" stroke="#000000" points="805.5,-91.7 805.5,-113.7 1112.5,-113.7 1112.5,-91.7 805.5,-91.7"/>
<image xlink:href="../../images/foreignKeys.png" width="11px" height="12px" preserveAspectRatio="xMinYMin meet" x="810.5" y="-108.7"/>
<text text-anchor="start" x="825.5" y="-98.8" font-family="Helvetica,sans-Serif" font-size="11.00" fill="#000000">ResolvedHospitalizationStatusId</text>
<polygon fill="none" stroke="#000000" points="805.5,-72.7 805.5,-91.7 1112.5,-91.7 1112.5,-72.7 805.5,-72.7"/>
<text text-anchor="start" x="808.5" y="-78.8" font-family="Helvetica,sans-Serif" font-size="11.00" fill="#000000">...</text>
<polygon fill="#ffffff" stroke="transparent" points="805.5,-53.7 805.5,-72.7 1112.5,-72.7 1112.5,-53.7 805.5,-53.7"/>
<polygon fill="none" stroke="#000000" points="805.5,-53.7 805.5,-72.7 1112.5,-72.7 1112.5,-53.7 805.5,-53.7"/>
<polygon fill="#ffffff" stroke="transparent" points="806.5,-54.7 806.5,-71.7 914.5,-71.7 914.5,-54.7 806.5,-54.7"/>
<text text-anchor="start" x="808.5" y="-59.8" font-family="Helvetica,sans-Serif" font-size="11.00" fill="#000000">&lt; 6</text>
<polygon fill="#ffffff" stroke="transparent" points="914.5,-54.7 914.5,-71.7 1013.5,-71.7 1013.5,-54.7 914.5,-54.7"/>
<text text-anchor="start" x="960.9431" y="-59.8" font-family="Helvetica,sans-Serif" font-size="11.00" fill="#000000"> &#160;</text>
<polygon fill="#ffffff" stroke="transparent" points="1013.5,-54.7 1013.5,-71.7 1111.5,-71.7 1111.5,-54.7 1013.5,-54.7"/>
<text text-anchor="start" x="1103.3862" y="-59.8" font-family="Helvetica,sans-Serif" font-size="11.00" fill="#000000"> &#160;</text>
<polygon fill="#000000" stroke="#000000" points="914.5,-54.7 914.5,-71.7 914.5,-71.7 914.5,-54.7 914.5,-54.7"/>
<polygon fill="#000000" stroke="#000000" points="1013.5,-54.7 1013.5,-71.7 1013.5,-71.7 1013.5,-54.7 1013.5,-54.7"/>
</a>
</g>
</g>
<!-- staging.ProviderAssignments&#45;&gt;Hospitalizations -->
<g id="edge7" class="edge">
<title>staging.ProviderAssignments:w&#45;&gt;Hospitalizations:e</title>
<path fill="none" stroke="#000000" d="M791.067,-187.5761C764.2497,-172.4204 802.2035,-106.203 764,-79.7 681.4704,-22.4466 637.1634,-63.7091 538,-79.7 503.1035,-85.3273 497.8473,-104.7 462.5,-104.7"/>
<polygon fill="#000000" stroke="#000000" points="797.681,-189.0076 804.7384,-194.2185 801.5905,-189.8538 805.5,-190.7 805.5,-190.7 805.5,-190.7 801.5905,-189.8538 806.2616,-187.1815 797.681,-189.0076 797.681,-189.0076"/>
<ellipse fill="none" stroke="#000000" cx="794.5535" cy="-188.3307" rx="3.2" ry="3.2"/>
</g>
<!-- staging.ProviderAssignments&#45;&gt;HospitalizationStatuses -->
<g id="edge8" class="edge">
<title>staging.ProviderAssignments:w&#45;&gt;HospitalizationStatuses:e</title>
<path fill="none" stroke="#000000" d="M791.7848,-98.0001C780.165,-87.0598 785.2233,-60.0371 764,-49.7 725.3391,-30.8696 265.0101,-65.7 221.5,-65.7"/>
<polygon fill="#000000" stroke="#000000" points="797.932,-100.1066 804.333,-106.1056 801.716,-101.4033 805.5,-102.7 805.5,-102.7 805.5,-102.7 801.716,-101.4033 806.667,-99.2944 797.932,-100.1066 797.932,-100.1066"/>
<ellipse fill="none" stroke="#000000" cx="794.9048" cy="-99.0692" rx="3.2" ry="3.2"/>
</g>
<!-- staging.ProviderAssignments&#45;&gt;Patients -->
<g id="edge10" class="edge">
<title>staging.ProviderAssignments:w&#45;&gt;Patients:e</title>
<path fill="none" stroke="#000000" d="M791.0781,-168.6939C518.0985,-168.4628 444.5369,-161.7 164.5,-161.7"/>
<polygon fill="#000000" stroke="#000000" points="797.5,-168.6966 805.4985,-172.3 801.5,-168.6983 805.5,-168.7 805.5,-168.7 805.5,-168.7 801.5,-168.6983 805.5015,-165.1 797.5,-168.6966 797.5,-168.6966"/>
<ellipse fill="none" stroke="#000000" cx="794.3" cy="-168.6952" rx="3.2" ry="3.2"/>
</g>
<!-- staging.ProviderAssignments&#45;&gt;Providers -->
<g id="edge9" class="edge">
<title>staging.ProviderAssignments:w&#45;&gt;Providers:e</title>
<path fill="none" stroke="#000000" d="M792.1966,-152.353C753.4122,-192.2391 812.5533,-429.7 754,-429.7"/>
<polygon fill="#000000" stroke="#000000" points="798.1372,-149.8287 806.9079,-150.0133 801.8186,-148.2644 805.5,-146.7 805.5,-146.7 805.5,-146.7 801.8186,-148.2644 804.0921,-143.3867 798.1372,-149.8287 798.1372,-149.8287"/>
<ellipse fill="none" stroke="#000000" cx="795.192" cy="-151.0802" rx="3.2" ry="3.2"/>
</g>
<!-- staging.ProviderAssignments&#45;&gt;Providers -->
<g id="edge11" class="edge">
<title>staging.ProviderAssignments:w&#45;&gt;Providers:e</title>
<path fill="none" stroke="#000000" d="M790.9338,-214.7096C722.2115,-236.5859 847.5089,-429.7 754,-429.7"/>
<polygon fill="#000000" stroke="#000000" points="797.5751,-213.7934 805.992,-216.2662 801.5375,-213.2467 805.5,-212.7 805.5,-212.7 805.5,-212.7 801.5375,-213.2467 805.008,-209.1338 797.5751,-213.7934 797.5751,-213.7934"/>
<ellipse fill="none" stroke="#000000" cx="794.4051" cy="-214.2308" rx="3.2" ry="3.2"/>
</g>
<!-- staging.ProviderAssignments&#45;&gt;Visits -->
<g id="edge12" class="edge">
<title>staging.ProviderAssignments:w&#45;&gt;Visits:e</title>
<path fill="none" stroke="#000000" d="M791.0752,-124.4981C751.5739,-123.3503 736.8058,-117.7 691,-117.7"/>
<polygon fill="#000000" stroke="#000000" points="797.5008,-124.588 805.4496,-128.2996 801.5004,-124.644 805.5,-124.7 805.5,-124.7 805.5,-124.7 801.5004,-124.644 805.5504,-121.1004 797.5008,-124.588 797.5008,-124.588"/>
<ellipse fill="none" stroke="#000000" cx="794.3011" cy="-124.5431" rx="3.2" ry="3.2"/>
</g>
</g>
</svg>
