<?xml version="1.0" encoding="UTF-8" standalone="no"?>
<!DOCTYPE svg PUBLIC "-//W3C//DTD SVG 1.1//EN"
 "http://www.w3.org/Graphics/SVG/1.1/DTD/svg11.dtd">
<!-- Generated by graphviz version 2.40.1 (20161225.0304)
 -->
<!-- Title: twoDegreesRelationshipsDiagram Pages: 1 -->
<svg width="923pt" height="315pt"
 viewBox="0.00 0.00 923.00 314.70" xmlns="http://www.w3.org/2000/svg" xmlns:xlink="http://www.w3.org/1999/xlink">
<g id="graph0" class="graph" transform="scale(1 1) rotate(0) translate(4 310.7)">
<title>twoDegreesRelationshipsDiagram</title>
<polygon fill="#ffffff" stroke="transparent" points="-4,4 -4,-310.7 919,-310.7 919,4 -4,4"/>
<text text-anchor="middle" x="72.4936" y="-7.3" font-family="Helvetica,sans-Serif" font-size="11.00" fill="#000000">Generated by SchemaSpy</text>
<!-- ProviderAssignmentBatches -->
<g id="node1" class="node">
<title>ProviderAssignmentBatches</title>
<g id="a_node1"><a xlink:href="../../tables/ProviderAssignmentBatches.html" xlink:title="ProviderAssignmentBatches" target="_top">
<polygon fill="#ffffff" stroke="transparent" points="417,-131.7 417,-302.7 663,-302.7 663,-131.7 417,-131.7"/>
<polygon fill="#f5f5f5" stroke="transparent" points="417,-279.2 417,-302.2 663,-302.2 663,-279.2 417,-279.2"/>
<polygon fill="none" stroke="#000000" points="417,-279.2 417,-302.2 663,-302.2 663,-279.2 417,-279.2"/>
<text text-anchor="start" x="422" y="-287.8" font-family="Helvetica,sans-Serif" font-weight="bold" font-size="11.00" fill="#000000">ProviderAssignmentBatches</text>
<text text-anchor="start" x="628.5219" y="-287.3" font-family="Helvetica,sans-Serif" font-size="11.00" fill="#000000">[table]</text>
<polygon fill="none" stroke="#000000" points="417,-257.2 417,-279.2 663,-279.2 663,-257.2 417,-257.2"/>
<image xlink:href="../../images/primaryKeys.png" width="11px" height="12px" preserveAspectRatio="xMinYMin meet" x="422" y="-274.2"/>
<text text-anchor="start" x="446" y="-264.3" font-family="Helvetica,sans-Serif" font-size="11.00" fill="#000000">Id</text>
<polygon fill="#ffffff" stroke="transparent" points="417,-235.2 417,-257.2 663,-257.2 663,-235.2 417,-235.2"/>
<polygon fill="none" stroke="#000000" points="417,-235.2 417,-257.2 663,-257.2 663,-235.2 417,-235.2"/>
<text text-anchor="start" x="446" y="-242.3" font-family="Helvetica,sans-Serif" font-size="11.00" fill="#000000">Date</text>
<polygon fill="#ffffff" stroke="transparent" points="417,-213.2 417,-235.2 663,-235.2 663,-213.2 417,-213.2"/>
<polygon fill="none" stroke="#000000" points="417,-213.2 417,-235.2 663,-235.2 663,-213.2 417,-213.2"/>
<text text-anchor="start" x="446" y="-220.3" font-family="Helvetica,sans-Serif" font-size="11.00" fill="#000000">FacilityId</text>
<polygon fill="#ffffff" stroke="transparent" points="417,-191.2 417,-213.2 663,-213.2 663,-191.2 417,-191.2"/>
<polygon fill="none" stroke="#000000" points="417,-191.2 417,-213.2 663,-213.2 663,-191.2 417,-191.2"/>
<image xlink:href="../../images/foreignKeys.png" width="11px" height="12px" preserveAspectRatio="xMinYMin meet" x="422" y="-208.2"/>
<text text-anchor="start" x="446" y="-198.3" font-family="Helvetica,sans-Serif" font-size="11.00" fill="#000000">StatusId</text>
<polygon fill="#ffffff" stroke="transparent" points="417,-169.2 417,-191.2 663,-191.2 663,-169.2 417,-169.2"/>
<polygon fill="none" stroke="#000000" points="417,-169.2 417,-191.2 663,-191.2 663,-169.2 417,-169.2"/>
<text text-anchor="start" x="446" y="-176.3" font-family="Helvetica,sans-Serif" font-size="11.00" fill="#000000">CreatedByUserId</text>
<polygon fill="none" stroke="#000000" points="417,-150.2 417,-169.2 663,-169.2 663,-150.2 417,-150.2"/>
<text text-anchor="start" x="420" y="-156.3" font-family="Helvetica,sans-Serif" font-size="11.00" fill="#000000">...</text>
<polygon fill="#ffffff" stroke="transparent" points="417,-131.2 417,-150.2 663,-150.2 663,-131.2 417,-131.2"/>
<polygon fill="none" stroke="#000000" points="417,-131.2 417,-150.2 663,-150.2 663,-131.2 417,-131.2"/>
<polygon fill="#ffffff" stroke="transparent" points="418,-132.2 418,-149.2 503,-149.2 503,-132.2 418,-132.2"/>
<text text-anchor="start" x="420" y="-137.3" font-family="Helvetica,sans-Serif" font-size="11.00" fill="#000000">&lt; 1</text>
<polygon fill="#ffffff" stroke="transparent" points="503,-132.2 503,-149.2 578,-149.2 578,-132.2 503,-132.2"/>
<text text-anchor="start" x="537.4431" y="-137.3" font-family="Helvetica,sans-Serif" font-size="11.00" fill="#000000"> &#160;</text>
<polygon fill="#ffffff" stroke="transparent" points="578,-132.2 578,-149.2 662,-149.2 662,-132.2 578,-132.2"/>
<text text-anchor="start" x="644.4053" y="-137.3" font-family="Helvetica,sans-Serif" font-size="11.00" fill="#000000">1 &gt;</text>
<polygon fill="#000000" stroke="#000000" points="503,-132.2 503,-149.2 503,-149.2 503,-132.2 503,-132.2"/>
<polygon fill="#000000" stroke="#000000" points="578,-132.2 578,-149.2 578,-149.2 578,-132.2 578,-132.2"/>
</a>
</g>
</g>
<!-- ProviderAssignmentBatchStatuses -->
<g id="node2" class="node">
<title>ProviderAssignmentBatchStatuses</title>
<g id="a_node2"><a xlink:href="../../tables/ProviderAssignmentBatchStatuses.html" xlink:title="ProviderAssignmentBatchStatuses" target="_top">
<polygon fill="#ffffff" stroke="transparent" points="8,-38.2 8,-238.2 368,-238.2 368,-38.2 8,-38.2"/>
<polygon fill="#f5f5f5" stroke="transparent" points="10,-213.2 10,-236.2 366,-236.2 366,-213.2 10,-213.2"/>
<polygon fill="none" stroke="#000000" points="10,-213.2 10,-236.2 366,-236.2 366,-213.2 10,-213.2"/>
<text text-anchor="start" x="15" y="-221.8" font-family="Helvetica,sans-Serif" font-weight="bold" font-size="11.00" fill="#000000">ProviderAssignmentBatchStatuses</text>
<text text-anchor="start" x="331.0437" y="-221.3" font-family="Helvetica,sans-Serif" font-size="11.00" fill="#000000">[table]</text>
<polygon fill="none" stroke="#000000" points="10,-191.2 10,-213.2 285,-213.2 285,-191.2 10,-191.2"/>
<image xlink:href="../../images/primaryKeys.png" width="11px" height="12px" preserveAspectRatio="xMinYMin meet" x="15" y="-208.2"/>
<text text-anchor="start" x="30" y="-198.3" font-family="Helvetica,sans-Serif" font-size="11.00" fill="#000000">Id</text>
<polygon fill="none" stroke="#000000" points="285,-191.2 285,-213.2 366,-213.2 366,-191.2 285,-191.2"/>
<text text-anchor="start" x="288" y="-198.9" font-family="Helvetica,sans-Serif" font-size="11.00" fill="#000000">int[4]</text>
<polygon fill="#ffffff" stroke="transparent" points="10,-169.2 10,-191.2 285,-191.2 285,-169.2 10,-169.2"/>
<polygon fill="none" stroke="#000000" points="10,-169.2 10,-191.2 285,-191.2 285,-169.2 10,-169.2"/>
<text text-anchor="start" x="30" y="-176.3" font-family="Helvetica,sans-Serif" font-size="11.00" fill="#000000">Code</text>
<polygon fill="none" stroke="#000000" points="285,-169.2 285,-191.2 366,-191.2 366,-169.2 285,-169.2"/>
<text text-anchor="start" x="288" y="-176.9" font-family="Helvetica,sans-Serif" font-size="11.00" fill="#000000">nvarchar[100]</text>
<polygon fill="none" stroke="#000000" points="10,-147.2 10,-169.2 285,-169.2 285,-147.2 10,-147.2"/>
<text text-anchor="start" x="30" y="-154.3" font-family="Helvetica,sans-Serif" font-size="11.00" fill="#000000">Name</text>
<polygon fill="none" stroke="#000000" points="285,-147.2 285,-169.2 366,-169.2 366,-147.2 285,-147.2"/>
<text text-anchor="start" x="288" y="-154.9" font-family="Helvetica,sans-Serif" font-size="11.00" fill="#000000">nvarchar[200]</text>
<polygon fill="none" stroke="#000000" points="10,-125.2 10,-147.2 285,-147.2 285,-125.2 10,-125.2"/>
<text text-anchor="start" x="30" y="-132.3" font-family="Helvetica,sans-Serif" font-size="11.00" fill="#000000">DisplayOrder</text>
<polygon fill="none" stroke="#000000" points="285,-125.2 285,-147.2 366,-147.2 366,-125.2 285,-125.2"/>
<text text-anchor="start" x="288" y="-132.9" font-family="Helvetica,sans-Serif" font-size="11.00" fill="#000000">int[4]</text>
<polygon fill="none" stroke="#000000" points="10,-103.2 10,-125.2 285,-125.2 285,-103.2 10,-103.2"/>
<text text-anchor="start" x="30" y="-110.3" font-family="Helvetica,sans-Serif" font-size="11.00" fill="#000000">CreatedAtUtc</text>
<polygon fill="none" stroke="#000000" points="285,-103.2 285,-125.2 366,-125.2 366,-103.2 285,-103.2"/>
<text text-anchor="start" x="287.5968" y="-110.9" font-family="Helvetica,sans-Serif" font-size="11.00" fill="#000000">datetime2[16,7]</text>
<polygon fill="none" stroke="#000000" points="10,-81.2 10,-103.2 285,-103.2 285,-81.2 10,-81.2"/>
<text text-anchor="start" x="30" y="-88.3" font-family="Helvetica,sans-Serif" font-size="11.00" fill="#000000">UpdatedAtUtc</text>
<polygon fill="none" stroke="#000000" points="285,-81.2 285,-103.2 366,-103.2 366,-81.2 285,-81.2"/>
<text text-anchor="start" x="287.5968" y="-88.9" font-family="Helvetica,sans-Serif" font-size="11.00" fill="#000000">datetime2[16,7]</text>
<polygon fill="none" stroke="#000000" points="10,-59.2 10,-81.2 285,-81.2 285,-59.2 10,-59.2"/>
<text text-anchor="start" x="30" y="-66.3" font-family="Helvetica,sans-Serif" font-size="11.00" fill="#000000">RowVersion</text>
<polygon fill="none" stroke="#000000" points="285,-59.2 285,-81.2 366,-81.2 366,-59.2 285,-59.2"/>
<text text-anchor="start" x="288" y="-66.9" font-family="Helvetica,sans-Serif" font-size="11.00" fill="#000000">timestamp[8]</text>
<polygon fill="#ffffff" stroke="transparent" points="10,-40.2 10,-59.2 366,-59.2 366,-40.2 10,-40.2"/>
<polygon fill="none" stroke="#000000" points="10,-40.2 10,-59.2 366,-59.2 366,-40.2 10,-40.2"/>
<polygon fill="#ffffff" stroke="transparent" points="11,-41.2 11,-58.2 132,-58.2 132,-41.2 11,-41.2"/>
<text text-anchor="start" x="13" y="-46.3" font-family="Helvetica,sans-Serif" font-size="11.00" fill="#000000">&lt; 0</text>
<polygon fill="#ffffff" stroke="transparent" points="132,-41.2 132,-58.2 244,-58.2 244,-41.2 132,-41.2"/>
<text text-anchor="start" x="184.9431" y="-46.3" font-family="Helvetica,sans-Serif" font-size="11.00" fill="#000000"> &#160;</text>
<polygon fill="#ffffff" stroke="transparent" points="244,-41.2 244,-58.2 365,-58.2 365,-41.2 244,-41.2"/>
<text text-anchor="start" x="347.4053" y="-46.3" font-family="Helvetica,sans-Serif" font-size="11.00" fill="#000000">1 &gt;</text>
<polygon fill="#000000" stroke="#000000" points="132,-41.2 132,-58.2 132,-58.2 132,-41.2 132,-41.2"/>
<polygon fill="#000000" stroke="#000000" points="244,-41.2 244,-58.2 244,-58.2 244,-41.2 244,-41.2"/>
<polygon fill="none" stroke="#000000" stroke-width="2" points="9,-39.2 9,-237.2 367,-237.2 367,-39.2 9,-39.2"/>
</a>
</g>
</g>
<!-- ProviderAssignmentBatches&#45;&gt;ProviderAssignmentBatchStatuses -->
<g id="edge1" class="edge">
<title>ProviderAssignmentBatches:w&#45;&gt;ProviderAssignmentBatchStatuses:e</title>
<path fill="none" stroke="#000000" d="M402.276,-202.2C390.2815,-202.2 382.8229,-202.2 366,-202.2"/>
<polygon fill="#000000" stroke="#000000" points="409,-202.2001 417,-205.8 413,-202.2 417,-202.2 417,-202.2 417,-202.2 413,-202.2 417,-198.6 409,-202.2001 409,-202.2001"/>
<ellipse fill="none" stroke="#000000" cx="405.8" cy="-202.2001" rx="3.2" ry="3.2"/>
</g>
<!-- ProviderAssignments -->
<g id="node3" class="node">
<title>ProviderAssignments</title>
<g id="a_node3"><a xlink:href="../../tables/ProviderAssignments.html" xlink:title="ProviderAssignments" target="_top">
<polygon fill="#ffffff" stroke="transparent" points="712,-240.7 712,-301.7 907,-301.7 907,-240.7 712,-240.7"/>
<polygon fill="#f5f5f5" stroke="transparent" points="712.5,-278.2 712.5,-301.2 907.5,-301.2 907.5,-278.2 712.5,-278.2"/>
<polygon fill="none" stroke="#000000" points="712.5,-278.2 712.5,-301.2 907.5,-301.2 907.5,-278.2 712.5,-278.2"/>
<text text-anchor="start" x="717.5" y="-286.8" font-family="Helvetica,sans-Serif" font-weight="bold" font-size="11.00" fill="#000000">ProviderAssignments</text>
<text text-anchor="start" x="873.0219" y="-286.3" font-family="Helvetica,sans-Serif" font-size="11.00" fill="#000000">[table]</text>
<polygon fill="none" stroke="#000000" points="712.5,-259.2 712.5,-278.2 907.5,-278.2 907.5,-259.2 712.5,-259.2"/>
<text text-anchor="start" x="715.5" y="-265.3" font-family="Helvetica,sans-Serif" font-size="11.00" fill="#000000">...</text>
<polygon fill="#ffffff" stroke="transparent" points="712.5,-240.2 712.5,-259.2 907.5,-259.2 907.5,-240.2 712.5,-240.2"/>
<polygon fill="none" stroke="#000000" points="712.5,-240.2 712.5,-259.2 907.5,-259.2 907.5,-240.2 712.5,-240.2"/>
<polygon fill="#ffffff" stroke="transparent" points="713.5,-241.2 713.5,-258.2 784.5,-258.2 784.5,-241.2 713.5,-241.2"/>
<text text-anchor="start" x="715.5" y="-246.3" font-family="Helvetica,sans-Serif" font-size="11.00" fill="#000000">&lt; 7</text>
<polygon fill="#ffffff" stroke="transparent" points="784.5,-241.2 784.5,-258.2 845.5,-258.2 845.5,-241.2 784.5,-241.2"/>
<text text-anchor="start" x="811.9431" y="-246.3" font-family="Helvetica,sans-Serif" font-size="11.00" fill="#000000"> &#160;</text>
<polygon fill="#ffffff" stroke="transparent" points="845.5,-241.2 845.5,-258.2 906.5,-258.2 906.5,-241.2 845.5,-241.2"/>
<text text-anchor="start" x="898.3862" y="-246.3" font-family="Helvetica,sans-Serif" font-size="11.00" fill="#000000"> &#160;</text>
<polygon fill="#000000" stroke="#000000" points="784.5,-241.2 784.5,-258.2 784.5,-258.2 784.5,-241.2 784.5,-241.2"/>
<polygon fill="#000000" stroke="#000000" points="845.5,-241.2 845.5,-258.2 845.5,-258.2 845.5,-241.2 845.5,-241.2"/>
</a>
</g>
</g>
<!-- ProviderAssignments&#45;&gt;ProviderAssignmentBatches -->
<g id="edge2" class="edge">
<title>ProviderAssignments:w&#45;&gt;ProviderAssignmentBatches:e</title>
<path fill="none" stroke="#000000" d="M697.8428,-268.2C686.4139,-268.2 679.1563,-268.2 663,-268.2"/>
<polygon fill="#000000" stroke="#000000" points="704.5,-268.2001 712.5,-271.8 708.5,-268.2 712.5,-268.2 712.5,-268.2 712.5,-268.2 708.5,-268.2 712.5,-264.6 704.5,-268.2001 704.5,-268.2001"/>
<ellipse fill="none" stroke="#000000" cx="701.3" cy="-268.2001" rx="3.2" ry="3.2"/>
</g>
</g>
</svg>
