<?xml version="1.0" encoding="UTF-8" standalone="no"?>
<!DOCTYPE svg PUBLIC "-//W3C//DTD SVG 1.1//EN"
 "http://www.w3.org/Graphics/SVG/1.1/DTD/svg11.dtd">
<!-- Generated by graphviz version 2.40.1 (20161225.0304)
 -->
<!-- Title: twoDegreesRelationshipsDiagram Pages: 1 -->
<svg width="710pt" height="683pt"
 viewBox="0.00 0.00 710.00 682.70" xmlns="http://www.w3.org/2000/svg" xmlns:xlink="http://www.w3.org/1999/xlink">
<g id="graph0" class="graph" transform="scale(1 1) rotate(0) translate(4 678.7)">
<title>twoDegreesRelationshipsDiagram</title>
<polygon fill="#ffffff" stroke="transparent" points="-4,4 -4,-678.7 706,-678.7 706,4 -4,4"/>
<text text-anchor="middle" x="72.4936" y="-7.3" font-family="Helvetica,sans-Serif" font-size="11.00" fill="#000000">Generated by SchemaSpy</text>
<!-- ProviderAssignments -->
<g id="node1" class="node">
<title>ProviderAssignments</title>
<g id="a_node1"><a xlink:href="../../tables/ProviderAssignments.html" xlink:title="ProviderAssignments" target="_top">
<polygon fill="#ffffff" stroke="transparent" points="387,-175.2 387,-412.2 694,-412.2 694,-175.2 387,-175.2"/>
<polygon fill="#f5f5f5" stroke="transparent" points="387.5,-388.7 387.5,-411.7 694.5,-411.7 694.5,-388.7 387.5,-388.7"/>
<polygon fill="none" stroke="#000000" points="387.5,-388.7 387.5,-411.7 694.5,-411.7 694.5,-388.7 387.5,-388.7"/>
<text text-anchor="start" x="392.5" y="-397.3" font-family="Helvetica,sans-Serif" font-weight="bold" font-size="11.00" fill="#000000">ProviderAssignments</text>
<text text-anchor="start" x="659.5437" y="-396.8" font-family="Helvetica,sans-Serif" font-size="11.00" fill="#000000">[table]</text>
<polygon fill="none" stroke="#000000" points="387.5,-366.7 387.5,-388.7 694.5,-388.7 694.5,-366.7 387.5,-366.7"/>
<image xlink:href="../../images/primaryKeys.png" width="11px" height="12px" preserveAspectRatio="xMinYMin meet" x="392.5" y="-383.7"/>
<text text-anchor="start" x="407.5" y="-373.8" font-family="Helvetica,sans-Serif" font-size="11.00" fill="#000000">Id</text>
<polygon fill="#ffffff" stroke="transparent" points="387.5,-344.7 387.5,-366.7 694.5,-366.7 694.5,-344.7 387.5,-344.7"/>
<polygon fill="none" stroke="#000000" points="387.5,-344.7 387.5,-366.7 694.5,-366.7 694.5,-344.7 387.5,-344.7"/>
<image xlink:href="../../images/foreignKeys.png" width="11px" height="12px" preserveAspectRatio="xMinYMin meet" x="392.5" y="-361.7"/>
<text text-anchor="start" x="407.5" y="-351.8" font-family="Helvetica,sans-Serif" font-size="11.00" fill="#000000">BatchId</text>
<polygon fill="#ffffff" stroke="transparent" points="387.5,-322.7 387.5,-344.7 694.5,-344.7 694.5,-322.7 387.5,-322.7"/>
<polygon fill="none" stroke="#000000" points="387.5,-322.7 387.5,-344.7 694.5,-344.7 694.5,-322.7 387.5,-322.7"/>
<image xlink:href="../../images/foreignKeys.png" width="11px" height="12px" preserveAspectRatio="xMinYMin meet" x="392.5" y="-339.7"/>
<text text-anchor="start" x="407.5" y="-329.8" font-family="Helvetica,sans-Serif" font-size="11.00" fill="#000000">ResolvedPhysicianId</text>
<polygon fill="#ffffff" stroke="transparent" points="387.5,-300.7 387.5,-322.7 694.5,-322.7 694.5,-300.7 387.5,-300.7"/>
<polygon fill="none" stroke="#000000" points="387.5,-300.7 387.5,-322.7 694.5,-322.7 694.5,-300.7 387.5,-300.7"/>
<image xlink:href="../../images/foreignKeys.png" width="11px" height="12px" preserveAspectRatio="xMinYMin meet" x="392.5" y="-317.7"/>
<text text-anchor="start" x="407.5" y="-307.8" font-family="Helvetica,sans-Serif" font-size="11.00" fill="#000000">ResolvedHospitalizationId</text>
<polygon fill="#ffffff" stroke="transparent" points="387.5,-278.7 387.5,-300.7 694.5,-300.7 694.5,-278.7 387.5,-278.7"/>
<polygon fill="none" stroke="#000000" points="387.5,-278.7 387.5,-300.7 694.5,-300.7 694.5,-278.7 387.5,-278.7"/>
<image xlink:href="../../images/foreignKeys.png" width="11px" height="12px" preserveAspectRatio="xMinYMin meet" x="392.5" y="-295.7"/>
<text text-anchor="start" x="407.5" y="-285.8" font-family="Helvetica,sans-Serif" font-size="11.00" fill="#000000">ResolvedPatientId</text>
<polygon fill="#ffffff" stroke="transparent" points="387.5,-256.7 387.5,-278.7 694.5,-278.7 694.5,-256.7 387.5,-256.7"/>
<polygon fill="none" stroke="#000000" points="387.5,-256.7 387.5,-278.7 694.5,-278.7 694.5,-256.7 387.5,-256.7"/>
<image xlink:href="../../images/foreignKeys.png" width="11px" height="12px" preserveAspectRatio="xMinYMin meet" x="392.5" y="-273.7"/>
<text text-anchor="start" x="407.5" y="-263.8" font-family="Helvetica,sans-Serif" font-size="11.00" fill="#000000">ResolvedNursePractitionerId</text>
<polygon fill="#ffffff" stroke="transparent" points="387.5,-234.7 387.5,-256.7 694.5,-256.7 694.5,-234.7 387.5,-234.7"/>
<polygon fill="none" stroke="#000000" points="387.5,-234.7 387.5,-256.7 694.5,-256.7 694.5,-234.7 387.5,-234.7"/>
<image xlink:href="../../images/foreignKeys.png" width="11px" height="12px" preserveAspectRatio="xMinYMin meet" x="392.5" y="-251.7"/>
<text text-anchor="start" x="407.5" y="-241.8" font-family="Helvetica,sans-Serif" font-size="11.00" fill="#000000">ResolvedVisitId</text>
<polygon fill="#ffffff" stroke="transparent" points="387.5,-212.7 387.5,-234.7 694.5,-234.7 694.5,-212.7 387.5,-212.7"/>
<polygon fill="none" stroke="#000000" points="387.5,-212.7 387.5,-234.7 694.5,-234.7 694.5,-212.7 387.5,-212.7"/>
<image xlink:href="../../images/foreignKeys.png" width="11px" height="12px" preserveAspectRatio="xMinYMin meet" x="392.5" y="-229.7"/>
<text text-anchor="start" x="407.5" y="-219.8" font-family="Helvetica,sans-Serif" font-size="11.00" fill="#000000">ResolvedHospitalizationStatusId</text>
<polygon fill="none" stroke="#000000" points="387.5,-193.7 387.5,-212.7 694.5,-212.7 694.5,-193.7 387.5,-193.7"/>
<text text-anchor="start" x="390.5" y="-199.8" font-family="Helvetica,sans-Serif" font-size="11.00" fill="#000000">...</text>
<polygon fill="#ffffff" stroke="transparent" points="387.5,-174.7 387.5,-193.7 694.5,-193.7 694.5,-174.7 387.5,-174.7"/>
<polygon fill="none" stroke="#000000" points="387.5,-174.7 387.5,-193.7 694.5,-193.7 694.5,-174.7 387.5,-174.7"/>
<polygon fill="#ffffff" stroke="transparent" points="388.5,-175.7 388.5,-192.7 496.5,-192.7 496.5,-175.7 388.5,-175.7"/>
<text text-anchor="start" x="390.5" y="-180.8" font-family="Helvetica,sans-Serif" font-size="11.00" fill="#000000">&lt; 7</text>
<polygon fill="#ffffff" stroke="transparent" points="496.5,-175.7 496.5,-192.7 595.5,-192.7 595.5,-175.7 496.5,-175.7"/>
<text text-anchor="start" x="542.9431" y="-180.8" font-family="Helvetica,sans-Serif" font-size="11.00" fill="#000000"> &#160;</text>
<polygon fill="#ffffff" stroke="transparent" points="595.5,-175.7 595.5,-192.7 693.5,-192.7 693.5,-175.7 595.5,-175.7"/>
<text text-anchor="start" x="685.3862" y="-180.8" font-family="Helvetica,sans-Serif" font-size="11.00" fill="#000000"> &#160;</text>
<polygon fill="#000000" stroke="#000000" points="496.5,-175.7 496.5,-192.7 496.5,-192.7 496.5,-175.7 496.5,-175.7"/>
<polygon fill="#000000" stroke="#000000" points="595.5,-175.7 595.5,-192.7 595.5,-192.7 595.5,-175.7 595.5,-175.7"/>
</a>
</g>
</g>
<!-- ProviderAssignmentBatches -->
<g id="node2" class="node">
<title>ProviderAssignmentBatches</title>
<g id="a_node2"><a xlink:href="../../tables/ProviderAssignmentBatches.html" xlink:title="ProviderAssignmentBatches" target="_top">
<polygon fill="#ffffff" stroke="transparent" points="8,-448.7 8,-670.7 338,-670.7 338,-448.7 8,-448.7"/>
<polygon fill="#f5f5f5" stroke="transparent" points="10,-645.7 10,-668.7 336,-668.7 336,-645.7 10,-645.7"/>
<polygon fill="none" stroke="#000000" points="10,-645.7 10,-668.7 336,-668.7 336,-645.7 10,-645.7"/>
<text text-anchor="start" x="15" y="-654.3" font-family="Helvetica,sans-Serif" font-weight="bold" font-size="11.00" fill="#000000">ProviderAssignmentBatches</text>
<text text-anchor="start" x="301.0437" y="-653.8" font-family="Helvetica,sans-Serif" font-size="11.00" fill="#000000">[table]</text>
<polygon fill="none" stroke="#000000" points="10,-623.7 10,-645.7 238,-645.7 238,-623.7 10,-623.7"/>
<image xlink:href="../../images/primaryKeys.png" width="11px" height="12px" preserveAspectRatio="xMinYMin meet" x="15" y="-640.7"/>
<text text-anchor="start" x="30" y="-630.8" font-family="Helvetica,sans-Serif" font-size="11.00" fill="#000000">Id</text>
<polygon fill="none" stroke="#000000" points="238,-623.7 238,-645.7 336,-645.7 336,-623.7 238,-623.7"/>
<text text-anchor="start" x="240.5415" y="-631.4" font-family="Helvetica,sans-Serif" font-size="11.00" fill="#000000">uniqueidentifier[16]</text>
<polygon fill="#ffffff" stroke="transparent" points="10,-601.7 10,-623.7 238,-623.7 238,-601.7 10,-601.7"/>
<polygon fill="none" stroke="#000000" points="10,-601.7 10,-623.7 238,-623.7 238,-601.7 10,-601.7"/>
<text text-anchor="start" x="30" y="-608.8" font-family="Helvetica,sans-Serif" font-size="11.00" fill="#000000">Date</text>
<polygon fill="none" stroke="#000000" points="238,-601.7 238,-623.7 336,-623.7 336,-601.7 238,-601.7"/>
<text text-anchor="start" x="241" y="-609.4" font-family="Helvetica,sans-Serif" font-size="11.00" fill="#000000">date[6]</text>
<polygon fill="#ffffff" stroke="transparent" points="10,-579.7 10,-601.7 238,-601.7 238,-579.7 10,-579.7"/>
<polygon fill="none" stroke="#000000" points="10,-579.7 10,-601.7 238,-601.7 238,-579.7 10,-579.7"/>
<text text-anchor="start" x="30" y="-586.8" font-family="Helvetica,sans-Serif" font-size="11.00" fill="#000000">FacilityId</text>
<polygon fill="none" stroke="#000000" points="238,-579.7 238,-601.7 336,-601.7 336,-579.7 238,-579.7"/>
<text text-anchor="start" x="241" y="-587.4" font-family="Helvetica,sans-Serif" font-size="11.00" fill="#000000">int[4]</text>
<polygon fill="#ffffff" stroke="transparent" points="10,-557.7 10,-579.7 238,-579.7 238,-557.7 10,-557.7"/>
<polygon fill="none" stroke="#000000" points="10,-557.7 10,-579.7 238,-579.7 238,-557.7 10,-557.7"/>
<text text-anchor="start" x="30" y="-564.8" font-family="Helvetica,sans-Serif" font-size="11.00" fill="#000000">Status</text>
<polygon fill="none" stroke="#000000" points="238,-557.7 238,-579.7 336,-579.7 336,-557.7 238,-557.7"/>
<text text-anchor="start" x="241" y="-565.4" font-family="Helvetica,sans-Serif" font-size="11.00" fill="#000000">int[4]</text>
<polygon fill="none" stroke="#000000" points="10,-535.7 10,-557.7 238,-557.7 238,-535.7 10,-535.7"/>
<text text-anchor="start" x="30" y="-542.8" font-family="Helvetica,sans-Serif" font-size="11.00" fill="#000000">CreatedAtUtc</text>
<polygon fill="none" stroke="#000000" points="238,-535.7 238,-557.7 336,-557.7 336,-535.7 238,-535.7"/>
<text text-anchor="start" x="241" y="-543.4" font-family="Helvetica,sans-Serif" font-size="11.00" fill="#000000">datetime2[16,7]</text>
<polygon fill="none" stroke="#000000" points="10,-513.7 10,-535.7 238,-535.7 238,-513.7 10,-513.7"/>
<text text-anchor="start" x="30" y="-520.8" font-family="Helvetica,sans-Serif" font-size="11.00" fill="#000000">UpdatedAtUtc</text>
<polygon fill="none" stroke="#000000" points="238,-513.7 238,-535.7 336,-535.7 336,-513.7 238,-513.7"/>
<text text-anchor="start" x="241" y="-521.4" font-family="Helvetica,sans-Serif" font-size="11.00" fill="#000000">datetime2[16,7]</text>
<polygon fill="none" stroke="#000000" points="10,-491.7 10,-513.7 238,-513.7 238,-491.7 10,-491.7"/>
<text text-anchor="start" x="30" y="-498.8" font-family="Helvetica,sans-Serif" font-size="11.00" fill="#000000">RowVersion</text>
<polygon fill="none" stroke="#000000" points="238,-491.7 238,-513.7 336,-513.7 336,-491.7 238,-491.7"/>
<text text-anchor="start" x="241" y="-499.4" font-family="Helvetica,sans-Serif" font-size="11.00" fill="#000000">timestamp[8]</text>
<polygon fill="#ffffff" stroke="transparent" points="10,-469.7 10,-491.7 238,-491.7 238,-469.7 10,-469.7"/>
<polygon fill="none" stroke="#000000" points="10,-469.7 10,-491.7 238,-491.7 238,-469.7 10,-469.7"/>
<text text-anchor="start" x="30" y="-476.8" font-family="Helvetica,sans-Serif" font-size="11.00" fill="#000000">CreatedByUserId</text>
<polygon fill="none" stroke="#000000" points="238,-469.7 238,-491.7 336,-491.7 336,-469.7 238,-469.7"/>
<text text-anchor="start" x="241" y="-477.4" font-family="Helvetica,sans-Serif" font-size="11.00" fill="#000000">int[4]</text>
<polygon fill="#ffffff" stroke="transparent" points="10,-450.7 10,-469.7 336,-469.7 336,-450.7 10,-450.7"/>
<polygon fill="none" stroke="#000000" points="10,-450.7 10,-469.7 336,-469.7 336,-450.7 10,-450.7"/>
<polygon fill="#ffffff" stroke="transparent" points="11,-451.7 11,-468.7 122,-468.7 122,-451.7 11,-451.7"/>
<text text-anchor="start" x="13" y="-456.8" font-family="Helvetica,sans-Serif" font-size="11.00" fill="#000000">&lt; 0</text>
<polygon fill="#ffffff" stroke="transparent" points="122,-451.7 122,-468.7 224,-468.7 224,-451.7 122,-451.7"/>
<text text-anchor="start" x="169.9431" y="-456.8" font-family="Helvetica,sans-Serif" font-size="11.00" fill="#000000"> &#160;</text>
<polygon fill="#ffffff" stroke="transparent" points="224,-451.7 224,-468.7 335,-468.7 335,-451.7 224,-451.7"/>
<text text-anchor="start" x="317.4053" y="-456.8" font-family="Helvetica,sans-Serif" font-size="11.00" fill="#000000">1 &gt;</text>
<polygon fill="#000000" stroke="#000000" points="122,-451.7 122,-468.7 122,-468.7 122,-451.7 122,-451.7"/>
<polygon fill="#000000" stroke="#000000" points="224,-451.7 224,-468.7 224,-468.7 224,-451.7 224,-451.7"/>
<polygon fill="none" stroke="#000000" stroke-width="2" points="9,-449.7 9,-669.7 337,-669.7 337,-449.7 9,-449.7"/>
</a>
</g>
</g>
<!-- ProviderAssignments&#45;&gt;ProviderAssignmentBatches -->
<g id="edge1" class="edge">
<title>ProviderAssignments:w&#45;&gt;ProviderAssignmentBatches:e</title>
<path fill="none" stroke="#000000" d="M374.1204,-361.5273C336.2571,-401.5926 393.6293,-634.7 336,-634.7"/>
<polygon fill="#000000" stroke="#000000" points="380.1655,-358.8945 388.9375,-359.0005 383.8327,-357.2973 387.5,-355.7 387.5,-355.7 387.5,-355.7 383.8327,-357.2973 386.0625,-352.3995 380.1655,-358.8945 380.1655,-358.8945"/>
<ellipse fill="none" stroke="#000000" cx="377.2316" cy="-360.1723" rx="3.2" ry="3.2"/>
</g>
<!-- Clinical.Hospitalizations -->
<g id="node3" class="node">
<title>Clinical.Hospitalizations</title>
<g id="a_node3"><a xlink:title="Clinical.Hospitalizations">
<polygon fill="#ffffff" stroke="transparent" points="65.5,-284.2 65.5,-345.2 280.5,-345.2 280.5,-284.2 65.5,-284.2"/>
<polygon fill="#f5f5f5" stroke="transparent" points="66,-321.7 66,-344.7 281,-344.7 281,-321.7 66,-321.7"/>
<polygon fill="none" stroke="#000000" points="66,-321.7 66,-344.7 281,-344.7 281,-321.7 66,-321.7"/>
<text text-anchor="start" x="71" y="-330.3" font-family="Helvetica,sans-Serif" font-weight="bold" font-size="11.00" fill="#000000">Clinical.Hospitalizations</text>
<text text-anchor="start" x="246.5219" y="-329.8" font-family="Helvetica,sans-Serif" font-size="11.00" fill="#000000">[table]</text>
<polygon fill="none" stroke="#000000" points="66,-302.7 66,-321.7 281,-321.7 281,-302.7 66,-302.7"/>
<text text-anchor="start" x="69" y="-308.8" font-family="Helvetica,sans-Serif" font-size="11.00" fill="#000000">...</text>
<polygon fill="#ffffff" stroke="transparent" points="66,-283.7 66,-302.7 281,-302.7 281,-283.7 66,-283.7"/>
<polygon fill="none" stroke="#000000" points="66,-283.7 66,-302.7 281,-302.7 281,-283.7 66,-283.7"/>
<polygon fill="#ffffff" stroke="transparent" points="67,-284.7 67,-301.7 135,-301.7 135,-284.7 67,-284.7"/>
<text text-anchor="start" x="69" y="-289.8" font-family="Helvetica,sans-Serif" font-size="11.00" fill="#000000"> &#160;</text>
<polygon fill="#ffffff" stroke="transparent" points="135,-284.7 135,-301.7 203,-301.7 203,-284.7 135,-284.7"/>
<text text-anchor="start" x="165.9431" y="-289.8" font-family="Helvetica,sans-Serif" font-size="11.00" fill="#000000"> &#160;</text>
<polygon fill="#ffffff" stroke="transparent" points="203,-284.7 203,-301.7 280,-301.7 280,-284.7 203,-284.7"/>
<text text-anchor="start" x="262.4053" y="-289.8" font-family="Helvetica,sans-Serif" font-size="11.00" fill="#000000">1 &gt;</text>
<polygon fill="#000000" stroke="#000000" points="135,-284.7 135,-301.7 135,-301.7 135,-284.7 135,-284.7"/>
<polygon fill="#000000" stroke="#000000" points="203,-284.7 203,-301.7 203,-301.7 203,-284.7 203,-284.7"/>
</a>
</g>
</g>
<!-- ProviderAssignments&#45;&gt;Clinical.Hospitalizations -->
<g id="edge2" class="edge">
<title>ProviderAssignments:w&#45;&gt;Clinical.Hospitalizations:e</title>
<path fill="none" stroke="#000000" d="M372.6775,-311.7C337.0301,-311.7 322.9714,-311.7 281,-311.7"/>
<polygon fill="#000000" stroke="#000000" points="379.5,-311.7001 387.5,-315.3 383.5,-311.7 387.5,-311.7 387.5,-311.7 387.5,-311.7 383.5,-311.7 387.5,-308.1 379.5,-311.7001 379.5,-311.7001"/>
<ellipse fill="none" stroke="#000000" cx="376.3" cy="-311.7001" rx="3.2" ry="3.2"/>
</g>
<!-- Clinical.HospitalizationStatuses -->
<g id="node4" class="node">
<title>Clinical.HospitalizationStatuses</title>
<g id="a_node4"><a xlink:title="Clinical.HospitalizationStatuses">
<polygon fill="#ffffff" stroke="transparent" points="37.5,-38.2 37.5,-99.2 308.5,-99.2 308.5,-38.2 37.5,-38.2"/>
<polygon fill="#f5f5f5" stroke="transparent" points="38,-75.7 38,-98.7 309,-98.7 309,-75.7 38,-75.7"/>
<polygon fill="none" stroke="#000000" points="38,-75.7 38,-98.7 309,-98.7 309,-75.7 38,-75.7"/>
<text text-anchor="start" x="43" y="-84.3" font-family="Helvetica,sans-Serif" font-weight="bold" font-size="11.00" fill="#000000">Clinical.HospitalizationStatuses</text>
<text text-anchor="start" x="274.5219" y="-83.8" font-family="Helvetica,sans-Serif" font-size="11.00" fill="#000000">[table]</text>
<polygon fill="none" stroke="#000000" points="38,-56.7 38,-75.7 309,-75.7 309,-56.7 38,-56.7"/>
<text text-anchor="start" x="41" y="-62.8" font-family="Helvetica,sans-Serif" font-size="11.00" fill="#000000">...</text>
<polygon fill="#ffffff" stroke="transparent" points="38,-37.7 38,-56.7 309,-56.7 309,-37.7 38,-37.7"/>
<polygon fill="none" stroke="#000000" points="38,-37.7 38,-56.7 309,-56.7 309,-37.7 38,-37.7"/>
<polygon fill="#ffffff" stroke="transparent" points="39,-38.7 39,-55.7 126,-55.7 126,-38.7 39,-38.7"/>
<text text-anchor="start" x="41" y="-43.8" font-family="Helvetica,sans-Serif" font-size="11.00" fill="#000000"> &#160;</text>
<polygon fill="#ffffff" stroke="transparent" points="126,-38.7 126,-55.7 213,-55.7 213,-38.7 126,-38.7"/>
<text text-anchor="start" x="166.4431" y="-43.8" font-family="Helvetica,sans-Serif" font-size="11.00" fill="#000000"> &#160;</text>
<polygon fill="#ffffff" stroke="transparent" points="213,-38.7 213,-55.7 308,-55.7 308,-38.7 213,-38.7"/>
<text text-anchor="start" x="290.4053" y="-43.8" font-family="Helvetica,sans-Serif" font-size="11.00" fill="#000000">1 &gt;</text>
<polygon fill="#000000" stroke="#000000" points="126,-38.7 126,-55.7 126,-55.7 126,-38.7 126,-38.7"/>
<polygon fill="#000000" stroke="#000000" points="213,-38.7 213,-55.7 213,-55.7 213,-38.7 213,-38.7"/>
</a>
</g>
</g>
<!-- ProviderAssignments&#45;&gt;Clinical.HospitalizationStatuses -->
<g id="edge3" class="edge">
<title>ProviderAssignments:w&#45;&gt;Clinical.HospitalizationStatuses:e</title>
<path fill="none" stroke="#000000" d="M373.1757,-221.4665C319.3277,-202.2624 381.8984,-65.7 309,-65.7"/>
<polygon fill="#000000" stroke="#000000" points="379.5955,-222.4674 386.9453,-227.257 383.5478,-223.0837 387.5,-223.7 387.5,-223.7 387.5,-223.7 383.5478,-223.0837 388.0547,-220.143 379.5955,-222.4674 379.5955,-222.4674"/>
<ellipse fill="none" stroke="#000000" cx="376.4337" cy="-221.9744" rx="3.2" ry="3.2"/>
</g>
<!-- Clinical.Providers -->
<g id="node5" class="node">
<title>Clinical.Providers</title>
<g id="a_node5"><a xlink:title="Clinical.Providers">
<polygon fill="#ffffff" stroke="transparent" points="89.5,-366.2 89.5,-427.2 256.5,-427.2 256.5,-366.2 89.5,-366.2"/>
<polygon fill="#f5f5f5" stroke="transparent" points="90,-403.7 90,-426.7 257,-426.7 257,-403.7 90,-403.7"/>
<polygon fill="none" stroke="#000000" points="90,-403.7 90,-426.7 257,-426.7 257,-403.7 90,-403.7"/>
<text text-anchor="start" x="95" y="-412.3" font-family="Helvetica,sans-Serif" font-weight="bold" font-size="11.00" fill="#000000">Clinical.Providers</text>
<text text-anchor="start" x="222.5219" y="-411.8" font-family="Helvetica,sans-Serif" font-size="11.00" fill="#000000">[table]</text>
<polygon fill="none" stroke="#000000" points="90,-384.7 90,-403.7 257,-403.7 257,-384.7 90,-384.7"/>
<text text-anchor="start" x="93" y="-390.8" font-family="Helvetica,sans-Serif" font-size="11.00" fill="#000000">...</text>
<polygon fill="#ffffff" stroke="transparent" points="90,-365.7 90,-384.7 257,-384.7 257,-365.7 90,-365.7"/>
<polygon fill="none" stroke="#000000" points="90,-365.7 90,-384.7 257,-384.7 257,-365.7 90,-365.7"/>
<polygon fill="#ffffff" stroke="transparent" points="91,-366.7 91,-383.7 143,-383.7 143,-366.7 91,-366.7"/>
<text text-anchor="start" x="93" y="-371.8" font-family="Helvetica,sans-Serif" font-size="11.00" fill="#000000"> &#160;</text>
<polygon fill="#ffffff" stroke="transparent" points="143,-366.7 143,-383.7 195,-383.7 195,-366.7 143,-366.7"/>
<text text-anchor="start" x="165.9431" y="-371.8" font-family="Helvetica,sans-Serif" font-size="11.00" fill="#000000"> &#160;</text>
<polygon fill="#ffffff" stroke="transparent" points="195,-366.7 195,-383.7 256,-383.7 256,-366.7 195,-366.7"/>
<text text-anchor="start" x="238.4053" y="-371.8" font-family="Helvetica,sans-Serif" font-size="11.00" fill="#000000">2 &gt;</text>
<polygon fill="#000000" stroke="#000000" points="143,-366.7 143,-383.7 143,-383.7 143,-366.7 143,-366.7"/>
<polygon fill="#000000" stroke="#000000" points="195,-366.7 195,-383.7 195,-383.7 195,-366.7 195,-366.7"/>
</a>
</g>
</g>
<!-- ProviderAssignments&#45;&gt;Clinical.Providers -->
<g id="edge4" class="edge">
<title>ProviderAssignments:w&#45;&gt;Clinical.Providers:e</title>
<path fill="none" stroke="#000000" d="M373.3836,-270.9016C352.2397,-283.4578 372.7602,-329.9154 346,-355.7 315.0279,-385.543 300.0102,-393.7 257,-393.7"/>
<polygon fill="#000000" stroke="#000000" points="379.6981,-269.4695 388.2963,-271.2108 383.5991,-268.5847 387.5,-267.7 387.5,-267.7 387.5,-267.7 383.5991,-268.5847 386.7037,-264.1892 379.6981,-269.4695 379.6981,-269.4695"/>
<ellipse fill="none" stroke="#000000" cx="376.5774" cy="-270.1773" rx="3.2" ry="3.2"/>
</g>
<!-- ProviderAssignments&#45;&gt;Clinical.Providers -->
<g id="edge6" class="edge">
<title>ProviderAssignments:w&#45;&gt;Clinical.Providers:e</title>
<path fill="none" stroke="#000000" d="M373.3091,-336.5489C364.1669,-340.8832 359.3929,-349.3048 346,-355.7 307.1877,-374.2332 300.0102,-393.7 257,-393.7"/>
<polygon fill="#000000" stroke="#000000" points="379.6565,-335.2747 388.2086,-337.2296 383.5782,-334.4873 387.5,-333.7 387.5,-333.7 387.5,-333.7 383.5782,-334.4873 386.7914,-330.1704 379.6565,-335.2747 379.6565,-335.2747"/>
<ellipse fill="none" stroke="#000000" cx="376.5191" cy="-335.9046" rx="3.2" ry="3.2"/>
</g>
<!-- Clinical.Patients -->
<g id="node6" class="node">
<title>Clinical.Patients</title>
<g id="a_node6"><a xlink:title="Clinical.Patients">
<polygon fill="#ffffff" stroke="transparent" points="94,-202.2 94,-263.2 252,-263.2 252,-202.2 94,-202.2"/>
<polygon fill="#f5f5f5" stroke="transparent" points="94,-239.7 94,-262.7 252,-262.7 252,-239.7 94,-239.7"/>
<polygon fill="none" stroke="#000000" points="94,-239.7 94,-262.7 252,-262.7 252,-239.7 94,-239.7"/>
<text text-anchor="start" x="99" y="-248.3" font-family="Helvetica,sans-Serif" font-weight="bold" font-size="11.00" fill="#000000">Clinical.Patients</text>
<text text-anchor="start" x="217.5219" y="-247.8" font-family="Helvetica,sans-Serif" font-size="11.00" fill="#000000">[table]</text>
<polygon fill="none" stroke="#000000" points="94,-220.7 94,-239.7 252,-239.7 252,-220.7 94,-220.7"/>
<text text-anchor="start" x="97" y="-226.8" font-family="Helvetica,sans-Serif" font-size="11.00" fill="#000000">...</text>
<polygon fill="#ffffff" stroke="transparent" points="94,-201.7 94,-220.7 252,-220.7 252,-201.7 94,-201.7"/>
<polygon fill="none" stroke="#000000" points="94,-201.7 94,-220.7 252,-220.7 252,-201.7 94,-201.7"/>
<polygon fill="#ffffff" stroke="transparent" points="95,-202.7 95,-219.7 144,-219.7 144,-202.7 95,-202.7"/>
<text text-anchor="start" x="97" y="-207.8" font-family="Helvetica,sans-Serif" font-size="11.00" fill="#000000"> &#160;</text>
<polygon fill="#ffffff" stroke="transparent" points="144,-202.7 144,-219.7 193,-219.7 193,-202.7 144,-202.7"/>
<text text-anchor="start" x="165.4431" y="-207.8" font-family="Helvetica,sans-Serif" font-size="11.00" fill="#000000"> &#160;</text>
<polygon fill="#ffffff" stroke="transparent" points="193,-202.7 193,-219.7 251,-219.7 251,-202.7 193,-202.7"/>
<text text-anchor="start" x="233.4053" y="-207.8" font-family="Helvetica,sans-Serif" font-size="11.00" fill="#000000">1 &gt;</text>
<polygon fill="#000000" stroke="#000000" points="144,-202.7 144,-219.7 144,-219.7 144,-202.7 144,-202.7"/>
<polygon fill="#000000" stroke="#000000" points="193,-202.7 193,-219.7 193,-219.7 193,-202.7 193,-202.7"/>
</a>
</g>
</g>
<!-- ProviderAssignments&#45;&gt;Clinical.Patients -->
<g id="edge5" class="edge">
<title>ProviderAssignments:w&#45;&gt;Clinical.Patients:e</title>
<path fill="none" stroke="#000000" d="M373.6706,-285.576C340.3889,-272.0203 265.8285,-229.7 252,-229.7"/>
<polygon fill="#000000" stroke="#000000" points="379.8336,-287.4138 386.4712,-293.1499 383.6668,-288.5569 387.5,-289.7 387.5,-289.7 387.5,-289.7 383.6668,-288.5569 388.5288,-286.2501 379.8336,-287.4138 379.8336,-287.4138"/>
<ellipse fill="none" stroke="#000000" cx="376.7671" cy="-286.4993" rx="3.2" ry="3.2"/>
</g>
<!-- Clinical.Visits -->
<g id="node7" class="node">
<title>Clinical.Visits</title>
<g id="a_node7"><a xlink:title="Clinical.Visits">
<polygon fill="#ffffff" stroke="transparent" points="104.5,-120.2 104.5,-181.2 241.5,-181.2 241.5,-120.2 104.5,-120.2"/>
<polygon fill="#f5f5f5" stroke="transparent" points="105,-157.7 105,-180.7 242,-180.7 242,-157.7 105,-157.7"/>
<polygon fill="none" stroke="#000000" points="105,-157.7 105,-180.7 242,-180.7 242,-157.7 105,-157.7"/>
<text text-anchor="start" x="110" y="-166.3" font-family="Helvetica,sans-Serif" font-weight="bold" font-size="11.00" fill="#000000">Clinical.Visits</text>
<text text-anchor="start" x="207.5219" y="-165.8" font-family="Helvetica,sans-Serif" font-size="11.00" fill="#000000">[table]</text>
<polygon fill="none" stroke="#000000" points="105,-138.7 105,-157.7 242,-157.7 242,-138.7 105,-138.7"/>
<text text-anchor="start" x="108" y="-144.8" font-family="Helvetica,sans-Serif" font-size="11.00" fill="#000000">...</text>
<polygon fill="#ffffff" stroke="transparent" points="105,-119.7 105,-138.7 242,-138.7 242,-119.7 105,-119.7"/>
<polygon fill="none" stroke="#000000" points="105,-119.7 105,-138.7 242,-138.7 242,-119.7 105,-119.7"/>
<polygon fill="#ffffff" stroke="transparent" points="106,-120.7 106,-137.7 148,-137.7 148,-120.7 106,-120.7"/>
<text text-anchor="start" x="108" y="-125.8" font-family="Helvetica,sans-Serif" font-size="11.00" fill="#000000"> &#160;</text>
<polygon fill="#ffffff" stroke="transparent" points="148,-120.7 148,-137.7 190,-137.7 190,-120.7 148,-120.7"/>
<text text-anchor="start" x="165.9431" y="-125.8" font-family="Helvetica,sans-Serif" font-size="11.00" fill="#000000"> &#160;</text>
<polygon fill="#ffffff" stroke="transparent" points="190,-120.7 190,-137.7 241,-137.7 241,-120.7 190,-120.7"/>
<text text-anchor="start" x="223.4053" y="-125.8" font-family="Helvetica,sans-Serif" font-size="11.00" fill="#000000">1 &gt;</text>
<polygon fill="#000000" stroke="#000000" points="148,-120.7 148,-137.7 148,-137.7 148,-120.7 148,-120.7"/>
<polygon fill="#000000" stroke="#000000" points="190,-120.7 190,-137.7 190,-137.7 190,-120.7 190,-120.7"/>
</a>
</g>
</g>
<!-- ProviderAssignments&#45;&gt;Clinical.Visits -->
<g id="edge7" class="edge">
<title>ProviderAssignments:w&#45;&gt;Clinical.Visits:e</title>
<path fill="none" stroke="#000000" d="M373.3362,-241.4549C360.9658,-231.4825 364.8989,-206.3039 346,-191.7 306.2866,-161.012 292.1888,-147.7 242,-147.7"/>
<polygon fill="#000000" stroke="#000000" points="379.8368,-243.4032 386.4664,-249.1484 383.6684,-244.5516 387.5,-245.7 387.5,-245.7 387.5,-245.7 383.6684,-244.5516 388.5336,-242.2516 379.8368,-243.4032 379.8368,-243.4032"/>
<ellipse fill="none" stroke="#000000" cx="376.7715" cy="-242.4845" rx="3.2" ry="3.2"/>
</g>
</g>
</svg>
