<?xml version="1.0" encoding="UTF-8" standalone="no"?>
<!DOCTYPE svg PUBLIC "-//W3C//DTD SVG 1.1//EN"
 "http://www.w3.org/Graphics/SVG/1.1/DTD/svg11.dtd">
<!-- Generated by graphviz version 2.40.1 (20161225.0304)
 -->
<!-- Title: oneDegreeRelationshipsDiagram Pages: 1 -->
<svg width="710pt" height="293pt"
 viewBox="0.00 0.00 710.00 292.70" xmlns="http://www.w3.org/2000/svg" xmlns:xlink="http://www.w3.org/1999/xlink">
<g id="graph0" class="graph" transform="scale(1 1) rotate(0) translate(4 288.7)">
<title>oneDegreeRelationshipsDiagram</title>
<polygon fill="#ffffff" stroke="transparent" points="-4,4 -4,-288.7 706,-288.7 706,4 -4,4"/>
<text text-anchor="middle" x="72.4936" y="-7.3" font-family="Helvetica,sans-Serif" font-size="11.00" fill="#000000">Generated by SchemaSpy</text>
<!-- ProviderAssignments -->
<g id="node1" class="node">
<title>ProviderAssignments</title>
<g id="a_node1"><a xlink:href="../../tables/ProviderAssignments.html" xlink:title="ProviderAssignments" target="_top">
<polygon fill="#ffffff" stroke="transparent" points="387,-43.7 387,-280.7 694,-280.7 694,-43.7 387,-43.7"/>
<polygon fill="#f5f5f5" stroke="transparent" points="387.5,-257.2 387.5,-280.2 694.5,-280.2 694.5,-257.2 387.5,-257.2"/>
<polygon fill="none" stroke="#000000" points="387.5,-257.2 387.5,-280.2 694.5,-280.2 694.5,-257.2 387.5,-257.2"/>
<text text-anchor="start" x="392.5" y="-265.8" font-family="Helvetica,sans-Serif" font-weight="bold" font-size="11.00" fill="#000000">ProviderAssignments</text>
<text text-anchor="start" x="659.5437" y="-265.3" font-family="Helvetica,sans-Serif" font-size="11.00" fill="#000000">[table]</text>
<polygon fill="none" stroke="#000000" points="387.5,-235.2 387.5,-257.2 694.5,-257.2 694.5,-235.2 387.5,-235.2"/>
<image xlink:href="../../images/primaryKeys.png" width="11px" height="12px" preserveAspectRatio="xMinYMin meet" x="392.5" y="-252.2"/>
<text text-anchor="start" x="407.5" y="-242.3" font-family="Helvetica,sans-Serif" font-size="11.00" fill="#000000">Id</text>
<polygon fill="#ffffff" stroke="transparent" points="387.5,-213.2 387.5,-235.2 694.5,-235.2 694.5,-213.2 387.5,-213.2"/>
<polygon fill="none" stroke="#000000" points="387.5,-213.2 387.5,-235.2 694.5,-235.2 694.5,-213.2 387.5,-213.2"/>
<image xlink:href="../../images/foreignKeys.png" width="11px" height="12px" preserveAspectRatio="xMinYMin meet" x="392.5" y="-230.2"/>
<text text-anchor="start" x="407.5" y="-220.3" font-family="Helvetica,sans-Serif" font-size="11.00" fill="#000000">BatchId</text>
<polygon fill="#ffffff" stroke="transparent" points="387.5,-191.2 387.5,-213.2 694.5,-213.2 694.5,-191.2 387.5,-191.2"/>
<polygon fill="none" stroke="#000000" points="387.5,-191.2 387.5,-213.2 694.5,-213.2 694.5,-191.2 387.5,-191.2"/>
<image xlink:href="../../images/foreignKeys.png" width="11px" height="12px" preserveAspectRatio="xMinYMin meet" x="392.5" y="-208.2"/>
<text text-anchor="start" x="407.5" y="-198.3" font-family="Helvetica,sans-Serif" font-size="11.00" fill="#000000">ResolvedPhysicianId</text>
<polygon fill="#ffffff" stroke="transparent" points="387.5,-169.2 387.5,-191.2 694.5,-191.2 694.5,-169.2 387.5,-169.2"/>
<polygon fill="none" stroke="#000000" points="387.5,-169.2 387.5,-191.2 694.5,-191.2 694.5,-169.2 387.5,-169.2"/>
<image xlink:href="../../images/foreignKeys.png" width="11px" height="12px" preserveAspectRatio="xMinYMin meet" x="392.5" y="-186.2"/>
<text text-anchor="start" x="407.5" y="-176.3" font-family="Helvetica,sans-Serif" font-size="11.00" fill="#000000">ResolvedHospitalizationId</text>
<polygon fill="#ffffff" stroke="transparent" points="387.5,-147.2 387.5,-169.2 694.5,-169.2 694.5,-147.2 387.5,-147.2"/>
<polygon fill="none" stroke="#000000" points="387.5,-147.2 387.5,-169.2 694.5,-169.2 694.5,-147.2 387.5,-147.2"/>
<image xlink:href="../../images/foreignKeys.png" width="11px" height="12px" preserveAspectRatio="xMinYMin meet" x="392.5" y="-164.2"/>
<text text-anchor="start" x="407.5" y="-154.3" font-family="Helvetica,sans-Serif" font-size="11.00" fill="#000000">ResolvedPatientId</text>
<polygon fill="#ffffff" stroke="transparent" points="387.5,-125.2 387.5,-147.2 694.5,-147.2 694.5,-125.2 387.5,-125.2"/>
<polygon fill="none" stroke="#000000" points="387.5,-125.2 387.5,-147.2 694.5,-147.2 694.5,-125.2 387.5,-125.2"/>
<image xlink:href="../../images/foreignKeys.png" width="11px" height="12px" preserveAspectRatio="xMinYMin meet" x="392.5" y="-142.2"/>
<text text-anchor="start" x="407.5" y="-132.3" font-family="Helvetica,sans-Serif" font-size="11.00" fill="#000000">ResolvedNursePractitionerId</text>
<polygon fill="#ffffff" stroke="transparent" points="387.5,-103.2 387.5,-125.2 694.5,-125.2 694.5,-103.2 387.5,-103.2"/>
<polygon fill="none" stroke="#000000" points="387.5,-103.2 387.5,-125.2 694.5,-125.2 694.5,-103.2 387.5,-103.2"/>
<image xlink:href="../../images/foreignKeys.png" width="11px" height="12px" preserveAspectRatio="xMinYMin meet" x="392.5" y="-120.2"/>
<text text-anchor="start" x="407.5" y="-110.3" font-family="Helvetica,sans-Serif" font-size="11.00" fill="#000000">ResolvedVisitId</text>
<polygon fill="#ffffff" stroke="transparent" points="387.5,-81.2 387.5,-103.2 694.5,-103.2 694.5,-81.2 387.5,-81.2"/>
<polygon fill="none" stroke="#000000" points="387.5,-81.2 387.5,-103.2 694.5,-103.2 694.5,-81.2 387.5,-81.2"/>
<image xlink:href="../../images/foreignKeys.png" width="11px" height="12px" preserveAspectRatio="xMinYMin meet" x="392.5" y="-98.2"/>
<text text-anchor="start" x="407.5" y="-88.3" font-family="Helvetica,sans-Serif" font-size="11.00" fill="#000000">ResolvedHospitalizationStatusId</text>
<polygon fill="none" stroke="#000000" points="387.5,-62.2 387.5,-81.2 694.5,-81.2 694.5,-62.2 387.5,-62.2"/>
<text text-anchor="start" x="390.5" y="-68.3" font-family="Helvetica,sans-Serif" font-size="11.00" fill="#000000">...</text>
<polygon fill="#ffffff" stroke="transparent" points="387.5,-43.2 387.5,-62.2 694.5,-62.2 694.5,-43.2 387.5,-43.2"/>
<polygon fill="none" stroke="#000000" points="387.5,-43.2 387.5,-62.2 694.5,-62.2 694.5,-43.2 387.5,-43.2"/>
<polygon fill="#ffffff" stroke="transparent" points="388.5,-44.2 388.5,-61.2 496.5,-61.2 496.5,-44.2 388.5,-44.2"/>
<text text-anchor="start" x="390.5" y="-49.3" font-family="Helvetica,sans-Serif" font-size="11.00" fill="#000000">&lt; 7</text>
<polygon fill="#ffffff" stroke="transparent" points="496.5,-44.2 496.5,-61.2 595.5,-61.2 595.5,-44.2 496.5,-44.2"/>
<text text-anchor="start" x="542.9431" y="-49.3" font-family="Helvetica,sans-Serif" font-size="11.00" fill="#000000"> &#160;</text>
<polygon fill="#ffffff" stroke="transparent" points="595.5,-44.2 595.5,-61.2 693.5,-61.2 693.5,-44.2 595.5,-44.2"/>
<text text-anchor="start" x="685.3862" y="-49.3" font-family="Helvetica,sans-Serif" font-size="11.00" fill="#000000"> &#160;</text>
<polygon fill="#000000" stroke="#000000" points="496.5,-44.2 496.5,-61.2 496.5,-61.2 496.5,-44.2 496.5,-44.2"/>
<polygon fill="#000000" stroke="#000000" points="595.5,-44.2 595.5,-61.2 595.5,-61.2 595.5,-44.2 595.5,-44.2"/>
</a>
</g>
</g>
<!-- ProviderAssignmentBatches -->
<g id="node2" class="node">
<title>ProviderAssignmentBatches</title>
<g id="a_node2"><a xlink:href="../../tables/ProviderAssignmentBatches.html" xlink:title="ProviderAssignmentBatches" target="_top">
<polygon fill="#ffffff" stroke="transparent" points="8,-38.2 8,-260.2 338,-260.2 338,-38.2 8,-38.2"/>
<polygon fill="#f5f5f5" stroke="transparent" points="10,-235.2 10,-258.2 336,-258.2 336,-235.2 10,-235.2"/>
<polygon fill="none" stroke="#000000" points="10,-235.2 10,-258.2 336,-258.2 336,-235.2 10,-235.2"/>
<text text-anchor="start" x="15" y="-243.8" font-family="Helvetica,sans-Serif" font-weight="bold" font-size="11.00" fill="#000000">ProviderAssignmentBatches</text>
<text text-anchor="start" x="301.0437" y="-243.3" font-family="Helvetica,sans-Serif" font-size="11.00" fill="#000000">[table]</text>
<polygon fill="none" stroke="#000000" points="10,-213.2 10,-235.2 238,-235.2 238,-213.2 10,-213.2"/>
<image xlink:href="../../images/primaryKeys.png" width="11px" height="12px" preserveAspectRatio="xMinYMin meet" x="15" y="-230.2"/>
<text text-anchor="start" x="30" y="-220.3" font-family="Helvetica,sans-Serif" font-size="11.00" fill="#000000">Id</text>
<polygon fill="none" stroke="#000000" points="238,-213.2 238,-235.2 336,-235.2 336,-213.2 238,-213.2"/>
<text text-anchor="start" x="240.5415" y="-220.9" font-family="Helvetica,sans-Serif" font-size="11.00" fill="#000000">uniqueidentifier[16]</text>
<polygon fill="#ffffff" stroke="transparent" points="10,-191.2 10,-213.2 238,-213.2 238,-191.2 10,-191.2"/>
<polygon fill="none" stroke="#000000" points="10,-191.2 10,-213.2 238,-213.2 238,-191.2 10,-191.2"/>
<text text-anchor="start" x="30" y="-198.3" font-family="Helvetica,sans-Serif" font-size="11.00" fill="#000000">Date</text>
<polygon fill="none" stroke="#000000" points="238,-191.2 238,-213.2 336,-213.2 336,-191.2 238,-191.2"/>
<text text-anchor="start" x="241" y="-198.9" font-family="Helvetica,sans-Serif" font-size="11.00" fill="#000000">date[6]</text>
<polygon fill="#ffffff" stroke="transparent" points="10,-169.2 10,-191.2 238,-191.2 238,-169.2 10,-169.2"/>
<polygon fill="none" stroke="#000000" points="10,-169.2 10,-191.2 238,-191.2 238,-169.2 10,-169.2"/>
<text text-anchor="start" x="30" y="-176.3" font-family="Helvetica,sans-Serif" font-size="11.00" fill="#000000">FacilityId</text>
<polygon fill="none" stroke="#000000" points="238,-169.2 238,-191.2 336,-191.2 336,-169.2 238,-169.2"/>
<text text-anchor="start" x="241" y="-176.9" font-family="Helvetica,sans-Serif" font-size="11.00" fill="#000000">int[4]</text>
<polygon fill="#ffffff" stroke="transparent" points="10,-147.2 10,-169.2 238,-169.2 238,-147.2 10,-147.2"/>
<polygon fill="none" stroke="#000000" points="10,-147.2 10,-169.2 238,-169.2 238,-147.2 10,-147.2"/>
<text text-anchor="start" x="30" y="-154.3" font-family="Helvetica,sans-Serif" font-size="11.00" fill="#000000">Status</text>
<polygon fill="none" stroke="#000000" points="238,-147.2 238,-169.2 336,-169.2 336,-147.2 238,-147.2"/>
<text text-anchor="start" x="241" y="-154.9" font-family="Helvetica,sans-Serif" font-size="11.00" fill="#000000">int[4]</text>
<polygon fill="none" stroke="#000000" points="10,-125.2 10,-147.2 238,-147.2 238,-125.2 10,-125.2"/>
<text text-anchor="start" x="30" y="-132.3" font-family="Helvetica,sans-Serif" font-size="11.00" fill="#000000">CreatedAtUtc</text>
<polygon fill="none" stroke="#000000" points="238,-125.2 238,-147.2 336,-147.2 336,-125.2 238,-125.2"/>
<text text-anchor="start" x="241" y="-132.9" font-family="Helvetica,sans-Serif" font-size="11.00" fill="#000000">datetime2[16,7]</text>
<polygon fill="none" stroke="#000000" points="10,-103.2 10,-125.2 238,-125.2 238,-103.2 10,-103.2"/>
<text text-anchor="start" x="30" y="-110.3" font-family="Helvetica,sans-Serif" font-size="11.00" fill="#000000">UpdatedAtUtc</text>
<polygon fill="none" stroke="#000000" points="238,-103.2 238,-125.2 336,-125.2 336,-103.2 238,-103.2"/>
<text text-anchor="start" x="241" y="-110.9" font-family="Helvetica,sans-Serif" font-size="11.00" fill="#000000">datetime2[16,7]</text>
<polygon fill="none" stroke="#000000" points="10,-81.2 10,-103.2 238,-103.2 238,-81.2 10,-81.2"/>
<text text-anchor="start" x="30" y="-88.3" font-family="Helvetica,sans-Serif" font-size="11.00" fill="#000000">RowVersion</text>
<polygon fill="none" stroke="#000000" points="238,-81.2 238,-103.2 336,-103.2 336,-81.2 238,-81.2"/>
<text text-anchor="start" x="241" y="-88.9" font-family="Helvetica,sans-Serif" font-size="11.00" fill="#000000">timestamp[8]</text>
<polygon fill="#ffffff" stroke="transparent" points="10,-59.2 10,-81.2 238,-81.2 238,-59.2 10,-59.2"/>
<polygon fill="none" stroke="#000000" points="10,-59.2 10,-81.2 238,-81.2 238,-59.2 10,-59.2"/>
<text text-anchor="start" x="30" y="-66.3" font-family="Helvetica,sans-Serif" font-size="11.00" fill="#000000">CreatedByUserId</text>
<polygon fill="none" stroke="#000000" points="238,-59.2 238,-81.2 336,-81.2 336,-59.2 238,-59.2"/>
<text text-anchor="start" x="241" y="-66.9" font-family="Helvetica,sans-Serif" font-size="11.00" fill="#000000">int[4]</text>
<polygon fill="#ffffff" stroke="transparent" points="10,-40.2 10,-59.2 336,-59.2 336,-40.2 10,-40.2"/>
<polygon fill="none" stroke="#000000" points="10,-40.2 10,-59.2 336,-59.2 336,-40.2 10,-40.2"/>
<polygon fill="#ffffff" stroke="transparent" points="11,-41.2 11,-58.2 122,-58.2 122,-41.2 11,-41.2"/>
<text text-anchor="start" x="13" y="-46.3" font-family="Helvetica,sans-Serif" font-size="11.00" fill="#000000">&lt; 0</text>
<polygon fill="#ffffff" stroke="transparent" points="122,-41.2 122,-58.2 224,-58.2 224,-41.2 122,-41.2"/>
<text text-anchor="start" x="169.9431" y="-46.3" font-family="Helvetica,sans-Serif" font-size="11.00" fill="#000000"> &#160;</text>
<polygon fill="#ffffff" stroke="transparent" points="224,-41.2 224,-58.2 335,-58.2 335,-41.2 224,-41.2"/>
<text text-anchor="start" x="317.4053" y="-46.3" font-family="Helvetica,sans-Serif" font-size="11.00" fill="#000000">1 &gt;</text>
<polygon fill="#000000" stroke="#000000" points="122,-41.2 122,-58.2 122,-58.2 122,-41.2 122,-41.2"/>
<polygon fill="#000000" stroke="#000000" points="224,-41.2 224,-58.2 224,-58.2 224,-41.2 224,-41.2"/>
<polygon fill="none" stroke="#000000" stroke-width="2" points="9,-39.2 9,-259.2 337,-259.2 337,-39.2 9,-39.2"/>
</a>
</g>
</g>
<!-- ProviderAssignments&#45;&gt;ProviderAssignmentBatches -->
<g id="edge1" class="edge">
<title>ProviderAssignments:w&#45;&gt;ProviderAssignmentBatches:e</title>
<path fill="none" stroke="#000000" d="M373.0156,-224.2C360.6771,-224.2 353.1667,-224.2 336,-224.2"/>
<polygon fill="#000000" stroke="#000000" points="379.5,-224.2001 387.5,-227.8 383.5,-224.2 387.5,-224.2 387.5,-224.2 387.5,-224.2 383.5,-224.2 387.5,-220.6 379.5,-224.2001 379.5,-224.2001"/>
<ellipse fill="none" stroke="#000000" cx="376.3" cy="-224.2001" rx="3.2" ry="3.2"/>
</g>
</g>
</svg>
