<?xml version="1.0" encoding="UTF-8" standalone="no"?>
<!DOCTYPE svg PUBLIC "-//W3C//DTD SVG 1.1//EN"
 "http://www.w3.org/Graphics/SVG/1.1/DTD/svg11.dtd">
<!-- Generated by graphviz version 2.40.1 (20161225.0304)
 -->
<!-- Title: oneDegreeRelationshipsDiagram Pages: 1 -->
<svg width="1052pt" height="293pt"
 viewBox="0.00 0.00 1052.00 292.70" xmlns="http://www.w3.org/2000/svg" xmlns:xlink="http://www.w3.org/1999/xlink">
<g id="graph0" class="graph" transform="scale(1 1) rotate(0) translate(4 288.7)">
<title>oneDegreeRelationshipsDiagram</title>
<polygon fill="#ffffff" stroke="transparent" points="-4,4 -4,-288.7 1048,-288.7 1048,4 -4,4"/>
<text text-anchor="middle" x="72.4936" y="-7.3" font-family="Helvetica,sans-Serif" font-size="11.00" fill="#000000">Generated by SchemaSpy</text>
<!-- ProviderAssignmentBatches -->
<g id="node1" class="node">
<title>ProviderAssignmentBatches</title>
<g id="a_node1"><a xlink:href="../../tables/ProviderAssignmentBatches.html" xlink:title="ProviderAssignmentBatches" target="_top">
<polygon fill="#ffffff" stroke="transparent" points="350,-38.2 350,-260.2 680,-260.2 680,-38.2 350,-38.2"/>
<polygon fill="#f5f5f5" stroke="transparent" points="352,-235.2 352,-258.2 678,-258.2 678,-235.2 352,-235.2"/>
<polygon fill="none" stroke="#000000" points="352,-235.2 352,-258.2 678,-258.2 678,-235.2 352,-235.2"/>
<text text-anchor="start" x="357" y="-243.8" font-family="Helvetica,sans-Serif" font-weight="bold" font-size="11.00" fill="#000000">ProviderAssignmentBatches</text>
<text text-anchor="start" x="643.0437" y="-243.3" font-family="Helvetica,sans-Serif" font-size="11.00" fill="#000000">[table]</text>
<polygon fill="none" stroke="#000000" points="352,-213.2 352,-235.2 580,-235.2 580,-213.2 352,-213.2"/>
<image xlink:href="../../images/primaryKeys.png" width="11px" height="12px" preserveAspectRatio="xMinYMin meet" x="357" y="-230.2"/>
<text text-anchor="start" x="372" y="-220.3" font-family="Helvetica,sans-Serif" font-size="11.00" fill="#000000">Id</text>
<polygon fill="none" stroke="#000000" points="580,-213.2 580,-235.2 678,-235.2 678,-213.2 580,-213.2"/>
<text text-anchor="start" x="582.5415" y="-220.9" font-family="Helvetica,sans-Serif" font-size="11.00" fill="#000000">uniqueidentifier[16]</text>
<polygon fill="#ffffff" stroke="transparent" points="352,-191.2 352,-213.2 580,-213.2 580,-191.2 352,-191.2"/>
<polygon fill="none" stroke="#000000" points="352,-191.2 352,-213.2 580,-213.2 580,-191.2 352,-191.2"/>
<text text-anchor="start" x="372" y="-198.3" font-family="Helvetica,sans-Serif" font-size="11.00" fill="#000000">Date</text>
<polygon fill="none" stroke="#000000" points="580,-191.2 580,-213.2 678,-213.2 678,-191.2 580,-191.2"/>
<text text-anchor="start" x="583" y="-198.9" font-family="Helvetica,sans-Serif" font-size="11.00" fill="#000000">date[6]</text>
<polygon fill="#ffffff" stroke="transparent" points="352,-169.2 352,-191.2 580,-191.2 580,-169.2 352,-169.2"/>
<polygon fill="none" stroke="#000000" points="352,-169.2 352,-191.2 580,-191.2 580,-169.2 352,-169.2"/>
<text text-anchor="start" x="372" y="-176.3" font-family="Helvetica,sans-Serif" font-size="11.00" fill="#000000">FacilityId</text>
<polygon fill="none" stroke="#000000" points="580,-169.2 580,-191.2 678,-191.2 678,-169.2 580,-169.2"/>
<text text-anchor="start" x="583" y="-176.9" font-family="Helvetica,sans-Serif" font-size="11.00" fill="#000000">int[4]</text>
<polygon fill="#ffffff" stroke="transparent" points="352,-147.2 352,-169.2 580,-169.2 580,-147.2 352,-147.2"/>
<polygon fill="none" stroke="#000000" points="352,-147.2 352,-169.2 580,-169.2 580,-147.2 352,-147.2"/>
<image xlink:href="../../images/foreignKeys.png" width="11px" height="12px" preserveAspectRatio="xMinYMin meet" x="357" y="-164.2"/>
<text text-anchor="start" x="372" y="-154.3" font-family="Helvetica,sans-Serif" font-size="11.00" fill="#000000">StatusId</text>
<polygon fill="none" stroke="#000000" points="580,-147.2 580,-169.2 678,-169.2 678,-147.2 580,-147.2"/>
<text text-anchor="start" x="583" y="-154.9" font-family="Helvetica,sans-Serif" font-size="11.00" fill="#000000">int[4]</text>
<polygon fill="none" stroke="#000000" points="352,-125.2 352,-147.2 580,-147.2 580,-125.2 352,-125.2"/>
<text text-anchor="start" x="372" y="-132.3" font-family="Helvetica,sans-Serif" font-size="11.00" fill="#000000">CreatedAtUtc</text>
<polygon fill="none" stroke="#000000" points="580,-125.2 580,-147.2 678,-147.2 678,-125.2 580,-125.2"/>
<text text-anchor="start" x="583" y="-132.9" font-family="Helvetica,sans-Serif" font-size="11.00" fill="#000000">datetime2[16,7]</text>
<polygon fill="none" stroke="#000000" points="352,-103.2 352,-125.2 580,-125.2 580,-103.2 352,-103.2"/>
<text text-anchor="start" x="372" y="-110.3" font-family="Helvetica,sans-Serif" font-size="11.00" fill="#000000">UpdatedAtUtc</text>
<polygon fill="none" stroke="#000000" points="580,-103.2 580,-125.2 678,-125.2 678,-103.2 580,-103.2"/>
<text text-anchor="start" x="583" y="-110.9" font-family="Helvetica,sans-Serif" font-size="11.00" fill="#000000">datetime2[16,7]</text>
<polygon fill="none" stroke="#000000" points="352,-81.2 352,-103.2 580,-103.2 580,-81.2 352,-81.2"/>
<text text-anchor="start" x="372" y="-88.3" font-family="Helvetica,sans-Serif" font-size="11.00" fill="#000000">RowVersion</text>
<polygon fill="none" stroke="#000000" points="580,-81.2 580,-103.2 678,-103.2 678,-81.2 580,-81.2"/>
<text text-anchor="start" x="583" y="-88.9" font-family="Helvetica,sans-Serif" font-size="11.00" fill="#000000">timestamp[8]</text>
<polygon fill="#ffffff" stroke="transparent" points="352,-59.2 352,-81.2 580,-81.2 580,-59.2 352,-59.2"/>
<polygon fill="none" stroke="#000000" points="352,-59.2 352,-81.2 580,-81.2 580,-59.2 352,-59.2"/>
<text text-anchor="start" x="372" y="-66.3" font-family="Helvetica,sans-Serif" font-size="11.00" fill="#000000">CreatedByUserId</text>
<polygon fill="none" stroke="#000000" points="580,-59.2 580,-81.2 678,-81.2 678,-59.2 580,-59.2"/>
<text text-anchor="start" x="583" y="-66.9" font-family="Helvetica,sans-Serif" font-size="11.00" fill="#000000">int[4]</text>
<polygon fill="#ffffff" stroke="transparent" points="352,-40.2 352,-59.2 678,-59.2 678,-40.2 352,-40.2"/>
<polygon fill="none" stroke="#000000" points="352,-40.2 352,-59.2 678,-59.2 678,-40.2 352,-40.2"/>
<polygon fill="#ffffff" stroke="transparent" points="353,-41.2 353,-58.2 464,-58.2 464,-41.2 353,-41.2"/>
<text text-anchor="start" x="355" y="-46.3" font-family="Helvetica,sans-Serif" font-size="11.00" fill="#000000">&lt; 1</text>
<polygon fill="#ffffff" stroke="transparent" points="464,-41.2 464,-58.2 566,-58.2 566,-41.2 464,-41.2"/>
<text text-anchor="start" x="511.9431" y="-46.3" font-family="Helvetica,sans-Serif" font-size="11.00" fill="#000000"> &#160;</text>
<polygon fill="#ffffff" stroke="transparent" points="566,-41.2 566,-58.2 677,-58.2 677,-41.2 566,-41.2"/>
<text text-anchor="start" x="659.4053" y="-46.3" font-family="Helvetica,sans-Serif" font-size="11.00" fill="#000000">1 &gt;</text>
<polygon fill="#000000" stroke="#000000" points="464,-41.2 464,-58.2 464,-58.2 464,-41.2 464,-41.2"/>
<polygon fill="#000000" stroke="#000000" points="566,-41.2 566,-58.2 566,-58.2 566,-41.2 566,-41.2"/>
<polygon fill="none" stroke="#000000" stroke-width="2" points="351,-39.2 351,-259.2 679,-259.2 679,-39.2 351,-39.2"/>
</a>
</g>
</g>
<!-- ProviderAssignmentBatchStatuses -->
<g id="node2" class="node">
<title>ProviderAssignmentBatchStatuses</title>
<g id="a_node2"><a xlink:href="../../tables/ProviderAssignmentBatchStatuses.html" xlink:title="ProviderAssignmentBatchStatuses" target="_top">
<polygon fill="#ffffff" stroke="transparent" points="8,-87.7 8,-192.7 301,-192.7 301,-87.7 8,-87.7"/>
<polygon fill="#f5f5f5" stroke="transparent" points="8.5,-169.2 8.5,-192.2 301.5,-192.2 301.5,-169.2 8.5,-169.2"/>
<polygon fill="none" stroke="#000000" points="8.5,-169.2 8.5,-192.2 301.5,-192.2 301.5,-169.2 8.5,-169.2"/>
<text text-anchor="start" x="13.5" y="-177.8" font-family="Helvetica,sans-Serif" font-weight="bold" font-size="11.00" fill="#000000">ProviderAssignmentBatchStatuses</text>
<text text-anchor="start" x="267.0219" y="-177.3" font-family="Helvetica,sans-Serif" font-size="11.00" fill="#000000">[table]</text>
<polygon fill="none" stroke="#000000" points="8.5,-147.2 8.5,-169.2 301.5,-169.2 301.5,-147.2 8.5,-147.2"/>
<image xlink:href="../../images/primaryKeys.png" width="11px" height="12px" preserveAspectRatio="xMinYMin meet" x="13.5" y="-164.2"/>
<text text-anchor="start" x="37.5" y="-154.3" font-family="Helvetica,sans-Serif" font-size="11.00" fill="#000000">Id</text>
<polygon fill="#ffffff" stroke="transparent" points="8.5,-125.2 8.5,-147.2 301.5,-147.2 301.5,-125.2 8.5,-125.2"/>
<polygon fill="none" stroke="#000000" points="8.5,-125.2 8.5,-147.2 301.5,-147.2 301.5,-125.2 8.5,-125.2"/>
<text text-anchor="start" x="37.5" y="-132.3" font-family="Helvetica,sans-Serif" font-size="11.00" fill="#000000">Code</text>
<polygon fill="none" stroke="#000000" points="8.5,-106.2 8.5,-125.2 301.5,-125.2 301.5,-106.2 8.5,-106.2"/>
<text text-anchor="start" x="11.5" y="-112.3" font-family="Helvetica,sans-Serif" font-size="11.00" fill="#000000">...</text>
<polygon fill="#ffffff" stroke="transparent" points="8.5,-87.2 8.5,-106.2 301.5,-106.2 301.5,-87.2 8.5,-87.2"/>
<polygon fill="none" stroke="#000000" points="8.5,-87.2 8.5,-106.2 301.5,-106.2 301.5,-87.2 8.5,-87.2"/>
<polygon fill="#ffffff" stroke="transparent" points="9.5,-88.2 9.5,-105.2 103.5,-105.2 103.5,-88.2 9.5,-88.2"/>
<text text-anchor="start" x="11.5" y="-93.3" font-family="Helvetica,sans-Serif" font-size="11.00" fill="#000000"> &#160;</text>
<polygon fill="#ffffff" stroke="transparent" points="103.5,-88.2 103.5,-105.2 197.5,-105.2 197.5,-88.2 103.5,-88.2"/>
<text text-anchor="start" x="147.4431" y="-93.3" font-family="Helvetica,sans-Serif" font-size="11.00" fill="#000000"> &#160;</text>
<polygon fill="#ffffff" stroke="transparent" points="197.5,-88.2 197.5,-105.2 300.5,-105.2 300.5,-88.2 197.5,-88.2"/>
<text text-anchor="start" x="282.9053" y="-93.3" font-family="Helvetica,sans-Serif" font-size="11.00" fill="#000000">1 &gt;</text>
<polygon fill="#000000" stroke="#000000" points="103.5,-88.2 103.5,-105.2 103.5,-105.2 103.5,-88.2 103.5,-88.2"/>
<polygon fill="#000000" stroke="#000000" points="197.5,-88.2 197.5,-105.2 197.5,-105.2 197.5,-88.2 197.5,-88.2"/>
</a>
</g>
</g>
<!-- ProviderAssignmentBatches&#45;&gt;ProviderAssignmentBatchStatuses -->
<g id="edge1" class="edge">
<title>ProviderAssignmentBatches:w&#45;&gt;ProviderAssignmentBatchStatuses:e</title>
<path fill="none" stroke="#000000" d="M337.4203,-158.2C325.5435,-158.2 318.158,-158.2 301.5,-158.2"/>
<polygon fill="#000000" stroke="#000000" points="344,-158.2001 352,-161.8 348,-158.2 352,-158.2 352,-158.2 352,-158.2 348,-158.2 352,-154.6 344,-158.2001 344,-158.2001"/>
<ellipse fill="none" stroke="#000000" cx="340.8" cy="-158.2001" rx="3.2" ry="3.2"/>
</g>
<!-- ProviderAssignments -->
<g id="node3" class="node">
<title>ProviderAssignments</title>
<g id="a_node3"><a xlink:href="../../tables/ProviderAssignments.html" xlink:title="ProviderAssignments" target="_top">
<polygon fill="#ffffff" stroke="transparent" points="729,-43.7 729,-280.7 1036,-280.7 1036,-43.7 729,-43.7"/>
<polygon fill="#f5f5f5" stroke="transparent" points="729.5,-257.2 729.5,-280.2 1036.5,-280.2 1036.5,-257.2 729.5,-257.2"/>
<polygon fill="none" stroke="#000000" points="729.5,-257.2 729.5,-280.2 1036.5,-280.2 1036.5,-257.2 729.5,-257.2"/>
<text text-anchor="start" x="734.5" y="-265.8" font-family="Helvetica,sans-Serif" font-weight="bold" font-size="11.00" fill="#000000">ProviderAssignments</text>
<text text-anchor="start" x="1001.5437" y="-265.3" font-family="Helvetica,sans-Serif" font-size="11.00" fill="#000000">[table]</text>
<polygon fill="none" stroke="#000000" points="729.5,-235.2 729.5,-257.2 1036.5,-257.2 1036.5,-235.2 729.5,-235.2"/>
<image xlink:href="../../images/primaryKeys.png" width="11px" height="12px" preserveAspectRatio="xMinYMin meet" x="734.5" y="-252.2"/>
<text text-anchor="start" x="749.5" y="-242.3" font-family="Helvetica,sans-Serif" font-size="11.00" fill="#000000">Id</text>
<polygon fill="#ffffff" stroke="transparent" points="729.5,-213.2 729.5,-235.2 1036.5,-235.2 1036.5,-213.2 729.5,-213.2"/>
<polygon fill="none" stroke="#000000" points="729.5,-213.2 729.5,-235.2 1036.5,-235.2 1036.5,-213.2 729.5,-213.2"/>
<image xlink:href="../../images/foreignKeys.png" width="11px" height="12px" preserveAspectRatio="xMinYMin meet" x="734.5" y="-230.2"/>
<text text-anchor="start" x="749.5" y="-220.3" font-family="Helvetica,sans-Serif" font-size="11.00" fill="#000000">BatchId</text>
<polygon fill="#ffffff" stroke="transparent" points="729.5,-191.2 729.5,-213.2 1036.5,-213.2 1036.5,-191.2 729.5,-191.2"/>
<polygon fill="none" stroke="#000000" points="729.5,-191.2 729.5,-213.2 1036.5,-213.2 1036.5,-191.2 729.5,-191.2"/>
<image xlink:href="../../images/foreignKeys.png" width="11px" height="12px" preserveAspectRatio="xMinYMin meet" x="734.5" y="-208.2"/>
<text text-anchor="start" x="749.5" y="-198.3" font-family="Helvetica,sans-Serif" font-size="11.00" fill="#000000">ResolvedPhysicianId</text>
<polygon fill="#ffffff" stroke="transparent" points="729.5,-169.2 729.5,-191.2 1036.5,-191.2 1036.5,-169.2 729.5,-169.2"/>
<polygon fill="none" stroke="#000000" points="729.5,-169.2 729.5,-191.2 1036.5,-191.2 1036.5,-169.2 729.5,-169.2"/>
<image xlink:href="../../images/foreignKeys.png" width="11px" height="12px" preserveAspectRatio="xMinYMin meet" x="734.5" y="-186.2"/>
<text text-anchor="start" x="749.5" y="-176.3" font-family="Helvetica,sans-Serif" font-size="11.00" fill="#000000">ResolvedHospitalizationId</text>
<polygon fill="#ffffff" stroke="transparent" points="729.5,-147.2 729.5,-169.2 1036.5,-169.2 1036.5,-147.2 729.5,-147.2"/>
<polygon fill="none" stroke="#000000" points="729.5,-147.2 729.5,-169.2 1036.5,-169.2 1036.5,-147.2 729.5,-147.2"/>
<image xlink:href="../../images/foreignKeys.png" width="11px" height="12px" preserveAspectRatio="xMinYMin meet" x="734.5" y="-164.2"/>
<text text-anchor="start" x="749.5" y="-154.3" font-family="Helvetica,sans-Serif" font-size="11.00" fill="#000000">ResolvedPatientId</text>
<polygon fill="#ffffff" stroke="transparent" points="729.5,-125.2 729.5,-147.2 1036.5,-147.2 1036.5,-125.2 729.5,-125.2"/>
<polygon fill="none" stroke="#000000" points="729.5,-125.2 729.5,-147.2 1036.5,-147.2 1036.5,-125.2 729.5,-125.2"/>
<image xlink:href="../../images/foreignKeys.png" width="11px" height="12px" preserveAspectRatio="xMinYMin meet" x="734.5" y="-142.2"/>
<text text-anchor="start" x="749.5" y="-132.3" font-family="Helvetica,sans-Serif" font-size="11.00" fill="#000000">ResolvedNursePractitionerId</text>
<polygon fill="#ffffff" stroke="transparent" points="729.5,-103.2 729.5,-125.2 1036.5,-125.2 1036.5,-103.2 729.5,-103.2"/>
<polygon fill="none" stroke="#000000" points="729.5,-103.2 729.5,-125.2 1036.5,-125.2 1036.5,-103.2 729.5,-103.2"/>
<image xlink:href="../../images/foreignKeys.png" width="11px" height="12px" preserveAspectRatio="xMinYMin meet" x="734.5" y="-120.2"/>
<text text-anchor="start" x="749.5" y="-110.3" font-family="Helvetica,sans-Serif" font-size="11.00" fill="#000000">ResolvedVisitId</text>
<polygon fill="#ffffff" stroke="transparent" points="729.5,-81.2 729.5,-103.2 1036.5,-103.2 1036.5,-81.2 729.5,-81.2"/>
<polygon fill="none" stroke="#000000" points="729.5,-81.2 729.5,-103.2 1036.5,-103.2 1036.5,-81.2 729.5,-81.2"/>
<image xlink:href="../../images/foreignKeys.png" width="11px" height="12px" preserveAspectRatio="xMinYMin meet" x="734.5" y="-98.2"/>
<text text-anchor="start" x="749.5" y="-88.3" font-family="Helvetica,sans-Serif" font-size="11.00" fill="#000000">ResolvedHospitalizationStatusId</text>
<polygon fill="none" stroke="#000000" points="729.5,-62.2 729.5,-81.2 1036.5,-81.2 1036.5,-62.2 729.5,-62.2"/>
<text text-anchor="start" x="732.5" y="-68.3" font-family="Helvetica,sans-Serif" font-size="11.00" fill="#000000">...</text>
<polygon fill="#ffffff" stroke="transparent" points="729.5,-43.2 729.5,-62.2 1036.5,-62.2 1036.5,-43.2 729.5,-43.2"/>
<polygon fill="none" stroke="#000000" points="729.5,-43.2 729.5,-62.2 1036.5,-62.2 1036.5,-43.2 729.5,-43.2"/>
<polygon fill="#ffffff" stroke="transparent" points="730.5,-44.2 730.5,-61.2 838.5,-61.2 838.5,-44.2 730.5,-44.2"/>
<text text-anchor="start" x="732.5" y="-49.3" font-family="Helvetica,sans-Serif" font-size="11.00" fill="#000000">&lt; 7</text>
<polygon fill="#ffffff" stroke="transparent" points="838.5,-44.2 838.5,-61.2 937.5,-61.2 937.5,-44.2 838.5,-44.2"/>
<text text-anchor="start" x="884.9431" y="-49.3" font-family="Helvetica,sans-Serif" font-size="11.00" fill="#000000"> &#160;</text>
<polygon fill="#ffffff" stroke="transparent" points="937.5,-44.2 937.5,-61.2 1035.5,-61.2 1035.5,-44.2 937.5,-44.2"/>
<text text-anchor="start" x="1027.3862" y="-49.3" font-family="Helvetica,sans-Serif" font-size="11.00" fill="#000000"> &#160;</text>
<polygon fill="#000000" stroke="#000000" points="838.5,-44.2 838.5,-61.2 838.5,-61.2 838.5,-44.2 838.5,-44.2"/>
<polygon fill="#000000" stroke="#000000" points="937.5,-44.2 937.5,-61.2 937.5,-61.2 937.5,-44.2 937.5,-44.2"/>
</a>
</g>
</g>
<!-- ProviderAssignments&#45;&gt;ProviderAssignmentBatches -->
<g id="edge2" class="edge">
<title>ProviderAssignments:w&#45;&gt;ProviderAssignmentBatches:e</title>
<path fill="none" stroke="#000000" d="M715.0156,-224.2C702.6771,-224.2 695.1667,-224.2 678,-224.2"/>
<polygon fill="#000000" stroke="#000000" points="721.5,-224.2001 729.5,-227.8 725.5,-224.2 729.5,-224.2 729.5,-224.2 729.5,-224.2 725.5,-224.2 729.5,-220.6 721.5,-224.2001 721.5,-224.2001"/>
<ellipse fill="none" stroke="#000000" cx="718.3" cy="-224.2001" rx="3.2" ry="3.2"/>
</g>
</g>
</svg>
