<?xml version="1.0" encoding="UTF-8" standalone="no"?>
<!DOCTYPE svg PUBLIC "-//W3C//DTD SVG 1.1//EN"
 "http://www.w3.org/Graphics/SVG/1.1/DTD/svg11.dtd">
<!-- Generated by graphviz version 2.40.1 (20161225.0304)
 -->
<!-- Title: oneDegreeRelationshipsDiagram Pages: 1 -->
<svg width="710pt" height="287pt"
 viewBox="0.00 0.00 710.00 287.20" xmlns="http://www.w3.org/2000/svg" xmlns:xlink="http://www.w3.org/1999/xlink">
<g id="graph0" class="graph" transform="scale(1 1) rotate(0) translate(4 283.2)">
<title>oneDegreeRelationshipsDiagram</title>
<polygon fill="#ffffff" stroke="transparent" points="-4,4 -4,-283.2 706,-283.2 706,4 -4,4"/>
<text text-anchor="middle" x="72.4936" y="-7.3" font-family="Helvetica,sans-Serif" font-size="11.00" fill="#000000">Generated by SchemaSpy</text>
<!-- ProviderAssignments -->
<g id="node1" class="node">
<title>ProviderAssignments</title>
<g id="a_node1"><a xlink:href="../../tables/ProviderAssignments.html" xlink:title="ProviderAssignments" target="_top">
<polygon fill="#ffffff" stroke="transparent" points="387,-38.2 387,-275.2 694,-275.2 694,-38.2 387,-38.2"/>
<polygon fill="#f5f5f5" stroke="transparent" points="387.5,-251.7 387.5,-274.7 694.5,-274.7 694.5,-251.7 387.5,-251.7"/>
<polygon fill="none" stroke="#000000" points="387.5,-251.7 387.5,-274.7 694.5,-274.7 694.5,-251.7 387.5,-251.7"/>
<text text-anchor="start" x="392.5" y="-260.3" font-family="Helvetica,sans-Serif" font-weight="bold" font-size="11.00" fill="#000000">ProviderAssignments</text>
<text text-anchor="start" x="659.5437" y="-259.8" font-family="Helvetica,sans-Serif" font-size="11.00" fill="#000000">[table]</text>
<polygon fill="none" stroke="#000000" points="387.5,-229.7 387.5,-251.7 694.5,-251.7 694.5,-229.7 387.5,-229.7"/>
<image xlink:href="../../images/primaryKeys.png" width="11px" height="12px" preserveAspectRatio="xMinYMin meet" x="392.5" y="-246.7"/>
<text text-anchor="start" x="407.5" y="-236.8" font-family="Helvetica,sans-Serif" font-size="11.00" fill="#000000">Id</text>
<polygon fill="#ffffff" stroke="transparent" points="387.5,-207.7 387.5,-229.7 694.5,-229.7 694.5,-207.7 387.5,-207.7"/>
<polygon fill="none" stroke="#000000" points="387.5,-207.7 387.5,-229.7 694.5,-229.7 694.5,-207.7 387.5,-207.7"/>
<image xlink:href="../../images/foreignKeys.png" width="11px" height="12px" preserveAspectRatio="xMinYMin meet" x="392.5" y="-224.7"/>
<text text-anchor="start" x="407.5" y="-214.8" font-family="Helvetica,sans-Serif" font-size="11.00" fill="#000000">BatchId</text>
<polygon fill="#ffffff" stroke="transparent" points="387.5,-185.7 387.5,-207.7 694.5,-207.7 694.5,-185.7 387.5,-185.7"/>
<polygon fill="none" stroke="#000000" points="387.5,-185.7 387.5,-207.7 694.5,-207.7 694.5,-185.7 387.5,-185.7"/>
<image xlink:href="../../images/foreignKeys.png" width="11px" height="12px" preserveAspectRatio="xMinYMin meet" x="392.5" y="-202.7"/>
<text text-anchor="start" x="407.5" y="-192.8" font-family="Helvetica,sans-Serif" font-size="11.00" fill="#000000">ResolvedPhysicianId</text>
<polygon fill="#ffffff" stroke="transparent" points="387.5,-163.7 387.5,-185.7 694.5,-185.7 694.5,-163.7 387.5,-163.7"/>
<polygon fill="none" stroke="#000000" points="387.5,-163.7 387.5,-185.7 694.5,-185.7 694.5,-163.7 387.5,-163.7"/>
<image xlink:href="../../images/foreignKeys.png" width="11px" height="12px" preserveAspectRatio="xMinYMin meet" x="392.5" y="-180.7"/>
<text text-anchor="start" x="407.5" y="-170.8" font-family="Helvetica,sans-Serif" font-size="11.00" fill="#000000">ResolvedHospitalizationId</text>
<polygon fill="#ffffff" stroke="transparent" points="387.5,-141.7 387.5,-163.7 694.5,-163.7 694.5,-141.7 387.5,-141.7"/>
<polygon fill="none" stroke="#000000" points="387.5,-141.7 387.5,-163.7 694.5,-163.7 694.5,-141.7 387.5,-141.7"/>
<image xlink:href="../../images/foreignKeys.png" width="11px" height="12px" preserveAspectRatio="xMinYMin meet" x="392.5" y="-158.7"/>
<text text-anchor="start" x="407.5" y="-148.8" font-family="Helvetica,sans-Serif" font-size="11.00" fill="#000000">ResolvedPatientId</text>
<polygon fill="#ffffff" stroke="transparent" points="387.5,-119.7 387.5,-141.7 694.5,-141.7 694.5,-119.7 387.5,-119.7"/>
<polygon fill="none" stroke="#000000" points="387.5,-119.7 387.5,-141.7 694.5,-141.7 694.5,-119.7 387.5,-119.7"/>
<image xlink:href="../../images/foreignKeys.png" width="11px" height="12px" preserveAspectRatio="xMinYMin meet" x="392.5" y="-136.7"/>
<text text-anchor="start" x="407.5" y="-126.8" font-family="Helvetica,sans-Serif" font-size="11.00" fill="#000000">ResolvedNursePractitionerId</text>
<polygon fill="#ffffff" stroke="transparent" points="387.5,-97.7 387.5,-119.7 694.5,-119.7 694.5,-97.7 387.5,-97.7"/>
<polygon fill="none" stroke="#000000" points="387.5,-97.7 387.5,-119.7 694.5,-119.7 694.5,-97.7 387.5,-97.7"/>
<image xlink:href="../../images/foreignKeys.png" width="11px" height="12px" preserveAspectRatio="xMinYMin meet" x="392.5" y="-114.7"/>
<text text-anchor="start" x="407.5" y="-104.8" font-family="Helvetica,sans-Serif" font-size="11.00" fill="#000000">ResolvedVisitId</text>
<polygon fill="#ffffff" stroke="transparent" points="387.5,-75.7 387.5,-97.7 694.5,-97.7 694.5,-75.7 387.5,-75.7"/>
<polygon fill="none" stroke="#000000" points="387.5,-75.7 387.5,-97.7 694.5,-97.7 694.5,-75.7 387.5,-75.7"/>
<image xlink:href="../../images/foreignKeys.png" width="11px" height="12px" preserveAspectRatio="xMinYMin meet" x="392.5" y="-92.7"/>
<text text-anchor="start" x="407.5" y="-82.8" font-family="Helvetica,sans-Serif" font-size="11.00" fill="#000000">ResolvedHospitalizationStatusId</text>
<polygon fill="none" stroke="#000000" points="387.5,-56.7 387.5,-75.7 694.5,-75.7 694.5,-56.7 387.5,-56.7"/>
<text text-anchor="start" x="390.5" y="-62.8" font-family="Helvetica,sans-Serif" font-size="11.00" fill="#000000">...</text>
<polygon fill="#ffffff" stroke="transparent" points="387.5,-37.7 387.5,-56.7 694.5,-56.7 694.5,-37.7 387.5,-37.7"/>
<polygon fill="none" stroke="#000000" points="387.5,-37.7 387.5,-56.7 694.5,-56.7 694.5,-37.7 387.5,-37.7"/>
<polygon fill="#ffffff" stroke="transparent" points="388.5,-38.7 388.5,-55.7 496.5,-55.7 496.5,-38.7 388.5,-38.7"/>
<text text-anchor="start" x="390.5" y="-43.8" font-family="Helvetica,sans-Serif" font-size="11.00" fill="#000000">&lt; 7</text>
<polygon fill="#ffffff" stroke="transparent" points="496.5,-38.7 496.5,-55.7 595.5,-55.7 595.5,-38.7 496.5,-38.7"/>
<text text-anchor="start" x="542.9431" y="-43.8" font-family="Helvetica,sans-Serif" font-size="11.00" fill="#000000"> &#160;</text>
<polygon fill="#ffffff" stroke="transparent" points="595.5,-38.7 595.5,-55.7 693.5,-55.7 693.5,-38.7 595.5,-38.7"/>
<text text-anchor="start" x="685.3862" y="-43.8" font-family="Helvetica,sans-Serif" font-size="11.00" fill="#000000"> &#160;</text>
<polygon fill="#000000" stroke="#000000" points="496.5,-38.7 496.5,-55.7 496.5,-55.7 496.5,-38.7 496.5,-38.7"/>
<polygon fill="#000000" stroke="#000000" points="595.5,-38.7 595.5,-55.7 595.5,-55.7 595.5,-38.7 595.5,-38.7"/>
</a>
</g>
</g>
<!-- ProviderAssignmentBatches -->
<g id="node2" class="node">
<title>ProviderAssignmentBatches</title>
<g id="a_node2"><a xlink:href="../../tables/ProviderAssignmentBatches.html" xlink:title="ProviderAssignmentBatches" target="_top">
<polygon fill="#ffffff" stroke="transparent" points="8,-54.7 8,-254.7 338,-254.7 338,-54.7 8,-54.7"/>
<polygon fill="#f5f5f5" stroke="transparent" points="10,-229.7 10,-252.7 336,-252.7 336,-229.7 10,-229.7"/>
<polygon fill="none" stroke="#000000" points="10,-229.7 10,-252.7 336,-252.7 336,-229.7 10,-229.7"/>
<text text-anchor="start" x="15" y="-238.3" font-family="Helvetica,sans-Serif" font-weight="bold" font-size="11.00" fill="#000000">ProviderAssignmentBatches</text>
<text text-anchor="start" x="301.0437" y="-237.8" font-family="Helvetica,sans-Serif" font-size="11.00" fill="#000000">[table]</text>
<polygon fill="none" stroke="#000000" points="10,-207.7 10,-229.7 238,-229.7 238,-207.7 10,-207.7"/>
<image xlink:href="../../images/primaryKeys.png" width="11px" height="12px" preserveAspectRatio="xMinYMin meet" x="15" y="-224.7"/>
<text text-anchor="start" x="30" y="-214.8" font-family="Helvetica,sans-Serif" font-size="11.00" fill="#000000">Id</text>
<polygon fill="none" stroke="#000000" points="238,-207.7 238,-229.7 336,-229.7 336,-207.7 238,-207.7"/>
<text text-anchor="start" x="240.5415" y="-215.4" font-family="Helvetica,sans-Serif" font-size="11.00" fill="#000000">uniqueidentifier[16]</text>
<polygon fill="#ffffff" stroke="transparent" points="10,-185.7 10,-207.7 238,-207.7 238,-185.7 10,-185.7"/>
<polygon fill="none" stroke="#000000" points="10,-185.7 10,-207.7 238,-207.7 238,-185.7 10,-185.7"/>
<text text-anchor="start" x="30" y="-192.8" font-family="Helvetica,sans-Serif" font-size="11.00" fill="#000000">Date</text>
<polygon fill="none" stroke="#000000" points="238,-185.7 238,-207.7 336,-207.7 336,-185.7 238,-185.7"/>
<text text-anchor="start" x="241" y="-193.4" font-family="Helvetica,sans-Serif" font-size="11.00" fill="#000000">date[6]</text>
<polygon fill="#ffffff" stroke="transparent" points="10,-163.7 10,-185.7 238,-185.7 238,-163.7 10,-163.7"/>
<polygon fill="none" stroke="#000000" points="10,-163.7 10,-185.7 238,-185.7 238,-163.7 10,-163.7"/>
<text text-anchor="start" x="30" y="-170.8" font-family="Helvetica,sans-Serif" font-size="11.00" fill="#000000">FacilityId</text>
<polygon fill="none" stroke="#000000" points="238,-163.7 238,-185.7 336,-185.7 336,-163.7 238,-163.7"/>
<text text-anchor="start" x="241" y="-171.4" font-family="Helvetica,sans-Serif" font-size="11.00" fill="#000000">int[4]</text>
<polygon fill="#ffffff" stroke="transparent" points="10,-141.7 10,-163.7 238,-163.7 238,-141.7 10,-141.7"/>
<polygon fill="none" stroke="#000000" points="10,-141.7 10,-163.7 238,-163.7 238,-141.7 10,-141.7"/>
<text text-anchor="start" x="30" y="-148.8" font-family="Helvetica,sans-Serif" font-size="11.00" fill="#000000">Status</text>
<polygon fill="none" stroke="#000000" points="238,-141.7 238,-163.7 336,-163.7 336,-141.7 238,-141.7"/>
<text text-anchor="start" x="241" y="-149.4" font-family="Helvetica,sans-Serif" font-size="11.00" fill="#000000">int[4]</text>
<polygon fill="none" stroke="#000000" points="10,-119.7 10,-141.7 238,-141.7 238,-119.7 10,-119.7"/>
<text text-anchor="start" x="30" y="-126.8" font-family="Helvetica,sans-Serif" font-size="11.00" fill="#000000">CreatedAtUtc</text>
<polygon fill="none" stroke="#000000" points="238,-119.7 238,-141.7 336,-141.7 336,-119.7 238,-119.7"/>
<text text-anchor="start" x="241" y="-127.4" font-family="Helvetica,sans-Serif" font-size="11.00" fill="#000000">datetime2[16,7]</text>
<polygon fill="none" stroke="#000000" points="10,-97.7 10,-119.7 238,-119.7 238,-97.7 10,-97.7"/>
<text text-anchor="start" x="30" y="-104.8" font-family="Helvetica,sans-Serif" font-size="11.00" fill="#000000">UpdatedAtUtc</text>
<polygon fill="none" stroke="#000000" points="238,-97.7 238,-119.7 336,-119.7 336,-97.7 238,-97.7"/>
<text text-anchor="start" x="241" y="-105.4" font-family="Helvetica,sans-Serif" font-size="11.00" fill="#000000">datetime2[16,7]</text>
<polygon fill="none" stroke="#000000" points="10,-75.7 10,-97.7 238,-97.7 238,-75.7 10,-75.7"/>
<text text-anchor="start" x="30" y="-82.8" font-family="Helvetica,sans-Serif" font-size="11.00" fill="#000000">RowVersion</text>
<polygon fill="none" stroke="#000000" points="238,-75.7 238,-97.7 336,-97.7 336,-75.7 238,-75.7"/>
<text text-anchor="start" x="241" y="-83.4" font-family="Helvetica,sans-Serif" font-size="11.00" fill="#000000">timestamp[8]</text>
<polygon fill="#ffffff" stroke="transparent" points="10,-56.7 10,-75.7 336,-75.7 336,-56.7 10,-56.7"/>
<polygon fill="none" stroke="#000000" points="10,-56.7 10,-75.7 336,-75.7 336,-56.7 10,-56.7"/>
<polygon fill="#ffffff" stroke="transparent" points="11,-57.7 11,-74.7 122,-74.7 122,-57.7 11,-57.7"/>
<text text-anchor="start" x="13" y="-62.8" font-family="Helvetica,sans-Serif" font-size="11.00" fill="#000000">&lt; 0</text>
<polygon fill="#ffffff" stroke="transparent" points="122,-57.7 122,-74.7 224,-74.7 224,-57.7 122,-57.7"/>
<text text-anchor="start" x="169.9431" y="-62.8" font-family="Helvetica,sans-Serif" font-size="11.00" fill="#000000"> &#160;</text>
<polygon fill="#ffffff" stroke="transparent" points="224,-57.7 224,-74.7 335,-74.7 335,-57.7 224,-57.7"/>
<text text-anchor="start" x="317.4053" y="-62.8" font-family="Helvetica,sans-Serif" font-size="11.00" fill="#000000">1 &gt;</text>
<polygon fill="#000000" stroke="#000000" points="122,-57.7 122,-74.7 122,-74.7 122,-57.7 122,-57.7"/>
<polygon fill="#000000" stroke="#000000" points="224,-57.7 224,-74.7 224,-74.7 224,-57.7 224,-57.7"/>
<polygon fill="none" stroke="#000000" stroke-width="2" points="9,-55.7 9,-253.7 337,-253.7 337,-55.7 9,-55.7"/>
</a>
</g>
</g>
<!-- ProviderAssignments&#45;&gt;ProviderAssignmentBatches -->
<g id="edge1" class="edge">
<title>ProviderAssignments:w&#45;&gt;ProviderAssignmentBatches:e</title>
<path fill="none" stroke="#000000" d="M373.0156,-218.7C360.6771,-218.7 353.1667,-218.7 336,-218.7"/>
<polygon fill="#000000" stroke="#000000" points="379.5,-218.7001 387.5,-222.3 383.5,-218.7 387.5,-218.7 387.5,-218.7 387.5,-218.7 383.5,-218.7 387.5,-215.1 379.5,-218.7001 379.5,-218.7001"/>
<ellipse fill="none" stroke="#000000" cx="376.3" cy="-218.7001" rx="3.2" ry="3.2"/>
</g>
</g>
</svg>
