<?xml version="1.0" encoding="UTF-8" standalone="no"?>
<!DOCTYPE svg PUBLIC "-//W3C//DTD SVG 1.1//EN"
 "http://www.w3.org/Graphics/SVG/1.1/DTD/svg11.dtd">
<!-- Generated by graphviz version 2.40.1 (20161225.0304)
 -->
<!-- Title: oneDegreeRelationshipsDiagram Pages: 1 -->
<svg width="771pt" height="998pt"
 viewBox="0.00 0.00 771.00 998.20" xmlns="http://www.w3.org/2000/svg" xmlns:xlink="http://www.w3.org/1999/xlink">
<g id="graph0" class="graph" transform="scale(1 1) rotate(0) translate(4 994.2)">
<title>oneDegreeRelationshipsDiagram</title>
<polygon fill="#ffffff" stroke="transparent" points="-4,4 -4,-994.2 767,-994.2 767,4 -4,4"/>
<text text-anchor="middle" x="72.4936" y="-7.3" font-family="Helvetica,sans-Serif" font-size="11.00" fill="#000000">Generated by SchemaSpy</text>
<!-- ProviderAssignments -->
<g id="node1" class="node">
<title>ProviderAssignments</title>
<g id="a_node1"><a xlink:href="../../tables/ProviderAssignments.html" xlink:title="ProviderAssignments" target="_top">
<polygon fill="#ffffff" stroke="transparent" points="328,-38.2 328,-986.2 755,-986.2 755,-38.2 328,-38.2"/>
<polygon fill="#f5f5f5" stroke="transparent" points="330.5,-961.2 330.5,-984.2 753.5,-984.2 753.5,-961.2 330.5,-961.2"/>
<polygon fill="none" stroke="#000000" points="330.5,-961.2 330.5,-984.2 753.5,-984.2 753.5,-961.2 330.5,-961.2"/>
<text text-anchor="start" x="335.5" y="-969.8" font-family="Helvetica,sans-Serif" font-weight="bold" font-size="11.00" fill="#000000">ProviderAssignments</text>
<text text-anchor="start" x="718.5437" y="-969.3" font-family="Helvetica,sans-Serif" font-size="11.00" fill="#000000">[table]</text>
<polygon fill="none" stroke="#000000" points="330.5,-939.2 330.5,-961.2 637.5,-961.2 637.5,-939.2 330.5,-939.2"/>
<image xlink:href="../../images/primaryKeys.png" width="11px" height="12px" preserveAspectRatio="xMinYMin meet" x="335.5" y="-956.2"/>
<text text-anchor="start" x="350.5" y="-946.3" font-family="Helvetica,sans-Serif" font-size="11.00" fill="#000000">Id</text>
<polygon fill="none" stroke="#000000" points="637.5,-939.2 637.5,-961.2 753.5,-961.2 753.5,-939.2 637.5,-939.2"/>
<text text-anchor="start" x="640.5" y="-946.9" font-family="Helvetica,sans-Serif" font-size="11.00" fill="#000000">int identity[4]</text>
<polygon fill="none" stroke="#000000" points="330.5,-917.2 330.5,-939.2 637.5,-939.2 637.5,-917.2 330.5,-917.2"/>
<text text-anchor="start" x="350.5" y="-924.3" font-family="Helvetica,sans-Serif" font-size="11.00" fill="#000000">Age</text>
<polygon fill="none" stroke="#000000" points="637.5,-917.2 637.5,-939.2 753.5,-939.2 753.5,-917.2 637.5,-917.2"/>
<text text-anchor="start" x="640.5" y="-924.9" font-family="Helvetica,sans-Serif" font-size="11.00" fill="#000000">int[4]</text>
<polygon fill="none" stroke="#000000" points="330.5,-895.2 330.5,-917.2 637.5,-917.2 637.5,-895.2 330.5,-895.2"/>
<text text-anchor="start" x="350.5" y="-902.3" font-family="Helvetica,sans-Serif" font-size="11.00" fill="#000000">AttendingMD</text>
<polygon fill="none" stroke="#000000" points="637.5,-895.2 637.5,-917.2 753.5,-917.2 753.5,-895.2 637.5,-895.2"/>
<text text-anchor="start" x="640.5" y="-902.9" font-family="Helvetica,sans-Serif" font-size="11.00" fill="#000000">nvarchar[510]</text>
<polygon fill="none" stroke="#000000" points="330.5,-873.2 330.5,-895.2 637.5,-895.2 637.5,-873.2 330.5,-873.2"/>
<text text-anchor="start" x="350.5" y="-880.3" font-family="Helvetica,sans-Serif" font-size="11.00" fill="#000000">HospitalNumber</text>
<polygon fill="none" stroke="#000000" points="637.5,-873.2 637.5,-895.2 753.5,-895.2 753.5,-873.2 637.5,-873.2"/>
<text text-anchor="start" x="640.5" y="-880.9" font-family="Helvetica,sans-Serif" font-size="11.00" fill="#000000">nvarchar[100]</text>
<polygon fill="none" stroke="#000000" points="330.5,-851.2 330.5,-873.2 637.5,-873.2 637.5,-851.2 330.5,-851.2"/>
<text text-anchor="start" x="350.5" y="-858.3" font-family="Helvetica,sans-Serif" font-size="11.00" fill="#000000">Admit</text>
<polygon fill="none" stroke="#000000" points="637.5,-851.2 637.5,-873.2 753.5,-873.2 753.5,-851.2 637.5,-851.2"/>
<text text-anchor="start" x="640.5" y="-858.9" font-family="Helvetica,sans-Serif" font-size="11.00" fill="#000000">smalldatetime[16]</text>
<polygon fill="none" stroke="#000000" points="330.5,-829.2 330.5,-851.2 637.5,-851.2 637.5,-829.2 330.5,-829.2"/>
<text text-anchor="start" x="350.5" y="-836.3" font-family="Helvetica,sans-Serif" font-size="11.00" fill="#000000">Dob</text>
<polygon fill="none" stroke="#000000" points="637.5,-829.2 637.5,-851.2 753.5,-851.2 753.5,-829.2 637.5,-829.2"/>
<text text-anchor="start" x="640.5" y="-836.9" font-family="Helvetica,sans-Serif" font-size="11.00" fill="#000000">date[6]</text>
<polygon fill="none" stroke="#000000" points="330.5,-807.2 330.5,-829.2 637.5,-829.2 637.5,-807.2 330.5,-807.2"/>
<text text-anchor="start" x="350.5" y="-814.3" font-family="Helvetica,sans-Serif" font-size="11.00" fill="#000000">FacilityId</text>
<polygon fill="none" stroke="#000000" points="637.5,-807.2 637.5,-829.2 753.5,-829.2 753.5,-807.2 637.5,-807.2"/>
<text text-anchor="start" x="640.5" y="-814.9" font-family="Helvetica,sans-Serif" font-size="11.00" fill="#000000">int[4]</text>
<polygon fill="none" stroke="#000000" points="330.5,-785.2 330.5,-807.2 637.5,-807.2 637.5,-785.2 330.5,-785.2"/>
<text text-anchor="start" x="350.5" y="-792.3" font-family="Helvetica,sans-Serif" font-size="11.00" fill="#000000">Mrn</text>
<polygon fill="none" stroke="#000000" points="637.5,-785.2 637.5,-807.2 753.5,-807.2 753.5,-785.2 637.5,-785.2"/>
<text text-anchor="start" x="640.5" y="-792.9" font-family="Helvetica,sans-Serif" font-size="11.00" fill="#000000">nvarchar[100]</text>
<polygon fill="none" stroke="#000000" points="330.5,-763.2 330.5,-785.2 637.5,-785.2 637.5,-763.2 330.5,-763.2"/>
<text text-anchor="start" x="350.5" y="-770.3" font-family="Helvetica,sans-Serif" font-size="11.00" fill="#000000">Name</text>
<polygon fill="none" stroke="#000000" points="637.5,-763.2 637.5,-785.2 753.5,-785.2 753.5,-763.2 637.5,-763.2"/>
<text text-anchor="start" x="640.5" y="-770.9" font-family="Helvetica,sans-Serif" font-size="11.00" fill="#000000">nvarchar[510]</text>
<polygon fill="none" stroke="#000000" points="330.5,-741.2 330.5,-763.2 637.5,-763.2 637.5,-741.2 330.5,-741.2"/>
<text text-anchor="start" x="350.5" y="-748.3" font-family="Helvetica,sans-Serif" font-size="11.00" fill="#000000">Insurance</text>
<polygon fill="none" stroke="#000000" points="637.5,-741.2 637.5,-763.2 753.5,-763.2 753.5,-741.2 637.5,-741.2"/>
<text text-anchor="start" x="640.5" y="-748.9" font-family="Helvetica,sans-Serif" font-size="11.00" fill="#000000">nvarchar[510]</text>
<polygon fill="none" stroke="#000000" points="330.5,-719.2 330.5,-741.2 637.5,-741.2 637.5,-719.2 330.5,-719.2"/>
<text text-anchor="start" x="350.5" y="-726.3" font-family="Helvetica,sans-Serif" font-size="11.00" fill="#000000">NursePractitioner</text>
<polygon fill="none" stroke="#000000" points="637.5,-719.2 637.5,-741.2 753.5,-741.2 753.5,-719.2 637.5,-719.2"/>
<text text-anchor="start" x="640.5" y="-726.9" font-family="Helvetica,sans-Serif" font-size="11.00" fill="#000000">nvarchar[510]</text>
<polygon fill="none" stroke="#000000" points="330.5,-697.2 330.5,-719.2 637.5,-719.2 637.5,-697.2 330.5,-697.2"/>
<text text-anchor="start" x="350.5" y="-704.3" font-family="Helvetica,sans-Serif" font-size="11.00" fill="#000000">IsCleared</text>
<polygon fill="none" stroke="#000000" points="637.5,-697.2 637.5,-719.2 753.5,-719.2 753.5,-697.2 637.5,-697.2"/>
<text text-anchor="start" x="640.5" y="-704.9" font-family="Helvetica,sans-Serif" font-size="11.00" fill="#000000">nvarchar[100]</text>
<polygon fill="none" stroke="#000000" points="330.5,-675.2 330.5,-697.2 637.5,-697.2 637.5,-675.2 330.5,-675.2"/>
<text text-anchor="start" x="350.5" y="-682.3" font-family="Helvetica,sans-Serif" font-size="11.00" fill="#000000">Location</text>
<polygon fill="none" stroke="#000000" points="637.5,-675.2 637.5,-697.2 753.5,-697.2 753.5,-675.2 637.5,-675.2"/>
<text text-anchor="start" x="640.5" y="-682.9" font-family="Helvetica,sans-Serif" font-size="11.00" fill="#000000">nvarchar[510]</text>
<polygon fill="none" stroke="#000000" points="330.5,-653.2 330.5,-675.2 637.5,-675.2 637.5,-653.2 330.5,-653.2"/>
<text text-anchor="start" x="350.5" y="-660.3" font-family="Helvetica,sans-Serif" font-size="11.00" fill="#000000">ServiceDate</text>
<polygon fill="none" stroke="#000000" points="637.5,-653.2 637.5,-675.2 753.5,-675.2 753.5,-653.2 637.5,-653.2"/>
<text text-anchor="start" x="640.5" y="-660.9" font-family="Helvetica,sans-Serif" font-size="11.00" fill="#000000">date[6]</text>
<polygon fill="none" stroke="#000000" points="330.5,-631.2 330.5,-653.2 637.5,-653.2 637.5,-631.2 330.5,-631.2"/>
<text text-anchor="start" x="350.5" y="-638.3" font-family="Helvetica,sans-Serif" font-size="11.00" fill="#000000">H_P</text>
<polygon fill="none" stroke="#000000" points="637.5,-631.2 637.5,-653.2 753.5,-653.2 753.5,-631.2 637.5,-631.2"/>
<text text-anchor="start" x="640.5" y="-638.9" font-family="Helvetica,sans-Serif" font-size="11.00" fill="#000000">nvarchar[510]</text>
<polygon fill="none" stroke="#000000" points="330.5,-609.2 330.5,-631.2 637.5,-631.2 637.5,-609.2 330.5,-609.2"/>
<text text-anchor="start" x="350.5" y="-616.3" font-family="Helvetica,sans-Serif" font-size="11.00" fill="#000000">PsychEval</text>
<polygon fill="none" stroke="#000000" points="637.5,-609.2 637.5,-631.2 753.5,-631.2 753.5,-609.2 637.5,-609.2"/>
<text text-anchor="start" x="640.5" y="-616.9" font-family="Helvetica,sans-Serif" font-size="11.00" fill="#000000">nvarchar[510]</text>
<polygon fill="#ffffff" stroke="transparent" points="330.5,-587.2 330.5,-609.2 637.5,-609.2 637.5,-587.2 330.5,-587.2"/>
<polygon fill="none" stroke="#000000" points="330.5,-587.2 330.5,-609.2 637.5,-609.2 637.5,-587.2 330.5,-587.2"/>
<image xlink:href="../../images/foreignKeys.png" width="11px" height="12px" preserveAspectRatio="xMinYMin meet" x="335.5" y="-604.2"/>
<text text-anchor="start" x="350.5" y="-594.3" font-family="Helvetica,sans-Serif" font-size="11.00" fill="#000000">BatchId</text>
<polygon fill="none" stroke="#000000" points="637.5,-587.2 637.5,-609.2 753.5,-609.2 753.5,-587.2 637.5,-587.2"/>
<text text-anchor="start" x="640.5" y="-594.9" font-family="Helvetica,sans-Serif" font-size="11.00" fill="#000000">uniqueidentifier[16]</text>
<polygon fill="none" stroke="#000000" points="330.5,-565.2 330.5,-587.2 637.5,-587.2 637.5,-565.2 330.5,-565.2"/>
<text text-anchor="start" x="350.5" y="-572.3" font-family="Helvetica,sans-Serif" font-size="11.00" fill="#000000">NormalizedPatientLastName</text>
<polygon fill="none" stroke="#000000" points="637.5,-565.2 637.5,-587.2 753.5,-587.2 753.5,-565.2 637.5,-565.2"/>
<text text-anchor="start" x="640.5" y="-572.9" font-family="Helvetica,sans-Serif" font-size="11.00" fill="#000000">nvarchar[200]</text>
<polygon fill="none" stroke="#000000" points="330.5,-543.2 330.5,-565.2 637.5,-565.2 637.5,-543.2 330.5,-543.2"/>
<text text-anchor="start" x="350.5" y="-550.3" font-family="Helvetica,sans-Serif" font-size="11.00" fill="#000000">NormalizedPatientFirstName</text>
<polygon fill="none" stroke="#000000" points="637.5,-543.2 637.5,-565.2 753.5,-565.2 753.5,-543.2 637.5,-543.2"/>
<text text-anchor="start" x="640.5" y="-550.9" font-family="Helvetica,sans-Serif" font-size="11.00" fill="#000000">nvarchar[200]</text>
<polygon fill="none" stroke="#000000" points="330.5,-521.2 330.5,-543.2 637.5,-543.2 637.5,-521.2 330.5,-521.2"/>
<text text-anchor="start" x="350.5" y="-528.3" font-family="Helvetica,sans-Serif" font-size="11.00" fill="#000000">NormalizedPhysicianLastName</text>
<polygon fill="none" stroke="#000000" points="637.5,-521.2 637.5,-543.2 753.5,-543.2 753.5,-521.2 637.5,-521.2"/>
<text text-anchor="start" x="640.5" y="-528.9" font-family="Helvetica,sans-Serif" font-size="11.00" fill="#000000">nvarchar[200]</text>
<polygon fill="none" stroke="#000000" points="330.5,-499.2 330.5,-521.2 637.5,-521.2 637.5,-499.2 330.5,-499.2"/>
<text text-anchor="start" x="350.5" y="-506.3" font-family="Helvetica,sans-Serif" font-size="11.00" fill="#000000">NormalizedNursePractitionerLastName</text>
<polygon fill="none" stroke="#000000" points="637.5,-499.2 637.5,-521.2 753.5,-521.2 753.5,-499.2 637.5,-499.2"/>
<text text-anchor="start" x="640.5" y="-506.9" font-family="Helvetica,sans-Serif" font-size="11.00" fill="#000000">nvarchar[200]</text>
<polygon fill="none" stroke="#000000" points="330.5,-477.2 330.5,-499.2 637.5,-499.2 637.5,-477.2 330.5,-477.2"/>
<text text-anchor="start" x="350.5" y="-484.3" font-family="Helvetica,sans-Serif" font-size="11.00" fill="#000000">Room</text>
<polygon fill="none" stroke="#000000" points="637.5,-477.2 637.5,-499.2 753.5,-499.2 753.5,-477.2 637.5,-477.2"/>
<text text-anchor="start" x="640.5" y="-484.9" font-family="Helvetica,sans-Serif" font-size="11.00" fill="#000000">nvarchar[40]</text>
<polygon fill="none" stroke="#000000" points="330.5,-455.2 330.5,-477.2 637.5,-477.2 637.5,-455.2 330.5,-455.2"/>
<text text-anchor="start" x="350.5" y="-462.3" font-family="Helvetica,sans-Serif" font-size="11.00" fill="#000000">Bed</text>
<polygon fill="none" stroke="#000000" points="637.5,-455.2 637.5,-477.2 753.5,-477.2 753.5,-455.2 637.5,-455.2"/>
<text text-anchor="start" x="640.5" y="-462.9" font-family="Helvetica,sans-Serif" font-size="11.00" fill="#000000">nvarchar[10]</text>
<polygon fill="#ffffff" stroke="transparent" points="330.5,-433.2 330.5,-455.2 637.5,-455.2 637.5,-433.2 330.5,-433.2"/>
<polygon fill="none" stroke="#000000" points="330.5,-433.2 330.5,-455.2 637.5,-455.2 637.5,-433.2 330.5,-433.2"/>
<image xlink:href="../../images/foreignKeys.png" width="11px" height="12px" preserveAspectRatio="xMinYMin meet" x="335.5" y="-450.2"/>
<text text-anchor="start" x="350.5" y="-440.3" font-family="Helvetica,sans-Serif" font-size="11.00" fill="#000000">ResolvedPhysicianId</text>
<polygon fill="none" stroke="#000000" points="637.5,-433.2 637.5,-455.2 753.5,-455.2 753.5,-433.2 637.5,-433.2"/>
<text text-anchor="start" x="640.5" y="-440.9" font-family="Helvetica,sans-Serif" font-size="11.00" fill="#000000">int[4]</text>
<polygon fill="#ffffff" stroke="transparent" points="330.5,-411.2 330.5,-433.2 637.5,-433.2 637.5,-411.2 330.5,-411.2"/>
<polygon fill="none" stroke="#000000" points="330.5,-411.2 330.5,-433.2 637.5,-433.2 637.5,-411.2 330.5,-411.2"/>
<image xlink:href="../../images/foreignKeys.png" width="11px" height="12px" preserveAspectRatio="xMinYMin meet" x="335.5" y="-428.2"/>
<text text-anchor="start" x="350.5" y="-418.3" font-family="Helvetica,sans-Serif" font-size="11.00" fill="#000000">ResolvedHospitalizationId</text>
<polygon fill="none" stroke="#000000" points="637.5,-411.2 637.5,-433.2 753.5,-433.2 753.5,-411.2 637.5,-411.2"/>
<text text-anchor="start" x="640.5" y="-418.9" font-family="Helvetica,sans-Serif" font-size="11.00" fill="#000000">int[4]</text>
<polygon fill="#ffffff" stroke="transparent" points="330.5,-389.2 330.5,-411.2 637.5,-411.2 637.5,-389.2 330.5,-389.2"/>
<polygon fill="none" stroke="#000000" points="330.5,-389.2 330.5,-411.2 637.5,-411.2 637.5,-389.2 330.5,-389.2"/>
<image xlink:href="../../images/foreignKeys.png" width="11px" height="12px" preserveAspectRatio="xMinYMin meet" x="335.5" y="-406.2"/>
<text text-anchor="start" x="350.5" y="-396.3" font-family="Helvetica,sans-Serif" font-size="11.00" fill="#000000">ResolvedPatientId</text>
<polygon fill="none" stroke="#000000" points="637.5,-389.2 637.5,-411.2 753.5,-411.2 753.5,-389.2 637.5,-389.2"/>
<text text-anchor="start" x="640.5" y="-396.9" font-family="Helvetica,sans-Serif" font-size="11.00" fill="#000000">int[4]</text>
<polygon fill="#ffffff" stroke="transparent" points="330.5,-367.2 330.5,-389.2 637.5,-389.2 637.5,-367.2 330.5,-367.2"/>
<polygon fill="none" stroke="#000000" points="330.5,-367.2 330.5,-389.2 637.5,-389.2 637.5,-367.2 330.5,-367.2"/>
<image xlink:href="../../images/foreignKeys.png" width="11px" height="12px" preserveAspectRatio="xMinYMin meet" x="335.5" y="-384.2"/>
<text text-anchor="start" x="350.5" y="-374.3" font-family="Helvetica,sans-Serif" font-size="11.00" fill="#000000">ResolvedNursePractitionerId</text>
<polygon fill="none" stroke="#000000" points="637.5,-367.2 637.5,-389.2 753.5,-389.2 753.5,-367.2 637.5,-367.2"/>
<text text-anchor="start" x="640.5" y="-374.9" font-family="Helvetica,sans-Serif" font-size="11.00" fill="#000000">int[4]</text>
<polygon fill="#ffffff" stroke="transparent" points="330.5,-345.2 330.5,-367.2 637.5,-367.2 637.5,-345.2 330.5,-345.2"/>
<polygon fill="none" stroke="#000000" points="330.5,-345.2 330.5,-367.2 637.5,-367.2 637.5,-345.2 330.5,-345.2"/>
<image xlink:href="../../images/foreignKeys.png" width="11px" height="12px" preserveAspectRatio="xMinYMin meet" x="335.5" y="-362.2"/>
<text text-anchor="start" x="350.5" y="-352.3" font-family="Helvetica,sans-Serif" font-size="11.00" fill="#000000">ResolvedVisitId</text>
<polygon fill="none" stroke="#000000" points="637.5,-345.2 637.5,-367.2 753.5,-367.2 753.5,-345.2 637.5,-345.2"/>
<text text-anchor="start" x="640.5" y="-352.9" font-family="Helvetica,sans-Serif" font-size="11.00" fill="#000000">int[4]</text>
<polygon fill="#ffffff" stroke="transparent" points="330.5,-323.2 330.5,-345.2 637.5,-345.2 637.5,-323.2 330.5,-323.2"/>
<polygon fill="none" stroke="#000000" points="330.5,-323.2 330.5,-345.2 637.5,-345.2 637.5,-323.2 330.5,-323.2"/>
<image xlink:href="../../images/foreignKeys.png" width="11px" height="12px" preserveAspectRatio="xMinYMin meet" x="335.5" y="-340.2"/>
<text text-anchor="start" x="350.5" y="-330.3" font-family="Helvetica,sans-Serif" font-size="11.00" fill="#000000">ResolvedHospitalizationStatusId</text>
<polygon fill="none" stroke="#000000" points="637.5,-323.2 637.5,-345.2 753.5,-345.2 753.5,-323.2 637.5,-323.2"/>
<text text-anchor="start" x="640.5" y="-330.9" font-family="Helvetica,sans-Serif" font-size="11.00" fill="#000000">int[4]</text>
<polygon fill="none" stroke="#000000" points="330.5,-301.2 330.5,-323.2 637.5,-323.2 637.5,-301.2 330.5,-301.2"/>
<text text-anchor="start" x="350.5" y="-308.3" font-family="Helvetica,sans-Serif" font-size="11.00" fill="#000000">ShouldImport</text>
<polygon fill="none" stroke="#000000" points="637.5,-301.2 637.5,-323.2 753.5,-323.2 753.5,-301.2 637.5,-301.2"/>
<text text-anchor="start" x="640.5" y="-308.9" font-family="Helvetica,sans-Serif" font-size="11.00" fill="#000000">bit[1]</text>
<polygon fill="none" stroke="#000000" points="330.5,-279.2 330.5,-301.2 637.5,-301.2 637.5,-279.2 330.5,-279.2"/>
<text text-anchor="start" x="350.5" y="-286.3" font-family="Helvetica,sans-Serif" font-size="11.00" fill="#000000">Imported</text>
<polygon fill="none" stroke="#000000" points="637.5,-279.2 637.5,-301.2 753.5,-301.2 753.5,-279.2 637.5,-279.2"/>
<text text-anchor="start" x="640.5" y="-286.9" font-family="Helvetica,sans-Serif" font-size="11.00" fill="#000000">bit[1]</text>
<polygon fill="none" stroke="#000000" points="330.5,-257.2 330.5,-279.2 637.5,-279.2 637.5,-257.2 330.5,-257.2"/>
<text text-anchor="start" x="350.5" y="-264.3" font-family="Helvetica,sans-Serif" font-size="11.00" fill="#000000">ValidationErrors</text>
<polygon fill="none" stroke="#000000" points="637.5,-257.2 637.5,-279.2 753.5,-279.2 753.5,-257.2 637.5,-257.2"/>
<text text-anchor="start" x="640.4769" y="-264.9" font-family="Helvetica,sans-Serif" font-size="11.00" fill="#000000">nvarchar[2147483647]</text>
<polygon fill="none" stroke="#000000" points="330.5,-235.2 330.5,-257.2 637.5,-257.2 637.5,-235.2 330.5,-235.2"/>
<text text-anchor="start" x="350.5" y="-242.3" font-family="Helvetica,sans-Serif" font-size="11.00" fill="#000000">ExclusionReason</text>
<polygon fill="none" stroke="#000000" points="637.5,-235.2 637.5,-257.2 753.5,-257.2 753.5,-235.2 637.5,-235.2"/>
<text text-anchor="start" x="640.5" y="-242.9" font-family="Helvetica,sans-Serif" font-size="11.00" fill="#000000">nvarchar[1000]</text>
<polygon fill="none" stroke="#000000" points="330.5,-213.2 330.5,-235.2 637.5,-235.2 637.5,-213.2 330.5,-213.2"/>
<text text-anchor="start" x="350.5" y="-220.3" font-family="Helvetica,sans-Serif" font-size="11.00" fill="#000000">PatientWasCreated</text>
<polygon fill="none" stroke="#000000" points="637.5,-213.2 637.5,-235.2 753.5,-235.2 753.5,-213.2 637.5,-213.2"/>
<text text-anchor="start" x="640.5" y="-220.9" font-family="Helvetica,sans-Serif" font-size="11.00" fill="#000000">bit[1]</text>
<polygon fill="none" stroke="#000000" points="330.5,-191.2 330.5,-213.2 637.5,-213.2 637.5,-191.2 330.5,-191.2"/>
<text text-anchor="start" x="350.5" y="-198.3" font-family="Helvetica,sans-Serif" font-size="11.00" fill="#000000">PatientFacilityWasCreated</text>
<polygon fill="none" stroke="#000000" points="637.5,-191.2 637.5,-213.2 753.5,-213.2 753.5,-191.2 637.5,-191.2"/>
<text text-anchor="start" x="640.5" y="-198.9" font-family="Helvetica,sans-Serif" font-size="11.00" fill="#000000">bit[1]</text>
<polygon fill="none" stroke="#000000" points="330.5,-169.2 330.5,-191.2 637.5,-191.2 637.5,-169.2 330.5,-169.2"/>
<text text-anchor="start" x="350.5" y="-176.3" font-family="Helvetica,sans-Serif" font-size="11.00" fill="#000000">PhysicianWasCreated</text>
<polygon fill="none" stroke="#000000" points="637.5,-169.2 637.5,-191.2 753.5,-191.2 753.5,-169.2 637.5,-169.2"/>
<text text-anchor="start" x="640.5" y="-176.9" font-family="Helvetica,sans-Serif" font-size="11.00" fill="#000000">bit[1]</text>
<polygon fill="none" stroke="#000000" points="330.5,-147.2 330.5,-169.2 637.5,-169.2 637.5,-147.2 330.5,-147.2"/>
<text text-anchor="start" x="350.5" y="-154.3" font-family="Helvetica,sans-Serif" font-size="11.00" fill="#000000">NursePractitionerWasCreated</text>
<polygon fill="none" stroke="#000000" points="637.5,-147.2 637.5,-169.2 753.5,-169.2 753.5,-147.2 637.5,-147.2"/>
<text text-anchor="start" x="640.5" y="-154.9" font-family="Helvetica,sans-Serif" font-size="11.00" fill="#000000">bit[1]</text>
<polygon fill="none" stroke="#000000" points="330.5,-125.2 330.5,-147.2 637.5,-147.2 637.5,-125.2 330.5,-125.2"/>
<text text-anchor="start" x="350.5" y="-132.3" font-family="Helvetica,sans-Serif" font-size="11.00" fill="#000000">HospitalizationWasCreated</text>
<polygon fill="none" stroke="#000000" points="637.5,-125.2 637.5,-147.2 753.5,-147.2 753.5,-125.2 637.5,-125.2"/>
<text text-anchor="start" x="640.5" y="-132.9" font-family="Helvetica,sans-Serif" font-size="11.00" fill="#000000">bit[1]</text>
<polygon fill="none" stroke="#000000" points="330.5,-103.2 330.5,-125.2 637.5,-125.2 637.5,-103.2 330.5,-103.2"/>
<text text-anchor="start" x="350.5" y="-110.3" font-family="Helvetica,sans-Serif" font-size="11.00" fill="#000000">CreatedAtUtc</text>
<polygon fill="none" stroke="#000000" points="637.5,-103.2 637.5,-125.2 753.5,-125.2 753.5,-103.2 637.5,-103.2"/>
<text text-anchor="start" x="640.5" y="-110.9" font-family="Helvetica,sans-Serif" font-size="11.00" fill="#000000">datetime2[16,7]</text>
<polygon fill="none" stroke="#000000" points="330.5,-81.2 330.5,-103.2 637.5,-103.2 637.5,-81.2 330.5,-81.2"/>
<text text-anchor="start" x="350.5" y="-88.3" font-family="Helvetica,sans-Serif" font-size="11.00" fill="#000000">UpdatedAtUtc</text>
<polygon fill="none" stroke="#000000" points="637.5,-81.2 637.5,-103.2 753.5,-103.2 753.5,-81.2 637.5,-81.2"/>
<text text-anchor="start" x="640.5" y="-88.9" font-family="Helvetica,sans-Serif" font-size="11.00" fill="#000000">datetime2[16,7]</text>
<polygon fill="none" stroke="#000000" points="330.5,-59.2 330.5,-81.2 637.5,-81.2 637.5,-59.2 330.5,-59.2"/>
<text text-anchor="start" x="350.5" y="-66.3" font-family="Helvetica,sans-Serif" font-size="11.00" fill="#000000">RowVersion</text>
<polygon fill="none" stroke="#000000" points="637.5,-59.2 637.5,-81.2 753.5,-81.2 753.5,-59.2 637.5,-59.2"/>
<text text-anchor="start" x="640.5" y="-66.9" font-family="Helvetica,sans-Serif" font-size="11.00" fill="#000000">timestamp[8]</text>
<polygon fill="#ffffff" stroke="transparent" points="330.5,-40.2 330.5,-59.2 753.5,-59.2 753.5,-40.2 330.5,-40.2"/>
<polygon fill="none" stroke="#000000" points="330.5,-40.2 330.5,-59.2 753.5,-59.2 753.5,-40.2 330.5,-40.2"/>
<polygon fill="#ffffff" stroke="transparent" points="331.5,-41.2 331.5,-58.2 475.5,-58.2 475.5,-41.2 331.5,-41.2"/>
<text text-anchor="start" x="333.5" y="-46.3" font-family="Helvetica,sans-Serif" font-size="11.00" fill="#000000">&lt; 7</text>
<polygon fill="#ffffff" stroke="transparent" points="475.5,-41.2 475.5,-58.2 609.5,-58.2 609.5,-41.2 475.5,-41.2"/>
<text text-anchor="start" x="539.4431" y="-46.3" font-family="Helvetica,sans-Serif" font-size="11.00" fill="#000000"> &#160;</text>
<polygon fill="#ffffff" stroke="transparent" points="609.5,-41.2 609.5,-58.2 752.5,-58.2 752.5,-41.2 609.5,-41.2"/>
<text text-anchor="start" x="734.9053" y="-46.3" font-family="Helvetica,sans-Serif" font-size="11.00" fill="#000000">0 &gt;</text>
<polygon fill="#000000" stroke="#000000" points="475.5,-41.2 475.5,-58.2 475.5,-58.2 475.5,-41.2 475.5,-41.2"/>
<polygon fill="#000000" stroke="#000000" points="609.5,-41.2 609.5,-58.2 609.5,-58.2 609.5,-41.2 609.5,-41.2"/>
<polygon fill="none" stroke="#000000" stroke-width="2" points="329,-39.2 329,-985.2 754,-985.2 754,-39.2 329,-39.2"/>
</a>
</g>
</g>
<!-- ProviderAssignmentBatches -->
<g id="node2" class="node">
<title>ProviderAssignmentBatches</title>
<g id="a_node2"><a xlink:href="../../tables/ProviderAssignmentBatches.html" xlink:title="ProviderAssignmentBatches" target="_top">
<polygon fill="#ffffff" stroke="transparent" points="20.5,-555.7 20.5,-704.7 266.5,-704.7 266.5,-555.7 20.5,-555.7"/>
<polygon fill="#f5f5f5" stroke="transparent" points="20.5,-681.2 20.5,-704.2 266.5,-704.2 266.5,-681.2 20.5,-681.2"/>
<polygon fill="none" stroke="#000000" points="20.5,-681.2 20.5,-704.2 266.5,-704.2 266.5,-681.2 20.5,-681.2"/>
<text text-anchor="start" x="25.5" y="-689.8" font-family="Helvetica,sans-Serif" font-weight="bold" font-size="11.00" fill="#000000">ProviderAssignmentBatches</text>
<text text-anchor="start" x="232.0219" y="-689.3" font-family="Helvetica,sans-Serif" font-size="11.00" fill="#000000">[table]</text>
<polygon fill="none" stroke="#000000" points="20.5,-659.2 20.5,-681.2 266.5,-681.2 266.5,-659.2 20.5,-659.2"/>
<image xlink:href="../../images/primaryKeys.png" width="11px" height="12px" preserveAspectRatio="xMinYMin meet" x="25.5" y="-676.2"/>
<text text-anchor="start" x="49.5" y="-666.3" font-family="Helvetica,sans-Serif" font-size="11.00" fill="#000000">Id</text>
<polygon fill="#ffffff" stroke="transparent" points="20.5,-637.2 20.5,-659.2 266.5,-659.2 266.5,-637.2 20.5,-637.2"/>
<polygon fill="none" stroke="#000000" points="20.5,-637.2 20.5,-659.2 266.5,-659.2 266.5,-637.2 20.5,-637.2"/>
<text text-anchor="start" x="49.5" y="-644.3" font-family="Helvetica,sans-Serif" font-size="11.00" fill="#000000">Date</text>
<polygon fill="#ffffff" stroke="transparent" points="20.5,-615.2 20.5,-637.2 266.5,-637.2 266.5,-615.2 20.5,-615.2"/>
<polygon fill="none" stroke="#000000" points="20.5,-615.2 20.5,-637.2 266.5,-637.2 266.5,-615.2 20.5,-615.2"/>
<text text-anchor="start" x="49.5" y="-622.3" font-family="Helvetica,sans-Serif" font-size="11.00" fill="#000000">FacilityId</text>
<polygon fill="#ffffff" stroke="transparent" points="20.5,-593.2 20.5,-615.2 266.5,-615.2 266.5,-593.2 20.5,-593.2"/>
<polygon fill="none" stroke="#000000" points="20.5,-593.2 20.5,-615.2 266.5,-615.2 266.5,-593.2 20.5,-593.2"/>
<text text-anchor="start" x="49.5" y="-600.3" font-family="Helvetica,sans-Serif" font-size="11.00" fill="#000000">Status</text>
<polygon fill="none" stroke="#000000" points="20.5,-574.2 20.5,-593.2 266.5,-593.2 266.5,-574.2 20.5,-574.2"/>
<text text-anchor="start" x="23.5" y="-580.3" font-family="Helvetica,sans-Serif" font-size="11.00" fill="#000000">...</text>
<polygon fill="#ffffff" stroke="transparent" points="20.5,-555.2 20.5,-574.2 266.5,-574.2 266.5,-555.2 20.5,-555.2"/>
<polygon fill="none" stroke="#000000" points="20.5,-555.2 20.5,-574.2 266.5,-574.2 266.5,-555.2 20.5,-555.2"/>
<polygon fill="#ffffff" stroke="transparent" points="21.5,-556.2 21.5,-573.2 100.5,-573.2 100.5,-556.2 21.5,-556.2"/>
<text text-anchor="start" x="23.5" y="-561.3" font-family="Helvetica,sans-Serif" font-size="11.00" fill="#000000"> &#160;</text>
<polygon fill="#ffffff" stroke="transparent" points="100.5,-556.2 100.5,-573.2 178.5,-573.2 178.5,-556.2 100.5,-556.2"/>
<text text-anchor="start" x="136.4431" y="-561.3" font-family="Helvetica,sans-Serif" font-size="11.00" fill="#000000"> &#160;</text>
<polygon fill="#ffffff" stroke="transparent" points="178.5,-556.2 178.5,-573.2 265.5,-573.2 265.5,-556.2 178.5,-556.2"/>
<text text-anchor="start" x="247.9053" y="-561.3" font-family="Helvetica,sans-Serif" font-size="11.00" fill="#000000">1 &gt;</text>
<polygon fill="#000000" stroke="#000000" points="100.5,-556.2 100.5,-573.2 100.5,-573.2 100.5,-556.2 100.5,-556.2"/>
<polygon fill="#000000" stroke="#000000" points="178.5,-556.2 178.5,-573.2 178.5,-573.2 178.5,-556.2 178.5,-556.2"/>
</a>
</g>
</g>
<!-- ProviderAssignments&#45;&gt;ProviderAssignmentBatches -->
<g id="edge1" class="edge">
<title>ProviderAssignments:w&#45;&gt;ProviderAssignmentBatches:e</title>
<path fill="none" stroke="#000000" d="M316.2237,-601.8695C292.3951,-616.5417 303.461,-670.2 266.5,-670.2"/>
<polygon fill="#000000" stroke="#000000" points="322.7518,-600.1916 331.3962,-601.6867 326.6259,-599.1958 330.5,-598.2 330.5,-598.2 330.5,-598.2 326.6259,-599.1958 329.6038,-594.7133 322.7518,-600.1916 322.7518,-600.1916"/>
<ellipse fill="none" stroke="#000000" cx="319.6526" cy="-600.9882" rx="3.2" ry="3.2"/>
</g>
<!-- Clinical.Hospitalizations -->
<g id="node3" class="node">
<title>Clinical.Hospitalizations</title>
<g id="a_node3"><a xlink:title="Clinical.Hospitalizations">
<polygon fill="#ffffff" stroke="transparent" points="36,-391.7 36,-452.7 251,-452.7 251,-391.7 36,-391.7"/>
<polygon fill="#f5f5f5" stroke="transparent" points="36.5,-429.2 36.5,-452.2 251.5,-452.2 251.5,-429.2 36.5,-429.2"/>
<polygon fill="none" stroke="#000000" points="36.5,-429.2 36.5,-452.2 251.5,-452.2 251.5,-429.2 36.5,-429.2"/>
<text text-anchor="start" x="41.5" y="-437.8" font-family="Helvetica,sans-Serif" font-weight="bold" font-size="11.00" fill="#000000">Clinical.Hospitalizations</text>
<text text-anchor="start" x="217.0219" y="-437.3" font-family="Helvetica,sans-Serif" font-size="11.00" fill="#000000">[table]</text>
<polygon fill="none" stroke="#000000" points="36.5,-410.2 36.5,-429.2 251.5,-429.2 251.5,-410.2 36.5,-410.2"/>
<text text-anchor="start" x="39.5" y="-416.3" font-family="Helvetica,sans-Serif" font-size="11.00" fill="#000000">...</text>
<polygon fill="#ffffff" stroke="transparent" points="36.5,-391.2 36.5,-410.2 251.5,-410.2 251.5,-391.2 36.5,-391.2"/>
<polygon fill="none" stroke="#000000" points="36.5,-391.2 36.5,-410.2 251.5,-410.2 251.5,-391.2 36.5,-391.2"/>
<polygon fill="#ffffff" stroke="transparent" points="37.5,-392.2 37.5,-409.2 105.5,-409.2 105.5,-392.2 37.5,-392.2"/>
<text text-anchor="start" x="39.5" y="-397.3" font-family="Helvetica,sans-Serif" font-size="11.00" fill="#000000"> &#160;</text>
<polygon fill="#ffffff" stroke="transparent" points="105.5,-392.2 105.5,-409.2 173.5,-409.2 173.5,-392.2 105.5,-392.2"/>
<text text-anchor="start" x="136.4431" y="-397.3" font-family="Helvetica,sans-Serif" font-size="11.00" fill="#000000"> &#160;</text>
<polygon fill="#ffffff" stroke="transparent" points="173.5,-392.2 173.5,-409.2 250.5,-409.2 250.5,-392.2 173.5,-392.2"/>
<text text-anchor="start" x="232.9053" y="-397.3" font-family="Helvetica,sans-Serif" font-size="11.00" fill="#000000">1 &gt;</text>
<polygon fill="#000000" stroke="#000000" points="105.5,-392.2 105.5,-409.2 105.5,-409.2 105.5,-392.2 105.5,-392.2"/>
<polygon fill="#000000" stroke="#000000" points="173.5,-392.2 173.5,-409.2 173.5,-409.2 173.5,-392.2 173.5,-392.2"/>
</a>
</g>
</g>
<!-- ProviderAssignments&#45;&gt;Clinical.Hospitalizations -->
<g id="edge2" class="edge">
<title>ProviderAssignments:w&#45;&gt;Clinical.Hospitalizations:e</title>
<path fill="none" stroke="#000000" d="M316.0017,-422.2C297.2891,-422.2 277.9178,-422.2 259.2138,-422.2"/>
<polygon fill="#000000" stroke="#000000" points="322.5,-422.2001 330.5,-425.8 326.5,-422.2 330.5,-422.2 330.5,-422.2 330.5,-422.2 326.5,-422.2 330.5,-418.6 322.5,-422.2001 322.5,-422.2001"/>
<ellipse fill="none" stroke="#000000" cx="319.3" cy="-422.2001" rx="3.2" ry="3.2"/>
</g>
<!-- Clinical.HospitalizationStatuses -->
<g id="node4" class="node">
<title>Clinical.HospitalizationStatuses</title>
<g id="a_node4"><a xlink:title="Clinical.HospitalizationStatuses">
<polygon fill="#ffffff" stroke="transparent" points="8,-145.7 8,-206.7 279,-206.7 279,-145.7 8,-145.7"/>
<polygon fill="#f5f5f5" stroke="transparent" points="8.5,-183.2 8.5,-206.2 279.5,-206.2 279.5,-183.2 8.5,-183.2"/>
<polygon fill="none" stroke="#000000" points="8.5,-183.2 8.5,-206.2 279.5,-206.2 279.5,-183.2 8.5,-183.2"/>
<text text-anchor="start" x="13.5" y="-191.8" font-family="Helvetica,sans-Serif" font-weight="bold" font-size="11.00" fill="#000000">Clinical.HospitalizationStatuses</text>
<text text-anchor="start" x="245.0219" y="-191.3" font-family="Helvetica,sans-Serif" font-size="11.00" fill="#000000">[table]</text>
<polygon fill="none" stroke="#000000" points="8.5,-164.2 8.5,-183.2 279.5,-183.2 279.5,-164.2 8.5,-164.2"/>
<text text-anchor="start" x="11.5" y="-170.3" font-family="Helvetica,sans-Serif" font-size="11.00" fill="#000000">...</text>
<polygon fill="#ffffff" stroke="transparent" points="8.5,-145.2 8.5,-164.2 279.5,-164.2 279.5,-145.2 8.5,-145.2"/>
<polygon fill="none" stroke="#000000" points="8.5,-145.2 8.5,-164.2 279.5,-164.2 279.5,-145.2 8.5,-145.2"/>
<polygon fill="#ffffff" stroke="transparent" points="9.5,-146.2 9.5,-163.2 96.5,-163.2 96.5,-146.2 9.5,-146.2"/>
<text text-anchor="start" x="11.5" y="-151.3" font-family="Helvetica,sans-Serif" font-size="11.00" fill="#000000"> &#160;</text>
<polygon fill="#ffffff" stroke="transparent" points="96.5,-146.2 96.5,-163.2 183.5,-163.2 183.5,-146.2 96.5,-146.2"/>
<text text-anchor="start" x="136.9431" y="-151.3" font-family="Helvetica,sans-Serif" font-size="11.00" fill="#000000"> &#160;</text>
<polygon fill="#ffffff" stroke="transparent" points="183.5,-146.2 183.5,-163.2 278.5,-163.2 278.5,-146.2 183.5,-146.2"/>
<text text-anchor="start" x="260.9053" y="-151.3" font-family="Helvetica,sans-Serif" font-size="11.00" fill="#000000">1 &gt;</text>
<polygon fill="#000000" stroke="#000000" points="96.5,-146.2 96.5,-163.2 96.5,-163.2 96.5,-146.2 96.5,-146.2"/>
<polygon fill="#000000" stroke="#000000" points="183.5,-146.2 183.5,-163.2 183.5,-163.2 183.5,-146.2 183.5,-146.2"/>
</a>
</g>
</g>
<!-- ProviderAssignments&#45;&gt;Clinical.HospitalizationStatuses -->
<g id="edge3" class="edge">
<title>ProviderAssignments:w&#45;&gt;Clinical.HospitalizationStatuses:e</title>
<path fill="none" stroke="#000000" d="M315.9149,-331.5115C285.4327,-317.3462 323.268,-250.7554 287,-217.2 284.5276,-214.9125 281.9362,-212.7516 279.2444,-210.7103"/>
<polygon fill="#000000" stroke="#000000" points="322.6325,-332.7497 329.8474,-337.7404 326.5663,-333.4749 330.5,-334.2 330.5,-334.2 330.5,-334.2 326.5663,-333.4749 331.1526,-330.6596 322.6325,-332.7497 322.6325,-332.7497"/>
<ellipse fill="none" stroke="#000000" cx="319.4856" cy="-332.1696" rx="3.2" ry="3.2"/>
</g>
<!-- Clinical.Providers -->
<g id="node5" class="node">
<title>Clinical.Providers</title>
<g id="a_node5"><a xlink:title="Clinical.Providers">
<polygon fill="#ffffff" stroke="transparent" points="60,-473.7 60,-534.7 227,-534.7 227,-473.7 60,-473.7"/>
<polygon fill="#f5f5f5" stroke="transparent" points="60.5,-511.2 60.5,-534.2 227.5,-534.2 227.5,-511.2 60.5,-511.2"/>
<polygon fill="none" stroke="#000000" points="60.5,-511.2 60.5,-534.2 227.5,-534.2 227.5,-511.2 60.5,-511.2"/>
<text text-anchor="start" x="65.5" y="-519.8" font-family="Helvetica,sans-Serif" font-weight="bold" font-size="11.00" fill="#000000">Clinical.Providers</text>
<text text-anchor="start" x="193.0219" y="-519.3" font-family="Helvetica,sans-Serif" font-size="11.00" fill="#000000">[table]</text>
<polygon fill="none" stroke="#000000" points="60.5,-492.2 60.5,-511.2 227.5,-511.2 227.5,-492.2 60.5,-492.2"/>
<text text-anchor="start" x="63.5" y="-498.3" font-family="Helvetica,sans-Serif" font-size="11.00" fill="#000000">...</text>
<polygon fill="#ffffff" stroke="transparent" points="60.5,-473.2 60.5,-492.2 227.5,-492.2 227.5,-473.2 60.5,-473.2"/>
<polygon fill="none" stroke="#000000" points="60.5,-473.2 60.5,-492.2 227.5,-492.2 227.5,-473.2 60.5,-473.2"/>
<polygon fill="#ffffff" stroke="transparent" points="61.5,-474.2 61.5,-491.2 113.5,-491.2 113.5,-474.2 61.5,-474.2"/>
<text text-anchor="start" x="63.5" y="-479.3" font-family="Helvetica,sans-Serif" font-size="11.00" fill="#000000"> &#160;</text>
<polygon fill="#ffffff" stroke="transparent" points="113.5,-474.2 113.5,-491.2 165.5,-491.2 165.5,-474.2 113.5,-474.2"/>
<text text-anchor="start" x="136.4431" y="-479.3" font-family="Helvetica,sans-Serif" font-size="11.00" fill="#000000"> &#160;</text>
<polygon fill="#ffffff" stroke="transparent" points="165.5,-474.2 165.5,-491.2 226.5,-491.2 226.5,-474.2 165.5,-474.2"/>
<text text-anchor="start" x="208.9053" y="-479.3" font-family="Helvetica,sans-Serif" font-size="11.00" fill="#000000">2 &gt;</text>
<polygon fill="#000000" stroke="#000000" points="113.5,-474.2 113.5,-491.2 113.5,-491.2 113.5,-474.2 113.5,-474.2"/>
<polygon fill="#000000" stroke="#000000" points="165.5,-474.2 165.5,-491.2 165.5,-491.2 165.5,-474.2 165.5,-474.2"/>
</a>
</g>
</g>
<!-- ProviderAssignments&#45;&gt;Clinical.Providers -->
<g id="edge4" class="edge">
<title>ProviderAssignments:w&#45;&gt;Clinical.Providers:e</title>
<path fill="none" stroke="#000000" d="M316.328,-381.5688C295.8842,-394.3307 315.0445,-440.1461 287,-463.2 272.0886,-475.4579 253.703,-484.0536 235.1283,-490.0805"/>
<polygon fill="#000000" stroke="#000000" points="322.7169,-380.0501 331.3326,-381.7024 326.6084,-379.1251 330.5,-378.2 330.5,-378.2 330.5,-378.2 326.6084,-379.1251 329.6674,-374.6976 322.7169,-380.0501 322.7169,-380.0501"/>
<ellipse fill="none" stroke="#000000" cx="319.6036" cy="-380.7902" rx="3.2" ry="3.2"/>
</g>
<!-- ProviderAssignments&#45;&gt;Clinical.Providers -->
<g id="edge6" class="edge">
<title>ProviderAssignments:w&#45;&gt;Clinical.Providers:e</title>
<path fill="none" stroke="#000000" d="M316.3032,-446.6463C306.6001,-450.4995 301.2697,-458.071 287,-463.2 270.4196,-469.1595 252.5227,-474.8459 235.1785,-479.9837"/>
<polygon fill="#000000" stroke="#000000" points="322.6162,-445.5585 331.1113,-447.7477 326.5581,-444.8793 330.5,-444.2 330.5,-444.2 330.5,-444.2 326.5581,-444.8793 329.8887,-440.6523 322.6162,-445.5585 322.6162,-445.5585"/>
<ellipse fill="none" stroke="#000000" cx="319.4627" cy="-446.1019" rx="3.2" ry="3.2"/>
</g>
<!-- Clinical.Patients -->
<g id="node6" class="node">
<title>Clinical.Patients</title>
<g id="a_node6"><a xlink:title="Clinical.Patients">
<polygon fill="#ffffff" stroke="transparent" points="64.5,-309.7 64.5,-370.7 222.5,-370.7 222.5,-309.7 64.5,-309.7"/>
<polygon fill="#f5f5f5" stroke="transparent" points="64.5,-347.2 64.5,-370.2 222.5,-370.2 222.5,-347.2 64.5,-347.2"/>
<polygon fill="none" stroke="#000000" points="64.5,-347.2 64.5,-370.2 222.5,-370.2 222.5,-347.2 64.5,-347.2"/>
<text text-anchor="start" x="69.5" y="-355.8" font-family="Helvetica,sans-Serif" font-weight="bold" font-size="11.00" fill="#000000">Clinical.Patients</text>
<text text-anchor="start" x="188.0219" y="-355.3" font-family="Helvetica,sans-Serif" font-size="11.00" fill="#000000">[table]</text>
<polygon fill="none" stroke="#000000" points="64.5,-328.2 64.5,-347.2 222.5,-347.2 222.5,-328.2 64.5,-328.2"/>
<text text-anchor="start" x="67.5" y="-334.3" font-family="Helvetica,sans-Serif" font-size="11.00" fill="#000000">...</text>
<polygon fill="#ffffff" stroke="transparent" points="64.5,-309.2 64.5,-328.2 222.5,-328.2 222.5,-309.2 64.5,-309.2"/>
<polygon fill="none" stroke="#000000" points="64.5,-309.2 64.5,-328.2 222.5,-328.2 222.5,-309.2 64.5,-309.2"/>
<polygon fill="#ffffff" stroke="transparent" points="65.5,-310.2 65.5,-327.2 114.5,-327.2 114.5,-310.2 65.5,-310.2"/>
<text text-anchor="start" x="67.5" y="-315.3" font-family="Helvetica,sans-Serif" font-size="11.00" fill="#000000"> &#160;</text>
<polygon fill="#ffffff" stroke="transparent" points="114.5,-310.2 114.5,-327.2 163.5,-327.2 163.5,-310.2 114.5,-310.2"/>
<text text-anchor="start" x="135.9431" y="-315.3" font-family="Helvetica,sans-Serif" font-size="11.00" fill="#000000"> &#160;</text>
<polygon fill="#ffffff" stroke="transparent" points="163.5,-310.2 163.5,-327.2 221.5,-327.2 221.5,-310.2 163.5,-310.2"/>
<text text-anchor="start" x="203.9053" y="-315.3" font-family="Helvetica,sans-Serif" font-size="11.00" fill="#000000">1 &gt;</text>
<polygon fill="#000000" stroke="#000000" points="114.5,-310.2 114.5,-327.2 114.5,-327.2 114.5,-310.2 114.5,-310.2"/>
<polygon fill="#000000" stroke="#000000" points="163.5,-310.2 163.5,-327.2 163.5,-327.2 163.5,-310.2 163.5,-310.2"/>
</a>
</g>
</g>
<!-- ProviderAssignments&#45;&gt;Clinical.Patients -->
<g id="edge5" class="edge">
<title>ProviderAssignments:w&#45;&gt;Clinical.Patients:e</title>
<path fill="none" stroke="#000000" d="M316.3032,-397.7537C306.6001,-393.9005 301.2697,-386.329 287,-381.2 268.9567,-374.7146 249.3542,-368.5528 230.6016,-363.0693"/>
<polygon fill="#000000" stroke="#000000" points="322.6162,-398.8415 329.8887,-403.7477 326.5581,-399.5207 330.5,-400.2 330.5,-400.2 330.5,-400.2 326.5581,-399.5207 331.1113,-396.6523 322.6162,-398.8415 322.6162,-398.8415"/>
<ellipse fill="none" stroke="#000000" cx="319.4627" cy="-398.2981" rx="3.2" ry="3.2"/>
</g>
<!-- Clinical.Visits -->
<g id="node7" class="node">
<title>Clinical.Visits</title>
<g id="a_node7"><a xlink:title="Clinical.Visits">
<polygon fill="#ffffff" stroke="transparent" points="75,-227.7 75,-288.7 212,-288.7 212,-227.7 75,-227.7"/>
<polygon fill="#f5f5f5" stroke="transparent" points="75.5,-265.2 75.5,-288.2 212.5,-288.2 212.5,-265.2 75.5,-265.2"/>
<polygon fill="none" stroke="#000000" points="75.5,-265.2 75.5,-288.2 212.5,-288.2 212.5,-265.2 75.5,-265.2"/>
<text text-anchor="start" x="80.5" y="-273.8" font-family="Helvetica,sans-Serif" font-weight="bold" font-size="11.00" fill="#000000">Clinical.Visits</text>
<text text-anchor="start" x="178.0219" y="-273.3" font-family="Helvetica,sans-Serif" font-size="11.00" fill="#000000">[table]</text>
<polygon fill="none" stroke="#000000" points="75.5,-246.2 75.5,-265.2 212.5,-265.2 212.5,-246.2 75.5,-246.2"/>
<text text-anchor="start" x="78.5" y="-252.3" font-family="Helvetica,sans-Serif" font-size="11.00" fill="#000000">...</text>
<polygon fill="#ffffff" stroke="transparent" points="75.5,-227.2 75.5,-246.2 212.5,-246.2 212.5,-227.2 75.5,-227.2"/>
<polygon fill="none" stroke="#000000" points="75.5,-227.2 75.5,-246.2 212.5,-246.2 212.5,-227.2 75.5,-227.2"/>
<polygon fill="#ffffff" stroke="transparent" points="76.5,-228.2 76.5,-245.2 118.5,-245.2 118.5,-228.2 76.5,-228.2"/>
<text text-anchor="start" x="78.5" y="-233.3" font-family="Helvetica,sans-Serif" font-size="11.00" fill="#000000"> &#160;</text>
<polygon fill="#ffffff" stroke="transparent" points="118.5,-228.2 118.5,-245.2 160.5,-245.2 160.5,-228.2 118.5,-228.2"/>
<text text-anchor="start" x="136.4431" y="-233.3" font-family="Helvetica,sans-Serif" font-size="11.00" fill="#000000"> &#160;</text>
<polygon fill="#ffffff" stroke="transparent" points="160.5,-228.2 160.5,-245.2 211.5,-245.2 211.5,-228.2 160.5,-228.2"/>
<text text-anchor="start" x="193.9053" y="-233.3" font-family="Helvetica,sans-Serif" font-size="11.00" fill="#000000">1 &gt;</text>
<polygon fill="#000000" stroke="#000000" points="118.5,-228.2 118.5,-245.2 118.5,-245.2 118.5,-228.2 118.5,-228.2"/>
<polygon fill="#000000" stroke="#000000" points="160.5,-228.2 160.5,-245.2 160.5,-245.2 160.5,-228.2 160.5,-228.2"/>
</a>
</g>
</g>
<!-- ProviderAssignments&#45;&gt;Clinical.Visits -->
<g id="edge7" class="edge">
<title>ProviderAssignments:w&#45;&gt;Clinical.Visits:e</title>
<path fill="none" stroke="#000000" d="M316.5035,-352.1799C302.8074,-341.7533 308.1846,-313.6501 287,-299.2 267.2006,-285.6947 242.9742,-276.5963 220.1051,-270.4832"/>
<polygon fill="#000000" stroke="#000000" points="322.8109,-353.9915 329.5062,-359.6601 326.6554,-355.0957 330.5,-356.2 330.5,-356.2 330.5,-356.2 326.6554,-355.0957 331.4938,-352.7399 322.8109,-353.9915 322.8109,-353.9915"/>
<ellipse fill="none" stroke="#000000" cx="319.7352" cy="-353.1081" rx="3.2" ry="3.2"/>
</g>
</g>
</svg>
