<?xml version="1.0" encoding="UTF-8" standalone="no"?>
<!DOCTYPE svg PUBLIC "-//W3C//DTD SVG 1.1//EN"
 "http://www.w3.org/Graphics/SVG/1.1/DTD/svg11.dtd">
<!-- Generated by graphviz version 2.40.1 (20161225.0304)
 -->
<!-- Title: twoDegreesRelationshipsDiagram Pages: 1 -->
<svg width="1052pt" height="683pt"
 viewBox="0.00 0.00 1052.00 682.70" xmlns="http://www.w3.org/2000/svg" xmlns:xlink="http://www.w3.org/1999/xlink">
<g id="graph0" class="graph" transform="scale(1 1) rotate(0) translate(4 678.7)">
<title>twoDegreesRelationshipsDiagram</title>
<polygon fill="#ffffff" stroke="transparent" points="-4,4 -4,-678.7 1048,-678.7 1048,4 -4,4"/>
<text text-anchor="middle" x="72.4936" y="-7.3" font-family="Helvetica,sans-Serif" font-size="11.00" fill="#000000">Generated by SchemaSpy</text>
<!-- ProviderAssignmentBatches -->
<g id="node1" class="node">
<title>ProviderAssignmentBatches</title>
<g id="a_node1"><a xlink:href="../../tables/ProviderAssignmentBatches.html" xlink:title="ProviderAssignmentBatches" target="_top">
<polygon fill="#ffffff" stroke="transparent" points="350,-448.7 350,-670.7 680,-670.7 680,-448.7 350,-448.7"/>
<polygon fill="#f5f5f5" stroke="transparent" points="352,-645.7 352,-668.7 678,-668.7 678,-645.7 352,-645.7"/>
<polygon fill="none" stroke="#000000" points="352,-645.7 352,-668.7 678,-668.7 678,-645.7 352,-645.7"/>
<text text-anchor="start" x="357" y="-654.3" font-family="Helvetica,sans-Serif" font-weight="bold" font-size="11.00" fill="#000000">ProviderAssignmentBatches</text>
<text text-anchor="start" x="643.0437" y="-653.8" font-family="Helvetica,sans-Serif" font-size="11.00" fill="#000000">[table]</text>
<polygon fill="none" stroke="#000000" points="352,-623.7 352,-645.7 580,-645.7 580,-623.7 352,-623.7"/>
<image xlink:href="../../images/primaryKeys.png" width="11px" height="12px" preserveAspectRatio="xMinYMin meet" x="357" y="-640.7"/>
<text text-anchor="start" x="372" y="-630.8" font-family="Helvetica,sans-Serif" font-size="11.00" fill="#000000">Id</text>
<polygon fill="none" stroke="#000000" points="580,-623.7 580,-645.7 678,-645.7 678,-623.7 580,-623.7"/>
<text text-anchor="start" x="582.5415" y="-631.4" font-family="Helvetica,sans-Serif" font-size="11.00" fill="#000000">uniqueidentifier[16]</text>
<polygon fill="#ffffff" stroke="transparent" points="352,-601.7 352,-623.7 580,-623.7 580,-601.7 352,-601.7"/>
<polygon fill="none" stroke="#000000" points="352,-601.7 352,-623.7 580,-623.7 580,-601.7 352,-601.7"/>
<text text-anchor="start" x="372" y="-608.8" font-family="Helvetica,sans-Serif" font-size="11.00" fill="#000000">Date</text>
<polygon fill="none" stroke="#000000" points="580,-601.7 580,-623.7 678,-623.7 678,-601.7 580,-601.7"/>
<text text-anchor="start" x="583" y="-609.4" font-family="Helvetica,sans-Serif" font-size="11.00" fill="#000000">date[6]</text>
<polygon fill="#ffffff" stroke="transparent" points="352,-579.7 352,-601.7 580,-601.7 580,-579.7 352,-579.7"/>
<polygon fill="none" stroke="#000000" points="352,-579.7 352,-601.7 580,-601.7 580,-579.7 352,-579.7"/>
<text text-anchor="start" x="372" y="-586.8" font-family="Helvetica,sans-Serif" font-size="11.00" fill="#000000">FacilityId</text>
<polygon fill="none" stroke="#000000" points="580,-579.7 580,-601.7 678,-601.7 678,-579.7 580,-579.7"/>
<text text-anchor="start" x="583" y="-587.4" font-family="Helvetica,sans-Serif" font-size="11.00" fill="#000000">int[4]</text>
<polygon fill="#ffffff" stroke="transparent" points="352,-557.7 352,-579.7 580,-579.7 580,-557.7 352,-557.7"/>
<polygon fill="none" stroke="#000000" points="352,-557.7 352,-579.7 580,-579.7 580,-557.7 352,-557.7"/>
<image xlink:href="../../images/foreignKeys.png" width="11px" height="12px" preserveAspectRatio="xMinYMin meet" x="357" y="-574.7"/>
<text text-anchor="start" x="372" y="-564.8" font-family="Helvetica,sans-Serif" font-size="11.00" fill="#000000">StatusId</text>
<polygon fill="none" stroke="#000000" points="580,-557.7 580,-579.7 678,-579.7 678,-557.7 580,-557.7"/>
<text text-anchor="start" x="583" y="-565.4" font-family="Helvetica,sans-Serif" font-size="11.00" fill="#000000">int[4]</text>
<polygon fill="none" stroke="#000000" points="352,-535.7 352,-557.7 580,-557.7 580,-535.7 352,-535.7"/>
<text text-anchor="start" x="372" y="-542.8" font-family="Helvetica,sans-Serif" font-size="11.00" fill="#000000">CreatedAtUtc</text>
<polygon fill="none" stroke="#000000" points="580,-535.7 580,-557.7 678,-557.7 678,-535.7 580,-535.7"/>
<text text-anchor="start" x="583" y="-543.4" font-family="Helvetica,sans-Serif" font-size="11.00" fill="#000000">datetime2[16,7]</text>
<polygon fill="none" stroke="#000000" points="352,-513.7 352,-535.7 580,-535.7 580,-513.7 352,-513.7"/>
<text text-anchor="start" x="372" y="-520.8" font-family="Helvetica,sans-Serif" font-size="11.00" fill="#000000">UpdatedAtUtc</text>
<polygon fill="none" stroke="#000000" points="580,-513.7 580,-535.7 678,-535.7 678,-513.7 580,-513.7"/>
<text text-anchor="start" x="583" y="-521.4" font-family="Helvetica,sans-Serif" font-size="11.00" fill="#000000">datetime2[16,7]</text>
<polygon fill="none" stroke="#000000" points="352,-491.7 352,-513.7 580,-513.7 580,-491.7 352,-491.7"/>
<text text-anchor="start" x="372" y="-498.8" font-family="Helvetica,sans-Serif" font-size="11.00" fill="#000000">RowVersion</text>
<polygon fill="none" stroke="#000000" points="580,-491.7 580,-513.7 678,-513.7 678,-491.7 580,-491.7"/>
<text text-anchor="start" x="583" y="-499.4" font-family="Helvetica,sans-Serif" font-size="11.00" fill="#000000">timestamp[8]</text>
<polygon fill="#ffffff" stroke="transparent" points="352,-469.7 352,-491.7 580,-491.7 580,-469.7 352,-469.7"/>
<polygon fill="none" stroke="#000000" points="352,-469.7 352,-491.7 580,-491.7 580,-469.7 352,-469.7"/>
<text text-anchor="start" x="372" y="-476.8" font-family="Helvetica,sans-Serif" font-size="11.00" fill="#000000">CreatedByUserId</text>
<polygon fill="none" stroke="#000000" points="580,-469.7 580,-491.7 678,-491.7 678,-469.7 580,-469.7"/>
<text text-anchor="start" x="583" y="-477.4" font-family="Helvetica,sans-Serif" font-size="11.00" fill="#000000">int[4]</text>
<polygon fill="#ffffff" stroke="transparent" points="352,-450.7 352,-469.7 678,-469.7 678,-450.7 352,-450.7"/>
<polygon fill="none" stroke="#000000" points="352,-450.7 352,-469.7 678,-469.7 678,-450.7 352,-450.7"/>
<polygon fill="#ffffff" stroke="transparent" points="353,-451.7 353,-468.7 464,-468.7 464,-451.7 353,-451.7"/>
<text text-anchor="start" x="355" y="-456.8" font-family="Helvetica,sans-Serif" font-size="11.00" fill="#000000">&lt; 1</text>
<polygon fill="#ffffff" stroke="transparent" points="464,-451.7 464,-468.7 566,-468.7 566,-451.7 464,-451.7"/>
<text text-anchor="start" x="511.9431" y="-456.8" font-family="Helvetica,sans-Serif" font-size="11.00" fill="#000000"> &#160;</text>
<polygon fill="#ffffff" stroke="transparent" points="566,-451.7 566,-468.7 677,-468.7 677,-451.7 566,-451.7"/>
<text text-anchor="start" x="659.4053" y="-456.8" font-family="Helvetica,sans-Serif" font-size="11.00" fill="#000000">1 &gt;</text>
<polygon fill="#000000" stroke="#000000" points="464,-451.7 464,-468.7 464,-468.7 464,-451.7 464,-451.7"/>
<polygon fill="#000000" stroke="#000000" points="566,-451.7 566,-468.7 566,-468.7 566,-451.7 566,-451.7"/>
<polygon fill="none" stroke="#000000" stroke-width="2" points="351,-449.7 351,-669.7 679,-669.7 679,-449.7 351,-449.7"/>
</a>
</g>
</g>
<!-- ProviderAssignmentBatchStatuses -->
<g id="node2" class="node">
<title>ProviderAssignmentBatchStatuses</title>
<g id="a_node2"><a xlink:href="../../tables/ProviderAssignmentBatchStatuses.html" xlink:title="ProviderAssignmentBatchStatuses" target="_top">
<polygon fill="#ffffff" stroke="transparent" points="8,-498.2 8,-603.2 301,-603.2 301,-498.2 8,-498.2"/>
<polygon fill="#f5f5f5" stroke="transparent" points="8.5,-579.7 8.5,-602.7 301.5,-602.7 301.5,-579.7 8.5,-579.7"/>
<polygon fill="none" stroke="#000000" points="8.5,-579.7 8.5,-602.7 301.5,-602.7 301.5,-579.7 8.5,-579.7"/>
<text text-anchor="start" x="13.5" y="-588.3" font-family="Helvetica,sans-Serif" font-weight="bold" font-size="11.00" fill="#000000">ProviderAssignmentBatchStatuses</text>
<text text-anchor="start" x="267.0219" y="-587.8" font-family="Helvetica,sans-Serif" font-size="11.00" fill="#000000">[table]</text>
<polygon fill="none" stroke="#000000" points="8.5,-557.7 8.5,-579.7 301.5,-579.7 301.5,-557.7 8.5,-557.7"/>
<image xlink:href="../../images/primaryKeys.png" width="11px" height="12px" preserveAspectRatio="xMinYMin meet" x="13.5" y="-574.7"/>
<text text-anchor="start" x="37.5" y="-564.8" font-family="Helvetica,sans-Serif" font-size="11.00" fill="#000000">Id</text>
<polygon fill="#ffffff" stroke="transparent" points="8.5,-535.7 8.5,-557.7 301.5,-557.7 301.5,-535.7 8.5,-535.7"/>
<polygon fill="none" stroke="#000000" points="8.5,-535.7 8.5,-557.7 301.5,-557.7 301.5,-535.7 8.5,-535.7"/>
<text text-anchor="start" x="37.5" y="-542.8" font-family="Helvetica,sans-Serif" font-size="11.00" fill="#000000">Code</text>
<polygon fill="none" stroke="#000000" points="8.5,-516.7 8.5,-535.7 301.5,-535.7 301.5,-516.7 8.5,-516.7"/>
<text text-anchor="start" x="11.5" y="-522.8" font-family="Helvetica,sans-Serif" font-size="11.00" fill="#000000">...</text>
<polygon fill="#ffffff" stroke="transparent" points="8.5,-497.7 8.5,-516.7 301.5,-516.7 301.5,-497.7 8.5,-497.7"/>
<polygon fill="none" stroke="#000000" points="8.5,-497.7 8.5,-516.7 301.5,-516.7 301.5,-497.7 8.5,-497.7"/>
<polygon fill="#ffffff" stroke="transparent" points="9.5,-498.7 9.5,-515.7 103.5,-515.7 103.5,-498.7 9.5,-498.7"/>
<text text-anchor="start" x="11.5" y="-503.8" font-family="Helvetica,sans-Serif" font-size="11.00" fill="#000000"> &#160;</text>
<polygon fill="#ffffff" stroke="transparent" points="103.5,-498.7 103.5,-515.7 197.5,-515.7 197.5,-498.7 103.5,-498.7"/>
<text text-anchor="start" x="147.4431" y="-503.8" font-family="Helvetica,sans-Serif" font-size="11.00" fill="#000000"> &#160;</text>
<polygon fill="#ffffff" stroke="transparent" points="197.5,-498.7 197.5,-515.7 300.5,-515.7 300.5,-498.7 197.5,-498.7"/>
<text text-anchor="start" x="282.9053" y="-503.8" font-family="Helvetica,sans-Serif" font-size="11.00" fill="#000000">1 &gt;</text>
<polygon fill="#000000" stroke="#000000" points="103.5,-498.7 103.5,-515.7 103.5,-515.7 103.5,-498.7 103.5,-498.7"/>
<polygon fill="#000000" stroke="#000000" points="197.5,-498.7 197.5,-515.7 197.5,-515.7 197.5,-498.7 197.5,-498.7"/>
</a>
</g>
</g>
<!-- ProviderAssignmentBatches&#45;&gt;ProviderAssignmentBatchStatuses -->
<g id="edge1" class="edge">
<title>ProviderAssignmentBatches:w&#45;&gt;ProviderAssignmentBatchStatuses:e</title>
<path fill="none" stroke="#000000" d="M337.4203,-568.7C325.5435,-568.7 318.158,-568.7 301.5,-568.7"/>
<polygon fill="#000000" stroke="#000000" points="344,-568.7001 352,-572.3 348,-568.7 352,-568.7 352,-568.7 352,-568.7 348,-568.7 352,-565.1 344,-568.7001 344,-568.7001"/>
<ellipse fill="none" stroke="#000000" cx="340.8" cy="-568.7001" rx="3.2" ry="3.2"/>
</g>
<!-- ProviderAssignments -->
<g id="node3" class="node">
<title>ProviderAssignments</title>
<g id="a_node3"><a xlink:href="../../tables/ProviderAssignments.html" xlink:title="ProviderAssignments" target="_top">
<polygon fill="#ffffff" stroke="transparent" points="729,-175.2 729,-412.2 1036,-412.2 1036,-175.2 729,-175.2"/>
<polygon fill="#f5f5f5" stroke="transparent" points="729.5,-388.7 729.5,-411.7 1036.5,-411.7 1036.5,-388.7 729.5,-388.7"/>
<polygon fill="none" stroke="#000000" points="729.5,-388.7 729.5,-411.7 1036.5,-411.7 1036.5,-388.7 729.5,-388.7"/>
<text text-anchor="start" x="734.5" y="-397.3" font-family="Helvetica,sans-Serif" font-weight="bold" font-size="11.00" fill="#000000">ProviderAssignments</text>
<text text-anchor="start" x="1001.5437" y="-396.8" font-family="Helvetica,sans-Serif" font-size="11.00" fill="#000000">[table]</text>
<polygon fill="none" stroke="#000000" points="729.5,-366.7 729.5,-388.7 1036.5,-388.7 1036.5,-366.7 729.5,-366.7"/>
<image xlink:href="../../images/primaryKeys.png" width="11px" height="12px" preserveAspectRatio="xMinYMin meet" x="734.5" y="-383.7"/>
<text text-anchor="start" x="749.5" y="-373.8" font-family="Helvetica,sans-Serif" font-size="11.00" fill="#000000">Id</text>
<polygon fill="#ffffff" stroke="transparent" points="729.5,-344.7 729.5,-366.7 1036.5,-366.7 1036.5,-344.7 729.5,-344.7"/>
<polygon fill="none" stroke="#000000" points="729.5,-344.7 729.5,-366.7 1036.5,-366.7 1036.5,-344.7 729.5,-344.7"/>
<image xlink:href="../../images/foreignKeys.png" width="11px" height="12px" preserveAspectRatio="xMinYMin meet" x="734.5" y="-361.7"/>
<text text-anchor="start" x="749.5" y="-351.8" font-family="Helvetica,sans-Serif" font-size="11.00" fill="#000000">BatchId</text>
<polygon fill="#ffffff" stroke="transparent" points="729.5,-322.7 729.5,-344.7 1036.5,-344.7 1036.5,-322.7 729.5,-322.7"/>
<polygon fill="none" stroke="#000000" points="729.5,-322.7 729.5,-344.7 1036.5,-344.7 1036.5,-322.7 729.5,-322.7"/>
<image xlink:href="../../images/foreignKeys.png" width="11px" height="12px" preserveAspectRatio="xMinYMin meet" x="734.5" y="-339.7"/>
<text text-anchor="start" x="749.5" y="-329.8" font-family="Helvetica,sans-Serif" font-size="11.00" fill="#000000">ResolvedPhysicianId</text>
<polygon fill="#ffffff" stroke="transparent" points="729.5,-300.7 729.5,-322.7 1036.5,-322.7 1036.5,-300.7 729.5,-300.7"/>
<polygon fill="none" stroke="#000000" points="729.5,-300.7 729.5,-322.7 1036.5,-322.7 1036.5,-300.7 729.5,-300.7"/>
<image xlink:href="../../images/foreignKeys.png" width="11px" height="12px" preserveAspectRatio="xMinYMin meet" x="734.5" y="-317.7"/>
<text text-anchor="start" x="749.5" y="-307.8" font-family="Helvetica,sans-Serif" font-size="11.00" fill="#000000">ResolvedHospitalizationId</text>
<polygon fill="#ffffff" stroke="transparent" points="729.5,-278.7 729.5,-300.7 1036.5,-300.7 1036.5,-278.7 729.5,-278.7"/>
<polygon fill="none" stroke="#000000" points="729.5,-278.7 729.5,-300.7 1036.5,-300.7 1036.5,-278.7 729.5,-278.7"/>
<image xlink:href="../../images/foreignKeys.png" width="11px" height="12px" preserveAspectRatio="xMinYMin meet" x="734.5" y="-295.7"/>
<text text-anchor="start" x="749.5" y="-285.8" font-family="Helvetica,sans-Serif" font-size="11.00" fill="#000000">ResolvedPatientId</text>
<polygon fill="#ffffff" stroke="transparent" points="729.5,-256.7 729.5,-278.7 1036.5,-278.7 1036.5,-256.7 729.5,-256.7"/>
<polygon fill="none" stroke="#000000" points="729.5,-256.7 729.5,-278.7 1036.5,-278.7 1036.5,-256.7 729.5,-256.7"/>
<image xlink:href="../../images/foreignKeys.png" width="11px" height="12px" preserveAspectRatio="xMinYMin meet" x="734.5" y="-273.7"/>
<text text-anchor="start" x="749.5" y="-263.8" font-family="Helvetica,sans-Serif" font-size="11.00" fill="#000000">ResolvedNursePractitionerId</text>
<polygon fill="#ffffff" stroke="transparent" points="729.5,-234.7 729.5,-256.7 1036.5,-256.7 1036.5,-234.7 729.5,-234.7"/>
<polygon fill="none" stroke="#000000" points="729.5,-234.7 729.5,-256.7 1036.5,-256.7 1036.5,-234.7 729.5,-234.7"/>
<image xlink:href="../../images/foreignKeys.png" width="11px" height="12px" preserveAspectRatio="xMinYMin meet" x="734.5" y="-251.7"/>
<text text-anchor="start" x="749.5" y="-241.8" font-family="Helvetica,sans-Serif" font-size="11.00" fill="#000000">ResolvedVisitId</text>
<polygon fill="#ffffff" stroke="transparent" points="729.5,-212.7 729.5,-234.7 1036.5,-234.7 1036.5,-212.7 729.5,-212.7"/>
<polygon fill="none" stroke="#000000" points="729.5,-212.7 729.5,-234.7 1036.5,-234.7 1036.5,-212.7 729.5,-212.7"/>
<image xlink:href="../../images/foreignKeys.png" width="11px" height="12px" preserveAspectRatio="xMinYMin meet" x="734.5" y="-229.7"/>
<text text-anchor="start" x="749.5" y="-219.8" font-family="Helvetica,sans-Serif" font-size="11.00" fill="#000000">ResolvedHospitalizationStatusId</text>
<polygon fill="none" stroke="#000000" points="729.5,-193.7 729.5,-212.7 1036.5,-212.7 1036.5,-193.7 729.5,-193.7"/>
<text text-anchor="start" x="732.5" y="-199.8" font-family="Helvetica,sans-Serif" font-size="11.00" fill="#000000">...</text>
<polygon fill="#ffffff" stroke="transparent" points="729.5,-174.7 729.5,-193.7 1036.5,-193.7 1036.5,-174.7 729.5,-174.7"/>
<polygon fill="none" stroke="#000000" points="729.5,-174.7 729.5,-193.7 1036.5,-193.7 1036.5,-174.7 729.5,-174.7"/>
<polygon fill="#ffffff" stroke="transparent" points="730.5,-175.7 730.5,-192.7 838.5,-192.7 838.5,-175.7 730.5,-175.7"/>
<text text-anchor="start" x="732.5" y="-180.8" font-family="Helvetica,sans-Serif" font-size="11.00" fill="#000000">&lt; 7</text>
<polygon fill="#ffffff" stroke="transparent" points="838.5,-175.7 838.5,-192.7 937.5,-192.7 937.5,-175.7 838.5,-175.7"/>
<text text-anchor="start" x="884.9431" y="-180.8" font-family="Helvetica,sans-Serif" font-size="11.00" fill="#000000"> &#160;</text>
<polygon fill="#ffffff" stroke="transparent" points="937.5,-175.7 937.5,-192.7 1035.5,-192.7 1035.5,-175.7 937.5,-175.7"/>
<text text-anchor="start" x="1027.3862" y="-180.8" font-family="Helvetica,sans-Serif" font-size="11.00" fill="#000000"> &#160;</text>
<polygon fill="#000000" stroke="#000000" points="838.5,-175.7 838.5,-192.7 838.5,-192.7 838.5,-175.7 838.5,-175.7"/>
<polygon fill="#000000" stroke="#000000" points="937.5,-175.7 937.5,-192.7 937.5,-192.7 937.5,-175.7 937.5,-175.7"/>
</a>
</g>
</g>
<!-- ProviderAssignments&#45;&gt;ProviderAssignmentBatches -->
<g id="edge2" class="edge">
<title>ProviderAssignments:w&#45;&gt;ProviderAssignmentBatches:e</title>
<path fill="none" stroke="#000000" d="M716.1204,-361.5273C678.2571,-401.5926 735.6293,-634.7 678,-634.7"/>
<polygon fill="#000000" stroke="#000000" points="722.1655,-358.8945 730.9375,-359.0005 725.8327,-357.2973 729.5,-355.7 729.5,-355.7 729.5,-355.7 725.8327,-357.2973 728.0625,-352.3995 722.1655,-358.8945 722.1655,-358.8945"/>
<ellipse fill="none" stroke="#000000" cx="719.2316" cy="-360.1723" rx="3.2" ry="3.2"/>
</g>
<!-- Clinical.Hospitalizations -->
<g id="node4" class="node">
<title>Clinical.Hospitalizations</title>
<g id="a_node4"><a xlink:title="Clinical.Hospitalizations">
<polygon fill="#ffffff" stroke="transparent" points="407.5,-284.2 407.5,-345.2 622.5,-345.2 622.5,-284.2 407.5,-284.2"/>
<polygon fill="#f5f5f5" stroke="transparent" points="408,-321.7 408,-344.7 623,-344.7 623,-321.7 408,-321.7"/>
<polygon fill="none" stroke="#000000" points="408,-321.7 408,-344.7 623,-344.7 623,-321.7 408,-321.7"/>
<text text-anchor="start" x="413" y="-330.3" font-family="Helvetica,sans-Serif" font-weight="bold" font-size="11.00" fill="#000000">Clinical.Hospitalizations</text>
<text text-anchor="start" x="588.5219" y="-329.8" font-family="Helvetica,sans-Serif" font-size="11.00" fill="#000000">[table]</text>
<polygon fill="none" stroke="#000000" points="408,-302.7 408,-321.7 623,-321.7 623,-302.7 408,-302.7"/>
<text text-anchor="start" x="411" y="-308.8" font-family="Helvetica,sans-Serif" font-size="11.00" fill="#000000">...</text>
<polygon fill="#ffffff" stroke="transparent" points="408,-283.7 408,-302.7 623,-302.7 623,-283.7 408,-283.7"/>
<polygon fill="none" stroke="#000000" points="408,-283.7 408,-302.7 623,-302.7 623,-283.7 408,-283.7"/>
<polygon fill="#ffffff" stroke="transparent" points="409,-284.7 409,-301.7 477,-301.7 477,-284.7 409,-284.7"/>
<text text-anchor="start" x="411" y="-289.8" font-family="Helvetica,sans-Serif" font-size="11.00" fill="#000000"> &#160;</text>
<polygon fill="#ffffff" stroke="transparent" points="477,-284.7 477,-301.7 545,-301.7 545,-284.7 477,-284.7"/>
<text text-anchor="start" x="507.9431" y="-289.8" font-family="Helvetica,sans-Serif" font-size="11.00" fill="#000000"> &#160;</text>
<polygon fill="#ffffff" stroke="transparent" points="545,-284.7 545,-301.7 622,-301.7 622,-284.7 545,-284.7"/>
<text text-anchor="start" x="604.4053" y="-289.8" font-family="Helvetica,sans-Serif" font-size="11.00" fill="#000000">1 &gt;</text>
<polygon fill="#000000" stroke="#000000" points="477,-284.7 477,-301.7 477,-301.7 477,-284.7 477,-284.7"/>
<polygon fill="#000000" stroke="#000000" points="545,-284.7 545,-301.7 545,-301.7 545,-284.7 545,-284.7"/>
</a>
</g>
</g>
<!-- ProviderAssignments&#45;&gt;Clinical.Hospitalizations -->
<g id="edge3" class="edge">
<title>ProviderAssignments:w&#45;&gt;Clinical.Hospitalizations:e</title>
<path fill="none" stroke="#000000" d="M714.6775,-311.7C679.0301,-311.7 664.9714,-311.7 623,-311.7"/>
<polygon fill="#000000" stroke="#000000" points="721.5,-311.7001 729.5,-315.3 725.5,-311.7 729.5,-311.7 729.5,-311.7 729.5,-311.7 725.5,-311.7 729.5,-308.1 721.5,-311.7001 721.5,-311.7001"/>
<ellipse fill="none" stroke="#000000" cx="718.3" cy="-311.7001" rx="3.2" ry="3.2"/>
</g>
<!-- Clinical.HospitalizationStatuses -->
<g id="node5" class="node">
<title>Clinical.HospitalizationStatuses</title>
<g id="a_node5"><a xlink:title="Clinical.HospitalizationStatuses">
<polygon fill="#ffffff" stroke="transparent" points="379.5,-38.2 379.5,-99.2 650.5,-99.2 650.5,-38.2 379.5,-38.2"/>
<polygon fill="#f5f5f5" stroke="transparent" points="380,-75.7 380,-98.7 651,-98.7 651,-75.7 380,-75.7"/>
<polygon fill="none" stroke="#000000" points="380,-75.7 380,-98.7 651,-98.7 651,-75.7 380,-75.7"/>
<text text-anchor="start" x="385" y="-84.3" font-family="Helvetica,sans-Serif" font-weight="bold" font-size="11.00" fill="#000000">Clinical.HospitalizationStatuses</text>
<text text-anchor="start" x="616.5219" y="-83.8" font-family="Helvetica,sans-Serif" font-size="11.00" fill="#000000">[table]</text>
<polygon fill="none" stroke="#000000" points="380,-56.7 380,-75.7 651,-75.7 651,-56.7 380,-56.7"/>
<text text-anchor="start" x="383" y="-62.8" font-family="Helvetica,sans-Serif" font-size="11.00" fill="#000000">...</text>
<polygon fill="#ffffff" stroke="transparent" points="380,-37.7 380,-56.7 651,-56.7 651,-37.7 380,-37.7"/>
<polygon fill="none" stroke="#000000" points="380,-37.7 380,-56.7 651,-56.7 651,-37.7 380,-37.7"/>
<polygon fill="#ffffff" stroke="transparent" points="381,-38.7 381,-55.7 468,-55.7 468,-38.7 381,-38.7"/>
<text text-anchor="start" x="383" y="-43.8" font-family="Helvetica,sans-Serif" font-size="11.00" fill="#000000"> &#160;</text>
<polygon fill="#ffffff" stroke="transparent" points="468,-38.7 468,-55.7 555,-55.7 555,-38.7 468,-38.7"/>
<text text-anchor="start" x="508.4431" y="-43.8" font-family="Helvetica,sans-Serif" font-size="11.00" fill="#000000"> &#160;</text>
<polygon fill="#ffffff" stroke="transparent" points="555,-38.7 555,-55.7 650,-55.7 650,-38.7 555,-38.7"/>
<text text-anchor="start" x="632.4053" y="-43.8" font-family="Helvetica,sans-Serif" font-size="11.00" fill="#000000">1 &gt;</text>
<polygon fill="#000000" stroke="#000000" points="468,-38.7 468,-55.7 468,-55.7 468,-38.7 468,-38.7"/>
<polygon fill="#000000" stroke="#000000" points="555,-38.7 555,-55.7 555,-55.7 555,-38.7 555,-38.7"/>
</a>
</g>
</g>
<!-- ProviderAssignments&#45;&gt;Clinical.HospitalizationStatuses -->
<g id="edge4" class="edge">
<title>ProviderAssignments:w&#45;&gt;Clinical.HospitalizationStatuses:e</title>
<path fill="none" stroke="#000000" d="M715.1757,-221.4665C661.3277,-202.2624 723.8984,-65.7 651,-65.7"/>
<polygon fill="#000000" stroke="#000000" points="721.5955,-222.4674 728.9453,-227.257 725.5478,-223.0837 729.5,-223.7 729.5,-223.7 729.5,-223.7 725.5478,-223.0837 730.0547,-220.143 721.5955,-222.4674 721.5955,-222.4674"/>
<ellipse fill="none" stroke="#000000" cx="718.4337" cy="-221.9744" rx="3.2" ry="3.2"/>
</g>
<!-- Clinical.Providers -->
<g id="node6" class="node">
<title>Clinical.Providers</title>
<g id="a_node6"><a xlink:title="Clinical.Providers">
<polygon fill="#ffffff" stroke="transparent" points="431.5,-366.2 431.5,-427.2 598.5,-427.2 598.5,-366.2 431.5,-366.2"/>
<polygon fill="#f5f5f5" stroke="transparent" points="432,-403.7 432,-426.7 599,-426.7 599,-403.7 432,-403.7"/>
<polygon fill="none" stroke="#000000" points="432,-403.7 432,-426.7 599,-426.7 599,-403.7 432,-403.7"/>
<text text-anchor="start" x="437" y="-412.3" font-family="Helvetica,sans-Serif" font-weight="bold" font-size="11.00" fill="#000000">Clinical.Providers</text>
<text text-anchor="start" x="564.5219" y="-411.8" font-family="Helvetica,sans-Serif" font-size="11.00" fill="#000000">[table]</text>
<polygon fill="none" stroke="#000000" points="432,-384.7 432,-403.7 599,-403.7 599,-384.7 432,-384.7"/>
<text text-anchor="start" x="435" y="-390.8" font-family="Helvetica,sans-Serif" font-size="11.00" fill="#000000">...</text>
<polygon fill="#ffffff" stroke="transparent" points="432,-365.7 432,-384.7 599,-384.7 599,-365.7 432,-365.7"/>
<polygon fill="none" stroke="#000000" points="432,-365.7 432,-384.7 599,-384.7 599,-365.7 432,-365.7"/>
<polygon fill="#ffffff" stroke="transparent" points="433,-366.7 433,-383.7 485,-383.7 485,-366.7 433,-366.7"/>
<text text-anchor="start" x="435" y="-371.8" font-family="Helvetica,sans-Serif" font-size="11.00" fill="#000000"> &#160;</text>
<polygon fill="#ffffff" stroke="transparent" points="485,-366.7 485,-383.7 537,-383.7 537,-366.7 485,-366.7"/>
<text text-anchor="start" x="507.9431" y="-371.8" font-family="Helvetica,sans-Serif" font-size="11.00" fill="#000000"> &#160;</text>
<polygon fill="#ffffff" stroke="transparent" points="537,-366.7 537,-383.7 598,-383.7 598,-366.7 537,-366.7"/>
<text text-anchor="start" x="580.4053" y="-371.8" font-family="Helvetica,sans-Serif" font-size="11.00" fill="#000000">2 &gt;</text>
<polygon fill="#000000" stroke="#000000" points="485,-366.7 485,-383.7 485,-383.7 485,-366.7 485,-366.7"/>
<polygon fill="#000000" stroke="#000000" points="537,-366.7 537,-383.7 537,-383.7 537,-366.7 537,-366.7"/>
</a>
</g>
</g>
<!-- ProviderAssignments&#45;&gt;Clinical.Providers -->
<g id="edge5" class="edge">
<title>ProviderAssignments:w&#45;&gt;Clinical.Providers:e</title>
<path fill="none" stroke="#000000" d="M715.3836,-270.9016C694.2397,-283.4578 714.7602,-329.9154 688,-355.7 657.0279,-385.543 642.0102,-393.7 599,-393.7"/>
<polygon fill="#000000" stroke="#000000" points="721.6981,-269.4695 730.2963,-271.2108 725.5991,-268.5847 729.5,-267.7 729.5,-267.7 729.5,-267.7 725.5991,-268.5847 728.7037,-264.1892 721.6981,-269.4695 721.6981,-269.4695"/>
<ellipse fill="none" stroke="#000000" cx="718.5774" cy="-270.1773" rx="3.2" ry="3.2"/>
</g>
<!-- ProviderAssignments&#45;&gt;Clinical.Providers -->
<g id="edge7" class="edge">
<title>ProviderAssignments:w&#45;&gt;Clinical.Providers:e</title>
<path fill="none" stroke="#000000" d="M715.3091,-336.5489C706.1669,-340.8832 701.3929,-349.3048 688,-355.7 649.1877,-374.2332 642.0102,-393.7 599,-393.7"/>
<polygon fill="#000000" stroke="#000000" points="721.6565,-335.2747 730.2086,-337.2296 725.5782,-334.4873 729.5,-333.7 729.5,-333.7 729.5,-333.7 725.5782,-334.4873 728.7914,-330.1704 721.6565,-335.2747 721.6565,-335.2747"/>
<ellipse fill="none" stroke="#000000" cx="718.5191" cy="-335.9046" rx="3.2" ry="3.2"/>
</g>
<!-- Clinical.Patients -->
<g id="node7" class="node">
<title>Clinical.Patients</title>
<g id="a_node7"><a xlink:title="Clinical.Patients">
<polygon fill="#ffffff" stroke="transparent" points="436,-202.2 436,-263.2 594,-263.2 594,-202.2 436,-202.2"/>
<polygon fill="#f5f5f5" stroke="transparent" points="436,-239.7 436,-262.7 594,-262.7 594,-239.7 436,-239.7"/>
<polygon fill="none" stroke="#000000" points="436,-239.7 436,-262.7 594,-262.7 594,-239.7 436,-239.7"/>
<text text-anchor="start" x="441" y="-248.3" font-family="Helvetica,sans-Serif" font-weight="bold" font-size="11.00" fill="#000000">Clinical.Patients</text>
<text text-anchor="start" x="559.5219" y="-247.8" font-family="Helvetica,sans-Serif" font-size="11.00" fill="#000000">[table]</text>
<polygon fill="none" stroke="#000000" points="436,-220.7 436,-239.7 594,-239.7 594,-220.7 436,-220.7"/>
<text text-anchor="start" x="439" y="-226.8" font-family="Helvetica,sans-Serif" font-size="11.00" fill="#000000">...</text>
<polygon fill="#ffffff" stroke="transparent" points="436,-201.7 436,-220.7 594,-220.7 594,-201.7 436,-201.7"/>
<polygon fill="none" stroke="#000000" points="436,-201.7 436,-220.7 594,-220.7 594,-201.7 436,-201.7"/>
<polygon fill="#ffffff" stroke="transparent" points="437,-202.7 437,-219.7 486,-219.7 486,-202.7 437,-202.7"/>
<text text-anchor="start" x="439" y="-207.8" font-family="Helvetica,sans-Serif" font-size="11.00" fill="#000000"> &#160;</text>
<polygon fill="#ffffff" stroke="transparent" points="486,-202.7 486,-219.7 535,-219.7 535,-202.7 486,-202.7"/>
<text text-anchor="start" x="507.4431" y="-207.8" font-family="Helvetica,sans-Serif" font-size="11.00" fill="#000000"> &#160;</text>
<polygon fill="#ffffff" stroke="transparent" points="535,-202.7 535,-219.7 593,-219.7 593,-202.7 535,-202.7"/>
<text text-anchor="start" x="575.4053" y="-207.8" font-family="Helvetica,sans-Serif" font-size="11.00" fill="#000000">1 &gt;</text>
<polygon fill="#000000" stroke="#000000" points="486,-202.7 486,-219.7 486,-219.7 486,-202.7 486,-202.7"/>
<polygon fill="#000000" stroke="#000000" points="535,-202.7 535,-219.7 535,-219.7 535,-202.7 535,-202.7"/>
</a>
</g>
</g>
<!-- ProviderAssignments&#45;&gt;Clinical.Patients -->
<g id="edge6" class="edge">
<title>ProviderAssignments:w&#45;&gt;Clinical.Patients:e</title>
<path fill="none" stroke="#000000" d="M715.6706,-285.576C682.3889,-272.0203 607.8285,-229.7 594,-229.7"/>
<polygon fill="#000000" stroke="#000000" points="721.8336,-287.4138 728.4712,-293.1499 725.6668,-288.5569 729.5,-289.7 729.5,-289.7 729.5,-289.7 725.6668,-288.5569 730.5288,-286.2501 721.8336,-287.4138 721.8336,-287.4138"/>
<ellipse fill="none" stroke="#000000" cx="718.7671" cy="-286.4993" rx="3.2" ry="3.2"/>
</g>
<!-- Clinical.Visits -->
<g id="node8" class="node">
<title>Clinical.Visits</title>
<g id="a_node8"><a xlink:title="Clinical.Visits">
<polygon fill="#ffffff" stroke="transparent" points="446.5,-120.2 446.5,-181.2 583.5,-181.2 583.5,-120.2 446.5,-120.2"/>
<polygon fill="#f5f5f5" stroke="transparent" points="447,-157.7 447,-180.7 584,-180.7 584,-157.7 447,-157.7"/>
<polygon fill="none" stroke="#000000" points="447,-157.7 447,-180.7 584,-180.7 584,-157.7 447,-157.7"/>
<text text-anchor="start" x="452" y="-166.3" font-family="Helvetica,sans-Serif" font-weight="bold" font-size="11.00" fill="#000000">Clinical.Visits</text>
<text text-anchor="start" x="549.5219" y="-165.8" font-family="Helvetica,sans-Serif" font-size="11.00" fill="#000000">[table]</text>
<polygon fill="none" stroke="#000000" points="447,-138.7 447,-157.7 584,-157.7 584,-138.7 447,-138.7"/>
<text text-anchor="start" x="450" y="-144.8" font-family="Helvetica,sans-Serif" font-size="11.00" fill="#000000">...</text>
<polygon fill="#ffffff" stroke="transparent" points="447,-119.7 447,-138.7 584,-138.7 584,-119.7 447,-119.7"/>
<polygon fill="none" stroke="#000000" points="447,-119.7 447,-138.7 584,-138.7 584,-119.7 447,-119.7"/>
<polygon fill="#ffffff" stroke="transparent" points="448,-120.7 448,-137.7 490,-137.7 490,-120.7 448,-120.7"/>
<text text-anchor="start" x="450" y="-125.8" font-family="Helvetica,sans-Serif" font-size="11.00" fill="#000000"> &#160;</text>
<polygon fill="#ffffff" stroke="transparent" points="490,-120.7 490,-137.7 532,-137.7 532,-120.7 490,-120.7"/>
<text text-anchor="start" x="507.9431" y="-125.8" font-family="Helvetica,sans-Serif" font-size="11.00" fill="#000000"> &#160;</text>
<polygon fill="#ffffff" stroke="transparent" points="532,-120.7 532,-137.7 583,-137.7 583,-120.7 532,-120.7"/>
<text text-anchor="start" x="565.4053" y="-125.8" font-family="Helvetica,sans-Serif" font-size="11.00" fill="#000000">1 &gt;</text>
<polygon fill="#000000" stroke="#000000" points="490,-120.7 490,-137.7 490,-137.7 490,-120.7 490,-120.7"/>
<polygon fill="#000000" stroke="#000000" points="532,-120.7 532,-137.7 532,-137.7 532,-120.7 532,-120.7"/>
</a>
</g>
</g>
<!-- ProviderAssignments&#45;&gt;Clinical.Visits -->
<g id="edge8" class="edge">
<title>ProviderAssignments:w&#45;&gt;Clinical.Visits:e</title>
<path fill="none" stroke="#000000" d="M715.3362,-241.4549C702.9658,-231.4825 706.8989,-206.3039 688,-191.7 648.2866,-161.012 634.1888,-147.7 584,-147.7"/>
<polygon fill="#000000" stroke="#000000" points="721.8368,-243.4032 728.4664,-249.1484 725.6684,-244.5516 729.5,-245.7 729.5,-245.7 729.5,-245.7 725.6684,-244.5516 730.5336,-242.2516 721.8368,-243.4032 721.8368,-243.4032"/>
<ellipse fill="none" stroke="#000000" cx="718.7715" cy="-242.4845" rx="3.2" ry="3.2"/>
</g>
</g>
</svg>
