<?xml version="1.0" encoding="UTF-8" standalone="no"?>
<!DOCTYPE svg PUBLIC "-//W3C//DTD SVG 1.1//EN"
 "http://www.w3.org/Graphics/SVG/1.1/DTD/svg11.dtd">
<!-- Generated by graphviz version 2.40.1 (20161225.0304)
 -->
<!-- Title: twoDegreesRelationshipsDiagram Pages: 1 -->
<svg width="1113pt" height="976pt"
 viewBox="0.00 0.00 1113.00 976.20" xmlns="http://www.w3.org/2000/svg" xmlns:xlink="http://www.w3.org/1999/xlink">
<g id="graph0" class="graph" transform="scale(1 1) rotate(0) translate(4 972.2)">
<title>twoDegreesRelationshipsDiagram</title>
<polygon fill="#ffffff" stroke="transparent" points="-4,4 -4,-972.2 1109,-972.2 1109,4 -4,4"/>
<text text-anchor="middle" x="72.4936" y="-7.3" font-family="Helvetica,sans-Serif" font-size="11.00" fill="#000000">Generated by SchemaSpy</text>
<!-- ProviderAssignmentBatches -->
<g id="node1" class="node">
<title>ProviderAssignmentBatches</title>
<g id="a_node1"><a xlink:href="../../tables/ProviderAssignmentBatches.html" xlink:title="ProviderAssignmentBatches" target="_top">
<polygon fill="#ffffff" stroke="transparent" points="362.5,-533.7 362.5,-704.7 608.5,-704.7 608.5,-533.7 362.5,-533.7"/>
<polygon fill="#f5f5f5" stroke="transparent" points="362.5,-681.2 362.5,-704.2 608.5,-704.2 608.5,-681.2 362.5,-681.2"/>
<polygon fill="none" stroke="#000000" points="362.5,-681.2 362.5,-704.2 608.5,-704.2 608.5,-681.2 362.5,-681.2"/>
<text text-anchor="start" x="367.5" y="-689.8" font-family="Helvetica,sans-Serif" font-weight="bold" font-size="11.00" fill="#000000">ProviderAssignmentBatches</text>
<text text-anchor="start" x="574.0219" y="-689.3" font-family="Helvetica,sans-Serif" font-size="11.00" fill="#000000">[table]</text>
<polygon fill="none" stroke="#000000" points="362.5,-659.2 362.5,-681.2 608.5,-681.2 608.5,-659.2 362.5,-659.2"/>
<image xlink:href="../../images/primaryKeys.png" width="11px" height="12px" preserveAspectRatio="xMinYMin meet" x="367.5" y="-676.2"/>
<text text-anchor="start" x="391.5" y="-666.3" font-family="Helvetica,sans-Serif" font-size="11.00" fill="#000000">Id</text>
<polygon fill="#ffffff" stroke="transparent" points="362.5,-637.2 362.5,-659.2 608.5,-659.2 608.5,-637.2 362.5,-637.2"/>
<polygon fill="none" stroke="#000000" points="362.5,-637.2 362.5,-659.2 608.5,-659.2 608.5,-637.2 362.5,-637.2"/>
<text text-anchor="start" x="391.5" y="-644.3" font-family="Helvetica,sans-Serif" font-size="11.00" fill="#000000">Date</text>
<polygon fill="#ffffff" stroke="transparent" points="362.5,-615.2 362.5,-637.2 608.5,-637.2 608.5,-615.2 362.5,-615.2"/>
<polygon fill="none" stroke="#000000" points="362.5,-615.2 362.5,-637.2 608.5,-637.2 608.5,-615.2 362.5,-615.2"/>
<text text-anchor="start" x="391.5" y="-622.3" font-family="Helvetica,sans-Serif" font-size="11.00" fill="#000000">FacilityId</text>
<polygon fill="#ffffff" stroke="transparent" points="362.5,-593.2 362.5,-615.2 608.5,-615.2 608.5,-593.2 362.5,-593.2"/>
<polygon fill="none" stroke="#000000" points="362.5,-593.2 362.5,-615.2 608.5,-615.2 608.5,-593.2 362.5,-593.2"/>
<image xlink:href="../../images/foreignKeys.png" width="11px" height="12px" preserveAspectRatio="xMinYMin meet" x="367.5" y="-610.2"/>
<text text-anchor="start" x="391.5" y="-600.3" font-family="Helvetica,sans-Serif" font-size="11.00" fill="#000000">StatusId</text>
<polygon fill="#ffffff" stroke="transparent" points="362.5,-571.2 362.5,-593.2 608.5,-593.2 608.5,-571.2 362.5,-571.2"/>
<polygon fill="none" stroke="#000000" points="362.5,-571.2 362.5,-593.2 608.5,-593.2 608.5,-571.2 362.5,-571.2"/>
<text text-anchor="start" x="391.5" y="-578.3" font-family="Helvetica,sans-Serif" font-size="11.00" fill="#000000">CreatedByUserId</text>
<polygon fill="none" stroke="#000000" points="362.5,-552.2 362.5,-571.2 608.5,-571.2 608.5,-552.2 362.5,-552.2"/>
<text text-anchor="start" x="365.5" y="-558.3" font-family="Helvetica,sans-Serif" font-size="11.00" fill="#000000">...</text>
<polygon fill="#ffffff" stroke="transparent" points="362.5,-533.2 362.5,-552.2 608.5,-552.2 608.5,-533.2 362.5,-533.2"/>
<polygon fill="none" stroke="#000000" points="362.5,-533.2 362.5,-552.2 608.5,-552.2 608.5,-533.2 362.5,-533.2"/>
<polygon fill="#ffffff" stroke="transparent" points="363.5,-534.2 363.5,-551.2 448.5,-551.2 448.5,-534.2 363.5,-534.2"/>
<text text-anchor="start" x="365.5" y="-539.3" font-family="Helvetica,sans-Serif" font-size="11.00" fill="#000000">&lt; 1</text>
<polygon fill="#ffffff" stroke="transparent" points="448.5,-534.2 448.5,-551.2 523.5,-551.2 523.5,-534.2 448.5,-534.2"/>
<text text-anchor="start" x="482.9431" y="-539.3" font-family="Helvetica,sans-Serif" font-size="11.00" fill="#000000"> &#160;</text>
<polygon fill="#ffffff" stroke="transparent" points="523.5,-534.2 523.5,-551.2 607.5,-551.2 607.5,-534.2 523.5,-534.2"/>
<text text-anchor="start" x="589.9053" y="-539.3" font-family="Helvetica,sans-Serif" font-size="11.00" fill="#000000">1 &gt;</text>
<polygon fill="#000000" stroke="#000000" points="448.5,-534.2 448.5,-551.2 448.5,-551.2 448.5,-534.2 448.5,-534.2"/>
<polygon fill="#000000" stroke="#000000" points="523.5,-534.2 523.5,-551.2 523.5,-551.2 523.5,-534.2 523.5,-534.2"/>
</a>
</g>
</g>
<!-- ProviderAssignmentBatchStatuses -->
<g id="node2" class="node">
<title>ProviderAssignmentBatchStatuses</title>
<g id="a_node2"><a xlink:href="../../tables/ProviderAssignmentBatchStatuses.html" xlink:title="ProviderAssignmentBatchStatuses" target="_top">
<polygon fill="#ffffff" stroke="transparent" points="8,-576.7 8,-637.7 301,-637.7 301,-576.7 8,-576.7"/>
<polygon fill="#f5f5f5" stroke="transparent" points="8.5,-614.2 8.5,-637.2 301.5,-637.2 301.5,-614.2 8.5,-614.2"/>
<polygon fill="none" stroke="#000000" points="8.5,-614.2 8.5,-637.2 301.5,-637.2 301.5,-614.2 8.5,-614.2"/>
<text text-anchor="start" x="13.5" y="-622.8" font-family="Helvetica,sans-Serif" font-weight="bold" font-size="11.00" fill="#000000">ProviderAssignmentBatchStatuses</text>
<text text-anchor="start" x="267.0219" y="-622.3" font-family="Helvetica,sans-Serif" font-size="11.00" fill="#000000">[table]</text>
<polygon fill="none" stroke="#000000" points="8.5,-595.2 8.5,-614.2 301.5,-614.2 301.5,-595.2 8.5,-595.2"/>
<text text-anchor="start" x="11.5" y="-601.3" font-family="Helvetica,sans-Serif" font-size="11.00" fill="#000000">...</text>
<polygon fill="#ffffff" stroke="transparent" points="8.5,-576.2 8.5,-595.2 301.5,-595.2 301.5,-576.2 8.5,-576.2"/>
<polygon fill="none" stroke="#000000" points="8.5,-576.2 8.5,-595.2 301.5,-595.2 301.5,-576.2 8.5,-576.2"/>
<polygon fill="#ffffff" stroke="transparent" points="9.5,-577.2 9.5,-594.2 103.5,-594.2 103.5,-577.2 9.5,-577.2"/>
<text text-anchor="start" x="11.5" y="-582.3" font-family="Helvetica,sans-Serif" font-size="11.00" fill="#000000"> &#160;</text>
<polygon fill="#ffffff" stroke="transparent" points="103.5,-577.2 103.5,-594.2 197.5,-594.2 197.5,-577.2 103.5,-577.2"/>
<text text-anchor="start" x="147.4431" y="-582.3" font-family="Helvetica,sans-Serif" font-size="11.00" fill="#000000"> &#160;</text>
<polygon fill="#ffffff" stroke="transparent" points="197.5,-577.2 197.5,-594.2 300.5,-594.2 300.5,-577.2 197.5,-577.2"/>
<text text-anchor="start" x="282.9053" y="-582.3" font-family="Helvetica,sans-Serif" font-size="11.00" fill="#000000">1 &gt;</text>
<polygon fill="#000000" stroke="#000000" points="103.5,-577.2 103.5,-594.2 103.5,-594.2 103.5,-577.2 103.5,-577.2"/>
<polygon fill="#000000" stroke="#000000" points="197.5,-577.2 197.5,-594.2 197.5,-594.2 197.5,-577.2 197.5,-577.2"/>
</a>
</g>
</g>
<!-- ProviderAssignmentBatches&#45;&gt;ProviderAssignmentBatchStatuses -->
<g id="edge1" class="edge">
<title>ProviderAssignmentBatches:w&#45;&gt;ProviderAssignmentBatchStatuses:e</title>
<path fill="none" stroke="#000000" d="M347.6762,-604.2C331.6248,-604.2 322.8924,-604.2 301.5,-604.2"/>
<polygon fill="#000000" stroke="#000000" points="354.5,-604.2001 362.5,-607.8 358.5,-604.2 362.5,-604.2 362.5,-604.2 362.5,-604.2 358.5,-604.2 362.5,-600.6 354.5,-604.2001 354.5,-604.2001"/>
<ellipse fill="none" stroke="#000000" cx="351.3" cy="-604.2001" rx="3.2" ry="3.2"/>
</g>
<!-- ProviderAssignments -->
<g id="node3" class="node">
<title>ProviderAssignments</title>
<g id="a_node3"><a xlink:href="../../tables/ProviderAssignments.html" xlink:title="ProviderAssignments" target="_top">
<polygon fill="#ffffff" stroke="transparent" points="670,-38.2 670,-964.2 1097,-964.2 1097,-38.2 670,-38.2"/>
<polygon fill="#f5f5f5" stroke="transparent" points="672.5,-939.2 672.5,-962.2 1095.5,-962.2 1095.5,-939.2 672.5,-939.2"/>
<polygon fill="none" stroke="#000000" points="672.5,-939.2 672.5,-962.2 1095.5,-962.2 1095.5,-939.2 672.5,-939.2"/>
<text text-anchor="start" x="677.5" y="-947.8" font-family="Helvetica,sans-Serif" font-weight="bold" font-size="11.00" fill="#000000">ProviderAssignments</text>
<text text-anchor="start" x="1060.5437" y="-947.3" font-family="Helvetica,sans-Serif" font-size="11.00" fill="#000000">[table]</text>
<polygon fill="none" stroke="#000000" points="672.5,-917.2 672.5,-939.2 979.5,-939.2 979.5,-917.2 672.5,-917.2"/>
<image xlink:href="../../images/primaryKeys.png" width="11px" height="12px" preserveAspectRatio="xMinYMin meet" x="677.5" y="-934.2"/>
<text text-anchor="start" x="692.5" y="-924.3" font-family="Helvetica,sans-Serif" font-size="11.00" fill="#000000">Id</text>
<polygon fill="none" stroke="#000000" points="979.5,-917.2 979.5,-939.2 1095.5,-939.2 1095.5,-917.2 979.5,-917.2"/>
<text text-anchor="start" x="982.5" y="-924.9" font-family="Helvetica,sans-Serif" font-size="11.00" fill="#000000">int identity[4]</text>
<polygon fill="none" stroke="#000000" points="672.5,-895.2 672.5,-917.2 979.5,-917.2 979.5,-895.2 672.5,-895.2"/>
<text text-anchor="start" x="692.5" y="-902.3" font-family="Helvetica,sans-Serif" font-size="11.00" fill="#000000">Age</text>
<polygon fill="none" stroke="#000000" points="979.5,-895.2 979.5,-917.2 1095.5,-917.2 1095.5,-895.2 979.5,-895.2"/>
<text text-anchor="start" x="982.5" y="-902.9" font-family="Helvetica,sans-Serif" font-size="11.00" fill="#000000">int[4]</text>
<polygon fill="none" stroke="#000000" points="672.5,-873.2 672.5,-895.2 979.5,-895.2 979.5,-873.2 672.5,-873.2"/>
<text text-anchor="start" x="692.5" y="-880.3" font-family="Helvetica,sans-Serif" font-size="11.00" fill="#000000">AttendingMD</text>
<polygon fill="none" stroke="#000000" points="979.5,-873.2 979.5,-895.2 1095.5,-895.2 1095.5,-873.2 979.5,-873.2"/>
<text text-anchor="start" x="982.5" y="-880.9" font-family="Helvetica,sans-Serif" font-size="11.00" fill="#000000">nvarchar[510]</text>
<polygon fill="none" stroke="#000000" points="672.5,-851.2 672.5,-873.2 979.5,-873.2 979.5,-851.2 672.5,-851.2"/>
<text text-anchor="start" x="692.5" y="-858.3" font-family="Helvetica,sans-Serif" font-size="11.00" fill="#000000">HospitalNumber</text>
<polygon fill="none" stroke="#000000" points="979.5,-851.2 979.5,-873.2 1095.5,-873.2 1095.5,-851.2 979.5,-851.2"/>
<text text-anchor="start" x="982.5" y="-858.9" font-family="Helvetica,sans-Serif" font-size="11.00" fill="#000000">nvarchar[100]</text>
<polygon fill="none" stroke="#000000" points="672.5,-829.2 672.5,-851.2 979.5,-851.2 979.5,-829.2 672.5,-829.2"/>
<text text-anchor="start" x="692.5" y="-836.3" font-family="Helvetica,sans-Serif" font-size="11.00" fill="#000000">Admit</text>
<polygon fill="none" stroke="#000000" points="979.5,-829.2 979.5,-851.2 1095.5,-851.2 1095.5,-829.2 979.5,-829.2"/>
<text text-anchor="start" x="982.5" y="-836.9" font-family="Helvetica,sans-Serif" font-size="11.00" fill="#000000">smalldatetime[16]</text>
<polygon fill="none" stroke="#000000" points="672.5,-807.2 672.5,-829.2 979.5,-829.2 979.5,-807.2 672.5,-807.2"/>
<text text-anchor="start" x="692.5" y="-814.3" font-family="Helvetica,sans-Serif" font-size="11.00" fill="#000000">Dob</text>
<polygon fill="none" stroke="#000000" points="979.5,-807.2 979.5,-829.2 1095.5,-829.2 1095.5,-807.2 979.5,-807.2"/>
<text text-anchor="start" x="982.5" y="-814.9" font-family="Helvetica,sans-Serif" font-size="11.00" fill="#000000">date[6]</text>
<polygon fill="none" stroke="#000000" points="672.5,-785.2 672.5,-807.2 979.5,-807.2 979.5,-785.2 672.5,-785.2"/>
<text text-anchor="start" x="692.5" y="-792.3" font-family="Helvetica,sans-Serif" font-size="11.00" fill="#000000">FacilityId</text>
<polygon fill="none" stroke="#000000" points="979.5,-785.2 979.5,-807.2 1095.5,-807.2 1095.5,-785.2 979.5,-785.2"/>
<text text-anchor="start" x="982.5" y="-792.9" font-family="Helvetica,sans-Serif" font-size="11.00" fill="#000000">int[4]</text>
<polygon fill="none" stroke="#000000" points="672.5,-763.2 672.5,-785.2 979.5,-785.2 979.5,-763.2 672.5,-763.2"/>
<text text-anchor="start" x="692.5" y="-770.3" font-family="Helvetica,sans-Serif" font-size="11.00" fill="#000000">Mrn</text>
<polygon fill="none" stroke="#000000" points="979.5,-763.2 979.5,-785.2 1095.5,-785.2 1095.5,-763.2 979.5,-763.2"/>
<text text-anchor="start" x="982.5" y="-770.9" font-family="Helvetica,sans-Serif" font-size="11.00" fill="#000000">nvarchar[100]</text>
<polygon fill="none" stroke="#000000" points="672.5,-741.2 672.5,-763.2 979.5,-763.2 979.5,-741.2 672.5,-741.2"/>
<text text-anchor="start" x="692.5" y="-748.3" font-family="Helvetica,sans-Serif" font-size="11.00" fill="#000000">Name</text>
<polygon fill="none" stroke="#000000" points="979.5,-741.2 979.5,-763.2 1095.5,-763.2 1095.5,-741.2 979.5,-741.2"/>
<text text-anchor="start" x="982.5" y="-748.9" font-family="Helvetica,sans-Serif" font-size="11.00" fill="#000000">nvarchar[510]</text>
<polygon fill="none" stroke="#000000" points="672.5,-719.2 672.5,-741.2 979.5,-741.2 979.5,-719.2 672.5,-719.2"/>
<text text-anchor="start" x="692.5" y="-726.3" font-family="Helvetica,sans-Serif" font-size="11.00" fill="#000000">Insurance</text>
<polygon fill="none" stroke="#000000" points="979.5,-719.2 979.5,-741.2 1095.5,-741.2 1095.5,-719.2 979.5,-719.2"/>
<text text-anchor="start" x="982.5" y="-726.9" font-family="Helvetica,sans-Serif" font-size="11.00" fill="#000000">nvarchar[510]</text>
<polygon fill="none" stroke="#000000" points="672.5,-697.2 672.5,-719.2 979.5,-719.2 979.5,-697.2 672.5,-697.2"/>
<text text-anchor="start" x="692.5" y="-704.3" font-family="Helvetica,sans-Serif" font-size="11.00" fill="#000000">NursePractitioner</text>
<polygon fill="none" stroke="#000000" points="979.5,-697.2 979.5,-719.2 1095.5,-719.2 1095.5,-697.2 979.5,-697.2"/>
<text text-anchor="start" x="982.5" y="-704.9" font-family="Helvetica,sans-Serif" font-size="11.00" fill="#000000">nvarchar[510]</text>
<polygon fill="none" stroke="#000000" points="672.5,-675.2 672.5,-697.2 979.5,-697.2 979.5,-675.2 672.5,-675.2"/>
<text text-anchor="start" x="692.5" y="-682.3" font-family="Helvetica,sans-Serif" font-size="11.00" fill="#000000">IsCleared</text>
<polygon fill="none" stroke="#000000" points="979.5,-675.2 979.5,-697.2 1095.5,-697.2 1095.5,-675.2 979.5,-675.2"/>
<text text-anchor="start" x="982.5" y="-682.9" font-family="Helvetica,sans-Serif" font-size="11.00" fill="#000000">nvarchar[100]</text>
<polygon fill="none" stroke="#000000" points="672.5,-653.2 672.5,-675.2 979.5,-675.2 979.5,-653.2 672.5,-653.2"/>
<text text-anchor="start" x="692.5" y="-660.3" font-family="Helvetica,sans-Serif" font-size="11.00" fill="#000000">Location</text>
<polygon fill="none" stroke="#000000" points="979.5,-653.2 979.5,-675.2 1095.5,-675.2 1095.5,-653.2 979.5,-653.2"/>
<text text-anchor="start" x="982.5" y="-660.9" font-family="Helvetica,sans-Serif" font-size="11.00" fill="#000000">nvarchar[510]</text>
<polygon fill="none" stroke="#000000" points="672.5,-631.2 672.5,-653.2 979.5,-653.2 979.5,-631.2 672.5,-631.2"/>
<text text-anchor="start" x="692.5" y="-638.3" font-family="Helvetica,sans-Serif" font-size="11.00" fill="#000000">ServiceDate</text>
<polygon fill="none" stroke="#000000" points="979.5,-631.2 979.5,-653.2 1095.5,-653.2 1095.5,-631.2 979.5,-631.2"/>
<text text-anchor="start" x="982.5" y="-638.9" font-family="Helvetica,sans-Serif" font-size="11.00" fill="#000000">date[6]</text>
<polygon fill="none" stroke="#000000" points="672.5,-609.2 672.5,-631.2 979.5,-631.2 979.5,-609.2 672.5,-609.2"/>
<text text-anchor="start" x="692.5" y="-616.3" font-family="Helvetica,sans-Serif" font-size="11.00" fill="#000000">H_P</text>
<polygon fill="none" stroke="#000000" points="979.5,-609.2 979.5,-631.2 1095.5,-631.2 1095.5,-609.2 979.5,-609.2"/>
<text text-anchor="start" x="982.5" y="-616.9" font-family="Helvetica,sans-Serif" font-size="11.00" fill="#000000">nvarchar[510]</text>
<polygon fill="none" stroke="#000000" points="672.5,-587.2 672.5,-609.2 979.5,-609.2 979.5,-587.2 672.5,-587.2"/>
<text text-anchor="start" x="692.5" y="-594.3" font-family="Helvetica,sans-Serif" font-size="11.00" fill="#000000">PsychEval</text>
<polygon fill="none" stroke="#000000" points="979.5,-587.2 979.5,-609.2 1095.5,-609.2 1095.5,-587.2 979.5,-587.2"/>
<text text-anchor="start" x="982.5" y="-594.9" font-family="Helvetica,sans-Serif" font-size="11.00" fill="#000000">nvarchar[510]</text>
<polygon fill="#ffffff" stroke="transparent" points="672.5,-565.2 672.5,-587.2 979.5,-587.2 979.5,-565.2 672.5,-565.2"/>
<polygon fill="none" stroke="#000000" points="672.5,-565.2 672.5,-587.2 979.5,-587.2 979.5,-565.2 672.5,-565.2"/>
<image xlink:href="../../images/foreignKeys.png" width="11px" height="12px" preserveAspectRatio="xMinYMin meet" x="677.5" y="-582.2"/>
<text text-anchor="start" x="692.5" y="-572.3" font-family="Helvetica,sans-Serif" font-size="11.00" fill="#000000">BatchId</text>
<polygon fill="none" stroke="#000000" points="979.5,-565.2 979.5,-587.2 1095.5,-587.2 1095.5,-565.2 979.5,-565.2"/>
<text text-anchor="start" x="982.5" y="-572.9" font-family="Helvetica,sans-Serif" font-size="11.00" fill="#000000">uniqueidentifier[16]</text>
<polygon fill="none" stroke="#000000" points="672.5,-543.2 672.5,-565.2 979.5,-565.2 979.5,-543.2 672.5,-543.2"/>
<text text-anchor="start" x="692.5" y="-550.3" font-family="Helvetica,sans-Serif" font-size="11.00" fill="#000000">NormalizedPatientLastName</text>
<polygon fill="none" stroke="#000000" points="979.5,-543.2 979.5,-565.2 1095.5,-565.2 1095.5,-543.2 979.5,-543.2"/>
<text text-anchor="start" x="982.5" y="-550.9" font-family="Helvetica,sans-Serif" font-size="11.00" fill="#000000">nvarchar[200]</text>
<polygon fill="none" stroke="#000000" points="672.5,-521.2 672.5,-543.2 979.5,-543.2 979.5,-521.2 672.5,-521.2"/>
<text text-anchor="start" x="692.5" y="-528.3" font-family="Helvetica,sans-Serif" font-size="11.00" fill="#000000">NormalizedPatientFirstName</text>
<polygon fill="none" stroke="#000000" points="979.5,-521.2 979.5,-543.2 1095.5,-543.2 1095.5,-521.2 979.5,-521.2"/>
<text text-anchor="start" x="982.5" y="-528.9" font-family="Helvetica,sans-Serif" font-size="11.00" fill="#000000">nvarchar[200]</text>
<polygon fill="none" stroke="#000000" points="672.5,-499.2 672.5,-521.2 979.5,-521.2 979.5,-499.2 672.5,-499.2"/>
<text text-anchor="start" x="692.5" y="-506.3" font-family="Helvetica,sans-Serif" font-size="11.00" fill="#000000">NormalizedPhysicianLastName</text>
<polygon fill="none" stroke="#000000" points="979.5,-499.2 979.5,-521.2 1095.5,-521.2 1095.5,-499.2 979.5,-499.2"/>
<text text-anchor="start" x="982.5" y="-506.9" font-family="Helvetica,sans-Serif" font-size="11.00" fill="#000000">nvarchar[200]</text>
<polygon fill="none" stroke="#000000" points="672.5,-477.2 672.5,-499.2 979.5,-499.2 979.5,-477.2 672.5,-477.2"/>
<text text-anchor="start" x="692.5" y="-484.3" font-family="Helvetica,sans-Serif" font-size="11.00" fill="#000000">NormalizedNursePractitionerLastName</text>
<polygon fill="none" stroke="#000000" points="979.5,-477.2 979.5,-499.2 1095.5,-499.2 1095.5,-477.2 979.5,-477.2"/>
<text text-anchor="start" x="982.5" y="-484.9" font-family="Helvetica,sans-Serif" font-size="11.00" fill="#000000">nvarchar[200]</text>
<polygon fill="none" stroke="#000000" points="672.5,-455.2 672.5,-477.2 979.5,-477.2 979.5,-455.2 672.5,-455.2"/>
<text text-anchor="start" x="692.5" y="-462.3" font-family="Helvetica,sans-Serif" font-size="11.00" fill="#000000">Room</text>
<polygon fill="none" stroke="#000000" points="979.5,-455.2 979.5,-477.2 1095.5,-477.2 1095.5,-455.2 979.5,-455.2"/>
<text text-anchor="start" x="982.5" y="-462.9" font-family="Helvetica,sans-Serif" font-size="11.00" fill="#000000">nvarchar[40]</text>
<polygon fill="none" stroke="#000000" points="672.5,-433.2 672.5,-455.2 979.5,-455.2 979.5,-433.2 672.5,-433.2"/>
<text text-anchor="start" x="692.5" y="-440.3" font-family="Helvetica,sans-Serif" font-size="11.00" fill="#000000">Bed</text>
<polygon fill="none" stroke="#000000" points="979.5,-433.2 979.5,-455.2 1095.5,-455.2 1095.5,-433.2 979.5,-433.2"/>
<text text-anchor="start" x="982.5" y="-440.9" font-family="Helvetica,sans-Serif" font-size="11.00" fill="#000000">nvarchar[10]</text>
<polygon fill="#ffffff" stroke="transparent" points="672.5,-411.2 672.5,-433.2 979.5,-433.2 979.5,-411.2 672.5,-411.2"/>
<polygon fill="none" stroke="#000000" points="672.5,-411.2 672.5,-433.2 979.5,-433.2 979.5,-411.2 672.5,-411.2"/>
<image xlink:href="../../images/foreignKeys.png" width="11px" height="12px" preserveAspectRatio="xMinYMin meet" x="677.5" y="-428.2"/>
<text text-anchor="start" x="692.5" y="-418.3" font-family="Helvetica,sans-Serif" font-size="11.00" fill="#000000">ResolvedPhysicianId</text>
<polygon fill="none" stroke="#000000" points="979.5,-411.2 979.5,-433.2 1095.5,-433.2 1095.5,-411.2 979.5,-411.2"/>
<text text-anchor="start" x="982.5" y="-418.9" font-family="Helvetica,sans-Serif" font-size="11.00" fill="#000000">int[4]</text>
<polygon fill="#ffffff" stroke="transparent" points="672.5,-389.2 672.5,-411.2 979.5,-411.2 979.5,-389.2 672.5,-389.2"/>
<polygon fill="none" stroke="#000000" points="672.5,-389.2 672.5,-411.2 979.5,-411.2 979.5,-389.2 672.5,-389.2"/>
<image xlink:href="../../images/foreignKeys.png" width="11px" height="12px" preserveAspectRatio="xMinYMin meet" x="677.5" y="-406.2"/>
<text text-anchor="start" x="692.5" y="-396.3" font-family="Helvetica,sans-Serif" font-size="11.00" fill="#000000">ResolvedHospitalizationId</text>
<polygon fill="none" stroke="#000000" points="979.5,-389.2 979.5,-411.2 1095.5,-411.2 1095.5,-389.2 979.5,-389.2"/>
<text text-anchor="start" x="982.5" y="-396.9" font-family="Helvetica,sans-Serif" font-size="11.00" fill="#000000">int[4]</text>
<polygon fill="#ffffff" stroke="transparent" points="672.5,-367.2 672.5,-389.2 979.5,-389.2 979.5,-367.2 672.5,-367.2"/>
<polygon fill="none" stroke="#000000" points="672.5,-367.2 672.5,-389.2 979.5,-389.2 979.5,-367.2 672.5,-367.2"/>
<image xlink:href="../../images/foreignKeys.png" width="11px" height="12px" preserveAspectRatio="xMinYMin meet" x="677.5" y="-384.2"/>
<text text-anchor="start" x="692.5" y="-374.3" font-family="Helvetica,sans-Serif" font-size="11.00" fill="#000000">ResolvedPatientId</text>
<polygon fill="none" stroke="#000000" points="979.5,-367.2 979.5,-389.2 1095.5,-389.2 1095.5,-367.2 979.5,-367.2"/>
<text text-anchor="start" x="982.5" y="-374.9" font-family="Helvetica,sans-Serif" font-size="11.00" fill="#000000">int[4]</text>
<polygon fill="#ffffff" stroke="transparent" points="672.5,-345.2 672.5,-367.2 979.5,-367.2 979.5,-345.2 672.5,-345.2"/>
<polygon fill="none" stroke="#000000" points="672.5,-345.2 672.5,-367.2 979.5,-367.2 979.5,-345.2 672.5,-345.2"/>
<image xlink:href="../../images/foreignKeys.png" width="11px" height="12px" preserveAspectRatio="xMinYMin meet" x="677.5" y="-362.2"/>
<text text-anchor="start" x="692.5" y="-352.3" font-family="Helvetica,sans-Serif" font-size="11.00" fill="#000000">ResolvedNursePractitionerId</text>
<polygon fill="none" stroke="#000000" points="979.5,-345.2 979.5,-367.2 1095.5,-367.2 1095.5,-345.2 979.5,-345.2"/>
<text text-anchor="start" x="982.5" y="-352.9" font-family="Helvetica,sans-Serif" font-size="11.00" fill="#000000">int[4]</text>
<polygon fill="#ffffff" stroke="transparent" points="672.5,-323.2 672.5,-345.2 979.5,-345.2 979.5,-323.2 672.5,-323.2"/>
<polygon fill="none" stroke="#000000" points="672.5,-323.2 672.5,-345.2 979.5,-345.2 979.5,-323.2 672.5,-323.2"/>
<image xlink:href="../../images/foreignKeys.png" width="11px" height="12px" preserveAspectRatio="xMinYMin meet" x="677.5" y="-340.2"/>
<text text-anchor="start" x="692.5" y="-330.3" font-family="Helvetica,sans-Serif" font-size="11.00" fill="#000000">ResolvedVisitId</text>
<polygon fill="none" stroke="#000000" points="979.5,-323.2 979.5,-345.2 1095.5,-345.2 1095.5,-323.2 979.5,-323.2"/>
<text text-anchor="start" x="982.5" y="-330.9" font-family="Helvetica,sans-Serif" font-size="11.00" fill="#000000">int[4]</text>
<polygon fill="#ffffff" stroke="transparent" points="672.5,-301.2 672.5,-323.2 979.5,-323.2 979.5,-301.2 672.5,-301.2"/>
<polygon fill="none" stroke="#000000" points="672.5,-301.2 672.5,-323.2 979.5,-323.2 979.5,-301.2 672.5,-301.2"/>
<image xlink:href="../../images/foreignKeys.png" width="11px" height="12px" preserveAspectRatio="xMinYMin meet" x="677.5" y="-318.2"/>
<text text-anchor="start" x="692.5" y="-308.3" font-family="Helvetica,sans-Serif" font-size="11.00" fill="#000000">ResolvedHospitalizationStatusId</text>
<polygon fill="none" stroke="#000000" points="979.5,-301.2 979.5,-323.2 1095.5,-323.2 1095.5,-301.2 979.5,-301.2"/>
<text text-anchor="start" x="982.5" y="-308.9" font-family="Helvetica,sans-Serif" font-size="11.00" fill="#000000">int[4]</text>
<polygon fill="none" stroke="#000000" points="672.5,-279.2 672.5,-301.2 979.5,-301.2 979.5,-279.2 672.5,-279.2"/>
<text text-anchor="start" x="692.5" y="-286.3" font-family="Helvetica,sans-Serif" font-size="11.00" fill="#000000">ShouldImport</text>
<polygon fill="none" stroke="#000000" points="979.5,-279.2 979.5,-301.2 1095.5,-301.2 1095.5,-279.2 979.5,-279.2"/>
<text text-anchor="start" x="982.5" y="-286.9" font-family="Helvetica,sans-Serif" font-size="11.00" fill="#000000">bit[1]</text>
<polygon fill="none" stroke="#000000" points="672.5,-257.2 672.5,-279.2 979.5,-279.2 979.5,-257.2 672.5,-257.2"/>
<text text-anchor="start" x="692.5" y="-264.3" font-family="Helvetica,sans-Serif" font-size="11.00" fill="#000000">Imported</text>
<polygon fill="none" stroke="#000000" points="979.5,-257.2 979.5,-279.2 1095.5,-279.2 1095.5,-257.2 979.5,-257.2"/>
<text text-anchor="start" x="982.5" y="-264.9" font-family="Helvetica,sans-Serif" font-size="11.00" fill="#000000">bit[1]</text>
<polygon fill="none" stroke="#000000" points="672.5,-235.2 672.5,-257.2 979.5,-257.2 979.5,-235.2 672.5,-235.2"/>
<text text-anchor="start" x="692.5" y="-242.3" font-family="Helvetica,sans-Serif" font-size="11.00" fill="#000000">ValidationErrors</text>
<polygon fill="none" stroke="#000000" points="979.5,-235.2 979.5,-257.2 1095.5,-257.2 1095.5,-235.2 979.5,-235.2"/>
<text text-anchor="start" x="982.4769" y="-242.9" font-family="Helvetica,sans-Serif" font-size="11.00" fill="#000000">nvarchar[2147483647]</text>
<polygon fill="none" stroke="#000000" points="672.5,-213.2 672.5,-235.2 979.5,-235.2 979.5,-213.2 672.5,-213.2"/>
<text text-anchor="start" x="692.5" y="-220.3" font-family="Helvetica,sans-Serif" font-size="11.00" fill="#000000">PatientWasCreated</text>
<polygon fill="none" stroke="#000000" points="979.5,-213.2 979.5,-235.2 1095.5,-235.2 1095.5,-213.2 979.5,-213.2"/>
<text text-anchor="start" x="982.5" y="-220.9" font-family="Helvetica,sans-Serif" font-size="11.00" fill="#000000">bit[1]</text>
<polygon fill="none" stroke="#000000" points="672.5,-191.2 672.5,-213.2 979.5,-213.2 979.5,-191.2 672.5,-191.2"/>
<text text-anchor="start" x="692.5" y="-198.3" font-family="Helvetica,sans-Serif" font-size="11.00" fill="#000000">PatientFacilityWasCreated</text>
<polygon fill="none" stroke="#000000" points="979.5,-191.2 979.5,-213.2 1095.5,-213.2 1095.5,-191.2 979.5,-191.2"/>
<text text-anchor="start" x="982.5" y="-198.9" font-family="Helvetica,sans-Serif" font-size="11.00" fill="#000000">bit[1]</text>
<polygon fill="none" stroke="#000000" points="672.5,-169.2 672.5,-191.2 979.5,-191.2 979.5,-169.2 672.5,-169.2"/>
<text text-anchor="start" x="692.5" y="-176.3" font-family="Helvetica,sans-Serif" font-size="11.00" fill="#000000">PhysicianWasCreated</text>
<polygon fill="none" stroke="#000000" points="979.5,-169.2 979.5,-191.2 1095.5,-191.2 1095.5,-169.2 979.5,-169.2"/>
<text text-anchor="start" x="982.5" y="-176.9" font-family="Helvetica,sans-Serif" font-size="11.00" fill="#000000">bit[1]</text>
<polygon fill="none" stroke="#000000" points="672.5,-147.2 672.5,-169.2 979.5,-169.2 979.5,-147.2 672.5,-147.2"/>
<text text-anchor="start" x="692.5" y="-154.3" font-family="Helvetica,sans-Serif" font-size="11.00" fill="#000000">NursePractitionerWasCreated</text>
<polygon fill="none" stroke="#000000" points="979.5,-147.2 979.5,-169.2 1095.5,-169.2 1095.5,-147.2 979.5,-147.2"/>
<text text-anchor="start" x="982.5" y="-154.9" font-family="Helvetica,sans-Serif" font-size="11.00" fill="#000000">bit[1]</text>
<polygon fill="none" stroke="#000000" points="672.5,-125.2 672.5,-147.2 979.5,-147.2 979.5,-125.2 672.5,-125.2"/>
<text text-anchor="start" x="692.5" y="-132.3" font-family="Helvetica,sans-Serif" font-size="11.00" fill="#000000">HospitalizationWasCreated</text>
<polygon fill="none" stroke="#000000" points="979.5,-125.2 979.5,-147.2 1095.5,-147.2 1095.5,-125.2 979.5,-125.2"/>
<text text-anchor="start" x="982.5" y="-132.9" font-family="Helvetica,sans-Serif" font-size="11.00" fill="#000000">bit[1]</text>
<polygon fill="none" stroke="#000000" points="672.5,-103.2 672.5,-125.2 979.5,-125.2 979.5,-103.2 672.5,-103.2"/>
<text text-anchor="start" x="692.5" y="-110.3" font-family="Helvetica,sans-Serif" font-size="11.00" fill="#000000">CreatedAtUtc</text>
<polygon fill="none" stroke="#000000" points="979.5,-103.2 979.5,-125.2 1095.5,-125.2 1095.5,-103.2 979.5,-103.2"/>
<text text-anchor="start" x="982.5" y="-110.9" font-family="Helvetica,sans-Serif" font-size="11.00" fill="#000000">datetime2[16,7]</text>
<polygon fill="none" stroke="#000000" points="672.5,-81.2 672.5,-103.2 979.5,-103.2 979.5,-81.2 672.5,-81.2"/>
<text text-anchor="start" x="692.5" y="-88.3" font-family="Helvetica,sans-Serif" font-size="11.00" fill="#000000">UpdatedAtUtc</text>
<polygon fill="none" stroke="#000000" points="979.5,-81.2 979.5,-103.2 1095.5,-103.2 1095.5,-81.2 979.5,-81.2"/>
<text text-anchor="start" x="982.5" y="-88.9" font-family="Helvetica,sans-Serif" font-size="11.00" fill="#000000">datetime2[16,7]</text>
<polygon fill="none" stroke="#000000" points="672.5,-59.2 672.5,-81.2 979.5,-81.2 979.5,-59.2 672.5,-59.2"/>
<text text-anchor="start" x="692.5" y="-66.3" font-family="Helvetica,sans-Serif" font-size="11.00" fill="#000000">RowVersion</text>
<polygon fill="none" stroke="#000000" points="979.5,-59.2 979.5,-81.2 1095.5,-81.2 1095.5,-59.2 979.5,-59.2"/>
<text text-anchor="start" x="982.5" y="-66.9" font-family="Helvetica,sans-Serif" font-size="11.00" fill="#000000">timestamp[8]</text>
<polygon fill="#ffffff" stroke="transparent" points="672.5,-40.2 672.5,-59.2 1095.5,-59.2 1095.5,-40.2 672.5,-40.2"/>
<polygon fill="none" stroke="#000000" points="672.5,-40.2 672.5,-59.2 1095.5,-59.2 1095.5,-40.2 672.5,-40.2"/>
<polygon fill="#ffffff" stroke="transparent" points="673.5,-41.2 673.5,-58.2 817.5,-58.2 817.5,-41.2 673.5,-41.2"/>
<text text-anchor="start" x="675.5" y="-46.3" font-family="Helvetica,sans-Serif" font-size="11.00" fill="#000000">&lt; 7</text>
<polygon fill="#ffffff" stroke="transparent" points="817.5,-41.2 817.5,-58.2 951.5,-58.2 951.5,-41.2 817.5,-41.2"/>
<text text-anchor="start" x="881.4431" y="-46.3" font-family="Helvetica,sans-Serif" font-size="11.00" fill="#000000"> &#160;</text>
<polygon fill="#ffffff" stroke="transparent" points="951.5,-41.2 951.5,-58.2 1094.5,-58.2 1094.5,-41.2 951.5,-41.2"/>
<text text-anchor="start" x="1076.9053" y="-46.3" font-family="Helvetica,sans-Serif" font-size="11.00" fill="#000000">0 &gt;</text>
<polygon fill="#000000" stroke="#000000" points="817.5,-41.2 817.5,-58.2 817.5,-58.2 817.5,-41.2 817.5,-41.2"/>
<polygon fill="#000000" stroke="#000000" points="951.5,-41.2 951.5,-58.2 951.5,-58.2 951.5,-41.2 951.5,-41.2"/>
<polygon fill="none" stroke="#000000" stroke-width="2" points="671,-39.2 671,-963.2 1096,-963.2 1096,-39.2 671,-39.2"/>
</a>
</g>
</g>
<!-- ProviderAssignments&#45;&gt;ProviderAssignmentBatches -->
<g id="edge2" class="edge">
<title>ProviderAssignments:w&#45;&gt;ProviderAssignmentBatches:e</title>
<path fill="none" stroke="#000000" d="M658.4423,-579.5455C629.2355,-596.2906 653.3163,-670.2 608.5,-670.2"/>
<polygon fill="#000000" stroke="#000000" points="664.7174,-578.0522 673.3335,-579.7022 668.6087,-577.1261 672.5,-576.2 672.5,-576.2 672.5,-576.2 668.6087,-577.1261 671.6665,-572.6978 664.7174,-578.0522 664.7174,-578.0522"/>
<ellipse fill="none" stroke="#000000" cx="661.6043" cy="-578.7931" rx="3.2" ry="3.2"/>
</g>
<!-- Clinical.Hospitalizations -->
<g id="node4" class="node">
<title>Clinical.Hospitalizations</title>
<g id="a_node4"><a xlink:title="Clinical.Hospitalizations">
<polygon fill="#ffffff" stroke="transparent" points="378,-369.7 378,-430.7 593,-430.7 593,-369.7 378,-369.7"/>
<polygon fill="#f5f5f5" stroke="transparent" points="378.5,-407.2 378.5,-430.2 593.5,-430.2 593.5,-407.2 378.5,-407.2"/>
<polygon fill="none" stroke="#000000" points="378.5,-407.2 378.5,-430.2 593.5,-430.2 593.5,-407.2 378.5,-407.2"/>
<text text-anchor="start" x="383.5" y="-415.8" font-family="Helvetica,sans-Serif" font-weight="bold" font-size="11.00" fill="#000000">Clinical.Hospitalizations</text>
<text text-anchor="start" x="559.0219" y="-415.3" font-family="Helvetica,sans-Serif" font-size="11.00" fill="#000000">[table]</text>
<polygon fill="none" stroke="#000000" points="378.5,-388.2 378.5,-407.2 593.5,-407.2 593.5,-388.2 378.5,-388.2"/>
<text text-anchor="start" x="381.5" y="-394.3" font-family="Helvetica,sans-Serif" font-size="11.00" fill="#000000">...</text>
<polygon fill="#ffffff" stroke="transparent" points="378.5,-369.2 378.5,-388.2 593.5,-388.2 593.5,-369.2 378.5,-369.2"/>
<polygon fill="none" stroke="#000000" points="378.5,-369.2 378.5,-388.2 593.5,-388.2 593.5,-369.2 378.5,-369.2"/>
<polygon fill="#ffffff" stroke="transparent" points="379.5,-370.2 379.5,-387.2 447.5,-387.2 447.5,-370.2 379.5,-370.2"/>
<text text-anchor="start" x="381.5" y="-375.3" font-family="Helvetica,sans-Serif" font-size="11.00" fill="#000000"> &#160;</text>
<polygon fill="#ffffff" stroke="transparent" points="447.5,-370.2 447.5,-387.2 515.5,-387.2 515.5,-370.2 447.5,-370.2"/>
<text text-anchor="start" x="478.4431" y="-375.3" font-family="Helvetica,sans-Serif" font-size="11.00" fill="#000000"> &#160;</text>
<polygon fill="#ffffff" stroke="transparent" points="515.5,-370.2 515.5,-387.2 592.5,-387.2 592.5,-370.2 515.5,-370.2"/>
<text text-anchor="start" x="574.9053" y="-375.3" font-family="Helvetica,sans-Serif" font-size="11.00" fill="#000000">1 &gt;</text>
<polygon fill="#000000" stroke="#000000" points="447.5,-370.2 447.5,-387.2 447.5,-387.2 447.5,-370.2 447.5,-370.2"/>
<polygon fill="#000000" stroke="#000000" points="515.5,-370.2 515.5,-387.2 515.5,-387.2 515.5,-370.2 515.5,-370.2"/>
</a>
</g>
</g>
<!-- ProviderAssignments&#45;&gt;Clinical.Hospitalizations -->
<g id="edge3" class="edge">
<title>ProviderAssignments:w&#45;&gt;Clinical.Hospitalizations:e</title>
<path fill="none" stroke="#000000" d="M658.0017,-400.2C639.2891,-400.2 619.9178,-400.2 601.2138,-400.2"/>
<polygon fill="#000000" stroke="#000000" points="664.5,-400.2001 672.5,-403.8 668.5,-400.2 672.5,-400.2 672.5,-400.2 672.5,-400.2 668.5,-400.2 672.5,-396.6 664.5,-400.2001 664.5,-400.2001"/>
<ellipse fill="none" stroke="#000000" cx="661.3" cy="-400.2001" rx="3.2" ry="3.2"/>
</g>
<!-- Clinical.HospitalizationStatuses -->
<g id="node5" class="node">
<title>Clinical.HospitalizationStatuses</title>
<g id="a_node5"><a xlink:title="Clinical.HospitalizationStatuses">
<polygon fill="#ffffff" stroke="transparent" points="350,-123.7 350,-184.7 621,-184.7 621,-123.7 350,-123.7"/>
<polygon fill="#f5f5f5" stroke="transparent" points="350.5,-161.2 350.5,-184.2 621.5,-184.2 621.5,-161.2 350.5,-161.2"/>
<polygon fill="none" stroke="#000000" points="350.5,-161.2 350.5,-184.2 621.5,-184.2 621.5,-161.2 350.5,-161.2"/>
<text text-anchor="start" x="355.5" y="-169.8" font-family="Helvetica,sans-Serif" font-weight="bold" font-size="11.00" fill="#000000">Clinical.HospitalizationStatuses</text>
<text text-anchor="start" x="587.0219" y="-169.3" font-family="Helvetica,sans-Serif" font-size="11.00" fill="#000000">[table]</text>
<polygon fill="none" stroke="#000000" points="350.5,-142.2 350.5,-161.2 621.5,-161.2 621.5,-142.2 350.5,-142.2"/>
<text text-anchor="start" x="353.5" y="-148.3" font-family="Helvetica,sans-Serif" font-size="11.00" fill="#000000">...</text>
<polygon fill="#ffffff" stroke="transparent" points="350.5,-123.2 350.5,-142.2 621.5,-142.2 621.5,-123.2 350.5,-123.2"/>
<polygon fill="none" stroke="#000000" points="350.5,-123.2 350.5,-142.2 621.5,-142.2 621.5,-123.2 350.5,-123.2"/>
<polygon fill="#ffffff" stroke="transparent" points="351.5,-124.2 351.5,-141.2 438.5,-141.2 438.5,-124.2 351.5,-124.2"/>
<text text-anchor="start" x="353.5" y="-129.3" font-family="Helvetica,sans-Serif" font-size="11.00" fill="#000000"> &#160;</text>
<polygon fill="#ffffff" stroke="transparent" points="438.5,-124.2 438.5,-141.2 525.5,-141.2 525.5,-124.2 438.5,-124.2"/>
<text text-anchor="start" x="478.9431" y="-129.3" font-family="Helvetica,sans-Serif" font-size="11.00" fill="#000000"> &#160;</text>
<polygon fill="#ffffff" stroke="transparent" points="525.5,-124.2 525.5,-141.2 620.5,-141.2 620.5,-124.2 525.5,-124.2"/>
<text text-anchor="start" x="602.9053" y="-129.3" font-family="Helvetica,sans-Serif" font-size="11.00" fill="#000000">1 &gt;</text>
<polygon fill="#000000" stroke="#000000" points="438.5,-124.2 438.5,-141.2 438.5,-141.2 438.5,-124.2 438.5,-124.2"/>
<polygon fill="#000000" stroke="#000000" points="525.5,-124.2 525.5,-141.2 525.5,-141.2 525.5,-124.2 525.5,-124.2"/>
</a>
</g>
</g>
<!-- ProviderAssignments&#45;&gt;Clinical.HospitalizationStatuses -->
<g id="edge4" class="edge">
<title>ProviderAssignments:w&#45;&gt;Clinical.HospitalizationStatuses:e</title>
<path fill="none" stroke="#000000" d="M657.9149,-309.5115C627.4327,-295.3462 665.268,-228.7554 629,-195.2 626.5276,-192.9125 623.9362,-190.7516 621.2444,-188.7103"/>
<polygon fill="#000000" stroke="#000000" points="664.6325,-310.7497 671.8474,-315.7404 668.5663,-311.4749 672.5,-312.2 672.5,-312.2 672.5,-312.2 668.5663,-311.4749 673.1526,-308.6596 664.6325,-310.7497 664.6325,-310.7497"/>
<ellipse fill="none" stroke="#000000" cx="661.4856" cy="-310.1696" rx="3.2" ry="3.2"/>
</g>
<!-- Clinical.Providers -->
<g id="node6" class="node">
<title>Clinical.Providers</title>
<g id="a_node6"><a xlink:title="Clinical.Providers">
<polygon fill="#ffffff" stroke="transparent" points="402,-451.7 402,-512.7 569,-512.7 569,-451.7 402,-451.7"/>
<polygon fill="#f5f5f5" stroke="transparent" points="402.5,-489.2 402.5,-512.2 569.5,-512.2 569.5,-489.2 402.5,-489.2"/>
<polygon fill="none" stroke="#000000" points="402.5,-489.2 402.5,-512.2 569.5,-512.2 569.5,-489.2 402.5,-489.2"/>
<text text-anchor="start" x="407.5" y="-497.8" font-family="Helvetica,sans-Serif" font-weight="bold" font-size="11.00" fill="#000000">Clinical.Providers</text>
<text text-anchor="start" x="535.0219" y="-497.3" font-family="Helvetica,sans-Serif" font-size="11.00" fill="#000000">[table]</text>
<polygon fill="none" stroke="#000000" points="402.5,-470.2 402.5,-489.2 569.5,-489.2 569.5,-470.2 402.5,-470.2"/>
<text text-anchor="start" x="405.5" y="-476.3" font-family="Helvetica,sans-Serif" font-size="11.00" fill="#000000">...</text>
<polygon fill="#ffffff" stroke="transparent" points="402.5,-451.2 402.5,-470.2 569.5,-470.2 569.5,-451.2 402.5,-451.2"/>
<polygon fill="none" stroke="#000000" points="402.5,-451.2 402.5,-470.2 569.5,-470.2 569.5,-451.2 402.5,-451.2"/>
<polygon fill="#ffffff" stroke="transparent" points="403.5,-452.2 403.5,-469.2 455.5,-469.2 455.5,-452.2 403.5,-452.2"/>
<text text-anchor="start" x="405.5" y="-457.3" font-family="Helvetica,sans-Serif" font-size="11.00" fill="#000000"> &#160;</text>
<polygon fill="#ffffff" stroke="transparent" points="455.5,-452.2 455.5,-469.2 507.5,-469.2 507.5,-452.2 455.5,-452.2"/>
<text text-anchor="start" x="478.4431" y="-457.3" font-family="Helvetica,sans-Serif" font-size="11.00" fill="#000000"> &#160;</text>
<polygon fill="#ffffff" stroke="transparent" points="507.5,-452.2 507.5,-469.2 568.5,-469.2 568.5,-452.2 507.5,-452.2"/>
<text text-anchor="start" x="550.9053" y="-457.3" font-family="Helvetica,sans-Serif" font-size="11.00" fill="#000000">2 &gt;</text>
<polygon fill="#000000" stroke="#000000" points="455.5,-452.2 455.5,-469.2 455.5,-469.2 455.5,-452.2 455.5,-452.2"/>
<polygon fill="#000000" stroke="#000000" points="507.5,-452.2 507.5,-469.2 507.5,-469.2 507.5,-452.2 507.5,-452.2"/>
</a>
</g>
</g>
<!-- ProviderAssignments&#45;&gt;Clinical.Providers -->
<g id="edge5" class="edge">
<title>ProviderAssignments:w&#45;&gt;Clinical.Providers:e</title>
<path fill="none" stroke="#000000" d="M658.328,-359.5688C637.8842,-372.3307 657.0445,-418.1461 629,-441.2 614.0886,-453.4579 595.703,-462.0536 577.1283,-468.0805"/>
<polygon fill="#000000" stroke="#000000" points="664.7169,-358.0501 673.3326,-359.7024 668.6084,-357.1251 672.5,-356.2 672.5,-356.2 672.5,-356.2 668.6084,-357.1251 671.6674,-352.6976 664.7169,-358.0501 664.7169,-358.0501"/>
<ellipse fill="none" stroke="#000000" cx="661.6036" cy="-358.7902" rx="3.2" ry="3.2"/>
</g>
<!-- ProviderAssignments&#45;&gt;Clinical.Providers -->
<g id="edge7" class="edge">
<title>ProviderAssignments:w&#45;&gt;Clinical.Providers:e</title>
<path fill="none" stroke="#000000" d="M658.3032,-424.6463C648.6001,-428.4995 643.2697,-436.071 629,-441.2 612.4196,-447.1595 594.5227,-452.8459 577.1785,-457.9837"/>
<polygon fill="#000000" stroke="#000000" points="664.6162,-423.5585 673.1113,-425.7477 668.5581,-422.8793 672.5,-422.2 672.5,-422.2 672.5,-422.2 668.5581,-422.8793 671.8887,-418.6523 664.6162,-423.5585 664.6162,-423.5585"/>
<ellipse fill="none" stroke="#000000" cx="661.4627" cy="-424.1019" rx="3.2" ry="3.2"/>
</g>
<!-- Clinical.Patients -->
<g id="node7" class="node">
<title>Clinical.Patients</title>
<g id="a_node7"><a xlink:title="Clinical.Patients">
<polygon fill="#ffffff" stroke="transparent" points="406.5,-287.7 406.5,-348.7 564.5,-348.7 564.5,-287.7 406.5,-287.7"/>
<polygon fill="#f5f5f5" stroke="transparent" points="406.5,-325.2 406.5,-348.2 564.5,-348.2 564.5,-325.2 406.5,-325.2"/>
<polygon fill="none" stroke="#000000" points="406.5,-325.2 406.5,-348.2 564.5,-348.2 564.5,-325.2 406.5,-325.2"/>
<text text-anchor="start" x="411.5" y="-333.8" font-family="Helvetica,sans-Serif" font-weight="bold" font-size="11.00" fill="#000000">Clinical.Patients</text>
<text text-anchor="start" x="530.0219" y="-333.3" font-family="Helvetica,sans-Serif" font-size="11.00" fill="#000000">[table]</text>
<polygon fill="none" stroke="#000000" points="406.5,-306.2 406.5,-325.2 564.5,-325.2 564.5,-306.2 406.5,-306.2"/>
<text text-anchor="start" x="409.5" y="-312.3" font-family="Helvetica,sans-Serif" font-size="11.00" fill="#000000">...</text>
<polygon fill="#ffffff" stroke="transparent" points="406.5,-287.2 406.5,-306.2 564.5,-306.2 564.5,-287.2 406.5,-287.2"/>
<polygon fill="none" stroke="#000000" points="406.5,-287.2 406.5,-306.2 564.5,-306.2 564.5,-287.2 406.5,-287.2"/>
<polygon fill="#ffffff" stroke="transparent" points="407.5,-288.2 407.5,-305.2 456.5,-305.2 456.5,-288.2 407.5,-288.2"/>
<text text-anchor="start" x="409.5" y="-293.3" font-family="Helvetica,sans-Serif" font-size="11.00" fill="#000000"> &#160;</text>
<polygon fill="#ffffff" stroke="transparent" points="456.5,-288.2 456.5,-305.2 505.5,-305.2 505.5,-288.2 456.5,-288.2"/>
<text text-anchor="start" x="477.9431" y="-293.3" font-family="Helvetica,sans-Serif" font-size="11.00" fill="#000000"> &#160;</text>
<polygon fill="#ffffff" stroke="transparent" points="505.5,-288.2 505.5,-305.2 563.5,-305.2 563.5,-288.2 505.5,-288.2"/>
<text text-anchor="start" x="545.9053" y="-293.3" font-family="Helvetica,sans-Serif" font-size="11.00" fill="#000000">1 &gt;</text>
<polygon fill="#000000" stroke="#000000" points="456.5,-288.2 456.5,-305.2 456.5,-305.2 456.5,-288.2 456.5,-288.2"/>
<polygon fill="#000000" stroke="#000000" points="505.5,-288.2 505.5,-305.2 505.5,-305.2 505.5,-288.2 505.5,-288.2"/>
</a>
</g>
</g>
<!-- ProviderAssignments&#45;&gt;Clinical.Patients -->
<g id="edge6" class="edge">
<title>ProviderAssignments:w&#45;&gt;Clinical.Patients:e</title>
<path fill="none" stroke="#000000" d="M658.3032,-375.7537C648.6001,-371.9005 643.2697,-364.329 629,-359.2 610.9567,-352.7146 591.3542,-346.5528 572.6016,-341.0693"/>
<polygon fill="#000000" stroke="#000000" points="664.6162,-376.8415 671.8887,-381.7477 668.5581,-377.5207 672.5,-378.2 672.5,-378.2 672.5,-378.2 668.5581,-377.5207 673.1113,-374.6523 664.6162,-376.8415 664.6162,-376.8415"/>
<ellipse fill="none" stroke="#000000" cx="661.4627" cy="-376.2981" rx="3.2" ry="3.2"/>
</g>
<!-- Clinical.Visits -->
<g id="node8" class="node">
<title>Clinical.Visits</title>
<g id="a_node8"><a xlink:title="Clinical.Visits">
<polygon fill="#ffffff" stroke="transparent" points="417,-205.7 417,-266.7 554,-266.7 554,-205.7 417,-205.7"/>
<polygon fill="#f5f5f5" stroke="transparent" points="417.5,-243.2 417.5,-266.2 554.5,-266.2 554.5,-243.2 417.5,-243.2"/>
<polygon fill="none" stroke="#000000" points="417.5,-243.2 417.5,-266.2 554.5,-266.2 554.5,-243.2 417.5,-243.2"/>
<text text-anchor="start" x="422.5" y="-251.8" font-family="Helvetica,sans-Serif" font-weight="bold" font-size="11.00" fill="#000000">Clinical.Visits</text>
<text text-anchor="start" x="520.0219" y="-251.3" font-family="Helvetica,sans-Serif" font-size="11.00" fill="#000000">[table]</text>
<polygon fill="none" stroke="#000000" points="417.5,-224.2 417.5,-243.2 554.5,-243.2 554.5,-224.2 417.5,-224.2"/>
<text text-anchor="start" x="420.5" y="-230.3" font-family="Helvetica,sans-Serif" font-size="11.00" fill="#000000">...</text>
<polygon fill="#ffffff" stroke="transparent" points="417.5,-205.2 417.5,-224.2 554.5,-224.2 554.5,-205.2 417.5,-205.2"/>
<polygon fill="none" stroke="#000000" points="417.5,-205.2 417.5,-224.2 554.5,-224.2 554.5,-205.2 417.5,-205.2"/>
<polygon fill="#ffffff" stroke="transparent" points="418.5,-206.2 418.5,-223.2 460.5,-223.2 460.5,-206.2 418.5,-206.2"/>
<text text-anchor="start" x="420.5" y="-211.3" font-family="Helvetica,sans-Serif" font-size="11.00" fill="#000000"> &#160;</text>
<polygon fill="#ffffff" stroke="transparent" points="460.5,-206.2 460.5,-223.2 502.5,-223.2 502.5,-206.2 460.5,-206.2"/>
<text text-anchor="start" x="478.4431" y="-211.3" font-family="Helvetica,sans-Serif" font-size="11.00" fill="#000000"> &#160;</text>
<polygon fill="#ffffff" stroke="transparent" points="502.5,-206.2 502.5,-223.2 553.5,-223.2 553.5,-206.2 502.5,-206.2"/>
<text text-anchor="start" x="535.9053" y="-211.3" font-family="Helvetica,sans-Serif" font-size="11.00" fill="#000000">1 &gt;</text>
<polygon fill="#000000" stroke="#000000" points="460.5,-206.2 460.5,-223.2 460.5,-223.2 460.5,-206.2 460.5,-206.2"/>
<polygon fill="#000000" stroke="#000000" points="502.5,-206.2 502.5,-223.2 502.5,-223.2 502.5,-206.2 502.5,-206.2"/>
</a>
</g>
</g>
<!-- ProviderAssignments&#45;&gt;Clinical.Visits -->
<g id="edge8" class="edge">
<title>ProviderAssignments:w&#45;&gt;Clinical.Visits:e</title>
<path fill="none" stroke="#000000" d="M658.5035,-330.1799C644.8074,-319.7533 650.1846,-291.6501 629,-277.2 609.2006,-263.6947 584.9742,-254.5963 562.1051,-248.4832"/>
<polygon fill="#000000" stroke="#000000" points="664.8109,-331.9915 671.5062,-337.6601 668.6554,-333.0957 672.5,-334.2 672.5,-334.2 672.5,-334.2 668.6554,-333.0957 673.4938,-330.7399 664.8109,-331.9915 664.8109,-331.9915"/>
<ellipse fill="none" stroke="#000000" cx="661.7352" cy="-331.1081" rx="3.2" ry="3.2"/>
</g>
</g>
</svg>
