<?xml version="1.0" encoding="UTF-8" standalone="no"?>
<!DOCTYPE svg PUBLIC "-//W3C//DTD SVG 1.1//EN"
 "http://www.w3.org/Graphics/SVG/1.1/DTD/svg11.dtd">
<!-- Generated by graphviz version 2.40.1 (20161225.0304)
 -->
<!-- Title: twoDegreesRelationshipsDiagram Pages: 1 -->
<svg width="752pt" height="368pt"
 viewBox="0.00 0.00 752.00 367.70" xmlns="http://www.w3.org/2000/svg" xmlns:xlink="http://www.w3.org/1999/xlink">
<g id="graph0" class="graph" transform="scale(1 1) rotate(0) translate(4 363.7)">
<title>twoDegreesRelationshipsDiagram</title>
<polygon fill="#ffffff" stroke="transparent" points="-4,4 -4,-363.7 748,-363.7 748,4 -4,4"/>
<text text-anchor="middle" x="72.4936" y="-7.3" font-family="Helvetica,sans-Serif" font-size="11.00" fill="#000000">Generated by SchemaSpy</text>
<!-- VisitAttendants -->
<g id="node1" class="node">
<title>VisitAttendants</title>
<g id="a_node1"><a xlink:href="../../tables/VisitAttendants.html" xlink:title="VisitAttendants" target="_top">
<polygon fill="#ffffff" stroke="transparent" points="532,-130.7 532,-191.7 685,-191.7 685,-130.7 532,-130.7"/>
<polygon fill="#f5f5f5" stroke="transparent" points="532.5,-168.2 532.5,-191.2 685.5,-191.2 685.5,-168.2 532.5,-168.2"/>
<polygon fill="none" stroke="#000000" points="532.5,-168.2 532.5,-191.2 685.5,-191.2 685.5,-168.2 532.5,-168.2"/>
<text text-anchor="start" x="537.5" y="-176.8" font-family="Helvetica,sans-Serif" font-weight="bold" font-size="11.00" fill="#000000">VisitAttendants</text>
<text text-anchor="start" x="651.0219" y="-176.3" font-family="Helvetica,sans-Serif" font-size="11.00" fill="#000000">[table]</text>
<polygon fill="none" stroke="#000000" points="532.5,-149.2 532.5,-168.2 685.5,-168.2 685.5,-149.2 532.5,-149.2"/>
<text text-anchor="start" x="535.5" y="-155.3" font-family="Helvetica,sans-Serif" font-size="11.00" fill="#000000">...</text>
<polygon fill="#ffffff" stroke="transparent" points="532.5,-130.2 532.5,-149.2 685.5,-149.2 685.5,-130.2 532.5,-130.2"/>
<polygon fill="none" stroke="#000000" points="532.5,-130.2 532.5,-149.2 685.5,-149.2 685.5,-130.2 532.5,-130.2"/>
<polygon fill="#ffffff" stroke="transparent" points="533.5,-131.2 533.5,-148.2 590.5,-148.2 590.5,-131.2 533.5,-131.2"/>
<text text-anchor="start" x="535.5" y="-136.3" font-family="Helvetica,sans-Serif" font-size="11.00" fill="#000000">&lt; 2</text>
<polygon fill="#ffffff" stroke="transparent" points="590.5,-131.2 590.5,-148.2 637.5,-148.2 637.5,-131.2 590.5,-131.2"/>
<text text-anchor="start" x="610.9431" y="-136.3" font-family="Helvetica,sans-Serif" font-size="11.00" fill="#000000"> &#160;</text>
<polygon fill="#ffffff" stroke="transparent" points="637.5,-131.2 637.5,-148.2 684.5,-148.2 684.5,-131.2 637.5,-131.2"/>
<text text-anchor="start" x="676.3862" y="-136.3" font-family="Helvetica,sans-Serif" font-size="11.00" fill="#000000"> &#160;</text>
<polygon fill="#000000" stroke="#000000" points="590.5,-131.2 590.5,-148.2 590.5,-148.2 590.5,-131.2 590.5,-131.2"/>
<polygon fill="#000000" stroke="#000000" points="637.5,-131.2 637.5,-148.2 637.5,-148.2 637.5,-131.2 637.5,-131.2"/>
</a>
</g>
</g>
<!-- Visits -->
<g id="node2" class="node">
<title>Visits</title>
<g id="a_node2"><a xlink:href="../../tables/Visits.html" xlink:title="Visits" target="_top">
<polygon fill="#ffffff" stroke="transparent" points="266,-131.7 266,-280.7 432,-280.7 432,-131.7 266,-131.7"/>
<polygon fill="#f5f5f5" stroke="transparent" points="266,-257.2 266,-280.2 432,-280.2 432,-257.2 266,-257.2"/>
<polygon fill="none" stroke="#000000" points="266,-257.2 266,-280.2 432,-280.2 432,-257.2 266,-257.2"/>
<text text-anchor="start" x="271" y="-265.8" font-family="Helvetica,sans-Serif" font-weight="bold" font-size="11.00" fill="#000000">Visits</text>
<text text-anchor="start" x="397.0437" y="-265.3" font-family="Helvetica,sans-Serif" font-size="11.00" fill="#000000">[table]</text>
<polygon fill="none" stroke="#000000" points="266,-235.2 266,-257.2 432,-257.2 432,-235.2 266,-235.2"/>
<image xlink:href="../../images/primaryKeys.png" width="11px" height="12px" preserveAspectRatio="xMinYMin meet" x="271" y="-252.2"/>
<text text-anchor="start" x="286" y="-242.3" font-family="Helvetica,sans-Serif" font-size="11.00" fill="#000000">Id</text>
<polygon fill="#ffffff" stroke="transparent" points="266,-213.2 266,-235.2 432,-235.2 432,-213.2 266,-213.2"/>
<polygon fill="none" stroke="#000000" points="266,-213.2 266,-235.2 432,-235.2 432,-213.2 266,-213.2"/>
<text text-anchor="start" x="286" y="-220.3" font-family="Helvetica,sans-Serif" font-size="11.00" fill="#000000">DateServiced</text>
<polygon fill="#ffffff" stroke="transparent" points="266,-191.2 266,-213.2 432,-213.2 432,-191.2 266,-191.2"/>
<polygon fill="none" stroke="#000000" points="266,-191.2 266,-213.2 432,-213.2 432,-191.2 266,-191.2"/>
<image xlink:href="../../images/foreignKeys.png" width="11px" height="12px" preserveAspectRatio="xMinYMin meet" x="271" y="-208.2"/>
<text text-anchor="start" x="286" y="-198.3" font-family="Helvetica,sans-Serif" font-size="11.00" fill="#000000">HospitalizationId</text>
<polygon fill="#ffffff" stroke="transparent" points="266,-169.2 266,-191.2 432,-191.2 432,-169.2 266,-169.2"/>
<polygon fill="none" stroke="#000000" points="266,-169.2 266,-191.2 432,-191.2 432,-169.2 266,-169.2"/>
<image xlink:href="../../images/foreignKeys.png" width="11px" height="12px" preserveAspectRatio="xMinYMin meet" x="271" y="-186.2"/>
<text text-anchor="start" x="286" y="-176.3" font-family="Helvetica,sans-Serif" font-size="11.00" fill="#000000">ServiceTypeId</text>
<polygon fill="none" stroke="#000000" points="266,-150.2 266,-169.2 432,-169.2 432,-150.2 266,-150.2"/>
<text text-anchor="start" x="269" y="-156.3" font-family="Helvetica,sans-Serif" font-size="11.00" fill="#000000">...</text>
<polygon fill="#ffffff" stroke="transparent" points="266,-131.2 266,-150.2 432,-150.2 432,-131.2 266,-131.2"/>
<polygon fill="none" stroke="#000000" points="266,-131.2 266,-150.2 432,-150.2 432,-131.2 266,-131.2"/>
<polygon fill="#ffffff" stroke="transparent" points="267,-132.2 267,-149.2 325,-149.2 325,-132.2 267,-132.2"/>
<text text-anchor="start" x="269" y="-137.3" font-family="Helvetica,sans-Serif" font-size="11.00" fill="#000000">&lt; 2</text>
<polygon fill="#ffffff" stroke="transparent" points="325,-132.2 325,-149.2 374,-149.2 374,-132.2 325,-132.2"/>
<text text-anchor="start" x="346.4431" y="-137.3" font-family="Helvetica,sans-Serif" font-size="11.00" fill="#000000"> &#160;</text>
<polygon fill="#ffffff" stroke="transparent" points="374,-132.2 374,-149.2 431,-149.2 431,-132.2 374,-132.2"/>
<text text-anchor="start" x="413.4053" y="-137.3" font-family="Helvetica,sans-Serif" font-size="11.00" fill="#000000">3 &gt;</text>
<polygon fill="#000000" stroke="#000000" points="325,-132.2 325,-149.2 325,-149.2 325,-132.2 325,-132.2"/>
<polygon fill="#000000" stroke="#000000" points="374,-132.2 374,-149.2 374,-149.2 374,-132.2 374,-132.2"/>
</a>
</g>
</g>
<!-- VisitAttendants&#45;&gt;Visits -->
<g id="edge1" class="edge">
<title>VisitAttendants:w&#45;&gt;Visits:e</title>
<path fill="none" stroke="#000000" d="M518.0018,-160.0452C498.234,-165.7905 493.3195,-184.0628 473,-202.2 453.0589,-219.9994 458.7296,-246.2 432,-246.2"/>
<polygon fill="#000000" stroke="#000000" points="524.564,-159.2101 532.9545,-161.7712 528.532,-158.705 532.5,-158.2 532.5,-158.2 532.5,-158.2 528.532,-158.705 532.0455,-154.6288 524.564,-159.2101 524.564,-159.2101"/>
<ellipse fill="none" stroke="#000000" cx="521.3896" cy="-159.6141" rx="3.2" ry="3.2"/>
</g>
<!-- Hospitalizations -->
<g id="node4" class="node">
<title>Hospitalizations</title>
<g id="a_node4"><a xlink:href="../../tables/Hospitalizations.html" xlink:title="Hospitalizations" target="_top">
<polygon fill="#ffffff" stroke="transparent" points="34,-262.7 34,-323.7 191,-323.7 191,-262.7 34,-262.7"/>
<polygon fill="#f5f5f5" stroke="transparent" points="34.5,-300.2 34.5,-323.2 191.5,-323.2 191.5,-300.2 34.5,-300.2"/>
<polygon fill="none" stroke="#000000" points="34.5,-300.2 34.5,-323.2 191.5,-323.2 191.5,-300.2 34.5,-300.2"/>
<text text-anchor="start" x="39.5" y="-308.8" font-family="Helvetica,sans-Serif" font-weight="bold" font-size="11.00" fill="#000000">Hospitalizations</text>
<text text-anchor="start" x="157.0219" y="-308.3" font-family="Helvetica,sans-Serif" font-size="11.00" fill="#000000">[table]</text>
<polygon fill="none" stroke="#000000" points="34.5,-281.2 34.5,-300.2 191.5,-300.2 191.5,-281.2 34.5,-281.2"/>
<text text-anchor="start" x="37.5" y="-287.3" font-family="Helvetica,sans-Serif" font-size="11.00" fill="#000000">...</text>
<polygon fill="#ffffff" stroke="transparent" points="34.5,-262.2 34.5,-281.2 191.5,-281.2 191.5,-262.2 34.5,-262.2"/>
<polygon fill="none" stroke="#000000" points="34.5,-262.2 34.5,-281.2 191.5,-281.2 191.5,-262.2 34.5,-262.2"/>
<polygon fill="#ffffff" stroke="transparent" points="35.5,-263.2 35.5,-280.2 90.5,-280.2 90.5,-263.2 35.5,-263.2"/>
<text text-anchor="start" x="37.5" y="-268.3" font-family="Helvetica,sans-Serif" font-size="11.00" fill="#000000">&lt; 3</text>
<polygon fill="#ffffff" stroke="transparent" points="90.5,-263.2 90.5,-280.2 136.5,-280.2 136.5,-263.2 90.5,-263.2"/>
<text text-anchor="start" x="110.4431" y="-268.3" font-family="Helvetica,sans-Serif" font-size="11.00" fill="#000000"> &#160;</text>
<polygon fill="#ffffff" stroke="transparent" points="136.5,-263.2 136.5,-280.2 190.5,-280.2 190.5,-263.2 136.5,-263.2"/>
<text text-anchor="start" x="172.9053" y="-268.3" font-family="Helvetica,sans-Serif" font-size="11.00" fill="#000000">4 &gt;</text>
<polygon fill="#000000" stroke="#000000" points="90.5,-263.2 90.5,-280.2 90.5,-280.2 90.5,-263.2 90.5,-263.2"/>
<polygon fill="#000000" stroke="#000000" points="136.5,-263.2 136.5,-280.2 136.5,-280.2 136.5,-263.2 136.5,-263.2"/>
</a>
</g>
</g>
<!-- Visits&#45;&gt;Hospitalizations -->
<g id="edge3" class="edge">
<title>Visits:w&#45;&gt;Hospitalizations:e</title>
<path fill="none" stroke="#000000" d="M251.8216,-205.1279C219.9301,-220.3973 237.1399,-290.2 191.5,-290.2"/>
<polygon fill="#000000" stroke="#000000" points="258.1653,-203.8179 266.7281,-205.7256 262.0827,-203.009 266,-202.2 266,-202.2 266,-202.2 262.0827,-203.009 265.2719,-198.6744 258.1653,-203.8179 258.1653,-203.8179"/>
<ellipse fill="none" stroke="#000000" cx="255.0314" cy="-204.4651" rx="3.2" ry="3.2"/>
</g>
<!-- ServiceTypes -->
<g id="node5" class="node">
<title>ServiceTypes</title>
<g id="a_node5"><a xlink:href="../../tables/ServiceTypes.html" xlink:title="ServiceTypes" target="_top">
<polygon fill="#ffffff" stroke="transparent" points="8,-38.2 8,-216.2 217,-216.2 217,-38.2 8,-38.2"/>
<polygon fill="#f5f5f5" stroke="transparent" points="10.5,-191.2 10.5,-214.2 215.5,-214.2 215.5,-191.2 10.5,-191.2"/>
<polygon fill="none" stroke="#000000" points="10.5,-191.2 10.5,-214.2 215.5,-214.2 215.5,-191.2 10.5,-191.2"/>
<text text-anchor="start" x="15.5" y="-199.8" font-family="Helvetica,sans-Serif" font-weight="bold" font-size="11.00" fill="#000000">ServiceTypes</text>
<text text-anchor="start" x="180.5437" y="-199.3" font-family="Helvetica,sans-Serif" font-size="11.00" fill="#000000">[table]</text>
<polygon fill="none" stroke="#000000" points="10.5,-169.2 10.5,-191.2 134.5,-191.2 134.5,-169.2 10.5,-169.2"/>
<image xlink:href="../../images/primaryKeys.png" width="11px" height="12px" preserveAspectRatio="xMinYMin meet" x="15.5" y="-186.2"/>
<text text-anchor="start" x="30.5" y="-176.3" font-family="Helvetica,sans-Serif" font-size="11.00" fill="#000000">Id</text>
<polygon fill="none" stroke="#000000" points="134.5,-169.2 134.5,-191.2 215.5,-191.2 215.5,-169.2 134.5,-169.2"/>
<text text-anchor="start" x="137.5" y="-176.9" font-family="Helvetica,sans-Serif" font-size="11.00" fill="#000000">int identity[4]</text>
<polygon fill="none" stroke="#000000" points="10.5,-147.2 10.5,-169.2 134.5,-169.2 134.5,-147.2 10.5,-147.2"/>
<text text-anchor="start" x="30.5" y="-154.3" font-family="Helvetica,sans-Serif" font-size="11.00" fill="#000000">Description</text>
<polygon fill="none" stroke="#000000" points="134.5,-147.2 134.5,-169.2 215.5,-169.2 215.5,-147.2 134.5,-147.2"/>
<text text-anchor="start" x="137.5" y="-154.9" font-family="Helvetica,sans-Serif" font-size="11.00" fill="#000000">nvarchar[200]</text>
<polygon fill="none" stroke="#000000" points="10.5,-125.2 10.5,-147.2 134.5,-147.2 134.5,-125.2 10.5,-125.2"/>
<text text-anchor="start" x="30.5" y="-132.3" font-family="Helvetica,sans-Serif" font-size="11.00" fill="#000000">CPTCode</text>
<polygon fill="none" stroke="#000000" points="134.5,-125.2 134.5,-147.2 215.5,-147.2 215.5,-125.2 134.5,-125.2"/>
<text text-anchor="start" x="137.5" y="-132.9" font-family="Helvetica,sans-Serif" font-size="11.00" fill="#000000">int[4]</text>
<polygon fill="none" stroke="#000000" points="10.5,-103.2 10.5,-125.2 134.5,-125.2 134.5,-103.2 10.5,-103.2"/>
<text text-anchor="start" x="30.5" y="-110.3" font-family="Helvetica,sans-Serif" font-size="11.00" fill="#000000">CreatedAtUtc</text>
<polygon fill="none" stroke="#000000" points="134.5,-103.2 134.5,-125.2 215.5,-125.2 215.5,-103.2 134.5,-103.2"/>
<text text-anchor="start" x="137.0967" y="-110.9" font-family="Helvetica,sans-Serif" font-size="11.00" fill="#000000">datetime2[16,7]</text>
<polygon fill="none" stroke="#000000" points="10.5,-81.2 10.5,-103.2 134.5,-103.2 134.5,-81.2 10.5,-81.2"/>
<text text-anchor="start" x="30.5" y="-88.3" font-family="Helvetica,sans-Serif" font-size="11.00" fill="#000000">UpdatedAtUtc</text>
<polygon fill="none" stroke="#000000" points="134.5,-81.2 134.5,-103.2 215.5,-103.2 215.5,-81.2 134.5,-81.2"/>
<text text-anchor="start" x="137.0967" y="-88.9" font-family="Helvetica,sans-Serif" font-size="11.00" fill="#000000">datetime2[16,7]</text>
<polygon fill="none" stroke="#000000" points="10.5,-59.2 10.5,-81.2 134.5,-81.2 134.5,-59.2 10.5,-59.2"/>
<text text-anchor="start" x="30.5" y="-66.3" font-family="Helvetica,sans-Serif" font-size="11.00" fill="#000000">RowVersion</text>
<polygon fill="none" stroke="#000000" points="134.5,-59.2 134.5,-81.2 215.5,-81.2 215.5,-59.2 134.5,-59.2"/>
<text text-anchor="start" x="137.5" y="-66.9" font-family="Helvetica,sans-Serif" font-size="11.00" fill="#000000">timestamp[8]</text>
<polygon fill="#ffffff" stroke="transparent" points="10.5,-40.2 10.5,-59.2 215.5,-59.2 215.5,-40.2 10.5,-40.2"/>
<polygon fill="none" stroke="#000000" points="10.5,-40.2 10.5,-59.2 215.5,-59.2 215.5,-40.2 10.5,-40.2"/>
<polygon fill="#ffffff" stroke="transparent" points="11.5,-41.2 11.5,-58.2 82.5,-58.2 82.5,-41.2 11.5,-41.2"/>
<text text-anchor="start" x="13.5" y="-46.3" font-family="Helvetica,sans-Serif" font-size="11.00" fill="#000000">&lt; 0</text>
<polygon fill="#ffffff" stroke="transparent" points="82.5,-41.2 82.5,-58.2 144.5,-58.2 144.5,-41.2 82.5,-41.2"/>
<text text-anchor="start" x="110.4431" y="-46.3" font-family="Helvetica,sans-Serif" font-size="11.00" fill="#000000"> &#160;</text>
<polygon fill="#ffffff" stroke="transparent" points="144.5,-41.2 144.5,-58.2 214.5,-58.2 214.5,-41.2 144.5,-41.2"/>
<text text-anchor="start" x="196.9053" y="-46.3" font-family="Helvetica,sans-Serif" font-size="11.00" fill="#000000">1 &gt;</text>
<polygon fill="#000000" stroke="#000000" points="82.5,-41.2 82.5,-58.2 82.5,-58.2 82.5,-41.2 82.5,-41.2"/>
<polygon fill="#000000" stroke="#000000" points="144.5,-41.2 144.5,-58.2 144.5,-58.2 144.5,-41.2 144.5,-41.2"/>
<polygon fill="none" stroke="#000000" stroke-width="2" points="9,-39.2 9,-215.2 216,-215.2 216,-39.2 9,-39.2"/>
</a>
</g>
</g>
<!-- Visits&#45;&gt;ServiceTypes -->
<g id="edge4" class="edge">
<title>Visits:w&#45;&gt;ServiceTypes:e</title>
<path fill="none" stroke="#000000" d="M251.4203,-180.2C239.5435,-180.2 232.158,-180.2 215.5,-180.2"/>
<polygon fill="#000000" stroke="#000000" points="258,-180.2001 266,-183.8 262,-180.2 266,-180.2 266,-180.2 266,-180.2 262,-180.2 266,-176.6 258,-180.2001 258,-180.2001"/>
<ellipse fill="none" stroke="#000000" cx="254.8" cy="-180.2001" rx="3.2" ry="3.2"/>
</g>
<!-- VisitEvents -->
<g id="node3" class="node">
<title>VisitEvents</title>
<g id="a_node3"><a xlink:href="../../tables/VisitEvents.html" xlink:title="VisitEvents" target="_top">
<polygon fill="#ffffff" stroke="transparent" points="548,-212.7 548,-273.7 669,-273.7 669,-212.7 548,-212.7"/>
<polygon fill="#f5f5f5" stroke="transparent" points="548.5,-250.2 548.5,-273.2 669.5,-273.2 669.5,-250.2 548.5,-250.2"/>
<polygon fill="none" stroke="#000000" points="548.5,-250.2 548.5,-273.2 669.5,-273.2 669.5,-250.2 548.5,-250.2"/>
<text text-anchor="start" x="553.5" y="-258.8" font-family="Helvetica,sans-Serif" font-weight="bold" font-size="11.00" fill="#000000">VisitEvents</text>
<text text-anchor="start" x="635.0219" y="-258.3" font-family="Helvetica,sans-Serif" font-size="11.00" fill="#000000">[table]</text>
<polygon fill="none" stroke="#000000" points="548.5,-231.2 548.5,-250.2 669.5,-250.2 669.5,-231.2 548.5,-231.2"/>
<text text-anchor="start" x="551.5" y="-237.3" font-family="Helvetica,sans-Serif" font-size="11.00" fill="#000000">...</text>
<polygon fill="#ffffff" stroke="transparent" points="548.5,-212.2 548.5,-231.2 669.5,-231.2 669.5,-212.2 548.5,-212.2"/>
<polygon fill="none" stroke="#000000" points="548.5,-212.2 548.5,-231.2 669.5,-231.2 669.5,-212.2 548.5,-212.2"/>
<polygon fill="#ffffff" stroke="transparent" points="549.5,-213.2 549.5,-230.2 595.5,-230.2 595.5,-213.2 549.5,-213.2"/>
<text text-anchor="start" x="551.5" y="-218.3" font-family="Helvetica,sans-Serif" font-size="11.00" fill="#000000">&lt; 2</text>
<polygon fill="#ffffff" stroke="transparent" points="595.5,-213.2 595.5,-230.2 632.5,-230.2 632.5,-213.2 595.5,-213.2"/>
<text text-anchor="start" x="610.9431" y="-218.3" font-family="Helvetica,sans-Serif" font-size="11.00" fill="#000000"> &#160;</text>
<polygon fill="#ffffff" stroke="transparent" points="632.5,-213.2 632.5,-230.2 668.5,-230.2 668.5,-213.2 632.5,-213.2"/>
<text text-anchor="start" x="660.3862" y="-218.3" font-family="Helvetica,sans-Serif" font-size="11.00" fill="#000000"> &#160;</text>
<polygon fill="#000000" stroke="#000000" points="595.5,-213.2 595.5,-230.2 595.5,-230.2 595.5,-213.2 595.5,-213.2"/>
<polygon fill="#000000" stroke="#000000" points="632.5,-213.2 632.5,-230.2 632.5,-230.2 632.5,-213.2 632.5,-213.2"/>
</a>
</g>
</g>
<!-- VisitEvents&#45;&gt;Visits -->
<g id="edge2" class="edge">
<title>VisitEvents:w&#45;&gt;Visits:e</title>
<path fill="none" stroke="#000000" d="M534.0917,-240.3667C493.7148,-241.3358 478.682,-246.2 432,-246.2"/>
<polygon fill="#000000" stroke="#000000" points="540.5005,-240.2926 548.5417,-243.7998 544.5003,-240.2463 548.5,-240.2 548.5,-240.2 548.5,-240.2 544.5003,-240.2463 548.4583,-236.6002 540.5005,-240.2926 540.5005,-240.2926"/>
<ellipse fill="none" stroke="#000000" cx="537.3007" cy="-240.3297" rx="3.2" ry="3.2"/>
</g>
<!-- staging.ProviderAssignments -->
<g id="node6" class="node">
<title>staging.ProviderAssignments</title>
<g id="a_node6"><a xlink:title="staging.ProviderAssignments">
<polygon fill="#ffffff" stroke="transparent" points="481,-294.7 481,-355.7 736,-355.7 736,-294.7 481,-294.7"/>
<polygon fill="#f5f5f5" stroke="transparent" points="481.5,-332.2 481.5,-355.2 736.5,-355.2 736.5,-332.2 481.5,-332.2"/>
<polygon fill="none" stroke="#000000" points="481.5,-332.2 481.5,-355.2 736.5,-355.2 736.5,-332.2 481.5,-332.2"/>
<text text-anchor="start" x="486.5" y="-340.8" font-family="Helvetica,sans-Serif" font-weight="bold" font-size="11.00" fill="#000000">staging.ProviderAssignments</text>
<text text-anchor="start" x="702.0219" y="-340.3" font-family="Helvetica,sans-Serif" font-size="11.00" fill="#000000">[table]</text>
<polygon fill="none" stroke="#000000" points="481.5,-313.2 481.5,-332.2 736.5,-332.2 736.5,-313.2 481.5,-313.2"/>
<text text-anchor="start" x="484.5" y="-319.3" font-family="Helvetica,sans-Serif" font-size="11.00" fill="#000000">...</text>
<polygon fill="#ffffff" stroke="transparent" points="481.5,-294.2 481.5,-313.2 736.5,-313.2 736.5,-294.2 481.5,-294.2"/>
<polygon fill="none" stroke="#000000" points="481.5,-294.2 481.5,-313.2 736.5,-313.2 736.5,-294.2 481.5,-294.2"/>
<polygon fill="#ffffff" stroke="transparent" points="482.5,-295.2 482.5,-312.2 573.5,-312.2 573.5,-295.2 482.5,-295.2"/>
<text text-anchor="start" x="484.5" y="-300.3" font-family="Helvetica,sans-Serif" font-size="11.00" fill="#000000">&lt; 6</text>
<polygon fill="#ffffff" stroke="transparent" points="573.5,-295.2 573.5,-312.2 654.5,-312.2 654.5,-295.2 573.5,-295.2"/>
<text text-anchor="start" x="610.9431" y="-300.3" font-family="Helvetica,sans-Serif" font-size="11.00" fill="#000000"> &#160;</text>
<polygon fill="#ffffff" stroke="transparent" points="654.5,-295.2 654.5,-312.2 735.5,-312.2 735.5,-295.2 654.5,-295.2"/>
<text text-anchor="start" x="727.3862" y="-300.3" font-family="Helvetica,sans-Serif" font-size="11.00" fill="#000000"> &#160;</text>
<polygon fill="#000000" stroke="#000000" points="573.5,-295.2 573.5,-312.2 573.5,-312.2 573.5,-295.2 573.5,-295.2"/>
<polygon fill="#000000" stroke="#000000" points="654.5,-295.2 654.5,-312.2 654.5,-312.2 654.5,-295.2 654.5,-295.2"/>
</a>
</g>
</g>
<!-- staging.ProviderAssignments&#45;&gt;Visits -->
<g id="edge6" class="edge">
<title>staging.ProviderAssignments:w&#45;&gt;Visits:e</title>
<path fill="none" stroke="#000000" d="M467.8037,-317.6735C448.8546,-301.3121 466.3269,-246.2 432,-246.2"/>
<polygon fill="#000000" stroke="#000000" points="473.9041,-319.6896 480.3703,-325.6182 477.702,-320.9448 481.5,-322.2 481.5,-322.2 481.5,-322.2 477.702,-320.9448 482.6297,-318.7818 473.9041,-319.6896 473.9041,-319.6896"/>
<ellipse fill="none" stroke="#000000" cx="470.8657" cy="-318.6854" rx="3.2" ry="3.2"/>
</g>
<!-- staging.ProviderAssignments&#45;&gt;Hospitalizations -->
<g id="edge5" class="edge">
<title>staging.ProviderAssignments:w&#45;&gt;Hospitalizations:e</title>
<path fill="none" stroke="#000000" d="M466.7456,-322.0573C349.2826,-319.7488 316.1059,-290.2 191.5,-290.2"/>
<polygon fill="#000000" stroke="#000000" points="473.5004,-322.1226 481.4652,-325.7998 477.5002,-322.1613 481.5,-322.2 481.5,-322.2 481.5,-322.2 477.5002,-322.1613 481.5348,-318.6002 473.5004,-322.1226 473.5004,-322.1226"/>
<ellipse fill="none" stroke="#000000" cx="470.3005" cy="-322.0916" rx="3.2" ry="3.2"/>
</g>
</g>
</svg>
