<?xml version="1.0" encoding="UTF-8" standalone="no"?>
<!DOCTYPE svg PUBLIC "-//W3C//DTD SVG 1.1//EN"
 "http://www.w3.org/Graphics/SVG/1.1/DTD/svg11.dtd">
<!-- Generated by graphviz version 2.40.1 (20161225.0304)
 -->
<!-- Title: oneDegreeRelationshipsDiagram Pages: 1 -->
<svg width="459pt" height="325pt"
 viewBox="0.00 0.00 459.00 325.20" xmlns="http://www.w3.org/2000/svg" xmlns:xlink="http://www.w3.org/1999/xlink">
<g id="graph0" class="graph" transform="scale(1 1) rotate(0) translate(4 321.2)">
<title>oneDegreeRelationshipsDiagram</title>
<polygon fill="#ffffff" stroke="transparent" points="-4,4 -4,-321.2 455,-321.2 455,4 -4,4"/>
<text text-anchor="middle" x="72.4936" y="-7.3" font-family="Helvetica,sans-Serif" font-size="11.00" fill="#000000">Generated by SchemaSpy</text>
<!-- VisitAttendants -->
<g id="node1" class="node">
<title>VisitAttendants</title>
<g id="a_node1"><a xlink:href="../../tables/VisitAttendants.html" xlink:title="VisitAttendants" target="_top">
<polygon fill="#ffffff" stroke="transparent" points="223,-84.7 223,-262.7 443,-262.7 443,-84.7 223,-84.7"/>
<polygon fill="#f5f5f5" stroke="transparent" points="225,-237.7 225,-260.7 441,-260.7 441,-237.7 225,-237.7"/>
<polygon fill="none" stroke="#000000" points="225,-237.7 225,-260.7 441,-260.7 441,-237.7 225,-237.7"/>
<text text-anchor="start" x="230" y="-246.3" font-family="Helvetica,sans-Serif" font-weight="bold" font-size="11.00" fill="#000000">VisitAttendants</text>
<text text-anchor="start" x="406.0437" y="-245.8" font-family="Helvetica,sans-Serif" font-size="11.00" fill="#000000">[table]</text>
<polygon fill="none" stroke="#000000" points="225,-215.7 225,-237.7 360,-237.7 360,-215.7 225,-215.7"/>
<image xlink:href="../../images/primaryKeys.png" width="11px" height="12px" preserveAspectRatio="xMinYMin meet" x="230" y="-232.7"/>
<text text-anchor="start" x="245" y="-222.8" font-family="Helvetica,sans-Serif" font-size="11.00" fill="#000000">Id</text>
<polygon fill="none" stroke="#000000" points="360,-215.7 360,-237.7 441,-237.7 441,-215.7 360,-215.7"/>
<text text-anchor="start" x="363" y="-223.4" font-family="Helvetica,sans-Serif" font-size="11.00" fill="#000000">int identity[4]</text>
<polygon fill="#ffffff" stroke="transparent" points="225,-193.7 225,-215.7 360,-215.7 360,-193.7 225,-193.7"/>
<polygon fill="none" stroke="#000000" points="225,-193.7 225,-215.7 360,-215.7 360,-193.7 225,-193.7"/>
<image xlink:href="../../images/foreignKeys.png" width="11px" height="12px" preserveAspectRatio="xMinYMin meet" x="230" y="-210.7"/>
<text text-anchor="start" x="245" y="-200.8" font-family="Helvetica,sans-Serif" font-size="11.00" fill="#000000">VisitId</text>
<polygon fill="none" stroke="#000000" points="360,-193.7 360,-215.7 441,-215.7 441,-193.7 360,-193.7"/>
<text text-anchor="start" x="363" y="-201.4" font-family="Helvetica,sans-Serif" font-size="11.00" fill="#000000">int[4]</text>
<polygon fill="#ffffff" stroke="transparent" points="225,-171.7 225,-193.7 360,-193.7 360,-171.7 225,-171.7"/>
<polygon fill="none" stroke="#000000" points="225,-171.7 225,-193.7 360,-193.7 360,-171.7 225,-171.7"/>
<image xlink:href="../../images/foreignKeys.png" width="11px" height="12px" preserveAspectRatio="xMinYMin meet" x="230" y="-188.7"/>
<text text-anchor="start" x="245" y="-178.8" font-family="Helvetica,sans-Serif" font-size="11.00" fill="#000000">ProviderId</text>
<polygon fill="none" stroke="#000000" points="360,-171.7 360,-193.7 441,-193.7 441,-171.7 360,-171.7"/>
<text text-anchor="start" x="363" y="-179.4" font-family="Helvetica,sans-Serif" font-size="11.00" fill="#000000">int[4]</text>
<polygon fill="none" stroke="#000000" points="225,-149.7 225,-171.7 360,-171.7 360,-149.7 225,-149.7"/>
<text text-anchor="start" x="245" y="-156.8" font-family="Helvetica,sans-Serif" font-size="11.00" fill="#000000">CreatedAtUtc</text>
<polygon fill="none" stroke="#000000" points="360,-149.7 360,-171.7 441,-171.7 441,-149.7 360,-149.7"/>
<text text-anchor="start" x="362.5968" y="-157.4" font-family="Helvetica,sans-Serif" font-size="11.00" fill="#000000">datetime2[16,7]</text>
<polygon fill="none" stroke="#000000" points="225,-127.7 225,-149.7 360,-149.7 360,-127.7 225,-127.7"/>
<text text-anchor="start" x="245" y="-134.8" font-family="Helvetica,sans-Serif" font-size="11.00" fill="#000000">UpdatedAtUtc</text>
<polygon fill="none" stroke="#000000" points="360,-127.7 360,-149.7 441,-149.7 441,-127.7 360,-127.7"/>
<text text-anchor="start" x="362.5968" y="-135.4" font-family="Helvetica,sans-Serif" font-size="11.00" fill="#000000">datetime2[16,7]</text>
<polygon fill="none" stroke="#000000" points="225,-105.7 225,-127.7 360,-127.7 360,-105.7 225,-105.7"/>
<text text-anchor="start" x="245" y="-112.8" font-family="Helvetica,sans-Serif" font-size="11.00" fill="#000000">RowVersion</text>
<polygon fill="none" stroke="#000000" points="360,-105.7 360,-127.7 441,-127.7 441,-105.7 360,-105.7"/>
<text text-anchor="start" x="363" y="-113.4" font-family="Helvetica,sans-Serif" font-size="11.00" fill="#000000">timestamp[8]</text>
<polygon fill="#ffffff" stroke="transparent" points="225,-86.7 225,-105.7 441,-105.7 441,-86.7 225,-86.7"/>
<polygon fill="none" stroke="#000000" points="225,-86.7 225,-105.7 441,-105.7 441,-86.7 225,-86.7"/>
<polygon fill="#ffffff" stroke="transparent" points="226,-87.7 226,-104.7 301,-104.7 301,-87.7 226,-87.7"/>
<text text-anchor="start" x="228" y="-92.8" font-family="Helvetica,sans-Serif" font-size="11.00" fill="#000000">&lt; 2</text>
<polygon fill="#ffffff" stroke="transparent" points="301,-87.7 301,-104.7 366,-104.7 366,-87.7 301,-87.7"/>
<text text-anchor="start" x="330.4431" y="-92.8" font-family="Helvetica,sans-Serif" font-size="11.00" fill="#000000"> &#160;</text>
<polygon fill="#ffffff" stroke="transparent" points="366,-87.7 366,-104.7 440,-104.7 440,-87.7 366,-87.7"/>
<text text-anchor="start" x="422.4053" y="-92.8" font-family="Helvetica,sans-Serif" font-size="11.00" fill="#000000">0 &gt;</text>
<polygon fill="#000000" stroke="#000000" points="301,-87.7 301,-104.7 301,-104.7 301,-87.7 301,-87.7"/>
<polygon fill="#000000" stroke="#000000" points="366,-87.7 366,-104.7 366,-104.7 366,-87.7 366,-87.7"/>
<polygon fill="none" stroke="#000000" stroke-width="2" points="224,-85.7 224,-261.7 442,-261.7 442,-85.7 224,-85.7"/>
</a>
</g>
</g>
<!-- Providers -->
<g id="node2" class="node">
<title>Providers</title>
<g id="a_node2"><a xlink:href="../../tables/Providers.html" xlink:title="Providers" target="_top">
<polygon fill="#ffffff" stroke="transparent" points="28.5,-38.2 28.5,-143.2 153.5,-143.2 153.5,-38.2 28.5,-38.2"/>
<polygon fill="#f5f5f5" stroke="transparent" points="29,-119.7 29,-142.7 154,-142.7 154,-119.7 29,-119.7"/>
<polygon fill="none" stroke="#000000" points="29,-119.7 29,-142.7 154,-142.7 154,-119.7 29,-119.7"/>
<text text-anchor="start" x="34" y="-128.3" font-family="Helvetica,sans-Serif" font-weight="bold" font-size="11.00" fill="#000000">Providers</text>
<text text-anchor="start" x="119.0437" y="-127.8" font-family="Helvetica,sans-Serif" font-size="11.00" fill="#000000">[table]</text>
<polygon fill="none" stroke="#000000" points="29,-97.7 29,-119.7 154,-119.7 154,-97.7 29,-97.7"/>
<image xlink:href="../../images/primaryKeys.png" width="11px" height="12px" preserveAspectRatio="xMinYMin meet" x="34" y="-114.7"/>
<text text-anchor="start" x="49" y="-104.8" font-family="Helvetica,sans-Serif" font-size="11.00" fill="#000000">Id</text>
<polygon fill="#ffffff" stroke="transparent" points="29,-75.7 29,-97.7 154,-97.7 154,-75.7 29,-75.7"/>
<polygon fill="none" stroke="#000000" points="29,-75.7 29,-97.7 154,-97.7 154,-75.7 29,-75.7"/>
<image xlink:href="../../images/foreignKeys.png" width="11px" height="12px" preserveAspectRatio="xMinYMin meet" x="34" y="-92.7"/>
<text text-anchor="start" x="49" y="-82.8" font-family="Helvetica,sans-Serif" font-size="11.00" fill="#000000">EmployeeId</text>
<polygon fill="none" stroke="#000000" points="29,-56.7 29,-75.7 154,-75.7 154,-56.7 29,-56.7"/>
<text text-anchor="start" x="32" y="-62.8" font-family="Helvetica,sans-Serif" font-size="11.00" fill="#000000">...</text>
<polygon fill="#ffffff" stroke="transparent" points="29,-37.7 29,-56.7 154,-56.7 154,-37.7 29,-37.7"/>
<polygon fill="none" stroke="#000000" points="29,-37.7 29,-56.7 154,-56.7 154,-37.7 29,-37.7"/>
<polygon fill="#ffffff" stroke="transparent" points="30,-38.7 30,-55.7 74,-55.7 74,-38.7 30,-38.7"/>
<text text-anchor="start" x="32" y="-43.8" font-family="Helvetica,sans-Serif" font-size="11.00" fill="#000000">&lt; 1</text>
<polygon fill="#ffffff" stroke="transparent" points="74,-38.7 74,-55.7 109,-55.7 109,-38.7 74,-38.7"/>
<text text-anchor="start" x="88.4431" y="-43.8" font-family="Helvetica,sans-Serif" font-size="11.00" fill="#000000"> &#160;</text>
<polygon fill="#ffffff" stroke="transparent" points="109,-38.7 109,-55.7 153,-55.7 153,-38.7 109,-38.7"/>
<text text-anchor="start" x="135.4053" y="-43.8" font-family="Helvetica,sans-Serif" font-size="11.00" fill="#000000">3 &gt;</text>
<polygon fill="#000000" stroke="#000000" points="74,-38.7 74,-55.7 74,-55.7 74,-38.7 74,-38.7"/>
<polygon fill="#000000" stroke="#000000" points="109,-38.7 109,-55.7 109,-55.7 109,-38.7 109,-38.7"/>
</a>
</g>
</g>
<!-- VisitAttendants&#45;&gt;Providers -->
<g id="edge1" class="edge">
<title>VisitAttendants:w&#45;&gt;Providers:e</title>
<path fill="none" stroke="#000000" d="M210.7325,-179.5203C183.4334,-165.3563 193.8815,-108.7 154,-108.7"/>
<polygon fill="#000000" stroke="#000000" points="217.1916,-180.9597 224.2169,-186.2138 221.0958,-181.8299 225,-182.7 225,-182.7 225,-182.7 221.0958,-181.8299 225.7831,-179.1862 217.1916,-180.9597 217.1916,-180.9597"/>
<ellipse fill="none" stroke="#000000" cx="214.0682" cy="-180.2636" rx="3.2" ry="3.2"/>
</g>
<!-- Visits -->
<g id="node3" class="node">
<title>Visits</title>
<g id="a_node3"><a xlink:href="../../tables/Visits.html" xlink:title="Visits" target="_top">
<polygon fill="#ffffff" stroke="transparent" points="8,-164.2 8,-313.2 174,-313.2 174,-164.2 8,-164.2"/>
<polygon fill="#f5f5f5" stroke="transparent" points="8,-289.7 8,-312.7 174,-312.7 174,-289.7 8,-289.7"/>
<polygon fill="none" stroke="#000000" points="8,-289.7 8,-312.7 174,-312.7 174,-289.7 8,-289.7"/>
<text text-anchor="start" x="13" y="-298.3" font-family="Helvetica,sans-Serif" font-weight="bold" font-size="11.00" fill="#000000">Visits</text>
<text text-anchor="start" x="139.0437" y="-297.8" font-family="Helvetica,sans-Serif" font-size="11.00" fill="#000000">[table]</text>
<polygon fill="none" stroke="#000000" points="8,-267.7 8,-289.7 174,-289.7 174,-267.7 8,-267.7"/>
<image xlink:href="../../images/primaryKeys.png" width="11px" height="12px" preserveAspectRatio="xMinYMin meet" x="13" y="-284.7"/>
<text text-anchor="start" x="28" y="-274.8" font-family="Helvetica,sans-Serif" font-size="11.00" fill="#000000">Id</text>
<polygon fill="#ffffff" stroke="transparent" points="8,-245.7 8,-267.7 174,-267.7 174,-245.7 8,-245.7"/>
<polygon fill="none" stroke="#000000" points="8,-245.7 8,-267.7 174,-267.7 174,-245.7 8,-245.7"/>
<text text-anchor="start" x="28" y="-252.8" font-family="Helvetica,sans-Serif" font-size="11.00" fill="#000000">DateServiced</text>
<polygon fill="#ffffff" stroke="transparent" points="8,-223.7 8,-245.7 174,-245.7 174,-223.7 8,-223.7"/>
<polygon fill="none" stroke="#000000" points="8,-223.7 8,-245.7 174,-245.7 174,-223.7 8,-223.7"/>
<image xlink:href="../../images/foreignKeys.png" width="11px" height="12px" preserveAspectRatio="xMinYMin meet" x="13" y="-240.7"/>
<text text-anchor="start" x="28" y="-230.8" font-family="Helvetica,sans-Serif" font-size="11.00" fill="#000000">HospitalizationId</text>
<polygon fill="#ffffff" stroke="transparent" points="8,-201.7 8,-223.7 174,-223.7 174,-201.7 8,-201.7"/>
<polygon fill="none" stroke="#000000" points="8,-201.7 8,-223.7 174,-223.7 174,-201.7 8,-201.7"/>
<image xlink:href="../../images/foreignKeys.png" width="11px" height="12px" preserveAspectRatio="xMinYMin meet" x="13" y="-218.7"/>
<text text-anchor="start" x="28" y="-208.8" font-family="Helvetica,sans-Serif" font-size="11.00" fill="#000000">ServiceTypeId</text>
<polygon fill="none" stroke="#000000" points="8,-182.7 8,-201.7 174,-201.7 174,-182.7 8,-182.7"/>
<text text-anchor="start" x="11" y="-188.8" font-family="Helvetica,sans-Serif" font-size="11.00" fill="#000000">...</text>
<polygon fill="#ffffff" stroke="transparent" points="8,-163.7 8,-182.7 174,-182.7 174,-163.7 8,-163.7"/>
<polygon fill="none" stroke="#000000" points="8,-163.7 8,-182.7 174,-182.7 174,-163.7 8,-163.7"/>
<polygon fill="#ffffff" stroke="transparent" points="9,-164.7 9,-181.7 67,-181.7 67,-164.7 9,-164.7"/>
<text text-anchor="start" x="11" y="-169.8" font-family="Helvetica,sans-Serif" font-size="11.00" fill="#000000">&lt; 2</text>
<polygon fill="#ffffff" stroke="transparent" points="67,-164.7 67,-181.7 116,-181.7 116,-164.7 67,-164.7"/>
<text text-anchor="start" x="88.4431" y="-169.8" font-family="Helvetica,sans-Serif" font-size="11.00" fill="#000000"> &#160;</text>
<polygon fill="#ffffff" stroke="transparent" points="116,-164.7 116,-181.7 173,-181.7 173,-164.7 116,-164.7"/>
<text text-anchor="start" x="155.4053" y="-169.8" font-family="Helvetica,sans-Serif" font-size="11.00" fill="#000000">3 &gt;</text>
<polygon fill="#000000" stroke="#000000" points="67,-164.7 67,-181.7 67,-181.7 67,-164.7 67,-164.7"/>
<polygon fill="#000000" stroke="#000000" points="116,-164.7 116,-181.7 116,-181.7 116,-164.7 116,-164.7"/>
</a>
</g>
</g>
<!-- VisitAttendants&#45;&gt;Visits -->
<g id="edge2" class="edge">
<title>VisitAttendants:w&#45;&gt;Visits:e</title>
<path fill="none" stroke="#000000" d="M211.0503,-209.329C192.2607,-225.5294 207.8581,-278.7 174,-278.7"/>
<polygon fill="#000000" stroke="#000000" points="217.4071,-207.2196 226.1338,-208.1168 221.2036,-205.9598 225,-204.7 225,-204.7 225,-204.7 221.2036,-205.9598 223.8662,-201.2832 217.4071,-207.2196 217.4071,-207.2196"/>
<ellipse fill="none" stroke="#000000" cx="214.37" cy="-208.2275" rx="3.2" ry="3.2"/>
</g>
</g>
</svg>
