<?xml version="1.0" encoding="UTF-8" standalone="no"?>
<!DOCTYPE svg PUBLIC "-//W3C//DTD SVG 1.1//EN"
 "http://www.w3.org/Graphics/SVG/1.1/DTD/svg11.dtd">
<!-- Generated by graphviz version 2.40.1 (20161225.0304)
 -->
<!-- Title: twoDegreesRelationshipsDiagram Pages: 1 -->
<svg width="770pt" height="431pt"
 viewBox="0.00 0.00 770.00 431.30" xmlns="http://www.w3.org/2000/svg" xmlns:xlink="http://www.w3.org/1999/xlink">
<g id="graph0" class="graph" transform="scale(1 1) rotate(0) translate(4 427.3013)">
<title>twoDegreesRelationshipsDiagram</title>
<polygon fill="#ffffff" stroke="transparent" points="-4,4 -4,-427.3013 766,-427.3013 766,4 -4,4"/>
<text text-anchor="middle" x="72.4936" y="-7.3" font-family="Helvetica,sans-Serif" font-size="11.00" fill="#000000">Generated by SchemaSpy</text>
<!-- Providers -->
<g id="node1" class="node">
<title>Providers</title>
<g id="a_node1"><a xlink:href="../../tables/Providers.html" xlink:title="Providers" target="_top">
<polygon fill="#ffffff" stroke="transparent" points="304.5,-277.2 304.5,-382.2 429.5,-382.2 429.5,-277.2 304.5,-277.2"/>
<polygon fill="#f5f5f5" stroke="transparent" points="305,-358.7 305,-381.7 430,-381.7 430,-358.7 305,-358.7"/>
<polygon fill="none" stroke="#000000" points="305,-358.7 305,-381.7 430,-381.7 430,-358.7 305,-358.7"/>
<text text-anchor="start" x="310" y="-367.3" font-family="Helvetica,sans-Serif" font-weight="bold" font-size="11.00" fill="#000000">Providers</text>
<text text-anchor="start" x="395.0437" y="-366.8" font-family="Helvetica,sans-Serif" font-size="11.00" fill="#000000">[table]</text>
<polygon fill="none" stroke="#000000" points="305,-336.7 305,-358.7 430,-358.7 430,-336.7 305,-336.7"/>
<image xlink:href="../../images/primaryKeys.png" width="11px" height="12px" preserveAspectRatio="xMinYMin meet" x="310" y="-353.7"/>
<text text-anchor="start" x="325" y="-343.8" font-family="Helvetica,sans-Serif" font-size="11.00" fill="#000000">Id</text>
<polygon fill="#ffffff" stroke="transparent" points="305,-314.7 305,-336.7 430,-336.7 430,-314.7 305,-314.7"/>
<polygon fill="none" stroke="#000000" points="305,-314.7 305,-336.7 430,-336.7 430,-314.7 305,-314.7"/>
<image xlink:href="../../images/foreignKeys.png" width="11px" height="12px" preserveAspectRatio="xMinYMin meet" x="310" y="-331.7"/>
<text text-anchor="start" x="325" y="-321.8" font-family="Helvetica,sans-Serif" font-size="11.00" fill="#000000">EmployeeId</text>
<polygon fill="none" stroke="#000000" points="305,-295.7 305,-314.7 430,-314.7 430,-295.7 305,-295.7"/>
<text text-anchor="start" x="308" y="-301.8" font-family="Helvetica,sans-Serif" font-size="11.00" fill="#000000">...</text>
<polygon fill="#ffffff" stroke="transparent" points="305,-276.7 305,-295.7 430,-295.7 430,-276.7 305,-276.7"/>
<polygon fill="none" stroke="#000000" points="305,-276.7 305,-295.7 430,-295.7 430,-276.7 305,-276.7"/>
<polygon fill="#ffffff" stroke="transparent" points="306,-277.7 306,-294.7 350,-294.7 350,-277.7 306,-277.7"/>
<text text-anchor="start" x="308" y="-282.8" font-family="Helvetica,sans-Serif" font-size="11.00" fill="#000000">&lt; 1</text>
<polygon fill="#ffffff" stroke="transparent" points="350,-277.7 350,-294.7 385,-294.7 385,-277.7 350,-277.7"/>
<text text-anchor="start" x="364.4431" y="-282.8" font-family="Helvetica,sans-Serif" font-size="11.00" fill="#000000"> &#160;</text>
<polygon fill="#ffffff" stroke="transparent" points="385,-277.7 385,-294.7 429,-294.7 429,-277.7 385,-277.7"/>
<text text-anchor="start" x="411.4053" y="-282.8" font-family="Helvetica,sans-Serif" font-size="11.00" fill="#000000">3 &gt;</text>
<polygon fill="#000000" stroke="#000000" points="350,-277.7 350,-294.7 350,-294.7 350,-277.7 350,-277.7"/>
<polygon fill="#000000" stroke="#000000" points="385,-277.7 385,-294.7 385,-294.7 385,-277.7 385,-277.7"/>
</a>
</g>
</g>
<!-- Compensation.Employees -->
<g id="node2" class="node">
<title>Compensation.Employees</title>
<g id="a_node2"><a xlink:title="Compensation.Employees">
<polygon fill="#ffffff" stroke="transparent" points="8,-298.2 8,-359.2 235,-359.2 235,-298.2 8,-298.2"/>
<polygon fill="#f5f5f5" stroke="transparent" points="8.5,-335.7 8.5,-358.7 235.5,-358.7 235.5,-335.7 8.5,-335.7"/>
<polygon fill="none" stroke="#000000" points="8.5,-335.7 8.5,-358.7 235.5,-358.7 235.5,-335.7 8.5,-335.7"/>
<text text-anchor="start" x="13.5" y="-344.3" font-family="Helvetica,sans-Serif" font-weight="bold" font-size="11.00" fill="#000000">Compensation.Employees</text>
<text text-anchor="start" x="201.0219" y="-343.8" font-family="Helvetica,sans-Serif" font-size="11.00" fill="#000000">[table]</text>
<polygon fill="none" stroke="#000000" points="8.5,-316.7 8.5,-335.7 235.5,-335.7 235.5,-316.7 8.5,-316.7"/>
<text text-anchor="start" x="11.5" y="-322.8" font-family="Helvetica,sans-Serif" font-size="11.00" fill="#000000">...</text>
<polygon fill="#ffffff" stroke="transparent" points="8.5,-297.7 8.5,-316.7 235.5,-316.7 235.5,-297.7 8.5,-297.7"/>
<polygon fill="none" stroke="#000000" points="8.5,-297.7 8.5,-316.7 235.5,-316.7 235.5,-297.7 8.5,-297.7"/>
<polygon fill="#ffffff" stroke="transparent" points="9.5,-298.7 9.5,-315.7 81.5,-315.7 81.5,-298.7 9.5,-298.7"/>
<text text-anchor="start" x="11.5" y="-303.8" font-family="Helvetica,sans-Serif" font-size="11.00" fill="#000000"> &#160;</text>
<polygon fill="#ffffff" stroke="transparent" points="81.5,-298.7 81.5,-315.7 153.5,-315.7 153.5,-298.7 81.5,-298.7"/>
<text text-anchor="start" x="114.4431" y="-303.8" font-family="Helvetica,sans-Serif" font-size="11.00" fill="#000000"> &#160;</text>
<polygon fill="#ffffff" stroke="transparent" points="153.5,-298.7 153.5,-315.7 234.5,-315.7 234.5,-298.7 153.5,-298.7"/>
<text text-anchor="start" x="216.9053" y="-303.8" font-family="Helvetica,sans-Serif" font-size="11.00" fill="#000000">1 &gt;</text>
<polygon fill="#000000" stroke="#000000" points="81.5,-298.7 81.5,-315.7 81.5,-315.7 81.5,-298.7 81.5,-298.7"/>
<polygon fill="#000000" stroke="#000000" points="153.5,-298.7 153.5,-315.7 153.5,-315.7 153.5,-298.7 153.5,-298.7"/>
</a>
</g>
</g>
<!-- Providers&#45;&gt;Compensation.Employees -->
<g id="edge1" class="edge">
<title>Providers:w&#45;&gt;Compensation.Employees:e</title>
<path fill="none" stroke="#000000" d="M294.4121,-325.7C271.8186,-325.7 262.5278,-325.7 235.5,-325.7"/>
<polygon fill="#000000" stroke="#000000" points="304.2,-321.7 304.2,-329.7 302.6,-329.7 302.6,-321.7 304.2,-321.7"/>
<polyline fill="none" stroke="#000000" points="305,-325.7 301,-325.7 "/>
<ellipse fill="none" stroke="#000000" cx="297.8" cy="-325.7001" rx="3.2" ry="3.2"/>
</g>
<!-- VisitAttendants -->
<g id="node3" class="node">
<title>VisitAttendants</title>
<g id="a_node3"><a xlink:href="../../tables/VisitAttendants.html" xlink:title="VisitAttendants" target="_top">
<polygon fill="#ffffff" stroke="transparent" points="516.5,-120.7 516.5,-298.7 736.5,-298.7 736.5,-120.7 516.5,-120.7"/>
<polygon fill="#f5f5f5" stroke="transparent" points="518.5,-273.7 518.5,-296.7 734.5,-296.7 734.5,-273.7 518.5,-273.7"/>
<polygon fill="none" stroke="#000000" points="518.5,-273.7 518.5,-296.7 734.5,-296.7 734.5,-273.7 518.5,-273.7"/>
<text text-anchor="start" x="523.5" y="-282.3" font-family="Helvetica,sans-Serif" font-weight="bold" font-size="11.00" fill="#000000">VisitAttendants</text>
<text text-anchor="start" x="699.5437" y="-281.8" font-family="Helvetica,sans-Serif" font-size="11.00" fill="#000000">[table]</text>
<polygon fill="none" stroke="#000000" points="518.5,-251.7 518.5,-273.7 653.5,-273.7 653.5,-251.7 518.5,-251.7"/>
<image xlink:href="../../images/primaryKeys.png" width="11px" height="12px" preserveAspectRatio="xMinYMin meet" x="523.5" y="-268.7"/>
<text text-anchor="start" x="538.5" y="-258.8" font-family="Helvetica,sans-Serif" font-size="11.00" fill="#000000">Id</text>
<polygon fill="none" stroke="#000000" points="653.5,-251.7 653.5,-273.7 734.5,-273.7 734.5,-251.7 653.5,-251.7"/>
<text text-anchor="start" x="656.5" y="-259.4" font-family="Helvetica,sans-Serif" font-size="11.00" fill="#000000">int identity[4]</text>
<polygon fill="#ffffff" stroke="transparent" points="518.5,-229.7 518.5,-251.7 653.5,-251.7 653.5,-229.7 518.5,-229.7"/>
<polygon fill="none" stroke="#000000" points="518.5,-229.7 518.5,-251.7 653.5,-251.7 653.5,-229.7 518.5,-229.7"/>
<image xlink:href="../../images/foreignKeys.png" width="11px" height="12px" preserveAspectRatio="xMinYMin meet" x="523.5" y="-246.7"/>
<text text-anchor="start" x="538.5" y="-236.8" font-family="Helvetica,sans-Serif" font-size="11.00" fill="#000000">VisitId</text>
<polygon fill="none" stroke="#000000" points="653.5,-229.7 653.5,-251.7 734.5,-251.7 734.5,-229.7 653.5,-229.7"/>
<text text-anchor="start" x="656.5" y="-237.4" font-family="Helvetica,sans-Serif" font-size="11.00" fill="#000000">int[4]</text>
<polygon fill="#ffffff" stroke="transparent" points="518.5,-207.7 518.5,-229.7 653.5,-229.7 653.5,-207.7 518.5,-207.7"/>
<polygon fill="none" stroke="#000000" points="518.5,-207.7 518.5,-229.7 653.5,-229.7 653.5,-207.7 518.5,-207.7"/>
<image xlink:href="../../images/foreignKeys.png" width="11px" height="12px" preserveAspectRatio="xMinYMin meet" x="523.5" y="-224.7"/>
<text text-anchor="start" x="538.5" y="-214.8" font-family="Helvetica,sans-Serif" font-size="11.00" fill="#000000">ProviderId</text>
<polygon fill="none" stroke="#000000" points="653.5,-207.7 653.5,-229.7 734.5,-229.7 734.5,-207.7 653.5,-207.7"/>
<text text-anchor="start" x="656.5" y="-215.4" font-family="Helvetica,sans-Serif" font-size="11.00" fill="#000000">int[4]</text>
<polygon fill="none" stroke="#000000" points="518.5,-185.7 518.5,-207.7 653.5,-207.7 653.5,-185.7 518.5,-185.7"/>
<text text-anchor="start" x="538.5" y="-192.8" font-family="Helvetica,sans-Serif" font-size="11.00" fill="#000000">CreatedAtUtc</text>
<polygon fill="none" stroke="#000000" points="653.5,-185.7 653.5,-207.7 734.5,-207.7 734.5,-185.7 653.5,-185.7"/>
<text text-anchor="start" x="656.0968" y="-193.4" font-family="Helvetica,sans-Serif" font-size="11.00" fill="#000000">datetime2[16,7]</text>
<polygon fill="none" stroke="#000000" points="518.5,-163.7 518.5,-185.7 653.5,-185.7 653.5,-163.7 518.5,-163.7"/>
<text text-anchor="start" x="538.5" y="-170.8" font-family="Helvetica,sans-Serif" font-size="11.00" fill="#000000">UpdatedAtUtc</text>
<polygon fill="none" stroke="#000000" points="653.5,-163.7 653.5,-185.7 734.5,-185.7 734.5,-163.7 653.5,-163.7"/>
<text text-anchor="start" x="656.0968" y="-171.4" font-family="Helvetica,sans-Serif" font-size="11.00" fill="#000000">datetime2[16,7]</text>
<polygon fill="none" stroke="#000000" points="518.5,-141.7 518.5,-163.7 653.5,-163.7 653.5,-141.7 518.5,-141.7"/>
<text text-anchor="start" x="538.5" y="-148.8" font-family="Helvetica,sans-Serif" font-size="11.00" fill="#000000">RowVersion</text>
<polygon fill="none" stroke="#000000" points="653.5,-141.7 653.5,-163.7 734.5,-163.7 734.5,-141.7 653.5,-141.7"/>
<text text-anchor="start" x="656.5" y="-149.4" font-family="Helvetica,sans-Serif" font-size="11.00" fill="#000000">timestamp[8]</text>
<polygon fill="#ffffff" stroke="transparent" points="518.5,-122.7 518.5,-141.7 734.5,-141.7 734.5,-122.7 518.5,-122.7"/>
<polygon fill="none" stroke="#000000" points="518.5,-122.7 518.5,-141.7 734.5,-141.7 734.5,-122.7 518.5,-122.7"/>
<polygon fill="#ffffff" stroke="transparent" points="519.5,-123.7 519.5,-140.7 594.5,-140.7 594.5,-123.7 519.5,-123.7"/>
<text text-anchor="start" x="521.5" y="-128.8" font-family="Helvetica,sans-Serif" font-size="11.00" fill="#000000">&lt; 2</text>
<polygon fill="#ffffff" stroke="transparent" points="594.5,-123.7 594.5,-140.7 659.5,-140.7 659.5,-123.7 594.5,-123.7"/>
<text text-anchor="start" x="623.9431" y="-128.8" font-family="Helvetica,sans-Serif" font-size="11.00" fill="#000000"> &#160;</text>
<polygon fill="#ffffff" stroke="transparent" points="659.5,-123.7 659.5,-140.7 733.5,-140.7 733.5,-123.7 659.5,-123.7"/>
<text text-anchor="start" x="715.9053" y="-128.8" font-family="Helvetica,sans-Serif" font-size="11.00" fill="#000000">0 &gt;</text>
<polygon fill="#000000" stroke="#000000" points="594.5,-123.7 594.5,-140.7 594.5,-140.7 594.5,-123.7 594.5,-123.7"/>
<polygon fill="#000000" stroke="#000000" points="659.5,-123.7 659.5,-140.7 659.5,-140.7 659.5,-123.7 659.5,-123.7"/>
<polygon fill="none" stroke="#000000" stroke-width="2" points="517.5,-121.7 517.5,-297.7 735.5,-297.7 735.5,-121.7 517.5,-121.7"/>
</a>
</g>
</g>
<!-- VisitAttendants&#45;&gt;Providers -->
<g id="edge2" class="edge">
<title>VisitAttendants:w&#45;&gt;Providers:e</title>
<path fill="none" stroke="#000000" d="M503.9837,-221.0492C456.2984,-238.5329 493.9609,-347.7 430,-347.7"/>
<polygon fill="#000000" stroke="#000000" points="510.6027,-219.978 519.0751,-222.2538 514.5514,-219.339 518.5,-218.7 518.5,-218.7 518.5,-218.7 514.5514,-219.339 517.9249,-215.1462 510.6027,-219.978 510.6027,-219.978"/>
<ellipse fill="none" stroke="#000000" cx="507.4438" cy="-220.4893" rx="3.2" ry="3.2"/>
</g>
<!-- Visits -->
<g id="node4" class="node">
<title>Visits</title>
<g id="a_node4"><a xlink:href="../../tables/Visits.html" xlink:title="Visits" target="_top">
<polygon fill="#ffffff" stroke="transparent" points="284,-107.2 284,-256.2 450,-256.2 450,-107.2 284,-107.2"/>
<polygon fill="#f5f5f5" stroke="transparent" points="284,-232.7 284,-255.7 450,-255.7 450,-232.7 284,-232.7"/>
<polygon fill="none" stroke="#000000" points="284,-232.7 284,-255.7 450,-255.7 450,-232.7 284,-232.7"/>
<text text-anchor="start" x="289" y="-241.3" font-family="Helvetica,sans-Serif" font-weight="bold" font-size="11.00" fill="#000000">Visits</text>
<text text-anchor="start" x="415.0437" y="-240.8" font-family="Helvetica,sans-Serif" font-size="11.00" fill="#000000">[table]</text>
<polygon fill="none" stroke="#000000" points="284,-210.7 284,-232.7 450,-232.7 450,-210.7 284,-210.7"/>
<image xlink:href="../../images/primaryKeys.png" width="11px" height="12px" preserveAspectRatio="xMinYMin meet" x="289" y="-227.7"/>
<text text-anchor="start" x="304" y="-217.8" font-family="Helvetica,sans-Serif" font-size="11.00" fill="#000000">Id</text>
<polygon fill="#ffffff" stroke="transparent" points="284,-188.7 284,-210.7 450,-210.7 450,-188.7 284,-188.7"/>
<polygon fill="none" stroke="#000000" points="284,-188.7 284,-210.7 450,-210.7 450,-188.7 284,-188.7"/>
<text text-anchor="start" x="304" y="-195.8" font-family="Helvetica,sans-Serif" font-size="11.00" fill="#000000">DateServiced</text>
<polygon fill="#ffffff" stroke="transparent" points="284,-166.7 284,-188.7 450,-188.7 450,-166.7 284,-166.7"/>
<polygon fill="none" stroke="#000000" points="284,-166.7 284,-188.7 450,-188.7 450,-166.7 284,-166.7"/>
<image xlink:href="../../images/foreignKeys.png" width="11px" height="12px" preserveAspectRatio="xMinYMin meet" x="289" y="-183.7"/>
<text text-anchor="start" x="304" y="-173.8" font-family="Helvetica,sans-Serif" font-size="11.00" fill="#000000">HospitalizationId</text>
<polygon fill="#ffffff" stroke="transparent" points="284,-144.7 284,-166.7 450,-166.7 450,-144.7 284,-144.7"/>
<polygon fill="none" stroke="#000000" points="284,-144.7 284,-166.7 450,-166.7 450,-144.7 284,-144.7"/>
<image xlink:href="../../images/foreignKeys.png" width="11px" height="12px" preserveAspectRatio="xMinYMin meet" x="289" y="-161.7"/>
<text text-anchor="start" x="304" y="-151.8" font-family="Helvetica,sans-Serif" font-size="11.00" fill="#000000">ServiceTypeId</text>
<polygon fill="none" stroke="#000000" points="284,-125.7 284,-144.7 450,-144.7 450,-125.7 284,-125.7"/>
<text text-anchor="start" x="287" y="-131.8" font-family="Helvetica,sans-Serif" font-size="11.00" fill="#000000">...</text>
<polygon fill="#ffffff" stroke="transparent" points="284,-106.7 284,-125.7 450,-125.7 450,-106.7 284,-106.7"/>
<polygon fill="none" stroke="#000000" points="284,-106.7 284,-125.7 450,-125.7 450,-106.7 284,-106.7"/>
<polygon fill="#ffffff" stroke="transparent" points="285,-107.7 285,-124.7 343,-124.7 343,-107.7 285,-107.7"/>
<text text-anchor="start" x="287" y="-112.8" font-family="Helvetica,sans-Serif" font-size="11.00" fill="#000000">&lt; 2</text>
<polygon fill="#ffffff" stroke="transparent" points="343,-107.7 343,-124.7 392,-124.7 392,-107.7 343,-107.7"/>
<text text-anchor="start" x="364.4431" y="-112.8" font-family="Helvetica,sans-Serif" font-size="11.00" fill="#000000"> &#160;</text>
<polygon fill="#ffffff" stroke="transparent" points="392,-107.7 392,-124.7 449,-124.7 449,-107.7 392,-107.7"/>
<text text-anchor="start" x="431.4053" y="-112.8" font-family="Helvetica,sans-Serif" font-size="11.00" fill="#000000">3 &gt;</text>
<polygon fill="#000000" stroke="#000000" points="343,-107.7 343,-124.7 343,-124.7 343,-107.7 343,-107.7"/>
<polygon fill="#000000" stroke="#000000" points="392,-107.7 392,-124.7 392,-124.7 392,-107.7 392,-107.7"/>
</a>
</g>
</g>
<!-- VisitAttendants&#45;&gt;Visits -->
<g id="edge3" class="edge">
<title>VisitAttendants:w&#45;&gt;Visits:e</title>
<path fill="none" stroke="#000000" d="M503.9899,-239.1452C484.2265,-234.6074 476.0403,-221.7 450,-221.7"/>
<polygon fill="#000000" stroke="#000000" points="510.5455,-239.8476 518.1164,-244.2795 514.5228,-240.2738 518.5,-240.7 518.5,-240.7 518.5,-240.7 514.5228,-240.2738 518.8836,-237.1205 510.5455,-239.8476 510.5455,-239.8476"/>
<ellipse fill="none" stroke="#000000" cx="507.3638" cy="-239.5066" rx="3.2" ry="3.2"/>
</g>
<!-- Hospitalizations -->
<g id="node6" class="node">
<title>Hospitalizations</title>
<g id="a_node6"><a xlink:href="../../tables/Hospitalizations.html" xlink:title="Hospitalizations" target="_top">
<polygon fill="#ffffff" stroke="transparent" points="43,-213.2 43,-274.2 200,-274.2 200,-213.2 43,-213.2"/>
<polygon fill="#f5f5f5" stroke="transparent" points="43.5,-250.7 43.5,-273.7 200.5,-273.7 200.5,-250.7 43.5,-250.7"/>
<polygon fill="none" stroke="#000000" points="43.5,-250.7 43.5,-273.7 200.5,-273.7 200.5,-250.7 43.5,-250.7"/>
<text text-anchor="start" x="48.5" y="-259.3" font-family="Helvetica,sans-Serif" font-weight="bold" font-size="11.00" fill="#000000">Hospitalizations</text>
<text text-anchor="start" x="166.0219" y="-258.8" font-family="Helvetica,sans-Serif" font-size="11.00" fill="#000000">[table]</text>
<polygon fill="none" stroke="#000000" points="43.5,-231.7 43.5,-250.7 200.5,-250.7 200.5,-231.7 43.5,-231.7"/>
<text text-anchor="start" x="46.5" y="-237.8" font-family="Helvetica,sans-Serif" font-size="11.00" fill="#000000">...</text>
<polygon fill="#ffffff" stroke="transparent" points="43.5,-212.7 43.5,-231.7 200.5,-231.7 200.5,-212.7 43.5,-212.7"/>
<polygon fill="none" stroke="#000000" points="43.5,-212.7 43.5,-231.7 200.5,-231.7 200.5,-212.7 43.5,-212.7"/>
<polygon fill="#ffffff" stroke="transparent" points="44.5,-213.7 44.5,-230.7 99.5,-230.7 99.5,-213.7 44.5,-213.7"/>
<text text-anchor="start" x="46.5" y="-218.8" font-family="Helvetica,sans-Serif" font-size="11.00" fill="#000000">&lt; 3</text>
<polygon fill="#ffffff" stroke="transparent" points="99.5,-213.7 99.5,-230.7 145.5,-230.7 145.5,-213.7 99.5,-213.7"/>
<text text-anchor="start" x="119.4431" y="-218.8" font-family="Helvetica,sans-Serif" font-size="11.00" fill="#000000"> &#160;</text>
<polygon fill="#ffffff" stroke="transparent" points="145.5,-213.7 145.5,-230.7 199.5,-230.7 199.5,-213.7 145.5,-213.7"/>
<text text-anchor="start" x="181.9053" y="-218.8" font-family="Helvetica,sans-Serif" font-size="11.00" fill="#000000">4 &gt;</text>
<polygon fill="#000000" stroke="#000000" points="99.5,-213.7 99.5,-230.7 99.5,-230.7 99.5,-213.7 99.5,-213.7"/>
<polygon fill="#000000" stroke="#000000" points="145.5,-213.7 145.5,-230.7 145.5,-230.7 145.5,-213.7 145.5,-213.7"/>
</a>
</g>
</g>
<!-- Visits&#45;&gt;Hospitalizations -->
<g id="edge5" class="edge">
<title>Visits:w&#45;&gt;Hospitalizations:e</title>
<path fill="none" stroke="#000000" d="M269.7818,-180.0927C238.9638,-191.6005 241.5411,-240.7 200.5,-240.7"/>
<polygon fill="#000000" stroke="#000000" points="276.1109,-179.0277 284.5975,-181.2501 280.0555,-178.3638 284,-177.7 284,-177.7 284,-177.7 280.0555,-178.3638 283.4025,-174.1499 276.1109,-179.0277 276.1109,-179.0277"/>
<ellipse fill="none" stroke="#000000" cx="272.9553" cy="-179.5588" rx="3.2" ry="3.2"/>
</g>
<!-- ServiceTypes -->
<g id="node7" class="node">
<title>ServiceTypes</title>
<g id="a_node7"><a xlink:href="../../tables/ServiceTypes.html" xlink:title="ServiceTypes" target="_top">
<polygon fill="#ffffff" stroke="transparent" points="53.5,-128.2 53.5,-189.2 189.5,-189.2 189.5,-128.2 53.5,-128.2"/>
<polygon fill="#f5f5f5" stroke="transparent" points="53.5,-165.7 53.5,-188.7 189.5,-188.7 189.5,-165.7 53.5,-165.7"/>
<polygon fill="none" stroke="#000000" points="53.5,-165.7 53.5,-188.7 189.5,-188.7 189.5,-165.7 53.5,-165.7"/>
<text text-anchor="start" x="58.5" y="-174.3" font-family="Helvetica,sans-Serif" font-weight="bold" font-size="11.00" fill="#000000">ServiceTypes</text>
<text text-anchor="start" x="155.0219" y="-173.8" font-family="Helvetica,sans-Serif" font-size="11.00" fill="#000000">[table]</text>
<polygon fill="none" stroke="#000000" points="53.5,-146.7 53.5,-165.7 189.5,-165.7 189.5,-146.7 53.5,-146.7"/>
<text text-anchor="start" x="56.5" y="-152.8" font-family="Helvetica,sans-Serif" font-size="11.00" fill="#000000">...</text>
<polygon fill="#ffffff" stroke="transparent" points="53.5,-127.7 53.5,-146.7 189.5,-146.7 189.5,-127.7 53.5,-127.7"/>
<polygon fill="none" stroke="#000000" points="53.5,-127.7 53.5,-146.7 189.5,-146.7 189.5,-127.7 53.5,-127.7"/>
<polygon fill="#ffffff" stroke="transparent" points="54.5,-128.7 54.5,-145.7 96.5,-145.7 96.5,-128.7 54.5,-128.7"/>
<text text-anchor="start" x="56.5" y="-133.8" font-family="Helvetica,sans-Serif" font-size="11.00" fill="#000000"> &#160;</text>
<polygon fill="#ffffff" stroke="transparent" points="96.5,-128.7 96.5,-145.7 138.5,-145.7 138.5,-128.7 96.5,-128.7"/>
<text text-anchor="start" x="114.4431" y="-133.8" font-family="Helvetica,sans-Serif" font-size="11.00" fill="#000000"> &#160;</text>
<polygon fill="#ffffff" stroke="transparent" points="138.5,-128.7 138.5,-145.7 188.5,-145.7 188.5,-128.7 138.5,-128.7"/>
<text text-anchor="start" x="170.9053" y="-133.8" font-family="Helvetica,sans-Serif" font-size="11.00" fill="#000000">1 &gt;</text>
<polygon fill="#000000" stroke="#000000" points="96.5,-128.7 96.5,-145.7 96.5,-145.7 96.5,-128.7 96.5,-128.7"/>
<polygon fill="#000000" stroke="#000000" points="138.5,-128.7 138.5,-145.7 138.5,-145.7 138.5,-128.7 138.5,-128.7"/>
</a>
</g>
</g>
<!-- Visits&#45;&gt;ServiceTypes -->
<g id="edge6" class="edge">
<title>Visits:w&#45;&gt;ServiceTypes:e</title>
<path fill="none" stroke="#000000" d="M269.1932,-155.7C238.7695,-155.7 226.0859,-155.7 189.5,-155.7"/>
<polygon fill="#000000" stroke="#000000" points="276,-155.7001 284,-159.3 280,-155.7 284,-155.7 284,-155.7 284,-155.7 280,-155.7 284,-152.1 276,-155.7001 276,-155.7001"/>
<ellipse fill="none" stroke="#000000" cx="272.8" cy="-155.7001" rx="3.2" ry="3.2"/>
</g>
<!-- VisitEvents -->
<g id="node5" class="node">
<title>VisitEvents</title>
<g id="a_node5"><a xlink:href="../../tables/VisitEvents.html" xlink:title="VisitEvents" target="_top">
<polygon fill="#ffffff" stroke="transparent" points="566,-38.2 566,-99.2 687,-99.2 687,-38.2 566,-38.2"/>
<polygon fill="#f5f5f5" stroke="transparent" points="566.5,-75.7 566.5,-98.7 687.5,-98.7 687.5,-75.7 566.5,-75.7"/>
<polygon fill="none" stroke="#000000" points="566.5,-75.7 566.5,-98.7 687.5,-98.7 687.5,-75.7 566.5,-75.7"/>
<text text-anchor="start" x="571.5" y="-84.3" font-family="Helvetica,sans-Serif" font-weight="bold" font-size="11.00" fill="#000000">VisitEvents</text>
<text text-anchor="start" x="653.0219" y="-83.8" font-family="Helvetica,sans-Serif" font-size="11.00" fill="#000000">[table]</text>
<polygon fill="none" stroke="#000000" points="566.5,-56.7 566.5,-75.7 687.5,-75.7 687.5,-56.7 566.5,-56.7"/>
<text text-anchor="start" x="569.5" y="-62.8" font-family="Helvetica,sans-Serif" font-size="11.00" fill="#000000">...</text>
<polygon fill="#ffffff" stroke="transparent" points="566.5,-37.7 566.5,-56.7 687.5,-56.7 687.5,-37.7 566.5,-37.7"/>
<polygon fill="none" stroke="#000000" points="566.5,-37.7 566.5,-56.7 687.5,-56.7 687.5,-37.7 566.5,-37.7"/>
<polygon fill="#ffffff" stroke="transparent" points="567.5,-38.7 567.5,-55.7 613.5,-55.7 613.5,-38.7 567.5,-38.7"/>
<text text-anchor="start" x="569.5" y="-43.8" font-family="Helvetica,sans-Serif" font-size="11.00" fill="#000000">&lt; 2</text>
<polygon fill="#ffffff" stroke="transparent" points="613.5,-38.7 613.5,-55.7 650.5,-55.7 650.5,-38.7 613.5,-38.7"/>
<text text-anchor="start" x="628.9431" y="-43.8" font-family="Helvetica,sans-Serif" font-size="11.00" fill="#000000"> &#160;</text>
<polygon fill="#ffffff" stroke="transparent" points="650.5,-38.7 650.5,-55.7 686.5,-55.7 686.5,-38.7 650.5,-38.7"/>
<text text-anchor="start" x="678.3862" y="-43.8" font-family="Helvetica,sans-Serif" font-size="11.00" fill="#000000"> &#160;</text>
<polygon fill="#000000" stroke="#000000" points="613.5,-38.7 613.5,-55.7 613.5,-55.7 613.5,-38.7 613.5,-38.7"/>
<polygon fill="#000000" stroke="#000000" points="650.5,-38.7 650.5,-55.7 650.5,-55.7 650.5,-38.7 650.5,-38.7"/>
</a>
</g>
</g>
<!-- VisitEvents&#45;&gt;Visits -->
<g id="edge4" class="edge">
<title>VisitEvents:w&#45;&gt;Visits:e</title>
<path fill="none" stroke="#000000" d="M551.9874,-66.5009C524.2077,-69.8793 512.5231,-83.9921 491,-109.7 456.9718,-150.3443 503.0083,-221.7 450,-221.7"/>
<polygon fill="#000000" stroke="#000000" points="558.5122,-66.1409 566.6984,-69.2945 562.5061,-65.9204 566.5,-65.7 566.5,-65.7 566.5,-65.7 562.5061,-65.9204 566.3016,-62.1055 558.5122,-66.1409 558.5122,-66.1409"/>
<ellipse fill="none" stroke="#000000" cx="555.317" cy="-66.3172" rx="3.2" ry="3.2"/>
</g>
<!-- staging.ProviderAssignments -->
<g id="node8" class="node">
<title>staging.ProviderAssignments</title>
<g id="a_node8"><a xlink:title="staging.ProviderAssignments">
<polygon fill="#ffffff" stroke="transparent" points="499,-320.2 499,-381.2 754,-381.2 754,-320.2 499,-320.2"/>
<polygon fill="#f5f5f5" stroke="transparent" points="499.5,-357.7 499.5,-380.7 754.5,-380.7 754.5,-357.7 499.5,-357.7"/>
<polygon fill="none" stroke="#000000" points="499.5,-357.7 499.5,-380.7 754.5,-380.7 754.5,-357.7 499.5,-357.7"/>
<text text-anchor="start" x="504.5" y="-366.3" font-family="Helvetica,sans-Serif" font-weight="bold" font-size="11.00" fill="#000000">staging.ProviderAssignments</text>
<text text-anchor="start" x="720.0219" y="-365.8" font-family="Helvetica,sans-Serif" font-size="11.00" fill="#000000">[table]</text>
<polygon fill="none" stroke="#000000" points="499.5,-338.7 499.5,-357.7 754.5,-357.7 754.5,-338.7 499.5,-338.7"/>
<text text-anchor="start" x="502.5" y="-344.8" font-family="Helvetica,sans-Serif" font-size="11.00" fill="#000000">...</text>
<polygon fill="#ffffff" stroke="transparent" points="499.5,-319.7 499.5,-338.7 754.5,-338.7 754.5,-319.7 499.5,-319.7"/>
<polygon fill="none" stroke="#000000" points="499.5,-319.7 499.5,-338.7 754.5,-338.7 754.5,-319.7 499.5,-319.7"/>
<polygon fill="#ffffff" stroke="transparent" points="500.5,-320.7 500.5,-337.7 591.5,-337.7 591.5,-320.7 500.5,-320.7"/>
<text text-anchor="start" x="502.5" y="-325.8" font-family="Helvetica,sans-Serif" font-size="11.00" fill="#000000">&lt; 6</text>
<polygon fill="#ffffff" stroke="transparent" points="591.5,-320.7 591.5,-337.7 672.5,-337.7 672.5,-320.7 591.5,-320.7"/>
<text text-anchor="start" x="628.9431" y="-325.8" font-family="Helvetica,sans-Serif" font-size="11.00" fill="#000000"> &#160;</text>
<polygon fill="#ffffff" stroke="transparent" points="672.5,-320.7 672.5,-337.7 753.5,-337.7 753.5,-320.7 672.5,-320.7"/>
<text text-anchor="start" x="745.3862" y="-325.8" font-family="Helvetica,sans-Serif" font-size="11.00" fill="#000000"> &#160;</text>
<polygon fill="#000000" stroke="#000000" points="591.5,-320.7 591.5,-337.7 591.5,-337.7 591.5,-320.7 591.5,-320.7"/>
<polygon fill="#000000" stroke="#000000" points="672.5,-320.7 672.5,-337.7 672.5,-337.7 672.5,-320.7 672.5,-320.7"/>
</a>
</g>
</g>
<!-- staging.ProviderAssignments&#45;&gt;Providers -->
<g id="edge8" class="edge">
<title>staging.ProviderAssignments:w&#45;&gt;Providers:e</title>
<path fill="none" stroke="#000000" d="M485.1068,-345.0921C465.1804,-341.8854 455.4592,-342.7547 430,-347.7"/>
<polygon fill="#000000" stroke="#000000" points="491.6282,-346.2737 498.8582,-351.2423 495.5641,-346.9868 499.5,-347.7 499.5,-347.7 499.5,-347.7 495.5641,-346.9868 500.1418,-344.1577 491.6282,-346.2737 491.6282,-346.2737"/>
<ellipse fill="none" stroke="#000000" cx="488.4794" cy="-345.7031" rx="3.2" ry="3.2"/>
</g>
<!-- staging.ProviderAssignments&#45;&gt;Providers -->
<g id="edge9" class="edge">
<title>staging.ProviderAssignments:w&#45;&gt;Providers:e</title>
<path fill="none" stroke="#000000" d="M485.3908,-350.689C465.2722,-354.4932 455.5799,-353.4969 430,-347.7"/>
<polygon fill="#000000" stroke="#000000" points="491.6737,-349.358 500.2461,-351.2218 495.5868,-348.529 499.5,-347.7 499.5,-347.7 499.5,-347.7 495.5868,-348.529 498.7539,-344.1782 491.6737,-349.358 491.6737,-349.358"/>
<ellipse fill="none" stroke="#000000" cx="488.5432" cy="-350.0212" rx="3.2" ry="3.2"/>
</g>
<!-- staging.ProviderAssignments&#45;&gt;Visits -->
<g id="edge10" class="edge">
<title>staging.ProviderAssignments:w&#45;&gt;Visits:e</title>
<path fill="none" stroke="#000000" d="M485.377,-344.3298C451.9188,-324.2923 504.2908,-221.7 450,-221.7"/>
<polygon fill="#000000" stroke="#000000" points="491.7185,-345.843 498.6644,-351.2017 495.6092,-346.7715 499.5,-347.7 499.5,-347.7 499.5,-347.7 495.6092,-346.7715 500.3356,-344.1983 491.7185,-345.843 491.7185,-345.843"/>
<ellipse fill="none" stroke="#000000" cx="488.6059" cy="-345.1003" rx="3.2" ry="3.2"/>
</g>
<!-- staging.ProviderAssignments&#45;&gt;Hospitalizations -->
<g id="edge7" class="edge">
<title>staging.ProviderAssignments:w&#45;&gt;Hospitalizations:e</title>
<path fill="none" stroke="#000000" d="M485.6603,-352.5796C475.322,-362.4036 477.0793,-384.3412 458,-392.7 383.9096,-425.1595 341.2104,-440.5604 276,-392.7 236.5644,-363.7566 267.299,-330.1552 243,-287.7 229.0105,-263.2576 228.6627,-240.7 200.5,-240.7"/>
<polygon fill="#000000" stroke="#000000" points="491.9552,-350.3602 500.6971,-351.0952 495.7276,-349.0301 499.5,-347.7 499.5,-347.7 499.5,-347.7 495.7276,-349.0301 498.3029,-344.3048 491.9552,-350.3602 491.9552,-350.3602"/>
<ellipse fill="none" stroke="#000000" cx="488.9373" cy="-351.4242" rx="3.2" ry="3.2"/>
</g>
</g>
</svg>
