<?xml version="1.0" encoding="UTF-8" standalone="no"?>
<!DOCTYPE svg PUBLIC "-//W3C//DTD SVG 1.1//EN"
 "http://www.w3.org/Graphics/SVG/1.1/DTD/svg11.dtd">
<!-- Generated by graphviz version 2.40.1 (20161225.0304)
 -->
<!-- Title: twoDegreesRelationshipsDiagram Pages: 1 -->
<svg width="1058pt" height="757pt"
 viewBox="0.00 0.00 1058.00 757.49" xmlns="http://www.w3.org/2000/svg" xmlns:xlink="http://www.w3.org/1999/xlink">
<g id="graph0" class="graph" transform="scale(1 1) rotate(0) translate(4 753.4947)">
<title>twoDegreesRelationshipsDiagram</title>
<polygon fill="#ffffff" stroke="transparent" points="-4,4 -4,-753.4947 1054,-753.4947 1054,4 -4,4"/>
<text text-anchor="middle" x="72.4936" y="-7.3" font-family="Helvetica,sans-Serif" font-size="11.00" fill="#000000">Generated by SchemaSpy</text>
<!-- HospitalizationInsurances -->
<g id="node1" class="node">
<title>HospitalizationInsurances</title>
<g id="a_node1"><a xlink:href="../../tables/HospitalizationInsurances.html" xlink:title="HospitalizationInsurances" target="_top">
<polygon fill="#ffffff" stroke="transparent" points="492.5,-553.2 492.5,-614.2 721.5,-614.2 721.5,-553.2 492.5,-553.2"/>
<polygon fill="#f5f5f5" stroke="transparent" points="493,-590.7 493,-613.7 722,-613.7 722,-590.7 493,-590.7"/>
<polygon fill="none" stroke="#000000" points="493,-590.7 493,-613.7 722,-613.7 722,-590.7 493,-590.7"/>
<text text-anchor="start" x="498" y="-599.3" font-family="Helvetica,sans-Serif" font-weight="bold" font-size="11.00" fill="#000000">HospitalizationInsurances</text>
<text text-anchor="start" x="687.5219" y="-598.8" font-family="Helvetica,sans-Serif" font-size="11.00" fill="#000000">[table]</text>
<polygon fill="none" stroke="#000000" points="493,-571.7 493,-590.7 722,-590.7 722,-571.7 493,-571.7"/>
<text text-anchor="start" x="496" y="-577.8" font-family="Helvetica,sans-Serif" font-size="11.00" fill="#000000">...</text>
<polygon fill="#ffffff" stroke="transparent" points="493,-552.7 493,-571.7 722,-571.7 722,-552.7 493,-552.7"/>
<polygon fill="none" stroke="#000000" points="493,-552.7 493,-571.7 722,-571.7 722,-552.7 493,-552.7"/>
<polygon fill="#ffffff" stroke="transparent" points="494,-553.7 494,-570.7 576,-570.7 576,-553.7 494,-553.7"/>
<text text-anchor="start" x="496" y="-558.8" font-family="Helvetica,sans-Serif" font-size="11.00" fill="#000000">&lt; 2</text>
<polygon fill="#ffffff" stroke="transparent" points="576,-553.7 576,-570.7 649,-570.7 649,-553.7 576,-553.7"/>
<text text-anchor="start" x="609.4431" y="-558.8" font-family="Helvetica,sans-Serif" font-size="11.00" fill="#000000"> &#160;</text>
<polygon fill="#ffffff" stroke="transparent" points="649,-553.7 649,-570.7 721,-570.7 721,-553.7 649,-553.7"/>
<text text-anchor="start" x="712.8862" y="-558.8" font-family="Helvetica,sans-Serif" font-size="11.00" fill="#000000"> &#160;</text>
<polygon fill="#000000" stroke="#000000" points="576,-553.7 576,-570.7 576,-570.7 576,-553.7 576,-553.7"/>
<polygon fill="#000000" stroke="#000000" points="649,-553.7 649,-570.7 649,-570.7 649,-553.7 649,-553.7"/>
</a>
</g>
</g>
<!-- Hospitalizations -->
<g id="node2" class="node">
<title>Hospitalizations</title>
<g id="a_node2"><a xlink:href="../../tables/Hospitalizations.html" xlink:title="Hospitalizations" target="_top">
<polygon fill="#ffffff" stroke="transparent" points="270,-550.2 270,-611.2 427,-611.2 427,-550.2 270,-550.2"/>
<polygon fill="#f5f5f5" stroke="transparent" points="270.5,-587.7 270.5,-610.7 427.5,-610.7 427.5,-587.7 270.5,-587.7"/>
<polygon fill="none" stroke="#000000" points="270.5,-587.7 270.5,-610.7 427.5,-610.7 427.5,-587.7 270.5,-587.7"/>
<text text-anchor="start" x="275.5" y="-596.3" font-family="Helvetica,sans-Serif" font-weight="bold" font-size="11.00" fill="#000000">Hospitalizations</text>
<text text-anchor="start" x="393.0219" y="-595.8" font-family="Helvetica,sans-Serif" font-size="11.00" fill="#000000">[table]</text>
<polygon fill="none" stroke="#000000" points="270.5,-568.7 270.5,-587.7 427.5,-587.7 427.5,-568.7 270.5,-568.7"/>
<text text-anchor="start" x="273.5" y="-574.8" font-family="Helvetica,sans-Serif" font-size="11.00" fill="#000000">...</text>
<polygon fill="#ffffff" stroke="transparent" points="270.5,-549.7 270.5,-568.7 427.5,-568.7 427.5,-549.7 270.5,-549.7"/>
<polygon fill="none" stroke="#000000" points="270.5,-549.7 270.5,-568.7 427.5,-568.7 427.5,-549.7 270.5,-549.7"/>
<polygon fill="#ffffff" stroke="transparent" points="271.5,-550.7 271.5,-567.7 326.5,-567.7 326.5,-550.7 271.5,-550.7"/>
<text text-anchor="start" x="273.5" y="-555.8" font-family="Helvetica,sans-Serif" font-size="11.00" fill="#000000">&lt; 3</text>
<polygon fill="#ffffff" stroke="transparent" points="326.5,-550.7 326.5,-567.7 372.5,-567.7 372.5,-550.7 326.5,-550.7"/>
<text text-anchor="start" x="346.4431" y="-555.8" font-family="Helvetica,sans-Serif" font-size="11.00" fill="#000000"> &#160;</text>
<polygon fill="#ffffff" stroke="transparent" points="372.5,-550.7 372.5,-567.7 426.5,-567.7 426.5,-550.7 372.5,-550.7"/>
<text text-anchor="start" x="408.9053" y="-555.8" font-family="Helvetica,sans-Serif" font-size="11.00" fill="#000000">4 &gt;</text>
<polygon fill="#000000" stroke="#000000" points="326.5,-550.7 326.5,-567.7 326.5,-567.7 326.5,-550.7 326.5,-550.7"/>
<polygon fill="#000000" stroke="#000000" points="372.5,-550.7 372.5,-567.7 372.5,-567.7 372.5,-550.7 372.5,-550.7"/>
</a>
</g>
</g>
<!-- HospitalizationInsurances&#45;&gt;Hospitalizations -->
<g id="edge1" class="edge">
<title>HospitalizationInsurances:w&#45;&gt;Hospitalizations:e</title>
<path fill="none" stroke="#000000" d="M478.3143,-580.7C464.0398,-580.7 449.3535,-580.7 435.226,-580.7"/>
<polygon fill="#000000" stroke="#000000" points="485,-580.7001 493,-584.3 489,-580.7 493,-580.7 493,-580.7 493,-580.7 489,-580.7 493,-577.1 485,-580.7001 485,-580.7001"/>
<ellipse fill="none" stroke="#000000" cx="481.8" cy="-580.7001" rx="3.2" ry="3.2"/>
</g>
<!-- Facilities -->
<g id="node3" class="node">
<title>Facilities</title>
<g id="a_node3"><a xlink:href="../../tables/Facilities.html" xlink:title="Facilities" target="_top">
<polygon fill="#ffffff" stroke="transparent" points="62.5,-555.2 62.5,-616.2 166.5,-616.2 166.5,-555.2 62.5,-555.2"/>
<polygon fill="#f5f5f5" stroke="transparent" points="62.5,-592.7 62.5,-615.7 166.5,-615.7 166.5,-592.7 62.5,-592.7"/>
<polygon fill="none" stroke="#000000" points="62.5,-592.7 62.5,-615.7 166.5,-615.7 166.5,-592.7 62.5,-592.7"/>
<text text-anchor="start" x="67.5" y="-601.3" font-family="Helvetica,sans-Serif" font-weight="bold" font-size="11.00" fill="#000000">Facilities</text>
<text text-anchor="start" x="132.0219" y="-600.8" font-family="Helvetica,sans-Serif" font-size="11.00" fill="#000000">[table]</text>
<polygon fill="none" stroke="#000000" points="62.5,-573.7 62.5,-592.7 166.5,-592.7 166.5,-573.7 62.5,-573.7"/>
<text text-anchor="start" x="65.5" y="-579.8" font-family="Helvetica,sans-Serif" font-size="11.00" fill="#000000">...</text>
<polygon fill="#ffffff" stroke="transparent" points="62.5,-554.7 62.5,-573.7 166.5,-573.7 166.5,-554.7 62.5,-554.7"/>
<polygon fill="none" stroke="#000000" points="62.5,-554.7 62.5,-573.7 166.5,-573.7 166.5,-554.7 62.5,-554.7"/>
<polygon fill="#ffffff" stroke="transparent" points="63.5,-555.7 63.5,-572.7 94.5,-572.7 94.5,-555.7 63.5,-555.7"/>
<text text-anchor="start" x="65.5" y="-560.8" font-family="Helvetica,sans-Serif" font-size="11.00" fill="#000000"> &#160;</text>
<polygon fill="#ffffff" stroke="transparent" points="94.5,-555.7 94.5,-572.7 125.5,-572.7 125.5,-555.7 94.5,-555.7"/>
<text text-anchor="start" x="106.9431" y="-560.8" font-family="Helvetica,sans-Serif" font-size="11.00" fill="#000000"> &#160;</text>
<polygon fill="#ffffff" stroke="transparent" points="125.5,-555.7 125.5,-572.7 165.5,-572.7 165.5,-555.7 125.5,-555.7"/>
<text text-anchor="start" x="147.9053" y="-560.8" font-family="Helvetica,sans-Serif" font-size="11.00" fill="#000000">3 &gt;</text>
<polygon fill="#000000" stroke="#000000" points="94.5,-555.7 94.5,-572.7 94.5,-572.7 94.5,-555.7 94.5,-555.7"/>
<polygon fill="#000000" stroke="#000000" points="125.5,-555.7 125.5,-572.7 125.5,-572.7 125.5,-555.7 125.5,-555.7"/>
</a>
</g>
</g>
<!-- Hospitalizations&#45;&gt;Facilities -->
<g id="edge2" class="edge">
<title>Hospitalizations:w&#45;&gt;Facilities:e</title>
<path fill="none" stroke="#000000" d="M247.5253,-582.2045C221.154,-582.4892 192.7618,-582.7 166.5,-582.7"/>
<polygon fill="#000000" stroke="#000000" points="253.9424,-582.1311 261.9831,-585.6393 257.9421,-582.0854 261.9419,-582.0396 261.9419,-582.0396 261.9419,-582.0396 257.9421,-582.0854 261.9006,-578.4398 253.9424,-582.1311 253.9424,-582.1311"/>
<ellipse fill="none" stroke="#000000" cx="250.7426" cy="-582.1678" rx="3.2" ry="3.2"/>
</g>
<!-- HospitalizationStatuses -->
<g id="node4" class="node">
<title>HospitalizationStatuses</title>
<g id="a_node4"><a xlink:href="../../tables/HospitalizationStatuses.html" xlink:title="HospitalizationStatuses" target="_top">
<polygon fill="#ffffff" stroke="transparent" points="8,-637.2 8,-698.2 221,-698.2 221,-637.2 8,-637.2"/>
<polygon fill="#f5f5f5" stroke="transparent" points="8.5,-674.7 8.5,-697.7 221.5,-697.7 221.5,-674.7 8.5,-674.7"/>
<polygon fill="none" stroke="#000000" points="8.5,-674.7 8.5,-697.7 221.5,-697.7 221.5,-674.7 8.5,-674.7"/>
<text text-anchor="start" x="13.5" y="-683.3" font-family="Helvetica,sans-Serif" font-weight="bold" font-size="11.00" fill="#000000">HospitalizationStatuses</text>
<text text-anchor="start" x="187.0219" y="-682.8" font-family="Helvetica,sans-Serif" font-size="11.00" fill="#000000">[table]</text>
<polygon fill="none" stroke="#000000" points="8.5,-655.7 8.5,-674.7 221.5,-674.7 221.5,-655.7 8.5,-655.7"/>
<text text-anchor="start" x="11.5" y="-661.8" font-family="Helvetica,sans-Serif" font-size="11.00" fill="#000000">...</text>
<polygon fill="#ffffff" stroke="transparent" points="8.5,-636.7 8.5,-655.7 221.5,-655.7 221.5,-636.7 8.5,-636.7"/>
<polygon fill="none" stroke="#000000" points="8.5,-636.7 8.5,-655.7 221.5,-655.7 221.5,-636.7 8.5,-636.7"/>
<polygon fill="#ffffff" stroke="transparent" points="9.5,-637.7 9.5,-654.7 77.5,-654.7 77.5,-637.7 9.5,-637.7"/>
<text text-anchor="start" x="11.5" y="-642.8" font-family="Helvetica,sans-Serif" font-size="11.00" fill="#000000"> &#160;</text>
<polygon fill="#ffffff" stroke="transparent" points="77.5,-637.7 77.5,-654.7 144.5,-654.7 144.5,-637.7 77.5,-637.7"/>
<text text-anchor="start" x="107.9431" y="-642.8" font-family="Helvetica,sans-Serif" font-size="11.00" fill="#000000"> &#160;</text>
<polygon fill="#ffffff" stroke="transparent" points="144.5,-637.7 144.5,-654.7 220.5,-654.7 220.5,-637.7 144.5,-637.7"/>
<text text-anchor="start" x="202.9053" y="-642.8" font-family="Helvetica,sans-Serif" font-size="11.00" fill="#000000">3 &gt;</text>
<polygon fill="#000000" stroke="#000000" points="77.5,-637.7 77.5,-654.7 77.5,-654.7 77.5,-637.7 77.5,-637.7"/>
<polygon fill="#000000" stroke="#000000" points="144.5,-637.7 144.5,-654.7 144.5,-654.7 144.5,-637.7 144.5,-637.7"/>
</a>
</g>
</g>
<!-- Hospitalizations&#45;&gt;HospitalizationStatuses -->
<g id="edge3" class="edge">
<title>Hospitalizations:w&#45;&gt;HospitalizationStatuses:e</title>
<path fill="none" stroke="#000000" d="M295.4654,-624.3896C268.4758,-644.8115 237.9646,-664.7 221.5,-664.7"/>
<polygon fill="#000000" stroke="#000000" points="300.8294,-620.2435 309.3607,-618.1993 303.9942,-617.7972 307.1591,-615.351 307.1591,-615.351 307.1591,-615.351 303.9942,-617.7972 304.9574,-612.5027 300.8294,-620.2435 300.8294,-620.2435"/>
<ellipse fill="none" stroke="#000000" cx="298.2976" cy="-622.2004" rx="3.2" ry="3.2"/>
</g>
<!-- Patients -->
<g id="node5" class="node">
<title>Patients</title>
<g id="a_node5"><a xlink:href="../../tables/Patients.html" xlink:title="Patients" target="_top">
<polygon fill="#ffffff" stroke="transparent" points="65,-473.2 65,-534.2 164,-534.2 164,-473.2 65,-473.2"/>
<polygon fill="#f5f5f5" stroke="transparent" points="65.5,-510.7 65.5,-533.7 164.5,-533.7 164.5,-510.7 65.5,-510.7"/>
<polygon fill="none" stroke="#000000" points="65.5,-510.7 65.5,-533.7 164.5,-533.7 164.5,-510.7 65.5,-510.7"/>
<text text-anchor="start" x="70.5" y="-519.3" font-family="Helvetica,sans-Serif" font-weight="bold" font-size="11.00" fill="#000000">Patients</text>
<text text-anchor="start" x="130.0219" y="-518.8" font-family="Helvetica,sans-Serif" font-size="11.00" fill="#000000">[table]</text>
<polygon fill="none" stroke="#000000" points="65.5,-491.7 65.5,-510.7 164.5,-510.7 164.5,-491.7 65.5,-491.7"/>
<text text-anchor="start" x="68.5" y="-497.8" font-family="Helvetica,sans-Serif" font-size="11.00" fill="#000000">...</text>
<polygon fill="#ffffff" stroke="transparent" points="65.5,-472.7 65.5,-491.7 164.5,-491.7 164.5,-472.7 65.5,-472.7"/>
<polygon fill="none" stroke="#000000" points="65.5,-472.7 65.5,-491.7 164.5,-491.7 164.5,-472.7 65.5,-472.7"/>
<polygon fill="#ffffff" stroke="transparent" points="66.5,-473.7 66.5,-490.7 96.5,-490.7 96.5,-473.7 66.5,-473.7"/>
<text text-anchor="start" x="68.5" y="-478.8" font-family="Helvetica,sans-Serif" font-size="11.00" fill="#000000"> &#160;</text>
<polygon fill="#ffffff" stroke="transparent" points="96.5,-473.7 96.5,-490.7 125.5,-490.7 125.5,-473.7 96.5,-473.7"/>
<text text-anchor="start" x="107.9431" y="-478.8" font-family="Helvetica,sans-Serif" font-size="11.00" fill="#000000"> &#160;</text>
<polygon fill="#ffffff" stroke="transparent" points="125.5,-473.7 125.5,-490.7 163.5,-490.7 163.5,-473.7 125.5,-473.7"/>
<text text-anchor="start" x="145.9053" y="-478.8" font-family="Helvetica,sans-Serif" font-size="11.00" fill="#000000">3 &gt;</text>
<polygon fill="#000000" stroke="#000000" points="96.5,-473.7 96.5,-490.7 96.5,-490.7 96.5,-473.7 96.5,-473.7"/>
<polygon fill="#000000" stroke="#000000" points="125.5,-473.7 125.5,-490.7 125.5,-490.7 125.5,-473.7 125.5,-473.7"/>
</a>
</g>
</g>
<!-- Hospitalizations&#45;&gt;Patients -->
<g id="edge4" class="edge">
<title>Hospitalizations:w&#45;&gt;Patients:e</title>
<path fill="none" stroke="#000000" d="M286.3877,-538.6839C251.9954,-519.378 207.5877,-500.7 164.5,-500.7"/>
<polygon fill="#000000" stroke="#000000" points="292.1454,-542.0439 297.2404,-549.1854 295.6001,-544.06 299.0549,-546.0761 299.0549,-546.0761 299.0549,-546.0761 295.6001,-544.06 300.8694,-542.9668 292.1454,-542.0439 292.1454,-542.0439"/>
<ellipse fill="none" stroke="#000000" cx="289.3816" cy="-540.431" rx="3.2" ry="3.2"/>
</g>
<!-- HospitalizationStatusHistories -->
<g id="node6" class="node">
<title>HospitalizationStatusHistories</title>
<g id="a_node6"><a xlink:href="../../tables/HospitalizationStatusHistories.html" xlink:title="HospitalizationStatusHistories" target="_top">
<polygon fill="#ffffff" stroke="transparent" points="476,-635.2 476,-696.2 738,-696.2 738,-635.2 476,-635.2"/>
<polygon fill="#f5f5f5" stroke="transparent" points="476,-672.7 476,-695.7 738,-695.7 738,-672.7 476,-672.7"/>
<polygon fill="none" stroke="#000000" points="476,-672.7 476,-695.7 738,-695.7 738,-672.7 476,-672.7"/>
<text text-anchor="start" x="481" y="-681.3" font-family="Helvetica,sans-Serif" font-weight="bold" font-size="11.00" fill="#000000">HospitalizationStatusHistories</text>
<text text-anchor="start" x="703.5219" y="-680.8" font-family="Helvetica,sans-Serif" font-size="11.00" fill="#000000">[table]</text>
<polygon fill="none" stroke="#000000" points="476,-653.7 476,-672.7 738,-672.7 738,-653.7 476,-653.7"/>
<text text-anchor="start" x="479" y="-659.8" font-family="Helvetica,sans-Serif" font-size="11.00" fill="#000000">...</text>
<polygon fill="#ffffff" stroke="transparent" points="476,-634.7 476,-653.7 738,-653.7 738,-634.7 476,-634.7"/>
<polygon fill="none" stroke="#000000" points="476,-634.7 476,-653.7 738,-653.7 738,-634.7 476,-634.7"/>
<polygon fill="#ffffff" stroke="transparent" points="477,-635.7 477,-652.7 570,-652.7 570,-635.7 477,-635.7"/>
<text text-anchor="start" x="479" y="-640.8" font-family="Helvetica,sans-Serif" font-size="11.00" fill="#000000">&lt; 2</text>
<polygon fill="#ffffff" stroke="transparent" points="570,-635.7 570,-652.7 654,-652.7 654,-635.7 570,-635.7"/>
<text text-anchor="start" x="608.9431" y="-640.8" font-family="Helvetica,sans-Serif" font-size="11.00" fill="#000000"> &#160;</text>
<polygon fill="#ffffff" stroke="transparent" points="654,-635.7 654,-652.7 737,-652.7 737,-635.7 654,-635.7"/>
<text text-anchor="start" x="728.8862" y="-640.8" font-family="Helvetica,sans-Serif" font-size="11.00" fill="#000000"> &#160;</text>
<polygon fill="#000000" stroke="#000000" points="570,-635.7 570,-652.7 570,-652.7 570,-635.7 570,-635.7"/>
<polygon fill="#000000" stroke="#000000" points="654,-635.7 654,-652.7 654,-652.7 654,-635.7 654,-635.7"/>
</a>
</g>
</g>
<!-- HospitalizationStatusHistories&#45;&gt;Hospitalizations -->
<g id="edge5" class="edge">
<title>HospitalizationStatusHistories:w&#45;&gt;Hospitalizations:e</title>
<path fill="none" stroke="#000000" d="M461.3002,-661.4392C429.6528,-656.0921 400.5625,-634.6714 379.8527,-615.2377"/>
<polygon fill="#000000" stroke="#000000" points="468.0293,-662.0163 475.6923,-666.2868 472.0146,-662.3581 476,-662.7 476,-662.7 476,-662.7 472.0146,-662.3581 476.3077,-659.1132 468.0293,-662.0163 468.0293,-662.0163"/>
<ellipse fill="none" stroke="#000000" cx="464.841" cy="-661.7428" rx="3.2" ry="3.2"/>
</g>
<!-- HospitalizationStatusHistories&#45;&gt;HospitalizationStatuses -->
<g id="edge6" class="edge">
<title>HospitalizationStatusHistories:w&#45;&gt;HospitalizationStatuses:e</title>
<path fill="none" stroke="#000000" d="M461.5646,-662.7112C360.2368,-662.8719 329.6437,-664.7 221.5,-664.7"/>
<polygon fill="#000000" stroke="#000000" points="468,-662.7063 476.0028,-666.3 472,-662.7031 476,-662.7 476,-662.7 476,-662.7 472,-662.7031 475.9972,-659.1 468,-662.7063 468,-662.7063"/>
<ellipse fill="none" stroke="#000000" cx="464.8" cy="-662.7088" rx="3.2" ry="3.2"/>
</g>
<!-- VisitAttendants -->
<g id="node7" class="node">
<title>VisitAttendants</title>
<g id="a_node7"><a xlink:href="../../tables/VisitAttendants.html" xlink:title="VisitAttendants" target="_top">
<polygon fill="#ffffff" stroke="transparent" points="838,-297.2 838,-424.2 991,-424.2 991,-297.2 838,-297.2"/>
<polygon fill="#f5f5f5" stroke="transparent" points="838.5,-400.7 838.5,-423.7 991.5,-423.7 991.5,-400.7 838.5,-400.7"/>
<polygon fill="none" stroke="#000000" points="838.5,-400.7 838.5,-423.7 991.5,-423.7 991.5,-400.7 838.5,-400.7"/>
<text text-anchor="start" x="843.5" y="-409.3" font-family="Helvetica,sans-Serif" font-weight="bold" font-size="11.00" fill="#000000">VisitAttendants</text>
<text text-anchor="start" x="957.0219" y="-408.8" font-family="Helvetica,sans-Serif" font-size="11.00" fill="#000000">[table]</text>
<polygon fill="none" stroke="#000000" points="838.5,-378.7 838.5,-400.7 991.5,-400.7 991.5,-378.7 838.5,-378.7"/>
<image xlink:href="../../images/primaryKeys.png" width="11px" height="12px" preserveAspectRatio="xMinYMin meet" x="843.5" y="-395.7"/>
<text text-anchor="start" x="867.5" y="-385.8" font-family="Helvetica,sans-Serif" font-size="11.00" fill="#000000">Id</text>
<polygon fill="#ffffff" stroke="transparent" points="838.5,-356.7 838.5,-378.7 991.5,-378.7 991.5,-356.7 838.5,-356.7"/>
<polygon fill="none" stroke="#000000" points="838.5,-356.7 838.5,-378.7 991.5,-378.7 991.5,-356.7 838.5,-356.7"/>
<image xlink:href="../../images/foreignKeys.png" width="11px" height="12px" preserveAspectRatio="xMinYMin meet" x="843.5" y="-373.7"/>
<text text-anchor="start" x="867.5" y="-363.8" font-family="Helvetica,sans-Serif" font-size="11.00" fill="#000000">VisitId</text>
<polygon fill="#ffffff" stroke="transparent" points="838.5,-334.7 838.5,-356.7 991.5,-356.7 991.5,-334.7 838.5,-334.7"/>
<polygon fill="none" stroke="#000000" points="838.5,-334.7 838.5,-356.7 991.5,-356.7 991.5,-334.7 838.5,-334.7"/>
<image xlink:href="../../images/foreignKeys.png" width="11px" height="12px" preserveAspectRatio="xMinYMin meet" x="843.5" y="-351.7"/>
<text text-anchor="start" x="867.5" y="-341.8" font-family="Helvetica,sans-Serif" font-size="11.00" fill="#000000">ProviderId</text>
<polygon fill="none" stroke="#000000" points="838.5,-315.7 838.5,-334.7 991.5,-334.7 991.5,-315.7 838.5,-315.7"/>
<text text-anchor="start" x="841.5" y="-321.8" font-family="Helvetica,sans-Serif" font-size="11.00" fill="#000000">...</text>
<polygon fill="#ffffff" stroke="transparent" points="838.5,-296.7 838.5,-315.7 991.5,-315.7 991.5,-296.7 838.5,-296.7"/>
<polygon fill="none" stroke="#000000" points="838.5,-296.7 838.5,-315.7 991.5,-315.7 991.5,-296.7 838.5,-296.7"/>
<polygon fill="#ffffff" stroke="transparent" points="839.5,-297.7 839.5,-314.7 896.5,-314.7 896.5,-297.7 839.5,-297.7"/>
<text text-anchor="start" x="841.5" y="-302.8" font-family="Helvetica,sans-Serif" font-size="11.00" fill="#000000">&lt; 2</text>
<polygon fill="#ffffff" stroke="transparent" points="896.5,-297.7 896.5,-314.7 943.5,-314.7 943.5,-297.7 896.5,-297.7"/>
<text text-anchor="start" x="916.9431" y="-302.8" font-family="Helvetica,sans-Serif" font-size="11.00" fill="#000000"> &#160;</text>
<polygon fill="#ffffff" stroke="transparent" points="943.5,-297.7 943.5,-314.7 990.5,-314.7 990.5,-297.7 943.5,-297.7"/>
<text text-anchor="start" x="982.3862" y="-302.8" font-family="Helvetica,sans-Serif" font-size="11.00" fill="#000000"> &#160;</text>
<polygon fill="#000000" stroke="#000000" points="896.5,-297.7 896.5,-314.7 896.5,-314.7 896.5,-297.7 896.5,-297.7"/>
<polygon fill="#000000" stroke="#000000" points="943.5,-297.7 943.5,-314.7 943.5,-314.7 943.5,-297.7 943.5,-297.7"/>
</a>
</g>
</g>
<!-- Providers -->
<g id="node8" class="node">
<title>Providers</title>
<g id="a_node8"><a xlink:href="../../tables/Providers.html" xlink:title="Providers" target="_top">
<polygon fill="#ffffff" stroke="transparent" points="552.5,-416.2 552.5,-477.2 661.5,-477.2 661.5,-416.2 552.5,-416.2"/>
<polygon fill="#f5f5f5" stroke="transparent" points="553,-453.7 553,-476.7 662,-476.7 662,-453.7 553,-453.7"/>
<polygon fill="none" stroke="#000000" points="553,-453.7 553,-476.7 662,-476.7 662,-453.7 553,-453.7"/>
<text text-anchor="start" x="558" y="-462.3" font-family="Helvetica,sans-Serif" font-weight="bold" font-size="11.00" fill="#000000">Providers</text>
<text text-anchor="start" x="627.5219" y="-461.8" font-family="Helvetica,sans-Serif" font-size="11.00" fill="#000000">[table]</text>
<polygon fill="none" stroke="#000000" points="553,-434.7 553,-453.7 662,-453.7 662,-434.7 553,-434.7"/>
<text text-anchor="start" x="556" y="-440.8" font-family="Helvetica,sans-Serif" font-size="11.00" fill="#000000">...</text>
<polygon fill="#ffffff" stroke="transparent" points="553,-415.7 553,-434.7 662,-434.7 662,-415.7 553,-415.7"/>
<polygon fill="none" stroke="#000000" points="553,-415.7 553,-434.7 662,-434.7 662,-415.7 553,-415.7"/>
<polygon fill="#ffffff" stroke="transparent" points="554,-416.7 554,-433.7 593,-433.7 593,-416.7 554,-416.7"/>
<text text-anchor="start" x="556" y="-421.8" font-family="Helvetica,sans-Serif" font-size="11.00" fill="#000000">&lt; 1</text>
<polygon fill="#ffffff" stroke="transparent" points="593,-416.7 593,-433.7 623,-433.7 623,-416.7 593,-416.7"/>
<text text-anchor="start" x="604.9431" y="-421.8" font-family="Helvetica,sans-Serif" font-size="11.00" fill="#000000"> &#160;</text>
<polygon fill="#ffffff" stroke="transparent" points="623,-416.7 623,-433.7 661,-433.7 661,-416.7 623,-416.7"/>
<text text-anchor="start" x="643.4053" y="-421.8" font-family="Helvetica,sans-Serif" font-size="11.00" fill="#000000">3 &gt;</text>
<polygon fill="#000000" stroke="#000000" points="593,-416.7 593,-433.7 593,-433.7 593,-416.7 593,-416.7"/>
<polygon fill="#000000" stroke="#000000" points="623,-416.7 623,-433.7 623,-433.7 623,-416.7 623,-416.7"/>
</a>
</g>
</g>
<!-- VisitAttendants&#45;&gt;Providers -->
<g id="edge7" class="edge">
<title>VisitAttendants:w&#45;&gt;Providers:e</title>
<path fill="none" stroke="#000000" d="M824.0428,-346.9452C788.8804,-353.5291 784.2974,-384.7716 746,-405.7 710.0429,-425.3494 702.9758,-443.7 662,-443.7"/>
<polygon fill="#000000" stroke="#000000" points="830.5295,-346.3866 838.809,-349.2867 834.5148,-346.0433 838.5,-345.7 838.5,-345.7 838.5,-345.7 834.5148,-346.0433 838.191,-342.1133 830.5295,-346.3866 830.5295,-346.3866"/>
<ellipse fill="none" stroke="#000000" cx="827.3413" cy="-346.6612" rx="3.2" ry="3.2"/>
</g>
<!-- Visits -->
<g id="node9" class="node">
<title>Visits</title>
<g id="a_node9"><a xlink:href="../../tables/Visits.html" xlink:title="Visits" target="_top">
<polygon fill="#ffffff" stroke="transparent" points="481.5,-128.7 481.5,-394.7 732.5,-394.7 732.5,-128.7 481.5,-128.7"/>
<polygon fill="#f5f5f5" stroke="transparent" points="484,-369.7 484,-392.7 731,-392.7 731,-369.7 484,-369.7"/>
<polygon fill="none" stroke="#000000" points="484,-369.7 484,-392.7 731,-392.7 731,-369.7 484,-369.7"/>
<text text-anchor="start" x="489" y="-378.3" font-family="Helvetica,sans-Serif" font-weight="bold" font-size="11.00" fill="#000000">Visits</text>
<text text-anchor="start" x="696.0437" y="-377.8" font-family="Helvetica,sans-Serif" font-size="11.00" fill="#000000">[table]</text>
<polygon fill="none" stroke="#000000" points="484,-347.7 484,-369.7 650,-369.7 650,-347.7 484,-347.7"/>
<image xlink:href="../../images/primaryKeys.png" width="11px" height="12px" preserveAspectRatio="xMinYMin meet" x="489" y="-364.7"/>
<text text-anchor="start" x="504" y="-354.8" font-family="Helvetica,sans-Serif" font-size="11.00" fill="#000000">Id</text>
<polygon fill="none" stroke="#000000" points="650,-347.7 650,-369.7 731,-369.7 731,-347.7 650,-347.7"/>
<text text-anchor="start" x="653" y="-355.4" font-family="Helvetica,sans-Serif" font-size="11.00" fill="#000000">int identity[4]</text>
<polygon fill="#ffffff" stroke="transparent" points="484,-325.7 484,-347.7 650,-347.7 650,-325.7 484,-325.7"/>
<polygon fill="none" stroke="#000000" points="484,-325.7 484,-347.7 650,-347.7 650,-325.7 484,-325.7"/>
<text text-anchor="start" x="504" y="-332.8" font-family="Helvetica,sans-Serif" font-size="11.00" fill="#000000">DateServiced</text>
<polygon fill="none" stroke="#000000" points="650,-325.7 650,-347.7 731,-347.7 731,-325.7 650,-325.7"/>
<text text-anchor="start" x="653" y="-333.4" font-family="Helvetica,sans-Serif" font-size="11.00" fill="#000000">date[6]</text>
<polygon fill="#ffffff" stroke="transparent" points="484,-303.7 484,-325.7 650,-325.7 650,-303.7 484,-303.7"/>
<polygon fill="none" stroke="#000000" points="484,-303.7 484,-325.7 650,-325.7 650,-303.7 484,-303.7"/>
<image xlink:href="../../images/foreignKeys.png" width="11px" height="12px" preserveAspectRatio="xMinYMin meet" x="489" y="-320.7"/>
<text text-anchor="start" x="504" y="-310.8" font-family="Helvetica,sans-Serif" font-size="11.00" fill="#000000">HospitalizationId</text>
<polygon fill="none" stroke="#000000" points="650,-303.7 650,-325.7 731,-325.7 731,-303.7 650,-303.7"/>
<text text-anchor="start" x="653" y="-311.4" font-family="Helvetica,sans-Serif" font-size="11.00" fill="#000000">int[4]</text>
<polygon fill="none" stroke="#000000" points="484,-281.7 484,-303.7 650,-303.7 650,-281.7 484,-281.7"/>
<text text-anchor="start" x="504" y="-288.8" font-family="Helvetica,sans-Serif" font-size="11.00" fill="#000000">IsScribeServiceOnly</text>
<polygon fill="none" stroke="#000000" points="650,-281.7 650,-303.7 731,-303.7 731,-281.7 650,-281.7"/>
<text text-anchor="start" x="653" y="-289.4" font-family="Helvetica,sans-Serif" font-size="11.00" fill="#000000">bit[1]</text>
<polygon fill="#ffffff" stroke="transparent" points="484,-259.7 484,-281.7 650,-281.7 650,-259.7 484,-259.7"/>
<polygon fill="none" stroke="#000000" points="484,-259.7 484,-281.7 650,-281.7 650,-259.7 484,-259.7"/>
<image xlink:href="../../images/foreignKeys.png" width="11px" height="12px" preserveAspectRatio="xMinYMin meet" x="489" y="-276.7"/>
<text text-anchor="start" x="504" y="-266.8" font-family="Helvetica,sans-Serif" font-size="11.00" fill="#000000">ServiceTypeId</text>
<polygon fill="none" stroke="#000000" points="650,-259.7 650,-281.7 731,-281.7 731,-259.7 650,-259.7"/>
<text text-anchor="start" x="653" y="-267.4" font-family="Helvetica,sans-Serif" font-size="11.00" fill="#000000">int[4]</text>
<polygon fill="none" stroke="#000000" points="484,-237.7 484,-259.7 650,-259.7 650,-237.7 484,-237.7"/>
<text text-anchor="start" x="504" y="-244.8" font-family="Helvetica,sans-Serif" font-size="11.00" fill="#000000">Room</text>
<polygon fill="none" stroke="#000000" points="650,-237.7 650,-259.7 731,-259.7 731,-237.7 650,-237.7"/>
<text text-anchor="start" x="653" y="-245.4" font-family="Helvetica,sans-Serif" font-size="11.00" fill="#000000">nvarchar[40]</text>
<polygon fill="none" stroke="#000000" points="484,-215.7 484,-237.7 650,-237.7 650,-215.7 484,-215.7"/>
<text text-anchor="start" x="504" y="-222.8" font-family="Helvetica,sans-Serif" font-size="11.00" fill="#000000">Bed</text>
<polygon fill="none" stroke="#000000" points="650,-215.7 650,-237.7 731,-237.7 731,-215.7 650,-215.7"/>
<text text-anchor="start" x="653" y="-223.4" font-family="Helvetica,sans-Serif" font-size="11.00" fill="#000000">nvarchar[10]</text>
<polygon fill="none" stroke="#000000" points="484,-193.7 484,-215.7 650,-215.7 650,-193.7 484,-193.7"/>
<text text-anchor="start" x="504" y="-200.8" font-family="Helvetica,sans-Serif" font-size="11.00" fill="#000000">CreatedAtUtc</text>
<polygon fill="none" stroke="#000000" points="650,-193.7 650,-215.7 731,-215.7 731,-193.7 650,-193.7"/>
<text text-anchor="start" x="652.5968" y="-201.4" font-family="Helvetica,sans-Serif" font-size="11.00" fill="#000000">datetime2[16,7]</text>
<polygon fill="none" stroke="#000000" points="484,-171.7 484,-193.7 650,-193.7 650,-171.7 484,-171.7"/>
<text text-anchor="start" x="504" y="-178.8" font-family="Helvetica,sans-Serif" font-size="11.00" fill="#000000">UpdatedAtUtc</text>
<polygon fill="none" stroke="#000000" points="650,-171.7 650,-193.7 731,-193.7 731,-171.7 650,-171.7"/>
<text text-anchor="start" x="652.5968" y="-179.4" font-family="Helvetica,sans-Serif" font-size="11.00" fill="#000000">datetime2[16,7]</text>
<polygon fill="none" stroke="#000000" points="484,-149.7 484,-171.7 650,-171.7 650,-149.7 484,-149.7"/>
<text text-anchor="start" x="504" y="-156.8" font-family="Helvetica,sans-Serif" font-size="11.00" fill="#000000">RowVersion</text>
<polygon fill="none" stroke="#000000" points="650,-149.7 650,-171.7 731,-171.7 731,-149.7 650,-149.7"/>
<text text-anchor="start" x="653" y="-157.4" font-family="Helvetica,sans-Serif" font-size="11.00" fill="#000000">timestamp[8]</text>
<polygon fill="#ffffff" stroke="transparent" points="484,-130.7 484,-149.7 731,-149.7 731,-130.7 484,-130.7"/>
<polygon fill="none" stroke="#000000" points="484,-130.7 484,-149.7 731,-149.7 731,-130.7 484,-130.7"/>
<polygon fill="#ffffff" stroke="transparent" points="485,-131.7 485,-148.7 570,-148.7 570,-131.7 485,-131.7"/>
<text text-anchor="start" x="487" y="-136.8" font-family="Helvetica,sans-Serif" font-size="11.00" fill="#000000">&lt; 2</text>
<polygon fill="#ffffff" stroke="transparent" points="570,-131.7 570,-148.7 646,-148.7 646,-131.7 570,-131.7"/>
<text text-anchor="start" x="604.9431" y="-136.8" font-family="Helvetica,sans-Serif" font-size="11.00" fill="#000000"> &#160;</text>
<polygon fill="#ffffff" stroke="transparent" points="646,-131.7 646,-148.7 730,-148.7 730,-131.7 646,-131.7"/>
<text text-anchor="start" x="712.4053" y="-136.8" font-family="Helvetica,sans-Serif" font-size="11.00" fill="#000000">3 &gt;</text>
<polygon fill="#000000" stroke="#000000" points="570,-131.7 570,-148.7 570,-148.7 570,-131.7 570,-131.7"/>
<polygon fill="#000000" stroke="#000000" points="646,-131.7 646,-148.7 646,-148.7 646,-131.7 646,-131.7"/>
<polygon fill="none" stroke="#000000" stroke-width="2" points="482.5,-129.7 482.5,-393.7 731.5,-393.7 731.5,-129.7 482.5,-129.7"/>
</a>
</g>
</g>
<!-- VisitAttendants&#45;&gt;Visits -->
<g id="edge8" class="edge">
<title>VisitAttendants:w&#45;&gt;Visits:e</title>
<path fill="none" stroke="#000000" d="M823.977,-367.4006C787.5807,-365.8389 773.701,-358.7 731,-358.7"/>
<polygon fill="#000000" stroke="#000000" points="830.5017,-367.535 838.4258,-371.2992 834.5008,-367.6175 838.5,-367.7 838.5,-367.7 838.5,-367.7 834.5008,-367.6175 838.5742,-364.1008 830.5017,-367.535 830.5017,-367.535"/>
<ellipse fill="none" stroke="#000000" cx="827.3024" cy="-367.469" rx="3.2" ry="3.2"/>
</g>
<!-- Visits&#45;&gt;Hospitalizations -->
<g id="edge11" class="edge">
<title>Visits:w&#45;&gt;Hospitalizations:e</title>
<path fill="none" stroke="#000000" d="M469.4993,-315.8122C378.8692,-330.0699 356.0892,-477.7391 350.3893,-546.1978"/>
<polygon fill="#000000" stroke="#000000" points="476.0234,-315.3119 484.2753,-318.2895 480.0117,-315.0059 484,-314.7 484,-314.7 484,-314.7 480.0117,-315.0059 483.7247,-311.1105 476.0234,-315.3119 476.0234,-315.3119"/>
<ellipse fill="none" stroke="#000000" cx="472.8328" cy="-315.5566" rx="3.2" ry="3.2"/>
</g>
<!-- ServiceTypes -->
<g id="node12" class="node">
<title>ServiceTypes</title>
<g id="a_node12"><a xlink:href="../../tables/ServiceTypes.html" xlink:title="ServiceTypes" target="_top">
<polygon fill="#ffffff" stroke="transparent" points="280.5,-222.2 280.5,-305.2 416.5,-305.2 416.5,-222.2 280.5,-222.2"/>
<polygon fill="#f5f5f5" stroke="transparent" points="280.5,-281.7 280.5,-304.7 416.5,-304.7 416.5,-281.7 280.5,-281.7"/>
<polygon fill="none" stroke="#000000" points="280.5,-281.7 280.5,-304.7 416.5,-304.7 416.5,-281.7 280.5,-281.7"/>
<text text-anchor="start" x="285.5" y="-290.3" font-family="Helvetica,sans-Serif" font-weight="bold" font-size="11.00" fill="#000000">ServiceTypes</text>
<text text-anchor="start" x="382.0219" y="-289.8" font-family="Helvetica,sans-Serif" font-size="11.00" fill="#000000">[table]</text>
<polygon fill="none" stroke="#000000" points="280.5,-259.7 280.5,-281.7 416.5,-281.7 416.5,-259.7 280.5,-259.7"/>
<image xlink:href="../../images/primaryKeys.png" width="11px" height="12px" preserveAspectRatio="xMinYMin meet" x="285.5" y="-276.7"/>
<text text-anchor="start" x="306.5" y="-266.8" font-family="Helvetica,sans-Serif" font-size="11.00" fill="#000000">Id</text>
<polygon fill="none" stroke="#000000" points="280.5,-240.7 280.5,-259.7 416.5,-259.7 416.5,-240.7 280.5,-240.7"/>
<text text-anchor="start" x="283.5" y="-246.8" font-family="Helvetica,sans-Serif" font-size="11.00" fill="#000000">...</text>
<polygon fill="#ffffff" stroke="transparent" points="280.5,-221.7 280.5,-240.7 416.5,-240.7 416.5,-221.7 280.5,-221.7"/>
<polygon fill="none" stroke="#000000" points="280.5,-221.7 280.5,-240.7 416.5,-240.7 416.5,-221.7 280.5,-221.7"/>
<polygon fill="#ffffff" stroke="transparent" points="281.5,-222.7 281.5,-239.7 323.5,-239.7 323.5,-222.7 281.5,-222.7"/>
<text text-anchor="start" x="283.5" y="-227.8" font-family="Helvetica,sans-Serif" font-size="11.00" fill="#000000"> &#160;</text>
<polygon fill="#ffffff" stroke="transparent" points="323.5,-222.7 323.5,-239.7 365.5,-239.7 365.5,-222.7 323.5,-222.7"/>
<text text-anchor="start" x="341.4431" y="-227.8" font-family="Helvetica,sans-Serif" font-size="11.00" fill="#000000"> &#160;</text>
<polygon fill="#ffffff" stroke="transparent" points="365.5,-222.7 365.5,-239.7 415.5,-239.7 415.5,-222.7 365.5,-222.7"/>
<text text-anchor="start" x="397.9053" y="-227.8" font-family="Helvetica,sans-Serif" font-size="11.00" fill="#000000">1 &gt;</text>
<polygon fill="#000000" stroke="#000000" points="323.5,-222.7 323.5,-239.7 323.5,-239.7 323.5,-222.7 323.5,-222.7"/>
<polygon fill="#000000" stroke="#000000" points="365.5,-222.7 365.5,-239.7 365.5,-239.7 365.5,-222.7 365.5,-222.7"/>
</a>
</g>
</g>
<!-- Visits&#45;&gt;ServiceTypes -->
<g id="edge12" class="edge">
<title>Visits:w&#45;&gt;ServiceTypes:e</title>
<path fill="none" stroke="#000000" d="M469.4733,-270.7C450.4877,-270.7 440.9922,-270.7 416.5,-270.7"/>
<polygon fill="#000000" stroke="#000000" points="476,-270.7001 484,-274.3 480,-270.7 484,-270.7 484,-270.7 484,-270.7 480,-270.7 484,-267.1 476,-270.7001 476,-270.7001"/>
<ellipse fill="none" stroke="#000000" cx="472.8" cy="-270.7001" rx="3.2" ry="3.2"/>
</g>
<!-- VisitEvents -->
<g id="node10" class="node">
<title>VisitEvents</title>
<g id="a_node10"><a xlink:href="../../tables/VisitEvents.html" xlink:title="VisitEvents" target="_top">
<polygon fill="#ffffff" stroke="transparent" points="842,-38.2 842,-209.2 987,-209.2 987,-38.2 842,-38.2"/>
<polygon fill="#f5f5f5" stroke="transparent" points="842.5,-185.7 842.5,-208.7 987.5,-208.7 987.5,-185.7 842.5,-185.7"/>
<polygon fill="none" stroke="#000000" points="842.5,-185.7 842.5,-208.7 987.5,-208.7 987.5,-185.7 842.5,-185.7"/>
<text text-anchor="start" x="847.5" y="-194.3" font-family="Helvetica,sans-Serif" font-weight="bold" font-size="11.00" fill="#000000">VisitEvents</text>
<text text-anchor="start" x="952.5437" y="-193.8" font-family="Helvetica,sans-Serif" font-size="11.00" fill="#000000">[table]</text>
<polygon fill="none" stroke="#000000" points="842.5,-163.7 842.5,-185.7 987.5,-185.7 987.5,-163.7 842.5,-163.7"/>
<image xlink:href="../../images/primaryKeys.png" width="11px" height="12px" preserveAspectRatio="xMinYMin meet" x="847.5" y="-180.7"/>
<text text-anchor="start" x="862.5" y="-170.8" font-family="Helvetica,sans-Serif" font-size="11.00" fill="#000000">Id</text>
<polygon fill="#ffffff" stroke="transparent" points="842.5,-141.7 842.5,-163.7 987.5,-163.7 987.5,-141.7 842.5,-141.7"/>
<polygon fill="none" stroke="#000000" points="842.5,-141.7 842.5,-163.7 987.5,-163.7 987.5,-141.7 842.5,-141.7"/>
<image xlink:href="../../images/foreignKeys.png" width="11px" height="12px" preserveAspectRatio="xMinYMin meet" x="847.5" y="-158.7"/>
<text text-anchor="start" x="862.5" y="-148.8" font-family="Helvetica,sans-Serif" font-size="11.00" fill="#000000">VisitId</text>
<polygon fill="#ffffff" stroke="transparent" points="842.5,-119.7 842.5,-141.7 987.5,-141.7 987.5,-119.7 842.5,-119.7"/>
<polygon fill="none" stroke="#000000" points="842.5,-119.7 842.5,-141.7 987.5,-141.7 987.5,-119.7 842.5,-119.7"/>
<image xlink:href="../../images/foreignKeys.png" width="11px" height="12px" preserveAspectRatio="xMinYMin meet" x="847.5" y="-136.7"/>
<text text-anchor="start" x="862.5" y="-126.8" font-family="Helvetica,sans-Serif" font-size="11.00" fill="#000000">EventTypeId</text>
<polygon fill="#ffffff" stroke="transparent" points="842.5,-97.7 842.5,-119.7 987.5,-119.7 987.5,-97.7 842.5,-97.7"/>
<polygon fill="none" stroke="#000000" points="842.5,-97.7 842.5,-119.7 987.5,-119.7 987.5,-97.7 842.5,-97.7"/>
<text text-anchor="start" x="862.5" y="-104.8" font-family="Helvetica,sans-Serif" font-size="11.00" fill="#000000">EventOccurredAt</text>
<polygon fill="#ffffff" stroke="transparent" points="842.5,-75.7 842.5,-97.7 987.5,-97.7 987.5,-75.7 842.5,-75.7"/>
<polygon fill="none" stroke="#000000" points="842.5,-75.7 842.5,-97.7 987.5,-97.7 987.5,-75.7 842.5,-75.7"/>
<text text-anchor="start" x="862.5" y="-82.8" font-family="Helvetica,sans-Serif" font-size="11.00" fill="#000000">EnteredByUserId</text>
<polygon fill="none" stroke="#000000" points="842.5,-56.7 842.5,-75.7 987.5,-75.7 987.5,-56.7 842.5,-56.7"/>
<text text-anchor="start" x="845.5" y="-62.8" font-family="Helvetica,sans-Serif" font-size="11.00" fill="#000000">...</text>
<polygon fill="#ffffff" stroke="transparent" points="842.5,-37.7 842.5,-56.7 987.5,-56.7 987.5,-37.7 842.5,-37.7"/>
<polygon fill="none" stroke="#000000" points="842.5,-37.7 842.5,-56.7 987.5,-56.7 987.5,-37.7 842.5,-37.7"/>
<polygon fill="#ffffff" stroke="transparent" points="843.5,-38.7 843.5,-55.7 897.5,-55.7 897.5,-38.7 843.5,-38.7"/>
<text text-anchor="start" x="845.5" y="-43.8" font-family="Helvetica,sans-Serif" font-size="11.00" fill="#000000">&lt; 2</text>
<polygon fill="#ffffff" stroke="transparent" points="897.5,-38.7 897.5,-55.7 942.5,-55.7 942.5,-38.7 897.5,-38.7"/>
<text text-anchor="start" x="916.9431" y="-43.8" font-family="Helvetica,sans-Serif" font-size="11.00" fill="#000000"> &#160;</text>
<polygon fill="#ffffff" stroke="transparent" points="942.5,-38.7 942.5,-55.7 986.5,-55.7 986.5,-38.7 942.5,-38.7"/>
<text text-anchor="start" x="978.3862" y="-43.8" font-family="Helvetica,sans-Serif" font-size="11.00" fill="#000000"> &#160;</text>
<polygon fill="#000000" stroke="#000000" points="897.5,-38.7 897.5,-55.7 897.5,-55.7 897.5,-38.7 897.5,-38.7"/>
<polygon fill="#000000" stroke="#000000" points="942.5,-38.7 942.5,-55.7 942.5,-55.7 942.5,-38.7 942.5,-38.7"/>
</a>
</g>
</g>
<!-- VisitEvents&#45;&gt;Visits -->
<g id="edge10" class="edge">
<title>VisitEvents:w&#45;&gt;Visits:e</title>
<path fill="none" stroke="#000000" d="M828.964,-157.7922C788.6679,-189.5145 778.1733,-358.7 731,-358.7"/>
<polygon fill="#000000" stroke="#000000" points="835.0123,-155.5169 843.7676,-156.0695 838.7562,-154.1084 842.5,-152.7 842.5,-152.7 842.5,-152.7 838.7562,-154.1084 841.2324,-149.3305 835.0123,-155.5169 835.0123,-155.5169"/>
<ellipse fill="none" stroke="#000000" cx="832.0172" cy="-156.6436" rx="3.2" ry="3.2"/>
</g>
<!-- VisitEventTypes -->
<g id="node11" class="node">
<title>VisitEventTypes</title>
<g id="a_node11"><a xlink:href="../../tables/VisitEventTypes.html" xlink:title="VisitEventTypes" target="_top">
<polygon fill="#ffffff" stroke="transparent" points="529,-46.2 529,-107.2 685,-107.2 685,-46.2 529,-46.2"/>
<polygon fill="#f5f5f5" stroke="transparent" points="529,-83.7 529,-106.7 685,-106.7 685,-83.7 529,-83.7"/>
<polygon fill="none" stroke="#000000" points="529,-83.7 529,-106.7 685,-106.7 685,-83.7 529,-83.7"/>
<text text-anchor="start" x="534" y="-92.3" font-family="Helvetica,sans-Serif" font-weight="bold" font-size="11.00" fill="#000000">VisitEventTypes</text>
<text text-anchor="start" x="650.5219" y="-91.8" font-family="Helvetica,sans-Serif" font-size="11.00" fill="#000000">[table]</text>
<polygon fill="none" stroke="#000000" points="529,-64.7 529,-83.7 685,-83.7 685,-64.7 529,-64.7"/>
<text text-anchor="start" x="532" y="-70.8" font-family="Helvetica,sans-Serif" font-size="11.00" fill="#000000">...</text>
<polygon fill="#ffffff" stroke="transparent" points="529,-45.7 529,-64.7 685,-64.7 685,-45.7 529,-45.7"/>
<polygon fill="none" stroke="#000000" points="529,-45.7 529,-64.7 685,-64.7 685,-45.7 529,-45.7"/>
<polygon fill="#ffffff" stroke="transparent" points="530,-46.7 530,-63.7 579,-63.7 579,-46.7 530,-46.7"/>
<text text-anchor="start" x="532" y="-51.8" font-family="Helvetica,sans-Serif" font-size="11.00" fill="#000000"> &#160;</text>
<polygon fill="#ffffff" stroke="transparent" points="579,-46.7 579,-63.7 627,-63.7 627,-46.7 579,-46.7"/>
<text text-anchor="start" x="599.9431" y="-51.8" font-family="Helvetica,sans-Serif" font-size="11.00" fill="#000000"> &#160;</text>
<polygon fill="#ffffff" stroke="transparent" points="627,-46.7 627,-63.7 684,-63.7 684,-46.7 627,-46.7"/>
<text text-anchor="start" x="666.4053" y="-51.8" font-family="Helvetica,sans-Serif" font-size="11.00" fill="#000000">1 &gt;</text>
<polygon fill="#000000" stroke="#000000" points="579,-46.7 579,-63.7 579,-63.7 579,-46.7 579,-46.7"/>
<polygon fill="#000000" stroke="#000000" points="627,-46.7 627,-63.7 627,-63.7 627,-46.7 627,-46.7"/>
</a>
</g>
</g>
<!-- VisitEvents&#45;&gt;VisitEventTypes -->
<g id="edge9" class="edge">
<title>VisitEvents:w&#45;&gt;VisitEventTypes:e</title>
<path fill="none" stroke="#000000" d="M828.1141,-129.9373C766.5716,-123.1734 754.3542,-73.7 685,-73.7"/>
<polygon fill="#000000" stroke="#000000" points="834.5112,-130.2764 842.3094,-134.295 838.5056,-130.4882 842.5,-130.7 842.5,-130.7 842.5,-130.7 838.5056,-130.4882 842.6906,-127.105 834.5112,-130.2764 834.5112,-130.2764"/>
<ellipse fill="none" stroke="#000000" cx="831.3157" cy="-130.107" rx="3.2" ry="3.2"/>
</g>
<!-- staging.ProviderAssignments -->
<g id="node13" class="node">
<title>staging.ProviderAssignments</title>
<g id="a_node13"><a xlink:title="staging.ProviderAssignments">
<polygon fill="#ffffff" stroke="transparent" points="787,-462.2 787,-523.2 1042,-523.2 1042,-462.2 787,-462.2"/>
<polygon fill="#f5f5f5" stroke="transparent" points="787.5,-499.7 787.5,-522.7 1042.5,-522.7 1042.5,-499.7 787.5,-499.7"/>
<polygon fill="none" stroke="#000000" points="787.5,-499.7 787.5,-522.7 1042.5,-522.7 1042.5,-499.7 787.5,-499.7"/>
<text text-anchor="start" x="792.5" y="-508.3" font-family="Helvetica,sans-Serif" font-weight="bold" font-size="11.00" fill="#000000">staging.ProviderAssignments</text>
<text text-anchor="start" x="1008.0219" y="-507.8" font-family="Helvetica,sans-Serif" font-size="11.00" fill="#000000">[table]</text>
<polygon fill="none" stroke="#000000" points="787.5,-480.7 787.5,-499.7 1042.5,-499.7 1042.5,-480.7 787.5,-480.7"/>
<text text-anchor="start" x="790.5" y="-486.8" font-family="Helvetica,sans-Serif" font-size="11.00" fill="#000000">...</text>
<polygon fill="#ffffff" stroke="transparent" points="787.5,-461.7 787.5,-480.7 1042.5,-480.7 1042.5,-461.7 787.5,-461.7"/>
<polygon fill="none" stroke="#000000" points="787.5,-461.7 787.5,-480.7 1042.5,-480.7 1042.5,-461.7 787.5,-461.7"/>
<polygon fill="#ffffff" stroke="transparent" points="788.5,-462.7 788.5,-479.7 879.5,-479.7 879.5,-462.7 788.5,-462.7"/>
<text text-anchor="start" x="790.5" y="-467.8" font-family="Helvetica,sans-Serif" font-size="11.00" fill="#000000">&lt; 6</text>
<polygon fill="#ffffff" stroke="transparent" points="879.5,-462.7 879.5,-479.7 960.5,-479.7 960.5,-462.7 879.5,-462.7"/>
<text text-anchor="start" x="916.9431" y="-467.8" font-family="Helvetica,sans-Serif" font-size="11.00" fill="#000000"> &#160;</text>
<polygon fill="#ffffff" stroke="transparent" points="960.5,-462.7 960.5,-479.7 1041.5,-479.7 1041.5,-462.7 960.5,-462.7"/>
<text text-anchor="start" x="1033.3862" y="-467.8" font-family="Helvetica,sans-Serif" font-size="11.00" fill="#000000"> &#160;</text>
<polygon fill="#000000" stroke="#000000" points="879.5,-462.7 879.5,-479.7 879.5,-479.7 879.5,-462.7 879.5,-462.7"/>
<polygon fill="#000000" stroke="#000000" points="960.5,-462.7 960.5,-479.7 960.5,-479.7 960.5,-462.7 960.5,-462.7"/>
</a>
</g>
</g>
<!-- staging.ProviderAssignments&#45;&gt;Hospitalizations -->
<g id="edge13" class="edge">
<title>staging.ProviderAssignments:w&#45;&gt;Hospitalizations:e</title>
<path fill="none" stroke="#000000" d="M764.3227,-509.6435C758.1334,-510.3387 752.0065,-511.0265 746,-511.7 622.453,-525.554 589.604,-516.8489 468,-542.7 457.2464,-544.9861 446.0852,-547.8489 435.0957,-550.972"/>
<polygon fill="#000000" stroke="#000000" points="770.9004,-508.9042 779.2525,-511.588 774.8754,-508.4573 778.8504,-508.0105 778.8504,-508.0105 778.8504,-508.0105 774.8754,-508.4573 778.4482,-504.433 770.9004,-508.9042 770.9004,-508.9042"/>
<ellipse fill="none" stroke="#000000" cx="767.7205" cy="-509.2616" rx="3.2" ry="3.2"/>
</g>
<!-- staging.ProviderAssignments&#45;&gt;HospitalizationStatuses -->
<g id="edge14" class="edge">
<title>staging.ProviderAssignments:w&#45;&gt;HospitalizationStatuses:e</title>
<path fill="none" stroke="#000000" d="M892.922,-540.5989C866.5939,-592.4712 816.6823,-672.3909 746,-706.7 552.0325,-800.8515 473.7809,-714.1567 262,-673.7 243.8884,-670.2401 239.9391,-664.7 221.5,-664.7"/>
<polygon fill="#000000" stroke="#000000" points="895.8789,-534.5942 902.6429,-529.0076 897.6461,-531.0057 899.4132,-527.4172 899.4132,-527.4172 899.4132,-527.4172 897.6461,-531.0057 896.1836,-525.8268 895.8789,-534.5942 895.8789,-534.5942"/>
<ellipse fill="none" stroke="#000000" cx="894.4652" cy="-537.465" rx="3.2" ry="3.2"/>
</g>
<!-- staging.ProviderAssignments&#45;&gt;Patients -->
<g id="edge16" class="edge">
<title>staging.ProviderAssignments:w&#45;&gt;Patients:e</title>
<path fill="none" stroke="#000000" d="M763.8448,-495.2505C612.408,-497.5921 372.2744,-500.7 164.5,-500.7"/>
<polygon fill="#000000" stroke="#000000" points="770.6747,-495.1441 778.7299,-498.6189 774.6742,-495.0817 778.6737,-495.0193 778.6737,-495.0193 778.6737,-495.0193 774.6742,-495.0817 778.6176,-491.4197 770.6747,-495.1441 770.6747,-495.1441"/>
<ellipse fill="none" stroke="#000000" cx="767.4751" cy="-495.194" rx="3.2" ry="3.2"/>
</g>
<!-- staging.ProviderAssignments&#45;&gt;Providers -->
<g id="edge15" class="edge">
<title>staging.ProviderAssignments:w&#45;&gt;Providers:e</title>
<path fill="none" stroke="#000000" d="M793.4665,-455.2488C752.0995,-447.0546 705.3348,-441.4255 662,-443.7"/>
<polygon fill="#000000" stroke="#000000" points="799.7344,-456.5525 806.8336,-461.7063 803.6506,-457.3671 807.5667,-458.1817 807.5667,-458.1817 807.5667,-458.1817 803.6506,-457.3671 808.2999,-454.6572 799.7344,-456.5525 799.7344,-456.5525"/>
<ellipse fill="none" stroke="#000000" cx="796.6014" cy="-455.9008" rx="3.2" ry="3.2"/>
</g>
<!-- staging.ProviderAssignments&#45;&gt;Providers -->
<g id="edge17" class="edge">
<title>staging.ProviderAssignments:w&#45;&gt;Providers:e</title>
<path fill="none" stroke="#000000" d="M764.5858,-458.2112C731.0602,-451.4112 695.5049,-445.7516 662,-443.7"/>
<polygon fill="#000000" stroke="#000000" points="770.9872,-459.5502 778.0806,-464.7119 774.9024,-460.3692 778.8177,-461.1882 778.8177,-461.1882 778.8177,-461.1882 774.9024,-460.3692 779.5548,-457.6644 770.9872,-459.5502 770.9872,-459.5502"/>
<ellipse fill="none" stroke="#000000" cx="767.855" cy="-458.895" rx="3.2" ry="3.2"/>
</g>
<!-- staging.ProviderAssignments&#45;&gt;Visits -->
<g id="edge18" class="edge">
<title>staging.ProviderAssignments:w&#45;&gt;Visits:e</title>
<path fill="none" stroke="#000000" d="M801.4378,-450.8276C793.4873,-445.9487 785.9007,-440.583 779,-434.7 748.5981,-408.7814 770.9506,-358.7 731,-358.7"/>
<polygon fill="#000000" stroke="#000000" points="807.2355,-454.1344 812.401,-461.2251 810.7101,-456.1162 814.1846,-458.098 814.1846,-458.098 814.1846,-458.098 810.7101,-456.1162 815.9683,-454.9709 807.2355,-454.1344 807.2355,-454.1344"/>
<ellipse fill="none" stroke="#000000" cx="804.4559" cy="-452.549" rx="3.2" ry="3.2"/>
</g>
</g>
</svg>
