<?xml version="1.0" encoding="UTF-8" standalone="no"?>
<!DOCTYPE svg PUBLIC "-//W3C//DTD SVG 1.1//EN"
 "http://www.w3.org/Graphics/SVG/1.1/DTD/svg11.dtd">
<!-- Generated by graphviz version 2.40.1 (20161225.0304)
 -->
<!-- Title: oneDegreeRelationshipsDiagram Pages: 1 -->
<svg width="563pt" height="495pt"
 viewBox="0.00 0.00 563.00 495.20" xmlns="http://www.w3.org/2000/svg" xmlns:xlink="http://www.w3.org/1999/xlink">
<g id="graph0" class="graph" transform="scale(1 1) rotate(0) translate(4 491.2)">
<title>oneDegreeRelationshipsDiagram</title>
<polygon fill="#ffffff" stroke="transparent" points="-4,4 -4,-491.2 559,-491.2 559,4 -4,4"/>
<text text-anchor="middle" x="72.4936" y="-7.3" font-family="Helvetica,sans-Serif" font-size="11.00" fill="#000000">Generated by SchemaSpy</text>
<!-- Hospitalizations -->
<g id="node1" class="node">
<title>Hospitalizations</title>
<g id="a_node1"><a xlink:href="../../tables/Hospitalizations.html" xlink:title="Hospitalizations" target="_top">
<polygon fill="#ffffff" stroke="transparent" points="310,-312.2 310,-483.2 503,-483.2 503,-312.2 310,-312.2"/>
<polygon fill="#f5f5f5" stroke="transparent" points="310.5,-459.7 310.5,-482.7 503.5,-482.7 503.5,-459.7 310.5,-459.7"/>
<polygon fill="none" stroke="#000000" points="310.5,-459.7 310.5,-482.7 503.5,-482.7 503.5,-459.7 310.5,-459.7"/>
<text text-anchor="start" x="315.5" y="-468.3" font-family="Helvetica,sans-Serif" font-weight="bold" font-size="11.00" fill="#000000">Hospitalizations</text>
<text text-anchor="start" x="468.5437" y="-467.8" font-family="Helvetica,sans-Serif" font-size="11.00" fill="#000000">[table]</text>
<polygon fill="none" stroke="#000000" points="310.5,-437.7 310.5,-459.7 503.5,-459.7 503.5,-437.7 310.5,-437.7"/>
<image xlink:href="../../images/primaryKeys.png" width="11px" height="12px" preserveAspectRatio="xMinYMin meet" x="315.5" y="-454.7"/>
<text text-anchor="start" x="330.5" y="-444.8" font-family="Helvetica,sans-Serif" font-size="11.00" fill="#000000">Id</text>
<polygon fill="#ffffff" stroke="transparent" points="310.5,-415.7 310.5,-437.7 503.5,-437.7 503.5,-415.7 310.5,-415.7"/>
<polygon fill="none" stroke="#000000" points="310.5,-415.7 310.5,-437.7 503.5,-437.7 503.5,-415.7 310.5,-415.7"/>
<image xlink:href="../../images/foreignKeys.png" width="11px" height="12px" preserveAspectRatio="xMinYMin meet" x="315.5" y="-432.7"/>
<text text-anchor="start" x="330.5" y="-422.8" font-family="Helvetica,sans-Serif" font-size="11.00" fill="#000000">PatientId</text>
<polygon fill="#ffffff" stroke="transparent" points="310.5,-393.7 310.5,-415.7 503.5,-415.7 503.5,-393.7 310.5,-393.7"/>
<polygon fill="none" stroke="#000000" points="310.5,-393.7 310.5,-415.7 503.5,-415.7 503.5,-393.7 310.5,-393.7"/>
<text text-anchor="start" x="330.5" y="-400.8" font-family="Helvetica,sans-Serif" font-size="11.00" fill="#000000">CaseId</text>
<polygon fill="#ffffff" stroke="transparent" points="310.5,-371.7 310.5,-393.7 503.5,-393.7 503.5,-371.7 310.5,-371.7"/>
<polygon fill="none" stroke="#000000" points="310.5,-371.7 310.5,-393.7 503.5,-393.7 503.5,-371.7 310.5,-371.7"/>
<image xlink:href="../../images/foreignKeys.png" width="11px" height="12px" preserveAspectRatio="xMinYMin meet" x="315.5" y="-388.7"/>
<text text-anchor="start" x="330.5" y="-378.8" font-family="Helvetica,sans-Serif" font-size="11.00" fill="#000000">FacilityId</text>
<polygon fill="#ffffff" stroke="transparent" points="310.5,-349.7 310.5,-371.7 503.5,-371.7 503.5,-349.7 310.5,-349.7"/>
<polygon fill="none" stroke="#000000" points="310.5,-349.7 310.5,-371.7 503.5,-371.7 503.5,-349.7 310.5,-349.7"/>
<image xlink:href="../../images/foreignKeys.png" width="11px" height="12px" preserveAspectRatio="xMinYMin meet" x="315.5" y="-366.7"/>
<text text-anchor="start" x="330.5" y="-356.8" font-family="Helvetica,sans-Serif" font-size="11.00" fill="#000000">HospitalizationStatusId</text>
<polygon fill="none" stroke="#000000" points="310.5,-330.7 310.5,-349.7 503.5,-349.7 503.5,-330.7 310.5,-330.7"/>
<text text-anchor="start" x="313.5" y="-336.8" font-family="Helvetica,sans-Serif" font-size="11.00" fill="#000000">...</text>
<polygon fill="#ffffff" stroke="transparent" points="310.5,-311.7 310.5,-330.7 503.5,-330.7 503.5,-311.7 310.5,-311.7"/>
<polygon fill="none" stroke="#000000" points="310.5,-311.7 310.5,-330.7 503.5,-330.7 503.5,-311.7 310.5,-311.7"/>
<polygon fill="#ffffff" stroke="transparent" points="311.5,-312.7 311.5,-329.7 378.5,-329.7 378.5,-312.7 311.5,-312.7"/>
<text text-anchor="start" x="313.5" y="-317.8" font-family="Helvetica,sans-Serif" font-size="11.00" fill="#000000">&lt; 3</text>
<polygon fill="#ffffff" stroke="transparent" points="378.5,-312.7 378.5,-329.7 436.5,-329.7 436.5,-312.7 378.5,-312.7"/>
<text text-anchor="start" x="404.4431" y="-317.8" font-family="Helvetica,sans-Serif" font-size="11.00" fill="#000000"> &#160;</text>
<polygon fill="#ffffff" stroke="transparent" points="436.5,-312.7 436.5,-329.7 502.5,-329.7 502.5,-312.7 436.5,-312.7"/>
<text text-anchor="start" x="484.9053" y="-317.8" font-family="Helvetica,sans-Serif" font-size="11.00" fill="#000000">4 &gt;</text>
<polygon fill="#000000" stroke="#000000" points="378.5,-312.7 378.5,-329.7 378.5,-329.7 378.5,-312.7 378.5,-312.7"/>
<polygon fill="#000000" stroke="#000000" points="436.5,-312.7 436.5,-329.7 436.5,-329.7 436.5,-312.7 436.5,-312.7"/>
</a>
</g>
</g>
<!-- Facilities -->
<g id="node2" class="node">
<title>Facilities</title>
<g id="a_node2"><a xlink:href="../../tables/Facilities.html" xlink:title="Facilities" target="_top">
<polygon fill="#ffffff" stroke="transparent" points="8,-70.7 8,-248.7 217,-248.7 217,-70.7 8,-70.7"/>
<polygon fill="#f5f5f5" stroke="transparent" points="10.5,-223.7 10.5,-246.7 215.5,-246.7 215.5,-223.7 10.5,-223.7"/>
<polygon fill="none" stroke="#000000" points="10.5,-223.7 10.5,-246.7 215.5,-246.7 215.5,-223.7 10.5,-223.7"/>
<text text-anchor="start" x="15.5" y="-232.3" font-family="Helvetica,sans-Serif" font-weight="bold" font-size="11.00" fill="#000000">Facilities</text>
<text text-anchor="start" x="180.5437" y="-231.8" font-family="Helvetica,sans-Serif" font-size="11.00" fill="#000000">[table]</text>
<polygon fill="none" stroke="#000000" points="10.5,-201.7 10.5,-223.7 134.5,-223.7 134.5,-201.7 10.5,-201.7"/>
<image xlink:href="../../images/primaryKeys.png" width="11px" height="12px" preserveAspectRatio="xMinYMin meet" x="15.5" y="-218.7"/>
<text text-anchor="start" x="30.5" y="-208.8" font-family="Helvetica,sans-Serif" font-size="11.00" fill="#000000">Id</text>
<polygon fill="none" stroke="#000000" points="134.5,-201.7 134.5,-223.7 215.5,-223.7 215.5,-201.7 134.5,-201.7"/>
<text text-anchor="start" x="137.5" y="-209.4" font-family="Helvetica,sans-Serif" font-size="11.00" fill="#000000">int identity[4]</text>
<polygon fill="none" stroke="#000000" points="10.5,-179.7 10.5,-201.7 134.5,-201.7 134.5,-179.7 10.5,-179.7"/>
<text text-anchor="start" x="30.5" y="-186.8" font-family="Helvetica,sans-Serif" font-size="11.00" fill="#000000">Name</text>
<polygon fill="none" stroke="#000000" points="134.5,-179.7 134.5,-201.7 215.5,-201.7 215.5,-179.7 134.5,-179.7"/>
<text text-anchor="start" x="137.5" y="-187.4" font-family="Helvetica,sans-Serif" font-size="11.00" fill="#000000">nvarchar[200]</text>
<polygon fill="none" stroke="#000000" points="10.5,-157.7 10.5,-179.7 134.5,-179.7 134.5,-157.7 10.5,-157.7"/>
<text text-anchor="start" x="30.5" y="-164.8" font-family="Helvetica,sans-Serif" font-size="11.00" fill="#000000">Abbreviation</text>
<polygon fill="none" stroke="#000000" points="134.5,-157.7 134.5,-179.7 215.5,-179.7 215.5,-157.7 134.5,-157.7"/>
<text text-anchor="start" x="137.5" y="-165.4" font-family="Helvetica,sans-Serif" font-size="11.00" fill="#000000">nvarchar[20]</text>
<polygon fill="none" stroke="#000000" points="10.5,-135.7 10.5,-157.7 134.5,-157.7 134.5,-135.7 10.5,-135.7"/>
<text text-anchor="start" x="30.5" y="-142.8" font-family="Helvetica,sans-Serif" font-size="11.00" fill="#000000">CreatedAtUtc</text>
<polygon fill="none" stroke="#000000" points="134.5,-135.7 134.5,-157.7 215.5,-157.7 215.5,-135.7 134.5,-135.7"/>
<text text-anchor="start" x="137.0967" y="-143.4" font-family="Helvetica,sans-Serif" font-size="11.00" fill="#000000">datetime2[16,7]</text>
<polygon fill="none" stroke="#000000" points="10.5,-113.7 10.5,-135.7 134.5,-135.7 134.5,-113.7 10.5,-113.7"/>
<text text-anchor="start" x="30.5" y="-120.8" font-family="Helvetica,sans-Serif" font-size="11.00" fill="#000000">UpdatedAtUtc</text>
<polygon fill="none" stroke="#000000" points="134.5,-113.7 134.5,-135.7 215.5,-135.7 215.5,-113.7 134.5,-113.7"/>
<text text-anchor="start" x="137.0967" y="-121.4" font-family="Helvetica,sans-Serif" font-size="11.00" fill="#000000">datetime2[16,7]</text>
<polygon fill="none" stroke="#000000" points="10.5,-91.7 10.5,-113.7 134.5,-113.7 134.5,-91.7 10.5,-91.7"/>
<text text-anchor="start" x="30.5" y="-98.8" font-family="Helvetica,sans-Serif" font-size="11.00" fill="#000000">RowVersion</text>
<polygon fill="none" stroke="#000000" points="134.5,-91.7 134.5,-113.7 215.5,-113.7 215.5,-91.7 134.5,-91.7"/>
<text text-anchor="start" x="137.5" y="-99.4" font-family="Helvetica,sans-Serif" font-size="11.00" fill="#000000">timestamp[8]</text>
<polygon fill="#ffffff" stroke="transparent" points="10.5,-72.7 10.5,-91.7 215.5,-91.7 215.5,-72.7 10.5,-72.7"/>
<polygon fill="none" stroke="#000000" points="10.5,-72.7 10.5,-91.7 215.5,-91.7 215.5,-72.7 10.5,-72.7"/>
<polygon fill="#ffffff" stroke="transparent" points="11.5,-73.7 11.5,-90.7 82.5,-90.7 82.5,-73.7 11.5,-73.7"/>
<text text-anchor="start" x="13.5" y="-78.8" font-family="Helvetica,sans-Serif" font-size="11.00" fill="#000000">&lt; 0</text>
<polygon fill="#ffffff" stroke="transparent" points="82.5,-73.7 82.5,-90.7 144.5,-90.7 144.5,-73.7 82.5,-73.7"/>
<text text-anchor="start" x="110.4431" y="-78.8" font-family="Helvetica,sans-Serif" font-size="11.00" fill="#000000"> &#160;</text>
<polygon fill="#ffffff" stroke="transparent" points="144.5,-73.7 144.5,-90.7 214.5,-90.7 214.5,-73.7 144.5,-73.7"/>
<text text-anchor="start" x="196.9053" y="-78.8" font-family="Helvetica,sans-Serif" font-size="11.00" fill="#000000">3 &gt;</text>
<polygon fill="#000000" stroke="#000000" points="82.5,-73.7 82.5,-90.7 82.5,-90.7 82.5,-73.7 82.5,-73.7"/>
<polygon fill="#000000" stroke="#000000" points="144.5,-73.7 144.5,-90.7 144.5,-90.7 144.5,-73.7 144.5,-73.7"/>
<polygon fill="none" stroke="#000000" stroke-width="2" points="9,-71.7 9,-247.7 216,-247.7 216,-71.7 9,-71.7"/>
</a>
</g>
</g>
<!-- Hospitalizations&#45;&gt;Facilities -->
<g id="edge1" class="edge">
<title>Hospitalizations:w&#45;&gt;Facilities:e</title>
<path fill="none" stroke="#000000" d="M296.0751,-380.5111C270.0457,-371.2362 276.1709,-334.1632 258,-301.7 236.5901,-263.4502 259.3341,-212.7 215.5,-212.7"/>
<polygon fill="#000000" stroke="#000000" points="302.5905,-381.4997 309.9599,-386.2593 306.5453,-382.0999 310.5,-382.7 310.5,-382.7 310.5,-382.7 306.5453,-382.0999 311.0401,-379.1407 302.5905,-381.4997 302.5905,-381.4997"/>
<ellipse fill="none" stroke="#000000" cx="299.4268" cy="-381.0196" rx="3.2" ry="3.2"/>
</g>
<!-- PatientFacilities -->
<g id="node3" class="node">
<title>PatientFacilities</title>
<g id="a_node3"><a xlink:href="../../tables/PatientFacilities.html" xlink:title="PatientFacilities" target="_top">
<polygon fill="#ffffff" stroke="transparent" points="327.5,-142.2 327.5,-291.2 485.5,-291.2 485.5,-142.2 327.5,-142.2"/>
<polygon fill="#f5f5f5" stroke="transparent" points="327.5,-267.7 327.5,-290.7 485.5,-290.7 485.5,-267.7 327.5,-267.7"/>
<polygon fill="none" stroke="#000000" points="327.5,-267.7 327.5,-290.7 485.5,-290.7 485.5,-267.7 327.5,-267.7"/>
<text text-anchor="start" x="332.5" y="-276.3" font-family="Helvetica,sans-Serif" font-weight="bold" font-size="11.00" fill="#000000">PatientFacilities</text>
<text text-anchor="start" x="451.0219" y="-275.8" font-family="Helvetica,sans-Serif" font-size="11.00" fill="#000000">[table]</text>
<polygon fill="none" stroke="#000000" points="327.5,-245.7 327.5,-267.7 485.5,-267.7 485.5,-245.7 327.5,-245.7"/>
<image xlink:href="../../images/primaryKeys.png" width="11px" height="12px" preserveAspectRatio="xMinYMin meet" x="332.5" y="-262.7"/>
<text text-anchor="start" x="356.5" y="-252.8" font-family="Helvetica,sans-Serif" font-size="11.00" fill="#000000">Id</text>
<polygon fill="#ffffff" stroke="transparent" points="327.5,-223.7 327.5,-245.7 485.5,-245.7 485.5,-223.7 327.5,-223.7"/>
<polygon fill="none" stroke="#000000" points="327.5,-223.7 327.5,-245.7 485.5,-245.7 485.5,-223.7 327.5,-223.7"/>
<image xlink:href="../../images/foreignKeys.png" width="11px" height="12px" preserveAspectRatio="xMinYMin meet" x="332.5" y="-240.7"/>
<text text-anchor="start" x="356.5" y="-230.8" font-family="Helvetica,sans-Serif" font-size="11.00" fill="#000000">PatientId</text>
<polygon fill="#ffffff" stroke="transparent" points="327.5,-201.7 327.5,-223.7 485.5,-223.7 485.5,-201.7 327.5,-201.7"/>
<polygon fill="none" stroke="#000000" points="327.5,-201.7 327.5,-223.7 485.5,-223.7 485.5,-201.7 327.5,-201.7"/>
<image xlink:href="../../images/foreignKeys.png" width="11px" height="12px" preserveAspectRatio="xMinYMin meet" x="332.5" y="-218.7"/>
<text text-anchor="start" x="356.5" y="-208.8" font-family="Helvetica,sans-Serif" font-size="11.00" fill="#000000">FacilityId</text>
<polygon fill="#ffffff" stroke="transparent" points="327.5,-179.7 327.5,-201.7 485.5,-201.7 485.5,-179.7 327.5,-179.7"/>
<polygon fill="none" stroke="#000000" points="327.5,-179.7 327.5,-201.7 485.5,-201.7 485.5,-179.7 327.5,-179.7"/>
<text text-anchor="start" x="356.5" y="-186.8" font-family="Helvetica,sans-Serif" font-size="11.00" fill="#000000">MRN</text>
<polygon fill="none" stroke="#000000" points="327.5,-160.7 327.5,-179.7 485.5,-179.7 485.5,-160.7 327.5,-160.7"/>
<text text-anchor="start" x="330.5" y="-166.8" font-family="Helvetica,sans-Serif" font-size="11.00" fill="#000000">...</text>
<polygon fill="#ffffff" stroke="transparent" points="327.5,-141.7 327.5,-160.7 485.5,-160.7 485.5,-141.7 327.5,-141.7"/>
<polygon fill="none" stroke="#000000" points="327.5,-141.7 327.5,-160.7 485.5,-160.7 485.5,-141.7 327.5,-141.7"/>
<polygon fill="#ffffff" stroke="transparent" points="328.5,-142.7 328.5,-159.7 386.5,-159.7 386.5,-142.7 328.5,-142.7"/>
<text text-anchor="start" x="330.5" y="-147.8" font-family="Helvetica,sans-Serif" font-size="11.00" fill="#000000">&lt; 2</text>
<polygon fill="#ffffff" stroke="transparent" points="386.5,-142.7 386.5,-159.7 435.5,-159.7 435.5,-142.7 386.5,-142.7"/>
<text text-anchor="start" x="407.9431" y="-147.8" font-family="Helvetica,sans-Serif" font-size="11.00" fill="#000000"> &#160;</text>
<polygon fill="#ffffff" stroke="transparent" points="435.5,-142.7 435.5,-159.7 484.5,-159.7 484.5,-142.7 435.5,-142.7"/>
<text text-anchor="start" x="476.3862" y="-147.8" font-family="Helvetica,sans-Serif" font-size="11.00" fill="#000000"> &#160;</text>
<polygon fill="#000000" stroke="#000000" points="386.5,-142.7 386.5,-159.7 386.5,-159.7 386.5,-142.7 386.5,-142.7"/>
<polygon fill="#000000" stroke="#000000" points="435.5,-142.7 435.5,-159.7 435.5,-159.7 435.5,-142.7 435.5,-142.7"/>
</a>
</g>
</g>
<!-- PatientFacilities&#45;&gt;Facilities -->
<g id="edge2" class="edge">
<title>PatientFacilities:w&#45;&gt;Facilities:e</title>
<path fill="none" stroke="#000000" d="M312.9083,-212.7C274.6819,-212.7 260.0278,-212.7 215.5,-212.7"/>
<polygon fill="#000000" stroke="#000000" points="319.5,-212.7001 327.5,-216.3 323.5,-212.7 327.5,-212.7 327.5,-212.7 327.5,-212.7 323.5,-212.7 327.5,-209.1 319.5,-212.7001 319.5,-212.7001"/>
<ellipse fill="none" stroke="#000000" cx="316.3" cy="-212.7001" rx="3.2" ry="3.2"/>
</g>
<!-- Compensation.ProviderContracts -->
<g id="node4" class="node">
<title>Compensation.ProviderContracts</title>
<g id="a_node4"><a xlink:title="Compensation.ProviderContracts">
<polygon fill="#ffffff" stroke="transparent" points="266,-38.2 266,-121.2 547,-121.2 547,-38.2 266,-38.2"/>
<polygon fill="#f5f5f5" stroke="transparent" points="266.5,-97.7 266.5,-120.7 547.5,-120.7 547.5,-97.7 266.5,-97.7"/>
<polygon fill="none" stroke="#000000" points="266.5,-97.7 266.5,-120.7 547.5,-120.7 547.5,-97.7 266.5,-97.7"/>
<text text-anchor="start" x="271.5" y="-106.3" font-family="Helvetica,sans-Serif" font-weight="bold" font-size="11.00" fill="#000000">Compensation.ProviderContracts</text>
<text text-anchor="start" x="513.0219" y="-105.8" font-family="Helvetica,sans-Serif" font-size="11.00" fill="#000000">[table]</text>
<polygon fill="none" stroke="#000000" points="266.5,-75.7 266.5,-97.7 547.5,-97.7 547.5,-75.7 266.5,-75.7"/>
<image xlink:href="../../images/foreignKeys.png" width="11px" height="12px" preserveAspectRatio="xMinYMin meet" x="271.5" y="-92.7"/>
<text text-anchor="start" x="350.5" y="-82.8" font-family="Helvetica,sans-Serif" font-size="11.00" fill="#000000">FacilityId</text>
<polygon fill="none" stroke="#000000" points="266.5,-56.7 266.5,-75.7 547.5,-75.7 547.5,-56.7 266.5,-56.7"/>
<text text-anchor="start" x="269.5" y="-62.8" font-family="Helvetica,sans-Serif" font-size="11.00" fill="#000000">...</text>
<polygon fill="#ffffff" stroke="transparent" points="266.5,-37.7 266.5,-56.7 547.5,-56.7 547.5,-37.7 266.5,-37.7"/>
<polygon fill="none" stroke="#000000" points="266.5,-37.7 266.5,-56.7 547.5,-56.7 547.5,-37.7 266.5,-37.7"/>
<polygon fill="#ffffff" stroke="transparent" points="267.5,-38.7 267.5,-55.7 366.5,-55.7 366.5,-38.7 267.5,-38.7"/>
<text text-anchor="start" x="269.5" y="-43.8" font-family="Helvetica,sans-Serif" font-size="11.00" fill="#000000">&lt; 1</text>
<polygon fill="#ffffff" stroke="transparent" points="366.5,-38.7 366.5,-55.7 456.5,-55.7 456.5,-38.7 366.5,-38.7"/>
<text text-anchor="start" x="408.4431" y="-43.8" font-family="Helvetica,sans-Serif" font-size="11.00" fill="#000000"> &#160;</text>
<polygon fill="#ffffff" stroke="transparent" points="456.5,-38.7 456.5,-55.7 546.5,-55.7 546.5,-38.7 456.5,-38.7"/>
<text text-anchor="start" x="538.3862" y="-43.8" font-family="Helvetica,sans-Serif" font-size="11.00" fill="#000000"> &#160;</text>
<polygon fill="#000000" stroke="#000000" points="366.5,-38.7 366.5,-55.7 366.5,-55.7 366.5,-38.7 366.5,-38.7"/>
<polygon fill="#000000" stroke="#000000" points="456.5,-38.7 456.5,-55.7 456.5,-55.7 456.5,-38.7 456.5,-38.7"/>
</a>
</g>
</g>
<!-- Compensation.ProviderContracts&#45;&gt;Facilities -->
<g id="edge3" class="edge">
<title>Compensation.ProviderContracts:w&#45;&gt;Facilities:e</title>
<path fill="none" stroke="#000000" d="M252.2844,-90.0702C218.4826,-110.1077 270.0136,-212.7 215.5,-212.7"/>
<polygon fill="#000000" stroke="#000000" points="258.7158,-88.5455 267.3305,-90.2029 262.6079,-87.6228 266.5,-86.7 266.5,-86.7 266.5,-86.7 262.6079,-87.6228 265.6695,-83.1971 258.7158,-88.5455 258.7158,-88.5455"/>
<ellipse fill="none" stroke="#000000" cx="255.6021" cy="-89.2837" rx="3.2" ry="3.2"/>
</g>
</g>
</svg>
