<?xml version="1.0" encoding="UTF-8" standalone="no"?>
<!DOCTYPE svg PUBLIC "-//W3C//DTD SVG 1.1//EN"
 "http://www.w3.org/Graphics/SVG/1.1/DTD/svg11.dtd">
<!-- Generated by graphviz version 2.40.1 (20161225.0304)
 -->
<!-- Title: twoDegreesRelationshipsDiagram Pages: 1 -->
<svg width="1128pt" height="529pt"
 viewBox="0.00 0.00 1128.00 528.80" xmlns="http://www.w3.org/2000/svg" xmlns:xlink="http://www.w3.org/1999/xlink">
<g id="graph0" class="graph" transform="scale(1 1) rotate(0) translate(4 524.797)">
<title>twoDegreesRelationshipsDiagram</title>
<polygon fill="#ffffff" stroke="transparent" points="-4,4 -4,-524.797 1124,-524.797 1124,4 -4,4"/>
<text text-anchor="middle" x="72.4936" y="-7.3" font-family="Helvetica,sans-Serif" font-size="11.00" fill="#000000">Generated by SchemaSpy</text>
<!-- HospitalizationInsurances -->
<g id="node1" class="node">
<title>HospitalizationInsurances</title>
<g id="a_node1"><a xlink:href="../../tables/HospitalizationInsurances.html" xlink:title="HospitalizationInsurances" target="_top">
<polygon fill="#ffffff" stroke="transparent" points="512,-86.297 512,-286.297 808,-286.297 808,-86.297 512,-86.297"/>
<polygon fill="#f5f5f5" stroke="transparent" points="514,-261.297 514,-284.297 806,-284.297 806,-261.297 514,-261.297"/>
<polygon fill="none" stroke="#000000" points="514,-261.297 514,-284.297 806,-284.297 806,-261.297 514,-261.297"/>
<text text-anchor="start" x="519" y="-269.897" font-family="Helvetica,sans-Serif" font-weight="bold" font-size="11.00" fill="#000000">HospitalizationInsurances</text>
<text text-anchor="start" x="771.0437" y="-269.397" font-family="Helvetica,sans-Serif" font-size="11.00" fill="#000000">[table]</text>
<polygon fill="none" stroke="#000000" points="514,-239.297 514,-261.297 725,-261.297 725,-239.297 514,-239.297"/>
<image xlink:href="../../images/primaryKeys.png" width="11px" height="12px" preserveAspectRatio="xMinYMin meet" x="519" y="-256.297"/>
<text text-anchor="start" x="534" y="-246.397" font-family="Helvetica,sans-Serif" font-size="11.00" fill="#000000">Id</text>
<polygon fill="none" stroke="#000000" points="725,-239.297 725,-261.297 806,-261.297 806,-239.297 725,-239.297"/>
<text text-anchor="start" x="728" y="-246.997" font-family="Helvetica,sans-Serif" font-size="11.00" fill="#000000">int identity[4]</text>
<polygon fill="#ffffff" stroke="transparent" points="514,-217.297 514,-239.297 725,-239.297 725,-217.297 514,-217.297"/>
<polygon fill="none" stroke="#000000" points="514,-217.297 514,-239.297 725,-239.297 725,-217.297 514,-217.297"/>
<image xlink:href="../../images/foreignKeys.png" width="11px" height="12px" preserveAspectRatio="xMinYMin meet" x="519" y="-234.297"/>
<text text-anchor="start" x="534" y="-224.397" font-family="Helvetica,sans-Serif" font-size="11.00" fill="#000000">HospitalizationId</text>
<polygon fill="none" stroke="#000000" points="725,-217.297 725,-239.297 806,-239.297 806,-217.297 725,-217.297"/>
<text text-anchor="start" x="728" y="-224.997" font-family="Helvetica,sans-Serif" font-size="11.00" fill="#000000">int[4]</text>
<polygon fill="#ffffff" stroke="transparent" points="514,-195.297 514,-217.297 725,-217.297 725,-195.297 514,-195.297"/>
<polygon fill="none" stroke="#000000" points="514,-195.297 514,-217.297 725,-217.297 725,-195.297 514,-195.297"/>
<image xlink:href="../../images/foreignKeys.png" width="11px" height="12px" preserveAspectRatio="xMinYMin meet" x="519" y="-212.297"/>
<text text-anchor="start" x="534" y="-202.397" font-family="Helvetica,sans-Serif" font-size="11.00" fill="#000000">InsuranceId</text>
<polygon fill="none" stroke="#000000" points="725,-195.297 725,-217.297 806,-217.297 806,-195.297 725,-195.297"/>
<text text-anchor="start" x="728" y="-202.997" font-family="Helvetica,sans-Serif" font-size="11.00" fill="#000000">int[4]</text>
<polygon fill="none" stroke="#000000" points="514,-173.297 514,-195.297 725,-195.297 725,-173.297 514,-173.297"/>
<text text-anchor="start" x="534" y="-180.397" font-family="Helvetica,sans-Serif" font-size="11.00" fill="#000000">StartDate</text>
<polygon fill="none" stroke="#000000" points="725,-173.297 725,-195.297 806,-195.297 806,-173.297 725,-173.297"/>
<text text-anchor="start" x="727.5968" y="-180.997" font-family="Helvetica,sans-Serif" font-size="11.00" fill="#000000">datetime2[16,7]</text>
<polygon fill="none" stroke="#000000" points="514,-151.297 514,-173.297 725,-173.297 725,-151.297 514,-151.297"/>
<text text-anchor="start" x="534" y="-158.397" font-family="Helvetica,sans-Serif" font-size="11.00" fill="#000000">CreatedAtUtc</text>
<polygon fill="none" stroke="#000000" points="725,-151.297 725,-173.297 806,-173.297 806,-151.297 725,-151.297"/>
<text text-anchor="start" x="727.5968" y="-158.997" font-family="Helvetica,sans-Serif" font-size="11.00" fill="#000000">datetime2[16,7]</text>
<polygon fill="none" stroke="#000000" points="514,-129.297 514,-151.297 725,-151.297 725,-129.297 514,-129.297"/>
<text text-anchor="start" x="534" y="-136.397" font-family="Helvetica,sans-Serif" font-size="11.00" fill="#000000">UpdatedAtUtc</text>
<polygon fill="none" stroke="#000000" points="725,-129.297 725,-151.297 806,-151.297 806,-129.297 725,-129.297"/>
<text text-anchor="start" x="727.5968" y="-136.997" font-family="Helvetica,sans-Serif" font-size="11.00" fill="#000000">datetime2[16,7]</text>
<polygon fill="none" stroke="#000000" points="514,-107.297 514,-129.297 725,-129.297 725,-107.297 514,-107.297"/>
<text text-anchor="start" x="534" y="-114.397" font-family="Helvetica,sans-Serif" font-size="11.00" fill="#000000">RowVersion</text>
<polygon fill="none" stroke="#000000" points="725,-107.297 725,-129.297 806,-129.297 806,-107.297 725,-107.297"/>
<text text-anchor="start" x="728" y="-114.997" font-family="Helvetica,sans-Serif" font-size="11.00" fill="#000000">timestamp[8]</text>
<polygon fill="#ffffff" stroke="transparent" points="514,-88.297 514,-107.297 806,-107.297 806,-88.297 514,-88.297"/>
<polygon fill="none" stroke="#000000" points="514,-88.297 514,-107.297 806,-107.297 806,-88.297 514,-88.297"/>
<polygon fill="#ffffff" stroke="transparent" points="515,-89.297 515,-106.297 615,-106.297 615,-89.297 515,-89.297"/>
<text text-anchor="start" x="517" y="-94.397" font-family="Helvetica,sans-Serif" font-size="11.00" fill="#000000">&lt; 2</text>
<polygon fill="#ffffff" stroke="transparent" points="615,-89.297 615,-106.297 706,-106.297 706,-89.297 615,-89.297"/>
<text text-anchor="start" x="657.4431" y="-94.397" font-family="Helvetica,sans-Serif" font-size="11.00" fill="#000000"> &#160;</text>
<polygon fill="#ffffff" stroke="transparent" points="706,-89.297 706,-106.297 805,-106.297 805,-89.297 706,-89.297"/>
<text text-anchor="start" x="787.4053" y="-94.397" font-family="Helvetica,sans-Serif" font-size="11.00" fill="#000000">0 &gt;</text>
<polygon fill="#000000" stroke="#000000" points="615,-89.297 615,-106.297 615,-106.297 615,-89.297 615,-89.297"/>
<polygon fill="#000000" stroke="#000000" points="706,-89.297 706,-106.297 706,-106.297 706,-89.297 706,-89.297"/>
<polygon fill="none" stroke="#000000" stroke-width="2" points="513,-87.297 513,-285.297 807,-285.297 807,-87.297 513,-87.297"/>
</a>
</g>
</g>
<!-- Hospitalizations -->
<g id="node2" class="node">
<title>Hospitalizations</title>
<g id="a_node2"><a xlink:href="../../tables/Hospitalizations.html" xlink:title="Hospitalizations" target="_top">
<polygon fill="#ffffff" stroke="transparent" points="270,-272.797 270,-443.797 463,-443.797 463,-272.797 270,-272.797"/>
<polygon fill="#f5f5f5" stroke="transparent" points="270.5,-420.297 270.5,-443.297 463.5,-443.297 463.5,-420.297 270.5,-420.297"/>
<polygon fill="none" stroke="#000000" points="270.5,-420.297 270.5,-443.297 463.5,-443.297 463.5,-420.297 270.5,-420.297"/>
<text text-anchor="start" x="275.5" y="-428.897" font-family="Helvetica,sans-Serif" font-weight="bold" font-size="11.00" fill="#000000">Hospitalizations</text>
<text text-anchor="start" x="428.5437" y="-428.397" font-family="Helvetica,sans-Serif" font-size="11.00" fill="#000000">[table]</text>
<polygon fill="none" stroke="#000000" points="270.5,-398.297 270.5,-420.297 463.5,-420.297 463.5,-398.297 270.5,-398.297"/>
<image xlink:href="../../images/primaryKeys.png" width="11px" height="12px" preserveAspectRatio="xMinYMin meet" x="275.5" y="-415.297"/>
<text text-anchor="start" x="290.5" y="-405.397" font-family="Helvetica,sans-Serif" font-size="11.00" fill="#000000">Id</text>
<polygon fill="#ffffff" stroke="transparent" points="270.5,-376.297 270.5,-398.297 463.5,-398.297 463.5,-376.297 270.5,-376.297"/>
<polygon fill="none" stroke="#000000" points="270.5,-376.297 270.5,-398.297 463.5,-398.297 463.5,-376.297 270.5,-376.297"/>
<image xlink:href="../../images/foreignKeys.png" width="11px" height="12px" preserveAspectRatio="xMinYMin meet" x="275.5" y="-393.297"/>
<text text-anchor="start" x="290.5" y="-383.397" font-family="Helvetica,sans-Serif" font-size="11.00" fill="#000000">PatientId</text>
<polygon fill="#ffffff" stroke="transparent" points="270.5,-354.297 270.5,-376.297 463.5,-376.297 463.5,-354.297 270.5,-354.297"/>
<polygon fill="none" stroke="#000000" points="270.5,-354.297 270.5,-376.297 463.5,-376.297 463.5,-354.297 270.5,-354.297"/>
<image xlink:href="../../images/foreignKeys.png" width="11px" height="12px" preserveAspectRatio="xMinYMin meet" x="275.5" y="-371.297"/>
<text text-anchor="start" x="290.5" y="-361.397" font-family="Helvetica,sans-Serif" font-size="11.00" fill="#000000">FacilityId</text>
<polygon fill="#ffffff" stroke="transparent" points="270.5,-332.297 270.5,-354.297 463.5,-354.297 463.5,-332.297 270.5,-332.297"/>
<polygon fill="none" stroke="#000000" points="270.5,-332.297 270.5,-354.297 463.5,-354.297 463.5,-332.297 270.5,-332.297"/>
<text text-anchor="start" x="290.5" y="-339.397" font-family="Helvetica,sans-Serif" font-size="11.00" fill="#000000">CaseId</text>
<polygon fill="#ffffff" stroke="transparent" points="270.5,-310.297 270.5,-332.297 463.5,-332.297 463.5,-310.297 270.5,-310.297"/>
<polygon fill="none" stroke="#000000" points="270.5,-310.297 270.5,-332.297 463.5,-332.297 463.5,-310.297 270.5,-310.297"/>
<image xlink:href="../../images/foreignKeys.png" width="11px" height="12px" preserveAspectRatio="xMinYMin meet" x="275.5" y="-327.297"/>
<text text-anchor="start" x="290.5" y="-317.397" font-family="Helvetica,sans-Serif" font-size="11.00" fill="#000000">HospitalizationStatusId</text>
<polygon fill="none" stroke="#000000" points="270.5,-291.297 270.5,-310.297 463.5,-310.297 463.5,-291.297 270.5,-291.297"/>
<text text-anchor="start" x="273.5" y="-297.397" font-family="Helvetica,sans-Serif" font-size="11.00" fill="#000000">...</text>
<polygon fill="#ffffff" stroke="transparent" points="270.5,-272.297 270.5,-291.297 463.5,-291.297 463.5,-272.297 270.5,-272.297"/>
<polygon fill="none" stroke="#000000" points="270.5,-272.297 270.5,-291.297 463.5,-291.297 463.5,-272.297 270.5,-272.297"/>
<polygon fill="#ffffff" stroke="transparent" points="271.5,-273.297 271.5,-290.297 338.5,-290.297 338.5,-273.297 271.5,-273.297"/>
<text text-anchor="start" x="273.5" y="-278.397" font-family="Helvetica,sans-Serif" font-size="11.00" fill="#000000">&lt; 3</text>
<polygon fill="#ffffff" stroke="transparent" points="338.5,-273.297 338.5,-290.297 396.5,-290.297 396.5,-273.297 338.5,-273.297"/>
<text text-anchor="start" x="364.4431" y="-278.397" font-family="Helvetica,sans-Serif" font-size="11.00" fill="#000000"> &#160;</text>
<polygon fill="#ffffff" stroke="transparent" points="396.5,-273.297 396.5,-290.297 462.5,-290.297 462.5,-273.297 396.5,-273.297"/>
<text text-anchor="start" x="444.9053" y="-278.397" font-family="Helvetica,sans-Serif" font-size="11.00" fill="#000000">4 &gt;</text>
<polygon fill="#000000" stroke="#000000" points="338.5,-273.297 338.5,-290.297 338.5,-290.297 338.5,-273.297 338.5,-273.297"/>
<polygon fill="#000000" stroke="#000000" points="396.5,-273.297 396.5,-290.297 396.5,-290.297 396.5,-273.297 396.5,-273.297"/>
</a>
</g>
</g>
<!-- HospitalizationInsurances&#45;&gt;Hospitalizations -->
<g id="edge1" class="edge">
<title>HospitalizationInsurances:w&#45;&gt;Hospitalizations:e</title>
<path fill="none" stroke="#000000" d="M499.5492,-230.7188C445.4807,-252.1973 541.3077,-409.297 463.5,-409.297"/>
<polygon fill="#000000" stroke="#000000" points="506.11,-229.6193 514.595,-231.8475 510.055,-228.9582 514,-228.297 514,-228.297 514,-228.297 510.055,-228.9582 513.405,-224.7465 506.11,-229.6193 506.11,-229.6193"/>
<ellipse fill="none" stroke="#000000" cx="502.954" cy="-230.1483" rx="3.2" ry="3.2"/>
</g>
<!-- Insurances -->
<g id="node3" class="node">
<title>Insurances</title>
<g id="a_node3"><a xlink:href="../../tables/Insurances.html" xlink:title="Insurances" target="_top">
<polygon fill="#ffffff" stroke="transparent" points="290,-140.797 290,-223.797 443,-223.797 443,-140.797 290,-140.797"/>
<polygon fill="#f5f5f5" stroke="transparent" points="290.5,-200.297 290.5,-223.297 443.5,-223.297 443.5,-200.297 290.5,-200.297"/>
<polygon fill="none" stroke="#000000" points="290.5,-200.297 290.5,-223.297 443.5,-223.297 443.5,-200.297 290.5,-200.297"/>
<text text-anchor="start" x="295.5" y="-208.897" font-family="Helvetica,sans-Serif" font-weight="bold" font-size="11.00" fill="#000000">Insurances</text>
<text text-anchor="start" x="408.5437" y="-208.397" font-family="Helvetica,sans-Serif" font-size="11.00" fill="#000000">[table]</text>
<polygon fill="none" stroke="#000000" points="290.5,-178.297 290.5,-200.297 443.5,-200.297 443.5,-178.297 290.5,-178.297"/>
<image xlink:href="../../images/primaryKeys.png" width="11px" height="12px" preserveAspectRatio="xMinYMin meet" x="295.5" y="-195.297"/>
<text text-anchor="start" x="310.5" y="-185.397" font-family="Helvetica,sans-Serif" font-size="11.00" fill="#000000">Id</text>
<polygon fill="none" stroke="#000000" points="290.5,-159.297 290.5,-178.297 443.5,-178.297 443.5,-159.297 290.5,-159.297"/>
<text text-anchor="start" x="293.5" y="-165.397" font-family="Helvetica,sans-Serif" font-size="11.00" fill="#000000">...</text>
<polygon fill="#ffffff" stroke="transparent" points="290.5,-140.297 290.5,-159.297 443.5,-159.297 443.5,-140.297 290.5,-140.297"/>
<polygon fill="none" stroke="#000000" points="290.5,-140.297 290.5,-159.297 443.5,-159.297 443.5,-140.297 290.5,-140.297"/>
<polygon fill="#ffffff" stroke="transparent" points="291.5,-141.297 291.5,-158.297 339.5,-158.297 339.5,-141.297 291.5,-141.297"/>
<text text-anchor="start" x="293.5" y="-146.397" font-family="Helvetica,sans-Serif" font-size="11.00" fill="#000000"> &#160;</text>
<polygon fill="#ffffff" stroke="transparent" points="339.5,-141.297 339.5,-158.297 386.5,-158.297 386.5,-141.297 339.5,-141.297"/>
<text text-anchor="start" x="359.9431" y="-146.397" font-family="Helvetica,sans-Serif" font-size="11.00" fill="#000000"> &#160;</text>
<polygon fill="#ffffff" stroke="transparent" points="386.5,-141.297 386.5,-158.297 442.5,-158.297 442.5,-141.297 386.5,-141.297"/>
<text text-anchor="start" x="424.9053" y="-146.397" font-family="Helvetica,sans-Serif" font-size="11.00" fill="#000000">1 &gt;</text>
<polygon fill="#000000" stroke="#000000" points="339.5,-141.297 339.5,-158.297 339.5,-158.297 339.5,-141.297 339.5,-141.297"/>
<polygon fill="#000000" stroke="#000000" points="386.5,-141.297 386.5,-158.297 386.5,-158.297 386.5,-141.297 386.5,-141.297"/>
</a>
</g>
</g>
<!-- HospitalizationInsurances&#45;&gt;Insurances -->
<g id="edge2" class="edge">
<title>HospitalizationInsurances:w&#45;&gt;Insurances:e</title>
<path fill="none" stroke="#000000" d="M499.4361,-204.9631C478.9195,-200.9555 470.1916,-189.297 443.5,-189.297"/>
<polygon fill="#000000" stroke="#000000" points="506.0333,-205.5673 513.6716,-209.882 510.0167,-205.9321 514,-206.297 514,-206.297 514,-206.297 510.0167,-205.9321 514.3284,-202.712 506.0333,-205.5673 506.0333,-205.5673"/>
<ellipse fill="none" stroke="#000000" cx="502.8467" cy="-205.2754" rx="3.2" ry="3.2"/>
</g>
<!-- Facilities -->
<g id="node4" class="node">
<title>Facilities</title>
<g id="a_node4"><a xlink:href="../../tables/Facilities.html" xlink:title="Facilities" target="_top">
<polygon fill="#ffffff" stroke="transparent" points="62.5,-337.797 62.5,-398.797 166.5,-398.797 166.5,-337.797 62.5,-337.797"/>
<polygon fill="#f5f5f5" stroke="transparent" points="62.5,-375.297 62.5,-398.297 166.5,-398.297 166.5,-375.297 62.5,-375.297"/>
<polygon fill="none" stroke="#000000" points="62.5,-375.297 62.5,-398.297 166.5,-398.297 166.5,-375.297 62.5,-375.297"/>
<text text-anchor="start" x="67.5" y="-383.897" font-family="Helvetica,sans-Serif" font-weight="bold" font-size="11.00" fill="#000000">Facilities</text>
<text text-anchor="start" x="132.0219" y="-383.397" font-family="Helvetica,sans-Serif" font-size="11.00" fill="#000000">[table]</text>
<polygon fill="none" stroke="#000000" points="62.5,-356.297 62.5,-375.297 166.5,-375.297 166.5,-356.297 62.5,-356.297"/>
<text text-anchor="start" x="65.5" y="-362.397" font-family="Helvetica,sans-Serif" font-size="11.00" fill="#000000">...</text>
<polygon fill="#ffffff" stroke="transparent" points="62.5,-337.297 62.5,-356.297 166.5,-356.297 166.5,-337.297 62.5,-337.297"/>
<polygon fill="none" stroke="#000000" points="62.5,-337.297 62.5,-356.297 166.5,-356.297 166.5,-337.297 62.5,-337.297"/>
<polygon fill="#ffffff" stroke="transparent" points="63.5,-338.297 63.5,-355.297 94.5,-355.297 94.5,-338.297 63.5,-338.297"/>
<text text-anchor="start" x="65.5" y="-343.397" font-family="Helvetica,sans-Serif" font-size="11.00" fill="#000000"> &#160;</text>
<polygon fill="#ffffff" stroke="transparent" points="94.5,-338.297 94.5,-355.297 125.5,-355.297 125.5,-338.297 94.5,-338.297"/>
<text text-anchor="start" x="106.9431" y="-343.397" font-family="Helvetica,sans-Serif" font-size="11.00" fill="#000000"> &#160;</text>
<polygon fill="#ffffff" stroke="transparent" points="125.5,-338.297 125.5,-355.297 165.5,-355.297 165.5,-338.297 125.5,-338.297"/>
<text text-anchor="start" x="147.9053" y="-343.397" font-family="Helvetica,sans-Serif" font-size="11.00" fill="#000000">3 &gt;</text>
<polygon fill="#000000" stroke="#000000" points="94.5,-338.297 94.5,-355.297 94.5,-355.297 94.5,-338.297 94.5,-338.297"/>
<polygon fill="#000000" stroke="#000000" points="125.5,-338.297 125.5,-355.297 125.5,-355.297 125.5,-338.297 125.5,-338.297"/>
</a>
</g>
</g>
<!-- Hospitalizations&#45;&gt;Facilities -->
<g id="edge3" class="edge">
<title>Hospitalizations:w&#45;&gt;Facilities:e</title>
<path fill="none" stroke="#000000" d="M256.0255,-365.297C221.2149,-365.297 207.4861,-365.297 166.5,-365.297"/>
<polygon fill="#000000" stroke="#000000" points="262.5,-365.2971 270.5,-368.897 266.5,-365.297 270.5,-365.297 270.5,-365.297 270.5,-365.297 266.5,-365.297 270.5,-361.697 262.5,-365.2971 262.5,-365.2971"/>
<ellipse fill="none" stroke="#000000" cx="259.3" cy="-365.2971" rx="3.2" ry="3.2"/>
</g>
<!-- HospitalizationStatuses -->
<g id="node5" class="node">
<title>HospitalizationStatuses</title>
<g id="a_node5"><a xlink:href="../../tables/HospitalizationStatuses.html" xlink:title="HospitalizationStatuses" target="_top">
<polygon fill="#ffffff" stroke="transparent" points="8,-220.797 8,-281.797 221,-281.797 221,-220.797 8,-220.797"/>
<polygon fill="#f5f5f5" stroke="transparent" points="8.5,-258.297 8.5,-281.297 221.5,-281.297 221.5,-258.297 8.5,-258.297"/>
<polygon fill="none" stroke="#000000" points="8.5,-258.297 8.5,-281.297 221.5,-281.297 221.5,-258.297 8.5,-258.297"/>
<text text-anchor="start" x="13.5" y="-266.897" font-family="Helvetica,sans-Serif" font-weight="bold" font-size="11.00" fill="#000000">HospitalizationStatuses</text>
<text text-anchor="start" x="187.0219" y="-266.397" font-family="Helvetica,sans-Serif" font-size="11.00" fill="#000000">[table]</text>
<polygon fill="none" stroke="#000000" points="8.5,-239.297 8.5,-258.297 221.5,-258.297 221.5,-239.297 8.5,-239.297"/>
<text text-anchor="start" x="11.5" y="-245.397" font-family="Helvetica,sans-Serif" font-size="11.00" fill="#000000">...</text>
<polygon fill="#ffffff" stroke="transparent" points="8.5,-220.297 8.5,-239.297 221.5,-239.297 221.5,-220.297 8.5,-220.297"/>
<polygon fill="none" stroke="#000000" points="8.5,-220.297 8.5,-239.297 221.5,-239.297 221.5,-220.297 8.5,-220.297"/>
<polygon fill="#ffffff" stroke="transparent" points="9.5,-221.297 9.5,-238.297 77.5,-238.297 77.5,-221.297 9.5,-221.297"/>
<text text-anchor="start" x="11.5" y="-226.397" font-family="Helvetica,sans-Serif" font-size="11.00" fill="#000000"> &#160;</text>
<polygon fill="#ffffff" stroke="transparent" points="77.5,-221.297 77.5,-238.297 144.5,-238.297 144.5,-221.297 77.5,-221.297"/>
<text text-anchor="start" x="107.9431" y="-226.397" font-family="Helvetica,sans-Serif" font-size="11.00" fill="#000000"> &#160;</text>
<polygon fill="#ffffff" stroke="transparent" points="144.5,-221.297 144.5,-238.297 220.5,-238.297 220.5,-221.297 144.5,-221.297"/>
<text text-anchor="start" x="202.9053" y="-226.397" font-family="Helvetica,sans-Serif" font-size="11.00" fill="#000000">3 &gt;</text>
<polygon fill="#000000" stroke="#000000" points="77.5,-221.297 77.5,-238.297 77.5,-238.297 77.5,-221.297 77.5,-221.297"/>
<polygon fill="#000000" stroke="#000000" points="144.5,-221.297 144.5,-238.297 144.5,-238.297 144.5,-221.297 144.5,-221.297"/>
</a>
</g>
</g>
<!-- Hospitalizations&#45;&gt;HospitalizationStatuses -->
<g id="edge4" class="edge">
<title>Hospitalizations:w&#45;&gt;HospitalizationStatuses:e</title>
<path fill="none" stroke="#000000" d="M256.6598,-316.5073C238.8684,-300.2667 254.4702,-248.297 221.5,-248.297"/>
<polygon fill="#000000" stroke="#000000" points="262.9399,-318.6806 269.3226,-324.6991 266.72,-319.9888 270.5,-321.297 270.5,-321.297 270.5,-321.297 266.72,-319.9888 271.6774,-317.895 262.9399,-318.6806 262.9399,-318.6806"/>
<ellipse fill="none" stroke="#000000" cx="259.9159" cy="-317.6341" rx="3.2" ry="3.2"/>
</g>
<!-- Patients -->
<g id="node6" class="node">
<title>Patients</title>
<g id="a_node6"><a xlink:href="../../tables/Patients.html" xlink:title="Patients" target="_top">
<polygon fill="#ffffff" stroke="transparent" points="65,-455.797 65,-516.797 164,-516.797 164,-455.797 65,-455.797"/>
<polygon fill="#f5f5f5" stroke="transparent" points="65.5,-493.297 65.5,-516.297 164.5,-516.297 164.5,-493.297 65.5,-493.297"/>
<polygon fill="none" stroke="#000000" points="65.5,-493.297 65.5,-516.297 164.5,-516.297 164.5,-493.297 65.5,-493.297"/>
<text text-anchor="start" x="70.5" y="-501.897" font-family="Helvetica,sans-Serif" font-weight="bold" font-size="11.00" fill="#000000">Patients</text>
<text text-anchor="start" x="130.0219" y="-501.397" font-family="Helvetica,sans-Serif" font-size="11.00" fill="#000000">[table]</text>
<polygon fill="none" stroke="#000000" points="65.5,-474.297 65.5,-493.297 164.5,-493.297 164.5,-474.297 65.5,-474.297"/>
<text text-anchor="start" x="68.5" y="-480.397" font-family="Helvetica,sans-Serif" font-size="11.00" fill="#000000">...</text>
<polygon fill="#ffffff" stroke="transparent" points="65.5,-455.297 65.5,-474.297 164.5,-474.297 164.5,-455.297 65.5,-455.297"/>
<polygon fill="none" stroke="#000000" points="65.5,-455.297 65.5,-474.297 164.5,-474.297 164.5,-455.297 65.5,-455.297"/>
<polygon fill="#ffffff" stroke="transparent" points="66.5,-456.297 66.5,-473.297 96.5,-473.297 96.5,-456.297 66.5,-456.297"/>
<text text-anchor="start" x="68.5" y="-461.397" font-family="Helvetica,sans-Serif" font-size="11.00" fill="#000000"> &#160;</text>
<polygon fill="#ffffff" stroke="transparent" points="96.5,-456.297 96.5,-473.297 125.5,-473.297 125.5,-456.297 96.5,-456.297"/>
<text text-anchor="start" x="107.9431" y="-461.397" font-family="Helvetica,sans-Serif" font-size="11.00" fill="#000000"> &#160;</text>
<polygon fill="#ffffff" stroke="transparent" points="125.5,-456.297 125.5,-473.297 163.5,-473.297 163.5,-456.297 125.5,-456.297"/>
<text text-anchor="start" x="145.9053" y="-461.397" font-family="Helvetica,sans-Serif" font-size="11.00" fill="#000000">3 &gt;</text>
<polygon fill="#000000" stroke="#000000" points="96.5,-456.297 96.5,-473.297 96.5,-473.297 96.5,-456.297 96.5,-456.297"/>
<polygon fill="#000000" stroke="#000000" points="125.5,-456.297 125.5,-473.297 125.5,-473.297 125.5,-456.297 125.5,-456.297"/>
</a>
</g>
</g>
<!-- Hospitalizations&#45;&gt;Patients -->
<g id="edge5" class="edge">
<title>Hospitalizations:w&#45;&gt;Patients:e</title>
<path fill="none" stroke="#000000" d="M256.1773,-389.2147C209.8901,-402.7449 222.7222,-483.297 164.5,-483.297"/>
<polygon fill="#000000" stroke="#000000" points="262.5708,-388.3587 270.9778,-390.8652 266.5354,-387.8279 270.5,-387.297 270.5,-387.297 270.5,-387.297 266.5354,-387.8279 270.0222,-383.7289 262.5708,-388.3587 262.5708,-388.3587"/>
<ellipse fill="none" stroke="#000000" cx="259.3991" cy="-388.7834" rx="3.2" ry="3.2"/>
</g>
<!-- HospitalizationStatusHistories -->
<g id="node7" class="node">
<title>HospitalizationStatusHistories</title>
<g id="a_node7"><a xlink:href="../../tables/HospitalizationStatusHistories.html" xlink:title="HospitalizationStatusHistories" target="_top">
<polygon fill="#ffffff" stroke="transparent" points="529,-307.797 529,-368.797 791,-368.797 791,-307.797 529,-307.797"/>
<polygon fill="#f5f5f5" stroke="transparent" points="529,-345.297 529,-368.297 791,-368.297 791,-345.297 529,-345.297"/>
<polygon fill="none" stroke="#000000" points="529,-345.297 529,-368.297 791,-368.297 791,-345.297 529,-345.297"/>
<text text-anchor="start" x="534" y="-353.897" font-family="Helvetica,sans-Serif" font-weight="bold" font-size="11.00" fill="#000000">HospitalizationStatusHistories</text>
<text text-anchor="start" x="756.5219" y="-353.397" font-family="Helvetica,sans-Serif" font-size="11.00" fill="#000000">[table]</text>
<polygon fill="none" stroke="#000000" points="529,-326.297 529,-345.297 791,-345.297 791,-326.297 529,-326.297"/>
<text text-anchor="start" x="532" y="-332.397" font-family="Helvetica,sans-Serif" font-size="11.00" fill="#000000">...</text>
<polygon fill="#ffffff" stroke="transparent" points="529,-307.297 529,-326.297 791,-326.297 791,-307.297 529,-307.297"/>
<polygon fill="none" stroke="#000000" points="529,-307.297 529,-326.297 791,-326.297 791,-307.297 529,-307.297"/>
<polygon fill="#ffffff" stroke="transparent" points="530,-308.297 530,-325.297 623,-325.297 623,-308.297 530,-308.297"/>
<text text-anchor="start" x="532" y="-313.397" font-family="Helvetica,sans-Serif" font-size="11.00" fill="#000000">&lt; 2</text>
<polygon fill="#ffffff" stroke="transparent" points="623,-308.297 623,-325.297 707,-325.297 707,-308.297 623,-308.297"/>
<text text-anchor="start" x="661.9431" y="-313.397" font-family="Helvetica,sans-Serif" font-size="11.00" fill="#000000"> &#160;</text>
<polygon fill="#ffffff" stroke="transparent" points="707,-308.297 707,-325.297 790,-325.297 790,-308.297 707,-308.297"/>
<text text-anchor="start" x="781.8862" y="-313.397" font-family="Helvetica,sans-Serif" font-size="11.00" fill="#000000"> &#160;</text>
<polygon fill="#000000" stroke="#000000" points="623,-308.297 623,-325.297 623,-325.297 623,-308.297 623,-308.297"/>
<polygon fill="#000000" stroke="#000000" points="707,-308.297 707,-325.297 707,-325.297 707,-308.297 707,-308.297"/>
</a>
</g>
</g>
<!-- HospitalizationStatusHistories&#45;&gt;Hospitalizations -->
<g id="edge6" class="edge">
<title>HospitalizationStatusHistories:w&#45;&gt;Hospitalizations:e</title>
<path fill="none" stroke="#000000" d="M514.696,-338.8662C489.8443,-353.648 501.5885,-409.297 463.5,-409.297"/>
<polygon fill="#000000" stroke="#000000" points="521.238,-337.2339 529.8716,-338.7899 525.119,-336.2654 529,-335.297 529,-335.297 529,-335.297 525.119,-336.2654 528.1284,-331.8041 521.238,-337.2339 521.238,-337.2339"/>
<ellipse fill="none" stroke="#000000" cx="518.1332" cy="-338.0086" rx="3.2" ry="3.2"/>
</g>
<!-- HospitalizationStatusHistories&#45;&gt;HospitalizationStatuses -->
<g id="edge7" class="edge">
<title>HospitalizationStatusHistories:w&#45;&gt;HospitalizationStatuses:e</title>
<path fill="none" stroke="#000000" d="M514.8471,-332.3436C492.1255,-320.8142 502.6241,-278.6697 471,-262.297 372.3712,-211.2341 332.5633,-248.297 221.5,-248.297"/>
<polygon fill="#000000" stroke="#000000" points="521.1687,-333.6627 528.2646,-338.8211 525.0844,-334.4799 529,-335.297 529,-335.297 529,-335.297 525.0844,-334.4799 529.7354,-331.7729 521.1687,-333.6627 521.1687,-333.6627"/>
<ellipse fill="none" stroke="#000000" cx="518.0362" cy="-333.009" rx="3.2" ry="3.2"/>
</g>
<!-- Visits -->
<g id="node8" class="node">
<title>Visits</title>
<g id="a_node8"><a xlink:href="../../tables/Visits.html" xlink:title="Visits" target="_top">
<polygon fill="#ffffff" stroke="transparent" points="620.5,-417.797 620.5,-478.797 699.5,-478.797 699.5,-417.797 620.5,-417.797"/>
<polygon fill="#f5f5f5" stroke="transparent" points="621,-455.297 621,-478.297 700,-478.297 700,-455.297 621,-455.297"/>
<polygon fill="none" stroke="#000000" points="621,-455.297 621,-478.297 700,-478.297 700,-455.297 621,-455.297"/>
<text text-anchor="start" x="626" y="-463.897" font-family="Helvetica,sans-Serif" font-weight="bold" font-size="11.00" fill="#000000">Visits</text>
<text text-anchor="start" x="665.5219" y="-463.397" font-family="Helvetica,sans-Serif" font-size="11.00" fill="#000000">[table]</text>
<polygon fill="none" stroke="#000000" points="621,-436.297 621,-455.297 700,-455.297 700,-436.297 621,-436.297"/>
<text text-anchor="start" x="624" y="-442.397" font-family="Helvetica,sans-Serif" font-size="11.00" fill="#000000">...</text>
<polygon fill="#ffffff" stroke="transparent" points="621,-417.297 621,-436.297 700,-436.297 700,-417.297 621,-417.297"/>
<polygon fill="none" stroke="#000000" points="621,-417.297 621,-436.297 700,-436.297 700,-417.297 621,-417.297"/>
<polygon fill="#ffffff" stroke="transparent" points="622,-418.297 622,-435.297 651,-435.297 651,-418.297 622,-418.297"/>
<text text-anchor="start" x="624" y="-423.397" font-family="Helvetica,sans-Serif" font-size="11.00" fill="#000000">&lt; 1</text>
<polygon fill="#ffffff" stroke="transparent" points="651,-418.297 651,-435.297 671,-435.297 671,-418.297 651,-418.297"/>
<text text-anchor="start" x="657.9431" y="-423.397" font-family="Helvetica,sans-Serif" font-size="11.00" fill="#000000"> &#160;</text>
<polygon fill="#ffffff" stroke="transparent" points="671,-418.297 671,-435.297 699,-435.297 699,-418.297 671,-418.297"/>
<text text-anchor="start" x="681.4053" y="-423.397" font-family="Helvetica,sans-Serif" font-size="11.00" fill="#000000">4 &gt;</text>
<polygon fill="#000000" stroke="#000000" points="651,-418.297 651,-435.297 651,-435.297 651,-418.297 651,-418.297"/>
<polygon fill="#000000" stroke="#000000" points="671,-418.297 671,-435.297 671,-435.297 671,-418.297 671,-418.297"/>
</a>
</g>
</g>
<!-- Visits&#45;&gt;Hospitalizations -->
<g id="edge8" class="edge">
<title>Visits:w&#45;&gt;Hospitalizations:e</title>
<path fill="none" stroke="#000000" d="M606.2965,-444.7602C546.8848,-440.2819 530.1162,-409.297 463.5,-409.297"/>
<polygon fill="#000000" stroke="#000000" points="613.0053,-445.0051 620.8686,-448.8946 617.0027,-445.151 621,-445.297 621,-445.297 621,-445.297 617.0027,-445.151 621.1314,-441.6994 613.0053,-445.0051 613.0053,-445.0051"/>
<ellipse fill="none" stroke="#000000" cx="609.8075" cy="-444.8883" rx="3.2" ry="3.2"/>
</g>
<!-- staging.ProviderAssignments -->
<g id="node9" class="node">
<title>staging.ProviderAssignments</title>
<g id="a_node9"><a xlink:title="staging.ProviderAssignments">
<polygon fill="#ffffff" stroke="transparent" points="857,-391.797 857,-452.797 1112,-452.797 1112,-391.797 857,-391.797"/>
<polygon fill="#f5f5f5" stroke="transparent" points="857.5,-429.297 857.5,-452.297 1112.5,-452.297 1112.5,-429.297 857.5,-429.297"/>
<polygon fill="none" stroke="#000000" points="857.5,-429.297 857.5,-452.297 1112.5,-452.297 1112.5,-429.297 857.5,-429.297"/>
<text text-anchor="start" x="862.5" y="-437.897" font-family="Helvetica,sans-Serif" font-weight="bold" font-size="11.00" fill="#000000">staging.ProviderAssignments</text>
<text text-anchor="start" x="1078.0219" y="-437.397" font-family="Helvetica,sans-Serif" font-size="11.00" fill="#000000">[table]</text>
<polygon fill="none" stroke="#000000" points="857.5,-410.297 857.5,-429.297 1112.5,-429.297 1112.5,-410.297 857.5,-410.297"/>
<text text-anchor="start" x="860.5" y="-416.397" font-family="Helvetica,sans-Serif" font-size="11.00" fill="#000000">...</text>
<polygon fill="#ffffff" stroke="transparent" points="857.5,-391.297 857.5,-410.297 1112.5,-410.297 1112.5,-391.297 857.5,-391.297"/>
<polygon fill="none" stroke="#000000" points="857.5,-391.297 857.5,-410.297 1112.5,-410.297 1112.5,-391.297 857.5,-391.297"/>
<polygon fill="#ffffff" stroke="transparent" points="858.5,-392.297 858.5,-409.297 949.5,-409.297 949.5,-392.297 858.5,-392.297"/>
<text text-anchor="start" x="860.5" y="-397.397" font-family="Helvetica,sans-Serif" font-size="11.00" fill="#000000">&lt; 6</text>
<polygon fill="#ffffff" stroke="transparent" points="949.5,-392.297 949.5,-409.297 1030.5,-409.297 1030.5,-392.297 949.5,-392.297"/>
<text text-anchor="start" x="986.9431" y="-397.397" font-family="Helvetica,sans-Serif" font-size="11.00" fill="#000000"> &#160;</text>
<polygon fill="#ffffff" stroke="transparent" points="1030.5,-392.297 1030.5,-409.297 1111.5,-409.297 1111.5,-392.297 1030.5,-392.297"/>
<text text-anchor="start" x="1103.3862" y="-397.397" font-family="Helvetica,sans-Serif" font-size="11.00" fill="#000000"> &#160;</text>
<polygon fill="#000000" stroke="#000000" points="949.5,-392.297 949.5,-409.297 949.5,-409.297 949.5,-392.297 949.5,-392.297"/>
<polygon fill="#000000" stroke="#000000" points="1030.5,-392.297 1030.5,-409.297 1030.5,-409.297 1030.5,-392.297 1030.5,-392.297"/>
</a>
</g>
</g>
<!-- staging.ProviderAssignments&#45;&gt;Hospitalizations -->
<g id="edge9" class="edge">
<title>staging.ProviderAssignments:w&#45;&gt;Hospitalizations:e</title>
<path fill="none" stroke="#000000" d="M843.1959,-417.0563C834.7087,-414.1262 829.0695,-409.1487 816,-407.297 678.7044,-387.8455 642.6245,-403.8763 504,-407.297 485.9835,-407.7416 481.5219,-409.297 463.5,-409.297"/>
<polygon fill="#000000" stroke="#000000" points="849.5964,-418.0589 856.9428,-422.8536 853.5482,-418.6779 857.5,-419.297 857.5,-419.297 857.5,-419.297 853.5482,-418.6779 858.0572,-415.7404 849.5964,-418.0589 849.5964,-418.0589"/>
<ellipse fill="none" stroke="#000000" cx="846.4349" cy="-417.5636" rx="3.2" ry="3.2"/>
</g>
<!-- staging.ProviderAssignments&#45;&gt;HospitalizationStatuses -->
<g id="edge10" class="edge">
<title>staging.ProviderAssignments:w&#45;&gt;HospitalizationStatuses:e</title>
<path fill="none" stroke="#000000" d="M843.6696,-415.1385C792.8502,-379.301 869.5636,-122.7871 816,-75.297 723.4286,6.7778 354.0395,-47.6262 262,-130.297 220.7495,-167.3486 276.9475,-248.297 221.5,-248.297"/>
<polygon fill="#000000" stroke="#000000" points="849.8388,-416.9934 856.4634,-422.7445 853.6694,-418.1452 857.5,-419.297 857.5,-419.297 857.5,-419.297 853.6694,-418.1452 858.5366,-415.8495 849.8388,-416.9934 849.8388,-416.9934"/>
<ellipse fill="none" stroke="#000000" cx="846.7744" cy="-416.072" rx="3.2" ry="3.2"/>
</g>
<!-- staging.ProviderAssignments&#45;&gt;Patients -->
<g id="edge11" class="edge">
<title>staging.ProviderAssignments:w&#45;&gt;Patients:e</title>
<path fill="none" stroke="#000000" d="M843.3393,-423.8427C828.8526,-436.9155 841.7792,-474.6113 816,-489.297 799.1442,-498.8993 171.821,-483.297 164.5,-483.297"/>
<polygon fill="#000000" stroke="#000000" points="849.8828,-421.7422 858.6003,-422.7247 853.6914,-420.5196 857.5,-419.297 857.5,-419.297 857.5,-419.297 853.6914,-420.5196 856.3997,-415.8693 849.8828,-421.7422 849.8828,-421.7422"/>
<ellipse fill="none" stroke="#000000" cx="846.836" cy="-422.7203" rx="3.2" ry="3.2"/>
</g>
<!-- staging.ProviderAssignments&#45;&gt;Visits -->
<g id="edge12" class="edge">
<title>staging.ProviderAssignments:w&#45;&gt;Visits:e</title>
<path fill="none" stroke="#000000" d="M842.9441,-419.6847C784.0082,-422.9191 765.8203,-445.297 700,-445.297"/>
<polygon fill="#000000" stroke="#000000" points="849.5028,-419.5101 857.5959,-422.8957 853.5014,-419.4036 857.5,-419.297 857.5,-419.297 857.5,-419.297 853.5014,-419.4036 857.4041,-415.6983 849.5028,-419.5101 849.5028,-419.5101"/>
<ellipse fill="none" stroke="#000000" cx="846.304" cy="-419.5953" rx="3.2" ry="3.2"/>
</g>
</g>
</svg>
