<?xml version="1.0" encoding="UTF-8" standalone="no"?>
<!DOCTYPE svg PUBLIC "-//W3C//DTD SVG 1.1//EN"
 "http://www.w3.org/Graphics/SVG/1.1/DTD/svg11.dtd">
<!-- Generated by graphviz version 2.40.1 (20161225.0304)
 -->
<!-- Title: oneDegreeRelationshipsDiagram Pages: 1 -->
<svg width="1231pt" height="638pt"
 viewBox="0.00 0.00 1231.00 637.76" xmlns="http://www.w3.org/2000/svg" xmlns:xlink="http://www.w3.org/1999/xlink">
<g id="graph0" class="graph" transform="scale(1 1) rotate(0) translate(4 633.7642)">
<title>oneDegreeRelationshipsDiagram</title>
<polygon fill="#ffffff" stroke="transparent" points="-4,4 -4,-633.7642 1227,-633.7642 1227,4 -4,4"/>
<text text-anchor="middle" x="72.4936" y="-7.3" font-family="Helvetica,sans-Serif" font-size="11.00" fill="#000000">Generated by SchemaSpy</text>
<!-- HospitalizationInsurances -->
<g id="node1" class="node">
<title>HospitalizationInsurances</title>
<g id="a_node1"><a xlink:href="../../tables/HospitalizationInsurances.html" xlink:title="HospitalizationInsurances" target="_top">
<polygon fill="#ffffff" stroke="transparent" points="613.5,-447.4786 613.5,-574.4786 842.5,-574.4786 842.5,-447.4786 613.5,-447.4786"/>
<polygon fill="#f5f5f5" stroke="transparent" points="614,-550.9786 614,-573.9786 843,-573.9786 843,-550.9786 614,-550.9786"/>
<polygon fill="none" stroke="#000000" points="614,-550.9786 614,-573.9786 843,-573.9786 843,-550.9786 614,-550.9786"/>
<text text-anchor="start" x="619" y="-559.5786" font-family="Helvetica,sans-Serif" font-weight="bold" font-size="11.00" fill="#000000">HospitalizationInsurances</text>
<text text-anchor="start" x="808.5219" y="-559.0786" font-family="Helvetica,sans-Serif" font-size="11.00" fill="#000000">[table]</text>
<polygon fill="none" stroke="#000000" points="614,-528.9786 614,-550.9786 843,-550.9786 843,-528.9786 614,-528.9786"/>
<image xlink:href="../../images/primaryKeys.png" width="11px" height="12px" preserveAspectRatio="xMinYMin meet" x="619" y="-545.979"/>
<text text-anchor="start" x="643" y="-536.0786" font-family="Helvetica,sans-Serif" font-size="11.00" fill="#000000">Id</text>
<polygon fill="#ffffff" stroke="transparent" points="614,-506.9786 614,-528.9786 843,-528.9786 843,-506.9786 614,-506.9786"/>
<polygon fill="none" stroke="#000000" points="614,-506.9786 614,-528.9786 843,-528.9786 843,-506.9786 614,-506.9786"/>
<image xlink:href="../../images/foreignKeys.png" width="11px" height="12px" preserveAspectRatio="xMinYMin meet" x="619" y="-523.979"/>
<text text-anchor="start" x="643" y="-514.0786" font-family="Helvetica,sans-Serif" font-size="11.00" fill="#000000">HospitalizationId</text>
<polygon fill="#ffffff" stroke="transparent" points="614,-484.9786 614,-506.9786 843,-506.9786 843,-484.9786 614,-484.9786"/>
<polygon fill="none" stroke="#000000" points="614,-484.9786 614,-506.9786 843,-506.9786 843,-484.9786 614,-484.9786"/>
<image xlink:href="../../images/foreignKeys.png" width="11px" height="12px" preserveAspectRatio="xMinYMin meet" x="619" y="-501.979"/>
<text text-anchor="start" x="643" y="-492.0786" font-family="Helvetica,sans-Serif" font-size="11.00" fill="#000000">InsuranceId</text>
<polygon fill="none" stroke="#000000" points="614,-465.9786 614,-484.9786 843,-484.9786 843,-465.9786 614,-465.9786"/>
<text text-anchor="start" x="617" y="-472.0786" font-family="Helvetica,sans-Serif" font-size="11.00" fill="#000000">...</text>
<polygon fill="#ffffff" stroke="transparent" points="614,-446.9786 614,-465.9786 843,-465.9786 843,-446.9786 614,-446.9786"/>
<polygon fill="none" stroke="#000000" points="614,-446.9786 614,-465.9786 843,-465.9786 843,-446.9786 614,-446.9786"/>
<polygon fill="#ffffff" stroke="transparent" points="615,-447.9786 615,-464.9786 697,-464.9786 697,-447.9786 615,-447.9786"/>
<text text-anchor="start" x="617" y="-453.0786" font-family="Helvetica,sans-Serif" font-size="11.00" fill="#000000">&lt; 2</text>
<polygon fill="#ffffff" stroke="transparent" points="697,-447.9786 697,-464.9786 770,-464.9786 770,-447.9786 697,-447.9786"/>
<text text-anchor="start" x="730.4431" y="-453.0786" font-family="Helvetica,sans-Serif" font-size="11.00" fill="#000000"> &#160;</text>
<polygon fill="#ffffff" stroke="transparent" points="770,-447.9786 770,-464.9786 842,-464.9786 842,-447.9786 770,-447.9786"/>
<text text-anchor="start" x="833.8862" y="-453.0786" font-family="Helvetica,sans-Serif" font-size="11.00" fill="#000000"> &#160;</text>
<polygon fill="#000000" stroke="#000000" points="697,-447.9786 697,-464.9786 697,-464.9786 697,-447.9786 697,-447.9786"/>
<polygon fill="#000000" stroke="#000000" points="770,-447.9786 770,-464.9786 770,-464.9786 770,-447.9786 770,-447.9786"/>
</a>
</g>
</g>
<!-- Hospitalizations -->
<g id="node2" class="node">
<title>Hospitalizations</title>
<g id="a_node2"><a xlink:href="../../tables/Hospitalizations.html" xlink:title="Hospitalizations" target="_top">
<polygon fill="#ffffff" stroke="transparent" points="270,-233.9786 270,-521.9786 548,-521.9786 548,-233.9786 270,-233.9786"/>
<polygon fill="#f5f5f5" stroke="transparent" points="272,-496.9786 272,-519.9786 546,-519.9786 546,-496.9786 272,-496.9786"/>
<polygon fill="none" stroke="#000000" points="272,-496.9786 272,-519.9786 546,-519.9786 546,-496.9786 272,-496.9786"/>
<text text-anchor="start" x="277" y="-505.5786" font-family="Helvetica,sans-Serif" font-weight="bold" font-size="11.00" fill="#000000">Hospitalizations</text>
<text text-anchor="start" x="511.0437" y="-505.0786" font-family="Helvetica,sans-Serif" font-size="11.00" fill="#000000">[table]</text>
<polygon fill="none" stroke="#000000" points="272,-474.9786 272,-496.9786 465,-496.9786 465,-474.9786 272,-474.9786"/>
<image xlink:href="../../images/primaryKeys.png" width="11px" height="12px" preserveAspectRatio="xMinYMin meet" x="277" y="-491.979"/>
<text text-anchor="start" x="292" y="-482.0786" font-family="Helvetica,sans-Serif" font-size="11.00" fill="#000000">Id</text>
<polygon fill="none" stroke="#000000" points="465,-474.9786 465,-496.9786 546,-496.9786 546,-474.9786 465,-474.9786"/>
<text text-anchor="start" x="468" y="-482.6786" font-family="Helvetica,sans-Serif" font-size="11.00" fill="#000000">int identity[4]</text>
<polygon fill="#ffffff" stroke="transparent" points="272,-452.9786 272,-474.9786 465,-474.9786 465,-452.9786 272,-452.9786"/>
<polygon fill="none" stroke="#000000" points="272,-452.9786 272,-474.9786 465,-474.9786 465,-452.9786 272,-452.9786"/>
<image xlink:href="../../images/foreignKeys.png" width="11px" height="12px" preserveAspectRatio="xMinYMin meet" x="277" y="-469.979"/>
<text text-anchor="start" x="292" y="-460.0786" font-family="Helvetica,sans-Serif" font-size="11.00" fill="#000000">PatientId</text>
<polygon fill="none" stroke="#000000" points="465,-452.9786 465,-474.9786 546,-474.9786 546,-452.9786 465,-452.9786"/>
<text text-anchor="start" x="468" y="-460.6786" font-family="Helvetica,sans-Serif" font-size="11.00" fill="#000000">int[4]</text>
<polygon fill="#ffffff" stroke="transparent" points="272,-430.9786 272,-452.9786 465,-452.9786 465,-430.9786 272,-430.9786"/>
<polygon fill="none" stroke="#000000" points="272,-430.9786 272,-452.9786 465,-452.9786 465,-430.9786 272,-430.9786"/>
<image xlink:href="../../images/foreignKeys.png" width="11px" height="12px" preserveAspectRatio="xMinYMin meet" x="277" y="-447.979"/>
<text text-anchor="start" x="292" y="-438.0786" font-family="Helvetica,sans-Serif" font-size="11.00" fill="#000000">FacilityId</text>
<polygon fill="none" stroke="#000000" points="465,-430.9786 465,-452.9786 546,-452.9786 546,-430.9786 465,-430.9786"/>
<text text-anchor="start" x="468" y="-438.6786" font-family="Helvetica,sans-Serif" font-size="11.00" fill="#000000">int[4]</text>
<polygon fill="#ffffff" stroke="transparent" points="272,-408.9786 272,-430.9786 465,-430.9786 465,-408.9786 272,-408.9786"/>
<polygon fill="none" stroke="#000000" points="272,-408.9786 272,-430.9786 465,-430.9786 465,-408.9786 272,-408.9786"/>
<text text-anchor="start" x="292" y="-416.0786" font-family="Helvetica,sans-Serif" font-size="11.00" fill="#000000">CaseId</text>
<polygon fill="none" stroke="#000000" points="465,-408.9786 465,-430.9786 546,-430.9786 546,-408.9786 465,-408.9786"/>
<text text-anchor="start" x="468" y="-416.6786" font-family="Helvetica,sans-Serif" font-size="11.00" fill="#000000">int[4]</text>
<polygon fill="none" stroke="#000000" points="272,-386.9786 272,-408.9786 465,-408.9786 465,-386.9786 272,-386.9786"/>
<text text-anchor="start" x="292" y="-394.0786" font-family="Helvetica,sans-Serif" font-size="11.00" fill="#000000">AdmissionDate</text>
<polygon fill="none" stroke="#000000" points="465,-386.9786 465,-408.9786 546,-408.9786 546,-386.9786 465,-386.9786"/>
<text text-anchor="start" x="467.5968" y="-394.6786" font-family="Helvetica,sans-Serif" font-size="11.00" fill="#000000">datetime2[16,7]</text>
<polygon fill="none" stroke="#000000" points="272,-364.9786 272,-386.9786 465,-386.9786 465,-364.9786 272,-364.9786"/>
<text text-anchor="start" x="292" y="-372.0786" font-family="Helvetica,sans-Serif" font-size="11.00" fill="#000000">DischargeDate</text>
<polygon fill="none" stroke="#000000" points="465,-364.9786 465,-386.9786 546,-386.9786 546,-364.9786 465,-364.9786"/>
<text text-anchor="start" x="467.5968" y="-372.6786" font-family="Helvetica,sans-Serif" font-size="11.00" fill="#000000">datetime2[16,7]</text>
<polygon fill="#ffffff" stroke="transparent" points="272,-342.9786 272,-364.9786 465,-364.9786 465,-342.9786 272,-342.9786"/>
<polygon fill="none" stroke="#000000" points="272,-342.9786 272,-364.9786 465,-364.9786 465,-342.9786 272,-342.9786"/>
<image xlink:href="../../images/foreignKeys.png" width="11px" height="12px" preserveAspectRatio="xMinYMin meet" x="277" y="-359.979"/>
<text text-anchor="start" x="292" y="-350.0786" font-family="Helvetica,sans-Serif" font-size="11.00" fill="#000000">HospitalizationStatusId</text>
<polygon fill="none" stroke="#000000" points="465,-342.9786 465,-364.9786 546,-364.9786 546,-342.9786 465,-342.9786"/>
<text text-anchor="start" x="468" y="-350.6786" font-family="Helvetica,sans-Serif" font-size="11.00" fill="#000000">int[4]</text>
<polygon fill="none" stroke="#000000" points="272,-320.9786 272,-342.9786 465,-342.9786 465,-320.9786 272,-320.9786"/>
<text text-anchor="start" x="292" y="-328.0786" font-family="Helvetica,sans-Serif" font-size="11.00" fill="#000000">PsychEvaluation</text>
<polygon fill="none" stroke="#000000" points="465,-320.9786 465,-342.9786 546,-342.9786 546,-320.9786 465,-320.9786"/>
<text text-anchor="start" x="468" y="-328.6786" font-family="Helvetica,sans-Serif" font-size="11.00" fill="#000000">bit[1]</text>
<polygon fill="none" stroke="#000000" points="272,-298.9786 272,-320.9786 465,-320.9786 465,-298.9786 272,-298.9786"/>
<text text-anchor="start" x="292" y="-306.0786" font-family="Helvetica,sans-Serif" font-size="11.00" fill="#000000">CreatedAtUtc</text>
<polygon fill="none" stroke="#000000" points="465,-298.9786 465,-320.9786 546,-320.9786 546,-298.9786 465,-298.9786"/>
<text text-anchor="start" x="467.5968" y="-306.6786" font-family="Helvetica,sans-Serif" font-size="11.00" fill="#000000">datetime2[16,7]</text>
<polygon fill="none" stroke="#000000" points="272,-276.9786 272,-298.9786 465,-298.9786 465,-276.9786 272,-276.9786"/>
<text text-anchor="start" x="292" y="-284.0786" font-family="Helvetica,sans-Serif" font-size="11.00" fill="#000000">UpdatedAtUtc</text>
<polygon fill="none" stroke="#000000" points="465,-276.9786 465,-298.9786 546,-298.9786 546,-276.9786 465,-276.9786"/>
<text text-anchor="start" x="467.5968" y="-284.6786" font-family="Helvetica,sans-Serif" font-size="11.00" fill="#000000">datetime2[16,7]</text>
<polygon fill="none" stroke="#000000" points="272,-254.9786 272,-276.9786 465,-276.9786 465,-254.9786 272,-254.9786"/>
<text text-anchor="start" x="292" y="-262.0786" font-family="Helvetica,sans-Serif" font-size="11.00" fill="#000000">RowVersion</text>
<polygon fill="none" stroke="#000000" points="465,-254.9786 465,-276.9786 546,-276.9786 546,-254.9786 465,-254.9786"/>
<text text-anchor="start" x="468" y="-262.6786" font-family="Helvetica,sans-Serif" font-size="11.00" fill="#000000">timestamp[8]</text>
<polygon fill="#ffffff" stroke="transparent" points="272,-235.9786 272,-254.9786 546,-254.9786 546,-235.9786 272,-235.9786"/>
<polygon fill="none" stroke="#000000" points="272,-235.9786 272,-254.9786 546,-254.9786 546,-235.9786 272,-235.9786"/>
<polygon fill="#ffffff" stroke="transparent" points="273,-236.9786 273,-253.9786 367,-253.9786 367,-236.9786 273,-236.9786"/>
<text text-anchor="start" x="275" y="-242.0786" font-family="Helvetica,sans-Serif" font-size="11.00" fill="#000000">&lt; 3</text>
<polygon fill="#ffffff" stroke="transparent" points="367,-236.9786 367,-253.9786 452,-253.9786 452,-236.9786 367,-236.9786"/>
<text text-anchor="start" x="406.4431" y="-242.0786" font-family="Helvetica,sans-Serif" font-size="11.00" fill="#000000"> &#160;</text>
<polygon fill="#ffffff" stroke="transparent" points="452,-236.9786 452,-253.9786 545,-253.9786 545,-236.9786 452,-236.9786"/>
<text text-anchor="start" x="527.4053" y="-242.0786" font-family="Helvetica,sans-Serif" font-size="11.00" fill="#000000">4 &gt;</text>
<polygon fill="#000000" stroke="#000000" points="367,-236.9786 367,-253.9786 367,-253.9786 367,-236.9786 367,-236.9786"/>
<polygon fill="#000000" stroke="#000000" points="452,-236.9786 452,-253.9786 452,-253.9786 452,-236.9786 452,-236.9786"/>
<polygon fill="none" stroke="#000000" stroke-width="2" points="271,-234.9786 271,-520.9786 547,-520.9786 547,-234.9786 271,-234.9786"/>
</a>
</g>
</g>
<!-- HospitalizationInsurances&#45;&gt;Hospitalizations -->
<g id="edge1" class="edge">
<title>HospitalizationInsurances:w&#45;&gt;Hospitalizations:e</title>
<path fill="none" stroke="#000000" d="M599.5894,-515.5734C579.2878,-508.1315 573.791,-485.9786 546,-485.9786"/>
<polygon fill="#000000" stroke="#000000" points="606.1092,-516.6616 613.4073,-521.5295 610.0546,-517.3201 614,-517.9786 614,-517.9786 614,-517.9786 610.0546,-517.3201 614.5927,-514.4277 606.1092,-516.6616 606.1092,-516.6616"/>
<ellipse fill="none" stroke="#000000" cx="602.9528" cy="-516.1347" rx="3.2" ry="3.2"/>
</g>
<!-- Facilities -->
<g id="node3" class="node">
<title>Facilities</title>
<g id="a_node3"><a xlink:href="../../tables/Facilities.html" xlink:title="Facilities" target="_top">
<polygon fill="#ffffff" stroke="transparent" points="52.5,-393.4786 52.5,-476.4786 176.5,-476.4786 176.5,-393.4786 52.5,-393.4786"/>
<polygon fill="#f5f5f5" stroke="transparent" points="52.5,-452.9786 52.5,-475.9786 176.5,-475.9786 176.5,-452.9786 52.5,-452.9786"/>
<polygon fill="none" stroke="#000000" points="52.5,-452.9786 52.5,-475.9786 176.5,-475.9786 176.5,-452.9786 52.5,-452.9786"/>
<text text-anchor="start" x="57.5" y="-461.5786" font-family="Helvetica,sans-Serif" font-weight="bold" font-size="11.00" fill="#000000">Facilities</text>
<text text-anchor="start" x="141.5437" y="-461.0786" font-family="Helvetica,sans-Serif" font-size="11.00" fill="#000000">[table]</text>
<polygon fill="none" stroke="#000000" points="52.5,-430.9786 52.5,-452.9786 176.5,-452.9786 176.5,-430.9786 52.5,-430.9786"/>
<image xlink:href="../../images/primaryKeys.png" width="11px" height="12px" preserveAspectRatio="xMinYMin meet" x="57.5" y="-447.979"/>
<text text-anchor="start" x="72.5" y="-438.0786" font-family="Helvetica,sans-Serif" font-size="11.00" fill="#000000">Id</text>
<polygon fill="none" stroke="#000000" points="52.5,-411.9786 52.5,-430.9786 176.5,-430.9786 176.5,-411.9786 52.5,-411.9786"/>
<text text-anchor="start" x="55.5" y="-418.0786" font-family="Helvetica,sans-Serif" font-size="11.00" fill="#000000">...</text>
<polygon fill="#ffffff" stroke="transparent" points="52.5,-392.9786 52.5,-411.9786 176.5,-411.9786 176.5,-392.9786 52.5,-392.9786"/>
<polygon fill="none" stroke="#000000" points="52.5,-392.9786 52.5,-411.9786 176.5,-411.9786 176.5,-392.9786 52.5,-392.9786"/>
<polygon fill="#ffffff" stroke="transparent" points="53.5,-393.9786 53.5,-410.9786 91.5,-410.9786 91.5,-393.9786 53.5,-393.9786"/>
<text text-anchor="start" x="55.5" y="-399.0786" font-family="Helvetica,sans-Serif" font-size="11.00" fill="#000000"> &#160;</text>
<polygon fill="#ffffff" stroke="transparent" points="91.5,-393.9786 91.5,-410.9786 129.5,-410.9786 129.5,-393.9786 91.5,-393.9786"/>
<text text-anchor="start" x="107.4431" y="-399.0786" font-family="Helvetica,sans-Serif" font-size="11.00" fill="#000000"> &#160;</text>
<polygon fill="#ffffff" stroke="transparent" points="129.5,-393.9786 129.5,-410.9786 175.5,-410.9786 175.5,-393.9786 129.5,-393.9786"/>
<text text-anchor="start" x="157.9053" y="-399.0786" font-family="Helvetica,sans-Serif" font-size="11.00" fill="#000000">3 &gt;</text>
<polygon fill="#000000" stroke="#000000" points="91.5,-393.9786 91.5,-410.9786 91.5,-410.9786 91.5,-393.9786 91.5,-393.9786"/>
<polygon fill="#000000" stroke="#000000" points="129.5,-393.9786 129.5,-410.9786 129.5,-410.9786 129.5,-393.9786 129.5,-393.9786"/>
</a>
</g>
</g>
<!-- Hospitalizations&#45;&gt;Facilities -->
<g id="edge2" class="edge">
<title>Hospitalizations:w&#45;&gt;Facilities:e</title>
<path fill="none" stroke="#000000" d="M257.4512,-441.9786C226.4054,-441.9786 213.6389,-441.9786 176.5,-441.9786"/>
<polygon fill="#000000" stroke="#000000" points="264,-441.9787 272,-445.5786 268,-441.9787 272,-441.9786 272,-441.9786 272,-441.9786 268,-441.9787 272,-438.3786 264,-441.9787 264,-441.9787"/>
<ellipse fill="none" stroke="#000000" cx="260.8" cy="-441.9787" rx="3.2" ry="3.2"/>
</g>
<!-- HospitalizationStatuses -->
<g id="node4" class="node">
<title>HospitalizationStatuses</title>
<g id="a_node4"><a xlink:href="../../tables/HospitalizationStatuses.html" xlink:title="HospitalizationStatuses" target="_top">
<polygon fill="#ffffff" stroke="transparent" points="8,-129.4786 8,-212.4786 221,-212.4786 221,-129.4786 8,-129.4786"/>
<polygon fill="#f5f5f5" stroke="transparent" points="8.5,-188.9786 8.5,-211.9786 221.5,-211.9786 221.5,-188.9786 8.5,-188.9786"/>
<polygon fill="none" stroke="#000000" points="8.5,-188.9786 8.5,-211.9786 221.5,-211.9786 221.5,-188.9786 8.5,-188.9786"/>
<text text-anchor="start" x="13.5" y="-197.5786" font-family="Helvetica,sans-Serif" font-weight="bold" font-size="11.00" fill="#000000">HospitalizationStatuses</text>
<text text-anchor="start" x="187.0219" y="-197.0786" font-family="Helvetica,sans-Serif" font-size="11.00" fill="#000000">[table]</text>
<polygon fill="none" stroke="#000000" points="8.5,-166.9786 8.5,-188.9786 221.5,-188.9786 221.5,-166.9786 8.5,-166.9786"/>
<image xlink:href="../../images/primaryKeys.png" width="11px" height="12px" preserveAspectRatio="xMinYMin meet" x="13.5" y="-183.979"/>
<text text-anchor="start" x="37.5" y="-174.0786" font-family="Helvetica,sans-Serif" font-size="11.00" fill="#000000">Id</text>
<polygon fill="none" stroke="#000000" points="8.5,-147.9786 8.5,-166.9786 221.5,-166.9786 221.5,-147.9786 8.5,-147.9786"/>
<text text-anchor="start" x="11.5" y="-154.0786" font-family="Helvetica,sans-Serif" font-size="11.00" fill="#000000">...</text>
<polygon fill="#ffffff" stroke="transparent" points="8.5,-128.9786 8.5,-147.9786 221.5,-147.9786 221.5,-128.9786 8.5,-128.9786"/>
<polygon fill="none" stroke="#000000" points="8.5,-128.9786 8.5,-147.9786 221.5,-147.9786 221.5,-128.9786 8.5,-128.9786"/>
<polygon fill="#ffffff" stroke="transparent" points="9.5,-129.9786 9.5,-146.9786 77.5,-146.9786 77.5,-129.9786 9.5,-129.9786"/>
<text text-anchor="start" x="11.5" y="-135.0786" font-family="Helvetica,sans-Serif" font-size="11.00" fill="#000000"> &#160;</text>
<polygon fill="#ffffff" stroke="transparent" points="77.5,-129.9786 77.5,-146.9786 144.5,-146.9786 144.5,-129.9786 77.5,-129.9786"/>
<text text-anchor="start" x="107.9431" y="-135.0786" font-family="Helvetica,sans-Serif" font-size="11.00" fill="#000000"> &#160;</text>
<polygon fill="#ffffff" stroke="transparent" points="144.5,-129.9786 144.5,-146.9786 220.5,-146.9786 220.5,-129.9786 144.5,-129.9786"/>
<text text-anchor="start" x="202.9053" y="-135.0786" font-family="Helvetica,sans-Serif" font-size="11.00" fill="#000000">3 &gt;</text>
<polygon fill="#000000" stroke="#000000" points="77.5,-129.9786 77.5,-146.9786 77.5,-146.9786 77.5,-129.9786 77.5,-129.9786"/>
<polygon fill="#000000" stroke="#000000" points="144.5,-129.9786 144.5,-146.9786 144.5,-146.9786 144.5,-129.9786 144.5,-129.9786"/>
</a>
</g>
</g>
<!-- Hospitalizations&#45;&gt;HospitalizationStatuses -->
<g id="edge3" class="edge">
<title>Hospitalizations:w&#45;&gt;HospitalizationStatuses:e</title>
<path fill="none" stroke="#000000" d="M257.5715,-351.4906C205.4503,-330.0987 297.1566,-177.9786 221.5,-177.9786"/>
<polygon fill="#000000" stroke="#000000" points="264.1163,-352.6192 271.3882,-357.5263 268.0582,-353.2989 272,-353.9786 272,-353.9786 272,-353.9786 268.0582,-353.2989 272.6118,-350.431 264.1163,-352.6192 264.1163,-352.6192"/>
<ellipse fill="none" stroke="#000000" cx="260.9629" cy="-352.0754" rx="3.2" ry="3.2"/>
</g>
<!-- Patients -->
<g id="node5" class="node">
<title>Patients</title>
<g id="a_node5"><a xlink:href="../../tables/Patients.html" xlink:title="Patients" target="_top">
<polygon fill="#ffffff" stroke="transparent" points="52.5,-523.4786 52.5,-606.4786 176.5,-606.4786 176.5,-523.4786 52.5,-523.4786"/>
<polygon fill="#f5f5f5" stroke="transparent" points="52.5,-582.9786 52.5,-605.9786 176.5,-605.9786 176.5,-582.9786 52.5,-582.9786"/>
<polygon fill="none" stroke="#000000" points="52.5,-582.9786 52.5,-605.9786 176.5,-605.9786 176.5,-582.9786 52.5,-582.9786"/>
<text text-anchor="start" x="57.5" y="-591.5786" font-family="Helvetica,sans-Serif" font-weight="bold" font-size="11.00" fill="#000000">Patients</text>
<text text-anchor="start" x="141.5437" y="-591.0786" font-family="Helvetica,sans-Serif" font-size="11.00" fill="#000000">[table]</text>
<polygon fill="none" stroke="#000000" points="52.5,-560.9786 52.5,-582.9786 176.5,-582.9786 176.5,-560.9786 52.5,-560.9786"/>
<image xlink:href="../../images/primaryKeys.png" width="11px" height="12px" preserveAspectRatio="xMinYMin meet" x="57.5" y="-577.979"/>
<text text-anchor="start" x="72.5" y="-568.0786" font-family="Helvetica,sans-Serif" font-size="11.00" fill="#000000">Id</text>
<polygon fill="none" stroke="#000000" points="52.5,-541.9786 52.5,-560.9786 176.5,-560.9786 176.5,-541.9786 52.5,-541.9786"/>
<text text-anchor="start" x="55.5" y="-548.0786" font-family="Helvetica,sans-Serif" font-size="11.00" fill="#000000">...</text>
<polygon fill="#ffffff" stroke="transparent" points="52.5,-522.9786 52.5,-541.9786 176.5,-541.9786 176.5,-522.9786 52.5,-522.9786"/>
<polygon fill="none" stroke="#000000" points="52.5,-522.9786 52.5,-541.9786 176.5,-541.9786 176.5,-522.9786 52.5,-522.9786"/>
<polygon fill="#ffffff" stroke="transparent" points="53.5,-523.9786 53.5,-540.9786 91.5,-540.9786 91.5,-523.9786 53.5,-523.9786"/>
<text text-anchor="start" x="55.5" y="-529.0786" font-family="Helvetica,sans-Serif" font-size="11.00" fill="#000000"> &#160;</text>
<polygon fill="#ffffff" stroke="transparent" points="91.5,-523.9786 91.5,-540.9786 129.5,-540.9786 129.5,-523.9786 91.5,-523.9786"/>
<text text-anchor="start" x="107.4431" y="-529.0786" font-family="Helvetica,sans-Serif" font-size="11.00" fill="#000000"> &#160;</text>
<polygon fill="#ffffff" stroke="transparent" points="129.5,-523.9786 129.5,-540.9786 175.5,-540.9786 175.5,-523.9786 129.5,-523.9786"/>
<text text-anchor="start" x="157.9053" y="-529.0786" font-family="Helvetica,sans-Serif" font-size="11.00" fill="#000000">3 &gt;</text>
<polygon fill="#000000" stroke="#000000" points="91.5,-523.9786 91.5,-540.9786 91.5,-540.9786 91.5,-523.9786 91.5,-523.9786"/>
<polygon fill="#000000" stroke="#000000" points="129.5,-523.9786 129.5,-540.9786 129.5,-540.9786 129.5,-523.9786 129.5,-523.9786"/>
</a>
</g>
</g>
<!-- Hospitalizations&#45;&gt;Patients -->
<g id="edge4" class="edge">
<title>Hospitalizations:w&#45;&gt;Patients:e</title>
<path fill="none" stroke="#000000" d="M257.501,-466.2344C212.8228,-481.7435 235.068,-571.9786 176.5,-571.9786"/>
<polygon fill="#000000" stroke="#000000" points="264.0951,-465.2085 272.5534,-467.5358 268.0475,-464.5936 272,-463.9786 272,-463.9786 272,-463.9786 268.0475,-464.5936 271.4466,-460.4214 264.0951,-465.2085 264.0951,-465.2085"/>
<ellipse fill="none" stroke="#000000" cx="260.9331" cy="-465.7005" rx="3.2" ry="3.2"/>
</g>
<!-- HospitalizationStatusHistories -->
<g id="node6" class="node">
<title>HospitalizationStatusHistories</title>
<g id="a_node6"><a xlink:href="../../tables/HospitalizationStatusHistories.html" xlink:title="HospitalizationStatusHistories" target="_top">
<polygon fill="#ffffff" stroke="transparent" points="597,-85.4786 597,-256.4786 859,-256.4786 859,-85.4786 597,-85.4786"/>
<polygon fill="#f5f5f5" stroke="transparent" points="597,-232.9786 597,-255.9786 859,-255.9786 859,-232.9786 597,-232.9786"/>
<polygon fill="none" stroke="#000000" points="597,-232.9786 597,-255.9786 859,-255.9786 859,-232.9786 597,-232.9786"/>
<text text-anchor="start" x="602" y="-241.5786" font-family="Helvetica,sans-Serif" font-weight="bold" font-size="11.00" fill="#000000">HospitalizationStatusHistories</text>
<text text-anchor="start" x="824.5219" y="-241.0786" font-family="Helvetica,sans-Serif" font-size="11.00" fill="#000000">[table]</text>
<polygon fill="none" stroke="#000000" points="597,-210.9786 597,-232.9786 859,-232.9786 859,-210.9786 597,-210.9786"/>
<image xlink:href="../../images/primaryKeys.png" width="11px" height="12px" preserveAspectRatio="xMinYMin meet" x="602" y="-227.979"/>
<text text-anchor="start" x="626" y="-218.0786" font-family="Helvetica,sans-Serif" font-size="11.00" fill="#000000">Id</text>
<polygon fill="#ffffff" stroke="transparent" points="597,-188.9786 597,-210.9786 859,-210.9786 859,-188.9786 597,-188.9786"/>
<polygon fill="none" stroke="#000000" points="597,-188.9786 597,-210.9786 859,-210.9786 859,-188.9786 597,-188.9786"/>
<image xlink:href="../../images/foreignKeys.png" width="11px" height="12px" preserveAspectRatio="xMinYMin meet" x="602" y="-205.979"/>
<text text-anchor="start" x="626" y="-196.0786" font-family="Helvetica,sans-Serif" font-size="11.00" fill="#000000">HospitalizationId</text>
<polygon fill="#ffffff" stroke="transparent" points="597,-166.9786 597,-188.9786 859,-188.9786 859,-166.9786 597,-166.9786"/>
<polygon fill="none" stroke="#000000" points="597,-166.9786 597,-188.9786 859,-188.9786 859,-166.9786 597,-166.9786"/>
<image xlink:href="../../images/foreignKeys.png" width="11px" height="12px" preserveAspectRatio="xMinYMin meet" x="602" y="-183.979"/>
<text text-anchor="start" x="626" y="-174.0786" font-family="Helvetica,sans-Serif" font-size="11.00" fill="#000000">NewStatusId</text>
<polygon fill="#ffffff" stroke="transparent" points="597,-144.9786 597,-166.9786 859,-166.9786 859,-144.9786 597,-144.9786"/>
<polygon fill="none" stroke="#000000" points="597,-144.9786 597,-166.9786 859,-166.9786 859,-144.9786 597,-144.9786"/>
<text text-anchor="start" x="626" y="-152.0786" font-family="Helvetica,sans-Serif" font-size="11.00" fill="#000000">ChangedAt</text>
<polygon fill="#ffffff" stroke="transparent" points="597,-122.9786 597,-144.9786 859,-144.9786 859,-122.9786 597,-122.9786"/>
<polygon fill="none" stroke="#000000" points="597,-122.9786 597,-144.9786 859,-144.9786 859,-122.9786 597,-122.9786"/>
<text text-anchor="start" x="626" y="-130.0786" font-family="Helvetica,sans-Serif" font-size="11.00" fill="#000000">ChangedByUserId</text>
<polygon fill="none" stroke="#000000" points="597,-103.9786 597,-122.9786 859,-122.9786 859,-103.9786 597,-103.9786"/>
<text text-anchor="start" x="600" y="-110.0786" font-family="Helvetica,sans-Serif" font-size="11.00" fill="#000000">...</text>
<polygon fill="#ffffff" stroke="transparent" points="597,-84.9786 597,-103.9786 859,-103.9786 859,-84.9786 597,-84.9786"/>
<polygon fill="none" stroke="#000000" points="597,-84.9786 597,-103.9786 859,-103.9786 859,-84.9786 597,-84.9786"/>
<polygon fill="#ffffff" stroke="transparent" points="598,-85.9786 598,-102.9786 691,-102.9786 691,-85.9786 598,-85.9786"/>
<text text-anchor="start" x="600" y="-91.0786" font-family="Helvetica,sans-Serif" font-size="11.00" fill="#000000">&lt; 2</text>
<polygon fill="#ffffff" stroke="transparent" points="691,-85.9786 691,-102.9786 775,-102.9786 775,-85.9786 691,-85.9786"/>
<text text-anchor="start" x="729.9431" y="-91.0786" font-family="Helvetica,sans-Serif" font-size="11.00" fill="#000000"> &#160;</text>
<polygon fill="#ffffff" stroke="transparent" points="775,-85.9786 775,-102.9786 858,-102.9786 858,-85.9786 775,-85.9786"/>
<text text-anchor="start" x="849.8862" y="-91.0786" font-family="Helvetica,sans-Serif" font-size="11.00" fill="#000000"> &#160;</text>
<polygon fill="#000000" stroke="#000000" points="691,-85.9786 691,-102.9786 691,-102.9786 691,-85.9786 691,-85.9786"/>
<polygon fill="#000000" stroke="#000000" points="775,-85.9786 775,-102.9786 775,-102.9786 775,-85.9786 775,-85.9786"/>
</a>
</g>
</g>
<!-- HospitalizationStatusHistories&#45;&gt;Hospitalizations -->
<g id="edge5" class="edge">
<title>HospitalizationStatusHistories:w&#45;&gt;Hospitalizations:e</title>
<path fill="none" stroke="#000000" d="M583.5844,-205.6916C544.5566,-246.0004 605.1363,-485.9786 546,-485.9786"/>
<polygon fill="#000000" stroke="#000000" points="589.6396,-203.113 598.4105,-203.2908 593.3198,-201.5458 597,-199.9786 597,-199.9786 597,-199.9786 593.3198,-201.5458 595.5895,-196.6664 589.6396,-203.113 589.6396,-203.113"/>
<ellipse fill="none" stroke="#000000" cx="586.6954" cy="-204.3668" rx="3.2" ry="3.2"/>
</g>
<!-- HospitalizationStatusHistories&#45;&gt;HospitalizationStatuses -->
<g id="edge6" class="edge">
<title>HospitalizationStatusHistories:w&#45;&gt;HospitalizationStatuses:e</title>
<path fill="none" stroke="#000000" d="M582.1803,-177.9786C427.4702,-177.9786 383.3366,-177.9786 221.5,-177.9786"/>
<polygon fill="#000000" stroke="#000000" points="589,-177.9787 597,-181.5786 593,-177.9787 597,-177.9786 597,-177.9786 597,-177.9786 593,-177.9787 597,-174.3786 589,-177.9787 589,-177.9787"/>
<ellipse fill="none" stroke="#000000" cx="585.8" cy="-177.9787" rx="3.2" ry="3.2"/>
</g>
<!-- Visits -->
<g id="node7" class="node">
<title>Visits</title>
<g id="a_node7"><a xlink:href="../../tables/Visits.html" xlink:title="Visits" target="_top">
<polygon fill="#ffffff" stroke="transparent" points="645,-277.4786 645,-426.4786 811,-426.4786 811,-277.4786 645,-277.4786"/>
<polygon fill="#f5f5f5" stroke="transparent" points="645,-402.9786 645,-425.9786 811,-425.9786 811,-402.9786 645,-402.9786"/>
<polygon fill="none" stroke="#000000" points="645,-402.9786 645,-425.9786 811,-425.9786 811,-402.9786 645,-402.9786"/>
<text text-anchor="start" x="650" y="-411.5786" font-family="Helvetica,sans-Serif" font-weight="bold" font-size="11.00" fill="#000000">Visits</text>
<text text-anchor="start" x="776.0437" y="-411.0786" font-family="Helvetica,sans-Serif" font-size="11.00" fill="#000000">[table]</text>
<polygon fill="none" stroke="#000000" points="645,-380.9786 645,-402.9786 811,-402.9786 811,-380.9786 645,-380.9786"/>
<image xlink:href="../../images/primaryKeys.png" width="11px" height="12px" preserveAspectRatio="xMinYMin meet" x="650" y="-397.979"/>
<text text-anchor="start" x="665" y="-388.0786" font-family="Helvetica,sans-Serif" font-size="11.00" fill="#000000">Id</text>
<polygon fill="#ffffff" stroke="transparent" points="645,-358.9786 645,-380.9786 811,-380.9786 811,-358.9786 645,-358.9786"/>
<polygon fill="none" stroke="#000000" points="645,-358.9786 645,-380.9786 811,-380.9786 811,-358.9786 645,-358.9786"/>
<text text-anchor="start" x="665" y="-366.0786" font-family="Helvetica,sans-Serif" font-size="11.00" fill="#000000">DateServiced</text>
<polygon fill="#ffffff" stroke="transparent" points="645,-336.9786 645,-358.9786 811,-358.9786 811,-336.9786 645,-336.9786"/>
<polygon fill="none" stroke="#000000" points="645,-336.9786 645,-358.9786 811,-358.9786 811,-336.9786 645,-336.9786"/>
<image xlink:href="../../images/foreignKeys.png" width="11px" height="12px" preserveAspectRatio="xMinYMin meet" x="650" y="-353.979"/>
<text text-anchor="start" x="665" y="-344.0786" font-family="Helvetica,sans-Serif" font-size="11.00" fill="#000000">HospitalizationId</text>
<polygon fill="#ffffff" stroke="transparent" points="645,-314.9786 645,-336.9786 811,-336.9786 811,-314.9786 645,-314.9786"/>
<polygon fill="none" stroke="#000000" points="645,-314.9786 645,-336.9786 811,-336.9786 811,-314.9786 645,-314.9786"/>
<image xlink:href="../../images/foreignKeys.png" width="11px" height="12px" preserveAspectRatio="xMinYMin meet" x="650" y="-331.979"/>
<text text-anchor="start" x="665" y="-322.0786" font-family="Helvetica,sans-Serif" font-size="11.00" fill="#000000">ServiceTypeId</text>
<polygon fill="none" stroke="#000000" points="645,-295.9786 645,-314.9786 811,-314.9786 811,-295.9786 645,-295.9786"/>
<text text-anchor="start" x="648" y="-302.0786" font-family="Helvetica,sans-Serif" font-size="11.00" fill="#000000">...</text>
<polygon fill="#ffffff" stroke="transparent" points="645,-276.9786 645,-295.9786 811,-295.9786 811,-276.9786 645,-276.9786"/>
<polygon fill="none" stroke="#000000" points="645,-276.9786 645,-295.9786 811,-295.9786 811,-276.9786 645,-276.9786"/>
<polygon fill="#ffffff" stroke="transparent" points="646,-277.9786 646,-294.9786 704,-294.9786 704,-277.9786 646,-277.9786"/>
<text text-anchor="start" x="648" y="-283.0786" font-family="Helvetica,sans-Serif" font-size="11.00" fill="#000000">&lt; 2</text>
<polygon fill="#ffffff" stroke="transparent" points="704,-277.9786 704,-294.9786 753,-294.9786 753,-277.9786 704,-277.9786"/>
<text text-anchor="start" x="725.4431" y="-283.0786" font-family="Helvetica,sans-Serif" font-size="11.00" fill="#000000"> &#160;</text>
<polygon fill="#ffffff" stroke="transparent" points="753,-277.9786 753,-294.9786 810,-294.9786 810,-277.9786 753,-277.9786"/>
<text text-anchor="start" x="792.4053" y="-283.0786" font-family="Helvetica,sans-Serif" font-size="11.00" fill="#000000">3 &gt;</text>
<polygon fill="#000000" stroke="#000000" points="704,-277.9786 704,-294.9786 704,-294.9786 704,-277.9786 704,-277.9786"/>
<polygon fill="#000000" stroke="#000000" points="753,-277.9786 753,-294.9786 753,-294.9786 753,-277.9786 753,-277.9786"/>
</a>
</g>
</g>
<!-- Visits&#45;&gt;Hospitalizations -->
<g id="edge7" class="edge">
<title>Visits:w&#45;&gt;Hospitalizations:e</title>
<path fill="none" stroke="#000000" d="M631.4581,-353.9083C601.1568,-380.3224 579.0241,-485.9786 546,-485.9786"/>
<polygon fill="#000000" stroke="#000000" points="637.6717,-351.1875 646.444,-351.2763 641.3359,-349.5831 645,-347.9786 645,-347.9786 645,-347.9786 641.3359,-349.5831 643.556,-344.6809 637.6717,-351.1875 637.6717,-351.1875"/>
<ellipse fill="none" stroke="#000000" cx="634.7404" cy="-352.4711" rx="3.2" ry="3.2"/>
</g>
<!-- staging.ProviderAssignments -->
<g id="node8" class="node">
<title>staging.ProviderAssignments</title>
<g id="a_node8"><a xlink:title="staging.ProviderAssignments">
<polygon fill="#ffffff" stroke="transparent" points="908,-402.4786 908,-595.4786 1215,-595.4786 1215,-402.4786 908,-402.4786"/>
<polygon fill="#f5f5f5" stroke="transparent" points="908.5,-571.9786 908.5,-594.9786 1215.5,-594.9786 1215.5,-571.9786 908.5,-571.9786"/>
<polygon fill="none" stroke="#000000" points="908.5,-571.9786 908.5,-594.9786 1215.5,-594.9786 1215.5,-571.9786 908.5,-571.9786"/>
<text text-anchor="start" x="913.5" y="-580.5786" font-family="Helvetica,sans-Serif" font-weight="bold" font-size="11.00" fill="#000000">staging.ProviderAssignments</text>
<text text-anchor="start" x="1180.5437" y="-580.0786" font-family="Helvetica,sans-Serif" font-size="11.00" fill="#000000">[table]</text>
<polygon fill="none" stroke="#000000" points="908.5,-549.9786 908.5,-571.9786 1215.5,-571.9786 1215.5,-549.9786 908.5,-549.9786"/>
<image xlink:href="../../images/foreignKeys.png" width="11px" height="12px" preserveAspectRatio="xMinYMin meet" x="913.5" y="-566.979"/>
<text text-anchor="start" x="928.5" y="-557.0786" font-family="Helvetica,sans-Serif" font-size="11.00" fill="#000000">ResolvedPhysicianId</text>
<polygon fill="none" stroke="#000000" points="908.5,-527.9786 908.5,-549.9786 1215.5,-549.9786 1215.5,-527.9786 908.5,-527.9786"/>
<image xlink:href="../../images/foreignKeys.png" width="11px" height="12px" preserveAspectRatio="xMinYMin meet" x="913.5" y="-544.979"/>
<text text-anchor="start" x="928.5" y="-535.0786" font-family="Helvetica,sans-Serif" font-size="11.00" fill="#000000">ResolvedHospitalizationId</text>
<polygon fill="none" stroke="#000000" points="908.5,-505.9786 908.5,-527.9786 1215.5,-527.9786 1215.5,-505.9786 908.5,-505.9786"/>
<image xlink:href="../../images/foreignKeys.png" width="11px" height="12px" preserveAspectRatio="xMinYMin meet" x="913.5" y="-522.979"/>
<text text-anchor="start" x="928.5" y="-513.0786" font-family="Helvetica,sans-Serif" font-size="11.00" fill="#000000">ResolvedPatientId</text>
<polygon fill="none" stroke="#000000" points="908.5,-483.9786 908.5,-505.9786 1215.5,-505.9786 1215.5,-483.9786 908.5,-483.9786"/>
<image xlink:href="../../images/foreignKeys.png" width="11px" height="12px" preserveAspectRatio="xMinYMin meet" x="913.5" y="-500.979"/>
<text text-anchor="start" x="928.5" y="-491.0786" font-family="Helvetica,sans-Serif" font-size="11.00" fill="#000000">ResolvedNursePractitionerId</text>
<polygon fill="none" stroke="#000000" points="908.5,-461.9786 908.5,-483.9786 1215.5,-483.9786 1215.5,-461.9786 908.5,-461.9786"/>
<image xlink:href="../../images/foreignKeys.png" width="11px" height="12px" preserveAspectRatio="xMinYMin meet" x="913.5" y="-478.979"/>
<text text-anchor="start" x="928.5" y="-469.0786" font-family="Helvetica,sans-Serif" font-size="11.00" fill="#000000">ResolvedVisitId</text>
<polygon fill="none" stroke="#000000" points="908.5,-439.9786 908.5,-461.9786 1215.5,-461.9786 1215.5,-439.9786 908.5,-439.9786"/>
<image xlink:href="../../images/foreignKeys.png" width="11px" height="12px" preserveAspectRatio="xMinYMin meet" x="913.5" y="-456.979"/>
<text text-anchor="start" x="928.5" y="-447.0786" font-family="Helvetica,sans-Serif" font-size="11.00" fill="#000000">ResolvedHospitalizationStatusId</text>
<polygon fill="none" stroke="#000000" points="908.5,-420.9786 908.5,-439.9786 1215.5,-439.9786 1215.5,-420.9786 908.5,-420.9786"/>
<text text-anchor="start" x="911.5" y="-427.0786" font-family="Helvetica,sans-Serif" font-size="11.00" fill="#000000">...</text>
<polygon fill="#ffffff" stroke="transparent" points="908.5,-401.9786 908.5,-420.9786 1215.5,-420.9786 1215.5,-401.9786 908.5,-401.9786"/>
<polygon fill="none" stroke="#000000" points="908.5,-401.9786 908.5,-420.9786 1215.5,-420.9786 1215.5,-401.9786 908.5,-401.9786"/>
<polygon fill="#ffffff" stroke="transparent" points="909.5,-402.9786 909.5,-419.9786 1017.5,-419.9786 1017.5,-402.9786 909.5,-402.9786"/>
<text text-anchor="start" x="911.5" y="-408.0786" font-family="Helvetica,sans-Serif" font-size="11.00" fill="#000000">&lt; 6</text>
<polygon fill="#ffffff" stroke="transparent" points="1017.5,-402.9786 1017.5,-419.9786 1116.5,-419.9786 1116.5,-402.9786 1017.5,-402.9786"/>
<text text-anchor="start" x="1063.9431" y="-408.0786" font-family="Helvetica,sans-Serif" font-size="11.00" fill="#000000"> &#160;</text>
<polygon fill="#ffffff" stroke="transparent" points="1116.5,-402.9786 1116.5,-419.9786 1214.5,-419.9786 1214.5,-402.9786 1116.5,-402.9786"/>
<text text-anchor="start" x="1206.3862" y="-408.0786" font-family="Helvetica,sans-Serif" font-size="11.00" fill="#000000"> &#160;</text>
<polygon fill="#000000" stroke="#000000" points="1017.5,-402.9786 1017.5,-419.9786 1017.5,-419.9786 1017.5,-402.9786 1017.5,-402.9786"/>
<polygon fill="#000000" stroke="#000000" points="1116.5,-402.9786 1116.5,-419.9786 1116.5,-419.9786 1116.5,-402.9786 1116.5,-402.9786"/>
</a>
</g>
</g>
<!-- staging.ProviderAssignments&#45;&gt;Hospitalizations -->
<g id="edge8" class="edge">
<title>staging.ProviderAssignments:w&#45;&gt;Hospitalizations:e</title>
<path fill="none" stroke="#000000" d="M894.8757,-543.6599C884.1716,-553.5405 886.4596,-576.326 867,-584.9786 754.1019,-635.1781 692.3144,-652.7437 589,-584.9786 548.8876,-558.6684 593.9712,-485.9786 546,-485.9786"/>
<polygon fill="#000000" stroke="#000000" points="900.9341,-541.5783 909.6698,-542.3833 904.7171,-540.2784 908.5,-538.9786 908.5,-538.9786 908.5,-538.9786 904.7171,-540.2784 907.3302,-535.574 900.9341,-541.5783 900.9341,-541.5783"/>
<ellipse fill="none" stroke="#000000" cx="897.9078" cy="-542.6181" rx="3.2" ry="3.2"/>
</g>
<!-- staging.ProviderAssignments&#45;&gt;HospitalizationStatuses -->
<g id="edge9" class="edge">
<title>staging.ProviderAssignments:w&#45;&gt;HospitalizationStatuses:e</title>
<path fill="none" stroke="#000000" d="M894.5085,-447.148C837.2984,-410.8357 925.5813,-127.4499 867,-74.9786 774.9654,7.4568 711.4041,-58.1496 589,-74.9786 504.9768,-86.5307 306.3136,-177.9786 221.5,-177.9786"/>
<polygon fill="#000000" stroke="#000000" points="900.784,-448.866 907.5493,-454.4508 904.642,-449.9223 908.5,-450.9786 908.5,-450.9786 908.5,-450.9786 904.642,-449.9223 909.4507,-447.5064 900.784,-448.866 900.784,-448.866"/>
<ellipse fill="none" stroke="#000000" cx="897.6975" cy="-448.021" rx="3.2" ry="3.2"/>
</g>
<!-- staging.ProviderAssignments&#45;&gt;Patients -->
<g id="edge10" class="edge">
<title>staging.ProviderAssignments:w&#45;&gt;Patients:e</title>
<path fill="none" stroke="#000000" d="M894.5718,-521.3994C880.2029,-534.1122 892.3278,-570.764 867,-584.9786 759.2534,-645.4488 712.5402,-586.9248 589,-584.9786 405.5984,-582.0894 359.9244,-571.9786 176.5,-571.9786"/>
<polygon fill="#000000" stroke="#000000" points="900.8749,-519.3989 909.5891,-520.4099 904.6874,-518.1887 908.5,-516.9786 908.5,-516.9786 908.5,-516.9786 904.6874,-518.1887 907.4109,-513.5473 900.8749,-519.3989 900.8749,-519.3989"/>
<ellipse fill="none" stroke="#000000" cx="897.8248" cy="-520.367" rx="3.2" ry="3.2"/>
</g>
<!-- staging.ProviderAssignments&#45;&gt;Visits -->
<g id="edge11" class="edge">
<title>staging.ProviderAssignments:w&#45;&gt;Visits:e</title>
<path fill="none" stroke="#000000" d="M894.3503,-469.5544C883.6374,-463.0974 881.0567,-448.7162 867,-436.9786 842.4918,-416.5139 842.9289,-391.9786 811,-391.9786"/>
<polygon fill="#000000" stroke="#000000" points="900.7244,-471.0969 907.6532,-476.4776 904.6122,-472.0378 908.5,-472.9786 908.5,-472.9786 908.5,-472.9786 904.6122,-472.0378 909.3468,-469.4796 900.7244,-471.0969 900.7244,-471.0969"/>
<ellipse fill="none" stroke="#000000" cx="897.6142" cy="-470.3442" rx="3.2" ry="3.2"/>
</g>
</g>
</svg>
