<?xml version="1.0" encoding="UTF-8" standalone="no"?>
<!DOCTYPE svg PUBLIC "-//W3C//DTD SVG 1.1//EN"
 "http://www.w3.org/Graphics/SVG/1.1/DTD/svg11.dtd">
<!-- Generated by graphviz version 2.40.1 (20161225.0304)
 -->
<!-- Title: twoDegreesRelationshipsDiagram Pages: 1 -->
<svg width="1125pt" height="558pt"
 viewBox="0.00 0.00 1125.00 558.41" xmlns="http://www.w3.org/2000/svg" xmlns:xlink="http://www.w3.org/1999/xlink">
<g id="graph0" class="graph" transform="scale(1 1) rotate(0) translate(4 554.4076)">
<title>twoDegreesRelationshipsDiagram</title>
<polygon fill="#ffffff" stroke="transparent" points="-4,4 -4,-554.4076 1121,-554.4076 1121,4 -4,4"/>
<text text-anchor="middle" x="72.4936" y="-7.3" font-family="Helvetica,sans-Serif" font-size="11.00" fill="#000000">Generated by SchemaSpy</text>
<!-- HospitalizationInsurances -->
<g id="node1" class="node">
<title>HospitalizationInsurances</title>
<g id="a_node1"><a xlink:href="../../tables/HospitalizationInsurances.html" xlink:title="HospitalizationInsurances" target="_top">
<polygon fill="#ffffff" stroke="transparent" points="559.5,-445.7 559.5,-506.7 788.5,-506.7 788.5,-445.7 559.5,-445.7"/>
<polygon fill="#f5f5f5" stroke="transparent" points="560,-483.2 560,-506.2 789,-506.2 789,-483.2 560,-483.2"/>
<polygon fill="none" stroke="#000000" points="560,-483.2 560,-506.2 789,-506.2 789,-483.2 560,-483.2"/>
<text text-anchor="start" x="565" y="-491.8" font-family="Helvetica,sans-Serif" font-weight="bold" font-size="11.00" fill="#000000">HospitalizationInsurances</text>
<text text-anchor="start" x="754.5219" y="-491.3" font-family="Helvetica,sans-Serif" font-size="11.00" fill="#000000">[table]</text>
<polygon fill="none" stroke="#000000" points="560,-464.2 560,-483.2 789,-483.2 789,-464.2 560,-464.2"/>
<text text-anchor="start" x="563" y="-470.3" font-family="Helvetica,sans-Serif" font-size="11.00" fill="#000000">...</text>
<polygon fill="#ffffff" stroke="transparent" points="560,-445.2 560,-464.2 789,-464.2 789,-445.2 560,-445.2"/>
<polygon fill="none" stroke="#000000" points="560,-445.2 560,-464.2 789,-464.2 789,-445.2 560,-445.2"/>
<polygon fill="#ffffff" stroke="transparent" points="561,-446.2 561,-463.2 643,-463.2 643,-446.2 561,-446.2"/>
<text text-anchor="start" x="563" y="-451.3" font-family="Helvetica,sans-Serif" font-size="11.00" fill="#000000">&lt; 2</text>
<polygon fill="#ffffff" stroke="transparent" points="643,-446.2 643,-463.2 716,-463.2 716,-446.2 643,-446.2"/>
<text text-anchor="start" x="676.4431" y="-451.3" font-family="Helvetica,sans-Serif" font-size="11.00" fill="#000000"> &#160;</text>
<polygon fill="#ffffff" stroke="transparent" points="716,-446.2 716,-463.2 788,-463.2 788,-446.2 716,-446.2"/>
<text text-anchor="start" x="779.8862" y="-451.3" font-family="Helvetica,sans-Serif" font-size="11.00" fill="#000000"> &#160;</text>
<polygon fill="#000000" stroke="#000000" points="643,-446.2 643,-463.2 643,-463.2 643,-446.2 643,-446.2"/>
<polygon fill="#000000" stroke="#000000" points="716,-446.2 716,-463.2 716,-463.2 716,-446.2 716,-446.2"/>
</a>
</g>
</g>
<!-- Hospitalizations -->
<g id="node2" class="node">
<title>Hospitalizations</title>
<g id="a_node2"><a xlink:href="../../tables/Hospitalizations.html" xlink:title="Hospitalizations" target="_top">
<polygon fill="#ffffff" stroke="transparent" points="337,-282.7 337,-343.7 494,-343.7 494,-282.7 337,-282.7"/>
<polygon fill="#f5f5f5" stroke="transparent" points="337.5,-320.2 337.5,-343.2 494.5,-343.2 494.5,-320.2 337.5,-320.2"/>
<polygon fill="none" stroke="#000000" points="337.5,-320.2 337.5,-343.2 494.5,-343.2 494.5,-320.2 337.5,-320.2"/>
<text text-anchor="start" x="342.5" y="-328.8" font-family="Helvetica,sans-Serif" font-weight="bold" font-size="11.00" fill="#000000">Hospitalizations</text>
<text text-anchor="start" x="460.0219" y="-328.3" font-family="Helvetica,sans-Serif" font-size="11.00" fill="#000000">[table]</text>
<polygon fill="none" stroke="#000000" points="337.5,-301.2 337.5,-320.2 494.5,-320.2 494.5,-301.2 337.5,-301.2"/>
<text text-anchor="start" x="340.5" y="-307.3" font-family="Helvetica,sans-Serif" font-size="11.00" fill="#000000">...</text>
<polygon fill="#ffffff" stroke="transparent" points="337.5,-282.2 337.5,-301.2 494.5,-301.2 494.5,-282.2 337.5,-282.2"/>
<polygon fill="none" stroke="#000000" points="337.5,-282.2 337.5,-301.2 494.5,-301.2 494.5,-282.2 337.5,-282.2"/>
<polygon fill="#ffffff" stroke="transparent" points="338.5,-283.2 338.5,-300.2 393.5,-300.2 393.5,-283.2 338.5,-283.2"/>
<text text-anchor="start" x="340.5" y="-288.3" font-family="Helvetica,sans-Serif" font-size="11.00" fill="#000000">&lt; 3</text>
<polygon fill="#ffffff" stroke="transparent" points="393.5,-283.2 393.5,-300.2 439.5,-300.2 439.5,-283.2 393.5,-283.2"/>
<text text-anchor="start" x="413.4431" y="-288.3" font-family="Helvetica,sans-Serif" font-size="11.00" fill="#000000"> &#160;</text>
<polygon fill="#ffffff" stroke="transparent" points="439.5,-283.2 439.5,-300.2 493.5,-300.2 493.5,-283.2 439.5,-283.2"/>
<text text-anchor="start" x="475.9053" y="-288.3" font-family="Helvetica,sans-Serif" font-size="11.00" fill="#000000">4 &gt;</text>
<polygon fill="#000000" stroke="#000000" points="393.5,-283.2 393.5,-300.2 393.5,-300.2 393.5,-283.2 393.5,-283.2"/>
<polygon fill="#000000" stroke="#000000" points="439.5,-283.2 439.5,-300.2 439.5,-300.2 439.5,-283.2 439.5,-283.2"/>
</a>
</g>
</g>
<!-- HospitalizationInsurances&#45;&gt;Hospitalizations -->
<g id="edge1" class="edge">
<title>HospitalizationInsurances:w&#45;&gt;Hospitalizations:e</title>
<path fill="none" stroke="#000000" d="M545.4634,-471.952C486.6072,-461.7601 447.5367,-391.4824 428.6704,-347.9176"/>
<polygon fill="#000000" stroke="#000000" points="552.0293,-472.5157 559.692,-476.7868 556.0147,-472.8578 560,-473.2 560,-473.2 560,-473.2 556.0147,-472.8578 560.308,-469.6132 552.0293,-472.5157 552.0293,-472.5157"/>
<ellipse fill="none" stroke="#000000" cx="548.841" cy="-472.2419" rx="3.2" ry="3.2"/>
</g>
<!-- Facilities -->
<g id="node3" class="node">
<title>Facilities</title>
<g id="a_node3"><a xlink:href="../../tables/Facilities.html" xlink:title="Facilities" target="_top">
<polygon fill="#ffffff" stroke="transparent" points="96,-285.7 96,-346.7 200,-346.7 200,-285.7 96,-285.7"/>
<polygon fill="#f5f5f5" stroke="transparent" points="96,-323.2 96,-346.2 200,-346.2 200,-323.2 96,-323.2"/>
<polygon fill="none" stroke="#000000" points="96,-323.2 96,-346.2 200,-346.2 200,-323.2 96,-323.2"/>
<text text-anchor="start" x="101" y="-331.8" font-family="Helvetica,sans-Serif" font-weight="bold" font-size="11.00" fill="#000000">Facilities</text>
<text text-anchor="start" x="165.5219" y="-331.3" font-family="Helvetica,sans-Serif" font-size="11.00" fill="#000000">[table]</text>
<polygon fill="none" stroke="#000000" points="96,-304.2 96,-323.2 200,-323.2 200,-304.2 96,-304.2"/>
<text text-anchor="start" x="99" y="-310.3" font-family="Helvetica,sans-Serif" font-size="11.00" fill="#000000">...</text>
<polygon fill="#ffffff" stroke="transparent" points="96,-285.2 96,-304.2 200,-304.2 200,-285.2 96,-285.2"/>
<polygon fill="none" stroke="#000000" points="96,-285.2 96,-304.2 200,-304.2 200,-285.2 96,-285.2"/>
<polygon fill="#ffffff" stroke="transparent" points="97,-286.2 97,-303.2 128,-303.2 128,-286.2 97,-286.2"/>
<text text-anchor="start" x="99" y="-291.3" font-family="Helvetica,sans-Serif" font-size="11.00" fill="#000000"> &#160;</text>
<polygon fill="#ffffff" stroke="transparent" points="128,-286.2 128,-303.2 159,-303.2 159,-286.2 128,-286.2"/>
<text text-anchor="start" x="140.4431" y="-291.3" font-family="Helvetica,sans-Serif" font-size="11.00" fill="#000000"> &#160;</text>
<polygon fill="#ffffff" stroke="transparent" points="159,-286.2 159,-303.2 199,-303.2 199,-286.2 159,-286.2"/>
<text text-anchor="start" x="181.4053" y="-291.3" font-family="Helvetica,sans-Serif" font-size="11.00" fill="#000000">3 &gt;</text>
<polygon fill="#000000" stroke="#000000" points="128,-286.2 128,-303.2 128,-303.2 128,-286.2 128,-286.2"/>
<polygon fill="#000000" stroke="#000000" points="159,-286.2 159,-303.2 159,-303.2 159,-286.2 159,-286.2"/>
</a>
</g>
</g>
<!-- Hospitalizations&#45;&gt;Facilities -->
<g id="edge2" class="edge">
<title>Hospitalizations:w&#45;&gt;Facilities:e</title>
<path fill="none" stroke="#000000" d="M314.3724,-313.2C278.2795,-313.2 237.3219,-313.2 200,-313.2"/>
<polygon fill="#000000" stroke="#000000" points="320.9915,-313.2001 328.9915,-316.8 324.9915,-313.2 328.9915,-313.2 328.9915,-313.2 328.9915,-313.2 324.9915,-313.2 328.9914,-309.6 320.9915,-313.2001 320.9915,-313.2001"/>
<ellipse fill="none" stroke="#000000" cx="317.7915" cy="-313.2001" rx="3.2" ry="3.2"/>
</g>
<!-- HospitalizationStatuses -->
<g id="node4" class="node">
<title>HospitalizationStatuses</title>
<g id="a_node4"><a xlink:href="../../tables/HospitalizationStatuses.html" xlink:title="HospitalizationStatuses" target="_top">
<polygon fill="#ffffff" stroke="transparent" points="8,-38.2 8,-238.2 288,-238.2 288,-38.2 8,-38.2"/>
<polygon fill="#f5f5f5" stroke="transparent" points="10,-213.2 10,-236.2 286,-236.2 286,-213.2 10,-213.2"/>
<polygon fill="none" stroke="#000000" points="10,-213.2 10,-236.2 286,-236.2 286,-213.2 10,-213.2"/>
<text text-anchor="start" x="15" y="-221.8" font-family="Helvetica,sans-Serif" font-weight="bold" font-size="11.00" fill="#000000">HospitalizationStatuses</text>
<text text-anchor="start" x="251.0437" y="-221.3" font-family="Helvetica,sans-Serif" font-size="11.00" fill="#000000">[table]</text>
<polygon fill="none" stroke="#000000" points="10,-191.2 10,-213.2 205,-213.2 205,-191.2 10,-191.2"/>
<image xlink:href="../../images/primaryKeys.png" width="11px" height="12px" preserveAspectRatio="xMinYMin meet" x="15" y="-208.2"/>
<text text-anchor="start" x="30" y="-198.3" font-family="Helvetica,sans-Serif" font-size="11.00" fill="#000000">Id</text>
<polygon fill="none" stroke="#000000" points="205,-191.2 205,-213.2 286,-213.2 286,-191.2 205,-191.2"/>
<text text-anchor="start" x="208" y="-198.9" font-family="Helvetica,sans-Serif" font-size="11.00" fill="#000000">int[4]</text>
<polygon fill="#ffffff" stroke="transparent" points="10,-169.2 10,-191.2 205,-191.2 205,-169.2 10,-169.2"/>
<polygon fill="none" stroke="#000000" points="10,-169.2 10,-191.2 205,-191.2 205,-169.2 10,-169.2"/>
<text text-anchor="start" x="30" y="-176.3" font-family="Helvetica,sans-Serif" font-size="11.00" fill="#000000">Code</text>
<polygon fill="none" stroke="#000000" points="205,-169.2 205,-191.2 286,-191.2 286,-169.2 205,-169.2"/>
<text text-anchor="start" x="208" y="-176.9" font-family="Helvetica,sans-Serif" font-size="11.00" fill="#000000">nvarchar[40]</text>
<polygon fill="none" stroke="#000000" points="10,-147.2 10,-169.2 205,-169.2 205,-147.2 10,-147.2"/>
<text text-anchor="start" x="30" y="-154.3" font-family="Helvetica,sans-Serif" font-size="11.00" fill="#000000">Name</text>
<polygon fill="none" stroke="#000000" points="205,-147.2 205,-169.2 286,-169.2 286,-147.2 205,-147.2"/>
<text text-anchor="start" x="208" y="-154.9" font-family="Helvetica,sans-Serif" font-size="11.00" fill="#000000">nvarchar[200]</text>
<polygon fill="none" stroke="#000000" points="10,-125.2 10,-147.2 205,-147.2 205,-125.2 10,-125.2"/>
<text text-anchor="start" x="30" y="-132.3" font-family="Helvetica,sans-Serif" font-size="11.00" fill="#000000">DisplayOrder</text>
<polygon fill="none" stroke="#000000" points="205,-125.2 205,-147.2 286,-147.2 286,-125.2 205,-125.2"/>
<text text-anchor="start" x="208" y="-132.9" font-family="Helvetica,sans-Serif" font-size="11.00" fill="#000000">int[4]</text>
<polygon fill="none" stroke="#000000" points="10,-103.2 10,-125.2 205,-125.2 205,-103.2 10,-103.2"/>
<text text-anchor="start" x="30" y="-110.3" font-family="Helvetica,sans-Serif" font-size="11.00" fill="#000000">CreatedAtUtc</text>
<polygon fill="none" stroke="#000000" points="205,-103.2 205,-125.2 286,-125.2 286,-103.2 205,-103.2"/>
<text text-anchor="start" x="207.5967" y="-110.9" font-family="Helvetica,sans-Serif" font-size="11.00" fill="#000000">datetime2[16,7]</text>
<polygon fill="none" stroke="#000000" points="10,-81.2 10,-103.2 205,-103.2 205,-81.2 10,-81.2"/>
<text text-anchor="start" x="30" y="-88.3" font-family="Helvetica,sans-Serif" font-size="11.00" fill="#000000">UpdatedAtUtc</text>
<polygon fill="none" stroke="#000000" points="205,-81.2 205,-103.2 286,-103.2 286,-81.2 205,-81.2"/>
<text text-anchor="start" x="207.5967" y="-88.9" font-family="Helvetica,sans-Serif" font-size="11.00" fill="#000000">datetime2[16,7]</text>
<polygon fill="none" stroke="#000000" points="10,-59.2 10,-81.2 205,-81.2 205,-59.2 10,-59.2"/>
<text text-anchor="start" x="30" y="-66.3" font-family="Helvetica,sans-Serif" font-size="11.00" fill="#000000">RowVersion</text>
<polygon fill="none" stroke="#000000" points="205,-59.2 205,-81.2 286,-81.2 286,-59.2 205,-59.2"/>
<text text-anchor="start" x="208" y="-66.9" font-family="Helvetica,sans-Serif" font-size="11.00" fill="#000000">timestamp[8]</text>
<polygon fill="#ffffff" stroke="transparent" points="10,-40.2 10,-59.2 286,-59.2 286,-40.2 10,-40.2"/>
<polygon fill="none" stroke="#000000" points="10,-40.2 10,-59.2 286,-59.2 286,-40.2 10,-40.2"/>
<polygon fill="#ffffff" stroke="transparent" points="11,-41.2 11,-58.2 106,-58.2 106,-41.2 11,-41.2"/>
<text text-anchor="start" x="13" y="-46.3" font-family="Helvetica,sans-Serif" font-size="11.00" fill="#000000">&lt; 0</text>
<polygon fill="#ffffff" stroke="transparent" points="106,-41.2 106,-58.2 191,-58.2 191,-41.2 106,-41.2"/>
<text text-anchor="start" x="145.4431" y="-46.3" font-family="Helvetica,sans-Serif" font-size="11.00" fill="#000000"> &#160;</text>
<polygon fill="#ffffff" stroke="transparent" points="191,-41.2 191,-58.2 285,-58.2 285,-41.2 191,-41.2"/>
<text text-anchor="start" x="267.4053" y="-46.3" font-family="Helvetica,sans-Serif" font-size="11.00" fill="#000000">3 &gt;</text>
<polygon fill="#000000" stroke="#000000" points="106,-41.2 106,-58.2 106,-58.2 106,-41.2 106,-41.2"/>
<polygon fill="#000000" stroke="#000000" points="191,-41.2 191,-58.2 191,-58.2 191,-41.2 191,-41.2"/>
<polygon fill="none" stroke="#000000" stroke-width="2" points="9,-39.2 9,-237.2 287,-237.2 287,-39.2 9,-39.2"/>
</a>
</g>
</g>
<!-- Hospitalizations&#45;&gt;HospitalizationStatuses -->
<g id="edge3" class="edge">
<title>Hospitalizations:w&#45;&gt;HospitalizationStatuses:e</title>
<path fill="none" stroke="#000000" d="M386.4102,-266.8545C363.3594,-236.4162 328.0875,-202.2 286,-202.2"/>
<polygon fill="#000000" stroke="#000000" points="390.2562,-272.1954 392.0096,-280.7911 392.5936,-275.4414 394.931,-278.6874 394.931,-278.6874 394.931,-278.6874 392.5936,-275.4414 397.8524,-276.5837 390.2562,-272.1954 390.2562,-272.1954"/>
<ellipse fill="none" stroke="#000000" cx="388.3862" cy="-269.5986" rx="3.2" ry="3.2"/>
</g>
<!-- Patients -->
<g id="node5" class="node">
<title>Patients</title>
<g id="a_node5"><a xlink:href="../../tables/Patients.html" xlink:title="Patients" target="_top">
<polygon fill="#ffffff" stroke="transparent" points="98.5,-435.7 98.5,-496.7 197.5,-496.7 197.5,-435.7 98.5,-435.7"/>
<polygon fill="#f5f5f5" stroke="transparent" points="99,-473.2 99,-496.2 198,-496.2 198,-473.2 99,-473.2"/>
<polygon fill="none" stroke="#000000" points="99,-473.2 99,-496.2 198,-496.2 198,-473.2 99,-473.2"/>
<text text-anchor="start" x="104" y="-481.8" font-family="Helvetica,sans-Serif" font-weight="bold" font-size="11.00" fill="#000000">Patients</text>
<text text-anchor="start" x="163.5219" y="-481.3" font-family="Helvetica,sans-Serif" font-size="11.00" fill="#000000">[table]</text>
<polygon fill="none" stroke="#000000" points="99,-454.2 99,-473.2 198,-473.2 198,-454.2 99,-454.2"/>
<text text-anchor="start" x="102" y="-460.3" font-family="Helvetica,sans-Serif" font-size="11.00" fill="#000000">...</text>
<polygon fill="#ffffff" stroke="transparent" points="99,-435.2 99,-454.2 198,-454.2 198,-435.2 99,-435.2"/>
<polygon fill="none" stroke="#000000" points="99,-435.2 99,-454.2 198,-454.2 198,-435.2 99,-435.2"/>
<polygon fill="#ffffff" stroke="transparent" points="100,-436.2 100,-453.2 130,-453.2 130,-436.2 100,-436.2"/>
<text text-anchor="start" x="102" y="-441.3" font-family="Helvetica,sans-Serif" font-size="11.00" fill="#000000"> &#160;</text>
<polygon fill="#ffffff" stroke="transparent" points="130,-436.2 130,-453.2 159,-453.2 159,-436.2 130,-436.2"/>
<text text-anchor="start" x="141.4431" y="-441.3" font-family="Helvetica,sans-Serif" font-size="11.00" fill="#000000"> &#160;</text>
<polygon fill="#ffffff" stroke="transparent" points="159,-436.2 159,-453.2 197,-453.2 197,-436.2 159,-436.2"/>
<text text-anchor="start" x="179.4053" y="-441.3" font-family="Helvetica,sans-Serif" font-size="11.00" fill="#000000">3 &gt;</text>
<polygon fill="#000000" stroke="#000000" points="130,-436.2 130,-453.2 130,-453.2 130,-436.2 130,-436.2"/>
<polygon fill="#000000" stroke="#000000" points="159,-436.2 159,-453.2 159,-453.2 159,-436.2 159,-436.2"/>
</a>
</g>
</g>
<!-- Hospitalizations&#45;&gt;Patients -->
<g id="edge4" class="edge">
<title>Hospitalizations:w&#45;&gt;Patients:e</title>
<path fill="none" stroke="#000000" d="M379.0489,-359.0966C339.5907,-403.2018 272.2657,-463.2 198,-463.2"/>
<polygon fill="#000000" stroke="#000000" points="383.4567,-354.0271 391.4226,-350.3522 386.0813,-351.0086 388.7059,-347.99 388.7059,-347.99 388.7059,-347.99 386.0813,-351.0086 385.9893,-345.6279 383.4567,-354.0271 383.4567,-354.0271"/>
<ellipse fill="none" stroke="#000000" cx="381.3571" cy="-356.4419" rx="3.2" ry="3.2"/>
</g>
<!-- HospitalizationStatusHistories -->
<g id="node6" class="node">
<title>HospitalizationStatusHistories</title>
<g id="a_node6"><a xlink:href="../../tables/HospitalizationStatusHistories.html" xlink:title="HospitalizationStatusHistories" target="_top">
<polygon fill="#ffffff" stroke="transparent" points="543,-171.7 543,-232.7 805,-232.7 805,-171.7 543,-171.7"/>
<polygon fill="#f5f5f5" stroke="transparent" points="543,-209.2 543,-232.2 805,-232.2 805,-209.2 543,-209.2"/>
<polygon fill="none" stroke="#000000" points="543,-209.2 543,-232.2 805,-232.2 805,-209.2 543,-209.2"/>
<text text-anchor="start" x="548" y="-217.8" font-family="Helvetica,sans-Serif" font-weight="bold" font-size="11.00" fill="#000000">HospitalizationStatusHistories</text>
<text text-anchor="start" x="770.5219" y="-217.3" font-family="Helvetica,sans-Serif" font-size="11.00" fill="#000000">[table]</text>
<polygon fill="none" stroke="#000000" points="543,-190.2 543,-209.2 805,-209.2 805,-190.2 543,-190.2"/>
<text text-anchor="start" x="546" y="-196.3" font-family="Helvetica,sans-Serif" font-size="11.00" fill="#000000">...</text>
<polygon fill="#ffffff" stroke="transparent" points="543,-171.2 543,-190.2 805,-190.2 805,-171.2 543,-171.2"/>
<polygon fill="none" stroke="#000000" points="543,-171.2 543,-190.2 805,-190.2 805,-171.2 543,-171.2"/>
<polygon fill="#ffffff" stroke="transparent" points="544,-172.2 544,-189.2 637,-189.2 637,-172.2 544,-172.2"/>
<text text-anchor="start" x="546" y="-177.3" font-family="Helvetica,sans-Serif" font-size="11.00" fill="#000000">&lt; 2</text>
<polygon fill="#ffffff" stroke="transparent" points="637,-172.2 637,-189.2 721,-189.2 721,-172.2 637,-172.2"/>
<text text-anchor="start" x="675.9431" y="-177.3" font-family="Helvetica,sans-Serif" font-size="11.00" fill="#000000"> &#160;</text>
<polygon fill="#ffffff" stroke="transparent" points="721,-172.2 721,-189.2 804,-189.2 804,-172.2 721,-172.2"/>
<text text-anchor="start" x="795.8862" y="-177.3" font-family="Helvetica,sans-Serif" font-size="11.00" fill="#000000"> &#160;</text>
<polygon fill="#000000" stroke="#000000" points="637,-172.2 637,-189.2 637,-189.2 637,-172.2 637,-172.2"/>
<polygon fill="#000000" stroke="#000000" points="721,-172.2 721,-189.2 721,-189.2 721,-172.2 721,-172.2"/>
</a>
</g>
</g>
<!-- HospitalizationStatusHistories&#45;&gt;Hospitalizations -->
<g id="edge5" class="edge">
<title>HospitalizationStatusHistories:w&#45;&gt;Hospitalizations:e</title>
<path fill="none" stroke="#000000" d="M536.9121,-242.3793C536.2724,-242.6517 535.635,-242.9252 535,-243.2 512.2712,-253.0344 488.4872,-266.2868 468.1766,-278.6148"/>
<polygon fill="#000000" stroke="#000000" points="543.219,-239.8311 551.9851,-240.172 546.9277,-238.3326 550.6364,-236.8342 550.6364,-236.8342 550.6364,-236.8342 546.9277,-238.3326 549.2878,-233.4963 543.219,-239.8311 543.219,-239.8311"/>
<ellipse fill="none" stroke="#000000" cx="540.252" cy="-241.0299" rx="3.2" ry="3.2"/>
</g>
<!-- HospitalizationStatusHistories&#45;&gt;HospitalizationStatuses -->
<g id="edge6" class="edge">
<title>HospitalizationStatusHistories:w&#45;&gt;HospitalizationStatuses:e</title>
<path fill="none" stroke="#000000" d="M520.3092,-202.2C449.0377,-202.2 363.1989,-202.2 286,-202.2"/>
<polygon fill="#000000" stroke="#000000" points="526.8246,-202.2001 534.8246,-205.8 530.8246,-202.2 534.8246,-202.2 534.8246,-202.2 534.8246,-202.2 530.8246,-202.2 534.8246,-198.6 526.8246,-202.2001 526.8246,-202.2001"/>
<ellipse fill="none" stroke="#000000" cx="523.6246" cy="-202.2001" rx="3.2" ry="3.2"/>
</g>
<!-- Visits -->
<g id="node7" class="node">
<title>Visits</title>
<g id="a_node7"><a xlink:href="../../tables/Visits.html" xlink:title="Visits" target="_top">
<polygon fill="#ffffff" stroke="transparent" points="634.5,-253.7 634.5,-314.7 713.5,-314.7 713.5,-253.7 634.5,-253.7"/>
<polygon fill="#f5f5f5" stroke="transparent" points="635,-291.2 635,-314.2 714,-314.2 714,-291.2 635,-291.2"/>
<polygon fill="none" stroke="#000000" points="635,-291.2 635,-314.2 714,-314.2 714,-291.2 635,-291.2"/>
<text text-anchor="start" x="640" y="-299.8" font-family="Helvetica,sans-Serif" font-weight="bold" font-size="11.00" fill="#000000">Visits</text>
<text text-anchor="start" x="679.5219" y="-299.3" font-family="Helvetica,sans-Serif" font-size="11.00" fill="#000000">[table]</text>
<polygon fill="none" stroke="#000000" points="635,-272.2 635,-291.2 714,-291.2 714,-272.2 635,-272.2"/>
<text text-anchor="start" x="638" y="-278.3" font-family="Helvetica,sans-Serif" font-size="11.00" fill="#000000">...</text>
<polygon fill="#ffffff" stroke="transparent" points="635,-253.2 635,-272.2 714,-272.2 714,-253.2 635,-253.2"/>
<polygon fill="none" stroke="#000000" points="635,-253.2 635,-272.2 714,-272.2 714,-253.2 635,-253.2"/>
<polygon fill="#ffffff" stroke="transparent" points="636,-254.2 636,-271.2 665,-271.2 665,-254.2 636,-254.2"/>
<text text-anchor="start" x="638" y="-259.3" font-family="Helvetica,sans-Serif" font-size="11.00" fill="#000000">&lt; 1</text>
<polygon fill="#ffffff" stroke="transparent" points="665,-254.2 665,-271.2 685,-271.2 685,-254.2 665,-254.2"/>
<text text-anchor="start" x="671.9431" y="-259.3" font-family="Helvetica,sans-Serif" font-size="11.00" fill="#000000"> &#160;</text>
<polygon fill="#ffffff" stroke="transparent" points="685,-254.2 685,-271.2 713,-271.2 713,-254.2 685,-254.2"/>
<text text-anchor="start" x="695.4053" y="-259.3" font-family="Helvetica,sans-Serif" font-size="11.00" fill="#000000">4 &gt;</text>
<polygon fill="#000000" stroke="#000000" points="665,-254.2 665,-271.2 665,-271.2 665,-254.2 665,-254.2"/>
<polygon fill="#000000" stroke="#000000" points="685,-254.2 685,-271.2 685,-271.2 685,-254.2 685,-254.2"/>
</a>
</g>
</g>
<!-- Visits&#45;&gt;Hospitalizations -->
<g id="edge7" class="edge">
<title>Visits:w&#45;&gt;Hospitalizations:e</title>
<path fill="none" stroke="#000000" d="M620.388,-281.4222C580.3827,-282.6084 537.9466,-288.3755 502.1338,-294.6781"/>
<polygon fill="#000000" stroke="#000000" points="627.0009,-281.3217 635.0548,-284.7996 631.0005,-281.2609 635,-281.2 635,-281.2 635,-281.2 631.0005,-281.2609 634.9452,-277.6004 627.0009,-281.3217 627.0009,-281.3217"/>
<ellipse fill="none" stroke="#000000" cx="623.8013" cy="-281.3704" rx="3.2" ry="3.2"/>
</g>
<!-- staging.ProviderAssignments -->
<g id="node8" class="node">
<title>staging.ProviderAssignments</title>
<g id="a_node8"><a xlink:title="staging.ProviderAssignments">
<polygon fill="#ffffff" stroke="transparent" points="854,-334.7 854,-395.7 1109,-395.7 1109,-334.7 854,-334.7"/>
<polygon fill="#f5f5f5" stroke="transparent" points="854.5,-372.2 854.5,-395.2 1109.5,-395.2 1109.5,-372.2 854.5,-372.2"/>
<polygon fill="none" stroke="#000000" points="854.5,-372.2 854.5,-395.2 1109.5,-395.2 1109.5,-372.2 854.5,-372.2"/>
<text text-anchor="start" x="859.5" y="-380.8" font-family="Helvetica,sans-Serif" font-weight="bold" font-size="11.00" fill="#000000">staging.ProviderAssignments</text>
<text text-anchor="start" x="1075.0219" y="-380.3" font-family="Helvetica,sans-Serif" font-size="11.00" fill="#000000">[table]</text>
<polygon fill="none" stroke="#000000" points="854.5,-353.2 854.5,-372.2 1109.5,-372.2 1109.5,-353.2 854.5,-353.2"/>
<text text-anchor="start" x="857.5" y="-359.3" font-family="Helvetica,sans-Serif" font-size="11.00" fill="#000000">...</text>
<polygon fill="#ffffff" stroke="transparent" points="854.5,-334.2 854.5,-353.2 1109.5,-353.2 1109.5,-334.2 854.5,-334.2"/>
<polygon fill="none" stroke="#000000" points="854.5,-334.2 854.5,-353.2 1109.5,-353.2 1109.5,-334.2 854.5,-334.2"/>
<polygon fill="#ffffff" stroke="transparent" points="855.5,-335.2 855.5,-352.2 946.5,-352.2 946.5,-335.2 855.5,-335.2"/>
<text text-anchor="start" x="857.5" y="-340.3" font-family="Helvetica,sans-Serif" font-size="11.00" fill="#000000">&lt; 6</text>
<polygon fill="#ffffff" stroke="transparent" points="946.5,-335.2 946.5,-352.2 1027.5,-352.2 1027.5,-335.2 946.5,-335.2"/>
<text text-anchor="start" x="983.9431" y="-340.3" font-family="Helvetica,sans-Serif" font-size="11.00" fill="#000000"> &#160;</text>
<polygon fill="#ffffff" stroke="transparent" points="1027.5,-335.2 1027.5,-352.2 1108.5,-352.2 1108.5,-335.2 1027.5,-335.2"/>
<text text-anchor="start" x="1100.3862" y="-340.3" font-family="Helvetica,sans-Serif" font-size="11.00" fill="#000000"> &#160;</text>
<polygon fill="#000000" stroke="#000000" points="946.5,-335.2 946.5,-352.2 946.5,-352.2 946.5,-335.2 946.5,-335.2"/>
<polygon fill="#000000" stroke="#000000" points="1027.5,-335.2 1027.5,-352.2 1027.5,-352.2 1027.5,-335.2 1027.5,-335.2"/>
</a>
</g>
</g>
<!-- staging.ProviderAssignments&#45;&gt;Hospitalizations -->
<g id="edge8" class="edge">
<title>staging.ProviderAssignments:w&#45;&gt;Hospitalizations:e</title>
<path fill="none" stroke="#000000" d="M831.1538,-352.1361C744.5355,-344.5082 633.612,-334.5681 535,-325.2 524.4137,-324.1943 513.3027,-323.1131 502.2961,-322.0263"/>
<polygon fill="#000000" stroke="#000000" points="837.6922,-352.7111 845.346,-356.9982 841.6768,-353.0616 845.6614,-353.412 845.6614,-353.412 845.6614,-353.412 841.6768,-353.0616 845.9768,-349.8259 837.6922,-352.7111 837.6922,-352.7111"/>
<ellipse fill="none" stroke="#000000" cx="834.5045" cy="-352.4307" rx="3.2" ry="3.2"/>
</g>
<!-- staging.ProviderAssignments&#45;&gt;HospitalizationStatuses -->
<g id="edge9" class="edge">
<title>staging.ProviderAssignments:w&#45;&gt;HospitalizationStatuses:e</title>
<path fill="none" stroke="#000000" d="M958.2452,-317.5046C931.117,-267.9649 881.1389,-193.2957 813,-161.2 701.2238,-108.5497 658.1445,-151.1294 535,-161.2 479.1082,-165.7708 342.0784,-202.2 286,-202.2"/>
<polygon fill="#000000" stroke="#000000" points="961.3706,-323.3815 961.9486,-332.1351 963.2488,-326.9131 965.127,-330.4447 965.127,-330.4447 965.127,-330.4447 963.2488,-326.9131 968.3055,-328.7543 961.3706,-323.3815 961.3706,-323.3815"/>
<ellipse fill="none" stroke="#000000" cx="959.868" cy="-320.5562" rx="3.2" ry="3.2"/>
</g>
<!-- staging.ProviderAssignments&#45;&gt;Patients -->
<g id="edge11" class="edge">
<title>staging.ProviderAssignments:w&#45;&gt;Patients:e</title>
<path fill="none" stroke="#000000" d="M946.7222,-411.3782C916.1029,-447.8838 867.9174,-496.0901 813,-517.2 556.885,-615.649 472.385,-463.2 198,-463.2"/>
<polygon fill="#000000" stroke="#000000" points="950.9701,-406.1805 958.8201,-402.2642 953.5014,-403.0833 956.0326,-399.986 956.0326,-399.986 956.0326,-399.986 953.5014,-403.0833 953.2451,-397.7079 950.9701,-406.1805 950.9701,-406.1805"/>
<ellipse fill="none" stroke="#000000" cx="948.9451" cy="-408.6583" rx="3.2" ry="3.2"/>
</g>
<!-- staging.ProviderAssignments&#45;&gt;Visits -->
<g id="edge13" class="edge">
<title>staging.ProviderAssignments:w&#45;&gt;Visits:e</title>
<path fill="none" stroke="#000000" d="M898.6514,-324.9217C846.841,-303.3638 778.0096,-281.2 714,-281.2"/>
<polygon fill="#000000" stroke="#000000" points="904.76,-327.5294 910.7042,-333.9813 908.4388,-329.0999 912.1176,-330.6703 912.1176,-330.6703 912.1176,-330.6703 908.4388,-329.0999 913.531,-327.3594 904.76,-327.5294 904.76,-327.5294"/>
<ellipse fill="none" stroke="#000000" cx="901.8169" cy="-326.273" rx="3.2" ry="3.2"/>
</g>
<!-- Providers -->
<g id="node9" class="node">
<title>Providers</title>
<g id="a_node9"><a xlink:href="../../tables/Providers.html" xlink:title="Providers" target="_top">
<polygon fill="#ffffff" stroke="transparent" points="619.5,-363.7 619.5,-424.7 728.5,-424.7 728.5,-363.7 619.5,-363.7"/>
<polygon fill="#f5f5f5" stroke="transparent" points="620,-401.2 620,-424.2 729,-424.2 729,-401.2 620,-401.2"/>
<polygon fill="none" stroke="#000000" points="620,-401.2 620,-424.2 729,-424.2 729,-401.2 620,-401.2"/>
<text text-anchor="start" x="625" y="-409.8" font-family="Helvetica,sans-Serif" font-weight="bold" font-size="11.00" fill="#000000">Providers</text>
<text text-anchor="start" x="694.5219" y="-409.3" font-family="Helvetica,sans-Serif" font-size="11.00" fill="#000000">[table]</text>
<polygon fill="none" stroke="#000000" points="620,-382.2 620,-401.2 729,-401.2 729,-382.2 620,-382.2"/>
<text text-anchor="start" x="623" y="-388.3" font-family="Helvetica,sans-Serif" font-size="11.00" fill="#000000">...</text>
<polygon fill="#ffffff" stroke="transparent" points="620,-363.2 620,-382.2 729,-382.2 729,-363.2 620,-363.2"/>
<polygon fill="none" stroke="#000000" points="620,-363.2 620,-382.2 729,-382.2 729,-363.2 620,-363.2"/>
<polygon fill="#ffffff" stroke="transparent" points="621,-364.2 621,-381.2 660,-381.2 660,-364.2 621,-364.2"/>
<text text-anchor="start" x="623" y="-369.3" font-family="Helvetica,sans-Serif" font-size="11.00" fill="#000000">&lt; 2</text>
<polygon fill="#ffffff" stroke="transparent" points="660,-364.2 660,-381.2 690,-381.2 690,-364.2 660,-364.2"/>
<text text-anchor="start" x="671.9431" y="-369.3" font-family="Helvetica,sans-Serif" font-size="11.00" fill="#000000"> &#160;</text>
<polygon fill="#ffffff" stroke="transparent" points="690,-364.2 690,-381.2 728,-381.2 728,-364.2 690,-364.2"/>
<text text-anchor="start" x="710.4053" y="-369.3" font-family="Helvetica,sans-Serif" font-size="11.00" fill="#000000">3 &gt;</text>
<polygon fill="#000000" stroke="#000000" points="660,-364.2 660,-381.2 660,-381.2 660,-364.2 660,-364.2"/>
<polygon fill="#000000" stroke="#000000" points="690,-364.2 690,-381.2 690,-381.2 690,-364.2 690,-364.2"/>
</a>
</g>
</g>
<!-- staging.ProviderAssignments&#45;&gt;Providers -->
<g id="edge10" class="edge">
<title>staging.ProviderAssignments:w&#45;&gt;Providers:e</title>
<path fill="none" stroke="#000000" d="M831.0613,-382.0638C797.5334,-385.9555 762.1095,-389.4391 729,-391.2"/>
<polygon fill="#000000" stroke="#000000" points="837.8634,-381.2565 846.232,-383.8884 841.8355,-380.785 845.8076,-380.3135 845.8076,-380.3135 845.8076,-380.3135 841.8355,-380.785 845.3833,-376.7386 837.8634,-381.2565 837.8634,-381.2565"/>
<ellipse fill="none" stroke="#000000" cx="834.6857" cy="-381.6337" rx="3.2" ry="3.2"/>
</g>
<!-- staging.ProviderAssignments&#45;&gt;Providers -->
<g id="edge12" class="edge">
<title>staging.ProviderAssignments:w&#45;&gt;Providers:e</title>
<path fill="none" stroke="#000000" d="M831.0613,-390.1505C797.5334,-392.4664 762.1095,-393.2544 729,-391.2"/>
<polygon fill="#000000" stroke="#000000" points="837.8308,-389.6345 846.0813,-392.6158 841.8192,-389.3304 845.8076,-389.0263 845.8076,-389.0263 845.8076,-389.0263 841.8192,-389.3304 845.5339,-385.4367 837.8308,-389.6345 837.8308,-389.6345"/>
<ellipse fill="none" stroke="#000000" cx="834.64" cy="-389.8777" rx="3.2" ry="3.2"/>
</g>
</g>
</svg>
