<?xml version="1.0" encoding="UTF-8" standalone="no"?>
<!DOCTYPE svg PUBLIC "-//W3C//DTD SVG 1.1//EN"
 "http://www.w3.org/Graphics/SVG/1.1/DTD/svg11.dtd">
<!-- Generated by graphviz version 2.40.1 (20161225.0304)
 -->
<!-- Title: oneDegreeRelationshipsDiagram Pages: 1 -->
<svg width="902pt" height="454pt"
 viewBox="0.00 0.00 902.00 453.70" xmlns="http://www.w3.org/2000/svg" xmlns:xlink="http://www.w3.org/1999/xlink">
<g id="graph0" class="graph" transform="scale(1 1) rotate(0) translate(4 449.7)">
<title>oneDegreeRelationshipsDiagram</title>
<polygon fill="#ffffff" stroke="transparent" points="-4,4 -4,-449.7 898,-449.7 898,4 -4,4"/>
<text text-anchor="middle" x="72.4936" y="-7.3" font-family="Helvetica,sans-Serif" font-size="11.00" fill="#000000">Generated by SchemaSpy</text>
<!-- Hospitalizations -->
<g id="node1" class="node">
<title>Hospitalizations</title>
<g id="a_node1"><a xlink:href="../../tables/Hospitalizations.html" xlink:title="Hospitalizations" target="_top">
<polygon fill="#ffffff" stroke="transparent" points="337,-153.7 337,-324.7 530,-324.7 530,-153.7 337,-153.7"/>
<polygon fill="#f5f5f5" stroke="transparent" points="337.5,-301.2 337.5,-324.2 530.5,-324.2 530.5,-301.2 337.5,-301.2"/>
<polygon fill="none" stroke="#000000" points="337.5,-301.2 337.5,-324.2 530.5,-324.2 530.5,-301.2 337.5,-301.2"/>
<text text-anchor="start" x="342.5" y="-309.8" font-family="Helvetica,sans-Serif" font-weight="bold" font-size="11.00" fill="#000000">Hospitalizations</text>
<text text-anchor="start" x="495.5437" y="-309.3" font-family="Helvetica,sans-Serif" font-size="11.00" fill="#000000">[table]</text>
<polygon fill="none" stroke="#000000" points="337.5,-279.2 337.5,-301.2 530.5,-301.2 530.5,-279.2 337.5,-279.2"/>
<image xlink:href="../../images/primaryKeys.png" width="11px" height="12px" preserveAspectRatio="xMinYMin meet" x="342.5" y="-296.2"/>
<text text-anchor="start" x="357.5" y="-286.3" font-family="Helvetica,sans-Serif" font-size="11.00" fill="#000000">Id</text>
<polygon fill="#ffffff" stroke="transparent" points="337.5,-257.2 337.5,-279.2 530.5,-279.2 530.5,-257.2 337.5,-257.2"/>
<polygon fill="none" stroke="#000000" points="337.5,-257.2 337.5,-279.2 530.5,-279.2 530.5,-257.2 337.5,-257.2"/>
<image xlink:href="../../images/foreignKeys.png" width="11px" height="12px" preserveAspectRatio="xMinYMin meet" x="342.5" y="-274.2"/>
<text text-anchor="start" x="357.5" y="-264.3" font-family="Helvetica,sans-Serif" font-size="11.00" fill="#000000">PatientId</text>
<polygon fill="#ffffff" stroke="transparent" points="337.5,-235.2 337.5,-257.2 530.5,-257.2 530.5,-235.2 337.5,-235.2"/>
<polygon fill="none" stroke="#000000" points="337.5,-235.2 337.5,-257.2 530.5,-257.2 530.5,-235.2 337.5,-235.2"/>
<text text-anchor="start" x="357.5" y="-242.3" font-family="Helvetica,sans-Serif" font-size="11.00" fill="#000000">CaseId</text>
<polygon fill="#ffffff" stroke="transparent" points="337.5,-213.2 337.5,-235.2 530.5,-235.2 530.5,-213.2 337.5,-213.2"/>
<polygon fill="none" stroke="#000000" points="337.5,-213.2 337.5,-235.2 530.5,-235.2 530.5,-213.2 337.5,-213.2"/>
<image xlink:href="../../images/foreignKeys.png" width="11px" height="12px" preserveAspectRatio="xMinYMin meet" x="342.5" y="-230.2"/>
<text text-anchor="start" x="357.5" y="-220.3" font-family="Helvetica,sans-Serif" font-size="11.00" fill="#000000">FacilityId</text>
<polygon fill="#ffffff" stroke="transparent" points="337.5,-191.2 337.5,-213.2 530.5,-213.2 530.5,-191.2 337.5,-191.2"/>
<polygon fill="none" stroke="#000000" points="337.5,-191.2 337.5,-213.2 530.5,-213.2 530.5,-191.2 337.5,-191.2"/>
<image xlink:href="../../images/foreignKeys.png" width="11px" height="12px" preserveAspectRatio="xMinYMin meet" x="342.5" y="-208.2"/>
<text text-anchor="start" x="357.5" y="-198.3" font-family="Helvetica,sans-Serif" font-size="11.00" fill="#000000">HospitalizationStatusId</text>
<polygon fill="none" stroke="#000000" points="337.5,-172.2 337.5,-191.2 530.5,-191.2 530.5,-172.2 337.5,-172.2"/>
<text text-anchor="start" x="340.5" y="-178.3" font-family="Helvetica,sans-Serif" font-size="11.00" fill="#000000">...</text>
<polygon fill="#ffffff" stroke="transparent" points="337.5,-153.2 337.5,-172.2 530.5,-172.2 530.5,-153.2 337.5,-153.2"/>
<polygon fill="none" stroke="#000000" points="337.5,-153.2 337.5,-172.2 530.5,-172.2 530.5,-153.2 337.5,-153.2"/>
<polygon fill="#ffffff" stroke="transparent" points="338.5,-154.2 338.5,-171.2 405.5,-171.2 405.5,-154.2 338.5,-154.2"/>
<text text-anchor="start" x="340.5" y="-159.3" font-family="Helvetica,sans-Serif" font-size="11.00" fill="#000000">&lt; 3</text>
<polygon fill="#ffffff" stroke="transparent" points="405.5,-154.2 405.5,-171.2 463.5,-171.2 463.5,-154.2 405.5,-154.2"/>
<text text-anchor="start" x="431.4431" y="-159.3" font-family="Helvetica,sans-Serif" font-size="11.00" fill="#000000"> &#160;</text>
<polygon fill="#ffffff" stroke="transparent" points="463.5,-154.2 463.5,-171.2 529.5,-171.2 529.5,-154.2 463.5,-154.2"/>
<text text-anchor="start" x="511.9053" y="-159.3" font-family="Helvetica,sans-Serif" font-size="11.00" fill="#000000">4 &gt;</text>
<polygon fill="#000000" stroke="#000000" points="405.5,-154.2 405.5,-171.2 405.5,-171.2 405.5,-154.2 405.5,-154.2"/>
<polygon fill="#000000" stroke="#000000" points="463.5,-154.2 463.5,-171.2 463.5,-171.2 463.5,-154.2 463.5,-154.2"/>
</a>
</g>
</g>
<!-- HospitalizationStatuses -->
<g id="node2" class="node">
<title>HospitalizationStatuses</title>
<g id="a_node2"><a xlink:href="../../tables/HospitalizationStatuses.html" xlink:title="HospitalizationStatuses" target="_top">
<polygon fill="#ffffff" stroke="transparent" points="8,-38.2 8,-238.2 288,-238.2 288,-38.2 8,-38.2"/>
<polygon fill="#f5f5f5" stroke="transparent" points="10,-213.2 10,-236.2 286,-236.2 286,-213.2 10,-213.2"/>
<polygon fill="none" stroke="#000000" points="10,-213.2 10,-236.2 286,-236.2 286,-213.2 10,-213.2"/>
<text text-anchor="start" x="15" y="-221.8" font-family="Helvetica,sans-Serif" font-weight="bold" font-size="11.00" fill="#000000">HospitalizationStatuses</text>
<text text-anchor="start" x="251.0437" y="-221.3" font-family="Helvetica,sans-Serif" font-size="11.00" fill="#000000">[table]</text>
<polygon fill="none" stroke="#000000" points="10,-191.2 10,-213.2 205,-213.2 205,-191.2 10,-191.2"/>
<image xlink:href="../../images/primaryKeys.png" width="11px" height="12px" preserveAspectRatio="xMinYMin meet" x="15" y="-208.2"/>
<text text-anchor="start" x="30" y="-198.3" font-family="Helvetica,sans-Serif" font-size="11.00" fill="#000000">Id</text>
<polygon fill="none" stroke="#000000" points="205,-191.2 205,-213.2 286,-213.2 286,-191.2 205,-191.2"/>
<text text-anchor="start" x="208" y="-198.9" font-family="Helvetica,sans-Serif" font-size="11.00" fill="#000000">int[4]</text>
<polygon fill="#ffffff" stroke="transparent" points="10,-169.2 10,-191.2 205,-191.2 205,-169.2 10,-169.2"/>
<polygon fill="none" stroke="#000000" points="10,-169.2 10,-191.2 205,-191.2 205,-169.2 10,-169.2"/>
<text text-anchor="start" x="30" y="-176.3" font-family="Helvetica,sans-Serif" font-size="11.00" fill="#000000">Code</text>
<polygon fill="none" stroke="#000000" points="205,-169.2 205,-191.2 286,-191.2 286,-169.2 205,-169.2"/>
<text text-anchor="start" x="208" y="-176.9" font-family="Helvetica,sans-Serif" font-size="11.00" fill="#000000">nvarchar[40]</text>
<polygon fill="none" stroke="#000000" points="10,-147.2 10,-169.2 205,-169.2 205,-147.2 10,-147.2"/>
<text text-anchor="start" x="30" y="-154.3" font-family="Helvetica,sans-Serif" font-size="11.00" fill="#000000">Name</text>
<polygon fill="none" stroke="#000000" points="205,-147.2 205,-169.2 286,-169.2 286,-147.2 205,-147.2"/>
<text text-anchor="start" x="208" y="-154.9" font-family="Helvetica,sans-Serif" font-size="11.00" fill="#000000">nvarchar[200]</text>
<polygon fill="none" stroke="#000000" points="10,-125.2 10,-147.2 205,-147.2 205,-125.2 10,-125.2"/>
<text text-anchor="start" x="30" y="-132.3" font-family="Helvetica,sans-Serif" font-size="11.00" fill="#000000">DisplayOrder</text>
<polygon fill="none" stroke="#000000" points="205,-125.2 205,-147.2 286,-147.2 286,-125.2 205,-125.2"/>
<text text-anchor="start" x="208" y="-132.9" font-family="Helvetica,sans-Serif" font-size="11.00" fill="#000000">int[4]</text>
<polygon fill="none" stroke="#000000" points="10,-103.2 10,-125.2 205,-125.2 205,-103.2 10,-103.2"/>
<text text-anchor="start" x="30" y="-110.3" font-family="Helvetica,sans-Serif" font-size="11.00" fill="#000000">CreatedAtUtc</text>
<polygon fill="none" stroke="#000000" points="205,-103.2 205,-125.2 286,-125.2 286,-103.2 205,-103.2"/>
<text text-anchor="start" x="207.5967" y="-110.9" font-family="Helvetica,sans-Serif" font-size="11.00" fill="#000000">datetime2[16,7]</text>
<polygon fill="none" stroke="#000000" points="10,-81.2 10,-103.2 205,-103.2 205,-81.2 10,-81.2"/>
<text text-anchor="start" x="30" y="-88.3" font-family="Helvetica,sans-Serif" font-size="11.00" fill="#000000">UpdatedAtUtc</text>
<polygon fill="none" stroke="#000000" points="205,-81.2 205,-103.2 286,-103.2 286,-81.2 205,-81.2"/>
<text text-anchor="start" x="207.5967" y="-88.9" font-family="Helvetica,sans-Serif" font-size="11.00" fill="#000000">datetime2[16,7]</text>
<polygon fill="none" stroke="#000000" points="10,-59.2 10,-81.2 205,-81.2 205,-59.2 10,-59.2"/>
<text text-anchor="start" x="30" y="-66.3" font-family="Helvetica,sans-Serif" font-size="11.00" fill="#000000">RowVersion</text>
<polygon fill="none" stroke="#000000" points="205,-59.2 205,-81.2 286,-81.2 286,-59.2 205,-59.2"/>
<text text-anchor="start" x="208" y="-66.9" font-family="Helvetica,sans-Serif" font-size="11.00" fill="#000000">timestamp[8]</text>
<polygon fill="#ffffff" stroke="transparent" points="10,-40.2 10,-59.2 286,-59.2 286,-40.2 10,-40.2"/>
<polygon fill="none" stroke="#000000" points="10,-40.2 10,-59.2 286,-59.2 286,-40.2 10,-40.2"/>
<polygon fill="#ffffff" stroke="transparent" points="11,-41.2 11,-58.2 106,-58.2 106,-41.2 11,-41.2"/>
<text text-anchor="start" x="13" y="-46.3" font-family="Helvetica,sans-Serif" font-size="11.00" fill="#000000">&lt; 0</text>
<polygon fill="#ffffff" stroke="transparent" points="106,-41.2 106,-58.2 191,-58.2 191,-41.2 106,-41.2"/>
<text text-anchor="start" x="145.4431" y="-46.3" font-family="Helvetica,sans-Serif" font-size="11.00" fill="#000000"> &#160;</text>
<polygon fill="#ffffff" stroke="transparent" points="191,-41.2 191,-58.2 285,-58.2 285,-41.2 191,-41.2"/>
<text text-anchor="start" x="267.4053" y="-46.3" font-family="Helvetica,sans-Serif" font-size="11.00" fill="#000000">3 &gt;</text>
<polygon fill="#000000" stroke="#000000" points="106,-41.2 106,-58.2 106,-58.2 106,-41.2 106,-41.2"/>
<polygon fill="#000000" stroke="#000000" points="191,-41.2 191,-58.2 191,-58.2 191,-41.2 191,-41.2"/>
<polygon fill="none" stroke="#000000" stroke-width="2" points="9,-39.2 9,-237.2 287,-237.2 287,-39.2 9,-39.2"/>
</a>
</g>
</g>
<!-- Hospitalizations&#45;&gt;HospitalizationStatuses -->
<g id="edge1" class="edge">
<title>Hospitalizations:w&#45;&gt;HospitalizationStatuses:e</title>
<path fill="none" stroke="#000000" d="M323.0156,-202.2C310.6771,-202.2 303.1667,-202.2 286,-202.2"/>
<polygon fill="#000000" stroke="#000000" points="329.5,-202.2001 337.5,-205.8 333.5,-202.2 337.5,-202.2 337.5,-202.2 337.5,-202.2 333.5,-202.2 337.5,-198.6 329.5,-202.2001 329.5,-202.2001"/>
<ellipse fill="none" stroke="#000000" cx="326.3" cy="-202.2001" rx="3.2" ry="3.2"/>
</g>
<!-- HospitalizationStatusHistories -->
<g id="node3" class="node">
<title>HospitalizationStatusHistories</title>
<g id="a_node3"><a xlink:href="../../tables/HospitalizationStatusHistories.html" xlink:title="HospitalizationStatusHistories" target="_top">
<polygon fill="#ffffff" stroke="transparent" points="601.5,-270.7 601.5,-441.7 863.5,-441.7 863.5,-270.7 601.5,-270.7"/>
<polygon fill="#f5f5f5" stroke="transparent" points="601.5,-418.2 601.5,-441.2 863.5,-441.2 863.5,-418.2 601.5,-418.2"/>
<polygon fill="none" stroke="#000000" points="601.5,-418.2 601.5,-441.2 863.5,-441.2 863.5,-418.2 601.5,-418.2"/>
<text text-anchor="start" x="606.5" y="-426.8" font-family="Helvetica,sans-Serif" font-weight="bold" font-size="11.00" fill="#000000">HospitalizationStatusHistories</text>
<text text-anchor="start" x="829.0219" y="-426.3" font-family="Helvetica,sans-Serif" font-size="11.00" fill="#000000">[table]</text>
<polygon fill="none" stroke="#000000" points="601.5,-396.2 601.5,-418.2 863.5,-418.2 863.5,-396.2 601.5,-396.2"/>
<image xlink:href="../../images/primaryKeys.png" width="11px" height="12px" preserveAspectRatio="xMinYMin meet" x="606.5" y="-413.2"/>
<text text-anchor="start" x="630.5" y="-403.3" font-family="Helvetica,sans-Serif" font-size="11.00" fill="#000000">Id</text>
<polygon fill="#ffffff" stroke="transparent" points="601.5,-374.2 601.5,-396.2 863.5,-396.2 863.5,-374.2 601.5,-374.2"/>
<polygon fill="none" stroke="#000000" points="601.5,-374.2 601.5,-396.2 863.5,-396.2 863.5,-374.2 601.5,-374.2"/>
<image xlink:href="../../images/foreignKeys.png" width="11px" height="12px" preserveAspectRatio="xMinYMin meet" x="606.5" y="-391.2"/>
<text text-anchor="start" x="630.5" y="-381.3" font-family="Helvetica,sans-Serif" font-size="11.00" fill="#000000">HospitalizationId</text>
<polygon fill="#ffffff" stroke="transparent" points="601.5,-352.2 601.5,-374.2 863.5,-374.2 863.5,-352.2 601.5,-352.2"/>
<polygon fill="none" stroke="#000000" points="601.5,-352.2 601.5,-374.2 863.5,-374.2 863.5,-352.2 601.5,-352.2"/>
<image xlink:href="../../images/foreignKeys.png" width="11px" height="12px" preserveAspectRatio="xMinYMin meet" x="606.5" y="-369.2"/>
<text text-anchor="start" x="630.5" y="-359.3" font-family="Helvetica,sans-Serif" font-size="11.00" fill="#000000">NewStatusId</text>
<polygon fill="#ffffff" stroke="transparent" points="601.5,-330.2 601.5,-352.2 863.5,-352.2 863.5,-330.2 601.5,-330.2"/>
<polygon fill="none" stroke="#000000" points="601.5,-330.2 601.5,-352.2 863.5,-352.2 863.5,-330.2 601.5,-330.2"/>
<text text-anchor="start" x="630.5" y="-337.3" font-family="Helvetica,sans-Serif" font-size="11.00" fill="#000000">ChangedAt</text>
<polygon fill="#ffffff" stroke="transparent" points="601.5,-308.2 601.5,-330.2 863.5,-330.2 863.5,-308.2 601.5,-308.2"/>
<polygon fill="none" stroke="#000000" points="601.5,-308.2 601.5,-330.2 863.5,-330.2 863.5,-308.2 601.5,-308.2"/>
<text text-anchor="start" x="630.5" y="-315.3" font-family="Helvetica,sans-Serif" font-size="11.00" fill="#000000">ChangedByUserId</text>
<polygon fill="none" stroke="#000000" points="601.5,-289.2 601.5,-308.2 863.5,-308.2 863.5,-289.2 601.5,-289.2"/>
<text text-anchor="start" x="604.5" y="-295.3" font-family="Helvetica,sans-Serif" font-size="11.00" fill="#000000">...</text>
<polygon fill="#ffffff" stroke="transparent" points="601.5,-270.2 601.5,-289.2 863.5,-289.2 863.5,-270.2 601.5,-270.2"/>
<polygon fill="none" stroke="#000000" points="601.5,-270.2 601.5,-289.2 863.5,-289.2 863.5,-270.2 601.5,-270.2"/>
<polygon fill="#ffffff" stroke="transparent" points="602.5,-271.2 602.5,-288.2 695.5,-288.2 695.5,-271.2 602.5,-271.2"/>
<text text-anchor="start" x="604.5" y="-276.3" font-family="Helvetica,sans-Serif" font-size="11.00" fill="#000000">&lt; 2</text>
<polygon fill="#ffffff" stroke="transparent" points="695.5,-271.2 695.5,-288.2 779.5,-288.2 779.5,-271.2 695.5,-271.2"/>
<text text-anchor="start" x="734.4431" y="-276.3" font-family="Helvetica,sans-Serif" font-size="11.00" fill="#000000"> &#160;</text>
<polygon fill="#ffffff" stroke="transparent" points="779.5,-271.2 779.5,-288.2 862.5,-288.2 862.5,-271.2 779.5,-271.2"/>
<text text-anchor="start" x="854.3862" y="-276.3" font-family="Helvetica,sans-Serif" font-size="11.00" fill="#000000"> &#160;</text>
<polygon fill="#000000" stroke="#000000" points="695.5,-271.2 695.5,-288.2 695.5,-288.2 695.5,-271.2 695.5,-271.2"/>
<polygon fill="#000000" stroke="#000000" points="779.5,-271.2 779.5,-288.2 779.5,-288.2 779.5,-271.2 779.5,-271.2"/>
</a>
</g>
</g>
<!-- HospitalizationStatusHistories&#45;&gt;Hospitalizations -->
<g id="edge2" class="edge">
<title>HospitalizationStatusHistories:w&#45;&gt;Hospitalizations:e</title>
<path fill="none" stroke="#000000" d="M587.1032,-382.0392C555.2763,-365.5552 577.4459,-290.2 530.5,-290.2"/>
<polygon fill="#000000" stroke="#000000" points="593.6861,-383.4844 600.728,-388.7163 597.5931,-384.3422 601.5,-385.2 601.5,-385.2 601.5,-385.2 597.5931,-384.3422 602.272,-381.6837 593.6861,-383.4844 593.6861,-383.4844"/>
<ellipse fill="none" stroke="#000000" cx="590.5605" cy="-382.7982" rx="3.2" ry="3.2"/>
</g>
<!-- HospitalizationStatusHistories&#45;&gt;HospitalizationStatuses -->
<g id="edge3" class="edge">
<title>HospitalizationStatusHistories:w&#45;&gt;HospitalizationStatuses:e</title>
<path fill="none" stroke="#000000" d="M586.8433,-363.4332C475.0843,-366.9744 419.7677,-408.637 329,-335.2 280.7038,-296.1252 348.1237,-202.2 286,-202.2"/>
<polygon fill="#000000" stroke="#000000" points="593.501,-363.3273 601.5573,-366.7995 597.5005,-363.2637 601.5,-363.2 601.5,-363.2 601.5,-363.2 597.5005,-363.2637 601.4427,-359.6005 593.501,-363.3273 593.501,-363.3273"/>
<ellipse fill="none" stroke="#000000" cx="590.3014" cy="-363.3782" rx="3.2" ry="3.2"/>
</g>
<!-- staging.ProviderAssignments -->
<g id="node4" class="node">
<title>staging.ProviderAssignments</title>
<g id="a_node4"><a xlink:title="staging.ProviderAssignments">
<polygon fill="#ffffff" stroke="transparent" points="579,-56.7 579,-249.7 886,-249.7 886,-56.7 579,-56.7"/>
<polygon fill="#f5f5f5" stroke="transparent" points="579.5,-226.2 579.5,-249.2 886.5,-249.2 886.5,-226.2 579.5,-226.2"/>
<polygon fill="none" stroke="#000000" points="579.5,-226.2 579.5,-249.2 886.5,-249.2 886.5,-226.2 579.5,-226.2"/>
<text text-anchor="start" x="584.5" y="-234.8" font-family="Helvetica,sans-Serif" font-weight="bold" font-size="11.00" fill="#000000">staging.ProviderAssignments</text>
<text text-anchor="start" x="851.5437" y="-234.3" font-family="Helvetica,sans-Serif" font-size="11.00" fill="#000000">[table]</text>
<polygon fill="none" stroke="#000000" points="579.5,-204.2 579.5,-226.2 886.5,-226.2 886.5,-204.2 579.5,-204.2"/>
<image xlink:href="../../images/foreignKeys.png" width="11px" height="12px" preserveAspectRatio="xMinYMin meet" x="584.5" y="-221.2"/>
<text text-anchor="start" x="599.5" y="-211.3" font-family="Helvetica,sans-Serif" font-size="11.00" fill="#000000">ResolvedPhysicianId</text>
<polygon fill="none" stroke="#000000" points="579.5,-182.2 579.5,-204.2 886.5,-204.2 886.5,-182.2 579.5,-182.2"/>
<image xlink:href="../../images/foreignKeys.png" width="11px" height="12px" preserveAspectRatio="xMinYMin meet" x="584.5" y="-199.2"/>
<text text-anchor="start" x="599.5" y="-189.3" font-family="Helvetica,sans-Serif" font-size="11.00" fill="#000000">ResolvedHospitalizationId</text>
<polygon fill="none" stroke="#000000" points="579.5,-160.2 579.5,-182.2 886.5,-182.2 886.5,-160.2 579.5,-160.2"/>
<image xlink:href="../../images/foreignKeys.png" width="11px" height="12px" preserveAspectRatio="xMinYMin meet" x="584.5" y="-177.2"/>
<text text-anchor="start" x="599.5" y="-167.3" font-family="Helvetica,sans-Serif" font-size="11.00" fill="#000000">ResolvedPatientId</text>
<polygon fill="none" stroke="#000000" points="579.5,-138.2 579.5,-160.2 886.5,-160.2 886.5,-138.2 579.5,-138.2"/>
<image xlink:href="../../images/foreignKeys.png" width="11px" height="12px" preserveAspectRatio="xMinYMin meet" x="584.5" y="-155.2"/>
<text text-anchor="start" x="599.5" y="-145.3" font-family="Helvetica,sans-Serif" font-size="11.00" fill="#000000">ResolvedNursePractitionerId</text>
<polygon fill="none" stroke="#000000" points="579.5,-116.2 579.5,-138.2 886.5,-138.2 886.5,-116.2 579.5,-116.2"/>
<image xlink:href="../../images/foreignKeys.png" width="11px" height="12px" preserveAspectRatio="xMinYMin meet" x="584.5" y="-133.2"/>
<text text-anchor="start" x="599.5" y="-123.3" font-family="Helvetica,sans-Serif" font-size="11.00" fill="#000000">ResolvedVisitId</text>
<polygon fill="none" stroke="#000000" points="579.5,-94.2 579.5,-116.2 886.5,-116.2 886.5,-94.2 579.5,-94.2"/>
<image xlink:href="../../images/foreignKeys.png" width="11px" height="12px" preserveAspectRatio="xMinYMin meet" x="584.5" y="-111.2"/>
<text text-anchor="start" x="599.5" y="-101.3" font-family="Helvetica,sans-Serif" font-size="11.00" fill="#000000">ResolvedHospitalizationStatusId</text>
<polygon fill="none" stroke="#000000" points="579.5,-75.2 579.5,-94.2 886.5,-94.2 886.5,-75.2 579.5,-75.2"/>
<text text-anchor="start" x="582.5" y="-81.3" font-family="Helvetica,sans-Serif" font-size="11.00" fill="#000000">...</text>
<polygon fill="#ffffff" stroke="transparent" points="579.5,-56.2 579.5,-75.2 886.5,-75.2 886.5,-56.2 579.5,-56.2"/>
<polygon fill="none" stroke="#000000" points="579.5,-56.2 579.5,-75.2 886.5,-75.2 886.5,-56.2 579.5,-56.2"/>
<polygon fill="#ffffff" stroke="transparent" points="580.5,-57.2 580.5,-74.2 688.5,-74.2 688.5,-57.2 580.5,-57.2"/>
<text text-anchor="start" x="582.5" y="-62.3" font-family="Helvetica,sans-Serif" font-size="11.00" fill="#000000">&lt; 6</text>
<polygon fill="#ffffff" stroke="transparent" points="688.5,-57.2 688.5,-74.2 787.5,-74.2 787.5,-57.2 688.5,-57.2"/>
<text text-anchor="start" x="734.9431" y="-62.3" font-family="Helvetica,sans-Serif" font-size="11.00" fill="#000000"> &#160;</text>
<polygon fill="#ffffff" stroke="transparent" points="787.5,-57.2 787.5,-74.2 885.5,-74.2 885.5,-57.2 787.5,-57.2"/>
<text text-anchor="start" x="877.3862" y="-62.3" font-family="Helvetica,sans-Serif" font-size="11.00" fill="#000000"> &#160;</text>
<polygon fill="#000000" stroke="#000000" points="688.5,-57.2 688.5,-74.2 688.5,-74.2 688.5,-57.2 688.5,-57.2"/>
<polygon fill="#000000" stroke="#000000" points="787.5,-57.2 787.5,-74.2 787.5,-74.2 787.5,-57.2 787.5,-57.2"/>
</a>
</g>
</g>
<!-- staging.ProviderAssignments&#45;&gt;Hospitalizations -->
<g id="edge4" class="edge">
<title>staging.ProviderAssignments:w&#45;&gt;Hospitalizations:e</title>
<path fill="none" stroke="#000000" d="M565.5083,-197.368C541.6018,-215.9344 572.762,-290.2 530.5,-290.2"/>
<polygon fill="#000000" stroke="#000000" points="571.8329,-195.484 580.5278,-196.6502 575.6665,-194.342 579.5,-193.2 579.5,-193.2 579.5,-193.2 575.6665,-194.342 578.4722,-189.7498 571.8329,-195.484 571.8329,-195.484"/>
<ellipse fill="none" stroke="#000000" cx="568.7661" cy="-196.3976" rx="3.2" ry="3.2"/>
</g>
<!-- staging.ProviderAssignments&#45;&gt;HospitalizationStatuses -->
<g id="edge5" class="edge">
<title>staging.ProviderAssignments:w&#45;&gt;HospitalizationStatuses:e</title>
<path fill="none" stroke="#000000" d="M565.0548,-105.0899C463.1273,-103.5549 421.0187,-87.3169 329,-143.2 301.2662,-160.0427 318.4475,-202.2 286,-202.2"/>
<polygon fill="#000000" stroke="#000000" points="571.5002,-105.139 579.4725,-108.7999 575.5001,-105.1695 579.5,-105.2 579.5,-105.2 579.5,-105.2 575.5001,-105.1695 579.5275,-101.6001 571.5002,-105.139 571.5002,-105.139"/>
<ellipse fill="none" stroke="#000000" cx="568.3003" cy="-105.1146" rx="3.2" ry="3.2"/>
</g>
</g>
</svg>
