<?xml version="1.0" encoding="UTF-8" standalone="no"?>
<!DOCTYPE svg PUBLIC "-//W3C//DTD SVG 1.1//EN"
 "http://www.w3.org/Graphics/SVG/1.1/DTD/svg11.dtd">
<!-- Generated by graphviz version 2.40.1 (20161225.0304)
 -->
<!-- Title: oneDegreeRelationshipsDiagram Pages: 1 -->
<svg width="1231pt" height="615pt"
 viewBox="0.00 0.00 1231.00 614.68" xmlns="http://www.w3.org/2000/svg" xmlns:xlink="http://www.w3.org/1999/xlink">
<g id="graph0" class="graph" transform="scale(1 1) rotate(0) translate(4 610.678)">
<title>oneDegreeRelationshipsDiagram</title>
<polygon fill="#ffffff" stroke="transparent" points="-4,4 -4,-610.678 1227,-610.678 1227,4 -4,4"/>
<text text-anchor="middle" x="72.4936" y="-7.3" font-family="Helvetica,sans-Serif" font-size="11.00" fill="#000000">Generated by SchemaSpy</text>
<!-- HospitalizationInsurances -->
<g id="node1" class="node">
<title>HospitalizationInsurances</title>
<g id="a_node1"><a xlink:href="../../tables/HospitalizationInsurances.html" xlink:title="HospitalizationInsurances" target="_top">
<polygon fill="#ffffff" stroke="transparent" points="613.5,-425.3384 613.5,-552.3384 842.5,-552.3384 842.5,-425.3384 613.5,-425.3384"/>
<polygon fill="#f5f5f5" stroke="transparent" points="614,-528.8384 614,-551.8384 843,-551.8384 843,-528.8384 614,-528.8384"/>
<polygon fill="none" stroke="#000000" points="614,-528.8384 614,-551.8384 843,-551.8384 843,-528.8384 614,-528.8384"/>
<text text-anchor="start" x="619" y="-537.4384" font-family="Helvetica,sans-Serif" font-weight="bold" font-size="11.00" fill="#000000">HospitalizationInsurances</text>
<text text-anchor="start" x="808.5219" y="-536.9384" font-family="Helvetica,sans-Serif" font-size="11.00" fill="#000000">[table]</text>
<polygon fill="none" stroke="#000000" points="614,-506.8384 614,-528.8384 843,-528.8384 843,-506.8384 614,-506.8384"/>
<image xlink:href="../../images/primaryKeys.png" width="11px" height="12px" preserveAspectRatio="xMinYMin meet" x="619" y="-523.838"/>
<text text-anchor="start" x="643" y="-513.9384" font-family="Helvetica,sans-Serif" font-size="11.00" fill="#000000">Id</text>
<polygon fill="#ffffff" stroke="transparent" points="614,-484.8384 614,-506.8384 843,-506.8384 843,-484.8384 614,-484.8384"/>
<polygon fill="none" stroke="#000000" points="614,-484.8384 614,-506.8384 843,-506.8384 843,-484.8384 614,-484.8384"/>
<image xlink:href="../../images/foreignKeys.png" width="11px" height="12px" preserveAspectRatio="xMinYMin meet" x="619" y="-501.838"/>
<text text-anchor="start" x="643" y="-491.9384" font-family="Helvetica,sans-Serif" font-size="11.00" fill="#000000">HospitalizationId</text>
<polygon fill="#ffffff" stroke="transparent" points="614,-462.8384 614,-484.8384 843,-484.8384 843,-462.8384 614,-462.8384"/>
<polygon fill="none" stroke="#000000" points="614,-462.8384 614,-484.8384 843,-484.8384 843,-462.8384 614,-462.8384"/>
<image xlink:href="../../images/foreignKeys.png" width="11px" height="12px" preserveAspectRatio="xMinYMin meet" x="619" y="-479.838"/>
<text text-anchor="start" x="643" y="-469.9384" font-family="Helvetica,sans-Serif" font-size="11.00" fill="#000000">InsuranceId</text>
<polygon fill="none" stroke="#000000" points="614,-443.8384 614,-462.8384 843,-462.8384 843,-443.8384 614,-443.8384"/>
<text text-anchor="start" x="617" y="-449.9384" font-family="Helvetica,sans-Serif" font-size="11.00" fill="#000000">...</text>
<polygon fill="#ffffff" stroke="transparent" points="614,-424.8384 614,-443.8384 843,-443.8384 843,-424.8384 614,-424.8384"/>
<polygon fill="none" stroke="#000000" points="614,-424.8384 614,-443.8384 843,-443.8384 843,-424.8384 614,-424.8384"/>
<polygon fill="#ffffff" stroke="transparent" points="615,-425.8384 615,-442.8384 697,-442.8384 697,-425.8384 615,-425.8384"/>
<text text-anchor="start" x="617" y="-430.9384" font-family="Helvetica,sans-Serif" font-size="11.00" fill="#000000">&lt; 2</text>
<polygon fill="#ffffff" stroke="transparent" points="697,-425.8384 697,-442.8384 770,-442.8384 770,-425.8384 697,-425.8384"/>
<text text-anchor="start" x="730.4431" y="-430.9384" font-family="Helvetica,sans-Serif" font-size="11.00" fill="#000000"> &#160;</text>
<polygon fill="#ffffff" stroke="transparent" points="770,-425.8384 770,-442.8384 842,-442.8384 842,-425.8384 770,-425.8384"/>
<text text-anchor="start" x="833.8862" y="-430.9384" font-family="Helvetica,sans-Serif" font-size="11.00" fill="#000000"> &#160;</text>
<polygon fill="#000000" stroke="#000000" points="697,-425.8384 697,-442.8384 697,-442.8384 697,-425.8384 697,-425.8384"/>
<polygon fill="#000000" stroke="#000000" points="770,-425.8384 770,-442.8384 770,-442.8384 770,-425.8384 770,-425.8384"/>
</a>
</g>
</g>
<!-- Hospitalizations -->
<g id="node2" class="node">
<title>Hospitalizations</title>
<g id="a_node2"><a xlink:href="../../tables/Hospitalizations.html" xlink:title="Hospitalizations" target="_top">
<polygon fill="#ffffff" stroke="transparent" points="270,-222.8384 270,-510.8384 548,-510.8384 548,-222.8384 270,-222.8384"/>
<polygon fill="#f5f5f5" stroke="transparent" points="272,-485.8384 272,-508.8384 546,-508.8384 546,-485.8384 272,-485.8384"/>
<polygon fill="none" stroke="#000000" points="272,-485.8384 272,-508.8384 546,-508.8384 546,-485.8384 272,-485.8384"/>
<text text-anchor="start" x="277" y="-494.4384" font-family="Helvetica,sans-Serif" font-weight="bold" font-size="11.00" fill="#000000">Hospitalizations</text>
<text text-anchor="start" x="511.0437" y="-493.9384" font-family="Helvetica,sans-Serif" font-size="11.00" fill="#000000">[table]</text>
<polygon fill="none" stroke="#000000" points="272,-463.8384 272,-485.8384 465,-485.8384 465,-463.8384 272,-463.8384"/>
<image xlink:href="../../images/primaryKeys.png" width="11px" height="12px" preserveAspectRatio="xMinYMin meet" x="277" y="-480.838"/>
<text text-anchor="start" x="292" y="-470.9384" font-family="Helvetica,sans-Serif" font-size="11.00" fill="#000000">Id</text>
<polygon fill="none" stroke="#000000" points="465,-463.8384 465,-485.8384 546,-485.8384 546,-463.8384 465,-463.8384"/>
<text text-anchor="start" x="468" y="-471.5384" font-family="Helvetica,sans-Serif" font-size="11.00" fill="#000000">int identity[4]</text>
<polygon fill="#ffffff" stroke="transparent" points="272,-441.8384 272,-463.8384 465,-463.8384 465,-441.8384 272,-441.8384"/>
<polygon fill="none" stroke="#000000" points="272,-441.8384 272,-463.8384 465,-463.8384 465,-441.8384 272,-441.8384"/>
<image xlink:href="../../images/foreignKeys.png" width="11px" height="12px" preserveAspectRatio="xMinYMin meet" x="277" y="-458.838"/>
<text text-anchor="start" x="292" y="-448.9384" font-family="Helvetica,sans-Serif" font-size="11.00" fill="#000000">PatientId</text>
<polygon fill="none" stroke="#000000" points="465,-441.8384 465,-463.8384 546,-463.8384 546,-441.8384 465,-441.8384"/>
<text text-anchor="start" x="468" y="-449.5384" font-family="Helvetica,sans-Serif" font-size="11.00" fill="#000000">int[4]</text>
<polygon fill="#ffffff" stroke="transparent" points="272,-419.8384 272,-441.8384 465,-441.8384 465,-419.8384 272,-419.8384"/>
<polygon fill="none" stroke="#000000" points="272,-419.8384 272,-441.8384 465,-441.8384 465,-419.8384 272,-419.8384"/>
<image xlink:href="../../images/foreignKeys.png" width="11px" height="12px" preserveAspectRatio="xMinYMin meet" x="277" y="-436.838"/>
<text text-anchor="start" x="292" y="-426.9384" font-family="Helvetica,sans-Serif" font-size="11.00" fill="#000000">FacilityId</text>
<polygon fill="none" stroke="#000000" points="465,-419.8384 465,-441.8384 546,-441.8384 546,-419.8384 465,-419.8384"/>
<text text-anchor="start" x="468" y="-427.5384" font-family="Helvetica,sans-Serif" font-size="11.00" fill="#000000">int[4]</text>
<polygon fill="#ffffff" stroke="transparent" points="272,-397.8384 272,-419.8384 465,-419.8384 465,-397.8384 272,-397.8384"/>
<polygon fill="none" stroke="#000000" points="272,-397.8384 272,-419.8384 465,-419.8384 465,-397.8384 272,-397.8384"/>
<text text-anchor="start" x="292" y="-404.9384" font-family="Helvetica,sans-Serif" font-size="11.00" fill="#000000">CaseId</text>
<polygon fill="none" stroke="#000000" points="465,-397.8384 465,-419.8384 546,-419.8384 546,-397.8384 465,-397.8384"/>
<text text-anchor="start" x="468" y="-405.5384" font-family="Helvetica,sans-Serif" font-size="11.00" fill="#000000">int[4]</text>
<polygon fill="none" stroke="#000000" points="272,-375.8384 272,-397.8384 465,-397.8384 465,-375.8384 272,-375.8384"/>
<text text-anchor="start" x="292" y="-382.9384" font-family="Helvetica,sans-Serif" font-size="11.00" fill="#000000">AdmissionDate</text>
<polygon fill="none" stroke="#000000" points="465,-375.8384 465,-397.8384 546,-397.8384 546,-375.8384 465,-375.8384"/>
<text text-anchor="start" x="467.5968" y="-383.5384" font-family="Helvetica,sans-Serif" font-size="11.00" fill="#000000">datetime2[16,7]</text>
<polygon fill="none" stroke="#000000" points="272,-353.8384 272,-375.8384 465,-375.8384 465,-353.8384 272,-353.8384"/>
<text text-anchor="start" x="292" y="-360.9384" font-family="Helvetica,sans-Serif" font-size="11.00" fill="#000000">DischargeDate</text>
<polygon fill="none" stroke="#000000" points="465,-353.8384 465,-375.8384 546,-375.8384 546,-353.8384 465,-353.8384"/>
<text text-anchor="start" x="467.5968" y="-361.5384" font-family="Helvetica,sans-Serif" font-size="11.00" fill="#000000">datetime2[16,7]</text>
<polygon fill="#ffffff" stroke="transparent" points="272,-331.8384 272,-353.8384 465,-353.8384 465,-331.8384 272,-331.8384"/>
<polygon fill="none" stroke="#000000" points="272,-331.8384 272,-353.8384 465,-353.8384 465,-331.8384 272,-331.8384"/>
<image xlink:href="../../images/foreignKeys.png" width="11px" height="12px" preserveAspectRatio="xMinYMin meet" x="277" y="-348.838"/>
<text text-anchor="start" x="292" y="-338.9384" font-family="Helvetica,sans-Serif" font-size="11.00" fill="#000000">HospitalizationStatusId</text>
<polygon fill="none" stroke="#000000" points="465,-331.8384 465,-353.8384 546,-353.8384 546,-331.8384 465,-331.8384"/>
<text text-anchor="start" x="468" y="-339.5384" font-family="Helvetica,sans-Serif" font-size="11.00" fill="#000000">int[4]</text>
<polygon fill="none" stroke="#000000" points="272,-309.8384 272,-331.8384 465,-331.8384 465,-309.8384 272,-309.8384"/>
<text text-anchor="start" x="292" y="-316.9384" font-family="Helvetica,sans-Serif" font-size="11.00" fill="#000000">PsychEvaluation</text>
<polygon fill="none" stroke="#000000" points="465,-309.8384 465,-331.8384 546,-331.8384 546,-309.8384 465,-309.8384"/>
<text text-anchor="start" x="468" y="-317.5384" font-family="Helvetica,sans-Serif" font-size="11.00" fill="#000000">bit[1]</text>
<polygon fill="none" stroke="#000000" points="272,-287.8384 272,-309.8384 465,-309.8384 465,-287.8384 272,-287.8384"/>
<text text-anchor="start" x="292" y="-294.9384" font-family="Helvetica,sans-Serif" font-size="11.00" fill="#000000">CreatedAtUtc</text>
<polygon fill="none" stroke="#000000" points="465,-287.8384 465,-309.8384 546,-309.8384 546,-287.8384 465,-287.8384"/>
<text text-anchor="start" x="467.5968" y="-295.5384" font-family="Helvetica,sans-Serif" font-size="11.00" fill="#000000">datetime2[16,7]</text>
<polygon fill="none" stroke="#000000" points="272,-265.8384 272,-287.8384 465,-287.8384 465,-265.8384 272,-265.8384"/>
<text text-anchor="start" x="292" y="-272.9384" font-family="Helvetica,sans-Serif" font-size="11.00" fill="#000000">UpdatedAtUtc</text>
<polygon fill="none" stroke="#000000" points="465,-265.8384 465,-287.8384 546,-287.8384 546,-265.8384 465,-265.8384"/>
<text text-anchor="start" x="467.5968" y="-273.5384" font-family="Helvetica,sans-Serif" font-size="11.00" fill="#000000">datetime2[16,7]</text>
<polygon fill="none" stroke="#000000" points="272,-243.8384 272,-265.8384 465,-265.8384 465,-243.8384 272,-243.8384"/>
<text text-anchor="start" x="292" y="-250.9384" font-family="Helvetica,sans-Serif" font-size="11.00" fill="#000000">RowVersion</text>
<polygon fill="none" stroke="#000000" points="465,-243.8384 465,-265.8384 546,-265.8384 546,-243.8384 465,-243.8384"/>
<text text-anchor="start" x="468" y="-251.5384" font-family="Helvetica,sans-Serif" font-size="11.00" fill="#000000">timestamp[8]</text>
<polygon fill="#ffffff" stroke="transparent" points="272,-224.8384 272,-243.8384 546,-243.8384 546,-224.8384 272,-224.8384"/>
<polygon fill="none" stroke="#000000" points="272,-224.8384 272,-243.8384 546,-243.8384 546,-224.8384 272,-224.8384"/>
<polygon fill="#ffffff" stroke="transparent" points="273,-225.8384 273,-242.8384 367,-242.8384 367,-225.8384 273,-225.8384"/>
<text text-anchor="start" x="275" y="-230.9384" font-family="Helvetica,sans-Serif" font-size="11.00" fill="#000000">&lt; 3</text>
<polygon fill="#ffffff" stroke="transparent" points="367,-225.8384 367,-242.8384 452,-242.8384 452,-225.8384 367,-225.8384"/>
<text text-anchor="start" x="406.4431" y="-230.9384" font-family="Helvetica,sans-Serif" font-size="11.00" fill="#000000"> &#160;</text>
<polygon fill="#ffffff" stroke="transparent" points="452,-225.8384 452,-242.8384 545,-242.8384 545,-225.8384 452,-225.8384"/>
<text text-anchor="start" x="527.4053" y="-230.9384" font-family="Helvetica,sans-Serif" font-size="11.00" fill="#000000">4 &gt;</text>
<polygon fill="#000000" stroke="#000000" points="367,-225.8384 367,-242.8384 367,-242.8384 367,-225.8384 367,-225.8384"/>
<polygon fill="#000000" stroke="#000000" points="452,-225.8384 452,-242.8384 452,-242.8384 452,-225.8384 452,-225.8384"/>
<polygon fill="none" stroke="#000000" stroke-width="2" points="271,-223.8384 271,-509.8384 547,-509.8384 547,-223.8384 271,-223.8384"/>
</a>
</g>
</g>
<!-- HospitalizationInsurances&#45;&gt;Hospitalizations -->
<g id="edge1" class="edge">
<title>HospitalizationInsurances:w&#45;&gt;Hospitalizations:e</title>
<path fill="none" stroke="#000000" d="M599.5205,-494.1199C579.8725,-489.1045 572.0705,-474.8384 546,-474.8384"/>
<polygon fill="#000000" stroke="#000000" points="606.0558,-494.8955 613.5757,-499.4133 610.0279,-495.367 614,-495.8384 614,-495.8384 614,-495.8384 610.0279,-495.367 614.4243,-492.2635 606.0558,-494.8955 606.0558,-494.8955"/>
<ellipse fill="none" stroke="#000000" cx="602.8781" cy="-494.5183" rx="3.2" ry="3.2"/>
</g>
<!-- Facilities -->
<g id="node3" class="node">
<title>Facilities</title>
<g id="a_node3"><a xlink:href="../../tables/Facilities.html" xlink:title="Facilities" target="_top">
<polygon fill="#ffffff" stroke="transparent" points="52.5,-382.3384 52.5,-465.3384 176.5,-465.3384 176.5,-382.3384 52.5,-382.3384"/>
<polygon fill="#f5f5f5" stroke="transparent" points="52.5,-441.8384 52.5,-464.8384 176.5,-464.8384 176.5,-441.8384 52.5,-441.8384"/>
<polygon fill="none" stroke="#000000" points="52.5,-441.8384 52.5,-464.8384 176.5,-464.8384 176.5,-441.8384 52.5,-441.8384"/>
<text text-anchor="start" x="57.5" y="-450.4384" font-family="Helvetica,sans-Serif" font-weight="bold" font-size="11.00" fill="#000000">Facilities</text>
<text text-anchor="start" x="141.5437" y="-449.9384" font-family="Helvetica,sans-Serif" font-size="11.00" fill="#000000">[table]</text>
<polygon fill="none" stroke="#000000" points="52.5,-419.8384 52.5,-441.8384 176.5,-441.8384 176.5,-419.8384 52.5,-419.8384"/>
<image xlink:href="../../images/primaryKeys.png" width="11px" height="12px" preserveAspectRatio="xMinYMin meet" x="57.5" y="-436.838"/>
<text text-anchor="start" x="72.5" y="-426.9384" font-family="Helvetica,sans-Serif" font-size="11.00" fill="#000000">Id</text>
<polygon fill="none" stroke="#000000" points="52.5,-400.8384 52.5,-419.8384 176.5,-419.8384 176.5,-400.8384 52.5,-400.8384"/>
<text text-anchor="start" x="55.5" y="-406.9384" font-family="Helvetica,sans-Serif" font-size="11.00" fill="#000000">...</text>
<polygon fill="#ffffff" stroke="transparent" points="52.5,-381.8384 52.5,-400.8384 176.5,-400.8384 176.5,-381.8384 52.5,-381.8384"/>
<polygon fill="none" stroke="#000000" points="52.5,-381.8384 52.5,-400.8384 176.5,-400.8384 176.5,-381.8384 52.5,-381.8384"/>
<polygon fill="#ffffff" stroke="transparent" points="53.5,-382.8384 53.5,-399.8384 91.5,-399.8384 91.5,-382.8384 53.5,-382.8384"/>
<text text-anchor="start" x="55.5" y="-387.9384" font-family="Helvetica,sans-Serif" font-size="11.00" fill="#000000"> &#160;</text>
<polygon fill="#ffffff" stroke="transparent" points="91.5,-382.8384 91.5,-399.8384 129.5,-399.8384 129.5,-382.8384 91.5,-382.8384"/>
<text text-anchor="start" x="107.4431" y="-387.9384" font-family="Helvetica,sans-Serif" font-size="11.00" fill="#000000"> &#160;</text>
<polygon fill="#ffffff" stroke="transparent" points="129.5,-382.8384 129.5,-399.8384 175.5,-399.8384 175.5,-382.8384 129.5,-382.8384"/>
<text text-anchor="start" x="157.9053" y="-387.9384" font-family="Helvetica,sans-Serif" font-size="11.00" fill="#000000">3 &gt;</text>
<polygon fill="#000000" stroke="#000000" points="91.5,-382.8384 91.5,-399.8384 91.5,-399.8384 91.5,-382.8384 91.5,-382.8384"/>
<polygon fill="#000000" stroke="#000000" points="129.5,-382.8384 129.5,-399.8384 129.5,-399.8384 129.5,-382.8384 129.5,-382.8384"/>
</a>
</g>
</g>
<!-- Hospitalizations&#45;&gt;Facilities -->
<g id="edge2" class="edge">
<title>Hospitalizations:w&#45;&gt;Facilities:e</title>
<path fill="none" stroke="#000000" d="M257.4512,-430.8384C226.4054,-430.8384 213.6389,-430.8384 176.5,-430.8384"/>
<polygon fill="#000000" stroke="#000000" points="264,-430.8385 272,-434.4384 268,-430.8385 272,-430.8384 272,-430.8384 272,-430.8384 268,-430.8385 272,-427.2384 264,-430.8385 264,-430.8385"/>
<ellipse fill="none" stroke="#000000" cx="260.8" cy="-430.8385" rx="3.2" ry="3.2"/>
</g>
<!-- HospitalizationStatuses -->
<g id="node4" class="node">
<title>HospitalizationStatuses</title>
<g id="a_node4"><a xlink:href="../../tables/HospitalizationStatuses.html" xlink:title="HospitalizationStatuses" target="_top">
<polygon fill="#ffffff" stroke="transparent" points="8,-107.3384 8,-212.3384 221,-212.3384 221,-107.3384 8,-107.3384"/>
<polygon fill="#f5f5f5" stroke="transparent" points="8.5,-188.8384 8.5,-211.8384 221.5,-211.8384 221.5,-188.8384 8.5,-188.8384"/>
<polygon fill="none" stroke="#000000" points="8.5,-188.8384 8.5,-211.8384 221.5,-211.8384 221.5,-188.8384 8.5,-188.8384"/>
<text text-anchor="start" x="13.5" y="-197.4384" font-family="Helvetica,sans-Serif" font-weight="bold" font-size="11.00" fill="#000000">HospitalizationStatuses</text>
<text text-anchor="start" x="187.0219" y="-196.9384" font-family="Helvetica,sans-Serif" font-size="11.00" fill="#000000">[table]</text>
<polygon fill="none" stroke="#000000" points="8.5,-166.8384 8.5,-188.8384 221.5,-188.8384 221.5,-166.8384 8.5,-166.8384"/>
<image xlink:href="../../images/primaryKeys.png" width="11px" height="12px" preserveAspectRatio="xMinYMin meet" x="13.5" y="-183.838"/>
<text text-anchor="start" x="37.5" y="-173.9384" font-family="Helvetica,sans-Serif" font-size="11.00" fill="#000000">Id</text>
<polygon fill="#ffffff" stroke="transparent" points="8.5,-144.8384 8.5,-166.8384 221.5,-166.8384 221.5,-144.8384 8.5,-144.8384"/>
<polygon fill="none" stroke="#000000" points="8.5,-144.8384 8.5,-166.8384 221.5,-166.8384 221.5,-144.8384 8.5,-144.8384"/>
<text text-anchor="start" x="37.5" y="-151.9384" font-family="Helvetica,sans-Serif" font-size="11.00" fill="#000000">Code</text>
<polygon fill="none" stroke="#000000" points="8.5,-125.8384 8.5,-144.8384 221.5,-144.8384 221.5,-125.8384 8.5,-125.8384"/>
<text text-anchor="start" x="11.5" y="-131.9384" font-family="Helvetica,sans-Serif" font-size="11.00" fill="#000000">...</text>
<polygon fill="#ffffff" stroke="transparent" points="8.5,-106.8384 8.5,-125.8384 221.5,-125.8384 221.5,-106.8384 8.5,-106.8384"/>
<polygon fill="none" stroke="#000000" points="8.5,-106.8384 8.5,-125.8384 221.5,-125.8384 221.5,-106.8384 8.5,-106.8384"/>
<polygon fill="#ffffff" stroke="transparent" points="9.5,-107.8384 9.5,-124.8384 77.5,-124.8384 77.5,-107.8384 9.5,-107.8384"/>
<text text-anchor="start" x="11.5" y="-112.9384" font-family="Helvetica,sans-Serif" font-size="11.00" fill="#000000"> &#160;</text>
<polygon fill="#ffffff" stroke="transparent" points="77.5,-107.8384 77.5,-124.8384 144.5,-124.8384 144.5,-107.8384 77.5,-107.8384"/>
<text text-anchor="start" x="107.9431" y="-112.9384" font-family="Helvetica,sans-Serif" font-size="11.00" fill="#000000"> &#160;</text>
<polygon fill="#ffffff" stroke="transparent" points="144.5,-107.8384 144.5,-124.8384 220.5,-124.8384 220.5,-107.8384 144.5,-107.8384"/>
<text text-anchor="start" x="202.9053" y="-112.9384" font-family="Helvetica,sans-Serif" font-size="11.00" fill="#000000">3 &gt;</text>
<polygon fill="#000000" stroke="#000000" points="77.5,-107.8384 77.5,-124.8384 77.5,-124.8384 77.5,-107.8384 77.5,-107.8384"/>
<polygon fill="#000000" stroke="#000000" points="144.5,-107.8384 144.5,-124.8384 144.5,-124.8384 144.5,-107.8384 144.5,-107.8384"/>
</a>
</g>
</g>
<!-- Hospitalizations&#45;&gt;HospitalizationStatuses -->
<g id="edge3" class="edge">
<title>Hospitalizations:w&#45;&gt;HospitalizationStatuses:e</title>
<path fill="none" stroke="#000000" d="M257.7449,-340.2467C209.5913,-319.2551 292.4992,-177.8384 221.5,-177.8384"/>
<polygon fill="#000000" stroke="#000000" points="264.129,-341.4073 271.356,-346.3804 268.0645,-342.1229 272,-342.8384 272,-342.8384 272,-342.8384 268.0645,-342.1229 272.644,-339.2965 264.129,-341.4073 264.129,-341.4073"/>
<ellipse fill="none" stroke="#000000" cx="260.9806" cy="-340.8349" rx="3.2" ry="3.2"/>
</g>
<!-- Patients -->
<g id="node5" class="node">
<title>Patients</title>
<g id="a_node5"><a xlink:href="../../tables/Patients.html" xlink:title="Patients" target="_top">
<polygon fill="#ffffff" stroke="transparent" points="52.5,-507.3384 52.5,-590.3384 176.5,-590.3384 176.5,-507.3384 52.5,-507.3384"/>
<polygon fill="#f5f5f5" stroke="transparent" points="52.5,-566.8384 52.5,-589.8384 176.5,-589.8384 176.5,-566.8384 52.5,-566.8384"/>
<polygon fill="none" stroke="#000000" points="52.5,-566.8384 52.5,-589.8384 176.5,-589.8384 176.5,-566.8384 52.5,-566.8384"/>
<text text-anchor="start" x="57.5" y="-575.4384" font-family="Helvetica,sans-Serif" font-weight="bold" font-size="11.00" fill="#000000">Patients</text>
<text text-anchor="start" x="141.5437" y="-574.9384" font-family="Helvetica,sans-Serif" font-size="11.00" fill="#000000">[table]</text>
<polygon fill="none" stroke="#000000" points="52.5,-544.8384 52.5,-566.8384 176.5,-566.8384 176.5,-544.8384 52.5,-544.8384"/>
<image xlink:href="../../images/primaryKeys.png" width="11px" height="12px" preserveAspectRatio="xMinYMin meet" x="57.5" y="-561.838"/>
<text text-anchor="start" x="72.5" y="-551.9384" font-family="Helvetica,sans-Serif" font-size="11.00" fill="#000000">Id</text>
<polygon fill="none" stroke="#000000" points="52.5,-525.8384 52.5,-544.8384 176.5,-544.8384 176.5,-525.8384 52.5,-525.8384"/>
<text text-anchor="start" x="55.5" y="-531.9384" font-family="Helvetica,sans-Serif" font-size="11.00" fill="#000000">...</text>
<polygon fill="#ffffff" stroke="transparent" points="52.5,-506.8384 52.5,-525.8384 176.5,-525.8384 176.5,-506.8384 52.5,-506.8384"/>
<polygon fill="none" stroke="#000000" points="52.5,-506.8384 52.5,-525.8384 176.5,-525.8384 176.5,-506.8384 52.5,-506.8384"/>
<polygon fill="#ffffff" stroke="transparent" points="53.5,-507.8384 53.5,-524.8384 91.5,-524.8384 91.5,-507.8384 53.5,-507.8384"/>
<text text-anchor="start" x="55.5" y="-512.9384" font-family="Helvetica,sans-Serif" font-size="11.00" fill="#000000"> &#160;</text>
<polygon fill="#ffffff" stroke="transparent" points="91.5,-507.8384 91.5,-524.8384 129.5,-524.8384 129.5,-507.8384 91.5,-507.8384"/>
<text text-anchor="start" x="107.4431" y="-512.9384" font-family="Helvetica,sans-Serif" font-size="11.00" fill="#000000"> &#160;</text>
<polygon fill="#ffffff" stroke="transparent" points="129.5,-507.8384 129.5,-524.8384 175.5,-524.8384 175.5,-507.8384 129.5,-507.8384"/>
<text text-anchor="start" x="157.9053" y="-512.9384" font-family="Helvetica,sans-Serif" font-size="11.00" fill="#000000">3 &gt;</text>
<polygon fill="#000000" stroke="#000000" points="91.5,-507.8384 91.5,-524.8384 91.5,-524.8384 91.5,-507.8384 91.5,-507.8384"/>
<polygon fill="#000000" stroke="#000000" points="129.5,-507.8384 129.5,-524.8384 129.5,-524.8384 129.5,-507.8384 129.5,-507.8384"/>
</a>
</g>
</g>
<!-- Hospitalizations&#45;&gt;Patients -->
<g id="edge4" class="edge">
<title>Hospitalizations:w&#45;&gt;Patients:e</title>
<path fill="none" stroke="#000000" d="M257.5421,-455.0855C214.0239,-470.1482 233.4403,-555.8384 176.5,-555.8384"/>
<polygon fill="#000000" stroke="#000000" points="264.0949,-454.0671 272.5529,-456.3957 268.0475,-453.4528 272,-452.8384 272,-452.8384 272,-452.8384 268.0475,-453.4528 271.4471,-449.2811 264.0949,-454.0671 264.0949,-454.0671"/>
<ellipse fill="none" stroke="#000000" cx="260.9329" cy="-454.5586" rx="3.2" ry="3.2"/>
</g>
<!-- HospitalizationStatusHistories -->
<g id="node6" class="node">
<title>HospitalizationStatusHistories</title>
<g id="a_node6"><a xlink:href="../../tables/HospitalizationStatusHistories.html" xlink:title="HospitalizationStatusHistories" target="_top">
<polygon fill="#ffffff" stroke="transparent" points="597,-85.3384 597,-256.3384 859,-256.3384 859,-85.3384 597,-85.3384"/>
<polygon fill="#f5f5f5" stroke="transparent" points="597,-232.8384 597,-255.8384 859,-255.8384 859,-232.8384 597,-232.8384"/>
<polygon fill="none" stroke="#000000" points="597,-232.8384 597,-255.8384 859,-255.8384 859,-232.8384 597,-232.8384"/>
<text text-anchor="start" x="602" y="-241.4384" font-family="Helvetica,sans-Serif" font-weight="bold" font-size="11.00" fill="#000000">HospitalizationStatusHistories</text>
<text text-anchor="start" x="824.5219" y="-240.9384" font-family="Helvetica,sans-Serif" font-size="11.00" fill="#000000">[table]</text>
<polygon fill="none" stroke="#000000" points="597,-210.8384 597,-232.8384 859,-232.8384 859,-210.8384 597,-210.8384"/>
<image xlink:href="../../images/primaryKeys.png" width="11px" height="12px" preserveAspectRatio="xMinYMin meet" x="602" y="-227.838"/>
<text text-anchor="start" x="626" y="-217.9384" font-family="Helvetica,sans-Serif" font-size="11.00" fill="#000000">Id</text>
<polygon fill="#ffffff" stroke="transparent" points="597,-188.8384 597,-210.8384 859,-210.8384 859,-188.8384 597,-188.8384"/>
<polygon fill="none" stroke="#000000" points="597,-188.8384 597,-210.8384 859,-210.8384 859,-188.8384 597,-188.8384"/>
<image xlink:href="../../images/foreignKeys.png" width="11px" height="12px" preserveAspectRatio="xMinYMin meet" x="602" y="-205.838"/>
<text text-anchor="start" x="626" y="-195.9384" font-family="Helvetica,sans-Serif" font-size="11.00" fill="#000000">HospitalizationId</text>
<polygon fill="#ffffff" stroke="transparent" points="597,-166.8384 597,-188.8384 859,-188.8384 859,-166.8384 597,-166.8384"/>
<polygon fill="none" stroke="#000000" points="597,-166.8384 597,-188.8384 859,-188.8384 859,-166.8384 597,-166.8384"/>
<image xlink:href="../../images/foreignKeys.png" width="11px" height="12px" preserveAspectRatio="xMinYMin meet" x="602" y="-183.838"/>
<text text-anchor="start" x="626" y="-173.9384" font-family="Helvetica,sans-Serif" font-size="11.00" fill="#000000">NewStatusId</text>
<polygon fill="#ffffff" stroke="transparent" points="597,-144.8384 597,-166.8384 859,-166.8384 859,-144.8384 597,-144.8384"/>
<polygon fill="none" stroke="#000000" points="597,-144.8384 597,-166.8384 859,-166.8384 859,-144.8384 597,-144.8384"/>
<text text-anchor="start" x="626" y="-151.9384" font-family="Helvetica,sans-Serif" font-size="11.00" fill="#000000">ChangedAt</text>
<polygon fill="#ffffff" stroke="transparent" points="597,-122.8384 597,-144.8384 859,-144.8384 859,-122.8384 597,-122.8384"/>
<polygon fill="none" stroke="#000000" points="597,-122.8384 597,-144.8384 859,-144.8384 859,-122.8384 597,-122.8384"/>
<text text-anchor="start" x="626" y="-129.9384" font-family="Helvetica,sans-Serif" font-size="11.00" fill="#000000">ChangedByUserId</text>
<polygon fill="none" stroke="#000000" points="597,-103.8384 597,-122.8384 859,-122.8384 859,-103.8384 597,-103.8384"/>
<text text-anchor="start" x="600" y="-109.9384" font-family="Helvetica,sans-Serif" font-size="11.00" fill="#000000">...</text>
<polygon fill="#ffffff" stroke="transparent" points="597,-84.8384 597,-103.8384 859,-103.8384 859,-84.8384 597,-84.8384"/>
<polygon fill="none" stroke="#000000" points="597,-84.8384 597,-103.8384 859,-103.8384 859,-84.8384 597,-84.8384"/>
<polygon fill="#ffffff" stroke="transparent" points="598,-85.8384 598,-102.8384 691,-102.8384 691,-85.8384 598,-85.8384"/>
<text text-anchor="start" x="600" y="-90.9384" font-family="Helvetica,sans-Serif" font-size="11.00" fill="#000000">&lt; 2</text>
<polygon fill="#ffffff" stroke="transparent" points="691,-85.8384 691,-102.8384 775,-102.8384 775,-85.8384 691,-85.8384"/>
<text text-anchor="start" x="729.9431" y="-90.9384" font-family="Helvetica,sans-Serif" font-size="11.00" fill="#000000"> &#160;</text>
<polygon fill="#ffffff" stroke="transparent" points="775,-85.8384 775,-102.8384 858,-102.8384 858,-85.8384 775,-85.8384"/>
<text text-anchor="start" x="849.8862" y="-90.9384" font-family="Helvetica,sans-Serif" font-size="11.00" fill="#000000"> &#160;</text>
<polygon fill="#000000" stroke="#000000" points="691,-85.8384 691,-102.8384 691,-102.8384 691,-85.8384 691,-85.8384"/>
<polygon fill="#000000" stroke="#000000" points="775,-85.8384 775,-102.8384 775,-102.8384 775,-85.8384 775,-85.8384"/>
</a>
</g>
</g>
<!-- HospitalizationStatusHistories&#45;&gt;Hospitalizations -->
<g id="edge5" class="edge">
<title>HospitalizationStatusHistories:w&#45;&gt;Hospitalizations:e</title>
<path fill="none" stroke="#000000" d="M582.4224,-201.385C489.4403,-223.4773 664.8436,-474.8384 546,-474.8384"/>
<polygon fill="#000000" stroke="#000000" points="589.0446,-200.6825 597.3798,-203.4183 593.0223,-200.2605 597,-199.8384 597,-199.8384 597,-199.8384 593.0223,-200.2605 596.6202,-196.2585 589.0446,-200.6825 589.0446,-200.6825"/>
<ellipse fill="none" stroke="#000000" cx="585.8625" cy="-201.0201" rx="3.2" ry="3.2"/>
</g>
<!-- HospitalizationStatusHistories&#45;&gt;HospitalizationStatuses -->
<g id="edge6" class="edge">
<title>HospitalizationStatusHistories:w&#45;&gt;HospitalizationStatuses:e</title>
<path fill="none" stroke="#000000" d="M582.1803,-177.8384C427.4702,-177.8384 383.3366,-177.8384 221.5,-177.8384"/>
<polygon fill="#000000" stroke="#000000" points="589,-177.8385 597,-181.4384 593,-177.8385 597,-177.8384 597,-177.8384 597,-177.8384 593,-177.8385 597,-174.2384 589,-177.8385 589,-177.8385"/>
<ellipse fill="none" stroke="#000000" cx="585.8" cy="-177.8385" rx="3.2" ry="3.2"/>
</g>
<!-- Visits -->
<g id="node7" class="node">
<title>Visits</title>
<g id="a_node7"><a xlink:href="../../tables/Visits.html" xlink:title="Visits" target="_top">
<polygon fill="#ffffff" stroke="transparent" points="645,-277.3384 645,-404.3384 811,-404.3384 811,-277.3384 645,-277.3384"/>
<polygon fill="#f5f5f5" stroke="transparent" points="645,-380.8384 645,-403.8384 811,-403.8384 811,-380.8384 645,-380.8384"/>
<polygon fill="none" stroke="#000000" points="645,-380.8384 645,-403.8384 811,-403.8384 811,-380.8384 645,-380.8384"/>
<text text-anchor="start" x="650" y="-389.4384" font-family="Helvetica,sans-Serif" font-weight="bold" font-size="11.00" fill="#000000">Visits</text>
<text text-anchor="start" x="776.0437" y="-388.9384" font-family="Helvetica,sans-Serif" font-size="11.00" fill="#000000">[table]</text>
<polygon fill="none" stroke="#000000" points="645,-358.8384 645,-380.8384 811,-380.8384 811,-358.8384 645,-358.8384"/>
<image xlink:href="../../images/primaryKeys.png" width="11px" height="12px" preserveAspectRatio="xMinYMin meet" x="650" y="-375.838"/>
<text text-anchor="start" x="665" y="-365.9384" font-family="Helvetica,sans-Serif" font-size="11.00" fill="#000000">Id</text>
<polygon fill="#ffffff" stroke="transparent" points="645,-336.8384 645,-358.8384 811,-358.8384 811,-336.8384 645,-336.8384"/>
<polygon fill="none" stroke="#000000" points="645,-336.8384 645,-358.8384 811,-358.8384 811,-336.8384 645,-336.8384"/>
<text text-anchor="start" x="665" y="-343.9384" font-family="Helvetica,sans-Serif" font-size="11.00" fill="#000000">DateServiced</text>
<polygon fill="#ffffff" stroke="transparent" points="645,-314.8384 645,-336.8384 811,-336.8384 811,-314.8384 645,-314.8384"/>
<polygon fill="none" stroke="#000000" points="645,-314.8384 645,-336.8384 811,-336.8384 811,-314.8384 645,-314.8384"/>
<image xlink:href="../../images/foreignKeys.png" width="11px" height="12px" preserveAspectRatio="xMinYMin meet" x="650" y="-331.838"/>
<text text-anchor="start" x="665" y="-321.9384" font-family="Helvetica,sans-Serif" font-size="11.00" fill="#000000">HospitalizationId</text>
<polygon fill="none" stroke="#000000" points="645,-295.8384 645,-314.8384 811,-314.8384 811,-295.8384 645,-295.8384"/>
<text text-anchor="start" x="648" y="-301.9384" font-family="Helvetica,sans-Serif" font-size="11.00" fill="#000000">...</text>
<polygon fill="#ffffff" stroke="transparent" points="645,-276.8384 645,-295.8384 811,-295.8384 811,-276.8384 645,-276.8384"/>
<polygon fill="none" stroke="#000000" points="645,-276.8384 645,-295.8384 811,-295.8384 811,-276.8384 645,-276.8384"/>
<polygon fill="#ffffff" stroke="transparent" points="646,-277.8384 646,-294.8384 704,-294.8384 704,-277.8384 646,-277.8384"/>
<text text-anchor="start" x="648" y="-282.9384" font-family="Helvetica,sans-Serif" font-size="11.00" fill="#000000">&lt; 1</text>
<polygon fill="#ffffff" stroke="transparent" points="704,-277.8384 704,-294.8384 753,-294.8384 753,-277.8384 704,-277.8384"/>
<text text-anchor="start" x="725.4431" y="-282.9384" font-family="Helvetica,sans-Serif" font-size="11.00" fill="#000000"> &#160;</text>
<polygon fill="#ffffff" stroke="transparent" points="753,-277.8384 753,-294.8384 810,-294.8384 810,-277.8384 753,-277.8384"/>
<text text-anchor="start" x="792.4053" y="-282.9384" font-family="Helvetica,sans-Serif" font-size="11.00" fill="#000000">4 &gt;</text>
<polygon fill="#000000" stroke="#000000" points="704,-277.8384 704,-294.8384 704,-294.8384 704,-277.8384 704,-277.8384"/>
<polygon fill="#000000" stroke="#000000" points="753,-277.8384 753,-294.8384 753,-294.8384 753,-277.8384 753,-277.8384"/>
</a>
</g>
</g>
<!-- Visits&#45;&gt;Hospitalizations -->
<g id="edge7" class="edge">
<title>Visits:w&#45;&gt;Hospitalizations:e</title>
<path fill="none" stroke="#000000" d="M633.4529,-335.159C607.9853,-367.7788 562.8487,-474.8384 546,-474.8384"/>
<polygon fill="#000000" stroke="#000000" points="638.7749,-330.8632 647.2612,-328.6397 641.8875,-328.3508 645,-325.8384 645,-325.8384 645,-325.8384 641.8875,-328.3508 642.7388,-323.0371 638.7749,-330.8632 638.7749,-330.8632"/>
<ellipse fill="none" stroke="#000000" cx="636.2849" cy="-332.8732" rx="3.2" ry="3.2"/>
</g>
<!-- staging.ProviderAssignments -->
<g id="node8" class="node">
<title>staging.ProviderAssignments</title>
<g id="a_node8"><a xlink:title="staging.ProviderAssignments">
<polygon fill="#ffffff" stroke="transparent" points="908,-380.3384 908,-573.3384 1215,-573.3384 1215,-380.3384 908,-380.3384"/>
<polygon fill="#f5f5f5" stroke="transparent" points="908.5,-549.8384 908.5,-572.8384 1215.5,-572.8384 1215.5,-549.8384 908.5,-549.8384"/>
<polygon fill="none" stroke="#000000" points="908.5,-549.8384 908.5,-572.8384 1215.5,-572.8384 1215.5,-549.8384 908.5,-549.8384"/>
<text text-anchor="start" x="913.5" y="-558.4384" font-family="Helvetica,sans-Serif" font-weight="bold" font-size="11.00" fill="#000000">staging.ProviderAssignments</text>
<text text-anchor="start" x="1180.5437" y="-557.9384" font-family="Helvetica,sans-Serif" font-size="11.00" fill="#000000">[table]</text>
<polygon fill="none" stroke="#000000" points="908.5,-527.8384 908.5,-549.8384 1215.5,-549.8384 1215.5,-527.8384 908.5,-527.8384"/>
<image xlink:href="../../images/foreignKeys.png" width="11px" height="12px" preserveAspectRatio="xMinYMin meet" x="913.5" y="-544.838"/>
<text text-anchor="start" x="928.5" y="-534.9384" font-family="Helvetica,sans-Serif" font-size="11.00" fill="#000000">ResolvedPhysicianId</text>
<polygon fill="none" stroke="#000000" points="908.5,-505.8384 908.5,-527.8384 1215.5,-527.8384 1215.5,-505.8384 908.5,-505.8384"/>
<image xlink:href="../../images/foreignKeys.png" width="11px" height="12px" preserveAspectRatio="xMinYMin meet" x="913.5" y="-522.838"/>
<text text-anchor="start" x="928.5" y="-512.9384" font-family="Helvetica,sans-Serif" font-size="11.00" fill="#000000">ResolvedHospitalizationId</text>
<polygon fill="none" stroke="#000000" points="908.5,-483.8384 908.5,-505.8384 1215.5,-505.8384 1215.5,-483.8384 908.5,-483.8384"/>
<image xlink:href="../../images/foreignKeys.png" width="11px" height="12px" preserveAspectRatio="xMinYMin meet" x="913.5" y="-500.838"/>
<text text-anchor="start" x="928.5" y="-490.9384" font-family="Helvetica,sans-Serif" font-size="11.00" fill="#000000">ResolvedPatientId</text>
<polygon fill="none" stroke="#000000" points="908.5,-461.8384 908.5,-483.8384 1215.5,-483.8384 1215.5,-461.8384 908.5,-461.8384"/>
<image xlink:href="../../images/foreignKeys.png" width="11px" height="12px" preserveAspectRatio="xMinYMin meet" x="913.5" y="-478.838"/>
<text text-anchor="start" x="928.5" y="-468.9384" font-family="Helvetica,sans-Serif" font-size="11.00" fill="#000000">ResolvedNursePractitionerId</text>
<polygon fill="none" stroke="#000000" points="908.5,-439.8384 908.5,-461.8384 1215.5,-461.8384 1215.5,-439.8384 908.5,-439.8384"/>
<image xlink:href="../../images/foreignKeys.png" width="11px" height="12px" preserveAspectRatio="xMinYMin meet" x="913.5" y="-456.838"/>
<text text-anchor="start" x="928.5" y="-446.9384" font-family="Helvetica,sans-Serif" font-size="11.00" fill="#000000">ResolvedVisitId</text>
<polygon fill="none" stroke="#000000" points="908.5,-417.8384 908.5,-439.8384 1215.5,-439.8384 1215.5,-417.8384 908.5,-417.8384"/>
<image xlink:href="../../images/foreignKeys.png" width="11px" height="12px" preserveAspectRatio="xMinYMin meet" x="913.5" y="-434.838"/>
<text text-anchor="start" x="928.5" y="-424.9384" font-family="Helvetica,sans-Serif" font-size="11.00" fill="#000000">ResolvedHospitalizationStatusId</text>
<polygon fill="none" stroke="#000000" points="908.5,-398.8384 908.5,-417.8384 1215.5,-417.8384 1215.5,-398.8384 908.5,-398.8384"/>
<text text-anchor="start" x="911.5" y="-404.9384" font-family="Helvetica,sans-Serif" font-size="11.00" fill="#000000">...</text>
<polygon fill="#ffffff" stroke="transparent" points="908.5,-379.8384 908.5,-398.8384 1215.5,-398.8384 1215.5,-379.8384 908.5,-379.8384"/>
<polygon fill="none" stroke="#000000" points="908.5,-379.8384 908.5,-398.8384 1215.5,-398.8384 1215.5,-379.8384 908.5,-379.8384"/>
<polygon fill="#ffffff" stroke="transparent" points="909.5,-380.8384 909.5,-397.8384 1017.5,-397.8384 1017.5,-380.8384 909.5,-380.8384"/>
<text text-anchor="start" x="911.5" y="-385.9384" font-family="Helvetica,sans-Serif" font-size="11.00" fill="#000000">&lt; 6</text>
<polygon fill="#ffffff" stroke="transparent" points="1017.5,-380.8384 1017.5,-397.8384 1116.5,-397.8384 1116.5,-380.8384 1017.5,-380.8384"/>
<text text-anchor="start" x="1063.9431" y="-385.9384" font-family="Helvetica,sans-Serif" font-size="11.00" fill="#000000"> &#160;</text>
<polygon fill="#ffffff" stroke="transparent" points="1116.5,-380.8384 1116.5,-397.8384 1214.5,-397.8384 1214.5,-380.8384 1116.5,-380.8384"/>
<text text-anchor="start" x="1206.3862" y="-385.9384" font-family="Helvetica,sans-Serif" font-size="11.00" fill="#000000"> &#160;</text>
<polygon fill="#000000" stroke="#000000" points="1017.5,-380.8384 1017.5,-397.8384 1017.5,-397.8384 1017.5,-380.8384 1017.5,-380.8384"/>
<polygon fill="#000000" stroke="#000000" points="1116.5,-380.8384 1116.5,-397.8384 1116.5,-397.8384 1116.5,-380.8384 1116.5,-380.8384"/>
</a>
</g>
</g>
<!-- staging.ProviderAssignments&#45;&gt;Hospitalizations -->
<g id="edge8" class="edge">
<title>staging.ProviderAssignments:w&#45;&gt;Hospitalizations:e</title>
<path fill="none" stroke="#000000" d="M894.8757,-521.5197C884.1716,-531.4003 886.4596,-554.1858 867,-562.8384 754.1019,-613.0379 693.8049,-628.2747 589,-562.8384 552.0755,-539.7842 589.5306,-474.8384 546,-474.8384"/>
<polygon fill="#000000" stroke="#000000" points="900.9341,-519.4381 909.6698,-520.2431 904.7171,-518.1383 908.5,-516.8384 908.5,-516.8384 908.5,-516.8384 904.7171,-518.1383 907.3302,-513.4338 900.9341,-519.4381 900.9341,-519.4381"/>
<ellipse fill="none" stroke="#000000" cx="897.9078" cy="-520.4779" rx="3.2" ry="3.2"/>
</g>
<!-- staging.ProviderAssignments&#45;&gt;HospitalizationStatuses -->
<g id="edge9" class="edge">
<title>staging.ProviderAssignments:w&#45;&gt;HospitalizationStatuses:e</title>
<path fill="none" stroke="#000000" d="M894.6192,-424.7895C841.811,-388.7998 922.1321,-123.8849 867,-74.8384 774.6868,7.2849 711.4041,-58.0094 589,-74.8384 504.9768,-86.3905 306.3136,-177.8384 221.5,-177.8384"/>
<polygon fill="#000000" stroke="#000000" points="900.8201,-426.5982 907.4919,-432.2944 904.66,-427.7183 908.5,-428.8384 908.5,-428.8384 908.5,-428.8384 904.66,-427.7183 909.5081,-425.3825 900.8201,-426.5982 900.8201,-426.5982"/>
<ellipse fill="none" stroke="#000000" cx="897.7481" cy="-425.7021" rx="3.2" ry="3.2"/>
</g>
<!-- staging.ProviderAssignments&#45;&gt;Patients -->
<g id="edge10" class="edge">
<title>staging.ProviderAssignments:w&#45;&gt;Patients:e</title>
<path fill="none" stroke="#000000" d="M894.5718,-499.2592C880.2029,-511.972 892.3278,-548.6238 867,-562.8384 759.2534,-623.3086 712.5511,-563.8867 589,-562.8384 405.6469,-561.2828 359.8597,-555.8384 176.5,-555.8384"/>
<polygon fill="#000000" stroke="#000000" points="900.8749,-497.2587 909.5891,-498.2697 904.6874,-496.0486 908.5,-494.8384 908.5,-494.8384 908.5,-494.8384 904.6874,-496.0486 907.4109,-491.4071 900.8749,-497.2587 900.8749,-497.2587"/>
<ellipse fill="none" stroke="#000000" cx="897.8248" cy="-498.2268" rx="3.2" ry="3.2"/>
</g>
<!-- staging.ProviderAssignments&#45;&gt;Visits -->
<g id="edge11" class="edge">
<title>staging.ProviderAssignments:w&#45;&gt;Visits:e</title>
<path fill="none" stroke="#000000" d="M894.3503,-447.4142C883.6374,-440.9572 881.0567,-426.576 867,-414.8384 842.4918,-394.3737 842.9289,-369.8384 811,-369.8384"/>
<polygon fill="#000000" stroke="#000000" points="900.7244,-448.9567 907.6532,-454.3374 904.6122,-449.8976 908.5,-450.8384 908.5,-450.8384 908.5,-450.8384 904.6122,-449.8976 909.3468,-447.3394 900.7244,-448.9567 900.7244,-448.9567"/>
<ellipse fill="none" stroke="#000000" cx="897.6142" cy="-448.204" rx="3.2" ry="3.2"/>
</g>
</g>
</svg>
