<?xml version="1.0" encoding="UTF-8" standalone="no"?>
<!DOCTYPE svg PUBLIC "-//W3C//DTD SVG 1.1//EN"
 "http://www.w3.org/Graphics/SVG/1.1/DTD/svg11.dtd">
<!-- Generated by graphviz version 2.40.1 (20161225.0304)
 -->
<!-- Title: twoDegreesRelationshipsDiagram Pages: 1 -->
<svg width="1160pt" height="604pt"
 viewBox="0.00 0.00 1160.00 603.55" xmlns="http://www.w3.org/2000/svg" xmlns:xlink="http://www.w3.org/1999/xlink">
<g id="graph0" class="graph" transform="scale(1 1) rotate(0) translate(4 599.5479)">
<title>twoDegreesRelationshipsDiagram</title>
<polygon fill="#ffffff" stroke="transparent" points="-4,4 -4,-599.5479 1156,-599.5479 1156,4 -4,4"/>
<text text-anchor="middle" x="72.4936" y="-7.3" font-family="Helvetica,sans-Serif" font-size="11.00" fill="#000000">Generated by SchemaSpy</text>
<!-- HospitalizationInsurances -->
<g id="node1" class="node">
<title>HospitalizationInsurances</title>
<g id="a_node1"><a xlink:href="../../tables/HospitalizationInsurances.html" xlink:title="HospitalizationInsurances" target="_top">
<polygon fill="#ffffff" stroke="transparent" points="594.5,-489.7 594.5,-550.7 823.5,-550.7 823.5,-489.7 594.5,-489.7"/>
<polygon fill="#f5f5f5" stroke="transparent" points="595,-527.2 595,-550.2 824,-550.2 824,-527.2 595,-527.2"/>
<polygon fill="none" stroke="#000000" points="595,-527.2 595,-550.2 824,-550.2 824,-527.2 595,-527.2"/>
<text text-anchor="start" x="600" y="-535.8" font-family="Helvetica,sans-Serif" font-weight="bold" font-size="11.00" fill="#000000">HospitalizationInsurances</text>
<text text-anchor="start" x="789.5219" y="-535.3" font-family="Helvetica,sans-Serif" font-size="11.00" fill="#000000">[table]</text>
<polygon fill="none" stroke="#000000" points="595,-508.2 595,-527.2 824,-527.2 824,-508.2 595,-508.2"/>
<text text-anchor="start" x="598" y="-514.3" font-family="Helvetica,sans-Serif" font-size="11.00" fill="#000000">...</text>
<polygon fill="#ffffff" stroke="transparent" points="595,-489.2 595,-508.2 824,-508.2 824,-489.2 595,-489.2"/>
<polygon fill="none" stroke="#000000" points="595,-489.2 595,-508.2 824,-508.2 824,-489.2 595,-489.2"/>
<polygon fill="#ffffff" stroke="transparent" points="596,-490.2 596,-507.2 678,-507.2 678,-490.2 596,-490.2"/>
<text text-anchor="start" x="598" y="-495.3" font-family="Helvetica,sans-Serif" font-size="11.00" fill="#000000">&lt; 2</text>
<polygon fill="#ffffff" stroke="transparent" points="678,-490.2 678,-507.2 751,-507.2 751,-490.2 678,-490.2"/>
<text text-anchor="start" x="711.4431" y="-495.3" font-family="Helvetica,sans-Serif" font-size="11.00" fill="#000000"> &#160;</text>
<polygon fill="#ffffff" stroke="transparent" points="751,-490.2 751,-507.2 823,-507.2 823,-490.2 751,-490.2"/>
<text text-anchor="start" x="814.8862" y="-495.3" font-family="Helvetica,sans-Serif" font-size="11.00" fill="#000000"> &#160;</text>
<polygon fill="#000000" stroke="#000000" points="678,-490.2 678,-507.2 678,-507.2 678,-490.2 678,-490.2"/>
<polygon fill="#000000" stroke="#000000" points="751,-490.2 751,-507.2 751,-507.2 751,-490.2 751,-490.2"/>
</a>
</g>
</g>
<!-- Hospitalizations -->
<g id="node2" class="node">
<title>Hospitalizations</title>
<g id="a_node2"><a xlink:href="../../tables/Hospitalizations.html" xlink:title="Hospitalizations" target="_top">
<polygon fill="#ffffff" stroke="transparent" points="372,-326.7 372,-387.7 529,-387.7 529,-326.7 372,-326.7"/>
<polygon fill="#f5f5f5" stroke="transparent" points="372.5,-364.2 372.5,-387.2 529.5,-387.2 529.5,-364.2 372.5,-364.2"/>
<polygon fill="none" stroke="#000000" points="372.5,-364.2 372.5,-387.2 529.5,-387.2 529.5,-364.2 372.5,-364.2"/>
<text text-anchor="start" x="377.5" y="-372.8" font-family="Helvetica,sans-Serif" font-weight="bold" font-size="11.00" fill="#000000">Hospitalizations</text>
<text text-anchor="start" x="495.0219" y="-372.3" font-family="Helvetica,sans-Serif" font-size="11.00" fill="#000000">[table]</text>
<polygon fill="none" stroke="#000000" points="372.5,-345.2 372.5,-364.2 529.5,-364.2 529.5,-345.2 372.5,-345.2"/>
<text text-anchor="start" x="375.5" y="-351.3" font-family="Helvetica,sans-Serif" font-size="11.00" fill="#000000">...</text>
<polygon fill="#ffffff" stroke="transparent" points="372.5,-326.2 372.5,-345.2 529.5,-345.2 529.5,-326.2 372.5,-326.2"/>
<polygon fill="none" stroke="#000000" points="372.5,-326.2 372.5,-345.2 529.5,-345.2 529.5,-326.2 372.5,-326.2"/>
<polygon fill="#ffffff" stroke="transparent" points="373.5,-327.2 373.5,-344.2 428.5,-344.2 428.5,-327.2 373.5,-327.2"/>
<text text-anchor="start" x="375.5" y="-332.3" font-family="Helvetica,sans-Serif" font-size="11.00" fill="#000000">&lt; 3</text>
<polygon fill="#ffffff" stroke="transparent" points="428.5,-327.2 428.5,-344.2 474.5,-344.2 474.5,-327.2 428.5,-327.2"/>
<text text-anchor="start" x="448.4431" y="-332.3" font-family="Helvetica,sans-Serif" font-size="11.00" fill="#000000"> &#160;</text>
<polygon fill="#ffffff" stroke="transparent" points="474.5,-327.2 474.5,-344.2 528.5,-344.2 528.5,-327.2 474.5,-327.2"/>
<text text-anchor="start" x="510.9053" y="-332.3" font-family="Helvetica,sans-Serif" font-size="11.00" fill="#000000">4 &gt;</text>
<polygon fill="#000000" stroke="#000000" points="428.5,-327.2 428.5,-344.2 428.5,-344.2 428.5,-327.2 428.5,-327.2"/>
<polygon fill="#000000" stroke="#000000" points="474.5,-327.2 474.5,-344.2 474.5,-344.2 474.5,-327.2 474.5,-327.2"/>
</a>
</g>
</g>
<!-- HospitalizationInsurances&#45;&gt;Hospitalizations -->
<g id="edge1" class="edge">
<title>HospitalizationInsurances:w&#45;&gt;Hospitalizations:e</title>
<path fill="none" stroke="#000000" d="M580.4634,-515.952C521.6072,-505.7601 482.5367,-435.4824 463.6704,-391.9176"/>
<polygon fill="#000000" stroke="#000000" points="587.0293,-516.5157 594.692,-520.7868 591.0147,-516.8578 595,-517.2 595,-517.2 595,-517.2 591.0147,-516.8578 595.308,-513.6132 587.0293,-516.5157 587.0293,-516.5157"/>
<ellipse fill="none" stroke="#000000" cx="583.841" cy="-516.2419" rx="3.2" ry="3.2"/>
</g>
<!-- Facilities -->
<g id="node3" class="node">
<title>Facilities</title>
<g id="a_node3"><a xlink:href="../../tables/Facilities.html" xlink:title="Facilities" target="_top">
<polygon fill="#ffffff" stroke="transparent" points="113.5,-329.7 113.5,-390.7 217.5,-390.7 217.5,-329.7 113.5,-329.7"/>
<polygon fill="#f5f5f5" stroke="transparent" points="113.5,-367.2 113.5,-390.2 217.5,-390.2 217.5,-367.2 113.5,-367.2"/>
<polygon fill="none" stroke="#000000" points="113.5,-367.2 113.5,-390.2 217.5,-390.2 217.5,-367.2 113.5,-367.2"/>
<text text-anchor="start" x="118.5" y="-375.8" font-family="Helvetica,sans-Serif" font-weight="bold" font-size="11.00" fill="#000000">Facilities</text>
<text text-anchor="start" x="183.0219" y="-375.3" font-family="Helvetica,sans-Serif" font-size="11.00" fill="#000000">[table]</text>
<polygon fill="none" stroke="#000000" points="113.5,-348.2 113.5,-367.2 217.5,-367.2 217.5,-348.2 113.5,-348.2"/>
<text text-anchor="start" x="116.5" y="-354.3" font-family="Helvetica,sans-Serif" font-size="11.00" fill="#000000">...</text>
<polygon fill="#ffffff" stroke="transparent" points="113.5,-329.2 113.5,-348.2 217.5,-348.2 217.5,-329.2 113.5,-329.2"/>
<polygon fill="none" stroke="#000000" points="113.5,-329.2 113.5,-348.2 217.5,-348.2 217.5,-329.2 113.5,-329.2"/>
<polygon fill="#ffffff" stroke="transparent" points="114.5,-330.2 114.5,-347.2 145.5,-347.2 145.5,-330.2 114.5,-330.2"/>
<text text-anchor="start" x="116.5" y="-335.3" font-family="Helvetica,sans-Serif" font-size="11.00" fill="#000000"> &#160;</text>
<polygon fill="#ffffff" stroke="transparent" points="145.5,-330.2 145.5,-347.2 176.5,-347.2 176.5,-330.2 145.5,-330.2"/>
<text text-anchor="start" x="157.9431" y="-335.3" font-family="Helvetica,sans-Serif" font-size="11.00" fill="#000000"> &#160;</text>
<polygon fill="#ffffff" stroke="transparent" points="176.5,-330.2 176.5,-347.2 216.5,-347.2 216.5,-330.2 176.5,-330.2"/>
<text text-anchor="start" x="198.9053" y="-335.3" font-family="Helvetica,sans-Serif" font-size="11.00" fill="#000000">3 &gt;</text>
<polygon fill="#000000" stroke="#000000" points="145.5,-330.2 145.5,-347.2 145.5,-347.2 145.5,-330.2 145.5,-330.2"/>
<polygon fill="#000000" stroke="#000000" points="176.5,-330.2 176.5,-347.2 176.5,-347.2 176.5,-330.2 176.5,-330.2"/>
</a>
</g>
</g>
<!-- Hospitalizations&#45;&gt;Facilities -->
<g id="edge2" class="edge">
<title>Hospitalizations:w&#45;&gt;Facilities:e</title>
<path fill="none" stroke="#000000" d="M349.4442,-357.2C308.4871,-357.2 260.737,-357.2 217.5,-357.2"/>
<polygon fill="#000000" stroke="#000000" points="355.917,-357.2001 363.917,-360.8 359.917,-357.2 363.917,-357.2 363.917,-357.2 363.917,-357.2 359.917,-357.2 363.9169,-353.6 355.917,-357.2001 355.917,-357.2001"/>
<ellipse fill="none" stroke="#000000" cx="352.717" cy="-357.2001" rx="3.2" ry="3.2"/>
</g>
<!-- HospitalizationStatuses -->
<g id="node4" class="node">
<title>HospitalizationStatuses</title>
<g id="a_node4"><a xlink:href="../../tables/HospitalizationStatuses.html" xlink:title="HospitalizationStatuses" target="_top">
<polygon fill="#ffffff" stroke="transparent" points="8,-38.2 8,-282.2 323,-282.2 323,-38.2 8,-38.2"/>
<polygon fill="#f5f5f5" stroke="transparent" points="10.5,-257.2 10.5,-280.2 321.5,-280.2 321.5,-257.2 10.5,-257.2"/>
<polygon fill="none" stroke="#000000" points="10.5,-257.2 10.5,-280.2 321.5,-280.2 321.5,-257.2 10.5,-257.2"/>
<text text-anchor="start" x="15.5" y="-265.8" font-family="Helvetica,sans-Serif" font-weight="bold" font-size="11.00" fill="#000000">HospitalizationStatuses</text>
<text text-anchor="start" x="286.5437" y="-265.3" font-family="Helvetica,sans-Serif" font-size="11.00" fill="#000000">[table]</text>
<polygon fill="none" stroke="#000000" points="10.5,-235.2 10.5,-257.2 205.5,-257.2 205.5,-235.2 10.5,-235.2"/>
<image xlink:href="../../images/primaryKeys.png" width="11px" height="12px" preserveAspectRatio="xMinYMin meet" x="15.5" y="-252.2"/>
<text text-anchor="start" x="30.5" y="-242.3" font-family="Helvetica,sans-Serif" font-size="11.00" fill="#000000">Id</text>
<polygon fill="none" stroke="#000000" points="205.5,-235.2 205.5,-257.2 321.5,-257.2 321.5,-235.2 205.5,-235.2"/>
<text text-anchor="start" x="208.5" y="-242.9" font-family="Helvetica,sans-Serif" font-size="11.00" fill="#000000">int identity[4]</text>
<polygon fill="none" stroke="#000000" points="10.5,-213.2 10.5,-235.2 205.5,-235.2 205.5,-213.2 10.5,-213.2"/>
<text text-anchor="start" x="30.5" y="-220.3" font-family="Helvetica,sans-Serif" font-size="11.00" fill="#000000">Code</text>
<polygon fill="none" stroke="#000000" points="205.5,-213.2 205.5,-235.2 321.5,-235.2 321.5,-213.2 205.5,-213.2"/>
<text text-anchor="start" x="208.5" y="-220.9" font-family="Helvetica,sans-Serif" font-size="11.00" fill="#000000">nvarchar[40]</text>
<polygon fill="none" stroke="#000000" points="10.5,-191.2 10.5,-213.2 205.5,-213.2 205.5,-191.2 10.5,-191.2"/>
<text text-anchor="start" x="30.5" y="-198.3" font-family="Helvetica,sans-Serif" font-size="11.00" fill="#000000">Name</text>
<polygon fill="none" stroke="#000000" points="205.5,-191.2 205.5,-213.2 321.5,-213.2 321.5,-191.2 205.5,-191.2"/>
<text text-anchor="start" x="208.5" y="-198.9" font-family="Helvetica,sans-Serif" font-size="11.00" fill="#000000">nvarchar[200]</text>
<polygon fill="none" stroke="#000000" points="10.5,-169.2 10.5,-191.2 205.5,-191.2 205.5,-169.2 10.5,-169.2"/>
<text text-anchor="start" x="30.5" y="-176.3" font-family="Helvetica,sans-Serif" font-size="11.00" fill="#000000">BillingCode</text>
<polygon fill="none" stroke="#000000" points="205.5,-169.2 205.5,-191.2 321.5,-191.2 321.5,-169.2 205.5,-169.2"/>
<text text-anchor="start" x="208.4769" y="-176.9" font-family="Helvetica,sans-Serif" font-size="11.00" fill="#000000">nvarchar[2147483647]</text>
<polygon fill="none" stroke="#000000" points="10.5,-147.2 10.5,-169.2 205.5,-169.2 205.5,-147.2 10.5,-147.2"/>
<text text-anchor="start" x="30.5" y="-154.3" font-family="Helvetica,sans-Serif" font-size="11.00" fill="#000000">Color</text>
<polygon fill="none" stroke="#000000" points="205.5,-147.2 205.5,-169.2 321.5,-169.2 321.5,-147.2 205.5,-147.2"/>
<text text-anchor="start" x="208.5" y="-154.9" font-family="Helvetica,sans-Serif" font-size="11.00" fill="#000000">nvarchar[40]</text>
<polygon fill="none" stroke="#000000" points="10.5,-125.2 10.5,-147.2 205.5,-147.2 205.5,-125.2 10.5,-125.2"/>
<text text-anchor="start" x="30.5" y="-132.3" font-family="Helvetica,sans-Serif" font-size="11.00" fill="#000000">DisplayOrder</text>
<polygon fill="none" stroke="#000000" points="205.5,-125.2 205.5,-147.2 321.5,-147.2 321.5,-125.2 205.5,-125.2"/>
<text text-anchor="start" x="208.5" y="-132.9" font-family="Helvetica,sans-Serif" font-size="11.00" fill="#000000">int[4]</text>
<polygon fill="none" stroke="#000000" points="10.5,-103.2 10.5,-125.2 205.5,-125.2 205.5,-103.2 10.5,-103.2"/>
<text text-anchor="start" x="30.5" y="-110.3" font-family="Helvetica,sans-Serif" font-size="11.00" fill="#000000">CreatedAtUtc</text>
<polygon fill="none" stroke="#000000" points="205.5,-103.2 205.5,-125.2 321.5,-125.2 321.5,-103.2 205.5,-103.2"/>
<text text-anchor="start" x="208.5" y="-110.9" font-family="Helvetica,sans-Serif" font-size="11.00" fill="#000000">datetime2[16,7]</text>
<polygon fill="none" stroke="#000000" points="10.5,-81.2 10.5,-103.2 205.5,-103.2 205.5,-81.2 10.5,-81.2"/>
<text text-anchor="start" x="30.5" y="-88.3" font-family="Helvetica,sans-Serif" font-size="11.00" fill="#000000">UpdatedAtUtc</text>
<polygon fill="none" stroke="#000000" points="205.5,-81.2 205.5,-103.2 321.5,-103.2 321.5,-81.2 205.5,-81.2"/>
<text text-anchor="start" x="208.5" y="-88.9" font-family="Helvetica,sans-Serif" font-size="11.00" fill="#000000">datetime2[16,7]</text>
<polygon fill="none" stroke="#000000" points="10.5,-59.2 10.5,-81.2 205.5,-81.2 205.5,-59.2 10.5,-59.2"/>
<text text-anchor="start" x="30.5" y="-66.3" font-family="Helvetica,sans-Serif" font-size="11.00" fill="#000000">RowVersion</text>
<polygon fill="none" stroke="#000000" points="205.5,-59.2 205.5,-81.2 321.5,-81.2 321.5,-59.2 205.5,-59.2"/>
<text text-anchor="start" x="208.5" y="-66.9" font-family="Helvetica,sans-Serif" font-size="11.00" fill="#000000">timestamp[8]</text>
<polygon fill="#ffffff" stroke="transparent" points="10.5,-40.2 10.5,-59.2 321.5,-59.2 321.5,-40.2 10.5,-40.2"/>
<polygon fill="none" stroke="#000000" points="10.5,-40.2 10.5,-59.2 321.5,-59.2 321.5,-40.2 10.5,-40.2"/>
<polygon fill="#ffffff" stroke="transparent" points="11.5,-41.2 11.5,-58.2 117.5,-58.2 117.5,-41.2 11.5,-41.2"/>
<text text-anchor="start" x="13.5" y="-46.3" font-family="Helvetica,sans-Serif" font-size="11.00" fill="#000000">&lt; 0</text>
<polygon fill="#ffffff" stroke="transparent" points="117.5,-41.2 117.5,-58.2 214.5,-58.2 214.5,-41.2 117.5,-41.2"/>
<text text-anchor="start" x="162.9431" y="-46.3" font-family="Helvetica,sans-Serif" font-size="11.00" fill="#000000"> &#160;</text>
<polygon fill="#ffffff" stroke="transparent" points="214.5,-41.2 214.5,-58.2 320.5,-58.2 320.5,-41.2 214.5,-41.2"/>
<text text-anchor="start" x="302.9053" y="-46.3" font-family="Helvetica,sans-Serif" font-size="11.00" fill="#000000">3 &gt;</text>
<polygon fill="#000000" stroke="#000000" points="117.5,-41.2 117.5,-58.2 117.5,-58.2 117.5,-41.2 117.5,-41.2"/>
<polygon fill="#000000" stroke="#000000" points="214.5,-41.2 214.5,-58.2 214.5,-58.2 214.5,-41.2 214.5,-41.2"/>
<polygon fill="none" stroke="#000000" stroke-width="2" points="9,-39.2 9,-281.2 322,-281.2 322,-39.2 9,-39.2"/>
</a>
</g>
</g>
<!-- Hospitalizations&#45;&gt;HospitalizationStatuses -->
<g id="edge3" class="edge">
<title>Hospitalizations:w&#45;&gt;HospitalizationStatuses:e</title>
<path fill="none" stroke="#000000" d="M421.5634,-310.8545C398.622,-280.4162 363.4939,-246.2 321.5,-246.2"/>
<polygon fill="#000000" stroke="#000000" points="425.3829,-316.1846 427.1164,-324.7843 427.7128,-319.436 430.0427,-322.6874 430.0427,-322.6874 430.0427,-322.6874 427.7128,-319.436 432.969,-320.5904 425.3829,-316.1846 425.3829,-316.1846"/>
<ellipse fill="none" stroke="#000000" cx="423.5189" cy="-313.5835" rx="3.2" ry="3.2"/>
</g>
<!-- Patients -->
<g id="node5" class="node">
<title>Patients</title>
<g id="a_node5"><a xlink:href="../../tables/Patients.html" xlink:title="Patients" target="_top">
<polygon fill="#ffffff" stroke="transparent" points="116,-479.7 116,-540.7 215,-540.7 215,-479.7 116,-479.7"/>
<polygon fill="#f5f5f5" stroke="transparent" points="116.5,-517.2 116.5,-540.2 215.5,-540.2 215.5,-517.2 116.5,-517.2"/>
<polygon fill="none" stroke="#000000" points="116.5,-517.2 116.5,-540.2 215.5,-540.2 215.5,-517.2 116.5,-517.2"/>
<text text-anchor="start" x="121.5" y="-525.8" font-family="Helvetica,sans-Serif" font-weight="bold" font-size="11.00" fill="#000000">Patients</text>
<text text-anchor="start" x="181.0219" y="-525.3" font-family="Helvetica,sans-Serif" font-size="11.00" fill="#000000">[table]</text>
<polygon fill="none" stroke="#000000" points="116.5,-498.2 116.5,-517.2 215.5,-517.2 215.5,-498.2 116.5,-498.2"/>
<text text-anchor="start" x="119.5" y="-504.3" font-family="Helvetica,sans-Serif" font-size="11.00" fill="#000000">...</text>
<polygon fill="#ffffff" stroke="transparent" points="116.5,-479.2 116.5,-498.2 215.5,-498.2 215.5,-479.2 116.5,-479.2"/>
<polygon fill="none" stroke="#000000" points="116.5,-479.2 116.5,-498.2 215.5,-498.2 215.5,-479.2 116.5,-479.2"/>
<polygon fill="#ffffff" stroke="transparent" points="117.5,-480.2 117.5,-497.2 147.5,-497.2 147.5,-480.2 117.5,-480.2"/>
<text text-anchor="start" x="119.5" y="-485.3" font-family="Helvetica,sans-Serif" font-size="11.00" fill="#000000"> &#160;</text>
<polygon fill="#ffffff" stroke="transparent" points="147.5,-480.2 147.5,-497.2 176.5,-497.2 176.5,-480.2 147.5,-480.2"/>
<text text-anchor="start" x="158.9431" y="-485.3" font-family="Helvetica,sans-Serif" font-size="11.00" fill="#000000"> &#160;</text>
<polygon fill="#ffffff" stroke="transparent" points="176.5,-480.2 176.5,-497.2 214.5,-497.2 214.5,-480.2 176.5,-480.2"/>
<text text-anchor="start" x="196.9053" y="-485.3" font-family="Helvetica,sans-Serif" font-size="11.00" fill="#000000">3 &gt;</text>
<polygon fill="#000000" stroke="#000000" points="147.5,-480.2 147.5,-497.2 147.5,-497.2 147.5,-480.2 147.5,-480.2"/>
<polygon fill="#000000" stroke="#000000" points="176.5,-480.2 176.5,-497.2 176.5,-497.2 176.5,-480.2 176.5,-480.2"/>
</a>
</g>
</g>
<!-- Hospitalizations&#45;&gt;Patients -->
<g id="edge4" class="edge">
<title>Hospitalizations:w&#45;&gt;Patients:e</title>
<path fill="none" stroke="#000000" d="M410.905,-402.5356C367.7258,-446.6911 294.1976,-507.2 215.5,-507.2"/>
<polygon fill="#000000" stroke="#000000" points="415.4341,-397.782 423.559,-394.4733 418.1933,-394.886 420.9526,-391.99 420.9526,-391.99 420.9526,-391.99 418.1933,-394.886 418.3462,-389.5067 415.4341,-397.782 415.4341,-397.782"/>
<ellipse fill="none" stroke="#000000" cx="413.2267" cy="-400.0988" rx="3.2" ry="3.2"/>
</g>
<!-- HospitalizationStatusHistories -->
<g id="node6" class="node">
<title>HospitalizationStatusHistories</title>
<g id="a_node6"><a xlink:href="../../tables/HospitalizationStatusHistories.html" xlink:title="HospitalizationStatusHistories" target="_top">
<polygon fill="#ffffff" stroke="transparent" points="578,-215.7 578,-276.7 840,-276.7 840,-215.7 578,-215.7"/>
<polygon fill="#f5f5f5" stroke="transparent" points="578,-253.2 578,-276.2 840,-276.2 840,-253.2 578,-253.2"/>
<polygon fill="none" stroke="#000000" points="578,-253.2 578,-276.2 840,-276.2 840,-253.2 578,-253.2"/>
<text text-anchor="start" x="583" y="-261.8" font-family="Helvetica,sans-Serif" font-weight="bold" font-size="11.00" fill="#000000">HospitalizationStatusHistories</text>
<text text-anchor="start" x="805.5219" y="-261.3" font-family="Helvetica,sans-Serif" font-size="11.00" fill="#000000">[table]</text>
<polygon fill="none" stroke="#000000" points="578,-234.2 578,-253.2 840,-253.2 840,-234.2 578,-234.2"/>
<text text-anchor="start" x="581" y="-240.3" font-family="Helvetica,sans-Serif" font-size="11.00" fill="#000000">...</text>
<polygon fill="#ffffff" stroke="transparent" points="578,-215.2 578,-234.2 840,-234.2 840,-215.2 578,-215.2"/>
<polygon fill="none" stroke="#000000" points="578,-215.2 578,-234.2 840,-234.2 840,-215.2 578,-215.2"/>
<polygon fill="#ffffff" stroke="transparent" points="579,-216.2 579,-233.2 672,-233.2 672,-216.2 579,-216.2"/>
<text text-anchor="start" x="581" y="-221.3" font-family="Helvetica,sans-Serif" font-size="11.00" fill="#000000">&lt; 2</text>
<polygon fill="#ffffff" stroke="transparent" points="672,-216.2 672,-233.2 756,-233.2 756,-216.2 672,-216.2"/>
<text text-anchor="start" x="710.9431" y="-221.3" font-family="Helvetica,sans-Serif" font-size="11.00" fill="#000000"> &#160;</text>
<polygon fill="#ffffff" stroke="transparent" points="756,-216.2 756,-233.2 839,-233.2 839,-216.2 756,-216.2"/>
<text text-anchor="start" x="830.8862" y="-221.3" font-family="Helvetica,sans-Serif" font-size="11.00" fill="#000000"> &#160;</text>
<polygon fill="#000000" stroke="#000000" points="672,-216.2 672,-233.2 672,-233.2 672,-216.2 672,-216.2"/>
<polygon fill="#000000" stroke="#000000" points="756,-216.2 756,-233.2 756,-233.2 756,-216.2 756,-216.2"/>
</a>
</g>
</g>
<!-- HospitalizationStatusHistories&#45;&gt;Hospitalizations -->
<g id="edge5" class="edge">
<title>HospitalizationStatusHistories:w&#45;&gt;Hospitalizations:e</title>
<path fill="none" stroke="#000000" d="M571.9121,-286.3793C571.2724,-286.6517 570.635,-286.9252 570,-287.2 547.2712,-297.0344 523.4872,-310.2868 503.1766,-322.6148"/>
<polygon fill="#000000" stroke="#000000" points="578.219,-283.8311 586.9851,-284.172 581.9277,-282.3326 585.6364,-280.8342 585.6364,-280.8342 585.6364,-280.8342 581.9277,-282.3326 584.2878,-277.4963 578.219,-283.8311 578.219,-283.8311"/>
<ellipse fill="none" stroke="#000000" cx="575.252" cy="-285.0299" rx="3.2" ry="3.2"/>
</g>
<!-- HospitalizationStatusHistories&#45;&gt;HospitalizationStatuses -->
<g id="edge6" class="edge">
<title>HospitalizationStatusHistories:w&#45;&gt;HospitalizationStatuses:e</title>
<path fill="none" stroke="#000000" d="M555.0712,-246.2C483.9777,-246.2 398.442,-246.2 321.5,-246.2"/>
<polygon fill="#000000" stroke="#000000" points="561.5517,-246.2001 569.5517,-249.8 565.5517,-246.2 569.5517,-246.2 569.5517,-246.2 569.5517,-246.2 565.5517,-246.2 569.5517,-242.6 561.5517,-246.2001 561.5517,-246.2001"/>
<ellipse fill="none" stroke="#000000" cx="558.3517" cy="-246.2001" rx="3.2" ry="3.2"/>
</g>
<!-- Visits -->
<g id="node7" class="node">
<title>Visits</title>
<g id="a_node7"><a xlink:href="../../tables/Visits.html" xlink:title="Visits" target="_top">
<polygon fill="#ffffff" stroke="transparent" points="669.5,-297.7 669.5,-358.7 748.5,-358.7 748.5,-297.7 669.5,-297.7"/>
<polygon fill="#f5f5f5" stroke="transparent" points="670,-335.2 670,-358.2 749,-358.2 749,-335.2 670,-335.2"/>
<polygon fill="none" stroke="#000000" points="670,-335.2 670,-358.2 749,-358.2 749,-335.2 670,-335.2"/>
<text text-anchor="start" x="675" y="-343.8" font-family="Helvetica,sans-Serif" font-weight="bold" font-size="11.00" fill="#000000">Visits</text>
<text text-anchor="start" x="714.5219" y="-343.3" font-family="Helvetica,sans-Serif" font-size="11.00" fill="#000000">[table]</text>
<polygon fill="none" stroke="#000000" points="670,-316.2 670,-335.2 749,-335.2 749,-316.2 670,-316.2"/>
<text text-anchor="start" x="673" y="-322.3" font-family="Helvetica,sans-Serif" font-size="11.00" fill="#000000">...</text>
<polygon fill="#ffffff" stroke="transparent" points="670,-297.2 670,-316.2 749,-316.2 749,-297.2 670,-297.2"/>
<polygon fill="none" stroke="#000000" points="670,-297.2 670,-316.2 749,-316.2 749,-297.2 670,-297.2"/>
<polygon fill="#ffffff" stroke="transparent" points="671,-298.2 671,-315.2 700,-315.2 700,-298.2 671,-298.2"/>
<text text-anchor="start" x="673" y="-303.3" font-family="Helvetica,sans-Serif" font-size="11.00" fill="#000000">&lt; 1</text>
<polygon fill="#ffffff" stroke="transparent" points="700,-298.2 700,-315.2 720,-315.2 720,-298.2 700,-298.2"/>
<text text-anchor="start" x="706.9431" y="-303.3" font-family="Helvetica,sans-Serif" font-size="11.00" fill="#000000"> &#160;</text>
<polygon fill="#ffffff" stroke="transparent" points="720,-298.2 720,-315.2 748,-315.2 748,-298.2 720,-298.2"/>
<text text-anchor="start" x="730.4053" y="-303.3" font-family="Helvetica,sans-Serif" font-size="11.00" fill="#000000">4 &gt;</text>
<polygon fill="#000000" stroke="#000000" points="700,-298.2 700,-315.2 700,-315.2 700,-298.2 700,-298.2"/>
<polygon fill="#000000" stroke="#000000" points="720,-298.2 720,-315.2 720,-315.2 720,-298.2 720,-298.2"/>
</a>
</g>
</g>
<!-- Visits&#45;&gt;Hospitalizations -->
<g id="edge7" class="edge">
<title>Visits:w&#45;&gt;Hospitalizations:e</title>
<path fill="none" stroke="#000000" d="M655.388,-325.4222C615.3827,-326.6084 572.9466,-332.3755 537.1338,-338.6781"/>
<polygon fill="#000000" stroke="#000000" points="662.0009,-325.3217 670.0548,-328.7996 666.0005,-325.2609 670,-325.2 670,-325.2 670,-325.2 666.0005,-325.2609 669.9452,-321.6004 662.0009,-325.3217 662.0009,-325.3217"/>
<ellipse fill="none" stroke="#000000" cx="658.8013" cy="-325.3704" rx="3.2" ry="3.2"/>
</g>
<!-- staging.ProviderAssignments -->
<g id="node8" class="node">
<title>staging.ProviderAssignments</title>
<g id="a_node8"><a xlink:title="staging.ProviderAssignments">
<polygon fill="#ffffff" stroke="transparent" points="889,-378.7 889,-439.7 1144,-439.7 1144,-378.7 889,-378.7"/>
<polygon fill="#f5f5f5" stroke="transparent" points="889.5,-416.2 889.5,-439.2 1144.5,-439.2 1144.5,-416.2 889.5,-416.2"/>
<polygon fill="none" stroke="#000000" points="889.5,-416.2 889.5,-439.2 1144.5,-439.2 1144.5,-416.2 889.5,-416.2"/>
<text text-anchor="start" x="894.5" y="-424.8" font-family="Helvetica,sans-Serif" font-weight="bold" font-size="11.00" fill="#000000">staging.ProviderAssignments</text>
<text text-anchor="start" x="1110.0219" y="-424.3" font-family="Helvetica,sans-Serif" font-size="11.00" fill="#000000">[table]</text>
<polygon fill="none" stroke="#000000" points="889.5,-397.2 889.5,-416.2 1144.5,-416.2 1144.5,-397.2 889.5,-397.2"/>
<text text-anchor="start" x="892.5" y="-403.3" font-family="Helvetica,sans-Serif" font-size="11.00" fill="#000000">...</text>
<polygon fill="#ffffff" stroke="transparent" points="889.5,-378.2 889.5,-397.2 1144.5,-397.2 1144.5,-378.2 889.5,-378.2"/>
<polygon fill="none" stroke="#000000" points="889.5,-378.2 889.5,-397.2 1144.5,-397.2 1144.5,-378.2 889.5,-378.2"/>
<polygon fill="#ffffff" stroke="transparent" points="890.5,-379.2 890.5,-396.2 981.5,-396.2 981.5,-379.2 890.5,-379.2"/>
<text text-anchor="start" x="892.5" y="-384.3" font-family="Helvetica,sans-Serif" font-size="11.00" fill="#000000">&lt; 6</text>
<polygon fill="#ffffff" stroke="transparent" points="981.5,-379.2 981.5,-396.2 1062.5,-396.2 1062.5,-379.2 981.5,-379.2"/>
<text text-anchor="start" x="1018.9431" y="-384.3" font-family="Helvetica,sans-Serif" font-size="11.00" fill="#000000"> &#160;</text>
<polygon fill="#ffffff" stroke="transparent" points="1062.5,-379.2 1062.5,-396.2 1143.5,-396.2 1143.5,-379.2 1062.5,-379.2"/>
<text text-anchor="start" x="1135.3862" y="-384.3" font-family="Helvetica,sans-Serif" font-size="11.00" fill="#000000"> &#160;</text>
<polygon fill="#000000" stroke="#000000" points="981.5,-379.2 981.5,-396.2 981.5,-396.2 981.5,-379.2 981.5,-379.2"/>
<polygon fill="#000000" stroke="#000000" points="1062.5,-379.2 1062.5,-396.2 1062.5,-396.2 1062.5,-379.2 1062.5,-379.2"/>
</a>
</g>
</g>
<!-- staging.ProviderAssignments&#45;&gt;Hospitalizations -->
<g id="edge8" class="edge">
<title>staging.ProviderAssignments:w&#45;&gt;Hospitalizations:e</title>
<path fill="none" stroke="#000000" d="M866.1538,-396.1361C779.5355,-388.5082 668.612,-378.5681 570,-369.2 559.4137,-368.1943 548.3027,-367.1131 537.2961,-366.0263"/>
<polygon fill="#000000" stroke="#000000" points="872.6922,-396.7111 880.346,-400.9982 876.6768,-397.0616 880.6614,-397.412 880.6614,-397.412 880.6614,-397.412 876.6768,-397.0616 880.9768,-393.8259 872.6922,-396.7111 872.6922,-396.7111"/>
<ellipse fill="none" stroke="#000000" cx="869.5045" cy="-396.4307" rx="3.2" ry="3.2"/>
</g>
<!-- staging.ProviderAssignments&#45;&gt;HospitalizationStatuses -->
<g id="edge9" class="edge">
<title>staging.ProviderAssignments:w&#45;&gt;HospitalizationStatuses:e</title>
<path fill="none" stroke="#000000" d="M993.2452,-361.5046C966.117,-311.9649 916.1389,-237.2957 848,-205.2 736.2238,-152.5497 693.1428,-195.1095 570,-205.2 514.2182,-209.7708 377.4688,-246.2 321.5,-246.2"/>
<polygon fill="#000000" stroke="#000000" points="996.3706,-367.3815 996.9486,-376.1351 998.2488,-370.9131 1000.127,-374.4447 1000.127,-374.4447 1000.127,-374.4447 998.2488,-370.9131 1003.3055,-372.7543 996.3706,-367.3815 996.3706,-367.3815"/>
<ellipse fill="none" stroke="#000000" cx="994.868" cy="-364.5562" rx="3.2" ry="3.2"/>
</g>
<!-- staging.ProviderAssignments&#45;&gt;Patients -->
<g id="edge11" class="edge">
<title>staging.ProviderAssignments:w&#45;&gt;Patients:e</title>
<path fill="none" stroke="#000000" d="M981.7222,-455.3782C951.1029,-491.8838 902.9174,-540.0901 848,-561.2 584.6521,-662.4293 497.6338,-507.2 215.5,-507.2"/>
<polygon fill="#000000" stroke="#000000" points="985.9701,-450.1805 993.8201,-446.2642 988.5014,-447.0833 991.0326,-443.986 991.0326,-443.986 991.0326,-443.986 988.5014,-447.0833 988.2451,-441.7079 985.9701,-450.1805 985.9701,-450.1805"/>
<ellipse fill="none" stroke="#000000" cx="983.9451" cy="-452.6583" rx="3.2" ry="3.2"/>
</g>
<!-- staging.ProviderAssignments&#45;&gt;Visits -->
<g id="edge13" class="edge">
<title>staging.ProviderAssignments:w&#45;&gt;Visits:e</title>
<path fill="none" stroke="#000000" d="M933.6514,-368.9217C881.841,-347.3638 813.0096,-325.2 749,-325.2"/>
<polygon fill="#000000" stroke="#000000" points="939.76,-371.5294 945.7042,-377.9813 943.4388,-373.0999 947.1176,-374.6703 947.1176,-374.6703 947.1176,-374.6703 943.4388,-373.0999 948.531,-371.3594 939.76,-371.5294 939.76,-371.5294"/>
<ellipse fill="none" stroke="#000000" cx="936.8169" cy="-370.273" rx="3.2" ry="3.2"/>
</g>
<!-- Providers -->
<g id="node9" class="node">
<title>Providers</title>
<g id="a_node9"><a xlink:href="../../tables/Providers.html" xlink:title="Providers" target="_top">
<polygon fill="#ffffff" stroke="transparent" points="654.5,-407.7 654.5,-468.7 763.5,-468.7 763.5,-407.7 654.5,-407.7"/>
<polygon fill="#f5f5f5" stroke="transparent" points="655,-445.2 655,-468.2 764,-468.2 764,-445.2 655,-445.2"/>
<polygon fill="none" stroke="#000000" points="655,-445.2 655,-468.2 764,-468.2 764,-445.2 655,-445.2"/>
<text text-anchor="start" x="660" y="-453.8" font-family="Helvetica,sans-Serif" font-weight="bold" font-size="11.00" fill="#000000">Providers</text>
<text text-anchor="start" x="729.5219" y="-453.3" font-family="Helvetica,sans-Serif" font-size="11.00" fill="#000000">[table]</text>
<polygon fill="none" stroke="#000000" points="655,-426.2 655,-445.2 764,-445.2 764,-426.2 655,-426.2"/>
<text text-anchor="start" x="658" y="-432.3" font-family="Helvetica,sans-Serif" font-size="11.00" fill="#000000">...</text>
<polygon fill="#ffffff" stroke="transparent" points="655,-407.2 655,-426.2 764,-426.2 764,-407.2 655,-407.2"/>
<polygon fill="none" stroke="#000000" points="655,-407.2 655,-426.2 764,-426.2 764,-407.2 655,-407.2"/>
<polygon fill="#ffffff" stroke="transparent" points="656,-408.2 656,-425.2 695,-425.2 695,-408.2 656,-408.2"/>
<text text-anchor="start" x="658" y="-413.3" font-family="Helvetica,sans-Serif" font-size="11.00" fill="#000000">&lt; 1</text>
<polygon fill="#ffffff" stroke="transparent" points="695,-408.2 695,-425.2 725,-425.2 725,-408.2 695,-408.2"/>
<text text-anchor="start" x="706.9431" y="-413.3" font-family="Helvetica,sans-Serif" font-size="11.00" fill="#000000"> &#160;</text>
<polygon fill="#ffffff" stroke="transparent" points="725,-408.2 725,-425.2 763,-425.2 763,-408.2 725,-408.2"/>
<text text-anchor="start" x="745.4053" y="-413.3" font-family="Helvetica,sans-Serif" font-size="11.00" fill="#000000">3 &gt;</text>
<polygon fill="#000000" stroke="#000000" points="695,-408.2 695,-425.2 695,-425.2 695,-408.2 695,-408.2"/>
<polygon fill="#000000" stroke="#000000" points="725,-408.2 725,-425.2 725,-425.2 725,-408.2 725,-408.2"/>
</a>
</g>
</g>
<!-- staging.ProviderAssignments&#45;&gt;Providers -->
<g id="edge10" class="edge">
<title>staging.ProviderAssignments:w&#45;&gt;Providers:e</title>
<path fill="none" stroke="#000000" d="M866.0613,-426.0638C832.5334,-429.9555 797.1095,-433.4391 764,-435.2"/>
<polygon fill="#000000" stroke="#000000" points="872.8634,-425.2565 881.232,-427.8884 876.8355,-424.785 880.8076,-424.3135 880.8076,-424.3135 880.8076,-424.3135 876.8355,-424.785 880.3833,-420.7386 872.8634,-425.2565 872.8634,-425.2565"/>
<ellipse fill="none" stroke="#000000" cx="869.6857" cy="-425.6337" rx="3.2" ry="3.2"/>
</g>
<!-- staging.ProviderAssignments&#45;&gt;Providers -->
<g id="edge12" class="edge">
<title>staging.ProviderAssignments:w&#45;&gt;Providers:e</title>
<path fill="none" stroke="#000000" d="M866.0613,-434.1505C832.5334,-436.4664 797.1095,-437.2544 764,-435.2"/>
<polygon fill="#000000" stroke="#000000" points="872.8308,-433.6345 881.0813,-436.6158 876.8192,-433.3304 880.8076,-433.0263 880.8076,-433.0263 880.8076,-433.0263 876.8192,-433.3304 880.5339,-429.4367 872.8308,-433.6345 872.8308,-433.6345"/>
<ellipse fill="none" stroke="#000000" cx="869.64" cy="-433.8777" rx="3.2" ry="3.2"/>
</g>
</g>
</svg>
