<?xml version="1.0" encoding="UTF-8" standalone="no"?>
<!DOCTYPE svg PUBLIC "-//W3C//DTD SVG 1.1//EN"
 "http://www.w3.org/Graphics/SVG/1.1/DTD/svg11.dtd">
<!-- Generated by graphviz version 2.40.1 (20161225.0304)
 -->
<!-- Title: oneDegreeRelationshipsDiagram Pages: 1 -->
<svg width="562pt" height="325pt"
 viewBox="0.00 0.00 562.00 325.20" xmlns="http://www.w3.org/2000/svg" xmlns:xlink="http://www.w3.org/1999/xlink">
<g id="graph0" class="graph" transform="scale(1 1) rotate(0) translate(4 321.2)">
<title>oneDegreeRelationshipsDiagram</title>
<polygon fill="#ffffff" stroke="transparent" points="-4,4 -4,-321.2 558,-321.2 558,4 -4,4"/>
<text text-anchor="middle" x="72.4936" y="-7.3" font-family="Helvetica,sans-Serif" font-size="11.00" fill="#000000">Generated by SchemaSpy</text>
<!-- HospitalizationInsurances -->
<g id="node1" class="node">
<title>HospitalizationInsurances</title>
<g id="a_node1"><a xlink:href="../../tables/HospitalizationInsurances.html" xlink:title="HospitalizationInsurances" target="_top">
<polygon fill="#ffffff" stroke="transparent" points="250,-51.7 250,-251.7 546,-251.7 546,-51.7 250,-51.7"/>
<polygon fill="#f5f5f5" stroke="transparent" points="252,-226.7 252,-249.7 544,-249.7 544,-226.7 252,-226.7"/>
<polygon fill="none" stroke="#000000" points="252,-226.7 252,-249.7 544,-249.7 544,-226.7 252,-226.7"/>
<text text-anchor="start" x="257" y="-235.3" font-family="Helvetica,sans-Serif" font-weight="bold" font-size="11.00" fill="#000000">HospitalizationInsurances</text>
<text text-anchor="start" x="509.0437" y="-234.8" font-family="Helvetica,sans-Serif" font-size="11.00" fill="#000000">[table]</text>
<polygon fill="none" stroke="#000000" points="252,-204.7 252,-226.7 463,-226.7 463,-204.7 252,-204.7"/>
<image xlink:href="../../images/primaryKeys.png" width="11px" height="12px" preserveAspectRatio="xMinYMin meet" x="257" y="-221.7"/>
<text text-anchor="start" x="272" y="-211.8" font-family="Helvetica,sans-Serif" font-size="11.00" fill="#000000">Id</text>
<polygon fill="none" stroke="#000000" points="463,-204.7 463,-226.7 544,-226.7 544,-204.7 463,-204.7"/>
<text text-anchor="start" x="466" y="-212.4" font-family="Helvetica,sans-Serif" font-size="11.00" fill="#000000">int identity[4]</text>
<polygon fill="#ffffff" stroke="transparent" points="252,-182.7 252,-204.7 463,-204.7 463,-182.7 252,-182.7"/>
<polygon fill="none" stroke="#000000" points="252,-182.7 252,-204.7 463,-204.7 463,-182.7 252,-182.7"/>
<image xlink:href="../../images/foreignKeys.png" width="11px" height="12px" preserveAspectRatio="xMinYMin meet" x="257" y="-199.7"/>
<text text-anchor="start" x="272" y="-189.8" font-family="Helvetica,sans-Serif" font-size="11.00" fill="#000000">HospitalizationId</text>
<polygon fill="none" stroke="#000000" points="463,-182.7 463,-204.7 544,-204.7 544,-182.7 463,-182.7"/>
<text text-anchor="start" x="466" y="-190.4" font-family="Helvetica,sans-Serif" font-size="11.00" fill="#000000">int[4]</text>
<polygon fill="#ffffff" stroke="transparent" points="252,-160.7 252,-182.7 463,-182.7 463,-160.7 252,-160.7"/>
<polygon fill="none" stroke="#000000" points="252,-160.7 252,-182.7 463,-182.7 463,-160.7 252,-160.7"/>
<image xlink:href="../../images/foreignKeys.png" width="11px" height="12px" preserveAspectRatio="xMinYMin meet" x="257" y="-177.7"/>
<text text-anchor="start" x="272" y="-167.8" font-family="Helvetica,sans-Serif" font-size="11.00" fill="#000000">InsuranceId</text>
<polygon fill="none" stroke="#000000" points="463,-160.7 463,-182.7 544,-182.7 544,-160.7 463,-160.7"/>
<text text-anchor="start" x="466" y="-168.4" font-family="Helvetica,sans-Serif" font-size="11.00" fill="#000000">int[4]</text>
<polygon fill="none" stroke="#000000" points="252,-138.7 252,-160.7 463,-160.7 463,-138.7 252,-138.7"/>
<text text-anchor="start" x="272" y="-145.8" font-family="Helvetica,sans-Serif" font-size="11.00" fill="#000000">StartDate</text>
<polygon fill="none" stroke="#000000" points="463,-138.7 463,-160.7 544,-160.7 544,-138.7 463,-138.7"/>
<text text-anchor="start" x="465.5968" y="-146.4" font-family="Helvetica,sans-Serif" font-size="11.00" fill="#000000">datetime2[16,7]</text>
<polygon fill="none" stroke="#000000" points="252,-116.7 252,-138.7 463,-138.7 463,-116.7 252,-116.7"/>
<text text-anchor="start" x="272" y="-123.8" font-family="Helvetica,sans-Serif" font-size="11.00" fill="#000000">CreatedAtUtc</text>
<polygon fill="none" stroke="#000000" points="463,-116.7 463,-138.7 544,-138.7 544,-116.7 463,-116.7"/>
<text text-anchor="start" x="465.5968" y="-124.4" font-family="Helvetica,sans-Serif" font-size="11.00" fill="#000000">datetime2[16,7]</text>
<polygon fill="none" stroke="#000000" points="252,-94.7 252,-116.7 463,-116.7 463,-94.7 252,-94.7"/>
<text text-anchor="start" x="272" y="-101.8" font-family="Helvetica,sans-Serif" font-size="11.00" fill="#000000">UpdatedAtUtc</text>
<polygon fill="none" stroke="#000000" points="463,-94.7 463,-116.7 544,-116.7 544,-94.7 463,-94.7"/>
<text text-anchor="start" x="465.5968" y="-102.4" font-family="Helvetica,sans-Serif" font-size="11.00" fill="#000000">datetime2[16,7]</text>
<polygon fill="none" stroke="#000000" points="252,-72.7 252,-94.7 463,-94.7 463,-72.7 252,-72.7"/>
<text text-anchor="start" x="272" y="-79.8" font-family="Helvetica,sans-Serif" font-size="11.00" fill="#000000">RowVersion</text>
<polygon fill="none" stroke="#000000" points="463,-72.7 463,-94.7 544,-94.7 544,-72.7 463,-72.7"/>
<text text-anchor="start" x="466" y="-80.4" font-family="Helvetica,sans-Serif" font-size="11.00" fill="#000000">timestamp[8]</text>
<polygon fill="#ffffff" stroke="transparent" points="252,-53.7 252,-72.7 544,-72.7 544,-53.7 252,-53.7"/>
<polygon fill="none" stroke="#000000" points="252,-53.7 252,-72.7 544,-72.7 544,-53.7 252,-53.7"/>
<polygon fill="#ffffff" stroke="transparent" points="253,-54.7 253,-71.7 353,-71.7 353,-54.7 253,-54.7"/>
<text text-anchor="start" x="255" y="-59.8" font-family="Helvetica,sans-Serif" font-size="11.00" fill="#000000">&lt; 2</text>
<polygon fill="#ffffff" stroke="transparent" points="353,-54.7 353,-71.7 444,-71.7 444,-54.7 353,-54.7"/>
<text text-anchor="start" x="395.4431" y="-59.8" font-family="Helvetica,sans-Serif" font-size="11.00" fill="#000000"> &#160;</text>
<polygon fill="#ffffff" stroke="transparent" points="444,-54.7 444,-71.7 543,-71.7 543,-54.7 444,-54.7"/>
<text text-anchor="start" x="525.4053" y="-59.8" font-family="Helvetica,sans-Serif" font-size="11.00" fill="#000000">0 &gt;</text>
<polygon fill="#000000" stroke="#000000" points="353,-54.7 353,-71.7 353,-71.7 353,-54.7 353,-54.7"/>
<polygon fill="#000000" stroke="#000000" points="444,-54.7 444,-71.7 444,-71.7 444,-54.7 444,-54.7"/>
<polygon fill="none" stroke="#000000" stroke-width="2" points="251,-52.7 251,-250.7 545,-250.7 545,-52.7 251,-52.7"/>
</a>
</g>
</g>
<!-- Hospitalizations -->
<g id="node2" class="node">
<title>Hospitalizations</title>
<g id="a_node2"><a xlink:href="../../tables/Hospitalizations.html" xlink:title="Hospitalizations" target="_top">
<polygon fill="#ffffff" stroke="transparent" points="8,-142.2 8,-313.2 201,-313.2 201,-142.2 8,-142.2"/>
<polygon fill="#f5f5f5" stroke="transparent" points="8.5,-289.7 8.5,-312.7 201.5,-312.7 201.5,-289.7 8.5,-289.7"/>
<polygon fill="none" stroke="#000000" points="8.5,-289.7 8.5,-312.7 201.5,-312.7 201.5,-289.7 8.5,-289.7"/>
<text text-anchor="start" x="13.5" y="-298.3" font-family="Helvetica,sans-Serif" font-weight="bold" font-size="11.00" fill="#000000">Hospitalizations</text>
<text text-anchor="start" x="166.5437" y="-297.8" font-family="Helvetica,sans-Serif" font-size="11.00" fill="#000000">[table]</text>
<polygon fill="none" stroke="#000000" points="8.5,-267.7 8.5,-289.7 201.5,-289.7 201.5,-267.7 8.5,-267.7"/>
<image xlink:href="../../images/primaryKeys.png" width="11px" height="12px" preserveAspectRatio="xMinYMin meet" x="13.5" y="-284.7"/>
<text text-anchor="start" x="28.5" y="-274.8" font-family="Helvetica,sans-Serif" font-size="11.00" fill="#000000">Id</text>
<polygon fill="#ffffff" stroke="transparent" points="8.5,-245.7 8.5,-267.7 201.5,-267.7 201.5,-245.7 8.5,-245.7"/>
<polygon fill="none" stroke="#000000" points="8.5,-245.7 8.5,-267.7 201.5,-267.7 201.5,-245.7 8.5,-245.7"/>
<image xlink:href="../../images/foreignKeys.png" width="11px" height="12px" preserveAspectRatio="xMinYMin meet" x="13.5" y="-262.7"/>
<text text-anchor="start" x="28.5" y="-252.8" font-family="Helvetica,sans-Serif" font-size="11.00" fill="#000000">PatientId</text>
<polygon fill="#ffffff" stroke="transparent" points="8.5,-223.7 8.5,-245.7 201.5,-245.7 201.5,-223.7 8.5,-223.7"/>
<polygon fill="none" stroke="#000000" points="8.5,-223.7 8.5,-245.7 201.5,-245.7 201.5,-223.7 8.5,-223.7"/>
<text text-anchor="start" x="28.5" y="-230.8" font-family="Helvetica,sans-Serif" font-size="11.00" fill="#000000">CaseId</text>
<polygon fill="#ffffff" stroke="transparent" points="8.5,-201.7 8.5,-223.7 201.5,-223.7 201.5,-201.7 8.5,-201.7"/>
<polygon fill="none" stroke="#000000" points="8.5,-201.7 8.5,-223.7 201.5,-223.7 201.5,-201.7 8.5,-201.7"/>
<image xlink:href="../../images/foreignKeys.png" width="11px" height="12px" preserveAspectRatio="xMinYMin meet" x="13.5" y="-218.7"/>
<text text-anchor="start" x="28.5" y="-208.8" font-family="Helvetica,sans-Serif" font-size="11.00" fill="#000000">FacilityId</text>
<polygon fill="#ffffff" stroke="transparent" points="8.5,-179.7 8.5,-201.7 201.5,-201.7 201.5,-179.7 8.5,-179.7"/>
<polygon fill="none" stroke="#000000" points="8.5,-179.7 8.5,-201.7 201.5,-201.7 201.5,-179.7 8.5,-179.7"/>
<image xlink:href="../../images/foreignKeys.png" width="11px" height="12px" preserveAspectRatio="xMinYMin meet" x="13.5" y="-196.7"/>
<text text-anchor="start" x="28.5" y="-186.8" font-family="Helvetica,sans-Serif" font-size="11.00" fill="#000000">HospitalizationStatusId</text>
<polygon fill="none" stroke="#000000" points="8.5,-160.7 8.5,-179.7 201.5,-179.7 201.5,-160.7 8.5,-160.7"/>
<text text-anchor="start" x="11.5" y="-166.8" font-family="Helvetica,sans-Serif" font-size="11.00" fill="#000000">...</text>
<polygon fill="#ffffff" stroke="transparent" points="8.5,-141.7 8.5,-160.7 201.5,-160.7 201.5,-141.7 8.5,-141.7"/>
<polygon fill="none" stroke="#000000" points="8.5,-141.7 8.5,-160.7 201.5,-160.7 201.5,-141.7 8.5,-141.7"/>
<polygon fill="#ffffff" stroke="transparent" points="9.5,-142.7 9.5,-159.7 76.5,-159.7 76.5,-142.7 9.5,-142.7"/>
<text text-anchor="start" x="11.5" y="-147.8" font-family="Helvetica,sans-Serif" font-size="11.00" fill="#000000">&lt; 3</text>
<polygon fill="#ffffff" stroke="transparent" points="76.5,-142.7 76.5,-159.7 134.5,-159.7 134.5,-142.7 76.5,-142.7"/>
<text text-anchor="start" x="102.4431" y="-147.8" font-family="Helvetica,sans-Serif" font-size="11.00" fill="#000000"> &#160;</text>
<polygon fill="#ffffff" stroke="transparent" points="134.5,-142.7 134.5,-159.7 200.5,-159.7 200.5,-142.7 134.5,-142.7"/>
<text text-anchor="start" x="182.9053" y="-147.8" font-family="Helvetica,sans-Serif" font-size="11.00" fill="#000000">4 &gt;</text>
<polygon fill="#000000" stroke="#000000" points="76.5,-142.7 76.5,-159.7 76.5,-159.7 76.5,-142.7 76.5,-142.7"/>
<polygon fill="#000000" stroke="#000000" points="134.5,-142.7 134.5,-159.7 134.5,-159.7 134.5,-142.7 134.5,-142.7"/>
</a>
</g>
</g>
<!-- HospitalizationInsurances&#45;&gt;Hospitalizations -->
<g id="edge1" class="edge">
<title>HospitalizationInsurances:w&#45;&gt;Hospitalizations:e</title>
<path fill="none" stroke="#000000" d="M238.1216,-198.032C216.76,-215.3534 239.4344,-278.7 201.5,-278.7"/>
<polygon fill="#000000" stroke="#000000" points="244.3634,-196.0837 253.0727,-197.1365 248.1817,-194.8919 252,-193.7 252,-193.7 252,-193.7 248.1817,-194.8919 250.9273,-190.2635 244.3634,-196.0837 244.3634,-196.0837"/>
<ellipse fill="none" stroke="#000000" cx="241.3087" cy="-197.0372" rx="3.2" ry="3.2"/>
</g>
<!-- Insurances -->
<g id="node3" class="node">
<title>Insurances</title>
<g id="a_node3"><a xlink:href="../../tables/Insurances.html" xlink:title="Insurances" target="_top">
<polygon fill="#ffffff" stroke="transparent" points="28,-38.2 28,-121.2 181,-121.2 181,-38.2 28,-38.2"/>
<polygon fill="#f5f5f5" stroke="transparent" points="28.5,-97.7 28.5,-120.7 181.5,-120.7 181.5,-97.7 28.5,-97.7"/>
<polygon fill="none" stroke="#000000" points="28.5,-97.7 28.5,-120.7 181.5,-120.7 181.5,-97.7 28.5,-97.7"/>
<text text-anchor="start" x="33.5" y="-106.3" font-family="Helvetica,sans-Serif" font-weight="bold" font-size="11.00" fill="#000000">Insurances</text>
<text text-anchor="start" x="146.5437" y="-105.8" font-family="Helvetica,sans-Serif" font-size="11.00" fill="#000000">[table]</text>
<polygon fill="none" stroke="#000000" points="28.5,-75.7 28.5,-97.7 181.5,-97.7 181.5,-75.7 28.5,-75.7"/>
<image xlink:href="../../images/primaryKeys.png" width="11px" height="12px" preserveAspectRatio="xMinYMin meet" x="33.5" y="-92.7"/>
<text text-anchor="start" x="48.5" y="-82.8" font-family="Helvetica,sans-Serif" font-size="11.00" fill="#000000">Id</text>
<polygon fill="none" stroke="#000000" points="28.5,-56.7 28.5,-75.7 181.5,-75.7 181.5,-56.7 28.5,-56.7"/>
<text text-anchor="start" x="31.5" y="-62.8" font-family="Helvetica,sans-Serif" font-size="11.00" fill="#000000">...</text>
<polygon fill="#ffffff" stroke="transparent" points="28.5,-37.7 28.5,-56.7 181.5,-56.7 181.5,-37.7 28.5,-37.7"/>
<polygon fill="none" stroke="#000000" points="28.5,-37.7 28.5,-56.7 181.5,-56.7 181.5,-37.7 28.5,-37.7"/>
<polygon fill="#ffffff" stroke="transparent" points="29.5,-38.7 29.5,-55.7 77.5,-55.7 77.5,-38.7 29.5,-38.7"/>
<text text-anchor="start" x="31.5" y="-43.8" font-family="Helvetica,sans-Serif" font-size="11.00" fill="#000000"> &#160;</text>
<polygon fill="#ffffff" stroke="transparent" points="77.5,-38.7 77.5,-55.7 124.5,-55.7 124.5,-38.7 77.5,-38.7"/>
<text text-anchor="start" x="97.9431" y="-43.8" font-family="Helvetica,sans-Serif" font-size="11.00" fill="#000000"> &#160;</text>
<polygon fill="#ffffff" stroke="transparent" points="124.5,-38.7 124.5,-55.7 180.5,-55.7 180.5,-38.7 124.5,-38.7"/>
<text text-anchor="start" x="162.9053" y="-43.8" font-family="Helvetica,sans-Serif" font-size="11.00" fill="#000000">1 &gt;</text>
<polygon fill="#000000" stroke="#000000" points="77.5,-38.7 77.5,-55.7 77.5,-55.7 77.5,-38.7 77.5,-38.7"/>
<polygon fill="#000000" stroke="#000000" points="124.5,-38.7 124.5,-55.7 124.5,-55.7 124.5,-38.7 124.5,-38.7"/>
</a>
</g>
</g>
<!-- HospitalizationInsurances&#45;&gt;Insurances -->
<g id="edge2" class="edge">
<title>HospitalizationInsurances:w&#45;&gt;Insurances:e</title>
<path fill="none" stroke="#000000" d="M237.6597,-168.4717C208.3484,-152.9454 224.8293,-86.7 181.5,-86.7"/>
<polygon fill="#000000" stroke="#000000" points="244.1953,-169.943 251.2093,-175.2121 248.0977,-170.8215 252,-171.7 252,-171.7 252,-171.7 248.0977,-170.8215 252.7907,-168.1879 244.1953,-169.943 244.1953,-169.943"/>
<ellipse fill="none" stroke="#000000" cx="241.0735" cy="-169.2401" rx="3.2" ry="3.2"/>
</g>
</g>
</svg>
