<?xml version="1.0" encoding="UTF-8" standalone="no"?>
<!DOCTYPE svg PUBLIC "-//W3C//DTD SVG 1.1//EN"
 "http://www.w3.org/Graphics/SVG/1.1/DTD/svg11.dtd">
<!-- Generated by graphviz version 2.40.1 (20161225.0304)
 -->
<!-- Title: oneDegreeRelationshipsDiagram Pages: 1 -->
<svg width="873pt" height="463pt"
 viewBox="0.00 0.00 873.00 462.70" xmlns="http://www.w3.org/2000/svg" xmlns:xlink="http://www.w3.org/1999/xlink">
<g id="graph0" class="graph" transform="scale(1 1) rotate(0) translate(4 458.7)">
<title>oneDegreeRelationshipsDiagram</title>
<polygon fill="#ffffff" stroke="transparent" points="-4,4 -4,-458.7 869,-458.7 869,4 -4,4"/>
<text text-anchor="middle" x="72.4936" y="-7.3" font-family="Helvetica,sans-Serif" font-size="11.00" fill="#000000">Generated by SchemaSpy</text>
<!-- Providers -->
<g id="node1" class="node">
<title>Providers</title>
<g id="a_node1"><a xlink:href="../../tables/Providers.html" xlink:title="Providers" target="_top">
<polygon fill="#ffffff" stroke="transparent" points="284,-38.2 284,-304.2 501,-304.2 501,-38.2 284,-38.2"/>
<polygon fill="#f5f5f5" stroke="transparent" points="286.5,-279.2 286.5,-302.2 499.5,-302.2 499.5,-279.2 286.5,-279.2"/>
<polygon fill="none" stroke="#000000" points="286.5,-279.2 286.5,-302.2 499.5,-302.2 499.5,-279.2 286.5,-279.2"/>
<text text-anchor="start" x="291.5" y="-287.8" font-family="Helvetica,sans-Serif" font-weight="bold" font-size="11.00" fill="#000000">Providers</text>
<text text-anchor="start" x="464.5437" y="-287.3" font-family="Helvetica,sans-Serif" font-size="11.00" fill="#000000">[table]</text>
<polygon fill="none" stroke="#000000" points="286.5,-257.2 286.5,-279.2 418.5,-279.2 418.5,-257.2 286.5,-257.2"/>
<image xlink:href="../../images/primaryKeys.png" width="11px" height="12px" preserveAspectRatio="xMinYMin meet" x="291.5" y="-274.2"/>
<text text-anchor="start" x="306.5" y="-264.3" font-family="Helvetica,sans-Serif" font-size="11.00" fill="#000000">Id</text>
<polygon fill="none" stroke="#000000" points="418.5,-257.2 418.5,-279.2 499.5,-279.2 499.5,-257.2 418.5,-257.2"/>
<text text-anchor="start" x="421.5" y="-264.9" font-family="Helvetica,sans-Serif" font-size="11.00" fill="#000000">int identity[4]</text>
<polygon fill="none" stroke="#000000" points="286.5,-235.2 286.5,-257.2 418.5,-257.2 418.5,-235.2 286.5,-235.2"/>
<text text-anchor="start" x="306.5" y="-242.3" font-family="Helvetica,sans-Serif" font-size="11.00" fill="#000000">FirstName</text>
<polygon fill="none" stroke="#000000" points="418.5,-235.2 418.5,-257.2 499.5,-257.2 499.5,-235.2 418.5,-235.2"/>
<text text-anchor="start" x="421.5" y="-242.9" font-family="Helvetica,sans-Serif" font-size="11.00" fill="#000000">nvarchar[100]</text>
<polygon fill="none" stroke="#000000" points="286.5,-213.2 286.5,-235.2 418.5,-235.2 418.5,-213.2 286.5,-213.2"/>
<text text-anchor="start" x="306.5" y="-220.3" font-family="Helvetica,sans-Serif" font-size="11.00" fill="#000000">LastName</text>
<polygon fill="none" stroke="#000000" points="418.5,-213.2 418.5,-235.2 499.5,-235.2 499.5,-213.2 418.5,-213.2"/>
<text text-anchor="start" x="421.5" y="-220.9" font-family="Helvetica,sans-Serif" font-size="11.00" fill="#000000">nvarchar[100]</text>
<polygon fill="none" stroke="#000000" points="286.5,-191.2 286.5,-213.2 418.5,-213.2 418.5,-191.2 286.5,-191.2"/>
<text text-anchor="start" x="306.5" y="-198.3" font-family="Helvetica,sans-Serif" font-size="11.00" fill="#000000">TitleExtension</text>
<polygon fill="none" stroke="#000000" points="418.5,-191.2 418.5,-213.2 499.5,-213.2 499.5,-191.2 418.5,-191.2"/>
<text text-anchor="start" x="421.5" y="-198.9" font-family="Helvetica,sans-Serif" font-size="11.00" fill="#000000">nvarchar[20]</text>
<polygon fill="#ffffff" stroke="transparent" points="286.5,-169.2 286.5,-191.2 418.5,-191.2 418.5,-169.2 286.5,-169.2"/>
<polygon fill="none" stroke="#000000" points="286.5,-169.2 286.5,-191.2 418.5,-191.2 418.5,-169.2 286.5,-169.2"/>
<image xlink:href="../../images/foreignKeys.png" width="11px" height="12px" preserveAspectRatio="xMinYMin meet" x="291.5" y="-186.2"/>
<text text-anchor="start" x="306.5" y="-176.3" font-family="Helvetica,sans-Serif" font-size="11.00" fill="#000000">ProviderTypeId</text>
<polygon fill="none" stroke="#000000" points="418.5,-169.2 418.5,-191.2 499.5,-191.2 499.5,-169.2 418.5,-169.2"/>
<text text-anchor="start" x="421.5" y="-176.9" font-family="Helvetica,sans-Serif" font-size="11.00" fill="#000000">int[4]</text>
<polygon fill="none" stroke="#000000" points="286.5,-147.2 286.5,-169.2 418.5,-169.2 418.5,-147.2 286.5,-147.2"/>
<text text-anchor="start" x="306.5" y="-154.3" font-family="Helvetica,sans-Serif" font-size="11.00" fill="#000000">Email</text>
<polygon fill="none" stroke="#000000" points="418.5,-147.2 418.5,-169.2 499.5,-169.2 499.5,-147.2 418.5,-147.2"/>
<text text-anchor="start" x="421.5" y="-154.9" font-family="Helvetica,sans-Serif" font-size="11.00" fill="#000000">nvarchar[200]</text>
<polygon fill="#ffffff" stroke="transparent" points="286.5,-125.2 286.5,-147.2 418.5,-147.2 418.5,-125.2 286.5,-125.2"/>
<polygon fill="none" stroke="#000000" points="286.5,-125.2 286.5,-147.2 418.5,-147.2 418.5,-125.2 286.5,-125.2"/>
<image xlink:href="../../images/foreignKeys.png" width="11px" height="12px" preserveAspectRatio="xMinYMin meet" x="291.5" y="-142.2"/>
<text text-anchor="start" x="306.5" y="-132.3" font-family="Helvetica,sans-Serif" font-size="11.00" fill="#000000">EmployeeId</text>
<polygon fill="none" stroke="#000000" points="418.5,-125.2 418.5,-147.2 499.5,-147.2 499.5,-125.2 418.5,-125.2"/>
<text text-anchor="start" x="421.5" y="-132.9" font-family="Helvetica,sans-Serif" font-size="11.00" fill="#000000">int[4]</text>
<polygon fill="none" stroke="#000000" points="286.5,-103.2 286.5,-125.2 418.5,-125.2 418.5,-103.2 286.5,-103.2"/>
<text text-anchor="start" x="306.5" y="-110.3" font-family="Helvetica,sans-Serif" font-size="11.00" fill="#000000">CreatedAtUtc</text>
<polygon fill="none" stroke="#000000" points="418.5,-103.2 418.5,-125.2 499.5,-125.2 499.5,-103.2 418.5,-103.2"/>
<text text-anchor="start" x="421.0968" y="-110.9" font-family="Helvetica,sans-Serif" font-size="11.00" fill="#000000">datetime2[16,7]</text>
<polygon fill="none" stroke="#000000" points="286.5,-81.2 286.5,-103.2 418.5,-103.2 418.5,-81.2 286.5,-81.2"/>
<text text-anchor="start" x="306.5" y="-88.3" font-family="Helvetica,sans-Serif" font-size="11.00" fill="#000000">UpdatedAtUtc</text>
<polygon fill="none" stroke="#000000" points="418.5,-81.2 418.5,-103.2 499.5,-103.2 499.5,-81.2 418.5,-81.2"/>
<text text-anchor="start" x="421.0968" y="-88.9" font-family="Helvetica,sans-Serif" font-size="11.00" fill="#000000">datetime2[16,7]</text>
<polygon fill="none" stroke="#000000" points="286.5,-59.2 286.5,-81.2 418.5,-81.2 418.5,-59.2 286.5,-59.2"/>
<text text-anchor="start" x="306.5" y="-66.3" font-family="Helvetica,sans-Serif" font-size="11.00" fill="#000000">RowVersion</text>
<polygon fill="none" stroke="#000000" points="418.5,-59.2 418.5,-81.2 499.5,-81.2 499.5,-59.2 418.5,-59.2"/>
<text text-anchor="start" x="421.5" y="-66.9" font-family="Helvetica,sans-Serif" font-size="11.00" fill="#000000">timestamp[8]</text>
<polygon fill="#ffffff" stroke="transparent" points="286.5,-40.2 286.5,-59.2 499.5,-59.2 499.5,-40.2 286.5,-40.2"/>
<polygon fill="none" stroke="#000000" points="286.5,-40.2 286.5,-59.2 499.5,-59.2 499.5,-40.2 286.5,-40.2"/>
<polygon fill="#ffffff" stroke="transparent" points="287.5,-41.2 287.5,-58.2 361.5,-58.2 361.5,-41.2 287.5,-41.2"/>
<text text-anchor="start" x="289.5" y="-46.3" font-family="Helvetica,sans-Serif" font-size="11.00" fill="#000000">&lt; 2</text>
<polygon fill="#ffffff" stroke="transparent" points="361.5,-41.2 361.5,-58.2 425.5,-58.2 425.5,-41.2 361.5,-41.2"/>
<text text-anchor="start" x="390.4431" y="-46.3" font-family="Helvetica,sans-Serif" font-size="11.00" fill="#000000"> &#160;</text>
<polygon fill="#ffffff" stroke="transparent" points="425.5,-41.2 425.5,-58.2 498.5,-58.2 498.5,-41.2 425.5,-41.2"/>
<text text-anchor="start" x="480.9053" y="-46.3" font-family="Helvetica,sans-Serif" font-size="11.00" fill="#000000">3 &gt;</text>
<polygon fill="#000000" stroke="#000000" points="361.5,-41.2 361.5,-58.2 361.5,-58.2 361.5,-41.2 361.5,-41.2"/>
<polygon fill="#000000" stroke="#000000" points="425.5,-41.2 425.5,-58.2 425.5,-58.2 425.5,-41.2 425.5,-41.2"/>
<polygon fill="none" stroke="#000000" stroke-width="2" points="285,-39.2 285,-303.2 500,-303.2 500,-39.2 285,-39.2"/>
</a>
</g>
</g>
<!-- Compensation.Employees -->
<g id="node2" class="node">
<title>Compensation.Employees</title>
<g id="a_node2"><a xlink:title="Compensation.Employees">
<polygon fill="#ffffff" stroke="transparent" points="8,-66.7 8,-127.7 235,-127.7 235,-66.7 8,-66.7"/>
<polygon fill="#f5f5f5" stroke="transparent" points="8.5,-104.2 8.5,-127.2 235.5,-127.2 235.5,-104.2 8.5,-104.2"/>
<polygon fill="none" stroke="#000000" points="8.5,-104.2 8.5,-127.2 235.5,-127.2 235.5,-104.2 8.5,-104.2"/>
<text text-anchor="start" x="13.5" y="-112.8" font-family="Helvetica,sans-Serif" font-weight="bold" font-size="11.00" fill="#000000">Compensation.Employees</text>
<text text-anchor="start" x="201.0219" y="-112.3" font-family="Helvetica,sans-Serif" font-size="11.00" fill="#000000">[table]</text>
<polygon fill="none" stroke="#000000" points="8.5,-85.2 8.5,-104.2 235.5,-104.2 235.5,-85.2 8.5,-85.2"/>
<text text-anchor="start" x="11.5" y="-91.3" font-family="Helvetica,sans-Serif" font-size="11.00" fill="#000000">...</text>
<polygon fill="#ffffff" stroke="transparent" points="8.5,-66.2 8.5,-85.2 235.5,-85.2 235.5,-66.2 8.5,-66.2"/>
<polygon fill="none" stroke="#000000" points="8.5,-66.2 8.5,-85.2 235.5,-85.2 235.5,-66.2 8.5,-66.2"/>
<polygon fill="#ffffff" stroke="transparent" points="9.5,-67.2 9.5,-84.2 81.5,-84.2 81.5,-67.2 9.5,-67.2"/>
<text text-anchor="start" x="11.5" y="-72.3" font-family="Helvetica,sans-Serif" font-size="11.00" fill="#000000"> &#160;</text>
<polygon fill="#ffffff" stroke="transparent" points="81.5,-67.2 81.5,-84.2 153.5,-84.2 153.5,-67.2 81.5,-67.2"/>
<text text-anchor="start" x="114.4431" y="-72.3" font-family="Helvetica,sans-Serif" font-size="11.00" fill="#000000"> &#160;</text>
<polygon fill="#ffffff" stroke="transparent" points="153.5,-67.2 153.5,-84.2 234.5,-84.2 234.5,-67.2 153.5,-67.2"/>
<text text-anchor="start" x="216.9053" y="-72.3" font-family="Helvetica,sans-Serif" font-size="11.00" fill="#000000">1 &gt;</text>
<polygon fill="#000000" stroke="#000000" points="81.5,-67.2 81.5,-84.2 81.5,-84.2 81.5,-67.2 81.5,-67.2"/>
<polygon fill="#000000" stroke="#000000" points="153.5,-67.2 153.5,-84.2 153.5,-84.2 153.5,-67.2 153.5,-67.2"/>
</a>
</g>
</g>
<!-- Providers&#45;&gt;Compensation.Employees -->
<g id="edge1" class="edge">
<title>Providers:w&#45;&gt;Compensation.Employees:e</title>
<path fill="none" stroke="#000000" d="M275.9878,-135.9586C263.389,-135.3928 250.5323,-133.8657 237.8828,-131.7262"/>
<polygon fill="#000000" stroke="#000000" points="285.7921,-132.1827 285.6083,-140.1806 284.0087,-140.1438 284.1925,-132.1459 285.7921,-132.1827"/>
<polyline fill="none" stroke="#000000" points="286.5,-136.2 282.5011,-136.1081 "/>
<ellipse fill="none" stroke="#000000" cx="279.3019" cy="-136.0346" rx="3.2" ry="3.2"/>
</g>
<!-- ProviderTypes -->
<g id="node3" class="node">
<title>ProviderTypes</title>
<g id="a_node3"><a xlink:href="../../tables/ProviderTypes.html" xlink:title="ProviderTypes" target="_top">
<polygon fill="#ffffff" stroke="transparent" points="49.5,-148.7 49.5,-253.7 193.5,-253.7 193.5,-148.7 49.5,-148.7"/>
<polygon fill="#f5f5f5" stroke="transparent" points="49.5,-230.2 49.5,-253.2 193.5,-253.2 193.5,-230.2 49.5,-230.2"/>
<polygon fill="none" stroke="#000000" points="49.5,-230.2 49.5,-253.2 193.5,-253.2 193.5,-230.2 49.5,-230.2"/>
<text text-anchor="start" x="54.5" y="-238.8" font-family="Helvetica,sans-Serif" font-weight="bold" font-size="11.00" fill="#000000">ProviderTypes</text>
<text text-anchor="start" x="159.0219" y="-238.3" font-family="Helvetica,sans-Serif" font-size="11.00" fill="#000000">[table]</text>
<polygon fill="none" stroke="#000000" points="49.5,-208.2 49.5,-230.2 193.5,-230.2 193.5,-208.2 49.5,-208.2"/>
<image xlink:href="../../images/primaryKeys.png" width="11px" height="12px" preserveAspectRatio="xMinYMin meet" x="54.5" y="-225.2"/>
<text text-anchor="start" x="78.5" y="-215.3" font-family="Helvetica,sans-Serif" font-size="11.00" fill="#000000">Id</text>
<polygon fill="#ffffff" stroke="transparent" points="49.5,-186.2 49.5,-208.2 193.5,-208.2 193.5,-186.2 49.5,-186.2"/>
<polygon fill="none" stroke="#000000" points="49.5,-186.2 49.5,-208.2 193.5,-208.2 193.5,-186.2 49.5,-186.2"/>
<text text-anchor="start" x="78.5" y="-193.3" font-family="Helvetica,sans-Serif" font-size="11.00" fill="#000000">Code</text>
<polygon fill="none" stroke="#000000" points="49.5,-167.2 49.5,-186.2 193.5,-186.2 193.5,-167.2 49.5,-167.2"/>
<text text-anchor="start" x="52.5" y="-173.3" font-family="Helvetica,sans-Serif" font-size="11.00" fill="#000000">...</text>
<polygon fill="#ffffff" stroke="transparent" points="49.5,-148.2 49.5,-167.2 193.5,-167.2 193.5,-148.2 49.5,-148.2"/>
<polygon fill="none" stroke="#000000" points="49.5,-148.2 49.5,-167.2 193.5,-167.2 193.5,-148.2 49.5,-148.2"/>
<polygon fill="#ffffff" stroke="transparent" points="50.5,-149.2 50.5,-166.2 95.5,-166.2 95.5,-149.2 50.5,-149.2"/>
<text text-anchor="start" x="52.5" y="-154.3" font-family="Helvetica,sans-Serif" font-size="11.00" fill="#000000"> &#160;</text>
<polygon fill="#ffffff" stroke="transparent" points="95.5,-149.2 95.5,-166.2 139.5,-166.2 139.5,-149.2 95.5,-149.2"/>
<text text-anchor="start" x="114.4431" y="-154.3" font-family="Helvetica,sans-Serif" font-size="11.00" fill="#000000"> &#160;</text>
<polygon fill="#ffffff" stroke="transparent" points="139.5,-149.2 139.5,-166.2 192.5,-166.2 192.5,-149.2 139.5,-149.2"/>
<text text-anchor="start" x="174.9053" y="-154.3" font-family="Helvetica,sans-Serif" font-size="11.00" fill="#000000">1 &gt;</text>
<polygon fill="#000000" stroke="#000000" points="95.5,-149.2 95.5,-166.2 95.5,-166.2 95.5,-149.2 95.5,-149.2"/>
<polygon fill="#000000" stroke="#000000" points="139.5,-149.2 139.5,-166.2 139.5,-166.2 139.5,-149.2 139.5,-149.2"/>
</a>
</g>
</g>
<!-- Providers&#45;&gt;ProviderTypes -->
<g id="edge2" class="edge">
<title>Providers:w&#45;&gt;ProviderTypes:e</title>
<path fill="none" stroke="#000000" d="M271.8942,-181.7771C240.2579,-189.0734 232.8931,-219.2 193.5,-219.2"/>
<polygon fill="#000000" stroke="#000000" points="278.5462,-181.0589 286.8865,-183.7792 282.5231,-180.6295 286.5,-180.2 286.5,-180.2 286.5,-180.2 282.5231,-180.6295 286.1135,-176.6208 278.5462,-181.0589 278.5462,-181.0589"/>
<ellipse fill="none" stroke="#000000" cx="275.3647" cy="-181.4025" rx="3.2" ry="3.2"/>
</g>
<!-- VisitAttendants -->
<g id="node4" class="node">
<title>VisitAttendants</title>
<g id="a_node4"><a xlink:href="../../tables/VisitAttendants.html" xlink:title="VisitAttendants" target="_top">
<polygon fill="#ffffff" stroke="transparent" points="627,-323.7 627,-450.7 780,-450.7 780,-323.7 627,-323.7"/>
<polygon fill="#f5f5f5" stroke="transparent" points="627.5,-427.2 627.5,-450.2 780.5,-450.2 780.5,-427.2 627.5,-427.2"/>
<polygon fill="none" stroke="#000000" points="627.5,-427.2 627.5,-450.2 780.5,-450.2 780.5,-427.2 627.5,-427.2"/>
<text text-anchor="start" x="632.5" y="-435.8" font-family="Helvetica,sans-Serif" font-weight="bold" font-size="11.00" fill="#000000">VisitAttendants</text>
<text text-anchor="start" x="746.0219" y="-435.3" font-family="Helvetica,sans-Serif" font-size="11.00" fill="#000000">[table]</text>
<polygon fill="none" stroke="#000000" points="627.5,-405.2 627.5,-427.2 780.5,-427.2 780.5,-405.2 627.5,-405.2"/>
<image xlink:href="../../images/primaryKeys.png" width="11px" height="12px" preserveAspectRatio="xMinYMin meet" x="632.5" y="-422.2"/>
<text text-anchor="start" x="656.5" y="-412.3" font-family="Helvetica,sans-Serif" font-size="11.00" fill="#000000">Id</text>
<polygon fill="#ffffff" stroke="transparent" points="627.5,-383.2 627.5,-405.2 780.5,-405.2 780.5,-383.2 627.5,-383.2"/>
<polygon fill="none" stroke="#000000" points="627.5,-383.2 627.5,-405.2 780.5,-405.2 780.5,-383.2 627.5,-383.2"/>
<image xlink:href="../../images/foreignKeys.png" width="11px" height="12px" preserveAspectRatio="xMinYMin meet" x="632.5" y="-400.2"/>
<text text-anchor="start" x="656.5" y="-390.3" font-family="Helvetica,sans-Serif" font-size="11.00" fill="#000000">VisitId</text>
<polygon fill="#ffffff" stroke="transparent" points="627.5,-361.2 627.5,-383.2 780.5,-383.2 780.5,-361.2 627.5,-361.2"/>
<polygon fill="none" stroke="#000000" points="627.5,-361.2 627.5,-383.2 780.5,-383.2 780.5,-361.2 627.5,-361.2"/>
<image xlink:href="../../images/foreignKeys.png" width="11px" height="12px" preserveAspectRatio="xMinYMin meet" x="632.5" y="-378.2"/>
<text text-anchor="start" x="656.5" y="-368.3" font-family="Helvetica,sans-Serif" font-size="11.00" fill="#000000">ProviderId</text>
<polygon fill="none" stroke="#000000" points="627.5,-342.2 627.5,-361.2 780.5,-361.2 780.5,-342.2 627.5,-342.2"/>
<text text-anchor="start" x="630.5" y="-348.3" font-family="Helvetica,sans-Serif" font-size="11.00" fill="#000000">...</text>
<polygon fill="#ffffff" stroke="transparent" points="627.5,-323.2 627.5,-342.2 780.5,-342.2 780.5,-323.2 627.5,-323.2"/>
<polygon fill="none" stroke="#000000" points="627.5,-323.2 627.5,-342.2 780.5,-342.2 780.5,-323.2 627.5,-323.2"/>
<polygon fill="#ffffff" stroke="transparent" points="628.5,-324.2 628.5,-341.2 685.5,-341.2 685.5,-324.2 628.5,-324.2"/>
<text text-anchor="start" x="630.5" y="-329.3" font-family="Helvetica,sans-Serif" font-size="11.00" fill="#000000">&lt; 2</text>
<polygon fill="#ffffff" stroke="transparent" points="685.5,-324.2 685.5,-341.2 732.5,-341.2 732.5,-324.2 685.5,-324.2"/>
<text text-anchor="start" x="705.9431" y="-329.3" font-family="Helvetica,sans-Serif" font-size="11.00" fill="#000000"> &#160;</text>
<polygon fill="#ffffff" stroke="transparent" points="732.5,-324.2 732.5,-341.2 779.5,-341.2 779.5,-324.2 732.5,-324.2"/>
<text text-anchor="start" x="771.3862" y="-329.3" font-family="Helvetica,sans-Serif" font-size="11.00" fill="#000000"> &#160;</text>
<polygon fill="#000000" stroke="#000000" points="685.5,-324.2 685.5,-341.2 685.5,-341.2 685.5,-324.2 685.5,-324.2"/>
<polygon fill="#000000" stroke="#000000" points="732.5,-324.2 732.5,-341.2 732.5,-341.2 732.5,-324.2 732.5,-324.2"/>
</a>
</g>
</g>
<!-- VisitAttendants&#45;&gt;Providers -->
<g id="edge3" class="edge">
<title>VisitAttendants:w&#45;&gt;Providers:e</title>
<path fill="none" stroke="#000000" d="M612.8772,-371.0525C579.9035,-365.4017 572.9367,-339.7368 542,-313.2 521.1195,-295.2892 527.0098,-268.2 499.5,-268.2"/>
<polygon fill="#000000" stroke="#000000" points="619.5245,-371.5741 627.2183,-375.789 623.5123,-371.887 627.5,-372.2 627.5,-372.2 627.5,-372.2 623.5123,-371.887 627.7817,-368.611 619.5245,-371.5741 619.5245,-371.5741"/>
<ellipse fill="none" stroke="#000000" cx="616.3343" cy="-371.3237" rx="3.2" ry="3.2"/>
</g>
<!-- staging.ProviderAssignments -->
<g id="node5" class="node">
<title>staging.ProviderAssignments</title>
<g id="a_node5"><a xlink:title="staging.ProviderAssignments">
<polygon fill="#ffffff" stroke="transparent" points="550,-109.7 550,-302.7 857,-302.7 857,-109.7 550,-109.7"/>
<polygon fill="#f5f5f5" stroke="transparent" points="550.5,-279.2 550.5,-302.2 857.5,-302.2 857.5,-279.2 550.5,-279.2"/>
<polygon fill="none" stroke="#000000" points="550.5,-279.2 550.5,-302.2 857.5,-302.2 857.5,-279.2 550.5,-279.2"/>
<text text-anchor="start" x="555.5" y="-287.8" font-family="Helvetica,sans-Serif" font-weight="bold" font-size="11.00" fill="#000000">staging.ProviderAssignments</text>
<text text-anchor="start" x="822.5437" y="-287.3" font-family="Helvetica,sans-Serif" font-size="11.00" fill="#000000">[table]</text>
<polygon fill="none" stroke="#000000" points="550.5,-257.2 550.5,-279.2 857.5,-279.2 857.5,-257.2 550.5,-257.2"/>
<image xlink:href="../../images/foreignKeys.png" width="11px" height="12px" preserveAspectRatio="xMinYMin meet" x="555.5" y="-274.2"/>
<text text-anchor="start" x="570.5" y="-264.3" font-family="Helvetica,sans-Serif" font-size="11.00" fill="#000000">ResolvedPhysicianId</text>
<polygon fill="none" stroke="#000000" points="550.5,-235.2 550.5,-257.2 857.5,-257.2 857.5,-235.2 550.5,-235.2"/>
<image xlink:href="../../images/foreignKeys.png" width="11px" height="12px" preserveAspectRatio="xMinYMin meet" x="555.5" y="-252.2"/>
<text text-anchor="start" x="570.5" y="-242.3" font-family="Helvetica,sans-Serif" font-size="11.00" fill="#000000">ResolvedHospitalizationId</text>
<polygon fill="none" stroke="#000000" points="550.5,-213.2 550.5,-235.2 857.5,-235.2 857.5,-213.2 550.5,-213.2"/>
<image xlink:href="../../images/foreignKeys.png" width="11px" height="12px" preserveAspectRatio="xMinYMin meet" x="555.5" y="-230.2"/>
<text text-anchor="start" x="570.5" y="-220.3" font-family="Helvetica,sans-Serif" font-size="11.00" fill="#000000">ResolvedPatientId</text>
<polygon fill="none" stroke="#000000" points="550.5,-191.2 550.5,-213.2 857.5,-213.2 857.5,-191.2 550.5,-191.2"/>
<image xlink:href="../../images/foreignKeys.png" width="11px" height="12px" preserveAspectRatio="xMinYMin meet" x="555.5" y="-208.2"/>
<text text-anchor="start" x="570.5" y="-198.3" font-family="Helvetica,sans-Serif" font-size="11.00" fill="#000000">ResolvedNursePractitionerId</text>
<polygon fill="none" stroke="#000000" points="550.5,-169.2 550.5,-191.2 857.5,-191.2 857.5,-169.2 550.5,-169.2"/>
<image xlink:href="../../images/foreignKeys.png" width="11px" height="12px" preserveAspectRatio="xMinYMin meet" x="555.5" y="-186.2"/>
<text text-anchor="start" x="570.5" y="-176.3" font-family="Helvetica,sans-Serif" font-size="11.00" fill="#000000">ResolvedVisitId</text>
<polygon fill="none" stroke="#000000" points="550.5,-147.2 550.5,-169.2 857.5,-169.2 857.5,-147.2 550.5,-147.2"/>
<image xlink:href="../../images/foreignKeys.png" width="11px" height="12px" preserveAspectRatio="xMinYMin meet" x="555.5" y="-164.2"/>
<text text-anchor="start" x="570.5" y="-154.3" font-family="Helvetica,sans-Serif" font-size="11.00" fill="#000000">ResolvedHospitalizationStatusId</text>
<polygon fill="none" stroke="#000000" points="550.5,-128.2 550.5,-147.2 857.5,-147.2 857.5,-128.2 550.5,-128.2"/>
<text text-anchor="start" x="553.5" y="-134.3" font-family="Helvetica,sans-Serif" font-size="11.00" fill="#000000">...</text>
<polygon fill="#ffffff" stroke="transparent" points="550.5,-109.2 550.5,-128.2 857.5,-128.2 857.5,-109.2 550.5,-109.2"/>
<polygon fill="none" stroke="#000000" points="550.5,-109.2 550.5,-128.2 857.5,-128.2 857.5,-109.2 550.5,-109.2"/>
<polygon fill="#ffffff" stroke="transparent" points="551.5,-110.2 551.5,-127.2 659.5,-127.2 659.5,-110.2 551.5,-110.2"/>
<text text-anchor="start" x="553.5" y="-115.3" font-family="Helvetica,sans-Serif" font-size="11.00" fill="#000000">&lt; 6</text>
<polygon fill="#ffffff" stroke="transparent" points="659.5,-110.2 659.5,-127.2 758.5,-127.2 758.5,-110.2 659.5,-110.2"/>
<text text-anchor="start" x="705.9431" y="-115.3" font-family="Helvetica,sans-Serif" font-size="11.00" fill="#000000"> &#160;</text>
<polygon fill="#ffffff" stroke="transparent" points="758.5,-110.2 758.5,-127.2 856.5,-127.2 856.5,-110.2 758.5,-110.2"/>
<text text-anchor="start" x="848.3862" y="-115.3" font-family="Helvetica,sans-Serif" font-size="11.00" fill="#000000"> &#160;</text>
<polygon fill="#000000" stroke="#000000" points="659.5,-110.2 659.5,-127.2 659.5,-127.2 659.5,-110.2 659.5,-110.2"/>
<polygon fill="#000000" stroke="#000000" points="758.5,-110.2 758.5,-127.2 758.5,-127.2 758.5,-110.2 758.5,-110.2"/>
</a>
</g>
</g>
<!-- staging.ProviderAssignments&#45;&gt;Providers -->
<g id="edge4" class="edge">
<title>staging.ProviderAssignments:w&#45;&gt;Providers:e</title>
<path fill="none" stroke="#000000" d="M536.5846,-206.9466C519.402,-222.0798 530.4886,-268.2 499.5,-268.2"/>
<polygon fill="#000000" stroke="#000000" points="542.9284,-204.7827 551.6622,-205.6072 546.7142,-203.4914 550.5,-202.2 550.5,-202.2 550.5,-202.2 546.7142,-203.4914 549.3378,-198.7928 542.9284,-204.7827 542.9284,-204.7827"/>
<ellipse fill="none" stroke="#000000" cx="539.8997" cy="-205.8158" rx="3.2" ry="3.2"/>
</g>
<!-- staging.ProviderAssignments&#45;&gt;Providers -->
<g id="edge5" class="edge">
<title>staging.ProviderAssignments:w&#45;&gt;Providers:e</title>
<path fill="none" stroke="#000000" d="M535.776,-268.2C523.7815,-268.2 516.3229,-268.2 499.5,-268.2"/>
<polygon fill="#000000" stroke="#000000" points="542.5,-268.2001 550.5,-271.8 546.5,-268.2 550.5,-268.2 550.5,-268.2 550.5,-268.2 546.5,-268.2 550.5,-264.6 542.5,-268.2001 542.5,-268.2001"/>
<ellipse fill="none" stroke="#000000" cx="539.3" cy="-268.2001" rx="3.2" ry="3.2"/>
</g>
</g>
</svg>
