<?xml version="1.0" encoding="UTF-8" standalone="no"?>
<!DOCTYPE svg PUBLIC "-//W3C//DTD SVG 1.1//EN"
 "http://www.w3.org/Graphics/SVG/1.1/DTD/svg11.dtd">
<!-- Generated by graphviz version 2.40.1 (20161225.0304)
 -->
<!-- Title: twoDegreesRelationshipsDiagram Pages: 1 -->
<svg width="736pt" height="335pt"
 viewBox="0.00 0.00 736.00 335.20" xmlns="http://www.w3.org/2000/svg" xmlns:xlink="http://www.w3.org/1999/xlink">
<g id="graph0" class="graph" transform="scale(1 1) rotate(0) translate(4 331.2)">
<title>twoDegreesRelationshipsDiagram</title>
<polygon fill="#ffffff" stroke="transparent" points="-4,4 -4,-331.2 732,-331.2 732,4 -4,4"/>
<text text-anchor="middle" x="72.4936" y="-7.3" font-family="Helvetica,sans-Serif" font-size="11.00" fill="#000000">Generated by SchemaSpy</text>
<!-- Providers -->
<g id="node1" class="node">
<title>Providers</title>
<g id="a_node1"><a xlink:href="../../tables/Providers.html" xlink:title="Providers" target="_top">
<polygon fill="#ffffff" stroke="transparent" points="284,-115.2 284,-242.2 416,-242.2 416,-115.2 284,-115.2"/>
<polygon fill="#f5f5f5" stroke="transparent" points="284,-218.7 284,-241.7 416,-241.7 416,-218.7 284,-218.7"/>
<polygon fill="none" stroke="#000000" points="284,-218.7 284,-241.7 416,-241.7 416,-218.7 284,-218.7"/>
<text text-anchor="start" x="289" y="-227.3" font-family="Helvetica,sans-Serif" font-weight="bold" font-size="11.00" fill="#000000">Providers</text>
<text text-anchor="start" x="381.0437" y="-226.8" font-family="Helvetica,sans-Serif" font-size="11.00" fill="#000000">[table]</text>
<polygon fill="none" stroke="#000000" points="284,-196.7 284,-218.7 416,-218.7 416,-196.7 284,-196.7"/>
<image xlink:href="../../images/primaryKeys.png" width="11px" height="12px" preserveAspectRatio="xMinYMin meet" x="289" y="-213.7"/>
<text text-anchor="start" x="304" y="-203.8" font-family="Helvetica,sans-Serif" font-size="11.00" fill="#000000">Id</text>
<polygon fill="#ffffff" stroke="transparent" points="284,-174.7 284,-196.7 416,-196.7 416,-174.7 284,-174.7"/>
<polygon fill="none" stroke="#000000" points="284,-174.7 284,-196.7 416,-196.7 416,-174.7 284,-174.7"/>
<image xlink:href="../../images/foreignKeys.png" width="11px" height="12px" preserveAspectRatio="xMinYMin meet" x="289" y="-191.7"/>
<text text-anchor="start" x="304" y="-181.8" font-family="Helvetica,sans-Serif" font-size="11.00" fill="#000000">ProviderTypeId</text>
<polygon fill="#ffffff" stroke="transparent" points="284,-152.7 284,-174.7 416,-174.7 416,-152.7 284,-152.7"/>
<polygon fill="none" stroke="#000000" points="284,-152.7 284,-174.7 416,-174.7 416,-152.7 284,-152.7"/>
<image xlink:href="../../images/foreignKeys.png" width="11px" height="12px" preserveAspectRatio="xMinYMin meet" x="289" y="-169.7"/>
<text text-anchor="start" x="304" y="-159.8" font-family="Helvetica,sans-Serif" font-size="11.00" fill="#000000">EmployeeId</text>
<polygon fill="none" stroke="#000000" points="284,-133.7 284,-152.7 416,-152.7 416,-133.7 284,-133.7"/>
<text text-anchor="start" x="287" y="-139.8" font-family="Helvetica,sans-Serif" font-size="11.00" fill="#000000">...</text>
<polygon fill="#ffffff" stroke="transparent" points="284,-114.7 284,-133.7 416,-133.7 416,-114.7 284,-114.7"/>
<polygon fill="none" stroke="#000000" points="284,-114.7 284,-133.7 416,-133.7 416,-114.7 284,-114.7"/>
<polygon fill="#ffffff" stroke="transparent" points="285,-115.7 285,-132.7 332,-132.7 332,-115.7 285,-115.7"/>
<text text-anchor="start" x="287" y="-120.8" font-family="Helvetica,sans-Serif" font-size="11.00" fill="#000000">&lt; 2</text>
<polygon fill="#ffffff" stroke="transparent" points="332,-115.7 332,-132.7 369,-132.7 369,-115.7 332,-115.7"/>
<text text-anchor="start" x="347.4431" y="-120.8" font-family="Helvetica,sans-Serif" font-size="11.00" fill="#000000"> &#160;</text>
<polygon fill="#ffffff" stroke="transparent" points="369,-115.7 369,-132.7 415,-132.7 415,-115.7 369,-115.7"/>
<text text-anchor="start" x="397.4053" y="-120.8" font-family="Helvetica,sans-Serif" font-size="11.00" fill="#000000">3 &gt;</text>
<polygon fill="#000000" stroke="#000000" points="332,-115.7 332,-132.7 332,-132.7 332,-115.7 332,-115.7"/>
<polygon fill="#000000" stroke="#000000" points="369,-115.7 369,-132.7 369,-132.7 369,-115.7 369,-115.7"/>
</a>
</g>
</g>
<!-- Compensation.Employees -->
<g id="node2" class="node">
<title>Compensation.Employees</title>
<g id="a_node2"><a xlink:title="Compensation.Employees">
<polygon fill="#ffffff" stroke="transparent" points="8,-38.2 8,-99.2 235,-99.2 235,-38.2 8,-38.2"/>
<polygon fill="#f5f5f5" stroke="transparent" points="8.5,-75.7 8.5,-98.7 235.5,-98.7 235.5,-75.7 8.5,-75.7"/>
<polygon fill="none" stroke="#000000" points="8.5,-75.7 8.5,-98.7 235.5,-98.7 235.5,-75.7 8.5,-75.7"/>
<text text-anchor="start" x="13.5" y="-84.3" font-family="Helvetica,sans-Serif" font-weight="bold" font-size="11.00" fill="#000000">Compensation.Employees</text>
<text text-anchor="start" x="201.0219" y="-83.8" font-family="Helvetica,sans-Serif" font-size="11.00" fill="#000000">[table]</text>
<polygon fill="none" stroke="#000000" points="8.5,-56.7 8.5,-75.7 235.5,-75.7 235.5,-56.7 8.5,-56.7"/>
<text text-anchor="start" x="11.5" y="-62.8" font-family="Helvetica,sans-Serif" font-size="11.00" fill="#000000">...</text>
<polygon fill="#ffffff" stroke="transparent" points="8.5,-37.7 8.5,-56.7 235.5,-56.7 235.5,-37.7 8.5,-37.7"/>
<polygon fill="none" stroke="#000000" points="8.5,-37.7 8.5,-56.7 235.5,-56.7 235.5,-37.7 8.5,-37.7"/>
<polygon fill="#ffffff" stroke="transparent" points="9.5,-38.7 9.5,-55.7 81.5,-55.7 81.5,-38.7 9.5,-38.7"/>
<text text-anchor="start" x="11.5" y="-43.8" font-family="Helvetica,sans-Serif" font-size="11.00" fill="#000000"> &#160;</text>
<polygon fill="#ffffff" stroke="transparent" points="81.5,-38.7 81.5,-55.7 153.5,-55.7 153.5,-38.7 81.5,-38.7"/>
<text text-anchor="start" x="114.4431" y="-43.8" font-family="Helvetica,sans-Serif" font-size="11.00" fill="#000000"> &#160;</text>
<polygon fill="#ffffff" stroke="transparent" points="153.5,-38.7 153.5,-55.7 234.5,-55.7 234.5,-38.7 153.5,-38.7"/>
<text text-anchor="start" x="216.9053" y="-43.8" font-family="Helvetica,sans-Serif" font-size="11.00" fill="#000000">1 &gt;</text>
<polygon fill="#000000" stroke="#000000" points="81.5,-38.7 81.5,-55.7 81.5,-55.7 81.5,-38.7 81.5,-38.7"/>
<polygon fill="#000000" stroke="#000000" points="153.5,-38.7 153.5,-55.7 153.5,-55.7 153.5,-38.7 153.5,-38.7"/>
</a>
</g>
</g>
<!-- Providers&#45;&gt;Compensation.Employees -->
<g id="edge1" class="edge">
<title>Providers:w&#45;&gt;Compensation.Employees:e</title>
<path fill="none" stroke="#000000" d="M273.503,-161.6531C243.0533,-147.58 279.9213,-65.7 235.5,-65.7"/>
<polygon fill="#000000" stroke="#000000" points="283.9804,-159.6208 282.4492,-167.4729 280.8788,-167.1667 282.41,-159.3146 283.9804,-159.6208"/>
<polyline fill="none" stroke="#000000" points="284,-163.7 280.0739,-162.9344 "/>
<ellipse fill="none" stroke="#000000" cx="276.9331" cy="-162.3219" rx="3.2" ry="3.2"/>
</g>
<!-- ProviderTypes -->
<g id="node3" class="node">
<title>ProviderTypes</title>
<g id="a_node3"><a xlink:href="../../tables/ProviderTypes.html" xlink:title="ProviderTypes" target="_top">
<polygon fill="#ffffff" stroke="transparent" points="16,-120.7 16,-320.7 227,-320.7 227,-120.7 16,-120.7"/>
<polygon fill="#f5f5f5" stroke="transparent" points="18.5,-295.7 18.5,-318.7 225.5,-318.7 225.5,-295.7 18.5,-295.7"/>
<polygon fill="none" stroke="#000000" points="18.5,-295.7 18.5,-318.7 225.5,-318.7 225.5,-295.7 18.5,-295.7"/>
<text text-anchor="start" x="23.5" y="-304.3" font-family="Helvetica,sans-Serif" font-weight="bold" font-size="11.00" fill="#000000">ProviderTypes</text>
<text text-anchor="start" x="190.5437" y="-303.8" font-family="Helvetica,sans-Serif" font-size="11.00" fill="#000000">[table]</text>
<polygon fill="none" stroke="#000000" points="18.5,-273.7 18.5,-295.7 144.5,-295.7 144.5,-273.7 18.5,-273.7"/>
<image xlink:href="../../images/primaryKeys.png" width="11px" height="12px" preserveAspectRatio="xMinYMin meet" x="23.5" y="-290.7"/>
<text text-anchor="start" x="38.5" y="-280.8" font-family="Helvetica,sans-Serif" font-size="11.00" fill="#000000">Id</text>
<polygon fill="none" stroke="#000000" points="144.5,-273.7 144.5,-295.7 225.5,-295.7 225.5,-273.7 144.5,-273.7"/>
<text text-anchor="start" x="147.5" y="-281.4" font-family="Helvetica,sans-Serif" font-size="11.00" fill="#000000">int[4]</text>
<polygon fill="#ffffff" stroke="transparent" points="18.5,-251.7 18.5,-273.7 144.5,-273.7 144.5,-251.7 18.5,-251.7"/>
<polygon fill="none" stroke="#000000" points="18.5,-251.7 18.5,-273.7 144.5,-273.7 144.5,-251.7 18.5,-251.7"/>
<text text-anchor="start" x="38.5" y="-258.8" font-family="Helvetica,sans-Serif" font-size="11.00" fill="#000000">Code</text>
<polygon fill="none" stroke="#000000" points="144.5,-251.7 144.5,-273.7 225.5,-273.7 225.5,-251.7 144.5,-251.7"/>
<text text-anchor="start" x="147.5" y="-259.4" font-family="Helvetica,sans-Serif" font-size="11.00" fill="#000000">nvarchar[100]</text>
<polygon fill="none" stroke="#000000" points="18.5,-229.7 18.5,-251.7 144.5,-251.7 144.5,-229.7 18.5,-229.7"/>
<text text-anchor="start" x="38.5" y="-236.8" font-family="Helvetica,sans-Serif" font-size="11.00" fill="#000000">Name</text>
<polygon fill="none" stroke="#000000" points="144.5,-229.7 144.5,-251.7 225.5,-251.7 225.5,-229.7 144.5,-229.7"/>
<text text-anchor="start" x="147.5" y="-237.4" font-family="Helvetica,sans-Serif" font-size="11.00" fill="#000000">nvarchar[200]</text>
<polygon fill="none" stroke="#000000" points="18.5,-207.7 18.5,-229.7 144.5,-229.7 144.5,-207.7 18.5,-207.7"/>
<text text-anchor="start" x="38.5" y="-214.8" font-family="Helvetica,sans-Serif" font-size="11.00" fill="#000000">DisplayOrder</text>
<polygon fill="none" stroke="#000000" points="144.5,-207.7 144.5,-229.7 225.5,-229.7 225.5,-207.7 144.5,-207.7"/>
<text text-anchor="start" x="147.5" y="-215.4" font-family="Helvetica,sans-Serif" font-size="11.00" fill="#000000">int[4]</text>
<polygon fill="none" stroke="#000000" points="18.5,-185.7 18.5,-207.7 144.5,-207.7 144.5,-185.7 18.5,-185.7"/>
<text text-anchor="start" x="38.5" y="-192.8" font-family="Helvetica,sans-Serif" font-size="11.00" fill="#000000">CreatedAtUtc</text>
<polygon fill="none" stroke="#000000" points="144.5,-185.7 144.5,-207.7 225.5,-207.7 225.5,-185.7 144.5,-185.7"/>
<text text-anchor="start" x="147.0967" y="-193.4" font-family="Helvetica,sans-Serif" font-size="11.00" fill="#000000">datetime2[16,7]</text>
<polygon fill="none" stroke="#000000" points="18.5,-163.7 18.5,-185.7 144.5,-185.7 144.5,-163.7 18.5,-163.7"/>
<text text-anchor="start" x="38.5" y="-170.8" font-family="Helvetica,sans-Serif" font-size="11.00" fill="#000000">UpdatedAtUtc</text>
<polygon fill="none" stroke="#000000" points="144.5,-163.7 144.5,-185.7 225.5,-185.7 225.5,-163.7 144.5,-163.7"/>
<text text-anchor="start" x="147.0967" y="-171.4" font-family="Helvetica,sans-Serif" font-size="11.00" fill="#000000">datetime2[16,7]</text>
<polygon fill="none" stroke="#000000" points="18.5,-141.7 18.5,-163.7 144.5,-163.7 144.5,-141.7 18.5,-141.7"/>
<text text-anchor="start" x="38.5" y="-148.8" font-family="Helvetica,sans-Serif" font-size="11.00" fill="#000000">RowVersion</text>
<polygon fill="none" stroke="#000000" points="144.5,-141.7 144.5,-163.7 225.5,-163.7 225.5,-141.7 144.5,-141.7"/>
<text text-anchor="start" x="147.5" y="-149.4" font-family="Helvetica,sans-Serif" font-size="11.00" fill="#000000">timestamp[8]</text>
<polygon fill="#ffffff" stroke="transparent" points="18.5,-122.7 18.5,-141.7 225.5,-141.7 225.5,-122.7 18.5,-122.7"/>
<polygon fill="none" stroke="#000000" points="18.5,-122.7 18.5,-141.7 225.5,-141.7 225.5,-122.7 18.5,-122.7"/>
<polygon fill="#ffffff" stroke="transparent" points="19.5,-123.7 19.5,-140.7 91.5,-140.7 91.5,-123.7 19.5,-123.7"/>
<text text-anchor="start" x="21.5" y="-128.8" font-family="Helvetica,sans-Serif" font-size="11.00" fill="#000000">&lt; 0</text>
<polygon fill="#ffffff" stroke="transparent" points="91.5,-123.7 91.5,-140.7 153.5,-140.7 153.5,-123.7 91.5,-123.7"/>
<text text-anchor="start" x="119.4431" y="-128.8" font-family="Helvetica,sans-Serif" font-size="11.00" fill="#000000"> &#160;</text>
<polygon fill="#ffffff" stroke="transparent" points="153.5,-123.7 153.5,-140.7 224.5,-140.7 224.5,-123.7 153.5,-123.7"/>
<text text-anchor="start" x="206.9053" y="-128.8" font-family="Helvetica,sans-Serif" font-size="11.00" fill="#000000">1 &gt;</text>
<polygon fill="#000000" stroke="#000000" points="91.5,-123.7 91.5,-140.7 91.5,-140.7 91.5,-123.7 91.5,-123.7"/>
<polygon fill="#000000" stroke="#000000" points="153.5,-123.7 153.5,-140.7 153.5,-140.7 153.5,-123.7 153.5,-123.7"/>
<polygon fill="none" stroke="#000000" stroke-width="2" points="17,-121.7 17,-319.7 226,-319.7 226,-121.7 17,-121.7"/>
</a>
</g>
</g>
<!-- Providers&#45;&gt;ProviderTypes -->
<g id="edge2" class="edge">
<title>Providers:w&#45;&gt;ProviderTypes:e</title>
<path fill="none" stroke="#000000" d="M270.0062,-189.2235C241.5797,-206.8593 270.8182,-284.7 225.5,-284.7"/>
<polygon fill="#000000" stroke="#000000" points="276.2421,-187.6534 284.879,-189.191 280.1211,-186.6767 284,-185.7 284,-185.7 284,-185.7 280.1211,-186.6767 283.121,-182.209 276.2421,-187.6534 276.2421,-187.6534"/>
<ellipse fill="none" stroke="#000000" cx="273.139" cy="-188.4347" rx="3.2" ry="3.2"/>
</g>
<!-- VisitAttendants -->
<g id="node4" class="node">
<title>VisitAttendants</title>
<g id="a_node4"><a xlink:href="../../tables/VisitAttendants.html" xlink:title="VisitAttendants" target="_top">
<polygon fill="#ffffff" stroke="transparent" points="516,-262.2 516,-323.2 669,-323.2 669,-262.2 516,-262.2"/>
<polygon fill="#f5f5f5" stroke="transparent" points="516.5,-299.7 516.5,-322.7 669.5,-322.7 669.5,-299.7 516.5,-299.7"/>
<polygon fill="none" stroke="#000000" points="516.5,-299.7 516.5,-322.7 669.5,-322.7 669.5,-299.7 516.5,-299.7"/>
<text text-anchor="start" x="521.5" y="-308.3" font-family="Helvetica,sans-Serif" font-weight="bold" font-size="11.00" fill="#000000">VisitAttendants</text>
<text text-anchor="start" x="635.0219" y="-307.8" font-family="Helvetica,sans-Serif" font-size="11.00" fill="#000000">[table]</text>
<polygon fill="none" stroke="#000000" points="516.5,-280.7 516.5,-299.7 669.5,-299.7 669.5,-280.7 516.5,-280.7"/>
<text text-anchor="start" x="519.5" y="-286.8" font-family="Helvetica,sans-Serif" font-size="11.00" fill="#000000">...</text>
<polygon fill="#ffffff" stroke="transparent" points="516.5,-261.7 516.5,-280.7 669.5,-280.7 669.5,-261.7 516.5,-261.7"/>
<polygon fill="none" stroke="#000000" points="516.5,-261.7 516.5,-280.7 669.5,-280.7 669.5,-261.7 516.5,-261.7"/>
<polygon fill="#ffffff" stroke="transparent" points="517.5,-262.7 517.5,-279.7 574.5,-279.7 574.5,-262.7 517.5,-262.7"/>
<text text-anchor="start" x="519.5" y="-267.8" font-family="Helvetica,sans-Serif" font-size="11.00" fill="#000000">&lt; 2</text>
<polygon fill="#ffffff" stroke="transparent" points="574.5,-262.7 574.5,-279.7 621.5,-279.7 621.5,-262.7 574.5,-262.7"/>
<text text-anchor="start" x="594.9431" y="-267.8" font-family="Helvetica,sans-Serif" font-size="11.00" fill="#000000"> &#160;</text>
<polygon fill="#ffffff" stroke="transparent" points="621.5,-262.7 621.5,-279.7 668.5,-279.7 668.5,-262.7 621.5,-262.7"/>
<text text-anchor="start" x="660.3862" y="-267.8" font-family="Helvetica,sans-Serif" font-size="11.00" fill="#000000"> &#160;</text>
<polygon fill="#000000" stroke="#000000" points="574.5,-262.7 574.5,-279.7 574.5,-279.7 574.5,-262.7 574.5,-262.7"/>
<polygon fill="#000000" stroke="#000000" points="621.5,-262.7 621.5,-279.7 621.5,-279.7 621.5,-262.7 621.5,-262.7"/>
</a>
</g>
</g>
<!-- VisitAttendants&#45;&gt;Providers -->
<g id="edge3" class="edge">
<title>VisitAttendants:w&#45;&gt;Providers:e</title>
<path fill="none" stroke="#000000" d="M501.9608,-288.0558C483.0314,-283.1909 476.7771,-268.1735 457,-251.7 436.462,-234.5927 442.7296,-207.7 416,-207.7"/>
<polygon fill="#000000" stroke="#000000" points="508.5507,-288.801 516.0954,-293.2772 512.5253,-289.2505 516.5,-289.7 516.5,-289.7 516.5,-289.7 512.5253,-289.2505 516.9046,-286.1228 508.5507,-288.801 508.5507,-288.801"/>
<ellipse fill="none" stroke="#000000" cx="505.3709" cy="-288.4414" rx="3.2" ry="3.2"/>
</g>
<!-- staging.ProviderAssignments -->
<g id="node5" class="node">
<title>staging.ProviderAssignments</title>
<g id="a_node5"><a xlink:title="staging.ProviderAssignments">
<polygon fill="#ffffff" stroke="transparent" points="465,-180.2 465,-241.2 720,-241.2 720,-180.2 465,-180.2"/>
<polygon fill="#f5f5f5" stroke="transparent" points="465.5,-217.7 465.5,-240.7 720.5,-240.7 720.5,-217.7 465.5,-217.7"/>
<polygon fill="none" stroke="#000000" points="465.5,-217.7 465.5,-240.7 720.5,-240.7 720.5,-217.7 465.5,-217.7"/>
<text text-anchor="start" x="470.5" y="-226.3" font-family="Helvetica,sans-Serif" font-weight="bold" font-size="11.00" fill="#000000">staging.ProviderAssignments</text>
<text text-anchor="start" x="686.0219" y="-225.8" font-family="Helvetica,sans-Serif" font-size="11.00" fill="#000000">[table]</text>
<polygon fill="none" stroke="#000000" points="465.5,-198.7 465.5,-217.7 720.5,-217.7 720.5,-198.7 465.5,-198.7"/>
<text text-anchor="start" x="468.5" y="-204.8" font-family="Helvetica,sans-Serif" font-size="11.00" fill="#000000">...</text>
<polygon fill="#ffffff" stroke="transparent" points="465.5,-179.7 465.5,-198.7 720.5,-198.7 720.5,-179.7 465.5,-179.7"/>
<polygon fill="none" stroke="#000000" points="465.5,-179.7 465.5,-198.7 720.5,-198.7 720.5,-179.7 465.5,-179.7"/>
<polygon fill="#ffffff" stroke="transparent" points="466.5,-180.7 466.5,-197.7 557.5,-197.7 557.5,-180.7 466.5,-180.7"/>
<text text-anchor="start" x="468.5" y="-185.8" font-family="Helvetica,sans-Serif" font-size="11.00" fill="#000000">&lt; 6</text>
<polygon fill="#ffffff" stroke="transparent" points="557.5,-180.7 557.5,-197.7 638.5,-197.7 638.5,-180.7 557.5,-180.7"/>
<text text-anchor="start" x="594.9431" y="-185.8" font-family="Helvetica,sans-Serif" font-size="11.00" fill="#000000"> &#160;</text>
<polygon fill="#ffffff" stroke="transparent" points="638.5,-180.7 638.5,-197.7 719.5,-197.7 719.5,-180.7 638.5,-180.7"/>
<text text-anchor="start" x="711.3862" y="-185.8" font-family="Helvetica,sans-Serif" font-size="11.00" fill="#000000"> &#160;</text>
<polygon fill="#000000" stroke="#000000" points="557.5,-180.7 557.5,-197.7 557.5,-197.7 557.5,-180.7 557.5,-180.7"/>
<polygon fill="#000000" stroke="#000000" points="638.5,-180.7 638.5,-197.7 638.5,-197.7 638.5,-180.7 638.5,-180.7"/>
</a>
</g>
</g>
<!-- staging.ProviderAssignments&#45;&gt;Providers -->
<g id="edge4" class="edge">
<title>staging.ProviderAssignments:w&#45;&gt;Providers:e</title>
<path fill="none" stroke="#000000" d="M451.209,-204.2558C439.5674,-202.0988 432.3281,-203.2469 416,-207.7"/>
<polygon fill="#000000" stroke="#000000" points="457.7227,-205.8256 464.6565,-211.1998 461.6113,-206.7628 465.5,-207.7 465.5,-207.7 465.5,-207.7 461.6113,-206.7628 466.3435,-204.2002 457.7227,-205.8256 457.7227,-205.8256"/>
<ellipse fill="none" stroke="#000000" cx="454.6118" cy="-205.0758" rx="3.2" ry="3.2"/>
</g>
<!-- staging.ProviderAssignments&#45;&gt;Providers -->
<g id="edge5" class="edge">
<title>staging.ProviderAssignments:w&#45;&gt;Providers:e</title>
<path fill="none" stroke="#000000" d="M451.5781,-211.6375C439.7188,-214.2625 432.5,-212.95 416,-207.7"/>
<polygon fill="#000000" stroke="#000000" points="457.802,-209.8773 466.4798,-211.1641 461.651,-208.7886 465.5,-207.7 465.5,-207.7 465.5,-207.7 461.651,-208.7886 464.5202,-204.2359 457.802,-209.8773 457.802,-209.8773"/>
<ellipse fill="none" stroke="#000000" cx="454.7228" cy="-210.7482" rx="3.2" ry="3.2"/>
</g>
</g>
</svg>
