<?xml version="1.0" encoding="UTF-8" standalone="no"?>
<!DOCTYPE svg PUBLIC "-//W3C//DTD SVG 1.1//EN"
 "http://www.w3.org/Graphics/SVG/1.1/DTD/svg11.dtd">
<!-- Generated by graphviz version 2.40.1 (20161225.0304)
 -->
<!-- Title: oneDegreeRelationshipsDiagram Pages: 1 -->
<svg width="552pt" height="312pt"
 viewBox="0.00 0.00 552.00 311.70" xmlns="http://www.w3.org/2000/svg" xmlns:xlink="http://www.w3.org/1999/xlink">
<g id="graph0" class="graph" transform="scale(1 1) rotate(0) translate(4 307.7)">
<title>oneDegreeRelationshipsDiagram</title>
<polygon fill="#ffffff" stroke="transparent" points="-4,4 -4,-307.7 548,-307.7 548,4 -4,4"/>
<text text-anchor="middle" x="72.4936" y="-7.3" font-family="Helvetica,sans-Serif" font-size="11.00" fill="#000000">Generated by SchemaSpy</text>
<!-- Billing.ServiceTypeBillingCodes -->
<g id="node1" class="node">
<title>Billing.ServiceTypeBillingCodes</title>
<g id="a_node1"><a xlink:title="Billing.ServiceTypeBillingCodes">
<polygon fill="#ffffff" stroke="transparent" points="266,-216.7 266,-299.7 536,-299.7 536,-216.7 266,-216.7"/>
<polygon fill="#f5f5f5" stroke="transparent" points="266,-276.2 266,-299.2 536,-299.2 536,-276.2 266,-276.2"/>
<polygon fill="none" stroke="#000000" points="266,-276.2 266,-299.2 536,-299.2 536,-276.2 266,-276.2"/>
<text text-anchor="start" x="271" y="-284.8" font-family="Helvetica,sans-Serif" font-weight="bold" font-size="11.00" fill="#000000">Billing.ServiceTypeBillingCodes</text>
<text text-anchor="start" x="501.5219" y="-284.3" font-family="Helvetica,sans-Serif" font-size="11.00" fill="#000000">[table]</text>
<polygon fill="none" stroke="#000000" points="266,-254.2 266,-276.2 536,-276.2 536,-254.2 266,-254.2"/>
<image xlink:href="../../images/foreignKeys.png" width="11px" height="12px" preserveAspectRatio="xMinYMin meet" x="271" y="-271.2"/>
<text text-anchor="start" x="321" y="-261.3" font-family="Helvetica,sans-Serif" font-size="11.00" fill="#000000">ServiceTypeId</text>
<polygon fill="none" stroke="#000000" points="266,-235.2 266,-254.2 536,-254.2 536,-235.2 266,-235.2"/>
<text text-anchor="start" x="269" y="-241.3" font-family="Helvetica,sans-Serif" font-size="11.00" fill="#000000">...</text>
<polygon fill="#ffffff" stroke="transparent" points="266,-216.2 266,-235.2 536,-235.2 536,-216.2 266,-216.2"/>
<polygon fill="none" stroke="#000000" points="266,-216.2 266,-235.2 536,-235.2 536,-216.2 266,-216.2"/>
<polygon fill="#ffffff" stroke="transparent" points="267,-217.2 267,-234.2 363,-234.2 363,-217.2 267,-217.2"/>
<text text-anchor="start" x="269" y="-222.3" font-family="Helvetica,sans-Serif" font-size="11.00" fill="#000000">&lt; 1</text>
<polygon fill="#ffffff" stroke="transparent" points="363,-217.2 363,-234.2 449,-234.2 449,-217.2 363,-217.2"/>
<text text-anchor="start" x="402.9431" y="-222.3" font-family="Helvetica,sans-Serif" font-size="11.00" fill="#000000"> &#160;</text>
<polygon fill="#ffffff" stroke="transparent" points="449,-217.2 449,-234.2 535,-234.2 535,-217.2 449,-217.2"/>
<text text-anchor="start" x="526.8862" y="-222.3" font-family="Helvetica,sans-Serif" font-size="11.00" fill="#000000"> &#160;</text>
<polygon fill="#000000" stroke="#000000" points="363,-217.2 363,-234.2 363,-234.2 363,-217.2 363,-217.2"/>
<polygon fill="#000000" stroke="#000000" points="449,-217.2 449,-234.2 449,-234.2 449,-217.2 449,-217.2"/>
</a>
</g>
</g>
<!-- ServiceTypes -->
<g id="node2" class="node">
<title>ServiceTypes</title>
<g id="a_node2"><a xlink:href="../../tables/ServiceTypes.html" xlink:title="ServiceTypes" target="_top">
<polygon fill="#ffffff" stroke="transparent" points="8,-38.2 8,-238.2 217,-238.2 217,-38.2 8,-38.2"/>
<polygon fill="#f5f5f5" stroke="transparent" points="10.5,-213.2 10.5,-236.2 215.5,-236.2 215.5,-213.2 10.5,-213.2"/>
<polygon fill="none" stroke="#000000" points="10.5,-213.2 10.5,-236.2 215.5,-236.2 215.5,-213.2 10.5,-213.2"/>
<text text-anchor="start" x="15.5" y="-221.8" font-family="Helvetica,sans-Serif" font-weight="bold" font-size="11.00" fill="#000000">ServiceTypes</text>
<text text-anchor="start" x="180.5437" y="-221.3" font-family="Helvetica,sans-Serif" font-size="11.00" fill="#000000">[table]</text>
<polygon fill="none" stroke="#000000" points="10.5,-191.2 10.5,-213.2 134.5,-213.2 134.5,-191.2 10.5,-191.2"/>
<image xlink:href="../../images/primaryKeys.png" width="11px" height="12px" preserveAspectRatio="xMinYMin meet" x="15.5" y="-208.2"/>
<text text-anchor="start" x="30.5" y="-198.3" font-family="Helvetica,sans-Serif" font-size="11.00" fill="#000000">Id</text>
<polygon fill="none" stroke="#000000" points="134.5,-191.2 134.5,-213.2 215.5,-213.2 215.5,-191.2 134.5,-191.2"/>
<text text-anchor="start" x="137.5" y="-198.9" font-family="Helvetica,sans-Serif" font-size="11.00" fill="#000000">int[4]</text>
<polygon fill="#ffffff" stroke="transparent" points="10.5,-169.2 10.5,-191.2 134.5,-191.2 134.5,-169.2 10.5,-169.2"/>
<polygon fill="none" stroke="#000000" points="10.5,-169.2 10.5,-191.2 134.5,-191.2 134.5,-169.2 10.5,-169.2"/>
<text text-anchor="start" x="30.5" y="-176.3" font-family="Helvetica,sans-Serif" font-size="11.00" fill="#000000">Code</text>
<polygon fill="none" stroke="#000000" points="134.5,-169.2 134.5,-191.2 215.5,-191.2 215.5,-169.2 134.5,-169.2"/>
<text text-anchor="start" x="137.5" y="-176.9" font-family="Helvetica,sans-Serif" font-size="11.00" fill="#000000">nvarchar[100]</text>
<polygon fill="none" stroke="#000000" points="10.5,-147.2 10.5,-169.2 134.5,-169.2 134.5,-147.2 10.5,-147.2"/>
<text text-anchor="start" x="30.5" y="-154.3" font-family="Helvetica,sans-Serif" font-size="11.00" fill="#000000">Name</text>
<polygon fill="none" stroke="#000000" points="134.5,-147.2 134.5,-169.2 215.5,-169.2 215.5,-147.2 134.5,-147.2"/>
<text text-anchor="start" x="137.5" y="-154.9" font-family="Helvetica,sans-Serif" font-size="11.00" fill="#000000">nvarchar[200]</text>
<polygon fill="none" stroke="#000000" points="10.5,-125.2 10.5,-147.2 134.5,-147.2 134.5,-125.2 10.5,-125.2"/>
<text text-anchor="start" x="30.5" y="-132.3" font-family="Helvetica,sans-Serif" font-size="11.00" fill="#000000">DisplayOrder</text>
<polygon fill="none" stroke="#000000" points="134.5,-125.2 134.5,-147.2 215.5,-147.2 215.5,-125.2 134.5,-125.2"/>
<text text-anchor="start" x="137.5" y="-132.9" font-family="Helvetica,sans-Serif" font-size="11.00" fill="#000000">int[4]</text>
<polygon fill="none" stroke="#000000" points="10.5,-103.2 10.5,-125.2 134.5,-125.2 134.5,-103.2 10.5,-103.2"/>
<text text-anchor="start" x="30.5" y="-110.3" font-family="Helvetica,sans-Serif" font-size="11.00" fill="#000000">CreatedAtUtc</text>
<polygon fill="none" stroke="#000000" points="134.5,-103.2 134.5,-125.2 215.5,-125.2 215.5,-103.2 134.5,-103.2"/>
<text text-anchor="start" x="137.0967" y="-110.9" font-family="Helvetica,sans-Serif" font-size="11.00" fill="#000000">datetime2[16,7]</text>
<polygon fill="none" stroke="#000000" points="10.5,-81.2 10.5,-103.2 134.5,-103.2 134.5,-81.2 10.5,-81.2"/>
<text text-anchor="start" x="30.5" y="-88.3" font-family="Helvetica,sans-Serif" font-size="11.00" fill="#000000">UpdatedAtUtc</text>
<polygon fill="none" stroke="#000000" points="134.5,-81.2 134.5,-103.2 215.5,-103.2 215.5,-81.2 134.5,-81.2"/>
<text text-anchor="start" x="137.0967" y="-88.9" font-family="Helvetica,sans-Serif" font-size="11.00" fill="#000000">datetime2[16,7]</text>
<polygon fill="none" stroke="#000000" points="10.5,-59.2 10.5,-81.2 134.5,-81.2 134.5,-59.2 10.5,-59.2"/>
<text text-anchor="start" x="30.5" y="-66.3" font-family="Helvetica,sans-Serif" font-size="11.00" fill="#000000">RowVersion</text>
<polygon fill="none" stroke="#000000" points="134.5,-59.2 134.5,-81.2 215.5,-81.2 215.5,-59.2 134.5,-59.2"/>
<text text-anchor="start" x="137.5" y="-66.9" font-family="Helvetica,sans-Serif" font-size="11.00" fill="#000000">timestamp[8]</text>
<polygon fill="#ffffff" stroke="transparent" points="10.5,-40.2 10.5,-59.2 215.5,-59.2 215.5,-40.2 10.5,-40.2"/>
<polygon fill="none" stroke="#000000" points="10.5,-40.2 10.5,-59.2 215.5,-59.2 215.5,-40.2 10.5,-40.2"/>
<polygon fill="#ffffff" stroke="transparent" points="11.5,-41.2 11.5,-58.2 82.5,-58.2 82.5,-41.2 11.5,-41.2"/>
<text text-anchor="start" x="13.5" y="-46.3" font-family="Helvetica,sans-Serif" font-size="11.00" fill="#000000">&lt; 0</text>
<polygon fill="#ffffff" stroke="transparent" points="82.5,-41.2 82.5,-58.2 144.5,-58.2 144.5,-41.2 82.5,-41.2"/>
<text text-anchor="start" x="110.4431" y="-46.3" font-family="Helvetica,sans-Serif" font-size="11.00" fill="#000000"> &#160;</text>
<polygon fill="#ffffff" stroke="transparent" points="144.5,-41.2 144.5,-58.2 214.5,-58.2 214.5,-41.2 144.5,-41.2"/>
<text text-anchor="start" x="196.9053" y="-46.3" font-family="Helvetica,sans-Serif" font-size="11.00" fill="#000000">2 &gt;</text>
<polygon fill="#000000" stroke="#000000" points="82.5,-41.2 82.5,-58.2 82.5,-58.2 82.5,-41.2 82.5,-41.2"/>
<polygon fill="#000000" stroke="#000000" points="144.5,-41.2 144.5,-58.2 144.5,-58.2 144.5,-41.2 144.5,-41.2"/>
<polygon fill="none" stroke="#000000" stroke-width="2" points="9,-39.2 9,-237.2 216,-237.2 216,-39.2 9,-39.2"/>
</a>
</g>
</g>
<!-- Billing.ServiceTypeBillingCodes&#45;&gt;ServiceTypes -->
<g id="edge1" class="edge">
<title>Billing.ServiceTypeBillingCodes:w&#45;&gt;ServiceTypes:e</title>
<path fill="none" stroke="#000000" d="M251.9816,-260.2565C235.738,-245.4048 245.2175,-202.2 215.5,-202.2"/>
<polygon fill="#000000" stroke="#000000" points="258.4554,-262.5394 264.8027,-268.5951 262.2277,-263.8697 266,-265.2 266,-265.2 266,-265.2 262.2277,-263.8697 267.1973,-261.8049 258.4554,-262.5394 258.4554,-262.5394"/>
<ellipse fill="none" stroke="#000000" cx="255.4375" cy="-261.4752" rx="3.2" ry="3.2"/>
</g>
<!-- Billing.VisitServiceBillings -->
<g id="node3" class="node">
<title>Billing.VisitServiceBillings</title>
<g id="a_node3"><a xlink:title="Billing.VisitServiceBillings">
<polygon fill="#ffffff" stroke="transparent" points="285.5,-90.7 285.5,-195.7 516.5,-195.7 516.5,-90.7 285.5,-90.7"/>
<polygon fill="#f5f5f5" stroke="transparent" points="286,-172.2 286,-195.2 517,-195.2 517,-172.2 286,-172.2"/>
<polygon fill="none" stroke="#000000" points="286,-172.2 286,-195.2 517,-195.2 517,-172.2 286,-172.2"/>
<text text-anchor="start" x="291" y="-180.8" font-family="Helvetica,sans-Serif" font-weight="bold" font-size="11.00" fill="#000000">Billing.VisitServiceBillings</text>
<text text-anchor="start" x="482.5219" y="-180.3" font-family="Helvetica,sans-Serif" font-size="11.00" fill="#000000">[table]</text>
<polygon fill="none" stroke="#000000" points="286,-150.2 286,-172.2 517,-172.2 517,-150.2 286,-150.2"/>
<image xlink:href="../../images/foreignKeys.png" width="11px" height="12px" preserveAspectRatio="xMinYMin meet" x="291" y="-167.2"/>
<text text-anchor="start" x="341" y="-157.3" font-family="Helvetica,sans-Serif" font-size="11.00" fill="#000000">VisitId</text>
<polygon fill="none" stroke="#000000" points="286,-128.2 286,-150.2 517,-150.2 517,-128.2 286,-128.2"/>
<image xlink:href="../../images/foreignKeys.png" width="11px" height="12px" preserveAspectRatio="xMinYMin meet" x="291" y="-145.2"/>
<text text-anchor="start" x="341" y="-135.3" font-family="Helvetica,sans-Serif" font-size="11.00" fill="#000000">ServiceTypeId</text>
<polygon fill="none" stroke="#000000" points="286,-109.2 286,-128.2 517,-128.2 517,-109.2 286,-109.2"/>
<text text-anchor="start" x="289" y="-115.3" font-family="Helvetica,sans-Serif" font-size="11.00" fill="#000000">...</text>
<polygon fill="#ffffff" stroke="transparent" points="286,-90.2 286,-109.2 517,-109.2 517,-90.2 286,-90.2"/>
<polygon fill="none" stroke="#000000" points="286,-90.2 286,-109.2 517,-109.2 517,-90.2 286,-90.2"/>
<polygon fill="#ffffff" stroke="transparent" points="287,-91.2 287,-108.2 370,-108.2 370,-91.2 287,-91.2"/>
<text text-anchor="start" x="289" y="-96.3" font-family="Helvetica,sans-Serif" font-size="11.00" fill="#000000">&lt; 2</text>
<polygon fill="#ffffff" stroke="transparent" points="370,-91.2 370,-108.2 443,-108.2 443,-91.2 370,-91.2"/>
<text text-anchor="start" x="403.4431" y="-96.3" font-family="Helvetica,sans-Serif" font-size="11.00" fill="#000000"> &#160;</text>
<polygon fill="#ffffff" stroke="transparent" points="443,-91.2 443,-108.2 516,-108.2 516,-91.2 443,-91.2"/>
<text text-anchor="start" x="507.8862" y="-96.3" font-family="Helvetica,sans-Serif" font-size="11.00" fill="#000000"> &#160;</text>
<polygon fill="#000000" stroke="#000000" points="370,-91.2 370,-108.2 370,-108.2 370,-91.2 370,-91.2"/>
<polygon fill="#000000" stroke="#000000" points="443,-91.2 443,-108.2 443,-108.2 443,-91.2 443,-91.2"/>
</a>
</g>
</g>
<!-- Billing.VisitServiceBillings&#45;&gt;ServiceTypes -->
<g id="edge2" class="edge">
<title>Billing.VisitServiceBillings:w&#45;&gt;ServiceTypes:e</title>
<path fill="none" stroke="#000000" d="M271.5965,-142.4108C246.6432,-155.249 251.7761,-202.2 215.5,-202.2"/>
<polygon fill="#000000" stroke="#000000" points="278.1917,-140.9407 286.7833,-142.7138 282.0958,-140.0703 286,-139.2 286,-139.2 286,-139.2 282.0958,-140.0703 285.2167,-135.6862 278.1917,-140.9407 278.1917,-140.9407"/>
<ellipse fill="none" stroke="#000000" cx="275.0683" cy="-141.6369" rx="3.2" ry="3.2"/>
</g>
</g>
</svg>
