<?xml version="1.0" encoding="UTF-8" standalone="no"?>
<!DOCTYPE svg PUBLIC "-//W3C//DTD SVG 1.1//EN"
 "http://www.w3.org/Graphics/SVG/1.1/DTD/svg11.dtd">
<!-- Generated by graphviz version 2.40.1 (20161225.0304)
 -->
<!-- Title: twoDegreesRelationshipsDiagram Pages: 1 -->
<svg width="513pt" height="333pt"
 viewBox="0.00 0.00 513.00 332.70" xmlns="http://www.w3.org/2000/svg" xmlns:xlink="http://www.w3.org/1999/xlink">
<g id="graph0" class="graph" transform="scale(1 1) rotate(0) translate(4 328.7)">
<title>twoDegreesRelationshipsDiagram</title>
<polygon fill="#ffffff" stroke="transparent" points="-4,4 -4,-328.7 509,-328.7 509,4 -4,4"/>
<text text-anchor="middle" x="72.4936" y="-7.3" font-family="Helvetica,sans-Serif" font-size="11.00" fill="#000000">Generated by SchemaSpy</text>
<!-- Billing.VisitServiceBillings -->
<g id="node1" class="node">
<title>Billing.VisitServiceBillings</title>
<g id="a_node1"><a xlink:title="Billing.VisitServiceBillings">
<polygon fill="#ffffff" stroke="transparent" points="266,-184.7 266,-289.7 497,-289.7 497,-184.7 266,-184.7"/>
<polygon fill="#f5f5f5" stroke="transparent" points="266.5,-266.2 266.5,-289.2 497.5,-289.2 497.5,-266.2 266.5,-266.2"/>
<polygon fill="none" stroke="#000000" points="266.5,-266.2 266.5,-289.2 497.5,-289.2 497.5,-266.2 266.5,-266.2"/>
<text text-anchor="start" x="271.5" y="-274.8" font-family="Helvetica,sans-Serif" font-weight="bold" font-size="11.00" fill="#000000">Billing.VisitServiceBillings</text>
<text text-anchor="start" x="463.0219" y="-274.3" font-family="Helvetica,sans-Serif" font-size="11.00" fill="#000000">[table]</text>
<polygon fill="none" stroke="#000000" points="266.5,-244.2 266.5,-266.2 497.5,-266.2 497.5,-244.2 266.5,-244.2"/>
<image xlink:href="../../images/foreignKeys.png" width="11px" height="12px" preserveAspectRatio="xMinYMin meet" x="271.5" y="-261.2"/>
<text text-anchor="start" x="321.5" y="-251.3" font-family="Helvetica,sans-Serif" font-size="11.00" fill="#000000">VisitId</text>
<polygon fill="none" stroke="#000000" points="266.5,-222.2 266.5,-244.2 497.5,-244.2 497.5,-222.2 266.5,-222.2"/>
<image xlink:href="../../images/foreignKeys.png" width="11px" height="12px" preserveAspectRatio="xMinYMin meet" x="271.5" y="-239.2"/>
<text text-anchor="start" x="321.5" y="-229.3" font-family="Helvetica,sans-Serif" font-size="11.00" fill="#000000">ServiceTypeId</text>
<polygon fill="none" stroke="#000000" points="266.5,-203.2 266.5,-222.2 497.5,-222.2 497.5,-203.2 266.5,-203.2"/>
<text text-anchor="start" x="269.5" y="-209.3" font-family="Helvetica,sans-Serif" font-size="11.00" fill="#000000">...</text>
<polygon fill="#ffffff" stroke="transparent" points="266.5,-184.2 266.5,-203.2 497.5,-203.2 497.5,-184.2 266.5,-184.2"/>
<polygon fill="none" stroke="#000000" points="266.5,-184.2 266.5,-203.2 497.5,-203.2 497.5,-184.2 266.5,-184.2"/>
<polygon fill="#ffffff" stroke="transparent" points="267.5,-185.2 267.5,-202.2 350.5,-202.2 350.5,-185.2 267.5,-185.2"/>
<text text-anchor="start" x="269.5" y="-190.3" font-family="Helvetica,sans-Serif" font-size="11.00" fill="#000000">&lt; 2</text>
<polygon fill="#ffffff" stroke="transparent" points="350.5,-185.2 350.5,-202.2 423.5,-202.2 423.5,-185.2 350.5,-185.2"/>
<text text-anchor="start" x="383.9431" y="-190.3" font-family="Helvetica,sans-Serif" font-size="11.00" fill="#000000"> &#160;</text>
<polygon fill="#ffffff" stroke="transparent" points="423.5,-185.2 423.5,-202.2 496.5,-202.2 496.5,-185.2 423.5,-185.2"/>
<text text-anchor="start" x="488.3862" y="-190.3" font-family="Helvetica,sans-Serif" font-size="11.00" fill="#000000"> &#160;</text>
<polygon fill="#000000" stroke="#000000" points="350.5,-185.2 350.5,-202.2 350.5,-202.2 350.5,-185.2 350.5,-185.2"/>
<polygon fill="#000000" stroke="#000000" points="423.5,-185.2 423.5,-202.2 423.5,-202.2 423.5,-185.2 423.5,-185.2"/>
</a>
</g>
</g>
<!-- ServiceTypes -->
<g id="node2" class="node">
<title>ServiceTypes</title>
<g id="a_node2"><a xlink:href="../../tables/ServiceTypes.html" xlink:title="ServiceTypes" target="_top">
<polygon fill="#ffffff" stroke="transparent" points="8,-38.2 8,-238.2 217,-238.2 217,-38.2 8,-38.2"/>
<polygon fill="#f5f5f5" stroke="transparent" points="10.5,-213.2 10.5,-236.2 215.5,-236.2 215.5,-213.2 10.5,-213.2"/>
<polygon fill="none" stroke="#000000" points="10.5,-213.2 10.5,-236.2 215.5,-236.2 215.5,-213.2 10.5,-213.2"/>
<text text-anchor="start" x="15.5" y="-221.8" font-family="Helvetica,sans-Serif" font-weight="bold" font-size="11.00" fill="#000000">ServiceTypes</text>
<text text-anchor="start" x="180.5437" y="-221.3" font-family="Helvetica,sans-Serif" font-size="11.00" fill="#000000">[table]</text>
<polygon fill="none" stroke="#000000" points="10.5,-191.2 10.5,-213.2 134.5,-213.2 134.5,-191.2 10.5,-191.2"/>
<image xlink:href="../../images/primaryKeys.png" width="11px" height="12px" preserveAspectRatio="xMinYMin meet" x="15.5" y="-208.2"/>
<text text-anchor="start" x="30.5" y="-198.3" font-family="Helvetica,sans-Serif" font-size="11.00" fill="#000000">Id</text>
<polygon fill="none" stroke="#000000" points="134.5,-191.2 134.5,-213.2 215.5,-213.2 215.5,-191.2 134.5,-191.2"/>
<text text-anchor="start" x="137.5" y="-198.9" font-family="Helvetica,sans-Serif" font-size="11.00" fill="#000000">int[4]</text>
<polygon fill="#ffffff" stroke="transparent" points="10.5,-169.2 10.5,-191.2 134.5,-191.2 134.5,-169.2 10.5,-169.2"/>
<polygon fill="none" stroke="#000000" points="10.5,-169.2 10.5,-191.2 134.5,-191.2 134.5,-169.2 10.5,-169.2"/>
<text text-anchor="start" x="30.5" y="-176.3" font-family="Helvetica,sans-Serif" font-size="11.00" fill="#000000">Code</text>
<polygon fill="none" stroke="#000000" points="134.5,-169.2 134.5,-191.2 215.5,-191.2 215.5,-169.2 134.5,-169.2"/>
<text text-anchor="start" x="137.5" y="-176.9" font-family="Helvetica,sans-Serif" font-size="11.00" fill="#000000">nvarchar[100]</text>
<polygon fill="none" stroke="#000000" points="10.5,-147.2 10.5,-169.2 134.5,-169.2 134.5,-147.2 10.5,-147.2"/>
<text text-anchor="start" x="30.5" y="-154.3" font-family="Helvetica,sans-Serif" font-size="11.00" fill="#000000">Name</text>
<polygon fill="none" stroke="#000000" points="134.5,-147.2 134.5,-169.2 215.5,-169.2 215.5,-147.2 134.5,-147.2"/>
<text text-anchor="start" x="137.5" y="-154.9" font-family="Helvetica,sans-Serif" font-size="11.00" fill="#000000">nvarchar[200]</text>
<polygon fill="none" stroke="#000000" points="10.5,-125.2 10.5,-147.2 134.5,-147.2 134.5,-125.2 10.5,-125.2"/>
<text text-anchor="start" x="30.5" y="-132.3" font-family="Helvetica,sans-Serif" font-size="11.00" fill="#000000">DisplayOrder</text>
<polygon fill="none" stroke="#000000" points="134.5,-125.2 134.5,-147.2 215.5,-147.2 215.5,-125.2 134.5,-125.2"/>
<text text-anchor="start" x="137.5" y="-132.9" font-family="Helvetica,sans-Serif" font-size="11.00" fill="#000000">int[4]</text>
<polygon fill="none" stroke="#000000" points="10.5,-103.2 10.5,-125.2 134.5,-125.2 134.5,-103.2 10.5,-103.2"/>
<text text-anchor="start" x="30.5" y="-110.3" font-family="Helvetica,sans-Serif" font-size="11.00" fill="#000000">CreatedAtUtc</text>
<polygon fill="none" stroke="#000000" points="134.5,-103.2 134.5,-125.2 215.5,-125.2 215.5,-103.2 134.5,-103.2"/>
<text text-anchor="start" x="137.0967" y="-110.9" font-family="Helvetica,sans-Serif" font-size="11.00" fill="#000000">datetime2[16,7]</text>
<polygon fill="none" stroke="#000000" points="10.5,-81.2 10.5,-103.2 134.5,-103.2 134.5,-81.2 10.5,-81.2"/>
<text text-anchor="start" x="30.5" y="-88.3" font-family="Helvetica,sans-Serif" font-size="11.00" fill="#000000">UpdatedAtUtc</text>
<polygon fill="none" stroke="#000000" points="134.5,-81.2 134.5,-103.2 215.5,-103.2 215.5,-81.2 134.5,-81.2"/>
<text text-anchor="start" x="137.0967" y="-88.9" font-family="Helvetica,sans-Serif" font-size="11.00" fill="#000000">datetime2[16,7]</text>
<polygon fill="none" stroke="#000000" points="10.5,-59.2 10.5,-81.2 134.5,-81.2 134.5,-59.2 10.5,-59.2"/>
<text text-anchor="start" x="30.5" y="-66.3" font-family="Helvetica,sans-Serif" font-size="11.00" fill="#000000">RowVersion</text>
<polygon fill="none" stroke="#000000" points="134.5,-59.2 134.5,-81.2 215.5,-81.2 215.5,-59.2 134.5,-59.2"/>
<text text-anchor="start" x="137.5" y="-66.9" font-family="Helvetica,sans-Serif" font-size="11.00" fill="#000000">timestamp[8]</text>
<polygon fill="#ffffff" stroke="transparent" points="10.5,-40.2 10.5,-59.2 215.5,-59.2 215.5,-40.2 10.5,-40.2"/>
<polygon fill="none" stroke="#000000" points="10.5,-40.2 10.5,-59.2 215.5,-59.2 215.5,-40.2 10.5,-40.2"/>
<polygon fill="#ffffff" stroke="transparent" points="11.5,-41.2 11.5,-58.2 82.5,-58.2 82.5,-41.2 11.5,-41.2"/>
<text text-anchor="start" x="13.5" y="-46.3" font-family="Helvetica,sans-Serif" font-size="11.00" fill="#000000">&lt; 0</text>
<polygon fill="#ffffff" stroke="transparent" points="82.5,-41.2 82.5,-58.2 144.5,-58.2 144.5,-41.2 82.5,-41.2"/>
<text text-anchor="start" x="110.4431" y="-46.3" font-family="Helvetica,sans-Serif" font-size="11.00" fill="#000000"> &#160;</text>
<polygon fill="#ffffff" stroke="transparent" points="144.5,-41.2 144.5,-58.2 214.5,-58.2 214.5,-41.2 144.5,-41.2"/>
<text text-anchor="start" x="196.9053" y="-46.3" font-family="Helvetica,sans-Serif" font-size="11.00" fill="#000000">1 &gt;</text>
<polygon fill="#000000" stroke="#000000" points="82.5,-41.2 82.5,-58.2 82.5,-58.2 82.5,-41.2 82.5,-41.2"/>
<polygon fill="#000000" stroke="#000000" points="144.5,-41.2 144.5,-58.2 144.5,-58.2 144.5,-41.2 144.5,-41.2"/>
<polygon fill="none" stroke="#000000" stroke-width="2" points="9,-39.2 9,-237.2 216,-237.2 216,-39.2 9,-39.2"/>
</a>
</g>
</g>
<!-- Billing.VisitServiceBillings&#45;&gt;ServiceTypes -->
<g id="edge1" class="edge">
<title>Billing.VisitServiceBillings:w&#45;&gt;ServiceTypes:e</title>
<path fill="none" stroke="#000000" d="M252.5967,-229.3988C239.5044,-221.1209 236.2231,-202.2 215.5,-202.2"/>
<polygon fill="#000000" stroke="#000000" points="258.7832,-231.0902 265.5506,-236.6726 262.6416,-232.1451 266.5,-233.2 266.5,-233.2 266.5,-233.2 262.6416,-232.1451 267.4494,-229.7274 258.7832,-231.0902 258.7832,-231.0902"/>
<ellipse fill="none" stroke="#000000" cx="255.6965" cy="-230.2462" rx="3.2" ry="3.2"/>
</g>
<!-- Visits -->
<g id="node3" class="node">
<title>Visits</title>
<g id="a_node3"><a xlink:href="../../tables/Visits.html" xlink:title="Visits" target="_top">
<polygon fill="#ffffff" stroke="transparent" points="73,-259.7 73,-320.7 152,-320.7 152,-259.7 73,-259.7"/>
<polygon fill="#f5f5f5" stroke="transparent" points="73.5,-297.2 73.5,-320.2 152.5,-320.2 152.5,-297.2 73.5,-297.2"/>
<polygon fill="none" stroke="#000000" points="73.5,-297.2 73.5,-320.2 152.5,-320.2 152.5,-297.2 73.5,-297.2"/>
<text text-anchor="start" x="78.5" y="-305.8" font-family="Helvetica,sans-Serif" font-weight="bold" font-size="11.00" fill="#000000">Visits</text>
<text text-anchor="start" x="118.0219" y="-305.3" font-family="Helvetica,sans-Serif" font-size="11.00" fill="#000000">[table]</text>
<polygon fill="none" stroke="#000000" points="73.5,-278.2 73.5,-297.2 152.5,-297.2 152.5,-278.2 73.5,-278.2"/>
<text text-anchor="start" x="76.5" y="-284.3" font-family="Helvetica,sans-Serif" font-size="11.00" fill="#000000">...</text>
<polygon fill="#ffffff" stroke="transparent" points="73.5,-259.2 73.5,-278.2 152.5,-278.2 152.5,-259.2 73.5,-259.2"/>
<polygon fill="none" stroke="#000000" points="73.5,-259.2 73.5,-278.2 152.5,-278.2 152.5,-259.2 73.5,-259.2"/>
<polygon fill="#ffffff" stroke="transparent" points="74.5,-260.2 74.5,-277.2 103.5,-277.2 103.5,-260.2 74.5,-260.2"/>
<text text-anchor="start" x="76.5" y="-265.3" font-family="Helvetica,sans-Serif" font-size="11.00" fill="#000000">&lt; 1</text>
<polygon fill="#ffffff" stroke="transparent" points="103.5,-260.2 103.5,-277.2 123.5,-277.2 123.5,-260.2 103.5,-260.2"/>
<text text-anchor="start" x="110.4431" y="-265.3" font-family="Helvetica,sans-Serif" font-size="11.00" fill="#000000"> &#160;</text>
<polygon fill="#ffffff" stroke="transparent" points="123.5,-260.2 123.5,-277.2 151.5,-277.2 151.5,-260.2 123.5,-260.2"/>
<text text-anchor="start" x="133.9053" y="-265.3" font-family="Helvetica,sans-Serif" font-size="11.00" fill="#000000">4 &gt;</text>
<polygon fill="#000000" stroke="#000000" points="103.5,-260.2 103.5,-277.2 103.5,-277.2 103.5,-260.2 103.5,-260.2"/>
<polygon fill="#000000" stroke="#000000" points="123.5,-260.2 123.5,-277.2 123.5,-277.2 123.5,-260.2 123.5,-260.2"/>
</a>
</g>
</g>
<!-- Billing.VisitServiceBillings&#45;&gt;Visits -->
<g id="edge2" class="edge">
<title>Billing.VisitServiceBillings:w&#45;&gt;Visits:e</title>
<path fill="none" stroke="#000000" d="M251.9934,-256.0893C211.6966,-261.2575 199.883,-287.2 152.5,-287.2"/>
<polygon fill="#000000" stroke="#000000" points="258.515,-255.6895 266.7203,-258.7933 262.5075,-255.4448 266.5,-255.2 266.5,-255.2 266.5,-255.2 262.5075,-255.4448 266.2797,-251.6067 258.515,-255.6895 258.515,-255.6895"/>
<ellipse fill="none" stroke="#000000" cx="255.321" cy="-255.8854" rx="3.2" ry="3.2"/>
</g>
</g>
</svg>
