<?xml version="1.0" encoding="UTF-8" standalone="no"?>
<!DOCTYPE svg PUBLIC "-//W3C//DTD SVG 1.1//EN"
 "http://www.w3.org/Graphics/SVG/1.1/DTD/svg11.dtd">
<!-- Generated by graphviz version 2.40.1 (20161225.0304)
 -->
<!-- Title: twoDegreesRelationshipsDiagram Pages: 1 -->
<svg width="513pt" height="289pt"
 viewBox="0.00 0.00 513.00 288.70" xmlns="http://www.w3.org/2000/svg" xmlns:xlink="http://www.w3.org/1999/xlink">
<g id="graph0" class="graph" transform="scale(1 1) rotate(0) translate(4 284.7)">
<title>twoDegreesRelationshipsDiagram</title>
<polygon fill="#ffffff" stroke="transparent" points="-4,4 -4,-284.7 509,-284.7 509,4 -4,4"/>
<text text-anchor="middle" x="72.4936" y="-7.3" font-family="Helvetica,sans-Serif" font-size="11.00" fill="#000000">Generated by SchemaSpy</text>
<!-- Billing.VisitServiceBillings -->
<g id="node1" class="node">
<title>Billing.VisitServiceBillings</title>
<g id="a_node1"><a xlink:title="Billing.VisitServiceBillings">
<polygon fill="#ffffff" stroke="transparent" points="266,-140.7 266,-245.7 497,-245.7 497,-140.7 266,-140.7"/>
<polygon fill="#f5f5f5" stroke="transparent" points="266.5,-222.2 266.5,-245.2 497.5,-245.2 497.5,-222.2 266.5,-222.2"/>
<polygon fill="none" stroke="#000000" points="266.5,-222.2 266.5,-245.2 497.5,-245.2 497.5,-222.2 266.5,-222.2"/>
<text text-anchor="start" x="271.5" y="-230.8" font-family="Helvetica,sans-Serif" font-weight="bold" font-size="11.00" fill="#000000">Billing.VisitServiceBillings</text>
<text text-anchor="start" x="463.0219" y="-230.3" font-family="Helvetica,sans-Serif" font-size="11.00" fill="#000000">[table]</text>
<polygon fill="none" stroke="#000000" points="266.5,-200.2 266.5,-222.2 497.5,-222.2 497.5,-200.2 266.5,-200.2"/>
<image xlink:href="../../images/foreignKeys.png" width="11px" height="12px" preserveAspectRatio="xMinYMin meet" x="271.5" y="-217.2"/>
<text text-anchor="start" x="321.5" y="-207.3" font-family="Helvetica,sans-Serif" font-size="11.00" fill="#000000">VisitId</text>
<polygon fill="none" stroke="#000000" points="266.5,-178.2 266.5,-200.2 497.5,-200.2 497.5,-178.2 266.5,-178.2"/>
<image xlink:href="../../images/foreignKeys.png" width="11px" height="12px" preserveAspectRatio="xMinYMin meet" x="271.5" y="-195.2"/>
<text text-anchor="start" x="321.5" y="-185.3" font-family="Helvetica,sans-Serif" font-size="11.00" fill="#000000">ServiceTypeId</text>
<polygon fill="none" stroke="#000000" points="266.5,-159.2 266.5,-178.2 497.5,-178.2 497.5,-159.2 266.5,-159.2"/>
<text text-anchor="start" x="269.5" y="-165.3" font-family="Helvetica,sans-Serif" font-size="11.00" fill="#000000">...</text>
<polygon fill="#ffffff" stroke="transparent" points="266.5,-140.2 266.5,-159.2 497.5,-159.2 497.5,-140.2 266.5,-140.2"/>
<polygon fill="none" stroke="#000000" points="266.5,-140.2 266.5,-159.2 497.5,-159.2 497.5,-140.2 266.5,-140.2"/>
<polygon fill="#ffffff" stroke="transparent" points="267.5,-141.2 267.5,-158.2 350.5,-158.2 350.5,-141.2 267.5,-141.2"/>
<text text-anchor="start" x="269.5" y="-146.3" font-family="Helvetica,sans-Serif" font-size="11.00" fill="#000000">&lt; 2</text>
<polygon fill="#ffffff" stroke="transparent" points="350.5,-141.2 350.5,-158.2 423.5,-158.2 423.5,-141.2 350.5,-141.2"/>
<text text-anchor="start" x="383.9431" y="-146.3" font-family="Helvetica,sans-Serif" font-size="11.00" fill="#000000"> &#160;</text>
<polygon fill="#ffffff" stroke="transparent" points="423.5,-141.2 423.5,-158.2 496.5,-158.2 496.5,-141.2 423.5,-141.2"/>
<text text-anchor="start" x="488.3862" y="-146.3" font-family="Helvetica,sans-Serif" font-size="11.00" fill="#000000"> &#160;</text>
<polygon fill="#000000" stroke="#000000" points="350.5,-141.2 350.5,-158.2 350.5,-158.2 350.5,-141.2 350.5,-141.2"/>
<polygon fill="#000000" stroke="#000000" points="423.5,-141.2 423.5,-158.2 423.5,-158.2 423.5,-141.2 423.5,-141.2"/>
</a>
</g>
</g>
<!-- ServiceTypes -->
<g id="node2" class="node">
<title>ServiceTypes</title>
<g id="a_node2"><a xlink:href="../../tables/ServiceTypes.html" xlink:title="ServiceTypes" target="_top">
<polygon fill="#ffffff" stroke="transparent" points="8,-38.2 8,-194.2 217,-194.2 217,-38.2 8,-38.2"/>
<polygon fill="#f5f5f5" stroke="transparent" points="10.5,-169.2 10.5,-192.2 215.5,-192.2 215.5,-169.2 10.5,-169.2"/>
<polygon fill="none" stroke="#000000" points="10.5,-169.2 10.5,-192.2 215.5,-192.2 215.5,-169.2 10.5,-169.2"/>
<text text-anchor="start" x="15.5" y="-177.8" font-family="Helvetica,sans-Serif" font-weight="bold" font-size="11.00" fill="#000000">ServiceTypes</text>
<text text-anchor="start" x="180.5437" y="-177.3" font-family="Helvetica,sans-Serif" font-size="11.00" fill="#000000">[table]</text>
<polygon fill="none" stroke="#000000" points="10.5,-147.2 10.5,-169.2 134.5,-169.2 134.5,-147.2 10.5,-147.2"/>
<image xlink:href="../../images/primaryKeys.png" width="11px" height="12px" preserveAspectRatio="xMinYMin meet" x="15.5" y="-164.2"/>
<text text-anchor="start" x="30.5" y="-154.3" font-family="Helvetica,sans-Serif" font-size="11.00" fill="#000000">Id</text>
<polygon fill="none" stroke="#000000" points="134.5,-147.2 134.5,-169.2 215.5,-169.2 215.5,-147.2 134.5,-147.2"/>
<text text-anchor="start" x="137.5" y="-154.9" font-family="Helvetica,sans-Serif" font-size="11.00" fill="#000000">int identity[4]</text>
<polygon fill="none" stroke="#000000" points="10.5,-125.2 10.5,-147.2 134.5,-147.2 134.5,-125.2 10.5,-125.2"/>
<text text-anchor="start" x="30.5" y="-132.3" font-family="Helvetica,sans-Serif" font-size="11.00" fill="#000000">Description</text>
<polygon fill="none" stroke="#000000" points="134.5,-125.2 134.5,-147.2 215.5,-147.2 215.5,-125.2 134.5,-125.2"/>
<text text-anchor="start" x="137.5" y="-132.9" font-family="Helvetica,sans-Serif" font-size="11.00" fill="#000000">nvarchar[200]</text>
<polygon fill="none" stroke="#000000" points="10.5,-103.2 10.5,-125.2 134.5,-125.2 134.5,-103.2 10.5,-103.2"/>
<text text-anchor="start" x="30.5" y="-110.3" font-family="Helvetica,sans-Serif" font-size="11.00" fill="#000000">CreatedAtUtc</text>
<polygon fill="none" stroke="#000000" points="134.5,-103.2 134.5,-125.2 215.5,-125.2 215.5,-103.2 134.5,-103.2"/>
<text text-anchor="start" x="137.0967" y="-110.9" font-family="Helvetica,sans-Serif" font-size="11.00" fill="#000000">datetime2[16,7]</text>
<polygon fill="none" stroke="#000000" points="10.5,-81.2 10.5,-103.2 134.5,-103.2 134.5,-81.2 10.5,-81.2"/>
<text text-anchor="start" x="30.5" y="-88.3" font-family="Helvetica,sans-Serif" font-size="11.00" fill="#000000">UpdatedAtUtc</text>
<polygon fill="none" stroke="#000000" points="134.5,-81.2 134.5,-103.2 215.5,-103.2 215.5,-81.2 134.5,-81.2"/>
<text text-anchor="start" x="137.0967" y="-88.9" font-family="Helvetica,sans-Serif" font-size="11.00" fill="#000000">datetime2[16,7]</text>
<polygon fill="none" stroke="#000000" points="10.5,-59.2 10.5,-81.2 134.5,-81.2 134.5,-59.2 10.5,-59.2"/>
<text text-anchor="start" x="30.5" y="-66.3" font-family="Helvetica,sans-Serif" font-size="11.00" fill="#000000">RowVersion</text>
<polygon fill="none" stroke="#000000" points="134.5,-59.2 134.5,-81.2 215.5,-81.2 215.5,-59.2 134.5,-59.2"/>
<text text-anchor="start" x="137.5" y="-66.9" font-family="Helvetica,sans-Serif" font-size="11.00" fill="#000000">timestamp[8]</text>
<polygon fill="#ffffff" stroke="transparent" points="10.5,-40.2 10.5,-59.2 215.5,-59.2 215.5,-40.2 10.5,-40.2"/>
<polygon fill="none" stroke="#000000" points="10.5,-40.2 10.5,-59.2 215.5,-59.2 215.5,-40.2 10.5,-40.2"/>
<polygon fill="#ffffff" stroke="transparent" points="11.5,-41.2 11.5,-58.2 82.5,-58.2 82.5,-41.2 11.5,-41.2"/>
<text text-anchor="start" x="13.5" y="-46.3" font-family="Helvetica,sans-Serif" font-size="11.00" fill="#000000">&lt; 0</text>
<polygon fill="#ffffff" stroke="transparent" points="82.5,-41.2 82.5,-58.2 144.5,-58.2 144.5,-41.2 82.5,-41.2"/>
<text text-anchor="start" x="110.4431" y="-46.3" font-family="Helvetica,sans-Serif" font-size="11.00" fill="#000000"> &#160;</text>
<polygon fill="#ffffff" stroke="transparent" points="144.5,-41.2 144.5,-58.2 214.5,-58.2 214.5,-41.2 144.5,-41.2"/>
<text text-anchor="start" x="196.9053" y="-46.3" font-family="Helvetica,sans-Serif" font-size="11.00" fill="#000000">1 &gt;</text>
<polygon fill="#000000" stroke="#000000" points="82.5,-41.2 82.5,-58.2 82.5,-58.2 82.5,-41.2 82.5,-41.2"/>
<polygon fill="#000000" stroke="#000000" points="144.5,-41.2 144.5,-58.2 144.5,-58.2 144.5,-41.2 144.5,-41.2"/>
<polygon fill="none" stroke="#000000" stroke-width="2" points="9,-39.2 9,-193.2 216,-193.2 216,-39.2 9,-39.2"/>
</a>
</g>
</g>
<!-- Billing.VisitServiceBillings&#45;&gt;ServiceTypes -->
<g id="edge1" class="edge">
<title>Billing.VisitServiceBillings:w&#45;&gt;ServiceTypes:e</title>
<path fill="none" stroke="#000000" d="M252.5967,-185.3988C239.5044,-177.1209 236.2231,-158.2 215.5,-158.2"/>
<polygon fill="#000000" stroke="#000000" points="258.7832,-187.0902 265.5506,-192.6726 262.6416,-188.1451 266.5,-189.2 266.5,-189.2 266.5,-189.2 262.6416,-188.1451 267.4494,-185.7274 258.7832,-187.0902 258.7832,-187.0902"/>
<ellipse fill="none" stroke="#000000" cx="255.6965" cy="-186.2462" rx="3.2" ry="3.2"/>
</g>
<!-- Visits -->
<g id="node3" class="node">
<title>Visits</title>
<g id="a_node3"><a xlink:href="../../tables/Visits.html" xlink:title="Visits" target="_top">
<polygon fill="#ffffff" stroke="transparent" points="73,-215.7 73,-276.7 152,-276.7 152,-215.7 73,-215.7"/>
<polygon fill="#f5f5f5" stroke="transparent" points="73.5,-253.2 73.5,-276.2 152.5,-276.2 152.5,-253.2 73.5,-253.2"/>
<polygon fill="none" stroke="#000000" points="73.5,-253.2 73.5,-276.2 152.5,-276.2 152.5,-253.2 73.5,-253.2"/>
<text text-anchor="start" x="78.5" y="-261.8" font-family="Helvetica,sans-Serif" font-weight="bold" font-size="11.00" fill="#000000">Visits</text>
<text text-anchor="start" x="118.0219" y="-261.3" font-family="Helvetica,sans-Serif" font-size="11.00" fill="#000000">[table]</text>
<polygon fill="none" stroke="#000000" points="73.5,-234.2 73.5,-253.2 152.5,-253.2 152.5,-234.2 73.5,-234.2"/>
<text text-anchor="start" x="76.5" y="-240.3" font-family="Helvetica,sans-Serif" font-size="11.00" fill="#000000">...</text>
<polygon fill="#ffffff" stroke="transparent" points="73.5,-215.2 73.5,-234.2 152.5,-234.2 152.5,-215.2 73.5,-215.2"/>
<polygon fill="none" stroke="#000000" points="73.5,-215.2 73.5,-234.2 152.5,-234.2 152.5,-215.2 73.5,-215.2"/>
<polygon fill="#ffffff" stroke="transparent" points="74.5,-216.2 74.5,-233.2 103.5,-233.2 103.5,-216.2 74.5,-216.2"/>
<text text-anchor="start" x="76.5" y="-221.3" font-family="Helvetica,sans-Serif" font-size="11.00" fill="#000000">&lt; 1</text>
<polygon fill="#ffffff" stroke="transparent" points="103.5,-216.2 103.5,-233.2 123.5,-233.2 123.5,-216.2 103.5,-216.2"/>
<text text-anchor="start" x="110.4431" y="-221.3" font-family="Helvetica,sans-Serif" font-size="11.00" fill="#000000"> &#160;</text>
<polygon fill="#ffffff" stroke="transparent" points="123.5,-216.2 123.5,-233.2 151.5,-233.2 151.5,-216.2 123.5,-216.2"/>
<text text-anchor="start" x="133.9053" y="-221.3" font-family="Helvetica,sans-Serif" font-size="11.00" fill="#000000">4 &gt;</text>
<polygon fill="#000000" stroke="#000000" points="103.5,-216.2 103.5,-233.2 103.5,-233.2 103.5,-216.2 103.5,-216.2"/>
<polygon fill="#000000" stroke="#000000" points="123.5,-216.2 123.5,-233.2 123.5,-233.2 123.5,-216.2 123.5,-216.2"/>
</a>
</g>
</g>
<!-- Billing.VisitServiceBillings&#45;&gt;Visits -->
<g id="edge2" class="edge">
<title>Billing.VisitServiceBillings:w&#45;&gt;Visits:e</title>
<path fill="none" stroke="#000000" d="M251.9934,-212.0893C211.6966,-217.2575 199.883,-243.2 152.5,-243.2"/>
<polygon fill="#000000" stroke="#000000" points="258.515,-211.6895 266.7203,-214.7933 262.5075,-211.4448 266.5,-211.2 266.5,-211.2 266.5,-211.2 262.5075,-211.4448 266.2797,-207.6067 258.515,-211.6895 258.515,-211.6895"/>
<ellipse fill="none" stroke="#000000" cx="255.321" cy="-211.8854" rx="3.2" ry="3.2"/>
</g>
</g>
</svg>
