<?xml version="1.0" encoding="UTF-8" standalone="no"?>
<!DOCTYPE svg PUBLIC "-//W3C//DTD SVG 1.1//EN"
 "http://www.w3.org/Graphics/SVG/1.1/DTD/svg11.dtd">
<!-- Generated by graphviz version 2.40.1 (20161225.0304)
 -->
<!-- Title: oneDegreeRelationshipsDiagram Pages: 1 -->
<svg width="873pt" height="583pt"
 viewBox="0.00 0.00 873.00 583.20" xmlns="http://www.w3.org/2000/svg" xmlns:xlink="http://www.w3.org/1999/xlink">
<g id="graph0" class="graph" transform="scale(1 1) rotate(0) translate(4 579.2)">
<title>oneDegreeRelationshipsDiagram</title>
<polygon fill="#ffffff" stroke="transparent" points="-4,4 -4,-579.2 869,-579.2 869,4 -4,4"/>
<text text-anchor="middle" x="72.4936" y="-7.3" font-family="Helvetica,sans-Serif" font-size="11.00" fill="#000000">Generated by SchemaSpy</text>
<!-- VisitAttendants -->
<g id="node1" class="node">
<title>VisitAttendants</title>
<g id="a_node1"><a xlink:href="../../tables/VisitAttendants.html" xlink:title="VisitAttendants" target="_top">
<polygon fill="#ffffff" stroke="transparent" points="627,-38.2 627,-165.2 780,-165.2 780,-38.2 627,-38.2"/>
<polygon fill="#f5f5f5" stroke="transparent" points="627.5,-141.7 627.5,-164.7 780.5,-164.7 780.5,-141.7 627.5,-141.7"/>
<polygon fill="none" stroke="#000000" points="627.5,-141.7 627.5,-164.7 780.5,-164.7 780.5,-141.7 627.5,-141.7"/>
<text text-anchor="start" x="632.5" y="-150.3" font-family="Helvetica,sans-Serif" font-weight="bold" font-size="11.00" fill="#000000">VisitAttendants</text>
<text text-anchor="start" x="746.0219" y="-149.8" font-family="Helvetica,sans-Serif" font-size="11.00" fill="#000000">[table]</text>
<polygon fill="none" stroke="#000000" points="627.5,-119.7 627.5,-141.7 780.5,-141.7 780.5,-119.7 627.5,-119.7"/>
<image xlink:href="../../images/primaryKeys.png" width="11px" height="12px" preserveAspectRatio="xMinYMin meet" x="632.5" y="-136.7"/>
<text text-anchor="start" x="656.5" y="-126.8" font-family="Helvetica,sans-Serif" font-size="11.00" fill="#000000">Id</text>
<polygon fill="#ffffff" stroke="transparent" points="627.5,-97.7 627.5,-119.7 780.5,-119.7 780.5,-97.7 627.5,-97.7"/>
<polygon fill="none" stroke="#000000" points="627.5,-97.7 627.5,-119.7 780.5,-119.7 780.5,-97.7 627.5,-97.7"/>
<image xlink:href="../../images/foreignKeys.png" width="11px" height="12px" preserveAspectRatio="xMinYMin meet" x="632.5" y="-114.7"/>
<text text-anchor="start" x="656.5" y="-104.8" font-family="Helvetica,sans-Serif" font-size="11.00" fill="#000000">VisitId</text>
<polygon fill="#ffffff" stroke="transparent" points="627.5,-75.7 627.5,-97.7 780.5,-97.7 780.5,-75.7 627.5,-75.7"/>
<polygon fill="none" stroke="#000000" points="627.5,-75.7 627.5,-97.7 780.5,-97.7 780.5,-75.7 627.5,-75.7"/>
<image xlink:href="../../images/foreignKeys.png" width="11px" height="12px" preserveAspectRatio="xMinYMin meet" x="632.5" y="-92.7"/>
<text text-anchor="start" x="656.5" y="-82.8" font-family="Helvetica,sans-Serif" font-size="11.00" fill="#000000">ProviderId</text>
<polygon fill="none" stroke="#000000" points="627.5,-56.7 627.5,-75.7 780.5,-75.7 780.5,-56.7 627.5,-56.7"/>
<text text-anchor="start" x="630.5" y="-62.8" font-family="Helvetica,sans-Serif" font-size="11.00" fill="#000000">...</text>
<polygon fill="#ffffff" stroke="transparent" points="627.5,-37.7 627.5,-56.7 780.5,-56.7 780.5,-37.7 627.5,-37.7"/>
<polygon fill="none" stroke="#000000" points="627.5,-37.7 627.5,-56.7 780.5,-56.7 780.5,-37.7 627.5,-37.7"/>
<polygon fill="#ffffff" stroke="transparent" points="628.5,-38.7 628.5,-55.7 685.5,-55.7 685.5,-38.7 628.5,-38.7"/>
<text text-anchor="start" x="630.5" y="-43.8" font-family="Helvetica,sans-Serif" font-size="11.00" fill="#000000">&lt; 2</text>
<polygon fill="#ffffff" stroke="transparent" points="685.5,-38.7 685.5,-55.7 732.5,-55.7 732.5,-38.7 685.5,-38.7"/>
<text text-anchor="start" x="705.9431" y="-43.8" font-family="Helvetica,sans-Serif" font-size="11.00" fill="#000000"> &#160;</text>
<polygon fill="#ffffff" stroke="transparent" points="732.5,-38.7 732.5,-55.7 779.5,-55.7 779.5,-38.7 732.5,-38.7"/>
<text text-anchor="start" x="771.3862" y="-43.8" font-family="Helvetica,sans-Serif" font-size="11.00" fill="#000000"> &#160;</text>
<polygon fill="#000000" stroke="#000000" points="685.5,-38.7 685.5,-55.7 685.5,-55.7 685.5,-38.7 685.5,-38.7"/>
<polygon fill="#000000" stroke="#000000" points="732.5,-38.7 732.5,-55.7 732.5,-55.7 732.5,-38.7 732.5,-38.7"/>
</a>
</g>
</g>
<!-- Visits -->
<g id="node2" class="node">
<title>Visits</title>
<g id="a_node2"><a xlink:href="../../tables/Visits.html" xlink:title="Visits" target="_top">
<polygon fill="#ffffff" stroke="transparent" points="250,-125.7 250,-391.7 501,-391.7 501,-125.7 250,-125.7"/>
<polygon fill="#f5f5f5" stroke="transparent" points="252.5,-366.7 252.5,-389.7 499.5,-389.7 499.5,-366.7 252.5,-366.7"/>
<polygon fill="none" stroke="#000000" points="252.5,-366.7 252.5,-389.7 499.5,-389.7 499.5,-366.7 252.5,-366.7"/>
<text text-anchor="start" x="257.5" y="-375.3" font-family="Helvetica,sans-Serif" font-weight="bold" font-size="11.00" fill="#000000">Visits</text>
<text text-anchor="start" x="464.5437" y="-374.8" font-family="Helvetica,sans-Serif" font-size="11.00" fill="#000000">[table]</text>
<polygon fill="none" stroke="#000000" points="252.5,-344.7 252.5,-366.7 418.5,-366.7 418.5,-344.7 252.5,-344.7"/>
<image xlink:href="../../images/primaryKeys.png" width="11px" height="12px" preserveAspectRatio="xMinYMin meet" x="257.5" y="-361.7"/>
<text text-anchor="start" x="272.5" y="-351.8" font-family="Helvetica,sans-Serif" font-size="11.00" fill="#000000">Id</text>
<polygon fill="none" stroke="#000000" points="418.5,-344.7 418.5,-366.7 499.5,-366.7 499.5,-344.7 418.5,-344.7"/>
<text text-anchor="start" x="421.5" y="-352.4" font-family="Helvetica,sans-Serif" font-size="11.00" fill="#000000">int identity[4]</text>
<polygon fill="#ffffff" stroke="transparent" points="252.5,-322.7 252.5,-344.7 418.5,-344.7 418.5,-322.7 252.5,-322.7"/>
<polygon fill="none" stroke="#000000" points="252.5,-322.7 252.5,-344.7 418.5,-344.7 418.5,-322.7 252.5,-322.7"/>
<text text-anchor="start" x="272.5" y="-329.8" font-family="Helvetica,sans-Serif" font-size="11.00" fill="#000000">DateServiced</text>
<polygon fill="none" stroke="#000000" points="418.5,-322.7 418.5,-344.7 499.5,-344.7 499.5,-322.7 418.5,-322.7"/>
<text text-anchor="start" x="421.5" y="-330.4" font-family="Helvetica,sans-Serif" font-size="11.00" fill="#000000">date[6]</text>
<polygon fill="#ffffff" stroke="transparent" points="252.5,-300.7 252.5,-322.7 418.5,-322.7 418.5,-300.7 252.5,-300.7"/>
<polygon fill="none" stroke="#000000" points="252.5,-300.7 252.5,-322.7 418.5,-322.7 418.5,-300.7 252.5,-300.7"/>
<image xlink:href="../../images/foreignKeys.png" width="11px" height="12px" preserveAspectRatio="xMinYMin meet" x="257.5" y="-317.7"/>
<text text-anchor="start" x="272.5" y="-307.8" font-family="Helvetica,sans-Serif" font-size="11.00" fill="#000000">HospitalizationId</text>
<polygon fill="none" stroke="#000000" points="418.5,-300.7 418.5,-322.7 499.5,-322.7 499.5,-300.7 418.5,-300.7"/>
<text text-anchor="start" x="421.5" y="-308.4" font-family="Helvetica,sans-Serif" font-size="11.00" fill="#000000">int[4]</text>
<polygon fill="none" stroke="#000000" points="252.5,-278.7 252.5,-300.7 418.5,-300.7 418.5,-278.7 252.5,-278.7"/>
<text text-anchor="start" x="272.5" y="-285.8" font-family="Helvetica,sans-Serif" font-size="11.00" fill="#000000">IsScribeServiceOnly</text>
<polygon fill="none" stroke="#000000" points="418.5,-278.7 418.5,-300.7 499.5,-300.7 499.5,-278.7 418.5,-278.7"/>
<text text-anchor="start" x="421.5" y="-286.4" font-family="Helvetica,sans-Serif" font-size="11.00" fill="#000000">bit[1]</text>
<polygon fill="#ffffff" stroke="transparent" points="252.5,-256.7 252.5,-278.7 418.5,-278.7 418.5,-256.7 252.5,-256.7"/>
<polygon fill="none" stroke="#000000" points="252.5,-256.7 252.5,-278.7 418.5,-278.7 418.5,-256.7 252.5,-256.7"/>
<image xlink:href="../../images/foreignKeys.png" width="11px" height="12px" preserveAspectRatio="xMinYMin meet" x="257.5" y="-273.7"/>
<text text-anchor="start" x="272.5" y="-263.8" font-family="Helvetica,sans-Serif" font-size="11.00" fill="#000000">ServiceTypeId</text>
<polygon fill="none" stroke="#000000" points="418.5,-256.7 418.5,-278.7 499.5,-278.7 499.5,-256.7 418.5,-256.7"/>
<text text-anchor="start" x="421.5" y="-264.4" font-family="Helvetica,sans-Serif" font-size="11.00" fill="#000000">int[4]</text>
<polygon fill="none" stroke="#000000" points="252.5,-234.7 252.5,-256.7 418.5,-256.7 418.5,-234.7 252.5,-234.7"/>
<text text-anchor="start" x="272.5" y="-241.8" font-family="Helvetica,sans-Serif" font-size="11.00" fill="#000000">Room</text>
<polygon fill="none" stroke="#000000" points="418.5,-234.7 418.5,-256.7 499.5,-256.7 499.5,-234.7 418.5,-234.7"/>
<text text-anchor="start" x="421.5" y="-242.4" font-family="Helvetica,sans-Serif" font-size="11.00" fill="#000000">nvarchar[40]</text>
<polygon fill="none" stroke="#000000" points="252.5,-212.7 252.5,-234.7 418.5,-234.7 418.5,-212.7 252.5,-212.7"/>
<text text-anchor="start" x="272.5" y="-219.8" font-family="Helvetica,sans-Serif" font-size="11.00" fill="#000000">Bed</text>
<polygon fill="none" stroke="#000000" points="418.5,-212.7 418.5,-234.7 499.5,-234.7 499.5,-212.7 418.5,-212.7"/>
<text text-anchor="start" x="421.5" y="-220.4" font-family="Helvetica,sans-Serif" font-size="11.00" fill="#000000">nvarchar[10]</text>
<polygon fill="none" stroke="#000000" points="252.5,-190.7 252.5,-212.7 418.5,-212.7 418.5,-190.7 252.5,-190.7"/>
<text text-anchor="start" x="272.5" y="-197.8" font-family="Helvetica,sans-Serif" font-size="11.00" fill="#000000">CreatedAtUtc</text>
<polygon fill="none" stroke="#000000" points="418.5,-190.7 418.5,-212.7 499.5,-212.7 499.5,-190.7 418.5,-190.7"/>
<text text-anchor="start" x="421.0968" y="-198.4" font-family="Helvetica,sans-Serif" font-size="11.00" fill="#000000">datetime2[16,7]</text>
<polygon fill="none" stroke="#000000" points="252.5,-168.7 252.5,-190.7 418.5,-190.7 418.5,-168.7 252.5,-168.7"/>
<text text-anchor="start" x="272.5" y="-175.8" font-family="Helvetica,sans-Serif" font-size="11.00" fill="#000000">UpdatedAtUtc</text>
<polygon fill="none" stroke="#000000" points="418.5,-168.7 418.5,-190.7 499.5,-190.7 499.5,-168.7 418.5,-168.7"/>
<text text-anchor="start" x="421.0968" y="-176.4" font-family="Helvetica,sans-Serif" font-size="11.00" fill="#000000">datetime2[16,7]</text>
<polygon fill="none" stroke="#000000" points="252.5,-146.7 252.5,-168.7 418.5,-168.7 418.5,-146.7 252.5,-146.7"/>
<text text-anchor="start" x="272.5" y="-153.8" font-family="Helvetica,sans-Serif" font-size="11.00" fill="#000000">RowVersion</text>
<polygon fill="none" stroke="#000000" points="418.5,-146.7 418.5,-168.7 499.5,-168.7 499.5,-146.7 418.5,-146.7"/>
<text text-anchor="start" x="421.5" y="-154.4" font-family="Helvetica,sans-Serif" font-size="11.00" fill="#000000">timestamp[8]</text>
<polygon fill="#ffffff" stroke="transparent" points="252.5,-127.7 252.5,-146.7 499.5,-146.7 499.5,-127.7 252.5,-127.7"/>
<polygon fill="none" stroke="#000000" points="252.5,-127.7 252.5,-146.7 499.5,-146.7 499.5,-127.7 252.5,-127.7"/>
<polygon fill="#ffffff" stroke="transparent" points="253.5,-128.7 253.5,-145.7 338.5,-145.7 338.5,-128.7 253.5,-128.7"/>
<text text-anchor="start" x="255.5" y="-133.8" font-family="Helvetica,sans-Serif" font-size="11.00" fill="#000000">&lt; 2</text>
<polygon fill="#ffffff" stroke="transparent" points="338.5,-128.7 338.5,-145.7 414.5,-145.7 414.5,-128.7 338.5,-128.7"/>
<text text-anchor="start" x="373.4431" y="-133.8" font-family="Helvetica,sans-Serif" font-size="11.00" fill="#000000"> &#160;</text>
<polygon fill="#ffffff" stroke="transparent" points="414.5,-128.7 414.5,-145.7 498.5,-145.7 498.5,-128.7 414.5,-128.7"/>
<text text-anchor="start" x="480.9053" y="-133.8" font-family="Helvetica,sans-Serif" font-size="11.00" fill="#000000">3 &gt;</text>
<polygon fill="#000000" stroke="#000000" points="338.5,-128.7 338.5,-145.7 338.5,-145.7 338.5,-128.7 338.5,-128.7"/>
<polygon fill="#000000" stroke="#000000" points="414.5,-128.7 414.5,-145.7 414.5,-145.7 414.5,-128.7 414.5,-128.7"/>
<polygon fill="none" stroke="#000000" stroke-width="2" points="251,-126.7 251,-390.7 500,-390.7 500,-126.7 251,-126.7"/>
</a>
</g>
</g>
<!-- VisitAttendants&#45;&gt;Visits -->
<g id="edge1" class="edge">
<title>VisitAttendants:w&#45;&gt;Visits:e</title>
<path fill="none" stroke="#000000" d="M612.9213,-109.6292C576.593,-114.631 565.1661,-139.4773 542,-175.7 497.7122,-244.9487 581.6997,-355.7 499.5,-355.7"/>
<polygon fill="#000000" stroke="#000000" points="619.5162,-109.2089 627.729,-112.2927 623.5081,-108.9545 627.5,-108.7 627.5,-108.7 627.5,-108.7 623.5081,-108.9545 627.271,-105.1073 619.5162,-109.2089 619.5162,-109.2089"/>
<ellipse fill="none" stroke="#000000" cx="616.3227" cy="-109.4125" rx="3.2" ry="3.2"/>
</g>
<!-- Hospitalizations -->
<g id="node4" class="node">
<title>Hospitalizations</title>
<g id="a_node4"><a xlink:href="../../tables/Hospitalizations.html" xlink:title="Hospitalizations" target="_top">
<polygon fill="#ffffff" stroke="transparent" points="8,-337.2 8,-508.2 201,-508.2 201,-337.2 8,-337.2"/>
<polygon fill="#f5f5f5" stroke="transparent" points="8.5,-484.7 8.5,-507.7 201.5,-507.7 201.5,-484.7 8.5,-484.7"/>
<polygon fill="none" stroke="#000000" points="8.5,-484.7 8.5,-507.7 201.5,-507.7 201.5,-484.7 8.5,-484.7"/>
<text text-anchor="start" x="13.5" y="-493.3" font-family="Helvetica,sans-Serif" font-weight="bold" font-size="11.00" fill="#000000">Hospitalizations</text>
<text text-anchor="start" x="166.5437" y="-492.8" font-family="Helvetica,sans-Serif" font-size="11.00" fill="#000000">[table]</text>
<polygon fill="none" stroke="#000000" points="8.5,-462.7 8.5,-484.7 201.5,-484.7 201.5,-462.7 8.5,-462.7"/>
<image xlink:href="../../images/primaryKeys.png" width="11px" height="12px" preserveAspectRatio="xMinYMin meet" x="13.5" y="-479.7"/>
<text text-anchor="start" x="28.5" y="-469.8" font-family="Helvetica,sans-Serif" font-size="11.00" fill="#000000">Id</text>
<polygon fill="#ffffff" stroke="transparent" points="8.5,-440.7 8.5,-462.7 201.5,-462.7 201.5,-440.7 8.5,-440.7"/>
<polygon fill="none" stroke="#000000" points="8.5,-440.7 8.5,-462.7 201.5,-462.7 201.5,-440.7 8.5,-440.7"/>
<image xlink:href="../../images/foreignKeys.png" width="11px" height="12px" preserveAspectRatio="xMinYMin meet" x="13.5" y="-457.7"/>
<text text-anchor="start" x="28.5" y="-447.8" font-family="Helvetica,sans-Serif" font-size="11.00" fill="#000000">PatientId</text>
<polygon fill="#ffffff" stroke="transparent" points="8.5,-418.7 8.5,-440.7 201.5,-440.7 201.5,-418.7 8.5,-418.7"/>
<polygon fill="none" stroke="#000000" points="8.5,-418.7 8.5,-440.7 201.5,-440.7 201.5,-418.7 8.5,-418.7"/>
<image xlink:href="../../images/foreignKeys.png" width="11px" height="12px" preserveAspectRatio="xMinYMin meet" x="13.5" y="-435.7"/>
<text text-anchor="start" x="28.5" y="-425.8" font-family="Helvetica,sans-Serif" font-size="11.00" fill="#000000">FacilityId</text>
<polygon fill="#ffffff" stroke="transparent" points="8.5,-396.7 8.5,-418.7 201.5,-418.7 201.5,-396.7 8.5,-396.7"/>
<polygon fill="none" stroke="#000000" points="8.5,-396.7 8.5,-418.7 201.5,-418.7 201.5,-396.7 8.5,-396.7"/>
<text text-anchor="start" x="28.5" y="-403.8" font-family="Helvetica,sans-Serif" font-size="11.00" fill="#000000">CaseId</text>
<polygon fill="#ffffff" stroke="transparent" points="8.5,-374.7 8.5,-396.7 201.5,-396.7 201.5,-374.7 8.5,-374.7"/>
<polygon fill="none" stroke="#000000" points="8.5,-374.7 8.5,-396.7 201.5,-396.7 201.5,-374.7 8.5,-374.7"/>
<image xlink:href="../../images/foreignKeys.png" width="11px" height="12px" preserveAspectRatio="xMinYMin meet" x="13.5" y="-391.7"/>
<text text-anchor="start" x="28.5" y="-381.8" font-family="Helvetica,sans-Serif" font-size="11.00" fill="#000000">HospitalizationStatusId</text>
<polygon fill="none" stroke="#000000" points="8.5,-355.7 8.5,-374.7 201.5,-374.7 201.5,-355.7 8.5,-355.7"/>
<text text-anchor="start" x="11.5" y="-361.8" font-family="Helvetica,sans-Serif" font-size="11.00" fill="#000000">...</text>
<polygon fill="#ffffff" stroke="transparent" points="8.5,-336.7 8.5,-355.7 201.5,-355.7 201.5,-336.7 8.5,-336.7"/>
<polygon fill="none" stroke="#000000" points="8.5,-336.7 8.5,-355.7 201.5,-355.7 201.5,-336.7 8.5,-336.7"/>
<polygon fill="#ffffff" stroke="transparent" points="9.5,-337.7 9.5,-354.7 76.5,-354.7 76.5,-337.7 9.5,-337.7"/>
<text text-anchor="start" x="11.5" y="-342.8" font-family="Helvetica,sans-Serif" font-size="11.00" fill="#000000">&lt; 3</text>
<polygon fill="#ffffff" stroke="transparent" points="76.5,-337.7 76.5,-354.7 134.5,-354.7 134.5,-337.7 76.5,-337.7"/>
<text text-anchor="start" x="102.4431" y="-342.8" font-family="Helvetica,sans-Serif" font-size="11.00" fill="#000000"> &#160;</text>
<polygon fill="#ffffff" stroke="transparent" points="134.5,-337.7 134.5,-354.7 200.5,-354.7 200.5,-337.7 134.5,-337.7"/>
<text text-anchor="start" x="182.9053" y="-342.8" font-family="Helvetica,sans-Serif" font-size="11.00" fill="#000000">4 &gt;</text>
<polygon fill="#000000" stroke="#000000" points="76.5,-337.7 76.5,-354.7 76.5,-354.7 76.5,-337.7 76.5,-337.7"/>
<polygon fill="#000000" stroke="#000000" points="134.5,-337.7 134.5,-354.7 134.5,-354.7 134.5,-337.7 134.5,-337.7"/>
</a>
</g>
</g>
<!-- Visits&#45;&gt;Hospitalizations -->
<g id="edge3" class="edge">
<title>Visits:w&#45;&gt;Hospitalizations:e</title>
<path fill="none" stroke="#000000" d="M238.1497,-314.3767C191.2278,-335.4397 271.2339,-473.7 201.5,-473.7"/>
<polygon fill="#000000" stroke="#000000" points="244.6356,-313.1669 253.1601,-315.239 248.5678,-312.4335 252.5,-311.7 252.5,-311.7 252.5,-311.7 248.5678,-312.4335 251.8399,-308.161 244.6356,-313.1669 244.6356,-313.1669"/>
<ellipse fill="none" stroke="#000000" cx="241.4899" cy="-313.7537" rx="3.2" ry="3.2"/>
</g>
<!-- ServiceTypes -->
<g id="node5" class="node">
<title>ServiceTypes</title>
<g id="a_node5"><a xlink:href="../../tables/ServiceTypes.html" xlink:title="ServiceTypes" target="_top">
<polygon fill="#ffffff" stroke="transparent" points="36.5,-219.2 36.5,-302.2 172.5,-302.2 172.5,-219.2 36.5,-219.2"/>
<polygon fill="#f5f5f5" stroke="transparent" points="36.5,-278.7 36.5,-301.7 172.5,-301.7 172.5,-278.7 36.5,-278.7"/>
<polygon fill="none" stroke="#000000" points="36.5,-278.7 36.5,-301.7 172.5,-301.7 172.5,-278.7 36.5,-278.7"/>
<text text-anchor="start" x="41.5" y="-287.3" font-family="Helvetica,sans-Serif" font-weight="bold" font-size="11.00" fill="#000000">ServiceTypes</text>
<text text-anchor="start" x="138.0219" y="-286.8" font-family="Helvetica,sans-Serif" font-size="11.00" fill="#000000">[table]</text>
<polygon fill="none" stroke="#000000" points="36.5,-256.7 36.5,-278.7 172.5,-278.7 172.5,-256.7 36.5,-256.7"/>
<image xlink:href="../../images/primaryKeys.png" width="11px" height="12px" preserveAspectRatio="xMinYMin meet" x="41.5" y="-273.7"/>
<text text-anchor="start" x="62.5" y="-263.8" font-family="Helvetica,sans-Serif" font-size="11.00" fill="#000000">Id</text>
<polygon fill="none" stroke="#000000" points="36.5,-237.7 36.5,-256.7 172.5,-256.7 172.5,-237.7 36.5,-237.7"/>
<text text-anchor="start" x="39.5" y="-243.8" font-family="Helvetica,sans-Serif" font-size="11.00" fill="#000000">...</text>
<polygon fill="#ffffff" stroke="transparent" points="36.5,-218.7 36.5,-237.7 172.5,-237.7 172.5,-218.7 36.5,-218.7"/>
<polygon fill="none" stroke="#000000" points="36.5,-218.7 36.5,-237.7 172.5,-237.7 172.5,-218.7 36.5,-218.7"/>
<polygon fill="#ffffff" stroke="transparent" points="37.5,-219.7 37.5,-236.7 79.5,-236.7 79.5,-219.7 37.5,-219.7"/>
<text text-anchor="start" x="39.5" y="-224.8" font-family="Helvetica,sans-Serif" font-size="11.00" fill="#000000"> &#160;</text>
<polygon fill="#ffffff" stroke="transparent" points="79.5,-219.7 79.5,-236.7 121.5,-236.7 121.5,-219.7 79.5,-219.7"/>
<text text-anchor="start" x="97.4431" y="-224.8" font-family="Helvetica,sans-Serif" font-size="11.00" fill="#000000"> &#160;</text>
<polygon fill="#ffffff" stroke="transparent" points="121.5,-219.7 121.5,-236.7 171.5,-236.7 171.5,-219.7 121.5,-219.7"/>
<text text-anchor="start" x="153.9053" y="-224.8" font-family="Helvetica,sans-Serif" font-size="11.00" fill="#000000">1 &gt;</text>
<polygon fill="#000000" stroke="#000000" points="79.5,-219.7 79.5,-236.7 79.5,-236.7 79.5,-219.7 79.5,-219.7"/>
<polygon fill="#000000" stroke="#000000" points="121.5,-219.7 121.5,-236.7 121.5,-236.7 121.5,-219.7 121.5,-219.7"/>
</a>
</g>
</g>
<!-- Visits&#45;&gt;ServiceTypes -->
<g id="edge4" class="edge">
<title>Visits:w&#45;&gt;ServiceTypes:e</title>
<path fill="none" stroke="#000000" d="M237.9181,-267.7C213.6172,-267.7 202.6389,-267.7 172.5,-267.7"/>
<polygon fill="#000000" stroke="#000000" points="244.5,-267.7001 252.5,-271.3 248.5,-267.7 252.5,-267.7 252.5,-267.7 252.5,-267.7 248.5,-267.7 252.5,-264.1 244.5,-267.7001 244.5,-267.7001"/>
<ellipse fill="none" stroke="#000000" cx="241.3" cy="-267.7001" rx="3.2" ry="3.2"/>
</g>
<!-- VisitEvents -->
<g id="node3" class="node">
<title>VisitEvents</title>
<g id="a_node3"><a xlink:href="../../tables/VisitEvents.html" xlink:title="VisitEvents" target="_top">
<polygon fill="#ffffff" stroke="transparent" points="631,-186.2 631,-357.2 776,-357.2 776,-186.2 631,-186.2"/>
<polygon fill="#f5f5f5" stroke="transparent" points="631.5,-333.7 631.5,-356.7 776.5,-356.7 776.5,-333.7 631.5,-333.7"/>
<polygon fill="none" stroke="#000000" points="631.5,-333.7 631.5,-356.7 776.5,-356.7 776.5,-333.7 631.5,-333.7"/>
<text text-anchor="start" x="636.5" y="-342.3" font-family="Helvetica,sans-Serif" font-weight="bold" font-size="11.00" fill="#000000">VisitEvents</text>
<text text-anchor="start" x="741.5437" y="-341.8" font-family="Helvetica,sans-Serif" font-size="11.00" fill="#000000">[table]</text>
<polygon fill="none" stroke="#000000" points="631.5,-311.7 631.5,-333.7 776.5,-333.7 776.5,-311.7 631.5,-311.7"/>
<image xlink:href="../../images/primaryKeys.png" width="11px" height="12px" preserveAspectRatio="xMinYMin meet" x="636.5" y="-328.7"/>
<text text-anchor="start" x="651.5" y="-318.8" font-family="Helvetica,sans-Serif" font-size="11.00" fill="#000000">Id</text>
<polygon fill="#ffffff" stroke="transparent" points="631.5,-289.7 631.5,-311.7 776.5,-311.7 776.5,-289.7 631.5,-289.7"/>
<polygon fill="none" stroke="#000000" points="631.5,-289.7 631.5,-311.7 776.5,-311.7 776.5,-289.7 631.5,-289.7"/>
<image xlink:href="../../images/foreignKeys.png" width="11px" height="12px" preserveAspectRatio="xMinYMin meet" x="636.5" y="-306.7"/>
<text text-anchor="start" x="651.5" y="-296.8" font-family="Helvetica,sans-Serif" font-size="11.00" fill="#000000">VisitId</text>
<polygon fill="#ffffff" stroke="transparent" points="631.5,-267.7 631.5,-289.7 776.5,-289.7 776.5,-267.7 631.5,-267.7"/>
<polygon fill="none" stroke="#000000" points="631.5,-267.7 631.5,-289.7 776.5,-289.7 776.5,-267.7 631.5,-267.7"/>
<image xlink:href="../../images/foreignKeys.png" width="11px" height="12px" preserveAspectRatio="xMinYMin meet" x="636.5" y="-284.7"/>
<text text-anchor="start" x="651.5" y="-274.8" font-family="Helvetica,sans-Serif" font-size="11.00" fill="#000000">EventTypeId</text>
<polygon fill="#ffffff" stroke="transparent" points="631.5,-245.7 631.5,-267.7 776.5,-267.7 776.5,-245.7 631.5,-245.7"/>
<polygon fill="none" stroke="#000000" points="631.5,-245.7 631.5,-267.7 776.5,-267.7 776.5,-245.7 631.5,-245.7"/>
<text text-anchor="start" x="651.5" y="-252.8" font-family="Helvetica,sans-Serif" font-size="11.00" fill="#000000">EventOccurredAt</text>
<polygon fill="#ffffff" stroke="transparent" points="631.5,-223.7 631.5,-245.7 776.5,-245.7 776.5,-223.7 631.5,-223.7"/>
<polygon fill="none" stroke="#000000" points="631.5,-223.7 631.5,-245.7 776.5,-245.7 776.5,-223.7 631.5,-223.7"/>
<text text-anchor="start" x="651.5" y="-230.8" font-family="Helvetica,sans-Serif" font-size="11.00" fill="#000000">EnteredByUserId</text>
<polygon fill="none" stroke="#000000" points="631.5,-204.7 631.5,-223.7 776.5,-223.7 776.5,-204.7 631.5,-204.7"/>
<text text-anchor="start" x="634.5" y="-210.8" font-family="Helvetica,sans-Serif" font-size="11.00" fill="#000000">...</text>
<polygon fill="#ffffff" stroke="transparent" points="631.5,-185.7 631.5,-204.7 776.5,-204.7 776.5,-185.7 631.5,-185.7"/>
<polygon fill="none" stroke="#000000" points="631.5,-185.7 631.5,-204.7 776.5,-204.7 776.5,-185.7 631.5,-185.7"/>
<polygon fill="#ffffff" stroke="transparent" points="632.5,-186.7 632.5,-203.7 686.5,-203.7 686.5,-186.7 632.5,-186.7"/>
<text text-anchor="start" x="634.5" y="-191.8" font-family="Helvetica,sans-Serif" font-size="11.00" fill="#000000">&lt; 2</text>
<polygon fill="#ffffff" stroke="transparent" points="686.5,-186.7 686.5,-203.7 731.5,-203.7 731.5,-186.7 686.5,-186.7"/>
<text text-anchor="start" x="705.9431" y="-191.8" font-family="Helvetica,sans-Serif" font-size="11.00" fill="#000000"> &#160;</text>
<polygon fill="#ffffff" stroke="transparent" points="731.5,-186.7 731.5,-203.7 775.5,-203.7 775.5,-186.7 731.5,-186.7"/>
<text text-anchor="start" x="767.3862" y="-191.8" font-family="Helvetica,sans-Serif" font-size="11.00" fill="#000000"> &#160;</text>
<polygon fill="#000000" stroke="#000000" points="686.5,-186.7 686.5,-203.7 686.5,-203.7 686.5,-186.7 686.5,-186.7"/>
<polygon fill="#000000" stroke="#000000" points="731.5,-186.7 731.5,-203.7 731.5,-203.7 731.5,-186.7 731.5,-186.7"/>
</a>
</g>
</g>
<!-- VisitEvents&#45;&gt;Visits -->
<g id="edge2" class="edge">
<title>VisitEvents:w&#45;&gt;Visits:e</title>
<path fill="none" stroke="#000000" d="M616.9789,-301.7496C566.7476,-309.3533 557.842,-355.7 499.5,-355.7"/>
<polygon fill="#000000" stroke="#000000" points="623.5208,-301.2768 631.7596,-304.2906 627.5104,-300.9884 631.5,-300.7 631.5,-300.7 631.5,-300.7 627.5104,-300.9884 631.2404,-297.1094 623.5208,-301.2768 623.5208,-301.2768"/>
<ellipse fill="none" stroke="#000000" cx="620.3291" cy="-301.5075" rx="3.2" ry="3.2"/>
</g>
<!-- staging.ProviderAssignments -->
<g id="node6" class="node">
<title>staging.ProviderAssignments</title>
<g id="a_node6"><a xlink:title="staging.ProviderAssignments">
<polygon fill="#ffffff" stroke="transparent" points="550,-378.2 550,-571.2 857,-571.2 857,-378.2 550,-378.2"/>
<polygon fill="#f5f5f5" stroke="transparent" points="550.5,-547.7 550.5,-570.7 857.5,-570.7 857.5,-547.7 550.5,-547.7"/>
<polygon fill="none" stroke="#000000" points="550.5,-547.7 550.5,-570.7 857.5,-570.7 857.5,-547.7 550.5,-547.7"/>
<text text-anchor="start" x="555.5" y="-556.3" font-family="Helvetica,sans-Serif" font-weight="bold" font-size="11.00" fill="#000000">staging.ProviderAssignments</text>
<text text-anchor="start" x="822.5437" y="-555.8" font-family="Helvetica,sans-Serif" font-size="11.00" fill="#000000">[table]</text>
<polygon fill="none" stroke="#000000" points="550.5,-525.7 550.5,-547.7 857.5,-547.7 857.5,-525.7 550.5,-525.7"/>
<image xlink:href="../../images/foreignKeys.png" width="11px" height="12px" preserveAspectRatio="xMinYMin meet" x="555.5" y="-542.7"/>
<text text-anchor="start" x="570.5" y="-532.8" font-family="Helvetica,sans-Serif" font-size="11.00" fill="#000000">ResolvedPhysicianId</text>
<polygon fill="none" stroke="#000000" points="550.5,-503.7 550.5,-525.7 857.5,-525.7 857.5,-503.7 550.5,-503.7"/>
<image xlink:href="../../images/foreignKeys.png" width="11px" height="12px" preserveAspectRatio="xMinYMin meet" x="555.5" y="-520.7"/>
<text text-anchor="start" x="570.5" y="-510.8" font-family="Helvetica,sans-Serif" font-size="11.00" fill="#000000">ResolvedHospitalizationId</text>
<polygon fill="none" stroke="#000000" points="550.5,-481.7 550.5,-503.7 857.5,-503.7 857.5,-481.7 550.5,-481.7"/>
<image xlink:href="../../images/foreignKeys.png" width="11px" height="12px" preserveAspectRatio="xMinYMin meet" x="555.5" y="-498.7"/>
<text text-anchor="start" x="570.5" y="-488.8" font-family="Helvetica,sans-Serif" font-size="11.00" fill="#000000">ResolvedPatientId</text>
<polygon fill="none" stroke="#000000" points="550.5,-459.7 550.5,-481.7 857.5,-481.7 857.5,-459.7 550.5,-459.7"/>
<image xlink:href="../../images/foreignKeys.png" width="11px" height="12px" preserveAspectRatio="xMinYMin meet" x="555.5" y="-476.7"/>
<text text-anchor="start" x="570.5" y="-466.8" font-family="Helvetica,sans-Serif" font-size="11.00" fill="#000000">ResolvedNursePractitionerId</text>
<polygon fill="none" stroke="#000000" points="550.5,-437.7 550.5,-459.7 857.5,-459.7 857.5,-437.7 550.5,-437.7"/>
<image xlink:href="../../images/foreignKeys.png" width="11px" height="12px" preserveAspectRatio="xMinYMin meet" x="555.5" y="-454.7"/>
<text text-anchor="start" x="570.5" y="-444.8" font-family="Helvetica,sans-Serif" font-size="11.00" fill="#000000">ResolvedVisitId</text>
<polygon fill="none" stroke="#000000" points="550.5,-415.7 550.5,-437.7 857.5,-437.7 857.5,-415.7 550.5,-415.7"/>
<image xlink:href="../../images/foreignKeys.png" width="11px" height="12px" preserveAspectRatio="xMinYMin meet" x="555.5" y="-432.7"/>
<text text-anchor="start" x="570.5" y="-422.8" font-family="Helvetica,sans-Serif" font-size="11.00" fill="#000000">ResolvedHospitalizationStatusId</text>
<polygon fill="none" stroke="#000000" points="550.5,-396.7 550.5,-415.7 857.5,-415.7 857.5,-396.7 550.5,-396.7"/>
<text text-anchor="start" x="553.5" y="-402.8" font-family="Helvetica,sans-Serif" font-size="11.00" fill="#000000">...</text>
<polygon fill="#ffffff" stroke="transparent" points="550.5,-377.7 550.5,-396.7 857.5,-396.7 857.5,-377.7 550.5,-377.7"/>
<polygon fill="none" stroke="#000000" points="550.5,-377.7 550.5,-396.7 857.5,-396.7 857.5,-377.7 550.5,-377.7"/>
<polygon fill="#ffffff" stroke="transparent" points="551.5,-378.7 551.5,-395.7 659.5,-395.7 659.5,-378.7 551.5,-378.7"/>
<text text-anchor="start" x="553.5" y="-383.8" font-family="Helvetica,sans-Serif" font-size="11.00" fill="#000000">&lt; 6</text>
<polygon fill="#ffffff" stroke="transparent" points="659.5,-378.7 659.5,-395.7 758.5,-395.7 758.5,-378.7 659.5,-378.7"/>
<text text-anchor="start" x="705.9431" y="-383.8" font-family="Helvetica,sans-Serif" font-size="11.00" fill="#000000"> &#160;</text>
<polygon fill="#ffffff" stroke="transparent" points="758.5,-378.7 758.5,-395.7 856.5,-395.7 856.5,-378.7 758.5,-378.7"/>
<text text-anchor="start" x="848.3862" y="-383.8" font-family="Helvetica,sans-Serif" font-size="11.00" fill="#000000"> &#160;</text>
<polygon fill="#000000" stroke="#000000" points="659.5,-378.7 659.5,-395.7 659.5,-395.7 659.5,-378.7 659.5,-378.7"/>
<polygon fill="#000000" stroke="#000000" points="758.5,-378.7 758.5,-395.7 758.5,-395.7 758.5,-378.7 758.5,-378.7"/>
</a>
</g>
</g>
<!-- staging.ProviderAssignments&#45;&gt;Visits -->
<g id="edge6" class="edge">
<title>staging.ProviderAssignments:w&#45;&gt;Visits:e</title>
<path fill="none" stroke="#000000" d="M536.3901,-444.4623C513.0154,-426.2688 540.5638,-355.7 499.5,-355.7"/>
<polygon fill="#000000" stroke="#000000" points="542.8381,-446.3988 549.4645,-452.1479 546.669,-447.5494 550.5,-448.7 550.5,-448.7 550.5,-448.7 546.669,-447.5494 551.5355,-445.2521 542.8381,-446.3988 542.8381,-446.3988"/>
<ellipse fill="none" stroke="#000000" cx="539.7733" cy="-445.4784" rx="3.2" ry="3.2"/>
</g>
<!-- staging.ProviderAssignments&#45;&gt;Hospitalizations -->
<g id="edge5" class="edge">
<title>staging.ProviderAssignments:w&#45;&gt;Hospitalizations:e</title>
<path fill="none" stroke="#000000" d="M535.7652,-514.575C391.8362,-512.1 352.6447,-473.7 201.5,-473.7"/>
<polygon fill="#000000" stroke="#000000" points="542.5003,-514.6321 550.4694,-518.2999 546.5001,-514.666 550.5,-514.7 550.5,-514.7 550.5,-514.7 546.5001,-514.666 550.5306,-511.1001 542.5003,-514.6321 542.5003,-514.6321"/>
<ellipse fill="none" stroke="#000000" cx="539.3004" cy="-514.6049" rx="3.2" ry="3.2"/>
</g>
</g>
</svg>
