<?xml version="1.0" encoding="UTF-8" standalone="no"?>
<!DOCTYPE svg PUBLIC "-//W3C//DTD SVG 1.1//EN"
 "http://www.w3.org/Graphics/SVG/1.1/DTD/svg11.dtd">
<!-- Generated by graphviz version 2.40.1 (20161225.0304)
 -->
<!-- Title: oneDegreeRelationshipsDiagram Pages: 1 -->
<svg width="873pt" height="709pt"
 viewBox="0.00 0.00 873.00 709.20" xmlns="http://www.w3.org/2000/svg" xmlns:xlink="http://www.w3.org/1999/xlink">
<g id="graph0" class="graph" transform="scale(1 1) rotate(0) translate(4 705.2)">
<title>oneDegreeRelationshipsDiagram</title>
<polygon fill="#ffffff" stroke="transparent" points="-4,4 -4,-705.2 869,-705.2 869,4 -4,4"/>
<text text-anchor="middle" x="72.4936" y="-7.3" font-family="Helvetica,sans-Serif" font-size="11.00" fill="#000000">Generated by SchemaSpy</text>
<!-- Billing.VisitServiceBillings -->
<g id="node1" class="node">
<title>Billing.VisitServiceBillings</title>
<g id="a_node1"><a xlink:title="Billing.VisitServiceBillings">
<polygon fill="#ffffff" stroke="transparent" points="588,-592.2 588,-697.2 819,-697.2 819,-592.2 588,-592.2"/>
<polygon fill="#f5f5f5" stroke="transparent" points="588.5,-673.7 588.5,-696.7 819.5,-696.7 819.5,-673.7 588.5,-673.7"/>
<polygon fill="none" stroke="#000000" points="588.5,-673.7 588.5,-696.7 819.5,-696.7 819.5,-673.7 588.5,-673.7"/>
<text text-anchor="start" x="593.5" y="-682.3" font-family="Helvetica,sans-Serif" font-weight="bold" font-size="11.00" fill="#000000">Billing.VisitServiceBillings</text>
<text text-anchor="start" x="785.0219" y="-681.8" font-family="Helvetica,sans-Serif" font-size="11.00" fill="#000000">[table]</text>
<polygon fill="none" stroke="#000000" points="588.5,-651.7 588.5,-673.7 819.5,-673.7 819.5,-651.7 588.5,-651.7"/>
<image xlink:href="../../images/foreignKeys.png" width="11px" height="12px" preserveAspectRatio="xMinYMin meet" x="593.5" y="-668.7"/>
<text text-anchor="start" x="643.5" y="-658.8" font-family="Helvetica,sans-Serif" font-size="11.00" fill="#000000">VisitId</text>
<polygon fill="none" stroke="#000000" points="588.5,-629.7 588.5,-651.7 819.5,-651.7 819.5,-629.7 588.5,-629.7"/>
<image xlink:href="../../images/foreignKeys.png" width="11px" height="12px" preserveAspectRatio="xMinYMin meet" x="593.5" y="-646.7"/>
<text text-anchor="start" x="643.5" y="-636.8" font-family="Helvetica,sans-Serif" font-size="11.00" fill="#000000">ServiceTypeId</text>
<polygon fill="none" stroke="#000000" points="588.5,-610.7 588.5,-629.7 819.5,-629.7 819.5,-610.7 588.5,-610.7"/>
<text text-anchor="start" x="591.5" y="-616.8" font-family="Helvetica,sans-Serif" font-size="11.00" fill="#000000">...</text>
<polygon fill="#ffffff" stroke="transparent" points="588.5,-591.7 588.5,-610.7 819.5,-610.7 819.5,-591.7 588.5,-591.7"/>
<polygon fill="none" stroke="#000000" points="588.5,-591.7 588.5,-610.7 819.5,-610.7 819.5,-591.7 588.5,-591.7"/>
<polygon fill="#ffffff" stroke="transparent" points="589.5,-592.7 589.5,-609.7 672.5,-609.7 672.5,-592.7 589.5,-592.7"/>
<text text-anchor="start" x="591.5" y="-597.8" font-family="Helvetica,sans-Serif" font-size="11.00" fill="#000000">&lt; 2</text>
<polygon fill="#ffffff" stroke="transparent" points="672.5,-592.7 672.5,-609.7 745.5,-609.7 745.5,-592.7 672.5,-592.7"/>
<text text-anchor="start" x="705.9431" y="-597.8" font-family="Helvetica,sans-Serif" font-size="11.00" fill="#000000"> &#160;</text>
<polygon fill="#ffffff" stroke="transparent" points="745.5,-592.7 745.5,-609.7 818.5,-609.7 818.5,-592.7 745.5,-592.7"/>
<text text-anchor="start" x="810.3862" y="-597.8" font-family="Helvetica,sans-Serif" font-size="11.00" fill="#000000"> &#160;</text>
<polygon fill="#000000" stroke="#000000" points="672.5,-592.7 672.5,-609.7 672.5,-609.7 672.5,-592.7 672.5,-592.7"/>
<polygon fill="#000000" stroke="#000000" points="745.5,-592.7 745.5,-609.7 745.5,-609.7 745.5,-592.7 745.5,-592.7"/>
</a>
</g>
</g>
<!-- Visits -->
<g id="node2" class="node">
<title>Visits</title>
<g id="a_node2"><a xlink:href="../../tables/Visits.html" xlink:title="Visits" target="_top">
<polygon fill="#ffffff" stroke="transparent" points="250,-198.7 250,-442.7 501,-442.7 501,-198.7 250,-198.7"/>
<polygon fill="#f5f5f5" stroke="transparent" points="252.5,-417.7 252.5,-440.7 499.5,-440.7 499.5,-417.7 252.5,-417.7"/>
<polygon fill="none" stroke="#000000" points="252.5,-417.7 252.5,-440.7 499.5,-440.7 499.5,-417.7 252.5,-417.7"/>
<text text-anchor="start" x="257.5" y="-426.3" font-family="Helvetica,sans-Serif" font-weight="bold" font-size="11.00" fill="#000000">Visits</text>
<text text-anchor="start" x="464.5437" y="-425.8" font-family="Helvetica,sans-Serif" font-size="11.00" fill="#000000">[table]</text>
<polygon fill="none" stroke="#000000" points="252.5,-395.7 252.5,-417.7 418.5,-417.7 418.5,-395.7 252.5,-395.7"/>
<image xlink:href="../../images/primaryKeys.png" width="11px" height="12px" preserveAspectRatio="xMinYMin meet" x="257.5" y="-412.7"/>
<text text-anchor="start" x="272.5" y="-402.8" font-family="Helvetica,sans-Serif" font-size="11.00" fill="#000000">Id</text>
<polygon fill="none" stroke="#000000" points="418.5,-395.7 418.5,-417.7 499.5,-417.7 499.5,-395.7 418.5,-395.7"/>
<text text-anchor="start" x="421.5" y="-403.4" font-family="Helvetica,sans-Serif" font-size="11.00" fill="#000000">int identity[4]</text>
<polygon fill="#ffffff" stroke="transparent" points="252.5,-373.7 252.5,-395.7 418.5,-395.7 418.5,-373.7 252.5,-373.7"/>
<polygon fill="none" stroke="#000000" points="252.5,-373.7 252.5,-395.7 418.5,-395.7 418.5,-373.7 252.5,-373.7"/>
<text text-anchor="start" x="272.5" y="-380.8" font-family="Helvetica,sans-Serif" font-size="11.00" fill="#000000">DateServiced</text>
<polygon fill="none" stroke="#000000" points="418.5,-373.7 418.5,-395.7 499.5,-395.7 499.5,-373.7 418.5,-373.7"/>
<text text-anchor="start" x="421.5" y="-381.4" font-family="Helvetica,sans-Serif" font-size="11.00" fill="#000000">date[6]</text>
<polygon fill="#ffffff" stroke="transparent" points="252.5,-351.7 252.5,-373.7 418.5,-373.7 418.5,-351.7 252.5,-351.7"/>
<polygon fill="none" stroke="#000000" points="252.5,-351.7 252.5,-373.7 418.5,-373.7 418.5,-351.7 252.5,-351.7"/>
<image xlink:href="../../images/foreignKeys.png" width="11px" height="12px" preserveAspectRatio="xMinYMin meet" x="257.5" y="-368.7"/>
<text text-anchor="start" x="272.5" y="-358.8" font-family="Helvetica,sans-Serif" font-size="11.00" fill="#000000">HospitalizationId</text>
<polygon fill="none" stroke="#000000" points="418.5,-351.7 418.5,-373.7 499.5,-373.7 499.5,-351.7 418.5,-351.7"/>
<text text-anchor="start" x="421.5" y="-359.4" font-family="Helvetica,sans-Serif" font-size="11.00" fill="#000000">int[4]</text>
<polygon fill="none" stroke="#000000" points="252.5,-329.7 252.5,-351.7 418.5,-351.7 418.5,-329.7 252.5,-329.7"/>
<text text-anchor="start" x="272.5" y="-336.8" font-family="Helvetica,sans-Serif" font-size="11.00" fill="#000000">IsScribeServiceOnly</text>
<polygon fill="none" stroke="#000000" points="418.5,-329.7 418.5,-351.7 499.5,-351.7 499.5,-329.7 418.5,-329.7"/>
<text text-anchor="start" x="421.5" y="-337.4" font-family="Helvetica,sans-Serif" font-size="11.00" fill="#000000">bit[1]</text>
<polygon fill="none" stroke="#000000" points="252.5,-307.7 252.5,-329.7 418.5,-329.7 418.5,-307.7 252.5,-307.7"/>
<text text-anchor="start" x="272.5" y="-314.8" font-family="Helvetica,sans-Serif" font-size="11.00" fill="#000000">Room</text>
<polygon fill="none" stroke="#000000" points="418.5,-307.7 418.5,-329.7 499.5,-329.7 499.5,-307.7 418.5,-307.7"/>
<text text-anchor="start" x="421.5" y="-315.4" font-family="Helvetica,sans-Serif" font-size="11.00" fill="#000000">nvarchar[40]</text>
<polygon fill="none" stroke="#000000" points="252.5,-285.7 252.5,-307.7 418.5,-307.7 418.5,-285.7 252.5,-285.7"/>
<text text-anchor="start" x="272.5" y="-292.8" font-family="Helvetica,sans-Serif" font-size="11.00" fill="#000000">Bed</text>
<polygon fill="none" stroke="#000000" points="418.5,-285.7 418.5,-307.7 499.5,-307.7 499.5,-285.7 418.5,-285.7"/>
<text text-anchor="start" x="421.5" y="-293.4" font-family="Helvetica,sans-Serif" font-size="11.00" fill="#000000">nvarchar[10]</text>
<polygon fill="none" stroke="#000000" points="252.5,-263.7 252.5,-285.7 418.5,-285.7 418.5,-263.7 252.5,-263.7"/>
<text text-anchor="start" x="272.5" y="-270.8" font-family="Helvetica,sans-Serif" font-size="11.00" fill="#000000">CreatedAtUtc</text>
<polygon fill="none" stroke="#000000" points="418.5,-263.7 418.5,-285.7 499.5,-285.7 499.5,-263.7 418.5,-263.7"/>
<text text-anchor="start" x="421.0968" y="-271.4" font-family="Helvetica,sans-Serif" font-size="11.00" fill="#000000">datetime2[16,7]</text>
<polygon fill="none" stroke="#000000" points="252.5,-241.7 252.5,-263.7 418.5,-263.7 418.5,-241.7 252.5,-241.7"/>
<text text-anchor="start" x="272.5" y="-248.8" font-family="Helvetica,sans-Serif" font-size="11.00" fill="#000000">UpdatedAtUtc</text>
<polygon fill="none" stroke="#000000" points="418.5,-241.7 418.5,-263.7 499.5,-263.7 499.5,-241.7 418.5,-241.7"/>
<text text-anchor="start" x="421.0968" y="-249.4" font-family="Helvetica,sans-Serif" font-size="11.00" fill="#000000">datetime2[16,7]</text>
<polygon fill="none" stroke="#000000" points="252.5,-219.7 252.5,-241.7 418.5,-241.7 418.5,-219.7 252.5,-219.7"/>
<text text-anchor="start" x="272.5" y="-226.8" font-family="Helvetica,sans-Serif" font-size="11.00" fill="#000000">RowVersion</text>
<polygon fill="none" stroke="#000000" points="418.5,-219.7 418.5,-241.7 499.5,-241.7 499.5,-219.7 418.5,-219.7"/>
<text text-anchor="start" x="421.5" y="-227.4" font-family="Helvetica,sans-Serif" font-size="11.00" fill="#000000">timestamp[8]</text>
<polygon fill="#ffffff" stroke="transparent" points="252.5,-200.7 252.5,-219.7 499.5,-219.7 499.5,-200.7 252.5,-200.7"/>
<polygon fill="none" stroke="#000000" points="252.5,-200.7 252.5,-219.7 499.5,-219.7 499.5,-200.7 252.5,-200.7"/>
<polygon fill="#ffffff" stroke="transparent" points="253.5,-201.7 253.5,-218.7 338.5,-218.7 338.5,-201.7 253.5,-201.7"/>
<text text-anchor="start" x="255.5" y="-206.8" font-family="Helvetica,sans-Serif" font-size="11.00" fill="#000000">&lt; 1</text>
<polygon fill="#ffffff" stroke="transparent" points="338.5,-201.7 338.5,-218.7 414.5,-218.7 414.5,-201.7 338.5,-201.7"/>
<text text-anchor="start" x="373.4431" y="-206.8" font-family="Helvetica,sans-Serif" font-size="11.00" fill="#000000"> &#160;</text>
<polygon fill="#ffffff" stroke="transparent" points="414.5,-201.7 414.5,-218.7 498.5,-218.7 498.5,-201.7 414.5,-201.7"/>
<text text-anchor="start" x="480.9053" y="-206.8" font-family="Helvetica,sans-Serif" font-size="11.00" fill="#000000">4 &gt;</text>
<polygon fill="#000000" stroke="#000000" points="338.5,-201.7 338.5,-218.7 338.5,-218.7 338.5,-201.7 338.5,-201.7"/>
<polygon fill="#000000" stroke="#000000" points="414.5,-201.7 414.5,-218.7 414.5,-218.7 414.5,-201.7 414.5,-201.7"/>
<polygon fill="none" stroke="#000000" stroke-width="2" points="251,-199.7 251,-441.7 500,-441.7 500,-199.7 251,-199.7"/>
</a>
</g>
</g>
<!-- Billing.VisitServiceBillings&#45;&gt;Visits -->
<g id="edge1" class="edge">
<title>Billing.VisitServiceBillings:w&#45;&gt;Visits:e</title>
<path fill="none" stroke="#000000" d="M574.1864,-660.4382C549.3503,-651.1664 555.2817,-614.9829 542,-581.7 512.335,-507.3619 579.5386,-406.7 499.5,-406.7"/>
<polygon fill="#000000" stroke="#000000" points="580.598,-661.4513 587.9381,-666.2559 584.549,-662.0757 588.5,-662.7 588.5,-662.7 588.5,-662.7 584.549,-662.0757 589.0619,-659.1441 580.598,-661.4513 580.598,-661.4513"/>
<ellipse fill="none" stroke="#000000" cx="577.4373" cy="-660.9518" rx="3.2" ry="3.2"/>
</g>
<!-- Hospitalizations -->
<g id="node5" class="node">
<title>Hospitalizations</title>
<g id="a_node5"><a xlink:href="../../tables/Hospitalizations.html" xlink:title="Hospitalizations" target="_top">
<polygon fill="#ffffff" stroke="transparent" points="8,-132.2 8,-303.2 201,-303.2 201,-132.2 8,-132.2"/>
<polygon fill="#f5f5f5" stroke="transparent" points="8.5,-279.7 8.5,-302.7 201.5,-302.7 201.5,-279.7 8.5,-279.7"/>
<polygon fill="none" stroke="#000000" points="8.5,-279.7 8.5,-302.7 201.5,-302.7 201.5,-279.7 8.5,-279.7"/>
<text text-anchor="start" x="13.5" y="-288.3" font-family="Helvetica,sans-Serif" font-weight="bold" font-size="11.00" fill="#000000">Hospitalizations</text>
<text text-anchor="start" x="166.5437" y="-287.8" font-family="Helvetica,sans-Serif" font-size="11.00" fill="#000000">[table]</text>
<polygon fill="none" stroke="#000000" points="8.5,-257.7 8.5,-279.7 201.5,-279.7 201.5,-257.7 8.5,-257.7"/>
<image xlink:href="../../images/primaryKeys.png" width="11px" height="12px" preserveAspectRatio="xMinYMin meet" x="13.5" y="-274.7"/>
<text text-anchor="start" x="28.5" y="-264.8" font-family="Helvetica,sans-Serif" font-size="11.00" fill="#000000">Id</text>
<polygon fill="#ffffff" stroke="transparent" points="8.5,-235.7 8.5,-257.7 201.5,-257.7 201.5,-235.7 8.5,-235.7"/>
<polygon fill="none" stroke="#000000" points="8.5,-235.7 8.5,-257.7 201.5,-257.7 201.5,-235.7 8.5,-235.7"/>
<image xlink:href="../../images/foreignKeys.png" width="11px" height="12px" preserveAspectRatio="xMinYMin meet" x="13.5" y="-252.7"/>
<text text-anchor="start" x="28.5" y="-242.8" font-family="Helvetica,sans-Serif" font-size="11.00" fill="#000000">PatientId</text>
<polygon fill="#ffffff" stroke="transparent" points="8.5,-213.7 8.5,-235.7 201.5,-235.7 201.5,-213.7 8.5,-213.7"/>
<polygon fill="none" stroke="#000000" points="8.5,-213.7 8.5,-235.7 201.5,-235.7 201.5,-213.7 8.5,-213.7"/>
<text text-anchor="start" x="28.5" y="-220.8" font-family="Helvetica,sans-Serif" font-size="11.00" fill="#000000">CaseId</text>
<polygon fill="#ffffff" stroke="transparent" points="8.5,-191.7 8.5,-213.7 201.5,-213.7 201.5,-191.7 8.5,-191.7"/>
<polygon fill="none" stroke="#000000" points="8.5,-191.7 8.5,-213.7 201.5,-213.7 201.5,-191.7 8.5,-191.7"/>
<image xlink:href="../../images/foreignKeys.png" width="11px" height="12px" preserveAspectRatio="xMinYMin meet" x="13.5" y="-208.7"/>
<text text-anchor="start" x="28.5" y="-198.8" font-family="Helvetica,sans-Serif" font-size="11.00" fill="#000000">FacilityId</text>
<polygon fill="#ffffff" stroke="transparent" points="8.5,-169.7 8.5,-191.7 201.5,-191.7 201.5,-169.7 8.5,-169.7"/>
<polygon fill="none" stroke="#000000" points="8.5,-169.7 8.5,-191.7 201.5,-191.7 201.5,-169.7 8.5,-169.7"/>
<image xlink:href="../../images/foreignKeys.png" width="11px" height="12px" preserveAspectRatio="xMinYMin meet" x="13.5" y="-186.7"/>
<text text-anchor="start" x="28.5" y="-176.8" font-family="Helvetica,sans-Serif" font-size="11.00" fill="#000000">HospitalizationStatusId</text>
<polygon fill="none" stroke="#000000" points="8.5,-150.7 8.5,-169.7 201.5,-169.7 201.5,-150.7 8.5,-150.7"/>
<text text-anchor="start" x="11.5" y="-156.8" font-family="Helvetica,sans-Serif" font-size="11.00" fill="#000000">...</text>
<polygon fill="#ffffff" stroke="transparent" points="8.5,-131.7 8.5,-150.7 201.5,-150.7 201.5,-131.7 8.5,-131.7"/>
<polygon fill="none" stroke="#000000" points="8.5,-131.7 8.5,-150.7 201.5,-150.7 201.5,-131.7 8.5,-131.7"/>
<polygon fill="#ffffff" stroke="transparent" points="9.5,-132.7 9.5,-149.7 76.5,-149.7 76.5,-132.7 9.5,-132.7"/>
<text text-anchor="start" x="11.5" y="-137.8" font-family="Helvetica,sans-Serif" font-size="11.00" fill="#000000">&lt; 3</text>
<polygon fill="#ffffff" stroke="transparent" points="76.5,-132.7 76.5,-149.7 134.5,-149.7 134.5,-132.7 76.5,-132.7"/>
<text text-anchor="start" x="102.4431" y="-137.8" font-family="Helvetica,sans-Serif" font-size="11.00" fill="#000000"> &#160;</text>
<polygon fill="#ffffff" stroke="transparent" points="134.5,-132.7 134.5,-149.7 200.5,-149.7 200.5,-132.7 134.5,-132.7"/>
<text text-anchor="start" x="182.9053" y="-137.8" font-family="Helvetica,sans-Serif" font-size="11.00" fill="#000000">4 &gt;</text>
<polygon fill="#000000" stroke="#000000" points="76.5,-132.7 76.5,-149.7 76.5,-149.7 76.5,-132.7 76.5,-132.7"/>
<polygon fill="#000000" stroke="#000000" points="134.5,-132.7 134.5,-149.7 134.5,-149.7 134.5,-132.7 134.5,-132.7"/>
</a>
</g>
</g>
<!-- Visits&#45;&gt;Hospitalizations -->
<g id="edge4" class="edge">
<title>Visits:w&#45;&gt;Hospitalizations:e</title>
<path fill="none" stroke="#000000" d="M238.6116,-358.6609C214.5536,-340.6688 243.0893,-268.7 201.5,-268.7"/>
<polygon fill="#000000" stroke="#000000" points="244.8183,-360.4659 251.4947,-366.1568 248.6591,-361.583 252.5,-362.7 252.5,-362.7 252.5,-362.7 248.6591,-361.583 253.5053,-359.2432 244.8183,-360.4659 244.8183,-360.4659"/>
<ellipse fill="none" stroke="#000000" cx="241.7456" cy="-359.5723" rx="3.2" ry="3.2"/>
</g>
<!-- VisitAttendants -->
<g id="node3" class="node">
<title>VisitAttendants</title>
<g id="a_node3"><a xlink:href="../../tables/VisitAttendants.html" xlink:title="VisitAttendants" target="_top">
<polygon fill="#ffffff" stroke="transparent" points="627,-444.2 627,-571.2 780,-571.2 780,-444.2 627,-444.2"/>
<polygon fill="#f5f5f5" stroke="transparent" points="627.5,-547.7 627.5,-570.7 780.5,-570.7 780.5,-547.7 627.5,-547.7"/>
<polygon fill="none" stroke="#000000" points="627.5,-547.7 627.5,-570.7 780.5,-570.7 780.5,-547.7 627.5,-547.7"/>
<text text-anchor="start" x="632.5" y="-556.3" font-family="Helvetica,sans-Serif" font-weight="bold" font-size="11.00" fill="#000000">VisitAttendants</text>
<text text-anchor="start" x="746.0219" y="-555.8" font-family="Helvetica,sans-Serif" font-size="11.00" fill="#000000">[table]</text>
<polygon fill="none" stroke="#000000" points="627.5,-525.7 627.5,-547.7 780.5,-547.7 780.5,-525.7 627.5,-525.7"/>
<image xlink:href="../../images/primaryKeys.png" width="11px" height="12px" preserveAspectRatio="xMinYMin meet" x="632.5" y="-542.7"/>
<text text-anchor="start" x="656.5" y="-532.8" font-family="Helvetica,sans-Serif" font-size="11.00" fill="#000000">Id</text>
<polygon fill="#ffffff" stroke="transparent" points="627.5,-503.7 627.5,-525.7 780.5,-525.7 780.5,-503.7 627.5,-503.7"/>
<polygon fill="none" stroke="#000000" points="627.5,-503.7 627.5,-525.7 780.5,-525.7 780.5,-503.7 627.5,-503.7"/>
<image xlink:href="../../images/foreignKeys.png" width="11px" height="12px" preserveAspectRatio="xMinYMin meet" x="632.5" y="-520.7"/>
<text text-anchor="start" x="656.5" y="-510.8" font-family="Helvetica,sans-Serif" font-size="11.00" fill="#000000">VisitId</text>
<polygon fill="#ffffff" stroke="transparent" points="627.5,-481.7 627.5,-503.7 780.5,-503.7 780.5,-481.7 627.5,-481.7"/>
<polygon fill="none" stroke="#000000" points="627.5,-481.7 627.5,-503.7 780.5,-503.7 780.5,-481.7 627.5,-481.7"/>
<image xlink:href="../../images/foreignKeys.png" width="11px" height="12px" preserveAspectRatio="xMinYMin meet" x="632.5" y="-498.7"/>
<text text-anchor="start" x="656.5" y="-488.8" font-family="Helvetica,sans-Serif" font-size="11.00" fill="#000000">ProviderId</text>
<polygon fill="none" stroke="#000000" points="627.5,-462.7 627.5,-481.7 780.5,-481.7 780.5,-462.7 627.5,-462.7"/>
<text text-anchor="start" x="630.5" y="-468.8" font-family="Helvetica,sans-Serif" font-size="11.00" fill="#000000">...</text>
<polygon fill="#ffffff" stroke="transparent" points="627.5,-443.7 627.5,-462.7 780.5,-462.7 780.5,-443.7 627.5,-443.7"/>
<polygon fill="none" stroke="#000000" points="627.5,-443.7 627.5,-462.7 780.5,-462.7 780.5,-443.7 627.5,-443.7"/>
<polygon fill="#ffffff" stroke="transparent" points="628.5,-444.7 628.5,-461.7 685.5,-461.7 685.5,-444.7 628.5,-444.7"/>
<text text-anchor="start" x="630.5" y="-449.8" font-family="Helvetica,sans-Serif" font-size="11.00" fill="#000000">&lt; 2</text>
<polygon fill="#ffffff" stroke="transparent" points="685.5,-444.7 685.5,-461.7 732.5,-461.7 732.5,-444.7 685.5,-444.7"/>
<text text-anchor="start" x="705.9431" y="-449.8" font-family="Helvetica,sans-Serif" font-size="11.00" fill="#000000"> &#160;</text>
<polygon fill="#ffffff" stroke="transparent" points="732.5,-444.7 732.5,-461.7 779.5,-461.7 779.5,-444.7 732.5,-444.7"/>
<text text-anchor="start" x="771.3862" y="-449.8" font-family="Helvetica,sans-Serif" font-size="11.00" fill="#000000"> &#160;</text>
<polygon fill="#000000" stroke="#000000" points="685.5,-444.7 685.5,-461.7 685.5,-461.7 685.5,-444.7 685.5,-444.7"/>
<polygon fill="#000000" stroke="#000000" points="732.5,-444.7 732.5,-461.7 732.5,-461.7 732.5,-444.7 732.5,-444.7"/>
</a>
</g>
</g>
<!-- VisitAttendants&#45;&gt;Visits -->
<g id="edge2" class="edge">
<title>VisitAttendants:w&#45;&gt;Visits:e</title>
<path fill="none" stroke="#000000" d="M613.3187,-510.3325C577.5499,-490.1274 532.21,-406.7 499.5,-406.7"/>
<polygon fill="#000000" stroke="#000000" points="619.8544,-512.3453 626.4404,-518.1405 623.6772,-513.5227 627.5,-514.7 627.5,-514.7 627.5,-514.7 623.6772,-513.5227 628.5596,-511.2595 619.8544,-512.3453 619.8544,-512.3453"/>
<ellipse fill="none" stroke="#000000" cx="616.7961" cy="-511.4034" rx="3.2" ry="3.2"/>
</g>
<!-- VisitEvents -->
<g id="node4" class="node">
<title>VisitEvents</title>
<g id="a_node4"><a xlink:href="../../tables/VisitEvents.html" xlink:title="VisitEvents" target="_top">
<polygon fill="#ffffff" stroke="transparent" points="631,-252.2 631,-423.2 776,-423.2 776,-252.2 631,-252.2"/>
<polygon fill="#f5f5f5" stroke="transparent" points="631.5,-399.7 631.5,-422.7 776.5,-422.7 776.5,-399.7 631.5,-399.7"/>
<polygon fill="none" stroke="#000000" points="631.5,-399.7 631.5,-422.7 776.5,-422.7 776.5,-399.7 631.5,-399.7"/>
<text text-anchor="start" x="636.5" y="-408.3" font-family="Helvetica,sans-Serif" font-weight="bold" font-size="11.00" fill="#000000">VisitEvents</text>
<text text-anchor="start" x="741.5437" y="-407.8" font-family="Helvetica,sans-Serif" font-size="11.00" fill="#000000">[table]</text>
<polygon fill="none" stroke="#000000" points="631.5,-377.7 631.5,-399.7 776.5,-399.7 776.5,-377.7 631.5,-377.7"/>
<image xlink:href="../../images/primaryKeys.png" width="11px" height="12px" preserveAspectRatio="xMinYMin meet" x="636.5" y="-394.7"/>
<text text-anchor="start" x="651.5" y="-384.8" font-family="Helvetica,sans-Serif" font-size="11.00" fill="#000000">Id</text>
<polygon fill="#ffffff" stroke="transparent" points="631.5,-355.7 631.5,-377.7 776.5,-377.7 776.5,-355.7 631.5,-355.7"/>
<polygon fill="none" stroke="#000000" points="631.5,-355.7 631.5,-377.7 776.5,-377.7 776.5,-355.7 631.5,-355.7"/>
<image xlink:href="../../images/foreignKeys.png" width="11px" height="12px" preserveAspectRatio="xMinYMin meet" x="636.5" y="-372.7"/>
<text text-anchor="start" x="651.5" y="-362.8" font-family="Helvetica,sans-Serif" font-size="11.00" fill="#000000">VisitId</text>
<polygon fill="#ffffff" stroke="transparent" points="631.5,-333.7 631.5,-355.7 776.5,-355.7 776.5,-333.7 631.5,-333.7"/>
<polygon fill="none" stroke="#000000" points="631.5,-333.7 631.5,-355.7 776.5,-355.7 776.5,-333.7 631.5,-333.7"/>
<image xlink:href="../../images/foreignKeys.png" width="11px" height="12px" preserveAspectRatio="xMinYMin meet" x="636.5" y="-350.7"/>
<text text-anchor="start" x="651.5" y="-340.8" font-family="Helvetica,sans-Serif" font-size="11.00" fill="#000000">EventTypeId</text>
<polygon fill="#ffffff" stroke="transparent" points="631.5,-311.7 631.5,-333.7 776.5,-333.7 776.5,-311.7 631.5,-311.7"/>
<polygon fill="none" stroke="#000000" points="631.5,-311.7 631.5,-333.7 776.5,-333.7 776.5,-311.7 631.5,-311.7"/>
<text text-anchor="start" x="651.5" y="-318.8" font-family="Helvetica,sans-Serif" font-size="11.00" fill="#000000">EventOccurredAt</text>
<polygon fill="#ffffff" stroke="transparent" points="631.5,-289.7 631.5,-311.7 776.5,-311.7 776.5,-289.7 631.5,-289.7"/>
<polygon fill="none" stroke="#000000" points="631.5,-289.7 631.5,-311.7 776.5,-311.7 776.5,-289.7 631.5,-289.7"/>
<text text-anchor="start" x="651.5" y="-296.8" font-family="Helvetica,sans-Serif" font-size="11.00" fill="#000000">EnteredByUserId</text>
<polygon fill="none" stroke="#000000" points="631.5,-270.7 631.5,-289.7 776.5,-289.7 776.5,-270.7 631.5,-270.7"/>
<text text-anchor="start" x="634.5" y="-276.8" font-family="Helvetica,sans-Serif" font-size="11.00" fill="#000000">...</text>
<polygon fill="#ffffff" stroke="transparent" points="631.5,-251.7 631.5,-270.7 776.5,-270.7 776.5,-251.7 631.5,-251.7"/>
<polygon fill="none" stroke="#000000" points="631.5,-251.7 631.5,-270.7 776.5,-270.7 776.5,-251.7 631.5,-251.7"/>
<polygon fill="#ffffff" stroke="transparent" points="632.5,-252.7 632.5,-269.7 686.5,-269.7 686.5,-252.7 632.5,-252.7"/>
<text text-anchor="start" x="634.5" y="-257.8" font-family="Helvetica,sans-Serif" font-size="11.00" fill="#000000">&lt; 2</text>
<polygon fill="#ffffff" stroke="transparent" points="686.5,-252.7 686.5,-269.7 731.5,-269.7 731.5,-252.7 686.5,-252.7"/>
<text text-anchor="start" x="705.9431" y="-257.8" font-family="Helvetica,sans-Serif" font-size="11.00" fill="#000000"> &#160;</text>
<polygon fill="#ffffff" stroke="transparent" points="731.5,-252.7 731.5,-269.7 775.5,-269.7 775.5,-252.7 731.5,-252.7"/>
<text text-anchor="start" x="767.3862" y="-257.8" font-family="Helvetica,sans-Serif" font-size="11.00" fill="#000000"> &#160;</text>
<polygon fill="#000000" stroke="#000000" points="686.5,-252.7 686.5,-269.7 686.5,-269.7 686.5,-252.7 686.5,-252.7"/>
<polygon fill="#000000" stroke="#000000" points="731.5,-252.7 731.5,-269.7 731.5,-269.7 731.5,-252.7 731.5,-252.7"/>
</a>
</g>
</g>
<!-- VisitEvents&#45;&gt;Visits -->
<g id="edge3" class="edge">
<title>VisitEvents:w&#45;&gt;Visits:e</title>
<path fill="none" stroke="#000000" d="M617.0918,-367.499C568.2543,-373.1366 555.6528,-406.7 499.5,-406.7"/>
<polygon fill="#000000" stroke="#000000" points="623.5123,-367.143 631.6994,-370.2945 627.5061,-366.9215 631.5,-366.7 631.5,-366.7 631.5,-366.7 627.5061,-366.9215 631.3006,-363.1055 623.5123,-367.143 623.5123,-367.143"/>
<ellipse fill="none" stroke="#000000" cx="620.3172" cy="-367.3202" rx="3.2" ry="3.2"/>
</g>
<!-- staging.ProviderAssignments -->
<g id="node6" class="node">
<title>staging.ProviderAssignments</title>
<g id="a_node6"><a xlink:title="staging.ProviderAssignments">
<polygon fill="#ffffff" stroke="transparent" points="550,-38.2 550,-231.2 857,-231.2 857,-38.2 550,-38.2"/>
<polygon fill="#f5f5f5" stroke="transparent" points="550.5,-207.7 550.5,-230.7 857.5,-230.7 857.5,-207.7 550.5,-207.7"/>
<polygon fill="none" stroke="#000000" points="550.5,-207.7 550.5,-230.7 857.5,-230.7 857.5,-207.7 550.5,-207.7"/>
<text text-anchor="start" x="555.5" y="-216.3" font-family="Helvetica,sans-Serif" font-weight="bold" font-size="11.00" fill="#000000">staging.ProviderAssignments</text>
<text text-anchor="start" x="822.5437" y="-215.8" font-family="Helvetica,sans-Serif" font-size="11.00" fill="#000000">[table]</text>
<polygon fill="none" stroke="#000000" points="550.5,-185.7 550.5,-207.7 857.5,-207.7 857.5,-185.7 550.5,-185.7"/>
<image xlink:href="../../images/foreignKeys.png" width="11px" height="12px" preserveAspectRatio="xMinYMin meet" x="555.5" y="-202.7"/>
<text text-anchor="start" x="570.5" y="-192.8" font-family="Helvetica,sans-Serif" font-size="11.00" fill="#000000">ResolvedPhysicianId</text>
<polygon fill="none" stroke="#000000" points="550.5,-163.7 550.5,-185.7 857.5,-185.7 857.5,-163.7 550.5,-163.7"/>
<image xlink:href="../../images/foreignKeys.png" width="11px" height="12px" preserveAspectRatio="xMinYMin meet" x="555.5" y="-180.7"/>
<text text-anchor="start" x="570.5" y="-170.8" font-family="Helvetica,sans-Serif" font-size="11.00" fill="#000000">ResolvedHospitalizationId</text>
<polygon fill="none" stroke="#000000" points="550.5,-141.7 550.5,-163.7 857.5,-163.7 857.5,-141.7 550.5,-141.7"/>
<image xlink:href="../../images/foreignKeys.png" width="11px" height="12px" preserveAspectRatio="xMinYMin meet" x="555.5" y="-158.7"/>
<text text-anchor="start" x="570.5" y="-148.8" font-family="Helvetica,sans-Serif" font-size="11.00" fill="#000000">ResolvedPatientId</text>
<polygon fill="none" stroke="#000000" points="550.5,-119.7 550.5,-141.7 857.5,-141.7 857.5,-119.7 550.5,-119.7"/>
<image xlink:href="../../images/foreignKeys.png" width="11px" height="12px" preserveAspectRatio="xMinYMin meet" x="555.5" y="-136.7"/>
<text text-anchor="start" x="570.5" y="-126.8" font-family="Helvetica,sans-Serif" font-size="11.00" fill="#000000">ResolvedNursePractitionerId</text>
<polygon fill="none" stroke="#000000" points="550.5,-97.7 550.5,-119.7 857.5,-119.7 857.5,-97.7 550.5,-97.7"/>
<image xlink:href="../../images/foreignKeys.png" width="11px" height="12px" preserveAspectRatio="xMinYMin meet" x="555.5" y="-114.7"/>
<text text-anchor="start" x="570.5" y="-104.8" font-family="Helvetica,sans-Serif" font-size="11.00" fill="#000000">ResolvedVisitId</text>
<polygon fill="none" stroke="#000000" points="550.5,-75.7 550.5,-97.7 857.5,-97.7 857.5,-75.7 550.5,-75.7"/>
<image xlink:href="../../images/foreignKeys.png" width="11px" height="12px" preserveAspectRatio="xMinYMin meet" x="555.5" y="-92.7"/>
<text text-anchor="start" x="570.5" y="-82.8" font-family="Helvetica,sans-Serif" font-size="11.00" fill="#000000">ResolvedHospitalizationStatusId</text>
<polygon fill="none" stroke="#000000" points="550.5,-56.7 550.5,-75.7 857.5,-75.7 857.5,-56.7 550.5,-56.7"/>
<text text-anchor="start" x="553.5" y="-62.8" font-family="Helvetica,sans-Serif" font-size="11.00" fill="#000000">...</text>
<polygon fill="#ffffff" stroke="transparent" points="550.5,-37.7 550.5,-56.7 857.5,-56.7 857.5,-37.7 550.5,-37.7"/>
<polygon fill="none" stroke="#000000" points="550.5,-37.7 550.5,-56.7 857.5,-56.7 857.5,-37.7 550.5,-37.7"/>
<polygon fill="#ffffff" stroke="transparent" points="551.5,-38.7 551.5,-55.7 659.5,-55.7 659.5,-38.7 551.5,-38.7"/>
<text text-anchor="start" x="553.5" y="-43.8" font-family="Helvetica,sans-Serif" font-size="11.00" fill="#000000">&lt; 6</text>
<polygon fill="#ffffff" stroke="transparent" points="659.5,-38.7 659.5,-55.7 758.5,-55.7 758.5,-38.7 659.5,-38.7"/>
<text text-anchor="start" x="705.9431" y="-43.8" font-family="Helvetica,sans-Serif" font-size="11.00" fill="#000000"> &#160;</text>
<polygon fill="#ffffff" stroke="transparent" points="758.5,-38.7 758.5,-55.7 856.5,-55.7 856.5,-38.7 758.5,-38.7"/>
<text text-anchor="start" x="848.3862" y="-43.8" font-family="Helvetica,sans-Serif" font-size="11.00" fill="#000000"> &#160;</text>
<polygon fill="#000000" stroke="#000000" points="659.5,-38.7 659.5,-55.7 659.5,-55.7 659.5,-38.7 659.5,-38.7"/>
<polygon fill="#000000" stroke="#000000" points="758.5,-38.7 758.5,-55.7 758.5,-55.7 758.5,-38.7 758.5,-38.7"/>
</a>
</g>
</g>
<!-- staging.ProviderAssignments&#45;&gt;Visits -->
<g id="edge6" class="edge">
<title>staging.ProviderAssignments:w&#45;&gt;Visits:e</title>
<path fill="none" stroke="#000000" d="M537.1015,-114.1267C495.7018,-154.5156 561.305,-406.7 499.5,-406.7"/>
<polygon fill="#000000" stroke="#000000" points="543.0851,-111.7033 551.8515,-112.0367 546.7926,-110.2016 550.5,-108.7 550.5,-108.7 550.5,-108.7 546.7926,-110.2016 549.1485,-105.3633 543.0851,-111.7033 543.0851,-111.7033"/>
<ellipse fill="none" stroke="#000000" cx="540.1191" cy="-112.9046" rx="3.2" ry="3.2"/>
</g>
<!-- staging.ProviderAssignments&#45;&gt;Hospitalizations -->
<g id="edge5" class="edge">
<title>staging.ProviderAssignments:w&#45;&gt;Hospitalizations:e</title>
<path fill="none" stroke="#000000" d="M535.9338,-174.4723C409.1254,-170.5042 353.1086,-116.8927 242,-188.7 208.5294,-210.3314 241.3522,-268.7 201.5,-268.7"/>
<polygon fill="#000000" stroke="#000000" points="542.501,-174.5749 550.4437,-178.2996 546.5005,-174.6374 550.5,-174.7 550.5,-174.7 550.5,-174.7 546.5005,-174.6374 550.5563,-171.1004 542.501,-174.5749 542.501,-174.5749"/>
<ellipse fill="none" stroke="#000000" cx="539.3014" cy="-174.5248" rx="3.2" ry="3.2"/>
</g>
</g>
</svg>
