<?xml version="1.0" encoding="UTF-8" standalone="no"?>
<!DOCTYPE svg PUBLIC "-//W3C//DTD SVG 1.1//EN"
 "http://www.w3.org/Graphics/SVG/1.1/DTD/svg11.dtd">
<!-- Generated by graphviz version 2.40.1 (20161225.0304)
 -->
<!-- Title: twoDegreesRelationshipsDiagram Pages: 1 -->
<svg width="710pt" height="468pt"
 viewBox="0.00 0.00 710.00 467.70" xmlns="http://www.w3.org/2000/svg" xmlns:xlink="http://www.w3.org/1999/xlink">
<g id="graph0" class="graph" transform="scale(1 1) rotate(0) translate(4 463.7)">
<title>twoDegreesRelationshipsDiagram</title>
<polygon fill="#ffffff" stroke="transparent" points="-4,4 -4,-463.7 706,-463.7 706,4 -4,4"/>
<text text-anchor="middle" x="72.4936" y="-7.3" font-family="Helvetica,sans-Serif" font-size="11.00" fill="#000000">Generated by SchemaSpy</text>
<!-- VisitAttendants -->
<g id="node1" class="node">
<title>VisitAttendants</title>
<g id="a_node1"><a xlink:href="../../tables/VisitAttendants.html" xlink:title="VisitAttendants" target="_top">
<polygon fill="#ffffff" stroke="transparent" points="485,-312.7 485,-373.7 638,-373.7 638,-312.7 485,-312.7"/>
<polygon fill="#f5f5f5" stroke="transparent" points="485.5,-350.2 485.5,-373.2 638.5,-373.2 638.5,-350.2 485.5,-350.2"/>
<polygon fill="none" stroke="#000000" points="485.5,-350.2 485.5,-373.2 638.5,-373.2 638.5,-350.2 485.5,-350.2"/>
<text text-anchor="start" x="490.5" y="-358.8" font-family="Helvetica,sans-Serif" font-weight="bold" font-size="11.00" fill="#000000">VisitAttendants</text>
<text text-anchor="start" x="604.0219" y="-358.3" font-family="Helvetica,sans-Serif" font-size="11.00" fill="#000000">[table]</text>
<polygon fill="none" stroke="#000000" points="485.5,-331.2 485.5,-350.2 638.5,-350.2 638.5,-331.2 485.5,-331.2"/>
<text text-anchor="start" x="488.5" y="-337.3" font-family="Helvetica,sans-Serif" font-size="11.00" fill="#000000">...</text>
<polygon fill="#ffffff" stroke="transparent" points="485.5,-312.2 485.5,-331.2 638.5,-331.2 638.5,-312.2 485.5,-312.2"/>
<polygon fill="none" stroke="#000000" points="485.5,-312.2 485.5,-331.2 638.5,-331.2 638.5,-312.2 485.5,-312.2"/>
<polygon fill="#ffffff" stroke="transparent" points="486.5,-313.2 486.5,-330.2 543.5,-330.2 543.5,-313.2 486.5,-313.2"/>
<text text-anchor="start" x="488.5" y="-318.3" font-family="Helvetica,sans-Serif" font-size="11.00" fill="#000000">&lt; 2</text>
<polygon fill="#ffffff" stroke="transparent" points="543.5,-313.2 543.5,-330.2 590.5,-330.2 590.5,-313.2 543.5,-313.2"/>
<text text-anchor="start" x="563.9431" y="-318.3" font-family="Helvetica,sans-Serif" font-size="11.00" fill="#000000"> &#160;</text>
<polygon fill="#ffffff" stroke="transparent" points="590.5,-313.2 590.5,-330.2 637.5,-330.2 637.5,-313.2 590.5,-313.2"/>
<text text-anchor="start" x="629.3862" y="-318.3" font-family="Helvetica,sans-Serif" font-size="11.00" fill="#000000"> &#160;</text>
<polygon fill="#000000" stroke="#000000" points="543.5,-313.2 543.5,-330.2 543.5,-330.2 543.5,-313.2 543.5,-313.2"/>
<polygon fill="#000000" stroke="#000000" points="590.5,-313.2 590.5,-330.2 590.5,-330.2 590.5,-313.2 590.5,-313.2"/>
</a>
</g>
</g>
<!-- Visits -->
<g id="node2" class="node">
<title>Visits</title>
<g id="a_node2"><a xlink:href="../../tables/Visits.html" xlink:title="Visits" target="_top">
<polygon fill="#ffffff" stroke="transparent" points="214,-248.7 214,-397.7 380,-397.7 380,-248.7 214,-248.7"/>
<polygon fill="#f5f5f5" stroke="transparent" points="214,-374.2 214,-397.2 380,-397.2 380,-374.2 214,-374.2"/>
<polygon fill="none" stroke="#000000" points="214,-374.2 214,-397.2 380,-397.2 380,-374.2 214,-374.2"/>
<text text-anchor="start" x="219" y="-382.8" font-family="Helvetica,sans-Serif" font-weight="bold" font-size="11.00" fill="#000000">Visits</text>
<text text-anchor="start" x="345.0437" y="-382.3" font-family="Helvetica,sans-Serif" font-size="11.00" fill="#000000">[table]</text>
<polygon fill="none" stroke="#000000" points="214,-352.2 214,-374.2 380,-374.2 380,-352.2 214,-352.2"/>
<image xlink:href="../../images/primaryKeys.png" width="11px" height="12px" preserveAspectRatio="xMinYMin meet" x="219" y="-369.2"/>
<text text-anchor="start" x="234" y="-359.3" font-family="Helvetica,sans-Serif" font-size="11.00" fill="#000000">Id</text>
<polygon fill="#ffffff" stroke="transparent" points="214,-330.2 214,-352.2 380,-352.2 380,-330.2 214,-330.2"/>
<polygon fill="none" stroke="#000000" points="214,-330.2 214,-352.2 380,-352.2 380,-330.2 214,-330.2"/>
<text text-anchor="start" x="234" y="-337.3" font-family="Helvetica,sans-Serif" font-size="11.00" fill="#000000">DateServiced</text>
<polygon fill="#ffffff" stroke="transparent" points="214,-308.2 214,-330.2 380,-330.2 380,-308.2 214,-308.2"/>
<polygon fill="none" stroke="#000000" points="214,-308.2 214,-330.2 380,-330.2 380,-308.2 214,-308.2"/>
<image xlink:href="../../images/foreignKeys.png" width="11px" height="12px" preserveAspectRatio="xMinYMin meet" x="219" y="-325.2"/>
<text text-anchor="start" x="234" y="-315.3" font-family="Helvetica,sans-Serif" font-size="11.00" fill="#000000">HospitalizationId</text>
<polygon fill="#ffffff" stroke="transparent" points="214,-286.2 214,-308.2 380,-308.2 380,-286.2 214,-286.2"/>
<polygon fill="none" stroke="#000000" points="214,-286.2 214,-308.2 380,-308.2 380,-286.2 214,-286.2"/>
<image xlink:href="../../images/foreignKeys.png" width="11px" height="12px" preserveAspectRatio="xMinYMin meet" x="219" y="-303.2"/>
<text text-anchor="start" x="234" y="-293.3" font-family="Helvetica,sans-Serif" font-size="11.00" fill="#000000">ServiceTypeId</text>
<polygon fill="none" stroke="#000000" points="214,-267.2 214,-286.2 380,-286.2 380,-267.2 214,-267.2"/>
<text text-anchor="start" x="217" y="-273.3" font-family="Helvetica,sans-Serif" font-size="11.00" fill="#000000">...</text>
<polygon fill="#ffffff" stroke="transparent" points="214,-248.2 214,-267.2 380,-267.2 380,-248.2 214,-248.2"/>
<polygon fill="none" stroke="#000000" points="214,-248.2 214,-267.2 380,-267.2 380,-248.2 214,-248.2"/>
<polygon fill="#ffffff" stroke="transparent" points="215,-249.2 215,-266.2 273,-266.2 273,-249.2 215,-249.2"/>
<text text-anchor="start" x="217" y="-254.3" font-family="Helvetica,sans-Serif" font-size="11.00" fill="#000000">&lt; 2</text>
<polygon fill="#ffffff" stroke="transparent" points="273,-249.2 273,-266.2 322,-266.2 322,-249.2 273,-249.2"/>
<text text-anchor="start" x="294.4431" y="-254.3" font-family="Helvetica,sans-Serif" font-size="11.00" fill="#000000"> &#160;</text>
<polygon fill="#ffffff" stroke="transparent" points="322,-249.2 322,-266.2 379,-266.2 379,-249.2 322,-249.2"/>
<text text-anchor="start" x="361.4053" y="-254.3" font-family="Helvetica,sans-Serif" font-size="11.00" fill="#000000">3 &gt;</text>
<polygon fill="#000000" stroke="#000000" points="273,-249.2 273,-266.2 273,-266.2 273,-249.2 273,-249.2"/>
<polygon fill="#000000" stroke="#000000" points="322,-249.2 322,-266.2 322,-266.2 322,-249.2 322,-249.2"/>
</a>
</g>
</g>
<!-- VisitAttendants&#45;&gt;Visits -->
<g id="edge1" class="edge">
<title>VisitAttendants:w&#45;&gt;Visits:e</title>
<path fill="none" stroke="#000000" d="M471.0332,-340.9653C434.9672,-344.9561 422.7413,-363.2 380,-363.2"/>
<polygon fill="#000000" stroke="#000000" points="477.5112,-340.6226 485.6902,-343.795 481.5056,-340.4113 485.5,-340.2 485.5,-340.2 485.5,-340.2 481.5056,-340.4113 485.3098,-336.605 477.5112,-340.6226 477.5112,-340.6226"/>
<ellipse fill="none" stroke="#000000" cx="474.3156" cy="-340.7917" rx="3.2" ry="3.2"/>
</g>
<!-- Hospitalizations -->
<g id="node5" class="node">
<title>Hospitalizations</title>
<g id="a_node5"><a xlink:href="../../tables/Hospitalizations.html" xlink:title="Hospitalizations" target="_top">
<polygon fill="#ffffff" stroke="transparent" points="8,-372.7 8,-433.7 165,-433.7 165,-372.7 8,-372.7"/>
<polygon fill="#f5f5f5" stroke="transparent" points="8.5,-410.2 8.5,-433.2 165.5,-433.2 165.5,-410.2 8.5,-410.2"/>
<polygon fill="none" stroke="#000000" points="8.5,-410.2 8.5,-433.2 165.5,-433.2 165.5,-410.2 8.5,-410.2"/>
<text text-anchor="start" x="13.5" y="-418.8" font-family="Helvetica,sans-Serif" font-weight="bold" font-size="11.00" fill="#000000">Hospitalizations</text>
<text text-anchor="start" x="131.0219" y="-418.3" font-family="Helvetica,sans-Serif" font-size="11.00" fill="#000000">[table]</text>
<polygon fill="none" stroke="#000000" points="8.5,-391.2 8.5,-410.2 165.5,-410.2 165.5,-391.2 8.5,-391.2"/>
<text text-anchor="start" x="11.5" y="-397.3" font-family="Helvetica,sans-Serif" font-size="11.00" fill="#000000">...</text>
<polygon fill="#ffffff" stroke="transparent" points="8.5,-372.2 8.5,-391.2 165.5,-391.2 165.5,-372.2 8.5,-372.2"/>
<polygon fill="none" stroke="#000000" points="8.5,-372.2 8.5,-391.2 165.5,-391.2 165.5,-372.2 8.5,-372.2"/>
<polygon fill="#ffffff" stroke="transparent" points="9.5,-373.2 9.5,-390.2 64.5,-390.2 64.5,-373.2 9.5,-373.2"/>
<text text-anchor="start" x="11.5" y="-378.3" font-family="Helvetica,sans-Serif" font-size="11.00" fill="#000000">&lt; 3</text>
<polygon fill="#ffffff" stroke="transparent" points="64.5,-373.2 64.5,-390.2 110.5,-390.2 110.5,-373.2 64.5,-373.2"/>
<text text-anchor="start" x="84.4431" y="-378.3" font-family="Helvetica,sans-Serif" font-size="11.00" fill="#000000"> &#160;</text>
<polygon fill="#ffffff" stroke="transparent" points="110.5,-373.2 110.5,-390.2 164.5,-390.2 164.5,-373.2 110.5,-373.2"/>
<text text-anchor="start" x="146.9053" y="-378.3" font-family="Helvetica,sans-Serif" font-size="11.00" fill="#000000">4 &gt;</text>
<polygon fill="#000000" stroke="#000000" points="64.5,-373.2 64.5,-390.2 64.5,-390.2 64.5,-373.2 64.5,-373.2"/>
<polygon fill="#000000" stroke="#000000" points="110.5,-373.2 110.5,-390.2 110.5,-390.2 110.5,-373.2 110.5,-373.2"/>
</a>
</g>
</g>
<!-- Visits&#45;&gt;Hospitalizations -->
<g id="edge4" class="edge">
<title>Visits:w&#45;&gt;Hospitalizations:e</title>
<path fill="none" stroke="#000000" d="M200.1884,-323.787C180.6622,-340.922 201.3955,-400.2 165.5,-400.2"/>
<polygon fill="#000000" stroke="#000000" points="206.4078,-321.7215 215.1347,-322.6165 210.2039,-320.4608 214,-319.2 214,-319.2 214,-319.2 210.2039,-320.4608 212.8653,-315.7835 206.4078,-321.7215 206.4078,-321.7215"/>
<ellipse fill="none" stroke="#000000" cx="203.3709" cy="-322.7301" rx="3.2" ry="3.2"/>
</g>
<!-- ServiceTypes -->
<g id="node6" class="node">
<title>ServiceTypes</title>
<g id="a_node6"><a xlink:href="../../tables/ServiceTypes.html" xlink:title="ServiceTypes" target="_top">
<polygon fill="#ffffff" stroke="transparent" points="18.5,-269.7 18.5,-330.7 154.5,-330.7 154.5,-269.7 18.5,-269.7"/>
<polygon fill="#f5f5f5" stroke="transparent" points="18.5,-307.2 18.5,-330.2 154.5,-330.2 154.5,-307.2 18.5,-307.2"/>
<polygon fill="none" stroke="#000000" points="18.5,-307.2 18.5,-330.2 154.5,-330.2 154.5,-307.2 18.5,-307.2"/>
<text text-anchor="start" x="23.5" y="-315.8" font-family="Helvetica,sans-Serif" font-weight="bold" font-size="11.00" fill="#000000">ServiceTypes</text>
<text text-anchor="start" x="120.0219" y="-315.3" font-family="Helvetica,sans-Serif" font-size="11.00" fill="#000000">[table]</text>
<polygon fill="none" stroke="#000000" points="18.5,-288.2 18.5,-307.2 154.5,-307.2 154.5,-288.2 18.5,-288.2"/>
<text text-anchor="start" x="21.5" y="-294.3" font-family="Helvetica,sans-Serif" font-size="11.00" fill="#000000">...</text>
<polygon fill="#ffffff" stroke="transparent" points="18.5,-269.2 18.5,-288.2 154.5,-288.2 154.5,-269.2 18.5,-269.2"/>
<polygon fill="none" stroke="#000000" points="18.5,-269.2 18.5,-288.2 154.5,-288.2 154.5,-269.2 18.5,-269.2"/>
<polygon fill="#ffffff" stroke="transparent" points="19.5,-270.2 19.5,-287.2 61.5,-287.2 61.5,-270.2 19.5,-270.2"/>
<text text-anchor="start" x="21.5" y="-275.3" font-family="Helvetica,sans-Serif" font-size="11.00" fill="#000000"> &#160;</text>
<polygon fill="#ffffff" stroke="transparent" points="61.5,-270.2 61.5,-287.2 103.5,-287.2 103.5,-270.2 61.5,-270.2"/>
<text text-anchor="start" x="79.4431" y="-275.3" font-family="Helvetica,sans-Serif" font-size="11.00" fill="#000000"> &#160;</text>
<polygon fill="#ffffff" stroke="transparent" points="103.5,-270.2 103.5,-287.2 153.5,-287.2 153.5,-270.2 103.5,-270.2"/>
<text text-anchor="start" x="135.9053" y="-275.3" font-family="Helvetica,sans-Serif" font-size="11.00" fill="#000000">1 &gt;</text>
<polygon fill="#000000" stroke="#000000" points="61.5,-270.2 61.5,-287.2 61.5,-287.2 61.5,-270.2 61.5,-270.2"/>
<polygon fill="#000000" stroke="#000000" points="103.5,-270.2 103.5,-287.2 103.5,-287.2 103.5,-270.2 103.5,-270.2"/>
</a>
</g>
</g>
<!-- Visits&#45;&gt;ServiceTypes -->
<g id="edge5" class="edge">
<title>Visits:w&#45;&gt;ServiceTypes:e</title>
<path fill="none" stroke="#000000" d="M199.5408,-297.2C183.884,-297.2 175.3663,-297.2 154.5,-297.2"/>
<polygon fill="#000000" stroke="#000000" points="206,-297.2001 214,-300.8 210,-297.2 214,-297.2 214,-297.2 214,-297.2 210,-297.2 214,-293.6 206,-297.2001 206,-297.2001"/>
<ellipse fill="none" stroke="#000000" cx="202.8" cy="-297.2001" rx="3.2" ry="3.2"/>
</g>
<!-- VisitEvents -->
<g id="node3" class="node">
<title>VisitEvents</title>
<g id="a_node3"><a xlink:href="../../tables/VisitEvents.html" xlink:title="VisitEvents" target="_top">
<polygon fill="#ffffff" stroke="transparent" points="429,-38.2 429,-282.2 694,-282.2 694,-38.2 429,-38.2"/>
<polygon fill="#f5f5f5" stroke="transparent" points="431.5,-257.2 431.5,-280.2 692.5,-280.2 692.5,-257.2 431.5,-257.2"/>
<polygon fill="none" stroke="#000000" points="431.5,-257.2 431.5,-280.2 692.5,-280.2 692.5,-257.2 431.5,-257.2"/>
<text text-anchor="start" x="436.5" y="-265.8" font-family="Helvetica,sans-Serif" font-weight="bold" font-size="11.00" fill="#000000">VisitEvents</text>
<text text-anchor="start" x="657.5437" y="-265.3" font-family="Helvetica,sans-Serif" font-size="11.00" fill="#000000">[table]</text>
<polygon fill="none" stroke="#000000" points="431.5,-235.2 431.5,-257.2 576.5,-257.2 576.5,-235.2 431.5,-235.2"/>
<image xlink:href="../../images/primaryKeys.png" width="11px" height="12px" preserveAspectRatio="xMinYMin meet" x="436.5" y="-252.2"/>
<text text-anchor="start" x="451.5" y="-242.3" font-family="Helvetica,sans-Serif" font-size="11.00" fill="#000000">Id</text>
<polygon fill="none" stroke="#000000" points="576.5,-235.2 576.5,-257.2 692.5,-257.2 692.5,-235.2 576.5,-235.2"/>
<text text-anchor="start" x="579.5" y="-242.9" font-family="Helvetica,sans-Serif" font-size="11.00" fill="#000000">int identity[4]</text>
<polygon fill="#ffffff" stroke="transparent" points="431.5,-213.2 431.5,-235.2 576.5,-235.2 576.5,-213.2 431.5,-213.2"/>
<polygon fill="none" stroke="#000000" points="431.5,-213.2 431.5,-235.2 576.5,-235.2 576.5,-213.2 431.5,-213.2"/>
<image xlink:href="../../images/foreignKeys.png" width="11px" height="12px" preserveAspectRatio="xMinYMin meet" x="436.5" y="-230.2"/>
<text text-anchor="start" x="451.5" y="-220.3" font-family="Helvetica,sans-Serif" font-size="11.00" fill="#000000">VisitId</text>
<polygon fill="none" stroke="#000000" points="576.5,-213.2 576.5,-235.2 692.5,-235.2 692.5,-213.2 576.5,-213.2"/>
<text text-anchor="start" x="579.5" y="-220.9" font-family="Helvetica,sans-Serif" font-size="11.00" fill="#000000">int[4]</text>
<polygon fill="#ffffff" stroke="transparent" points="431.5,-191.2 431.5,-213.2 576.5,-213.2 576.5,-191.2 431.5,-191.2"/>
<polygon fill="none" stroke="#000000" points="431.5,-191.2 431.5,-213.2 576.5,-213.2 576.5,-191.2 431.5,-191.2"/>
<image xlink:href="../../images/foreignKeys.png" width="11px" height="12px" preserveAspectRatio="xMinYMin meet" x="436.5" y="-208.2"/>
<text text-anchor="start" x="451.5" y="-198.3" font-family="Helvetica,sans-Serif" font-size="11.00" fill="#000000">EventTypeId</text>
<polygon fill="none" stroke="#000000" points="576.5,-191.2 576.5,-213.2 692.5,-213.2 692.5,-191.2 576.5,-191.2"/>
<text text-anchor="start" x="579.5" y="-198.9" font-family="Helvetica,sans-Serif" font-size="11.00" fill="#000000">int[4]</text>
<polygon fill="#ffffff" stroke="transparent" points="431.5,-169.2 431.5,-191.2 576.5,-191.2 576.5,-169.2 431.5,-169.2"/>
<polygon fill="none" stroke="#000000" points="431.5,-169.2 431.5,-191.2 576.5,-191.2 576.5,-169.2 431.5,-169.2"/>
<text text-anchor="start" x="451.5" y="-176.3" font-family="Helvetica,sans-Serif" font-size="11.00" fill="#000000">EventOccurredAt</text>
<polygon fill="none" stroke="#000000" points="576.5,-169.2 576.5,-191.2 692.5,-191.2 692.5,-169.2 576.5,-169.2"/>
<text text-anchor="start" x="579.5" y="-176.9" font-family="Helvetica,sans-Serif" font-size="11.00" fill="#000000">datetime2[16,7]</text>
<polygon fill="none" stroke="#000000" points="431.5,-147.2 431.5,-169.2 576.5,-169.2 576.5,-147.2 431.5,-147.2"/>
<text text-anchor="start" x="451.5" y="-154.3" font-family="Helvetica,sans-Serif" font-size="11.00" fill="#000000">Description</text>
<polygon fill="none" stroke="#000000" points="576.5,-147.2 576.5,-169.2 692.5,-169.2 692.5,-147.2 576.5,-147.2"/>
<text text-anchor="start" x="579.4769" y="-154.9" font-family="Helvetica,sans-Serif" font-size="11.00" fill="#000000">nvarchar[2147483647]</text>
<polygon fill="#ffffff" stroke="transparent" points="431.5,-125.2 431.5,-147.2 576.5,-147.2 576.5,-125.2 431.5,-125.2"/>
<polygon fill="none" stroke="#000000" points="431.5,-125.2 431.5,-147.2 576.5,-147.2 576.5,-125.2 431.5,-125.2"/>
<text text-anchor="start" x="451.5" y="-132.3" font-family="Helvetica,sans-Serif" font-size="11.00" fill="#000000">EnteredByUserId</text>
<polygon fill="none" stroke="#000000" points="576.5,-125.2 576.5,-147.2 692.5,-147.2 692.5,-125.2 576.5,-125.2"/>
<text text-anchor="start" x="579.5" y="-132.9" font-family="Helvetica,sans-Serif" font-size="11.00" fill="#000000">int[4]</text>
<polygon fill="none" stroke="#000000" points="431.5,-103.2 431.5,-125.2 576.5,-125.2 576.5,-103.2 431.5,-103.2"/>
<text text-anchor="start" x="451.5" y="-110.3" font-family="Helvetica,sans-Serif" font-size="11.00" fill="#000000">CreatedAtUtc</text>
<polygon fill="none" stroke="#000000" points="576.5,-103.2 576.5,-125.2 692.5,-125.2 692.5,-103.2 576.5,-103.2"/>
<text text-anchor="start" x="579.5" y="-110.9" font-family="Helvetica,sans-Serif" font-size="11.00" fill="#000000">datetime2[16,7]</text>
<polygon fill="none" stroke="#000000" points="431.5,-81.2 431.5,-103.2 576.5,-103.2 576.5,-81.2 431.5,-81.2"/>
<text text-anchor="start" x="451.5" y="-88.3" font-family="Helvetica,sans-Serif" font-size="11.00" fill="#000000">UpdatedAtUtc</text>
<polygon fill="none" stroke="#000000" points="576.5,-81.2 576.5,-103.2 692.5,-103.2 692.5,-81.2 576.5,-81.2"/>
<text text-anchor="start" x="579.5" y="-88.9" font-family="Helvetica,sans-Serif" font-size="11.00" fill="#000000">datetime2[16,7]</text>
<polygon fill="none" stroke="#000000" points="431.5,-59.2 431.5,-81.2 576.5,-81.2 576.5,-59.2 431.5,-59.2"/>
<text text-anchor="start" x="451.5" y="-66.3" font-family="Helvetica,sans-Serif" font-size="11.00" fill="#000000">RowVersion</text>
<polygon fill="none" stroke="#000000" points="576.5,-59.2 576.5,-81.2 692.5,-81.2 692.5,-59.2 576.5,-59.2"/>
<text text-anchor="start" x="579.5" y="-66.9" font-family="Helvetica,sans-Serif" font-size="11.00" fill="#000000">timestamp[8]</text>
<polygon fill="#ffffff" stroke="transparent" points="431.5,-40.2 431.5,-59.2 692.5,-59.2 692.5,-40.2 431.5,-40.2"/>
<polygon fill="none" stroke="#000000" points="431.5,-40.2 431.5,-59.2 692.5,-59.2 692.5,-40.2 431.5,-40.2"/>
<polygon fill="#ffffff" stroke="transparent" points="432.5,-41.2 432.5,-58.2 522.5,-58.2 522.5,-41.2 432.5,-41.2"/>
<text text-anchor="start" x="434.5" y="-46.3" font-family="Helvetica,sans-Serif" font-size="11.00" fill="#000000">&lt; 2</text>
<polygon fill="#ffffff" stroke="transparent" points="522.5,-41.2 522.5,-58.2 602.5,-58.2 602.5,-41.2 522.5,-41.2"/>
<text text-anchor="start" x="559.4431" y="-46.3" font-family="Helvetica,sans-Serif" font-size="11.00" fill="#000000"> &#160;</text>
<polygon fill="#ffffff" stroke="transparent" points="602.5,-41.2 602.5,-58.2 691.5,-58.2 691.5,-41.2 602.5,-41.2"/>
<text text-anchor="start" x="673.9053" y="-46.3" font-family="Helvetica,sans-Serif" font-size="11.00" fill="#000000">0 &gt;</text>
<polygon fill="#000000" stroke="#000000" points="522.5,-41.2 522.5,-58.2 522.5,-58.2 522.5,-41.2 522.5,-41.2"/>
<polygon fill="#000000" stroke="#000000" points="602.5,-41.2 602.5,-58.2 602.5,-58.2 602.5,-41.2 602.5,-41.2"/>
<polygon fill="none" stroke="#000000" stroke-width="2" points="430,-39.2 430,-281.2 693,-281.2 693,-39.2 430,-39.2"/>
</a>
</g>
</g>
<!-- VisitEvents&#45;&gt;Visits -->
<g id="edge3" class="edge">
<title>VisitEvents:w&#45;&gt;Visits:e</title>
<path fill="none" stroke="#000000" d="M417.0699,-227.3644C378.861,-248.0546 439.9626,-363.2 380,-363.2"/>
<polygon fill="#000000" stroke="#000000" points="423.6857,-225.9136 432.2711,-227.7164 427.5928,-225.0568 431.5,-224.2 431.5,-224.2 431.5,-224.2 427.5928,-225.0568 430.7289,-220.6836 423.6857,-225.9136 423.6857,-225.9136"/>
<ellipse fill="none" stroke="#000000" cx="420.56" cy="-226.5991" rx="3.2" ry="3.2"/>
</g>
<!-- VisitEventTypes -->
<g id="node4" class="node">
<title>VisitEventTypes</title>
<g id="a_node4"><a xlink:href="../../tables/VisitEventTypes.html" xlink:title="VisitEventTypes" target="_top">
<polygon fill="#ffffff" stroke="transparent" points="219,-122.7 219,-227.7 375,-227.7 375,-122.7 219,-122.7"/>
<polygon fill="#f5f5f5" stroke="transparent" points="219,-204.2 219,-227.2 375,-227.2 375,-204.2 219,-204.2"/>
<polygon fill="none" stroke="#000000" points="219,-204.2 219,-227.2 375,-227.2 375,-204.2 219,-204.2"/>
<text text-anchor="start" x="224" y="-212.8" font-family="Helvetica,sans-Serif" font-weight="bold" font-size="11.00" fill="#000000">VisitEventTypes</text>
<text text-anchor="start" x="340.5219" y="-212.3" font-family="Helvetica,sans-Serif" font-size="11.00" fill="#000000">[table]</text>
<polygon fill="none" stroke="#000000" points="219,-182.2 219,-204.2 375,-204.2 375,-182.2 219,-182.2"/>
<image xlink:href="../../images/primaryKeys.png" width="11px" height="12px" preserveAspectRatio="xMinYMin meet" x="224" y="-199.2"/>
<text text-anchor="start" x="248" y="-189.3" font-family="Helvetica,sans-Serif" font-size="11.00" fill="#000000">Id</text>
<polygon fill="#ffffff" stroke="transparent" points="219,-160.2 219,-182.2 375,-182.2 375,-160.2 219,-160.2"/>
<polygon fill="none" stroke="#000000" points="219,-160.2 219,-182.2 375,-182.2 375,-160.2 219,-160.2"/>
<text text-anchor="start" x="248" y="-167.3" font-family="Helvetica,sans-Serif" font-size="11.00" fill="#000000">Code</text>
<polygon fill="none" stroke="#000000" points="219,-141.2 219,-160.2 375,-160.2 375,-141.2 219,-141.2"/>
<text text-anchor="start" x="222" y="-147.3" font-family="Helvetica,sans-Serif" font-size="11.00" fill="#000000">...</text>
<polygon fill="#ffffff" stroke="transparent" points="219,-122.2 219,-141.2 375,-141.2 375,-122.2 219,-122.2"/>
<polygon fill="none" stroke="#000000" points="219,-122.2 219,-141.2 375,-141.2 375,-122.2 219,-122.2"/>
<polygon fill="#ffffff" stroke="transparent" points="220,-123.2 220,-140.2 269,-140.2 269,-123.2 220,-123.2"/>
<text text-anchor="start" x="222" y="-128.3" font-family="Helvetica,sans-Serif" font-size="11.00" fill="#000000"> &#160;</text>
<polygon fill="#ffffff" stroke="transparent" points="269,-123.2 269,-140.2 317,-140.2 317,-123.2 269,-123.2"/>
<text text-anchor="start" x="289.9431" y="-128.3" font-family="Helvetica,sans-Serif" font-size="11.00" fill="#000000"> &#160;</text>
<polygon fill="#ffffff" stroke="transparent" points="317,-123.2 317,-140.2 374,-140.2 374,-123.2 317,-123.2"/>
<text text-anchor="start" x="356.4053" y="-128.3" font-family="Helvetica,sans-Serif" font-size="11.00" fill="#000000">1 &gt;</text>
<polygon fill="#000000" stroke="#000000" points="269,-123.2 269,-140.2 269,-140.2 269,-123.2 269,-123.2"/>
<polygon fill="#000000" stroke="#000000" points="317,-123.2 317,-140.2 317,-140.2 317,-123.2 317,-123.2"/>
</a>
</g>
</g>
<!-- VisitEvents&#45;&gt;VisitEventTypes -->
<g id="edge2" class="edge">
<title>VisitEvents:w&#45;&gt;VisitEventTypes:e</title>
<path fill="none" stroke="#000000" d="M416.8034,-201.0234C402.4991,-198.5839 394.6667,-193.2 375,-193.2"/>
<polygon fill="#000000" stroke="#000000" points="423.5255,-201.5615 431.2127,-205.7885 427.5128,-201.8808 431.5,-202.2 431.5,-202.2 431.5,-202.2 427.5128,-201.8808 431.7873,-198.6115 423.5255,-201.5615 423.5255,-201.5615"/>
<ellipse fill="none" stroke="#000000" cx="420.3357" cy="-201.3061" rx="3.2" ry="3.2"/>
</g>
<!-- staging.ProviderAssignments -->
<g id="node7" class="node">
<title>staging.ProviderAssignments</title>
<g id="a_node7"><a xlink:title="staging.ProviderAssignments">
<polygon fill="#ffffff" stroke="transparent" points="434,-394.7 434,-455.7 689,-455.7 689,-394.7 434,-394.7"/>
<polygon fill="#f5f5f5" stroke="transparent" points="434.5,-432.2 434.5,-455.2 689.5,-455.2 689.5,-432.2 434.5,-432.2"/>
<polygon fill="none" stroke="#000000" points="434.5,-432.2 434.5,-455.2 689.5,-455.2 689.5,-432.2 434.5,-432.2"/>
<text text-anchor="start" x="439.5" y="-440.8" font-family="Helvetica,sans-Serif" font-weight="bold" font-size="11.00" fill="#000000">staging.ProviderAssignments</text>
<text text-anchor="start" x="655.0219" y="-440.3" font-family="Helvetica,sans-Serif" font-size="11.00" fill="#000000">[table]</text>
<polygon fill="none" stroke="#000000" points="434.5,-413.2 434.5,-432.2 689.5,-432.2 689.5,-413.2 434.5,-413.2"/>
<text text-anchor="start" x="437.5" y="-419.3" font-family="Helvetica,sans-Serif" font-size="11.00" fill="#000000">...</text>
<polygon fill="#ffffff" stroke="transparent" points="434.5,-394.2 434.5,-413.2 689.5,-413.2 689.5,-394.2 434.5,-394.2"/>
<polygon fill="none" stroke="#000000" points="434.5,-394.2 434.5,-413.2 689.5,-413.2 689.5,-394.2 434.5,-394.2"/>
<polygon fill="#ffffff" stroke="transparent" points="435.5,-395.2 435.5,-412.2 526.5,-412.2 526.5,-395.2 435.5,-395.2"/>
<text text-anchor="start" x="437.5" y="-400.3" font-family="Helvetica,sans-Serif" font-size="11.00" fill="#000000">&lt; 6</text>
<polygon fill="#ffffff" stroke="transparent" points="526.5,-395.2 526.5,-412.2 607.5,-412.2 607.5,-395.2 526.5,-395.2"/>
<text text-anchor="start" x="563.9431" y="-400.3" font-family="Helvetica,sans-Serif" font-size="11.00" fill="#000000"> &#160;</text>
<polygon fill="#ffffff" stroke="transparent" points="607.5,-395.2 607.5,-412.2 688.5,-412.2 688.5,-395.2 607.5,-395.2"/>
<text text-anchor="start" x="680.3862" y="-400.3" font-family="Helvetica,sans-Serif" font-size="11.00" fill="#000000"> &#160;</text>
<polygon fill="#000000" stroke="#000000" points="526.5,-395.2 526.5,-412.2 526.5,-412.2 526.5,-395.2 526.5,-395.2"/>
<polygon fill="#000000" stroke="#000000" points="607.5,-395.2 607.5,-412.2 607.5,-412.2 607.5,-395.2 607.5,-395.2"/>
</a>
</g>
</g>
<!-- staging.ProviderAssignments&#45;&gt;Visits -->
<g id="edge7" class="edge">
<title>staging.ProviderAssignments:w&#45;&gt;Visits:e</title>
<path fill="none" stroke="#000000" d="M420.7124,-417.9569C402.9305,-404.4287 409.841,-363.2 380,-363.2"/>
<polygon fill="#000000" stroke="#000000" points="426.8539,-419.8469 433.4411,-425.6407 430.6769,-421.0234 434.5,-422.2 434.5,-422.2 434.5,-422.2 430.6769,-421.0234 435.5589,-418.7593 426.8539,-419.8469 426.8539,-419.8469"/>
<ellipse fill="none" stroke="#000000" cx="423.7954" cy="-418.9056" rx="3.2" ry="3.2"/>
</g>
<!-- staging.ProviderAssignments&#45;&gt;Hospitalizations -->
<g id="edge6" class="edge">
<title>staging.ProviderAssignments:w&#45;&gt;Hospitalizations:e</title>
<path fill="none" stroke="#000000" d="M419.8439,-422.1912C329.9937,-422.0705 301.8863,-420.5513 206,-408.2 187.8025,-405.856 183.8478,-400.2 165.5,-400.2"/>
<polygon fill="#000000" stroke="#000000" points="426.5,-422.1951 434.4978,-425.8 430.5,-422.1976 434.5,-422.2 434.5,-422.2 434.5,-422.2 430.5,-422.1976 434.5022,-418.6 426.5,-422.1951 426.5,-422.1951"/>
<ellipse fill="none" stroke="#000000" cx="423.3" cy="-422.1932" rx="3.2" ry="3.2"/>
</g>
</g>
</svg>
