<?xml version="1.0" encoding="UTF-8" standalone="no"?>
<!DOCTYPE svg PUBLIC "-//W3C//DTD SVG 1.1//EN"
 "http://www.w3.org/Graphics/SVG/1.1/DTD/svg11.dtd">
<!-- Generated by graphviz version 2.40.1 (20161225.0304)
 -->
<!-- Title: oneDegreeRelationshipsDiagram Pages: 1 -->
<svg width="441pt" height="271pt"
 viewBox="0.00 0.00 441.00 270.70" xmlns="http://www.w3.org/2000/svg" xmlns:xlink="http://www.w3.org/1999/xlink">
<g id="graph0" class="graph" transform="scale(1 1) rotate(0) translate(4 266.7)">
<title>oneDegreeRelationshipsDiagram</title>
<polygon fill="#ffffff" stroke="transparent" points="-4,4 -4,-266.7 437,-266.7 437,4 -4,4"/>
<text text-anchor="middle" x="72.4936" y="-7.3" font-family="Helvetica,sans-Serif" font-size="11.00" fill="#000000">Generated by SchemaSpy</text>
<!-- VisitEvents -->
<g id="node1" class="node">
<title>VisitEvents</title>
<g id="a_node1"><a xlink:href="../../tables/VisitEvents.html" xlink:title="VisitEvents" target="_top">
<polygon fill="#ffffff" stroke="transparent" points="280,-87.7 280,-258.7 425,-258.7 425,-87.7 280,-87.7"/>
<polygon fill="#f5f5f5" stroke="transparent" points="280.5,-235.2 280.5,-258.2 425.5,-258.2 425.5,-235.2 280.5,-235.2"/>
<polygon fill="none" stroke="#000000" points="280.5,-235.2 280.5,-258.2 425.5,-258.2 425.5,-235.2 280.5,-235.2"/>
<text text-anchor="start" x="285.5" y="-243.8" font-family="Helvetica,sans-Serif" font-weight="bold" font-size="11.00" fill="#000000">VisitEvents</text>
<text text-anchor="start" x="390.5437" y="-243.3" font-family="Helvetica,sans-Serif" font-size="11.00" fill="#000000">[table]</text>
<polygon fill="none" stroke="#000000" points="280.5,-213.2 280.5,-235.2 425.5,-235.2 425.5,-213.2 280.5,-213.2"/>
<image xlink:href="../../images/primaryKeys.png" width="11px" height="12px" preserveAspectRatio="xMinYMin meet" x="285.5" y="-230.2"/>
<text text-anchor="start" x="300.5" y="-220.3" font-family="Helvetica,sans-Serif" font-size="11.00" fill="#000000">Id</text>
<polygon fill="#ffffff" stroke="transparent" points="280.5,-191.2 280.5,-213.2 425.5,-213.2 425.5,-191.2 280.5,-191.2"/>
<polygon fill="none" stroke="#000000" points="280.5,-191.2 280.5,-213.2 425.5,-213.2 425.5,-191.2 280.5,-191.2"/>
<image xlink:href="../../images/foreignKeys.png" width="11px" height="12px" preserveAspectRatio="xMinYMin meet" x="285.5" y="-208.2"/>
<text text-anchor="start" x="300.5" y="-198.3" font-family="Helvetica,sans-Serif" font-size="11.00" fill="#000000">VisitId</text>
<polygon fill="#ffffff" stroke="transparent" points="280.5,-169.2 280.5,-191.2 425.5,-191.2 425.5,-169.2 280.5,-169.2"/>
<polygon fill="none" stroke="#000000" points="280.5,-169.2 280.5,-191.2 425.5,-191.2 425.5,-169.2 280.5,-169.2"/>
<image xlink:href="../../images/foreignKeys.png" width="11px" height="12px" preserveAspectRatio="xMinYMin meet" x="285.5" y="-186.2"/>
<text text-anchor="start" x="300.5" y="-176.3" font-family="Helvetica,sans-Serif" font-size="11.00" fill="#000000">EventTypeId</text>
<polygon fill="#ffffff" stroke="transparent" points="280.5,-147.2 280.5,-169.2 425.5,-169.2 425.5,-147.2 280.5,-147.2"/>
<polygon fill="none" stroke="#000000" points="280.5,-147.2 280.5,-169.2 425.5,-169.2 425.5,-147.2 280.5,-147.2"/>
<text text-anchor="start" x="300.5" y="-154.3" font-family="Helvetica,sans-Serif" font-size="11.00" fill="#000000">EventOccurredAt</text>
<polygon fill="#ffffff" stroke="transparent" points="280.5,-125.2 280.5,-147.2 425.5,-147.2 425.5,-125.2 280.5,-125.2"/>
<polygon fill="none" stroke="#000000" points="280.5,-125.2 280.5,-147.2 425.5,-147.2 425.5,-125.2 280.5,-125.2"/>
<text text-anchor="start" x="300.5" y="-132.3" font-family="Helvetica,sans-Serif" font-size="11.00" fill="#000000">EnteredByUserId</text>
<polygon fill="none" stroke="#000000" points="280.5,-106.2 280.5,-125.2 425.5,-125.2 425.5,-106.2 280.5,-106.2"/>
<text text-anchor="start" x="283.5" y="-112.3" font-family="Helvetica,sans-Serif" font-size="11.00" fill="#000000">...</text>
<polygon fill="#ffffff" stroke="transparent" points="280.5,-87.2 280.5,-106.2 425.5,-106.2 425.5,-87.2 280.5,-87.2"/>
<polygon fill="none" stroke="#000000" points="280.5,-87.2 280.5,-106.2 425.5,-106.2 425.5,-87.2 280.5,-87.2"/>
<polygon fill="#ffffff" stroke="transparent" points="281.5,-88.2 281.5,-105.2 335.5,-105.2 335.5,-88.2 281.5,-88.2"/>
<text text-anchor="start" x="283.5" y="-93.3" font-family="Helvetica,sans-Serif" font-size="11.00" fill="#000000">&lt; 2</text>
<polygon fill="#ffffff" stroke="transparent" points="335.5,-88.2 335.5,-105.2 380.5,-105.2 380.5,-88.2 335.5,-88.2"/>
<text text-anchor="start" x="354.9431" y="-93.3" font-family="Helvetica,sans-Serif" font-size="11.00" fill="#000000"> &#160;</text>
<polygon fill="#ffffff" stroke="transparent" points="380.5,-88.2 380.5,-105.2 424.5,-105.2 424.5,-88.2 380.5,-88.2"/>
<text text-anchor="start" x="416.3862" y="-93.3" font-family="Helvetica,sans-Serif" font-size="11.00" fill="#000000"> &#160;</text>
<polygon fill="#000000" stroke="#000000" points="335.5,-88.2 335.5,-105.2 335.5,-105.2 335.5,-88.2 335.5,-88.2"/>
<polygon fill="#000000" stroke="#000000" points="380.5,-88.2 380.5,-105.2 380.5,-105.2 380.5,-88.2 380.5,-88.2"/>
</a>
</g>
</g>
<!-- VisitEventTypes -->
<g id="node2" class="node">
<title>VisitEventTypes</title>
<g id="a_node2"><a xlink:href="../../tables/VisitEventTypes.html" xlink:title="VisitEventTypes" target="_top">
<polygon fill="#ffffff" stroke="transparent" points="8,-38.2 8,-216.2 231,-216.2 231,-38.2 8,-38.2"/>
<polygon fill="#f5f5f5" stroke="transparent" points="10.5,-191.2 10.5,-214.2 229.5,-214.2 229.5,-191.2 10.5,-191.2"/>
<polygon fill="none" stroke="#000000" points="10.5,-191.2 10.5,-214.2 229.5,-214.2 229.5,-191.2 10.5,-191.2"/>
<text text-anchor="start" x="15.5" y="-199.8" font-family="Helvetica,sans-Serif" font-weight="bold" font-size="11.00" fill="#000000">VisitEventTypes</text>
<text text-anchor="start" x="194.5437" y="-199.3" font-family="Helvetica,sans-Serif" font-size="11.00" fill="#000000">[table]</text>
<polygon fill="none" stroke="#000000" points="10.5,-169.2 10.5,-191.2 148.5,-191.2 148.5,-169.2 10.5,-169.2"/>
<image xlink:href="../../images/primaryKeys.png" width="11px" height="12px" preserveAspectRatio="xMinYMin meet" x="15.5" y="-186.2"/>
<text text-anchor="start" x="30.5" y="-176.3" font-family="Helvetica,sans-Serif" font-size="11.00" fill="#000000">Id</text>
<polygon fill="none" stroke="#000000" points="148.5,-169.2 148.5,-191.2 229.5,-191.2 229.5,-169.2 148.5,-169.2"/>
<text text-anchor="start" x="151.5" y="-176.9" font-family="Helvetica,sans-Serif" font-size="11.00" fill="#000000">int identity[4]</text>
<polygon fill="#ffffff" stroke="transparent" points="10.5,-147.2 10.5,-169.2 148.5,-169.2 148.5,-147.2 10.5,-147.2"/>
<polygon fill="none" stroke="#000000" points="10.5,-147.2 10.5,-169.2 148.5,-169.2 148.5,-147.2 10.5,-147.2"/>
<text text-anchor="start" x="30.5" y="-154.3" font-family="Helvetica,sans-Serif" font-size="11.00" fill="#000000">Code</text>
<polygon fill="none" stroke="#000000" points="148.5,-147.2 148.5,-169.2 229.5,-169.2 229.5,-147.2 148.5,-147.2"/>
<text text-anchor="start" x="151.5" y="-154.9" font-family="Helvetica,sans-Serif" font-size="11.00" fill="#000000">nvarchar[100]</text>
<polygon fill="none" stroke="#000000" points="10.5,-125.2 10.5,-147.2 148.5,-147.2 148.5,-125.2 10.5,-125.2"/>
<text text-anchor="start" x="30.5" y="-132.3" font-family="Helvetica,sans-Serif" font-size="11.00" fill="#000000">Name</text>
<polygon fill="none" stroke="#000000" points="148.5,-125.2 148.5,-147.2 229.5,-147.2 229.5,-125.2 148.5,-125.2"/>
<text text-anchor="start" x="151.5" y="-132.9" font-family="Helvetica,sans-Serif" font-size="11.00" fill="#000000">nvarchar[200]</text>
<polygon fill="none" stroke="#000000" points="10.5,-103.2 10.5,-125.2 148.5,-125.2 148.5,-103.2 10.5,-103.2"/>
<text text-anchor="start" x="30.5" y="-110.3" font-family="Helvetica,sans-Serif" font-size="11.00" fill="#000000">CreatedAtUtc</text>
<polygon fill="none" stroke="#000000" points="148.5,-103.2 148.5,-125.2 229.5,-125.2 229.5,-103.2 148.5,-103.2"/>
<text text-anchor="start" x="151.0967" y="-110.9" font-family="Helvetica,sans-Serif" font-size="11.00" fill="#000000">datetime2[16,7]</text>
<polygon fill="none" stroke="#000000" points="10.5,-81.2 10.5,-103.2 148.5,-103.2 148.5,-81.2 10.5,-81.2"/>
<text text-anchor="start" x="30.5" y="-88.3" font-family="Helvetica,sans-Serif" font-size="11.00" fill="#000000">UpdatedAtUtc</text>
<polygon fill="none" stroke="#000000" points="148.5,-81.2 148.5,-103.2 229.5,-103.2 229.5,-81.2 148.5,-81.2"/>
<text text-anchor="start" x="151.0967" y="-88.9" font-family="Helvetica,sans-Serif" font-size="11.00" fill="#000000">datetime2[16,7]</text>
<polygon fill="none" stroke="#000000" points="10.5,-59.2 10.5,-81.2 148.5,-81.2 148.5,-59.2 10.5,-59.2"/>
<text text-anchor="start" x="30.5" y="-66.3" font-family="Helvetica,sans-Serif" font-size="11.00" fill="#000000">RowVersion</text>
<polygon fill="none" stroke="#000000" points="148.5,-59.2 148.5,-81.2 229.5,-81.2 229.5,-59.2 148.5,-59.2"/>
<text text-anchor="start" x="151.5" y="-66.9" font-family="Helvetica,sans-Serif" font-size="11.00" fill="#000000">timestamp[8]</text>
<polygon fill="#ffffff" stroke="transparent" points="10.5,-40.2 10.5,-59.2 229.5,-59.2 229.5,-40.2 10.5,-40.2"/>
<polygon fill="none" stroke="#000000" points="10.5,-40.2 10.5,-59.2 229.5,-59.2 229.5,-40.2 10.5,-40.2"/>
<polygon fill="#ffffff" stroke="transparent" points="11.5,-41.2 11.5,-58.2 87.5,-58.2 87.5,-41.2 11.5,-41.2"/>
<text text-anchor="start" x="13.5" y="-46.3" font-family="Helvetica,sans-Serif" font-size="11.00" fill="#000000">&lt; 0</text>
<polygon fill="#ffffff" stroke="transparent" points="87.5,-41.2 87.5,-58.2 153.5,-58.2 153.5,-41.2 87.5,-41.2"/>
<text text-anchor="start" x="117.4431" y="-46.3" font-family="Helvetica,sans-Serif" font-size="11.00" fill="#000000"> &#160;</text>
<polygon fill="#ffffff" stroke="transparent" points="153.5,-41.2 153.5,-58.2 228.5,-58.2 228.5,-41.2 153.5,-41.2"/>
<text text-anchor="start" x="210.9053" y="-46.3" font-family="Helvetica,sans-Serif" font-size="11.00" fill="#000000">1 &gt;</text>
<polygon fill="#000000" stroke="#000000" points="87.5,-41.2 87.5,-58.2 87.5,-58.2 87.5,-41.2 87.5,-41.2"/>
<polygon fill="#000000" stroke="#000000" points="153.5,-41.2 153.5,-58.2 153.5,-58.2 153.5,-41.2 153.5,-41.2"/>
<polygon fill="none" stroke="#000000" stroke-width="2" points="9,-39.2 9,-215.2 230,-215.2 230,-39.2 9,-39.2"/>
</a>
</g>
</g>
<!-- VisitEvents&#45;&gt;VisitEventTypes -->
<g id="edge1" class="edge">
<title>VisitEvents:w&#45;&gt;VisitEventTypes:e</title>
<path fill="none" stroke="#000000" d="M265.776,-180.2C253.7815,-180.2 246.3229,-180.2 229.5,-180.2"/>
<polygon fill="#000000" stroke="#000000" points="272.5,-180.2001 280.5,-183.8 276.5,-180.2 280.5,-180.2 280.5,-180.2 280.5,-180.2 276.5,-180.2 280.5,-176.6 272.5,-180.2001 272.5,-180.2001"/>
<ellipse fill="none" stroke="#000000" cx="269.3" cy="-180.2001" rx="3.2" ry="3.2"/>
</g>
</g>
</svg>
