<?xml version="1.0" encoding="UTF-8" standalone="no"?>
<!DOCTYPE svg PUBLIC "-//W3C//DTD SVG 1.1//EN"
 "http://www.w3.org/Graphics/SVG/1.1/DTD/svg11.dtd">
<!-- Generated by graphviz version 2.40.1 (20161225.0304)
 -->
<!-- Title: compactRelationshipsDiagram Pages: 1 -->
<svg width="558pt" height="911pt"
 viewBox="0.00 0.00 558.00 911.20" xmlns="http://www.w3.org/2000/svg" xmlns:xlink="http://www.w3.org/1999/xlink">
<g id="graph0" class="graph" transform="scale(1 1) rotate(0) translate(4 907.2)">
<title>compactRelationshipsDiagram</title>
<polygon fill="#ffffff" stroke="transparent" points="-4,4 -4,-907.2 554,-907.2 554,4 -4,4"/>
<text text-anchor="middle" x="72.4936" y="-7.3" font-family="Helvetica,sans-Serif" font-size="11.00" fill="#000000">Generated by SchemaSpy</text>
<!-- RoleClaims -->
<g id="node1" class="node">
<title>RoleClaims</title>
<g id="a_node1"><a xlink:href="../../tables/RoleClaims.html" xlink:title="RoleClaims" target="_top">
<polygon fill="#ffffff" stroke="transparent" points="335,-794.2 335,-899.2 451,-899.2 451,-794.2 335,-794.2"/>
<polygon fill="#f5f5f5" stroke="transparent" points="335,-875.7 335,-898.7 451,-898.7 451,-875.7 335,-875.7"/>
<polygon fill="none" stroke="#000000" points="335,-875.7 335,-898.7 451,-898.7 451,-875.7 335,-875.7"/>
<text text-anchor="start" x="340" y="-884.3" font-family="Helvetica,sans-Serif" font-weight="bold" font-size="11.00" fill="#000000">RoleClaims</text>
<text text-anchor="start" x="416.0437" y="-883.8" font-family="Helvetica,sans-Serif" font-size="11.00" fill="#000000">[table]</text>
<polygon fill="none" stroke="#000000" points="335,-853.7 335,-875.7 451,-875.7 451,-853.7 335,-853.7"/>
<image xlink:href="../../images/primaryKeys.png" width="11px" height="12px" preserveAspectRatio="xMinYMin meet" x="340" y="-870.7"/>
<text text-anchor="start" x="355" y="-860.8" font-family="Helvetica,sans-Serif" font-size="11.00" fill="#000000">Id</text>
<polygon fill="#ffffff" stroke="transparent" points="335,-831.7 335,-853.7 451,-853.7 451,-831.7 335,-831.7"/>
<polygon fill="none" stroke="#000000" points="335,-831.7 335,-853.7 451,-853.7 451,-831.7 335,-831.7"/>
<image xlink:href="../../images/foreignKeys.png" width="11px" height="12px" preserveAspectRatio="xMinYMin meet" x="340" y="-848.7"/>
<text text-anchor="start" x="355" y="-838.8" font-family="Helvetica,sans-Serif" font-size="11.00" fill="#000000">RoleId</text>
<polygon fill="none" stroke="#000000" points="335,-812.7 335,-831.7 451,-831.7 451,-812.7 335,-812.7"/>
<text text-anchor="start" x="338" y="-818.8" font-family="Helvetica,sans-Serif" font-size="11.00" fill="#000000">...</text>
<polygon fill="#ffffff" stroke="transparent" points="335,-793.7 335,-812.7 391,-812.7 391,-793.7 335,-793.7"/>
<polygon fill="none" stroke="#000000" points="335,-793.7 335,-812.7 391,-812.7 391,-793.7 335,-793.7"/>
<text text-anchor="start" x="338" y="-799.8" font-family="Helvetica,sans-Serif" font-size="11.00" fill="#000000">&lt; 1</text>
<polygon fill="#ffffff" stroke="transparent" points="391,-793.7 391,-812.7 421,-812.7 421,-793.7 391,-793.7"/>
<polygon fill="none" stroke="#000000" points="391,-793.7 391,-812.7 421,-812.7 421,-793.7 391,-793.7"/>
<text text-anchor="start" x="411.8862" y="-799.8" font-family="Helvetica,sans-Serif" font-size="11.00" fill="#000000"> &#160;</text>
<polygon fill="#ffffff" stroke="transparent" points="421,-793.7 421,-812.7 451,-812.7 451,-793.7 421,-793.7"/>
<polygon fill="none" stroke="#000000" points="421,-793.7 421,-812.7 451,-812.7 451,-793.7 421,-793.7"/>
<text text-anchor="start" x="441.8862" y="-799.8" font-family="Helvetica,sans-Serif" font-size="11.00" fill="#000000"> &#160;</text>
</a>
</g>
</g>
<!-- Roles -->
<g id="node3" class="node">
<title>Roles</title>
<g id="a_node3"><a xlink:href="../../tables/Roles.html" xlink:title="Roles" target="_top">
<polygon fill="#ffffff" stroke="transparent" points="27,-709.2 27,-814.2 176,-814.2 176,-709.2 27,-709.2"/>
<polygon fill="#f5f5f5" stroke="transparent" points="27.5,-790.7 27.5,-813.7 176.5,-813.7 176.5,-790.7 27.5,-790.7"/>
<polygon fill="none" stroke="#000000" points="27.5,-790.7 27.5,-813.7 176.5,-813.7 176.5,-790.7 27.5,-790.7"/>
<text text-anchor="start" x="32.5" y="-799.3" font-family="Helvetica,sans-Serif" font-weight="bold" font-size="11.00" fill="#000000">Roles</text>
<text text-anchor="start" x="141.5437" y="-798.8" font-family="Helvetica,sans-Serif" font-size="11.00" fill="#000000">[table]</text>
<polygon fill="none" stroke="#000000" points="27.5,-768.7 27.5,-790.7 176.5,-790.7 176.5,-768.7 27.5,-768.7"/>
<image xlink:href="../../images/primaryKeys.png" width="11px" height="12px" preserveAspectRatio="xMinYMin meet" x="32.5" y="-785.7"/>
<text text-anchor="start" x="47.5" y="-775.8" font-family="Helvetica,sans-Serif" font-size="11.00" fill="#000000">Id</text>
<polygon fill="#ffffff" stroke="transparent" points="27.5,-746.7 27.5,-768.7 176.5,-768.7 176.5,-746.7 27.5,-746.7"/>
<polygon fill="none" stroke="#000000" points="27.5,-746.7 27.5,-768.7 176.5,-768.7 176.5,-746.7 27.5,-746.7"/>
<text text-anchor="start" x="47.5" y="-753.8" font-family="Helvetica,sans-Serif" font-size="11.00" fill="#000000">NormalizedName</text>
<polygon fill="none" stroke="#000000" points="27.5,-727.7 27.5,-746.7 176.5,-746.7 176.5,-727.7 27.5,-727.7"/>
<text text-anchor="start" x="30.5" y="-733.8" font-family="Helvetica,sans-Serif" font-size="11.00" fill="#000000">...</text>
<polygon fill="#ffffff" stroke="transparent" points="27.5,-708.7 27.5,-727.7 91.5,-727.7 91.5,-708.7 27.5,-708.7"/>
<polygon fill="none" stroke="#000000" points="27.5,-708.7 27.5,-727.7 91.5,-727.7 91.5,-708.7 27.5,-708.7"/>
<text text-anchor="start" x="30.5" y="-714.8" font-family="Helvetica,sans-Serif" font-size="11.00" fill="#000000"> &#160;</text>
<polygon fill="#ffffff" stroke="transparent" points="91.5,-708.7 91.5,-727.7 129.5,-727.7 129.5,-708.7 91.5,-708.7"/>
<polygon fill="none" stroke="#000000" points="91.5,-708.7 91.5,-727.7 129.5,-727.7 129.5,-708.7 91.5,-708.7"/>
<text text-anchor="start" x="120.3862" y="-714.8" font-family="Helvetica,sans-Serif" font-size="11.00" fill="#000000"> &#160;</text>
<polygon fill="#ffffff" stroke="transparent" points="129.5,-708.7 129.5,-727.7 176.5,-727.7 176.5,-708.7 129.5,-708.7"/>
<polygon fill="none" stroke="#000000" points="129.5,-708.7 129.5,-727.7 176.5,-727.7 176.5,-708.7 129.5,-708.7"/>
<text text-anchor="start" x="157.9053" y="-714.8" font-family="Helvetica,sans-Serif" font-size="11.00" fill="#000000">2 &gt;</text>
</a>
</g>
</g>
<!-- RoleClaims&#45;&gt;Roles -->
<g id="edge3" class="edge">
<title>RoleClaims:w&#45;&gt;Roles:e</title>
<path fill="none" stroke="#000000" d="M320.3761,-841.8571C257.9309,-834.3811 247.1232,-779.7 176.5,-779.7"/>
<polygon fill="#000000" stroke="#000000" points="327.0133,-842.2396 334.7928,-846.294 331.0066,-842.4698 335,-842.7 335,-842.7 335,-842.7 331.0066,-842.4698 335.2072,-839.106 327.0133,-842.2396 327.0133,-842.2396"/>
<ellipse fill="none" stroke="#000000" cx="323.8186" cy="-842.0554" rx="3.2" ry="3.2"/>
</g>
<!-- UserTokens -->
<g id="node2" class="node">
<title>UserTokens</title>
<g id="a_node2"><a xlink:href="../../tables/UserTokens.html" xlink:title="UserTokens" target="_top">
<polygon fill="#ffffff" stroke="transparent" points="334,-416.2 334,-543.2 452,-543.2 452,-416.2 334,-416.2"/>
<polygon fill="#f5f5f5" stroke="transparent" points="334,-519.7 334,-542.7 452,-542.7 452,-519.7 334,-519.7"/>
<polygon fill="none" stroke="#000000" points="334,-519.7 334,-542.7 452,-542.7 452,-519.7 334,-519.7"/>
<text text-anchor="start" x="339" y="-528.3" font-family="Helvetica,sans-Serif" font-weight="bold" font-size="11.00" fill="#000000">UserTokens</text>
<text text-anchor="start" x="417.5219" y="-527.8" font-family="Helvetica,sans-Serif" font-size="11.00" fill="#000000">[table]</text>
<polygon fill="none" stroke="#000000" points="334,-497.7 334,-519.7 452,-519.7 452,-497.7 334,-497.7"/>
<image xlink:href="../../images/primaryKeys.png" width="11px" height="12px" preserveAspectRatio="xMinYMin meet" x="339" y="-514.7"/>
<text text-anchor="start" x="355" y="-504.8" font-family="Helvetica,sans-Serif" font-size="11.00" fill="#000000">UserId</text>
<polygon fill="none" stroke="#000000" points="334,-475.7 334,-497.7 452,-497.7 452,-475.7 334,-475.7"/>
<image xlink:href="../../images/primaryKeys.png" width="11px" height="12px" preserveAspectRatio="xMinYMin meet" x="339" y="-492.7"/>
<text text-anchor="start" x="355" y="-482.8" font-family="Helvetica,sans-Serif" font-size="11.00" fill="#000000">LoginProvider</text>
<polygon fill="none" stroke="#000000" points="334,-453.7 334,-475.7 452,-475.7 452,-453.7 334,-453.7"/>
<image xlink:href="../../images/primaryKeys.png" width="11px" height="12px" preserveAspectRatio="xMinYMin meet" x="339" y="-470.7"/>
<text text-anchor="start" x="355" y="-460.8" font-family="Helvetica,sans-Serif" font-size="11.00" fill="#000000">Name</text>
<polygon fill="none" stroke="#000000" points="334,-434.7 334,-453.7 452,-453.7 452,-434.7 334,-434.7"/>
<text text-anchor="start" x="337" y="-440.8" font-family="Helvetica,sans-Serif" font-size="11.00" fill="#000000">...</text>
<polygon fill="#ffffff" stroke="transparent" points="334,-415.7 334,-434.7 391,-434.7 391,-415.7 334,-415.7"/>
<polygon fill="none" stroke="#000000" points="334,-415.7 334,-434.7 391,-434.7 391,-415.7 334,-415.7"/>
<text text-anchor="start" x="337" y="-421.8" font-family="Helvetica,sans-Serif" font-size="11.00" fill="#000000">&lt; 1</text>
<polygon fill="#ffffff" stroke="transparent" points="391,-415.7 391,-434.7 421,-434.7 421,-415.7 391,-415.7"/>
<polygon fill="none" stroke="#000000" points="391,-415.7 391,-434.7 421,-434.7 421,-415.7 391,-415.7"/>
<text text-anchor="start" x="411.8862" y="-421.8" font-family="Helvetica,sans-Serif" font-size="11.00" fill="#000000"> &#160;</text>
<polygon fill="#ffffff" stroke="transparent" points="421,-415.7 421,-434.7 452,-434.7 452,-415.7 421,-415.7"/>
<polygon fill="none" stroke="#000000" points="421,-415.7 421,-434.7 452,-434.7 452,-415.7 421,-415.7"/>
<text text-anchor="start" x="442.8862" y="-421.8" font-family="Helvetica,sans-Serif" font-size="11.00" fill="#000000"> &#160;</text>
</a>
</g>
</g>
<!-- Users -->
<g id="node7" class="node">
<title>Users</title>
<g id="a_node7"><a xlink:href="../../tables/Users.html" xlink:title="Users" target="_top">
<polygon fill="#ffffff" stroke="transparent" points="8,-331.2 8,-458.2 195,-458.2 195,-331.2 8,-331.2"/>
<polygon fill="#f5f5f5" stroke="transparent" points="8.5,-434.7 8.5,-457.7 195.5,-457.7 195.5,-434.7 8.5,-434.7"/>
<polygon fill="none" stroke="#000000" points="8.5,-434.7 8.5,-457.7 195.5,-457.7 195.5,-434.7 8.5,-434.7"/>
<text text-anchor="start" x="13.5" y="-443.3" font-family="Helvetica,sans-Serif" font-weight="bold" font-size="11.00" fill="#000000">Users</text>
<text text-anchor="start" x="160.5437" y="-442.8" font-family="Helvetica,sans-Serif" font-size="11.00" fill="#000000">[table]</text>
<polygon fill="none" stroke="#000000" points="8.5,-412.7 8.5,-434.7 195.5,-434.7 195.5,-412.7 8.5,-412.7"/>
<image xlink:href="../../images/primaryKeys.png" width="11px" height="12px" preserveAspectRatio="xMinYMin meet" x="13.5" y="-429.7"/>
<text text-anchor="start" x="28.5" y="-419.8" font-family="Helvetica,sans-Serif" font-size="11.00" fill="#000000">Id</text>
<polygon fill="#ffffff" stroke="transparent" points="8.5,-390.7 8.5,-412.7 195.5,-412.7 195.5,-390.7 8.5,-390.7"/>
<polygon fill="none" stroke="#000000" points="8.5,-390.7 8.5,-412.7 195.5,-412.7 195.5,-390.7 8.5,-390.7"/>
<text text-anchor="start" x="28.5" y="-397.8" font-family="Helvetica,sans-Serif" font-size="11.00" fill="#000000">NormalizedUserName</text>
<polygon fill="#ffffff" stroke="transparent" points="8.5,-368.7 8.5,-390.7 195.5,-390.7 195.5,-368.7 8.5,-368.7"/>
<polygon fill="none" stroke="#000000" points="8.5,-368.7 8.5,-390.7 195.5,-390.7 195.5,-368.7 8.5,-368.7"/>
<text text-anchor="start" x="28.5" y="-375.8" font-family="Helvetica,sans-Serif" font-size="11.00" fill="#000000">NormalizedEmail</text>
<polygon fill="none" stroke="#000000" points="8.5,-349.7 8.5,-368.7 195.5,-368.7 195.5,-349.7 8.5,-349.7"/>
<text text-anchor="start" x="11.5" y="-355.8" font-family="Helvetica,sans-Serif" font-size="11.00" fill="#000000">...</text>
<polygon fill="#ffffff" stroke="transparent" points="8.5,-330.7 8.5,-349.7 91.5,-349.7 91.5,-330.7 8.5,-330.7"/>
<polygon fill="none" stroke="#000000" points="8.5,-330.7 8.5,-349.7 91.5,-349.7 91.5,-330.7 8.5,-330.7"/>
<text text-anchor="start" x="11.5" y="-336.8" font-family="Helvetica,sans-Serif" font-size="11.00" fill="#000000"> &#160;</text>
<polygon fill="#ffffff" stroke="transparent" points="91.5,-330.7 91.5,-349.7 138.5,-349.7 138.5,-330.7 91.5,-330.7"/>
<polygon fill="none" stroke="#000000" points="91.5,-330.7 91.5,-349.7 138.5,-349.7 138.5,-330.7 91.5,-330.7"/>
<text text-anchor="start" x="129.3862" y="-336.8" font-family="Helvetica,sans-Serif" font-size="11.00" fill="#000000"> &#160;</text>
<polygon fill="#ffffff" stroke="transparent" points="138.5,-330.7 138.5,-349.7 195.5,-349.7 195.5,-330.7 138.5,-330.7"/>
<polygon fill="none" stroke="#000000" points="138.5,-330.7 138.5,-349.7 195.5,-349.7 195.5,-330.7 138.5,-330.7"/>
<text text-anchor="start" x="176.9053" y="-336.8" font-family="Helvetica,sans-Serif" font-size="11.00" fill="#000000">6 &gt;</text>
</a>
</g>
</g>
<!-- UserTokens&#45;&gt;Users -->
<g id="edge8" class="edge">
<title>UserTokens:w&#45;&gt;Users:e</title>
<path fill="none" stroke="#000000" d="M319.5078,-507.4325C262.2277,-496.8587 262.5043,-423.7 195.5,-423.7"/>
<polygon fill="#000000" stroke="#000000" points="326.0304,-508.0029 333.6863,-512.2863 330.0152,-508.3515 334,-508.7 334,-508.7 334,-508.7 330.0152,-508.3515 334.3137,-505.1137 326.0304,-508.0029 326.0304,-508.0029"/>
<ellipse fill="none" stroke="#000000" cx="322.8426" cy="-507.7241" rx="3.2" ry="3.2"/>
</g>
<!-- UserClaims -->
<g id="node4" class="node">
<title>UserClaims</title>
<g id="a_node4"><a xlink:href="../../tables/UserClaims.html" xlink:title="UserClaims" target="_top">
<polygon fill="#ffffff" stroke="transparent" points="335,-290.2 335,-395.2 451,-395.2 451,-290.2 335,-290.2"/>
<polygon fill="#f5f5f5" stroke="transparent" points="335,-371.7 335,-394.7 451,-394.7 451,-371.7 335,-371.7"/>
<polygon fill="none" stroke="#000000" points="335,-371.7 335,-394.7 451,-394.7 451,-371.7 335,-371.7"/>
<text text-anchor="start" x="340" y="-380.3" font-family="Helvetica,sans-Serif" font-weight="bold" font-size="11.00" fill="#000000">UserClaims</text>
<text text-anchor="start" x="416.0437" y="-379.8" font-family="Helvetica,sans-Serif" font-size="11.00" fill="#000000">[table]</text>
<polygon fill="none" stroke="#000000" points="335,-349.7 335,-371.7 451,-371.7 451,-349.7 335,-349.7"/>
<image xlink:href="../../images/primaryKeys.png" width="11px" height="12px" preserveAspectRatio="xMinYMin meet" x="340" y="-366.7"/>
<text text-anchor="start" x="355" y="-356.8" font-family="Helvetica,sans-Serif" font-size="11.00" fill="#000000">Id</text>
<polygon fill="#ffffff" stroke="transparent" points="335,-327.7 335,-349.7 451,-349.7 451,-327.7 335,-327.7"/>
<polygon fill="none" stroke="#000000" points="335,-327.7 335,-349.7 451,-349.7 451,-327.7 335,-327.7"/>
<image xlink:href="../../images/foreignKeys.png" width="11px" height="12px" preserveAspectRatio="xMinYMin meet" x="340" y="-344.7"/>
<text text-anchor="start" x="355" y="-334.8" font-family="Helvetica,sans-Serif" font-size="11.00" fill="#000000">UserId</text>
<polygon fill="none" stroke="#000000" points="335,-308.7 335,-327.7 451,-327.7 451,-308.7 335,-308.7"/>
<text text-anchor="start" x="338" y="-314.8" font-family="Helvetica,sans-Serif" font-size="11.00" fill="#000000">...</text>
<polygon fill="#ffffff" stroke="transparent" points="335,-289.7 335,-308.7 391,-308.7 391,-289.7 335,-289.7"/>
<polygon fill="none" stroke="#000000" points="335,-289.7 335,-308.7 391,-308.7 391,-289.7 335,-289.7"/>
<text text-anchor="start" x="338" y="-295.8" font-family="Helvetica,sans-Serif" font-size="11.00" fill="#000000">&lt; 1</text>
<polygon fill="#ffffff" stroke="transparent" points="391,-289.7 391,-308.7 421,-308.7 421,-289.7 391,-289.7"/>
<polygon fill="none" stroke="#000000" points="391,-289.7 391,-308.7 421,-308.7 421,-289.7 391,-289.7"/>
<text text-anchor="start" x="411.8862" y="-295.8" font-family="Helvetica,sans-Serif" font-size="11.00" fill="#000000"> &#160;</text>
<polygon fill="#ffffff" stroke="transparent" points="421,-289.7 421,-308.7 451,-308.7 451,-289.7 421,-289.7"/>
<polygon fill="none" stroke="#000000" points="421,-289.7 421,-308.7 451,-308.7 451,-289.7 421,-289.7"/>
<text text-anchor="start" x="441.8862" y="-295.8" font-family="Helvetica,sans-Serif" font-size="11.00" fill="#000000"> &#160;</text>
</a>
</g>
</g>
<!-- UserClaims&#45;&gt;Users -->
<g id="edge4" class="edge">
<title>UserClaims:w&#45;&gt;Users:e</title>
<path fill="none" stroke="#000000" d="M320.8257,-342.0321C283.1926,-357.7474 227.4764,-423.7 195.5,-423.7"/>
<polygon fill="#000000" stroke="#000000" points="327.2123,-340.5308 335.8239,-342.2045 331.1061,-339.6154 335,-338.7 335,-338.7 335,-338.7 331.1061,-339.6154 334.1761,-335.1955 327.2123,-340.5308 327.2123,-340.5308"/>
<ellipse fill="none" stroke="#000000" cx="324.0972" cy="-341.2631" rx="3.2" ry="3.2"/>
</g>
<!-- UserLogins -->
<g id="node5" class="node">
<title>UserLogins</title>
<g id="a_node5"><a xlink:href="../../tables/UserLogins.html" xlink:title="UserLogins" target="_top">
<polygon fill="#ffffff" stroke="transparent" points="309.5,-142.2 309.5,-269.2 476.5,-269.2 476.5,-142.2 309.5,-142.2"/>
<polygon fill="#f5f5f5" stroke="transparent" points="310,-245.7 310,-268.7 477,-268.7 477,-245.7 310,-245.7"/>
<polygon fill="none" stroke="#000000" points="310,-245.7 310,-268.7 477,-268.7 477,-245.7 310,-245.7"/>
<text text-anchor="start" x="315" y="-254.3" font-family="Helvetica,sans-Serif" font-weight="bold" font-size="11.00" fill="#000000">UserLogins</text>
<text text-anchor="start" x="442.0437" y="-253.8" font-family="Helvetica,sans-Serif" font-size="11.00" fill="#000000">[table]</text>
<polygon fill="none" stroke="#000000" points="310,-223.7 310,-245.7 477,-245.7 477,-223.7 310,-223.7"/>
<image xlink:href="../../images/primaryKeys.png" width="11px" height="12px" preserveAspectRatio="xMinYMin meet" x="315" y="-240.7"/>
<text text-anchor="start" x="330" y="-230.8" font-family="Helvetica,sans-Serif" font-size="11.00" fill="#000000">LoginProvider</text>
<polygon fill="none" stroke="#000000" points="310,-201.7 310,-223.7 477,-223.7 477,-201.7 310,-201.7"/>
<image xlink:href="../../images/primaryKeys.png" width="11px" height="12px" preserveAspectRatio="xMinYMin meet" x="315" y="-218.7"/>
<text text-anchor="start" x="330" y="-208.8" font-family="Helvetica,sans-Serif" font-size="11.00" fill="#000000">ProviderKey</text>
<polygon fill="#ffffff" stroke="transparent" points="310,-179.7 310,-201.7 477,-201.7 477,-179.7 310,-179.7"/>
<polygon fill="none" stroke="#000000" points="310,-179.7 310,-201.7 477,-201.7 477,-179.7 310,-179.7"/>
<image xlink:href="../../images/foreignKeys.png" width="11px" height="12px" preserveAspectRatio="xMinYMin meet" x="315" y="-196.7"/>
<text text-anchor="start" x="330" y="-186.8" font-family="Helvetica,sans-Serif" font-size="11.00" fill="#000000">UserId</text>
<polygon fill="none" stroke="#000000" points="310,-160.7 310,-179.7 477,-179.7 477,-160.7 310,-160.7"/>
<text text-anchor="start" x="313" y="-166.8" font-family="Helvetica,sans-Serif" font-size="11.00" fill="#000000">...</text>
<polygon fill="#ffffff" stroke="transparent" points="310,-141.7 310,-160.7 392,-160.7 392,-141.7 310,-141.7"/>
<polygon fill="none" stroke="#000000" points="310,-141.7 310,-160.7 392,-160.7 392,-141.7 310,-141.7"/>
<text text-anchor="start" x="313" y="-147.8" font-family="Helvetica,sans-Serif" font-size="11.00" fill="#000000">&lt; 1</text>
<polygon fill="#ffffff" stroke="transparent" points="392,-141.7 392,-160.7 434,-160.7 434,-141.7 392,-141.7"/>
<polygon fill="none" stroke="#000000" points="392,-141.7 392,-160.7 434,-160.7 434,-141.7 392,-141.7"/>
<text text-anchor="start" x="424.8862" y="-147.8" font-family="Helvetica,sans-Serif" font-size="11.00" fill="#000000"> &#160;</text>
<polygon fill="#ffffff" stroke="transparent" points="434,-141.7 434,-160.7 477,-160.7 477,-141.7 434,-141.7"/>
<polygon fill="none" stroke="#000000" points="434,-141.7 434,-160.7 477,-160.7 477,-141.7 434,-141.7"/>
<text text-anchor="start" x="467.8862" y="-147.8" font-family="Helvetica,sans-Serif" font-size="11.00" fill="#000000"> &#160;</text>
</a>
</g>
</g>
<!-- UserLogins&#45;&gt;Users -->
<g id="edge5" class="edge">
<title>UserLogins:w&#45;&gt;Users:e</title>
<path fill="none" stroke="#000000" d="M295.3942,-192.1019C258.5662,-199.8912 257.4086,-238.9665 236,-279.7 205.0698,-338.55 261.9831,-423.7 195.5,-423.7"/>
<polygon fill="#000000" stroke="#000000" points="302.0366,-191.4644 310.344,-194.2835 306.0183,-191.0822 310,-190.7 310,-190.7 310,-190.7 306.0183,-191.0822 309.656,-187.1165 302.0366,-191.4644 302.0366,-191.4644"/>
<ellipse fill="none" stroke="#000000" cx="298.8512" cy="-191.7701" rx="3.2" ry="3.2"/>
</g>
<!-- UserRoles -->
<g id="node6" class="node">
<title>UserRoles</title>
<g id="a_node6"><a xlink:href="../../tables/UserRoles.html" xlink:title="UserRoles" target="_top">
<polygon fill="#ffffff" stroke="transparent" points="335,-668.2 335,-773.2 451,-773.2 451,-668.2 335,-668.2"/>
<polygon fill="#f5f5f5" stroke="transparent" points="335,-749.7 335,-772.7 451,-772.7 451,-749.7 335,-749.7"/>
<polygon fill="none" stroke="#000000" points="335,-749.7 335,-772.7 451,-772.7 451,-749.7 335,-749.7"/>
<text text-anchor="start" x="340" y="-758.3" font-family="Helvetica,sans-Serif" font-weight="bold" font-size="11.00" fill="#000000">UserRoles</text>
<text text-anchor="start" x="416.0437" y="-757.8" font-family="Helvetica,sans-Serif" font-size="11.00" fill="#000000">[table]</text>
<polygon fill="none" stroke="#000000" points="335,-727.7 335,-749.7 451,-749.7 451,-727.7 335,-727.7"/>
<image xlink:href="../../images/primaryKeys.png" width="11px" height="12px" preserveAspectRatio="xMinYMin meet" x="340" y="-744.7"/>
<text text-anchor="start" x="355" y="-734.8" font-family="Helvetica,sans-Serif" font-size="11.00" fill="#000000">UserId</text>
<polygon fill="none" stroke="#000000" points="335,-705.7 335,-727.7 451,-727.7 451,-705.7 335,-705.7"/>
<image xlink:href="../../images/primaryKeys.png" width="11px" height="12px" preserveAspectRatio="xMinYMin meet" x="340" y="-722.7"/>
<text text-anchor="start" x="355" y="-712.8" font-family="Helvetica,sans-Serif" font-size="11.00" fill="#000000">RoleId</text>
<polygon fill="none" stroke="#000000" points="335,-686.7 335,-705.7 451,-705.7 451,-686.7 335,-686.7"/>
<text text-anchor="start" x="338" y="-692.8" font-family="Helvetica,sans-Serif" font-size="11.00" fill="#000000">...</text>
<polygon fill="#ffffff" stroke="transparent" points="335,-667.7 335,-686.7 391,-686.7 391,-667.7 335,-667.7"/>
<polygon fill="none" stroke="#000000" points="335,-667.7 335,-686.7 391,-686.7 391,-667.7 335,-667.7"/>
<text text-anchor="start" x="338" y="-673.8" font-family="Helvetica,sans-Serif" font-size="11.00" fill="#000000">&lt; 2</text>
<polygon fill="#ffffff" stroke="transparent" points="391,-667.7 391,-686.7 421,-686.7 421,-667.7 391,-667.7"/>
<polygon fill="none" stroke="#000000" points="391,-667.7 391,-686.7 421,-686.7 421,-667.7 391,-667.7"/>
<text text-anchor="start" x="411.8862" y="-673.8" font-family="Helvetica,sans-Serif" font-size="11.00" fill="#000000"> &#160;</text>
<polygon fill="#ffffff" stroke="transparent" points="421,-667.7 421,-686.7 451,-686.7 451,-667.7 421,-667.7"/>
<polygon fill="none" stroke="#000000" points="421,-667.7 421,-686.7 451,-686.7 451,-667.7 421,-667.7"/>
<text text-anchor="start" x="441.8862" y="-673.8" font-family="Helvetica,sans-Serif" font-size="11.00" fill="#000000"> &#160;</text>
</a>
</g>
</g>
<!-- UserRoles&#45;&gt;Roles -->
<g id="edge6" class="edge">
<title>UserRoles:w&#45;&gt;Roles:e</title>
<path fill="none" stroke="#000000" d="M320.3761,-717.5429C257.9309,-725.0189 247.1232,-779.7 176.5,-779.7"/>
<polygon fill="#000000" stroke="#000000" points="327.0133,-717.1604 335.2072,-720.294 331.0066,-716.9302 335,-716.7 335,-716.7 335,-716.7 331.0066,-716.9302 334.7928,-713.106 327.0133,-717.1604 327.0133,-717.1604"/>
<ellipse fill="none" stroke="#000000" cx="323.8186" cy="-717.3446" rx="3.2" ry="3.2"/>
</g>
<!-- UserRoles&#45;&gt;Users -->
<g id="edge7" class="edge">
<title>UserRoles:w&#45;&gt;Users:e</title>
<path fill="none" stroke="#000000" d="M320.3946,-737.905C275.5437,-732.6988 262.0225,-702.2947 236,-657.7 209.4024,-612.1197 248.2731,-423.7 195.5,-423.7"/>
<polygon fill="#000000" stroke="#000000" points="327.0118,-738.2651 334.8043,-742.2947 331.0059,-738.4826 335,-738.7 335,-738.7 335,-738.7 331.0059,-738.4826 335.1957,-735.1053 327.0118,-738.2651 327.0118,-738.2651"/>
<ellipse fill="none" stroke="#000000" cx="323.8166" cy="-738.0912" rx="3.2" ry="3.2"/>
</g>
<!-- Clinical.HospitalizationStatusHistories -->
<g id="node8" class="node">
<title>Clinical.HospitalizationStatusHistories</title>
<g id="a_node8"><a xlink:title="Clinical.HospitalizationStatusHistories">
<polygon fill="#ffffff" stroke="transparent" points="244,-38.2 244,-121.2 542,-121.2 542,-38.2 244,-38.2"/>
<polygon fill="#f5f5f5" stroke="transparent" points="244,-97.7 244,-120.7 542,-120.7 542,-97.7 244,-97.7"/>
<polygon fill="none" stroke="#000000" points="244,-97.7 244,-120.7 542,-120.7 542,-97.7 244,-97.7"/>
<text text-anchor="start" x="249" y="-106.3" font-family="Helvetica,sans-Serif" font-weight="bold" font-size="11.00" fill="#000000">Clinical.HospitalizationStatusHistories</text>
<text text-anchor="start" x="507.5219" y="-105.8" font-family="Helvetica,sans-Serif" font-size="11.00" fill="#000000">[table]</text>
<polygon fill="none" stroke="#000000" points="244,-75.7 244,-97.7 542,-97.7 542,-75.7 244,-75.7"/>
<image xlink:href="../../images/foreignKeys.png" width="11px" height="12px" preserveAspectRatio="xMinYMin meet" x="249" y="-92.7"/>
<text text-anchor="start" x="300" y="-82.8" font-family="Helvetica,sans-Serif" font-size="11.00" fill="#000000">ChangedByUserId</text>
<polygon fill="none" stroke="#000000" points="244,-56.7 244,-75.7 542,-75.7 542,-56.7 244,-56.7"/>
<text text-anchor="start" x="247" y="-62.8" font-family="Helvetica,sans-Serif" font-size="11.00" fill="#000000">...</text>
<polygon fill="#ffffff" stroke="transparent" points="244,-37.7 244,-56.7 391,-56.7 391,-37.7 244,-37.7"/>
<polygon fill="none" stroke="#000000" points="244,-37.7 244,-56.7 391,-56.7 391,-37.7 244,-37.7"/>
<text text-anchor="start" x="247" y="-43.8" font-family="Helvetica,sans-Serif" font-size="11.00" fill="#000000">&lt; 1</text>
<polygon fill="#ffffff" stroke="transparent" points="391,-37.7 391,-56.7 466,-56.7 466,-37.7 391,-37.7"/>
<polygon fill="none" stroke="#000000" points="391,-37.7 391,-56.7 466,-56.7 466,-37.7 391,-37.7"/>
<text text-anchor="start" x="456.8862" y="-43.8" font-family="Helvetica,sans-Serif" font-size="11.00" fill="#000000"> &#160;</text>
<polygon fill="#ffffff" stroke="transparent" points="466,-37.7 466,-56.7 542,-56.7 542,-37.7 466,-37.7"/>
<polygon fill="none" stroke="#000000" points="466,-37.7 466,-56.7 542,-56.7 542,-37.7 466,-37.7"/>
<text text-anchor="start" x="532.8862" y="-43.8" font-family="Helvetica,sans-Serif" font-size="11.00" fill="#000000"> &#160;</text>
</a>
</g>
</g>
<!-- Clinical.HospitalizationStatusHistories&#45;&gt;Users -->
<g id="edge1" class="edge">
<title>Clinical.HospitalizationStatusHistories:w&#45;&gt;Users:e</title>
<path fill="none" stroke="#000000" d="M230.2586,-91.7254C182.2683,-133.6471 265.6928,-423.7 195.5,-423.7"/>
<polygon fill="#000000" stroke="#000000" points="236.4867,-89.4478 245.2365,-90.081 240.2433,-88.0739 244,-86.7 244,-86.7 244,-86.7 240.2433,-88.0739 242.7635,-83.319 236.4867,-89.4478 236.4867,-89.4478"/>
<ellipse fill="none" stroke="#000000" cx="233.4813" cy="-90.5469" rx="3.2" ry="3.2"/>
</g>
<!-- Clinical.VisitEvents -->
<g id="node9" class="node">
<title>Clinical.VisitEvents</title>
<g id="a_node9"><a xlink:title="Clinical.VisitEvents">
<polygon fill="#ffffff" stroke="transparent" points="309,-564.2 309,-647.2 477,-647.2 477,-564.2 309,-564.2"/>
<polygon fill="#f5f5f5" stroke="transparent" points="309,-623.7 309,-646.7 477,-646.7 477,-623.7 309,-623.7"/>
<polygon fill="none" stroke="#000000" points="309,-623.7 309,-646.7 477,-646.7 477,-623.7 309,-623.7"/>
<text text-anchor="start" x="314" y="-632.3" font-family="Helvetica,sans-Serif" font-weight="bold" font-size="11.00" fill="#000000">Clinical.VisitEvents</text>
<text text-anchor="start" x="442.5219" y="-631.8" font-family="Helvetica,sans-Serif" font-size="11.00" fill="#000000">[table]</text>
<polygon fill="none" stroke="#000000" points="309,-601.7 309,-623.7 477,-623.7 477,-601.7 309,-601.7"/>
<image xlink:href="../../images/foreignKeys.png" width="11px" height="12px" preserveAspectRatio="xMinYMin meet" x="314" y="-618.7"/>
<text text-anchor="start" x="346" y="-608.8" font-family="Helvetica,sans-Serif" font-size="11.00" fill="#000000">EnteredByUserId</text>
<polygon fill="none" stroke="#000000" points="309,-582.7 309,-601.7 477,-601.7 477,-582.7 309,-582.7"/>
<text text-anchor="start" x="312" y="-588.8" font-family="Helvetica,sans-Serif" font-size="11.00" fill="#000000">...</text>
<polygon fill="#ffffff" stroke="transparent" points="309,-563.7 309,-582.7 391,-582.7 391,-563.7 309,-563.7"/>
<polygon fill="none" stroke="#000000" points="309,-563.7 309,-582.7 391,-582.7 391,-563.7 309,-563.7"/>
<text text-anchor="start" x="312" y="-569.8" font-family="Helvetica,sans-Serif" font-size="11.00" fill="#000000">&lt; 1</text>
<polygon fill="#ffffff" stroke="transparent" points="391,-563.7 391,-582.7 434,-582.7 434,-563.7 391,-563.7"/>
<polygon fill="none" stroke="#000000" points="391,-563.7 391,-582.7 434,-582.7 434,-563.7 391,-563.7"/>
<text text-anchor="start" x="424.8862" y="-569.8" font-family="Helvetica,sans-Serif" font-size="11.00" fill="#000000"> &#160;</text>
<polygon fill="#ffffff" stroke="transparent" points="434,-563.7 434,-582.7 477,-582.7 477,-563.7 434,-563.7"/>
<polygon fill="none" stroke="#000000" points="434,-563.7 434,-582.7 477,-582.7 477,-563.7 434,-563.7"/>
<text text-anchor="start" x="467.8862" y="-569.8" font-family="Helvetica,sans-Serif" font-size="11.00" fill="#000000"> &#160;</text>
</a>
</g>
</g>
<!-- Clinical.VisitEvents&#45;&gt;Users -->
<g id="edge2" class="edge">
<title>Clinical.VisitEvents:w&#45;&gt;Users:e</title>
<path fill="none" stroke="#000000" d="M294.4499,-611.5102C265.0013,-606.22 256.4144,-583.7626 236,-553.7 202.0029,-503.6353 256.0167,-423.7 195.5,-423.7"/>
<polygon fill="#000000" stroke="#000000" points="301.0266,-612.048 308.7066,-616.288 305.0133,-612.374 309,-612.7 309,-612.7 309,-612.7 305.0133,-612.374 309.2934,-609.112 301.0266,-612.048 301.0266,-612.048"/>
<ellipse fill="none" stroke="#000000" cx="297.8373" cy="-611.7871" rx="3.2" ry="3.2"/>
</g>
</g>
</svg>
