<?xml version="1.0" encoding="UTF-8" standalone="no"?>
<!DOCTYPE svg PUBLIC "-//W3C//DTD SVG 1.1//EN"
 "http://www.w3.org/Graphics/SVG/1.1/DTD/svg11.dtd">
<!-- Generated by graphviz version 2.40.1 (20161225.0304)
 -->
<!-- Title: largeRelationshipsDiagram Pages: 1 -->
<svg width="558pt" height="1592pt"
 viewBox="0.00 0.00 558.00 1592.20" xmlns="http://www.w3.org/2000/svg" xmlns:xlink="http://www.w3.org/1999/xlink">
<g id="graph0" class="graph" transform="scale(1 1) rotate(0) translate(4 1588.2)">
<title>largeRelationshipsDiagram</title>
<polygon fill="#ffffff" stroke="transparent" points="-4,4 -4,-1588.2 554,-1588.2 554,4 -4,4"/>
<text text-anchor="middle" x="72.4936" y="-7.3" font-family="Helvetica,sans-Serif" font-size="11.00" fill="#000000">Generated by SchemaSpy</text>
<!-- RoleClaims -->
<g id="node1" class="node">
<title>RoleClaims</title>
<g id="a_node1"><a xlink:href="../../tables/RoleClaims.html" xlink:title="RoleClaims" target="_top">
<polygon fill="#ffffff" stroke="transparent" points="335,-1384.2 335,-1580.2 451,-1580.2 451,-1384.2 335,-1384.2"/>
<polygon fill="#f5f5f5" stroke="transparent" points="335,-1557.2 335,-1580.2 451,-1580.2 451,-1557.2 335,-1557.2"/>
<polygon fill="none" stroke="#000000" points="335,-1557.2 335,-1580.2 451,-1580.2 451,-1557.2 335,-1557.2"/>
<text text-anchor="start" x="340" y="-1565.8" font-family="Helvetica,sans-Serif" font-weight="bold" font-size="11.00" fill="#000000">RoleClaims</text>
<text text-anchor="start" x="416.0437" y="-1565.3" font-family="Helvetica,sans-Serif" font-size="11.00" fill="#000000">[table]</text>
<polygon fill="none" stroke="#000000" points="335,-1535.2 335,-1557.2 451,-1557.2 451,-1535.2 335,-1535.2"/>
<image xlink:href="../../images/primaryKeys.png" width="11px" height="12px" preserveAspectRatio="xMinYMin meet" x="340" y="-1552.2"/>
<text text-anchor="start" x="355" y="-1542.3" font-family="Helvetica,sans-Serif" font-size="11.00" fill="#000000">Id</text>
<polygon fill="none" stroke="#000000" points="335,-1513.2 335,-1535.2 451,-1535.2 451,-1513.2 335,-1513.2"/>
<text text-anchor="start" x="355" y="-1520.3" font-family="Helvetica,sans-Serif" font-size="11.00" fill="#000000">CreatedAtUtc</text>
<polygon fill="none" stroke="#000000" points="335,-1491.2 335,-1513.2 451,-1513.2 451,-1491.2 335,-1491.2"/>
<text text-anchor="start" x="355" y="-1498.3" font-family="Helvetica,sans-Serif" font-size="11.00" fill="#000000">UpdatedAtUtc</text>
<polygon fill="none" stroke="#000000" points="335,-1469.2 335,-1491.2 451,-1491.2 451,-1469.2 335,-1469.2"/>
<text text-anchor="start" x="355" y="-1476.3" font-family="Helvetica,sans-Serif" font-size="11.00" fill="#000000">RowVersion</text>
<polygon fill="#ffffff" stroke="transparent" points="335,-1447.2 335,-1469.2 451,-1469.2 451,-1447.2 335,-1447.2"/>
<polygon fill="none" stroke="#000000" points="335,-1447.2 335,-1469.2 451,-1469.2 451,-1447.2 335,-1447.2"/>
<image xlink:href="../../images/foreignKeys.png" width="11px" height="12px" preserveAspectRatio="xMinYMin meet" x="340" y="-1464.2"/>
<text text-anchor="start" x="355" y="-1454.3" font-family="Helvetica,sans-Serif" font-size="11.00" fill="#000000">RoleId</text>
<polygon fill="none" stroke="#000000" points="335,-1425.2 335,-1447.2 451,-1447.2 451,-1425.2 335,-1425.2"/>
<text text-anchor="start" x="355" y="-1432.3" font-family="Helvetica,sans-Serif" font-size="11.00" fill="#000000">ClaimType</text>
<polygon fill="none" stroke="#000000" points="335,-1403.2 335,-1425.2 451,-1425.2 451,-1403.2 335,-1403.2"/>
<text text-anchor="start" x="355" y="-1410.3" font-family="Helvetica,sans-Serif" font-size="11.00" fill="#000000">ClaimValue</text>
<polygon fill="#ffffff" stroke="transparent" points="335,-1384.2 335,-1403.2 391,-1403.2 391,-1384.2 335,-1384.2"/>
<polygon fill="none" stroke="#000000" points="335,-1384.2 335,-1403.2 391,-1403.2 391,-1384.2 335,-1384.2"/>
<text text-anchor="start" x="338" y="-1390.3" font-family="Helvetica,sans-Serif" font-size="11.00" fill="#000000">&lt; 1</text>
<polygon fill="#ffffff" stroke="transparent" points="391,-1384.2 391,-1403.2 421,-1403.2 421,-1384.2 391,-1384.2"/>
<polygon fill="none" stroke="#000000" points="391,-1384.2 391,-1403.2 421,-1403.2 421,-1384.2 391,-1384.2"/>
<text text-anchor="start" x="411.8862" y="-1390.3" font-family="Helvetica,sans-Serif" font-size="11.00" fill="#000000"> &#160;</text>
<polygon fill="#ffffff" stroke="transparent" points="421,-1384.2 421,-1403.2 451,-1403.2 451,-1384.2 421,-1384.2"/>
<polygon fill="none" stroke="#000000" points="421,-1384.2 421,-1403.2 451,-1403.2 451,-1384.2 421,-1384.2"/>
<text text-anchor="start" x="441.8862" y="-1390.3" font-family="Helvetica,sans-Serif" font-size="11.00" fill="#000000"> &#160;</text>
</a>
</g>
</g>
<!-- Roles -->
<g id="node3" class="node">
<title>Roles</title>
<g id="a_node3"><a xlink:href="../../tables/Roles.html" xlink:title="Roles" target="_top">
<polygon fill="#ffffff" stroke="transparent" points="27,-1220.2 27,-1416.2 176,-1416.2 176,-1220.2 27,-1220.2"/>
<polygon fill="#f5f5f5" stroke="transparent" points="27.5,-1393.2 27.5,-1416.2 176.5,-1416.2 176.5,-1393.2 27.5,-1393.2"/>
<polygon fill="none" stroke="#000000" points="27.5,-1393.2 27.5,-1416.2 176.5,-1416.2 176.5,-1393.2 27.5,-1393.2"/>
<text text-anchor="start" x="32.5" y="-1401.8" font-family="Helvetica,sans-Serif" font-weight="bold" font-size="11.00" fill="#000000">Roles</text>
<text text-anchor="start" x="141.5437" y="-1401.3" font-family="Helvetica,sans-Serif" font-size="11.00" fill="#000000">[table]</text>
<polygon fill="none" stroke="#000000" points="27.5,-1371.2 27.5,-1393.2 176.5,-1393.2 176.5,-1371.2 27.5,-1371.2"/>
<image xlink:href="../../images/primaryKeys.png" width="11px" height="12px" preserveAspectRatio="xMinYMin meet" x="32.5" y="-1388.2"/>
<text text-anchor="start" x="47.5" y="-1378.3" font-family="Helvetica,sans-Serif" font-size="11.00" fill="#000000">Id</text>
<polygon fill="none" stroke="#000000" points="27.5,-1349.2 27.5,-1371.2 176.5,-1371.2 176.5,-1349.2 27.5,-1349.2"/>
<text text-anchor="start" x="47.5" y="-1356.3" font-family="Helvetica,sans-Serif" font-size="11.00" fill="#000000">CreatedAtUtc</text>
<polygon fill="none" stroke="#000000" points="27.5,-1327.2 27.5,-1349.2 176.5,-1349.2 176.5,-1327.2 27.5,-1327.2"/>
<text text-anchor="start" x="47.5" y="-1334.3" font-family="Helvetica,sans-Serif" font-size="11.00" fill="#000000">UpdatedAtUtc</text>
<polygon fill="none" stroke="#000000" points="27.5,-1305.2 27.5,-1327.2 176.5,-1327.2 176.5,-1305.2 27.5,-1305.2"/>
<text text-anchor="start" x="47.5" y="-1312.3" font-family="Helvetica,sans-Serif" font-size="11.00" fill="#000000">RowVersion</text>
<polygon fill="none" stroke="#000000" points="27.5,-1283.2 27.5,-1305.2 176.5,-1305.2 176.5,-1283.2 27.5,-1283.2"/>
<text text-anchor="start" x="47.5" y="-1290.3" font-family="Helvetica,sans-Serif" font-size="11.00" fill="#000000">Name</text>
<polygon fill="#ffffff" stroke="transparent" points="27.5,-1261.2 27.5,-1283.2 176.5,-1283.2 176.5,-1261.2 27.5,-1261.2"/>
<polygon fill="none" stroke="#000000" points="27.5,-1261.2 27.5,-1283.2 176.5,-1283.2 176.5,-1261.2 27.5,-1261.2"/>
<text text-anchor="start" x="47.5" y="-1268.3" font-family="Helvetica,sans-Serif" font-size="11.00" fill="#000000">NormalizedName</text>
<polygon fill="none" stroke="#000000" points="27.5,-1239.2 27.5,-1261.2 176.5,-1261.2 176.5,-1239.2 27.5,-1239.2"/>
<text text-anchor="start" x="47.5" y="-1246.3" font-family="Helvetica,sans-Serif" font-size="11.00" fill="#000000">ConcurrencyStamp</text>
<polygon fill="#ffffff" stroke="transparent" points="27.5,-1220.2 27.5,-1239.2 91.5,-1239.2 91.5,-1220.2 27.5,-1220.2"/>
<polygon fill="none" stroke="#000000" points="27.5,-1220.2 27.5,-1239.2 91.5,-1239.2 91.5,-1220.2 27.5,-1220.2"/>
<text text-anchor="start" x="30.5" y="-1226.3" font-family="Helvetica,sans-Serif" font-size="11.00" fill="#000000"> &#160;</text>
<polygon fill="#ffffff" stroke="transparent" points="91.5,-1220.2 91.5,-1239.2 129.5,-1239.2 129.5,-1220.2 91.5,-1220.2"/>
<polygon fill="none" stroke="#000000" points="91.5,-1220.2 91.5,-1239.2 129.5,-1239.2 129.5,-1220.2 91.5,-1220.2"/>
<text text-anchor="start" x="120.3862" y="-1226.3" font-family="Helvetica,sans-Serif" font-size="11.00" fill="#000000"> &#160;</text>
<polygon fill="#ffffff" stroke="transparent" points="129.5,-1220.2 129.5,-1239.2 176.5,-1239.2 176.5,-1220.2 129.5,-1220.2"/>
<polygon fill="none" stroke="#000000" points="129.5,-1220.2 129.5,-1239.2 176.5,-1239.2 176.5,-1220.2 129.5,-1220.2"/>
<text text-anchor="start" x="157.9053" y="-1226.3" font-family="Helvetica,sans-Serif" font-size="11.00" fill="#000000">2 &gt;</text>
</a>
</g>
</g>
<!-- RoleClaims&#45;&gt;Roles -->
<g id="edge3" class="edge">
<title>RoleClaims:w&#45;&gt;Roles:e</title>
<path fill="none" stroke="#000000" d="M320.3955,-1457.2391C256.2423,-1448.4414 249.4361,-1382.2 176.5,-1382.2"/>
<polygon fill="#000000" stroke="#000000" points="327.0173,-1457.6747 334.7636,-1461.7922 331.0086,-1457.9374 335,-1458.2 335,-1458.2 335,-1458.2 331.0086,-1457.9374 335.2364,-1454.6078 327.0173,-1457.6747 327.0173,-1457.6747"/>
<ellipse fill="none" stroke="#000000" cx="323.8242" cy="-1457.4646" rx="3.2" ry="3.2"/>
</g>
<!-- UserTokens -->
<g id="node2" class="node">
<title>UserTokens</title>
<g id="a_node2"><a xlink:href="../../tables/UserTokens.html" xlink:title="UserTokens" target="_top">
<polygon fill="#ffffff" stroke="transparent" points="334,-711.2 334,-907.2 452,-907.2 452,-711.2 334,-711.2"/>
<polygon fill="#f5f5f5" stroke="transparent" points="334,-884.2 334,-907.2 452,-907.2 452,-884.2 334,-884.2"/>
<polygon fill="none" stroke="#000000" points="334,-884.2 334,-907.2 452,-907.2 452,-884.2 334,-884.2"/>
<text text-anchor="start" x="339" y="-892.8" font-family="Helvetica,sans-Serif" font-weight="bold" font-size="11.00" fill="#000000">UserTokens</text>
<text text-anchor="start" x="417.5219" y="-892.3" font-family="Helvetica,sans-Serif" font-size="11.00" fill="#000000">[table]</text>
<polygon fill="none" stroke="#000000" points="334,-862.2 334,-884.2 452,-884.2 452,-862.2 334,-862.2"/>
<image xlink:href="../../images/primaryKeys.png" width="11px" height="12px" preserveAspectRatio="xMinYMin meet" x="339" y="-879.2"/>
<text text-anchor="start" x="355" y="-869.3" font-family="Helvetica,sans-Serif" font-size="11.00" fill="#000000">UserId</text>
<polygon fill="none" stroke="#000000" points="334,-840.2 334,-862.2 452,-862.2 452,-840.2 334,-840.2"/>
<image xlink:href="../../images/primaryKeys.png" width="11px" height="12px" preserveAspectRatio="xMinYMin meet" x="339" y="-857.2"/>
<text text-anchor="start" x="355" y="-847.3" font-family="Helvetica,sans-Serif" font-size="11.00" fill="#000000">LoginProvider</text>
<polygon fill="none" stroke="#000000" points="334,-818.2 334,-840.2 452,-840.2 452,-818.2 334,-818.2"/>
<image xlink:href="../../images/primaryKeys.png" width="11px" height="12px" preserveAspectRatio="xMinYMin meet" x="339" y="-835.2"/>
<text text-anchor="start" x="355" y="-825.3" font-family="Helvetica,sans-Serif" font-size="11.00" fill="#000000">Name</text>
<polygon fill="none" stroke="#000000" points="334,-796.2 334,-818.2 452,-818.2 452,-796.2 334,-796.2"/>
<text text-anchor="start" x="355" y="-803.3" font-family="Helvetica,sans-Serif" font-size="11.00" fill="#000000">CreatedAtUtc</text>
<polygon fill="none" stroke="#000000" points="334,-774.2 334,-796.2 452,-796.2 452,-774.2 334,-774.2"/>
<text text-anchor="start" x="355" y="-781.3" font-family="Helvetica,sans-Serif" font-size="11.00" fill="#000000">UpdatedAtUtc</text>
<polygon fill="none" stroke="#000000" points="334,-752.2 334,-774.2 452,-774.2 452,-752.2 334,-752.2"/>
<text text-anchor="start" x="355" y="-759.3" font-family="Helvetica,sans-Serif" font-size="11.00" fill="#000000">RowVersion</text>
<polygon fill="none" stroke="#000000" points="334,-730.2 334,-752.2 452,-752.2 452,-730.2 334,-730.2"/>
<text text-anchor="start" x="355" y="-737.3" font-family="Helvetica,sans-Serif" font-size="11.00" fill="#000000">Value</text>
<polygon fill="#ffffff" stroke="transparent" points="334,-711.2 334,-730.2 391,-730.2 391,-711.2 334,-711.2"/>
<polygon fill="none" stroke="#000000" points="334,-711.2 334,-730.2 391,-730.2 391,-711.2 334,-711.2"/>
<text text-anchor="start" x="337" y="-717.3" font-family="Helvetica,sans-Serif" font-size="11.00" fill="#000000">&lt; 1</text>
<polygon fill="#ffffff" stroke="transparent" points="391,-711.2 391,-730.2 421,-730.2 421,-711.2 391,-711.2"/>
<polygon fill="none" stroke="#000000" points="391,-711.2 391,-730.2 421,-730.2 421,-711.2 391,-711.2"/>
<text text-anchor="start" x="411.8862" y="-717.3" font-family="Helvetica,sans-Serif" font-size="11.00" fill="#000000"> &#160;</text>
<polygon fill="#ffffff" stroke="transparent" points="421,-711.2 421,-730.2 452,-730.2 452,-711.2 421,-711.2"/>
<polygon fill="none" stroke="#000000" points="421,-711.2 421,-730.2 452,-730.2 452,-711.2 421,-711.2"/>
<text text-anchor="start" x="442.8862" y="-717.3" font-family="Helvetica,sans-Serif" font-size="11.00" fill="#000000"> &#160;</text>
</a>
</g>
</g>
<!-- Users -->
<g id="node7" class="node">
<title>Users</title>
<g id="a_node7"><a xlink:href="../../tables/Users.html" xlink:title="Users" target="_top">
<polygon fill="#ffffff" stroke="transparent" points="8,-317.2 8,-755.2 195,-755.2 195,-317.2 8,-317.2"/>
<polygon fill="#f5f5f5" stroke="transparent" points="8.5,-732.2 8.5,-755.2 195.5,-755.2 195.5,-732.2 8.5,-732.2"/>
<polygon fill="none" stroke="#000000" points="8.5,-732.2 8.5,-755.2 195.5,-755.2 195.5,-732.2 8.5,-732.2"/>
<text text-anchor="start" x="13.5" y="-740.8" font-family="Helvetica,sans-Serif" font-weight="bold" font-size="11.00" fill="#000000">Users</text>
<text text-anchor="start" x="160.5437" y="-740.3" font-family="Helvetica,sans-Serif" font-size="11.00" fill="#000000">[table]</text>
<polygon fill="none" stroke="#000000" points="8.5,-710.2 8.5,-732.2 195.5,-732.2 195.5,-710.2 8.5,-710.2"/>
<image xlink:href="../../images/primaryKeys.png" width="11px" height="12px" preserveAspectRatio="xMinYMin meet" x="13.5" y="-727.2"/>
<text text-anchor="start" x="28.5" y="-717.3" font-family="Helvetica,sans-Serif" font-size="11.00" fill="#000000">Id</text>
<polygon fill="none" stroke="#000000" points="8.5,-688.2 8.5,-710.2 195.5,-710.2 195.5,-688.2 8.5,-688.2"/>
<text text-anchor="start" x="28.5" y="-695.3" font-family="Helvetica,sans-Serif" font-size="11.00" fill="#000000">CreatedAtUtc</text>
<polygon fill="none" stroke="#000000" points="8.5,-666.2 8.5,-688.2 195.5,-688.2 195.5,-666.2 8.5,-666.2"/>
<text text-anchor="start" x="28.5" y="-673.3" font-family="Helvetica,sans-Serif" font-size="11.00" fill="#000000">UpdatedAtUtc</text>
<polygon fill="none" stroke="#000000" points="8.5,-644.2 8.5,-666.2 195.5,-666.2 195.5,-644.2 8.5,-644.2"/>
<text text-anchor="start" x="28.5" y="-651.3" font-family="Helvetica,sans-Serif" font-size="11.00" fill="#000000">RowVersion</text>
<polygon fill="none" stroke="#000000" points="8.5,-622.2 8.5,-644.2 195.5,-644.2 195.5,-622.2 8.5,-622.2"/>
<text text-anchor="start" x="28.5" y="-629.3" font-family="Helvetica,sans-Serif" font-size="11.00" fill="#000000">UserName</text>
<polygon fill="#ffffff" stroke="transparent" points="8.5,-600.2 8.5,-622.2 195.5,-622.2 195.5,-600.2 8.5,-600.2"/>
<polygon fill="none" stroke="#000000" points="8.5,-600.2 8.5,-622.2 195.5,-622.2 195.5,-600.2 8.5,-600.2"/>
<text text-anchor="start" x="28.5" y="-607.3" font-family="Helvetica,sans-Serif" font-size="11.00" fill="#000000">NormalizedUserName</text>
<polygon fill="none" stroke="#000000" points="8.5,-578.2 8.5,-600.2 195.5,-600.2 195.5,-578.2 8.5,-578.2"/>
<text text-anchor="start" x="28.5" y="-585.3" font-family="Helvetica,sans-Serif" font-size="11.00" fill="#000000">Email</text>
<polygon fill="#ffffff" stroke="transparent" points="8.5,-556.2 8.5,-578.2 195.5,-578.2 195.5,-556.2 8.5,-556.2"/>
<polygon fill="none" stroke="#000000" points="8.5,-556.2 8.5,-578.2 195.5,-578.2 195.5,-556.2 8.5,-556.2"/>
<text text-anchor="start" x="28.5" y="-563.3" font-family="Helvetica,sans-Serif" font-size="11.00" fill="#000000">NormalizedEmail</text>
<polygon fill="none" stroke="#000000" points="8.5,-534.2 8.5,-556.2 195.5,-556.2 195.5,-534.2 8.5,-534.2"/>
<text text-anchor="start" x="28.5" y="-541.3" font-family="Helvetica,sans-Serif" font-size="11.00" fill="#000000">EmailConfirmed</text>
<polygon fill="none" stroke="#000000" points="8.5,-512.2 8.5,-534.2 195.5,-534.2 195.5,-512.2 8.5,-512.2"/>
<text text-anchor="start" x="28.5" y="-519.3" font-family="Helvetica,sans-Serif" font-size="11.00" fill="#000000">PasswordHash</text>
<polygon fill="none" stroke="#000000" points="8.5,-490.2 8.5,-512.2 195.5,-512.2 195.5,-490.2 8.5,-490.2"/>
<text text-anchor="start" x="28.5" y="-497.3" font-family="Helvetica,sans-Serif" font-size="11.00" fill="#000000">SecurityStamp</text>
<polygon fill="none" stroke="#000000" points="8.5,-468.2 8.5,-490.2 195.5,-490.2 195.5,-468.2 8.5,-468.2"/>
<text text-anchor="start" x="28.5" y="-475.3" font-family="Helvetica,sans-Serif" font-size="11.00" fill="#000000">ConcurrencyStamp</text>
<polygon fill="none" stroke="#000000" points="8.5,-446.2 8.5,-468.2 195.5,-468.2 195.5,-446.2 8.5,-446.2"/>
<text text-anchor="start" x="28.5" y="-453.3" font-family="Helvetica,sans-Serif" font-size="11.00" fill="#000000">PhoneNumber</text>
<polygon fill="none" stroke="#000000" points="8.5,-424.2 8.5,-446.2 195.5,-446.2 195.5,-424.2 8.5,-424.2"/>
<text text-anchor="start" x="28.5" y="-431.3" font-family="Helvetica,sans-Serif" font-size="11.00" fill="#000000">PhoneNumberConfirmed</text>
<polygon fill="none" stroke="#000000" points="8.5,-402.2 8.5,-424.2 195.5,-424.2 195.5,-402.2 8.5,-402.2"/>
<text text-anchor="start" x="28.5" y="-409.3" font-family="Helvetica,sans-Serif" font-size="11.00" fill="#000000">TwoFactorEnabled</text>
<polygon fill="none" stroke="#000000" points="8.5,-380.2 8.5,-402.2 195.5,-402.2 195.5,-380.2 8.5,-380.2"/>
<text text-anchor="start" x="28.5" y="-387.3" font-family="Helvetica,sans-Serif" font-size="11.00" fill="#000000">LockoutEnd</text>
<polygon fill="none" stroke="#000000" points="8.5,-358.2 8.5,-380.2 195.5,-380.2 195.5,-358.2 8.5,-358.2"/>
<text text-anchor="start" x="28.5" y="-365.3" font-family="Helvetica,sans-Serif" font-size="11.00" fill="#000000">LockoutEnabled</text>
<polygon fill="none" stroke="#000000" points="8.5,-336.2 8.5,-358.2 195.5,-358.2 195.5,-336.2 8.5,-336.2"/>
<text text-anchor="start" x="28.5" y="-343.3" font-family="Helvetica,sans-Serif" font-size="11.00" fill="#000000">AccessFailedCount</text>
<polygon fill="#ffffff" stroke="transparent" points="8.5,-317.2 8.5,-336.2 91.5,-336.2 91.5,-317.2 8.5,-317.2"/>
<polygon fill="none" stroke="#000000" points="8.5,-317.2 8.5,-336.2 91.5,-336.2 91.5,-317.2 8.5,-317.2"/>
<text text-anchor="start" x="11.5" y="-323.3" font-family="Helvetica,sans-Serif" font-size="11.00" fill="#000000"> &#160;</text>
<polygon fill="#ffffff" stroke="transparent" points="91.5,-317.2 91.5,-336.2 138.5,-336.2 138.5,-317.2 91.5,-317.2"/>
<polygon fill="none" stroke="#000000" points="91.5,-317.2 91.5,-336.2 138.5,-336.2 138.5,-317.2 91.5,-317.2"/>
<text text-anchor="start" x="129.3862" y="-323.3" font-family="Helvetica,sans-Serif" font-size="11.00" fill="#000000"> &#160;</text>
<polygon fill="#ffffff" stroke="transparent" points="138.5,-317.2 138.5,-336.2 195.5,-336.2 195.5,-317.2 138.5,-317.2"/>
<polygon fill="none" stroke="#000000" points="138.5,-317.2 138.5,-336.2 195.5,-336.2 195.5,-317.2 138.5,-317.2"/>
<text text-anchor="start" x="176.9053" y="-323.3" font-family="Helvetica,sans-Serif" font-size="11.00" fill="#000000">6 &gt;</text>
</a>
</g>
</g>
<!-- UserTokens&#45;&gt;Users -->
<g id="edge8" class="edge">
<title>UserTokens:w&#45;&gt;Users:e</title>
<path fill="none" stroke="#000000" d="M319.2776,-871.6956C247.3303,-855.9094 281.5388,-721.2 195.5,-721.2"/>
<polygon fill="#000000" stroke="#000000" points="326.0414,-872.3867 333.634,-876.7814 330.0207,-872.7934 334,-873.2 334,-873.2 334,-873.2 330.0207,-872.7934 334.366,-869.6186 326.0414,-872.3867 326.0414,-872.3867"/>
<ellipse fill="none" stroke="#000000" cx="322.858" cy="-872.0614" rx="3.2" ry="3.2"/>
</g>
<!-- UserClaims -->
<g id="node4" class="node">
<title>UserClaims</title>
<g id="a_node4"><a xlink:href="../../tables/UserClaims.html" xlink:title="UserClaims" target="_top">
<polygon fill="#ffffff" stroke="transparent" points="335,-494.2 335,-690.2 451,-690.2 451,-494.2 335,-494.2"/>
<polygon fill="#f5f5f5" stroke="transparent" points="335,-667.2 335,-690.2 451,-690.2 451,-667.2 335,-667.2"/>
<polygon fill="none" stroke="#000000" points="335,-667.2 335,-690.2 451,-690.2 451,-667.2 335,-667.2"/>
<text text-anchor="start" x="340" y="-675.8" font-family="Helvetica,sans-Serif" font-weight="bold" font-size="11.00" fill="#000000">UserClaims</text>
<text text-anchor="start" x="416.0437" y="-675.3" font-family="Helvetica,sans-Serif" font-size="11.00" fill="#000000">[table]</text>
<polygon fill="none" stroke="#000000" points="335,-645.2 335,-667.2 451,-667.2 451,-645.2 335,-645.2"/>
<image xlink:href="../../images/primaryKeys.png" width="11px" height="12px" preserveAspectRatio="xMinYMin meet" x="340" y="-662.2"/>
<text text-anchor="start" x="355" y="-652.3" font-family="Helvetica,sans-Serif" font-size="11.00" fill="#000000">Id</text>
<polygon fill="none" stroke="#000000" points="335,-623.2 335,-645.2 451,-645.2 451,-623.2 335,-623.2"/>
<text text-anchor="start" x="355" y="-630.3" font-family="Helvetica,sans-Serif" font-size="11.00" fill="#000000">CreatedAtUtc</text>
<polygon fill="none" stroke="#000000" points="335,-601.2 335,-623.2 451,-623.2 451,-601.2 335,-601.2"/>
<text text-anchor="start" x="355" y="-608.3" font-family="Helvetica,sans-Serif" font-size="11.00" fill="#000000">UpdatedAtUtc</text>
<polygon fill="none" stroke="#000000" points="335,-579.2 335,-601.2 451,-601.2 451,-579.2 335,-579.2"/>
<text text-anchor="start" x="355" y="-586.3" font-family="Helvetica,sans-Serif" font-size="11.00" fill="#000000">RowVersion</text>
<polygon fill="#ffffff" stroke="transparent" points="335,-557.2 335,-579.2 451,-579.2 451,-557.2 335,-557.2"/>
<polygon fill="none" stroke="#000000" points="335,-557.2 335,-579.2 451,-579.2 451,-557.2 335,-557.2"/>
<image xlink:href="../../images/foreignKeys.png" width="11px" height="12px" preserveAspectRatio="xMinYMin meet" x="340" y="-574.2"/>
<text text-anchor="start" x="355" y="-564.3" font-family="Helvetica,sans-Serif" font-size="11.00" fill="#000000">UserId</text>
<polygon fill="none" stroke="#000000" points="335,-535.2 335,-557.2 451,-557.2 451,-535.2 335,-535.2"/>
<text text-anchor="start" x="355" y="-542.3" font-family="Helvetica,sans-Serif" font-size="11.00" fill="#000000">ClaimType</text>
<polygon fill="none" stroke="#000000" points="335,-513.2 335,-535.2 451,-535.2 451,-513.2 335,-513.2"/>
<text text-anchor="start" x="355" y="-520.3" font-family="Helvetica,sans-Serif" font-size="11.00" fill="#000000">ClaimValue</text>
<polygon fill="#ffffff" stroke="transparent" points="335,-494.2 335,-513.2 391,-513.2 391,-494.2 335,-494.2"/>
<polygon fill="none" stroke="#000000" points="335,-494.2 335,-513.2 391,-513.2 391,-494.2 335,-494.2"/>
<text text-anchor="start" x="338" y="-500.3" font-family="Helvetica,sans-Serif" font-size="11.00" fill="#000000">&lt; 1</text>
<polygon fill="#ffffff" stroke="transparent" points="391,-494.2 391,-513.2 421,-513.2 421,-494.2 391,-494.2"/>
<polygon fill="none" stroke="#000000" points="391,-494.2 391,-513.2 421,-513.2 421,-494.2 391,-494.2"/>
<text text-anchor="start" x="411.8862" y="-500.3" font-family="Helvetica,sans-Serif" font-size="11.00" fill="#000000"> &#160;</text>
<polygon fill="#ffffff" stroke="transparent" points="421,-494.2 421,-513.2 451,-513.2 451,-494.2 421,-494.2"/>
<polygon fill="none" stroke="#000000" points="421,-494.2 421,-513.2 451,-513.2 451,-494.2 421,-494.2"/>
<text text-anchor="start" x="441.8862" y="-500.3" font-family="Helvetica,sans-Serif" font-size="11.00" fill="#000000"> &#160;</text>
</a>
</g>
</g>
<!-- UserClaims&#45;&gt;Users -->
<g id="edge4" class="edge">
<title>UserClaims:w&#45;&gt;Users:e</title>
<path fill="none" stroke="#000000" d="M321.2099,-572.4518C279.5451,-597.1624 236.9278,-721.2 195.5,-721.2"/>
<polygon fill="#000000" stroke="#000000" points="327.3551,-570.5571 336.0607,-571.6402 331.1776,-569.3786 335,-568.2 335,-568.2 335,-568.2 331.1776,-569.3786 333.9393,-564.7598 327.3551,-570.5571 327.3551,-570.5571"/>
<ellipse fill="none" stroke="#000000" cx="324.2972" cy="-571.5" rx="3.2" ry="3.2"/>
</g>
<!-- UserLogins -->
<g id="node5" class="node">
<title>UserLogins</title>
<g id="a_node5"><a xlink:href="../../tables/UserLogins.html" xlink:title="UserLogins" target="_top">
<polygon fill="#ffffff" stroke="transparent" points="309.5,-277.2 309.5,-473.2 476.5,-473.2 476.5,-277.2 309.5,-277.2"/>
<polygon fill="#f5f5f5" stroke="transparent" points="310,-450.2 310,-473.2 477,-473.2 477,-450.2 310,-450.2"/>
<polygon fill="none" stroke="#000000" points="310,-450.2 310,-473.2 477,-473.2 477,-450.2 310,-450.2"/>
<text text-anchor="start" x="315" y="-458.8" font-family="Helvetica,sans-Serif" font-weight="bold" font-size="11.00" fill="#000000">UserLogins</text>
<text text-anchor="start" x="442.0437" y="-458.3" font-family="Helvetica,sans-Serif" font-size="11.00" fill="#000000">[table]</text>
<polygon fill="none" stroke="#000000" points="310,-428.2 310,-450.2 477,-450.2 477,-428.2 310,-428.2"/>
<image xlink:href="../../images/primaryKeys.png" width="11px" height="12px" preserveAspectRatio="xMinYMin meet" x="315" y="-445.2"/>
<text text-anchor="start" x="330" y="-435.3" font-family="Helvetica,sans-Serif" font-size="11.00" fill="#000000">LoginProvider</text>
<polygon fill="none" stroke="#000000" points="310,-406.2 310,-428.2 477,-428.2 477,-406.2 310,-406.2"/>
<image xlink:href="../../images/primaryKeys.png" width="11px" height="12px" preserveAspectRatio="xMinYMin meet" x="315" y="-423.2"/>
<text text-anchor="start" x="330" y="-413.3" font-family="Helvetica,sans-Serif" font-size="11.00" fill="#000000">ProviderKey</text>
<polygon fill="none" stroke="#000000" points="310,-384.2 310,-406.2 477,-406.2 477,-384.2 310,-384.2"/>
<text text-anchor="start" x="330" y="-391.3" font-family="Helvetica,sans-Serif" font-size="11.00" fill="#000000">CreatedAtUtc</text>
<polygon fill="none" stroke="#000000" points="310,-362.2 310,-384.2 477,-384.2 477,-362.2 310,-362.2"/>
<text text-anchor="start" x="330" y="-369.3" font-family="Helvetica,sans-Serif" font-size="11.00" fill="#000000">UpdatedAtUtc</text>
<polygon fill="none" stroke="#000000" points="310,-340.2 310,-362.2 477,-362.2 477,-340.2 310,-340.2"/>
<text text-anchor="start" x="330" y="-347.3" font-family="Helvetica,sans-Serif" font-size="11.00" fill="#000000">RowVersion</text>
<polygon fill="none" stroke="#000000" points="310,-318.2 310,-340.2 477,-340.2 477,-318.2 310,-318.2"/>
<text text-anchor="start" x="330" y="-325.3" font-family="Helvetica,sans-Serif" font-size="11.00" fill="#000000">ProviderDisplayName</text>
<polygon fill="#ffffff" stroke="transparent" points="310,-296.2 310,-318.2 477,-318.2 477,-296.2 310,-296.2"/>
<polygon fill="none" stroke="#000000" points="310,-296.2 310,-318.2 477,-318.2 477,-296.2 310,-296.2"/>
<image xlink:href="../../images/foreignKeys.png" width="11px" height="12px" preserveAspectRatio="xMinYMin meet" x="315" y="-313.2"/>
<text text-anchor="start" x="330" y="-303.3" font-family="Helvetica,sans-Serif" font-size="11.00" fill="#000000">UserId</text>
<polygon fill="#ffffff" stroke="transparent" points="310,-277.2 310,-296.2 392,-296.2 392,-277.2 310,-277.2"/>
<polygon fill="none" stroke="#000000" points="310,-277.2 310,-296.2 392,-296.2 392,-277.2 310,-277.2"/>
<text text-anchor="start" x="313" y="-283.3" font-family="Helvetica,sans-Serif" font-size="11.00" fill="#000000">&lt; 1</text>
<polygon fill="#ffffff" stroke="transparent" points="392,-277.2 392,-296.2 434,-296.2 434,-277.2 392,-277.2"/>
<polygon fill="none" stroke="#000000" points="392,-277.2 392,-296.2 434,-296.2 434,-277.2 392,-277.2"/>
<text text-anchor="start" x="424.8862" y="-283.3" font-family="Helvetica,sans-Serif" font-size="11.00" fill="#000000"> &#160;</text>
<polygon fill="#ffffff" stroke="transparent" points="434,-277.2 434,-296.2 477,-296.2 477,-277.2 434,-277.2"/>
<polygon fill="none" stroke="#000000" points="434,-277.2 434,-296.2 477,-296.2 477,-277.2 434,-277.2"/>
<text text-anchor="start" x="467.8862" y="-283.3" font-family="Helvetica,sans-Serif" font-size="11.00" fill="#000000"> &#160;</text>
</a>
</g>
</g>
<!-- UserLogins&#45;&gt;Users -->
<g id="edge5" class="edge">
<title>UserLogins:w&#45;&gt;Users:e</title>
<path fill="none" stroke="#000000" d="M295.4458,-308.2815C229.2388,-318.9649 258.2355,-406.819 236,-483.2 221.0045,-534.7109 249.1492,-721.2 195.5,-721.2"/>
<polygon fill="#000000" stroke="#000000" points="302.022,-307.7929 310.2668,-310.7901 306.011,-307.4964 310,-307.2 310,-307.2 310,-307.2 306.011,-307.4964 309.7332,-303.6099 302.022,-307.7929 302.022,-307.7929"/>
<ellipse fill="none" stroke="#000000" cx="298.8308" cy="-308.03" rx="3.2" ry="3.2"/>
</g>
<!-- UserRoles -->
<g id="node6" class="node">
<title>UserRoles</title>
<g id="a_node6"><a xlink:href="../../tables/UserRoles.html" xlink:title="UserRoles" target="_top">
<polygon fill="#ffffff" stroke="transparent" points="335,-1211.2 335,-1363.2 451,-1363.2 451,-1211.2 335,-1211.2"/>
<polygon fill="#f5f5f5" stroke="transparent" points="335,-1340.2 335,-1363.2 451,-1363.2 451,-1340.2 335,-1340.2"/>
<polygon fill="none" stroke="#000000" points="335,-1340.2 335,-1363.2 451,-1363.2 451,-1340.2 335,-1340.2"/>
<text text-anchor="start" x="340" y="-1348.8" font-family="Helvetica,sans-Serif" font-weight="bold" font-size="11.00" fill="#000000">UserRoles</text>
<text text-anchor="start" x="416.0437" y="-1348.3" font-family="Helvetica,sans-Serif" font-size="11.00" fill="#000000">[table]</text>
<polygon fill="none" stroke="#000000" points="335,-1318.2 335,-1340.2 451,-1340.2 451,-1318.2 335,-1318.2"/>
<image xlink:href="../../images/primaryKeys.png" width="11px" height="12px" preserveAspectRatio="xMinYMin meet" x="340" y="-1335.2"/>
<text text-anchor="start" x="355" y="-1325.3" font-family="Helvetica,sans-Serif" font-size="11.00" fill="#000000">UserId</text>
<polygon fill="none" stroke="#000000" points="335,-1296.2 335,-1318.2 451,-1318.2 451,-1296.2 335,-1296.2"/>
<image xlink:href="../../images/primaryKeys.png" width="11px" height="12px" preserveAspectRatio="xMinYMin meet" x="340" y="-1313.2"/>
<text text-anchor="start" x="355" y="-1303.3" font-family="Helvetica,sans-Serif" font-size="11.00" fill="#000000">RoleId</text>
<polygon fill="none" stroke="#000000" points="335,-1274.2 335,-1296.2 451,-1296.2 451,-1274.2 335,-1274.2"/>
<text text-anchor="start" x="355" y="-1281.3" font-family="Helvetica,sans-Serif" font-size="11.00" fill="#000000">CreatedAtUtc</text>
<polygon fill="none" stroke="#000000" points="335,-1252.2 335,-1274.2 451,-1274.2 451,-1252.2 335,-1252.2"/>
<text text-anchor="start" x="355" y="-1259.3" font-family="Helvetica,sans-Serif" font-size="11.00" fill="#000000">UpdatedAtUtc</text>
<polygon fill="none" stroke="#000000" points="335,-1230.2 335,-1252.2 451,-1252.2 451,-1230.2 335,-1230.2"/>
<text text-anchor="start" x="355" y="-1237.3" font-family="Helvetica,sans-Serif" font-size="11.00" fill="#000000">RowVersion</text>
<polygon fill="#ffffff" stroke="transparent" points="335,-1211.2 335,-1230.2 391,-1230.2 391,-1211.2 335,-1211.2"/>
<polygon fill="none" stroke="#000000" points="335,-1211.2 335,-1230.2 391,-1230.2 391,-1211.2 335,-1211.2"/>
<text text-anchor="start" x="338" y="-1217.3" font-family="Helvetica,sans-Serif" font-size="11.00" fill="#000000">&lt; 2</text>
<polygon fill="#ffffff" stroke="transparent" points="391,-1211.2 391,-1230.2 421,-1230.2 421,-1211.2 391,-1211.2"/>
<polygon fill="none" stroke="#000000" points="391,-1211.2 391,-1230.2 421,-1230.2 421,-1211.2 391,-1211.2"/>
<text text-anchor="start" x="411.8862" y="-1217.3" font-family="Helvetica,sans-Serif" font-size="11.00" fill="#000000"> &#160;</text>
<polygon fill="#ffffff" stroke="transparent" points="421,-1211.2 421,-1230.2 451,-1230.2 451,-1211.2 421,-1211.2"/>
<polygon fill="none" stroke="#000000" points="421,-1211.2 421,-1230.2 451,-1230.2 451,-1211.2 421,-1211.2"/>
<text text-anchor="start" x="441.8862" y="-1217.3" font-family="Helvetica,sans-Serif" font-size="11.00" fill="#000000"> &#160;</text>
</a>
</g>
</g>
<!-- UserRoles&#45;&gt;Roles -->
<g id="edge6" class="edge">
<title>UserRoles:w&#45;&gt;Roles:e</title>
<path fill="none" stroke="#000000" d="M320.4264,-1308.1483C256.3852,-1316.8302 249.2576,-1382.2 176.5,-1382.2"/>
<polygon fill="#000000" stroke="#000000" points="327.0169,-1307.7195 335.2338,-1310.7924 331.0084,-1307.4597 335,-1307.2 335,-1307.2 335,-1307.2 331.0084,-1307.4597 334.7662,-1303.6076 327.0169,-1307.7195 327.0169,-1307.7195"/>
<ellipse fill="none" stroke="#000000" cx="323.8236" cy="-1307.9273" rx="3.2" ry="3.2"/>
</g>
<!-- UserRoles&#45;&gt;Users -->
<g id="edge7" class="edge">
<title>UserRoles:w&#45;&gt;Users:e</title>
<path fill="none" stroke="#000000" d="M320.4832,-1328.2654C262.8068,-1320.3549 260.2056,-1263.3762 236,-1201.2 216.5827,-1151.3235 249.0228,-721.2 195.5,-721.2"/>
<polygon fill="#000000" stroke="#000000" points="327.0165,-1328.6859 334.7687,-1332.7926 331.0083,-1328.943 335,-1329.2 335,-1329.2 335,-1329.2 331.0083,-1328.943 335.2313,-1325.6074 327.0165,-1328.6859 327.0165,-1328.6859"/>
<ellipse fill="none" stroke="#000000" cx="323.8231" cy="-1328.4803" rx="3.2" ry="3.2"/>
</g>
<!-- Clinical.HospitalizationStatusHistories -->
<g id="node8" class="node">
<title>Clinical.HospitalizationStatusHistories</title>
<g id="a_node8"><a xlink:title="Clinical.HospitalizationStatusHistories">
<polygon fill="#ffffff" stroke="transparent" points="244,-38.2 244,-256.2 542,-256.2 542,-38.2 244,-38.2"/>
<polygon fill="#f5f5f5" stroke="transparent" points="244,-233.2 244,-256.2 542,-256.2 542,-233.2 244,-233.2"/>
<polygon fill="none" stroke="#000000" points="244,-233.2 244,-256.2 542,-256.2 542,-233.2 244,-233.2"/>
<text text-anchor="start" x="249" y="-241.8" font-family="Helvetica,sans-Serif" font-weight="bold" font-size="11.00" fill="#000000">Clinical.HospitalizationStatusHistories</text>
<text text-anchor="start" x="507.5219" y="-241.3" font-family="Helvetica,sans-Serif" font-size="11.00" fill="#000000">[table]</text>
<polygon fill="none" stroke="#000000" points="244,-211.2 244,-233.2 542,-233.2 542,-211.2 244,-211.2"/>
<text text-anchor="start" x="300" y="-218.3" font-family="Helvetica,sans-Serif" font-size="11.00" fill="#000000">Id</text>
<polygon fill="none" stroke="#000000" points="244,-189.2 244,-211.2 542,-211.2 542,-189.2 244,-189.2"/>
<text text-anchor="start" x="300" y="-196.3" font-family="Helvetica,sans-Serif" font-size="11.00" fill="#000000">HospitalizationId</text>
<polygon fill="none" stroke="#000000" points="244,-167.2 244,-189.2 542,-189.2 542,-167.2 244,-167.2"/>
<text text-anchor="start" x="300" y="-174.3" font-family="Helvetica,sans-Serif" font-size="11.00" fill="#000000">NewStatusId</text>
<polygon fill="none" stroke="#000000" points="244,-145.2 244,-167.2 542,-167.2 542,-145.2 244,-145.2"/>
<text text-anchor="start" x="300" y="-152.3" font-family="Helvetica,sans-Serif" font-size="11.00" fill="#000000">ChangedAt</text>
<polygon fill="none" stroke="#000000" points="244,-123.2 244,-145.2 542,-145.2 542,-123.2 244,-123.2"/>
<image xlink:href="../../images/foreignKeys.png" width="11px" height="12px" preserveAspectRatio="xMinYMin meet" x="249" y="-140.2"/>
<text text-anchor="start" x="300" y="-130.3" font-family="Helvetica,sans-Serif" font-size="11.00" fill="#000000">ChangedByUserId</text>
<polygon fill="none" stroke="#000000" points="244,-101.2 244,-123.2 542,-123.2 542,-101.2 244,-101.2"/>
<text text-anchor="start" x="300" y="-108.3" font-family="Helvetica,sans-Serif" font-size="11.00" fill="#000000">CreatedAtUtc</text>
<polygon fill="none" stroke="#000000" points="244,-79.2 244,-101.2 542,-101.2 542,-79.2 244,-79.2"/>
<text text-anchor="start" x="300" y="-86.3" font-family="Helvetica,sans-Serif" font-size="11.00" fill="#000000">UpdatedAtUtc</text>
<polygon fill="none" stroke="#000000" points="244,-57.2 244,-79.2 542,-79.2 542,-57.2 244,-57.2"/>
<text text-anchor="start" x="300" y="-64.3" font-family="Helvetica,sans-Serif" font-size="11.00" fill="#000000">RowVersion</text>
<polygon fill="#ffffff" stroke="transparent" points="244,-38.2 244,-57.2 391,-57.2 391,-38.2 244,-38.2"/>
<polygon fill="none" stroke="#000000" points="244,-38.2 244,-57.2 391,-57.2 391,-38.2 244,-38.2"/>
<text text-anchor="start" x="247" y="-44.3" font-family="Helvetica,sans-Serif" font-size="11.00" fill="#000000">&lt; 1</text>
<polygon fill="#ffffff" stroke="transparent" points="391,-38.2 391,-57.2 466,-57.2 466,-38.2 391,-38.2"/>
<polygon fill="none" stroke="#000000" points="391,-38.2 391,-57.2 466,-57.2 466,-38.2 391,-38.2"/>
<text text-anchor="start" x="456.8862" y="-44.3" font-family="Helvetica,sans-Serif" font-size="11.00" fill="#000000"> &#160;</text>
<polygon fill="#ffffff" stroke="transparent" points="466,-38.2 466,-57.2 542,-57.2 542,-38.2 466,-38.2"/>
<polygon fill="none" stroke="#000000" points="466,-38.2 466,-57.2 542,-57.2 542,-38.2 466,-38.2"/>
<text text-anchor="start" x="532.8862" y="-44.3" font-family="Helvetica,sans-Serif" font-size="11.00" fill="#000000"> &#160;</text>
</a>
</g>
</g>
<!-- Clinical.HospitalizationStatusHistories&#45;&gt;Users -->
<g id="edge1" class="edge">
<title>Clinical.HospitalizationStatusHistories:w&#45;&gt;Users:e</title>
<path fill="none" stroke="#000000" d="M232.0164,-142.9534C189.6913,-215.9743 256.2151,-721.2 195.5,-721.2"/>
<polygon fill="#000000" stroke="#000000" points="237.5399,-138.9188 246.1235,-137.1071 240.7699,-136.5594 244,-134.2 244,-134.2 244,-134.2 240.7699,-136.5594 241.8765,-131.2929 237.5399,-138.9188 237.5399,-138.9188"/>
<ellipse fill="none" stroke="#000000" cx="234.9558" cy="-140.8063" rx="3.2" ry="3.2"/>
</g>
<!-- Clinical.VisitEvents -->
<g id="node9" class="node">
<title>Clinical.VisitEvents</title>
<g id="a_node9"><a xlink:title="Clinical.VisitEvents">
<polygon fill="#ffffff" stroke="transparent" points="309,-928.2 309,-1190.2 477,-1190.2 477,-928.2 309,-928.2"/>
<polygon fill="#f5f5f5" stroke="transparent" points="309,-1167.2 309,-1190.2 477,-1190.2 477,-1167.2 309,-1167.2"/>
<polygon fill="none" stroke="#000000" points="309,-1167.2 309,-1190.2 477,-1190.2 477,-1167.2 309,-1167.2"/>
<text text-anchor="start" x="314" y="-1175.8" font-family="Helvetica,sans-Serif" font-weight="bold" font-size="11.00" fill="#000000">Clinical.VisitEvents</text>
<text text-anchor="start" x="442.5219" y="-1175.3" font-family="Helvetica,sans-Serif" font-size="11.00" fill="#000000">[table]</text>
<polygon fill="none" stroke="#000000" points="309,-1145.2 309,-1167.2 477,-1167.2 477,-1145.2 309,-1145.2"/>
<text text-anchor="start" x="346" y="-1152.3" font-family="Helvetica,sans-Serif" font-size="11.00" fill="#000000">Id</text>
<polygon fill="none" stroke="#000000" points="309,-1123.2 309,-1145.2 477,-1145.2 477,-1123.2 309,-1123.2"/>
<text text-anchor="start" x="346" y="-1130.3" font-family="Helvetica,sans-Serif" font-size="11.00" fill="#000000">VisitId</text>
<polygon fill="none" stroke="#000000" points="309,-1101.2 309,-1123.2 477,-1123.2 477,-1101.2 309,-1101.2"/>
<text text-anchor="start" x="346" y="-1108.3" font-family="Helvetica,sans-Serif" font-size="11.00" fill="#000000">EventTypeId</text>
<polygon fill="none" stroke="#000000" points="309,-1079.2 309,-1101.2 477,-1101.2 477,-1079.2 309,-1079.2"/>
<text text-anchor="start" x="346" y="-1086.3" font-family="Helvetica,sans-Serif" font-size="11.00" fill="#000000">EventOccurredAt</text>
<polygon fill="none" stroke="#000000" points="309,-1057.2 309,-1079.2 477,-1079.2 477,-1057.2 309,-1057.2"/>
<text text-anchor="start" x="346" y="-1064.3" font-family="Helvetica,sans-Serif" font-size="11.00" fill="#000000">Description</text>
<polygon fill="none" stroke="#000000" points="309,-1035.2 309,-1057.2 477,-1057.2 477,-1035.2 309,-1035.2"/>
<image xlink:href="../../images/foreignKeys.png" width="11px" height="12px" preserveAspectRatio="xMinYMin meet" x="314" y="-1052.2"/>
<text text-anchor="start" x="346" y="-1042.3" font-family="Helvetica,sans-Serif" font-size="11.00" fill="#000000">EnteredByUserId</text>
<polygon fill="none" stroke="#000000" points="309,-1013.2 309,-1035.2 477,-1035.2 477,-1013.2 309,-1013.2"/>
<text text-anchor="start" x="346" y="-1020.3" font-family="Helvetica,sans-Serif" font-size="11.00" fill="#000000">EmployeeId</text>
<polygon fill="none" stroke="#000000" points="309,-991.2 309,-1013.2 477,-1013.2 477,-991.2 309,-991.2"/>
<text text-anchor="start" x="346" y="-998.3" font-family="Helvetica,sans-Serif" font-size="11.00" fill="#000000">CreatedAtUtc</text>
<polygon fill="none" stroke="#000000" points="309,-969.2 309,-991.2 477,-991.2 477,-969.2 309,-969.2"/>
<text text-anchor="start" x="346" y="-976.3" font-family="Helvetica,sans-Serif" font-size="11.00" fill="#000000">UpdatedAtUtc</text>
<polygon fill="none" stroke="#000000" points="309,-947.2 309,-969.2 477,-969.2 477,-947.2 309,-947.2"/>
<text text-anchor="start" x="346" y="-954.3" font-family="Helvetica,sans-Serif" font-size="11.00" fill="#000000">RowVersion</text>
<polygon fill="#ffffff" stroke="transparent" points="309,-928.2 309,-947.2 391,-947.2 391,-928.2 309,-928.2"/>
<polygon fill="none" stroke="#000000" points="309,-928.2 309,-947.2 391,-947.2 391,-928.2 309,-928.2"/>
<text text-anchor="start" x="312" y="-934.3" font-family="Helvetica,sans-Serif" font-size="11.00" fill="#000000">&lt; 1</text>
<polygon fill="#ffffff" stroke="transparent" points="391,-928.2 391,-947.2 434,-947.2 434,-928.2 391,-928.2"/>
<polygon fill="none" stroke="#000000" points="391,-928.2 391,-947.2 434,-947.2 434,-928.2 391,-928.2"/>
<text text-anchor="start" x="424.8862" y="-934.3" font-family="Helvetica,sans-Serif" font-size="11.00" fill="#000000"> &#160;</text>
<polygon fill="#ffffff" stroke="transparent" points="434,-928.2 434,-947.2 477,-947.2 477,-928.2 434,-928.2"/>
<polygon fill="none" stroke="#000000" points="434,-928.2 434,-947.2 477,-947.2 477,-928.2 434,-928.2"/>
<text text-anchor="start" x="467.8862" y="-934.3" font-family="Helvetica,sans-Serif" font-size="11.00" fill="#000000"> &#160;</text>
</a>
</g>
</g>
<!-- Clinical.VisitEvents&#45;&gt;Users -->
<g id="edge2" class="edge">
<title>Clinical.VisitEvents:w&#45;&gt;Users:e</title>
<path fill="none" stroke="#000000" d="M294.454,-1044.8929C245.8076,-1035.2903 257.208,-974.4531 236,-918.2 220.2335,-876.38 240.1933,-721.2 195.5,-721.2"/>
<polygon fill="#000000" stroke="#000000" points="301.0321,-1045.484 308.6778,-1049.7856 305.0161,-1045.842 309,-1046.2 309,-1046.2 309,-1046.2 305.0161,-1045.842 309.3222,-1042.6144 301.0321,-1045.484 301.0321,-1045.484"/>
<ellipse fill="none" stroke="#000000" cx="297.8449" cy="-1045.1976" rx="3.2" ry="3.2"/>
</g>
</g>
</svg>
