<?xml version="1.0" encoding="UTF-8" standalone="no"?>
<!DOCTYPE svg PUBLIC "-//W3C//DTD SVG 1.1//EN"
 "http://www.w3.org/Graphics/SVG/1.1/DTD/svg11.dtd">
<!-- Generated by graphviz version 2.40.1 (20161225.0304)
 -->
<!-- Title: largeRelationshipsDiagram Pages: 1 -->
<svg width="407pt" height="617pt"
 viewBox="0.00 0.00 407.00 617.20" xmlns="http://www.w3.org/2000/svg" xmlns:xlink="http://www.w3.org/1999/xlink">
<g id="graph0" class="graph" transform="scale(1 1) rotate(0) translate(4 613.2)">
<title>largeRelationshipsDiagram</title>
<polygon fill="#ffffff" stroke="transparent" points="-4,4 -4,-613.2 403,-613.2 403,4 -4,4"/>
<text text-anchor="middle" x="72.4936" y="-7.3" font-family="Helvetica,sans-Serif" font-size="11.00" fill="#000000">Generated by SchemaSpy</text>
<!-- ProviderContracts -->
<g id="node1" class="node">
<title>ProviderContracts</title>
<g id="a_node1"><a xlink:href="../../tables/ProviderContracts.html" xlink:title="ProviderContracts" target="_top">
<polygon fill="#ffffff" stroke="transparent" points="219,-71.2 219,-289.2 391,-289.2 391,-71.2 219,-71.2"/>
<polygon fill="#f5f5f5" stroke="transparent" points="219,-266.2 219,-289.2 391,-289.2 391,-266.2 219,-266.2"/>
<polygon fill="none" stroke="#000000" points="219,-266.2 219,-289.2 391,-289.2 391,-266.2 219,-266.2"/>
<text text-anchor="start" x="224" y="-274.8" font-family="Helvetica,sans-Serif" font-weight="bold" font-size="11.00" fill="#000000">ProviderContracts</text>
<text text-anchor="start" x="356.5219" y="-274.3" font-family="Helvetica,sans-Serif" font-size="11.00" fill="#000000">[table]</text>
<polygon fill="none" stroke="#000000" points="219,-244.2 219,-266.2 391,-266.2 391,-244.2 219,-244.2"/>
<image xlink:href="../../images/primaryKeys.png" width="11px" height="12px" preserveAspectRatio="xMinYMin meet" x="224" y="-261.2"/>
<text text-anchor="start" x="248" y="-251.3" font-family="Helvetica,sans-Serif" font-size="11.00" fill="#000000">Id</text>
<polygon fill="#ffffff" stroke="transparent" points="219,-222.2 219,-244.2 391,-244.2 391,-222.2 219,-222.2"/>
<polygon fill="none" stroke="#000000" points="219,-222.2 219,-244.2 391,-244.2 391,-222.2 219,-222.2"/>
<image xlink:href="../../images/foreignKeys.png" width="11px" height="12px" preserveAspectRatio="xMinYMin meet" x="224" y="-239.2"/>
<text text-anchor="start" x="248" y="-229.3" font-family="Helvetica,sans-Serif" font-size="11.00" fill="#000000">EmployeeID</text>
<polygon fill="#ffffff" stroke="transparent" points="219,-200.2 219,-222.2 391,-222.2 391,-200.2 219,-200.2"/>
<polygon fill="none" stroke="#000000" points="219,-200.2 219,-222.2 391,-222.2 391,-200.2 219,-200.2"/>
<image xlink:href="../../images/foreignKeys.png" width="11px" height="12px" preserveAspectRatio="xMinYMin meet" x="224" y="-217.2"/>
<text text-anchor="start" x="248" y="-207.3" font-family="Helvetica,sans-Serif" font-size="11.00" fill="#000000">FacilityId</text>
<polygon fill="none" stroke="#000000" points="219,-178.2 219,-200.2 391,-200.2 391,-178.2 219,-178.2"/>
<text text-anchor="start" x="248" y="-185.3" font-family="Helvetica,sans-Serif" font-size="11.00" fill="#000000">StartDate</text>
<polygon fill="none" stroke="#000000" points="219,-156.2 219,-178.2 391,-178.2 391,-156.2 219,-156.2"/>
<text text-anchor="start" x="248" y="-163.3" font-family="Helvetica,sans-Serif" font-size="11.00" fill="#000000">EndDate</text>
<polygon fill="none" stroke="#000000" points="219,-134.2 219,-156.2 391,-156.2 391,-134.2 219,-134.2"/>
<text text-anchor="start" x="248" y="-141.3" font-family="Helvetica,sans-Serif" font-size="11.00" fill="#000000">CreatedAtUtc</text>
<polygon fill="none" stroke="#000000" points="219,-112.2 219,-134.2 391,-134.2 391,-112.2 219,-112.2"/>
<text text-anchor="start" x="248" y="-119.3" font-family="Helvetica,sans-Serif" font-size="11.00" fill="#000000">UpdatedAtUtc</text>
<polygon fill="none" stroke="#000000" points="219,-90.2 219,-112.2 391,-112.2 391,-90.2 219,-90.2"/>
<text text-anchor="start" x="248" y="-97.3" font-family="Helvetica,sans-Serif" font-size="11.00" fill="#000000">RowVersion</text>
<polygon fill="#ffffff" stroke="transparent" points="219,-71.2 219,-90.2 391,-90.2 391,-71.2 219,-71.2"/>
<polygon fill="none" stroke="#000000" points="219,-71.2 219,-90.2 391,-90.2 391,-71.2 219,-71.2"/>
<polygon fill="#ffffff" stroke="transparent" points="220,-72.2 220,-89.2 283,-89.2 283,-72.2 220,-72.2"/>
<text text-anchor="start" x="222" y="-77.3" font-family="Helvetica,sans-Serif" font-size="11.00" fill="#000000">&lt; 2</text>
<polygon fill="#ffffff" stroke="transparent" points="283,-72.2 283,-89.2 337,-89.2 337,-72.2 283,-72.2"/>
<text text-anchor="start" x="306.9431" y="-77.3" font-family="Helvetica,sans-Serif" font-size="11.00" fill="#000000"> &#160;</text>
<polygon fill="#ffffff" stroke="transparent" points="337,-72.2 337,-89.2 390,-89.2 390,-72.2 337,-72.2"/>
<text text-anchor="start" x="381.8862" y="-77.3" font-family="Helvetica,sans-Serif" font-size="11.00" fill="#000000"> &#160;</text>
<polygon fill="#000000" stroke="#000000" points="283,-72.2 283,-89.2 283,-89.2 283,-72.2 283,-72.2"/>
<polygon fill="#000000" stroke="#000000" points="337,-72.2 337,-89.2 337,-89.2 337,-72.2 337,-72.2"/>
</a>
</g>
</g>
<!-- Employees -->
<g id="node2" class="node">
<title>Employees</title>
<g id="a_node2"><a xlink:href="../../tables/Employees.html" xlink:title="Employees" target="_top">
<polygon fill="#ffffff" stroke="transparent" points="26.5,-233.2 26.5,-473.2 151.5,-473.2 151.5,-233.2 26.5,-233.2"/>
<polygon fill="#f5f5f5" stroke="transparent" points="27,-450.2 27,-473.2 152,-473.2 152,-450.2 27,-450.2"/>
<polygon fill="none" stroke="#000000" points="27,-450.2 27,-473.2 152,-473.2 152,-450.2 27,-450.2"/>
<text text-anchor="start" x="32" y="-458.8" font-family="Helvetica,sans-Serif" font-weight="bold" font-size="11.00" fill="#000000">Employees</text>
<text text-anchor="start" x="117.0437" y="-458.3" font-family="Helvetica,sans-Serif" font-size="11.00" fill="#000000">[table]</text>
<polygon fill="none" stroke="#000000" points="27,-428.2 27,-450.2 152,-450.2 152,-428.2 27,-428.2"/>
<image xlink:href="../../images/primaryKeys.png" width="11px" height="12px" preserveAspectRatio="xMinYMin meet" x="32" y="-445.2"/>
<text text-anchor="start" x="47" y="-435.3" font-family="Helvetica,sans-Serif" font-size="11.00" fill="#000000">Id</text>
<polygon fill="none" stroke="#000000" points="27,-406.2 27,-428.2 152,-428.2 152,-406.2 27,-406.2"/>
<text text-anchor="start" x="47" y="-413.3" font-family="Helvetica,sans-Serif" font-size="11.00" fill="#000000">FirstName</text>
<polygon fill="none" stroke="#000000" points="27,-384.2 27,-406.2 152,-406.2 152,-384.2 27,-384.2"/>
<text text-anchor="start" x="47" y="-391.3" font-family="Helvetica,sans-Serif" font-size="11.00" fill="#000000">LastName</text>
<polygon fill="none" stroke="#000000" points="27,-362.2 27,-384.2 152,-384.2 152,-362.2 27,-362.2"/>
<text text-anchor="start" x="47" y="-369.3" font-family="Helvetica,sans-Serif" font-size="11.00" fill="#000000">TitleExtension</text>
<polygon fill="none" stroke="#000000" points="27,-340.2 27,-362.2 152,-362.2 152,-340.2 27,-340.2"/>
<text text-anchor="start" x="47" y="-347.3" font-family="Helvetica,sans-Serif" font-size="11.00" fill="#000000">Role</text>
<polygon fill="none" stroke="#000000" points="27,-318.2 27,-340.2 152,-340.2 152,-318.2 27,-318.2"/>
<text text-anchor="start" x="47" y="-325.3" font-family="Helvetica,sans-Serif" font-size="11.00" fill="#000000">Email</text>
<polygon fill="none" stroke="#000000" points="27,-296.2 27,-318.2 152,-318.2 152,-296.2 27,-296.2"/>
<text text-anchor="start" x="47" y="-303.3" font-family="Helvetica,sans-Serif" font-size="11.00" fill="#000000">CreatedAtUtc</text>
<polygon fill="none" stroke="#000000" points="27,-274.2 27,-296.2 152,-296.2 152,-274.2 27,-274.2"/>
<text text-anchor="start" x="47" y="-281.3" font-family="Helvetica,sans-Serif" font-size="11.00" fill="#000000">UpdatedAtUtc</text>
<polygon fill="none" stroke="#000000" points="27,-252.2 27,-274.2 152,-274.2 152,-252.2 27,-252.2"/>
<text text-anchor="start" x="47" y="-259.3" font-family="Helvetica,sans-Serif" font-size="11.00" fill="#000000">RowVersion</text>
<polygon fill="#ffffff" stroke="transparent" points="27,-233.2 27,-252.2 152,-252.2 152,-233.2 27,-233.2"/>
<polygon fill="none" stroke="#000000" points="27,-233.2 27,-252.2 152,-252.2 152,-233.2 27,-233.2"/>
<polygon fill="#ffffff" stroke="transparent" points="28,-234.2 28,-251.2 66,-251.2 66,-234.2 28,-234.2"/>
<text text-anchor="start" x="30" y="-239.3" font-family="Helvetica,sans-Serif" font-size="11.00" fill="#000000"> &#160;</text>
<polygon fill="#ffffff" stroke="transparent" points="66,-234.2 66,-251.2 104,-251.2 104,-234.2 66,-234.2"/>
<text text-anchor="start" x="81.9431" y="-239.3" font-family="Helvetica,sans-Serif" font-size="11.00" fill="#000000"> &#160;</text>
<polygon fill="#ffffff" stroke="transparent" points="104,-234.2 104,-251.2 151,-251.2 151,-234.2 104,-234.2"/>
<text text-anchor="start" x="133.4053" y="-239.3" font-family="Helvetica,sans-Serif" font-size="11.00" fill="#000000">2 &gt;</text>
<polygon fill="#000000" stroke="#000000" points="66,-234.2 66,-251.2 66,-251.2 66,-234.2 66,-234.2"/>
<polygon fill="#000000" stroke="#000000" points="104,-234.2 104,-251.2 104,-251.2 104,-234.2 104,-234.2"/>
</a>
</g>
</g>
<!-- ProviderContracts&#45;&gt;Employees -->
<g id="edge2" class="edge">
<title>ProviderContracts:w&#45;&gt;Employees:e</title>
<path fill="none" stroke="#000000" d="M204.6949,-235.1078C136.2348,-255.8751 242.8232,-439.2 152,-439.2"/>
<polygon fill="#000000" stroke="#000000" points="211.0702,-234.2576 219.4759,-236.7684 215.0351,-233.7288 219,-233.2 219,-233.2 219,-233.2 215.0351,-233.7288 218.5241,-229.6316 211.0702,-234.2576 211.0702,-234.2576"/>
<ellipse fill="none" stroke="#000000" cx="207.8983" cy="-234.6806" rx="3.2" ry="3.2"/>
</g>
<!-- Clinical.Facilities -->
<g id="node3" class="node">
<title>Clinical.Facilities</title>
<g id="a_node3"><a xlink:title="Clinical.Facilities">
<polygon fill="#ffffff" stroke="transparent" points="8,-38.2 8,-212.2 170,-212.2 170,-38.2 8,-38.2"/>
<polygon fill="#f5f5f5" stroke="transparent" points="8,-189.2 8,-212.2 170,-212.2 170,-189.2 8,-189.2"/>
<polygon fill="none" stroke="#000000" points="8,-189.2 8,-212.2 170,-212.2 170,-189.2 8,-189.2"/>
<text text-anchor="start" x="13" y="-197.8" font-family="Helvetica,sans-Serif" font-weight="bold" font-size="11.00" fill="#000000">Clinical.Facilities</text>
<text text-anchor="start" x="135.5219" y="-197.3" font-family="Helvetica,sans-Serif" font-size="11.00" fill="#000000">[table]</text>
<polygon fill="none" stroke="#000000" points="8,-167.2 8,-189.2 170,-189.2 170,-167.2 8,-167.2"/>
<text text-anchor="start" x="47" y="-174.3" font-family="Helvetica,sans-Serif" font-size="11.00" fill="#000000">Id</text>
<polygon fill="none" stroke="#000000" points="8,-145.2 8,-167.2 170,-167.2 170,-145.2 8,-145.2"/>
<text text-anchor="start" x="47" y="-152.3" font-family="Helvetica,sans-Serif" font-size="11.00" fill="#000000">Name</text>
<polygon fill="none" stroke="#000000" points="8,-123.2 8,-145.2 170,-145.2 170,-123.2 8,-123.2"/>
<text text-anchor="start" x="47" y="-130.3" font-family="Helvetica,sans-Serif" font-size="11.00" fill="#000000">Abbreviation</text>
<polygon fill="none" stroke="#000000" points="8,-101.2 8,-123.2 170,-123.2 170,-101.2 8,-101.2"/>
<text text-anchor="start" x="47" y="-108.3" font-family="Helvetica,sans-Serif" font-size="11.00" fill="#000000">CreatedAtUtc</text>
<polygon fill="none" stroke="#000000" points="8,-79.2 8,-101.2 170,-101.2 170,-79.2 8,-79.2"/>
<text text-anchor="start" x="47" y="-86.3" font-family="Helvetica,sans-Serif" font-size="11.00" fill="#000000">UpdatedAtUtc</text>
<polygon fill="none" stroke="#000000" points="8,-57.2 8,-79.2 170,-79.2 170,-57.2 8,-57.2"/>
<text text-anchor="start" x="47" y="-64.3" font-family="Helvetica,sans-Serif" font-size="11.00" fill="#000000">RowVersion</text>
<polygon fill="#ffffff" stroke="transparent" points="8,-38.2 8,-57.2 170,-57.2 170,-38.2 8,-38.2"/>
<polygon fill="none" stroke="#000000" points="8,-38.2 8,-57.2 170,-57.2 170,-38.2 8,-38.2"/>
<polygon fill="#ffffff" stroke="transparent" points="9,-39.2 9,-56.2 60,-56.2 60,-39.2 9,-39.2"/>
<text text-anchor="start" x="11" y="-44.3" font-family="Helvetica,sans-Serif" font-size="11.00" fill="#000000"> &#160;</text>
<polygon fill="#ffffff" stroke="transparent" points="60,-39.2 60,-56.2 110,-56.2 110,-39.2 60,-39.2"/>
<text text-anchor="start" x="81.9431" y="-44.3" font-family="Helvetica,sans-Serif" font-size="11.00" fill="#000000"> &#160;</text>
<polygon fill="#ffffff" stroke="transparent" points="110,-39.2 110,-56.2 169,-56.2 169,-39.2 110,-39.2"/>
<text text-anchor="start" x="151.4053" y="-44.3" font-family="Helvetica,sans-Serif" font-size="11.00" fill="#000000">1 &gt;</text>
<polygon fill="#000000" stroke="#000000" points="60,-39.2 60,-56.2 60,-56.2 60,-39.2 60,-39.2"/>
<polygon fill="#000000" stroke="#000000" points="110,-39.2 110,-56.2 110,-56.2 110,-39.2 110,-39.2"/>
</a>
</g>
</g>
<!-- ProviderContracts&#45;&gt;Clinical.Facilities -->
<g id="edge3" class="edge">
<title>ProviderContracts:w&#45;&gt;Clinical.Facilities:e</title>
<path fill="none" stroke="#000000" d="M205.0457,-206.8858C192.8073,-197.9408 190.3075,-178.2 170,-178.2"/>
<polygon fill="#000000" stroke="#000000" points="211.3569,-208.837 217.9366,-214.6394 215.1785,-210.0185 219,-211.2 219,-211.2 219,-211.2 215.1785,-210.0185 220.0634,-207.7606 211.3569,-208.837 211.3569,-208.837"/>
<ellipse fill="none" stroke="#000000" cx="208.2997" cy="-207.8918" rx="3.2" ry="3.2"/>
</g>
<!-- Clinical.Providers -->
<g id="node4" class="node">
<title>Clinical.Providers</title>
<g id="a_node4"><a xlink:title="Clinical.Providers">
<polygon fill="#ffffff" stroke="transparent" points="221.5,-343.2 221.5,-605.2 388.5,-605.2 388.5,-343.2 221.5,-343.2"/>
<polygon fill="#f5f5f5" stroke="transparent" points="222,-582.2 222,-605.2 389,-605.2 389,-582.2 222,-582.2"/>
<polygon fill="none" stroke="#000000" points="222,-582.2 222,-605.2 389,-605.2 389,-582.2 222,-582.2"/>
<text text-anchor="start" x="227" y="-590.8" font-family="Helvetica,sans-Serif" font-weight="bold" font-size="11.00" fill="#000000">Clinical.Providers</text>
<text text-anchor="start" x="354.5219" y="-590.3" font-family="Helvetica,sans-Serif" font-size="11.00" fill="#000000">[table]</text>
<polygon fill="none" stroke="#000000" points="222,-560.2 222,-582.2 389,-582.2 389,-560.2 222,-560.2"/>
<text text-anchor="start" x="263" y="-567.3" font-family="Helvetica,sans-Serif" font-size="11.00" fill="#000000">Id</text>
<polygon fill="none" stroke="#000000" points="222,-538.2 222,-560.2 389,-560.2 389,-538.2 222,-538.2"/>
<text text-anchor="start" x="263" y="-545.3" font-family="Helvetica,sans-Serif" font-size="11.00" fill="#000000">FirstName</text>
<polygon fill="none" stroke="#000000" points="222,-516.2 222,-538.2 389,-538.2 389,-516.2 222,-516.2"/>
<text text-anchor="start" x="263" y="-523.3" font-family="Helvetica,sans-Serif" font-size="11.00" fill="#000000">LastName</text>
<polygon fill="none" stroke="#000000" points="222,-494.2 222,-516.2 389,-516.2 389,-494.2 222,-494.2"/>
<text text-anchor="start" x="263" y="-501.3" font-family="Helvetica,sans-Serif" font-size="11.00" fill="#000000">TitleExtension</text>
<polygon fill="none" stroke="#000000" points="222,-472.2 222,-494.2 389,-494.2 389,-472.2 222,-472.2"/>
<text text-anchor="start" x="263" y="-479.3" font-family="Helvetica,sans-Serif" font-size="11.00" fill="#000000">Type</text>
<polygon fill="none" stroke="#000000" points="222,-450.2 222,-472.2 389,-472.2 389,-450.2 222,-450.2"/>
<text text-anchor="start" x="263" y="-457.3" font-family="Helvetica,sans-Serif" font-size="11.00" fill="#000000">Email</text>
<polygon fill="none" stroke="#000000" points="222,-428.2 222,-450.2 389,-450.2 389,-428.2 222,-428.2"/>
<image xlink:href="../../images/foreignKeys.png" width="11px" height="12px" preserveAspectRatio="xMinYMin meet" x="227" y="-445.2"/>
<text text-anchor="start" x="263" y="-435.3" font-family="Helvetica,sans-Serif" font-size="11.00" fill="#000000">EmployeeId</text>
<polygon fill="none" stroke="#000000" points="222,-406.2 222,-428.2 389,-428.2 389,-406.2 222,-406.2"/>
<text text-anchor="start" x="263" y="-413.3" font-family="Helvetica,sans-Serif" font-size="11.00" fill="#000000">CreatedAtUtc</text>
<polygon fill="none" stroke="#000000" points="222,-384.2 222,-406.2 389,-406.2 389,-384.2 222,-384.2"/>
<text text-anchor="start" x="263" y="-391.3" font-family="Helvetica,sans-Serif" font-size="11.00" fill="#000000">UpdatedAtUtc</text>
<polygon fill="none" stroke="#000000" points="222,-362.2 222,-384.2 389,-384.2 389,-362.2 222,-362.2"/>
<text text-anchor="start" x="263" y="-369.3" font-family="Helvetica,sans-Serif" font-size="11.00" fill="#000000">RowVersion</text>
<polygon fill="#ffffff" stroke="transparent" points="222,-343.2 222,-362.2 389,-362.2 389,-343.2 222,-343.2"/>
<polygon fill="none" stroke="#000000" points="222,-343.2 222,-362.2 389,-362.2 389,-343.2 222,-343.2"/>
<polygon fill="#ffffff" stroke="transparent" points="223,-344.2 223,-361.2 284,-361.2 284,-344.2 223,-344.2"/>
<text text-anchor="start" x="225" y="-349.3" font-family="Helvetica,sans-Serif" font-size="11.00" fill="#000000">&lt; 1</text>
<polygon fill="#ffffff" stroke="transparent" points="284,-344.2 284,-361.2 336,-361.2 336,-344.2 284,-344.2"/>
<text text-anchor="start" x="306.9431" y="-349.3" font-family="Helvetica,sans-Serif" font-size="11.00" fill="#000000"> &#160;</text>
<polygon fill="#ffffff" stroke="transparent" points="336,-344.2 336,-361.2 388,-361.2 388,-344.2 336,-344.2"/>
<text text-anchor="start" x="379.8862" y="-349.3" font-family="Helvetica,sans-Serif" font-size="11.00" fill="#000000"> &#160;</text>
<polygon fill="#000000" stroke="#000000" points="284,-344.2 284,-361.2 284,-361.2 284,-344.2 284,-344.2"/>
<polygon fill="#000000" stroke="#000000" points="336,-344.2 336,-361.2 336,-361.2 336,-344.2 336,-344.2"/>
</a>
</g>
</g>
<!-- Clinical.Providers&#45;&gt;Employees -->
<g id="edge1" class="edge">
<title>Clinical.Providers:w&#45;&gt;Employees:e</title>
<path fill="none" stroke="#000000" d="M207.5032,-439.2C187.4335,-439.2 177.6424,-439.2 152,-439.2"/>
<polygon fill="#000000" stroke="#000000" points="214,-439.2001 222,-442.8 218,-439.2 222,-439.2 222,-439.2 222,-439.2 218,-439.2 222,-435.6 214,-439.2001 214,-439.2001"/>
<ellipse fill="none" stroke="#000000" cx="210.8" cy="-439.2001" rx="3.2" ry="3.2"/>
</g>
</g>
</svg>
