<?xml version="1.0" encoding="UTF-8" standalone="no"?>
<!DOCTYPE svg PUBLIC "-//W3C//DTD SVG 1.1//EN"
 "http://www.w3.org/Graphics/SVG/1.1/DTD/svg11.dtd">
<!-- Generated by graphviz version 2.40.1 (20161225.0304)
 -->
<!-- Title: compactRelationshipsDiagram Pages: 1 -->
<svg width="407pt" height="281pt"
 viewBox="0.00 0.00 407.00 281.20" xmlns="http://www.w3.org/2000/svg" xmlns:xlink="http://www.w3.org/1999/xlink">
<g id="graph0" class="graph" transform="scale(1 1) rotate(0) translate(4 277.2)">
<title>compactRelationshipsDiagram</title>
<polygon fill="#ffffff" stroke="transparent" points="-4,4 -4,-277.2 403,-277.2 403,4 -4,4"/>
<text text-anchor="middle" x="72.4936" y="-7.3" font-family="Helvetica,sans-Serif" font-size="11.00" fill="#000000">Generated by SchemaSpy</text>
<!-- ProviderContracts -->
<g id="node1" class="node">
<title>ProviderContracts</title>
<g id="a_node1"><a xlink:href="../../tables/ProviderContracts.html" xlink:title="ProviderContracts" target="_top">
<polygon fill="#ffffff" stroke="transparent" points="219,-38.2 219,-165.2 391,-165.2 391,-38.2 219,-38.2"/>
<polygon fill="#f5f5f5" stroke="transparent" points="219,-141.7 219,-164.7 391,-164.7 391,-141.7 219,-141.7"/>
<polygon fill="none" stroke="#000000" points="219,-141.7 219,-164.7 391,-164.7 391,-141.7 219,-141.7"/>
<text text-anchor="start" x="224" y="-150.3" font-family="Helvetica,sans-Serif" font-weight="bold" font-size="11.00" fill="#000000">ProviderContracts</text>
<text text-anchor="start" x="356.5219" y="-149.8" font-family="Helvetica,sans-Serif" font-size="11.00" fill="#000000">[table]</text>
<polygon fill="none" stroke="#000000" points="219,-119.7 219,-141.7 391,-141.7 391,-119.7 219,-119.7"/>
<image xlink:href="../../images/primaryKeys.png" width="11px" height="12px" preserveAspectRatio="xMinYMin meet" x="224" y="-136.7"/>
<text text-anchor="start" x="248" y="-126.8" font-family="Helvetica,sans-Serif" font-size="11.00" fill="#000000">Id</text>
<polygon fill="#ffffff" stroke="transparent" points="219,-97.7 219,-119.7 391,-119.7 391,-97.7 219,-97.7"/>
<polygon fill="none" stroke="#000000" points="219,-97.7 219,-119.7 391,-119.7 391,-97.7 219,-97.7"/>
<image xlink:href="../../images/foreignKeys.png" width="11px" height="12px" preserveAspectRatio="xMinYMin meet" x="224" y="-114.7"/>
<text text-anchor="start" x="248" y="-104.8" font-family="Helvetica,sans-Serif" font-size="11.00" fill="#000000">EmployeeID</text>
<polygon fill="#ffffff" stroke="transparent" points="219,-75.7 219,-97.7 391,-97.7 391,-75.7 219,-75.7"/>
<polygon fill="none" stroke="#000000" points="219,-75.7 219,-97.7 391,-97.7 391,-75.7 219,-75.7"/>
<image xlink:href="../../images/foreignKeys.png" width="11px" height="12px" preserveAspectRatio="xMinYMin meet" x="224" y="-92.7"/>
<text text-anchor="start" x="248" y="-82.8" font-family="Helvetica,sans-Serif" font-size="11.00" fill="#000000">FacilityId</text>
<polygon fill="none" stroke="#000000" points="219,-56.7 219,-75.7 391,-75.7 391,-56.7 219,-56.7"/>
<text text-anchor="start" x="222" y="-62.8" font-family="Helvetica,sans-Serif" font-size="11.00" fill="#000000">...</text>
<polygon fill="#ffffff" stroke="transparent" points="219,-37.7 219,-56.7 391,-56.7 391,-37.7 219,-37.7"/>
<polygon fill="none" stroke="#000000" points="219,-37.7 219,-56.7 391,-56.7 391,-37.7 219,-37.7"/>
<polygon fill="#ffffff" stroke="transparent" points="220,-38.7 220,-55.7 283,-55.7 283,-38.7 220,-38.7"/>
<text text-anchor="start" x="222" y="-43.8" font-family="Helvetica,sans-Serif" font-size="11.00" fill="#000000">&lt; 2</text>
<polygon fill="#ffffff" stroke="transparent" points="283,-38.7 283,-55.7 337,-55.7 337,-38.7 283,-38.7"/>
<text text-anchor="start" x="306.9431" y="-43.8" font-family="Helvetica,sans-Serif" font-size="11.00" fill="#000000"> &#160;</text>
<polygon fill="#ffffff" stroke="transparent" points="337,-38.7 337,-55.7 390,-55.7 390,-38.7 337,-38.7"/>
<text text-anchor="start" x="381.8862" y="-43.8" font-family="Helvetica,sans-Serif" font-size="11.00" fill="#000000"> &#160;</text>
<polygon fill="#000000" stroke="#000000" points="283,-38.7 283,-55.7 283,-55.7 283,-38.7 283,-38.7"/>
<polygon fill="#000000" stroke="#000000" points="337,-38.7 337,-55.7 337,-55.7 337,-38.7 337,-38.7"/>
</a>
</g>
</g>
<!-- Employees -->
<g id="node2" class="node">
<title>Employees</title>
<g id="a_node2"><a xlink:href="../../tables/Employees.html" xlink:title="Employees" target="_top">
<polygon fill="#ffffff" stroke="transparent" points="26.5,-162.2 26.5,-245.2 151.5,-245.2 151.5,-162.2 26.5,-162.2"/>
<polygon fill="#f5f5f5" stroke="transparent" points="27,-221.7 27,-244.7 152,-244.7 152,-221.7 27,-221.7"/>
<polygon fill="none" stroke="#000000" points="27,-221.7 27,-244.7 152,-244.7 152,-221.7 27,-221.7"/>
<text text-anchor="start" x="32" y="-230.3" font-family="Helvetica,sans-Serif" font-weight="bold" font-size="11.00" fill="#000000">Employees</text>
<text text-anchor="start" x="117.0437" y="-229.8" font-family="Helvetica,sans-Serif" font-size="11.00" fill="#000000">[table]</text>
<polygon fill="none" stroke="#000000" points="27,-199.7 27,-221.7 152,-221.7 152,-199.7 27,-199.7"/>
<image xlink:href="../../images/primaryKeys.png" width="11px" height="12px" preserveAspectRatio="xMinYMin meet" x="32" y="-216.7"/>
<text text-anchor="start" x="47" y="-206.8" font-family="Helvetica,sans-Serif" font-size="11.00" fill="#000000">Id</text>
<polygon fill="none" stroke="#000000" points="27,-180.7 27,-199.7 152,-199.7 152,-180.7 27,-180.7"/>
<text text-anchor="start" x="30" y="-186.8" font-family="Helvetica,sans-Serif" font-size="11.00" fill="#000000">...</text>
<polygon fill="#ffffff" stroke="transparent" points="27,-161.7 27,-180.7 152,-180.7 152,-161.7 27,-161.7"/>
<polygon fill="none" stroke="#000000" points="27,-161.7 27,-180.7 152,-180.7 152,-161.7 27,-161.7"/>
<polygon fill="#ffffff" stroke="transparent" points="28,-162.7 28,-179.7 66,-179.7 66,-162.7 28,-162.7"/>
<text text-anchor="start" x="30" y="-167.8" font-family="Helvetica,sans-Serif" font-size="11.00" fill="#000000"> &#160;</text>
<polygon fill="#ffffff" stroke="transparent" points="66,-162.7 66,-179.7 104,-179.7 104,-162.7 66,-162.7"/>
<text text-anchor="start" x="81.9431" y="-167.8" font-family="Helvetica,sans-Serif" font-size="11.00" fill="#000000"> &#160;</text>
<polygon fill="#ffffff" stroke="transparent" points="104,-162.7 104,-179.7 151,-179.7 151,-162.7 104,-162.7"/>
<text text-anchor="start" x="133.4053" y="-167.8" font-family="Helvetica,sans-Serif" font-size="11.00" fill="#000000">2 &gt;</text>
<polygon fill="#000000" stroke="#000000" points="66,-162.7 66,-179.7 66,-179.7 66,-162.7 66,-162.7"/>
<polygon fill="#000000" stroke="#000000" points="104,-162.7 104,-179.7 104,-179.7 104,-162.7 104,-162.7"/>
</a>
</g>
</g>
<!-- ProviderContracts&#45;&gt;Employees -->
<g id="edge2" class="edge">
<title>ProviderContracts:w&#45;&gt;Employees:e</title>
<path fill="none" stroke="#000000" d="M204.8081,-111.8645C172.4458,-129.081 200.5181,-210.7 152,-210.7"/>
<polygon fill="#000000" stroke="#000000" points="211.1918,-110.4411 219.7835,-112.2137 215.0959,-109.5706 219,-108.7 219,-108.7 219,-108.7 215.0959,-109.5706 218.2165,-105.1863 211.1918,-110.4411 211.1918,-110.4411"/>
<ellipse fill="none" stroke="#000000" cx="208.0685" cy="-111.1376" rx="3.2" ry="3.2"/>
</g>
<!-- Clinical.Facilities -->
<g id="node3" class="node">
<title>Clinical.Facilities</title>
<g id="a_node3"><a xlink:title="Clinical.Facilities">
<polygon fill="#ffffff" stroke="transparent" points="8,-56.2 8,-117.2 170,-117.2 170,-56.2 8,-56.2"/>
<polygon fill="#f5f5f5" stroke="transparent" points="8,-93.7 8,-116.7 170,-116.7 170,-93.7 8,-93.7"/>
<polygon fill="none" stroke="#000000" points="8,-93.7 8,-116.7 170,-116.7 170,-93.7 8,-93.7"/>
<text text-anchor="start" x="13" y="-102.3" font-family="Helvetica,sans-Serif" font-weight="bold" font-size="11.00" fill="#000000">Clinical.Facilities</text>
<text text-anchor="start" x="135.5219" y="-101.8" font-family="Helvetica,sans-Serif" font-size="11.00" fill="#000000">[table]</text>
<polygon fill="none" stroke="#000000" points="8,-74.7 8,-93.7 170,-93.7 170,-74.7 8,-74.7"/>
<text text-anchor="start" x="11" y="-80.8" font-family="Helvetica,sans-Serif" font-size="11.00" fill="#000000">...</text>
<polygon fill="#ffffff" stroke="transparent" points="8,-55.7 8,-74.7 170,-74.7 170,-55.7 8,-55.7"/>
<polygon fill="none" stroke="#000000" points="8,-55.7 8,-74.7 170,-74.7 170,-55.7 8,-55.7"/>
<polygon fill="#ffffff" stroke="transparent" points="9,-56.7 9,-73.7 60,-73.7 60,-56.7 9,-56.7"/>
<text text-anchor="start" x="11" y="-61.8" font-family="Helvetica,sans-Serif" font-size="11.00" fill="#000000"> &#160;</text>
<polygon fill="#ffffff" stroke="transparent" points="60,-56.7 60,-73.7 110,-73.7 110,-56.7 60,-56.7"/>
<text text-anchor="start" x="81.9431" y="-61.8" font-family="Helvetica,sans-Serif" font-size="11.00" fill="#000000"> &#160;</text>
<polygon fill="#ffffff" stroke="transparent" points="110,-56.7 110,-73.7 169,-73.7 169,-56.7 110,-56.7"/>
<text text-anchor="start" x="151.4053" y="-61.8" font-family="Helvetica,sans-Serif" font-size="11.00" fill="#000000">1 &gt;</text>
<polygon fill="#000000" stroke="#000000" points="60,-56.7 60,-73.7 60,-73.7 60,-56.7 60,-56.7"/>
<polygon fill="#000000" stroke="#000000" points="110,-56.7 110,-73.7 110,-73.7 110,-56.7 110,-56.7"/>
</a>
</g>
</g>
<!-- ProviderContracts&#45;&gt;Clinical.Facilities -->
<g id="edge3" class="edge">
<title>ProviderContracts:w&#45;&gt;Clinical.Facilities:e</title>
<path fill="none" stroke="#000000" d="M204.5211,-86.7C195.8011,-86.7 186.9241,-86.7 178.162,-86.7"/>
<polygon fill="#000000" stroke="#000000" points="211,-86.7001 219,-90.3 215,-86.7 219,-86.7 219,-86.7 219,-86.7 215,-86.7 219,-83.1 211,-86.7001 211,-86.7001"/>
<ellipse fill="none" stroke="#000000" cx="207.8" cy="-86.7001" rx="3.2" ry="3.2"/>
</g>
<!-- Clinical.Providers -->
<g id="node4" class="node">
<title>Clinical.Providers</title>
<g id="a_node4"><a xlink:title="Clinical.Providers">
<polygon fill="#ffffff" stroke="transparent" points="221.5,-186.2 221.5,-269.2 388.5,-269.2 388.5,-186.2 221.5,-186.2"/>
<polygon fill="#f5f5f5" stroke="transparent" points="222,-245.7 222,-268.7 389,-268.7 389,-245.7 222,-245.7"/>
<polygon fill="none" stroke="#000000" points="222,-245.7 222,-268.7 389,-268.7 389,-245.7 222,-245.7"/>
<text text-anchor="start" x="227" y="-254.3" font-family="Helvetica,sans-Serif" font-weight="bold" font-size="11.00" fill="#000000">Clinical.Providers</text>
<text text-anchor="start" x="354.5219" y="-253.8" font-family="Helvetica,sans-Serif" font-size="11.00" fill="#000000">[table]</text>
<polygon fill="none" stroke="#000000" points="222,-223.7 222,-245.7 389,-245.7 389,-223.7 222,-223.7"/>
<image xlink:href="../../images/foreignKeys.png" width="11px" height="12px" preserveAspectRatio="xMinYMin meet" x="227" y="-240.7"/>
<text text-anchor="start" x="263" y="-230.8" font-family="Helvetica,sans-Serif" font-size="11.00" fill="#000000">EmployeeId</text>
<polygon fill="none" stroke="#000000" points="222,-204.7 222,-223.7 389,-223.7 389,-204.7 222,-204.7"/>
<text text-anchor="start" x="225" y="-210.8" font-family="Helvetica,sans-Serif" font-size="11.00" fill="#000000">...</text>
<polygon fill="#ffffff" stroke="transparent" points="222,-185.7 222,-204.7 389,-204.7 389,-185.7 222,-185.7"/>
<polygon fill="none" stroke="#000000" points="222,-185.7 222,-204.7 389,-204.7 389,-185.7 222,-185.7"/>
<polygon fill="#ffffff" stroke="transparent" points="223,-186.7 223,-203.7 284,-203.7 284,-186.7 223,-186.7"/>
<text text-anchor="start" x="225" y="-191.8" font-family="Helvetica,sans-Serif" font-size="11.00" fill="#000000">&lt; 1</text>
<polygon fill="#ffffff" stroke="transparent" points="284,-186.7 284,-203.7 336,-203.7 336,-186.7 284,-186.7"/>
<text text-anchor="start" x="306.9431" y="-191.8" font-family="Helvetica,sans-Serif" font-size="11.00" fill="#000000"> &#160;</text>
<polygon fill="#ffffff" stroke="transparent" points="336,-186.7 336,-203.7 388,-203.7 388,-186.7 336,-186.7"/>
<text text-anchor="start" x="379.8862" y="-191.8" font-family="Helvetica,sans-Serif" font-size="11.00" fill="#000000"> &#160;</text>
<polygon fill="#000000" stroke="#000000" points="284,-186.7 284,-203.7 284,-203.7 284,-186.7 284,-186.7"/>
<polygon fill="#000000" stroke="#000000" points="336,-186.7 336,-203.7 336,-203.7 336,-186.7 336,-186.7"/>
</a>
</g>
</g>
<!-- Clinical.Providers&#45;&gt;Employees -->
<g id="edge1" class="edge">
<title>Clinical.Providers:w&#45;&gt;Employees:e</title>
<path fill="none" stroke="#000000" d="M207.5817,-232.8961C186.8839,-227.3146 179.3646,-210.7 152,-210.7"/>
<polygon fill="#000000" stroke="#000000" points="214.0619,-233.7068 221.5531,-238.2722 218.0309,-234.2034 222,-234.7 222,-234.7 222,-234.7 218.0309,-234.2034 222.4469,-231.1278 214.0619,-233.7068 214.0619,-233.7068"/>
<ellipse fill="none" stroke="#000000" cx="210.8866" cy="-233.3095" rx="3.2" ry="3.2"/>
</g>
</g>
</svg>
