<?xml version="1.0" encoding="UTF-8" standalone="no"?>
<!DOCTYPE svg PUBLIC "-//W3C//DTD SVG 1.1//EN"
 "http://www.w3.org/Graphics/SVG/1.1/DTD/svg11.dtd">
<!-- Generated by graphviz version 2.40.1 (20161225.0304)
 -->
<!-- Title: oneDegreeRelationshipsDiagram Pages: 1 -->
<svg width="496pt" height="411pt"
 viewBox="0.00 0.00 496.00 410.70" xmlns="http://www.w3.org/2000/svg" xmlns:xlink="http://www.w3.org/1999/xlink">
<g id="graph0" class="graph" transform="scale(1 1) rotate(0) translate(4 406.7)">
<title>oneDegreeRelationshipsDiagram</title>
<polygon fill="#ffffff" stroke="transparent" points="-4,4 -4,-406.7 492,-406.7 492,4 -4,4"/>
<text text-anchor="middle" x="72.4936" y="-7.3" font-family="Helvetica,sans-Serif" font-size="11.00" fill="#000000">Generated by SchemaSpy</text>
<!-- Clinical.VisitAttendants -->
<g id="node1" class="node">
<title>Clinical.VisitAttendants</title>
<g id="a_node1"><a xlink:title="Clinical.VisitAttendants">
<polygon fill="#ffffff" stroke="transparent" points="282,-315.7 282,-398.7 480,-398.7 480,-315.7 282,-315.7"/>
<polygon fill="#f5f5f5" stroke="transparent" points="282,-375.2 282,-398.2 480,-398.2 480,-375.2 282,-375.2"/>
<polygon fill="none" stroke="#000000" points="282,-375.2 282,-398.2 480,-398.2 480,-375.2 282,-375.2"/>
<text text-anchor="start" x="287" y="-383.8" font-family="Helvetica,sans-Serif" font-weight="bold" font-size="11.00" fill="#000000">Clinical.VisitAttendants</text>
<text text-anchor="start" x="445.5219" y="-383.3" font-family="Helvetica,sans-Serif" font-size="11.00" fill="#000000">[table]</text>
<polygon fill="none" stroke="#000000" points="282,-353.2 282,-375.2 480,-375.2 480,-353.2 282,-353.2"/>
<image xlink:href="../../images/foreignKeys.png" width="11px" height="12px" preserveAspectRatio="xMinYMin meet" x="287" y="-370.2"/>
<text text-anchor="start" x="338" y="-360.3" font-family="Helvetica,sans-Serif" font-size="11.00" fill="#000000">EmployeeId</text>
<polygon fill="none" stroke="#000000" points="282,-334.2 282,-353.2 480,-353.2 480,-334.2 282,-334.2"/>
<text text-anchor="start" x="285" y="-340.3" font-family="Helvetica,sans-Serif" font-size="11.00" fill="#000000">...</text>
<polygon fill="#ffffff" stroke="transparent" points="282,-315.2 282,-334.2 379,-334.2 379,-315.2 282,-315.2"/>
<polygon fill="none" stroke="#000000" points="282,-315.2 282,-334.2 379,-334.2 379,-315.2 282,-315.2"/>
<text text-anchor="start" x="285" y="-321.3" font-family="Helvetica,sans-Serif" font-size="11.00" fill="#000000">&lt; 1</text>
<polygon fill="#ffffff" stroke="transparent" points="379,-315.2 379,-334.2 429,-334.2 429,-315.2 379,-315.2"/>
<polygon fill="none" stroke="#000000" points="379,-315.2 379,-334.2 429,-334.2 429,-315.2 379,-315.2"/>
<text text-anchor="start" x="419.8862" y="-321.3" font-family="Helvetica,sans-Serif" font-size="11.00" fill="#000000"> &#160;</text>
<polygon fill="#ffffff" stroke="transparent" points="429,-315.2 429,-334.2 480,-334.2 480,-315.2 429,-315.2"/>
<polygon fill="none" stroke="#000000" points="429,-315.2 429,-334.2 480,-334.2 480,-315.2 429,-315.2"/>
<text text-anchor="start" x="470.8862" y="-321.3" font-family="Helvetica,sans-Serif" font-size="11.00" fill="#000000"> &#160;</text>
</a>
</g>
</g>
<!-- Employees -->
<g id="node2" class="node">
<title>Employees</title>
<g id="a_node2"><a xlink:href="../../tables/Employees.html" xlink:title="Employees" target="_top">
<polygon fill="#ffffff" stroke="transparent" points="8,-38.2 8,-348.2 233,-348.2 233,-38.2 8,-38.2"/>
<polygon fill="#f5f5f5" stroke="transparent" points="10.5,-323.2 10.5,-346.2 231.5,-346.2 231.5,-323.2 10.5,-323.2"/>
<polygon fill="none" stroke="#000000" points="10.5,-323.2 10.5,-346.2 231.5,-346.2 231.5,-323.2 10.5,-323.2"/>
<text text-anchor="start" x="15.5" y="-331.8" font-family="Helvetica,sans-Serif" font-weight="bold" font-size="11.00" fill="#000000">Employees</text>
<text text-anchor="start" x="196.5437" y="-331.3" font-family="Helvetica,sans-Serif" font-size="11.00" fill="#000000">[table]</text>
<polygon fill="none" stroke="#000000" points="10.5,-301.2 10.5,-323.2 150.5,-323.2 150.5,-301.2 10.5,-301.2"/>
<image xlink:href="../../images/primaryKeys.png" width="11px" height="12px" preserveAspectRatio="xMinYMin meet" x="15.5" y="-318.2"/>
<text text-anchor="start" x="30.5" y="-308.3" font-family="Helvetica,sans-Serif" font-size="11.00" fill="#000000">Id</text>
<polygon fill="none" stroke="#000000" points="150.5,-301.2 150.5,-323.2 231.5,-323.2 231.5,-301.2 150.5,-301.2"/>
<text text-anchor="start" x="153.5" y="-308.9" font-family="Helvetica,sans-Serif" font-size="11.00" fill="#000000">int identity[4]</text>
<polygon fill="none" stroke="#000000" points="10.5,-279.2 10.5,-301.2 150.5,-301.2 150.5,-279.2 10.5,-279.2"/>
<text text-anchor="start" x="30.5" y="-286.3" font-family="Helvetica,sans-Serif" font-size="11.00" fill="#000000">FirstName</text>
<polygon fill="none" stroke="#000000" points="150.5,-279.2 150.5,-301.2 231.5,-301.2 231.5,-279.2 150.5,-279.2"/>
<text text-anchor="start" x="153.5" y="-286.9" font-family="Helvetica,sans-Serif" font-size="11.00" fill="#000000">nvarchar[100]</text>
<polygon fill="none" stroke="#000000" points="10.5,-257.2 10.5,-279.2 150.5,-279.2 150.5,-257.2 10.5,-257.2"/>
<text text-anchor="start" x="30.5" y="-264.3" font-family="Helvetica,sans-Serif" font-size="11.00" fill="#000000">LastName</text>
<polygon fill="none" stroke="#000000" points="150.5,-257.2 150.5,-279.2 231.5,-279.2 231.5,-257.2 150.5,-257.2"/>
<text text-anchor="start" x="153.5" y="-264.9" font-family="Helvetica,sans-Serif" font-size="11.00" fill="#000000">nvarchar[100]</text>
<polygon fill="none" stroke="#000000" points="10.5,-235.2 10.5,-257.2 150.5,-257.2 150.5,-235.2 10.5,-235.2"/>
<text text-anchor="start" x="30.5" y="-242.3" font-family="Helvetica,sans-Serif" font-size="11.00" fill="#000000">TitleExtension</text>
<polygon fill="none" stroke="#000000" points="150.5,-235.2 150.5,-257.2 231.5,-257.2 231.5,-235.2 150.5,-235.2"/>
<text text-anchor="start" x="153.5" y="-242.9" font-family="Helvetica,sans-Serif" font-size="11.00" fill="#000000">nvarchar[4]</text>
<polygon fill="none" stroke="#000000" points="10.5,-213.2 10.5,-235.2 150.5,-235.2 150.5,-213.2 10.5,-213.2"/>
<text text-anchor="start" x="30.5" y="-220.3" font-family="Helvetica,sans-Serif" font-size="11.00" fill="#000000">IsProvider</text>
<polygon fill="none" stroke="#000000" points="150.5,-213.2 150.5,-235.2 231.5,-235.2 231.5,-213.2 150.5,-213.2"/>
<text text-anchor="start" x="153.5" y="-220.9" font-family="Helvetica,sans-Serif" font-size="11.00" fill="#000000">bit[1]</text>
<polygon fill="none" stroke="#000000" points="10.5,-191.2 10.5,-213.2 150.5,-213.2 150.5,-191.2 10.5,-191.2"/>
<text text-anchor="start" x="30.5" y="-198.3" font-family="Helvetica,sans-Serif" font-size="11.00" fill="#000000">Role</text>
<polygon fill="none" stroke="#000000" points="150.5,-191.2 150.5,-213.2 231.5,-213.2 231.5,-191.2 150.5,-191.2"/>
<text text-anchor="start" x="153.5" y="-198.9" font-family="Helvetica,sans-Serif" font-size="11.00" fill="#000000">nvarchar[100]</text>
<polygon fill="none" stroke="#000000" points="10.5,-169.2 10.5,-191.2 150.5,-191.2 150.5,-169.2 10.5,-169.2"/>
<text text-anchor="start" x="30.5" y="-176.3" font-family="Helvetica,sans-Serif" font-size="11.00" fill="#000000">IsAdministrator</text>
<polygon fill="none" stroke="#000000" points="150.5,-169.2 150.5,-191.2 231.5,-191.2 231.5,-169.2 150.5,-169.2"/>
<text text-anchor="start" x="153.5" y="-176.9" font-family="Helvetica,sans-Serif" font-size="11.00" fill="#000000">bit[1]</text>
<polygon fill="none" stroke="#000000" points="10.5,-147.2 10.5,-169.2 150.5,-169.2 150.5,-147.2 10.5,-147.2"/>
<text text-anchor="start" x="30.5" y="-154.3" font-family="Helvetica,sans-Serif" font-size="11.00" fill="#000000">Email</text>
<polygon fill="none" stroke="#000000" points="150.5,-147.2 150.5,-169.2 231.5,-169.2 231.5,-147.2 150.5,-147.2"/>
<text text-anchor="start" x="153.5" y="-154.9" font-family="Helvetica,sans-Serif" font-size="11.00" fill="#000000">nvarchar[200]</text>
<polygon fill="none" stroke="#000000" points="10.5,-125.2 10.5,-147.2 150.5,-147.2 150.5,-125.2 10.5,-125.2"/>
<text text-anchor="start" x="30.5" y="-132.3" font-family="Helvetica,sans-Serif" font-size="11.00" fill="#000000">CanApproveVisits</text>
<polygon fill="none" stroke="#000000" points="150.5,-125.2 150.5,-147.2 231.5,-147.2 231.5,-125.2 150.5,-125.2"/>
<text text-anchor="start" x="153.5" y="-132.9" font-family="Helvetica,sans-Serif" font-size="11.00" fill="#000000">bit[1]</text>
<polygon fill="none" stroke="#000000" points="10.5,-103.2 10.5,-125.2 150.5,-125.2 150.5,-103.2 10.5,-103.2"/>
<text text-anchor="start" x="30.5" y="-110.3" font-family="Helvetica,sans-Serif" font-size="11.00" fill="#000000">CreatedAtUtc</text>
<polygon fill="none" stroke="#000000" points="150.5,-103.2 150.5,-125.2 231.5,-125.2 231.5,-103.2 150.5,-103.2"/>
<text text-anchor="start" x="153.0967" y="-110.9" font-family="Helvetica,sans-Serif" font-size="11.00" fill="#000000">datetime2[16,7]</text>
<polygon fill="none" stroke="#000000" points="10.5,-81.2 10.5,-103.2 150.5,-103.2 150.5,-81.2 10.5,-81.2"/>
<text text-anchor="start" x="30.5" y="-88.3" font-family="Helvetica,sans-Serif" font-size="11.00" fill="#000000">UpdatedAtUtc</text>
<polygon fill="none" stroke="#000000" points="150.5,-81.2 150.5,-103.2 231.5,-103.2 231.5,-81.2 150.5,-81.2"/>
<text text-anchor="start" x="153.0967" y="-88.9" font-family="Helvetica,sans-Serif" font-size="11.00" fill="#000000">datetime2[16,7]</text>
<polygon fill="none" stroke="#000000" points="10.5,-59.2 10.5,-81.2 150.5,-81.2 150.5,-59.2 10.5,-59.2"/>
<text text-anchor="start" x="30.5" y="-66.3" font-family="Helvetica,sans-Serif" font-size="11.00" fill="#000000">RowVersion</text>
<polygon fill="none" stroke="#000000" points="150.5,-59.2 150.5,-81.2 231.5,-81.2 231.5,-59.2 150.5,-59.2"/>
<text text-anchor="start" x="153.5" y="-66.9" font-family="Helvetica,sans-Serif" font-size="11.00" fill="#000000">timestamp[8]</text>
<polygon fill="#ffffff" stroke="transparent" points="10.5,-40.2 10.5,-59.2 84.5,-59.2 84.5,-40.2 10.5,-40.2"/>
<polygon fill="none" stroke="#000000" points="10.5,-40.2 10.5,-59.2 84.5,-59.2 84.5,-40.2 10.5,-40.2"/>
<text text-anchor="start" x="13.5" y="-46.3" font-family="Helvetica,sans-Serif" font-size="11.00" fill="#000000">&lt; 0</text>
<polygon fill="#ffffff" stroke="transparent" points="84.5,-40.2 84.5,-59.2 150.5,-59.2 150.5,-40.2 84.5,-40.2"/>
<polygon fill="none" stroke="#000000" points="84.5,-40.2 84.5,-59.2 150.5,-59.2 150.5,-40.2 84.5,-40.2"/>
<text text-anchor="start" x="141.3862" y="-46.3" font-family="Helvetica,sans-Serif" font-size="11.00" fill="#000000"> &#160;</text>
<polygon fill="#ffffff" stroke="transparent" points="150.5,-40.2 150.5,-59.2 231.5,-59.2 231.5,-40.2 150.5,-40.2"/>
<polygon fill="none" stroke="#000000" points="150.5,-40.2 150.5,-59.2 231.5,-59.2 231.5,-40.2 150.5,-40.2"/>
<text text-anchor="start" x="212.9053" y="-46.3" font-family="Helvetica,sans-Serif" font-size="11.00" fill="#000000">2 &gt;</text>
<polygon fill="none" stroke="#000000" stroke-width="2" points="9,-39.2 9,-347.2 232,-347.2 232,-39.2 9,-39.2"/>
</a>
</g>
</g>
<!-- Clinical.VisitAttendants&#45;&gt;Employees -->
<g id="edge1" class="edge">
<title>Clinical.VisitAttendants:w&#45;&gt;Employees:e</title>
<path fill="none" stroke="#000000" d="M268.1372,-359.4012C253.3861,-346.5281 257.6756,-312.2 231.5,-312.2"/>
<polygon fill="#000000" stroke="#000000" points="274.4401,-361.583 280.8223,-367.6019 278.2201,-362.8915 282,-364.2 282,-364.2 282,-364.2 278.2201,-362.8915 283.1777,-360.7981 274.4401,-361.583 274.4401,-361.583"/>
<ellipse fill="none" stroke="#000000" cx="271.4162" cy="-360.5362" rx="3.2" ry="3.2"/>
</g>
<!-- Clinical.VisitEvents -->
<g id="node3" class="node">
<title>Clinical.VisitEvents</title>
<g id="a_node3"><a xlink:title="Clinical.VisitEvents">
<polygon fill="#ffffff" stroke="transparent" points="297,-211.7 297,-294.7 465,-294.7 465,-211.7 297,-211.7"/>
<polygon fill="#f5f5f5" stroke="transparent" points="297,-271.2 297,-294.2 465,-294.2 465,-271.2 297,-271.2"/>
<polygon fill="none" stroke="#000000" points="297,-271.2 297,-294.2 465,-294.2 465,-271.2 297,-271.2"/>
<text text-anchor="start" x="302" y="-279.8" font-family="Helvetica,sans-Serif" font-weight="bold" font-size="11.00" fill="#000000">Clinical.VisitEvents</text>
<text text-anchor="start" x="430.5219" y="-279.3" font-family="Helvetica,sans-Serif" font-size="11.00" fill="#000000">[table]</text>
<polygon fill="none" stroke="#000000" points="297,-249.2 297,-271.2 465,-271.2 465,-249.2 297,-249.2"/>
<image xlink:href="../../images/foreignKeys.png" width="11px" height="12px" preserveAspectRatio="xMinYMin meet" x="302" y="-266.2"/>
<text text-anchor="start" x="334" y="-256.3" font-family="Helvetica,sans-Serif" font-size="11.00" fill="#000000">EmployeeId</text>
<polygon fill="none" stroke="#000000" points="297,-230.2 297,-249.2 465,-249.2 465,-230.2 297,-230.2"/>
<text text-anchor="start" x="300" y="-236.3" font-family="Helvetica,sans-Serif" font-size="11.00" fill="#000000">...</text>
<polygon fill="#ffffff" stroke="transparent" points="297,-211.2 297,-230.2 379,-230.2 379,-211.2 297,-211.2"/>
<polygon fill="none" stroke="#000000" points="297,-211.2 297,-230.2 379,-230.2 379,-211.2 297,-211.2"/>
<text text-anchor="start" x="300" y="-217.3" font-family="Helvetica,sans-Serif" font-size="11.00" fill="#000000">&lt; 1</text>
<polygon fill="#ffffff" stroke="transparent" points="379,-211.2 379,-230.2 422,-230.2 422,-211.2 379,-211.2"/>
<polygon fill="none" stroke="#000000" points="379,-211.2 379,-230.2 422,-230.2 422,-211.2 379,-211.2"/>
<text text-anchor="start" x="412.8862" y="-217.3" font-family="Helvetica,sans-Serif" font-size="11.00" fill="#000000"> &#160;</text>
<polygon fill="#ffffff" stroke="transparent" points="422,-211.2 422,-230.2 465,-230.2 465,-211.2 422,-211.2"/>
<polygon fill="none" stroke="#000000" points="422,-211.2 422,-230.2 465,-230.2 465,-211.2 422,-211.2"/>
<text text-anchor="start" x="455.8862" y="-217.3" font-family="Helvetica,sans-Serif" font-size="11.00" fill="#000000"> &#160;</text>
</a>
</g>
</g>
<!-- Clinical.VisitEvents&#45;&gt;Employees -->
<g id="edge2" class="edge">
<title>Clinical.VisitEvents:w&#45;&gt;Employees:e</title>
<path fill="none" stroke="#000000" d="M282.8904,-263.4528C261.4558,-274.8369 263.0071,-312.2 231.5,-312.2"/>
<polygon fill="#000000" stroke="#000000" points="289.2045,-261.9972 297.8088,-263.708 293.1022,-261.0986 297,-260.2 297,-260.2 297,-260.2 293.1022,-261.0986 296.1912,-256.692 289.2045,-261.9972 289.2045,-261.9972"/>
<ellipse fill="none" stroke="#000000" cx="286.0863" cy="-262.7161" rx="3.2" ry="3.2"/>
</g>
</g>
</svg>
