<?xml version="1.0" encoding="UTF-8" standalone="no"?>
<!DOCTYPE svg PUBLIC "-//W3C//DTD SVG 1.1//EN"
 "http://www.w3.org/Graphics/SVG/1.1/DTD/svg11.dtd">
<!-- Generated by graphviz version 2.40.1 (20161225.0304)
 -->
<!-- Title: twoDegreesRelationshipsDiagram Pages: 1 -->
<svg width="458pt" height="333pt"
 viewBox="0.00 0.00 458.00 332.70" xmlns="http://www.w3.org/2000/svg" xmlns:xlink="http://www.w3.org/1999/xlink">
<g id="graph0" class="graph" transform="scale(1 1) rotate(0) translate(4 328.7)">
<title>twoDegreesRelationshipsDiagram</title>
<polygon fill="#ffffff" stroke="transparent" points="-4,4 -4,-328.7 454,-328.7 454,4 -4,4"/>
<text text-anchor="middle" x="72.4936" y="-7.3" font-family="Helvetica,sans-Serif" font-size="11.00" fill="#000000">Generated by SchemaSpy</text>
<!-- RoleClaims -->
<g id="node1" class="node">
<title>RoleClaims</title>
<g id="a_node1"><a xlink:href="../../tables/RoleClaims.html" xlink:title="RoleClaims" target="_top">
<polygon fill="#ffffff" stroke="transparent" points="206,-120.7 206,-320.7 442,-320.7 442,-120.7 206,-120.7"/>
<polygon fill="#f5f5f5" stroke="transparent" points="208,-295.7 208,-318.7 440,-318.7 440,-295.7 208,-295.7"/>
<polygon fill="none" stroke="#000000" points="208,-295.7 208,-318.7 440,-318.7 440,-295.7 208,-295.7"/>
<text text-anchor="start" x="213" y="-304.3" font-family="Helvetica,sans-Serif" font-weight="bold" font-size="11.00" fill="#000000">RoleClaims</text>
<text text-anchor="start" x="405.0437" y="-303.8" font-family="Helvetica,sans-Serif" font-size="11.00" fill="#000000">[table]</text>
<polygon fill="none" stroke="#000000" points="208,-273.7 208,-295.7 324,-295.7 324,-273.7 208,-273.7"/>
<image xlink:href="../../images/primaryKeys.png" width="11px" height="12px" preserveAspectRatio="xMinYMin meet" x="213" y="-290.7"/>
<text text-anchor="start" x="228" y="-280.8" font-family="Helvetica,sans-Serif" font-size="11.00" fill="#000000">Id</text>
<polygon fill="none" stroke="#000000" points="324,-273.7 324,-295.7 440,-295.7 440,-273.7 324,-273.7"/>
<text text-anchor="start" x="327" y="-281.4" font-family="Helvetica,sans-Serif" font-size="11.00" fill="#000000">int identity[4]</text>
<polygon fill="none" stroke="#000000" points="208,-251.7 208,-273.7 324,-273.7 324,-251.7 208,-251.7"/>
<text text-anchor="start" x="228" y="-258.8" font-family="Helvetica,sans-Serif" font-size="11.00" fill="#000000">CreatedAtUtc</text>
<polygon fill="none" stroke="#000000" points="324,-251.7 324,-273.7 440,-273.7 440,-251.7 324,-251.7"/>
<text text-anchor="start" x="327" y="-259.4" font-family="Helvetica,sans-Serif" font-size="11.00" fill="#000000">datetime2[16,7]</text>
<polygon fill="none" stroke="#000000" points="208,-229.7 208,-251.7 324,-251.7 324,-229.7 208,-229.7"/>
<text text-anchor="start" x="228" y="-236.8" font-family="Helvetica,sans-Serif" font-size="11.00" fill="#000000">UpdatedAtUtc</text>
<polygon fill="none" stroke="#000000" points="324,-229.7 324,-251.7 440,-251.7 440,-229.7 324,-229.7"/>
<text text-anchor="start" x="327" y="-237.4" font-family="Helvetica,sans-Serif" font-size="11.00" fill="#000000">datetime2[16,7]</text>
<polygon fill="none" stroke="#000000" points="208,-207.7 208,-229.7 324,-229.7 324,-207.7 208,-207.7"/>
<text text-anchor="start" x="228" y="-214.8" font-family="Helvetica,sans-Serif" font-size="11.00" fill="#000000">RowVersion</text>
<polygon fill="none" stroke="#000000" points="324,-207.7 324,-229.7 440,-229.7 440,-207.7 324,-207.7"/>
<text text-anchor="start" x="327" y="-215.4" font-family="Helvetica,sans-Serif" font-size="11.00" fill="#000000">timestamp[8]</text>
<polygon fill="#ffffff" stroke="transparent" points="208,-185.7 208,-207.7 324,-207.7 324,-185.7 208,-185.7"/>
<polygon fill="none" stroke="#000000" points="208,-185.7 208,-207.7 324,-207.7 324,-185.7 208,-185.7"/>
<image xlink:href="../../images/foreignKeys.png" width="11px" height="12px" preserveAspectRatio="xMinYMin meet" x="213" y="-202.7"/>
<text text-anchor="start" x="228" y="-192.8" font-family="Helvetica,sans-Serif" font-size="11.00" fill="#000000">RoleId</text>
<polygon fill="none" stroke="#000000" points="324,-185.7 324,-207.7 440,-207.7 440,-185.7 324,-185.7"/>
<text text-anchor="start" x="327" y="-193.4" font-family="Helvetica,sans-Serif" font-size="11.00" fill="#000000">int[4]</text>
<polygon fill="none" stroke="#000000" points="208,-163.7 208,-185.7 324,-185.7 324,-163.7 208,-163.7"/>
<text text-anchor="start" x="228" y="-170.8" font-family="Helvetica,sans-Serif" font-size="11.00" fill="#000000">ClaimType</text>
<polygon fill="none" stroke="#000000" points="324,-163.7 324,-185.7 440,-185.7 440,-163.7 324,-163.7"/>
<text text-anchor="start" x="326.9769" y="-171.4" font-family="Helvetica,sans-Serif" font-size="11.00" fill="#000000">nvarchar[2147483647]</text>
<polygon fill="none" stroke="#000000" points="208,-141.7 208,-163.7 324,-163.7 324,-141.7 208,-141.7"/>
<text text-anchor="start" x="228" y="-148.8" font-family="Helvetica,sans-Serif" font-size="11.00" fill="#000000">ClaimValue</text>
<polygon fill="none" stroke="#000000" points="324,-141.7 324,-163.7 440,-163.7 440,-141.7 324,-141.7"/>
<text text-anchor="start" x="326.9769" y="-149.4" font-family="Helvetica,sans-Serif" font-size="11.00" fill="#000000">nvarchar[2147483647]</text>
<polygon fill="#ffffff" stroke="transparent" points="208,-122.7 208,-141.7 270,-141.7 270,-122.7 208,-122.7"/>
<polygon fill="none" stroke="#000000" points="208,-122.7 208,-141.7 270,-141.7 270,-122.7 208,-122.7"/>
<text text-anchor="start" x="211" y="-128.8" font-family="Helvetica,sans-Serif" font-size="11.00" fill="#000000">&lt; 1</text>
<polygon fill="#ffffff" stroke="transparent" points="270,-122.7 270,-141.7 324,-141.7 324,-122.7 270,-122.7"/>
<polygon fill="none" stroke="#000000" points="270,-122.7 270,-141.7 324,-141.7 324,-122.7 270,-122.7"/>
<text text-anchor="start" x="314.8862" y="-128.8" font-family="Helvetica,sans-Serif" font-size="11.00" fill="#000000"> &#160;</text>
<polygon fill="#ffffff" stroke="transparent" points="324,-122.7 324,-141.7 440,-141.7 440,-122.7 324,-122.7"/>
<polygon fill="none" stroke="#000000" points="324,-122.7 324,-141.7 440,-141.7 440,-122.7 324,-122.7"/>
<text text-anchor="start" x="421.4053" y="-128.8" font-family="Helvetica,sans-Serif" font-size="11.00" fill="#000000">0 &gt;</text>
<polygon fill="none" stroke="#000000" stroke-width="2" points="207,-121.7 207,-319.7 441,-319.7 441,-121.7 207,-121.7"/>
</a>
</g>
</g>
<!-- Roles -->
<g id="node2" class="node">
<title>Roles</title>
<g id="a_node2"><a xlink:href="../../tables/Roles.html" xlink:title="Roles" target="_top">
<polygon fill="#ffffff" stroke="transparent" points="8,-60.2 8,-165.2 157,-165.2 157,-60.2 8,-60.2"/>
<polygon fill="#f5f5f5" stroke="transparent" points="8.5,-141.7 8.5,-164.7 157.5,-164.7 157.5,-141.7 8.5,-141.7"/>
<polygon fill="none" stroke="#000000" points="8.5,-141.7 8.5,-164.7 157.5,-164.7 157.5,-141.7 8.5,-141.7"/>
<text text-anchor="start" x="13.5" y="-150.3" font-family="Helvetica,sans-Serif" font-weight="bold" font-size="11.00" fill="#000000">Roles</text>
<text text-anchor="start" x="122.5437" y="-149.8" font-family="Helvetica,sans-Serif" font-size="11.00" fill="#000000">[table]</text>
<polygon fill="none" stroke="#000000" points="8.5,-119.7 8.5,-141.7 157.5,-141.7 157.5,-119.7 8.5,-119.7"/>
<image xlink:href="../../images/primaryKeys.png" width="11px" height="12px" preserveAspectRatio="xMinYMin meet" x="13.5" y="-136.7"/>
<text text-anchor="start" x="28.5" y="-126.8" font-family="Helvetica,sans-Serif" font-size="11.00" fill="#000000">Id</text>
<polygon fill="#ffffff" stroke="transparent" points="8.5,-97.7 8.5,-119.7 157.5,-119.7 157.5,-97.7 8.5,-97.7"/>
<polygon fill="none" stroke="#000000" points="8.5,-97.7 8.5,-119.7 157.5,-119.7 157.5,-97.7 8.5,-97.7"/>
<text text-anchor="start" x="28.5" y="-104.8" font-family="Helvetica,sans-Serif" font-size="11.00" fill="#000000">NormalizedName</text>
<polygon fill="none" stroke="#000000" points="8.5,-78.7 8.5,-97.7 157.5,-97.7 157.5,-78.7 8.5,-78.7"/>
<text text-anchor="start" x="11.5" y="-84.8" font-family="Helvetica,sans-Serif" font-size="11.00" fill="#000000">...</text>
<polygon fill="#ffffff" stroke="transparent" points="8.5,-59.7 8.5,-78.7 72.5,-78.7 72.5,-59.7 8.5,-59.7"/>
<polygon fill="none" stroke="#000000" points="8.5,-59.7 8.5,-78.7 72.5,-78.7 72.5,-59.7 8.5,-59.7"/>
<text text-anchor="start" x="11.5" y="-65.8" font-family="Helvetica,sans-Serif" font-size="11.00" fill="#000000"> &#160;</text>
<polygon fill="#ffffff" stroke="transparent" points="72.5,-59.7 72.5,-78.7 110.5,-78.7 110.5,-59.7 72.5,-59.7"/>
<polygon fill="none" stroke="#000000" points="72.5,-59.7 72.5,-78.7 110.5,-78.7 110.5,-59.7 72.5,-59.7"/>
<text text-anchor="start" x="101.3862" y="-65.8" font-family="Helvetica,sans-Serif" font-size="11.00" fill="#000000"> &#160;</text>
<polygon fill="#ffffff" stroke="transparent" points="110.5,-59.7 110.5,-78.7 157.5,-78.7 157.5,-59.7 110.5,-59.7"/>
<polygon fill="none" stroke="#000000" points="110.5,-59.7 110.5,-78.7 157.5,-78.7 157.5,-59.7 110.5,-59.7"/>
<text text-anchor="start" x="138.9053" y="-65.8" font-family="Helvetica,sans-Serif" font-size="11.00" fill="#000000">2 &gt;</text>
</a>
</g>
</g>
<!-- RoleClaims&#45;&gt;Roles -->
<g id="edge1" class="edge">
<title>RoleClaims:w&#45;&gt;Roles:e</title>
<path fill="none" stroke="#000000" d="M194.158,-191.9534C177.1101,-176.8202 188.3754,-130.7 157.5,-130.7"/>
<polygon fill="#000000" stroke="#000000" points="200.4326,-194.105 206.8323,-200.1054 204.2163,-195.4025 208,-196.7 208,-196.7 208,-196.7 204.2163,-195.4025 209.1677,-193.2946 200.4326,-194.105 200.4326,-194.105"/>
<ellipse fill="none" stroke="#000000" cx="197.4056" cy="-193.067" rx="3.2" ry="3.2"/>
</g>
<!-- UserRoles -->
<g id="node3" class="node">
<title>UserRoles</title>
<g id="a_node3"><a xlink:href="../../tables/UserRoles.html" xlink:title="UserRoles" target="_top">
<polygon fill="#ffffff" stroke="transparent" points="271,-38.2 271,-99.2 377,-99.2 377,-38.2 271,-38.2"/>
<polygon fill="#f5f5f5" stroke="transparent" points="271,-75.7 271,-98.7 377,-98.7 377,-75.7 271,-75.7"/>
<polygon fill="none" stroke="#000000" points="271,-75.7 271,-98.7 377,-98.7 377,-75.7 271,-75.7"/>
<text text-anchor="start" x="276" y="-84.3" font-family="Helvetica,sans-Serif" font-weight="bold" font-size="11.00" fill="#000000">UserRoles</text>
<text text-anchor="start" x="342.5219" y="-83.8" font-family="Helvetica,sans-Serif" font-size="11.00" fill="#000000">[table]</text>
<polygon fill="none" stroke="#000000" points="271,-56.7 271,-75.7 377,-75.7 377,-56.7 271,-56.7"/>
<text text-anchor="start" x="274" y="-62.8" font-family="Helvetica,sans-Serif" font-size="11.00" fill="#000000">...</text>
<polygon fill="#ffffff" stroke="transparent" points="271,-37.7 271,-56.7 322,-56.7 322,-37.7 271,-37.7"/>
<polygon fill="none" stroke="#000000" points="271,-37.7 271,-56.7 322,-56.7 322,-37.7 271,-37.7"/>
<text text-anchor="start" x="274" y="-43.8" font-family="Helvetica,sans-Serif" font-size="11.00" fill="#000000">&lt; 2</text>
<polygon fill="#ffffff" stroke="transparent" points="322,-37.7 322,-56.7 349,-56.7 349,-37.7 322,-37.7"/>
<polygon fill="none" stroke="#000000" points="322,-37.7 322,-56.7 349,-56.7 349,-37.7 322,-37.7"/>
<text text-anchor="start" x="339.8862" y="-43.8" font-family="Helvetica,sans-Serif" font-size="11.00" fill="#000000"> &#160;</text>
<polygon fill="#ffffff" stroke="transparent" points="349,-37.7 349,-56.7 377,-56.7 377,-37.7 349,-37.7"/>
<polygon fill="none" stroke="#000000" points="349,-37.7 349,-56.7 377,-56.7 377,-37.7 349,-37.7"/>
<text text-anchor="start" x="367.8862" y="-43.8" font-family="Helvetica,sans-Serif" font-size="11.00" fill="#000000"> &#160;</text>
</a>
</g>
</g>
<!-- UserRoles&#45;&gt;Roles -->
<g id="edge2" class="edge">
<title>UserRoles:w&#45;&gt;Roles:e</title>
<path fill="none" stroke="#000000" d="M256.9078,-69.3809C226.4789,-83.1313 182.3646,-130.7 157.5,-130.7"/>
<polygon fill="#000000" stroke="#000000" points="263.2597,-67.7218 271.9098,-69.1831 267.1298,-66.7109 271,-65.7 271,-65.7 271,-65.7 267.1298,-66.7109 270.0902,-62.2169 263.2597,-67.7218 263.2597,-67.7218"/>
<ellipse fill="none" stroke="#000000" cx="260.1636" cy="-68.5306" rx="3.2" ry="3.2"/>
</g>
</g>
</svg>
