<?xml version="1.0" encoding="UTF-8" standalone="no"?>
<!DOCTYPE svg PUBLIC "-//W3C//DTD SVG 1.1//EN"
 "http://www.w3.org/Graphics/SVG/1.1/DTD/svg11.dtd">
<!-- Generated by graphviz version 2.40.1 (20161225.0304)
 -->
<!-- Title: oneDegreeRelationshipsDiagram Pages: 1 -->
<svg width="458pt" height="334pt"
 viewBox="0.00 0.00 458.00 333.70" xmlns="http://www.w3.org/2000/svg" xmlns:xlink="http://www.w3.org/1999/xlink">
<g id="graph0" class="graph" transform="scale(1 1) rotate(0) translate(4 329.7)">
<title>oneDegreeRelationshipsDiagram</title>
<polygon fill="#ffffff" stroke="transparent" points="-4,4 -4,-329.7 454,-329.7 454,4 -4,4"/>
<text text-anchor="middle" x="72.4936" y="-7.3" font-family="Helvetica,sans-Serif" font-size="11.00" fill="#000000">Generated by SchemaSpy</text>
<!-- RoleClaims -->
<g id="node1" class="node">
<title>RoleClaims</title>
<g id="a_node1"><a xlink:href="../../tables/RoleClaims.html" xlink:title="RoleClaims" target="_top">
<polygon fill="#ffffff" stroke="transparent" points="326,-216.7 326,-321.7 442,-321.7 442,-216.7 326,-216.7"/>
<polygon fill="#f5f5f5" stroke="transparent" points="326,-298.2 326,-321.2 442,-321.2 442,-298.2 326,-298.2"/>
<polygon fill="none" stroke="#000000" points="326,-298.2 326,-321.2 442,-321.2 442,-298.2 326,-298.2"/>
<text text-anchor="start" x="331" y="-306.8" font-family="Helvetica,sans-Serif" font-weight="bold" font-size="11.00" fill="#000000">RoleClaims</text>
<text text-anchor="start" x="407.0437" y="-306.3" font-family="Helvetica,sans-Serif" font-size="11.00" fill="#000000">[table]</text>
<polygon fill="none" stroke="#000000" points="326,-276.2 326,-298.2 442,-298.2 442,-276.2 326,-276.2"/>
<image xlink:href="../../images/primaryKeys.png" width="11px" height="12px" preserveAspectRatio="xMinYMin meet" x="331" y="-293.2"/>
<text text-anchor="start" x="346" y="-283.3" font-family="Helvetica,sans-Serif" font-size="11.00" fill="#000000">Id</text>
<polygon fill="#ffffff" stroke="transparent" points="326,-254.2 326,-276.2 442,-276.2 442,-254.2 326,-254.2"/>
<polygon fill="none" stroke="#000000" points="326,-254.2 326,-276.2 442,-276.2 442,-254.2 326,-254.2"/>
<image xlink:href="../../images/foreignKeys.png" width="11px" height="12px" preserveAspectRatio="xMinYMin meet" x="331" y="-271.2"/>
<text text-anchor="start" x="346" y="-261.3" font-family="Helvetica,sans-Serif" font-size="11.00" fill="#000000">RoleId</text>
<polygon fill="none" stroke="#000000" points="326,-235.2 326,-254.2 442,-254.2 442,-235.2 326,-235.2"/>
<text text-anchor="start" x="329" y="-241.3" font-family="Helvetica,sans-Serif" font-size="11.00" fill="#000000">...</text>
<polygon fill="#ffffff" stroke="transparent" points="326,-216.2 326,-235.2 382,-235.2 382,-216.2 326,-216.2"/>
<polygon fill="none" stroke="#000000" points="326,-216.2 326,-235.2 382,-235.2 382,-216.2 326,-216.2"/>
<text text-anchor="start" x="329" y="-222.3" font-family="Helvetica,sans-Serif" font-size="11.00" fill="#000000">&lt; 1</text>
<polygon fill="#ffffff" stroke="transparent" points="382,-216.2 382,-235.2 412,-235.2 412,-216.2 382,-216.2"/>
<polygon fill="none" stroke="#000000" points="382,-216.2 382,-235.2 412,-235.2 412,-216.2 382,-216.2"/>
<text text-anchor="start" x="402.8862" y="-222.3" font-family="Helvetica,sans-Serif" font-size="11.00" fill="#000000"> &#160;</text>
<polygon fill="#ffffff" stroke="transparent" points="412,-216.2 412,-235.2 442,-235.2 442,-216.2 412,-216.2"/>
<polygon fill="none" stroke="#000000" points="412,-216.2 412,-235.2 442,-235.2 442,-216.2 412,-216.2"/>
<text text-anchor="start" x="432.8862" y="-222.3" font-family="Helvetica,sans-Serif" font-size="11.00" fill="#000000"> &#160;</text>
</a>
</g>
</g>
<!-- Roles -->
<g id="node2" class="node">
<title>Roles</title>
<g id="a_node2"><a xlink:href="../../tables/Roles.html" xlink:title="Roles" target="_top">
<polygon fill="#ffffff" stroke="transparent" points="8,-38.2 8,-238.2 277,-238.2 277,-38.2 8,-38.2"/>
<polygon fill="#f5f5f5" stroke="transparent" points="10.5,-213.2 10.5,-236.2 275.5,-236.2 275.5,-213.2 10.5,-213.2"/>
<polygon fill="none" stroke="#000000" points="10.5,-213.2 10.5,-236.2 275.5,-236.2 275.5,-213.2 10.5,-213.2"/>
<text text-anchor="start" x="15.5" y="-221.8" font-family="Helvetica,sans-Serif" font-weight="bold" font-size="11.00" fill="#000000">Roles</text>
<text text-anchor="start" x="240.5437" y="-221.3" font-family="Helvetica,sans-Serif" font-size="11.00" fill="#000000">[table]</text>
<polygon fill="none" stroke="#000000" points="10.5,-191.2 10.5,-213.2 159.5,-213.2 159.5,-191.2 10.5,-191.2"/>
<image xlink:href="../../images/primaryKeys.png" width="11px" height="12px" preserveAspectRatio="xMinYMin meet" x="15.5" y="-208.2"/>
<text text-anchor="start" x="30.5" y="-198.3" font-family="Helvetica,sans-Serif" font-size="11.00" fill="#000000">Id</text>
<polygon fill="none" stroke="#000000" points="159.5,-191.2 159.5,-213.2 275.5,-213.2 275.5,-191.2 159.5,-191.2"/>
<text text-anchor="start" x="162.5" y="-198.9" font-family="Helvetica,sans-Serif" font-size="11.00" fill="#000000">int identity[4]</text>
<polygon fill="none" stroke="#000000" points="10.5,-169.2 10.5,-191.2 159.5,-191.2 159.5,-169.2 10.5,-169.2"/>
<text text-anchor="start" x="30.5" y="-176.3" font-family="Helvetica,sans-Serif" font-size="11.00" fill="#000000">CreatedAtUtc</text>
<polygon fill="none" stroke="#000000" points="159.5,-169.2 159.5,-191.2 275.5,-191.2 275.5,-169.2 159.5,-169.2"/>
<text text-anchor="start" x="162.5" y="-176.9" font-family="Helvetica,sans-Serif" font-size="11.00" fill="#000000">datetime2[16,7]</text>
<polygon fill="none" stroke="#000000" points="10.5,-147.2 10.5,-169.2 159.5,-169.2 159.5,-147.2 10.5,-147.2"/>
<text text-anchor="start" x="30.5" y="-154.3" font-family="Helvetica,sans-Serif" font-size="11.00" fill="#000000">UpdatedAtUtc</text>
<polygon fill="none" stroke="#000000" points="159.5,-147.2 159.5,-169.2 275.5,-169.2 275.5,-147.2 159.5,-147.2"/>
<text text-anchor="start" x="162.5" y="-154.9" font-family="Helvetica,sans-Serif" font-size="11.00" fill="#000000">datetime2[16,7]</text>
<polygon fill="none" stroke="#000000" points="10.5,-125.2 10.5,-147.2 159.5,-147.2 159.5,-125.2 10.5,-125.2"/>
<text text-anchor="start" x="30.5" y="-132.3" font-family="Helvetica,sans-Serif" font-size="11.00" fill="#000000">RowVersion</text>
<polygon fill="none" stroke="#000000" points="159.5,-125.2 159.5,-147.2 275.5,-147.2 275.5,-125.2 159.5,-125.2"/>
<text text-anchor="start" x="162.5" y="-132.9" font-family="Helvetica,sans-Serif" font-size="11.00" fill="#000000">timestamp[8]</text>
<polygon fill="none" stroke="#000000" points="10.5,-103.2 10.5,-125.2 159.5,-125.2 159.5,-103.2 10.5,-103.2"/>
<text text-anchor="start" x="30.5" y="-110.3" font-family="Helvetica,sans-Serif" font-size="11.00" fill="#000000">Name</text>
<polygon fill="none" stroke="#000000" points="159.5,-103.2 159.5,-125.2 275.5,-125.2 275.5,-103.2 159.5,-103.2"/>
<text text-anchor="start" x="162.5" y="-110.9" font-family="Helvetica,sans-Serif" font-size="11.00" fill="#000000">nvarchar[512]</text>
<polygon fill="#ffffff" stroke="transparent" points="10.5,-81.2 10.5,-103.2 159.5,-103.2 159.5,-81.2 10.5,-81.2"/>
<polygon fill="none" stroke="#000000" points="10.5,-81.2 10.5,-103.2 159.5,-103.2 159.5,-81.2 10.5,-81.2"/>
<text text-anchor="start" x="30.5" y="-88.3" font-family="Helvetica,sans-Serif" font-size="11.00" fill="#000000">NormalizedName</text>
<polygon fill="none" stroke="#000000" points="159.5,-81.2 159.5,-103.2 275.5,-103.2 275.5,-81.2 159.5,-81.2"/>
<text text-anchor="start" x="162.5" y="-88.9" font-family="Helvetica,sans-Serif" font-size="11.00" fill="#000000">nvarchar[512]</text>
<polygon fill="none" stroke="#000000" points="10.5,-59.2 10.5,-81.2 159.5,-81.2 159.5,-59.2 10.5,-59.2"/>
<text text-anchor="start" x="30.5" y="-66.3" font-family="Helvetica,sans-Serif" font-size="11.00" fill="#000000">ConcurrencyStamp</text>
<polygon fill="none" stroke="#000000" points="159.5,-59.2 159.5,-81.2 275.5,-81.2 275.5,-59.2 159.5,-59.2"/>
<text text-anchor="start" x="162.4769" y="-66.9" font-family="Helvetica,sans-Serif" font-size="11.00" fill="#000000">nvarchar[2147483647]</text>
<polygon fill="#ffffff" stroke="transparent" points="10.5,-40.2 10.5,-59.2 89.5,-59.2 89.5,-40.2 10.5,-40.2"/>
<polygon fill="none" stroke="#000000" points="10.5,-40.2 10.5,-59.2 89.5,-59.2 89.5,-40.2 10.5,-40.2"/>
<text text-anchor="start" x="13.5" y="-46.3" font-family="Helvetica,sans-Serif" font-size="11.00" fill="#000000">&lt; 0</text>
<polygon fill="#ffffff" stroke="transparent" points="89.5,-40.2 89.5,-59.2 159.5,-59.2 159.5,-40.2 89.5,-40.2"/>
<polygon fill="none" stroke="#000000" points="89.5,-40.2 89.5,-59.2 159.5,-59.2 159.5,-40.2 89.5,-40.2"/>
<text text-anchor="start" x="150.3862" y="-46.3" font-family="Helvetica,sans-Serif" font-size="11.00" fill="#000000"> &#160;</text>
<polygon fill="#ffffff" stroke="transparent" points="159.5,-40.2 159.5,-59.2 275.5,-59.2 275.5,-40.2 159.5,-40.2"/>
<polygon fill="none" stroke="#000000" points="159.5,-40.2 159.5,-59.2 275.5,-59.2 275.5,-40.2 159.5,-40.2"/>
<text text-anchor="start" x="256.9053" y="-46.3" font-family="Helvetica,sans-Serif" font-size="11.00" fill="#000000">2 &gt;</text>
<polygon fill="none" stroke="#000000" stroke-width="2" points="9,-39.2 9,-237.2 276,-237.2 276,-39.2 9,-39.2"/>
</a>
</g>
</g>
<!-- RoleClaims&#45;&gt;Roles -->
<g id="edge1" class="edge">
<title>RoleClaims:w&#45;&gt;Roles:e</title>
<path fill="none" stroke="#000000" d="M311.9816,-260.2565C295.738,-245.4048 305.2175,-202.2 275.5,-202.2"/>
<polygon fill="#000000" stroke="#000000" points="318.4554,-262.5394 324.8027,-268.5951 322.2277,-263.8697 326,-265.2 326,-265.2 326,-265.2 322.2277,-263.8697 327.1973,-261.8049 318.4554,-262.5394 318.4554,-262.5394"/>
<ellipse fill="none" stroke="#000000" cx="315.4375" cy="-261.4752" rx="3.2" ry="3.2"/>
</g>
<!-- UserRoles -->
<g id="node3" class="node">
<title>UserRoles</title>
<g id="a_node3"><a xlink:href="../../tables/UserRoles.html" xlink:title="UserRoles" target="_top">
<polygon fill="#ffffff" stroke="transparent" points="326,-90.7 326,-195.7 442,-195.7 442,-90.7 326,-90.7"/>
<polygon fill="#f5f5f5" stroke="transparent" points="326,-172.2 326,-195.2 442,-195.2 442,-172.2 326,-172.2"/>
<polygon fill="none" stroke="#000000" points="326,-172.2 326,-195.2 442,-195.2 442,-172.2 326,-172.2"/>
<text text-anchor="start" x="331" y="-180.8" font-family="Helvetica,sans-Serif" font-weight="bold" font-size="11.00" fill="#000000">UserRoles</text>
<text text-anchor="start" x="407.0437" y="-180.3" font-family="Helvetica,sans-Serif" font-size="11.00" fill="#000000">[table]</text>
<polygon fill="none" stroke="#000000" points="326,-150.2 326,-172.2 442,-172.2 442,-150.2 326,-150.2"/>
<image xlink:href="../../images/primaryKeys.png" width="11px" height="12px" preserveAspectRatio="xMinYMin meet" x="331" y="-167.2"/>
<text text-anchor="start" x="346" y="-157.3" font-family="Helvetica,sans-Serif" font-size="11.00" fill="#000000">UserId</text>
<polygon fill="none" stroke="#000000" points="326,-128.2 326,-150.2 442,-150.2 442,-128.2 326,-128.2"/>
<image xlink:href="../../images/primaryKeys.png" width="11px" height="12px" preserveAspectRatio="xMinYMin meet" x="331" y="-145.2"/>
<text text-anchor="start" x="346" y="-135.3" font-family="Helvetica,sans-Serif" font-size="11.00" fill="#000000">RoleId</text>
<polygon fill="none" stroke="#000000" points="326,-109.2 326,-128.2 442,-128.2 442,-109.2 326,-109.2"/>
<text text-anchor="start" x="329" y="-115.3" font-family="Helvetica,sans-Serif" font-size="11.00" fill="#000000">...</text>
<polygon fill="#ffffff" stroke="transparent" points="326,-90.2 326,-109.2 382,-109.2 382,-90.2 326,-90.2"/>
<polygon fill="none" stroke="#000000" points="326,-90.2 326,-109.2 382,-109.2 382,-90.2 326,-90.2"/>
<text text-anchor="start" x="329" y="-96.3" font-family="Helvetica,sans-Serif" font-size="11.00" fill="#000000">&lt; 2</text>
<polygon fill="#ffffff" stroke="transparent" points="382,-90.2 382,-109.2 412,-109.2 412,-90.2 382,-90.2"/>
<polygon fill="none" stroke="#000000" points="382,-90.2 382,-109.2 412,-109.2 412,-90.2 382,-90.2"/>
<text text-anchor="start" x="402.8862" y="-96.3" font-family="Helvetica,sans-Serif" font-size="11.00" fill="#000000"> &#160;</text>
<polygon fill="#ffffff" stroke="transparent" points="412,-90.2 412,-109.2 442,-109.2 442,-90.2 412,-90.2"/>
<polygon fill="none" stroke="#000000" points="412,-90.2 412,-109.2 442,-109.2 442,-90.2 412,-90.2"/>
<text text-anchor="start" x="432.8862" y="-96.3" font-family="Helvetica,sans-Serif" font-size="11.00" fill="#000000"> &#160;</text>
</a>
</g>
</g>
<!-- UserRoles&#45;&gt;Roles -->
<g id="edge2" class="edge">
<title>UserRoles:w&#45;&gt;Roles:e</title>
<path fill="none" stroke="#000000" d="M311.9816,-144.1435C295.738,-158.9952 305.2175,-202.2 275.5,-202.2"/>
<polygon fill="#000000" stroke="#000000" points="318.4554,-141.8606 327.1973,-142.5951 322.2277,-140.5303 326,-139.2 326,-139.2 326,-139.2 322.2277,-140.5303 324.8027,-135.8049 318.4554,-141.8606 318.4554,-141.8606"/>
<ellipse fill="none" stroke="#000000" cx="315.4375" cy="-142.9248" rx="3.2" ry="3.2"/>
</g>
</g>
</svg>
