<?xml version="1.0" encoding="UTF-8" standalone="no"?>
<!DOCTYPE svg PUBLIC "-//W3C//DTD SVG 1.1//EN"
 "http://www.w3.org/Graphics/SVG/1.1/DTD/svg11.dtd">
<!-- Generated by graphviz version 2.40.1 (20161225.0304)
 -->
<!-- Title: oneDegreeRelationshipsDiagram Pages: 1 -->
<svg width="458pt" height="250pt"
 viewBox="0.00 0.00 458.00 250.20" xmlns="http://www.w3.org/2000/svg" xmlns:xlink="http://www.w3.org/1999/xlink">
<g id="graph0" class="graph" transform="scale(1 1) rotate(0) translate(4 246.2)">
<title>oneDegreeRelationshipsDiagram</title>
<polygon fill="#ffffff" stroke="transparent" points="-4,4 -4,-246.2 454,-246.2 454,4 -4,4"/>
<text text-anchor="middle" x="72.4936" y="-7.3" font-family="Helvetica,sans-Serif" font-size="11.00" fill="#000000">Generated by SchemaSpy</text>
<!-- RoleClaims -->
<g id="node1" class="node">
<title>RoleClaims</title>
<g id="a_node1"><a xlink:href="../../tables/RoleClaims.html" xlink:title="RoleClaims" target="_top">
<polygon fill="#ffffff" stroke="transparent" points="206,-38.2 206,-238.2 442,-238.2 442,-38.2 206,-38.2"/>
<polygon fill="#f5f5f5" stroke="transparent" points="208,-213.2 208,-236.2 440,-236.2 440,-213.2 208,-213.2"/>
<polygon fill="none" stroke="#000000" points="208,-213.2 208,-236.2 440,-236.2 440,-213.2 208,-213.2"/>
<text text-anchor="start" x="213" y="-221.8" font-family="Helvetica,sans-Serif" font-weight="bold" font-size="11.00" fill="#000000">RoleClaims</text>
<text text-anchor="start" x="405.0437" y="-221.3" font-family="Helvetica,sans-Serif" font-size="11.00" fill="#000000">[table]</text>
<polygon fill="none" stroke="#000000" points="208,-191.2 208,-213.2 324,-213.2 324,-191.2 208,-191.2"/>
<image xlink:href="../../images/primaryKeys.png" width="11px" height="12px" preserveAspectRatio="xMinYMin meet" x="213" y="-208.2"/>
<text text-anchor="start" x="228" y="-198.3" font-family="Helvetica,sans-Serif" font-size="11.00" fill="#000000">Id</text>
<polygon fill="none" stroke="#000000" points="324,-191.2 324,-213.2 440,-213.2 440,-191.2 324,-191.2"/>
<text text-anchor="start" x="327" y="-198.9" font-family="Helvetica,sans-Serif" font-size="11.00" fill="#000000">int identity[4]</text>
<polygon fill="none" stroke="#000000" points="208,-169.2 208,-191.2 324,-191.2 324,-169.2 208,-169.2"/>
<text text-anchor="start" x="228" y="-176.3" font-family="Helvetica,sans-Serif" font-size="11.00" fill="#000000">CreatedAtUtc</text>
<polygon fill="none" stroke="#000000" points="324,-169.2 324,-191.2 440,-191.2 440,-169.2 324,-169.2"/>
<text text-anchor="start" x="327" y="-176.9" font-family="Helvetica,sans-Serif" font-size="11.00" fill="#000000">datetime2[16,7]</text>
<polygon fill="none" stroke="#000000" points="208,-147.2 208,-169.2 324,-169.2 324,-147.2 208,-147.2"/>
<text text-anchor="start" x="228" y="-154.3" font-family="Helvetica,sans-Serif" font-size="11.00" fill="#000000">UpdatedAtUtc</text>
<polygon fill="none" stroke="#000000" points="324,-147.2 324,-169.2 440,-169.2 440,-147.2 324,-147.2"/>
<text text-anchor="start" x="327" y="-154.9" font-family="Helvetica,sans-Serif" font-size="11.00" fill="#000000">datetime2[16,7]</text>
<polygon fill="none" stroke="#000000" points="208,-125.2 208,-147.2 324,-147.2 324,-125.2 208,-125.2"/>
<text text-anchor="start" x="228" y="-132.3" font-family="Helvetica,sans-Serif" font-size="11.00" fill="#000000">RowVersion</text>
<polygon fill="none" stroke="#000000" points="324,-125.2 324,-147.2 440,-147.2 440,-125.2 324,-125.2"/>
<text text-anchor="start" x="327" y="-132.9" font-family="Helvetica,sans-Serif" font-size="11.00" fill="#000000">timestamp[8]</text>
<polygon fill="#ffffff" stroke="transparent" points="208,-103.2 208,-125.2 324,-125.2 324,-103.2 208,-103.2"/>
<polygon fill="none" stroke="#000000" points="208,-103.2 208,-125.2 324,-125.2 324,-103.2 208,-103.2"/>
<image xlink:href="../../images/foreignKeys.png" width="11px" height="12px" preserveAspectRatio="xMinYMin meet" x="213" y="-120.2"/>
<text text-anchor="start" x="228" y="-110.3" font-family="Helvetica,sans-Serif" font-size="11.00" fill="#000000">RoleId</text>
<polygon fill="none" stroke="#000000" points="324,-103.2 324,-125.2 440,-125.2 440,-103.2 324,-103.2"/>
<text text-anchor="start" x="327" y="-110.9" font-family="Helvetica,sans-Serif" font-size="11.00" fill="#000000">int[4]</text>
<polygon fill="none" stroke="#000000" points="208,-81.2 208,-103.2 324,-103.2 324,-81.2 208,-81.2"/>
<text text-anchor="start" x="228" y="-88.3" font-family="Helvetica,sans-Serif" font-size="11.00" fill="#000000">ClaimType</text>
<polygon fill="none" stroke="#000000" points="324,-81.2 324,-103.2 440,-103.2 440,-81.2 324,-81.2"/>
<text text-anchor="start" x="326.9769" y="-88.9" font-family="Helvetica,sans-Serif" font-size="11.00" fill="#000000">nvarchar[2147483647]</text>
<polygon fill="none" stroke="#000000" points="208,-59.2 208,-81.2 324,-81.2 324,-59.2 208,-59.2"/>
<text text-anchor="start" x="228" y="-66.3" font-family="Helvetica,sans-Serif" font-size="11.00" fill="#000000">ClaimValue</text>
<polygon fill="none" stroke="#000000" points="324,-59.2 324,-81.2 440,-81.2 440,-59.2 324,-59.2"/>
<text text-anchor="start" x="326.9769" y="-66.9" font-family="Helvetica,sans-Serif" font-size="11.00" fill="#000000">nvarchar[2147483647]</text>
<polygon fill="#ffffff" stroke="transparent" points="208,-40.2 208,-59.2 270,-59.2 270,-40.2 208,-40.2"/>
<polygon fill="none" stroke="#000000" points="208,-40.2 208,-59.2 270,-59.2 270,-40.2 208,-40.2"/>
<text text-anchor="start" x="211" y="-46.3" font-family="Helvetica,sans-Serif" font-size="11.00" fill="#000000">&lt; 1</text>
<polygon fill="#ffffff" stroke="transparent" points="270,-40.2 270,-59.2 324,-59.2 324,-40.2 270,-40.2"/>
<polygon fill="none" stroke="#000000" points="270,-40.2 270,-59.2 324,-59.2 324,-40.2 270,-40.2"/>
<text text-anchor="start" x="314.8862" y="-46.3" font-family="Helvetica,sans-Serif" font-size="11.00" fill="#000000"> &#160;</text>
<polygon fill="#ffffff" stroke="transparent" points="324,-40.2 324,-59.2 440,-59.2 440,-40.2 324,-40.2"/>
<polygon fill="none" stroke="#000000" points="324,-40.2 324,-59.2 440,-59.2 440,-40.2 324,-40.2"/>
<text text-anchor="start" x="421.4053" y="-46.3" font-family="Helvetica,sans-Serif" font-size="11.00" fill="#000000">0 &gt;</text>
<polygon fill="none" stroke="#000000" stroke-width="2" points="207,-39.2 207,-237.2 441,-237.2 441,-39.2 207,-39.2"/>
</a>
</g>
</g>
<!-- Roles -->
<g id="node2" class="node">
<title>Roles</title>
<g id="a_node2"><a xlink:href="../../tables/Roles.html" xlink:title="Roles" target="_top">
<polygon fill="#ffffff" stroke="transparent" points="8,-43.7 8,-148.7 157,-148.7 157,-43.7 8,-43.7"/>
<polygon fill="#f5f5f5" stroke="transparent" points="8.5,-125.2 8.5,-148.2 157.5,-148.2 157.5,-125.2 8.5,-125.2"/>
<polygon fill="none" stroke="#000000" points="8.5,-125.2 8.5,-148.2 157.5,-148.2 157.5,-125.2 8.5,-125.2"/>
<text text-anchor="start" x="13.5" y="-133.8" font-family="Helvetica,sans-Serif" font-weight="bold" font-size="11.00" fill="#000000">Roles</text>
<text text-anchor="start" x="122.5437" y="-133.3" font-family="Helvetica,sans-Serif" font-size="11.00" fill="#000000">[table]</text>
<polygon fill="none" stroke="#000000" points="8.5,-103.2 8.5,-125.2 157.5,-125.2 157.5,-103.2 8.5,-103.2"/>
<image xlink:href="../../images/primaryKeys.png" width="11px" height="12px" preserveAspectRatio="xMinYMin meet" x="13.5" y="-120.2"/>
<text text-anchor="start" x="28.5" y="-110.3" font-family="Helvetica,sans-Serif" font-size="11.00" fill="#000000">Id</text>
<polygon fill="#ffffff" stroke="transparent" points="8.5,-81.2 8.5,-103.2 157.5,-103.2 157.5,-81.2 8.5,-81.2"/>
<polygon fill="none" stroke="#000000" points="8.5,-81.2 8.5,-103.2 157.5,-103.2 157.5,-81.2 8.5,-81.2"/>
<text text-anchor="start" x="28.5" y="-88.3" font-family="Helvetica,sans-Serif" font-size="11.00" fill="#000000">NormalizedName</text>
<polygon fill="none" stroke="#000000" points="8.5,-62.2 8.5,-81.2 157.5,-81.2 157.5,-62.2 8.5,-62.2"/>
<text text-anchor="start" x="11.5" y="-68.3" font-family="Helvetica,sans-Serif" font-size="11.00" fill="#000000">...</text>
<polygon fill="#ffffff" stroke="transparent" points="8.5,-43.2 8.5,-62.2 72.5,-62.2 72.5,-43.2 8.5,-43.2"/>
<polygon fill="none" stroke="#000000" points="8.5,-43.2 8.5,-62.2 72.5,-62.2 72.5,-43.2 8.5,-43.2"/>
<text text-anchor="start" x="11.5" y="-49.3" font-family="Helvetica,sans-Serif" font-size="11.00" fill="#000000"> &#160;</text>
<polygon fill="#ffffff" stroke="transparent" points="72.5,-43.2 72.5,-62.2 110.5,-62.2 110.5,-43.2 72.5,-43.2"/>
<polygon fill="none" stroke="#000000" points="72.5,-43.2 72.5,-62.2 110.5,-62.2 110.5,-43.2 72.5,-43.2"/>
<text text-anchor="start" x="101.3862" y="-49.3" font-family="Helvetica,sans-Serif" font-size="11.00" fill="#000000"> &#160;</text>
<polygon fill="#ffffff" stroke="transparent" points="110.5,-43.2 110.5,-62.2 157.5,-62.2 157.5,-43.2 110.5,-43.2"/>
<polygon fill="none" stroke="#000000" points="110.5,-43.2 110.5,-62.2 157.5,-62.2 157.5,-43.2 110.5,-43.2"/>
<text text-anchor="start" x="138.9053" y="-49.3" font-family="Helvetica,sans-Serif" font-size="11.00" fill="#000000">2 &gt;</text>
</a>
</g>
</g>
<!-- RoleClaims&#45;&gt;Roles -->
<g id="edge1" class="edge">
<title>RoleClaims:w&#45;&gt;Roles:e</title>
<path fill="none" stroke="#000000" d="M193.4203,-114.2C181.5435,-114.2 174.158,-114.2 157.5,-114.2"/>
<polygon fill="#000000" stroke="#000000" points="200,-114.2001 208,-117.8 204,-114.2 208,-114.2 208,-114.2 208,-114.2 204,-114.2 208,-110.6 200,-114.2001 200,-114.2001"/>
<ellipse fill="none" stroke="#000000" cx="196.8" cy="-114.2001" rx="3.2" ry="3.2"/>
</g>
</g>
</svg>
