<?xml version="1.0" encoding="UTF-8" standalone="no"?>
<!DOCTYPE svg PUBLIC "-//W3C//DTD SVG 1.1//EN"
 "http://www.w3.org/Graphics/SVG/1.1/DTD/svg11.dtd">
<!-- Generated by graphviz version 2.40.1 (20161225.0304)
 -->
<!-- Title: twoDegreesRelationshipsDiagram Pages: 1 -->
<svg width="458pt" height="365pt"
 viewBox="0.00 0.00 458.00 364.70" xmlns="http://www.w3.org/2000/svg" xmlns:xlink="http://www.w3.org/1999/xlink">
<g id="graph0" class="graph" transform="scale(1 1) rotate(0) translate(4 360.7)">
<title>twoDegreesRelationshipsDiagram</title>
<polygon fill="#ffffff" stroke="transparent" points="-4,4 -4,-360.7 454,-360.7 454,4 -4,4"/>
<text text-anchor="middle" x="72.4936" y="-7.3" font-family="Helvetica,sans-Serif" font-size="11.00" fill="#000000">Generated by SchemaSpy</text>
<!-- RoleClaims -->
<g id="node1" class="node">
<title>RoleClaims</title>
<g id="a_node1"><a xlink:href="../../tables/RoleClaims.html" xlink:title="RoleClaims" target="_top">
<polygon fill="#ffffff" stroke="transparent" points="326,-121.7 326,-226.7 442,-226.7 442,-121.7 326,-121.7"/>
<polygon fill="#f5f5f5" stroke="transparent" points="326,-203.2 326,-226.2 442,-226.2 442,-203.2 326,-203.2"/>
<polygon fill="none" stroke="#000000" points="326,-203.2 326,-226.2 442,-226.2 442,-203.2 326,-203.2"/>
<text text-anchor="start" x="331" y="-211.8" font-family="Helvetica,sans-Serif" font-weight="bold" font-size="11.00" fill="#000000">RoleClaims</text>
<text text-anchor="start" x="407.0437" y="-211.3" font-family="Helvetica,sans-Serif" font-size="11.00" fill="#000000">[table]</text>
<polygon fill="none" stroke="#000000" points="326,-181.2 326,-203.2 442,-203.2 442,-181.2 326,-181.2"/>
<image xlink:href="../../images/primaryKeys.png" width="11px" height="12px" preserveAspectRatio="xMinYMin meet" x="331" y="-198.2"/>
<text text-anchor="start" x="346" y="-188.3" font-family="Helvetica,sans-Serif" font-size="11.00" fill="#000000">Id</text>
<polygon fill="#ffffff" stroke="transparent" points="326,-159.2 326,-181.2 442,-181.2 442,-159.2 326,-159.2"/>
<polygon fill="none" stroke="#000000" points="326,-159.2 326,-181.2 442,-181.2 442,-159.2 326,-159.2"/>
<image xlink:href="../../images/foreignKeys.png" width="11px" height="12px" preserveAspectRatio="xMinYMin meet" x="331" y="-176.2"/>
<text text-anchor="start" x="346" y="-166.3" font-family="Helvetica,sans-Serif" font-size="11.00" fill="#000000">RoleId</text>
<polygon fill="none" stroke="#000000" points="326,-140.2 326,-159.2 442,-159.2 442,-140.2 326,-140.2"/>
<text text-anchor="start" x="329" y="-146.3" font-family="Helvetica,sans-Serif" font-size="11.00" fill="#000000">...</text>
<polygon fill="#ffffff" stroke="transparent" points="326,-121.2 326,-140.2 382,-140.2 382,-121.2 326,-121.2"/>
<polygon fill="none" stroke="#000000" points="326,-121.2 326,-140.2 382,-140.2 382,-121.2 326,-121.2"/>
<text text-anchor="start" x="329" y="-127.3" font-family="Helvetica,sans-Serif" font-size="11.00" fill="#000000">&lt; 1</text>
<polygon fill="#ffffff" stroke="transparent" points="382,-121.2 382,-140.2 412,-140.2 412,-121.2 382,-121.2"/>
<polygon fill="none" stroke="#000000" points="382,-121.2 382,-140.2 412,-140.2 412,-121.2 382,-121.2"/>
<text text-anchor="start" x="402.8862" y="-127.3" font-family="Helvetica,sans-Serif" font-size="11.00" fill="#000000"> &#160;</text>
<polygon fill="#ffffff" stroke="transparent" points="412,-121.2 412,-140.2 442,-140.2 442,-121.2 412,-121.2"/>
<polygon fill="none" stroke="#000000" points="412,-121.2 412,-140.2 442,-140.2 442,-121.2 412,-121.2"/>
<text text-anchor="start" x="432.8862" y="-127.3" font-family="Helvetica,sans-Serif" font-size="11.00" fill="#000000"> &#160;</text>
</a>
</g>
</g>
<!-- Roles -->
<g id="node2" class="node">
<title>Roles</title>
<g id="a_node2"><a xlink:href="../../tables/Roles.html" xlink:title="Roles" target="_top">
<polygon fill="#ffffff" stroke="transparent" points="8,-38.2 8,-238.2 277,-238.2 277,-38.2 8,-38.2"/>
<polygon fill="#f5f5f5" stroke="transparent" points="10.5,-213.2 10.5,-236.2 275.5,-236.2 275.5,-213.2 10.5,-213.2"/>
<polygon fill="none" stroke="#000000" points="10.5,-213.2 10.5,-236.2 275.5,-236.2 275.5,-213.2 10.5,-213.2"/>
<text text-anchor="start" x="15.5" y="-221.8" font-family="Helvetica,sans-Serif" font-weight="bold" font-size="11.00" fill="#000000">Roles</text>
<text text-anchor="start" x="240.5437" y="-221.3" font-family="Helvetica,sans-Serif" font-size="11.00" fill="#000000">[table]</text>
<polygon fill="none" stroke="#000000" points="10.5,-191.2 10.5,-213.2 159.5,-213.2 159.5,-191.2 10.5,-191.2"/>
<image xlink:href="../../images/primaryKeys.png" width="11px" height="12px" preserveAspectRatio="xMinYMin meet" x="15.5" y="-208.2"/>
<text text-anchor="start" x="30.5" y="-198.3" font-family="Helvetica,sans-Serif" font-size="11.00" fill="#000000">Id</text>
<polygon fill="none" stroke="#000000" points="159.5,-191.2 159.5,-213.2 275.5,-213.2 275.5,-191.2 159.5,-191.2"/>
<text text-anchor="start" x="162.5" y="-198.9" font-family="Helvetica,sans-Serif" font-size="11.00" fill="#000000">int identity[4]</text>
<polygon fill="none" stroke="#000000" points="10.5,-169.2 10.5,-191.2 159.5,-191.2 159.5,-169.2 10.5,-169.2"/>
<text text-anchor="start" x="30.5" y="-176.3" font-family="Helvetica,sans-Serif" font-size="11.00" fill="#000000">CreatedAtUtc</text>
<polygon fill="none" stroke="#000000" points="159.5,-169.2 159.5,-191.2 275.5,-191.2 275.5,-169.2 159.5,-169.2"/>
<text text-anchor="start" x="162.5" y="-176.9" font-family="Helvetica,sans-Serif" font-size="11.00" fill="#000000">datetime2[16,7]</text>
<polygon fill="none" stroke="#000000" points="10.5,-147.2 10.5,-169.2 159.5,-169.2 159.5,-147.2 10.5,-147.2"/>
<text text-anchor="start" x="30.5" y="-154.3" font-family="Helvetica,sans-Serif" font-size="11.00" fill="#000000">UpdatedAtUtc</text>
<polygon fill="none" stroke="#000000" points="159.5,-147.2 159.5,-169.2 275.5,-169.2 275.5,-147.2 159.5,-147.2"/>
<text text-anchor="start" x="162.5" y="-154.9" font-family="Helvetica,sans-Serif" font-size="11.00" fill="#000000">datetime2[16,7]</text>
<polygon fill="none" stroke="#000000" points="10.5,-125.2 10.5,-147.2 159.5,-147.2 159.5,-125.2 10.5,-125.2"/>
<text text-anchor="start" x="30.5" y="-132.3" font-family="Helvetica,sans-Serif" font-size="11.00" fill="#000000">RowVersion</text>
<polygon fill="none" stroke="#000000" points="159.5,-125.2 159.5,-147.2 275.5,-147.2 275.5,-125.2 159.5,-125.2"/>
<text text-anchor="start" x="162.5" y="-132.9" font-family="Helvetica,sans-Serif" font-size="11.00" fill="#000000">timestamp[8]</text>
<polygon fill="none" stroke="#000000" points="10.5,-103.2 10.5,-125.2 159.5,-125.2 159.5,-103.2 10.5,-103.2"/>
<text text-anchor="start" x="30.5" y="-110.3" font-family="Helvetica,sans-Serif" font-size="11.00" fill="#000000">Name</text>
<polygon fill="none" stroke="#000000" points="159.5,-103.2 159.5,-125.2 275.5,-125.2 275.5,-103.2 159.5,-103.2"/>
<text text-anchor="start" x="162.5" y="-110.9" font-family="Helvetica,sans-Serif" font-size="11.00" fill="#000000">nvarchar[512]</text>
<polygon fill="#ffffff" stroke="transparent" points="10.5,-81.2 10.5,-103.2 159.5,-103.2 159.5,-81.2 10.5,-81.2"/>
<polygon fill="none" stroke="#000000" points="10.5,-81.2 10.5,-103.2 159.5,-103.2 159.5,-81.2 10.5,-81.2"/>
<text text-anchor="start" x="30.5" y="-88.3" font-family="Helvetica,sans-Serif" font-size="11.00" fill="#000000">NormalizedName</text>
<polygon fill="none" stroke="#000000" points="159.5,-81.2 159.5,-103.2 275.5,-103.2 275.5,-81.2 159.5,-81.2"/>
<text text-anchor="start" x="162.5" y="-88.9" font-family="Helvetica,sans-Serif" font-size="11.00" fill="#000000">nvarchar[512]</text>
<polygon fill="none" stroke="#000000" points="10.5,-59.2 10.5,-81.2 159.5,-81.2 159.5,-59.2 10.5,-59.2"/>
<text text-anchor="start" x="30.5" y="-66.3" font-family="Helvetica,sans-Serif" font-size="11.00" fill="#000000">ConcurrencyStamp</text>
<polygon fill="none" stroke="#000000" points="159.5,-59.2 159.5,-81.2 275.5,-81.2 275.5,-59.2 159.5,-59.2"/>
<text text-anchor="start" x="162.4769" y="-66.9" font-family="Helvetica,sans-Serif" font-size="11.00" fill="#000000">nvarchar[2147483647]</text>
<polygon fill="#ffffff" stroke="transparent" points="10.5,-40.2 10.5,-59.2 89.5,-59.2 89.5,-40.2 10.5,-40.2"/>
<polygon fill="none" stroke="#000000" points="10.5,-40.2 10.5,-59.2 89.5,-59.2 89.5,-40.2 10.5,-40.2"/>
<text text-anchor="start" x="13.5" y="-46.3" font-family="Helvetica,sans-Serif" font-size="11.00" fill="#000000">&lt; 0</text>
<polygon fill="#ffffff" stroke="transparent" points="89.5,-40.2 89.5,-59.2 159.5,-59.2 159.5,-40.2 89.5,-40.2"/>
<polygon fill="none" stroke="#000000" points="89.5,-40.2 89.5,-59.2 159.5,-59.2 159.5,-40.2 89.5,-40.2"/>
<text text-anchor="start" x="150.3862" y="-46.3" font-family="Helvetica,sans-Serif" font-size="11.00" fill="#000000"> &#160;</text>
<polygon fill="#ffffff" stroke="transparent" points="159.5,-40.2 159.5,-59.2 275.5,-59.2 275.5,-40.2 159.5,-40.2"/>
<polygon fill="none" stroke="#000000" points="159.5,-40.2 159.5,-59.2 275.5,-59.2 275.5,-40.2 159.5,-40.2"/>
<text text-anchor="start" x="256.9053" y="-46.3" font-family="Helvetica,sans-Serif" font-size="11.00" fill="#000000">2 &gt;</text>
<polygon fill="none" stroke="#000000" stroke-width="2" points="9,-39.2 9,-237.2 276,-237.2 276,-39.2 9,-39.2"/>
</a>
</g>
</g>
<!-- RoleClaims&#45;&gt;Roles -->
<g id="edge1" class="edge">
<title>RoleClaims:w&#45;&gt;Roles:e</title>
<path fill="none" stroke="#000000" d="M312.1448,-174.1238C299.187,-182.6688 296.2587,-202.2 275.5,-202.2"/>
<polygon fill="#000000" stroke="#000000" points="318.3027,-172.3799 326.981,-173.6638 322.1514,-171.29 326,-170.2 326,-170.2 326,-170.2 322.1514,-171.29 325.019,-166.7362 318.3027,-172.3799 318.3027,-172.3799"/>
<ellipse fill="none" stroke="#000000" cx="315.2238" cy="-173.2519" rx="3.2" ry="3.2"/>
</g>
<!-- UserRoles -->
<g id="node3" class="node">
<title>UserRoles</title>
<g id="a_node3"><a xlink:href="../../tables/UserRoles.html" xlink:title="UserRoles" target="_top">
<polygon fill="#ffffff" stroke="transparent" points="326,-247.7 326,-352.7 442,-352.7 442,-247.7 326,-247.7"/>
<polygon fill="#f5f5f5" stroke="transparent" points="326,-329.2 326,-352.2 442,-352.2 442,-329.2 326,-329.2"/>
<polygon fill="none" stroke="#000000" points="326,-329.2 326,-352.2 442,-352.2 442,-329.2 326,-329.2"/>
<text text-anchor="start" x="331" y="-337.8" font-family="Helvetica,sans-Serif" font-weight="bold" font-size="11.00" fill="#000000">UserRoles</text>
<text text-anchor="start" x="407.0437" y="-337.3" font-family="Helvetica,sans-Serif" font-size="11.00" fill="#000000">[table]</text>
<polygon fill="none" stroke="#000000" points="326,-307.2 326,-329.2 442,-329.2 442,-307.2 326,-307.2"/>
<image xlink:href="../../images/primaryKeys.png" width="11px" height="12px" preserveAspectRatio="xMinYMin meet" x="331" y="-324.2"/>
<text text-anchor="start" x="346" y="-314.3" font-family="Helvetica,sans-Serif" font-size="11.00" fill="#000000">UserId</text>
<polygon fill="none" stroke="#000000" points="326,-285.2 326,-307.2 442,-307.2 442,-285.2 326,-285.2"/>
<image xlink:href="../../images/primaryKeys.png" width="11px" height="12px" preserveAspectRatio="xMinYMin meet" x="331" y="-302.2"/>
<text text-anchor="start" x="346" y="-292.3" font-family="Helvetica,sans-Serif" font-size="11.00" fill="#000000">RoleId</text>
<polygon fill="none" stroke="#000000" points="326,-266.2 326,-285.2 442,-285.2 442,-266.2 326,-266.2"/>
<text text-anchor="start" x="329" y="-272.3" font-family="Helvetica,sans-Serif" font-size="11.00" fill="#000000">...</text>
<polygon fill="#ffffff" stroke="transparent" points="326,-247.2 326,-266.2 382,-266.2 382,-247.2 326,-247.2"/>
<polygon fill="none" stroke="#000000" points="326,-247.2 326,-266.2 382,-266.2 382,-247.2 326,-247.2"/>
<text text-anchor="start" x="329" y="-253.3" font-family="Helvetica,sans-Serif" font-size="11.00" fill="#000000">&lt; 2</text>
<polygon fill="#ffffff" stroke="transparent" points="382,-247.2 382,-266.2 412,-266.2 412,-247.2 382,-247.2"/>
<polygon fill="none" stroke="#000000" points="382,-247.2 382,-266.2 412,-266.2 412,-247.2 382,-247.2"/>
<text text-anchor="start" x="402.8862" y="-253.3" font-family="Helvetica,sans-Serif" font-size="11.00" fill="#000000"> &#160;</text>
<polygon fill="#ffffff" stroke="transparent" points="412,-247.2 412,-266.2 442,-266.2 442,-247.2 412,-247.2"/>
<polygon fill="none" stroke="#000000" points="412,-247.2 412,-266.2 442,-266.2 442,-247.2 412,-247.2"/>
<text text-anchor="start" x="432.8862" y="-253.3" font-family="Helvetica,sans-Serif" font-size="11.00" fill="#000000"> &#160;</text>
</a>
</g>
</g>
<!-- UserRoles&#45;&gt;Roles -->
<g id="edge2" class="edge">
<title>UserRoles:w&#45;&gt;Roles:e</title>
<path fill="none" stroke="#000000" d="M312.1591,-292.1609C288.2285,-274.1688 316.9969,-202.2 275.5,-202.2"/>
<polygon fill="#000000" stroke="#000000" points="318.3203,-293.9589 324.9915,-299.6559 322.1602,-295.0794 326,-296.2 326,-296.2 326,-296.2 322.1602,-295.0794 327.0085,-292.7441 318.3203,-293.9589 318.3203,-293.9589"/>
<ellipse fill="none" stroke="#000000" cx="315.2484" cy="-293.0624" rx="3.2" ry="3.2"/>
</g>
<!-- Users -->
<g id="node4" class="node">
<title>Users</title>
<g id="a_node4"><a xlink:href="../../tables/Users.html" xlink:title="Users" target="_top">
<polygon fill="#ffffff" stroke="transparent" points="104,-290.7 104,-351.7 181,-351.7 181,-290.7 104,-290.7"/>
<polygon fill="#f5f5f5" stroke="transparent" points="104.5,-328.2 104.5,-351.2 181.5,-351.2 181.5,-328.2 104.5,-328.2"/>
<polygon fill="none" stroke="#000000" points="104.5,-328.2 104.5,-351.2 181.5,-351.2 181.5,-328.2 104.5,-328.2"/>
<text text-anchor="start" x="109.5" y="-336.8" font-family="Helvetica,sans-Serif" font-weight="bold" font-size="11.00" fill="#000000">Users</text>
<text text-anchor="start" x="147.0219" y="-336.3" font-family="Helvetica,sans-Serif" font-size="11.00" fill="#000000">[table]</text>
<polygon fill="none" stroke="#000000" points="104.5,-309.2 104.5,-328.2 181.5,-328.2 181.5,-309.2 104.5,-309.2"/>
<text text-anchor="start" x="107.5" y="-315.3" font-family="Helvetica,sans-Serif" font-size="11.00" fill="#000000">...</text>
<polygon fill="#ffffff" stroke="transparent" points="104.5,-290.2 104.5,-309.2 132.5,-309.2 132.5,-290.2 104.5,-290.2"/>
<polygon fill="none" stroke="#000000" points="104.5,-290.2 104.5,-309.2 132.5,-309.2 132.5,-290.2 104.5,-290.2"/>
<text text-anchor="start" x="107.5" y="-296.3" font-family="Helvetica,sans-Serif" font-size="11.00" fill="#000000"> &#160;</text>
<polygon fill="#ffffff" stroke="transparent" points="132.5,-290.2 132.5,-309.2 152.5,-309.2 152.5,-290.2 132.5,-290.2"/>
<polygon fill="none" stroke="#000000" points="132.5,-290.2 132.5,-309.2 152.5,-309.2 152.5,-290.2 132.5,-290.2"/>
<text text-anchor="start" x="143.3862" y="-296.3" font-family="Helvetica,sans-Serif" font-size="11.00" fill="#000000"> &#160;</text>
<polygon fill="#ffffff" stroke="transparent" points="152.5,-290.2 152.5,-309.2 181.5,-309.2 181.5,-290.2 152.5,-290.2"/>
<polygon fill="none" stroke="#000000" points="152.5,-290.2 152.5,-309.2 181.5,-309.2 181.5,-290.2 152.5,-290.2"/>
<text text-anchor="start" x="162.9053" y="-296.3" font-family="Helvetica,sans-Serif" font-size="11.00" fill="#000000">6 &gt;</text>
</a>
</g>
</g>
<!-- UserRoles&#45;&gt;Users -->
<g id="edge3" class="edge">
<title>UserRoles:w&#45;&gt;Users:e</title>
<path fill="none" stroke="#000000" d="M311.4488,-318.2C258.8975,-318.2 240.5794,-318.2 181.5,-318.2"/>
<polygon fill="#000000" stroke="#000000" points="318,-318.2001 326,-321.8 322,-318.2 326,-318.2 326,-318.2 326,-318.2 322,-318.2 326,-314.6 318,-318.2001 318,-318.2001"/>
<ellipse fill="none" stroke="#000000" cx="314.8" cy="-318.2001" rx="3.2" ry="3.2"/>
</g>
</g>
</svg>
