<?xml version="1.0" encoding="UTF-8" standalone="no"?>
<!DOCTYPE svg PUBLIC "-//W3C//DTD SVG 1.1//EN"
 "http://www.w3.org/Graphics/SVG/1.1/DTD/svg11.dtd">
<!-- Generated by graphviz version 2.40.1 (20161225.0304)
 -->
<!-- Title: oneDegreeRelationshipsDiagram Pages: 1 -->
<svg width="678pt" height="795pt"
 viewBox="0.00 0.00 678.00 794.70" xmlns="http://www.w3.org/2000/svg" xmlns:xlink="http://www.w3.org/1999/xlink">
<g id="graph0" class="graph" transform="scale(1 1) rotate(0) translate(4 790.7)">
<title>oneDegreeRelationshipsDiagram</title>
<polygon fill="#ffffff" stroke="transparent" points="-4,4 -4,-790.7 674,-790.7 674,4 -4,4"/>
<text text-anchor="middle" x="72.4936" y="-7.3" font-family="Helvetica,sans-Serif" font-size="11.00" fill="#000000">Generated by SchemaSpy</text>
<!-- Clinical.HospitalizationStatusHistories -->
<g id="node1" class="node">
<title>Clinical.HospitalizationStatusHistories</title>
<g id="a_node1"><a xlink:title="Clinical.HospitalizationStatusHistories">
<polygon fill="#ffffff" stroke="transparent" points="364,-699.7 364,-782.7 662,-782.7 662,-699.7 364,-699.7"/>
<polygon fill="#f5f5f5" stroke="transparent" points="364,-759.2 364,-782.2 662,-782.2 662,-759.2 364,-759.2"/>
<polygon fill="none" stroke="#000000" points="364,-759.2 364,-782.2 662,-782.2 662,-759.2 364,-759.2"/>
<text text-anchor="start" x="369" y="-767.8" font-family="Helvetica,sans-Serif" font-weight="bold" font-size="11.00" fill="#000000">Clinical.HospitalizationStatusHistories</text>
<text text-anchor="start" x="627.5219" y="-767.3" font-family="Helvetica,sans-Serif" font-size="11.00" fill="#000000">[table]</text>
<polygon fill="none" stroke="#000000" points="364,-737.2 364,-759.2 662,-759.2 662,-737.2 364,-737.2"/>
<image xlink:href="../../images/foreignKeys.png" width="11px" height="12px" preserveAspectRatio="xMinYMin meet" x="369" y="-754.2"/>
<text text-anchor="start" x="420" y="-744.3" font-family="Helvetica,sans-Serif" font-size="11.00" fill="#000000">ChangedByUserId</text>
<polygon fill="none" stroke="#000000" points="364,-718.2 364,-737.2 662,-737.2 662,-718.2 364,-718.2"/>
<text text-anchor="start" x="367" y="-724.3" font-family="Helvetica,sans-Serif" font-size="11.00" fill="#000000">...</text>
<polygon fill="#ffffff" stroke="transparent" points="364,-699.2 364,-718.2 511,-718.2 511,-699.2 364,-699.2"/>
<polygon fill="none" stroke="#000000" points="364,-699.2 364,-718.2 511,-718.2 511,-699.2 364,-699.2"/>
<text text-anchor="start" x="367" y="-705.3" font-family="Helvetica,sans-Serif" font-size="11.00" fill="#000000">&lt; 1</text>
<polygon fill="#ffffff" stroke="transparent" points="511,-699.2 511,-718.2 586,-718.2 586,-699.2 511,-699.2"/>
<polygon fill="none" stroke="#000000" points="511,-699.2 511,-718.2 586,-718.2 586,-699.2 511,-699.2"/>
<text text-anchor="start" x="576.8862" y="-705.3" font-family="Helvetica,sans-Serif" font-size="11.00" fill="#000000"> &#160;</text>
<polygon fill="#ffffff" stroke="transparent" points="586,-699.2 586,-718.2 662,-718.2 662,-699.2 586,-699.2"/>
<polygon fill="none" stroke="#000000" points="586,-699.2 586,-718.2 662,-718.2 662,-699.2 586,-699.2"/>
<text text-anchor="start" x="652.8862" y="-705.3" font-family="Helvetica,sans-Serif" font-size="11.00" fill="#000000"> &#160;</text>
</a>
</g>
</g>
<!-- Users -->
<g id="node2" class="node">
<title>Users</title>
<g id="a_node2"><a xlink:href="../../tables/Users.html" xlink:title="Users" target="_top">
<polygon fill="#ffffff" stroke="transparent" points="8,-38.2 8,-480.2 315,-480.2 315,-38.2 8,-38.2"/>
<polygon fill="#f5f5f5" stroke="transparent" points="10.5,-455.2 10.5,-478.2 313.5,-478.2 313.5,-455.2 10.5,-455.2"/>
<polygon fill="none" stroke="#000000" points="10.5,-455.2 10.5,-478.2 313.5,-478.2 313.5,-455.2 10.5,-455.2"/>
<text text-anchor="start" x="15.5" y="-463.8" font-family="Helvetica,sans-Serif" font-weight="bold" font-size="11.00" fill="#000000">Users</text>
<text text-anchor="start" x="278.5437" y="-463.3" font-family="Helvetica,sans-Serif" font-size="11.00" fill="#000000">[table]</text>
<polygon fill="none" stroke="#000000" points="10.5,-433.2 10.5,-455.2 197.5,-455.2 197.5,-433.2 10.5,-433.2"/>
<image xlink:href="../../images/primaryKeys.png" width="11px" height="12px" preserveAspectRatio="xMinYMin meet" x="15.5" y="-450.2"/>
<text text-anchor="start" x="30.5" y="-440.3" font-family="Helvetica,sans-Serif" font-size="11.00" fill="#000000">Id</text>
<polygon fill="none" stroke="#000000" points="197.5,-433.2 197.5,-455.2 313.5,-455.2 313.5,-433.2 197.5,-433.2"/>
<text text-anchor="start" x="200.5" y="-440.9" font-family="Helvetica,sans-Serif" font-size="11.00" fill="#000000">int identity[4]</text>
<polygon fill="none" stroke="#000000" points="10.5,-411.2 10.5,-433.2 197.5,-433.2 197.5,-411.2 10.5,-411.2"/>
<text text-anchor="start" x="30.5" y="-418.3" font-family="Helvetica,sans-Serif" font-size="11.00" fill="#000000">CreatedAtUtc</text>
<polygon fill="none" stroke="#000000" points="197.5,-411.2 197.5,-433.2 313.5,-433.2 313.5,-411.2 197.5,-411.2"/>
<text text-anchor="start" x="200.5" y="-418.9" font-family="Helvetica,sans-Serif" font-size="11.00" fill="#000000">datetime2[16,7]</text>
<polygon fill="none" stroke="#000000" points="10.5,-389.2 10.5,-411.2 197.5,-411.2 197.5,-389.2 10.5,-389.2"/>
<text text-anchor="start" x="30.5" y="-396.3" font-family="Helvetica,sans-Serif" font-size="11.00" fill="#000000">UpdatedAtUtc</text>
<polygon fill="none" stroke="#000000" points="197.5,-389.2 197.5,-411.2 313.5,-411.2 313.5,-389.2 197.5,-389.2"/>
<text text-anchor="start" x="200.5" y="-396.9" font-family="Helvetica,sans-Serif" font-size="11.00" fill="#000000">datetime2[16,7]</text>
<polygon fill="none" stroke="#000000" points="10.5,-367.2 10.5,-389.2 197.5,-389.2 197.5,-367.2 10.5,-367.2"/>
<text text-anchor="start" x="30.5" y="-374.3" font-family="Helvetica,sans-Serif" font-size="11.00" fill="#000000">RowVersion</text>
<polygon fill="none" stroke="#000000" points="197.5,-367.2 197.5,-389.2 313.5,-389.2 313.5,-367.2 197.5,-367.2"/>
<text text-anchor="start" x="200.5" y="-374.9" font-family="Helvetica,sans-Serif" font-size="11.00" fill="#000000">timestamp[8]</text>
<polygon fill="none" stroke="#000000" points="10.5,-345.2 10.5,-367.2 197.5,-367.2 197.5,-345.2 10.5,-345.2"/>
<text text-anchor="start" x="30.5" y="-352.3" font-family="Helvetica,sans-Serif" font-size="11.00" fill="#000000">UserName</text>
<polygon fill="none" stroke="#000000" points="197.5,-345.2 197.5,-367.2 313.5,-367.2 313.5,-345.2 197.5,-345.2"/>
<text text-anchor="start" x="200.5" y="-352.9" font-family="Helvetica,sans-Serif" font-size="11.00" fill="#000000">nvarchar[512]</text>
<polygon fill="#ffffff" stroke="transparent" points="10.5,-323.2 10.5,-345.2 197.5,-345.2 197.5,-323.2 10.5,-323.2"/>
<polygon fill="none" stroke="#000000" points="10.5,-323.2 10.5,-345.2 197.5,-345.2 197.5,-323.2 10.5,-323.2"/>
<text text-anchor="start" x="30.5" y="-330.3" font-family="Helvetica,sans-Serif" font-size="11.00" fill="#000000">NormalizedUserName</text>
<polygon fill="none" stroke="#000000" points="197.5,-323.2 197.5,-345.2 313.5,-345.2 313.5,-323.2 197.5,-323.2"/>
<text text-anchor="start" x="200.5" y="-330.9" font-family="Helvetica,sans-Serif" font-size="11.00" fill="#000000">nvarchar[512]</text>
<polygon fill="none" stroke="#000000" points="10.5,-301.2 10.5,-323.2 197.5,-323.2 197.5,-301.2 10.5,-301.2"/>
<text text-anchor="start" x="30.5" y="-308.3" font-family="Helvetica,sans-Serif" font-size="11.00" fill="#000000">Email</text>
<polygon fill="none" stroke="#000000" points="197.5,-301.2 197.5,-323.2 313.5,-323.2 313.5,-301.2 197.5,-301.2"/>
<text text-anchor="start" x="200.5" y="-308.9" font-family="Helvetica,sans-Serif" font-size="11.00" fill="#000000">nvarchar[512]</text>
<polygon fill="#ffffff" stroke="transparent" points="10.5,-279.2 10.5,-301.2 197.5,-301.2 197.5,-279.2 10.5,-279.2"/>
<polygon fill="none" stroke="#000000" points="10.5,-279.2 10.5,-301.2 197.5,-301.2 197.5,-279.2 10.5,-279.2"/>
<text text-anchor="start" x="30.5" y="-286.3" font-family="Helvetica,sans-Serif" font-size="11.00" fill="#000000">NormalizedEmail</text>
<polygon fill="none" stroke="#000000" points="197.5,-279.2 197.5,-301.2 313.5,-301.2 313.5,-279.2 197.5,-279.2"/>
<text text-anchor="start" x="200.5" y="-286.9" font-family="Helvetica,sans-Serif" font-size="11.00" fill="#000000">nvarchar[512]</text>
<polygon fill="none" stroke="#000000" points="10.5,-257.2 10.5,-279.2 197.5,-279.2 197.5,-257.2 10.5,-257.2"/>
<text text-anchor="start" x="30.5" y="-264.3" font-family="Helvetica,sans-Serif" font-size="11.00" fill="#000000">EmailConfirmed</text>
<polygon fill="none" stroke="#000000" points="197.5,-257.2 197.5,-279.2 313.5,-279.2 313.5,-257.2 197.5,-257.2"/>
<text text-anchor="start" x="200.5" y="-264.9" font-family="Helvetica,sans-Serif" font-size="11.00" fill="#000000">bit[1]</text>
<polygon fill="none" stroke="#000000" points="10.5,-235.2 10.5,-257.2 197.5,-257.2 197.5,-235.2 10.5,-235.2"/>
<text text-anchor="start" x="30.5" y="-242.3" font-family="Helvetica,sans-Serif" font-size="11.00" fill="#000000">PasswordHash</text>
<polygon fill="none" stroke="#000000" points="197.5,-235.2 197.5,-257.2 313.5,-257.2 313.5,-235.2 197.5,-235.2"/>
<text text-anchor="start" x="200.4769" y="-242.9" font-family="Helvetica,sans-Serif" font-size="11.00" fill="#000000">nvarchar[2147483647]</text>
<polygon fill="none" stroke="#000000" points="10.5,-213.2 10.5,-235.2 197.5,-235.2 197.5,-213.2 10.5,-213.2"/>
<text text-anchor="start" x="30.5" y="-220.3" font-family="Helvetica,sans-Serif" font-size="11.00" fill="#000000">SecurityStamp</text>
<polygon fill="none" stroke="#000000" points="197.5,-213.2 197.5,-235.2 313.5,-235.2 313.5,-213.2 197.5,-213.2"/>
<text text-anchor="start" x="200.4769" y="-220.9" font-family="Helvetica,sans-Serif" font-size="11.00" fill="#000000">nvarchar[2147483647]</text>
<polygon fill="none" stroke="#000000" points="10.5,-191.2 10.5,-213.2 197.5,-213.2 197.5,-191.2 10.5,-191.2"/>
<text text-anchor="start" x="30.5" y="-198.3" font-family="Helvetica,sans-Serif" font-size="11.00" fill="#000000">ConcurrencyStamp</text>
<polygon fill="none" stroke="#000000" points="197.5,-191.2 197.5,-213.2 313.5,-213.2 313.5,-191.2 197.5,-191.2"/>
<text text-anchor="start" x="200.4769" y="-198.9" font-family="Helvetica,sans-Serif" font-size="11.00" fill="#000000">nvarchar[2147483647]</text>
<polygon fill="none" stroke="#000000" points="10.5,-169.2 10.5,-191.2 197.5,-191.2 197.5,-169.2 10.5,-169.2"/>
<text text-anchor="start" x="30.5" y="-176.3" font-family="Helvetica,sans-Serif" font-size="11.00" fill="#000000">PhoneNumber</text>
<polygon fill="none" stroke="#000000" points="197.5,-169.2 197.5,-191.2 313.5,-191.2 313.5,-169.2 197.5,-169.2"/>
<text text-anchor="start" x="200.4769" y="-176.9" font-family="Helvetica,sans-Serif" font-size="11.00" fill="#000000">nvarchar[2147483647]</text>
<polygon fill="none" stroke="#000000" points="10.5,-147.2 10.5,-169.2 197.5,-169.2 197.5,-147.2 10.5,-147.2"/>
<text text-anchor="start" x="30.5" y="-154.3" font-family="Helvetica,sans-Serif" font-size="11.00" fill="#000000">PhoneNumberConfirmed</text>
<polygon fill="none" stroke="#000000" points="197.5,-147.2 197.5,-169.2 313.5,-169.2 313.5,-147.2 197.5,-147.2"/>
<text text-anchor="start" x="200.5" y="-154.9" font-family="Helvetica,sans-Serif" font-size="11.00" fill="#000000">bit[1]</text>
<polygon fill="none" stroke="#000000" points="10.5,-125.2 10.5,-147.2 197.5,-147.2 197.5,-125.2 10.5,-125.2"/>
<text text-anchor="start" x="30.5" y="-132.3" font-family="Helvetica,sans-Serif" font-size="11.00" fill="#000000">TwoFactorEnabled</text>
<polygon fill="none" stroke="#000000" points="197.5,-125.2 197.5,-147.2 313.5,-147.2 313.5,-125.2 197.5,-125.2"/>
<text text-anchor="start" x="200.5" y="-132.9" font-family="Helvetica,sans-Serif" font-size="11.00" fill="#000000">bit[1]</text>
<polygon fill="none" stroke="#000000" points="10.5,-103.2 10.5,-125.2 197.5,-125.2 197.5,-103.2 10.5,-103.2"/>
<text text-anchor="start" x="30.5" y="-110.3" font-family="Helvetica,sans-Serif" font-size="11.00" fill="#000000">LockoutEnd</text>
<polygon fill="none" stroke="#000000" points="197.5,-103.2 197.5,-125.2 313.5,-125.2 313.5,-103.2 197.5,-103.2"/>
<text text-anchor="start" x="200.5" y="-110.9" font-family="Helvetica,sans-Serif" font-size="11.00" fill="#000000">datetimeoffset[20,7]</text>
<polygon fill="none" stroke="#000000" points="10.5,-81.2 10.5,-103.2 197.5,-103.2 197.5,-81.2 10.5,-81.2"/>
<text text-anchor="start" x="30.5" y="-88.3" font-family="Helvetica,sans-Serif" font-size="11.00" fill="#000000">LockoutEnabled</text>
<polygon fill="none" stroke="#000000" points="197.5,-81.2 197.5,-103.2 313.5,-103.2 313.5,-81.2 197.5,-81.2"/>
<text text-anchor="start" x="200.5" y="-88.9" font-family="Helvetica,sans-Serif" font-size="11.00" fill="#000000">bit[1]</text>
<polygon fill="none" stroke="#000000" points="10.5,-59.2 10.5,-81.2 197.5,-81.2 197.5,-59.2 10.5,-59.2"/>
<text text-anchor="start" x="30.5" y="-66.3" font-family="Helvetica,sans-Serif" font-size="11.00" fill="#000000">AccessFailedCount</text>
<polygon fill="none" stroke="#000000" points="197.5,-59.2 197.5,-81.2 313.5,-81.2 313.5,-59.2 197.5,-59.2"/>
<text text-anchor="start" x="200.5" y="-66.9" font-family="Helvetica,sans-Serif" font-size="11.00" fill="#000000">int[4]</text>
<polygon fill="#ffffff" stroke="transparent" points="10.5,-40.2 10.5,-59.2 108.5,-59.2 108.5,-40.2 10.5,-40.2"/>
<polygon fill="none" stroke="#000000" points="10.5,-40.2 10.5,-59.2 108.5,-59.2 108.5,-40.2 10.5,-40.2"/>
<text text-anchor="start" x="13.5" y="-46.3" font-family="Helvetica,sans-Serif" font-size="11.00" fill="#000000">&lt; 0</text>
<polygon fill="#ffffff" stroke="transparent" points="108.5,-40.2 108.5,-59.2 197.5,-59.2 197.5,-40.2 108.5,-40.2"/>
<polygon fill="none" stroke="#000000" points="108.5,-40.2 108.5,-59.2 197.5,-59.2 197.5,-40.2 108.5,-40.2"/>
<text text-anchor="start" x="188.3862" y="-46.3" font-family="Helvetica,sans-Serif" font-size="11.00" fill="#000000"> &#160;</text>
<polygon fill="#ffffff" stroke="transparent" points="197.5,-40.2 197.5,-59.2 313.5,-59.2 313.5,-40.2 197.5,-40.2"/>
<polygon fill="none" stroke="#000000" points="197.5,-40.2 197.5,-59.2 313.5,-59.2 313.5,-40.2 197.5,-40.2"/>
<text text-anchor="start" x="294.9053" y="-46.3" font-family="Helvetica,sans-Serif" font-size="11.00" fill="#000000">6 &gt;</text>
<polygon fill="none" stroke="#000000" stroke-width="2" points="9,-39.2 9,-479.2 314,-479.2 314,-39.2 9,-39.2"/>
</a>
</g>
</g>
<!-- Clinical.HospitalizationStatusHistories&#45;&gt;Users -->
<g id="edge1" class="edge">
<title>Clinical.HospitalizationStatusHistories:w&#45;&gt;Users:e</title>
<path fill="none" stroke="#000000" d="M350.37,-742.664C308.3726,-701.4619 376.4975,-444.2 313.5,-444.2"/>
<polygon fill="#000000" stroke="#000000" points="356.588,-745.1895 362.6453,-751.5354 360.294,-746.6947 364,-748.2 364,-748.2 364,-748.2 360.294,-746.6947 365.3547,-744.8646 356.588,-745.1895 356.588,-745.1895"/>
<ellipse fill="none" stroke="#000000" cx="353.6233" cy="-743.9853" rx="3.2" ry="3.2"/>
</g>
<!-- Clinical.VisitEvents -->
<g id="node3" class="node">
<title>Clinical.VisitEvents</title>
<g id="a_node3"><a xlink:title="Clinical.VisitEvents">
<polygon fill="#ffffff" stroke="transparent" points="429,-595.7 429,-678.7 597,-678.7 597,-595.7 429,-595.7"/>
<polygon fill="#f5f5f5" stroke="transparent" points="429,-655.2 429,-678.2 597,-678.2 597,-655.2 429,-655.2"/>
<polygon fill="none" stroke="#000000" points="429,-655.2 429,-678.2 597,-678.2 597,-655.2 429,-655.2"/>
<text text-anchor="start" x="434" y="-663.8" font-family="Helvetica,sans-Serif" font-weight="bold" font-size="11.00" fill="#000000">Clinical.VisitEvents</text>
<text text-anchor="start" x="562.5219" y="-663.3" font-family="Helvetica,sans-Serif" font-size="11.00" fill="#000000">[table]</text>
<polygon fill="none" stroke="#000000" points="429,-633.2 429,-655.2 597,-655.2 597,-633.2 429,-633.2"/>
<image xlink:href="../../images/foreignKeys.png" width="11px" height="12px" preserveAspectRatio="xMinYMin meet" x="434" y="-650.2"/>
<text text-anchor="start" x="466" y="-640.3" font-family="Helvetica,sans-Serif" font-size="11.00" fill="#000000">EnteredByUserId</text>
<polygon fill="none" stroke="#000000" points="429,-614.2 429,-633.2 597,-633.2 597,-614.2 429,-614.2"/>
<text text-anchor="start" x="432" y="-620.3" font-family="Helvetica,sans-Serif" font-size="11.00" fill="#000000">...</text>
<polygon fill="#ffffff" stroke="transparent" points="429,-595.2 429,-614.2 511,-614.2 511,-595.2 429,-595.2"/>
<polygon fill="none" stroke="#000000" points="429,-595.2 429,-614.2 511,-614.2 511,-595.2 429,-595.2"/>
<text text-anchor="start" x="432" y="-601.3" font-family="Helvetica,sans-Serif" font-size="11.00" fill="#000000">&lt; 1</text>
<polygon fill="#ffffff" stroke="transparent" points="511,-595.2 511,-614.2 554,-614.2 554,-595.2 511,-595.2"/>
<polygon fill="none" stroke="#000000" points="511,-595.2 511,-614.2 554,-614.2 554,-595.2 511,-595.2"/>
<text text-anchor="start" x="544.8862" y="-601.3" font-family="Helvetica,sans-Serif" font-size="11.00" fill="#000000"> &#160;</text>
<polygon fill="#ffffff" stroke="transparent" points="554,-595.2 554,-614.2 597,-614.2 597,-595.2 554,-595.2"/>
<polygon fill="none" stroke="#000000" points="554,-595.2 554,-614.2 597,-614.2 597,-595.2 554,-595.2"/>
<text text-anchor="start" x="587.8862" y="-601.3" font-family="Helvetica,sans-Serif" font-size="11.00" fill="#000000"> &#160;</text>
</a>
</g>
</g>
<!-- Clinical.VisitEvents&#45;&gt;Users -->
<g id="edge2" class="edge">
<title>Clinical.VisitEvents:w&#45;&gt;Users:e</title>
<path fill="none" stroke="#000000" d="M414.443,-643.0149C384.9654,-637.7442 376.2751,-615.3567 356,-585.2 319.4815,-530.8833 378.9515,-444.2 313.5,-444.2"/>
<polygon fill="#000000" stroke="#000000" points="421.0264,-643.5508 428.7079,-647.7881 425.0132,-643.8754 429,-644.2 429,-644.2 429,-644.2 425.0132,-643.8754 429.2921,-640.6119 421.0264,-643.5508 421.0264,-643.5508"/>
<ellipse fill="none" stroke="#000000" cx="417.8369" cy="-643.2911" rx="3.2" ry="3.2"/>
</g>
<!-- UserClaims -->
<g id="node4" class="node">
<title>UserClaims</title>
<g id="a_node4"><a xlink:href="../../tables/UserClaims.html" xlink:title="UserClaims" target="_top">
<polygon fill="#ffffff" stroke="transparent" points="455,-469.7 455,-574.7 571,-574.7 571,-469.7 455,-469.7"/>
<polygon fill="#f5f5f5" stroke="transparent" points="455,-551.2 455,-574.2 571,-574.2 571,-551.2 455,-551.2"/>
<polygon fill="none" stroke="#000000" points="455,-551.2 455,-574.2 571,-574.2 571,-551.2 455,-551.2"/>
<text text-anchor="start" x="460" y="-559.8" font-family="Helvetica,sans-Serif" font-weight="bold" font-size="11.00" fill="#000000">UserClaims</text>
<text text-anchor="start" x="536.0437" y="-559.3" font-family="Helvetica,sans-Serif" font-size="11.00" fill="#000000">[table]</text>
<polygon fill="none" stroke="#000000" points="455,-529.2 455,-551.2 571,-551.2 571,-529.2 455,-529.2"/>
<image xlink:href="../../images/primaryKeys.png" width="11px" height="12px" preserveAspectRatio="xMinYMin meet" x="460" y="-546.2"/>
<text text-anchor="start" x="475" y="-536.3" font-family="Helvetica,sans-Serif" font-size="11.00" fill="#000000">Id</text>
<polygon fill="#ffffff" stroke="transparent" points="455,-507.2 455,-529.2 571,-529.2 571,-507.2 455,-507.2"/>
<polygon fill="none" stroke="#000000" points="455,-507.2 455,-529.2 571,-529.2 571,-507.2 455,-507.2"/>
<image xlink:href="../../images/foreignKeys.png" width="11px" height="12px" preserveAspectRatio="xMinYMin meet" x="460" y="-524.2"/>
<text text-anchor="start" x="475" y="-514.3" font-family="Helvetica,sans-Serif" font-size="11.00" fill="#000000">UserId</text>
<polygon fill="none" stroke="#000000" points="455,-488.2 455,-507.2 571,-507.2 571,-488.2 455,-488.2"/>
<text text-anchor="start" x="458" y="-494.3" font-family="Helvetica,sans-Serif" font-size="11.00" fill="#000000">...</text>
<polygon fill="#ffffff" stroke="transparent" points="455,-469.2 455,-488.2 511,-488.2 511,-469.2 455,-469.2"/>
<polygon fill="none" stroke="#000000" points="455,-469.2 455,-488.2 511,-488.2 511,-469.2 455,-469.2"/>
<text text-anchor="start" x="458" y="-475.3" font-family="Helvetica,sans-Serif" font-size="11.00" fill="#000000">&lt; 1</text>
<polygon fill="#ffffff" stroke="transparent" points="511,-469.2 511,-488.2 541,-488.2 541,-469.2 511,-469.2"/>
<polygon fill="none" stroke="#000000" points="511,-469.2 511,-488.2 541,-488.2 541,-469.2 511,-469.2"/>
<text text-anchor="start" x="531.8862" y="-475.3" font-family="Helvetica,sans-Serif" font-size="11.00" fill="#000000"> &#160;</text>
<polygon fill="#ffffff" stroke="transparent" points="541,-469.2 541,-488.2 571,-488.2 571,-469.2 541,-469.2"/>
<polygon fill="none" stroke="#000000" points="541,-469.2 541,-488.2 571,-488.2 571,-469.2 541,-469.2"/>
<text text-anchor="start" x="561.8862" y="-475.3" font-family="Helvetica,sans-Serif" font-size="11.00" fill="#000000"> &#160;</text>
</a>
</g>
</g>
<!-- UserClaims&#45;&gt;Users -->
<g id="edge3" class="edge">
<title>UserClaims:w&#45;&gt;Users:e</title>
<path fill="none" stroke="#000000" d="M440.6918,-515.2075C402.9475,-501.3632 344.6878,-444.2 313.5,-444.2"/>
<polygon fill="#000000" stroke="#000000" points="447.1694,-516.5622 454.263,-521.7238 451.0847,-517.3811 455,-518.2 455,-518.2 455,-518.2 451.0847,-517.3811 455.737,-514.6762 447.1694,-516.5622 447.1694,-516.5622"/>
<ellipse fill="none" stroke="#000000" cx="444.0372" cy="-515.9071" rx="3.2" ry="3.2"/>
</g>
<!-- UserLogins -->
<g id="node5" class="node">
<title>UserLogins</title>
<g id="a_node5"><a xlink:href="../../tables/UserLogins.html" xlink:title="UserLogins" target="_top">
<polygon fill="#ffffff" stroke="transparent" points="429.5,-321.7 429.5,-448.7 596.5,-448.7 596.5,-321.7 429.5,-321.7"/>
<polygon fill="#f5f5f5" stroke="transparent" points="430,-425.2 430,-448.2 597,-448.2 597,-425.2 430,-425.2"/>
<polygon fill="none" stroke="#000000" points="430,-425.2 430,-448.2 597,-448.2 597,-425.2 430,-425.2"/>
<text text-anchor="start" x="435" y="-433.8" font-family="Helvetica,sans-Serif" font-weight="bold" font-size="11.00" fill="#000000">UserLogins</text>
<text text-anchor="start" x="562.0437" y="-433.3" font-family="Helvetica,sans-Serif" font-size="11.00" fill="#000000">[table]</text>
<polygon fill="none" stroke="#000000" points="430,-403.2 430,-425.2 597,-425.2 597,-403.2 430,-403.2"/>
<image xlink:href="../../images/primaryKeys.png" width="11px" height="12px" preserveAspectRatio="xMinYMin meet" x="435" y="-420.2"/>
<text text-anchor="start" x="450" y="-410.3" font-family="Helvetica,sans-Serif" font-size="11.00" fill="#000000">LoginProvider</text>
<polygon fill="none" stroke="#000000" points="430,-381.2 430,-403.2 597,-403.2 597,-381.2 430,-381.2"/>
<image xlink:href="../../images/primaryKeys.png" width="11px" height="12px" preserveAspectRatio="xMinYMin meet" x="435" y="-398.2"/>
<text text-anchor="start" x="450" y="-388.3" font-family="Helvetica,sans-Serif" font-size="11.00" fill="#000000">ProviderKey</text>
<polygon fill="#ffffff" stroke="transparent" points="430,-359.2 430,-381.2 597,-381.2 597,-359.2 430,-359.2"/>
<polygon fill="none" stroke="#000000" points="430,-359.2 430,-381.2 597,-381.2 597,-359.2 430,-359.2"/>
<image xlink:href="../../images/foreignKeys.png" width="11px" height="12px" preserveAspectRatio="xMinYMin meet" x="435" y="-376.2"/>
<text text-anchor="start" x="450" y="-366.3" font-family="Helvetica,sans-Serif" font-size="11.00" fill="#000000">UserId</text>
<polygon fill="none" stroke="#000000" points="430,-340.2 430,-359.2 597,-359.2 597,-340.2 430,-340.2"/>
<text text-anchor="start" x="433" y="-346.3" font-family="Helvetica,sans-Serif" font-size="11.00" fill="#000000">...</text>
<polygon fill="#ffffff" stroke="transparent" points="430,-321.2 430,-340.2 512,-340.2 512,-321.2 430,-321.2"/>
<polygon fill="none" stroke="#000000" points="430,-321.2 430,-340.2 512,-340.2 512,-321.2 430,-321.2"/>
<text text-anchor="start" x="433" y="-327.3" font-family="Helvetica,sans-Serif" font-size="11.00" fill="#000000">&lt; 1</text>
<polygon fill="#ffffff" stroke="transparent" points="512,-321.2 512,-340.2 554,-340.2 554,-321.2 512,-321.2"/>
<polygon fill="none" stroke="#000000" points="512,-321.2 512,-340.2 554,-340.2 554,-321.2 512,-321.2"/>
<text text-anchor="start" x="544.8862" y="-327.3" font-family="Helvetica,sans-Serif" font-size="11.00" fill="#000000"> &#160;</text>
<polygon fill="#ffffff" stroke="transparent" points="554,-321.2 554,-340.2 597,-340.2 597,-321.2 554,-321.2"/>
<polygon fill="none" stroke="#000000" points="554,-321.2 554,-340.2 597,-340.2 597,-321.2 554,-321.2"/>
<text text-anchor="start" x="587.8862" y="-327.3" font-family="Helvetica,sans-Serif" font-size="11.00" fill="#000000"> &#160;</text>
</a>
</g>
</g>
<!-- UserLogins&#45;&gt;Users -->
<g id="edge4" class="edge">
<title>UserLogins:w&#45;&gt;Users:e</title>
<path fill="none" stroke="#000000" d="M415.596,-371.7456C369.2234,-382.3722 369.5688,-444.2 313.5,-444.2"/>
<polygon fill="#000000" stroke="#000000" points="422.0457,-371.0536 430.3841,-373.7795 426.0228,-370.6268 430,-370.2 430,-370.2 430,-370.2 426.0228,-370.6268 429.6159,-366.6205 422.0457,-371.0536 422.0457,-371.0536"/>
<ellipse fill="none" stroke="#000000" cx="418.8639" cy="-371.395" rx="3.2" ry="3.2"/>
</g>
<!-- UserRoles -->
<g id="node6" class="node">
<title>UserRoles</title>
<g id="a_node6"><a xlink:href="../../tables/UserRoles.html" xlink:title="UserRoles" target="_top">
<polygon fill="#ffffff" stroke="transparent" points="455,-195.7 455,-300.7 571,-300.7 571,-195.7 455,-195.7"/>
<polygon fill="#f5f5f5" stroke="transparent" points="455,-277.2 455,-300.2 571,-300.2 571,-277.2 455,-277.2"/>
<polygon fill="none" stroke="#000000" points="455,-277.2 455,-300.2 571,-300.2 571,-277.2 455,-277.2"/>
<text text-anchor="start" x="460" y="-285.8" font-family="Helvetica,sans-Serif" font-weight="bold" font-size="11.00" fill="#000000">UserRoles</text>
<text text-anchor="start" x="536.0437" y="-285.3" font-family="Helvetica,sans-Serif" font-size="11.00" fill="#000000">[table]</text>
<polygon fill="none" stroke="#000000" points="455,-255.2 455,-277.2 571,-277.2 571,-255.2 455,-255.2"/>
<image xlink:href="../../images/primaryKeys.png" width="11px" height="12px" preserveAspectRatio="xMinYMin meet" x="460" y="-272.2"/>
<text text-anchor="start" x="475" y="-262.3" font-family="Helvetica,sans-Serif" font-size="11.00" fill="#000000">UserId</text>
<polygon fill="none" stroke="#000000" points="455,-233.2 455,-255.2 571,-255.2 571,-233.2 455,-233.2"/>
<image xlink:href="../../images/primaryKeys.png" width="11px" height="12px" preserveAspectRatio="xMinYMin meet" x="460" y="-250.2"/>
<text text-anchor="start" x="475" y="-240.3" font-family="Helvetica,sans-Serif" font-size="11.00" fill="#000000">RoleId</text>
<polygon fill="none" stroke="#000000" points="455,-214.2 455,-233.2 571,-233.2 571,-214.2 455,-214.2"/>
<text text-anchor="start" x="458" y="-220.3" font-family="Helvetica,sans-Serif" font-size="11.00" fill="#000000">...</text>
<polygon fill="#ffffff" stroke="transparent" points="455,-195.2 455,-214.2 511,-214.2 511,-195.2 455,-195.2"/>
<polygon fill="none" stroke="#000000" points="455,-195.2 455,-214.2 511,-214.2 511,-195.2 455,-195.2"/>
<text text-anchor="start" x="458" y="-201.3" font-family="Helvetica,sans-Serif" font-size="11.00" fill="#000000">&lt; 2</text>
<polygon fill="#ffffff" stroke="transparent" points="511,-195.2 511,-214.2 541,-214.2 541,-195.2 511,-195.2"/>
<polygon fill="none" stroke="#000000" points="511,-195.2 511,-214.2 541,-214.2 541,-195.2 511,-195.2"/>
<text text-anchor="start" x="531.8862" y="-201.3" font-family="Helvetica,sans-Serif" font-size="11.00" fill="#000000"> &#160;</text>
<polygon fill="#ffffff" stroke="transparent" points="541,-195.2 541,-214.2 571,-214.2 571,-195.2 541,-195.2"/>
<polygon fill="none" stroke="#000000" points="541,-195.2 541,-214.2 571,-214.2 571,-195.2 541,-195.2"/>
<text text-anchor="start" x="561.8862" y="-201.3" font-family="Helvetica,sans-Serif" font-size="11.00" fill="#000000"> &#160;</text>
</a>
</g>
</g>
<!-- UserRoles&#45;&gt;Users -->
<g id="edge5" class="edge">
<title>UserRoles:w&#45;&gt;Users:e</title>
<path fill="none" stroke="#000000" d="M440.153,-266.5427C402.4468,-268.4682 384.601,-279.0297 356,-311.2 314.7683,-357.5774 375.5557,-444.2 313.5,-444.2"/>
<polygon fill="#000000" stroke="#000000" points="447.0021,-266.3846 455.0831,-269.799 451.0011,-266.2923 455,-266.2 455,-266.2 455,-266.2 451.0011,-266.2923 454.9169,-262.601 447.0021,-266.3846 447.0021,-266.3846"/>
<ellipse fill="none" stroke="#000000" cx="443.803" cy="-266.4585" rx="3.2" ry="3.2"/>
</g>
<!-- UserTokens -->
<g id="node7" class="node">
<title>UserTokens</title>
<g id="a_node7"><a xlink:href="../../tables/UserTokens.html" xlink:title="UserTokens" target="_top">
<polygon fill="#ffffff" stroke="transparent" points="454,-47.7 454,-174.7 572,-174.7 572,-47.7 454,-47.7"/>
<polygon fill="#f5f5f5" stroke="transparent" points="454,-151.2 454,-174.2 572,-174.2 572,-151.2 454,-151.2"/>
<polygon fill="none" stroke="#000000" points="454,-151.2 454,-174.2 572,-174.2 572,-151.2 454,-151.2"/>
<text text-anchor="start" x="459" y="-159.8" font-family="Helvetica,sans-Serif" font-weight="bold" font-size="11.00" fill="#000000">UserTokens</text>
<text text-anchor="start" x="537.5219" y="-159.3" font-family="Helvetica,sans-Serif" font-size="11.00" fill="#000000">[table]</text>
<polygon fill="none" stroke="#000000" points="454,-129.2 454,-151.2 572,-151.2 572,-129.2 454,-129.2"/>
<image xlink:href="../../images/primaryKeys.png" width="11px" height="12px" preserveAspectRatio="xMinYMin meet" x="459" y="-146.2"/>
<text text-anchor="start" x="475" y="-136.3" font-family="Helvetica,sans-Serif" font-size="11.00" fill="#000000">UserId</text>
<polygon fill="none" stroke="#000000" points="454,-107.2 454,-129.2 572,-129.2 572,-107.2 454,-107.2"/>
<image xlink:href="../../images/primaryKeys.png" width="11px" height="12px" preserveAspectRatio="xMinYMin meet" x="459" y="-124.2"/>
<text text-anchor="start" x="475" y="-114.3" font-family="Helvetica,sans-Serif" font-size="11.00" fill="#000000">LoginProvider</text>
<polygon fill="none" stroke="#000000" points="454,-85.2 454,-107.2 572,-107.2 572,-85.2 454,-85.2"/>
<image xlink:href="../../images/primaryKeys.png" width="11px" height="12px" preserveAspectRatio="xMinYMin meet" x="459" y="-102.2"/>
<text text-anchor="start" x="475" y="-92.3" font-family="Helvetica,sans-Serif" font-size="11.00" fill="#000000">Name</text>
<polygon fill="none" stroke="#000000" points="454,-66.2 454,-85.2 572,-85.2 572,-66.2 454,-66.2"/>
<text text-anchor="start" x="457" y="-72.3" font-family="Helvetica,sans-Serif" font-size="11.00" fill="#000000">...</text>
<polygon fill="#ffffff" stroke="transparent" points="454,-47.2 454,-66.2 511,-66.2 511,-47.2 454,-47.2"/>
<polygon fill="none" stroke="#000000" points="454,-47.2 454,-66.2 511,-66.2 511,-47.2 454,-47.2"/>
<text text-anchor="start" x="457" y="-53.3" font-family="Helvetica,sans-Serif" font-size="11.00" fill="#000000">&lt; 1</text>
<polygon fill="#ffffff" stroke="transparent" points="511,-47.2 511,-66.2 541,-66.2 541,-47.2 511,-47.2"/>
<polygon fill="none" stroke="#000000" points="511,-47.2 511,-66.2 541,-66.2 541,-47.2 511,-47.2"/>
<text text-anchor="start" x="531.8862" y="-53.3" font-family="Helvetica,sans-Serif" font-size="11.00" fill="#000000"> &#160;</text>
<polygon fill="#ffffff" stroke="transparent" points="541,-47.2 541,-66.2 572,-66.2 572,-47.2 541,-47.2"/>
<polygon fill="none" stroke="#000000" points="541,-47.2 541,-66.2 572,-66.2 572,-47.2 541,-47.2"/>
<text text-anchor="start" x="562.8862" y="-53.3" font-family="Helvetica,sans-Serif" font-size="11.00" fill="#000000"> &#160;</text>
</a>
</g>
</g>
<!-- UserTokens&#45;&gt;Users -->
<g id="edge6" class="edge">
<title>UserTokens:w&#45;&gt;Users:e</title>
<path fill="none" stroke="#000000" d="M439.443,-140.4686C401.4653,-142.0403 381.9401,-151.1825 356,-185.2 320.6333,-231.5793 371.8253,-444.2 313.5,-444.2"/>
<polygon fill="#000000" stroke="#000000" points="446.0014,-140.3477 454.0664,-143.7994 450.0007,-140.2738 454,-140.2 454,-140.2 454,-140.2 450.0007,-140.2738 453.9336,-136.6006 446.0014,-140.3477 446.0014,-140.3477"/>
<ellipse fill="none" stroke="#000000" cx="442.8019" cy="-140.4067" rx="3.2" ry="3.2"/>
</g>
</g>
</svg>
