<?xml version="1.0" encoding="UTF-8" standalone="no"?>
<!DOCTYPE svg PUBLIC "-//W3C//DTD SVG 1.1//EN"
 "http://www.w3.org/Graphics/SVG/1.1/DTD/svg11.dtd">
<!-- Generated by graphviz version 2.40.1 (20161225.0304)
 -->
<!-- Title: twoDegreesRelationshipsDiagram Pages: 1 -->
<svg width="558pt" height="661pt"
 viewBox="0.00 0.00 558.00 660.70" xmlns="http://www.w3.org/2000/svg" xmlns:xlink="http://www.w3.org/1999/xlink">
<g id="graph0" class="graph" transform="scale(1 1) rotate(0) translate(4 656.7)">
<title>twoDegreesRelationshipsDiagram</title>
<polygon fill="#ffffff" stroke="transparent" points="-4,4 -4,-656.7 554,-656.7 554,4 -4,4"/>
<text text-anchor="middle" x="72.4936" y="-7.3" font-family="Helvetica,sans-Serif" font-size="11.00" fill="#000000">Generated by SchemaSpy</text>
<!-- Clinical.HospitalizationStatusHistories -->
<g id="node1" class="node">
<title>Clinical.HospitalizationStatusHistories</title>
<g id="a_node1"><a xlink:title="Clinical.HospitalizationStatusHistories">
<polygon fill="#ffffff" stroke="transparent" points="244,-587.7 244,-648.7 542,-648.7 542,-587.7 244,-587.7"/>
<polygon fill="#f5f5f5" stroke="transparent" points="244,-625.2 244,-648.2 542,-648.2 542,-625.2 244,-625.2"/>
<polygon fill="none" stroke="#000000" points="244,-625.2 244,-648.2 542,-648.2 542,-625.2 244,-625.2"/>
<text text-anchor="start" x="249" y="-633.8" font-family="Helvetica,sans-Serif" font-weight="bold" font-size="11.00" fill="#000000">Clinical.HospitalizationStatusHistories</text>
<text text-anchor="start" x="507.5219" y="-633.3" font-family="Helvetica,sans-Serif" font-size="11.00" fill="#000000">[table]</text>
<polygon fill="none" stroke="#000000" points="244,-606.2 244,-625.2 542,-625.2 542,-606.2 244,-606.2"/>
<text text-anchor="start" x="247" y="-612.3" font-family="Helvetica,sans-Serif" font-size="11.00" fill="#000000">...</text>
<polygon fill="#ffffff" stroke="transparent" points="244,-587.2 244,-606.2 391,-606.2 391,-587.2 244,-587.2"/>
<polygon fill="none" stroke="#000000" points="244,-587.2 244,-606.2 391,-606.2 391,-587.2 244,-587.2"/>
<text text-anchor="start" x="247" y="-593.3" font-family="Helvetica,sans-Serif" font-size="11.00" fill="#000000">&lt; 1</text>
<polygon fill="#ffffff" stroke="transparent" points="391,-587.2 391,-606.2 466,-606.2 466,-587.2 391,-587.2"/>
<polygon fill="none" stroke="#000000" points="391,-587.2 391,-606.2 466,-606.2 466,-587.2 391,-587.2"/>
<text text-anchor="start" x="456.8862" y="-593.3" font-family="Helvetica,sans-Serif" font-size="11.00" fill="#000000"> &#160;</text>
<polygon fill="#ffffff" stroke="transparent" points="466,-587.2 466,-606.2 542,-606.2 542,-587.2 466,-587.2"/>
<polygon fill="none" stroke="#000000" points="466,-587.2 466,-606.2 542,-606.2 542,-587.2 466,-587.2"/>
<text text-anchor="start" x="532.8862" y="-593.3" font-family="Helvetica,sans-Serif" font-size="11.00" fill="#000000"> &#160;</text>
</a>
</g>
</g>
<!-- Users -->
<g id="node2" class="node">
<title>Users</title>
<g id="a_node2"><a xlink:href="../../tables/Users.html" xlink:title="Users" target="_top">
<polygon fill="#ffffff" stroke="transparent" points="8,-317.7 8,-444.7 195,-444.7 195,-317.7 8,-317.7"/>
<polygon fill="#f5f5f5" stroke="transparent" points="8.5,-421.2 8.5,-444.2 195.5,-444.2 195.5,-421.2 8.5,-421.2"/>
<polygon fill="none" stroke="#000000" points="8.5,-421.2 8.5,-444.2 195.5,-444.2 195.5,-421.2 8.5,-421.2"/>
<text text-anchor="start" x="13.5" y="-429.8" font-family="Helvetica,sans-Serif" font-weight="bold" font-size="11.00" fill="#000000">Users</text>
<text text-anchor="start" x="160.5437" y="-429.3" font-family="Helvetica,sans-Serif" font-size="11.00" fill="#000000">[table]</text>
<polygon fill="none" stroke="#000000" points="8.5,-399.2 8.5,-421.2 195.5,-421.2 195.5,-399.2 8.5,-399.2"/>
<image xlink:href="../../images/primaryKeys.png" width="11px" height="12px" preserveAspectRatio="xMinYMin meet" x="13.5" y="-416.2"/>
<text text-anchor="start" x="28.5" y="-406.3" font-family="Helvetica,sans-Serif" font-size="11.00" fill="#000000">Id</text>
<polygon fill="#ffffff" stroke="transparent" points="8.5,-377.2 8.5,-399.2 195.5,-399.2 195.5,-377.2 8.5,-377.2"/>
<polygon fill="none" stroke="#000000" points="8.5,-377.2 8.5,-399.2 195.5,-399.2 195.5,-377.2 8.5,-377.2"/>
<text text-anchor="start" x="28.5" y="-384.3" font-family="Helvetica,sans-Serif" font-size="11.00" fill="#000000">NormalizedUserName</text>
<polygon fill="#ffffff" stroke="transparent" points="8.5,-355.2 8.5,-377.2 195.5,-377.2 195.5,-355.2 8.5,-355.2"/>
<polygon fill="none" stroke="#000000" points="8.5,-355.2 8.5,-377.2 195.5,-377.2 195.5,-355.2 8.5,-355.2"/>
<text text-anchor="start" x="28.5" y="-362.3" font-family="Helvetica,sans-Serif" font-size="11.00" fill="#000000">NormalizedEmail</text>
<polygon fill="none" stroke="#000000" points="8.5,-336.2 8.5,-355.2 195.5,-355.2 195.5,-336.2 8.5,-336.2"/>
<text text-anchor="start" x="11.5" y="-342.3" font-family="Helvetica,sans-Serif" font-size="11.00" fill="#000000">...</text>
<polygon fill="#ffffff" stroke="transparent" points="8.5,-317.2 8.5,-336.2 91.5,-336.2 91.5,-317.2 8.5,-317.2"/>
<polygon fill="none" stroke="#000000" points="8.5,-317.2 8.5,-336.2 91.5,-336.2 91.5,-317.2 8.5,-317.2"/>
<text text-anchor="start" x="11.5" y="-323.3" font-family="Helvetica,sans-Serif" font-size="11.00" fill="#000000"> &#160;</text>
<polygon fill="#ffffff" stroke="transparent" points="91.5,-317.2 91.5,-336.2 138.5,-336.2 138.5,-317.2 91.5,-317.2"/>
<polygon fill="none" stroke="#000000" points="91.5,-317.2 91.5,-336.2 138.5,-336.2 138.5,-317.2 91.5,-317.2"/>
<text text-anchor="start" x="129.3862" y="-323.3" font-family="Helvetica,sans-Serif" font-size="11.00" fill="#000000"> &#160;</text>
<polygon fill="#ffffff" stroke="transparent" points="138.5,-317.2 138.5,-336.2 195.5,-336.2 195.5,-317.2 138.5,-317.2"/>
<polygon fill="none" stroke="#000000" points="138.5,-317.2 138.5,-336.2 195.5,-336.2 195.5,-317.2 138.5,-317.2"/>
<text text-anchor="start" x="176.9053" y="-323.3" font-family="Helvetica,sans-Serif" font-size="11.00" fill="#000000">6 &gt;</text>
</a>
</g>
</g>
<!-- Clinical.HospitalizationStatusHistories&#45;&gt;Users -->
<g id="edge1" class="edge">
<title>Clinical.HospitalizationStatusHistories:w&#45;&gt;Users:e</title>
<path fill="none" stroke="#000000" d="M229.4462,-613.0365C166.3239,-591.1273 283.4575,-410.2 195.5,-410.2"/>
<polygon fill="#000000" stroke="#000000" points="236.087,-614.0236 243.4706,-618.7609 240.0435,-614.6118 244,-615.2 244,-615.2 244,-615.2 240.0435,-614.6118 244.5294,-611.6391 236.087,-614.0236 236.087,-614.0236"/>
<ellipse fill="none" stroke="#000000" cx="232.9217" cy="-613.5531" rx="3.2" ry="3.2"/>
</g>
<!-- Clinical.VisitEvents -->
<g id="node3" class="node">
<title>Clinical.VisitEvents</title>
<g id="a_node3"><a xlink:title="Clinical.VisitEvents">
<polygon fill="#ffffff" stroke="transparent" points="309,-505.7 309,-566.7 477,-566.7 477,-505.7 309,-505.7"/>
<polygon fill="#f5f5f5" stroke="transparent" points="309,-543.2 309,-566.2 477,-566.2 477,-543.2 309,-543.2"/>
<polygon fill="none" stroke="#000000" points="309,-543.2 309,-566.2 477,-566.2 477,-543.2 309,-543.2"/>
<text text-anchor="start" x="314" y="-551.8" font-family="Helvetica,sans-Serif" font-weight="bold" font-size="11.00" fill="#000000">Clinical.VisitEvents</text>
<text text-anchor="start" x="442.5219" y="-551.3" font-family="Helvetica,sans-Serif" font-size="11.00" fill="#000000">[table]</text>
<polygon fill="none" stroke="#000000" points="309,-524.2 309,-543.2 477,-543.2 477,-524.2 309,-524.2"/>
<text text-anchor="start" x="312" y="-530.3" font-family="Helvetica,sans-Serif" font-size="11.00" fill="#000000">...</text>
<polygon fill="#ffffff" stroke="transparent" points="309,-505.2 309,-524.2 391,-524.2 391,-505.2 309,-505.2"/>
<polygon fill="none" stroke="#000000" points="309,-505.2 309,-524.2 391,-524.2 391,-505.2 309,-505.2"/>
<text text-anchor="start" x="312" y="-511.3" font-family="Helvetica,sans-Serif" font-size="11.00" fill="#000000">&lt; 1</text>
<polygon fill="#ffffff" stroke="transparent" points="391,-505.2 391,-524.2 434,-524.2 434,-505.2 391,-505.2"/>
<polygon fill="none" stroke="#000000" points="391,-505.2 391,-524.2 434,-524.2 434,-505.2 391,-505.2"/>
<text text-anchor="start" x="424.8862" y="-511.3" font-family="Helvetica,sans-Serif" font-size="11.00" fill="#000000"> &#160;</text>
<polygon fill="#ffffff" stroke="transparent" points="434,-505.2 434,-524.2 477,-524.2 477,-505.2 434,-505.2"/>
<polygon fill="none" stroke="#000000" points="434,-505.2 434,-524.2 477,-524.2 477,-505.2 434,-505.2"/>
<text text-anchor="start" x="467.8862" y="-511.3" font-family="Helvetica,sans-Serif" font-size="11.00" fill="#000000"> &#160;</text>
</a>
</g>
</g>
<!-- Clinical.VisitEvents&#45;&gt;Users -->
<g id="edge2" class="edge">
<title>Clinical.VisitEvents:w&#45;&gt;Users:e</title>
<path fill="none" stroke="#000000" d="M294.2705,-532.4181C268.8346,-529.409 257.6325,-517.61 236,-495.2 206.9367,-465.0921 237.3469,-410.2 195.5,-410.2"/>
<polygon fill="#000000" stroke="#000000" points="301.0112,-532.7758 308.8091,-536.7949 305.0056,-532.9879 309,-533.2 309,-533.2 309,-533.2 305.0056,-532.9879 309.1909,-529.6051 301.0112,-532.7758 301.0112,-532.7758"/>
<ellipse fill="none" stroke="#000000" cx="297.8157" cy="-532.6062" rx="3.2" ry="3.2"/>
</g>
<!-- UserClaims -->
<g id="node4" class="node">
<title>UserClaims</title>
<g id="a_node4"><a xlink:href="../../tables/UserClaims.html" xlink:title="UserClaims" target="_top">
<polygon fill="#ffffff" stroke="transparent" points="336,-423.7 336,-484.7 450,-484.7 450,-423.7 336,-423.7"/>
<polygon fill="#f5f5f5" stroke="transparent" points="336,-461.2 336,-484.2 450,-484.2 450,-461.2 336,-461.2"/>
<polygon fill="none" stroke="#000000" points="336,-461.2 336,-484.2 450,-484.2 450,-461.2 336,-461.2"/>
<text text-anchor="start" x="341" y="-469.8" font-family="Helvetica,sans-Serif" font-weight="bold" font-size="11.00" fill="#000000">UserClaims</text>
<text text-anchor="start" x="415.5219" y="-469.3" font-family="Helvetica,sans-Serif" font-size="11.00" fill="#000000">[table]</text>
<polygon fill="none" stroke="#000000" points="336,-442.2 336,-461.2 450,-461.2 450,-442.2 336,-442.2"/>
<text text-anchor="start" x="339" y="-448.3" font-family="Helvetica,sans-Serif" font-size="11.00" fill="#000000">...</text>
<polygon fill="#ffffff" stroke="transparent" points="336,-423.2 336,-442.2 391,-442.2 391,-423.2 336,-423.2"/>
<polygon fill="none" stroke="#000000" points="336,-423.2 336,-442.2 391,-442.2 391,-423.2 336,-423.2"/>
<text text-anchor="start" x="339" y="-429.3" font-family="Helvetica,sans-Serif" font-size="11.00" fill="#000000">&lt; 1</text>
<polygon fill="#ffffff" stroke="transparent" points="391,-423.2 391,-442.2 420,-442.2 420,-423.2 391,-423.2"/>
<polygon fill="none" stroke="#000000" points="391,-423.2 391,-442.2 420,-442.2 420,-423.2 391,-423.2"/>
<text text-anchor="start" x="410.8862" y="-429.3" font-family="Helvetica,sans-Serif" font-size="11.00" fill="#000000"> &#160;</text>
<polygon fill="#ffffff" stroke="transparent" points="420,-423.2 420,-442.2 450,-442.2 450,-423.2 420,-423.2"/>
<polygon fill="none" stroke="#000000" points="420,-423.2 420,-442.2 450,-442.2 450,-423.2 420,-423.2"/>
<text text-anchor="start" x="440.8862" y="-429.3" font-family="Helvetica,sans-Serif" font-size="11.00" fill="#000000"> &#160;</text>
</a>
</g>
</g>
<!-- UserClaims&#45;&gt;Users -->
<g id="edge3" class="edge">
<title>UserClaims:w&#45;&gt;Users:e</title>
<path fill="none" stroke="#000000" d="M321.3682,-450.4534C268.9347,-444.8965 255.3399,-410.2 195.5,-410.2"/>
<polygon fill="#000000" stroke="#000000" points="328.0104,-450.7923 335.8165,-454.7953 332.0052,-450.9961 336,-451.2 336,-451.2 336,-451.2 332.0052,-450.9961 336.1835,-447.6047 328.0104,-450.7923 328.0104,-450.7923"/>
<ellipse fill="none" stroke="#000000" cx="324.8146" cy="-450.6292" rx="3.2" ry="3.2"/>
</g>
<!-- UserLogins -->
<g id="node5" class="node">
<title>UserLogins</title>
<g id="a_node5"><a xlink:href="../../tables/UserLogins.html" xlink:title="UserLogins" target="_top">
<polygon fill="#ffffff" stroke="transparent" points="336,-341.7 336,-402.7 450,-402.7 450,-341.7 336,-341.7"/>
<polygon fill="#f5f5f5" stroke="transparent" points="336,-379.2 336,-402.2 450,-402.2 450,-379.2 336,-379.2"/>
<polygon fill="none" stroke="#000000" points="336,-379.2 336,-402.2 450,-402.2 450,-379.2 336,-379.2"/>
<text text-anchor="start" x="341" y="-387.8" font-family="Helvetica,sans-Serif" font-weight="bold" font-size="11.00" fill="#000000">UserLogins</text>
<text text-anchor="start" x="415.5219" y="-387.3" font-family="Helvetica,sans-Serif" font-size="11.00" fill="#000000">[table]</text>
<polygon fill="none" stroke="#000000" points="336,-360.2 336,-379.2 450,-379.2 450,-360.2 336,-360.2"/>
<text text-anchor="start" x="339" y="-366.3" font-family="Helvetica,sans-Serif" font-size="11.00" fill="#000000">...</text>
<polygon fill="#ffffff" stroke="transparent" points="336,-341.2 336,-360.2 391,-360.2 391,-341.2 336,-341.2"/>
<polygon fill="none" stroke="#000000" points="336,-341.2 336,-360.2 391,-360.2 391,-341.2 336,-341.2"/>
<text text-anchor="start" x="339" y="-347.3" font-family="Helvetica,sans-Serif" font-size="11.00" fill="#000000">&lt; 1</text>
<polygon fill="#ffffff" stroke="transparent" points="391,-341.2 391,-360.2 420,-360.2 420,-341.2 391,-341.2"/>
<polygon fill="none" stroke="#000000" points="391,-341.2 391,-360.2 420,-360.2 420,-341.2 391,-341.2"/>
<text text-anchor="start" x="410.8862" y="-347.3" font-family="Helvetica,sans-Serif" font-size="11.00" fill="#000000"> &#160;</text>
<polygon fill="#ffffff" stroke="transparent" points="420,-341.2 420,-360.2 450,-360.2 450,-341.2 420,-341.2"/>
<polygon fill="none" stroke="#000000" points="420,-341.2 420,-360.2 450,-360.2 450,-341.2 420,-341.2"/>
<text text-anchor="start" x="440.8862" y="-347.3" font-family="Helvetica,sans-Serif" font-size="11.00" fill="#000000"> &#160;</text>
</a>
</g>
</g>
<!-- UserLogins&#45;&gt;Users -->
<g id="edge4" class="edge">
<title>UserLogins:w&#45;&gt;Users:e</title>
<path fill="none" stroke="#000000" d="M321.3682,-369.9466C268.9347,-375.5035 255.3399,-410.2 195.5,-410.2"/>
<polygon fill="#000000" stroke="#000000" points="328.0104,-369.6077 336.1835,-372.7953 332.0052,-369.4039 336,-369.2 336,-369.2 336,-369.2 332.0052,-369.4039 335.8165,-365.6047 328.0104,-369.6077 328.0104,-369.6077"/>
<ellipse fill="none" stroke="#000000" cx="324.8146" cy="-369.7708" rx="3.2" ry="3.2"/>
</g>
<!-- UserRoles -->
<g id="node6" class="node">
<title>UserRoles</title>
<g id="a_node6"><a xlink:href="../../tables/UserRoles.html" xlink:title="UserRoles" target="_top">
<polygon fill="#ffffff" stroke="transparent" points="340,-259.7 340,-320.7 446,-320.7 446,-259.7 340,-259.7"/>
<polygon fill="#f5f5f5" stroke="transparent" points="340,-297.2 340,-320.2 446,-320.2 446,-297.2 340,-297.2"/>
<polygon fill="none" stroke="#000000" points="340,-297.2 340,-320.2 446,-320.2 446,-297.2 340,-297.2"/>
<text text-anchor="start" x="345" y="-305.8" font-family="Helvetica,sans-Serif" font-weight="bold" font-size="11.00" fill="#000000">UserRoles</text>
<text text-anchor="start" x="411.5219" y="-305.3" font-family="Helvetica,sans-Serif" font-size="11.00" fill="#000000">[table]</text>
<polygon fill="none" stroke="#000000" points="340,-278.2 340,-297.2 446,-297.2 446,-278.2 340,-278.2"/>
<text text-anchor="start" x="343" y="-284.3" font-family="Helvetica,sans-Serif" font-size="11.00" fill="#000000">...</text>
<polygon fill="#ffffff" stroke="transparent" points="340,-259.2 340,-278.2 391,-278.2 391,-259.2 340,-259.2"/>
<polygon fill="none" stroke="#000000" points="340,-259.2 340,-278.2 391,-278.2 391,-259.2 340,-259.2"/>
<text text-anchor="start" x="343" y="-265.3" font-family="Helvetica,sans-Serif" font-size="11.00" fill="#000000">&lt; 2</text>
<polygon fill="#ffffff" stroke="transparent" points="391,-259.2 391,-278.2 418,-278.2 418,-259.2 391,-259.2"/>
<polygon fill="none" stroke="#000000" points="391,-259.2 391,-278.2 418,-278.2 418,-259.2 391,-259.2"/>
<text text-anchor="start" x="408.8862" y="-265.3" font-family="Helvetica,sans-Serif" font-size="11.00" fill="#000000"> &#160;</text>
<polygon fill="#ffffff" stroke="transparent" points="418,-259.2 418,-278.2 446,-278.2 446,-259.2 418,-259.2"/>
<polygon fill="none" stroke="#000000" points="418,-259.2 418,-278.2 446,-278.2 446,-259.2 418,-259.2"/>
<text text-anchor="start" x="436.8862" y="-265.3" font-family="Helvetica,sans-Serif" font-size="11.00" fill="#000000"> &#160;</text>
</a>
</g>
</g>
<!-- UserRoles&#45;&gt;Users -->
<g id="edge5" class="edge">
<title>UserRoles:w&#45;&gt;Users:e</title>
<path fill="none" stroke="#000000" d="M325.4209,-287.5323C286.0715,-289.4976 268.9624,-300.575 236,-331.2 207.0943,-358.0561 234.9562,-410.2 195.5,-410.2"/>
<polygon fill="#000000" stroke="#000000" points="332.0021,-287.3824 340.0821,-290.7991 336.001,-287.2912 340,-287.2 340,-287.2 340,-287.2 336.001,-287.2912 339.9179,-283.6009 332.0021,-287.3824 332.0021,-287.3824"/>
<ellipse fill="none" stroke="#000000" cx="328.8029" cy="-287.4553" rx="3.2" ry="3.2"/>
</g>
<!-- UserTokens -->
<g id="node7" class="node">
<title>UserTokens</title>
<g id="a_node7"><a xlink:href="../../tables/UserTokens.html" xlink:title="UserTokens" target="_top">
<polygon fill="#ffffff" stroke="transparent" points="275,-38.2 275,-238.2 511,-238.2 511,-38.2 275,-38.2"/>
<polygon fill="#f5f5f5" stroke="transparent" points="277,-213.2 277,-236.2 509,-236.2 509,-213.2 277,-213.2"/>
<polygon fill="none" stroke="#000000" points="277,-213.2 277,-236.2 509,-236.2 509,-213.2 277,-213.2"/>
<text text-anchor="start" x="282" y="-221.8" font-family="Helvetica,sans-Serif" font-weight="bold" font-size="11.00" fill="#000000">UserTokens</text>
<text text-anchor="start" x="474.0437" y="-221.3" font-family="Helvetica,sans-Serif" font-size="11.00" fill="#000000">[table]</text>
<polygon fill="none" stroke="#000000" points="277,-191.2 277,-213.2 393,-213.2 393,-191.2 277,-191.2"/>
<image xlink:href="../../images/primaryKeys.png" width="11px" height="12px" preserveAspectRatio="xMinYMin meet" x="282" y="-208.2"/>
<text text-anchor="start" x="297" y="-198.3" font-family="Helvetica,sans-Serif" font-size="11.00" fill="#000000">UserId</text>
<polygon fill="none" stroke="#000000" points="393,-191.2 393,-213.2 509,-213.2 509,-191.2 393,-191.2"/>
<text text-anchor="start" x="396" y="-198.9" font-family="Helvetica,sans-Serif" font-size="11.00" fill="#000000">int[4]</text>
<polygon fill="none" stroke="#000000" points="277,-169.2 277,-191.2 393,-191.2 393,-169.2 277,-169.2"/>
<image xlink:href="../../images/primaryKeys.png" width="11px" height="12px" preserveAspectRatio="xMinYMin meet" x="282" y="-186.2"/>
<text text-anchor="start" x="297" y="-176.3" font-family="Helvetica,sans-Serif" font-size="11.00" fill="#000000">LoginProvider</text>
<polygon fill="none" stroke="#000000" points="393,-169.2 393,-191.2 509,-191.2 509,-169.2 393,-169.2"/>
<text text-anchor="start" x="396" y="-176.9" font-family="Helvetica,sans-Serif" font-size="11.00" fill="#000000">nvarchar[256]</text>
<polygon fill="none" stroke="#000000" points="277,-147.2 277,-169.2 393,-169.2 393,-147.2 277,-147.2"/>
<image xlink:href="../../images/primaryKeys.png" width="11px" height="12px" preserveAspectRatio="xMinYMin meet" x="282" y="-164.2"/>
<text text-anchor="start" x="297" y="-154.3" font-family="Helvetica,sans-Serif" font-size="11.00" fill="#000000">Name</text>
<polygon fill="none" stroke="#000000" points="393,-147.2 393,-169.2 509,-169.2 509,-147.2 393,-147.2"/>
<text text-anchor="start" x="396" y="-154.9" font-family="Helvetica,sans-Serif" font-size="11.00" fill="#000000">nvarchar[256]</text>
<polygon fill="none" stroke="#000000" points="277,-125.2 277,-147.2 393,-147.2 393,-125.2 277,-125.2"/>
<text text-anchor="start" x="297" y="-132.3" font-family="Helvetica,sans-Serif" font-size="11.00" fill="#000000">CreatedAtUtc</text>
<polygon fill="none" stroke="#000000" points="393,-125.2 393,-147.2 509,-147.2 509,-125.2 393,-125.2"/>
<text text-anchor="start" x="396" y="-132.9" font-family="Helvetica,sans-Serif" font-size="11.00" fill="#000000">datetime2[16,7]</text>
<polygon fill="none" stroke="#000000" points="277,-103.2 277,-125.2 393,-125.2 393,-103.2 277,-103.2"/>
<text text-anchor="start" x="297" y="-110.3" font-family="Helvetica,sans-Serif" font-size="11.00" fill="#000000">UpdatedAtUtc</text>
<polygon fill="none" stroke="#000000" points="393,-103.2 393,-125.2 509,-125.2 509,-103.2 393,-103.2"/>
<text text-anchor="start" x="396" y="-110.9" font-family="Helvetica,sans-Serif" font-size="11.00" fill="#000000">datetime2[16,7]</text>
<polygon fill="none" stroke="#000000" points="277,-81.2 277,-103.2 393,-103.2 393,-81.2 277,-81.2"/>
<text text-anchor="start" x="297" y="-88.3" font-family="Helvetica,sans-Serif" font-size="11.00" fill="#000000">RowVersion</text>
<polygon fill="none" stroke="#000000" points="393,-81.2 393,-103.2 509,-103.2 509,-81.2 393,-81.2"/>
<text text-anchor="start" x="396" y="-88.9" font-family="Helvetica,sans-Serif" font-size="11.00" fill="#000000">timestamp[8]</text>
<polygon fill="none" stroke="#000000" points="277,-59.2 277,-81.2 393,-81.2 393,-59.2 277,-59.2"/>
<text text-anchor="start" x="297" y="-66.3" font-family="Helvetica,sans-Serif" font-size="11.00" fill="#000000">Value</text>
<polygon fill="none" stroke="#000000" points="393,-59.2 393,-81.2 509,-81.2 509,-59.2 393,-59.2"/>
<text text-anchor="start" x="395.9769" y="-66.9" font-family="Helvetica,sans-Serif" font-size="11.00" fill="#000000">nvarchar[2147483647]</text>
<polygon fill="#ffffff" stroke="transparent" points="277,-40.2 277,-59.2 339,-59.2 339,-40.2 277,-40.2"/>
<polygon fill="none" stroke="#000000" points="277,-40.2 277,-59.2 339,-59.2 339,-40.2 277,-40.2"/>
<text text-anchor="start" x="280" y="-46.3" font-family="Helvetica,sans-Serif" font-size="11.00" fill="#000000">&lt; 1</text>
<polygon fill="#ffffff" stroke="transparent" points="339,-40.2 339,-59.2 393,-59.2 393,-40.2 339,-40.2"/>
<polygon fill="none" stroke="#000000" points="339,-40.2 339,-59.2 393,-59.2 393,-40.2 339,-40.2"/>
<text text-anchor="start" x="383.8862" y="-46.3" font-family="Helvetica,sans-Serif" font-size="11.00" fill="#000000"> &#160;</text>
<polygon fill="#ffffff" stroke="transparent" points="393,-40.2 393,-59.2 509,-59.2 509,-40.2 393,-40.2"/>
<polygon fill="none" stroke="#000000" points="393,-40.2 393,-59.2 509,-59.2 509,-40.2 393,-40.2"/>
<text text-anchor="start" x="490.4053" y="-46.3" font-family="Helvetica,sans-Serif" font-size="11.00" fill="#000000">0 &gt;</text>
<polygon fill="none" stroke="#000000" stroke-width="2" points="276,-39.2 276,-237.2 510,-237.2 510,-39.2 276,-39.2"/>
</a>
</g>
</g>
<!-- UserTokens&#45;&gt;Users -->
<g id="edge6" class="edge">
<title>UserTokens:w&#45;&gt;Users:e</title>
<path fill="none" stroke="#000000" d="M262.7282,-205.0043C248.5449,-211.7601 246.1369,-229.818 236,-249.2 201.8047,-314.5826 269.2848,-410.2 195.5,-410.2"/>
<polygon fill="#000000" stroke="#000000" points="269.1501,-203.7425 277.6941,-205.7325 273.0751,-202.9712 277,-202.2 277,-202.2 277,-202.2 273.0751,-202.9712 276.3059,-198.6675 269.1501,-203.7425 269.1501,-203.7425"/>
<ellipse fill="none" stroke="#000000" cx="266.0101" cy="-204.3595" rx="3.2" ry="3.2"/>
</g>
</g>
</svg>
