<?xml version="1.0" encoding="UTF-8" standalone="no"?>
<!DOCTYPE svg PUBLIC "-//W3C//DTD SVG 1.1//EN"
 "http://www.w3.org/Graphics/SVG/1.1/DTD/svg11.dtd">
<!-- Generated by graphviz version 2.40.1 (20161225.0304)
 -->
<!-- Title: twoDegreesRelationshipsDiagram Pages: 1 -->
<svg width="558pt" height="661pt"
 viewBox="0.00 0.00 558.00 661.20" xmlns="http://www.w3.org/2000/svg" xmlns:xlink="http://www.w3.org/1999/xlink">
<g id="graph0" class="graph" transform="scale(1 1) rotate(0) translate(4 657.2)">
<title>twoDegreesRelationshipsDiagram</title>
<polygon fill="#ffffff" stroke="transparent" points="-4,4 -4,-657.2 554,-657.2 554,4 -4,4"/>
<text text-anchor="middle" x="72.4936" y="-7.3" font-family="Helvetica,sans-Serif" font-size="11.00" fill="#000000">Generated by SchemaSpy</text>
<!-- Clinical.HospitalizationStatusHistories -->
<g id="node1" class="node">
<title>Clinical.HospitalizationStatusHistories</title>
<g id="a_node1"><a xlink:title="Clinical.HospitalizationStatusHistories">
<polygon fill="#ffffff" stroke="transparent" points="244,-588.2 244,-649.2 542,-649.2 542,-588.2 244,-588.2"/>
<polygon fill="#f5f5f5" stroke="transparent" points="244,-625.7 244,-648.7 542,-648.7 542,-625.7 244,-625.7"/>
<polygon fill="none" stroke="#000000" points="244,-625.7 244,-648.7 542,-648.7 542,-625.7 244,-625.7"/>
<text text-anchor="start" x="249" y="-634.3" font-family="Helvetica,sans-Serif" font-weight="bold" font-size="11.00" fill="#000000">Clinical.HospitalizationStatusHistories</text>
<text text-anchor="start" x="507.5219" y="-633.8" font-family="Helvetica,sans-Serif" font-size="11.00" fill="#000000">[table]</text>
<polygon fill="none" stroke="#000000" points="244,-606.7 244,-625.7 542,-625.7 542,-606.7 244,-606.7"/>
<text text-anchor="start" x="247" y="-612.8" font-family="Helvetica,sans-Serif" font-size="11.00" fill="#000000">...</text>
<polygon fill="#ffffff" stroke="transparent" points="244,-587.7 244,-606.7 391,-606.7 391,-587.7 244,-587.7"/>
<polygon fill="none" stroke="#000000" points="244,-587.7 244,-606.7 391,-606.7 391,-587.7 244,-587.7"/>
<text text-anchor="start" x="247" y="-593.8" font-family="Helvetica,sans-Serif" font-size="11.00" fill="#000000">&lt; 1</text>
<polygon fill="#ffffff" stroke="transparent" points="391,-587.7 391,-606.7 466,-606.7 466,-587.7 391,-587.7"/>
<polygon fill="none" stroke="#000000" points="391,-587.7 391,-606.7 466,-606.7 466,-587.7 391,-587.7"/>
<text text-anchor="start" x="456.8862" y="-593.8" font-family="Helvetica,sans-Serif" font-size="11.00" fill="#000000"> &#160;</text>
<polygon fill="#ffffff" stroke="transparent" points="466,-587.7 466,-606.7 542,-606.7 542,-587.7 466,-587.7"/>
<polygon fill="none" stroke="#000000" points="466,-587.7 466,-606.7 542,-606.7 542,-587.7 466,-587.7"/>
<text text-anchor="start" x="532.8862" y="-593.8" font-family="Helvetica,sans-Serif" font-size="11.00" fill="#000000"> &#160;</text>
</a>
</g>
</g>
<!-- Users -->
<g id="node2" class="node">
<title>Users</title>
<g id="a_node2"><a xlink:href="../../tables/Users.html" xlink:title="Users" target="_top">
<polygon fill="#ffffff" stroke="transparent" points="8,-202.2 8,-329.2 195,-329.2 195,-202.2 8,-202.2"/>
<polygon fill="#f5f5f5" stroke="transparent" points="8.5,-305.7 8.5,-328.7 195.5,-328.7 195.5,-305.7 8.5,-305.7"/>
<polygon fill="none" stroke="#000000" points="8.5,-305.7 8.5,-328.7 195.5,-328.7 195.5,-305.7 8.5,-305.7"/>
<text text-anchor="start" x="13.5" y="-314.3" font-family="Helvetica,sans-Serif" font-weight="bold" font-size="11.00" fill="#000000">Users</text>
<text text-anchor="start" x="160.5437" y="-313.8" font-family="Helvetica,sans-Serif" font-size="11.00" fill="#000000">[table]</text>
<polygon fill="none" stroke="#000000" points="8.5,-283.7 8.5,-305.7 195.5,-305.7 195.5,-283.7 8.5,-283.7"/>
<image xlink:href="../../images/primaryKeys.png" width="11px" height="12px" preserveAspectRatio="xMinYMin meet" x="13.5" y="-300.7"/>
<text text-anchor="start" x="28.5" y="-290.8" font-family="Helvetica,sans-Serif" font-size="11.00" fill="#000000">Id</text>
<polygon fill="#ffffff" stroke="transparent" points="8.5,-261.7 8.5,-283.7 195.5,-283.7 195.5,-261.7 8.5,-261.7"/>
<polygon fill="none" stroke="#000000" points="8.5,-261.7 8.5,-283.7 195.5,-283.7 195.5,-261.7 8.5,-261.7"/>
<text text-anchor="start" x="28.5" y="-268.8" font-family="Helvetica,sans-Serif" font-size="11.00" fill="#000000">NormalizedUserName</text>
<polygon fill="#ffffff" stroke="transparent" points="8.5,-239.7 8.5,-261.7 195.5,-261.7 195.5,-239.7 8.5,-239.7"/>
<polygon fill="none" stroke="#000000" points="8.5,-239.7 8.5,-261.7 195.5,-261.7 195.5,-239.7 8.5,-239.7"/>
<text text-anchor="start" x="28.5" y="-246.8" font-family="Helvetica,sans-Serif" font-size="11.00" fill="#000000">NormalizedEmail</text>
<polygon fill="none" stroke="#000000" points="8.5,-220.7 8.5,-239.7 195.5,-239.7 195.5,-220.7 8.5,-220.7"/>
<text text-anchor="start" x="11.5" y="-226.8" font-family="Helvetica,sans-Serif" font-size="11.00" fill="#000000">...</text>
<polygon fill="#ffffff" stroke="transparent" points="8.5,-201.7 8.5,-220.7 91.5,-220.7 91.5,-201.7 8.5,-201.7"/>
<polygon fill="none" stroke="#000000" points="8.5,-201.7 8.5,-220.7 91.5,-220.7 91.5,-201.7 8.5,-201.7"/>
<text text-anchor="start" x="11.5" y="-207.8" font-family="Helvetica,sans-Serif" font-size="11.00" fill="#000000"> &#160;</text>
<polygon fill="#ffffff" stroke="transparent" points="91.5,-201.7 91.5,-220.7 138.5,-220.7 138.5,-201.7 91.5,-201.7"/>
<polygon fill="none" stroke="#000000" points="91.5,-201.7 91.5,-220.7 138.5,-220.7 138.5,-201.7 91.5,-201.7"/>
<text text-anchor="start" x="129.3862" y="-207.8" font-family="Helvetica,sans-Serif" font-size="11.00" fill="#000000"> &#160;</text>
<polygon fill="#ffffff" stroke="transparent" points="138.5,-201.7 138.5,-220.7 195.5,-220.7 195.5,-201.7 138.5,-201.7"/>
<polygon fill="none" stroke="#000000" points="138.5,-201.7 138.5,-220.7 195.5,-220.7 195.5,-201.7 138.5,-201.7"/>
<text text-anchor="start" x="176.9053" y="-207.8" font-family="Helvetica,sans-Serif" font-size="11.00" fill="#000000">6 &gt;</text>
</a>
</g>
</g>
<!-- Clinical.HospitalizationStatusHistories&#45;&gt;Users -->
<g id="edge1" class="edge">
<title>Clinical.HospitalizationStatusHistories:w&#45;&gt;Users:e</title>
<path fill="none" stroke="#000000" d="M230.2888,-610.3963C185.4751,-568.6601 262.1477,-294.7 195.5,-294.7"/>
<polygon fill="#000000" stroke="#000000" points="236.5388,-612.8138 242.7012,-619.0576 240.2694,-614.2569 244,-615.7 244,-615.7 244,-615.7 240.2694,-614.2569 245.2988,-612.3424 236.5388,-612.8138 236.5388,-612.8138"/>
<ellipse fill="none" stroke="#000000" cx="233.5543" cy="-611.6593" rx="3.2" ry="3.2"/>
</g>
<!-- Clinical.VisitEvents -->
<g id="node3" class="node">
<title>Clinical.VisitEvents</title>
<g id="a_node3"><a xlink:title="Clinical.VisitEvents">
<polygon fill="#ffffff" stroke="transparent" points="309,-506.2 309,-567.2 477,-567.2 477,-506.2 309,-506.2"/>
<polygon fill="#f5f5f5" stroke="transparent" points="309,-543.7 309,-566.7 477,-566.7 477,-543.7 309,-543.7"/>
<polygon fill="none" stroke="#000000" points="309,-543.7 309,-566.7 477,-566.7 477,-543.7 309,-543.7"/>
<text text-anchor="start" x="314" y="-552.3" font-family="Helvetica,sans-Serif" font-weight="bold" font-size="11.00" fill="#000000">Clinical.VisitEvents</text>
<text text-anchor="start" x="442.5219" y="-551.8" font-family="Helvetica,sans-Serif" font-size="11.00" fill="#000000">[table]</text>
<polygon fill="none" stroke="#000000" points="309,-524.7 309,-543.7 477,-543.7 477,-524.7 309,-524.7"/>
<text text-anchor="start" x="312" y="-530.8" font-family="Helvetica,sans-Serif" font-size="11.00" fill="#000000">...</text>
<polygon fill="#ffffff" stroke="transparent" points="309,-505.7 309,-524.7 391,-524.7 391,-505.7 309,-505.7"/>
<polygon fill="none" stroke="#000000" points="309,-505.7 309,-524.7 391,-524.7 391,-505.7 309,-505.7"/>
<text text-anchor="start" x="312" y="-511.8" font-family="Helvetica,sans-Serif" font-size="11.00" fill="#000000">&lt; 1</text>
<polygon fill="#ffffff" stroke="transparent" points="391,-505.7 391,-524.7 434,-524.7 434,-505.7 391,-505.7"/>
<polygon fill="none" stroke="#000000" points="391,-505.7 391,-524.7 434,-524.7 434,-505.7 391,-505.7"/>
<text text-anchor="start" x="424.8862" y="-511.8" font-family="Helvetica,sans-Serif" font-size="11.00" fill="#000000"> &#160;</text>
<polygon fill="#ffffff" stroke="transparent" points="434,-505.7 434,-524.7 477,-524.7 477,-505.7 434,-505.7"/>
<polygon fill="none" stroke="#000000" points="434,-505.7 434,-524.7 477,-524.7 477,-505.7 434,-505.7"/>
<text text-anchor="start" x="467.8862" y="-511.8" font-family="Helvetica,sans-Serif" font-size="11.00" fill="#000000"> &#160;</text>
</a>
</g>
</g>
<!-- Clinical.VisitEvents&#45;&gt;Users -->
<g id="edge2" class="edge">
<title>Clinical.VisitEvents:w&#45;&gt;Users:e</title>
<path fill="none" stroke="#000000" d="M294.4382,-533.1152C268.0919,-530.7381 254.8077,-520.7073 236,-495.7 181.2253,-422.8702 286.6287,-294.7 195.5,-294.7"/>
<polygon fill="#000000" stroke="#000000" points="301.0064,-533.3789 308.8555,-537.2971 305.0032,-533.5395 309,-533.7 309,-533.7 309,-533.7 305.0032,-533.5395 309.1445,-530.1029 301.0064,-533.3789 301.0064,-533.3789"/>
<ellipse fill="none" stroke="#000000" cx="297.809" cy="-533.2505" rx="3.2" ry="3.2"/>
</g>
<!-- UserClaims -->
<g id="node4" class="node">
<title>UserClaims</title>
<g id="a_node4"><a xlink:href="../../tables/UserClaims.html" xlink:title="UserClaims" target="_top">
<polygon fill="#ffffff" stroke="transparent" points="275,-284.7 275,-484.7 511,-484.7 511,-284.7 275,-284.7"/>
<polygon fill="#f5f5f5" stroke="transparent" points="277,-459.7 277,-482.7 509,-482.7 509,-459.7 277,-459.7"/>
<polygon fill="none" stroke="#000000" points="277,-459.7 277,-482.7 509,-482.7 509,-459.7 277,-459.7"/>
<text text-anchor="start" x="282" y="-468.3" font-family="Helvetica,sans-Serif" font-weight="bold" font-size="11.00" fill="#000000">UserClaims</text>
<text text-anchor="start" x="474.0437" y="-467.8" font-family="Helvetica,sans-Serif" font-size="11.00" fill="#000000">[table]</text>
<polygon fill="none" stroke="#000000" points="277,-437.7 277,-459.7 393,-459.7 393,-437.7 277,-437.7"/>
<image xlink:href="../../images/primaryKeys.png" width="11px" height="12px" preserveAspectRatio="xMinYMin meet" x="282" y="-454.7"/>
<text text-anchor="start" x="297" y="-444.8" font-family="Helvetica,sans-Serif" font-size="11.00" fill="#000000">Id</text>
<polygon fill="none" stroke="#000000" points="393,-437.7 393,-459.7 509,-459.7 509,-437.7 393,-437.7"/>
<text text-anchor="start" x="396" y="-445.4" font-family="Helvetica,sans-Serif" font-size="11.00" fill="#000000">int identity[4]</text>
<polygon fill="none" stroke="#000000" points="277,-415.7 277,-437.7 393,-437.7 393,-415.7 277,-415.7"/>
<text text-anchor="start" x="297" y="-422.8" font-family="Helvetica,sans-Serif" font-size="11.00" fill="#000000">CreatedAtUtc</text>
<polygon fill="none" stroke="#000000" points="393,-415.7 393,-437.7 509,-437.7 509,-415.7 393,-415.7"/>
<text text-anchor="start" x="396" y="-423.4" font-family="Helvetica,sans-Serif" font-size="11.00" fill="#000000">datetime2[16,7]</text>
<polygon fill="none" stroke="#000000" points="277,-393.7 277,-415.7 393,-415.7 393,-393.7 277,-393.7"/>
<text text-anchor="start" x="297" y="-400.8" font-family="Helvetica,sans-Serif" font-size="11.00" fill="#000000">UpdatedAtUtc</text>
<polygon fill="none" stroke="#000000" points="393,-393.7 393,-415.7 509,-415.7 509,-393.7 393,-393.7"/>
<text text-anchor="start" x="396" y="-401.4" font-family="Helvetica,sans-Serif" font-size="11.00" fill="#000000">datetime2[16,7]</text>
<polygon fill="none" stroke="#000000" points="277,-371.7 277,-393.7 393,-393.7 393,-371.7 277,-371.7"/>
<text text-anchor="start" x="297" y="-378.8" font-family="Helvetica,sans-Serif" font-size="11.00" fill="#000000">RowVersion</text>
<polygon fill="none" stroke="#000000" points="393,-371.7 393,-393.7 509,-393.7 509,-371.7 393,-371.7"/>
<text text-anchor="start" x="396" y="-379.4" font-family="Helvetica,sans-Serif" font-size="11.00" fill="#000000">timestamp[8]</text>
<polygon fill="#ffffff" stroke="transparent" points="277,-349.7 277,-371.7 393,-371.7 393,-349.7 277,-349.7"/>
<polygon fill="none" stroke="#000000" points="277,-349.7 277,-371.7 393,-371.7 393,-349.7 277,-349.7"/>
<image xlink:href="../../images/foreignKeys.png" width="11px" height="12px" preserveAspectRatio="xMinYMin meet" x="282" y="-366.7"/>
<text text-anchor="start" x="297" y="-356.8" font-family="Helvetica,sans-Serif" font-size="11.00" fill="#000000">UserId</text>
<polygon fill="none" stroke="#000000" points="393,-349.7 393,-371.7 509,-371.7 509,-349.7 393,-349.7"/>
<text text-anchor="start" x="396" y="-357.4" font-family="Helvetica,sans-Serif" font-size="11.00" fill="#000000">int[4]</text>
<polygon fill="none" stroke="#000000" points="277,-327.7 277,-349.7 393,-349.7 393,-327.7 277,-327.7"/>
<text text-anchor="start" x="297" y="-334.8" font-family="Helvetica,sans-Serif" font-size="11.00" fill="#000000">ClaimType</text>
<polygon fill="none" stroke="#000000" points="393,-327.7 393,-349.7 509,-349.7 509,-327.7 393,-327.7"/>
<text text-anchor="start" x="395.9769" y="-335.4" font-family="Helvetica,sans-Serif" font-size="11.00" fill="#000000">nvarchar[2147483647]</text>
<polygon fill="none" stroke="#000000" points="277,-305.7 277,-327.7 393,-327.7 393,-305.7 277,-305.7"/>
<text text-anchor="start" x="297" y="-312.8" font-family="Helvetica,sans-Serif" font-size="11.00" fill="#000000">ClaimValue</text>
<polygon fill="none" stroke="#000000" points="393,-305.7 393,-327.7 509,-327.7 509,-305.7 393,-305.7"/>
<text text-anchor="start" x="395.9769" y="-313.4" font-family="Helvetica,sans-Serif" font-size="11.00" fill="#000000">nvarchar[2147483647]</text>
<polygon fill="#ffffff" stroke="transparent" points="277,-286.7 277,-305.7 339,-305.7 339,-286.7 277,-286.7"/>
<polygon fill="none" stroke="#000000" points="277,-286.7 277,-305.7 339,-305.7 339,-286.7 277,-286.7"/>
<text text-anchor="start" x="280" y="-292.8" font-family="Helvetica,sans-Serif" font-size="11.00" fill="#000000">&lt; 1</text>
<polygon fill="#ffffff" stroke="transparent" points="339,-286.7 339,-305.7 393,-305.7 393,-286.7 339,-286.7"/>
<polygon fill="none" stroke="#000000" points="339,-286.7 339,-305.7 393,-305.7 393,-286.7 339,-286.7"/>
<text text-anchor="start" x="383.8862" y="-292.8" font-family="Helvetica,sans-Serif" font-size="11.00" fill="#000000"> &#160;</text>
<polygon fill="#ffffff" stroke="transparent" points="393,-286.7 393,-305.7 509,-305.7 509,-286.7 393,-286.7"/>
<polygon fill="none" stroke="#000000" points="393,-286.7 393,-305.7 509,-305.7 509,-286.7 393,-286.7"/>
<text text-anchor="start" x="490.4053" y="-292.8" font-family="Helvetica,sans-Serif" font-size="11.00" fill="#000000">0 &gt;</text>
<polygon fill="none" stroke="#000000" stroke-width="2" points="276,-285.7 276,-483.7 510,-483.7 510,-285.7 276,-285.7"/>
</a>
</g>
</g>
<!-- UserClaims&#45;&gt;Users -->
<g id="edge3" class="edge">
<title>UserClaims:w&#45;&gt;Users:e</title>
<path fill="none" stroke="#000000" d="M262.4263,-358.031C232.3731,-345.6834 236.4658,-294.7 195.5,-294.7"/>
<polygon fill="#000000" stroke="#000000" points="269.1309,-359.2588 276.3515,-364.2411 273.0654,-359.9794 277,-360.7 277,-360.7 277,-360.7 273.0654,-359.9794 277.6485,-357.1589 269.1309,-359.2588 269.1309,-359.2588"/>
<ellipse fill="none" stroke="#000000" cx="265.9832" cy="-358.6823" rx="3.2" ry="3.2"/>
</g>
<!-- UserLogins -->
<g id="node5" class="node">
<title>UserLogins</title>
<g id="a_node5"><a xlink:href="../../tables/UserLogins.html" xlink:title="UserLogins" target="_top">
<polygon fill="#ffffff" stroke="transparent" points="336,-202.2 336,-263.2 450,-263.2 450,-202.2 336,-202.2"/>
<polygon fill="#f5f5f5" stroke="transparent" points="336,-239.7 336,-262.7 450,-262.7 450,-239.7 336,-239.7"/>
<polygon fill="none" stroke="#000000" points="336,-239.7 336,-262.7 450,-262.7 450,-239.7 336,-239.7"/>
<text text-anchor="start" x="341" y="-248.3" font-family="Helvetica,sans-Serif" font-weight="bold" font-size="11.00" fill="#000000">UserLogins</text>
<text text-anchor="start" x="415.5219" y="-247.8" font-family="Helvetica,sans-Serif" font-size="11.00" fill="#000000">[table]</text>
<polygon fill="none" stroke="#000000" points="336,-220.7 336,-239.7 450,-239.7 450,-220.7 336,-220.7"/>
<text text-anchor="start" x="339" y="-226.8" font-family="Helvetica,sans-Serif" font-size="11.00" fill="#000000">...</text>
<polygon fill="#ffffff" stroke="transparent" points="336,-201.7 336,-220.7 391,-220.7 391,-201.7 336,-201.7"/>
<polygon fill="none" stroke="#000000" points="336,-201.7 336,-220.7 391,-220.7 391,-201.7 336,-201.7"/>
<text text-anchor="start" x="339" y="-207.8" font-family="Helvetica,sans-Serif" font-size="11.00" fill="#000000">&lt; 1</text>
<polygon fill="#ffffff" stroke="transparent" points="391,-201.7 391,-220.7 420,-220.7 420,-201.7 391,-201.7"/>
<polygon fill="none" stroke="#000000" points="391,-201.7 391,-220.7 420,-220.7 420,-201.7 391,-201.7"/>
<text text-anchor="start" x="410.8862" y="-207.8" font-family="Helvetica,sans-Serif" font-size="11.00" fill="#000000"> &#160;</text>
<polygon fill="#ffffff" stroke="transparent" points="420,-201.7 420,-220.7 450,-220.7 450,-201.7 420,-201.7"/>
<polygon fill="none" stroke="#000000" points="420,-201.7 420,-220.7 450,-220.7 450,-201.7 420,-201.7"/>
<text text-anchor="start" x="440.8862" y="-207.8" font-family="Helvetica,sans-Serif" font-size="11.00" fill="#000000"> &#160;</text>
</a>
</g>
</g>
<!-- UserLogins&#45;&gt;Users -->
<g id="edge4" class="edge">
<title>UserLogins:w&#45;&gt;Users:e</title>
<path fill="none" stroke="#000000" d="M321.3968,-230.5326C285.25,-234.9544 275.2578,-256.181 236,-274.7 217.8436,-283.2649 215.5752,-294.7 195.5,-294.7"/>
<polygon fill="#000000" stroke="#000000" points="328.013,-230.1554 336.2049,-233.2942 332.0065,-229.9277 336,-229.7 336,-229.7 336,-229.7 332.0065,-229.9277 335.7951,-226.1058 328.013,-230.1554 328.013,-230.1554"/>
<ellipse fill="none" stroke="#000000" cx="324.8182" cy="-230.3376" rx="3.2" ry="3.2"/>
</g>
<!-- UserRoles -->
<g id="node6" class="node">
<title>UserRoles</title>
<g id="a_node6"><a xlink:href="../../tables/UserRoles.html" xlink:title="UserRoles" target="_top">
<polygon fill="#ffffff" stroke="transparent" points="340,-120.2 340,-181.2 446,-181.2 446,-120.2 340,-120.2"/>
<polygon fill="#f5f5f5" stroke="transparent" points="340,-157.7 340,-180.7 446,-180.7 446,-157.7 340,-157.7"/>
<polygon fill="none" stroke="#000000" points="340,-157.7 340,-180.7 446,-180.7 446,-157.7 340,-157.7"/>
<text text-anchor="start" x="345" y="-166.3" font-family="Helvetica,sans-Serif" font-weight="bold" font-size="11.00" fill="#000000">UserRoles</text>
<text text-anchor="start" x="411.5219" y="-165.8" font-family="Helvetica,sans-Serif" font-size="11.00" fill="#000000">[table]</text>
<polygon fill="none" stroke="#000000" points="340,-138.7 340,-157.7 446,-157.7 446,-138.7 340,-138.7"/>
<text text-anchor="start" x="343" y="-144.8" font-family="Helvetica,sans-Serif" font-size="11.00" fill="#000000">...</text>
<polygon fill="#ffffff" stroke="transparent" points="340,-119.7 340,-138.7 391,-138.7 391,-119.7 340,-119.7"/>
<polygon fill="none" stroke="#000000" points="340,-119.7 340,-138.7 391,-138.7 391,-119.7 340,-119.7"/>
<text text-anchor="start" x="343" y="-125.8" font-family="Helvetica,sans-Serif" font-size="11.00" fill="#000000">&lt; 2</text>
<polygon fill="#ffffff" stroke="transparent" points="391,-119.7 391,-138.7 418,-138.7 418,-119.7 391,-119.7"/>
<polygon fill="none" stroke="#000000" points="391,-119.7 391,-138.7 418,-138.7 418,-119.7 391,-119.7"/>
<text text-anchor="start" x="408.8862" y="-125.8" font-family="Helvetica,sans-Serif" font-size="11.00" fill="#000000"> &#160;</text>
<polygon fill="#ffffff" stroke="transparent" points="418,-119.7 418,-138.7 446,-138.7 446,-119.7 418,-119.7"/>
<polygon fill="none" stroke="#000000" points="418,-119.7 418,-138.7 446,-138.7 446,-119.7 418,-119.7"/>
<text text-anchor="start" x="436.8862" y="-125.8" font-family="Helvetica,sans-Serif" font-size="11.00" fill="#000000"> &#160;</text>
</a>
</g>
</g>
<!-- UserRoles&#45;&gt;Users -->
<g id="edge5" class="edge">
<title>UserRoles:w&#45;&gt;Users:e</title>
<path fill="none" stroke="#000000" d="M325.3709,-147.9811C285.7491,-149.6674 267.4052,-159.4801 236,-191.7 201.666,-226.9247 244.6895,-294.7 195.5,-294.7"/>
<polygon fill="#000000" stroke="#000000" points="332.0015,-147.8537 340.0692,-151.2993 336.0007,-147.7769 340,-147.7 340,-147.7 340,-147.7 336.0007,-147.7769 339.9308,-144.1007 332.0015,-147.8537 332.0015,-147.8537"/>
<ellipse fill="none" stroke="#000000" cx="328.8021" cy="-147.9152" rx="3.2" ry="3.2"/>
</g>
<!-- UserTokens -->
<g id="node7" class="node">
<title>UserTokens</title>
<g id="a_node7"><a xlink:href="../../tables/UserTokens.html" xlink:title="UserTokens" target="_top">
<polygon fill="#ffffff" stroke="transparent" points="334,-38.2 334,-99.2 452,-99.2 452,-38.2 334,-38.2"/>
<polygon fill="#f5f5f5" stroke="transparent" points="334,-75.7 334,-98.7 452,-98.7 452,-75.7 334,-75.7"/>
<polygon fill="none" stroke="#000000" points="334,-75.7 334,-98.7 452,-98.7 452,-75.7 334,-75.7"/>
<text text-anchor="start" x="339" y="-84.3" font-family="Helvetica,sans-Serif" font-weight="bold" font-size="11.00" fill="#000000">UserTokens</text>
<text text-anchor="start" x="417.5219" y="-83.8" font-family="Helvetica,sans-Serif" font-size="11.00" fill="#000000">[table]</text>
<polygon fill="none" stroke="#000000" points="334,-56.7 334,-75.7 452,-75.7 452,-56.7 334,-56.7"/>
<text text-anchor="start" x="337" y="-62.8" font-family="Helvetica,sans-Serif" font-size="11.00" fill="#000000">...</text>
<polygon fill="#ffffff" stroke="transparent" points="334,-37.7 334,-56.7 391,-56.7 391,-37.7 334,-37.7"/>
<polygon fill="none" stroke="#000000" points="334,-37.7 334,-56.7 391,-56.7 391,-37.7 334,-37.7"/>
<text text-anchor="start" x="337" y="-43.8" font-family="Helvetica,sans-Serif" font-size="11.00" fill="#000000">&lt; 1</text>
<polygon fill="#ffffff" stroke="transparent" points="391,-37.7 391,-56.7 421,-56.7 421,-37.7 391,-37.7"/>
<polygon fill="none" stroke="#000000" points="391,-37.7 391,-56.7 421,-56.7 421,-37.7 391,-37.7"/>
<text text-anchor="start" x="411.8862" y="-43.8" font-family="Helvetica,sans-Serif" font-size="11.00" fill="#000000"> &#160;</text>
<polygon fill="#ffffff" stroke="transparent" points="421,-37.7 421,-56.7 452,-56.7 452,-37.7 421,-37.7"/>
<polygon fill="none" stroke="#000000" points="421,-37.7 421,-56.7 452,-56.7 452,-37.7 421,-37.7"/>
<text text-anchor="start" x="442.8862" y="-43.8" font-family="Helvetica,sans-Serif" font-size="11.00" fill="#000000"> &#160;</text>
</a>
</g>
</g>
<!-- UserTokens&#45;&gt;Users -->
<g id="edge6" class="edge">
<title>UserTokens:w&#45;&gt;Users:e</title>
<path fill="none" stroke="#000000" d="M319.275,-65.9794C281.728,-67.5785 262.8088,-76.6936 236,-109.7 182.9339,-175.0336 279.6694,-294.7 195.5,-294.7"/>
<polygon fill="#000000" stroke="#000000" points="326.0014,-65.8518 334.0683,-69.2994 330.0007,-65.7759 334,-65.7 334,-65.7 334,-65.7 330.0007,-65.7759 333.9317,-62.1006 326.0014,-65.8518 326.0014,-65.8518"/>
<ellipse fill="none" stroke="#000000" cx="322.802" cy="-65.9126" rx="3.2" ry="3.2"/>
</g>
</g>
</svg>
