<?xml version="1.0" encoding="UTF-8" standalone="no"?>
<!DOCTYPE svg PUBLIC "-//W3C//DTD SVG 1.1//EN"
 "http://www.w3.org/Graphics/SVG/1.1/DTD/svg11.dtd">
<!-- Generated by graphviz version 2.40.1 (20161225.0304)
 -->
<!-- Title: twoDegreesRelationshipsDiagram Pages: 1 -->
<svg width="678pt" height="804pt"
 viewBox="0.00 0.00 678.00 804.20" xmlns="http://www.w3.org/2000/svg" xmlns:xlink="http://www.w3.org/1999/xlink">
<g id="graph0" class="graph" transform="scale(1 1) rotate(0) translate(4 800.2)">
<title>twoDegreesRelationshipsDiagram</title>
<polygon fill="#ffffff" stroke="transparent" points="-4,4 -4,-800.2 674,-800.2 674,4 -4,4"/>
<text text-anchor="middle" x="72.4936" y="-7.3" font-family="Helvetica,sans-Serif" font-size="11.00" fill="#000000">Generated by SchemaSpy</text>
<!-- Clinical.HospitalizationStatusHistories -->
<g id="node1" class="node">
<title>Clinical.HospitalizationStatusHistories</title>
<g id="a_node1"><a xlink:title="Clinical.HospitalizationStatusHistories">
<polygon fill="#ffffff" stroke="transparent" points="364,-709.2 364,-792.2 662,-792.2 662,-709.2 364,-709.2"/>
<polygon fill="#f5f5f5" stroke="transparent" points="364,-768.7 364,-791.7 662,-791.7 662,-768.7 364,-768.7"/>
<polygon fill="none" stroke="#000000" points="364,-768.7 364,-791.7 662,-791.7 662,-768.7 364,-768.7"/>
<text text-anchor="start" x="369" y="-777.3" font-family="Helvetica,sans-Serif" font-weight="bold" font-size="11.00" fill="#000000">Clinical.HospitalizationStatusHistories</text>
<text text-anchor="start" x="627.5219" y="-776.8" font-family="Helvetica,sans-Serif" font-size="11.00" fill="#000000">[table]</text>
<polygon fill="none" stroke="#000000" points="364,-746.7 364,-768.7 662,-768.7 662,-746.7 364,-746.7"/>
<image xlink:href="../../images/foreignKeys.png" width="11px" height="12px" preserveAspectRatio="xMinYMin meet" x="369" y="-763.7"/>
<text text-anchor="start" x="420" y="-753.8" font-family="Helvetica,sans-Serif" font-size="11.00" fill="#000000">ChangedByUserId</text>
<polygon fill="none" stroke="#000000" points="364,-727.7 364,-746.7 662,-746.7 662,-727.7 364,-727.7"/>
<text text-anchor="start" x="367" y="-733.8" font-family="Helvetica,sans-Serif" font-size="11.00" fill="#000000">...</text>
<polygon fill="#ffffff" stroke="transparent" points="364,-708.7 364,-727.7 511,-727.7 511,-708.7 364,-708.7"/>
<polygon fill="none" stroke="#000000" points="364,-708.7 364,-727.7 511,-727.7 511,-708.7 364,-708.7"/>
<text text-anchor="start" x="367" y="-714.8" font-family="Helvetica,sans-Serif" font-size="11.00" fill="#000000">&lt; 1</text>
<polygon fill="#ffffff" stroke="transparent" points="511,-708.7 511,-727.7 586,-727.7 586,-708.7 511,-708.7"/>
<polygon fill="none" stroke="#000000" points="511,-708.7 511,-727.7 586,-727.7 586,-708.7 511,-708.7"/>
<text text-anchor="start" x="576.8862" y="-714.8" font-family="Helvetica,sans-Serif" font-size="11.00" fill="#000000"> &#160;</text>
<polygon fill="#ffffff" stroke="transparent" points="586,-708.7 586,-727.7 662,-727.7 662,-708.7 586,-708.7"/>
<polygon fill="none" stroke="#000000" points="586,-708.7 586,-727.7 662,-727.7 662,-708.7 586,-708.7"/>
<text text-anchor="start" x="652.8862" y="-714.8" font-family="Helvetica,sans-Serif" font-size="11.00" fill="#000000"> &#160;</text>
</a>
</g>
</g>
<!-- Users -->
<g id="node2" class="node">
<title>Users</title>
<g id="a_node2"><a xlink:href="../../tables/Users.html" xlink:title="Users" target="_top">
<polygon fill="#ffffff" stroke="transparent" points="8,-121.7 8,-563.7 315,-563.7 315,-121.7 8,-121.7"/>
<polygon fill="#f5f5f5" stroke="transparent" points="10.5,-538.7 10.5,-561.7 313.5,-561.7 313.5,-538.7 10.5,-538.7"/>
<polygon fill="none" stroke="#000000" points="10.5,-538.7 10.5,-561.7 313.5,-561.7 313.5,-538.7 10.5,-538.7"/>
<text text-anchor="start" x="15.5" y="-547.3" font-family="Helvetica,sans-Serif" font-weight="bold" font-size="11.00" fill="#000000">Users</text>
<text text-anchor="start" x="278.5437" y="-546.8" font-family="Helvetica,sans-Serif" font-size="11.00" fill="#000000">[table]</text>
<polygon fill="none" stroke="#000000" points="10.5,-516.7 10.5,-538.7 197.5,-538.7 197.5,-516.7 10.5,-516.7"/>
<image xlink:href="../../images/primaryKeys.png" width="11px" height="12px" preserveAspectRatio="xMinYMin meet" x="15.5" y="-533.7"/>
<text text-anchor="start" x="30.5" y="-523.8" font-family="Helvetica,sans-Serif" font-size="11.00" fill="#000000">Id</text>
<polygon fill="none" stroke="#000000" points="197.5,-516.7 197.5,-538.7 313.5,-538.7 313.5,-516.7 197.5,-516.7"/>
<text text-anchor="start" x="200.5" y="-524.4" font-family="Helvetica,sans-Serif" font-size="11.00" fill="#000000">int identity[4]</text>
<polygon fill="none" stroke="#000000" points="10.5,-494.7 10.5,-516.7 197.5,-516.7 197.5,-494.7 10.5,-494.7"/>
<text text-anchor="start" x="30.5" y="-501.8" font-family="Helvetica,sans-Serif" font-size="11.00" fill="#000000">CreatedAtUtc</text>
<polygon fill="none" stroke="#000000" points="197.5,-494.7 197.5,-516.7 313.5,-516.7 313.5,-494.7 197.5,-494.7"/>
<text text-anchor="start" x="200.5" y="-502.4" font-family="Helvetica,sans-Serif" font-size="11.00" fill="#000000">datetime2[16,7]</text>
<polygon fill="none" stroke="#000000" points="10.5,-472.7 10.5,-494.7 197.5,-494.7 197.5,-472.7 10.5,-472.7"/>
<text text-anchor="start" x="30.5" y="-479.8" font-family="Helvetica,sans-Serif" font-size="11.00" fill="#000000">UpdatedAtUtc</text>
<polygon fill="none" stroke="#000000" points="197.5,-472.7 197.5,-494.7 313.5,-494.7 313.5,-472.7 197.5,-472.7"/>
<text text-anchor="start" x="200.5" y="-480.4" font-family="Helvetica,sans-Serif" font-size="11.00" fill="#000000">datetime2[16,7]</text>
<polygon fill="none" stroke="#000000" points="10.5,-450.7 10.5,-472.7 197.5,-472.7 197.5,-450.7 10.5,-450.7"/>
<text text-anchor="start" x="30.5" y="-457.8" font-family="Helvetica,sans-Serif" font-size="11.00" fill="#000000">RowVersion</text>
<polygon fill="none" stroke="#000000" points="197.5,-450.7 197.5,-472.7 313.5,-472.7 313.5,-450.7 197.5,-450.7"/>
<text text-anchor="start" x="200.5" y="-458.4" font-family="Helvetica,sans-Serif" font-size="11.00" fill="#000000">timestamp[8]</text>
<polygon fill="none" stroke="#000000" points="10.5,-428.7 10.5,-450.7 197.5,-450.7 197.5,-428.7 10.5,-428.7"/>
<text text-anchor="start" x="30.5" y="-435.8" font-family="Helvetica,sans-Serif" font-size="11.00" fill="#000000">UserName</text>
<polygon fill="none" stroke="#000000" points="197.5,-428.7 197.5,-450.7 313.5,-450.7 313.5,-428.7 197.5,-428.7"/>
<text text-anchor="start" x="200.5" y="-436.4" font-family="Helvetica,sans-Serif" font-size="11.00" fill="#000000">nvarchar[512]</text>
<polygon fill="#ffffff" stroke="transparent" points="10.5,-406.7 10.5,-428.7 197.5,-428.7 197.5,-406.7 10.5,-406.7"/>
<polygon fill="none" stroke="#000000" points="10.5,-406.7 10.5,-428.7 197.5,-428.7 197.5,-406.7 10.5,-406.7"/>
<text text-anchor="start" x="30.5" y="-413.8" font-family="Helvetica,sans-Serif" font-size="11.00" fill="#000000">NormalizedUserName</text>
<polygon fill="none" stroke="#000000" points="197.5,-406.7 197.5,-428.7 313.5,-428.7 313.5,-406.7 197.5,-406.7"/>
<text text-anchor="start" x="200.5" y="-414.4" font-family="Helvetica,sans-Serif" font-size="11.00" fill="#000000">nvarchar[512]</text>
<polygon fill="none" stroke="#000000" points="10.5,-384.7 10.5,-406.7 197.5,-406.7 197.5,-384.7 10.5,-384.7"/>
<text text-anchor="start" x="30.5" y="-391.8" font-family="Helvetica,sans-Serif" font-size="11.00" fill="#000000">Email</text>
<polygon fill="none" stroke="#000000" points="197.5,-384.7 197.5,-406.7 313.5,-406.7 313.5,-384.7 197.5,-384.7"/>
<text text-anchor="start" x="200.5" y="-392.4" font-family="Helvetica,sans-Serif" font-size="11.00" fill="#000000">nvarchar[512]</text>
<polygon fill="#ffffff" stroke="transparent" points="10.5,-362.7 10.5,-384.7 197.5,-384.7 197.5,-362.7 10.5,-362.7"/>
<polygon fill="none" stroke="#000000" points="10.5,-362.7 10.5,-384.7 197.5,-384.7 197.5,-362.7 10.5,-362.7"/>
<text text-anchor="start" x="30.5" y="-369.8" font-family="Helvetica,sans-Serif" font-size="11.00" fill="#000000">NormalizedEmail</text>
<polygon fill="none" stroke="#000000" points="197.5,-362.7 197.5,-384.7 313.5,-384.7 313.5,-362.7 197.5,-362.7"/>
<text text-anchor="start" x="200.5" y="-370.4" font-family="Helvetica,sans-Serif" font-size="11.00" fill="#000000">nvarchar[512]</text>
<polygon fill="none" stroke="#000000" points="10.5,-340.7 10.5,-362.7 197.5,-362.7 197.5,-340.7 10.5,-340.7"/>
<text text-anchor="start" x="30.5" y="-347.8" font-family="Helvetica,sans-Serif" font-size="11.00" fill="#000000">EmailConfirmed</text>
<polygon fill="none" stroke="#000000" points="197.5,-340.7 197.5,-362.7 313.5,-362.7 313.5,-340.7 197.5,-340.7"/>
<text text-anchor="start" x="200.5" y="-348.4" font-family="Helvetica,sans-Serif" font-size="11.00" fill="#000000">bit[1]</text>
<polygon fill="none" stroke="#000000" points="10.5,-318.7 10.5,-340.7 197.5,-340.7 197.5,-318.7 10.5,-318.7"/>
<text text-anchor="start" x="30.5" y="-325.8" font-family="Helvetica,sans-Serif" font-size="11.00" fill="#000000">PasswordHash</text>
<polygon fill="none" stroke="#000000" points="197.5,-318.7 197.5,-340.7 313.5,-340.7 313.5,-318.7 197.5,-318.7"/>
<text text-anchor="start" x="200.4769" y="-326.4" font-family="Helvetica,sans-Serif" font-size="11.00" fill="#000000">nvarchar[2147483647]</text>
<polygon fill="none" stroke="#000000" points="10.5,-296.7 10.5,-318.7 197.5,-318.7 197.5,-296.7 10.5,-296.7"/>
<text text-anchor="start" x="30.5" y="-303.8" font-family="Helvetica,sans-Serif" font-size="11.00" fill="#000000">SecurityStamp</text>
<polygon fill="none" stroke="#000000" points="197.5,-296.7 197.5,-318.7 313.5,-318.7 313.5,-296.7 197.5,-296.7"/>
<text text-anchor="start" x="200.4769" y="-304.4" font-family="Helvetica,sans-Serif" font-size="11.00" fill="#000000">nvarchar[2147483647]</text>
<polygon fill="none" stroke="#000000" points="10.5,-274.7 10.5,-296.7 197.5,-296.7 197.5,-274.7 10.5,-274.7"/>
<text text-anchor="start" x="30.5" y="-281.8" font-family="Helvetica,sans-Serif" font-size="11.00" fill="#000000">ConcurrencyStamp</text>
<polygon fill="none" stroke="#000000" points="197.5,-274.7 197.5,-296.7 313.5,-296.7 313.5,-274.7 197.5,-274.7"/>
<text text-anchor="start" x="200.4769" y="-282.4" font-family="Helvetica,sans-Serif" font-size="11.00" fill="#000000">nvarchar[2147483647]</text>
<polygon fill="none" stroke="#000000" points="10.5,-252.7 10.5,-274.7 197.5,-274.7 197.5,-252.7 10.5,-252.7"/>
<text text-anchor="start" x="30.5" y="-259.8" font-family="Helvetica,sans-Serif" font-size="11.00" fill="#000000">PhoneNumber</text>
<polygon fill="none" stroke="#000000" points="197.5,-252.7 197.5,-274.7 313.5,-274.7 313.5,-252.7 197.5,-252.7"/>
<text text-anchor="start" x="200.4769" y="-260.4" font-family="Helvetica,sans-Serif" font-size="11.00" fill="#000000">nvarchar[2147483647]</text>
<polygon fill="none" stroke="#000000" points="10.5,-230.7 10.5,-252.7 197.5,-252.7 197.5,-230.7 10.5,-230.7"/>
<text text-anchor="start" x="30.5" y="-237.8" font-family="Helvetica,sans-Serif" font-size="11.00" fill="#000000">PhoneNumberConfirmed</text>
<polygon fill="none" stroke="#000000" points="197.5,-230.7 197.5,-252.7 313.5,-252.7 313.5,-230.7 197.5,-230.7"/>
<text text-anchor="start" x="200.5" y="-238.4" font-family="Helvetica,sans-Serif" font-size="11.00" fill="#000000">bit[1]</text>
<polygon fill="none" stroke="#000000" points="10.5,-208.7 10.5,-230.7 197.5,-230.7 197.5,-208.7 10.5,-208.7"/>
<text text-anchor="start" x="30.5" y="-215.8" font-family="Helvetica,sans-Serif" font-size="11.00" fill="#000000">TwoFactorEnabled</text>
<polygon fill="none" stroke="#000000" points="197.5,-208.7 197.5,-230.7 313.5,-230.7 313.5,-208.7 197.5,-208.7"/>
<text text-anchor="start" x="200.5" y="-216.4" font-family="Helvetica,sans-Serif" font-size="11.00" fill="#000000">bit[1]</text>
<polygon fill="none" stroke="#000000" points="10.5,-186.7 10.5,-208.7 197.5,-208.7 197.5,-186.7 10.5,-186.7"/>
<text text-anchor="start" x="30.5" y="-193.8" font-family="Helvetica,sans-Serif" font-size="11.00" fill="#000000">LockoutEnd</text>
<polygon fill="none" stroke="#000000" points="197.5,-186.7 197.5,-208.7 313.5,-208.7 313.5,-186.7 197.5,-186.7"/>
<text text-anchor="start" x="200.5" y="-194.4" font-family="Helvetica,sans-Serif" font-size="11.00" fill="#000000">datetimeoffset[20,7]</text>
<polygon fill="none" stroke="#000000" points="10.5,-164.7 10.5,-186.7 197.5,-186.7 197.5,-164.7 10.5,-164.7"/>
<text text-anchor="start" x="30.5" y="-171.8" font-family="Helvetica,sans-Serif" font-size="11.00" fill="#000000">LockoutEnabled</text>
<polygon fill="none" stroke="#000000" points="197.5,-164.7 197.5,-186.7 313.5,-186.7 313.5,-164.7 197.5,-164.7"/>
<text text-anchor="start" x="200.5" y="-172.4" font-family="Helvetica,sans-Serif" font-size="11.00" fill="#000000">bit[1]</text>
<polygon fill="none" stroke="#000000" points="10.5,-142.7 10.5,-164.7 197.5,-164.7 197.5,-142.7 10.5,-142.7"/>
<text text-anchor="start" x="30.5" y="-149.8" font-family="Helvetica,sans-Serif" font-size="11.00" fill="#000000">AccessFailedCount</text>
<polygon fill="none" stroke="#000000" points="197.5,-142.7 197.5,-164.7 313.5,-164.7 313.5,-142.7 197.5,-142.7"/>
<text text-anchor="start" x="200.5" y="-150.4" font-family="Helvetica,sans-Serif" font-size="11.00" fill="#000000">int[4]</text>
<polygon fill="#ffffff" stroke="transparent" points="10.5,-123.7 10.5,-142.7 108.5,-142.7 108.5,-123.7 10.5,-123.7"/>
<polygon fill="none" stroke="#000000" points="10.5,-123.7 10.5,-142.7 108.5,-142.7 108.5,-123.7 10.5,-123.7"/>
<text text-anchor="start" x="13.5" y="-129.8" font-family="Helvetica,sans-Serif" font-size="11.00" fill="#000000">&lt; 0</text>
<polygon fill="#ffffff" stroke="transparent" points="108.5,-123.7 108.5,-142.7 197.5,-142.7 197.5,-123.7 108.5,-123.7"/>
<polygon fill="none" stroke="#000000" points="108.5,-123.7 108.5,-142.7 197.5,-142.7 197.5,-123.7 108.5,-123.7"/>
<text text-anchor="start" x="188.3862" y="-129.8" font-family="Helvetica,sans-Serif" font-size="11.00" fill="#000000"> &#160;</text>
<polygon fill="#ffffff" stroke="transparent" points="197.5,-123.7 197.5,-142.7 313.5,-142.7 313.5,-123.7 197.5,-123.7"/>
<polygon fill="none" stroke="#000000" points="197.5,-123.7 197.5,-142.7 313.5,-142.7 313.5,-123.7 197.5,-123.7"/>
<text text-anchor="start" x="294.9053" y="-129.8" font-family="Helvetica,sans-Serif" font-size="11.00" fill="#000000">6 &gt;</text>
<polygon fill="none" stroke="#000000" stroke-width="2" points="9,-122.7 9,-562.7 314,-562.7 314,-122.7 9,-122.7"/>
</a>
</g>
</g>
<!-- Clinical.HospitalizationStatusHistories&#45;&gt;Users -->
<g id="edge1" class="edge">
<title>Clinical.HospitalizationStatusHistories:w&#45;&gt;Users:e</title>
<path fill="none" stroke="#000000" d="M349.5637,-755.8486C275.36,-734.0818 412.6382,-527.7 313.5,-527.7"/>
<polygon fill="#000000" stroke="#000000" points="356.065,-756.6823 363.542,-761.2708 360.0325,-757.1912 364,-757.7 364,-757.7 364,-757.7 360.0325,-757.1912 364.458,-754.1292 356.065,-756.6823 356.065,-756.6823"/>
<ellipse fill="none" stroke="#000000" cx="352.891" cy="-756.2753" rx="3.2" ry="3.2"/>
</g>
<!-- Clinical.VisitEvents -->
<g id="node3" class="node">
<title>Clinical.VisitEvents</title>
<g id="a_node3"><a xlink:title="Clinical.VisitEvents">
<polygon fill="#ffffff" stroke="transparent" points="429,-605.2 429,-688.2 597,-688.2 597,-605.2 429,-605.2"/>
<polygon fill="#f5f5f5" stroke="transparent" points="429,-664.7 429,-687.7 597,-687.7 597,-664.7 429,-664.7"/>
<polygon fill="none" stroke="#000000" points="429,-664.7 429,-687.7 597,-687.7 597,-664.7 429,-664.7"/>
<text text-anchor="start" x="434" y="-673.3" font-family="Helvetica,sans-Serif" font-weight="bold" font-size="11.00" fill="#000000">Clinical.VisitEvents</text>
<text text-anchor="start" x="562.5219" y="-672.8" font-family="Helvetica,sans-Serif" font-size="11.00" fill="#000000">[table]</text>
<polygon fill="none" stroke="#000000" points="429,-642.7 429,-664.7 597,-664.7 597,-642.7 429,-642.7"/>
<image xlink:href="../../images/foreignKeys.png" width="11px" height="12px" preserveAspectRatio="xMinYMin meet" x="434" y="-659.7"/>
<text text-anchor="start" x="466" y="-649.8" font-family="Helvetica,sans-Serif" font-size="11.00" fill="#000000">EnteredByUserId</text>
<polygon fill="none" stroke="#000000" points="429,-623.7 429,-642.7 597,-642.7 597,-623.7 429,-623.7"/>
<text text-anchor="start" x="432" y="-629.8" font-family="Helvetica,sans-Serif" font-size="11.00" fill="#000000">...</text>
<polygon fill="#ffffff" stroke="transparent" points="429,-604.7 429,-623.7 511,-623.7 511,-604.7 429,-604.7"/>
<polygon fill="none" stroke="#000000" points="429,-604.7 429,-623.7 511,-623.7 511,-604.7 429,-604.7"/>
<text text-anchor="start" x="432" y="-610.8" font-family="Helvetica,sans-Serif" font-size="11.00" fill="#000000">&lt; 1</text>
<polygon fill="#ffffff" stroke="transparent" points="511,-604.7 511,-623.7 554,-623.7 554,-604.7 511,-604.7"/>
<polygon fill="none" stroke="#000000" points="511,-604.7 511,-623.7 554,-623.7 554,-604.7 511,-604.7"/>
<text text-anchor="start" x="544.8862" y="-610.8" font-family="Helvetica,sans-Serif" font-size="11.00" fill="#000000"> &#160;</text>
<polygon fill="#ffffff" stroke="transparent" points="554,-604.7 554,-623.7 597,-623.7 597,-604.7 554,-604.7"/>
<polygon fill="none" stroke="#000000" points="554,-604.7 554,-623.7 597,-623.7 597,-604.7 554,-604.7"/>
<text text-anchor="start" x="587.8862" y="-610.8" font-family="Helvetica,sans-Serif" font-size="11.00" fill="#000000"> &#160;</text>
</a>
</g>
</g>
<!-- Clinical.VisitEvents&#45;&gt;Users -->
<g id="edge2" class="edge">
<title>Clinical.VisitEvents:w&#45;&gt;Users:e</title>
<path fill="none" stroke="#000000" d="M414.6378,-652.3637C385.9731,-646.4621 380.1837,-621.823 356,-594.7 332.532,-568.3797 348.7634,-527.7 313.5,-527.7"/>
<polygon fill="#000000" stroke="#000000" points="421.0344,-652.9588 428.6665,-657.2845 425.0172,-653.3294 429,-653.7 429,-653.7 429,-653.7 425.0172,-653.3294 429.3335,-650.1155 421.0344,-652.9588 421.0344,-652.9588"/>
<ellipse fill="none" stroke="#000000" cx="417.8482" cy="-652.6623" rx="3.2" ry="3.2"/>
</g>
<!-- UserClaims -->
<g id="node4" class="node">
<title>UserClaims</title>
<g id="a_node4"><a xlink:href="../../tables/UserClaims.html" xlink:title="UserClaims" target="_top">
<polygon fill="#ffffff" stroke="transparent" points="455,-479.2 455,-584.2 571,-584.2 571,-479.2 455,-479.2"/>
<polygon fill="#f5f5f5" stroke="transparent" points="455,-560.7 455,-583.7 571,-583.7 571,-560.7 455,-560.7"/>
<polygon fill="none" stroke="#000000" points="455,-560.7 455,-583.7 571,-583.7 571,-560.7 455,-560.7"/>
<text text-anchor="start" x="460" y="-569.3" font-family="Helvetica,sans-Serif" font-weight="bold" font-size="11.00" fill="#000000">UserClaims</text>
<text text-anchor="start" x="536.0437" y="-568.8" font-family="Helvetica,sans-Serif" font-size="11.00" fill="#000000">[table]</text>
<polygon fill="none" stroke="#000000" points="455,-538.7 455,-560.7 571,-560.7 571,-538.7 455,-538.7"/>
<image xlink:href="../../images/primaryKeys.png" width="11px" height="12px" preserveAspectRatio="xMinYMin meet" x="460" y="-555.7"/>
<text text-anchor="start" x="475" y="-545.8" font-family="Helvetica,sans-Serif" font-size="11.00" fill="#000000">Id</text>
<polygon fill="#ffffff" stroke="transparent" points="455,-516.7 455,-538.7 571,-538.7 571,-516.7 455,-516.7"/>
<polygon fill="none" stroke="#000000" points="455,-516.7 455,-538.7 571,-538.7 571,-516.7 455,-516.7"/>
<image xlink:href="../../images/foreignKeys.png" width="11px" height="12px" preserveAspectRatio="xMinYMin meet" x="460" y="-533.7"/>
<text text-anchor="start" x="475" y="-523.8" font-family="Helvetica,sans-Serif" font-size="11.00" fill="#000000">UserId</text>
<polygon fill="none" stroke="#000000" points="455,-497.7 455,-516.7 571,-516.7 571,-497.7 455,-497.7"/>
<text text-anchor="start" x="458" y="-503.8" font-family="Helvetica,sans-Serif" font-size="11.00" fill="#000000">...</text>
<polygon fill="#ffffff" stroke="transparent" points="455,-478.7 455,-497.7 511,-497.7 511,-478.7 455,-478.7"/>
<polygon fill="none" stroke="#000000" points="455,-478.7 455,-497.7 511,-497.7 511,-478.7 455,-478.7"/>
<text text-anchor="start" x="458" y="-484.8" font-family="Helvetica,sans-Serif" font-size="11.00" fill="#000000">&lt; 1</text>
<polygon fill="#ffffff" stroke="transparent" points="511,-478.7 511,-497.7 541,-497.7 541,-478.7 511,-478.7"/>
<polygon fill="none" stroke="#000000" points="511,-478.7 511,-497.7 541,-497.7 541,-478.7 511,-478.7"/>
<text text-anchor="start" x="531.8862" y="-484.8" font-family="Helvetica,sans-Serif" font-size="11.00" fill="#000000"> &#160;</text>
<polygon fill="#ffffff" stroke="transparent" points="541,-478.7 541,-497.7 571,-497.7 571,-478.7 541,-478.7"/>
<polygon fill="none" stroke="#000000" points="541,-478.7 541,-497.7 571,-497.7 571,-478.7 541,-478.7"/>
<text text-anchor="start" x="561.8862" y="-484.8" font-family="Helvetica,sans-Serif" font-size="11.00" fill="#000000"> &#160;</text>
</a>
</g>
</g>
<!-- UserClaims&#45;&gt;Users -->
<g id="edge3" class="edge">
<title>UserClaims:w&#45;&gt;Users:e</title>
<path fill="none" stroke="#000000" d="M440.4235,-527.7C389.2143,-527.7 371.23,-527.7 313.5,-527.7"/>
<polygon fill="#000000" stroke="#000000" points="447,-527.7001 455,-531.3 451,-527.7 455,-527.7 455,-527.7 455,-527.7 451,-527.7 455,-524.1 447,-527.7001 447,-527.7001"/>
<ellipse fill="none" stroke="#000000" cx="443.8" cy="-527.7001" rx="3.2" ry="3.2"/>
</g>
<!-- UserLogins -->
<g id="node5" class="node">
<title>UserLogins</title>
<g id="a_node5"><a xlink:href="../../tables/UserLogins.html" xlink:title="UserLogins" target="_top">
<polygon fill="#ffffff" stroke="transparent" points="429.5,-331.2 429.5,-458.2 596.5,-458.2 596.5,-331.2 429.5,-331.2"/>
<polygon fill="#f5f5f5" stroke="transparent" points="430,-434.7 430,-457.7 597,-457.7 597,-434.7 430,-434.7"/>
<polygon fill="none" stroke="#000000" points="430,-434.7 430,-457.7 597,-457.7 597,-434.7 430,-434.7"/>
<text text-anchor="start" x="435" y="-443.3" font-family="Helvetica,sans-Serif" font-weight="bold" font-size="11.00" fill="#000000">UserLogins</text>
<text text-anchor="start" x="562.0437" y="-442.8" font-family="Helvetica,sans-Serif" font-size="11.00" fill="#000000">[table]</text>
<polygon fill="none" stroke="#000000" points="430,-412.7 430,-434.7 597,-434.7 597,-412.7 430,-412.7"/>
<image xlink:href="../../images/primaryKeys.png" width="11px" height="12px" preserveAspectRatio="xMinYMin meet" x="435" y="-429.7"/>
<text text-anchor="start" x="450" y="-419.8" font-family="Helvetica,sans-Serif" font-size="11.00" fill="#000000">LoginProvider</text>
<polygon fill="none" stroke="#000000" points="430,-390.7 430,-412.7 597,-412.7 597,-390.7 430,-390.7"/>
<image xlink:href="../../images/primaryKeys.png" width="11px" height="12px" preserveAspectRatio="xMinYMin meet" x="435" y="-407.7"/>
<text text-anchor="start" x="450" y="-397.8" font-family="Helvetica,sans-Serif" font-size="11.00" fill="#000000">ProviderKey</text>
<polygon fill="#ffffff" stroke="transparent" points="430,-368.7 430,-390.7 597,-390.7 597,-368.7 430,-368.7"/>
<polygon fill="none" stroke="#000000" points="430,-368.7 430,-390.7 597,-390.7 597,-368.7 430,-368.7"/>
<image xlink:href="../../images/foreignKeys.png" width="11px" height="12px" preserveAspectRatio="xMinYMin meet" x="435" y="-385.7"/>
<text text-anchor="start" x="450" y="-375.8" font-family="Helvetica,sans-Serif" font-size="11.00" fill="#000000">UserId</text>
<polygon fill="none" stroke="#000000" points="430,-349.7 430,-368.7 597,-368.7 597,-349.7 430,-349.7"/>
<text text-anchor="start" x="433" y="-355.8" font-family="Helvetica,sans-Serif" font-size="11.00" fill="#000000">...</text>
<polygon fill="#ffffff" stroke="transparent" points="430,-330.7 430,-349.7 512,-349.7 512,-330.7 430,-330.7"/>
<polygon fill="none" stroke="#000000" points="430,-330.7 430,-349.7 512,-349.7 512,-330.7 430,-330.7"/>
<text text-anchor="start" x="433" y="-336.8" font-family="Helvetica,sans-Serif" font-size="11.00" fill="#000000">&lt; 1</text>
<polygon fill="#ffffff" stroke="transparent" points="512,-330.7 512,-349.7 554,-349.7 554,-330.7 512,-330.7"/>
<polygon fill="none" stroke="#000000" points="512,-330.7 512,-349.7 554,-349.7 554,-330.7 512,-330.7"/>
<text text-anchor="start" x="544.8862" y="-336.8" font-family="Helvetica,sans-Serif" font-size="11.00" fill="#000000"> &#160;</text>
<polygon fill="#ffffff" stroke="transparent" points="554,-330.7 554,-349.7 597,-349.7 597,-330.7 554,-330.7"/>
<polygon fill="none" stroke="#000000" points="554,-330.7 554,-349.7 597,-349.7 597,-330.7 554,-330.7"/>
<text text-anchor="start" x="587.8862" y="-336.8" font-family="Helvetica,sans-Serif" font-size="11.00" fill="#000000"> &#160;</text>
</a>
</g>
</g>
<!-- UserLogins&#45;&gt;Users -->
<g id="edge4" class="edge">
<title>UserLogins:w&#45;&gt;Users:e</title>
<path fill="none" stroke="#000000" d="M415.62,-381.2471C379.9935,-389.8089 384.1751,-432.3171 356,-468.7 336.2129,-494.2513 345.8171,-527.7 313.5,-527.7"/>
<polygon fill="#000000" stroke="#000000" points="422.0459,-380.5558 430.3851,-383.2793 426.0229,-380.1279 430,-379.7 430,-379.7 430,-379.7 426.0229,-380.1279 429.6149,-376.1207 422.0459,-380.5558 422.0459,-380.5558"/>
<ellipse fill="none" stroke="#000000" cx="418.8643" cy="-380.8981" rx="3.2" ry="3.2"/>
</g>
<!-- UserRoles -->
<g id="node6" class="node">
<title>UserRoles</title>
<g id="a_node6"><a xlink:href="../../tables/UserRoles.html" xlink:title="UserRoles" target="_top">
<polygon fill="#ffffff" stroke="transparent" points="455,-38.2 455,-143.2 571,-143.2 571,-38.2 455,-38.2"/>
<polygon fill="#f5f5f5" stroke="transparent" points="455,-119.7 455,-142.7 571,-142.7 571,-119.7 455,-119.7"/>
<polygon fill="none" stroke="#000000" points="455,-119.7 455,-142.7 571,-142.7 571,-119.7 455,-119.7"/>
<text text-anchor="start" x="460" y="-128.3" font-family="Helvetica,sans-Serif" font-weight="bold" font-size="11.00" fill="#000000">UserRoles</text>
<text text-anchor="start" x="536.0437" y="-127.8" font-family="Helvetica,sans-Serif" font-size="11.00" fill="#000000">[table]</text>
<polygon fill="none" stroke="#000000" points="455,-97.7 455,-119.7 571,-119.7 571,-97.7 455,-97.7"/>
<image xlink:href="../../images/primaryKeys.png" width="11px" height="12px" preserveAspectRatio="xMinYMin meet" x="460" y="-114.7"/>
<text text-anchor="start" x="475" y="-104.8" font-family="Helvetica,sans-Serif" font-size="11.00" fill="#000000">UserId</text>
<polygon fill="none" stroke="#000000" points="455,-75.7 455,-97.7 571,-97.7 571,-75.7 455,-75.7"/>
<image xlink:href="../../images/primaryKeys.png" width="11px" height="12px" preserveAspectRatio="xMinYMin meet" x="460" y="-92.7"/>
<text text-anchor="start" x="475" y="-82.8" font-family="Helvetica,sans-Serif" font-size="11.00" fill="#000000">RoleId</text>
<polygon fill="none" stroke="#000000" points="455,-56.7 455,-75.7 571,-75.7 571,-56.7 455,-56.7"/>
<text text-anchor="start" x="458" y="-62.8" font-family="Helvetica,sans-Serif" font-size="11.00" fill="#000000">...</text>
<polygon fill="#ffffff" stroke="transparent" points="455,-37.7 455,-56.7 511,-56.7 511,-37.7 455,-37.7"/>
<polygon fill="none" stroke="#000000" points="455,-37.7 455,-56.7 511,-56.7 511,-37.7 455,-37.7"/>
<text text-anchor="start" x="458" y="-43.8" font-family="Helvetica,sans-Serif" font-size="11.00" fill="#000000">&lt; 2</text>
<polygon fill="#ffffff" stroke="transparent" points="511,-37.7 511,-56.7 541,-56.7 541,-37.7 511,-37.7"/>
<polygon fill="none" stroke="#000000" points="511,-37.7 511,-56.7 541,-56.7 541,-37.7 511,-37.7"/>
<text text-anchor="start" x="531.8862" y="-43.8" font-family="Helvetica,sans-Serif" font-size="11.00" fill="#000000"> &#160;</text>
<polygon fill="#ffffff" stroke="transparent" points="541,-37.7 541,-56.7 571,-56.7 571,-37.7 541,-37.7"/>
<polygon fill="none" stroke="#000000" points="541,-37.7 541,-56.7 571,-56.7 571,-37.7 541,-37.7"/>
<text text-anchor="start" x="561.8862" y="-43.8" font-family="Helvetica,sans-Serif" font-size="11.00" fill="#000000"> &#160;</text>
</a>
</g>
</g>
<!-- UserRoles&#45;&gt;Users -->
<g id="edge6" class="edge">
<title>UserRoles:w&#45;&gt;Users:e</title>
<path fill="none" stroke="#000000" d="M440.5701,-109.2644C398.8375,-112.7566 381.034,-132.5949 356,-172.7 313.9287,-240.0993 392.9522,-527.7 313.5,-527.7"/>
<polygon fill="#000000" stroke="#000000" points="447.0061,-109.0127 455.1407,-112.2972 451.0031,-108.8564 455,-108.7 455,-108.7 455,-108.7 451.0031,-108.8564 454.8593,-105.1028 447.0061,-109.0127 447.0061,-109.0127"/>
<ellipse fill="none" stroke="#000000" cx="443.8086" cy="-109.1378" rx="3.2" ry="3.2"/>
</g>
<!-- Roles -->
<g id="node7" class="node">
<title>Roles</title>
<g id="a_node7"><a xlink:href="../../tables/Roles.html" xlink:title="Roles" target="_top">
<polygon fill="#ffffff" stroke="transparent" points="124,-39.2 124,-100.2 199,-100.2 199,-39.2 124,-39.2"/>
<polygon fill="#f5f5f5" stroke="transparent" points="124.5,-76.7 124.5,-99.7 199.5,-99.7 199.5,-76.7 124.5,-76.7"/>
<polygon fill="none" stroke="#000000" points="124.5,-76.7 124.5,-99.7 199.5,-99.7 199.5,-76.7 124.5,-76.7"/>
<text text-anchor="start" x="129.5" y="-85.3" font-family="Helvetica,sans-Serif" font-weight="bold" font-size="11.00" fill="#000000">Roles</text>
<text text-anchor="start" x="165.0219" y="-84.8" font-family="Helvetica,sans-Serif" font-size="11.00" fill="#000000">[table]</text>
<polygon fill="none" stroke="#000000" points="124.5,-57.7 124.5,-76.7 199.5,-76.7 199.5,-57.7 124.5,-57.7"/>
<text text-anchor="start" x="127.5" y="-63.8" font-family="Helvetica,sans-Serif" font-size="11.00" fill="#000000">...</text>
<polygon fill="#ffffff" stroke="transparent" points="124.5,-38.7 124.5,-57.7 151.5,-57.7 151.5,-38.7 124.5,-38.7"/>
<polygon fill="none" stroke="#000000" points="124.5,-38.7 124.5,-57.7 151.5,-57.7 151.5,-38.7 124.5,-38.7"/>
<text text-anchor="start" x="127.5" y="-44.8" font-family="Helvetica,sans-Serif" font-size="11.00" fill="#000000"> &#160;</text>
<polygon fill="#ffffff" stroke="transparent" points="151.5,-38.7 151.5,-57.7 170.5,-57.7 170.5,-38.7 151.5,-38.7"/>
<polygon fill="none" stroke="#000000" points="151.5,-38.7 151.5,-57.7 170.5,-57.7 170.5,-38.7 151.5,-38.7"/>
<text text-anchor="start" x="161.3862" y="-44.8" font-family="Helvetica,sans-Serif" font-size="11.00" fill="#000000"> &#160;</text>
<polygon fill="#ffffff" stroke="transparent" points="170.5,-38.7 170.5,-57.7 199.5,-57.7 199.5,-38.7 170.5,-38.7"/>
<polygon fill="none" stroke="#000000" points="170.5,-38.7 170.5,-57.7 199.5,-57.7 199.5,-38.7 170.5,-38.7"/>
<text text-anchor="start" x="180.9053" y="-44.8" font-family="Helvetica,sans-Serif" font-size="11.00" fill="#000000">2 &gt;</text>
</a>
</g>
</g>
<!-- UserRoles&#45;&gt;Roles -->
<g id="edge5" class="edge">
<title>UserRoles:w&#45;&gt;Roles:e</title>
<path fill="none" stroke="#000000" d="M440.4683,-86.5875C338.4965,-84.9808 308.3974,-66.7 199.5,-66.7"/>
<polygon fill="#000000" stroke="#000000" points="447.0002,-86.638 454.9721,-90.2999 451.0001,-86.669 455,-86.7 455,-86.7 455,-86.7 451.0001,-86.669 455.0279,-83.1001 447.0002,-86.638 447.0002,-86.638"/>
<ellipse fill="none" stroke="#000000" cx="443.8003" cy="-86.6132" rx="3.2" ry="3.2"/>
</g>
<!-- UserTokens -->
<g id="node8" class="node">
<title>UserTokens</title>
<g id="a_node8"><a xlink:href="../../tables/UserTokens.html" xlink:title="UserTokens" target="_top">
<polygon fill="#ffffff" stroke="transparent" points="454,-183.2 454,-310.2 572,-310.2 572,-183.2 454,-183.2"/>
<polygon fill="#f5f5f5" stroke="transparent" points="454,-286.7 454,-309.7 572,-309.7 572,-286.7 454,-286.7"/>
<polygon fill="none" stroke="#000000" points="454,-286.7 454,-309.7 572,-309.7 572,-286.7 454,-286.7"/>
<text text-anchor="start" x="459" y="-295.3" font-family="Helvetica,sans-Serif" font-weight="bold" font-size="11.00" fill="#000000">UserTokens</text>
<text text-anchor="start" x="537.5219" y="-294.8" font-family="Helvetica,sans-Serif" font-size="11.00" fill="#000000">[table]</text>
<polygon fill="none" stroke="#000000" points="454,-264.7 454,-286.7 572,-286.7 572,-264.7 454,-264.7"/>
<image xlink:href="../../images/primaryKeys.png" width="11px" height="12px" preserveAspectRatio="xMinYMin meet" x="459" y="-281.7"/>
<text text-anchor="start" x="475" y="-271.8" font-family="Helvetica,sans-Serif" font-size="11.00" fill="#000000">UserId</text>
<polygon fill="none" stroke="#000000" points="454,-242.7 454,-264.7 572,-264.7 572,-242.7 454,-242.7"/>
<image xlink:href="../../images/primaryKeys.png" width="11px" height="12px" preserveAspectRatio="xMinYMin meet" x="459" y="-259.7"/>
<text text-anchor="start" x="475" y="-249.8" font-family="Helvetica,sans-Serif" font-size="11.00" fill="#000000">LoginProvider</text>
<polygon fill="none" stroke="#000000" points="454,-220.7 454,-242.7 572,-242.7 572,-220.7 454,-220.7"/>
<image xlink:href="../../images/primaryKeys.png" width="11px" height="12px" preserveAspectRatio="xMinYMin meet" x="459" y="-237.7"/>
<text text-anchor="start" x="475" y="-227.8" font-family="Helvetica,sans-Serif" font-size="11.00" fill="#000000">Name</text>
<polygon fill="none" stroke="#000000" points="454,-201.7 454,-220.7 572,-220.7 572,-201.7 454,-201.7"/>
<text text-anchor="start" x="457" y="-207.8" font-family="Helvetica,sans-Serif" font-size="11.00" fill="#000000">...</text>
<polygon fill="#ffffff" stroke="transparent" points="454,-182.7 454,-201.7 511,-201.7 511,-182.7 454,-182.7"/>
<polygon fill="none" stroke="#000000" points="454,-182.7 454,-201.7 511,-201.7 511,-182.7 454,-182.7"/>
<text text-anchor="start" x="457" y="-188.8" font-family="Helvetica,sans-Serif" font-size="11.00" fill="#000000">&lt; 1</text>
<polygon fill="#ffffff" stroke="transparent" points="511,-182.7 511,-201.7 541,-201.7 541,-182.7 511,-182.7"/>
<polygon fill="none" stroke="#000000" points="511,-182.7 511,-201.7 541,-201.7 541,-182.7 511,-182.7"/>
<text text-anchor="start" x="531.8862" y="-188.8" font-family="Helvetica,sans-Serif" font-size="11.00" fill="#000000"> &#160;</text>
<polygon fill="#ffffff" stroke="transparent" points="541,-182.7 541,-201.7 572,-201.7 572,-182.7 541,-182.7"/>
<polygon fill="none" stroke="#000000" points="541,-182.7 541,-201.7 572,-201.7 572,-182.7 541,-182.7"/>
<text text-anchor="start" x="562.8862" y="-188.8" font-family="Helvetica,sans-Serif" font-size="11.00" fill="#000000"> &#160;</text>
</a>
</g>
</g>
<!-- UserTokens&#45;&gt;Users -->
<g id="edge7" class="edge">
<title>UserTokens:w&#45;&gt;Users:e</title>
<path fill="none" stroke="#000000" d="M439.218,-275.9978C401.5266,-277.6947 382.5546,-287.2795 356,-320.7 297.5734,-394.2332 407.4191,-527.7 313.5,-527.7"/>
<polygon fill="#000000" stroke="#000000" points="446.0016,-275.8612 454.0725,-279.2993 450.0008,-275.7806 454,-275.7 454,-275.7 454,-275.7 450.0008,-275.7806 453.9275,-272.1007 446.0016,-275.8612 446.0016,-275.8612"/>
<ellipse fill="none" stroke="#000000" cx="442.8023" cy="-275.9257" rx="3.2" ry="3.2"/>
</g>
</g>
</svg>
