<?xml version="1.0" encoding="UTF-8" standalone="no"?>
<!DOCTYPE svg PUBLIC "-//W3C//DTD SVG 1.1//EN"
 "http://www.w3.org/Graphics/SVG/1.1/DTD/svg11.dtd">
<!-- Generated by graphviz version 2.40.1 (20161225.0304)
 -->
<!-- Title: oneDegreeRelationshipsDiagram Pages: 1 -->
<svg width="496pt" height="250pt"
 viewBox="0.00 0.00 496.00 250.20" xmlns="http://www.w3.org/2000/svg" xmlns:xlink="http://www.w3.org/1999/xlink">
<g id="graph0" class="graph" transform="scale(1 1) rotate(0) translate(4 246.2)">
<title>oneDegreeRelationshipsDiagram</title>
<polygon fill="#ffffff" stroke="transparent" points="-4,4 -4,-246.2 492,-246.2 492,4 -4,4"/>
<text text-anchor="middle" x="72.4936" y="-7.3" font-family="Helvetica,sans-Serif" font-size="11.00" fill="#000000">Generated by SchemaSpy</text>
<!-- UserTokens -->
<g id="node1" class="node">
<title>UserTokens</title>
<g id="a_node1"><a xlink:href="../../tables/UserTokens.html" xlink:title="UserTokens" target="_top">
<polygon fill="#ffffff" stroke="transparent" points="244,-38.2 244,-238.2 480,-238.2 480,-38.2 244,-38.2"/>
<polygon fill="#f5f5f5" stroke="transparent" points="246,-213.2 246,-236.2 478,-236.2 478,-213.2 246,-213.2"/>
<polygon fill="none" stroke="#000000" points="246,-213.2 246,-236.2 478,-236.2 478,-213.2 246,-213.2"/>
<text text-anchor="start" x="251" y="-221.8" font-family="Helvetica,sans-Serif" font-weight="bold" font-size="11.00" fill="#000000">UserTokens</text>
<text text-anchor="start" x="443.0437" y="-221.3" font-family="Helvetica,sans-Serif" font-size="11.00" fill="#000000">[table]</text>
<polygon fill="none" stroke="#000000" points="246,-191.2 246,-213.2 362,-213.2 362,-191.2 246,-191.2"/>
<image xlink:href="../../images/primaryKeys.png" width="11px" height="12px" preserveAspectRatio="xMinYMin meet" x="251" y="-208.2"/>
<text text-anchor="start" x="266" y="-198.3" font-family="Helvetica,sans-Serif" font-size="11.00" fill="#000000">UserId</text>
<polygon fill="none" stroke="#000000" points="362,-191.2 362,-213.2 478,-213.2 478,-191.2 362,-191.2"/>
<text text-anchor="start" x="365" y="-198.9" font-family="Helvetica,sans-Serif" font-size="11.00" fill="#000000">int[4]</text>
<polygon fill="none" stroke="#000000" points="246,-169.2 246,-191.2 362,-191.2 362,-169.2 246,-169.2"/>
<image xlink:href="../../images/primaryKeys.png" width="11px" height="12px" preserveAspectRatio="xMinYMin meet" x="251" y="-186.2"/>
<text text-anchor="start" x="266" y="-176.3" font-family="Helvetica,sans-Serif" font-size="11.00" fill="#000000">LoginProvider</text>
<polygon fill="none" stroke="#000000" points="362,-169.2 362,-191.2 478,-191.2 478,-169.2 362,-169.2"/>
<text text-anchor="start" x="365" y="-176.9" font-family="Helvetica,sans-Serif" font-size="11.00" fill="#000000">nvarchar[256]</text>
<polygon fill="none" stroke="#000000" points="246,-147.2 246,-169.2 362,-169.2 362,-147.2 246,-147.2"/>
<image xlink:href="../../images/primaryKeys.png" width="11px" height="12px" preserveAspectRatio="xMinYMin meet" x="251" y="-164.2"/>
<text text-anchor="start" x="266" y="-154.3" font-family="Helvetica,sans-Serif" font-size="11.00" fill="#000000">Name</text>
<polygon fill="none" stroke="#000000" points="362,-147.2 362,-169.2 478,-169.2 478,-147.2 362,-147.2"/>
<text text-anchor="start" x="365" y="-154.9" font-family="Helvetica,sans-Serif" font-size="11.00" fill="#000000">nvarchar[256]</text>
<polygon fill="none" stroke="#000000" points="246,-125.2 246,-147.2 362,-147.2 362,-125.2 246,-125.2"/>
<text text-anchor="start" x="266" y="-132.3" font-family="Helvetica,sans-Serif" font-size="11.00" fill="#000000">CreatedAtUtc</text>
<polygon fill="none" stroke="#000000" points="362,-125.2 362,-147.2 478,-147.2 478,-125.2 362,-125.2"/>
<text text-anchor="start" x="365" y="-132.9" font-family="Helvetica,sans-Serif" font-size="11.00" fill="#000000">datetime2[16,7]</text>
<polygon fill="none" stroke="#000000" points="246,-103.2 246,-125.2 362,-125.2 362,-103.2 246,-103.2"/>
<text text-anchor="start" x="266" y="-110.3" font-family="Helvetica,sans-Serif" font-size="11.00" fill="#000000">UpdatedAtUtc</text>
<polygon fill="none" stroke="#000000" points="362,-103.2 362,-125.2 478,-125.2 478,-103.2 362,-103.2"/>
<text text-anchor="start" x="365" y="-110.9" font-family="Helvetica,sans-Serif" font-size="11.00" fill="#000000">datetime2[16,7]</text>
<polygon fill="none" stroke="#000000" points="246,-81.2 246,-103.2 362,-103.2 362,-81.2 246,-81.2"/>
<text text-anchor="start" x="266" y="-88.3" font-family="Helvetica,sans-Serif" font-size="11.00" fill="#000000">RowVersion</text>
<polygon fill="none" stroke="#000000" points="362,-81.2 362,-103.2 478,-103.2 478,-81.2 362,-81.2"/>
<text text-anchor="start" x="365" y="-88.9" font-family="Helvetica,sans-Serif" font-size="11.00" fill="#000000">timestamp[8]</text>
<polygon fill="none" stroke="#000000" points="246,-59.2 246,-81.2 362,-81.2 362,-59.2 246,-59.2"/>
<text text-anchor="start" x="266" y="-66.3" font-family="Helvetica,sans-Serif" font-size="11.00" fill="#000000">Value</text>
<polygon fill="none" stroke="#000000" points="362,-59.2 362,-81.2 478,-81.2 478,-59.2 362,-59.2"/>
<text text-anchor="start" x="364.9769" y="-66.9" font-family="Helvetica,sans-Serif" font-size="11.00" fill="#000000">nvarchar[2147483647]</text>
<polygon fill="#ffffff" stroke="transparent" points="246,-40.2 246,-59.2 308,-59.2 308,-40.2 246,-40.2"/>
<polygon fill="none" stroke="#000000" points="246,-40.2 246,-59.2 308,-59.2 308,-40.2 246,-40.2"/>
<text text-anchor="start" x="249" y="-46.3" font-family="Helvetica,sans-Serif" font-size="11.00" fill="#000000">&lt; 1</text>
<polygon fill="#ffffff" stroke="transparent" points="308,-40.2 308,-59.2 362,-59.2 362,-40.2 308,-40.2"/>
<polygon fill="none" stroke="#000000" points="308,-40.2 308,-59.2 362,-59.2 362,-40.2 308,-40.2"/>
<text text-anchor="start" x="352.8862" y="-46.3" font-family="Helvetica,sans-Serif" font-size="11.00" fill="#000000"> &#160;</text>
<polygon fill="#ffffff" stroke="transparent" points="362,-40.2 362,-59.2 478,-59.2 478,-40.2 362,-40.2"/>
<polygon fill="none" stroke="#000000" points="362,-40.2 362,-59.2 478,-59.2 478,-40.2 362,-40.2"/>
<text text-anchor="start" x="459.4053" y="-46.3" font-family="Helvetica,sans-Serif" font-size="11.00" fill="#000000">0 &gt;</text>
<polygon fill="none" stroke="#000000" stroke-width="2" points="245,-39.2 245,-237.2 479,-237.2 479,-39.2 245,-39.2"/>
</a>
</g>
</g>
<!-- Users -->
<g id="node2" class="node">
<title>Users</title>
<g id="a_node2"><a xlink:href="../../tables/Users.html" xlink:title="Users" target="_top">
<polygon fill="#ffffff" stroke="transparent" points="8,-109.7 8,-236.7 195,-236.7 195,-109.7 8,-109.7"/>
<polygon fill="#f5f5f5" stroke="transparent" points="8.5,-213.2 8.5,-236.2 195.5,-236.2 195.5,-213.2 8.5,-213.2"/>
<polygon fill="none" stroke="#000000" points="8.5,-213.2 8.5,-236.2 195.5,-236.2 195.5,-213.2 8.5,-213.2"/>
<text text-anchor="start" x="13.5" y="-221.8" font-family="Helvetica,sans-Serif" font-weight="bold" font-size="11.00" fill="#000000">Users</text>
<text text-anchor="start" x="160.5437" y="-221.3" font-family="Helvetica,sans-Serif" font-size="11.00" fill="#000000">[table]</text>
<polygon fill="none" stroke="#000000" points="8.5,-191.2 8.5,-213.2 195.5,-213.2 195.5,-191.2 8.5,-191.2"/>
<image xlink:href="../../images/primaryKeys.png" width="11px" height="12px" preserveAspectRatio="xMinYMin meet" x="13.5" y="-208.2"/>
<text text-anchor="start" x="28.5" y="-198.3" font-family="Helvetica,sans-Serif" font-size="11.00" fill="#000000">Id</text>
<polygon fill="#ffffff" stroke="transparent" points="8.5,-169.2 8.5,-191.2 195.5,-191.2 195.5,-169.2 8.5,-169.2"/>
<polygon fill="none" stroke="#000000" points="8.5,-169.2 8.5,-191.2 195.5,-191.2 195.5,-169.2 8.5,-169.2"/>
<text text-anchor="start" x="28.5" y="-176.3" font-family="Helvetica,sans-Serif" font-size="11.00" fill="#000000">NormalizedUserName</text>
<polygon fill="#ffffff" stroke="transparent" points="8.5,-147.2 8.5,-169.2 195.5,-169.2 195.5,-147.2 8.5,-147.2"/>
<polygon fill="none" stroke="#000000" points="8.5,-147.2 8.5,-169.2 195.5,-169.2 195.5,-147.2 8.5,-147.2"/>
<text text-anchor="start" x="28.5" y="-154.3" font-family="Helvetica,sans-Serif" font-size="11.00" fill="#000000">NormalizedEmail</text>
<polygon fill="none" stroke="#000000" points="8.5,-128.2 8.5,-147.2 195.5,-147.2 195.5,-128.2 8.5,-128.2"/>
<text text-anchor="start" x="11.5" y="-134.3" font-family="Helvetica,sans-Serif" font-size="11.00" fill="#000000">...</text>
<polygon fill="#ffffff" stroke="transparent" points="8.5,-109.2 8.5,-128.2 91.5,-128.2 91.5,-109.2 8.5,-109.2"/>
<polygon fill="none" stroke="#000000" points="8.5,-109.2 8.5,-128.2 91.5,-128.2 91.5,-109.2 8.5,-109.2"/>
<text text-anchor="start" x="11.5" y="-115.3" font-family="Helvetica,sans-Serif" font-size="11.00" fill="#000000"> &#160;</text>
<polygon fill="#ffffff" stroke="transparent" points="91.5,-109.2 91.5,-128.2 138.5,-128.2 138.5,-109.2 91.5,-109.2"/>
<polygon fill="none" stroke="#000000" points="91.5,-109.2 91.5,-128.2 138.5,-128.2 138.5,-109.2 91.5,-109.2"/>
<text text-anchor="start" x="129.3862" y="-115.3" font-family="Helvetica,sans-Serif" font-size="11.00" fill="#000000"> &#160;</text>
<polygon fill="#ffffff" stroke="transparent" points="138.5,-109.2 138.5,-128.2 195.5,-128.2 195.5,-109.2 138.5,-109.2"/>
<polygon fill="none" stroke="#000000" points="138.5,-109.2 138.5,-128.2 195.5,-128.2 195.5,-109.2 138.5,-109.2"/>
<text text-anchor="start" x="176.9053" y="-115.3" font-family="Helvetica,sans-Serif" font-size="11.00" fill="#000000">6 &gt;</text>
</a>
</g>
</g>
<!-- UserTokens&#45;&gt;Users -->
<g id="edge1" class="edge">
<title>UserTokens:w&#45;&gt;Users:e</title>
<path fill="none" stroke="#000000" d="M231.4203,-202.2C219.5435,-202.2 212.158,-202.2 195.5,-202.2"/>
<polygon fill="#000000" stroke="#000000" points="238,-202.2001 246,-205.8 242,-202.2 246,-202.2 246,-202.2 246,-202.2 242,-202.2 246,-198.6 238,-202.2001 238,-202.2001"/>
<ellipse fill="none" stroke="#000000" cx="234.8" cy="-202.2001" rx="3.2" ry="3.2"/>
</g>
</g>
</svg>
