<?xml version="1.0" encoding="UTF-8" standalone="no"?>
<!DOCTYPE svg PUBLIC "-//W3C//DTD SVG 1.1//EN"
 "http://www.w3.org/Graphics/SVG/1.1/DTD/svg11.dtd">
<!-- Generated by graphviz version 2.40.1 (20161225.0304)
 -->
<!-- Title: twoDegreesRelationshipsDiagram Pages: 1 -->
<svg width="558pt" height="661pt"
 viewBox="0.00 0.00 558.00 661.20" xmlns="http://www.w3.org/2000/svg" xmlns:xlink="http://www.w3.org/1999/xlink">
<g id="graph0" class="graph" transform="scale(1 1) rotate(0) translate(4 657.2)">
<title>twoDegreesRelationshipsDiagram</title>
<polygon fill="#ffffff" stroke="transparent" points="-4,4 -4,-657.2 554,-657.2 554,4 -4,4"/>
<text text-anchor="middle" x="72.4936" y="-7.3" font-family="Helvetica,sans-Serif" font-size="11.00" fill="#000000">Generated by SchemaSpy</text>
<!-- Clinical.HospitalizationStatusHistories -->
<g id="node1" class="node">
<title>Clinical.HospitalizationStatusHistories</title>
<g id="a_node1"><a xlink:title="Clinical.HospitalizationStatusHistories">
<polygon fill="#ffffff" stroke="transparent" points="244,-588.2 244,-649.2 542,-649.2 542,-588.2 244,-588.2"/>
<polygon fill="#f5f5f5" stroke="transparent" points="244,-625.7 244,-648.7 542,-648.7 542,-625.7 244,-625.7"/>
<polygon fill="none" stroke="#000000" points="244,-625.7 244,-648.7 542,-648.7 542,-625.7 244,-625.7"/>
<text text-anchor="start" x="249" y="-634.3" font-family="Helvetica,sans-Serif" font-weight="bold" font-size="11.00" fill="#000000">Clinical.HospitalizationStatusHistories</text>
<text text-anchor="start" x="507.5219" y="-633.8" font-family="Helvetica,sans-Serif" font-size="11.00" fill="#000000">[table]</text>
<polygon fill="none" stroke="#000000" points="244,-606.7 244,-625.7 542,-625.7 542,-606.7 244,-606.7"/>
<text text-anchor="start" x="247" y="-612.8" font-family="Helvetica,sans-Serif" font-size="11.00" fill="#000000">...</text>
<polygon fill="#ffffff" stroke="transparent" points="244,-587.7 244,-606.7 391,-606.7 391,-587.7 244,-587.7"/>
<polygon fill="none" stroke="#000000" points="244,-587.7 244,-606.7 391,-606.7 391,-587.7 244,-587.7"/>
<text text-anchor="start" x="247" y="-593.8" font-family="Helvetica,sans-Serif" font-size="11.00" fill="#000000">&lt; 1</text>
<polygon fill="#ffffff" stroke="transparent" points="391,-587.7 391,-606.7 466,-606.7 466,-587.7 391,-587.7"/>
<polygon fill="none" stroke="#000000" points="391,-587.7 391,-606.7 466,-606.7 466,-587.7 391,-587.7"/>
<text text-anchor="start" x="456.8862" y="-593.8" font-family="Helvetica,sans-Serif" font-size="11.00" fill="#000000"> &#160;</text>
<polygon fill="#ffffff" stroke="transparent" points="466,-587.7 466,-606.7 542,-606.7 542,-587.7 466,-587.7"/>
<polygon fill="none" stroke="#000000" points="466,-587.7 466,-606.7 542,-606.7 542,-587.7 466,-587.7"/>
<text text-anchor="start" x="532.8862" y="-593.8" font-family="Helvetica,sans-Serif" font-size="11.00" fill="#000000"> &#160;</text>
</a>
</g>
</g>
<!-- Users -->
<g id="node2" class="node">
<title>Users</title>
<g id="a_node2"><a xlink:href="../../tables/Users.html" xlink:title="Users" target="_top">
<polygon fill="#ffffff" stroke="transparent" points="8,-250.2 8,-377.2 195,-377.2 195,-250.2 8,-250.2"/>
<polygon fill="#f5f5f5" stroke="transparent" points="8.5,-353.7 8.5,-376.7 195.5,-376.7 195.5,-353.7 8.5,-353.7"/>
<polygon fill="none" stroke="#000000" points="8.5,-353.7 8.5,-376.7 195.5,-376.7 195.5,-353.7 8.5,-353.7"/>
<text text-anchor="start" x="13.5" y="-362.3" font-family="Helvetica,sans-Serif" font-weight="bold" font-size="11.00" fill="#000000">Users</text>
<text text-anchor="start" x="160.5437" y="-361.8" font-family="Helvetica,sans-Serif" font-size="11.00" fill="#000000">[table]</text>
<polygon fill="none" stroke="#000000" points="8.5,-331.7 8.5,-353.7 195.5,-353.7 195.5,-331.7 8.5,-331.7"/>
<image xlink:href="../../images/primaryKeys.png" width="11px" height="12px" preserveAspectRatio="xMinYMin meet" x="13.5" y="-348.7"/>
<text text-anchor="start" x="28.5" y="-338.8" font-family="Helvetica,sans-Serif" font-size="11.00" fill="#000000">Id</text>
<polygon fill="#ffffff" stroke="transparent" points="8.5,-309.7 8.5,-331.7 195.5,-331.7 195.5,-309.7 8.5,-309.7"/>
<polygon fill="none" stroke="#000000" points="8.5,-309.7 8.5,-331.7 195.5,-331.7 195.5,-309.7 8.5,-309.7"/>
<text text-anchor="start" x="28.5" y="-316.8" font-family="Helvetica,sans-Serif" font-size="11.00" fill="#000000">NormalizedUserName</text>
<polygon fill="#ffffff" stroke="transparent" points="8.5,-287.7 8.5,-309.7 195.5,-309.7 195.5,-287.7 8.5,-287.7"/>
<polygon fill="none" stroke="#000000" points="8.5,-287.7 8.5,-309.7 195.5,-309.7 195.5,-287.7 8.5,-287.7"/>
<text text-anchor="start" x="28.5" y="-294.8" font-family="Helvetica,sans-Serif" font-size="11.00" fill="#000000">NormalizedEmail</text>
<polygon fill="none" stroke="#000000" points="8.5,-268.7 8.5,-287.7 195.5,-287.7 195.5,-268.7 8.5,-268.7"/>
<text text-anchor="start" x="11.5" y="-274.8" font-family="Helvetica,sans-Serif" font-size="11.00" fill="#000000">...</text>
<polygon fill="#ffffff" stroke="transparent" points="8.5,-249.7 8.5,-268.7 91.5,-268.7 91.5,-249.7 8.5,-249.7"/>
<polygon fill="none" stroke="#000000" points="8.5,-249.7 8.5,-268.7 91.5,-268.7 91.5,-249.7 8.5,-249.7"/>
<text text-anchor="start" x="11.5" y="-255.8" font-family="Helvetica,sans-Serif" font-size="11.00" fill="#000000"> &#160;</text>
<polygon fill="#ffffff" stroke="transparent" points="91.5,-249.7 91.5,-268.7 138.5,-268.7 138.5,-249.7 91.5,-249.7"/>
<polygon fill="none" stroke="#000000" points="91.5,-249.7 91.5,-268.7 138.5,-268.7 138.5,-249.7 91.5,-249.7"/>
<text text-anchor="start" x="129.3862" y="-255.8" font-family="Helvetica,sans-Serif" font-size="11.00" fill="#000000"> &#160;</text>
<polygon fill="#ffffff" stroke="transparent" points="138.5,-249.7 138.5,-268.7 195.5,-268.7 195.5,-249.7 138.5,-249.7"/>
<polygon fill="none" stroke="#000000" points="138.5,-249.7 138.5,-268.7 195.5,-268.7 195.5,-249.7 138.5,-249.7"/>
<text text-anchor="start" x="176.9053" y="-255.8" font-family="Helvetica,sans-Serif" font-size="11.00" fill="#000000">6 &gt;</text>
</a>
</g>
</g>
<!-- Clinical.HospitalizationStatusHistories&#45;&gt;Users -->
<g id="edge1" class="edge">
<title>Clinical.HospitalizationStatusHistories:w&#45;&gt;Users:e</title>
<path fill="none" stroke="#000000" d="M230.7281,-609.7441C194.4668,-569.8206 251.7011,-342.7 195.5,-342.7"/>
<polygon fill="#000000" stroke="#000000" points="236.7012,-612.4246 242.5261,-618.9844 240.3506,-614.0623 244,-615.7 244,-615.7 244,-615.7 240.3506,-614.0623 245.4739,-612.4156 236.7012,-612.4246 236.7012,-612.4246"/>
<ellipse fill="none" stroke="#000000" cx="233.7817" cy="-611.1144" rx="3.2" ry="3.2"/>
</g>
<!-- Clinical.VisitEvents -->
<g id="node3" class="node">
<title>Clinical.VisitEvents</title>
<g id="a_node3"><a xlink:title="Clinical.VisitEvents">
<polygon fill="#ffffff" stroke="transparent" points="309,-506.2 309,-567.2 477,-567.2 477,-506.2 309,-506.2"/>
<polygon fill="#f5f5f5" stroke="transparent" points="309,-543.7 309,-566.7 477,-566.7 477,-543.7 309,-543.7"/>
<polygon fill="none" stroke="#000000" points="309,-543.7 309,-566.7 477,-566.7 477,-543.7 309,-543.7"/>
<text text-anchor="start" x="314" y="-552.3" font-family="Helvetica,sans-Serif" font-weight="bold" font-size="11.00" fill="#000000">Clinical.VisitEvents</text>
<text text-anchor="start" x="442.5219" y="-551.8" font-family="Helvetica,sans-Serif" font-size="11.00" fill="#000000">[table]</text>
<polygon fill="none" stroke="#000000" points="309,-524.7 309,-543.7 477,-543.7 477,-524.7 309,-524.7"/>
<text text-anchor="start" x="312" y="-530.8" font-family="Helvetica,sans-Serif" font-size="11.00" fill="#000000">...</text>
<polygon fill="#ffffff" stroke="transparent" points="309,-505.7 309,-524.7 391,-524.7 391,-505.7 309,-505.7"/>
<polygon fill="none" stroke="#000000" points="309,-505.7 309,-524.7 391,-524.7 391,-505.7 309,-505.7"/>
<text text-anchor="start" x="312" y="-511.8" font-family="Helvetica,sans-Serif" font-size="11.00" fill="#000000">&lt; 1</text>
<polygon fill="#ffffff" stroke="transparent" points="391,-505.7 391,-524.7 434,-524.7 434,-505.7 391,-505.7"/>
<polygon fill="none" stroke="#000000" points="391,-505.7 391,-524.7 434,-524.7 434,-505.7 391,-505.7"/>
<text text-anchor="start" x="424.8862" y="-511.8" font-family="Helvetica,sans-Serif" font-size="11.00" fill="#000000"> &#160;</text>
<polygon fill="#ffffff" stroke="transparent" points="434,-505.7 434,-524.7 477,-524.7 477,-505.7 434,-505.7"/>
<polygon fill="none" stroke="#000000" points="434,-505.7 434,-524.7 477,-524.7 477,-505.7 434,-505.7"/>
<text text-anchor="start" x="467.8862" y="-511.8" font-family="Helvetica,sans-Serif" font-size="11.00" fill="#000000"> &#160;</text>
</a>
</g>
</g>
<!-- Clinical.VisitEvents&#45;&gt;Users -->
<g id="edge2" class="edge">
<title>Clinical.VisitEvents:w&#45;&gt;Users:e</title>
<path fill="none" stroke="#000000" d="M294.4847,-533.0792C268.3061,-530.5719 255.5487,-520.1324 236,-495.7 192.054,-440.7751 265.842,-342.7 195.5,-342.7"/>
<polygon fill="#000000" stroke="#000000" points="301.0073,-533.3581 308.8462,-537.2967 305.0037,-533.5291 309,-533.7 309,-533.7 309,-533.7 305.0037,-533.5291 309.1538,-530.1033 301.0073,-533.3581 301.0073,-533.3581"/>
<ellipse fill="none" stroke="#000000" cx="297.8102" cy="-533.2214" rx="3.2" ry="3.2"/>
</g>
<!-- UserClaims -->
<g id="node4" class="node">
<title>UserClaims</title>
<g id="a_node4"><a xlink:href="../../tables/UserClaims.html" xlink:title="UserClaims" target="_top">
<polygon fill="#ffffff" stroke="transparent" points="336,-424.2 336,-485.2 450,-485.2 450,-424.2 336,-424.2"/>
<polygon fill="#f5f5f5" stroke="transparent" points="336,-461.7 336,-484.7 450,-484.7 450,-461.7 336,-461.7"/>
<polygon fill="none" stroke="#000000" points="336,-461.7 336,-484.7 450,-484.7 450,-461.7 336,-461.7"/>
<text text-anchor="start" x="341" y="-470.3" font-family="Helvetica,sans-Serif" font-weight="bold" font-size="11.00" fill="#000000">UserClaims</text>
<text text-anchor="start" x="415.5219" y="-469.8" font-family="Helvetica,sans-Serif" font-size="11.00" fill="#000000">[table]</text>
<polygon fill="none" stroke="#000000" points="336,-442.7 336,-461.7 450,-461.7 450,-442.7 336,-442.7"/>
<text text-anchor="start" x="339" y="-448.8" font-family="Helvetica,sans-Serif" font-size="11.00" fill="#000000">...</text>
<polygon fill="#ffffff" stroke="transparent" points="336,-423.7 336,-442.7 391,-442.7 391,-423.7 336,-423.7"/>
<polygon fill="none" stroke="#000000" points="336,-423.7 336,-442.7 391,-442.7 391,-423.7 336,-423.7"/>
<text text-anchor="start" x="339" y="-429.8" font-family="Helvetica,sans-Serif" font-size="11.00" fill="#000000">&lt; 1</text>
<polygon fill="#ffffff" stroke="transparent" points="391,-423.7 391,-442.7 420,-442.7 420,-423.7 391,-423.7"/>
<polygon fill="none" stroke="#000000" points="391,-423.7 391,-442.7 420,-442.7 420,-423.7 391,-423.7"/>
<text text-anchor="start" x="410.8862" y="-429.8" font-family="Helvetica,sans-Serif" font-size="11.00" fill="#000000"> &#160;</text>
<polygon fill="#ffffff" stroke="transparent" points="420,-423.7 420,-442.7 450,-442.7 450,-423.7 420,-423.7"/>
<polygon fill="none" stroke="#000000" points="420,-423.7 420,-442.7 450,-442.7 450,-423.7 420,-423.7"/>
<text text-anchor="start" x="440.8862" y="-429.8" font-family="Helvetica,sans-Serif" font-size="11.00" fill="#000000"> &#160;</text>
</a>
</g>
</g>
<!-- UserClaims&#45;&gt;Users -->
<g id="edge3" class="edge">
<title>UserClaims:w&#45;&gt;Users:e</title>
<path fill="none" stroke="#000000" d="M321.4528,-451.4237C284.6459,-449.8644 268.174,-441.2304 236,-413.7 208.3974,-390.0812 231.8284,-342.7 195.5,-342.7"/>
<polygon fill="#000000" stroke="#000000" points="328.0014,-451.548 335.9316,-455.2994 332.0007,-451.624 336,-451.7 336,-451.7 336,-451.7 332.0007,-451.624 336.0684,-448.1006 328.0014,-451.548 328.0014,-451.548"/>
<ellipse fill="none" stroke="#000000" cx="324.802" cy="-451.4872" rx="3.2" ry="3.2"/>
</g>
<!-- UserLogins -->
<g id="node5" class="node">
<title>UserLogins</title>
<g id="a_node5"><a xlink:href="../../tables/UserLogins.html" xlink:title="UserLogins" target="_top">
<polygon fill="#ffffff" stroke="transparent" points="267,-202.7 267,-402.7 519,-402.7 519,-202.7 267,-202.7"/>
<polygon fill="#f5f5f5" stroke="transparent" points="269,-377.7 269,-400.7 517,-400.7 517,-377.7 269,-377.7"/>
<polygon fill="none" stroke="#000000" points="269,-377.7 269,-400.7 517,-400.7 517,-377.7 269,-377.7"/>
<text text-anchor="start" x="274" y="-386.3" font-family="Helvetica,sans-Serif" font-weight="bold" font-size="11.00" fill="#000000">UserLogins</text>
<text text-anchor="start" x="482.0437" y="-385.8" font-family="Helvetica,sans-Serif" font-size="11.00" fill="#000000">[table]</text>
<polygon fill="none" stroke="#000000" points="269,-355.7 269,-377.7 436,-377.7 436,-355.7 269,-355.7"/>
<image xlink:href="../../images/primaryKeys.png" width="11px" height="12px" preserveAspectRatio="xMinYMin meet" x="274" y="-372.7"/>
<text text-anchor="start" x="289" y="-362.8" font-family="Helvetica,sans-Serif" font-size="11.00" fill="#000000">LoginProvider</text>
<polygon fill="none" stroke="#000000" points="436,-355.7 436,-377.7 517,-377.7 517,-355.7 436,-355.7"/>
<text text-anchor="start" x="439" y="-363.4" font-family="Helvetica,sans-Serif" font-size="11.00" fill="#000000">nvarchar[256]</text>
<polygon fill="none" stroke="#000000" points="269,-333.7 269,-355.7 436,-355.7 436,-333.7 269,-333.7"/>
<image xlink:href="../../images/primaryKeys.png" width="11px" height="12px" preserveAspectRatio="xMinYMin meet" x="274" y="-350.7"/>
<text text-anchor="start" x="289" y="-340.8" font-family="Helvetica,sans-Serif" font-size="11.00" fill="#000000">ProviderKey</text>
<polygon fill="none" stroke="#000000" points="436,-333.7 436,-355.7 517,-355.7 517,-333.7 436,-333.7"/>
<text text-anchor="start" x="439" y="-341.4" font-family="Helvetica,sans-Serif" font-size="11.00" fill="#000000">nvarchar[256]</text>
<polygon fill="none" stroke="#000000" points="269,-311.7 269,-333.7 436,-333.7 436,-311.7 269,-311.7"/>
<text text-anchor="start" x="289" y="-318.8" font-family="Helvetica,sans-Serif" font-size="11.00" fill="#000000">CreatedAtUtc</text>
<polygon fill="none" stroke="#000000" points="436,-311.7 436,-333.7 517,-333.7 517,-311.7 436,-311.7"/>
<text text-anchor="start" x="438.5968" y="-319.4" font-family="Helvetica,sans-Serif" font-size="11.00" fill="#000000">datetime2[16,7]</text>
<polygon fill="none" stroke="#000000" points="269,-289.7 269,-311.7 436,-311.7 436,-289.7 269,-289.7"/>
<text text-anchor="start" x="289" y="-296.8" font-family="Helvetica,sans-Serif" font-size="11.00" fill="#000000">UpdatedAtUtc</text>
<polygon fill="none" stroke="#000000" points="436,-289.7 436,-311.7 517,-311.7 517,-289.7 436,-289.7"/>
<text text-anchor="start" x="438.5968" y="-297.4" font-family="Helvetica,sans-Serif" font-size="11.00" fill="#000000">datetime2[16,7]</text>
<polygon fill="none" stroke="#000000" points="269,-267.7 269,-289.7 436,-289.7 436,-267.7 269,-267.7"/>
<text text-anchor="start" x="289" y="-274.8" font-family="Helvetica,sans-Serif" font-size="11.00" fill="#000000">RowVersion</text>
<polygon fill="none" stroke="#000000" points="436,-267.7 436,-289.7 517,-289.7 517,-267.7 436,-267.7"/>
<text text-anchor="start" x="439" y="-275.4" font-family="Helvetica,sans-Serif" font-size="11.00" fill="#000000">timestamp[8]</text>
<polygon fill="none" stroke="#000000" points="269,-245.7 269,-267.7 436,-267.7 436,-245.7 269,-245.7"/>
<text text-anchor="start" x="289" y="-252.8" font-family="Helvetica,sans-Serif" font-size="11.00" fill="#000000">ProviderDisplayName</text>
<polygon fill="none" stroke="#000000" points="436,-245.7 436,-267.7 517,-267.7 517,-245.7 436,-245.7"/>
<text text-anchor="start" x="439" y="-253.4" font-family="Helvetica,sans-Serif" font-size="11.00" fill="#000000">nvarchar[512]</text>
<polygon fill="#ffffff" stroke="transparent" points="269,-223.7 269,-245.7 436,-245.7 436,-223.7 269,-223.7"/>
<polygon fill="none" stroke="#000000" points="269,-223.7 269,-245.7 436,-245.7 436,-223.7 269,-223.7"/>
<image xlink:href="../../images/foreignKeys.png" width="11px" height="12px" preserveAspectRatio="xMinYMin meet" x="274" y="-240.7"/>
<text text-anchor="start" x="289" y="-230.8" font-family="Helvetica,sans-Serif" font-size="11.00" fill="#000000">UserId</text>
<polygon fill="none" stroke="#000000" points="436,-223.7 436,-245.7 517,-245.7 517,-223.7 436,-223.7"/>
<text text-anchor="start" x="439" y="-231.4" font-family="Helvetica,sans-Serif" font-size="11.00" fill="#000000">int[4]</text>
<polygon fill="#ffffff" stroke="transparent" points="269,-204.7 269,-223.7 357,-223.7 357,-204.7 269,-204.7"/>
<polygon fill="none" stroke="#000000" points="269,-204.7 269,-223.7 357,-223.7 357,-204.7 269,-204.7"/>
<text text-anchor="start" x="272" y="-210.8" font-family="Helvetica,sans-Serif" font-size="11.00" fill="#000000">&lt; 1</text>
<polygon fill="#ffffff" stroke="transparent" points="357,-204.7 357,-223.7 436,-223.7 436,-204.7 357,-204.7"/>
<polygon fill="none" stroke="#000000" points="357,-204.7 357,-223.7 436,-223.7 436,-204.7 357,-204.7"/>
<text text-anchor="start" x="426.8862" y="-210.8" font-family="Helvetica,sans-Serif" font-size="11.00" fill="#000000"> &#160;</text>
<polygon fill="#ffffff" stroke="transparent" points="436,-204.7 436,-223.7 517,-223.7 517,-204.7 436,-204.7"/>
<polygon fill="none" stroke="#000000" points="436,-204.7 436,-223.7 517,-223.7 517,-204.7 436,-204.7"/>
<text text-anchor="start" x="498.4053" y="-210.8" font-family="Helvetica,sans-Serif" font-size="11.00" fill="#000000">0 &gt;</text>
<polygon fill="none" stroke="#000000" stroke-width="2" points="268,-203.7 268,-401.7 518,-401.7 518,-203.7 268,-203.7"/>
</a>
</g>
</g>
<!-- UserLogins&#45;&gt;Users -->
<g id="edge4" class="edge">
<title>UserLogins:w&#45;&gt;Users:e</title>
<path fill="none" stroke="#000000" d="M254.6829,-237.5887C218.3032,-254.7638 247.8912,-342.7 195.5,-342.7"/>
<polygon fill="#000000" stroke="#000000" points="261.158,-236.2823 269.712,-238.2289 265.079,-235.4912 269,-234.7 269,-234.7 269,-234.7 265.079,-235.4912 268.288,-231.1711 261.158,-236.2823 261.158,-236.2823"/>
<ellipse fill="none" stroke="#000000" cx="258.0212" cy="-236.9152" rx="3.2" ry="3.2"/>
</g>
<!-- UserRoles -->
<g id="node6" class="node">
<title>UserRoles</title>
<g id="a_node6"><a xlink:href="../../tables/UserRoles.html" xlink:title="UserRoles" target="_top">
<polygon fill="#ffffff" stroke="transparent" points="340,-120.2 340,-181.2 446,-181.2 446,-120.2 340,-120.2"/>
<polygon fill="#f5f5f5" stroke="transparent" points="340,-157.7 340,-180.7 446,-180.7 446,-157.7 340,-157.7"/>
<polygon fill="none" stroke="#000000" points="340,-157.7 340,-180.7 446,-180.7 446,-157.7 340,-157.7"/>
<text text-anchor="start" x="345" y="-166.3" font-family="Helvetica,sans-Serif" font-weight="bold" font-size="11.00" fill="#000000">UserRoles</text>
<text text-anchor="start" x="411.5219" y="-165.8" font-family="Helvetica,sans-Serif" font-size="11.00" fill="#000000">[table]</text>
<polygon fill="none" stroke="#000000" points="340,-138.7 340,-157.7 446,-157.7 446,-138.7 340,-138.7"/>
<text text-anchor="start" x="343" y="-144.8" font-family="Helvetica,sans-Serif" font-size="11.00" fill="#000000">...</text>
<polygon fill="#ffffff" stroke="transparent" points="340,-119.7 340,-138.7 391,-138.7 391,-119.7 340,-119.7"/>
<polygon fill="none" stroke="#000000" points="340,-119.7 340,-138.7 391,-138.7 391,-119.7 340,-119.7"/>
<text text-anchor="start" x="343" y="-125.8" font-family="Helvetica,sans-Serif" font-size="11.00" fill="#000000">&lt; 2</text>
<polygon fill="#ffffff" stroke="transparent" points="391,-119.7 391,-138.7 418,-138.7 418,-119.7 391,-119.7"/>
<polygon fill="none" stroke="#000000" points="391,-119.7 391,-138.7 418,-138.7 418,-119.7 391,-119.7"/>
<text text-anchor="start" x="408.8862" y="-125.8" font-family="Helvetica,sans-Serif" font-size="11.00" fill="#000000"> &#160;</text>
<polygon fill="#ffffff" stroke="transparent" points="418,-119.7 418,-138.7 446,-138.7 446,-119.7 418,-119.7"/>
<polygon fill="none" stroke="#000000" points="418,-119.7 418,-138.7 446,-138.7 446,-119.7 418,-119.7"/>
<text text-anchor="start" x="436.8862" y="-125.8" font-family="Helvetica,sans-Serif" font-size="11.00" fill="#000000"> &#160;</text>
</a>
</g>
</g>
<!-- UserRoles&#45;&gt;Users -->
<g id="edge5" class="edge">
<title>UserRoles:w&#45;&gt;Users:e</title>
<path fill="none" stroke="#000000" d="M325.5291,-147.9392C285.3072,-149.4247 265.5998,-158.4759 236,-192.7 190.8278,-244.9294 264.5539,-342.7 195.5,-342.7"/>
<polygon fill="#000000" stroke="#000000" points="332.0011,-147.8323 340.0595,-151.2995 336.0005,-147.7661 340,-147.7 340,-147.7 340,-147.7 336.0005,-147.7661 339.9405,-144.1005 332.0011,-147.8323 332.0011,-147.8323"/>
<ellipse fill="none" stroke="#000000" cx="328.8015" cy="-147.8852" rx="3.2" ry="3.2"/>
</g>
<!-- UserTokens -->
<g id="node7" class="node">
<title>UserTokens</title>
<g id="a_node7"><a xlink:href="../../tables/UserTokens.html" xlink:title="UserTokens" target="_top">
<polygon fill="#ffffff" stroke="transparent" points="334,-38.2 334,-99.2 452,-99.2 452,-38.2 334,-38.2"/>
<polygon fill="#f5f5f5" stroke="transparent" points="334,-75.7 334,-98.7 452,-98.7 452,-75.7 334,-75.7"/>
<polygon fill="none" stroke="#000000" points="334,-75.7 334,-98.7 452,-98.7 452,-75.7 334,-75.7"/>
<text text-anchor="start" x="339" y="-84.3" font-family="Helvetica,sans-Serif" font-weight="bold" font-size="11.00" fill="#000000">UserTokens</text>
<text text-anchor="start" x="417.5219" y="-83.8" font-family="Helvetica,sans-Serif" font-size="11.00" fill="#000000">[table]</text>
<polygon fill="none" stroke="#000000" points="334,-56.7 334,-75.7 452,-75.7 452,-56.7 334,-56.7"/>
<text text-anchor="start" x="337" y="-62.8" font-family="Helvetica,sans-Serif" font-size="11.00" fill="#000000">...</text>
<polygon fill="#ffffff" stroke="transparent" points="334,-37.7 334,-56.7 391,-56.7 391,-37.7 334,-37.7"/>
<polygon fill="none" stroke="#000000" points="334,-37.7 334,-56.7 391,-56.7 391,-37.7 334,-37.7"/>
<text text-anchor="start" x="337" y="-43.8" font-family="Helvetica,sans-Serif" font-size="11.00" fill="#000000">&lt; 1</text>
<polygon fill="#ffffff" stroke="transparent" points="391,-37.7 391,-56.7 421,-56.7 421,-37.7 391,-37.7"/>
<polygon fill="none" stroke="#000000" points="391,-37.7 391,-56.7 421,-56.7 421,-37.7 391,-37.7"/>
<text text-anchor="start" x="411.8862" y="-43.8" font-family="Helvetica,sans-Serif" font-size="11.00" fill="#000000"> &#160;</text>
<polygon fill="#ffffff" stroke="transparent" points="421,-37.7 421,-56.7 452,-56.7 452,-37.7 421,-37.7"/>
<polygon fill="none" stroke="#000000" points="421,-37.7 421,-56.7 452,-56.7 452,-37.7 421,-37.7"/>
<text text-anchor="start" x="442.8862" y="-43.8" font-family="Helvetica,sans-Serif" font-size="11.00" fill="#000000"> &#160;</text>
</a>
</g>
</g>
<!-- UserTokens&#45;&gt;Users -->
<g id="edge6" class="edge">
<title>UserTokens:w&#45;&gt;Users:e</title>
<path fill="none" stroke="#000000" d="M319.249,-65.9588C281.5699,-67.4529 262.086,-76.1195 236,-109.7 203.7597,-151.203 248.0541,-342.7 195.5,-342.7"/>
<polygon fill="#000000" stroke="#000000" points="326.0012,-65.8404 334.0632,-69.2994 330.0006,-65.7702 334,-65.7 334,-65.7 334,-65.7 330.0006,-65.7702 333.9368,-62.1006 326.0012,-65.8404 326.0012,-65.8404"/>
<ellipse fill="none" stroke="#000000" cx="322.8017" cy="-65.8965" rx="3.2" ry="3.2"/>
</g>
</g>
</svg>
