<?xml version="1.0" encoding="UTF-8" standalone="no"?>
<!DOCTYPE svg PUBLIC "-//W3C//DTD SVG 1.1//EN"
 "http://www.w3.org/Graphics/SVG/1.1/DTD/svg11.dtd">
<!-- Generated by graphviz version 2.40.1 (20161225.0304)
 -->
<!-- Title: twoDegreesRelationshipsDiagram Pages: 1 -->
<svg width="558pt" height="699pt"
 viewBox="0.00 0.00 558.00 699.20" xmlns="http://www.w3.org/2000/svg" xmlns:xlink="http://www.w3.org/1999/xlink">
<g id="graph0" class="graph" transform="scale(1 1) rotate(0) translate(4 695.2)">
<title>twoDegreesRelationshipsDiagram</title>
<polygon fill="#ffffff" stroke="transparent" points="-4,4 -4,-695.2 554,-695.2 554,4 -4,4"/>
<text text-anchor="middle" x="72.4936" y="-7.3" font-family="Helvetica,sans-Serif" font-size="11.00" fill="#000000">Generated by SchemaSpy</text>
<!-- Clinical.HospitalizationStatusHistories -->
<g id="node1" class="node">
<title>Clinical.HospitalizationStatusHistories</title>
<g id="a_node1"><a xlink:title="Clinical.HospitalizationStatusHistories">
<polygon fill="#ffffff" stroke="transparent" points="244,-626.2 244,-687.2 542,-687.2 542,-626.2 244,-626.2"/>
<polygon fill="#f5f5f5" stroke="transparent" points="244,-663.7 244,-686.7 542,-686.7 542,-663.7 244,-663.7"/>
<polygon fill="none" stroke="#000000" points="244,-663.7 244,-686.7 542,-686.7 542,-663.7 244,-663.7"/>
<text text-anchor="start" x="249" y="-672.3" font-family="Helvetica,sans-Serif" font-weight="bold" font-size="11.00" fill="#000000">Clinical.HospitalizationStatusHistories</text>
<text text-anchor="start" x="507.5219" y="-671.8" font-family="Helvetica,sans-Serif" font-size="11.00" fill="#000000">[table]</text>
<polygon fill="none" stroke="#000000" points="244,-644.7 244,-663.7 542,-663.7 542,-644.7 244,-644.7"/>
<text text-anchor="start" x="247" y="-650.8" font-family="Helvetica,sans-Serif" font-size="11.00" fill="#000000">...</text>
<polygon fill="#ffffff" stroke="transparent" points="244,-625.7 244,-644.7 391,-644.7 391,-625.7 244,-625.7"/>
<polygon fill="none" stroke="#000000" points="244,-625.7 244,-644.7 391,-644.7 391,-625.7 244,-625.7"/>
<text text-anchor="start" x="247" y="-631.8" font-family="Helvetica,sans-Serif" font-size="11.00" fill="#000000">&lt; 1</text>
<polygon fill="#ffffff" stroke="transparent" points="391,-625.7 391,-644.7 466,-644.7 466,-625.7 391,-625.7"/>
<polygon fill="none" stroke="#000000" points="391,-625.7 391,-644.7 466,-644.7 466,-625.7 391,-625.7"/>
<text text-anchor="start" x="456.8862" y="-631.8" font-family="Helvetica,sans-Serif" font-size="11.00" fill="#000000"> &#160;</text>
<polygon fill="#ffffff" stroke="transparent" points="466,-625.7 466,-644.7 542,-644.7 542,-625.7 466,-625.7"/>
<polygon fill="none" stroke="#000000" points="466,-625.7 466,-644.7 542,-644.7 542,-625.7 466,-625.7"/>
<text text-anchor="start" x="532.8862" y="-631.8" font-family="Helvetica,sans-Serif" font-size="11.00" fill="#000000"> &#160;</text>
</a>
</g>
</g>
<!-- Users -->
<g id="node2" class="node">
<title>Users</title>
<g id="a_node2"><a xlink:href="../../tables/Users.html" xlink:title="Users" target="_top">
<polygon fill="#ffffff" stroke="transparent" points="8,-356.2 8,-483.2 195,-483.2 195,-356.2 8,-356.2"/>
<polygon fill="#f5f5f5" stroke="transparent" points="8.5,-459.7 8.5,-482.7 195.5,-482.7 195.5,-459.7 8.5,-459.7"/>
<polygon fill="none" stroke="#000000" points="8.5,-459.7 8.5,-482.7 195.5,-482.7 195.5,-459.7 8.5,-459.7"/>
<text text-anchor="start" x="13.5" y="-468.3" font-family="Helvetica,sans-Serif" font-weight="bold" font-size="11.00" fill="#000000">Users</text>
<text text-anchor="start" x="160.5437" y="-467.8" font-family="Helvetica,sans-Serif" font-size="11.00" fill="#000000">[table]</text>
<polygon fill="none" stroke="#000000" points="8.5,-437.7 8.5,-459.7 195.5,-459.7 195.5,-437.7 8.5,-437.7"/>
<image xlink:href="../../images/primaryKeys.png" width="11px" height="12px" preserveAspectRatio="xMinYMin meet" x="13.5" y="-454.7"/>
<text text-anchor="start" x="28.5" y="-444.8" font-family="Helvetica,sans-Serif" font-size="11.00" fill="#000000">Id</text>
<polygon fill="#ffffff" stroke="transparent" points="8.5,-415.7 8.5,-437.7 195.5,-437.7 195.5,-415.7 8.5,-415.7"/>
<polygon fill="none" stroke="#000000" points="8.5,-415.7 8.5,-437.7 195.5,-437.7 195.5,-415.7 8.5,-415.7"/>
<text text-anchor="start" x="28.5" y="-422.8" font-family="Helvetica,sans-Serif" font-size="11.00" fill="#000000">NormalizedUserName</text>
<polygon fill="#ffffff" stroke="transparent" points="8.5,-393.7 8.5,-415.7 195.5,-415.7 195.5,-393.7 8.5,-393.7"/>
<polygon fill="none" stroke="#000000" points="8.5,-393.7 8.5,-415.7 195.5,-415.7 195.5,-393.7 8.5,-393.7"/>
<text text-anchor="start" x="28.5" y="-400.8" font-family="Helvetica,sans-Serif" font-size="11.00" fill="#000000">NormalizedEmail</text>
<polygon fill="none" stroke="#000000" points="8.5,-374.7 8.5,-393.7 195.5,-393.7 195.5,-374.7 8.5,-374.7"/>
<text text-anchor="start" x="11.5" y="-380.8" font-family="Helvetica,sans-Serif" font-size="11.00" fill="#000000">...</text>
<polygon fill="#ffffff" stroke="transparent" points="8.5,-355.7 8.5,-374.7 91.5,-374.7 91.5,-355.7 8.5,-355.7"/>
<polygon fill="none" stroke="#000000" points="8.5,-355.7 8.5,-374.7 91.5,-374.7 91.5,-355.7 8.5,-355.7"/>
<text text-anchor="start" x="11.5" y="-361.8" font-family="Helvetica,sans-Serif" font-size="11.00" fill="#000000"> &#160;</text>
<polygon fill="#ffffff" stroke="transparent" points="91.5,-355.7 91.5,-374.7 138.5,-374.7 138.5,-355.7 91.5,-355.7"/>
<polygon fill="none" stroke="#000000" points="91.5,-355.7 91.5,-374.7 138.5,-374.7 138.5,-355.7 91.5,-355.7"/>
<text text-anchor="start" x="129.3862" y="-361.8" font-family="Helvetica,sans-Serif" font-size="11.00" fill="#000000"> &#160;</text>
<polygon fill="#ffffff" stroke="transparent" points="138.5,-355.7 138.5,-374.7 195.5,-374.7 195.5,-355.7 138.5,-355.7"/>
<polygon fill="none" stroke="#000000" points="138.5,-355.7 138.5,-374.7 195.5,-374.7 195.5,-355.7 138.5,-355.7"/>
<text text-anchor="start" x="176.9053" y="-361.8" font-family="Helvetica,sans-Serif" font-size="11.00" fill="#000000">6 &gt;</text>
</a>
</g>
</g>
<!-- Clinical.HospitalizationStatusHistories&#45;&gt;Users -->
<g id="edge1" class="edge">
<title>Clinical.HospitalizationStatusHistories:w&#45;&gt;Users:e</title>
<path fill="none" stroke="#000000" d="M229.4462,-651.5365C166.3239,-629.6273 283.4575,-448.7 195.5,-448.7"/>
<polygon fill="#000000" stroke="#000000" points="236.087,-652.5236 243.4706,-657.2609 240.0435,-653.1118 244,-653.7 244,-653.7 244,-653.7 240.0435,-653.1118 244.5294,-650.1391 236.087,-652.5236 236.087,-652.5236"/>
<ellipse fill="none" stroke="#000000" cx="232.9217" cy="-652.0531" rx="3.2" ry="3.2"/>
</g>
<!-- Clinical.VisitEvents -->
<g id="node3" class="node">
<title>Clinical.VisitEvents</title>
<g id="a_node3"><a xlink:title="Clinical.VisitEvents">
<polygon fill="#ffffff" stroke="transparent" points="309,-544.2 309,-605.2 477,-605.2 477,-544.2 309,-544.2"/>
<polygon fill="#f5f5f5" stroke="transparent" points="309,-581.7 309,-604.7 477,-604.7 477,-581.7 309,-581.7"/>
<polygon fill="none" stroke="#000000" points="309,-581.7 309,-604.7 477,-604.7 477,-581.7 309,-581.7"/>
<text text-anchor="start" x="314" y="-590.3" font-family="Helvetica,sans-Serif" font-weight="bold" font-size="11.00" fill="#000000">Clinical.VisitEvents</text>
<text text-anchor="start" x="442.5219" y="-589.8" font-family="Helvetica,sans-Serif" font-size="11.00" fill="#000000">[table]</text>
<polygon fill="none" stroke="#000000" points="309,-562.7 309,-581.7 477,-581.7 477,-562.7 309,-562.7"/>
<text text-anchor="start" x="312" y="-568.8" font-family="Helvetica,sans-Serif" font-size="11.00" fill="#000000">...</text>
<polygon fill="#ffffff" stroke="transparent" points="309,-543.7 309,-562.7 391,-562.7 391,-543.7 309,-543.7"/>
<polygon fill="none" stroke="#000000" points="309,-543.7 309,-562.7 391,-562.7 391,-543.7 309,-543.7"/>
<text text-anchor="start" x="312" y="-549.8" font-family="Helvetica,sans-Serif" font-size="11.00" fill="#000000">&lt; 1</text>
<polygon fill="#ffffff" stroke="transparent" points="391,-543.7 391,-562.7 434,-562.7 434,-543.7 391,-543.7"/>
<polygon fill="none" stroke="#000000" points="391,-543.7 391,-562.7 434,-562.7 434,-543.7 391,-543.7"/>
<text text-anchor="start" x="424.8862" y="-549.8" font-family="Helvetica,sans-Serif" font-size="11.00" fill="#000000"> &#160;</text>
<polygon fill="#ffffff" stroke="transparent" points="434,-543.7 434,-562.7 477,-562.7 477,-543.7 434,-543.7"/>
<polygon fill="none" stroke="#000000" points="434,-543.7 434,-562.7 477,-562.7 477,-543.7 434,-543.7"/>
<text text-anchor="start" x="467.8862" y="-549.8" font-family="Helvetica,sans-Serif" font-size="11.00" fill="#000000"> &#160;</text>
</a>
</g>
</g>
<!-- Clinical.VisitEvents&#45;&gt;Users -->
<g id="edge2" class="edge">
<title>Clinical.VisitEvents:w&#45;&gt;Users:e</title>
<path fill="none" stroke="#000000" d="M294.2705,-570.9181C268.8346,-567.909 257.6325,-556.11 236,-533.7 206.9367,-503.5921 237.3469,-448.7 195.5,-448.7"/>
<polygon fill="#000000" stroke="#000000" points="301.0112,-571.2758 308.8091,-575.2949 305.0056,-571.4879 309,-571.7 309,-571.7 309,-571.7 305.0056,-571.4879 309.1909,-568.1051 301.0112,-571.2758 301.0112,-571.2758"/>
<ellipse fill="none" stroke="#000000" cx="297.8157" cy="-571.1062" rx="3.2" ry="3.2"/>
</g>
<!-- RoleClaims -->
<g id="node4" class="node">
<title>RoleClaims</title>
<g id="a_node4"><a xlink:href="../../tables/RoleClaims.html" xlink:title="RoleClaims" target="_top">
<polygon fill="#ffffff" stroke="transparent" points="336.5,-38.2 336.5,-99.2 449.5,-99.2 449.5,-38.2 336.5,-38.2"/>
<polygon fill="#f5f5f5" stroke="transparent" points="337,-75.7 337,-98.7 450,-98.7 450,-75.7 337,-75.7"/>
<polygon fill="none" stroke="#000000" points="337,-75.7 337,-98.7 450,-98.7 450,-75.7 337,-75.7"/>
<text text-anchor="start" x="342" y="-84.3" font-family="Helvetica,sans-Serif" font-weight="bold" font-size="11.00" fill="#000000">RoleClaims</text>
<text text-anchor="start" x="415.5219" y="-83.8" font-family="Helvetica,sans-Serif" font-size="11.00" fill="#000000">[table]</text>
<polygon fill="none" stroke="#000000" points="337,-56.7 337,-75.7 450,-75.7 450,-56.7 337,-56.7"/>
<text text-anchor="start" x="340" y="-62.8" font-family="Helvetica,sans-Serif" font-size="11.00" fill="#000000">...</text>
<polygon fill="#ffffff" stroke="transparent" points="337,-37.7 337,-56.7 392,-56.7 392,-37.7 337,-37.7"/>
<polygon fill="none" stroke="#000000" points="337,-37.7 337,-56.7 392,-56.7 392,-37.7 337,-37.7"/>
<text text-anchor="start" x="340" y="-43.8" font-family="Helvetica,sans-Serif" font-size="11.00" fill="#000000">&lt; 1</text>
<polygon fill="#ffffff" stroke="transparent" points="392,-37.7 392,-56.7 421,-56.7 421,-37.7 392,-37.7"/>
<polygon fill="none" stroke="#000000" points="392,-37.7 392,-56.7 421,-56.7 421,-37.7 392,-37.7"/>
<text text-anchor="start" x="411.8862" y="-43.8" font-family="Helvetica,sans-Serif" font-size="11.00" fill="#000000"> &#160;</text>
<polygon fill="#ffffff" stroke="transparent" points="421,-37.7 421,-56.7 450,-56.7 450,-37.7 421,-37.7"/>
<polygon fill="none" stroke="#000000" points="421,-37.7 421,-56.7 450,-56.7 450,-37.7 421,-37.7"/>
<text text-anchor="start" x="440.8862" y="-43.8" font-family="Helvetica,sans-Serif" font-size="11.00" fill="#000000"> &#160;</text>
</a>
</g>
</g>
<!-- Roles -->
<g id="node5" class="node">
<title>Roles</title>
<g id="a_node5"><a xlink:href="../../tables/Roles.html" xlink:title="Roles" target="_top">
<polygon fill="#ffffff" stroke="transparent" points="27,-71.2 27,-176.2 176,-176.2 176,-71.2 27,-71.2"/>
<polygon fill="#f5f5f5" stroke="transparent" points="27.5,-152.7 27.5,-175.7 176.5,-175.7 176.5,-152.7 27.5,-152.7"/>
<polygon fill="none" stroke="#000000" points="27.5,-152.7 27.5,-175.7 176.5,-175.7 176.5,-152.7 27.5,-152.7"/>
<text text-anchor="start" x="32.5" y="-161.3" font-family="Helvetica,sans-Serif" font-weight="bold" font-size="11.00" fill="#000000">Roles</text>
<text text-anchor="start" x="141.5437" y="-160.8" font-family="Helvetica,sans-Serif" font-size="11.00" fill="#000000">[table]</text>
<polygon fill="none" stroke="#000000" points="27.5,-130.7 27.5,-152.7 176.5,-152.7 176.5,-130.7 27.5,-130.7"/>
<image xlink:href="../../images/primaryKeys.png" width="11px" height="12px" preserveAspectRatio="xMinYMin meet" x="32.5" y="-147.7"/>
<text text-anchor="start" x="47.5" y="-137.8" font-family="Helvetica,sans-Serif" font-size="11.00" fill="#000000">Id</text>
<polygon fill="#ffffff" stroke="transparent" points="27.5,-108.7 27.5,-130.7 176.5,-130.7 176.5,-108.7 27.5,-108.7"/>
<polygon fill="none" stroke="#000000" points="27.5,-108.7 27.5,-130.7 176.5,-130.7 176.5,-108.7 27.5,-108.7"/>
<text text-anchor="start" x="47.5" y="-115.8" font-family="Helvetica,sans-Serif" font-size="11.00" fill="#000000">NormalizedName</text>
<polygon fill="none" stroke="#000000" points="27.5,-89.7 27.5,-108.7 176.5,-108.7 176.5,-89.7 27.5,-89.7"/>
<text text-anchor="start" x="30.5" y="-95.8" font-family="Helvetica,sans-Serif" font-size="11.00" fill="#000000">...</text>
<polygon fill="#ffffff" stroke="transparent" points="27.5,-70.7 27.5,-89.7 91.5,-89.7 91.5,-70.7 27.5,-70.7"/>
<polygon fill="none" stroke="#000000" points="27.5,-70.7 27.5,-89.7 91.5,-89.7 91.5,-70.7 27.5,-70.7"/>
<text text-anchor="start" x="30.5" y="-76.8" font-family="Helvetica,sans-Serif" font-size="11.00" fill="#000000"> &#160;</text>
<polygon fill="#ffffff" stroke="transparent" points="91.5,-70.7 91.5,-89.7 129.5,-89.7 129.5,-70.7 91.5,-70.7"/>
<polygon fill="none" stroke="#000000" points="91.5,-70.7 91.5,-89.7 129.5,-89.7 129.5,-70.7 91.5,-70.7"/>
<text text-anchor="start" x="120.3862" y="-76.8" font-family="Helvetica,sans-Serif" font-size="11.00" fill="#000000"> &#160;</text>
<polygon fill="#ffffff" stroke="transparent" points="129.5,-70.7 129.5,-89.7 176.5,-89.7 176.5,-70.7 129.5,-70.7"/>
<polygon fill="none" stroke="#000000" points="129.5,-70.7 129.5,-89.7 176.5,-89.7 176.5,-70.7 129.5,-70.7"/>
<text text-anchor="start" x="157.9053" y="-76.8" font-family="Helvetica,sans-Serif" font-size="11.00" fill="#000000">2 &gt;</text>
</a>
</g>
</g>
<!-- RoleClaims&#45;&gt;Roles -->
<g id="edge3" class="edge">
<title>RoleClaims:w&#45;&gt;Roles:e</title>
<path fill="none" stroke="#000000" d="M322.3034,-66.4802C285.8567,-70.6309 275.2261,-90.6477 236,-109.7 208.991,-122.8184 206.5263,-141.7 176.5,-141.7"/>
<polygon fill="#000000" stroke="#000000" points="329.0112,-66.1242 337.1909,-69.2949 333.0056,-65.9121 337,-65.7 337,-65.7 337,-65.7 333.0056,-65.9121 336.8091,-62.1051 329.0112,-66.1242 329.0112,-66.1242"/>
<ellipse fill="none" stroke="#000000" cx="325.8157" cy="-66.2938" rx="3.2" ry="3.2"/>
</g>
<!-- UserClaims -->
<g id="node6" class="node">
<title>UserClaims</title>
<g id="a_node6"><a xlink:href="../../tables/UserClaims.html" xlink:title="UserClaims" target="_top">
<polygon fill="#ffffff" stroke="transparent" points="336,-462.2 336,-523.2 450,-523.2 450,-462.2 336,-462.2"/>
<polygon fill="#f5f5f5" stroke="transparent" points="336,-499.7 336,-522.7 450,-522.7 450,-499.7 336,-499.7"/>
<polygon fill="none" stroke="#000000" points="336,-499.7 336,-522.7 450,-522.7 450,-499.7 336,-499.7"/>
<text text-anchor="start" x="341" y="-508.3" font-family="Helvetica,sans-Serif" font-weight="bold" font-size="11.00" fill="#000000">UserClaims</text>
<text text-anchor="start" x="415.5219" y="-507.8" font-family="Helvetica,sans-Serif" font-size="11.00" fill="#000000">[table]</text>
<polygon fill="none" stroke="#000000" points="336,-480.7 336,-499.7 450,-499.7 450,-480.7 336,-480.7"/>
<text text-anchor="start" x="339" y="-486.8" font-family="Helvetica,sans-Serif" font-size="11.00" fill="#000000">...</text>
<polygon fill="#ffffff" stroke="transparent" points="336,-461.7 336,-480.7 391,-480.7 391,-461.7 336,-461.7"/>
<polygon fill="none" stroke="#000000" points="336,-461.7 336,-480.7 391,-480.7 391,-461.7 336,-461.7"/>
<text text-anchor="start" x="339" y="-467.8" font-family="Helvetica,sans-Serif" font-size="11.00" fill="#000000">&lt; 1</text>
<polygon fill="#ffffff" stroke="transparent" points="391,-461.7 391,-480.7 420,-480.7 420,-461.7 391,-461.7"/>
<polygon fill="none" stroke="#000000" points="391,-461.7 391,-480.7 420,-480.7 420,-461.7 391,-461.7"/>
<text text-anchor="start" x="410.8862" y="-467.8" font-family="Helvetica,sans-Serif" font-size="11.00" fill="#000000"> &#160;</text>
<polygon fill="#ffffff" stroke="transparent" points="420,-461.7 420,-480.7 450,-480.7 450,-461.7 420,-461.7"/>
<polygon fill="none" stroke="#000000" points="420,-461.7 420,-480.7 450,-480.7 450,-461.7 420,-461.7"/>
<text text-anchor="start" x="440.8862" y="-467.8" font-family="Helvetica,sans-Serif" font-size="11.00" fill="#000000"> &#160;</text>
</a>
</g>
</g>
<!-- UserClaims&#45;&gt;Users -->
<g id="edge4" class="edge">
<title>UserClaims:w&#45;&gt;Users:e</title>
<path fill="none" stroke="#000000" d="M321.3682,-488.9534C268.9347,-483.3965 255.3399,-448.7 195.5,-448.7"/>
<polygon fill="#000000" stroke="#000000" points="328.0104,-489.2923 335.8165,-493.2953 332.0052,-489.4961 336,-489.7 336,-489.7 336,-489.7 332.0052,-489.4961 336.1835,-486.1047 328.0104,-489.2923 328.0104,-489.2923"/>
<ellipse fill="none" stroke="#000000" cx="324.8146" cy="-489.1292" rx="3.2" ry="3.2"/>
</g>
<!-- UserLogins -->
<g id="node7" class="node">
<title>UserLogins</title>
<g id="a_node7"><a xlink:href="../../tables/UserLogins.html" xlink:title="UserLogins" target="_top">
<polygon fill="#ffffff" stroke="transparent" points="336,-380.2 336,-441.2 450,-441.2 450,-380.2 336,-380.2"/>
<polygon fill="#f5f5f5" stroke="transparent" points="336,-417.7 336,-440.7 450,-440.7 450,-417.7 336,-417.7"/>
<polygon fill="none" stroke="#000000" points="336,-417.7 336,-440.7 450,-440.7 450,-417.7 336,-417.7"/>
<text text-anchor="start" x="341" y="-426.3" font-family="Helvetica,sans-Serif" font-weight="bold" font-size="11.00" fill="#000000">UserLogins</text>
<text text-anchor="start" x="415.5219" y="-425.8" font-family="Helvetica,sans-Serif" font-size="11.00" fill="#000000">[table]</text>
<polygon fill="none" stroke="#000000" points="336,-398.7 336,-417.7 450,-417.7 450,-398.7 336,-398.7"/>
<text text-anchor="start" x="339" y="-404.8" font-family="Helvetica,sans-Serif" font-size="11.00" fill="#000000">...</text>
<polygon fill="#ffffff" stroke="transparent" points="336,-379.7 336,-398.7 391,-398.7 391,-379.7 336,-379.7"/>
<polygon fill="none" stroke="#000000" points="336,-379.7 336,-398.7 391,-398.7 391,-379.7 336,-379.7"/>
<text text-anchor="start" x="339" y="-385.8" font-family="Helvetica,sans-Serif" font-size="11.00" fill="#000000">&lt; 1</text>
<polygon fill="#ffffff" stroke="transparent" points="391,-379.7 391,-398.7 420,-398.7 420,-379.7 391,-379.7"/>
<polygon fill="none" stroke="#000000" points="391,-379.7 391,-398.7 420,-398.7 420,-379.7 391,-379.7"/>
<text text-anchor="start" x="410.8862" y="-385.8" font-family="Helvetica,sans-Serif" font-size="11.00" fill="#000000"> &#160;</text>
<polygon fill="#ffffff" stroke="transparent" points="420,-379.7 420,-398.7 450,-398.7 450,-379.7 420,-379.7"/>
<polygon fill="none" stroke="#000000" points="420,-379.7 420,-398.7 450,-398.7 450,-379.7 420,-379.7"/>
<text text-anchor="start" x="440.8862" y="-385.8" font-family="Helvetica,sans-Serif" font-size="11.00" fill="#000000"> &#160;</text>
</a>
</g>
</g>
<!-- UserLogins&#45;&gt;Users -->
<g id="edge5" class="edge">
<title>UserLogins:w&#45;&gt;Users:e</title>
<path fill="none" stroke="#000000" d="M321.3682,-408.4466C268.9347,-414.0035 255.3399,-448.7 195.5,-448.7"/>
<polygon fill="#000000" stroke="#000000" points="328.0104,-408.1077 336.1835,-411.2953 332.0052,-407.9039 336,-407.7 336,-407.7 336,-407.7 332.0052,-407.9039 335.8165,-404.1047 328.0104,-408.1077 328.0104,-408.1077"/>
<ellipse fill="none" stroke="#000000" cx="324.8146" cy="-408.2708" rx="3.2" ry="3.2"/>
</g>
<!-- UserRoles -->
<g id="node8" class="node">
<title>UserRoles</title>
<g id="a_node8"><a xlink:href="../../tables/UserRoles.html" xlink:title="UserRoles" target="_top">
<polygon fill="#ffffff" stroke="transparent" points="292.5,-120.7 292.5,-276.7 493.5,-276.7 493.5,-120.7 292.5,-120.7"/>
<polygon fill="#f5f5f5" stroke="transparent" points="295,-251.7 295,-274.7 492,-274.7 492,-251.7 295,-251.7"/>
<polygon fill="none" stroke="#000000" points="295,-251.7 295,-274.7 492,-274.7 492,-251.7 295,-251.7"/>
<text text-anchor="start" x="300" y="-260.3" font-family="Helvetica,sans-Serif" font-weight="bold" font-size="11.00" fill="#000000">UserRoles</text>
<text text-anchor="start" x="457.0437" y="-259.8" font-family="Helvetica,sans-Serif" font-size="11.00" fill="#000000">[table]</text>
<polygon fill="none" stroke="#000000" points="295,-229.7 295,-251.7 411,-251.7 411,-229.7 295,-229.7"/>
<image xlink:href="../../images/primaryKeys.png" width="11px" height="12px" preserveAspectRatio="xMinYMin meet" x="300" y="-246.7"/>
<text text-anchor="start" x="315" y="-236.8" font-family="Helvetica,sans-Serif" font-size="11.00" fill="#000000">UserId</text>
<polygon fill="none" stroke="#000000" points="411,-229.7 411,-251.7 492,-251.7 492,-229.7 411,-229.7"/>
<text text-anchor="start" x="414" y="-237.4" font-family="Helvetica,sans-Serif" font-size="11.00" fill="#000000">int[4]</text>
<polygon fill="none" stroke="#000000" points="295,-207.7 295,-229.7 411,-229.7 411,-207.7 295,-207.7"/>
<image xlink:href="../../images/primaryKeys.png" width="11px" height="12px" preserveAspectRatio="xMinYMin meet" x="300" y="-224.7"/>
<text text-anchor="start" x="315" y="-214.8" font-family="Helvetica,sans-Serif" font-size="11.00" fill="#000000">RoleId</text>
<polygon fill="none" stroke="#000000" points="411,-207.7 411,-229.7 492,-229.7 492,-207.7 411,-207.7"/>
<text text-anchor="start" x="414" y="-215.4" font-family="Helvetica,sans-Serif" font-size="11.00" fill="#000000">int[4]</text>
<polygon fill="none" stroke="#000000" points="295,-185.7 295,-207.7 411,-207.7 411,-185.7 295,-185.7"/>
<text text-anchor="start" x="315" y="-192.8" font-family="Helvetica,sans-Serif" font-size="11.00" fill="#000000">CreatedAtUtc</text>
<polygon fill="none" stroke="#000000" points="411,-185.7 411,-207.7 492,-207.7 492,-185.7 411,-185.7"/>
<text text-anchor="start" x="413.5968" y="-193.4" font-family="Helvetica,sans-Serif" font-size="11.00" fill="#000000">datetime2[16,7]</text>
<polygon fill="none" stroke="#000000" points="295,-163.7 295,-185.7 411,-185.7 411,-163.7 295,-163.7"/>
<text text-anchor="start" x="315" y="-170.8" font-family="Helvetica,sans-Serif" font-size="11.00" fill="#000000">UpdatedAtUtc</text>
<polygon fill="none" stroke="#000000" points="411,-163.7 411,-185.7 492,-185.7 492,-163.7 411,-163.7"/>
<text text-anchor="start" x="413.5968" y="-171.4" font-family="Helvetica,sans-Serif" font-size="11.00" fill="#000000">datetime2[16,7]</text>
<polygon fill="none" stroke="#000000" points="295,-141.7 295,-163.7 411,-163.7 411,-141.7 295,-141.7"/>
<text text-anchor="start" x="315" y="-148.8" font-family="Helvetica,sans-Serif" font-size="11.00" fill="#000000">RowVersion</text>
<polygon fill="none" stroke="#000000" points="411,-141.7 411,-163.7 492,-163.7 492,-141.7 411,-141.7"/>
<text text-anchor="start" x="414" y="-149.4" font-family="Helvetica,sans-Serif" font-size="11.00" fill="#000000">timestamp[8]</text>
<polygon fill="#ffffff" stroke="transparent" points="295,-122.7 295,-141.7 357,-141.7 357,-122.7 295,-122.7"/>
<polygon fill="none" stroke="#000000" points="295,-122.7 295,-141.7 357,-141.7 357,-122.7 295,-122.7"/>
<text text-anchor="start" x="298" y="-128.8" font-family="Helvetica,sans-Serif" font-size="11.00" fill="#000000">&lt; 2</text>
<polygon fill="#ffffff" stroke="transparent" points="357,-122.7 357,-141.7 411,-141.7 411,-122.7 357,-122.7"/>
<polygon fill="none" stroke="#000000" points="357,-122.7 357,-141.7 411,-141.7 411,-122.7 357,-122.7"/>
<text text-anchor="start" x="401.8862" y="-128.8" font-family="Helvetica,sans-Serif" font-size="11.00" fill="#000000"> &#160;</text>
<polygon fill="#ffffff" stroke="transparent" points="411,-122.7 411,-141.7 492,-141.7 492,-122.7 411,-122.7"/>
<polygon fill="none" stroke="#000000" points="411,-122.7 411,-141.7 492,-141.7 492,-122.7 411,-122.7"/>
<text text-anchor="start" x="473.4053" y="-128.8" font-family="Helvetica,sans-Serif" font-size="11.00" fill="#000000">0 &gt;</text>
<polygon fill="none" stroke="#000000" stroke-width="2" points="293.5,-121.7 293.5,-275.7 492.5,-275.7 492.5,-121.7 293.5,-121.7"/>
</a>
</g>
</g>
<!-- UserRoles&#45;&gt;Users -->
<g id="edge7" class="edge">
<title>UserRoles:w&#45;&gt;Users:e</title>
<path fill="none" stroke="#000000" d="M280.4518,-242.1777C258.7814,-247.1262 251.1771,-264.1402 236,-287.7 196.0417,-349.7284 269.2848,-448.7 195.5,-448.7"/>
<polygon fill="#000000" stroke="#000000" points="287.041,-241.5085 295.3638,-244.2816 291.0205,-241.1042 295,-240.7 295,-240.7 295,-240.7 291.0205,-241.1042 294.6362,-237.1184 287.041,-241.5085 287.041,-241.5085"/>
<ellipse fill="none" stroke="#000000" cx="283.8573" cy="-241.8318" rx="3.2" ry="3.2"/>
</g>
<!-- UserRoles&#45;&gt;Roles -->
<g id="edge6" class="edge">
<title>UserRoles:w&#45;&gt;Roles:e</title>
<path fill="none" stroke="#000000" d="M280.5719,-217.1619C232.8936,-206.3095 234.0338,-141.7 176.5,-141.7"/>
<polygon fill="#000000" stroke="#000000" points="287.0451,-217.8519 294.6184,-222.2797 291.0225,-218.276 295,-218.7 295,-218.7 295,-218.7 291.0225,-218.276 295.3816,-215.1203 287.0451,-217.8519 287.0451,-217.8519"/>
<ellipse fill="none" stroke="#000000" cx="283.8631" cy="-217.5127" rx="3.2" ry="3.2"/>
</g>
<!-- UserTokens -->
<g id="node9" class="node">
<title>UserTokens</title>
<g id="a_node9"><a xlink:href="../../tables/UserTokens.html" xlink:title="UserTokens" target="_top">
<polygon fill="#ffffff" stroke="transparent" points="334,-298.2 334,-359.2 452,-359.2 452,-298.2 334,-298.2"/>
<polygon fill="#f5f5f5" stroke="transparent" points="334,-335.7 334,-358.7 452,-358.7 452,-335.7 334,-335.7"/>
<polygon fill="none" stroke="#000000" points="334,-335.7 334,-358.7 452,-358.7 452,-335.7 334,-335.7"/>
<text text-anchor="start" x="339" y="-344.3" font-family="Helvetica,sans-Serif" font-weight="bold" font-size="11.00" fill="#000000">UserTokens</text>
<text text-anchor="start" x="417.5219" y="-343.8" font-family="Helvetica,sans-Serif" font-size="11.00" fill="#000000">[table]</text>
<polygon fill="none" stroke="#000000" points="334,-316.7 334,-335.7 452,-335.7 452,-316.7 334,-316.7"/>
<text text-anchor="start" x="337" y="-322.8" font-family="Helvetica,sans-Serif" font-size="11.00" fill="#000000">...</text>
<polygon fill="#ffffff" stroke="transparent" points="334,-297.7 334,-316.7 391,-316.7 391,-297.7 334,-297.7"/>
<polygon fill="none" stroke="#000000" points="334,-297.7 334,-316.7 391,-316.7 391,-297.7 334,-297.7"/>
<text text-anchor="start" x="337" y="-303.8" font-family="Helvetica,sans-Serif" font-size="11.00" fill="#000000">&lt; 1</text>
<polygon fill="#ffffff" stroke="transparent" points="391,-297.7 391,-316.7 421,-316.7 421,-297.7 391,-297.7"/>
<polygon fill="none" stroke="#000000" points="391,-297.7 391,-316.7 421,-316.7 421,-297.7 391,-297.7"/>
<text text-anchor="start" x="411.8862" y="-303.8" font-family="Helvetica,sans-Serif" font-size="11.00" fill="#000000"> &#160;</text>
<polygon fill="#ffffff" stroke="transparent" points="421,-297.7 421,-316.7 452,-316.7 452,-297.7 421,-297.7"/>
<polygon fill="none" stroke="#000000" points="421,-297.7 421,-316.7 452,-316.7 452,-297.7 421,-297.7"/>
<text text-anchor="start" x="442.8862" y="-303.8" font-family="Helvetica,sans-Serif" font-size="11.00" fill="#000000"> &#160;</text>
</a>
</g>
</g>
<!-- UserTokens&#45;&gt;Users -->
<g id="edge8" class="edge">
<title>UserTokens:w&#45;&gt;Users:e</title>
<path fill="none" stroke="#000000" d="M319.4195,-326.1131C282.6087,-328.3936 266.8351,-340.4198 236,-369.7 207.3882,-396.869 234.9562,-448.7 195.5,-448.7"/>
<polygon fill="#000000" stroke="#000000" points="326.0032,-325.9266 334.102,-329.2986 330.0016,-325.8133 334,-325.7 334,-325.7 334,-325.7 330.0016,-325.8133 333.898,-322.1014 326.0032,-325.9266 326.0032,-325.9266"/>
<ellipse fill="none" stroke="#000000" cx="322.8045" cy="-326.0173" rx="3.2" ry="3.2"/>
</g>
</g>
</svg>
