<?xml version="1.0" encoding="UTF-8" standalone="no"?>
<!DOCTYPE svg PUBLIC "-//W3C//DTD SVG 1.1//EN"
 "http://www.w3.org/Graphics/SVG/1.1/DTD/svg11.dtd">
<!-- Generated by graphviz version 2.40.1 (20161225.0304)
 -->
<!-- Title: oneDegreeRelationshipsDiagram Pages: 1 -->
<svg width="461pt" height="303pt"
 viewBox="0.00 0.00 461.00 303.20" xmlns="http://www.w3.org/2000/svg" xmlns:xlink="http://www.w3.org/1999/xlink">
<g id="graph0" class="graph" transform="scale(1 1) rotate(0) translate(4 299.2)">
<title>oneDegreeRelationshipsDiagram</title>
<polygon fill="#ffffff" stroke="transparent" points="-4,4 -4,-299.2 457,-299.2 457,4 -4,4"/>
<text text-anchor="middle" x="72.4936" y="-7.3" font-family="Helvetica,sans-Serif" font-size="11.00" fill="#000000">Generated by SchemaSpy</text>
<!-- UserRoles -->
<g id="node1" class="node">
<title>UserRoles</title>
<g id="a_node1"><a xlink:href="../../tables/UserRoles.html" xlink:title="UserRoles" target="_top">
<polygon fill="#ffffff" stroke="transparent" points="244,-73.7 244,-229.7 445,-229.7 445,-73.7 244,-73.7"/>
<polygon fill="#f5f5f5" stroke="transparent" points="246.5,-204.7 246.5,-227.7 443.5,-227.7 443.5,-204.7 246.5,-204.7"/>
<polygon fill="none" stroke="#000000" points="246.5,-204.7 246.5,-227.7 443.5,-227.7 443.5,-204.7 246.5,-204.7"/>
<text text-anchor="start" x="251.5" y="-213.3" font-family="Helvetica,sans-Serif" font-weight="bold" font-size="11.00" fill="#000000">UserRoles</text>
<text text-anchor="start" x="408.5437" y="-212.8" font-family="Helvetica,sans-Serif" font-size="11.00" fill="#000000">[table]</text>
<polygon fill="none" stroke="#000000" points="246.5,-182.7 246.5,-204.7 362.5,-204.7 362.5,-182.7 246.5,-182.7"/>
<image xlink:href="../../images/primaryKeys.png" width="11px" height="12px" preserveAspectRatio="xMinYMin meet" x="251.5" y="-199.7"/>
<text text-anchor="start" x="266.5" y="-189.8" font-family="Helvetica,sans-Serif" font-size="11.00" fill="#000000">UserId</text>
<polygon fill="none" stroke="#000000" points="362.5,-182.7 362.5,-204.7 443.5,-204.7 443.5,-182.7 362.5,-182.7"/>
<text text-anchor="start" x="365.5" y="-190.4" font-family="Helvetica,sans-Serif" font-size="11.00" fill="#000000">int[4]</text>
<polygon fill="none" stroke="#000000" points="246.5,-160.7 246.5,-182.7 362.5,-182.7 362.5,-160.7 246.5,-160.7"/>
<image xlink:href="../../images/primaryKeys.png" width="11px" height="12px" preserveAspectRatio="xMinYMin meet" x="251.5" y="-177.7"/>
<text text-anchor="start" x="266.5" y="-167.8" font-family="Helvetica,sans-Serif" font-size="11.00" fill="#000000">RoleId</text>
<polygon fill="none" stroke="#000000" points="362.5,-160.7 362.5,-182.7 443.5,-182.7 443.5,-160.7 362.5,-160.7"/>
<text text-anchor="start" x="365.5" y="-168.4" font-family="Helvetica,sans-Serif" font-size="11.00" fill="#000000">int[4]</text>
<polygon fill="none" stroke="#000000" points="246.5,-138.7 246.5,-160.7 362.5,-160.7 362.5,-138.7 246.5,-138.7"/>
<text text-anchor="start" x="266.5" y="-145.8" font-family="Helvetica,sans-Serif" font-size="11.00" fill="#000000">CreatedAtUtc</text>
<polygon fill="none" stroke="#000000" points="362.5,-138.7 362.5,-160.7 443.5,-160.7 443.5,-138.7 362.5,-138.7"/>
<text text-anchor="start" x="365.0968" y="-146.4" font-family="Helvetica,sans-Serif" font-size="11.00" fill="#000000">datetime2[16,7]</text>
<polygon fill="none" stroke="#000000" points="246.5,-116.7 246.5,-138.7 362.5,-138.7 362.5,-116.7 246.5,-116.7"/>
<text text-anchor="start" x="266.5" y="-123.8" font-family="Helvetica,sans-Serif" font-size="11.00" fill="#000000">UpdatedAtUtc</text>
<polygon fill="none" stroke="#000000" points="362.5,-116.7 362.5,-138.7 443.5,-138.7 443.5,-116.7 362.5,-116.7"/>
<text text-anchor="start" x="365.0968" y="-124.4" font-family="Helvetica,sans-Serif" font-size="11.00" fill="#000000">datetime2[16,7]</text>
<polygon fill="none" stroke="#000000" points="246.5,-94.7 246.5,-116.7 362.5,-116.7 362.5,-94.7 246.5,-94.7"/>
<text text-anchor="start" x="266.5" y="-101.8" font-family="Helvetica,sans-Serif" font-size="11.00" fill="#000000">RowVersion</text>
<polygon fill="none" stroke="#000000" points="362.5,-94.7 362.5,-116.7 443.5,-116.7 443.5,-94.7 362.5,-94.7"/>
<text text-anchor="start" x="365.5" y="-102.4" font-family="Helvetica,sans-Serif" font-size="11.00" fill="#000000">timestamp[8]</text>
<polygon fill="#ffffff" stroke="transparent" points="246.5,-75.7 246.5,-94.7 308.5,-94.7 308.5,-75.7 246.5,-75.7"/>
<polygon fill="none" stroke="#000000" points="246.5,-75.7 246.5,-94.7 308.5,-94.7 308.5,-75.7 246.5,-75.7"/>
<text text-anchor="start" x="249.5" y="-81.8" font-family="Helvetica,sans-Serif" font-size="11.00" fill="#000000">&lt; 2</text>
<polygon fill="#ffffff" stroke="transparent" points="308.5,-75.7 308.5,-94.7 362.5,-94.7 362.5,-75.7 308.5,-75.7"/>
<polygon fill="none" stroke="#000000" points="308.5,-75.7 308.5,-94.7 362.5,-94.7 362.5,-75.7 308.5,-75.7"/>
<text text-anchor="start" x="353.3862" y="-81.8" font-family="Helvetica,sans-Serif" font-size="11.00" fill="#000000"> &#160;</text>
<polygon fill="#ffffff" stroke="transparent" points="362.5,-75.7 362.5,-94.7 443.5,-94.7 443.5,-75.7 362.5,-75.7"/>
<polygon fill="none" stroke="#000000" points="362.5,-75.7 362.5,-94.7 443.5,-94.7 443.5,-75.7 362.5,-75.7"/>
<text text-anchor="start" x="424.9053" y="-81.8" font-family="Helvetica,sans-Serif" font-size="11.00" fill="#000000">0 &gt;</text>
<polygon fill="none" stroke="#000000" stroke-width="2" points="245,-74.7 245,-228.7 444,-228.7 444,-74.7 245,-74.7"/>
</a>
</g>
</g>
<!-- Roles -->
<g id="node2" class="node">
<title>Roles</title>
<g id="a_node2"><a xlink:href="../../tables/Roles.html" xlink:title="Roles" target="_top">
<polygon fill="#ffffff" stroke="transparent" points="27,-38.2 27,-143.2 176,-143.2 176,-38.2 27,-38.2"/>
<polygon fill="#f5f5f5" stroke="transparent" points="27.5,-119.7 27.5,-142.7 176.5,-142.7 176.5,-119.7 27.5,-119.7"/>
<polygon fill="none" stroke="#000000" points="27.5,-119.7 27.5,-142.7 176.5,-142.7 176.5,-119.7 27.5,-119.7"/>
<text text-anchor="start" x="32.5" y="-128.3" font-family="Helvetica,sans-Serif" font-weight="bold" font-size="11.00" fill="#000000">Roles</text>
<text text-anchor="start" x="141.5437" y="-127.8" font-family="Helvetica,sans-Serif" font-size="11.00" fill="#000000">[table]</text>
<polygon fill="none" stroke="#000000" points="27.5,-97.7 27.5,-119.7 176.5,-119.7 176.5,-97.7 27.5,-97.7"/>
<image xlink:href="../../images/primaryKeys.png" width="11px" height="12px" preserveAspectRatio="xMinYMin meet" x="32.5" y="-114.7"/>
<text text-anchor="start" x="47.5" y="-104.8" font-family="Helvetica,sans-Serif" font-size="11.00" fill="#000000">Id</text>
<polygon fill="#ffffff" stroke="transparent" points="27.5,-75.7 27.5,-97.7 176.5,-97.7 176.5,-75.7 27.5,-75.7"/>
<polygon fill="none" stroke="#000000" points="27.5,-75.7 27.5,-97.7 176.5,-97.7 176.5,-75.7 27.5,-75.7"/>
<text text-anchor="start" x="47.5" y="-82.8" font-family="Helvetica,sans-Serif" font-size="11.00" fill="#000000">NormalizedName</text>
<polygon fill="none" stroke="#000000" points="27.5,-56.7 27.5,-75.7 176.5,-75.7 176.5,-56.7 27.5,-56.7"/>
<text text-anchor="start" x="30.5" y="-62.8" font-family="Helvetica,sans-Serif" font-size="11.00" fill="#000000">...</text>
<polygon fill="#ffffff" stroke="transparent" points="27.5,-37.7 27.5,-56.7 91.5,-56.7 91.5,-37.7 27.5,-37.7"/>
<polygon fill="none" stroke="#000000" points="27.5,-37.7 27.5,-56.7 91.5,-56.7 91.5,-37.7 27.5,-37.7"/>
<text text-anchor="start" x="30.5" y="-43.8" font-family="Helvetica,sans-Serif" font-size="11.00" fill="#000000"> &#160;</text>
<polygon fill="#ffffff" stroke="transparent" points="91.5,-37.7 91.5,-56.7 129.5,-56.7 129.5,-37.7 91.5,-37.7"/>
<polygon fill="none" stroke="#000000" points="91.5,-37.7 91.5,-56.7 129.5,-56.7 129.5,-37.7 91.5,-37.7"/>
<text text-anchor="start" x="120.3862" y="-43.8" font-family="Helvetica,sans-Serif" font-size="11.00" fill="#000000"> &#160;</text>
<polygon fill="#ffffff" stroke="transparent" points="129.5,-37.7 129.5,-56.7 176.5,-56.7 176.5,-37.7 129.5,-37.7"/>
<polygon fill="none" stroke="#000000" points="129.5,-37.7 129.5,-56.7 176.5,-56.7 176.5,-37.7 129.5,-37.7"/>
<text text-anchor="start" x="157.9053" y="-43.8" font-family="Helvetica,sans-Serif" font-size="11.00" fill="#000000">2 &gt;</text>
</a>
</g>
</g>
<!-- UserRoles&#45;&gt;Roles -->
<g id="edge1" class="edge">
<title>UserRoles:w&#45;&gt;Roles:e</title>
<path fill="none" stroke="#000000" d="M232.1646,-168.4892C207.3548,-155.651 212.6333,-108.7 176.5,-108.7"/>
<polygon fill="#000000" stroke="#000000" points="238.6934,-169.9515 245.7132,-175.213 242.5967,-170.8257 246.5,-171.7 246.5,-171.7 246.5,-171.7 242.5967,-170.8257 247.2868,-168.187 238.6934,-169.9515 238.6934,-169.9515"/>
<ellipse fill="none" stroke="#000000" cx="235.5708" cy="-169.2521" rx="3.2" ry="3.2"/>
</g>
<!-- Users -->
<g id="node3" class="node">
<title>Users</title>
<g id="a_node3"><a xlink:href="../../tables/Users.html" xlink:title="Users" target="_top">
<polygon fill="#ffffff" stroke="transparent" points="8,-164.2 8,-291.2 195,-291.2 195,-164.2 8,-164.2"/>
<polygon fill="#f5f5f5" stroke="transparent" points="8.5,-267.7 8.5,-290.7 195.5,-290.7 195.5,-267.7 8.5,-267.7"/>
<polygon fill="none" stroke="#000000" points="8.5,-267.7 8.5,-290.7 195.5,-290.7 195.5,-267.7 8.5,-267.7"/>
<text text-anchor="start" x="13.5" y="-276.3" font-family="Helvetica,sans-Serif" font-weight="bold" font-size="11.00" fill="#000000">Users</text>
<text text-anchor="start" x="160.5437" y="-275.8" font-family="Helvetica,sans-Serif" font-size="11.00" fill="#000000">[table]</text>
<polygon fill="none" stroke="#000000" points="8.5,-245.7 8.5,-267.7 195.5,-267.7 195.5,-245.7 8.5,-245.7"/>
<image xlink:href="../../images/primaryKeys.png" width="11px" height="12px" preserveAspectRatio="xMinYMin meet" x="13.5" y="-262.7"/>
<text text-anchor="start" x="28.5" y="-252.8" font-family="Helvetica,sans-Serif" font-size="11.00" fill="#000000">Id</text>
<polygon fill="#ffffff" stroke="transparent" points="8.5,-223.7 8.5,-245.7 195.5,-245.7 195.5,-223.7 8.5,-223.7"/>
<polygon fill="none" stroke="#000000" points="8.5,-223.7 8.5,-245.7 195.5,-245.7 195.5,-223.7 8.5,-223.7"/>
<text text-anchor="start" x="28.5" y="-230.8" font-family="Helvetica,sans-Serif" font-size="11.00" fill="#000000">NormalizedUserName</text>
<polygon fill="#ffffff" stroke="transparent" points="8.5,-201.7 8.5,-223.7 195.5,-223.7 195.5,-201.7 8.5,-201.7"/>
<polygon fill="none" stroke="#000000" points="8.5,-201.7 8.5,-223.7 195.5,-223.7 195.5,-201.7 8.5,-201.7"/>
<text text-anchor="start" x="28.5" y="-208.8" font-family="Helvetica,sans-Serif" font-size="11.00" fill="#000000">NormalizedEmail</text>
<polygon fill="none" stroke="#000000" points="8.5,-182.7 8.5,-201.7 195.5,-201.7 195.5,-182.7 8.5,-182.7"/>
<text text-anchor="start" x="11.5" y="-188.8" font-family="Helvetica,sans-Serif" font-size="11.00" fill="#000000">...</text>
<polygon fill="#ffffff" stroke="transparent" points="8.5,-163.7 8.5,-182.7 91.5,-182.7 91.5,-163.7 8.5,-163.7"/>
<polygon fill="none" stroke="#000000" points="8.5,-163.7 8.5,-182.7 91.5,-182.7 91.5,-163.7 8.5,-163.7"/>
<text text-anchor="start" x="11.5" y="-169.8" font-family="Helvetica,sans-Serif" font-size="11.00" fill="#000000"> &#160;</text>
<polygon fill="#ffffff" stroke="transparent" points="91.5,-163.7 91.5,-182.7 138.5,-182.7 138.5,-163.7 91.5,-163.7"/>
<polygon fill="none" stroke="#000000" points="91.5,-163.7 91.5,-182.7 138.5,-182.7 138.5,-163.7 91.5,-163.7"/>
<text text-anchor="start" x="129.3862" y="-169.8" font-family="Helvetica,sans-Serif" font-size="11.00" fill="#000000"> &#160;</text>
<polygon fill="#ffffff" stroke="transparent" points="138.5,-163.7 138.5,-182.7 195.5,-182.7 195.5,-163.7 138.5,-163.7"/>
<polygon fill="none" stroke="#000000" points="138.5,-163.7 138.5,-182.7 195.5,-182.7 195.5,-163.7 138.5,-163.7"/>
<text text-anchor="start" x="176.9053" y="-169.8" font-family="Helvetica,sans-Serif" font-size="11.00" fill="#000000">6 &gt;</text>
</a>
</g>
</g>
<!-- UserRoles&#45;&gt;Users -->
<g id="edge2" class="edge">
<title>UserRoles:w&#45;&gt;Users:e</title>
<path fill="none" stroke="#000000" d="M232.4033,-198.6435C216.025,-213.4952 225.3329,-256.7 195.5,-256.7"/>
<polygon fill="#000000" stroke="#000000" points="238.9507,-196.3474 247.6913,-197.0972 242.7254,-195.0237 246.5,-193.7 246.5,-193.7 246.5,-193.7 242.7254,-195.0237 245.3087,-190.3028 238.9507,-196.3474 238.9507,-196.3474"/>
<ellipse fill="none" stroke="#000000" cx="235.931" cy="-197.4064" rx="3.2" ry="3.2"/>
</g>
</g>
</svg>
