<?xml version="1.0" encoding="UTF-8" standalone="no"?>
<!DOCTYPE svg PUBLIC "-//W3C//DTD SVG 1.1//EN"
 "http://www.w3.org/Graphics/SVG/1.1/DTD/svg11.dtd">
<!-- Generated by graphviz version 2.40.1 (20161225.0304)
 -->
<!-- Title: oneDegreeRelationshipsDiagram Pages: 1 -->
<svg width="496pt" height="267pt"
 viewBox="0.00 0.00 496.00 266.70" xmlns="http://www.w3.org/2000/svg" xmlns:xlink="http://www.w3.org/1999/xlink">
<g id="graph0" class="graph" transform="scale(1 1) rotate(0) translate(4 262.7)">
<title>oneDegreeRelationshipsDiagram</title>
<polygon fill="#ffffff" stroke="transparent" points="-4,4 -4,-262.7 492,-262.7 492,4 -4,4"/>
<text text-anchor="middle" x="72.4936" y="-7.3" font-family="Helvetica,sans-Serif" font-size="11.00" fill="#000000">Generated by SchemaSpy</text>
<!-- UserClaims -->
<g id="node1" class="node">
<title>UserClaims</title>
<g id="a_node1"><a xlink:href="../../tables/UserClaims.html" xlink:title="UserClaims" target="_top">
<polygon fill="#ffffff" stroke="transparent" points="244,-54.7 244,-254.7 480,-254.7 480,-54.7 244,-54.7"/>
<polygon fill="#f5f5f5" stroke="transparent" points="246,-229.7 246,-252.7 478,-252.7 478,-229.7 246,-229.7"/>
<polygon fill="none" stroke="#000000" points="246,-229.7 246,-252.7 478,-252.7 478,-229.7 246,-229.7"/>
<text text-anchor="start" x="251" y="-238.3" font-family="Helvetica,sans-Serif" font-weight="bold" font-size="11.00" fill="#000000">UserClaims</text>
<text text-anchor="start" x="443.0437" y="-237.8" font-family="Helvetica,sans-Serif" font-size="11.00" fill="#000000">[table]</text>
<polygon fill="none" stroke="#000000" points="246,-207.7 246,-229.7 362,-229.7 362,-207.7 246,-207.7"/>
<image xlink:href="../../images/primaryKeys.png" width="11px" height="12px" preserveAspectRatio="xMinYMin meet" x="251" y="-224.7"/>
<text text-anchor="start" x="266" y="-214.8" font-family="Helvetica,sans-Serif" font-size="11.00" fill="#000000">Id</text>
<polygon fill="none" stroke="#000000" points="362,-207.7 362,-229.7 478,-229.7 478,-207.7 362,-207.7"/>
<text text-anchor="start" x="365" y="-215.4" font-family="Helvetica,sans-Serif" font-size="11.00" fill="#000000">int identity[4]</text>
<polygon fill="none" stroke="#000000" points="246,-185.7 246,-207.7 362,-207.7 362,-185.7 246,-185.7"/>
<text text-anchor="start" x="266" y="-192.8" font-family="Helvetica,sans-Serif" font-size="11.00" fill="#000000">CreatedAtUtc</text>
<polygon fill="none" stroke="#000000" points="362,-185.7 362,-207.7 478,-207.7 478,-185.7 362,-185.7"/>
<text text-anchor="start" x="365" y="-193.4" font-family="Helvetica,sans-Serif" font-size="11.00" fill="#000000">datetime2[16,7]</text>
<polygon fill="none" stroke="#000000" points="246,-163.7 246,-185.7 362,-185.7 362,-163.7 246,-163.7"/>
<text text-anchor="start" x="266" y="-170.8" font-family="Helvetica,sans-Serif" font-size="11.00" fill="#000000">UpdatedAtUtc</text>
<polygon fill="none" stroke="#000000" points="362,-163.7 362,-185.7 478,-185.7 478,-163.7 362,-163.7"/>
<text text-anchor="start" x="365" y="-171.4" font-family="Helvetica,sans-Serif" font-size="11.00" fill="#000000">datetime2[16,7]</text>
<polygon fill="none" stroke="#000000" points="246,-141.7 246,-163.7 362,-163.7 362,-141.7 246,-141.7"/>
<text text-anchor="start" x="266" y="-148.8" font-family="Helvetica,sans-Serif" font-size="11.00" fill="#000000">RowVersion</text>
<polygon fill="none" stroke="#000000" points="362,-141.7 362,-163.7 478,-163.7 478,-141.7 362,-141.7"/>
<text text-anchor="start" x="365" y="-149.4" font-family="Helvetica,sans-Serif" font-size="11.00" fill="#000000">timestamp[8]</text>
<polygon fill="#ffffff" stroke="transparent" points="246,-119.7 246,-141.7 362,-141.7 362,-119.7 246,-119.7"/>
<polygon fill="none" stroke="#000000" points="246,-119.7 246,-141.7 362,-141.7 362,-119.7 246,-119.7"/>
<image xlink:href="../../images/foreignKeys.png" width="11px" height="12px" preserveAspectRatio="xMinYMin meet" x="251" y="-136.7"/>
<text text-anchor="start" x="266" y="-126.8" font-family="Helvetica,sans-Serif" font-size="11.00" fill="#000000">UserId</text>
<polygon fill="none" stroke="#000000" points="362,-119.7 362,-141.7 478,-141.7 478,-119.7 362,-119.7"/>
<text text-anchor="start" x="365" y="-127.4" font-family="Helvetica,sans-Serif" font-size="11.00" fill="#000000">int[4]</text>
<polygon fill="none" stroke="#000000" points="246,-97.7 246,-119.7 362,-119.7 362,-97.7 246,-97.7"/>
<text text-anchor="start" x="266" y="-104.8" font-family="Helvetica,sans-Serif" font-size="11.00" fill="#000000">ClaimType</text>
<polygon fill="none" stroke="#000000" points="362,-97.7 362,-119.7 478,-119.7 478,-97.7 362,-97.7"/>
<text text-anchor="start" x="364.9769" y="-105.4" font-family="Helvetica,sans-Serif" font-size="11.00" fill="#000000">nvarchar[2147483647]</text>
<polygon fill="none" stroke="#000000" points="246,-75.7 246,-97.7 362,-97.7 362,-75.7 246,-75.7"/>
<text text-anchor="start" x="266" y="-82.8" font-family="Helvetica,sans-Serif" font-size="11.00" fill="#000000">ClaimValue</text>
<polygon fill="none" stroke="#000000" points="362,-75.7 362,-97.7 478,-97.7 478,-75.7 362,-75.7"/>
<text text-anchor="start" x="364.9769" y="-83.4" font-family="Helvetica,sans-Serif" font-size="11.00" fill="#000000">nvarchar[2147483647]</text>
<polygon fill="#ffffff" stroke="transparent" points="246,-56.7 246,-75.7 308,-75.7 308,-56.7 246,-56.7"/>
<polygon fill="none" stroke="#000000" points="246,-56.7 246,-75.7 308,-75.7 308,-56.7 246,-56.7"/>
<text text-anchor="start" x="249" y="-62.8" font-family="Helvetica,sans-Serif" font-size="11.00" fill="#000000">&lt; 1</text>
<polygon fill="#ffffff" stroke="transparent" points="308,-56.7 308,-75.7 362,-75.7 362,-56.7 308,-56.7"/>
<polygon fill="none" stroke="#000000" points="308,-56.7 308,-75.7 362,-75.7 362,-56.7 308,-56.7"/>
<text text-anchor="start" x="352.8862" y="-62.8" font-family="Helvetica,sans-Serif" font-size="11.00" fill="#000000"> &#160;</text>
<polygon fill="#ffffff" stroke="transparent" points="362,-56.7 362,-75.7 478,-75.7 478,-56.7 362,-56.7"/>
<polygon fill="none" stroke="#000000" points="362,-56.7 362,-75.7 478,-75.7 478,-56.7 362,-56.7"/>
<text text-anchor="start" x="459.4053" y="-62.8" font-family="Helvetica,sans-Serif" font-size="11.00" fill="#000000">0 &gt;</text>
<polygon fill="none" stroke="#000000" stroke-width="2" points="245,-55.7 245,-253.7 479,-253.7 479,-55.7 245,-55.7"/>
</a>
</g>
</g>
<!-- Users -->
<g id="node2" class="node">
<title>Users</title>
<g id="a_node2"><a xlink:href="../../tables/Users.html" xlink:title="Users" target="_top">
<polygon fill="#ffffff" stroke="transparent" points="8,-38.2 8,-165.2 195,-165.2 195,-38.2 8,-38.2"/>
<polygon fill="#f5f5f5" stroke="transparent" points="8.5,-141.7 8.5,-164.7 195.5,-164.7 195.5,-141.7 8.5,-141.7"/>
<polygon fill="none" stroke="#000000" points="8.5,-141.7 8.5,-164.7 195.5,-164.7 195.5,-141.7 8.5,-141.7"/>
<text text-anchor="start" x="13.5" y="-150.3" font-family="Helvetica,sans-Serif" font-weight="bold" font-size="11.00" fill="#000000">Users</text>
<text text-anchor="start" x="160.5437" y="-149.8" font-family="Helvetica,sans-Serif" font-size="11.00" fill="#000000">[table]</text>
<polygon fill="none" stroke="#000000" points="8.5,-119.7 8.5,-141.7 195.5,-141.7 195.5,-119.7 8.5,-119.7"/>
<image xlink:href="../../images/primaryKeys.png" width="11px" height="12px" preserveAspectRatio="xMinYMin meet" x="13.5" y="-136.7"/>
<text text-anchor="start" x="28.5" y="-126.8" font-family="Helvetica,sans-Serif" font-size="11.00" fill="#000000">Id</text>
<polygon fill="#ffffff" stroke="transparent" points="8.5,-97.7 8.5,-119.7 195.5,-119.7 195.5,-97.7 8.5,-97.7"/>
<polygon fill="none" stroke="#000000" points="8.5,-97.7 8.5,-119.7 195.5,-119.7 195.5,-97.7 8.5,-97.7"/>
<text text-anchor="start" x="28.5" y="-104.8" font-family="Helvetica,sans-Serif" font-size="11.00" fill="#000000">NormalizedUserName</text>
<polygon fill="#ffffff" stroke="transparent" points="8.5,-75.7 8.5,-97.7 195.5,-97.7 195.5,-75.7 8.5,-75.7"/>
<polygon fill="none" stroke="#000000" points="8.5,-75.7 8.5,-97.7 195.5,-97.7 195.5,-75.7 8.5,-75.7"/>
<text text-anchor="start" x="28.5" y="-82.8" font-family="Helvetica,sans-Serif" font-size="11.00" fill="#000000">NormalizedEmail</text>
<polygon fill="none" stroke="#000000" points="8.5,-56.7 8.5,-75.7 195.5,-75.7 195.5,-56.7 8.5,-56.7"/>
<text text-anchor="start" x="11.5" y="-62.8" font-family="Helvetica,sans-Serif" font-size="11.00" fill="#000000">...</text>
<polygon fill="#ffffff" stroke="transparent" points="8.5,-37.7 8.5,-56.7 91.5,-56.7 91.5,-37.7 8.5,-37.7"/>
<polygon fill="none" stroke="#000000" points="8.5,-37.7 8.5,-56.7 91.5,-56.7 91.5,-37.7 8.5,-37.7"/>
<text text-anchor="start" x="11.5" y="-43.8" font-family="Helvetica,sans-Serif" font-size="11.00" fill="#000000"> &#160;</text>
<polygon fill="#ffffff" stroke="transparent" points="91.5,-37.7 91.5,-56.7 138.5,-56.7 138.5,-37.7 91.5,-37.7"/>
<polygon fill="none" stroke="#000000" points="91.5,-37.7 91.5,-56.7 138.5,-56.7 138.5,-37.7 91.5,-37.7"/>
<text text-anchor="start" x="129.3862" y="-43.8" font-family="Helvetica,sans-Serif" font-size="11.00" fill="#000000"> &#160;</text>
<polygon fill="#ffffff" stroke="transparent" points="138.5,-37.7 138.5,-56.7 195.5,-56.7 195.5,-37.7 138.5,-37.7"/>
<polygon fill="none" stroke="#000000" points="138.5,-37.7 138.5,-56.7 195.5,-56.7 195.5,-37.7 138.5,-37.7"/>
<text text-anchor="start" x="176.9053" y="-43.8" font-family="Helvetica,sans-Serif" font-size="11.00" fill="#000000">6 &gt;</text>
</a>
</g>
</g>
<!-- UserClaims&#45;&gt;Users -->
<g id="edge1" class="edge">
<title>UserClaims:w&#45;&gt;Users:e</title>
<path fill="none" stroke="#000000" d="M231.4203,-130.7C219.5435,-130.7 212.158,-130.7 195.5,-130.7"/>
<polygon fill="#000000" stroke="#000000" points="238,-130.7001 246,-134.3 242,-130.7 246,-130.7 246,-130.7 246,-130.7 242,-130.7 246,-127.1 238,-130.7001 238,-130.7001"/>
<ellipse fill="none" stroke="#000000" cx="234.8" cy="-130.7001" rx="3.2" ry="3.2"/>
</g>
</g>
</svg>
