<?xml version="1.0" encoding="UTF-8" standalone="no"?>
<!DOCTYPE svg PUBLIC "-//W3C//DTD SVG 1.1//EN"
 "http://www.w3.org/Graphics/SVG/1.1/DTD/svg11.dtd">
<!-- Generated by graphviz version 2.40.1 (20161225.0304)
 -->
<!-- Title: twoDegreesRelationshipsDiagram Pages: 1 -->
<svg width="1182pt" height="622pt"
 viewBox="0.00 0.00 1182.00 622.16" xmlns="http://www.w3.org/2000/svg" xmlns:xlink="http://www.w3.org/1999/xlink">
<g id="graph0" class="graph" transform="scale(1 1) rotate(0) translate(4 618.1587)">
<title>twoDegreesRelationshipsDiagram</title>
<polygon fill="#ffffff" stroke="transparent" points="-4,4 -4,-618.1587 1178,-618.1587 1178,4 -4,4"/>
<text text-anchor="middle" x="72.4936" y="-7.3" font-family="Helvetica,sans-Serif" font-size="11.00" fill="#000000">Generated by SchemaSpy</text>
<!-- HospitalizationInsurances -->
<g id="node1" class="node">
<title>HospitalizationInsurances</title>
<g id="a_node1"><a xlink:href="../../tables/HospitalizationInsurances.html" xlink:title="HospitalizationInsurances" target="_top">
<polygon fill="#ffffff" stroke="transparent" points="616.5,-247.1587 616.5,-308.1587 845.5,-308.1587 845.5,-247.1587 616.5,-247.1587"/>
<polygon fill="#f5f5f5" stroke="transparent" points="617,-284.6587 617,-307.6587 846,-307.6587 846,-284.6587 617,-284.6587"/>
<polygon fill="none" stroke="#000000" points="617,-284.6587 617,-307.6587 846,-307.6587 846,-284.6587 617,-284.6587"/>
<text text-anchor="start" x="622" y="-293.2587" font-family="Helvetica,sans-Serif" font-weight="bold" font-size="11.00" fill="#000000">HospitalizationInsurances</text>
<text text-anchor="start" x="811.5219" y="-292.7587" font-family="Helvetica,sans-Serif" font-size="11.00" fill="#000000">[table]</text>
<polygon fill="none" stroke="#000000" points="617,-265.6587 617,-284.6587 846,-284.6587 846,-265.6587 617,-265.6587"/>
<text text-anchor="start" x="620" y="-271.7587" font-family="Helvetica,sans-Serif" font-size="11.00" fill="#000000">...</text>
<polygon fill="#ffffff" stroke="transparent" points="617,-246.6587 617,-265.6587 846,-265.6587 846,-246.6587 617,-246.6587"/>
<polygon fill="none" stroke="#000000" points="617,-246.6587 617,-265.6587 846,-265.6587 846,-246.6587 617,-246.6587"/>
<polygon fill="#ffffff" stroke="transparent" points="618,-247.6587 618,-264.6587 700,-264.6587 700,-247.6587 618,-247.6587"/>
<text text-anchor="start" x="620" y="-252.7587" font-family="Helvetica,sans-Serif" font-size="11.00" fill="#000000">&lt; 2</text>
<polygon fill="#ffffff" stroke="transparent" points="700,-247.6587 700,-264.6587 773,-264.6587 773,-247.6587 700,-247.6587"/>
<text text-anchor="start" x="733.4431" y="-252.7587" font-family="Helvetica,sans-Serif" font-size="11.00" fill="#000000"> &#160;</text>
<polygon fill="#ffffff" stroke="transparent" points="773,-247.6587 773,-264.6587 845,-264.6587 845,-247.6587 773,-247.6587"/>
<text text-anchor="start" x="836.8862" y="-252.7587" font-family="Helvetica,sans-Serif" font-size="11.00" fill="#000000"> &#160;</text>
<polygon fill="#000000" stroke="#000000" points="700,-247.6587 700,-264.6587 700,-264.6587 700,-247.6587 700,-247.6587"/>
<polygon fill="#000000" stroke="#000000" points="773,-247.6587 773,-264.6587 773,-264.6587 773,-247.6587 773,-247.6587"/>
</a>
</g>
</g>
<!-- Hospitalizations -->
<g id="node2" class="node">
<title>Hospitalizations</title>
<g id="a_node2"><a xlink:href="../../tables/Hospitalizations.html" xlink:title="Hospitalizations" target="_top">
<polygon fill="#ffffff" stroke="transparent" points="314,-96.1587 314,-267.1587 507,-267.1587 507,-96.1587 314,-96.1587"/>
<polygon fill="#f5f5f5" stroke="transparent" points="314.5,-243.6587 314.5,-266.6587 507.5,-266.6587 507.5,-243.6587 314.5,-243.6587"/>
<polygon fill="none" stroke="#000000" points="314.5,-243.6587 314.5,-266.6587 507.5,-266.6587 507.5,-243.6587 314.5,-243.6587"/>
<text text-anchor="start" x="319.5" y="-252.2587" font-family="Helvetica,sans-Serif" font-weight="bold" font-size="11.00" fill="#000000">Hospitalizations</text>
<text text-anchor="start" x="472.5437" y="-251.7587" font-family="Helvetica,sans-Serif" font-size="11.00" fill="#000000">[table]</text>
<polygon fill="none" stroke="#000000" points="314.5,-221.6587 314.5,-243.6587 507.5,-243.6587 507.5,-221.6587 314.5,-221.6587"/>
<image xlink:href="../../images/primaryKeys.png" width="11px" height="12px" preserveAspectRatio="xMinYMin meet" x="319.5" y="-238.659"/>
<text text-anchor="start" x="334.5" y="-228.7587" font-family="Helvetica,sans-Serif" font-size="11.00" fill="#000000">Id</text>
<polygon fill="#ffffff" stroke="transparent" points="314.5,-199.6587 314.5,-221.6587 507.5,-221.6587 507.5,-199.6587 314.5,-199.6587"/>
<polygon fill="none" stroke="#000000" points="314.5,-199.6587 314.5,-221.6587 507.5,-221.6587 507.5,-199.6587 314.5,-199.6587"/>
<image xlink:href="../../images/foreignKeys.png" width="11px" height="12px" preserveAspectRatio="xMinYMin meet" x="319.5" y="-216.659"/>
<text text-anchor="start" x="334.5" y="-206.7587" font-family="Helvetica,sans-Serif" font-size="11.00" fill="#000000">PatientId</text>
<polygon fill="#ffffff" stroke="transparent" points="314.5,-177.6587 314.5,-199.6587 507.5,-199.6587 507.5,-177.6587 314.5,-177.6587"/>
<polygon fill="none" stroke="#000000" points="314.5,-177.6587 314.5,-199.6587 507.5,-199.6587 507.5,-177.6587 314.5,-177.6587"/>
<image xlink:href="../../images/foreignKeys.png" width="11px" height="12px" preserveAspectRatio="xMinYMin meet" x="319.5" y="-194.659"/>
<text text-anchor="start" x="334.5" y="-184.7587" font-family="Helvetica,sans-Serif" font-size="11.00" fill="#000000">FacilityId</text>
<polygon fill="#ffffff" stroke="transparent" points="314.5,-155.6587 314.5,-177.6587 507.5,-177.6587 507.5,-155.6587 314.5,-155.6587"/>
<polygon fill="none" stroke="#000000" points="314.5,-155.6587 314.5,-177.6587 507.5,-177.6587 507.5,-155.6587 314.5,-155.6587"/>
<text text-anchor="start" x="334.5" y="-162.7587" font-family="Helvetica,sans-Serif" font-size="11.00" fill="#000000">CaseId</text>
<polygon fill="#ffffff" stroke="transparent" points="314.5,-133.6587 314.5,-155.6587 507.5,-155.6587 507.5,-133.6587 314.5,-133.6587"/>
<polygon fill="none" stroke="#000000" points="314.5,-133.6587 314.5,-155.6587 507.5,-155.6587 507.5,-133.6587 314.5,-133.6587"/>
<image xlink:href="../../images/foreignKeys.png" width="11px" height="12px" preserveAspectRatio="xMinYMin meet" x="319.5" y="-150.659"/>
<text text-anchor="start" x="334.5" y="-140.7587" font-family="Helvetica,sans-Serif" font-size="11.00" fill="#000000">HospitalizationStatusId</text>
<polygon fill="none" stroke="#000000" points="314.5,-114.6587 314.5,-133.6587 507.5,-133.6587 507.5,-114.6587 314.5,-114.6587"/>
<text text-anchor="start" x="317.5" y="-120.7587" font-family="Helvetica,sans-Serif" font-size="11.00" fill="#000000">...</text>
<polygon fill="#ffffff" stroke="transparent" points="314.5,-95.6587 314.5,-114.6587 507.5,-114.6587 507.5,-95.6587 314.5,-95.6587"/>
<polygon fill="none" stroke="#000000" points="314.5,-95.6587 314.5,-114.6587 507.5,-114.6587 507.5,-95.6587 314.5,-95.6587"/>
<polygon fill="#ffffff" stroke="transparent" points="315.5,-96.6587 315.5,-113.6587 382.5,-113.6587 382.5,-96.6587 315.5,-96.6587"/>
<text text-anchor="start" x="317.5" y="-101.7587" font-family="Helvetica,sans-Serif" font-size="11.00" fill="#000000">&lt; 3</text>
<polygon fill="#ffffff" stroke="transparent" points="382.5,-96.6587 382.5,-113.6587 440.5,-113.6587 440.5,-96.6587 382.5,-96.6587"/>
<text text-anchor="start" x="408.4431" y="-101.7587" font-family="Helvetica,sans-Serif" font-size="11.00" fill="#000000"> &#160;</text>
<polygon fill="#ffffff" stroke="transparent" points="440.5,-96.6587 440.5,-113.6587 506.5,-113.6587 506.5,-96.6587 440.5,-96.6587"/>
<text text-anchor="start" x="488.9053" y="-101.7587" font-family="Helvetica,sans-Serif" font-size="11.00" fill="#000000">4 &gt;</text>
<polygon fill="#000000" stroke="#000000" points="382.5,-96.6587 382.5,-113.6587 382.5,-113.6587 382.5,-96.6587 382.5,-96.6587"/>
<polygon fill="#000000" stroke="#000000" points="440.5,-96.6587 440.5,-113.6587 440.5,-113.6587 440.5,-96.6587 440.5,-96.6587"/>
</a>
</g>
</g>
<!-- HospitalizationInsurances&#45;&gt;Hospitalizations -->
<g id="edge1" class="edge">
<title>HospitalizationInsurances:w&#45;&gt;Hospitalizations:e</title>
<path fill="none" stroke="#000000" d="M602.4708,-273.447C563.3258,-266.5607 554.33,-232.6587 507.5,-232.6587"/>
<polygon fill="#000000" stroke="#000000" points="609.0277,-273.9938 616.7008,-278.2463 613.0138,-274.3263 617,-274.6587 617,-274.6587 617,-274.6587 613.0138,-274.3263 617.2992,-271.0712 609.0277,-273.9938 609.0277,-273.9938"/>
<ellipse fill="none" stroke="#000000" cx="605.8387" cy="-273.7278" rx="3.2" ry="3.2"/>
</g>
<!-- Facilities -->
<g id="node3" class="node">
<title>Facilities</title>
<g id="a_node3"><a xlink:href="../../tables/Facilities.html" xlink:title="Facilities" target="_top">
<polygon fill="#ffffff" stroke="transparent" points="10,-336.6587 10,-514.6587 219,-514.6587 219,-336.6587 10,-336.6587"/>
<polygon fill="#f5f5f5" stroke="transparent" points="12.5,-489.6587 12.5,-512.6587 217.5,-512.6587 217.5,-489.6587 12.5,-489.6587"/>
<polygon fill="none" stroke="#000000" points="12.5,-489.6587 12.5,-512.6587 217.5,-512.6587 217.5,-489.6587 12.5,-489.6587"/>
<text text-anchor="start" x="17.5" y="-498.2587" font-family="Helvetica,sans-Serif" font-weight="bold" font-size="11.00" fill="#000000">Facilities</text>
<text text-anchor="start" x="182.5437" y="-497.7587" font-family="Helvetica,sans-Serif" font-size="11.00" fill="#000000">[table]</text>
<polygon fill="none" stroke="#000000" points="12.5,-467.6587 12.5,-489.6587 136.5,-489.6587 136.5,-467.6587 12.5,-467.6587"/>
<image xlink:href="../../images/primaryKeys.png" width="11px" height="12px" preserveAspectRatio="xMinYMin meet" x="17.5" y="-484.659"/>
<text text-anchor="start" x="32.5" y="-474.7587" font-family="Helvetica,sans-Serif" font-size="11.00" fill="#000000">Id</text>
<polygon fill="none" stroke="#000000" points="136.5,-467.6587 136.5,-489.6587 217.5,-489.6587 217.5,-467.6587 136.5,-467.6587"/>
<text text-anchor="start" x="139.5" y="-475.3587" font-family="Helvetica,sans-Serif" font-size="11.00" fill="#000000">int identity[4]</text>
<polygon fill="none" stroke="#000000" points="12.5,-445.6587 12.5,-467.6587 136.5,-467.6587 136.5,-445.6587 12.5,-445.6587"/>
<text text-anchor="start" x="32.5" y="-452.7587" font-family="Helvetica,sans-Serif" font-size="11.00" fill="#000000">Name</text>
<polygon fill="none" stroke="#000000" points="136.5,-445.6587 136.5,-467.6587 217.5,-467.6587 217.5,-445.6587 136.5,-445.6587"/>
<text text-anchor="start" x="139.5" y="-453.3587" font-family="Helvetica,sans-Serif" font-size="11.00" fill="#000000">nvarchar[200]</text>
<polygon fill="none" stroke="#000000" points="12.5,-423.6587 12.5,-445.6587 136.5,-445.6587 136.5,-423.6587 12.5,-423.6587"/>
<text text-anchor="start" x="32.5" y="-430.7587" font-family="Helvetica,sans-Serif" font-size="11.00" fill="#000000">Abbreviation</text>
<polygon fill="none" stroke="#000000" points="136.5,-423.6587 136.5,-445.6587 217.5,-445.6587 217.5,-423.6587 136.5,-423.6587"/>
<text text-anchor="start" x="139.5" y="-431.3587" font-family="Helvetica,sans-Serif" font-size="11.00" fill="#000000">nvarchar[20]</text>
<polygon fill="none" stroke="#000000" points="12.5,-401.6587 12.5,-423.6587 136.5,-423.6587 136.5,-401.6587 12.5,-401.6587"/>
<text text-anchor="start" x="32.5" y="-408.7587" font-family="Helvetica,sans-Serif" font-size="11.00" fill="#000000">CreatedAtUtc</text>
<polygon fill="none" stroke="#000000" points="136.5,-401.6587 136.5,-423.6587 217.5,-423.6587 217.5,-401.6587 136.5,-401.6587"/>
<text text-anchor="start" x="139.0967" y="-409.3587" font-family="Helvetica,sans-Serif" font-size="11.00" fill="#000000">datetime2[16,7]</text>
<polygon fill="none" stroke="#000000" points="12.5,-379.6587 12.5,-401.6587 136.5,-401.6587 136.5,-379.6587 12.5,-379.6587"/>
<text text-anchor="start" x="32.5" y="-386.7587" font-family="Helvetica,sans-Serif" font-size="11.00" fill="#000000">UpdatedAtUtc</text>
<polygon fill="none" stroke="#000000" points="136.5,-379.6587 136.5,-401.6587 217.5,-401.6587 217.5,-379.6587 136.5,-379.6587"/>
<text text-anchor="start" x="139.0967" y="-387.3587" font-family="Helvetica,sans-Serif" font-size="11.00" fill="#000000">datetime2[16,7]</text>
<polygon fill="none" stroke="#000000" points="12.5,-357.6587 12.5,-379.6587 136.5,-379.6587 136.5,-357.6587 12.5,-357.6587"/>
<text text-anchor="start" x="32.5" y="-364.7587" font-family="Helvetica,sans-Serif" font-size="11.00" fill="#000000">RowVersion</text>
<polygon fill="none" stroke="#000000" points="136.5,-357.6587 136.5,-379.6587 217.5,-379.6587 217.5,-357.6587 136.5,-357.6587"/>
<text text-anchor="start" x="139.5" y="-365.3587" font-family="Helvetica,sans-Serif" font-size="11.00" fill="#000000">timestamp[8]</text>
<polygon fill="#ffffff" stroke="transparent" points="12.5,-338.6587 12.5,-357.6587 217.5,-357.6587 217.5,-338.6587 12.5,-338.6587"/>
<polygon fill="none" stroke="#000000" points="12.5,-338.6587 12.5,-357.6587 217.5,-357.6587 217.5,-338.6587 12.5,-338.6587"/>
<polygon fill="#ffffff" stroke="transparent" points="13.5,-339.6587 13.5,-356.6587 84.5,-356.6587 84.5,-339.6587 13.5,-339.6587"/>
<text text-anchor="start" x="15.5" y="-344.7587" font-family="Helvetica,sans-Serif" font-size="11.00" fill="#000000">&lt; 0</text>
<polygon fill="#ffffff" stroke="transparent" points="84.5,-339.6587 84.5,-356.6587 146.5,-356.6587 146.5,-339.6587 84.5,-339.6587"/>
<text text-anchor="start" x="112.4431" y="-344.7587" font-family="Helvetica,sans-Serif" font-size="11.00" fill="#000000"> &#160;</text>
<polygon fill="#ffffff" stroke="transparent" points="146.5,-339.6587 146.5,-356.6587 216.5,-356.6587 216.5,-339.6587 146.5,-339.6587"/>
<text text-anchor="start" x="198.9053" y="-344.7587" font-family="Helvetica,sans-Serif" font-size="11.00" fill="#000000">3 &gt;</text>
<polygon fill="#000000" stroke="#000000" points="84.5,-339.6587 84.5,-356.6587 84.5,-356.6587 84.5,-339.6587 84.5,-339.6587"/>
<polygon fill="#000000" stroke="#000000" points="146.5,-339.6587 146.5,-356.6587 146.5,-356.6587 146.5,-339.6587 146.5,-339.6587"/>
<polygon fill="none" stroke="#000000" stroke-width="2" points="11,-337.6587 11,-513.6587 218,-513.6587 218,-337.6587 11,-337.6587"/>
</a>
</g>
</g>
<!-- Hospitalizations&#45;&gt;Facilities -->
<g id="edge2" class="edge">
<title>Hospitalizations:w&#45;&gt;Facilities:e</title>
<path fill="none" stroke="#000000" d="M308.8817,-202.257C288.5321,-259.5911 221.1913,-478.6587 217.5,-478.6587"/>
<polygon fill="#000000" stroke="#000000" points="311.4452,-196.0525 317.8272,-190.0334 312.9726,-192.3556 314.5,-188.6587 314.5,-188.6587 314.5,-188.6587 312.9726,-192.3556 311.1728,-187.284 311.4452,-196.0525 311.4452,-196.0525"/>
<ellipse fill="none" stroke="#000000" cx="310.2232" cy="-199.01" rx="3.2" ry="3.2"/>
</g>
<!-- HospitalizationStatuses -->
<g id="node4" class="node">
<title>HospitalizationStatuses</title>
<g id="a_node4"><a xlink:href="../../tables/HospitalizationStatuses.html" xlink:title="HospitalizationStatuses" target="_top">
<polygon fill="#ffffff" stroke="transparent" points="8,-44.1587 8,-105.1587 221,-105.1587 221,-44.1587 8,-44.1587"/>
<polygon fill="#f5f5f5" stroke="transparent" points="8.5,-81.6587 8.5,-104.6587 221.5,-104.6587 221.5,-81.6587 8.5,-81.6587"/>
<polygon fill="none" stroke="#000000" points="8.5,-81.6587 8.5,-104.6587 221.5,-104.6587 221.5,-81.6587 8.5,-81.6587"/>
<text text-anchor="start" x="13.5" y="-90.2587" font-family="Helvetica,sans-Serif" font-weight="bold" font-size="11.00" fill="#000000">HospitalizationStatuses</text>
<text text-anchor="start" x="187.0219" y="-89.7587" font-family="Helvetica,sans-Serif" font-size="11.00" fill="#000000">[table]</text>
<polygon fill="none" stroke="#000000" points="8.5,-62.6587 8.5,-81.6587 221.5,-81.6587 221.5,-62.6587 8.5,-62.6587"/>
<text text-anchor="start" x="11.5" y="-68.7587" font-family="Helvetica,sans-Serif" font-size="11.00" fill="#000000">...</text>
<polygon fill="#ffffff" stroke="transparent" points="8.5,-43.6587 8.5,-62.6587 221.5,-62.6587 221.5,-43.6587 8.5,-43.6587"/>
<polygon fill="none" stroke="#000000" points="8.5,-43.6587 8.5,-62.6587 221.5,-62.6587 221.5,-43.6587 8.5,-43.6587"/>
<polygon fill="#ffffff" stroke="transparent" points="9.5,-44.6587 9.5,-61.6587 77.5,-61.6587 77.5,-44.6587 9.5,-44.6587"/>
<text text-anchor="start" x="11.5" y="-49.7587" font-family="Helvetica,sans-Serif" font-size="11.00" fill="#000000"> &#160;</text>
<polygon fill="#ffffff" stroke="transparent" points="77.5,-44.6587 77.5,-61.6587 144.5,-61.6587 144.5,-44.6587 77.5,-44.6587"/>
<text text-anchor="start" x="107.9431" y="-49.7587" font-family="Helvetica,sans-Serif" font-size="11.00" fill="#000000"> &#160;</text>
<polygon fill="#ffffff" stroke="transparent" points="144.5,-44.6587 144.5,-61.6587 220.5,-61.6587 220.5,-44.6587 144.5,-44.6587"/>
<text text-anchor="start" x="202.9053" y="-49.7587" font-family="Helvetica,sans-Serif" font-size="11.00" fill="#000000">3 &gt;</text>
<polygon fill="#000000" stroke="#000000" points="77.5,-44.6587 77.5,-61.6587 77.5,-61.6587 77.5,-44.6587 77.5,-44.6587"/>
<polygon fill="#000000" stroke="#000000" points="144.5,-44.6587 144.5,-61.6587 144.5,-61.6587 144.5,-44.6587 144.5,-44.6587"/>
</a>
</g>
</g>
<!-- Hospitalizations&#45;&gt;HospitalizationStatuses -->
<g id="edge3" class="edge">
<title>Hospitalizations:w&#45;&gt;HospitalizationStatuses:e</title>
<path fill="none" stroke="#000000" d="M299.8795,-142.3939C263.7856,-130.0723 268.5041,-71.6587 221.5,-71.6587"/>
<polygon fill="#000000" stroke="#000000" points="306.5943,-143.434 313.9489,-148.2163 310.5471,-144.0464 314.5,-144.6587 314.5,-144.6587 314.5,-144.6587 310.5471,-144.0464 315.0511,-141.1011 306.5943,-143.434 306.5943,-143.434"/>
<ellipse fill="none" stroke="#000000" cx="303.432" cy="-142.9442" rx="3.2" ry="3.2"/>
</g>
<!-- Patients -->
<g id="node5" class="node">
<title>Patients</title>
<g id="a_node5"><a xlink:href="../../tables/Patients.html" xlink:title="Patients" target="_top">
<polygon fill="#ffffff" stroke="transparent" points="65,-254.1587 65,-315.1587 164,-315.1587 164,-254.1587 65,-254.1587"/>
<polygon fill="#f5f5f5" stroke="transparent" points="65.5,-291.6587 65.5,-314.6587 164.5,-314.6587 164.5,-291.6587 65.5,-291.6587"/>
<polygon fill="none" stroke="#000000" points="65.5,-291.6587 65.5,-314.6587 164.5,-314.6587 164.5,-291.6587 65.5,-291.6587"/>
<text text-anchor="start" x="70.5" y="-300.2587" font-family="Helvetica,sans-Serif" font-weight="bold" font-size="11.00" fill="#000000">Patients</text>
<text text-anchor="start" x="130.0219" y="-299.7587" font-family="Helvetica,sans-Serif" font-size="11.00" fill="#000000">[table]</text>
<polygon fill="none" stroke="#000000" points="65.5,-272.6587 65.5,-291.6587 164.5,-291.6587 164.5,-272.6587 65.5,-272.6587"/>
<text text-anchor="start" x="68.5" y="-278.7587" font-family="Helvetica,sans-Serif" font-size="11.00" fill="#000000">...</text>
<polygon fill="#ffffff" stroke="transparent" points="65.5,-253.6587 65.5,-272.6587 164.5,-272.6587 164.5,-253.6587 65.5,-253.6587"/>
<polygon fill="none" stroke="#000000" points="65.5,-253.6587 65.5,-272.6587 164.5,-272.6587 164.5,-253.6587 65.5,-253.6587"/>
<polygon fill="#ffffff" stroke="transparent" points="66.5,-254.6587 66.5,-271.6587 96.5,-271.6587 96.5,-254.6587 66.5,-254.6587"/>
<text text-anchor="start" x="68.5" y="-259.7587" font-family="Helvetica,sans-Serif" font-size="11.00" fill="#000000"> &#160;</text>
<polygon fill="#ffffff" stroke="transparent" points="96.5,-254.6587 96.5,-271.6587 125.5,-271.6587 125.5,-254.6587 96.5,-254.6587"/>
<text text-anchor="start" x="107.9431" y="-259.7587" font-family="Helvetica,sans-Serif" font-size="11.00" fill="#000000"> &#160;</text>
<polygon fill="#ffffff" stroke="transparent" points="125.5,-254.6587 125.5,-271.6587 163.5,-271.6587 163.5,-254.6587 125.5,-254.6587"/>
<text text-anchor="start" x="145.9053" y="-259.7587" font-family="Helvetica,sans-Serif" font-size="11.00" fill="#000000">3 &gt;</text>
<polygon fill="#000000" stroke="#000000" points="96.5,-254.6587 96.5,-271.6587 96.5,-271.6587 96.5,-254.6587 96.5,-254.6587"/>
<polygon fill="#000000" stroke="#000000" points="125.5,-254.6587 125.5,-271.6587 125.5,-271.6587 125.5,-254.6587 125.5,-254.6587"/>
</a>
</g>
</g>
<!-- Hospitalizations&#45;&gt;Patients -->
<g id="edge4" class="edge">
<title>Hospitalizations:w&#45;&gt;Patients:e</title>
<path fill="none" stroke="#000000" d="M299.9493,-211.6624C240.0405,-220.2921 233.0716,-281.6587 164.5,-281.6587"/>
<polygon fill="#000000" stroke="#000000" points="306.519,-211.2093 314.7478,-214.2502 310.5095,-210.934 314.5,-210.6587 314.5,-210.6587 314.5,-210.6587 310.5095,-210.934 314.2522,-207.0672 306.519,-211.2093 306.519,-211.2093"/>
<ellipse fill="none" stroke="#000000" cx="303.3265" cy="-211.4295" rx="3.2" ry="3.2"/>
</g>
<!-- HospitalizationStatusHistories -->
<g id="node6" class="node">
<title>HospitalizationStatusHistories</title>
<g id="a_node6"><a xlink:href="../../tables/HospitalizationStatusHistories.html" xlink:title="HospitalizationStatusHistories" target="_top">
<polygon fill="#ffffff" stroke="transparent" points="600,-55.1587 600,-116.1587 862,-116.1587 862,-55.1587 600,-55.1587"/>
<polygon fill="#f5f5f5" stroke="transparent" points="600,-92.6587 600,-115.6587 862,-115.6587 862,-92.6587 600,-92.6587"/>
<polygon fill="none" stroke="#000000" points="600,-92.6587 600,-115.6587 862,-115.6587 862,-92.6587 600,-92.6587"/>
<text text-anchor="start" x="605" y="-101.2587" font-family="Helvetica,sans-Serif" font-weight="bold" font-size="11.00" fill="#000000">HospitalizationStatusHistories</text>
<text text-anchor="start" x="827.5219" y="-100.7587" font-family="Helvetica,sans-Serif" font-size="11.00" fill="#000000">[table]</text>
<polygon fill="none" stroke="#000000" points="600,-73.6587 600,-92.6587 862,-92.6587 862,-73.6587 600,-73.6587"/>
<text text-anchor="start" x="603" y="-79.7587" font-family="Helvetica,sans-Serif" font-size="11.00" fill="#000000">...</text>
<polygon fill="#ffffff" stroke="transparent" points="600,-54.6587 600,-73.6587 862,-73.6587 862,-54.6587 600,-54.6587"/>
<polygon fill="none" stroke="#000000" points="600,-54.6587 600,-73.6587 862,-73.6587 862,-54.6587 600,-54.6587"/>
<polygon fill="#ffffff" stroke="transparent" points="601,-55.6587 601,-72.6587 694,-72.6587 694,-55.6587 601,-55.6587"/>
<text text-anchor="start" x="603" y="-60.7587" font-family="Helvetica,sans-Serif" font-size="11.00" fill="#000000">&lt; 2</text>
<polygon fill="#ffffff" stroke="transparent" points="694,-55.6587 694,-72.6587 778,-72.6587 778,-55.6587 694,-55.6587"/>
<text text-anchor="start" x="732.9431" y="-60.7587" font-family="Helvetica,sans-Serif" font-size="11.00" fill="#000000"> &#160;</text>
<polygon fill="#ffffff" stroke="transparent" points="778,-55.6587 778,-72.6587 861,-72.6587 861,-55.6587 778,-55.6587"/>
<text text-anchor="start" x="852.8862" y="-60.7587" font-family="Helvetica,sans-Serif" font-size="11.00" fill="#000000"> &#160;</text>
<polygon fill="#000000" stroke="#000000" points="694,-55.6587 694,-72.6587 694,-72.6587 694,-55.6587 694,-55.6587"/>
<polygon fill="#000000" stroke="#000000" points="778,-55.6587 778,-72.6587 778,-72.6587 778,-55.6587 778,-55.6587"/>
</a>
</g>
</g>
<!-- HospitalizationStatusHistories&#45;&gt;Hospitalizations -->
<g id="edge5" class="edge">
<title>HospitalizationStatusHistories:w&#45;&gt;Hospitalizations:e</title>
<path fill="none" stroke="#000000" d="M585.4926,-84.7792C529.9928,-103.0109 580.3164,-232.6587 507.5,-232.6587"/>
<polygon fill="#000000" stroke="#000000" points="592.0841,-83.8158 600.5207,-86.2209 596.0421,-83.2372 600,-82.6587 600,-82.6587 600,-82.6587 596.0421,-83.2372 599.4793,-79.0966 592.0841,-83.8158 592.0841,-83.8158"/>
<ellipse fill="none" stroke="#000000" cx="588.9178" cy="-84.2786" rx="3.2" ry="3.2"/>
</g>
<!-- HospitalizationStatusHistories&#45;&gt;HospitalizationStatuses -->
<g id="edge6" class="edge">
<title>HospitalizationStatusHistories:w&#45;&gt;HospitalizationStatuses:e</title>
<path fill="none" stroke="#000000" d="M585.5277,-82.6309C429.1424,-82.0236 384.8628,-71.6587 221.5,-71.6587"/>
<polygon fill="#000000" stroke="#000000" points="592,-82.6433 599.9931,-86.2587 596,-82.651 600,-82.6587 600,-82.6587 600,-82.6587 596,-82.651 600.0069,-79.0587 592,-82.6433 592,-82.6433"/>
<ellipse fill="none" stroke="#000000" cx="588.8" cy="-82.6371" rx="3.2" ry="3.2"/>
</g>
<!-- PatientFacilities -->
<g id="node7" class="node">
<title>PatientFacilities</title>
<g id="a_node7"><a xlink:href="../../tables/PatientFacilities.html" xlink:title="PatientFacilities" target="_top">
<polygon fill="#ffffff" stroke="transparent" points="331.5,-357.1587 331.5,-506.1587 489.5,-506.1587 489.5,-357.1587 331.5,-357.1587"/>
<polygon fill="#f5f5f5" stroke="transparent" points="331.5,-482.6587 331.5,-505.6587 489.5,-505.6587 489.5,-482.6587 331.5,-482.6587"/>
<polygon fill="none" stroke="#000000" points="331.5,-482.6587 331.5,-505.6587 489.5,-505.6587 489.5,-482.6587 331.5,-482.6587"/>
<text text-anchor="start" x="336.5" y="-491.2587" font-family="Helvetica,sans-Serif" font-weight="bold" font-size="11.00" fill="#000000">PatientFacilities</text>
<text text-anchor="start" x="455.0219" y="-490.7587" font-family="Helvetica,sans-Serif" font-size="11.00" fill="#000000">[table]</text>
<polygon fill="none" stroke="#000000" points="331.5,-460.6587 331.5,-482.6587 489.5,-482.6587 489.5,-460.6587 331.5,-460.6587"/>
<image xlink:href="../../images/primaryKeys.png" width="11px" height="12px" preserveAspectRatio="xMinYMin meet" x="336.5" y="-477.659"/>
<text text-anchor="start" x="360.5" y="-467.7587" font-family="Helvetica,sans-Serif" font-size="11.00" fill="#000000">Id</text>
<polygon fill="#ffffff" stroke="transparent" points="331.5,-438.6587 331.5,-460.6587 489.5,-460.6587 489.5,-438.6587 331.5,-438.6587"/>
<polygon fill="none" stroke="#000000" points="331.5,-438.6587 331.5,-460.6587 489.5,-460.6587 489.5,-438.6587 331.5,-438.6587"/>
<image xlink:href="../../images/foreignKeys.png" width="11px" height="12px" preserveAspectRatio="xMinYMin meet" x="336.5" y="-455.659"/>
<text text-anchor="start" x="360.5" y="-445.7587" font-family="Helvetica,sans-Serif" font-size="11.00" fill="#000000">PatientId</text>
<polygon fill="#ffffff" stroke="transparent" points="331.5,-416.6587 331.5,-438.6587 489.5,-438.6587 489.5,-416.6587 331.5,-416.6587"/>
<polygon fill="none" stroke="#000000" points="331.5,-416.6587 331.5,-438.6587 489.5,-438.6587 489.5,-416.6587 331.5,-416.6587"/>
<image xlink:href="../../images/foreignKeys.png" width="11px" height="12px" preserveAspectRatio="xMinYMin meet" x="336.5" y="-433.659"/>
<text text-anchor="start" x="360.5" y="-423.7587" font-family="Helvetica,sans-Serif" font-size="11.00" fill="#000000">FacilityId</text>
<polygon fill="#ffffff" stroke="transparent" points="331.5,-394.6587 331.5,-416.6587 489.5,-416.6587 489.5,-394.6587 331.5,-394.6587"/>
<polygon fill="none" stroke="#000000" points="331.5,-394.6587 331.5,-416.6587 489.5,-416.6587 489.5,-394.6587 331.5,-394.6587"/>
<text text-anchor="start" x="360.5" y="-401.7587" font-family="Helvetica,sans-Serif" font-size="11.00" fill="#000000">MRN</text>
<polygon fill="none" stroke="#000000" points="331.5,-375.6587 331.5,-394.6587 489.5,-394.6587 489.5,-375.6587 331.5,-375.6587"/>
<text text-anchor="start" x="334.5" y="-381.7587" font-family="Helvetica,sans-Serif" font-size="11.00" fill="#000000">...</text>
<polygon fill="#ffffff" stroke="transparent" points="331.5,-356.6587 331.5,-375.6587 489.5,-375.6587 489.5,-356.6587 331.5,-356.6587"/>
<polygon fill="none" stroke="#000000" points="331.5,-356.6587 331.5,-375.6587 489.5,-375.6587 489.5,-356.6587 331.5,-356.6587"/>
<polygon fill="#ffffff" stroke="transparent" points="332.5,-357.6587 332.5,-374.6587 390.5,-374.6587 390.5,-357.6587 332.5,-357.6587"/>
<text text-anchor="start" x="334.5" y="-362.7587" font-family="Helvetica,sans-Serif" font-size="11.00" fill="#000000">&lt; 2</text>
<polygon fill="#ffffff" stroke="transparent" points="390.5,-357.6587 390.5,-374.6587 439.5,-374.6587 439.5,-357.6587 390.5,-357.6587"/>
<text text-anchor="start" x="411.9431" y="-362.7587" font-family="Helvetica,sans-Serif" font-size="11.00" fill="#000000"> &#160;</text>
<polygon fill="#ffffff" stroke="transparent" points="439.5,-357.6587 439.5,-374.6587 488.5,-374.6587 488.5,-357.6587 439.5,-357.6587"/>
<text text-anchor="start" x="480.3862" y="-362.7587" font-family="Helvetica,sans-Serif" font-size="11.00" fill="#000000"> &#160;</text>
<polygon fill="#000000" stroke="#000000" points="390.5,-357.6587 390.5,-374.6587 390.5,-374.6587 390.5,-357.6587 390.5,-357.6587"/>
<polygon fill="#000000" stroke="#000000" points="439.5,-357.6587 439.5,-374.6587 439.5,-374.6587 439.5,-357.6587 439.5,-357.6587"/>
</a>
</g>
</g>
<!-- PatientFacilities&#45;&gt;Facilities -->
<g id="edge7" class="edge">
<title>PatientFacilities:w&#45;&gt;Facilities:e</title>
<path fill="none" stroke="#000000" d="M316.9147,-428.9706C274.9412,-436.9533 267.6937,-478.6587 217.5,-478.6587"/>
<polygon fill="#000000" stroke="#000000" points="323.5322,-428.3755 331.8225,-431.2442 327.5161,-428.0171 331.5,-427.6587 331.5,-427.6587 331.5,-427.6587 327.5161,-428.0171 331.1775,-424.0732 323.5322,-428.3755 323.5322,-428.3755"/>
<ellipse fill="none" stroke="#000000" cx="320.345" cy="-428.6622" rx="3.2" ry="3.2"/>
</g>
<!-- PatientFacilities&#45;&gt;Patients -->
<g id="edge8" class="edge">
<title>PatientFacilities:w&#45;&gt;Patients:e</title>
<path fill="none" stroke="#000000" d="M317.108,-448.4962C230.1184,-433.653 264.6401,-281.6587 164.5,-281.6587"/>
<polygon fill="#000000" stroke="#000000" points="323.526,-449.0146 331.2101,-453.247 327.513,-449.3366 331.5,-449.6587 331.5,-449.6587 331.5,-449.6587 327.513,-449.3366 331.7899,-446.0704 323.526,-449.0146 323.526,-449.0146"/>
<ellipse fill="none" stroke="#000000" cx="320.3364" cy="-448.7569" rx="3.2" ry="3.2"/>
</g>
<!-- Visits -->
<g id="node8" class="node">
<title>Visits</title>
<g id="a_node8"><a xlink:href="../../tables/Visits.html" xlink:title="Visits" target="_top">
<polygon fill="#ffffff" stroke="transparent" points="691.5,-137.1587 691.5,-198.1587 770.5,-198.1587 770.5,-137.1587 691.5,-137.1587"/>
<polygon fill="#f5f5f5" stroke="transparent" points="692,-174.6587 692,-197.6587 771,-197.6587 771,-174.6587 692,-174.6587"/>
<polygon fill="none" stroke="#000000" points="692,-174.6587 692,-197.6587 771,-197.6587 771,-174.6587 692,-174.6587"/>
<text text-anchor="start" x="697" y="-183.2587" font-family="Helvetica,sans-Serif" font-weight="bold" font-size="11.00" fill="#000000">Visits</text>
<text text-anchor="start" x="736.5219" y="-182.7587" font-family="Helvetica,sans-Serif" font-size="11.00" fill="#000000">[table]</text>
<polygon fill="none" stroke="#000000" points="692,-155.6587 692,-174.6587 771,-174.6587 771,-155.6587 692,-155.6587"/>
<text text-anchor="start" x="695" y="-161.7587" font-family="Helvetica,sans-Serif" font-size="11.00" fill="#000000">...</text>
<polygon fill="#ffffff" stroke="transparent" points="692,-136.6587 692,-155.6587 771,-155.6587 771,-136.6587 692,-136.6587"/>
<polygon fill="none" stroke="#000000" points="692,-136.6587 692,-155.6587 771,-155.6587 771,-136.6587 692,-136.6587"/>
<polygon fill="#ffffff" stroke="transparent" points="693,-137.6587 693,-154.6587 722,-154.6587 722,-137.6587 693,-137.6587"/>
<text text-anchor="start" x="695" y="-142.7587" font-family="Helvetica,sans-Serif" font-size="11.00" fill="#000000">&lt; 1</text>
<polygon fill="#ffffff" stroke="transparent" points="722,-137.6587 722,-154.6587 742,-154.6587 742,-137.6587 722,-137.6587"/>
<text text-anchor="start" x="728.9431" y="-142.7587" font-family="Helvetica,sans-Serif" font-size="11.00" fill="#000000"> &#160;</text>
<polygon fill="#ffffff" stroke="transparent" points="742,-137.6587 742,-154.6587 770,-154.6587 770,-137.6587 742,-137.6587"/>
<text text-anchor="start" x="752.4053" y="-142.7587" font-family="Helvetica,sans-Serif" font-size="11.00" fill="#000000">4 &gt;</text>
<polygon fill="#000000" stroke="#000000" points="722,-137.6587 722,-154.6587 722,-154.6587 722,-137.6587 722,-137.6587"/>
<polygon fill="#000000" stroke="#000000" points="742,-137.6587 742,-154.6587 742,-154.6587 742,-137.6587 742,-137.6587"/>
</a>
</g>
</g>
<!-- Visits&#45;&gt;Hospitalizations -->
<g id="edge9" class="edge">
<title>Visits:w&#45;&gt;Hospitalizations:e</title>
<path fill="none" stroke="#000000" d="M677.4069,-165.3317C603.2026,-172.394 589.7715,-232.6587 507.5,-232.6587"/>
<polygon fill="#000000" stroke="#000000" points="684.0085,-165.0273 692.1659,-168.2549 688.0042,-164.843 692,-164.6587 692,-164.6587 692,-164.6587 688.0042,-164.843 691.8341,-161.0625 684.0085,-165.0273 684.0085,-165.0273"/>
<ellipse fill="none" stroke="#000000" cx="680.8119" cy="-165.1748" rx="3.2" ry="3.2"/>
</g>
<!-- Compensation.ProviderContracts -->
<g id="node9" class="node">
<title>Compensation.ProviderContracts</title>
<g id="a_node9"><a xlink:title="Compensation.ProviderContracts">
<polygon fill="#ffffff" stroke="transparent" points="270,-527.1587 270,-610.1587 551,-610.1587 551,-527.1587 270,-527.1587"/>
<polygon fill="#f5f5f5" stroke="transparent" points="270.5,-586.6587 270.5,-609.6587 551.5,-609.6587 551.5,-586.6587 270.5,-586.6587"/>
<polygon fill="none" stroke="#000000" points="270.5,-586.6587 270.5,-609.6587 551.5,-609.6587 551.5,-586.6587 270.5,-586.6587"/>
<text text-anchor="start" x="275.5" y="-595.2587" font-family="Helvetica,sans-Serif" font-weight="bold" font-size="11.00" fill="#000000">Compensation.ProviderContracts</text>
<text text-anchor="start" x="517.0219" y="-594.7587" font-family="Helvetica,sans-Serif" font-size="11.00" fill="#000000">[table]</text>
<polygon fill="none" stroke="#000000" points="270.5,-564.6587 270.5,-586.6587 551.5,-586.6587 551.5,-564.6587 270.5,-564.6587"/>
<image xlink:href="../../images/foreignKeys.png" width="11px" height="12px" preserveAspectRatio="xMinYMin meet" x="275.5" y="-581.659"/>
<text text-anchor="start" x="354.5" y="-571.7587" font-family="Helvetica,sans-Serif" font-size="11.00" fill="#000000">FacilityId</text>
<polygon fill="none" stroke="#000000" points="270.5,-545.6587 270.5,-564.6587 551.5,-564.6587 551.5,-545.6587 270.5,-545.6587"/>
<text text-anchor="start" x="273.5" y="-551.7587" font-family="Helvetica,sans-Serif" font-size="11.00" fill="#000000">...</text>
<polygon fill="#ffffff" stroke="transparent" points="270.5,-526.6587 270.5,-545.6587 551.5,-545.6587 551.5,-526.6587 270.5,-526.6587"/>
<polygon fill="none" stroke="#000000" points="270.5,-526.6587 270.5,-545.6587 551.5,-545.6587 551.5,-526.6587 270.5,-526.6587"/>
<polygon fill="#ffffff" stroke="transparent" points="271.5,-527.6587 271.5,-544.6587 370.5,-544.6587 370.5,-527.6587 271.5,-527.6587"/>
<text text-anchor="start" x="273.5" y="-532.7587" font-family="Helvetica,sans-Serif" font-size="11.00" fill="#000000">&lt; 1</text>
<polygon fill="#ffffff" stroke="transparent" points="370.5,-527.6587 370.5,-544.6587 460.5,-544.6587 460.5,-527.6587 370.5,-527.6587"/>
<text text-anchor="start" x="412.4431" y="-532.7587" font-family="Helvetica,sans-Serif" font-size="11.00" fill="#000000"> &#160;</text>
<polygon fill="#ffffff" stroke="transparent" points="460.5,-527.6587 460.5,-544.6587 550.5,-544.6587 550.5,-527.6587 460.5,-527.6587"/>
<text text-anchor="start" x="542.3862" y="-532.7587" font-family="Helvetica,sans-Serif" font-size="11.00" fill="#000000"> &#160;</text>
<polygon fill="#000000" stroke="#000000" points="370.5,-527.6587 370.5,-544.6587 370.5,-544.6587 370.5,-527.6587 370.5,-527.6587"/>
<polygon fill="#000000" stroke="#000000" points="460.5,-527.6587 460.5,-544.6587 460.5,-544.6587 460.5,-527.6587 460.5,-527.6587"/>
</a>
</g>
</g>
<!-- Compensation.ProviderContracts&#45;&gt;Facilities -->
<g id="edge10" class="edge">
<title>Compensation.ProviderContracts:w&#45;&gt;Facilities:e</title>
<path fill="none" stroke="#000000" d="M256.4699,-571.7361C230.9491,-553.5889 260.6778,-478.6587 217.5,-478.6587"/>
<polygon fill="#000000" stroke="#000000" points="262.7955,-573.5046 269.5306,-579.1258 266.6477,-574.5816 270.5,-575.6587 270.5,-575.6587 270.5,-575.6587 266.6477,-574.5816 271.4694,-572.1917 262.7955,-573.5046 262.7955,-573.5046"/>
<ellipse fill="none" stroke="#000000" cx="259.7136" cy="-572.6429" rx="3.2" ry="3.2"/>
</g>
<!-- staging.ProviderAssignments -->
<g id="node10" class="node">
<title>staging.ProviderAssignments</title>
<g id="a_node10"><a xlink:title="staging.ProviderAssignments">
<polygon fill="#ffffff" stroke="transparent" points="911,-166.1587 911,-227.1587 1166,-227.1587 1166,-166.1587 911,-166.1587"/>
<polygon fill="#f5f5f5" stroke="transparent" points="911.5,-203.6587 911.5,-226.6587 1166.5,-226.6587 1166.5,-203.6587 911.5,-203.6587"/>
<polygon fill="none" stroke="#000000" points="911.5,-203.6587 911.5,-226.6587 1166.5,-226.6587 1166.5,-203.6587 911.5,-203.6587"/>
<text text-anchor="start" x="916.5" y="-212.2587" font-family="Helvetica,sans-Serif" font-weight="bold" font-size="11.00" fill="#000000">staging.ProviderAssignments</text>
<text text-anchor="start" x="1132.0219" y="-211.7587" font-family="Helvetica,sans-Serif" font-size="11.00" fill="#000000">[table]</text>
<polygon fill="none" stroke="#000000" points="911.5,-184.6587 911.5,-203.6587 1166.5,-203.6587 1166.5,-184.6587 911.5,-184.6587"/>
<text text-anchor="start" x="914.5" y="-190.7587" font-family="Helvetica,sans-Serif" font-size="11.00" fill="#000000">...</text>
<polygon fill="#ffffff" stroke="transparent" points="911.5,-165.6587 911.5,-184.6587 1166.5,-184.6587 1166.5,-165.6587 911.5,-165.6587"/>
<polygon fill="none" stroke="#000000" points="911.5,-165.6587 911.5,-184.6587 1166.5,-184.6587 1166.5,-165.6587 911.5,-165.6587"/>
<polygon fill="#ffffff" stroke="transparent" points="912.5,-166.6587 912.5,-183.6587 1003.5,-183.6587 1003.5,-166.6587 912.5,-166.6587"/>
<text text-anchor="start" x="914.5" y="-171.7587" font-family="Helvetica,sans-Serif" font-size="11.00" fill="#000000">&lt; 6</text>
<polygon fill="#ffffff" stroke="transparent" points="1003.5,-166.6587 1003.5,-183.6587 1084.5,-183.6587 1084.5,-166.6587 1003.5,-166.6587"/>
<text text-anchor="start" x="1040.9431" y="-171.7587" font-family="Helvetica,sans-Serif" font-size="11.00" fill="#000000"> &#160;</text>
<polygon fill="#ffffff" stroke="transparent" points="1084.5,-166.6587 1084.5,-183.6587 1165.5,-183.6587 1165.5,-166.6587 1084.5,-166.6587"/>
<text text-anchor="start" x="1157.3862" y="-171.7587" font-family="Helvetica,sans-Serif" font-size="11.00" fill="#000000"> &#160;</text>
<polygon fill="#000000" stroke="#000000" points="1003.5,-166.6587 1003.5,-183.6587 1003.5,-183.6587 1003.5,-166.6587 1003.5,-166.6587"/>
<polygon fill="#000000" stroke="#000000" points="1084.5,-166.6587 1084.5,-183.6587 1084.5,-183.6587 1084.5,-166.6587 1084.5,-166.6587"/>
</a>
</g>
</g>
<!-- staging.ProviderAssignments&#45;&gt;Hospitalizations -->
<g id="edge11" class="edge">
<title>staging.ProviderAssignments:w&#45;&gt;Hospitalizations:e</title>
<path fill="none" stroke="#000000" d="M897.0506,-196.3279C888.5935,-199.8412 883.1971,-205.8945 870,-208.6587 711.9656,-241.7602 668.9638,-232.6587 507.5,-232.6587"/>
<polygon fill="#000000" stroke="#000000" points="903.6331,-195.112 912.154,-197.1988 907.5665,-194.3853 911.5,-193.6587 911.5,-193.6587 911.5,-193.6587 907.5665,-194.3853 910.846,-190.1186 903.6331,-195.112 903.6331,-195.112"/>
<ellipse fill="none" stroke="#000000" cx="900.4863" cy="-195.6933" rx="3.2" ry="3.2"/>
</g>
<!-- staging.ProviderAssignments&#45;&gt;HospitalizationStatuses -->
<g id="edge12" class="edge">
<title>staging.ProviderAssignments:w&#45;&gt;HospitalizationStatuses:e</title>
<path fill="none" stroke="#000000" d="M897.1992,-191.4883C855.5637,-176.0798 920.1451,-82.7459 870,-44.6587 825.6823,-10.9976 260.9832,-71.6587 221.5,-71.6587"/>
<polygon fill="#000000" stroke="#000000" points="903.5906,-192.4583 910.9598,-197.218 907.5453,-193.0585 911.5,-193.6587 911.5,-193.6587 911.5,-193.6587 907.5453,-193.0585 912.0402,-190.0995 903.5906,-192.4583 903.5906,-192.4583"/>
<ellipse fill="none" stroke="#000000" cx="900.4268" cy="-191.9781" rx="3.2" ry="3.2"/>
</g>
<!-- staging.ProviderAssignments&#45;&gt;Patients -->
<g id="edge13" class="edge">
<title>staging.ProviderAssignments:w&#45;&gt;Patients:e</title>
<path fill="none" stroke="#000000" d="M897.2257,-196.3125C864.9102,-211.5084 912.6465,-287.882 870,-318.6587 816.1474,-357.5226 254.7779,-281.6587 164.5,-281.6587"/>
<polygon fill="#000000" stroke="#000000" points="903.6348,-195.121 912.158,-197.1981 907.5674,-194.3899 911.5,-193.6587 911.5,-193.6587 911.5,-193.6587 907.5674,-194.3899 910.842,-190.1194 903.6348,-195.121 903.6348,-195.121"/>
<ellipse fill="none" stroke="#000000" cx="900.4887" cy="-195.706" rx="3.2" ry="3.2"/>
</g>
<!-- staging.ProviderAssignments&#45;&gt;Visits -->
<g id="edge14" class="edge">
<title>staging.ProviderAssignments:w&#45;&gt;Visits:e</title>
<path fill="none" stroke="#000000" d="M897.1072,-193.1306C845.335,-189.2001 829.6549,-164.6587 771,-164.6587"/>
<polygon fill="#000000" stroke="#000000" points="903.5054,-193.3653 911.368,-197.2563 907.5027,-193.512 911.5,-193.6587 911.5,-193.6587 911.5,-193.6587 907.5027,-193.512 911.632,-190.0611 903.5054,-193.3653 903.5054,-193.3653"/>
<ellipse fill="none" stroke="#000000" cx="900.3075" cy="-193.248" rx="3.2" ry="3.2"/>
</g>
</g>
</svg>
