<?xml version="1.0" encoding="UTF-8" standalone="no"?>
<!DOCTYPE svg PUBLIC "-//W3C//DTD SVG 1.1//EN"
 "http://www.w3.org/Graphics/SVG/1.1/DTD/svg11.dtd">
<!-- Generated by graphviz version 2.40.1 (20161225.0304)
 -->
<!-- Title: twoDegreesRelationshipsDiagram Pages: 1 -->
<svg width="1125pt" height="580pt"
 viewBox="0.00 0.00 1125.00 580.41" xmlns="http://www.w3.org/2000/svg" xmlns:xlink="http://www.w3.org/1999/xlink">
<g id="graph0" class="graph" transform="scale(1 1) rotate(0) translate(4 576.4076)">
<title>twoDegreesRelationshipsDiagram</title>
<polygon fill="#ffffff" stroke="transparent" points="-4,4 -4,-576.4076 1121,-576.4076 1121,4 -4,4"/>
<text text-anchor="middle" x="72.4936" y="-7.3" font-family="Helvetica,sans-Serif" font-size="11.00" fill="#000000">Generated by SchemaSpy</text>
<!-- HospitalizationInsurances -->
<g id="node1" class="node">
<title>HospitalizationInsurances</title>
<g id="a_node1"><a xlink:href="../../tables/HospitalizationInsurances.html" xlink:title="HospitalizationInsurances" target="_top">
<polygon fill="#ffffff" stroke="transparent" points="559.5,-467.7 559.5,-528.7 788.5,-528.7 788.5,-467.7 559.5,-467.7"/>
<polygon fill="#f5f5f5" stroke="transparent" points="560,-505.2 560,-528.2 789,-528.2 789,-505.2 560,-505.2"/>
<polygon fill="none" stroke="#000000" points="560,-505.2 560,-528.2 789,-528.2 789,-505.2 560,-505.2"/>
<text text-anchor="start" x="565" y="-513.8" font-family="Helvetica,sans-Serif" font-weight="bold" font-size="11.00" fill="#000000">HospitalizationInsurances</text>
<text text-anchor="start" x="754.5219" y="-513.3" font-family="Helvetica,sans-Serif" font-size="11.00" fill="#000000">[table]</text>
<polygon fill="none" stroke="#000000" points="560,-486.2 560,-505.2 789,-505.2 789,-486.2 560,-486.2"/>
<text text-anchor="start" x="563" y="-492.3" font-family="Helvetica,sans-Serif" font-size="11.00" fill="#000000">...</text>
<polygon fill="#ffffff" stroke="transparent" points="560,-467.2 560,-486.2 789,-486.2 789,-467.2 560,-467.2"/>
<polygon fill="none" stroke="#000000" points="560,-467.2 560,-486.2 789,-486.2 789,-467.2 560,-467.2"/>
<polygon fill="#ffffff" stroke="transparent" points="561,-468.2 561,-485.2 643,-485.2 643,-468.2 561,-468.2"/>
<text text-anchor="start" x="563" y="-473.3" font-family="Helvetica,sans-Serif" font-size="11.00" fill="#000000">&lt; 2</text>
<polygon fill="#ffffff" stroke="transparent" points="643,-468.2 643,-485.2 716,-485.2 716,-468.2 643,-468.2"/>
<text text-anchor="start" x="676.4431" y="-473.3" font-family="Helvetica,sans-Serif" font-size="11.00" fill="#000000"> &#160;</text>
<polygon fill="#ffffff" stroke="transparent" points="716,-468.2 716,-485.2 788,-485.2 788,-468.2 716,-468.2"/>
<text text-anchor="start" x="779.8862" y="-473.3" font-family="Helvetica,sans-Serif" font-size="11.00" fill="#000000"> &#160;</text>
<polygon fill="#000000" stroke="#000000" points="643,-468.2 643,-485.2 643,-485.2 643,-468.2 643,-468.2"/>
<polygon fill="#000000" stroke="#000000" points="716,-468.2 716,-485.2 716,-485.2 716,-468.2 716,-468.2"/>
</a>
</g>
</g>
<!-- Hospitalizations -->
<g id="node2" class="node">
<title>Hospitalizations</title>
<g id="a_node2"><a xlink:href="../../tables/Hospitalizations.html" xlink:title="Hospitalizations" target="_top">
<polygon fill="#ffffff" stroke="transparent" points="337,-304.7 337,-365.7 494,-365.7 494,-304.7 337,-304.7"/>
<polygon fill="#f5f5f5" stroke="transparent" points="337.5,-342.2 337.5,-365.2 494.5,-365.2 494.5,-342.2 337.5,-342.2"/>
<polygon fill="none" stroke="#000000" points="337.5,-342.2 337.5,-365.2 494.5,-365.2 494.5,-342.2 337.5,-342.2"/>
<text text-anchor="start" x="342.5" y="-350.8" font-family="Helvetica,sans-Serif" font-weight="bold" font-size="11.00" fill="#000000">Hospitalizations</text>
<text text-anchor="start" x="460.0219" y="-350.3" font-family="Helvetica,sans-Serif" font-size="11.00" fill="#000000">[table]</text>
<polygon fill="none" stroke="#000000" points="337.5,-323.2 337.5,-342.2 494.5,-342.2 494.5,-323.2 337.5,-323.2"/>
<text text-anchor="start" x="340.5" y="-329.3" font-family="Helvetica,sans-Serif" font-size="11.00" fill="#000000">...</text>
<polygon fill="#ffffff" stroke="transparent" points="337.5,-304.2 337.5,-323.2 494.5,-323.2 494.5,-304.2 337.5,-304.2"/>
<polygon fill="none" stroke="#000000" points="337.5,-304.2 337.5,-323.2 494.5,-323.2 494.5,-304.2 337.5,-304.2"/>
<polygon fill="#ffffff" stroke="transparent" points="338.5,-305.2 338.5,-322.2 393.5,-322.2 393.5,-305.2 338.5,-305.2"/>
<text text-anchor="start" x="340.5" y="-310.3" font-family="Helvetica,sans-Serif" font-size="11.00" fill="#000000">&lt; 3</text>
<polygon fill="#ffffff" stroke="transparent" points="393.5,-305.2 393.5,-322.2 439.5,-322.2 439.5,-305.2 393.5,-305.2"/>
<text text-anchor="start" x="413.4431" y="-310.3" font-family="Helvetica,sans-Serif" font-size="11.00" fill="#000000"> &#160;</text>
<polygon fill="#ffffff" stroke="transparent" points="439.5,-305.2 439.5,-322.2 493.5,-322.2 493.5,-305.2 439.5,-305.2"/>
<text text-anchor="start" x="475.9053" y="-310.3" font-family="Helvetica,sans-Serif" font-size="11.00" fill="#000000">4 &gt;</text>
<polygon fill="#000000" stroke="#000000" points="393.5,-305.2 393.5,-322.2 393.5,-322.2 393.5,-305.2 393.5,-305.2"/>
<polygon fill="#000000" stroke="#000000" points="439.5,-305.2 439.5,-322.2 439.5,-322.2 439.5,-305.2 439.5,-305.2"/>
</a>
</g>
</g>
<!-- HospitalizationInsurances&#45;&gt;Hospitalizations -->
<g id="edge1" class="edge">
<title>HospitalizationInsurances:w&#45;&gt;Hospitalizations:e</title>
<path fill="none" stroke="#000000" d="M545.4634,-493.952C486.6072,-483.7601 447.5367,-413.4824 428.6704,-369.9176"/>
<polygon fill="#000000" stroke="#000000" points="552.0293,-494.5157 559.692,-498.7868 556.0147,-494.8578 560,-495.2 560,-495.2 560,-495.2 556.0147,-494.8578 560.308,-491.6132 552.0293,-494.5157 552.0293,-494.5157"/>
<ellipse fill="none" stroke="#000000" cx="548.841" cy="-494.2419" rx="3.2" ry="3.2"/>
</g>
<!-- Facilities -->
<g id="node3" class="node">
<title>Facilities</title>
<g id="a_node3"><a xlink:href="../../tables/Facilities.html" xlink:title="Facilities" target="_top">
<polygon fill="#ffffff" stroke="transparent" points="96,-307.7 96,-368.7 200,-368.7 200,-307.7 96,-307.7"/>
<polygon fill="#f5f5f5" stroke="transparent" points="96,-345.2 96,-368.2 200,-368.2 200,-345.2 96,-345.2"/>
<polygon fill="none" stroke="#000000" points="96,-345.2 96,-368.2 200,-368.2 200,-345.2 96,-345.2"/>
<text text-anchor="start" x="101" y="-353.8" font-family="Helvetica,sans-Serif" font-weight="bold" font-size="11.00" fill="#000000">Facilities</text>
<text text-anchor="start" x="165.5219" y="-353.3" font-family="Helvetica,sans-Serif" font-size="11.00" fill="#000000">[table]</text>
<polygon fill="none" stroke="#000000" points="96,-326.2 96,-345.2 200,-345.2 200,-326.2 96,-326.2"/>
<text text-anchor="start" x="99" y="-332.3" font-family="Helvetica,sans-Serif" font-size="11.00" fill="#000000">...</text>
<polygon fill="#ffffff" stroke="transparent" points="96,-307.2 96,-326.2 200,-326.2 200,-307.2 96,-307.2"/>
<polygon fill="none" stroke="#000000" points="96,-307.2 96,-326.2 200,-326.2 200,-307.2 96,-307.2"/>
<polygon fill="#ffffff" stroke="transparent" points="97,-308.2 97,-325.2 128,-325.2 128,-308.2 97,-308.2"/>
<text text-anchor="start" x="99" y="-313.3" font-family="Helvetica,sans-Serif" font-size="11.00" fill="#000000"> &#160;</text>
<polygon fill="#ffffff" stroke="transparent" points="128,-308.2 128,-325.2 159,-325.2 159,-308.2 128,-308.2"/>
<text text-anchor="start" x="140.4431" y="-313.3" font-family="Helvetica,sans-Serif" font-size="11.00" fill="#000000"> &#160;</text>
<polygon fill="#ffffff" stroke="transparent" points="159,-308.2 159,-325.2 199,-325.2 199,-308.2 159,-308.2"/>
<text text-anchor="start" x="181.4053" y="-313.3" font-family="Helvetica,sans-Serif" font-size="11.00" fill="#000000">3 &gt;</text>
<polygon fill="#000000" stroke="#000000" points="128,-308.2 128,-325.2 128,-325.2 128,-308.2 128,-308.2"/>
<polygon fill="#000000" stroke="#000000" points="159,-308.2 159,-325.2 159,-325.2 159,-308.2 159,-308.2"/>
</a>
</g>
</g>
<!-- Hospitalizations&#45;&gt;Facilities -->
<g id="edge2" class="edge">
<title>Hospitalizations:w&#45;&gt;Facilities:e</title>
<path fill="none" stroke="#000000" d="M314.3724,-335.2C278.2795,-335.2 237.3219,-335.2 200,-335.2"/>
<polygon fill="#000000" stroke="#000000" points="320.9915,-335.2001 328.9915,-338.8 324.9915,-335.2 328.9915,-335.2 328.9915,-335.2 328.9915,-335.2 324.9915,-335.2 328.9914,-331.6 320.9915,-335.2001 320.9915,-335.2001"/>
<ellipse fill="none" stroke="#000000" cx="317.7915" cy="-335.2001" rx="3.2" ry="3.2"/>
</g>
<!-- HospitalizationStatuses -->
<g id="node4" class="node">
<title>HospitalizationStatuses</title>
<g id="a_node4"><a xlink:href="../../tables/HospitalizationStatuses.html" xlink:title="HospitalizationStatuses" target="_top">
<polygon fill="#ffffff" stroke="transparent" points="8,-38.2 8,-260.2 288,-260.2 288,-38.2 8,-38.2"/>
<polygon fill="#f5f5f5" stroke="transparent" points="10,-235.2 10,-258.2 286,-258.2 286,-235.2 10,-235.2"/>
<polygon fill="none" stroke="#000000" points="10,-235.2 10,-258.2 286,-258.2 286,-235.2 10,-235.2"/>
<text text-anchor="start" x="15" y="-243.8" font-family="Helvetica,sans-Serif" font-weight="bold" font-size="11.00" fill="#000000">HospitalizationStatuses</text>
<text text-anchor="start" x="251.0437" y="-243.3" font-family="Helvetica,sans-Serif" font-size="11.00" fill="#000000">[table]</text>
<polygon fill="none" stroke="#000000" points="10,-213.2 10,-235.2 205,-235.2 205,-213.2 10,-213.2"/>
<image xlink:href="../../images/primaryKeys.png" width="11px" height="12px" preserveAspectRatio="xMinYMin meet" x="15" y="-230.2"/>
<text text-anchor="start" x="30" y="-220.3" font-family="Helvetica,sans-Serif" font-size="11.00" fill="#000000">Id</text>
<polygon fill="none" stroke="#000000" points="205,-213.2 205,-235.2 286,-235.2 286,-213.2 205,-213.2"/>
<text text-anchor="start" x="208" y="-220.9" font-family="Helvetica,sans-Serif" font-size="11.00" fill="#000000">int identity[4]</text>
<polygon fill="none" stroke="#000000" points="10,-191.2 10,-213.2 205,-213.2 205,-191.2 10,-191.2"/>
<text text-anchor="start" x="30" y="-198.3" font-family="Helvetica,sans-Serif" font-size="11.00" fill="#000000">Code</text>
<polygon fill="none" stroke="#000000" points="205,-191.2 205,-213.2 286,-213.2 286,-191.2 205,-191.2"/>
<text text-anchor="start" x="208" y="-198.9" font-family="Helvetica,sans-Serif" font-size="11.00" fill="#000000">nvarchar[40]</text>
<polygon fill="none" stroke="#000000" points="10,-169.2 10,-191.2 205,-191.2 205,-169.2 10,-169.2"/>
<text text-anchor="start" x="30" y="-176.3" font-family="Helvetica,sans-Serif" font-size="11.00" fill="#000000">Name</text>
<polygon fill="none" stroke="#000000" points="205,-169.2 205,-191.2 286,-191.2 286,-169.2 205,-169.2"/>
<text text-anchor="start" x="208" y="-176.9" font-family="Helvetica,sans-Serif" font-size="11.00" fill="#000000">nvarchar[200]</text>
<polygon fill="none" stroke="#000000" points="10,-147.2 10,-169.2 205,-169.2 205,-147.2 10,-147.2"/>
<text text-anchor="start" x="30" y="-154.3" font-family="Helvetica,sans-Serif" font-size="11.00" fill="#000000">Color</text>
<polygon fill="none" stroke="#000000" points="205,-147.2 205,-169.2 286,-169.2 286,-147.2 205,-147.2"/>
<text text-anchor="start" x="208" y="-154.9" font-family="Helvetica,sans-Serif" font-size="11.00" fill="#000000">nvarchar[40]</text>
<polygon fill="none" stroke="#000000" points="10,-125.2 10,-147.2 205,-147.2 205,-125.2 10,-125.2"/>
<text text-anchor="start" x="30" y="-132.3" font-family="Helvetica,sans-Serif" font-size="11.00" fill="#000000">DisplayOrder</text>
<polygon fill="none" stroke="#000000" points="205,-125.2 205,-147.2 286,-147.2 286,-125.2 205,-125.2"/>
<text text-anchor="start" x="208" y="-132.9" font-family="Helvetica,sans-Serif" font-size="11.00" fill="#000000">int[4]</text>
<polygon fill="none" stroke="#000000" points="10,-103.2 10,-125.2 205,-125.2 205,-103.2 10,-103.2"/>
<text text-anchor="start" x="30" y="-110.3" font-family="Helvetica,sans-Serif" font-size="11.00" fill="#000000">CreatedAtUtc</text>
<polygon fill="none" stroke="#000000" points="205,-103.2 205,-125.2 286,-125.2 286,-103.2 205,-103.2"/>
<text text-anchor="start" x="207.5967" y="-110.9" font-family="Helvetica,sans-Serif" font-size="11.00" fill="#000000">datetime2[16,7]</text>
<polygon fill="none" stroke="#000000" points="10,-81.2 10,-103.2 205,-103.2 205,-81.2 10,-81.2"/>
<text text-anchor="start" x="30" y="-88.3" font-family="Helvetica,sans-Serif" font-size="11.00" fill="#000000">UpdatedAtUtc</text>
<polygon fill="none" stroke="#000000" points="205,-81.2 205,-103.2 286,-103.2 286,-81.2 205,-81.2"/>
<text text-anchor="start" x="207.5967" y="-88.9" font-family="Helvetica,sans-Serif" font-size="11.00" fill="#000000">datetime2[16,7]</text>
<polygon fill="none" stroke="#000000" points="10,-59.2 10,-81.2 205,-81.2 205,-59.2 10,-59.2"/>
<text text-anchor="start" x="30" y="-66.3" font-family="Helvetica,sans-Serif" font-size="11.00" fill="#000000">RowVersion</text>
<polygon fill="none" stroke="#000000" points="205,-59.2 205,-81.2 286,-81.2 286,-59.2 205,-59.2"/>
<text text-anchor="start" x="208" y="-66.9" font-family="Helvetica,sans-Serif" font-size="11.00" fill="#000000">timestamp[8]</text>
<polygon fill="#ffffff" stroke="transparent" points="10,-40.2 10,-59.2 286,-59.2 286,-40.2 10,-40.2"/>
<polygon fill="none" stroke="#000000" points="10,-40.2 10,-59.2 286,-59.2 286,-40.2 10,-40.2"/>
<polygon fill="#ffffff" stroke="transparent" points="11,-41.2 11,-58.2 106,-58.2 106,-41.2 11,-41.2"/>
<text text-anchor="start" x="13" y="-46.3" font-family="Helvetica,sans-Serif" font-size="11.00" fill="#000000">&lt; 0</text>
<polygon fill="#ffffff" stroke="transparent" points="106,-41.2 106,-58.2 191,-58.2 191,-41.2 106,-41.2"/>
<text text-anchor="start" x="145.4431" y="-46.3" font-family="Helvetica,sans-Serif" font-size="11.00" fill="#000000"> &#160;</text>
<polygon fill="#ffffff" stroke="transparent" points="191,-41.2 191,-58.2 285,-58.2 285,-41.2 191,-41.2"/>
<text text-anchor="start" x="267.4053" y="-46.3" font-family="Helvetica,sans-Serif" font-size="11.00" fill="#000000">3 &gt;</text>
<polygon fill="#000000" stroke="#000000" points="106,-41.2 106,-58.2 106,-58.2 106,-41.2 106,-41.2"/>
<polygon fill="#000000" stroke="#000000" points="191,-41.2 191,-58.2 191,-58.2 191,-41.2 191,-41.2"/>
<polygon fill="none" stroke="#000000" stroke-width="2" points="9,-39.2 9,-259.2 287,-259.2 287,-39.2 9,-39.2"/>
</a>
</g>
</g>
<!-- Hospitalizations&#45;&gt;HospitalizationStatuses -->
<g id="edge3" class="edge">
<title>Hospitalizations:w&#45;&gt;HospitalizationStatuses:e</title>
<path fill="none" stroke="#000000" d="M386.4102,-288.8545C363.3594,-258.4162 328.0875,-224.2 286,-224.2"/>
<polygon fill="#000000" stroke="#000000" points="390.2562,-294.1954 392.0096,-302.7911 392.5936,-297.4414 394.931,-300.6874 394.931,-300.6874 394.931,-300.6874 392.5936,-297.4414 397.8524,-298.5837 390.2562,-294.1954 390.2562,-294.1954"/>
<ellipse fill="none" stroke="#000000" cx="388.3862" cy="-291.5986" rx="3.2" ry="3.2"/>
</g>
<!-- Patients -->
<g id="node5" class="node">
<title>Patients</title>
<g id="a_node5"><a xlink:href="../../tables/Patients.html" xlink:title="Patients" target="_top">
<polygon fill="#ffffff" stroke="transparent" points="98.5,-457.7 98.5,-518.7 197.5,-518.7 197.5,-457.7 98.5,-457.7"/>
<polygon fill="#f5f5f5" stroke="transparent" points="99,-495.2 99,-518.2 198,-518.2 198,-495.2 99,-495.2"/>
<polygon fill="none" stroke="#000000" points="99,-495.2 99,-518.2 198,-518.2 198,-495.2 99,-495.2"/>
<text text-anchor="start" x="104" y="-503.8" font-family="Helvetica,sans-Serif" font-weight="bold" font-size="11.00" fill="#000000">Patients</text>
<text text-anchor="start" x="163.5219" y="-503.3" font-family="Helvetica,sans-Serif" font-size="11.00" fill="#000000">[table]</text>
<polygon fill="none" stroke="#000000" points="99,-476.2 99,-495.2 198,-495.2 198,-476.2 99,-476.2"/>
<text text-anchor="start" x="102" y="-482.3" font-family="Helvetica,sans-Serif" font-size="11.00" fill="#000000">...</text>
<polygon fill="#ffffff" stroke="transparent" points="99,-457.2 99,-476.2 198,-476.2 198,-457.2 99,-457.2"/>
<polygon fill="none" stroke="#000000" points="99,-457.2 99,-476.2 198,-476.2 198,-457.2 99,-457.2"/>
<polygon fill="#ffffff" stroke="transparent" points="100,-458.2 100,-475.2 130,-475.2 130,-458.2 100,-458.2"/>
<text text-anchor="start" x="102" y="-463.3" font-family="Helvetica,sans-Serif" font-size="11.00" fill="#000000"> &#160;</text>
<polygon fill="#ffffff" stroke="transparent" points="130,-458.2 130,-475.2 159,-475.2 159,-458.2 130,-458.2"/>
<text text-anchor="start" x="141.4431" y="-463.3" font-family="Helvetica,sans-Serif" font-size="11.00" fill="#000000"> &#160;</text>
<polygon fill="#ffffff" stroke="transparent" points="159,-458.2 159,-475.2 197,-475.2 197,-458.2 159,-458.2"/>
<text text-anchor="start" x="179.4053" y="-463.3" font-family="Helvetica,sans-Serif" font-size="11.00" fill="#000000">3 &gt;</text>
<polygon fill="#000000" stroke="#000000" points="130,-458.2 130,-475.2 130,-475.2 130,-458.2 130,-458.2"/>
<polygon fill="#000000" stroke="#000000" points="159,-458.2 159,-475.2 159,-475.2 159,-458.2 159,-458.2"/>
</a>
</g>
</g>
<!-- Hospitalizations&#45;&gt;Patients -->
<g id="edge4" class="edge">
<title>Hospitalizations:w&#45;&gt;Patients:e</title>
<path fill="none" stroke="#000000" d="M379.0489,-381.0966C339.5907,-425.2018 272.2657,-485.2 198,-485.2"/>
<polygon fill="#000000" stroke="#000000" points="383.4567,-376.0271 391.4226,-372.3522 386.0813,-373.0086 388.7059,-369.99 388.7059,-369.99 388.7059,-369.99 386.0813,-373.0086 385.9893,-367.6279 383.4567,-376.0271 383.4567,-376.0271"/>
<ellipse fill="none" stroke="#000000" cx="381.3571" cy="-378.4419" rx="3.2" ry="3.2"/>
</g>
<!-- HospitalizationStatusHistories -->
<g id="node6" class="node">
<title>HospitalizationStatusHistories</title>
<g id="a_node6"><a xlink:href="../../tables/HospitalizationStatusHistories.html" xlink:title="HospitalizationStatusHistories" target="_top">
<polygon fill="#ffffff" stroke="transparent" points="543,-193.7 543,-254.7 805,-254.7 805,-193.7 543,-193.7"/>
<polygon fill="#f5f5f5" stroke="transparent" points="543,-231.2 543,-254.2 805,-254.2 805,-231.2 543,-231.2"/>
<polygon fill="none" stroke="#000000" points="543,-231.2 543,-254.2 805,-254.2 805,-231.2 543,-231.2"/>
<text text-anchor="start" x="548" y="-239.8" font-family="Helvetica,sans-Serif" font-weight="bold" font-size="11.00" fill="#000000">HospitalizationStatusHistories</text>
<text text-anchor="start" x="770.5219" y="-239.3" font-family="Helvetica,sans-Serif" font-size="11.00" fill="#000000">[table]</text>
<polygon fill="none" stroke="#000000" points="543,-212.2 543,-231.2 805,-231.2 805,-212.2 543,-212.2"/>
<text text-anchor="start" x="546" y="-218.3" font-family="Helvetica,sans-Serif" font-size="11.00" fill="#000000">...</text>
<polygon fill="#ffffff" stroke="transparent" points="543,-193.2 543,-212.2 805,-212.2 805,-193.2 543,-193.2"/>
<polygon fill="none" stroke="#000000" points="543,-193.2 543,-212.2 805,-212.2 805,-193.2 543,-193.2"/>
<polygon fill="#ffffff" stroke="transparent" points="544,-194.2 544,-211.2 637,-211.2 637,-194.2 544,-194.2"/>
<text text-anchor="start" x="546" y="-199.3" font-family="Helvetica,sans-Serif" font-size="11.00" fill="#000000">&lt; 2</text>
<polygon fill="#ffffff" stroke="transparent" points="637,-194.2 637,-211.2 721,-211.2 721,-194.2 637,-194.2"/>
<text text-anchor="start" x="675.9431" y="-199.3" font-family="Helvetica,sans-Serif" font-size="11.00" fill="#000000"> &#160;</text>
<polygon fill="#ffffff" stroke="transparent" points="721,-194.2 721,-211.2 804,-211.2 804,-194.2 721,-194.2"/>
<text text-anchor="start" x="795.8862" y="-199.3" font-family="Helvetica,sans-Serif" font-size="11.00" fill="#000000"> &#160;</text>
<polygon fill="#000000" stroke="#000000" points="637,-194.2 637,-211.2 637,-211.2 637,-194.2 637,-194.2"/>
<polygon fill="#000000" stroke="#000000" points="721,-194.2 721,-211.2 721,-211.2 721,-194.2 721,-194.2"/>
</a>
</g>
</g>
<!-- HospitalizationStatusHistories&#45;&gt;Hospitalizations -->
<g id="edge5" class="edge">
<title>HospitalizationStatusHistories:w&#45;&gt;Hospitalizations:e</title>
<path fill="none" stroke="#000000" d="M536.9121,-264.3793C536.2724,-264.6517 535.635,-264.9252 535,-265.2 512.2712,-275.0344 488.4872,-288.2868 468.1766,-300.6148"/>
<polygon fill="#000000" stroke="#000000" points="543.219,-261.8311 551.9851,-262.172 546.9277,-260.3326 550.6364,-258.8342 550.6364,-258.8342 550.6364,-258.8342 546.9277,-260.3326 549.2878,-255.4963 543.219,-261.8311 543.219,-261.8311"/>
<ellipse fill="none" stroke="#000000" cx="540.252" cy="-263.0299" rx="3.2" ry="3.2"/>
</g>
<!-- HospitalizationStatusHistories&#45;&gt;HospitalizationStatuses -->
<g id="edge6" class="edge">
<title>HospitalizationStatusHistories:w&#45;&gt;HospitalizationStatuses:e</title>
<path fill="none" stroke="#000000" d="M520.3092,-224.2C449.0377,-224.2 363.1989,-224.2 286,-224.2"/>
<polygon fill="#000000" stroke="#000000" points="526.8246,-224.2001 534.8246,-227.8 530.8246,-224.2 534.8246,-224.2 534.8246,-224.2 534.8246,-224.2 530.8246,-224.2 534.8246,-220.6 526.8246,-224.2001 526.8246,-224.2001"/>
<ellipse fill="none" stroke="#000000" cx="523.6246" cy="-224.2001" rx="3.2" ry="3.2"/>
</g>
<!-- Visits -->
<g id="node7" class="node">
<title>Visits</title>
<g id="a_node7"><a xlink:href="../../tables/Visits.html" xlink:title="Visits" target="_top">
<polygon fill="#ffffff" stroke="transparent" points="634.5,-275.7 634.5,-336.7 713.5,-336.7 713.5,-275.7 634.5,-275.7"/>
<polygon fill="#f5f5f5" stroke="transparent" points="635,-313.2 635,-336.2 714,-336.2 714,-313.2 635,-313.2"/>
<polygon fill="none" stroke="#000000" points="635,-313.2 635,-336.2 714,-336.2 714,-313.2 635,-313.2"/>
<text text-anchor="start" x="640" y="-321.8" font-family="Helvetica,sans-Serif" font-weight="bold" font-size="11.00" fill="#000000">Visits</text>
<text text-anchor="start" x="679.5219" y="-321.3" font-family="Helvetica,sans-Serif" font-size="11.00" fill="#000000">[table]</text>
<polygon fill="none" stroke="#000000" points="635,-294.2 635,-313.2 714,-313.2 714,-294.2 635,-294.2"/>
<text text-anchor="start" x="638" y="-300.3" font-family="Helvetica,sans-Serif" font-size="11.00" fill="#000000">...</text>
<polygon fill="#ffffff" stroke="transparent" points="635,-275.2 635,-294.2 714,-294.2 714,-275.2 635,-275.2"/>
<polygon fill="none" stroke="#000000" points="635,-275.2 635,-294.2 714,-294.2 714,-275.2 635,-275.2"/>
<polygon fill="#ffffff" stroke="transparent" points="636,-276.2 636,-293.2 665,-293.2 665,-276.2 636,-276.2"/>
<text text-anchor="start" x="638" y="-281.3" font-family="Helvetica,sans-Serif" font-size="11.00" fill="#000000">&lt; 1</text>
<polygon fill="#ffffff" stroke="transparent" points="665,-276.2 665,-293.2 685,-293.2 685,-276.2 665,-276.2"/>
<text text-anchor="start" x="671.9431" y="-281.3" font-family="Helvetica,sans-Serif" font-size="11.00" fill="#000000"> &#160;</text>
<polygon fill="#ffffff" stroke="transparent" points="685,-276.2 685,-293.2 713,-293.2 713,-276.2 685,-276.2"/>
<text text-anchor="start" x="695.4053" y="-281.3" font-family="Helvetica,sans-Serif" font-size="11.00" fill="#000000">4 &gt;</text>
<polygon fill="#000000" stroke="#000000" points="665,-276.2 665,-293.2 665,-293.2 665,-276.2 665,-276.2"/>
<polygon fill="#000000" stroke="#000000" points="685,-276.2 685,-293.2 685,-293.2 685,-276.2 685,-276.2"/>
</a>
</g>
</g>
<!-- Visits&#45;&gt;Hospitalizations -->
<g id="edge7" class="edge">
<title>Visits:w&#45;&gt;Hospitalizations:e</title>
<path fill="none" stroke="#000000" d="M620.388,-303.4222C580.3827,-304.6084 537.9466,-310.3755 502.1338,-316.6781"/>
<polygon fill="#000000" stroke="#000000" points="627.0009,-303.3217 635.0548,-306.7996 631.0005,-303.2609 635,-303.2 635,-303.2 635,-303.2 631.0005,-303.2609 634.9452,-299.6004 627.0009,-303.3217 627.0009,-303.3217"/>
<ellipse fill="none" stroke="#000000" cx="623.8013" cy="-303.3704" rx="3.2" ry="3.2"/>
</g>
<!-- staging.ProviderAssignments -->
<g id="node8" class="node">
<title>staging.ProviderAssignments</title>
<g id="a_node8"><a xlink:title="staging.ProviderAssignments">
<polygon fill="#ffffff" stroke="transparent" points="854,-356.7 854,-417.7 1109,-417.7 1109,-356.7 854,-356.7"/>
<polygon fill="#f5f5f5" stroke="transparent" points="854.5,-394.2 854.5,-417.2 1109.5,-417.2 1109.5,-394.2 854.5,-394.2"/>
<polygon fill="none" stroke="#000000" points="854.5,-394.2 854.5,-417.2 1109.5,-417.2 1109.5,-394.2 854.5,-394.2"/>
<text text-anchor="start" x="859.5" y="-402.8" font-family="Helvetica,sans-Serif" font-weight="bold" font-size="11.00" fill="#000000">staging.ProviderAssignments</text>
<text text-anchor="start" x="1075.0219" y="-402.3" font-family="Helvetica,sans-Serif" font-size="11.00" fill="#000000">[table]</text>
<polygon fill="none" stroke="#000000" points="854.5,-375.2 854.5,-394.2 1109.5,-394.2 1109.5,-375.2 854.5,-375.2"/>
<text text-anchor="start" x="857.5" y="-381.3" font-family="Helvetica,sans-Serif" font-size="11.00" fill="#000000">...</text>
<polygon fill="#ffffff" stroke="transparent" points="854.5,-356.2 854.5,-375.2 1109.5,-375.2 1109.5,-356.2 854.5,-356.2"/>
<polygon fill="none" stroke="#000000" points="854.5,-356.2 854.5,-375.2 1109.5,-375.2 1109.5,-356.2 854.5,-356.2"/>
<polygon fill="#ffffff" stroke="transparent" points="855.5,-357.2 855.5,-374.2 946.5,-374.2 946.5,-357.2 855.5,-357.2"/>
<text text-anchor="start" x="857.5" y="-362.3" font-family="Helvetica,sans-Serif" font-size="11.00" fill="#000000">&lt; 6</text>
<polygon fill="#ffffff" stroke="transparent" points="946.5,-357.2 946.5,-374.2 1027.5,-374.2 1027.5,-357.2 946.5,-357.2"/>
<text text-anchor="start" x="983.9431" y="-362.3" font-family="Helvetica,sans-Serif" font-size="11.00" fill="#000000"> &#160;</text>
<polygon fill="#ffffff" stroke="transparent" points="1027.5,-357.2 1027.5,-374.2 1108.5,-374.2 1108.5,-357.2 1027.5,-357.2"/>
<text text-anchor="start" x="1100.3862" y="-362.3" font-family="Helvetica,sans-Serif" font-size="11.00" fill="#000000"> &#160;</text>
<polygon fill="#000000" stroke="#000000" points="946.5,-357.2 946.5,-374.2 946.5,-374.2 946.5,-357.2 946.5,-357.2"/>
<polygon fill="#000000" stroke="#000000" points="1027.5,-357.2 1027.5,-374.2 1027.5,-374.2 1027.5,-357.2 1027.5,-357.2"/>
</a>
</g>
</g>
<!-- staging.ProviderAssignments&#45;&gt;Hospitalizations -->
<g id="edge8" class="edge">
<title>staging.ProviderAssignments:w&#45;&gt;Hospitalizations:e</title>
<path fill="none" stroke="#000000" d="M831.1538,-374.1361C744.5355,-366.5082 633.612,-356.5681 535,-347.2 524.4137,-346.1943 513.3027,-345.1131 502.2961,-344.0263"/>
<polygon fill="#000000" stroke="#000000" points="837.6922,-374.7111 845.346,-378.9982 841.6768,-375.0616 845.6614,-375.412 845.6614,-375.412 845.6614,-375.412 841.6768,-375.0616 845.9768,-371.8259 837.6922,-374.7111 837.6922,-374.7111"/>
<ellipse fill="none" stroke="#000000" cx="834.5045" cy="-374.4307" rx="3.2" ry="3.2"/>
</g>
<!-- staging.ProviderAssignments&#45;&gt;HospitalizationStatuses -->
<g id="edge9" class="edge">
<title>staging.ProviderAssignments:w&#45;&gt;HospitalizationStatuses:e</title>
<path fill="none" stroke="#000000" d="M958.2452,-339.5046C931.117,-289.9649 881.1389,-215.2957 813,-183.2 701.2238,-130.5497 658.1445,-173.1294 535,-183.2 479.1082,-187.7708 342.0784,-224.2 286,-224.2"/>
<polygon fill="#000000" stroke="#000000" points="961.3706,-345.3815 961.9486,-354.1351 963.2488,-348.9131 965.127,-352.4447 965.127,-352.4447 965.127,-352.4447 963.2488,-348.9131 968.3055,-350.7543 961.3706,-345.3815 961.3706,-345.3815"/>
<ellipse fill="none" stroke="#000000" cx="959.868" cy="-342.5562" rx="3.2" ry="3.2"/>
</g>
<!-- staging.ProviderAssignments&#45;&gt;Patients -->
<g id="edge11" class="edge">
<title>staging.ProviderAssignments:w&#45;&gt;Patients:e</title>
<path fill="none" stroke="#000000" d="M946.7222,-433.3782C916.1029,-469.8838 867.9174,-518.0901 813,-539.2 556.885,-637.649 472.385,-485.2 198,-485.2"/>
<polygon fill="#000000" stroke="#000000" points="950.9701,-428.1805 958.8201,-424.2642 953.5014,-425.0833 956.0326,-421.986 956.0326,-421.986 956.0326,-421.986 953.5014,-425.0833 953.2451,-419.7079 950.9701,-428.1805 950.9701,-428.1805"/>
<ellipse fill="none" stroke="#000000" cx="948.9451" cy="-430.6583" rx="3.2" ry="3.2"/>
</g>
<!-- staging.ProviderAssignments&#45;&gt;Visits -->
<g id="edge13" class="edge">
<title>staging.ProviderAssignments:w&#45;&gt;Visits:e</title>
<path fill="none" stroke="#000000" d="M898.6514,-346.9217C846.841,-325.3638 778.0096,-303.2 714,-303.2"/>
<polygon fill="#000000" stroke="#000000" points="904.76,-349.5294 910.7042,-355.9813 908.4388,-351.0999 912.1176,-352.6703 912.1176,-352.6703 912.1176,-352.6703 908.4388,-351.0999 913.531,-349.3594 904.76,-349.5294 904.76,-349.5294"/>
<ellipse fill="none" stroke="#000000" cx="901.8169" cy="-348.273" rx="3.2" ry="3.2"/>
</g>
<!-- Providers -->
<g id="node9" class="node">
<title>Providers</title>
<g id="a_node9"><a xlink:href="../../tables/Providers.html" xlink:title="Providers" target="_top">
<polygon fill="#ffffff" stroke="transparent" points="619.5,-385.7 619.5,-446.7 728.5,-446.7 728.5,-385.7 619.5,-385.7"/>
<polygon fill="#f5f5f5" stroke="transparent" points="620,-423.2 620,-446.2 729,-446.2 729,-423.2 620,-423.2"/>
<polygon fill="none" stroke="#000000" points="620,-423.2 620,-446.2 729,-446.2 729,-423.2 620,-423.2"/>
<text text-anchor="start" x="625" y="-431.8" font-family="Helvetica,sans-Serif" font-weight="bold" font-size="11.00" fill="#000000">Providers</text>
<text text-anchor="start" x="694.5219" y="-431.3" font-family="Helvetica,sans-Serif" font-size="11.00" fill="#000000">[table]</text>
<polygon fill="none" stroke="#000000" points="620,-404.2 620,-423.2 729,-423.2 729,-404.2 620,-404.2"/>
<text text-anchor="start" x="623" y="-410.3" font-family="Helvetica,sans-Serif" font-size="11.00" fill="#000000">...</text>
<polygon fill="#ffffff" stroke="transparent" points="620,-385.2 620,-404.2 729,-404.2 729,-385.2 620,-385.2"/>
<polygon fill="none" stroke="#000000" points="620,-385.2 620,-404.2 729,-404.2 729,-385.2 620,-385.2"/>
<polygon fill="#ffffff" stroke="transparent" points="621,-386.2 621,-403.2 660,-403.2 660,-386.2 621,-386.2"/>
<text text-anchor="start" x="623" y="-391.3" font-family="Helvetica,sans-Serif" font-size="11.00" fill="#000000">&lt; 1</text>
<polygon fill="#ffffff" stroke="transparent" points="660,-386.2 660,-403.2 690,-403.2 690,-386.2 660,-386.2"/>
<text text-anchor="start" x="671.9431" y="-391.3" font-family="Helvetica,sans-Serif" font-size="11.00" fill="#000000"> &#160;</text>
<polygon fill="#ffffff" stroke="transparent" points="690,-386.2 690,-403.2 728,-403.2 728,-386.2 690,-386.2"/>
<text text-anchor="start" x="710.4053" y="-391.3" font-family="Helvetica,sans-Serif" font-size="11.00" fill="#000000">3 &gt;</text>
<polygon fill="#000000" stroke="#000000" points="660,-386.2 660,-403.2 660,-403.2 660,-386.2 660,-386.2"/>
<polygon fill="#000000" stroke="#000000" points="690,-386.2 690,-403.2 690,-403.2 690,-386.2 690,-386.2"/>
</a>
</g>
</g>
<!-- staging.ProviderAssignments&#45;&gt;Providers -->
<g id="edge10" class="edge">
<title>staging.ProviderAssignments:w&#45;&gt;Providers:e</title>
<path fill="none" stroke="#000000" d="M831.0613,-404.0638C797.5334,-407.9555 762.1095,-411.4391 729,-413.2"/>
<polygon fill="#000000" stroke="#000000" points="837.8634,-403.2565 846.232,-405.8884 841.8355,-402.785 845.8076,-402.3135 845.8076,-402.3135 845.8076,-402.3135 841.8355,-402.785 845.3833,-398.7386 837.8634,-403.2565 837.8634,-403.2565"/>
<ellipse fill="none" stroke="#000000" cx="834.6857" cy="-403.6337" rx="3.2" ry="3.2"/>
</g>
<!-- staging.ProviderAssignments&#45;&gt;Providers -->
<g id="edge12" class="edge">
<title>staging.ProviderAssignments:w&#45;&gt;Providers:e</title>
<path fill="none" stroke="#000000" d="M831.0613,-412.1505C797.5334,-414.4664 762.1095,-415.2544 729,-413.2"/>
<polygon fill="#000000" stroke="#000000" points="837.8308,-411.6345 846.0813,-414.6158 841.8192,-411.3304 845.8076,-411.0263 845.8076,-411.0263 845.8076,-411.0263 841.8192,-411.3304 845.5339,-407.4367 837.8308,-411.6345 837.8308,-411.6345"/>
<ellipse fill="none" stroke="#000000" cx="834.64" cy="-411.8777" rx="3.2" ry="3.2"/>
</g>
</g>
</svg>
