<?xml version="1.0" encoding="UTF-8" standalone="no"?>
<!DOCTYPE svg PUBLIC "-//W3C//DTD SVG 1.1//EN"
 "http://www.w3.org/Graphics/SVG/1.1/DTD/svg11.dtd">
<!-- Generated by graphviz version 2.40.1 (20161225.0304)
 -->
<!-- Title: oneDegreeRelationshipsDiagram Pages: 1 -->
<svg width="937pt" height="498pt"
 viewBox="0.00 0.00 937.00 497.70" xmlns="http://www.w3.org/2000/svg" xmlns:xlink="http://www.w3.org/1999/xlink">
<g id="graph0" class="graph" transform="scale(1 1) rotate(0) translate(4 493.7)">
<title>oneDegreeRelationshipsDiagram</title>
<polygon fill="#ffffff" stroke="transparent" points="-4,4 -4,-493.7 933,-493.7 933,4 -4,4"/>
<text text-anchor="middle" x="72.4936" y="-7.3" font-family="Helvetica,sans-Serif" font-size="11.00" fill="#000000">Generated by SchemaSpy</text>
<!-- Hospitalizations -->
<g id="node1" class="node">
<title>Hospitalizations</title>
<g id="a_node1"><a xlink:href="../../tables/Hospitalizations.html" xlink:title="Hospitalizations" target="_top">
<polygon fill="#ffffff" stroke="transparent" points="372,-197.7 372,-368.7 565,-368.7 565,-197.7 372,-197.7"/>
<polygon fill="#f5f5f5" stroke="transparent" points="372.5,-345.2 372.5,-368.2 565.5,-368.2 565.5,-345.2 372.5,-345.2"/>
<polygon fill="none" stroke="#000000" points="372.5,-345.2 372.5,-368.2 565.5,-368.2 565.5,-345.2 372.5,-345.2"/>
<text text-anchor="start" x="377.5" y="-353.8" font-family="Helvetica,sans-Serif" font-weight="bold" font-size="11.00" fill="#000000">Hospitalizations</text>
<text text-anchor="start" x="530.5437" y="-353.3" font-family="Helvetica,sans-Serif" font-size="11.00" fill="#000000">[table]</text>
<polygon fill="none" stroke="#000000" points="372.5,-323.2 372.5,-345.2 565.5,-345.2 565.5,-323.2 372.5,-323.2"/>
<image xlink:href="../../images/primaryKeys.png" width="11px" height="12px" preserveAspectRatio="xMinYMin meet" x="377.5" y="-340.2"/>
<text text-anchor="start" x="392.5" y="-330.3" font-family="Helvetica,sans-Serif" font-size="11.00" fill="#000000">Id</text>
<polygon fill="#ffffff" stroke="transparent" points="372.5,-301.2 372.5,-323.2 565.5,-323.2 565.5,-301.2 372.5,-301.2"/>
<polygon fill="none" stroke="#000000" points="372.5,-301.2 372.5,-323.2 565.5,-323.2 565.5,-301.2 372.5,-301.2"/>
<image xlink:href="../../images/foreignKeys.png" width="11px" height="12px" preserveAspectRatio="xMinYMin meet" x="377.5" y="-318.2"/>
<text text-anchor="start" x="392.5" y="-308.3" font-family="Helvetica,sans-Serif" font-size="11.00" fill="#000000">PatientId</text>
<polygon fill="#ffffff" stroke="transparent" points="372.5,-279.2 372.5,-301.2 565.5,-301.2 565.5,-279.2 372.5,-279.2"/>
<polygon fill="none" stroke="#000000" points="372.5,-279.2 372.5,-301.2 565.5,-301.2 565.5,-279.2 372.5,-279.2"/>
<image xlink:href="../../images/foreignKeys.png" width="11px" height="12px" preserveAspectRatio="xMinYMin meet" x="377.5" y="-296.2"/>
<text text-anchor="start" x="392.5" y="-286.3" font-family="Helvetica,sans-Serif" font-size="11.00" fill="#000000">FacilityId</text>
<polygon fill="#ffffff" stroke="transparent" points="372.5,-257.2 372.5,-279.2 565.5,-279.2 565.5,-257.2 372.5,-257.2"/>
<polygon fill="none" stroke="#000000" points="372.5,-257.2 372.5,-279.2 565.5,-279.2 565.5,-257.2 372.5,-257.2"/>
<text text-anchor="start" x="392.5" y="-264.3" font-family="Helvetica,sans-Serif" font-size="11.00" fill="#000000">CaseId</text>
<polygon fill="#ffffff" stroke="transparent" points="372.5,-235.2 372.5,-257.2 565.5,-257.2 565.5,-235.2 372.5,-235.2"/>
<polygon fill="none" stroke="#000000" points="372.5,-235.2 372.5,-257.2 565.5,-257.2 565.5,-235.2 372.5,-235.2"/>
<image xlink:href="../../images/foreignKeys.png" width="11px" height="12px" preserveAspectRatio="xMinYMin meet" x="377.5" y="-252.2"/>
<text text-anchor="start" x="392.5" y="-242.3" font-family="Helvetica,sans-Serif" font-size="11.00" fill="#000000">HospitalizationStatusId</text>
<polygon fill="none" stroke="#000000" points="372.5,-216.2 372.5,-235.2 565.5,-235.2 565.5,-216.2 372.5,-216.2"/>
<text text-anchor="start" x="375.5" y="-222.3" font-family="Helvetica,sans-Serif" font-size="11.00" fill="#000000">...</text>
<polygon fill="#ffffff" stroke="transparent" points="372.5,-197.2 372.5,-216.2 565.5,-216.2 565.5,-197.2 372.5,-197.2"/>
<polygon fill="none" stroke="#000000" points="372.5,-197.2 372.5,-216.2 565.5,-216.2 565.5,-197.2 372.5,-197.2"/>
<polygon fill="#ffffff" stroke="transparent" points="373.5,-198.2 373.5,-215.2 440.5,-215.2 440.5,-198.2 373.5,-198.2"/>
<text text-anchor="start" x="375.5" y="-203.3" font-family="Helvetica,sans-Serif" font-size="11.00" fill="#000000">&lt; 3</text>
<polygon fill="#ffffff" stroke="transparent" points="440.5,-198.2 440.5,-215.2 498.5,-215.2 498.5,-198.2 440.5,-198.2"/>
<text text-anchor="start" x="466.4431" y="-203.3" font-family="Helvetica,sans-Serif" font-size="11.00" fill="#000000"> &#160;</text>
<polygon fill="#ffffff" stroke="transparent" points="498.5,-198.2 498.5,-215.2 564.5,-215.2 564.5,-198.2 498.5,-198.2"/>
<text text-anchor="start" x="546.9053" y="-203.3" font-family="Helvetica,sans-Serif" font-size="11.00" fill="#000000">4 &gt;</text>
<polygon fill="#000000" stroke="#000000" points="440.5,-198.2 440.5,-215.2 440.5,-215.2 440.5,-198.2 440.5,-198.2"/>
<polygon fill="#000000" stroke="#000000" points="498.5,-198.2 498.5,-215.2 498.5,-215.2 498.5,-198.2 498.5,-198.2"/>
</a>
</g>
</g>
<!-- HospitalizationStatuses -->
<g id="node2" class="node">
<title>HospitalizationStatuses</title>
<g id="a_node2"><a xlink:href="../../tables/HospitalizationStatuses.html" xlink:title="HospitalizationStatuses" target="_top">
<polygon fill="#ffffff" stroke="transparent" points="8,-38.2 8,-282.2 323,-282.2 323,-38.2 8,-38.2"/>
<polygon fill="#f5f5f5" stroke="transparent" points="10.5,-257.2 10.5,-280.2 321.5,-280.2 321.5,-257.2 10.5,-257.2"/>
<polygon fill="none" stroke="#000000" points="10.5,-257.2 10.5,-280.2 321.5,-280.2 321.5,-257.2 10.5,-257.2"/>
<text text-anchor="start" x="15.5" y="-265.8" font-family="Helvetica,sans-Serif" font-weight="bold" font-size="11.00" fill="#000000">HospitalizationStatuses</text>
<text text-anchor="start" x="286.5437" y="-265.3" font-family="Helvetica,sans-Serif" font-size="11.00" fill="#000000">[table]</text>
<polygon fill="none" stroke="#000000" points="10.5,-235.2 10.5,-257.2 205.5,-257.2 205.5,-235.2 10.5,-235.2"/>
<image xlink:href="../../images/primaryKeys.png" width="11px" height="12px" preserveAspectRatio="xMinYMin meet" x="15.5" y="-252.2"/>
<text text-anchor="start" x="30.5" y="-242.3" font-family="Helvetica,sans-Serif" font-size="11.00" fill="#000000">Id</text>
<polygon fill="none" stroke="#000000" points="205.5,-235.2 205.5,-257.2 321.5,-257.2 321.5,-235.2 205.5,-235.2"/>
<text text-anchor="start" x="208.5" y="-242.9" font-family="Helvetica,sans-Serif" font-size="11.00" fill="#000000">int identity[4]</text>
<polygon fill="none" stroke="#000000" points="10.5,-213.2 10.5,-235.2 205.5,-235.2 205.5,-213.2 10.5,-213.2"/>
<text text-anchor="start" x="30.5" y="-220.3" font-family="Helvetica,sans-Serif" font-size="11.00" fill="#000000">Code</text>
<polygon fill="none" stroke="#000000" points="205.5,-213.2 205.5,-235.2 321.5,-235.2 321.5,-213.2 205.5,-213.2"/>
<text text-anchor="start" x="208.5" y="-220.9" font-family="Helvetica,sans-Serif" font-size="11.00" fill="#000000">nvarchar[40]</text>
<polygon fill="none" stroke="#000000" points="10.5,-191.2 10.5,-213.2 205.5,-213.2 205.5,-191.2 10.5,-191.2"/>
<text text-anchor="start" x="30.5" y="-198.3" font-family="Helvetica,sans-Serif" font-size="11.00" fill="#000000">Name</text>
<polygon fill="none" stroke="#000000" points="205.5,-191.2 205.5,-213.2 321.5,-213.2 321.5,-191.2 205.5,-191.2"/>
<text text-anchor="start" x="208.5" y="-198.9" font-family="Helvetica,sans-Serif" font-size="11.00" fill="#000000">nvarchar[200]</text>
<polygon fill="none" stroke="#000000" points="10.5,-169.2 10.5,-191.2 205.5,-191.2 205.5,-169.2 10.5,-169.2"/>
<text text-anchor="start" x="30.5" y="-176.3" font-family="Helvetica,sans-Serif" font-size="11.00" fill="#000000">BillingCode</text>
<polygon fill="none" stroke="#000000" points="205.5,-169.2 205.5,-191.2 321.5,-191.2 321.5,-169.2 205.5,-169.2"/>
<text text-anchor="start" x="208.4769" y="-176.9" font-family="Helvetica,sans-Serif" font-size="11.00" fill="#000000">nvarchar[2147483647]</text>
<polygon fill="none" stroke="#000000" points="10.5,-147.2 10.5,-169.2 205.5,-169.2 205.5,-147.2 10.5,-147.2"/>
<text text-anchor="start" x="30.5" y="-154.3" font-family="Helvetica,sans-Serif" font-size="11.00" fill="#000000">Color</text>
<polygon fill="none" stroke="#000000" points="205.5,-147.2 205.5,-169.2 321.5,-169.2 321.5,-147.2 205.5,-147.2"/>
<text text-anchor="start" x="208.5" y="-154.9" font-family="Helvetica,sans-Serif" font-size="11.00" fill="#000000">nvarchar[40]</text>
<polygon fill="none" stroke="#000000" points="10.5,-125.2 10.5,-147.2 205.5,-147.2 205.5,-125.2 10.5,-125.2"/>
<text text-anchor="start" x="30.5" y="-132.3" font-family="Helvetica,sans-Serif" font-size="11.00" fill="#000000">DisplayOrder</text>
<polygon fill="none" stroke="#000000" points="205.5,-125.2 205.5,-147.2 321.5,-147.2 321.5,-125.2 205.5,-125.2"/>
<text text-anchor="start" x="208.5" y="-132.9" font-family="Helvetica,sans-Serif" font-size="11.00" fill="#000000">int[4]</text>
<polygon fill="none" stroke="#000000" points="10.5,-103.2 10.5,-125.2 205.5,-125.2 205.5,-103.2 10.5,-103.2"/>
<text text-anchor="start" x="30.5" y="-110.3" font-family="Helvetica,sans-Serif" font-size="11.00" fill="#000000">CreatedAtUtc</text>
<polygon fill="none" stroke="#000000" points="205.5,-103.2 205.5,-125.2 321.5,-125.2 321.5,-103.2 205.5,-103.2"/>
<text text-anchor="start" x="208.5" y="-110.9" font-family="Helvetica,sans-Serif" font-size="11.00" fill="#000000">datetime2[16,7]</text>
<polygon fill="none" stroke="#000000" points="10.5,-81.2 10.5,-103.2 205.5,-103.2 205.5,-81.2 10.5,-81.2"/>
<text text-anchor="start" x="30.5" y="-88.3" font-family="Helvetica,sans-Serif" font-size="11.00" fill="#000000">UpdatedAtUtc</text>
<polygon fill="none" stroke="#000000" points="205.5,-81.2 205.5,-103.2 321.5,-103.2 321.5,-81.2 205.5,-81.2"/>
<text text-anchor="start" x="208.5" y="-88.9" font-family="Helvetica,sans-Serif" font-size="11.00" fill="#000000">datetime2[16,7]</text>
<polygon fill="none" stroke="#000000" points="10.5,-59.2 10.5,-81.2 205.5,-81.2 205.5,-59.2 10.5,-59.2"/>
<text text-anchor="start" x="30.5" y="-66.3" font-family="Helvetica,sans-Serif" font-size="11.00" fill="#000000">RowVersion</text>
<polygon fill="none" stroke="#000000" points="205.5,-59.2 205.5,-81.2 321.5,-81.2 321.5,-59.2 205.5,-59.2"/>
<text text-anchor="start" x="208.5" y="-66.9" font-family="Helvetica,sans-Serif" font-size="11.00" fill="#000000">timestamp[8]</text>
<polygon fill="#ffffff" stroke="transparent" points="10.5,-40.2 10.5,-59.2 321.5,-59.2 321.5,-40.2 10.5,-40.2"/>
<polygon fill="none" stroke="#000000" points="10.5,-40.2 10.5,-59.2 321.5,-59.2 321.5,-40.2 10.5,-40.2"/>
<polygon fill="#ffffff" stroke="transparent" points="11.5,-41.2 11.5,-58.2 117.5,-58.2 117.5,-41.2 11.5,-41.2"/>
<text text-anchor="start" x="13.5" y="-46.3" font-family="Helvetica,sans-Serif" font-size="11.00" fill="#000000">&lt; 0</text>
<polygon fill="#ffffff" stroke="transparent" points="117.5,-41.2 117.5,-58.2 214.5,-58.2 214.5,-41.2 117.5,-41.2"/>
<text text-anchor="start" x="162.9431" y="-46.3" font-family="Helvetica,sans-Serif" font-size="11.00" fill="#000000"> &#160;</text>
<polygon fill="#ffffff" stroke="transparent" points="214.5,-41.2 214.5,-58.2 320.5,-58.2 320.5,-41.2 214.5,-41.2"/>
<text text-anchor="start" x="302.9053" y="-46.3" font-family="Helvetica,sans-Serif" font-size="11.00" fill="#000000">3 &gt;</text>
<polygon fill="#000000" stroke="#000000" points="117.5,-41.2 117.5,-58.2 117.5,-58.2 117.5,-41.2 117.5,-41.2"/>
<polygon fill="#000000" stroke="#000000" points="214.5,-41.2 214.5,-58.2 214.5,-58.2 214.5,-41.2 214.5,-41.2"/>
<polygon fill="none" stroke="#000000" stroke-width="2" points="9,-39.2 9,-281.2 322,-281.2 322,-39.2 9,-39.2"/>
</a>
</g>
</g>
<!-- Hospitalizations&#45;&gt;HospitalizationStatuses -->
<g id="edge1" class="edge">
<title>Hospitalizations:w&#45;&gt;HospitalizationStatuses:e</title>
<path fill="none" stroke="#000000" d="M357.776,-246.2C345.7815,-246.2 338.3229,-246.2 321.5,-246.2"/>
<polygon fill="#000000" stroke="#000000" points="364.5,-246.2001 372.5,-249.8 368.5,-246.2 372.5,-246.2 372.5,-246.2 372.5,-246.2 368.5,-246.2 372.5,-242.6 364.5,-246.2001 364.5,-246.2001"/>
<ellipse fill="none" stroke="#000000" cx="361.3" cy="-246.2001" rx="3.2" ry="3.2"/>
</g>
<!-- HospitalizationStatusHistories -->
<g id="node3" class="node">
<title>HospitalizationStatusHistories</title>
<g id="a_node3"><a xlink:href="../../tables/HospitalizationStatusHistories.html" xlink:title="HospitalizationStatusHistories" target="_top">
<polygon fill="#ffffff" stroke="transparent" points="636.5,-314.7 636.5,-485.7 898.5,-485.7 898.5,-314.7 636.5,-314.7"/>
<polygon fill="#f5f5f5" stroke="transparent" points="636.5,-462.2 636.5,-485.2 898.5,-485.2 898.5,-462.2 636.5,-462.2"/>
<polygon fill="none" stroke="#000000" points="636.5,-462.2 636.5,-485.2 898.5,-485.2 898.5,-462.2 636.5,-462.2"/>
<text text-anchor="start" x="641.5" y="-470.8" font-family="Helvetica,sans-Serif" font-weight="bold" font-size="11.00" fill="#000000">HospitalizationStatusHistories</text>
<text text-anchor="start" x="864.0219" y="-470.3" font-family="Helvetica,sans-Serif" font-size="11.00" fill="#000000">[table]</text>
<polygon fill="none" stroke="#000000" points="636.5,-440.2 636.5,-462.2 898.5,-462.2 898.5,-440.2 636.5,-440.2"/>
<image xlink:href="../../images/primaryKeys.png" width="11px" height="12px" preserveAspectRatio="xMinYMin meet" x="641.5" y="-457.2"/>
<text text-anchor="start" x="665.5" y="-447.3" font-family="Helvetica,sans-Serif" font-size="11.00" fill="#000000">Id</text>
<polygon fill="#ffffff" stroke="transparent" points="636.5,-418.2 636.5,-440.2 898.5,-440.2 898.5,-418.2 636.5,-418.2"/>
<polygon fill="none" stroke="#000000" points="636.5,-418.2 636.5,-440.2 898.5,-440.2 898.5,-418.2 636.5,-418.2"/>
<image xlink:href="../../images/foreignKeys.png" width="11px" height="12px" preserveAspectRatio="xMinYMin meet" x="641.5" y="-435.2"/>
<text text-anchor="start" x="665.5" y="-425.3" font-family="Helvetica,sans-Serif" font-size="11.00" fill="#000000">HospitalizationId</text>
<polygon fill="#ffffff" stroke="transparent" points="636.5,-396.2 636.5,-418.2 898.5,-418.2 898.5,-396.2 636.5,-396.2"/>
<polygon fill="none" stroke="#000000" points="636.5,-396.2 636.5,-418.2 898.5,-418.2 898.5,-396.2 636.5,-396.2"/>
<image xlink:href="../../images/foreignKeys.png" width="11px" height="12px" preserveAspectRatio="xMinYMin meet" x="641.5" y="-413.2"/>
<text text-anchor="start" x="665.5" y="-403.3" font-family="Helvetica,sans-Serif" font-size="11.00" fill="#000000">NewStatusId</text>
<polygon fill="#ffffff" stroke="transparent" points="636.5,-374.2 636.5,-396.2 898.5,-396.2 898.5,-374.2 636.5,-374.2"/>
<polygon fill="none" stroke="#000000" points="636.5,-374.2 636.5,-396.2 898.5,-396.2 898.5,-374.2 636.5,-374.2"/>
<text text-anchor="start" x="665.5" y="-381.3" font-family="Helvetica,sans-Serif" font-size="11.00" fill="#000000">ChangedAt</text>
<polygon fill="#ffffff" stroke="transparent" points="636.5,-352.2 636.5,-374.2 898.5,-374.2 898.5,-352.2 636.5,-352.2"/>
<polygon fill="none" stroke="#000000" points="636.5,-352.2 636.5,-374.2 898.5,-374.2 898.5,-352.2 636.5,-352.2"/>
<text text-anchor="start" x="665.5" y="-359.3" font-family="Helvetica,sans-Serif" font-size="11.00" fill="#000000">ChangedByUserId</text>
<polygon fill="none" stroke="#000000" points="636.5,-333.2 636.5,-352.2 898.5,-352.2 898.5,-333.2 636.5,-333.2"/>
<text text-anchor="start" x="639.5" y="-339.3" font-family="Helvetica,sans-Serif" font-size="11.00" fill="#000000">...</text>
<polygon fill="#ffffff" stroke="transparent" points="636.5,-314.2 636.5,-333.2 898.5,-333.2 898.5,-314.2 636.5,-314.2"/>
<polygon fill="none" stroke="#000000" points="636.5,-314.2 636.5,-333.2 898.5,-333.2 898.5,-314.2 636.5,-314.2"/>
<polygon fill="#ffffff" stroke="transparent" points="637.5,-315.2 637.5,-332.2 730.5,-332.2 730.5,-315.2 637.5,-315.2"/>
<text text-anchor="start" x="639.5" y="-320.3" font-family="Helvetica,sans-Serif" font-size="11.00" fill="#000000">&lt; 2</text>
<polygon fill="#ffffff" stroke="transparent" points="730.5,-315.2 730.5,-332.2 814.5,-332.2 814.5,-315.2 730.5,-315.2"/>
<text text-anchor="start" x="769.4431" y="-320.3" font-family="Helvetica,sans-Serif" font-size="11.00" fill="#000000"> &#160;</text>
<polygon fill="#ffffff" stroke="transparent" points="814.5,-315.2 814.5,-332.2 897.5,-332.2 897.5,-315.2 814.5,-315.2"/>
<text text-anchor="start" x="889.3862" y="-320.3" font-family="Helvetica,sans-Serif" font-size="11.00" fill="#000000"> &#160;</text>
<polygon fill="#000000" stroke="#000000" points="730.5,-315.2 730.5,-332.2 730.5,-332.2 730.5,-315.2 730.5,-315.2"/>
<polygon fill="#000000" stroke="#000000" points="814.5,-315.2 814.5,-332.2 814.5,-332.2 814.5,-315.2 814.5,-315.2"/>
</a>
</g>
</g>
<!-- HospitalizationStatusHistories&#45;&gt;Hospitalizations -->
<g id="edge2" class="edge">
<title>HospitalizationStatusHistories:w&#45;&gt;Hospitalizations:e</title>
<path fill="none" stroke="#000000" d="M622.1032,-426.0392C590.2763,-409.5552 612.4459,-334.2 565.5,-334.2"/>
<polygon fill="#000000" stroke="#000000" points="628.6861,-427.4844 635.728,-432.7163 632.5931,-428.3422 636.5,-429.2 636.5,-429.2 636.5,-429.2 632.5931,-428.3422 637.272,-425.6837 628.6861,-427.4844 628.6861,-427.4844"/>
<ellipse fill="none" stroke="#000000" cx="625.5605" cy="-426.7982" rx="3.2" ry="3.2"/>
</g>
<!-- HospitalizationStatusHistories&#45;&gt;HospitalizationStatuses -->
<g id="edge3" class="edge">
<title>HospitalizationStatusHistories:w&#45;&gt;HospitalizationStatuses:e</title>
<path fill="none" stroke="#000000" d="M621.8427,-407.434C510.074,-410.987 454.6425,-452.7915 364,-379.2 315.8233,-340.0859 383.5557,-246.2 321.5,-246.2"/>
<polygon fill="#000000" stroke="#000000" points="628.501,-407.3277 636.5575,-410.7995 632.5005,-407.2639 636.5,-407.2 636.5,-407.2 636.5,-407.2 632.5005,-407.2639 636.4425,-403.6005 628.501,-407.3277 628.501,-407.3277"/>
<ellipse fill="none" stroke="#000000" cx="625.3014" cy="-407.3788" rx="3.2" ry="3.2"/>
</g>
<!-- staging.ProviderAssignments -->
<g id="node4" class="node">
<title>staging.ProviderAssignments</title>
<g id="a_node4"><a xlink:title="staging.ProviderAssignments">
<polygon fill="#ffffff" stroke="transparent" points="614,-100.7 614,-293.7 921,-293.7 921,-100.7 614,-100.7"/>
<polygon fill="#f5f5f5" stroke="transparent" points="614.5,-270.2 614.5,-293.2 921.5,-293.2 921.5,-270.2 614.5,-270.2"/>
<polygon fill="none" stroke="#000000" points="614.5,-270.2 614.5,-293.2 921.5,-293.2 921.5,-270.2 614.5,-270.2"/>
<text text-anchor="start" x="619.5" y="-278.8" font-family="Helvetica,sans-Serif" font-weight="bold" font-size="11.00" fill="#000000">staging.ProviderAssignments</text>
<text text-anchor="start" x="886.5437" y="-278.3" font-family="Helvetica,sans-Serif" font-size="11.00" fill="#000000">[table]</text>
<polygon fill="none" stroke="#000000" points="614.5,-248.2 614.5,-270.2 921.5,-270.2 921.5,-248.2 614.5,-248.2"/>
<image xlink:href="../../images/foreignKeys.png" width="11px" height="12px" preserveAspectRatio="xMinYMin meet" x="619.5" y="-265.2"/>
<text text-anchor="start" x="634.5" y="-255.3" font-family="Helvetica,sans-Serif" font-size="11.00" fill="#000000">ResolvedPhysicianId</text>
<polygon fill="none" stroke="#000000" points="614.5,-226.2 614.5,-248.2 921.5,-248.2 921.5,-226.2 614.5,-226.2"/>
<image xlink:href="../../images/foreignKeys.png" width="11px" height="12px" preserveAspectRatio="xMinYMin meet" x="619.5" y="-243.2"/>
<text text-anchor="start" x="634.5" y="-233.3" font-family="Helvetica,sans-Serif" font-size="11.00" fill="#000000">ResolvedHospitalizationId</text>
<polygon fill="none" stroke="#000000" points="614.5,-204.2 614.5,-226.2 921.5,-226.2 921.5,-204.2 614.5,-204.2"/>
<image xlink:href="../../images/foreignKeys.png" width="11px" height="12px" preserveAspectRatio="xMinYMin meet" x="619.5" y="-221.2"/>
<text text-anchor="start" x="634.5" y="-211.3" font-family="Helvetica,sans-Serif" font-size="11.00" fill="#000000">ResolvedPatientId</text>
<polygon fill="none" stroke="#000000" points="614.5,-182.2 614.5,-204.2 921.5,-204.2 921.5,-182.2 614.5,-182.2"/>
<image xlink:href="../../images/foreignKeys.png" width="11px" height="12px" preserveAspectRatio="xMinYMin meet" x="619.5" y="-199.2"/>
<text text-anchor="start" x="634.5" y="-189.3" font-family="Helvetica,sans-Serif" font-size="11.00" fill="#000000">ResolvedNursePractitionerId</text>
<polygon fill="none" stroke="#000000" points="614.5,-160.2 614.5,-182.2 921.5,-182.2 921.5,-160.2 614.5,-160.2"/>
<image xlink:href="../../images/foreignKeys.png" width="11px" height="12px" preserveAspectRatio="xMinYMin meet" x="619.5" y="-177.2"/>
<text text-anchor="start" x="634.5" y="-167.3" font-family="Helvetica,sans-Serif" font-size="11.00" fill="#000000">ResolvedVisitId</text>
<polygon fill="none" stroke="#000000" points="614.5,-138.2 614.5,-160.2 921.5,-160.2 921.5,-138.2 614.5,-138.2"/>
<image xlink:href="../../images/foreignKeys.png" width="11px" height="12px" preserveAspectRatio="xMinYMin meet" x="619.5" y="-155.2"/>
<text text-anchor="start" x="634.5" y="-145.3" font-family="Helvetica,sans-Serif" font-size="11.00" fill="#000000">ResolvedHospitalizationStatusId</text>
<polygon fill="none" stroke="#000000" points="614.5,-119.2 614.5,-138.2 921.5,-138.2 921.5,-119.2 614.5,-119.2"/>
<text text-anchor="start" x="617.5" y="-125.3" font-family="Helvetica,sans-Serif" font-size="11.00" fill="#000000">...</text>
<polygon fill="#ffffff" stroke="transparent" points="614.5,-100.2 614.5,-119.2 921.5,-119.2 921.5,-100.2 614.5,-100.2"/>
<polygon fill="none" stroke="#000000" points="614.5,-100.2 614.5,-119.2 921.5,-119.2 921.5,-100.2 614.5,-100.2"/>
<polygon fill="#ffffff" stroke="transparent" points="615.5,-101.2 615.5,-118.2 723.5,-118.2 723.5,-101.2 615.5,-101.2"/>
<text text-anchor="start" x="617.5" y="-106.3" font-family="Helvetica,sans-Serif" font-size="11.00" fill="#000000">&lt; 6</text>
<polygon fill="#ffffff" stroke="transparent" points="723.5,-101.2 723.5,-118.2 822.5,-118.2 822.5,-101.2 723.5,-101.2"/>
<text text-anchor="start" x="769.9431" y="-106.3" font-family="Helvetica,sans-Serif" font-size="11.00" fill="#000000"> &#160;</text>
<polygon fill="#ffffff" stroke="transparent" points="822.5,-101.2 822.5,-118.2 920.5,-118.2 920.5,-101.2 822.5,-101.2"/>
<text text-anchor="start" x="912.3862" y="-106.3" font-family="Helvetica,sans-Serif" font-size="11.00" fill="#000000"> &#160;</text>
<polygon fill="#000000" stroke="#000000" points="723.5,-101.2 723.5,-118.2 723.5,-118.2 723.5,-101.2 723.5,-101.2"/>
<polygon fill="#000000" stroke="#000000" points="822.5,-101.2 822.5,-118.2 822.5,-118.2 822.5,-101.2 822.5,-101.2"/>
</a>
</g>
</g>
<!-- staging.ProviderAssignments&#45;&gt;Hospitalizations -->
<g id="edge4" class="edge">
<title>staging.ProviderAssignments:w&#45;&gt;Hospitalizations:e</title>
<path fill="none" stroke="#000000" d="M600.5083,-241.368C576.6018,-259.9344 607.762,-334.2 565.5,-334.2"/>
<polygon fill="#000000" stroke="#000000" points="606.8329,-239.484 615.5278,-240.6502 610.6665,-238.342 614.5,-237.2 614.5,-237.2 614.5,-237.2 610.6665,-238.342 613.4722,-233.7498 606.8329,-239.484 606.8329,-239.484"/>
<ellipse fill="none" stroke="#000000" cx="603.7661" cy="-240.3976" rx="3.2" ry="3.2"/>
</g>
<!-- staging.ProviderAssignments&#45;&gt;HospitalizationStatuses -->
<g id="edge5" class="edge">
<title>staging.ProviderAssignments:w&#45;&gt;HospitalizationStatuses:e</title>
<path fill="none" stroke="#000000" d="M600.0539,-149.0885C498.1137,-147.5324 455.863,-131.0615 364,-187.2 336.4244,-204.0518 353.8171,-246.2 321.5,-246.2"/>
<polygon fill="#000000" stroke="#000000" points="606.5002,-149.1382 614.4722,-152.7999 610.5001,-149.1691 614.5,-149.2 614.5,-149.2 614.5,-149.2 610.5001,-149.1691 614.5278,-145.6001 606.5002,-149.1382 606.5002,-149.1382"/>
<ellipse fill="none" stroke="#000000" cx="603.3003" cy="-149.1135" rx="3.2" ry="3.2"/>
</g>
</g>
</svg>
