<?xml version="1.0" encoding="UTF-8" standalone="no"?>
<!DOCTYPE svg PUBLIC "-//W3C//DTD SVG 1.1//EN"
 "http://www.w3.org/Graphics/SVG/1.1/DTD/svg11.dtd">
<!-- Generated by graphviz version 2.40.1 (20161225.0304)
 -->
<!-- Title: twoDegreesRelationshipsDiagram Pages: 1 -->
<svg width="1182pt" height="764pt"
 viewBox="0.00 0.00 1182.00 764.14" xmlns="http://www.w3.org/2000/svg" xmlns:xlink="http://www.w3.org/1999/xlink">
<g id="graph0" class="graph" transform="scale(1 1) rotate(0) translate(4 760.1433)">
<title>twoDegreesRelationshipsDiagram</title>
<polygon fill="#ffffff" stroke="transparent" points="-4,4 -4,-760.1433 1178,-760.1433 1178,4 -4,4"/>
<text text-anchor="middle" x="72.4936" y="-7.3" font-family="Helvetica,sans-Serif" font-size="11.00" fill="#000000">Generated by SchemaSpy</text>
<!-- Billing.VisitServiceBillings -->
<g id="node1" class="node">
<title>Billing.VisitServiceBillings</title>
<g id="a_node1"><a xlink:title="Billing.VisitServiceBillings">
<polygon fill="#ffffff" stroke="transparent" points="923,-603.1433 923,-664.1433 1154,-664.1433 1154,-603.1433 923,-603.1433"/>
<polygon fill="#f5f5f5" stroke="transparent" points="923.5,-640.6433 923.5,-663.6433 1154.5,-663.6433 1154.5,-640.6433 923.5,-640.6433"/>
<polygon fill="none" stroke="#000000" points="923.5,-640.6433 923.5,-663.6433 1154.5,-663.6433 1154.5,-640.6433 923.5,-640.6433"/>
<text text-anchor="start" x="928.5" y="-649.2433" font-family="Helvetica,sans-Serif" font-weight="bold" font-size="11.00" fill="#000000">Billing.VisitServiceBillings</text>
<text text-anchor="start" x="1120.0219" y="-648.7433" font-family="Helvetica,sans-Serif" font-size="11.00" fill="#000000">[table]</text>
<polygon fill="none" stroke="#000000" points="923.5,-621.6433 923.5,-640.6433 1154.5,-640.6433 1154.5,-621.6433 923.5,-621.6433"/>
<text text-anchor="start" x="926.5" y="-627.7433" font-family="Helvetica,sans-Serif" font-size="11.00" fill="#000000">...</text>
<polygon fill="#ffffff" stroke="transparent" points="923.5,-602.6433 923.5,-621.6433 1154.5,-621.6433 1154.5,-602.6433 923.5,-602.6433"/>
<polygon fill="none" stroke="#000000" points="923.5,-602.6433 923.5,-621.6433 1154.5,-621.6433 1154.5,-602.6433 923.5,-602.6433"/>
<polygon fill="#ffffff" stroke="transparent" points="924.5,-603.6433 924.5,-620.6433 1007.5,-620.6433 1007.5,-603.6433 924.5,-603.6433"/>
<text text-anchor="start" x="926.5" y="-608.7433" font-family="Helvetica,sans-Serif" font-size="11.00" fill="#000000">&lt; 2</text>
<polygon fill="#ffffff" stroke="transparent" points="1007.5,-603.6433 1007.5,-620.6433 1080.5,-620.6433 1080.5,-603.6433 1007.5,-603.6433"/>
<text text-anchor="start" x="1040.9431" y="-608.7433" font-family="Helvetica,sans-Serif" font-size="11.00" fill="#000000"> &#160;</text>
<polygon fill="#ffffff" stroke="transparent" points="1080.5,-603.6433 1080.5,-620.6433 1153.5,-620.6433 1153.5,-603.6433 1080.5,-603.6433"/>
<text text-anchor="start" x="1145.3862" y="-608.7433" font-family="Helvetica,sans-Serif" font-size="11.00" fill="#000000"> &#160;</text>
<polygon fill="#000000" stroke="#000000" points="1007.5,-603.6433 1007.5,-620.6433 1007.5,-620.6433 1007.5,-603.6433 1007.5,-603.6433"/>
<polygon fill="#000000" stroke="#000000" points="1080.5,-603.6433 1080.5,-620.6433 1080.5,-620.6433 1080.5,-603.6433 1080.5,-603.6433"/>
</a>
</g>
</g>
<!-- Visits -->
<g id="node2" class="node">
<title>Visits</title>
<g id="a_node2"><a xlink:href="../../tables/Visits.html" xlink:title="Visits" target="_top">
<polygon fill="#ffffff" stroke="transparent" points="691.5,-518.1433 691.5,-579.1433 770.5,-579.1433 770.5,-518.1433 691.5,-518.1433"/>
<polygon fill="#f5f5f5" stroke="transparent" points="692,-555.6433 692,-578.6433 771,-578.6433 771,-555.6433 692,-555.6433"/>
<polygon fill="none" stroke="#000000" points="692,-555.6433 692,-578.6433 771,-578.6433 771,-555.6433 692,-555.6433"/>
<text text-anchor="start" x="697" y="-564.2433" font-family="Helvetica,sans-Serif" font-weight="bold" font-size="11.00" fill="#000000">Visits</text>
<text text-anchor="start" x="736.5219" y="-563.7433" font-family="Helvetica,sans-Serif" font-size="11.00" fill="#000000">[table]</text>
<polygon fill="none" stroke="#000000" points="692,-536.6433 692,-555.6433 771,-555.6433 771,-536.6433 692,-536.6433"/>
<text text-anchor="start" x="695" y="-542.7433" font-family="Helvetica,sans-Serif" font-size="11.00" fill="#000000">...</text>
<polygon fill="#ffffff" stroke="transparent" points="692,-517.6433 692,-536.6433 771,-536.6433 771,-517.6433 692,-517.6433"/>
<polygon fill="none" stroke="#000000" points="692,-517.6433 692,-536.6433 771,-536.6433 771,-517.6433 692,-517.6433"/>
<polygon fill="#ffffff" stroke="transparent" points="693,-518.6433 693,-535.6433 722,-535.6433 722,-518.6433 693,-518.6433"/>
<text text-anchor="start" x="695" y="-523.7433" font-family="Helvetica,sans-Serif" font-size="11.00" fill="#000000">&lt; 1</text>
<polygon fill="#ffffff" stroke="transparent" points="722,-518.6433 722,-535.6433 742,-535.6433 742,-518.6433 722,-518.6433"/>
<text text-anchor="start" x="728.9431" y="-523.7433" font-family="Helvetica,sans-Serif" font-size="11.00" fill="#000000"> &#160;</text>
<polygon fill="#ffffff" stroke="transparent" points="742,-518.6433 742,-535.6433 770,-535.6433 770,-518.6433 742,-518.6433"/>
<text text-anchor="start" x="752.4053" y="-523.7433" font-family="Helvetica,sans-Serif" font-size="11.00" fill="#000000">4 &gt;</text>
<polygon fill="#000000" stroke="#000000" points="722,-518.6433 722,-535.6433 722,-535.6433 722,-518.6433 722,-518.6433"/>
<polygon fill="#000000" stroke="#000000" points="742,-518.6433 742,-535.6433 742,-535.6433 742,-518.6433 742,-518.6433"/>
</a>
</g>
</g>
<!-- Billing.VisitServiceBillings&#45;&gt;Visits -->
<g id="edge1" class="edge">
<title>Billing.VisitServiceBillings:w&#45;&gt;Visits:e</title>
<path fill="none" stroke="#000000" d="M909.0068,-630.0057C861.1343,-625.8751 812.9944,-602.4284 778.8695,-581.7595"/>
<polygon fill="#000000" stroke="#000000" points="915.5077,-630.2916 923.3417,-634.2398 919.5039,-630.4675 923.5,-630.6433 923.5,-630.6433 923.5,-630.6433 919.5039,-630.4675 923.6583,-627.0468 915.5077,-630.2916 915.5077,-630.2916"/>
<ellipse fill="none" stroke="#000000" cx="912.3108" cy="-630.1509" rx="3.2" ry="3.2"/>
</g>
<!-- Hospitalizations -->
<g id="node4" class="node">
<title>Hospitalizations</title>
<g id="a_node4"><a xlink:href="../../tables/Hospitalizations.html" xlink:title="Hospitalizations" target="_top">
<polygon fill="#ffffff" stroke="transparent" points="271.5,-299.6433 271.5,-587.6433 549.5,-587.6433 549.5,-299.6433 271.5,-299.6433"/>
<polygon fill="#f5f5f5" stroke="transparent" points="273.5,-562.6433 273.5,-585.6433 547.5,-585.6433 547.5,-562.6433 273.5,-562.6433"/>
<polygon fill="none" stroke="#000000" points="273.5,-562.6433 273.5,-585.6433 547.5,-585.6433 547.5,-562.6433 273.5,-562.6433"/>
<text text-anchor="start" x="278.5" y="-571.2433" font-family="Helvetica,sans-Serif" font-weight="bold" font-size="11.00" fill="#000000">Hospitalizations</text>
<text text-anchor="start" x="512.5437" y="-570.7433" font-family="Helvetica,sans-Serif" font-size="11.00" fill="#000000">[table]</text>
<polygon fill="none" stroke="#000000" points="273.5,-540.6433 273.5,-562.6433 466.5,-562.6433 466.5,-540.6433 273.5,-540.6433"/>
<image xlink:href="../../images/primaryKeys.png" width="11px" height="12px" preserveAspectRatio="xMinYMin meet" x="278.5" y="-557.643"/>
<text text-anchor="start" x="293.5" y="-547.7433" font-family="Helvetica,sans-Serif" font-size="11.00" fill="#000000">Id</text>
<polygon fill="none" stroke="#000000" points="466.5,-540.6433 466.5,-562.6433 547.5,-562.6433 547.5,-540.6433 466.5,-540.6433"/>
<text text-anchor="start" x="469.5" y="-548.3433" font-family="Helvetica,sans-Serif" font-size="11.00" fill="#000000">int identity[4]</text>
<polygon fill="#ffffff" stroke="transparent" points="273.5,-518.6433 273.5,-540.6433 466.5,-540.6433 466.5,-518.6433 273.5,-518.6433"/>
<polygon fill="none" stroke="#000000" points="273.5,-518.6433 273.5,-540.6433 466.5,-540.6433 466.5,-518.6433 273.5,-518.6433"/>
<image xlink:href="../../images/foreignKeys.png" width="11px" height="12px" preserveAspectRatio="xMinYMin meet" x="278.5" y="-535.643"/>
<text text-anchor="start" x="293.5" y="-525.7433" font-family="Helvetica,sans-Serif" font-size="11.00" fill="#000000">PatientId</text>
<polygon fill="none" stroke="#000000" points="466.5,-518.6433 466.5,-540.6433 547.5,-540.6433 547.5,-518.6433 466.5,-518.6433"/>
<text text-anchor="start" x="469.5" y="-526.3433" font-family="Helvetica,sans-Serif" font-size="11.00" fill="#000000">int[4]</text>
<polygon fill="#ffffff" stroke="transparent" points="273.5,-496.6433 273.5,-518.6433 466.5,-518.6433 466.5,-496.6433 273.5,-496.6433"/>
<polygon fill="none" stroke="#000000" points="273.5,-496.6433 273.5,-518.6433 466.5,-518.6433 466.5,-496.6433 273.5,-496.6433"/>
<image xlink:href="../../images/foreignKeys.png" width="11px" height="12px" preserveAspectRatio="xMinYMin meet" x="278.5" y="-513.643"/>
<text text-anchor="start" x="293.5" y="-503.7433" font-family="Helvetica,sans-Serif" font-size="11.00" fill="#000000">FacilityId</text>
<polygon fill="none" stroke="#000000" points="466.5,-496.6433 466.5,-518.6433 547.5,-518.6433 547.5,-496.6433 466.5,-496.6433"/>
<text text-anchor="start" x="469.5" y="-504.3433" font-family="Helvetica,sans-Serif" font-size="11.00" fill="#000000">int[4]</text>
<polygon fill="#ffffff" stroke="transparent" points="273.5,-474.6433 273.5,-496.6433 466.5,-496.6433 466.5,-474.6433 273.5,-474.6433"/>
<polygon fill="none" stroke="#000000" points="273.5,-474.6433 273.5,-496.6433 466.5,-496.6433 466.5,-474.6433 273.5,-474.6433"/>
<text text-anchor="start" x="293.5" y="-481.7433" font-family="Helvetica,sans-Serif" font-size="11.00" fill="#000000">CaseId</text>
<polygon fill="none" stroke="#000000" points="466.5,-474.6433 466.5,-496.6433 547.5,-496.6433 547.5,-474.6433 466.5,-474.6433"/>
<text text-anchor="start" x="469.5" y="-482.3433" font-family="Helvetica,sans-Serif" font-size="11.00" fill="#000000">int[4]</text>
<polygon fill="none" stroke="#000000" points="273.5,-452.6433 273.5,-474.6433 466.5,-474.6433 466.5,-452.6433 273.5,-452.6433"/>
<text text-anchor="start" x="293.5" y="-459.7433" font-family="Helvetica,sans-Serif" font-size="11.00" fill="#000000">AdmissionDate</text>
<polygon fill="none" stroke="#000000" points="466.5,-452.6433 466.5,-474.6433 547.5,-474.6433 547.5,-452.6433 466.5,-452.6433"/>
<text text-anchor="start" x="469.0968" y="-460.3433" font-family="Helvetica,sans-Serif" font-size="11.00" fill="#000000">datetime2[16,7]</text>
<polygon fill="none" stroke="#000000" points="273.5,-430.6433 273.5,-452.6433 466.5,-452.6433 466.5,-430.6433 273.5,-430.6433"/>
<text text-anchor="start" x="293.5" y="-437.7433" font-family="Helvetica,sans-Serif" font-size="11.00" fill="#000000">DischargeDate</text>
<polygon fill="none" stroke="#000000" points="466.5,-430.6433 466.5,-452.6433 547.5,-452.6433 547.5,-430.6433 466.5,-430.6433"/>
<text text-anchor="start" x="469.0968" y="-438.3433" font-family="Helvetica,sans-Serif" font-size="11.00" fill="#000000">datetime2[16,7]</text>
<polygon fill="#ffffff" stroke="transparent" points="273.5,-408.6433 273.5,-430.6433 466.5,-430.6433 466.5,-408.6433 273.5,-408.6433"/>
<polygon fill="none" stroke="#000000" points="273.5,-408.6433 273.5,-430.6433 466.5,-430.6433 466.5,-408.6433 273.5,-408.6433"/>
<image xlink:href="../../images/foreignKeys.png" width="11px" height="12px" preserveAspectRatio="xMinYMin meet" x="278.5" y="-425.643"/>
<text text-anchor="start" x="293.5" y="-415.7433" font-family="Helvetica,sans-Serif" font-size="11.00" fill="#000000">HospitalizationStatusId</text>
<polygon fill="none" stroke="#000000" points="466.5,-408.6433 466.5,-430.6433 547.5,-430.6433 547.5,-408.6433 466.5,-408.6433"/>
<text text-anchor="start" x="469.5" y="-416.3433" font-family="Helvetica,sans-Serif" font-size="11.00" fill="#000000">int[4]</text>
<polygon fill="none" stroke="#000000" points="273.5,-386.6433 273.5,-408.6433 466.5,-408.6433 466.5,-386.6433 273.5,-386.6433"/>
<text text-anchor="start" x="293.5" y="-393.7433" font-family="Helvetica,sans-Serif" font-size="11.00" fill="#000000">PsychEvaluation</text>
<polygon fill="none" stroke="#000000" points="466.5,-386.6433 466.5,-408.6433 547.5,-408.6433 547.5,-386.6433 466.5,-386.6433"/>
<text text-anchor="start" x="469.5" y="-394.3433" font-family="Helvetica,sans-Serif" font-size="11.00" fill="#000000">bit[1]</text>
<polygon fill="none" stroke="#000000" points="273.5,-364.6433 273.5,-386.6433 466.5,-386.6433 466.5,-364.6433 273.5,-364.6433"/>
<text text-anchor="start" x="293.5" y="-371.7433" font-family="Helvetica,sans-Serif" font-size="11.00" fill="#000000">CreatedAtUtc</text>
<polygon fill="none" stroke="#000000" points="466.5,-364.6433 466.5,-386.6433 547.5,-386.6433 547.5,-364.6433 466.5,-364.6433"/>
<text text-anchor="start" x="469.0968" y="-372.3433" font-family="Helvetica,sans-Serif" font-size="11.00" fill="#000000">datetime2[16,7]</text>
<polygon fill="none" stroke="#000000" points="273.5,-342.6433 273.5,-364.6433 466.5,-364.6433 466.5,-342.6433 273.5,-342.6433"/>
<text text-anchor="start" x="293.5" y="-349.7433" font-family="Helvetica,sans-Serif" font-size="11.00" fill="#000000">UpdatedAtUtc</text>
<polygon fill="none" stroke="#000000" points="466.5,-342.6433 466.5,-364.6433 547.5,-364.6433 547.5,-342.6433 466.5,-342.6433"/>
<text text-anchor="start" x="469.0968" y="-350.3433" font-family="Helvetica,sans-Serif" font-size="11.00" fill="#000000">datetime2[16,7]</text>
<polygon fill="none" stroke="#000000" points="273.5,-320.6433 273.5,-342.6433 466.5,-342.6433 466.5,-320.6433 273.5,-320.6433"/>
<text text-anchor="start" x="293.5" y="-327.7433" font-family="Helvetica,sans-Serif" font-size="11.00" fill="#000000">RowVersion</text>
<polygon fill="none" stroke="#000000" points="466.5,-320.6433 466.5,-342.6433 547.5,-342.6433 547.5,-320.6433 466.5,-320.6433"/>
<text text-anchor="start" x="469.5" y="-328.3433" font-family="Helvetica,sans-Serif" font-size="11.00" fill="#000000">timestamp[8]</text>
<polygon fill="#ffffff" stroke="transparent" points="273.5,-301.6433 273.5,-320.6433 547.5,-320.6433 547.5,-301.6433 273.5,-301.6433"/>
<polygon fill="none" stroke="#000000" points="273.5,-301.6433 273.5,-320.6433 547.5,-320.6433 547.5,-301.6433 273.5,-301.6433"/>
<polygon fill="#ffffff" stroke="transparent" points="274.5,-302.6433 274.5,-319.6433 368.5,-319.6433 368.5,-302.6433 274.5,-302.6433"/>
<text text-anchor="start" x="276.5" y="-307.7433" font-family="Helvetica,sans-Serif" font-size="11.00" fill="#000000">&lt; 3</text>
<polygon fill="#ffffff" stroke="transparent" points="368.5,-302.6433 368.5,-319.6433 453.5,-319.6433 453.5,-302.6433 368.5,-302.6433"/>
<text text-anchor="start" x="407.9431" y="-307.7433" font-family="Helvetica,sans-Serif" font-size="11.00" fill="#000000"> &#160;</text>
<polygon fill="#ffffff" stroke="transparent" points="453.5,-302.6433 453.5,-319.6433 546.5,-319.6433 546.5,-302.6433 453.5,-302.6433"/>
<text text-anchor="start" x="528.9053" y="-307.7433" font-family="Helvetica,sans-Serif" font-size="11.00" fill="#000000">4 &gt;</text>
<polygon fill="#000000" stroke="#000000" points="368.5,-302.6433 368.5,-319.6433 368.5,-319.6433 368.5,-302.6433 368.5,-302.6433"/>
<polygon fill="#000000" stroke="#000000" points="453.5,-302.6433 453.5,-319.6433 453.5,-319.6433 453.5,-302.6433 453.5,-302.6433"/>
<polygon fill="none" stroke="#000000" stroke-width="2" points="272.5,-300.6433 272.5,-586.6433 548.5,-586.6433 548.5,-300.6433 272.5,-300.6433"/>
</a>
</g>
</g>
<!-- Visits&#45;&gt;Hospitalizations -->
<g id="edge14" class="edge">
<title>Visits:w&#45;&gt;Hospitalizations:e</title>
<path fill="none" stroke="#000000" d="M668.8943,-550.1631C633.3522,-550.9064 587.9248,-551.6433 547.5,-551.6433"/>
<polygon fill="#000000" stroke="#000000" points="675.4799,-550.02 683.5562,-553.4454 679.4789,-549.9331 683.478,-549.8462 683.478,-549.8462 683.478,-549.8462 679.4789,-549.9331 683.3998,-546.2471 675.4799,-550.02 675.4799,-550.02"/>
<ellipse fill="none" stroke="#000000" cx="672.2806" cy="-550.0896" rx="3.2" ry="3.2"/>
</g>
<!-- HospitalizationInsurances -->
<g id="node3" class="node">
<title>HospitalizationInsurances</title>
<g id="a_node3"><a xlink:href="../../tables/HospitalizationInsurances.html" xlink:title="HospitalizationInsurances" target="_top">
<polygon fill="#ffffff" stroke="transparent" points="616.5,-231.1433 616.5,-358.1433 845.5,-358.1433 845.5,-231.1433 616.5,-231.1433"/>
<polygon fill="#f5f5f5" stroke="transparent" points="617,-334.6433 617,-357.6433 846,-357.6433 846,-334.6433 617,-334.6433"/>
<polygon fill="none" stroke="#000000" points="617,-334.6433 617,-357.6433 846,-357.6433 846,-334.6433 617,-334.6433"/>
<text text-anchor="start" x="622" y="-343.2433" font-family="Helvetica,sans-Serif" font-weight="bold" font-size="11.00" fill="#000000">HospitalizationInsurances</text>
<text text-anchor="start" x="811.5219" y="-342.7433" font-family="Helvetica,sans-Serif" font-size="11.00" fill="#000000">[table]</text>
<polygon fill="none" stroke="#000000" points="617,-312.6433 617,-334.6433 846,-334.6433 846,-312.6433 617,-312.6433"/>
<image xlink:href="../../images/primaryKeys.png" width="11px" height="12px" preserveAspectRatio="xMinYMin meet" x="622" y="-329.643"/>
<text text-anchor="start" x="646" y="-319.7433" font-family="Helvetica,sans-Serif" font-size="11.00" fill="#000000">Id</text>
<polygon fill="#ffffff" stroke="transparent" points="617,-290.6433 617,-312.6433 846,-312.6433 846,-290.6433 617,-290.6433"/>
<polygon fill="none" stroke="#000000" points="617,-290.6433 617,-312.6433 846,-312.6433 846,-290.6433 617,-290.6433"/>
<image xlink:href="../../images/foreignKeys.png" width="11px" height="12px" preserveAspectRatio="xMinYMin meet" x="622" y="-307.643"/>
<text text-anchor="start" x="646" y="-297.7433" font-family="Helvetica,sans-Serif" font-size="11.00" fill="#000000">HospitalizationId</text>
<polygon fill="#ffffff" stroke="transparent" points="617,-268.6433 617,-290.6433 846,-290.6433 846,-268.6433 617,-268.6433"/>
<polygon fill="none" stroke="#000000" points="617,-268.6433 617,-290.6433 846,-290.6433 846,-268.6433 617,-268.6433"/>
<image xlink:href="../../images/foreignKeys.png" width="11px" height="12px" preserveAspectRatio="xMinYMin meet" x="622" y="-285.643"/>
<text text-anchor="start" x="646" y="-275.7433" font-family="Helvetica,sans-Serif" font-size="11.00" fill="#000000">InsuranceId</text>
<polygon fill="none" stroke="#000000" points="617,-249.6433 617,-268.6433 846,-268.6433 846,-249.6433 617,-249.6433"/>
<text text-anchor="start" x="620" y="-255.7433" font-family="Helvetica,sans-Serif" font-size="11.00" fill="#000000">...</text>
<polygon fill="#ffffff" stroke="transparent" points="617,-230.6433 617,-249.6433 846,-249.6433 846,-230.6433 617,-230.6433"/>
<polygon fill="none" stroke="#000000" points="617,-230.6433 617,-249.6433 846,-249.6433 846,-230.6433 617,-230.6433"/>
<polygon fill="#ffffff" stroke="transparent" points="618,-231.6433 618,-248.6433 700,-248.6433 700,-231.6433 618,-231.6433"/>
<text text-anchor="start" x="620" y="-236.7433" font-family="Helvetica,sans-Serif" font-size="11.00" fill="#000000">&lt; 2</text>
<polygon fill="#ffffff" stroke="transparent" points="700,-231.6433 700,-248.6433 773,-248.6433 773,-231.6433 700,-231.6433"/>
<text text-anchor="start" x="733.4431" y="-236.7433" font-family="Helvetica,sans-Serif" font-size="11.00" fill="#000000"> &#160;</text>
<polygon fill="#ffffff" stroke="transparent" points="773,-231.6433 773,-248.6433 845,-248.6433 845,-231.6433 773,-231.6433"/>
<text text-anchor="start" x="836.8862" y="-236.7433" font-family="Helvetica,sans-Serif" font-size="11.00" fill="#000000"> &#160;</text>
<polygon fill="#000000" stroke="#000000" points="700,-231.6433 700,-248.6433 700,-248.6433 700,-231.6433 700,-231.6433"/>
<polygon fill="#000000" stroke="#000000" points="773,-231.6433 773,-248.6433 773,-248.6433 773,-231.6433 773,-231.6433"/>
</a>
</g>
</g>
<!-- HospitalizationInsurances&#45;&gt;Hospitalizations -->
<g id="edge2" class="edge">
<title>HospitalizationInsurances:w&#45;&gt;Hospitalizations:e</title>
<path fill="none" stroke="#000000" d="M602.548,-303.2397C516.1755,-324.5315 657.4189,-551.6433 547.5,-551.6433"/>
<polygon fill="#000000" stroke="#000000" points="609.0484,-302.5217 617.3953,-305.2215 613.0242,-302.0825 617,-301.6433 617,-301.6433 617,-301.6433 613.0242,-302.0825 616.6047,-298.0651 609.0484,-302.5217 609.0484,-302.5217"/>
<ellipse fill="none" stroke="#000000" cx="605.8677" cy="-302.8731" rx="3.2" ry="3.2"/>
</g>
<!-- Insurances -->
<g id="node5" class="node">
<title>Insurances</title>
<g id="a_node5"><a xlink:href="../../tables/Insurances.html" xlink:title="Insurances" target="_top">
<polygon fill="#ffffff" stroke="transparent" points="351.5,-217.1433 351.5,-278.1433 469.5,-278.1433 469.5,-217.1433 351.5,-217.1433"/>
<polygon fill="#f5f5f5" stroke="transparent" points="351.5,-254.6433 351.5,-277.6433 469.5,-277.6433 469.5,-254.6433 351.5,-254.6433"/>
<polygon fill="none" stroke="#000000" points="351.5,-254.6433 351.5,-277.6433 469.5,-277.6433 469.5,-254.6433 351.5,-254.6433"/>
<text text-anchor="start" x="356.5" y="-263.2433" font-family="Helvetica,sans-Serif" font-weight="bold" font-size="11.00" fill="#000000">Insurances</text>
<text text-anchor="start" x="435.0219" y="-262.7433" font-family="Helvetica,sans-Serif" font-size="11.00" fill="#000000">[table]</text>
<polygon fill="none" stroke="#000000" points="351.5,-235.6433 351.5,-254.6433 469.5,-254.6433 469.5,-235.6433 351.5,-235.6433"/>
<text text-anchor="start" x="354.5" y="-241.7433" font-family="Helvetica,sans-Serif" font-size="11.00" fill="#000000">...</text>
<polygon fill="#ffffff" stroke="transparent" points="351.5,-216.6433 351.5,-235.6433 469.5,-235.6433 469.5,-216.6433 351.5,-216.6433"/>
<polygon fill="none" stroke="#000000" points="351.5,-216.6433 351.5,-235.6433 469.5,-235.6433 469.5,-216.6433 351.5,-216.6433"/>
<polygon fill="#ffffff" stroke="transparent" points="352.5,-217.6433 352.5,-234.6433 388.5,-234.6433 388.5,-217.6433 352.5,-217.6433"/>
<text text-anchor="start" x="354.5" y="-222.7433" font-family="Helvetica,sans-Serif" font-size="11.00" fill="#000000"> &#160;</text>
<polygon fill="#ffffff" stroke="transparent" points="388.5,-217.6433 388.5,-234.6433 424.5,-234.6433 424.5,-217.6433 388.5,-217.6433"/>
<text text-anchor="start" x="403.4431" y="-222.7433" font-family="Helvetica,sans-Serif" font-size="11.00" fill="#000000"> &#160;</text>
<polygon fill="#ffffff" stroke="transparent" points="424.5,-217.6433 424.5,-234.6433 468.5,-234.6433 468.5,-217.6433 424.5,-217.6433"/>
<text text-anchor="start" x="450.9053" y="-222.7433" font-family="Helvetica,sans-Serif" font-size="11.00" fill="#000000">1 &gt;</text>
<polygon fill="#000000" stroke="#000000" points="388.5,-217.6433 388.5,-234.6433 388.5,-234.6433 388.5,-217.6433 388.5,-217.6433"/>
<polygon fill="#000000" stroke="#000000" points="424.5,-217.6433 424.5,-234.6433 424.5,-234.6433 424.5,-217.6433 424.5,-217.6433"/>
</a>
</g>
</g>
<!-- HospitalizationInsurances&#45;&gt;Insurances -->
<g id="edge3" class="edge">
<title>HospitalizationInsurances:w&#45;&gt;Insurances:e</title>
<path fill="none" stroke="#000000" d="M602.5062,-279.065C547.3651,-274.5143 531.7437,-244.6433 469.5,-244.6433"/>
<polygon fill="#000000" stroke="#000000" points="609.0064,-279.3243 616.8565,-283.2404 613.0032,-279.4838 617,-279.6433 617,-279.6433 617,-279.6433 613.0032,-279.4838 617.1435,-276.0462 609.0064,-279.3243 609.0064,-279.3243"/>
<ellipse fill="none" stroke="#000000" cx="605.8089" cy="-279.1967" rx="3.2" ry="3.2"/>
</g>
<!-- Facilities -->
<g id="node6" class="node">
<title>Facilities</title>
<g id="a_node6"><a xlink:href="../../tables/Facilities.html" xlink:title="Facilities" target="_top">
<polygon fill="#ffffff" stroke="transparent" points="52.5,-588.1433 52.5,-671.1433 176.5,-671.1433 176.5,-588.1433 52.5,-588.1433"/>
<polygon fill="#f5f5f5" stroke="transparent" points="52.5,-647.6433 52.5,-670.6433 176.5,-670.6433 176.5,-647.6433 52.5,-647.6433"/>
<polygon fill="none" stroke="#000000" points="52.5,-647.6433 52.5,-670.6433 176.5,-670.6433 176.5,-647.6433 52.5,-647.6433"/>
<text text-anchor="start" x="57.5" y="-656.2433" font-family="Helvetica,sans-Serif" font-weight="bold" font-size="11.00" fill="#000000">Facilities</text>
<text text-anchor="start" x="141.5437" y="-655.7433" font-family="Helvetica,sans-Serif" font-size="11.00" fill="#000000">[table]</text>
<polygon fill="none" stroke="#000000" points="52.5,-625.6433 52.5,-647.6433 176.5,-647.6433 176.5,-625.6433 52.5,-625.6433"/>
<image xlink:href="../../images/primaryKeys.png" width="11px" height="12px" preserveAspectRatio="xMinYMin meet" x="57.5" y="-642.643"/>
<text text-anchor="start" x="72.5" y="-632.7433" font-family="Helvetica,sans-Serif" font-size="11.00" fill="#000000">Id</text>
<polygon fill="none" stroke="#000000" points="52.5,-606.6433 52.5,-625.6433 176.5,-625.6433 176.5,-606.6433 52.5,-606.6433"/>
<text text-anchor="start" x="55.5" y="-612.7433" font-family="Helvetica,sans-Serif" font-size="11.00" fill="#000000">...</text>
<polygon fill="#ffffff" stroke="transparent" points="52.5,-587.6433 52.5,-606.6433 176.5,-606.6433 176.5,-587.6433 52.5,-587.6433"/>
<polygon fill="none" stroke="#000000" points="52.5,-587.6433 52.5,-606.6433 176.5,-606.6433 176.5,-587.6433 52.5,-587.6433"/>
<polygon fill="#ffffff" stroke="transparent" points="53.5,-588.6433 53.5,-605.6433 91.5,-605.6433 91.5,-588.6433 53.5,-588.6433"/>
<text text-anchor="start" x="55.5" y="-593.7433" font-family="Helvetica,sans-Serif" font-size="11.00" fill="#000000"> &#160;</text>
<polygon fill="#ffffff" stroke="transparent" points="91.5,-588.6433 91.5,-605.6433 129.5,-605.6433 129.5,-588.6433 91.5,-588.6433"/>
<text text-anchor="start" x="107.4431" y="-593.7433" font-family="Helvetica,sans-Serif" font-size="11.00" fill="#000000"> &#160;</text>
<polygon fill="#ffffff" stroke="transparent" points="129.5,-588.6433 129.5,-605.6433 175.5,-605.6433 175.5,-588.6433 129.5,-588.6433"/>
<text text-anchor="start" x="157.9053" y="-593.7433" font-family="Helvetica,sans-Serif" font-size="11.00" fill="#000000">3 &gt;</text>
<polygon fill="#000000" stroke="#000000" points="91.5,-588.6433 91.5,-605.6433 91.5,-605.6433 91.5,-588.6433 91.5,-588.6433"/>
<polygon fill="#000000" stroke="#000000" points="129.5,-588.6433 129.5,-605.6433 129.5,-605.6433 129.5,-588.6433 129.5,-588.6433"/>
</a>
</g>
</g>
<!-- Hospitalizations&#45;&gt;Facilities -->
<g id="edge4" class="edge">
<title>Hospitalizations:w&#45;&gt;Facilities:e</title>
<path fill="none" stroke="#000000" d="M259.3956,-510.574C241.8633,-519.6314 246.0324,-547.9318 229,-570.6433 206.5119,-600.6295 213.9818,-636.6433 176.5,-636.6433"/>
<polygon fill="#000000" stroke="#000000" points="265.6673,-509.2709 274.2324,-511.168 269.5837,-508.4571 273.5,-507.6433 273.5,-507.6433 273.5,-507.6433 269.5837,-508.4571 272.7676,-504.1186 265.6673,-509.2709 265.6673,-509.2709"/>
<ellipse fill="none" stroke="#000000" cx="262.5342" cy="-509.9219" rx="3.2" ry="3.2"/>
</g>
<!-- HospitalizationStatuses -->
<g id="node7" class="node">
<title>HospitalizationStatuses</title>
<g id="a_node7"><a xlink:href="../../tables/HospitalizationStatuses.html" xlink:title="HospitalizationStatuses" target="_top">
<polygon fill="#ffffff" stroke="transparent" points="8,-110.1433 8,-171.1433 221,-171.1433 221,-110.1433 8,-110.1433"/>
<polygon fill="#f5f5f5" stroke="transparent" points="8.5,-147.6433 8.5,-170.6433 221.5,-170.6433 221.5,-147.6433 8.5,-147.6433"/>
<polygon fill="none" stroke="#000000" points="8.5,-147.6433 8.5,-170.6433 221.5,-170.6433 221.5,-147.6433 8.5,-147.6433"/>
<text text-anchor="start" x="13.5" y="-156.2433" font-family="Helvetica,sans-Serif" font-weight="bold" font-size="11.00" fill="#000000">HospitalizationStatuses</text>
<text text-anchor="start" x="187.0219" y="-155.7433" font-family="Helvetica,sans-Serif" font-size="11.00" fill="#000000">[table]</text>
<polygon fill="none" stroke="#000000" points="8.5,-128.6433 8.5,-147.6433 221.5,-147.6433 221.5,-128.6433 8.5,-128.6433"/>
<text text-anchor="start" x="11.5" y="-134.7433" font-family="Helvetica,sans-Serif" font-size="11.00" fill="#000000">...</text>
<polygon fill="#ffffff" stroke="transparent" points="8.5,-109.6433 8.5,-128.6433 221.5,-128.6433 221.5,-109.6433 8.5,-109.6433"/>
<polygon fill="none" stroke="#000000" points="8.5,-109.6433 8.5,-128.6433 221.5,-128.6433 221.5,-109.6433 8.5,-109.6433"/>
<polygon fill="#ffffff" stroke="transparent" points="9.5,-110.6433 9.5,-127.6433 77.5,-127.6433 77.5,-110.6433 9.5,-110.6433"/>
<text text-anchor="start" x="11.5" y="-115.7433" font-family="Helvetica,sans-Serif" font-size="11.00" fill="#000000"> &#160;</text>
<polygon fill="#ffffff" stroke="transparent" points="77.5,-110.6433 77.5,-127.6433 144.5,-127.6433 144.5,-110.6433 77.5,-110.6433"/>
<text text-anchor="start" x="107.9431" y="-115.7433" font-family="Helvetica,sans-Serif" font-size="11.00" fill="#000000"> &#160;</text>
<polygon fill="#ffffff" stroke="transparent" points="144.5,-110.6433 144.5,-127.6433 220.5,-127.6433 220.5,-110.6433 144.5,-110.6433"/>
<text text-anchor="start" x="202.9053" y="-115.7433" font-family="Helvetica,sans-Serif" font-size="11.00" fill="#000000">3 &gt;</text>
<polygon fill="#000000" stroke="#000000" points="77.5,-110.6433 77.5,-127.6433 77.5,-127.6433 77.5,-110.6433 77.5,-110.6433"/>
<polygon fill="#000000" stroke="#000000" points="144.5,-110.6433 144.5,-127.6433 144.5,-127.6433 144.5,-110.6433 144.5,-110.6433"/>
</a>
</g>
</g>
<!-- Hospitalizations&#45;&gt;HospitalizationStatuses -->
<g id="edge5" class="edge">
<title>Hospitalizations:w&#45;&gt;HospitalizationStatuses:e</title>
<path fill="none" stroke="#000000" d="M258.9711,-418.6415C159.2328,-404.6114 127.4046,-246.8458 118.0629,-175.4147"/>
<polygon fill="#000000" stroke="#000000" points="265.519,-419.0929 273.2523,-423.2348 269.5095,-419.3681 273.5,-419.6433 273.5,-419.6433 273.5,-419.6433 269.5095,-419.3681 273.7477,-416.0518 265.519,-419.0929 265.519,-419.0929"/>
<ellipse fill="none" stroke="#000000" cx="262.3265" cy="-418.8728" rx="3.2" ry="3.2"/>
</g>
<!-- Patients -->
<g id="node8" class="node">
<title>Patients</title>
<g id="a_node8"><a xlink:href="../../tables/Patients.html" xlink:title="Patients" target="_top">
<polygon fill="#ffffff" stroke="transparent" points="65,-499.1433 65,-560.1433 164,-560.1433 164,-499.1433 65,-499.1433"/>
<polygon fill="#f5f5f5" stroke="transparent" points="65.5,-536.6433 65.5,-559.6433 164.5,-559.6433 164.5,-536.6433 65.5,-536.6433"/>
<polygon fill="none" stroke="#000000" points="65.5,-536.6433 65.5,-559.6433 164.5,-559.6433 164.5,-536.6433 65.5,-536.6433"/>
<text text-anchor="start" x="70.5" y="-545.2433" font-family="Helvetica,sans-Serif" font-weight="bold" font-size="11.00" fill="#000000">Patients</text>
<text text-anchor="start" x="130.0219" y="-544.7433" font-family="Helvetica,sans-Serif" font-size="11.00" fill="#000000">[table]</text>
<polygon fill="none" stroke="#000000" points="65.5,-517.6433 65.5,-536.6433 164.5,-536.6433 164.5,-517.6433 65.5,-517.6433"/>
<text text-anchor="start" x="68.5" y="-523.7433" font-family="Helvetica,sans-Serif" font-size="11.00" fill="#000000">...</text>
<polygon fill="#ffffff" stroke="transparent" points="65.5,-498.6433 65.5,-517.6433 164.5,-517.6433 164.5,-498.6433 65.5,-498.6433"/>
<polygon fill="none" stroke="#000000" points="65.5,-498.6433 65.5,-517.6433 164.5,-517.6433 164.5,-498.6433 65.5,-498.6433"/>
<polygon fill="#ffffff" stroke="transparent" points="66.5,-499.6433 66.5,-516.6433 96.5,-516.6433 96.5,-499.6433 66.5,-499.6433"/>
<text text-anchor="start" x="68.5" y="-504.7433" font-family="Helvetica,sans-Serif" font-size="11.00" fill="#000000"> &#160;</text>
<polygon fill="#ffffff" stroke="transparent" points="96.5,-499.6433 96.5,-516.6433 125.5,-516.6433 125.5,-499.6433 96.5,-499.6433"/>
<text text-anchor="start" x="107.9431" y="-504.7433" font-family="Helvetica,sans-Serif" font-size="11.00" fill="#000000"> &#160;</text>
<polygon fill="#ffffff" stroke="transparent" points="125.5,-499.6433 125.5,-516.6433 163.5,-516.6433 163.5,-499.6433 125.5,-499.6433"/>
<text text-anchor="start" x="145.9053" y="-504.7433" font-family="Helvetica,sans-Serif" font-size="11.00" fill="#000000">3 &gt;</text>
<polygon fill="#000000" stroke="#000000" points="96.5,-499.6433 96.5,-516.6433 96.5,-516.6433 96.5,-499.6433 96.5,-499.6433"/>
<polygon fill="#000000" stroke="#000000" points="125.5,-499.6433 125.5,-516.6433 125.5,-516.6433 125.5,-499.6433 125.5,-499.6433"/>
</a>
</g>
</g>
<!-- Hospitalizations&#45;&gt;Patients -->
<g id="edge6" class="edge">
<title>Hospitalizations:w&#45;&gt;Patients:e</title>
<path fill="none" stroke="#000000" d="M258.7425,-529.6433C229.2693,-529.6433 198.0825,-529.6433 172.2766,-529.6433"/>
<polygon fill="#000000" stroke="#000000" points="265.5,-529.6434 273.5,-533.2433 269.5,-529.6433 273.5,-529.6433 273.5,-529.6433 273.5,-529.6433 269.5,-529.6433 273.5,-526.0433 265.5,-529.6434 265.5,-529.6434"/>
<ellipse fill="none" stroke="#000000" cx="262.3" cy="-529.6434" rx="3.2" ry="3.2"/>
</g>
<!-- HospitalizationStatusHistories -->
<g id="node9" class="node">
<title>HospitalizationStatusHistories</title>
<g id="a_node9"><a xlink:href="../../tables/HospitalizationStatusHistories.html" xlink:title="HospitalizationStatusHistories" target="_top">
<polygon fill="#ffffff" stroke="transparent" points="600,-110.1433 600,-171.1433 862,-171.1433 862,-110.1433 600,-110.1433"/>
<polygon fill="#f5f5f5" stroke="transparent" points="600,-147.6433 600,-170.6433 862,-170.6433 862,-147.6433 600,-147.6433"/>
<polygon fill="none" stroke="#000000" points="600,-147.6433 600,-170.6433 862,-170.6433 862,-147.6433 600,-147.6433"/>
<text text-anchor="start" x="605" y="-156.2433" font-family="Helvetica,sans-Serif" font-weight="bold" font-size="11.00" fill="#000000">HospitalizationStatusHistories</text>
<text text-anchor="start" x="827.5219" y="-155.7433" font-family="Helvetica,sans-Serif" font-size="11.00" fill="#000000">[table]</text>
<polygon fill="none" stroke="#000000" points="600,-128.6433 600,-147.6433 862,-147.6433 862,-128.6433 600,-128.6433"/>
<text text-anchor="start" x="603" y="-134.7433" font-family="Helvetica,sans-Serif" font-size="11.00" fill="#000000">...</text>
<polygon fill="#ffffff" stroke="transparent" points="600,-109.6433 600,-128.6433 862,-128.6433 862,-109.6433 600,-109.6433"/>
<polygon fill="none" stroke="#000000" points="600,-109.6433 600,-128.6433 862,-128.6433 862,-109.6433 600,-109.6433"/>
<polygon fill="#ffffff" stroke="transparent" points="601,-110.6433 601,-127.6433 694,-127.6433 694,-110.6433 601,-110.6433"/>
<text text-anchor="start" x="603" y="-115.7433" font-family="Helvetica,sans-Serif" font-size="11.00" fill="#000000">&lt; 2</text>
<polygon fill="#ffffff" stroke="transparent" points="694,-110.6433 694,-127.6433 778,-127.6433 778,-110.6433 694,-110.6433"/>
<text text-anchor="start" x="732.9431" y="-115.7433" font-family="Helvetica,sans-Serif" font-size="11.00" fill="#000000"> &#160;</text>
<polygon fill="#ffffff" stroke="transparent" points="778,-110.6433 778,-127.6433 861,-127.6433 861,-110.6433 778,-110.6433"/>
<text text-anchor="start" x="852.8862" y="-115.7433" font-family="Helvetica,sans-Serif" font-size="11.00" fill="#000000"> &#160;</text>
<polygon fill="#000000" stroke="#000000" points="694,-110.6433 694,-127.6433 694,-127.6433 694,-110.6433 694,-110.6433"/>
<polygon fill="#000000" stroke="#000000" points="778,-110.6433 778,-127.6433 778,-127.6433 778,-110.6433 778,-110.6433"/>
</a>
</g>
</g>
<!-- HospitalizationStatusHistories&#45;&gt;Hospitalizations -->
<g id="edge7" class="edge">
<title>HospitalizationStatusHistories:w&#45;&gt;Hospitalizations:e</title>
<path fill="none" stroke="#000000" d="M630.6919,-183.0262C615.7149,-193.3294 601.9783,-205.7757 592,-220.6433 550.6407,-282.2681 621.7173,-551.6433 547.5,-551.6433"/>
<polygon fill="#000000" stroke="#000000" points="636.1784,-179.5228 644.8585,-178.2514 639.5497,-177.37 642.921,-175.2173 642.921,-175.2173 642.921,-175.2173 639.5497,-177.37 640.9835,-172.1831 636.1784,-179.5228 636.1784,-179.5228"/>
<ellipse fill="none" stroke="#000000" cx="633.4813" cy="-181.245" rx="3.2" ry="3.2"/>
</g>
<!-- HospitalizationStatusHistories&#45;&gt;HospitalizationStatuses -->
<g id="edge8" class="edge">
<title>HospitalizationStatusHistories:w&#45;&gt;HospitalizationStatuses:e</title>
<path fill="none" stroke="#000000" d="M577.2253,-140.6433C469.3565,-140.6433 327.4524,-140.6433 229.3691,-140.6433"/>
<polygon fill="#000000" stroke="#000000" points="583.8767,-140.6434 591.8767,-144.2433 587.8767,-140.6433 591.8767,-140.6433 591.8767,-140.6433 591.8767,-140.6433 587.8767,-140.6433 591.8766,-137.0433 583.8767,-140.6434 583.8767,-140.6434"/>
<ellipse fill="none" stroke="#000000" cx="580.6767" cy="-140.6434" rx="3.2" ry="3.2"/>
</g>
<!-- PatientFacilities -->
<g id="node10" class="node">
<title>PatientFacilities</title>
<g id="a_node10"><a xlink:href="../../tables/PatientFacilities.html" xlink:title="PatientFacilities" target="_top">
<polygon fill="#ffffff" stroke="transparent" points="331.5,-609.1433 331.5,-670.1433 489.5,-670.1433 489.5,-609.1433 331.5,-609.1433"/>
<polygon fill="#f5f5f5" stroke="transparent" points="331.5,-646.6433 331.5,-669.6433 489.5,-669.6433 489.5,-646.6433 331.5,-646.6433"/>
<polygon fill="none" stroke="#000000" points="331.5,-646.6433 331.5,-669.6433 489.5,-669.6433 489.5,-646.6433 331.5,-646.6433"/>
<text text-anchor="start" x="336.5" y="-655.2433" font-family="Helvetica,sans-Serif" font-weight="bold" font-size="11.00" fill="#000000">PatientFacilities</text>
<text text-anchor="start" x="455.0219" y="-654.7433" font-family="Helvetica,sans-Serif" font-size="11.00" fill="#000000">[table]</text>
<polygon fill="none" stroke="#000000" points="331.5,-627.6433 331.5,-646.6433 489.5,-646.6433 489.5,-627.6433 331.5,-627.6433"/>
<text text-anchor="start" x="334.5" y="-633.7433" font-family="Helvetica,sans-Serif" font-size="11.00" fill="#000000">...</text>
<polygon fill="#ffffff" stroke="transparent" points="331.5,-608.6433 331.5,-627.6433 489.5,-627.6433 489.5,-608.6433 331.5,-608.6433"/>
<polygon fill="none" stroke="#000000" points="331.5,-608.6433 331.5,-627.6433 489.5,-627.6433 489.5,-608.6433 331.5,-608.6433"/>
<polygon fill="#ffffff" stroke="transparent" points="332.5,-609.6433 332.5,-626.6433 390.5,-626.6433 390.5,-609.6433 332.5,-609.6433"/>
<text text-anchor="start" x="334.5" y="-614.7433" font-family="Helvetica,sans-Serif" font-size="11.00" fill="#000000">&lt; 2</text>
<polygon fill="#ffffff" stroke="transparent" points="390.5,-609.6433 390.5,-626.6433 439.5,-626.6433 439.5,-609.6433 390.5,-609.6433"/>
<text text-anchor="start" x="411.9431" y="-614.7433" font-family="Helvetica,sans-Serif" font-size="11.00" fill="#000000"> &#160;</text>
<polygon fill="#ffffff" stroke="transparent" points="439.5,-609.6433 439.5,-626.6433 488.5,-626.6433 488.5,-609.6433 439.5,-609.6433"/>
<text text-anchor="start" x="480.3862" y="-614.7433" font-family="Helvetica,sans-Serif" font-size="11.00" fill="#000000"> &#160;</text>
<polygon fill="#000000" stroke="#000000" points="390.5,-609.6433 390.5,-626.6433 390.5,-626.6433 390.5,-609.6433 390.5,-609.6433"/>
<polygon fill="#000000" stroke="#000000" points="439.5,-609.6433 439.5,-626.6433 439.5,-626.6433 439.5,-609.6433 439.5,-609.6433"/>
</a>
</g>
</g>
<!-- PatientFacilities&#45;&gt;Facilities -->
<g id="edge9" class="edge">
<title>PatientFacilities:w&#45;&gt;Facilities:e</title>
<path fill="none" stroke="#000000" d="M316.973,-636.6433C259.7701,-636.6433 240.276,-636.6433 176.5,-636.6433"/>
<polygon fill="#000000" stroke="#000000" points="323.5,-636.6434 331.5,-640.2433 327.5,-636.6433 331.5,-636.6433 331.5,-636.6433 331.5,-636.6433 327.5,-636.6433 331.5,-633.0433 323.5,-636.6434 323.5,-636.6434"/>
<ellipse fill="none" stroke="#000000" cx="320.3" cy="-636.6434" rx="3.2" ry="3.2"/>
</g>
<!-- PatientFacilities&#45;&gt;Patients -->
<g id="edge10" class="edge">
<title>PatientFacilities:w&#45;&gt;Patients:e</title>
<path fill="none" stroke="#000000" d="M316.9104,-635.6184C277.8087,-629.7128 270.848,-599.528 229,-577.6433 210.9501,-568.204 190.6238,-559.1928 172.1613,-551.58"/>
<polygon fill="#000000" stroke="#000000" points="323.5197,-636.0826 331.2477,-640.2344 327.5098,-636.363 331.5,-636.6433 331.5,-636.6433 331.5,-636.6433 327.5098,-636.363 331.7523,-633.0521 323.5197,-636.0826 323.5197,-636.0826"/>
<ellipse fill="none" stroke="#000000" cx="320.3275" cy="-635.8584" rx="3.2" ry="3.2"/>
</g>
<!-- VisitAttendants -->
<g id="node11" class="node">
<title>VisitAttendants</title>
<g id="a_node11"><a xlink:href="../../tables/VisitAttendants.html" xlink:title="VisitAttendants" target="_top">
<polygon fill="#ffffff" stroke="transparent" points="962,-439.1433 962,-500.1433 1115,-500.1433 1115,-439.1433 962,-439.1433"/>
<polygon fill="#f5f5f5" stroke="transparent" points="962.5,-476.6433 962.5,-499.6433 1115.5,-499.6433 1115.5,-476.6433 962.5,-476.6433"/>
<polygon fill="none" stroke="#000000" points="962.5,-476.6433 962.5,-499.6433 1115.5,-499.6433 1115.5,-476.6433 962.5,-476.6433"/>
<text text-anchor="start" x="967.5" y="-485.2433" font-family="Helvetica,sans-Serif" font-weight="bold" font-size="11.00" fill="#000000">VisitAttendants</text>
<text text-anchor="start" x="1081.0219" y="-484.7433" font-family="Helvetica,sans-Serif" font-size="11.00" fill="#000000">[table]</text>
<polygon fill="none" stroke="#000000" points="962.5,-457.6433 962.5,-476.6433 1115.5,-476.6433 1115.5,-457.6433 962.5,-457.6433"/>
<text text-anchor="start" x="965.5" y="-463.7433" font-family="Helvetica,sans-Serif" font-size="11.00" fill="#000000">...</text>
<polygon fill="#ffffff" stroke="transparent" points="962.5,-438.6433 962.5,-457.6433 1115.5,-457.6433 1115.5,-438.6433 962.5,-438.6433"/>
<polygon fill="none" stroke="#000000" points="962.5,-438.6433 962.5,-457.6433 1115.5,-457.6433 1115.5,-438.6433 962.5,-438.6433"/>
<polygon fill="#ffffff" stroke="transparent" points="963.5,-439.6433 963.5,-456.6433 1020.5,-456.6433 1020.5,-439.6433 963.5,-439.6433"/>
<text text-anchor="start" x="965.5" y="-444.7433" font-family="Helvetica,sans-Serif" font-size="11.00" fill="#000000">&lt; 2</text>
<polygon fill="#ffffff" stroke="transparent" points="1020.5,-439.6433 1020.5,-456.6433 1067.5,-456.6433 1067.5,-439.6433 1020.5,-439.6433"/>
<text text-anchor="start" x="1040.9431" y="-444.7433" font-family="Helvetica,sans-Serif" font-size="11.00" fill="#000000"> &#160;</text>
<polygon fill="#ffffff" stroke="transparent" points="1067.5,-439.6433 1067.5,-456.6433 1114.5,-456.6433 1114.5,-439.6433 1067.5,-439.6433"/>
<text text-anchor="start" x="1106.3862" y="-444.7433" font-family="Helvetica,sans-Serif" font-size="11.00" fill="#000000"> &#160;</text>
<polygon fill="#000000" stroke="#000000" points="1020.5,-439.6433 1020.5,-456.6433 1020.5,-456.6433 1020.5,-439.6433 1020.5,-439.6433"/>
<polygon fill="#000000" stroke="#000000" points="1067.5,-439.6433 1067.5,-456.6433 1067.5,-456.6433 1067.5,-439.6433 1067.5,-439.6433"/>
</a>
</g>
</g>
<!-- VisitAttendants&#45;&gt;Visits -->
<g id="edge12" class="edge">
<title>VisitAttendants:w&#45;&gt;Visits:e</title>
<path fill="none" stroke="#000000" d="M948.139,-467.9808C905.8615,-474.7748 828.6066,-505.9825 778.56,-527.5263"/>
<polygon fill="#000000" stroke="#000000" points="954.5345,-467.3852 962.8339,-470.2278 958.5172,-467.0142 962.5,-466.6433 962.5,-466.6433 962.5,-466.6433 958.5172,-467.0142 962.1661,-463.0588 954.5345,-467.3852 954.5345,-467.3852"/>
<ellipse fill="none" stroke="#000000" cx="951.3483" cy="-467.682" rx="3.2" ry="3.2"/>
</g>
<!-- Providers -->
<g id="node12" class="node">
<title>Providers</title>
<g id="a_node12"><a xlink:href="../../tables/Providers.html" xlink:title="Providers" target="_top">
<polygon fill="#ffffff" stroke="transparent" points="676.5,-412.1433 676.5,-473.1433 785.5,-473.1433 785.5,-412.1433 676.5,-412.1433"/>
<polygon fill="#f5f5f5" stroke="transparent" points="677,-449.6433 677,-472.6433 786,-472.6433 786,-449.6433 677,-449.6433"/>
<polygon fill="none" stroke="#000000" points="677,-449.6433 677,-472.6433 786,-472.6433 786,-449.6433 677,-449.6433"/>
<text text-anchor="start" x="682" y="-458.2433" font-family="Helvetica,sans-Serif" font-weight="bold" font-size="11.00" fill="#000000">Providers</text>
<text text-anchor="start" x="751.5219" y="-457.7433" font-family="Helvetica,sans-Serif" font-size="11.00" fill="#000000">[table]</text>
<polygon fill="none" stroke="#000000" points="677,-430.6433 677,-449.6433 786,-449.6433 786,-430.6433 677,-430.6433"/>
<text text-anchor="start" x="680" y="-436.7433" font-family="Helvetica,sans-Serif" font-size="11.00" fill="#000000">...</text>
<polygon fill="#ffffff" stroke="transparent" points="677,-411.6433 677,-430.6433 786,-430.6433 786,-411.6433 677,-411.6433"/>
<polygon fill="none" stroke="#000000" points="677,-411.6433 677,-430.6433 786,-430.6433 786,-411.6433 677,-411.6433"/>
<polygon fill="#ffffff" stroke="transparent" points="678,-412.6433 678,-429.6433 717,-429.6433 717,-412.6433 678,-412.6433"/>
<text text-anchor="start" x="680" y="-417.7433" font-family="Helvetica,sans-Serif" font-size="11.00" fill="#000000">&lt; 2</text>
<polygon fill="#ffffff" stroke="transparent" points="717,-412.6433 717,-429.6433 747,-429.6433 747,-412.6433 717,-412.6433"/>
<text text-anchor="start" x="728.9431" y="-417.7433" font-family="Helvetica,sans-Serif" font-size="11.00" fill="#000000"> &#160;</text>
<polygon fill="#ffffff" stroke="transparent" points="747,-412.6433 747,-429.6433 785,-429.6433 785,-412.6433 747,-412.6433"/>
<text text-anchor="start" x="767.4053" y="-417.7433" font-family="Helvetica,sans-Serif" font-size="11.00" fill="#000000">3 &gt;</text>
<polygon fill="#000000" stroke="#000000" points="717,-412.6433 717,-429.6433 717,-429.6433 717,-412.6433 717,-412.6433"/>
<polygon fill="#000000" stroke="#000000" points="747,-412.6433 747,-429.6433 747,-429.6433 747,-412.6433 747,-412.6433"/>
</a>
</g>
</g>
<!-- VisitAttendants&#45;&gt;Providers -->
<g id="edge11" class="edge">
<title>VisitAttendants:w&#45;&gt;Providers:e</title>
<path fill="none" stroke="#000000" d="M947.8899,-466.3213C880.5945,-463.275 860.2422,-439.6433 786,-439.6433"/>
<polygon fill="#000000" stroke="#000000" points="954.5019,-466.467 962.4206,-470.2424 958.501,-466.5551 962.5,-466.6433 962.5,-466.6433 962.5,-466.6433 958.501,-466.5551 962.5794,-463.0442 954.5019,-466.467 954.5019,-466.467"/>
<ellipse fill="none" stroke="#000000" cx="951.3027" cy="-466.3964" rx="3.2" ry="3.2"/>
</g>
<!-- VisitEvents -->
<g id="node13" class="node">
<title>VisitEvents</title>
<g id="a_node13"><a xlink:href="../../tables/VisitEvents.html" xlink:title="VisitEvents" target="_top">
<polygon fill="#ffffff" stroke="transparent" points="978,-521.1433 978,-582.1433 1099,-582.1433 1099,-521.1433 978,-521.1433"/>
<polygon fill="#f5f5f5" stroke="transparent" points="978.5,-558.6433 978.5,-581.6433 1099.5,-581.6433 1099.5,-558.6433 978.5,-558.6433"/>
<polygon fill="none" stroke="#000000" points="978.5,-558.6433 978.5,-581.6433 1099.5,-581.6433 1099.5,-558.6433 978.5,-558.6433"/>
<text text-anchor="start" x="983.5" y="-567.2433" font-family="Helvetica,sans-Serif" font-weight="bold" font-size="11.00" fill="#000000">VisitEvents</text>
<text text-anchor="start" x="1065.0219" y="-566.7433" font-family="Helvetica,sans-Serif" font-size="11.00" fill="#000000">[table]</text>
<polygon fill="none" stroke="#000000" points="978.5,-539.6433 978.5,-558.6433 1099.5,-558.6433 1099.5,-539.6433 978.5,-539.6433"/>
<text text-anchor="start" x="981.5" y="-545.7433" font-family="Helvetica,sans-Serif" font-size="11.00" fill="#000000">...</text>
<polygon fill="#ffffff" stroke="transparent" points="978.5,-520.6433 978.5,-539.6433 1099.5,-539.6433 1099.5,-520.6433 978.5,-520.6433"/>
<polygon fill="none" stroke="#000000" points="978.5,-520.6433 978.5,-539.6433 1099.5,-539.6433 1099.5,-520.6433 978.5,-520.6433"/>
<polygon fill="#ffffff" stroke="transparent" points="979.5,-521.6433 979.5,-538.6433 1025.5,-538.6433 1025.5,-521.6433 979.5,-521.6433"/>
<text text-anchor="start" x="981.5" y="-526.7433" font-family="Helvetica,sans-Serif" font-size="11.00" fill="#000000">&lt; 2</text>
<polygon fill="#ffffff" stroke="transparent" points="1025.5,-521.6433 1025.5,-538.6433 1062.5,-538.6433 1062.5,-521.6433 1025.5,-521.6433"/>
<text text-anchor="start" x="1040.9431" y="-526.7433" font-family="Helvetica,sans-Serif" font-size="11.00" fill="#000000"> &#160;</text>
<polygon fill="#ffffff" stroke="transparent" points="1062.5,-521.6433 1062.5,-538.6433 1098.5,-538.6433 1098.5,-521.6433 1062.5,-521.6433"/>
<text text-anchor="start" x="1090.3862" y="-526.7433" font-family="Helvetica,sans-Serif" font-size="11.00" fill="#000000"> &#160;</text>
<polygon fill="#000000" stroke="#000000" points="1025.5,-521.6433 1025.5,-538.6433 1025.5,-538.6433 1025.5,-521.6433 1025.5,-521.6433"/>
<polygon fill="#000000" stroke="#000000" points="1062.5,-521.6433 1062.5,-538.6433 1062.5,-538.6433 1062.5,-521.6433 1062.5,-521.6433"/>
</a>
</g>
</g>
<!-- VisitEvents&#45;&gt;Visits -->
<g id="edge13" class="edge">
<title>VisitEvents:w&#45;&gt;Visits:e</title>
<path fill="none" stroke="#000000" d="M963.7142,-548.6433C897.9585,-548.6433 825.2608,-548.6433 778.9096,-548.6433"/>
<polygon fill="#000000" stroke="#000000" points="970.5,-548.6434 978.5,-552.2433 974.5,-548.6433 978.5,-548.6433 978.5,-548.6433 978.5,-548.6433 974.5,-548.6433 978.5,-545.0433 970.5,-548.6434 970.5,-548.6434"/>
<ellipse fill="none" stroke="#000000" cx="967.3" cy="-548.6434" rx="3.2" ry="3.2"/>
</g>
<!-- Compensation.ProviderContracts -->
<g id="node14" class="node">
<title>Compensation.ProviderContracts</title>
<g id="a_node14"><a xlink:title="Compensation.ProviderContracts">
<polygon fill="#ffffff" stroke="transparent" points="270,-691.1433 270,-752.1433 551,-752.1433 551,-691.1433 270,-691.1433"/>
<polygon fill="#f5f5f5" stroke="transparent" points="270.5,-728.6433 270.5,-751.6433 551.5,-751.6433 551.5,-728.6433 270.5,-728.6433"/>
<polygon fill="none" stroke="#000000" points="270.5,-728.6433 270.5,-751.6433 551.5,-751.6433 551.5,-728.6433 270.5,-728.6433"/>
<text text-anchor="start" x="275.5" y="-737.2433" font-family="Helvetica,sans-Serif" font-weight="bold" font-size="11.00" fill="#000000">Compensation.ProviderContracts</text>
<text text-anchor="start" x="517.0219" y="-736.7433" font-family="Helvetica,sans-Serif" font-size="11.00" fill="#000000">[table]</text>
<polygon fill="none" stroke="#000000" points="270.5,-709.6433 270.5,-728.6433 551.5,-728.6433 551.5,-709.6433 270.5,-709.6433"/>
<text text-anchor="start" x="273.5" y="-715.7433" font-family="Helvetica,sans-Serif" font-size="11.00" fill="#000000">...</text>
<polygon fill="#ffffff" stroke="transparent" points="270.5,-690.6433 270.5,-709.6433 551.5,-709.6433 551.5,-690.6433 270.5,-690.6433"/>
<polygon fill="none" stroke="#000000" points="270.5,-690.6433 270.5,-709.6433 551.5,-709.6433 551.5,-690.6433 270.5,-690.6433"/>
<polygon fill="#ffffff" stroke="transparent" points="271.5,-691.6433 271.5,-708.6433 370.5,-708.6433 370.5,-691.6433 271.5,-691.6433"/>
<text text-anchor="start" x="273.5" y="-696.7433" font-family="Helvetica,sans-Serif" font-size="11.00" fill="#000000">&lt; 1</text>
<polygon fill="#ffffff" stroke="transparent" points="370.5,-691.6433 370.5,-708.6433 460.5,-708.6433 460.5,-691.6433 370.5,-691.6433"/>
<text text-anchor="start" x="412.4431" y="-696.7433" font-family="Helvetica,sans-Serif" font-size="11.00" fill="#000000"> &#160;</text>
<polygon fill="#ffffff" stroke="transparent" points="460.5,-691.6433 460.5,-708.6433 550.5,-708.6433 550.5,-691.6433 460.5,-691.6433"/>
<text text-anchor="start" x="542.3862" y="-696.7433" font-family="Helvetica,sans-Serif" font-size="11.00" fill="#000000"> &#160;</text>
<polygon fill="#000000" stroke="#000000" points="370.5,-691.6433 370.5,-708.6433 370.5,-708.6433 370.5,-691.6433 370.5,-691.6433"/>
<polygon fill="#000000" stroke="#000000" points="460.5,-691.6433 460.5,-708.6433 460.5,-708.6433 460.5,-691.6433 460.5,-691.6433"/>
</a>
</g>
</g>
<!-- Compensation.ProviderContracts&#45;&gt;Facilities -->
<g id="edge15" class="edge">
<title>Compensation.ProviderContracts:w&#45;&gt;Facilities:e</title>
<path fill="none" stroke="#000000" d="M256.1922,-716.45C217.6673,-703.4097 226.5258,-636.6433 176.5,-636.6433"/>
<polygon fill="#000000" stroke="#000000" points="262.5924,-717.4311 269.9545,-722.2017 266.5462,-718.0372 270.5,-718.6433 270.5,-718.6433 270.5,-718.6433 266.5462,-718.0372 271.0455,-715.0849 262.5924,-717.4311 262.5924,-717.4311"/>
<ellipse fill="none" stroke="#000000" cx="259.4293" cy="-716.9462" rx="3.2" ry="3.2"/>
</g>
<!-- staging.ProviderAssignments -->
<g id="node15" class="node">
<title>staging.ProviderAssignments</title>
<g id="a_node15"><a xlink:title="staging.ProviderAssignments">
<polygon fill="#ffffff" stroke="transparent" points="911,-357.1433 911,-418.1433 1166,-418.1433 1166,-357.1433 911,-357.1433"/>
<polygon fill="#f5f5f5" stroke="transparent" points="911.5,-394.6433 911.5,-417.6433 1166.5,-417.6433 1166.5,-394.6433 911.5,-394.6433"/>
<polygon fill="none" stroke="#000000" points="911.5,-394.6433 911.5,-417.6433 1166.5,-417.6433 1166.5,-394.6433 911.5,-394.6433"/>
<text text-anchor="start" x="916.5" y="-403.2433" font-family="Helvetica,sans-Serif" font-weight="bold" font-size="11.00" fill="#000000">staging.ProviderAssignments</text>
<text text-anchor="start" x="1132.0219" y="-402.7433" font-family="Helvetica,sans-Serif" font-size="11.00" fill="#000000">[table]</text>
<polygon fill="none" stroke="#000000" points="911.5,-375.6433 911.5,-394.6433 1166.5,-394.6433 1166.5,-375.6433 911.5,-375.6433"/>
<text text-anchor="start" x="914.5" y="-381.7433" font-family="Helvetica,sans-Serif" font-size="11.00" fill="#000000">...</text>
<polygon fill="#ffffff" stroke="transparent" points="911.5,-356.6433 911.5,-375.6433 1166.5,-375.6433 1166.5,-356.6433 911.5,-356.6433"/>
<polygon fill="none" stroke="#000000" points="911.5,-356.6433 911.5,-375.6433 1166.5,-375.6433 1166.5,-356.6433 911.5,-356.6433"/>
<polygon fill="#ffffff" stroke="transparent" points="912.5,-357.6433 912.5,-374.6433 1003.5,-374.6433 1003.5,-357.6433 912.5,-357.6433"/>
<text text-anchor="start" x="914.5" y="-362.7433" font-family="Helvetica,sans-Serif" font-size="11.00" fill="#000000">&lt; 6</text>
<polygon fill="#ffffff" stroke="transparent" points="1003.5,-357.6433 1003.5,-374.6433 1084.5,-374.6433 1084.5,-357.6433 1003.5,-357.6433"/>
<text text-anchor="start" x="1040.9431" y="-362.7433" font-family="Helvetica,sans-Serif" font-size="11.00" fill="#000000"> &#160;</text>
<polygon fill="#ffffff" stroke="transparent" points="1084.5,-357.6433 1084.5,-374.6433 1165.5,-374.6433 1165.5,-357.6433 1084.5,-357.6433"/>
<text text-anchor="start" x="1157.3862" y="-362.7433" font-family="Helvetica,sans-Serif" font-size="11.00" fill="#000000"> &#160;</text>
<polygon fill="#000000" stroke="#000000" points="1003.5,-357.6433 1003.5,-374.6433 1003.5,-374.6433 1003.5,-357.6433 1003.5,-357.6433"/>
<polygon fill="#000000" stroke="#000000" points="1084.5,-357.6433 1084.5,-374.6433 1084.5,-374.6433 1084.5,-357.6433 1084.5,-357.6433"/>
</a>
</g>
</g>
<!-- staging.ProviderAssignments&#45;&gt;Visits -->
<g id="edge21" class="edge">
<title>staging.ProviderAssignments:w&#45;&gt;Visits:e</title>
<path fill="none" stroke="#000000" d="M901.0576,-432.0052C882.8831,-451.3525 888.1916,-467.2353 870,-483.6433 843.7886,-507.2849 807.4738,-523.8664 778.5359,-534.3628"/>
<polygon fill="#000000" stroke="#000000" points="906.0934,-427.5275 914.464,-424.9019 909.0826,-424.8695 912.0718,-422.2116 912.0718,-422.2116 912.0718,-422.2116 909.0826,-424.8695 909.6797,-419.5213 906.0934,-427.5275 906.0934,-427.5275"/>
<ellipse fill="none" stroke="#000000" cx="903.702" cy="-429.6538" rx="3.2" ry="3.2"/>
</g>
<!-- staging.ProviderAssignments&#45;&gt;Hospitalizations -->
<g id="edge16" class="edge">
<title>staging.ProviderAssignments:w&#45;&gt;Hospitalizations:e</title>
<path fill="none" stroke="#000000" d="M888.4494,-374.1227C777.0809,-367.3832 637.0475,-366.9069 592,-401.6433 536.932,-444.1065 617.0385,-551.6433 547.5,-551.6433"/>
<polygon fill="#000000" stroke="#000000" points="894.9347,-374.5349 902.6901,-378.6353 898.9266,-374.7887 902.9186,-375.0426 902.9186,-375.0426 902.9186,-375.0426 898.9266,-374.7887 903.147,-371.4498 894.9347,-374.5349 894.9347,-374.5349"/>
<ellipse fill="none" stroke="#000000" cx="891.7411" cy="-374.3319" rx="3.2" ry="3.2"/>
</g>
<!-- staging.ProviderAssignments&#45;&gt;HospitalizationStatuses -->
<g id="edge17" class="edge">
<title>staging.ProviderAssignments:w&#45;&gt;HospitalizationStatuses:e</title>
<path fill="none" stroke="#000000" d="M1026.3095,-339.0109C1006.4262,-271.3134 959.887,-151.1944 870,-99.6433 657.7741,22.0704 354.4574,-55.0207 204.9281,-106.0647"/>
<polygon fill="#000000" stroke="#000000" points="1028.0896,-345.3191 1026.7977,-353.9961 1029.176,-349.1687 1030.2623,-353.0184 1030.2623,-353.0184 1030.2623,-353.0184 1029.176,-349.1687 1033.727,-352.0406 1028.0896,-345.3191 1028.0896,-345.3191"/>
<ellipse fill="none" stroke="#000000" cx="1027.2205" cy="-342.2393" rx="3.2" ry="3.2"/>
</g>
<!-- staging.ProviderAssignments&#45;&gt;Patients -->
<g id="edge19" class="edge">
<title>staging.ProviderAssignments:w&#45;&gt;Patients:e</title>
<path fill="none" stroke="#000000" d="M1007.0071,-341.0532C977.0221,-301.081 927.9487,-246.0335 870,-220.6433 808.1069,-193.5248 318.846,-170.1097 262,-206.6433 160.6135,-271.8021 128.0578,-425.8129 118.3327,-494.9679"/>
<polygon fill="#000000" stroke="#000000" points="1010.9664,-346.4673 1012.7828,-355.0499 1013.3276,-349.6961 1015.6887,-352.9249 1015.6887,-352.9249 1015.6887,-352.9249 1013.3276,-349.6961 1018.5946,-350.7998 1010.9664,-346.4673 1010.9664,-346.4673"/>
<ellipse fill="none" stroke="#000000" cx="1009.0775" cy="-343.8843" rx="3.2" ry="3.2"/>
</g>
<!-- staging.ProviderAssignments&#45;&gt;Providers -->
<g id="edge18" class="edge">
<title>staging.ProviderAssignments:w&#45;&gt;Providers:e</title>
<path fill="none" stroke="#000000" d="M888.7006,-425.1316C855.1685,-432.1747 819.5815,-437.8848 786,-439.6433"/>
<polygon fill="#000000" stroke="#000000" points="895.1163,-423.7377 903.6983,-425.557 899.0251,-422.8884 902.9339,-422.0391 902.9339,-422.0391 902.9339,-422.0391 899.0251,-422.8884 902.1696,-418.5212 895.1163,-423.7377 895.1163,-423.7377"/>
<ellipse fill="none" stroke="#000000" cx="891.9893" cy="-424.4171" rx="3.2" ry="3.2"/>
</g>
<!-- staging.ProviderAssignments&#45;&gt;Providers -->
<g id="edge20" class="edge">
<title>staging.ProviderAssignments:w&#45;&gt;Providers:e</title>
<path fill="none" stroke="#000000" d="M928.07,-425.5593C884.2519,-435.4135 833.1493,-442.5238 786,-439.6433"/>
<polygon fill="#000000" stroke="#000000" points="934.5434,-424.0334 943.156,-425.7018 938.4367,-423.1156 942.33,-422.1978 942.33,-422.1978 942.33,-422.1978 938.4367,-423.1156 941.504,-418.6939 934.5434,-424.0334 934.5434,-424.0334"/>
<ellipse fill="none" stroke="#000000" cx="931.4287" cy="-424.7676" rx="3.2" ry="3.2"/>
</g>
</g>
</svg>
