<?xml version="1.0" encoding="UTF-8" standalone="no"?>
<!DOCTYPE svg PUBLIC "-//W3C//DTD SVG 1.1//EN"
 "http://www.w3.org/Graphics/SVG/1.1/DTD/svg11.dtd">
<!-- Generated by graphviz version 2.40.1 (20161225.0304)
 -->
<!-- Title: oneDegreeRelationshipsDiagram Pages: 1 -->
<svg width="857pt" height="319pt"
 viewBox="0.00 0.00 857.00 318.70" xmlns="http://www.w3.org/2000/svg" xmlns:xlink="http://www.w3.org/1999/xlink">
<g id="graph0" class="graph" transform="scale(1 1) rotate(0) translate(4 314.7)">
<title>oneDegreeRelationshipsDiagram</title>
<polygon fill="#ffffff" stroke="transparent" points="-4,4 -4,-314.7 853,-314.7 853,4 -4,4"/>
<text text-anchor="middle" x="72.4936" y="-7.3" font-family="Helvetica,sans-Serif" font-size="11.00" fill="#000000">Generated by SchemaSpy</text>
<!-- Hospitalizations -->
<g id="node1" class="node">
<title>Hospitalizations</title>
<g id="a_node1"><a xlink:href="../../tables/Hospitalizations.html" xlink:title="Hospitalizations" target="_top">
<polygon fill="#ffffff" stroke="transparent" points="270,-135.7 270,-306.7 463,-306.7 463,-135.7 270,-135.7"/>
<polygon fill="#f5f5f5" stroke="transparent" points="270.5,-283.2 270.5,-306.2 463.5,-306.2 463.5,-283.2 270.5,-283.2"/>
<polygon fill="none" stroke="#000000" points="270.5,-283.2 270.5,-306.2 463.5,-306.2 463.5,-283.2 270.5,-283.2"/>
<text text-anchor="start" x="275.5" y="-291.8" font-family="Helvetica,sans-Serif" font-weight="bold" font-size="11.00" fill="#000000">Hospitalizations</text>
<text text-anchor="start" x="428.5437" y="-291.3" font-family="Helvetica,sans-Serif" font-size="11.00" fill="#000000">[table]</text>
<polygon fill="none" stroke="#000000" points="270.5,-261.2 270.5,-283.2 463.5,-283.2 463.5,-261.2 270.5,-261.2"/>
<image xlink:href="../../images/primaryKeys.png" width="11px" height="12px" preserveAspectRatio="xMinYMin meet" x="275.5" y="-278.2"/>
<text text-anchor="start" x="290.5" y="-268.3" font-family="Helvetica,sans-Serif" font-size="11.00" fill="#000000">Id</text>
<polygon fill="#ffffff" stroke="transparent" points="270.5,-239.2 270.5,-261.2 463.5,-261.2 463.5,-239.2 270.5,-239.2"/>
<polygon fill="none" stroke="#000000" points="270.5,-239.2 270.5,-261.2 463.5,-261.2 463.5,-239.2 270.5,-239.2"/>
<image xlink:href="../../images/foreignKeys.png" width="11px" height="12px" preserveAspectRatio="xMinYMin meet" x="275.5" y="-256.2"/>
<text text-anchor="start" x="290.5" y="-246.3" font-family="Helvetica,sans-Serif" font-size="11.00" fill="#000000">PatientId</text>
<polygon fill="#ffffff" stroke="transparent" points="270.5,-217.2 270.5,-239.2 463.5,-239.2 463.5,-217.2 270.5,-217.2"/>
<polygon fill="none" stroke="#000000" points="270.5,-217.2 270.5,-239.2 463.5,-239.2 463.5,-217.2 270.5,-217.2"/>
<text text-anchor="start" x="290.5" y="-224.3" font-family="Helvetica,sans-Serif" font-size="11.00" fill="#000000">CaseId</text>
<polygon fill="#ffffff" stroke="transparent" points="270.5,-195.2 270.5,-217.2 463.5,-217.2 463.5,-195.2 270.5,-195.2"/>
<polygon fill="none" stroke="#000000" points="270.5,-195.2 270.5,-217.2 463.5,-217.2 463.5,-195.2 270.5,-195.2"/>
<image xlink:href="../../images/foreignKeys.png" width="11px" height="12px" preserveAspectRatio="xMinYMin meet" x="275.5" y="-212.2"/>
<text text-anchor="start" x="290.5" y="-202.3" font-family="Helvetica,sans-Serif" font-size="11.00" fill="#000000">FacilityId</text>
<polygon fill="#ffffff" stroke="transparent" points="270.5,-173.2 270.5,-195.2 463.5,-195.2 463.5,-173.2 270.5,-173.2"/>
<polygon fill="none" stroke="#000000" points="270.5,-173.2 270.5,-195.2 463.5,-195.2 463.5,-173.2 270.5,-173.2"/>
<image xlink:href="../../images/foreignKeys.png" width="11px" height="12px" preserveAspectRatio="xMinYMin meet" x="275.5" y="-190.2"/>
<text text-anchor="start" x="290.5" y="-180.3" font-family="Helvetica,sans-Serif" font-size="11.00" fill="#000000">HospitalizationStatusId</text>
<polygon fill="none" stroke="#000000" points="270.5,-154.2 270.5,-173.2 463.5,-173.2 463.5,-154.2 270.5,-154.2"/>
<text text-anchor="start" x="273.5" y="-160.3" font-family="Helvetica,sans-Serif" font-size="11.00" fill="#000000">...</text>
<polygon fill="#ffffff" stroke="transparent" points="270.5,-135.2 270.5,-154.2 463.5,-154.2 463.5,-135.2 270.5,-135.2"/>
<polygon fill="none" stroke="#000000" points="270.5,-135.2 270.5,-154.2 463.5,-154.2 463.5,-135.2 270.5,-135.2"/>
<polygon fill="#ffffff" stroke="transparent" points="271.5,-136.2 271.5,-153.2 338.5,-153.2 338.5,-136.2 271.5,-136.2"/>
<text text-anchor="start" x="273.5" y="-141.3" font-family="Helvetica,sans-Serif" font-size="11.00" fill="#000000">&lt; 3</text>
<polygon fill="#ffffff" stroke="transparent" points="338.5,-136.2 338.5,-153.2 396.5,-153.2 396.5,-136.2 338.5,-136.2"/>
<text text-anchor="start" x="364.4431" y="-141.3" font-family="Helvetica,sans-Serif" font-size="11.00" fill="#000000"> &#160;</text>
<polygon fill="#ffffff" stroke="transparent" points="396.5,-136.2 396.5,-153.2 462.5,-153.2 462.5,-136.2 396.5,-136.2"/>
<text text-anchor="start" x="444.9053" y="-141.3" font-family="Helvetica,sans-Serif" font-size="11.00" fill="#000000">4 &gt;</text>
<polygon fill="#000000" stroke="#000000" points="338.5,-136.2 338.5,-153.2 338.5,-153.2 338.5,-136.2 338.5,-136.2"/>
<polygon fill="#000000" stroke="#000000" points="396.5,-136.2 396.5,-153.2 396.5,-153.2 396.5,-136.2 396.5,-136.2"/>
</a>
</g>
</g>
<!-- HospitalizationStatuses -->
<g id="node2" class="node">
<title>HospitalizationStatuses</title>
<g id="a_node2"><a xlink:href="../../tables/HospitalizationStatuses.html" xlink:title="HospitalizationStatuses" target="_top">
<polygon fill="#ffffff" stroke="transparent" points="8,-76.7 8,-181.7 221,-181.7 221,-76.7 8,-76.7"/>
<polygon fill="#f5f5f5" stroke="transparent" points="8.5,-158.2 8.5,-181.2 221.5,-181.2 221.5,-158.2 8.5,-158.2"/>
<polygon fill="none" stroke="#000000" points="8.5,-158.2 8.5,-181.2 221.5,-181.2 221.5,-158.2 8.5,-158.2"/>
<text text-anchor="start" x="13.5" y="-166.8" font-family="Helvetica,sans-Serif" font-weight="bold" font-size="11.00" fill="#000000">HospitalizationStatuses</text>
<text text-anchor="start" x="187.0219" y="-166.3" font-family="Helvetica,sans-Serif" font-size="11.00" fill="#000000">[table]</text>
<polygon fill="none" stroke="#000000" points="8.5,-136.2 8.5,-158.2 221.5,-158.2 221.5,-136.2 8.5,-136.2"/>
<image xlink:href="../../images/primaryKeys.png" width="11px" height="12px" preserveAspectRatio="xMinYMin meet" x="13.5" y="-153.2"/>
<text text-anchor="start" x="37.5" y="-143.3" font-family="Helvetica,sans-Serif" font-size="11.00" fill="#000000">Id</text>
<polygon fill="#ffffff" stroke="transparent" points="8.5,-114.2 8.5,-136.2 221.5,-136.2 221.5,-114.2 8.5,-114.2"/>
<polygon fill="none" stroke="#000000" points="8.5,-114.2 8.5,-136.2 221.5,-136.2 221.5,-114.2 8.5,-114.2"/>
<text text-anchor="start" x="37.5" y="-121.3" font-family="Helvetica,sans-Serif" font-size="11.00" fill="#000000">Code</text>
<polygon fill="none" stroke="#000000" points="8.5,-95.2 8.5,-114.2 221.5,-114.2 221.5,-95.2 8.5,-95.2"/>
<text text-anchor="start" x="11.5" y="-101.3" font-family="Helvetica,sans-Serif" font-size="11.00" fill="#000000">...</text>
<polygon fill="#ffffff" stroke="transparent" points="8.5,-76.2 8.5,-95.2 221.5,-95.2 221.5,-76.2 8.5,-76.2"/>
<polygon fill="none" stroke="#000000" points="8.5,-76.2 8.5,-95.2 221.5,-95.2 221.5,-76.2 8.5,-76.2"/>
<polygon fill="#ffffff" stroke="transparent" points="9.5,-77.2 9.5,-94.2 77.5,-94.2 77.5,-77.2 9.5,-77.2"/>
<text text-anchor="start" x="11.5" y="-82.3" font-family="Helvetica,sans-Serif" font-size="11.00" fill="#000000"> &#160;</text>
<polygon fill="#ffffff" stroke="transparent" points="77.5,-77.2 77.5,-94.2 144.5,-94.2 144.5,-77.2 77.5,-77.2"/>
<text text-anchor="start" x="107.9431" y="-82.3" font-family="Helvetica,sans-Serif" font-size="11.00" fill="#000000"> &#160;</text>
<polygon fill="#ffffff" stroke="transparent" points="144.5,-77.2 144.5,-94.2 220.5,-94.2 220.5,-77.2 144.5,-77.2"/>
<text text-anchor="start" x="202.9053" y="-82.3" font-family="Helvetica,sans-Serif" font-size="11.00" fill="#000000">3 &gt;</text>
<polygon fill="#000000" stroke="#000000" points="77.5,-77.2 77.5,-94.2 77.5,-94.2 77.5,-77.2 77.5,-77.2"/>
<polygon fill="#000000" stroke="#000000" points="144.5,-77.2 144.5,-94.2 144.5,-94.2 144.5,-77.2 144.5,-77.2"/>
</a>
</g>
</g>
<!-- Hospitalizations&#45;&gt;HospitalizationStatuses -->
<g id="edge1" class="edge">
<title>Hospitalizations:w&#45;&gt;HospitalizationStatuses:e</title>
<path fill="none" stroke="#000000" d="M256.6217,-179.6631C244.0786,-169.783 242.8196,-147.2 221.5,-147.2"/>
<polygon fill="#000000" stroke="#000000" points="262.896,-181.7142 269.3814,-187.6218 266.698,-182.9571 270.5,-184.2 270.5,-184.2 270.5,-184.2 266.698,-182.9571 271.6186,-180.7782 262.896,-181.7142 262.896,-181.7142"/>
<ellipse fill="none" stroke="#000000" cx="259.8544" cy="-180.7198" rx="3.2" ry="3.2"/>
</g>
<!-- HospitalizationStatusHistories -->
<g id="node3" class="node">
<title>HospitalizationStatusHistories</title>
<g id="a_node3"><a xlink:href="../../tables/HospitalizationStatusHistories.html" xlink:title="HospitalizationStatusHistories" target="_top">
<polygon fill="#ffffff" stroke="transparent" points="512,-38.2 512,-260.2 841,-260.2 841,-38.2 512,-38.2"/>
<polygon fill="#f5f5f5" stroke="transparent" points="514.5,-235.2 514.5,-258.2 839.5,-258.2 839.5,-235.2 514.5,-235.2"/>
<polygon fill="none" stroke="#000000" points="514.5,-235.2 514.5,-258.2 839.5,-258.2 839.5,-235.2 514.5,-235.2"/>
<text text-anchor="start" x="519.5" y="-243.8" font-family="Helvetica,sans-Serif" font-weight="bold" font-size="11.00" fill="#000000">HospitalizationStatusHistories</text>
<text text-anchor="start" x="804.5437" y="-243.3" font-family="Helvetica,sans-Serif" font-size="11.00" fill="#000000">[table]</text>
<polygon fill="none" stroke="#000000" points="514.5,-213.2 514.5,-235.2 758.5,-235.2 758.5,-213.2 514.5,-213.2"/>
<image xlink:href="../../images/primaryKeys.png" width="11px" height="12px" preserveAspectRatio="xMinYMin meet" x="519.5" y="-230.2"/>
<text text-anchor="start" x="534.5" y="-220.3" font-family="Helvetica,sans-Serif" font-size="11.00" fill="#000000">Id</text>
<polygon fill="none" stroke="#000000" points="758.5,-213.2 758.5,-235.2 839.5,-235.2 839.5,-213.2 758.5,-213.2"/>
<text text-anchor="start" x="761.5" y="-220.9" font-family="Helvetica,sans-Serif" font-size="11.00" fill="#000000">int identity[4]</text>
<polygon fill="#ffffff" stroke="transparent" points="514.5,-191.2 514.5,-213.2 758.5,-213.2 758.5,-191.2 514.5,-191.2"/>
<polygon fill="none" stroke="#000000" points="514.5,-191.2 514.5,-213.2 758.5,-213.2 758.5,-191.2 514.5,-191.2"/>
<image xlink:href="../../images/foreignKeys.png" width="11px" height="12px" preserveAspectRatio="xMinYMin meet" x="519.5" y="-208.2"/>
<text text-anchor="start" x="534.5" y="-198.3" font-family="Helvetica,sans-Serif" font-size="11.00" fill="#000000">HospitalizationId</text>
<polygon fill="none" stroke="#000000" points="758.5,-191.2 758.5,-213.2 839.5,-213.2 839.5,-191.2 758.5,-191.2"/>
<text text-anchor="start" x="761.5" y="-198.9" font-family="Helvetica,sans-Serif" font-size="11.00" fill="#000000">int[4]</text>
<polygon fill="#ffffff" stroke="transparent" points="514.5,-169.2 514.5,-191.2 758.5,-191.2 758.5,-169.2 514.5,-169.2"/>
<polygon fill="none" stroke="#000000" points="514.5,-169.2 514.5,-191.2 758.5,-191.2 758.5,-169.2 514.5,-169.2"/>
<image xlink:href="../../images/foreignKeys.png" width="11px" height="12px" preserveAspectRatio="xMinYMin meet" x="519.5" y="-186.2"/>
<text text-anchor="start" x="534.5" y="-176.3" font-family="Helvetica,sans-Serif" font-size="11.00" fill="#000000">NewStatusId</text>
<polygon fill="none" stroke="#000000" points="758.5,-169.2 758.5,-191.2 839.5,-191.2 839.5,-169.2 758.5,-169.2"/>
<text text-anchor="start" x="761.5" y="-176.9" font-family="Helvetica,sans-Serif" font-size="11.00" fill="#000000">int[4]</text>
<polygon fill="#ffffff" stroke="transparent" points="514.5,-147.2 514.5,-169.2 758.5,-169.2 758.5,-147.2 514.5,-147.2"/>
<polygon fill="none" stroke="#000000" points="514.5,-147.2 514.5,-169.2 758.5,-169.2 758.5,-147.2 514.5,-147.2"/>
<text text-anchor="start" x="534.5" y="-154.3" font-family="Helvetica,sans-Serif" font-size="11.00" fill="#000000">ChangedAt</text>
<polygon fill="none" stroke="#000000" points="758.5,-147.2 758.5,-169.2 839.5,-169.2 839.5,-147.2 758.5,-147.2"/>
<text text-anchor="start" x="761.0968" y="-154.9" font-family="Helvetica,sans-Serif" font-size="11.00" fill="#000000">datetime2[16,7]</text>
<polygon fill="#ffffff" stroke="transparent" points="514.5,-125.2 514.5,-147.2 758.5,-147.2 758.5,-125.2 514.5,-125.2"/>
<polygon fill="none" stroke="#000000" points="514.5,-125.2 514.5,-147.2 758.5,-147.2 758.5,-125.2 514.5,-125.2"/>
<text text-anchor="start" x="534.5" y="-132.3" font-family="Helvetica,sans-Serif" font-size="11.00" fill="#000000">ChangedByUserId</text>
<polygon fill="none" stroke="#000000" points="758.5,-125.2 758.5,-147.2 839.5,-147.2 839.5,-125.2 758.5,-125.2"/>
<text text-anchor="start" x="761.5" y="-132.9" font-family="Helvetica,sans-Serif" font-size="11.00" fill="#000000">int[4]</text>
<polygon fill="none" stroke="#000000" points="514.5,-103.2 514.5,-125.2 758.5,-125.2 758.5,-103.2 514.5,-103.2"/>
<text text-anchor="start" x="534.5" y="-110.3" font-family="Helvetica,sans-Serif" font-size="11.00" fill="#000000">CreatedAtUtc</text>
<polygon fill="none" stroke="#000000" points="758.5,-103.2 758.5,-125.2 839.5,-125.2 839.5,-103.2 758.5,-103.2"/>
<text text-anchor="start" x="761.0968" y="-110.9" font-family="Helvetica,sans-Serif" font-size="11.00" fill="#000000">datetime2[16,7]</text>
<polygon fill="none" stroke="#000000" points="514.5,-81.2 514.5,-103.2 758.5,-103.2 758.5,-81.2 514.5,-81.2"/>
<text text-anchor="start" x="534.5" y="-88.3" font-family="Helvetica,sans-Serif" font-size="11.00" fill="#000000">UpdatedAtUtc</text>
<polygon fill="none" stroke="#000000" points="758.5,-81.2 758.5,-103.2 839.5,-103.2 839.5,-81.2 758.5,-81.2"/>
<text text-anchor="start" x="761.0968" y="-88.9" font-family="Helvetica,sans-Serif" font-size="11.00" fill="#000000">datetime2[16,7]</text>
<polygon fill="none" stroke="#000000" points="514.5,-59.2 514.5,-81.2 758.5,-81.2 758.5,-59.2 514.5,-59.2"/>
<text text-anchor="start" x="534.5" y="-66.3" font-family="Helvetica,sans-Serif" font-size="11.00" fill="#000000">RowVersion</text>
<polygon fill="none" stroke="#000000" points="758.5,-59.2 758.5,-81.2 839.5,-81.2 839.5,-59.2 758.5,-59.2"/>
<text text-anchor="start" x="761.5" y="-66.9" font-family="Helvetica,sans-Serif" font-size="11.00" fill="#000000">timestamp[8]</text>
<polygon fill="#ffffff" stroke="transparent" points="514.5,-40.2 514.5,-59.2 839.5,-59.2 839.5,-40.2 514.5,-40.2"/>
<polygon fill="none" stroke="#000000" points="514.5,-40.2 514.5,-59.2 839.5,-59.2 839.5,-40.2 514.5,-40.2"/>
<polygon fill="#ffffff" stroke="transparent" points="515.5,-41.2 515.5,-58.2 626.5,-58.2 626.5,-41.2 515.5,-41.2"/>
<text text-anchor="start" x="517.5" y="-46.3" font-family="Helvetica,sans-Serif" font-size="11.00" fill="#000000">&lt; 2</text>
<polygon fill="#ffffff" stroke="transparent" points="626.5,-41.2 626.5,-58.2 728.5,-58.2 728.5,-41.2 626.5,-41.2"/>
<text text-anchor="start" x="674.4431" y="-46.3" font-family="Helvetica,sans-Serif" font-size="11.00" fill="#000000"> &#160;</text>
<polygon fill="#ffffff" stroke="transparent" points="728.5,-41.2 728.5,-58.2 838.5,-58.2 838.5,-41.2 728.5,-41.2"/>
<text text-anchor="start" x="820.9053" y="-46.3" font-family="Helvetica,sans-Serif" font-size="11.00" fill="#000000">0 &gt;</text>
<polygon fill="#000000" stroke="#000000" points="626.5,-41.2 626.5,-58.2 626.5,-58.2 626.5,-41.2 626.5,-41.2"/>
<polygon fill="#000000" stroke="#000000" points="728.5,-41.2 728.5,-58.2 728.5,-58.2 728.5,-41.2 728.5,-41.2"/>
<polygon fill="none" stroke="#000000" stroke-width="2" points="513,-39.2 513,-259.2 840,-259.2 840,-39.2 513,-39.2"/>
</a>
</g>
</g>
<!-- HospitalizationStatusHistories&#45;&gt;Hospitalizations -->
<g id="edge2" class="edge">
<title>HospitalizationStatusHistories:w&#45;&gt;Hospitalizations:e</title>
<path fill="none" stroke="#000000" d="M500.6872,-206.7929C482.5536,-222.366 495.9781,-272.2 463.5,-272.2"/>
<polygon fill="#000000" stroke="#000000" points="506.9087,-204.7242 515.6359,-205.6161 510.7043,-203.4621 514.5,-202.2 514.5,-202.2 514.5,-202.2 510.7043,-203.4621 513.3641,-198.7839 506.9087,-204.7242 506.9087,-204.7242"/>
<ellipse fill="none" stroke="#000000" cx="503.8721" cy="-205.7339" rx="3.2" ry="3.2"/>
</g>
<!-- HospitalizationStatusHistories&#45;&gt;HospitalizationStatuses -->
<g id="edge3" class="edge">
<title>HospitalizationStatusHistories:w&#45;&gt;HospitalizationStatuses:e</title>
<path fill="none" stroke="#000000" d="M500.5518,-175.6534C487.9137,-164.5214 493.3541,-136.0206 471,-125.2 387.3913,-84.7287 352.0285,-102.3263 262,-125.2 242.1465,-130.2442 241.9843,-147.2 221.5,-147.2"/>
<polygon fill="#000000" stroke="#000000" points="506.8939,-177.7207 513.3843,-183.6228 510.6969,-178.9603 514.5,-180.2 514.5,-180.2 514.5,-180.2 510.6969,-178.9603 515.6157,-176.7772 506.8939,-177.7207 506.8939,-177.7207"/>
<ellipse fill="none" stroke="#000000" cx="503.8514" cy="-176.7289" rx="3.2" ry="3.2"/>
</g>
</g>
</svg>
