<?xml version="1.0" encoding="UTF-8" standalone="no"?>
<!DOCTYPE svg PUBLIC "-//W3C//DTD SVG 1.1//EN"
 "http://www.w3.org/Graphics/SVG/1.1/DTD/svg11.dtd">
<!-- Generated by graphviz version 2.40.1 (20161225.0304)
 -->
<!-- Title: twoDegreesRelationshipsDiagram Pages: 1 -->
<svg width="1125pt" height="556pt"
 viewBox="0.00 0.00 1125.00 556.24" xmlns="http://www.w3.org/2000/svg" xmlns:xlink="http://www.w3.org/1999/xlink">
<g id="graph0" class="graph" transform="scale(1 1) rotate(0) translate(4 552.2396)">
<title>twoDegreesRelationshipsDiagram</title>
<polygon fill="#ffffff" stroke="transparent" points="-4,4 -4,-552.2396 1121,-552.2396 1121,4 -4,4"/>
<text text-anchor="middle" x="72.4936" y="-7.3" font-family="Helvetica,sans-Serif" font-size="11.00" fill="#000000">Generated by SchemaSpy</text>
<!-- HospitalizationInsurances -->
<g id="node1" class="node">
<title>HospitalizationInsurances</title>
<g id="a_node1"><a xlink:href="../../tables/HospitalizationInsurances.html" xlink:title="HospitalizationInsurances" target="_top">
<polygon fill="#ffffff" stroke="transparent" points="526,-201.3433 526,-262.3433 755,-262.3433 755,-201.3433 526,-201.3433"/>
<polygon fill="#f5f5f5" stroke="transparent" points="526.5,-238.8433 526.5,-261.8433 755.5,-261.8433 755.5,-238.8433 526.5,-238.8433"/>
<polygon fill="none" stroke="#000000" points="526.5,-238.8433 526.5,-261.8433 755.5,-261.8433 755.5,-238.8433 526.5,-238.8433"/>
<text text-anchor="start" x="531.5" y="-247.4433" font-family="Helvetica,sans-Serif" font-weight="bold" font-size="11.00" fill="#000000">HospitalizationInsurances</text>
<text text-anchor="start" x="721.0219" y="-246.9433" font-family="Helvetica,sans-Serif" font-size="11.00" fill="#000000">[table]</text>
<polygon fill="none" stroke="#000000" points="526.5,-219.8433 526.5,-238.8433 755.5,-238.8433 755.5,-219.8433 526.5,-219.8433"/>
<text text-anchor="start" x="529.5" y="-225.9433" font-family="Helvetica,sans-Serif" font-size="11.00" fill="#000000">...</text>
<polygon fill="#ffffff" stroke="transparent" points="526.5,-200.8433 526.5,-219.8433 755.5,-219.8433 755.5,-200.8433 526.5,-200.8433"/>
<polygon fill="none" stroke="#000000" points="526.5,-200.8433 526.5,-219.8433 755.5,-219.8433 755.5,-200.8433 526.5,-200.8433"/>
<polygon fill="#ffffff" stroke="transparent" points="527.5,-201.8433 527.5,-218.8433 609.5,-218.8433 609.5,-201.8433 527.5,-201.8433"/>
<text text-anchor="start" x="529.5" y="-206.9433" font-family="Helvetica,sans-Serif" font-size="11.00" fill="#000000">&lt; 2</text>
<polygon fill="#ffffff" stroke="transparent" points="609.5,-201.8433 609.5,-218.8433 682.5,-218.8433 682.5,-201.8433 609.5,-201.8433"/>
<text text-anchor="start" x="642.9431" y="-206.9433" font-family="Helvetica,sans-Serif" font-size="11.00" fill="#000000"> &#160;</text>
<polygon fill="#ffffff" stroke="transparent" points="682.5,-201.8433 682.5,-218.8433 754.5,-218.8433 754.5,-201.8433 682.5,-201.8433"/>
<text text-anchor="start" x="746.3862" y="-206.9433" font-family="Helvetica,sans-Serif" font-size="11.00" fill="#000000"> &#160;</text>
<polygon fill="#000000" stroke="#000000" points="609.5,-201.8433 609.5,-218.8433 609.5,-218.8433 609.5,-201.8433 609.5,-201.8433"/>
<polygon fill="#000000" stroke="#000000" points="682.5,-201.8433 682.5,-218.8433 682.5,-218.8433 682.5,-201.8433 682.5,-201.8433"/>
</a>
</g>
</g>
<!-- Hospitalizations -->
<g id="node2" class="node">
<title>Hospitalizations</title>
<g id="a_node2"><a xlink:href="../../tables/Hospitalizations.html" xlink:title="Hospitalizations" target="_top">
<polygon fill="#ffffff" stroke="transparent" points="270,-159.3433 270,-220.3433 427,-220.3433 427,-159.3433 270,-159.3433"/>
<polygon fill="#f5f5f5" stroke="transparent" points="270.5,-196.8433 270.5,-219.8433 427.5,-219.8433 427.5,-196.8433 270.5,-196.8433"/>
<polygon fill="none" stroke="#000000" points="270.5,-196.8433 270.5,-219.8433 427.5,-219.8433 427.5,-196.8433 270.5,-196.8433"/>
<text text-anchor="start" x="275.5" y="-205.4433" font-family="Helvetica,sans-Serif" font-weight="bold" font-size="11.00" fill="#000000">Hospitalizations</text>
<text text-anchor="start" x="393.0219" y="-204.9433" font-family="Helvetica,sans-Serif" font-size="11.00" fill="#000000">[table]</text>
<polygon fill="none" stroke="#000000" points="270.5,-177.8433 270.5,-196.8433 427.5,-196.8433 427.5,-177.8433 270.5,-177.8433"/>
<text text-anchor="start" x="273.5" y="-183.9433" font-family="Helvetica,sans-Serif" font-size="11.00" fill="#000000">...</text>
<polygon fill="#ffffff" stroke="transparent" points="270.5,-158.8433 270.5,-177.8433 427.5,-177.8433 427.5,-158.8433 270.5,-158.8433"/>
<polygon fill="none" stroke="#000000" points="270.5,-158.8433 270.5,-177.8433 427.5,-177.8433 427.5,-158.8433 270.5,-158.8433"/>
<polygon fill="#ffffff" stroke="transparent" points="271.5,-159.8433 271.5,-176.8433 326.5,-176.8433 326.5,-159.8433 271.5,-159.8433"/>
<text text-anchor="start" x="273.5" y="-164.9433" font-family="Helvetica,sans-Serif" font-size="11.00" fill="#000000">&lt; 3</text>
<polygon fill="#ffffff" stroke="transparent" points="326.5,-159.8433 326.5,-176.8433 372.5,-176.8433 372.5,-159.8433 326.5,-159.8433"/>
<text text-anchor="start" x="346.4431" y="-164.9433" font-family="Helvetica,sans-Serif" font-size="11.00" fill="#000000"> &#160;</text>
<polygon fill="#ffffff" stroke="transparent" points="372.5,-159.8433 372.5,-176.8433 426.5,-176.8433 426.5,-159.8433 372.5,-159.8433"/>
<text text-anchor="start" x="408.9053" y="-164.9433" font-family="Helvetica,sans-Serif" font-size="11.00" fill="#000000">4 &gt;</text>
<polygon fill="#000000" stroke="#000000" points="326.5,-159.8433 326.5,-176.8433 326.5,-176.8433 326.5,-159.8433 326.5,-159.8433"/>
<polygon fill="#000000" stroke="#000000" points="372.5,-159.8433 372.5,-176.8433 372.5,-176.8433 372.5,-159.8433 372.5,-159.8433"/>
</a>
</g>
</g>
<!-- HospitalizationInsurances&#45;&gt;Hospitalizations -->
<g id="edge1" class="edge">
<title>HospitalizationInsurances:w&#45;&gt;Hospitalizations:e</title>
<path fill="none" stroke="#000000" d="M511.8365,-228.4423C485.9894,-227.0694 459.2324,-222.3259 435.0415,-216.6104"/>
<polygon fill="#000000" stroke="#000000" points="518.503,-228.6245 526.4016,-232.4419 522.5015,-228.7339 526.5,-228.8433 526.5,-228.8433 526.5,-228.8433 522.5015,-228.7339 526.5984,-225.2446 518.503,-228.6245 518.503,-228.6245"/>
<ellipse fill="none" stroke="#000000" cx="515.3042" cy="-228.537" rx="3.2" ry="3.2"/>
</g>
<!-- Facilities -->
<g id="node3" class="node">
<title>Facilities</title>
<g id="a_node3"><a xlink:href="../../tables/Facilities.html" xlink:title="Facilities" target="_top">
<polygon fill="#ffffff" stroke="transparent" points="62.5,-162.3433 62.5,-223.3433 166.5,-223.3433 166.5,-162.3433 62.5,-162.3433"/>
<polygon fill="#f5f5f5" stroke="transparent" points="62.5,-199.8433 62.5,-222.8433 166.5,-222.8433 166.5,-199.8433 62.5,-199.8433"/>
<polygon fill="none" stroke="#000000" points="62.5,-199.8433 62.5,-222.8433 166.5,-222.8433 166.5,-199.8433 62.5,-199.8433"/>
<text text-anchor="start" x="67.5" y="-208.4433" font-family="Helvetica,sans-Serif" font-weight="bold" font-size="11.00" fill="#000000">Facilities</text>
<text text-anchor="start" x="132.0219" y="-207.9433" font-family="Helvetica,sans-Serif" font-size="11.00" fill="#000000">[table]</text>
<polygon fill="none" stroke="#000000" points="62.5,-180.8433 62.5,-199.8433 166.5,-199.8433 166.5,-180.8433 62.5,-180.8433"/>
<text text-anchor="start" x="65.5" y="-186.9433" font-family="Helvetica,sans-Serif" font-size="11.00" fill="#000000">...</text>
<polygon fill="#ffffff" stroke="transparent" points="62.5,-161.8433 62.5,-180.8433 166.5,-180.8433 166.5,-161.8433 62.5,-161.8433"/>
<polygon fill="none" stroke="#000000" points="62.5,-161.8433 62.5,-180.8433 166.5,-180.8433 166.5,-161.8433 62.5,-161.8433"/>
<polygon fill="#ffffff" stroke="transparent" points="63.5,-162.8433 63.5,-179.8433 94.5,-179.8433 94.5,-162.8433 63.5,-162.8433"/>
<text text-anchor="start" x="65.5" y="-167.9433" font-family="Helvetica,sans-Serif" font-size="11.00" fill="#000000"> &#160;</text>
<polygon fill="#ffffff" stroke="transparent" points="94.5,-162.8433 94.5,-179.8433 125.5,-179.8433 125.5,-162.8433 94.5,-162.8433"/>
<text text-anchor="start" x="106.9431" y="-167.9433" font-family="Helvetica,sans-Serif" font-size="11.00" fill="#000000"> &#160;</text>
<polygon fill="#ffffff" stroke="transparent" points="125.5,-162.8433 125.5,-179.8433 165.5,-179.8433 165.5,-162.8433 125.5,-162.8433"/>
<text text-anchor="start" x="147.9053" y="-167.9433" font-family="Helvetica,sans-Serif" font-size="11.00" fill="#000000">3 &gt;</text>
<polygon fill="#000000" stroke="#000000" points="94.5,-162.8433 94.5,-179.8433 94.5,-179.8433 94.5,-162.8433 94.5,-162.8433"/>
<polygon fill="#000000" stroke="#000000" points="125.5,-162.8433 125.5,-179.8433 125.5,-179.8433 125.5,-162.8433 125.5,-162.8433"/>
</a>
</g>
</g>
<!-- Hospitalizations&#45;&gt;Facilities -->
<g id="edge2" class="edge">
<title>Hospitalizations:w&#45;&gt;Facilities:e</title>
<path fill="none" stroke="#000000" d="M247.5232,-189.8433C221.1518,-189.8433 192.7603,-189.8433 166.5,-189.8433"/>
<polygon fill="#000000" stroke="#000000" points="253.9397,-189.8433 261.9397,-193.4433 257.9397,-189.8433 261.9397,-189.8433 261.9397,-189.8433 261.9397,-189.8433 257.9397,-189.8433 261.9397,-186.2433 253.9397,-189.8433 253.9397,-189.8433"/>
<ellipse fill="none" stroke="#000000" cx="250.7397" cy="-189.8433" rx="3.2" ry="3.2"/>
</g>
<!-- HospitalizationStatuses -->
<g id="node4" class="node">
<title>HospitalizationStatuses</title>
<g id="a_node4"><a xlink:href="../../tables/HospitalizationStatuses.html" xlink:title="HospitalizationStatuses" target="_top">
<polygon fill="#ffffff" stroke="transparent" points="8,-395.3433 8,-456.3433 221,-456.3433 221,-395.3433 8,-395.3433"/>
<polygon fill="#f5f5f5" stroke="transparent" points="8.5,-432.8433 8.5,-455.8433 221.5,-455.8433 221.5,-432.8433 8.5,-432.8433"/>
<polygon fill="none" stroke="#000000" points="8.5,-432.8433 8.5,-455.8433 221.5,-455.8433 221.5,-432.8433 8.5,-432.8433"/>
<text text-anchor="start" x="13.5" y="-441.4433" font-family="Helvetica,sans-Serif" font-weight="bold" font-size="11.00" fill="#000000">HospitalizationStatuses</text>
<text text-anchor="start" x="187.0219" y="-440.9433" font-family="Helvetica,sans-Serif" font-size="11.00" fill="#000000">[table]</text>
<polygon fill="none" stroke="#000000" points="8.5,-413.8433 8.5,-432.8433 221.5,-432.8433 221.5,-413.8433 8.5,-413.8433"/>
<text text-anchor="start" x="11.5" y="-419.9433" font-family="Helvetica,sans-Serif" font-size="11.00" fill="#000000">...</text>
<polygon fill="#ffffff" stroke="transparent" points="8.5,-394.8433 8.5,-413.8433 221.5,-413.8433 221.5,-394.8433 8.5,-394.8433"/>
<polygon fill="none" stroke="#000000" points="8.5,-394.8433 8.5,-413.8433 221.5,-413.8433 221.5,-394.8433 8.5,-394.8433"/>
<polygon fill="#ffffff" stroke="transparent" points="9.5,-395.8433 9.5,-412.8433 77.5,-412.8433 77.5,-395.8433 9.5,-395.8433"/>
<text text-anchor="start" x="11.5" y="-400.9433" font-family="Helvetica,sans-Serif" font-size="11.00" fill="#000000"> &#160;</text>
<polygon fill="#ffffff" stroke="transparent" points="77.5,-395.8433 77.5,-412.8433 144.5,-412.8433 144.5,-395.8433 77.5,-395.8433"/>
<text text-anchor="start" x="107.9431" y="-400.9433" font-family="Helvetica,sans-Serif" font-size="11.00" fill="#000000"> &#160;</text>
<polygon fill="#ffffff" stroke="transparent" points="144.5,-395.8433 144.5,-412.8433 220.5,-412.8433 220.5,-395.8433 144.5,-395.8433"/>
<text text-anchor="start" x="202.9053" y="-400.9433" font-family="Helvetica,sans-Serif" font-size="11.00" fill="#000000">3 &gt;</text>
<polygon fill="#000000" stroke="#000000" points="77.5,-395.8433 77.5,-412.8433 77.5,-412.8433 77.5,-395.8433 77.5,-395.8433"/>
<polygon fill="#000000" stroke="#000000" points="144.5,-395.8433 144.5,-412.8433 144.5,-412.8433 144.5,-395.8433 144.5,-395.8433"/>
</a>
</g>
</g>
<!-- Hospitalizations&#45;&gt;HospitalizationStatuses -->
<g id="edge3" class="edge">
<title>Hospitalizations:w&#45;&gt;HospitalizationStatuses:e</title>
<path fill="none" stroke="#000000" d="M303.8503,-234.8745C258.7126,-280.3981 189.9248,-349.7738 148.8679,-391.1816"/>
<polygon fill="#000000" stroke="#000000" points="308.591,-230.0933 316.7802,-226.9472 311.4074,-227.2529 314.2238,-224.4124 314.2238,-224.4124 314.2238,-224.4124 311.4074,-227.2529 311.6674,-221.8777 308.591,-230.0933 308.591,-230.0933"/>
<ellipse fill="none" stroke="#000000" cx="306.3379" cy="-232.3657" rx="3.2" ry="3.2"/>
</g>
<!-- Patients -->
<g id="node5" class="node">
<title>Patients</title>
<g id="a_node5"><a xlink:href="../../tables/Patients.html" xlink:title="Patients" target="_top">
<polygon fill="#ffffff" stroke="transparent" points="65,-60.3433 65,-121.3433 164,-121.3433 164,-60.3433 65,-60.3433"/>
<polygon fill="#f5f5f5" stroke="transparent" points="65.5,-97.8433 65.5,-120.8433 164.5,-120.8433 164.5,-97.8433 65.5,-97.8433"/>
<polygon fill="none" stroke="#000000" points="65.5,-97.8433 65.5,-120.8433 164.5,-120.8433 164.5,-97.8433 65.5,-97.8433"/>
<text text-anchor="start" x="70.5" y="-106.4433" font-family="Helvetica,sans-Serif" font-weight="bold" font-size="11.00" fill="#000000">Patients</text>
<text text-anchor="start" x="130.0219" y="-105.9433" font-family="Helvetica,sans-Serif" font-size="11.00" fill="#000000">[table]</text>
<polygon fill="none" stroke="#000000" points="65.5,-78.8433 65.5,-97.8433 164.5,-97.8433 164.5,-78.8433 65.5,-78.8433"/>
<text text-anchor="start" x="68.5" y="-84.9433" font-family="Helvetica,sans-Serif" font-size="11.00" fill="#000000">...</text>
<polygon fill="#ffffff" stroke="transparent" points="65.5,-59.8433 65.5,-78.8433 164.5,-78.8433 164.5,-59.8433 65.5,-59.8433"/>
<polygon fill="none" stroke="#000000" points="65.5,-59.8433 65.5,-78.8433 164.5,-78.8433 164.5,-59.8433 65.5,-59.8433"/>
<polygon fill="#ffffff" stroke="transparent" points="66.5,-60.8433 66.5,-77.8433 96.5,-77.8433 96.5,-60.8433 66.5,-60.8433"/>
<text text-anchor="start" x="68.5" y="-65.9433" font-family="Helvetica,sans-Serif" font-size="11.00" fill="#000000"> &#160;</text>
<polygon fill="#ffffff" stroke="transparent" points="96.5,-60.8433 96.5,-77.8433 125.5,-77.8433 125.5,-60.8433 96.5,-60.8433"/>
<text text-anchor="start" x="107.9431" y="-65.9433" font-family="Helvetica,sans-Serif" font-size="11.00" fill="#000000"> &#160;</text>
<polygon fill="#ffffff" stroke="transparent" points="125.5,-60.8433 125.5,-77.8433 163.5,-77.8433 163.5,-60.8433 125.5,-60.8433"/>
<text text-anchor="start" x="145.9053" y="-65.9433" font-family="Helvetica,sans-Serif" font-size="11.00" fill="#000000">3 &gt;</text>
<polygon fill="#000000" stroke="#000000" points="96.5,-60.8433 96.5,-77.8433 96.5,-77.8433 96.5,-60.8433 96.5,-60.8433"/>
<polygon fill="#000000" stroke="#000000" points="125.5,-60.8433 125.5,-77.8433 125.5,-77.8433 125.5,-60.8433 125.5,-60.8433"/>
</a>
</g>
</g>
<!-- Hospitalizations&#45;&gt;Patients -->
<g id="edge4" class="edge">
<title>Hospitalizations:w&#45;&gt;Patients:e</title>
<path fill="none" stroke="#000000" d="M301.0138,-146.0867C265.9818,-118.4168 215.6912,-87.8433 164.5,-87.8433"/>
<polygon fill="#000000" stroke="#000000" points="306.0966,-150.245 310.0089,-158.0971 309.1926,-152.7779 312.2885,-155.3107 312.2885,-155.3107 312.2885,-155.3107 309.1926,-152.7779 314.568,-152.5244 306.0966,-150.245 306.0966,-150.245"/>
<ellipse fill="none" stroke="#000000" cx="303.6199" cy="-148.2188" rx="3.2" ry="3.2"/>
</g>
<!-- HospitalizationStatusHistories -->
<g id="node6" class="node">
<title>HospitalizationStatusHistories</title>
<g id="a_node6"><a xlink:href="../../tables/HospitalizationStatusHistories.html" xlink:title="HospitalizationStatusHistories" target="_top">
<polygon fill="#ffffff" stroke="transparent" points="476,-283.8433 476,-505.8433 805,-505.8433 805,-283.8433 476,-283.8433"/>
<polygon fill="#f5f5f5" stroke="transparent" points="478.5,-480.8433 478.5,-503.8433 803.5,-503.8433 803.5,-480.8433 478.5,-480.8433"/>
<polygon fill="none" stroke="#000000" points="478.5,-480.8433 478.5,-503.8433 803.5,-503.8433 803.5,-480.8433 478.5,-480.8433"/>
<text text-anchor="start" x="483.5" y="-489.4433" font-family="Helvetica,sans-Serif" font-weight="bold" font-size="11.00" fill="#000000">HospitalizationStatusHistories</text>
<text text-anchor="start" x="768.5437" y="-488.9433" font-family="Helvetica,sans-Serif" font-size="11.00" fill="#000000">[table]</text>
<polygon fill="none" stroke="#000000" points="478.5,-458.8433 478.5,-480.8433 722.5,-480.8433 722.5,-458.8433 478.5,-458.8433"/>
<image xlink:href="../../images/primaryKeys.png" width="11px" height="12px" preserveAspectRatio="xMinYMin meet" x="483.5" y="-475.843"/>
<text text-anchor="start" x="498.5" y="-465.9433" font-family="Helvetica,sans-Serif" font-size="11.00" fill="#000000">Id</text>
<polygon fill="none" stroke="#000000" points="722.5,-458.8433 722.5,-480.8433 803.5,-480.8433 803.5,-458.8433 722.5,-458.8433"/>
<text text-anchor="start" x="725.5" y="-466.5433" font-family="Helvetica,sans-Serif" font-size="11.00" fill="#000000">int identity[4]</text>
<polygon fill="#ffffff" stroke="transparent" points="478.5,-436.8433 478.5,-458.8433 722.5,-458.8433 722.5,-436.8433 478.5,-436.8433"/>
<polygon fill="none" stroke="#000000" points="478.5,-436.8433 478.5,-458.8433 722.5,-458.8433 722.5,-436.8433 478.5,-436.8433"/>
<image xlink:href="../../images/foreignKeys.png" width="11px" height="12px" preserveAspectRatio="xMinYMin meet" x="483.5" y="-453.843"/>
<text text-anchor="start" x="498.5" y="-443.9433" font-family="Helvetica,sans-Serif" font-size="11.00" fill="#000000">HospitalizationId</text>
<polygon fill="none" stroke="#000000" points="722.5,-436.8433 722.5,-458.8433 803.5,-458.8433 803.5,-436.8433 722.5,-436.8433"/>
<text text-anchor="start" x="725.5" y="-444.5433" font-family="Helvetica,sans-Serif" font-size="11.00" fill="#000000">int[4]</text>
<polygon fill="#ffffff" stroke="transparent" points="478.5,-414.8433 478.5,-436.8433 722.5,-436.8433 722.5,-414.8433 478.5,-414.8433"/>
<polygon fill="none" stroke="#000000" points="478.5,-414.8433 478.5,-436.8433 722.5,-436.8433 722.5,-414.8433 478.5,-414.8433"/>
<image xlink:href="../../images/foreignKeys.png" width="11px" height="12px" preserveAspectRatio="xMinYMin meet" x="483.5" y="-431.843"/>
<text text-anchor="start" x="498.5" y="-421.9433" font-family="Helvetica,sans-Serif" font-size="11.00" fill="#000000">NewStatusId</text>
<polygon fill="none" stroke="#000000" points="722.5,-414.8433 722.5,-436.8433 803.5,-436.8433 803.5,-414.8433 722.5,-414.8433"/>
<text text-anchor="start" x="725.5" y="-422.5433" font-family="Helvetica,sans-Serif" font-size="11.00" fill="#000000">int[4]</text>
<polygon fill="#ffffff" stroke="transparent" points="478.5,-392.8433 478.5,-414.8433 722.5,-414.8433 722.5,-392.8433 478.5,-392.8433"/>
<polygon fill="none" stroke="#000000" points="478.5,-392.8433 478.5,-414.8433 722.5,-414.8433 722.5,-392.8433 478.5,-392.8433"/>
<text text-anchor="start" x="498.5" y="-399.9433" font-family="Helvetica,sans-Serif" font-size="11.00" fill="#000000">ChangedAt</text>
<polygon fill="none" stroke="#000000" points="722.5,-392.8433 722.5,-414.8433 803.5,-414.8433 803.5,-392.8433 722.5,-392.8433"/>
<text text-anchor="start" x="725.0968" y="-400.5433" font-family="Helvetica,sans-Serif" font-size="11.00" fill="#000000">datetime2[16,7]</text>
<polygon fill="#ffffff" stroke="transparent" points="478.5,-370.8433 478.5,-392.8433 722.5,-392.8433 722.5,-370.8433 478.5,-370.8433"/>
<polygon fill="none" stroke="#000000" points="478.5,-370.8433 478.5,-392.8433 722.5,-392.8433 722.5,-370.8433 478.5,-370.8433"/>
<text text-anchor="start" x="498.5" y="-377.9433" font-family="Helvetica,sans-Serif" font-size="11.00" fill="#000000">ChangedByUserId</text>
<polygon fill="none" stroke="#000000" points="722.5,-370.8433 722.5,-392.8433 803.5,-392.8433 803.5,-370.8433 722.5,-370.8433"/>
<text text-anchor="start" x="725.5" y="-378.5433" font-family="Helvetica,sans-Serif" font-size="11.00" fill="#000000">int[4]</text>
<polygon fill="none" stroke="#000000" points="478.5,-348.8433 478.5,-370.8433 722.5,-370.8433 722.5,-348.8433 478.5,-348.8433"/>
<text text-anchor="start" x="498.5" y="-355.9433" font-family="Helvetica,sans-Serif" font-size="11.00" fill="#000000">CreatedAtUtc</text>
<polygon fill="none" stroke="#000000" points="722.5,-348.8433 722.5,-370.8433 803.5,-370.8433 803.5,-348.8433 722.5,-348.8433"/>
<text text-anchor="start" x="725.0968" y="-356.5433" font-family="Helvetica,sans-Serif" font-size="11.00" fill="#000000">datetime2[16,7]</text>
<polygon fill="none" stroke="#000000" points="478.5,-326.8433 478.5,-348.8433 722.5,-348.8433 722.5,-326.8433 478.5,-326.8433"/>
<text text-anchor="start" x="498.5" y="-333.9433" font-family="Helvetica,sans-Serif" font-size="11.00" fill="#000000">UpdatedAtUtc</text>
<polygon fill="none" stroke="#000000" points="722.5,-326.8433 722.5,-348.8433 803.5,-348.8433 803.5,-326.8433 722.5,-326.8433"/>
<text text-anchor="start" x="725.0968" y="-334.5433" font-family="Helvetica,sans-Serif" font-size="11.00" fill="#000000">datetime2[16,7]</text>
<polygon fill="none" stroke="#000000" points="478.5,-304.8433 478.5,-326.8433 722.5,-326.8433 722.5,-304.8433 478.5,-304.8433"/>
<text text-anchor="start" x="498.5" y="-311.9433" font-family="Helvetica,sans-Serif" font-size="11.00" fill="#000000">RowVersion</text>
<polygon fill="none" stroke="#000000" points="722.5,-304.8433 722.5,-326.8433 803.5,-326.8433 803.5,-304.8433 722.5,-304.8433"/>
<text text-anchor="start" x="725.5" y="-312.5433" font-family="Helvetica,sans-Serif" font-size="11.00" fill="#000000">timestamp[8]</text>
<polygon fill="#ffffff" stroke="transparent" points="478.5,-285.8433 478.5,-304.8433 803.5,-304.8433 803.5,-285.8433 478.5,-285.8433"/>
<polygon fill="none" stroke="#000000" points="478.5,-285.8433 478.5,-304.8433 803.5,-304.8433 803.5,-285.8433 478.5,-285.8433"/>
<polygon fill="#ffffff" stroke="transparent" points="479.5,-286.8433 479.5,-303.8433 590.5,-303.8433 590.5,-286.8433 479.5,-286.8433"/>
<text text-anchor="start" x="481.5" y="-291.9433" font-family="Helvetica,sans-Serif" font-size="11.00" fill="#000000">&lt; 2</text>
<polygon fill="#ffffff" stroke="transparent" points="590.5,-286.8433 590.5,-303.8433 692.5,-303.8433 692.5,-286.8433 590.5,-286.8433"/>
<text text-anchor="start" x="638.4431" y="-291.9433" font-family="Helvetica,sans-Serif" font-size="11.00" fill="#000000"> &#160;</text>
<polygon fill="#ffffff" stroke="transparent" points="692.5,-286.8433 692.5,-303.8433 802.5,-303.8433 802.5,-286.8433 692.5,-286.8433"/>
<text text-anchor="start" x="784.9053" y="-291.9433" font-family="Helvetica,sans-Serif" font-size="11.00" fill="#000000">0 &gt;</text>
<polygon fill="#000000" stroke="#000000" points="590.5,-286.8433 590.5,-303.8433 590.5,-303.8433 590.5,-286.8433 590.5,-286.8433"/>
<polygon fill="#000000" stroke="#000000" points="692.5,-286.8433 692.5,-303.8433 692.5,-303.8433 692.5,-286.8433 692.5,-286.8433"/>
<polygon fill="none" stroke="#000000" stroke-width="2" points="477,-284.8433 477,-504.8433 804,-504.8433 804,-284.8433 477,-284.8433"/>
</a>
</g>
</g>
<!-- HospitalizationStatusHistories&#45;&gt;Hospitalizations -->
<g id="edge5" class="edge">
<title>HospitalizationStatusHistories:w&#45;&gt;Hospitalizations:e</title>
<path fill="none" stroke="#000000" d="M464.5878,-443.9991C419.8427,-419.8522 376.6916,-288.0824 358.0817,-224.3706"/>
<polygon fill="#000000" stroke="#000000" points="470.789,-445.7125 477.5412,-451.3132 474.6445,-446.7779 478.5,-447.8433 478.5,-447.8433 478.5,-447.8433 474.6445,-446.7779 479.4588,-444.3733 470.789,-445.7125 470.789,-445.7125"/>
<ellipse fill="none" stroke="#000000" cx="467.7045" cy="-444.8602" rx="3.2" ry="3.2"/>
</g>
<!-- HospitalizationStatusHistories&#45;&gt;HospitalizationStatuses -->
<g id="edge6" class="edge">
<title>HospitalizationStatusHistories:w&#45;&gt;HospitalizationStatuses:e</title>
<path fill="none" stroke="#000000" d="M463.7329,-425.8433C384.1251,-425.8433 296.7152,-425.8433 229.2581,-425.8433"/>
<polygon fill="#000000" stroke="#000000" points="470.5,-425.8433 478.5,-429.4433 474.5,-425.8433 478.5,-425.8433 478.5,-425.8433 478.5,-425.8433 474.5,-425.8433 478.5,-422.2433 470.5,-425.8433 470.5,-425.8433"/>
<ellipse fill="none" stroke="#000000" cx="467.3" cy="-425.8433" rx="3.2" ry="3.2"/>
</g>
<!-- Visits -->
<g id="node7" class="node">
<title>Visits</title>
<g id="a_node7"><a xlink:href="../../tables/Visits.html" xlink:title="Visits" target="_top">
<polygon fill="#ffffff" stroke="transparent" points="601,-119.3433 601,-180.3433 680,-180.3433 680,-119.3433 601,-119.3433"/>
<polygon fill="#f5f5f5" stroke="transparent" points="601.5,-156.8433 601.5,-179.8433 680.5,-179.8433 680.5,-156.8433 601.5,-156.8433"/>
<polygon fill="none" stroke="#000000" points="601.5,-156.8433 601.5,-179.8433 680.5,-179.8433 680.5,-156.8433 601.5,-156.8433"/>
<text text-anchor="start" x="606.5" y="-165.4433" font-family="Helvetica,sans-Serif" font-weight="bold" font-size="11.00" fill="#000000">Visits</text>
<text text-anchor="start" x="646.0219" y="-164.9433" font-family="Helvetica,sans-Serif" font-size="11.00" fill="#000000">[table]</text>
<polygon fill="none" stroke="#000000" points="601.5,-137.8433 601.5,-156.8433 680.5,-156.8433 680.5,-137.8433 601.5,-137.8433"/>
<text text-anchor="start" x="604.5" y="-143.9433" font-family="Helvetica,sans-Serif" font-size="11.00" fill="#000000">...</text>
<polygon fill="#ffffff" stroke="transparent" points="601.5,-118.8433 601.5,-137.8433 680.5,-137.8433 680.5,-118.8433 601.5,-118.8433"/>
<polygon fill="none" stroke="#000000" points="601.5,-118.8433 601.5,-137.8433 680.5,-137.8433 680.5,-118.8433 601.5,-118.8433"/>
<polygon fill="#ffffff" stroke="transparent" points="602.5,-119.8433 602.5,-136.8433 631.5,-136.8433 631.5,-119.8433 602.5,-119.8433"/>
<text text-anchor="start" x="604.5" y="-124.9433" font-family="Helvetica,sans-Serif" font-size="11.00" fill="#000000">&lt; 1</text>
<polygon fill="#ffffff" stroke="transparent" points="631.5,-119.8433 631.5,-136.8433 651.5,-136.8433 651.5,-119.8433 631.5,-119.8433"/>
<text text-anchor="start" x="638.4431" y="-124.9433" font-family="Helvetica,sans-Serif" font-size="11.00" fill="#000000"> &#160;</text>
<polygon fill="#ffffff" stroke="transparent" points="651.5,-119.8433 651.5,-136.8433 679.5,-136.8433 679.5,-119.8433 651.5,-119.8433"/>
<text text-anchor="start" x="661.9053" y="-124.9433" font-family="Helvetica,sans-Serif" font-size="11.00" fill="#000000">4 &gt;</text>
<polygon fill="#000000" stroke="#000000" points="631.5,-119.8433 631.5,-136.8433 631.5,-136.8433 631.5,-119.8433 631.5,-119.8433"/>
<polygon fill="#000000" stroke="#000000" points="651.5,-119.8433 651.5,-136.8433 651.5,-136.8433 651.5,-119.8433 651.5,-119.8433"/>
</a>
</g>
</g>
<!-- Visits&#45;&gt;Hospitalizations -->
<g id="edge7" class="edge">
<title>Visits:w&#45;&gt;Hospitalizations:e</title>
<path fill="none" stroke="#000000" d="M586.9642,-147.0658C535.0455,-148.6209 479.5155,-158.0829 435.1155,-167.7135"/>
<polygon fill="#000000" stroke="#000000" points="593.5009,-146.9658 601.5551,-150.4428 597.5005,-146.9045 601.5,-146.8433 601.5,-146.8433 601.5,-146.8433 597.5005,-146.9045 601.4449,-143.2437 593.5009,-146.9658 593.5009,-146.9658"/>
<ellipse fill="none" stroke="#000000" cx="590.3013" cy="-147.0148" rx="3.2" ry="3.2"/>
</g>
<!-- staging.ProviderAssignments -->
<g id="node8" class="node">
<title>staging.ProviderAssignments</title>
<g id="a_node8"><a xlink:title="staging.ProviderAssignments">
<polygon fill="#ffffff" stroke="transparent" points="854,-93.3433 854,-154.3433 1109,-154.3433 1109,-93.3433 854,-93.3433"/>
<polygon fill="#f5f5f5" stroke="transparent" points="854.5,-130.8433 854.5,-153.8433 1109.5,-153.8433 1109.5,-130.8433 854.5,-130.8433"/>
<polygon fill="none" stroke="#000000" points="854.5,-130.8433 854.5,-153.8433 1109.5,-153.8433 1109.5,-130.8433 854.5,-130.8433"/>
<text text-anchor="start" x="859.5" y="-139.4433" font-family="Helvetica,sans-Serif" font-weight="bold" font-size="11.00" fill="#000000">staging.ProviderAssignments</text>
<text text-anchor="start" x="1075.0219" y="-138.9433" font-family="Helvetica,sans-Serif" font-size="11.00" fill="#000000">[table]</text>
<polygon fill="none" stroke="#000000" points="854.5,-111.8433 854.5,-130.8433 1109.5,-130.8433 1109.5,-111.8433 854.5,-111.8433"/>
<text text-anchor="start" x="857.5" y="-117.9433" font-family="Helvetica,sans-Serif" font-size="11.00" fill="#000000">...</text>
<polygon fill="#ffffff" stroke="transparent" points="854.5,-92.8433 854.5,-111.8433 1109.5,-111.8433 1109.5,-92.8433 854.5,-92.8433"/>
<polygon fill="none" stroke="#000000" points="854.5,-92.8433 854.5,-111.8433 1109.5,-111.8433 1109.5,-92.8433 854.5,-92.8433"/>
<polygon fill="#ffffff" stroke="transparent" points="855.5,-93.8433 855.5,-110.8433 946.5,-110.8433 946.5,-93.8433 855.5,-93.8433"/>
<text text-anchor="start" x="857.5" y="-98.9433" font-family="Helvetica,sans-Serif" font-size="11.00" fill="#000000">&lt; 6</text>
<polygon fill="#ffffff" stroke="transparent" points="946.5,-93.8433 946.5,-110.8433 1027.5,-110.8433 1027.5,-93.8433 946.5,-93.8433"/>
<text text-anchor="start" x="983.9431" y="-98.9433" font-family="Helvetica,sans-Serif" font-size="11.00" fill="#000000"> &#160;</text>
<polygon fill="#ffffff" stroke="transparent" points="1027.5,-93.8433 1027.5,-110.8433 1108.5,-110.8433 1108.5,-93.8433 1027.5,-93.8433"/>
<text text-anchor="start" x="1100.3862" y="-98.9433" font-family="Helvetica,sans-Serif" font-size="11.00" fill="#000000"> &#160;</text>
<polygon fill="#000000" stroke="#000000" points="946.5,-93.8433 946.5,-110.8433 946.5,-110.8433 946.5,-93.8433 946.5,-93.8433"/>
<polygon fill="#000000" stroke="#000000" points="1027.5,-93.8433 1027.5,-110.8433 1027.5,-110.8433 1027.5,-93.8433 1027.5,-93.8433"/>
</a>
</g>
</g>
<!-- staging.ProviderAssignments&#45;&gt;Hospitalizations -->
<g id="edge8" class="edge">
<title>staging.ProviderAssignments:w&#45;&gt;Hospitalizations:e</title>
<path fill="none" stroke="#000000" d="M840.1959,-118.6025C831.7087,-115.6724 826.0695,-110.6949 813,-108.8433 661.1827,-87.3343 614.5823,-63.8461 468,-108.8433 438.0502,-118.0371 408.8572,-137.5645 386.8226,-155.1421"/>
<polygon fill="#000000" stroke="#000000" points="846.5964,-119.6051 853.9428,-124.3999 850.5482,-120.2242 854.5,-120.8433 854.5,-120.8433 854.5,-120.8433 850.5482,-120.2242 855.0572,-117.2866 846.5964,-119.6051 846.5964,-119.6051"/>
<ellipse fill="none" stroke="#000000" cx="843.4349" cy="-119.1099" rx="3.2" ry="3.2"/>
</g>
<!-- staging.ProviderAssignments&#45;&gt;HospitalizationStatuses -->
<g id="edge9" class="edge">
<title>staging.ProviderAssignments:w&#45;&gt;HospitalizationStatuses:e</title>
<path fill="none" stroke="#000000" d="M840.1749,-124.64C779.4119,-161.857 874.6368,-461.3283 813,-516.8433 728.9467,-592.5482 401.5976,-511.3127 226.4865,-460.4292"/>
<polygon fill="#000000" stroke="#000000" points="846.767,-122.8928 855.4223,-124.3231 850.6335,-121.868 854.5,-120.8433 854.5,-120.8433 854.5,-120.8433 850.6335,-121.868 853.5777,-117.3634 846.767,-122.8928 846.767,-122.8928"/>
<ellipse fill="none" stroke="#000000" cx="843.6738" cy="-123.7127" rx="3.2" ry="3.2"/>
</g>
<!-- staging.ProviderAssignments&#45;&gt;Patients -->
<g id="edge10" class="edge">
<title>staging.ProviderAssignments:w&#45;&gt;Patients:e</title>
<path fill="none" stroke="#000000" d="M840.8556,-116.2193C830.8413,-107.3328 831.003,-88.107 813,-80.8433 545.6982,27.0061 452.739,-87.8433 164.5,-87.8433"/>
<polygon fill="#000000" stroke="#000000" points="846.9233,-118.2755 853.3445,-124.2528 850.7116,-119.5594 854.5,-120.8433 854.5,-120.8433 854.5,-120.8433 850.7116,-119.5594 855.6555,-117.4337 846.9233,-118.2755 846.9233,-118.2755"/>
<ellipse fill="none" stroke="#000000" cx="843.8926" cy="-117.2484" rx="3.2" ry="3.2"/>
</g>
<!-- staging.ProviderAssignments&#45;&gt;Visits -->
<g id="edge11" class="edge">
<title>staging.ProviderAssignments:w&#45;&gt;Visits:e</title>
<path fill="none" stroke="#000000" d="M839.6886,-121.172C773.7013,-124.1817 753.4995,-146.8433 680.5,-146.8433"/>
<polygon fill="#000000" stroke="#000000" points="846.502,-121.0208 854.5799,-124.4424 850.501,-120.932 854.5,-120.8433 854.5,-120.8433 854.5,-120.8433 850.501,-120.932 854.4201,-117.2441 846.502,-121.0208 846.502,-121.0208"/>
<ellipse fill="none" stroke="#000000" cx="843.3028" cy="-121.0919" rx="3.2" ry="3.2"/>
</g>
</g>
</svg>
