<?xml version="1.0" encoding="UTF-8" standalone="no"?>
<!DOCTYPE svg PUBLIC "-//W3C//DTD SVG 1.1//EN"
 "http://www.w3.org/Graphics/SVG/1.1/DTD/svg11.dtd">
<!-- Generated by graphviz version 2.40.1 (20161225.0304)
 -->
<!-- Title: twoDegreesRelationshipsDiagram Pages: 1 -->
<svg width="1182pt" height="832pt"
 viewBox="0.00 0.00 1182.00 832.14" xmlns="http://www.w3.org/2000/svg" xmlns:xlink="http://www.w3.org/1999/xlink">
<g id="graph0" class="graph" transform="scale(1 1) rotate(0) translate(4 828.1433)">
<title>twoDegreesRelationshipsDiagram</title>
<polygon fill="#ffffff" stroke="transparent" points="-4,4 -4,-828.1433 1178,-828.1433 1178,4 -4,4"/>
<text text-anchor="middle" x="72.4936" y="-7.3" font-family="Helvetica,sans-Serif" font-size="11.00" fill="#000000">Generated by SchemaSpy</text>
<!-- HospitalizationInsurances -->
<g id="node1" class="node">
<title>HospitalizationInsurances</title>
<g id="a_node1"><a xlink:href="../../tables/HospitalizationInsurances.html" xlink:title="HospitalizationInsurances" target="_top">
<polygon fill="#ffffff" stroke="transparent" points="616.5,-231.1433 616.5,-358.1433 845.5,-358.1433 845.5,-231.1433 616.5,-231.1433"/>
<polygon fill="#f5f5f5" stroke="transparent" points="617,-334.6433 617,-357.6433 846,-357.6433 846,-334.6433 617,-334.6433"/>
<polygon fill="none" stroke="#000000" points="617,-334.6433 617,-357.6433 846,-357.6433 846,-334.6433 617,-334.6433"/>
<text text-anchor="start" x="622" y="-343.2433" font-family="Helvetica,sans-Serif" font-weight="bold" font-size="11.00" fill="#000000">HospitalizationInsurances</text>
<text text-anchor="start" x="811.5219" y="-342.7433" font-family="Helvetica,sans-Serif" font-size="11.00" fill="#000000">[table]</text>
<polygon fill="none" stroke="#000000" points="617,-312.6433 617,-334.6433 846,-334.6433 846,-312.6433 617,-312.6433"/>
<image xlink:href="../../images/primaryKeys.png" width="11px" height="12px" preserveAspectRatio="xMinYMin meet" x="622" y="-329.643"/>
<text text-anchor="start" x="646" y="-319.7433" font-family="Helvetica,sans-Serif" font-size="11.00" fill="#000000">Id</text>
<polygon fill="#ffffff" stroke="transparent" points="617,-290.6433 617,-312.6433 846,-312.6433 846,-290.6433 617,-290.6433"/>
<polygon fill="none" stroke="#000000" points="617,-290.6433 617,-312.6433 846,-312.6433 846,-290.6433 617,-290.6433"/>
<image xlink:href="../../images/foreignKeys.png" width="11px" height="12px" preserveAspectRatio="xMinYMin meet" x="622" y="-307.643"/>
<text text-anchor="start" x="646" y="-297.7433" font-family="Helvetica,sans-Serif" font-size="11.00" fill="#000000">HospitalizationId</text>
<polygon fill="#ffffff" stroke="transparent" points="617,-268.6433 617,-290.6433 846,-290.6433 846,-268.6433 617,-268.6433"/>
<polygon fill="none" stroke="#000000" points="617,-268.6433 617,-290.6433 846,-290.6433 846,-268.6433 617,-268.6433"/>
<image xlink:href="../../images/foreignKeys.png" width="11px" height="12px" preserveAspectRatio="xMinYMin meet" x="622" y="-285.643"/>
<text text-anchor="start" x="646" y="-275.7433" font-family="Helvetica,sans-Serif" font-size="11.00" fill="#000000">InsuranceId</text>
<polygon fill="none" stroke="#000000" points="617,-249.6433 617,-268.6433 846,-268.6433 846,-249.6433 617,-249.6433"/>
<text text-anchor="start" x="620" y="-255.7433" font-family="Helvetica,sans-Serif" font-size="11.00" fill="#000000">...</text>
<polygon fill="#ffffff" stroke="transparent" points="617,-230.6433 617,-249.6433 846,-249.6433 846,-230.6433 617,-230.6433"/>
<polygon fill="none" stroke="#000000" points="617,-230.6433 617,-249.6433 846,-249.6433 846,-230.6433 617,-230.6433"/>
<polygon fill="#ffffff" stroke="transparent" points="618,-231.6433 618,-248.6433 700,-248.6433 700,-231.6433 618,-231.6433"/>
<text text-anchor="start" x="620" y="-236.7433" font-family="Helvetica,sans-Serif" font-size="11.00" fill="#000000">&lt; 2</text>
<polygon fill="#ffffff" stroke="transparent" points="700,-231.6433 700,-248.6433 773,-248.6433 773,-231.6433 700,-231.6433"/>
<text text-anchor="start" x="733.4431" y="-236.7433" font-family="Helvetica,sans-Serif" font-size="11.00" fill="#000000"> &#160;</text>
<polygon fill="#ffffff" stroke="transparent" points="773,-231.6433 773,-248.6433 845,-248.6433 845,-231.6433 773,-231.6433"/>
<text text-anchor="start" x="836.8862" y="-236.7433" font-family="Helvetica,sans-Serif" font-size="11.00" fill="#000000"> &#160;</text>
<polygon fill="#000000" stroke="#000000" points="700,-231.6433 700,-248.6433 700,-248.6433 700,-231.6433 700,-231.6433"/>
<polygon fill="#000000" stroke="#000000" points="773,-231.6433 773,-248.6433 773,-248.6433 773,-231.6433 773,-231.6433"/>
</a>
</g>
</g>
<!-- Hospitalizations -->
<g id="node2" class="node">
<title>Hospitalizations</title>
<g id="a_node2"><a xlink:href="../../tables/Hospitalizations.html" xlink:title="Hospitalizations" target="_top">
<polygon fill="#ffffff" stroke="transparent" points="271.5,-285.6433 271.5,-573.6433 549.5,-573.6433 549.5,-285.6433 271.5,-285.6433"/>
<polygon fill="#f5f5f5" stroke="transparent" points="273.5,-548.6433 273.5,-571.6433 547.5,-571.6433 547.5,-548.6433 273.5,-548.6433"/>
<polygon fill="none" stroke="#000000" points="273.5,-548.6433 273.5,-571.6433 547.5,-571.6433 547.5,-548.6433 273.5,-548.6433"/>
<text text-anchor="start" x="278.5" y="-557.2433" font-family="Helvetica,sans-Serif" font-weight="bold" font-size="11.00" fill="#000000">Hospitalizations</text>
<text text-anchor="start" x="512.5437" y="-556.7433" font-family="Helvetica,sans-Serif" font-size="11.00" fill="#000000">[table]</text>
<polygon fill="none" stroke="#000000" points="273.5,-526.6433 273.5,-548.6433 466.5,-548.6433 466.5,-526.6433 273.5,-526.6433"/>
<image xlink:href="../../images/primaryKeys.png" width="11px" height="12px" preserveAspectRatio="xMinYMin meet" x="278.5" y="-543.643"/>
<text text-anchor="start" x="293.5" y="-533.7433" font-family="Helvetica,sans-Serif" font-size="11.00" fill="#000000">Id</text>
<polygon fill="none" stroke="#000000" points="466.5,-526.6433 466.5,-548.6433 547.5,-548.6433 547.5,-526.6433 466.5,-526.6433"/>
<text text-anchor="start" x="469.5" y="-534.3433" font-family="Helvetica,sans-Serif" font-size="11.00" fill="#000000">int identity[4]</text>
<polygon fill="#ffffff" stroke="transparent" points="273.5,-504.6433 273.5,-526.6433 466.5,-526.6433 466.5,-504.6433 273.5,-504.6433"/>
<polygon fill="none" stroke="#000000" points="273.5,-504.6433 273.5,-526.6433 466.5,-526.6433 466.5,-504.6433 273.5,-504.6433"/>
<image xlink:href="../../images/foreignKeys.png" width="11px" height="12px" preserveAspectRatio="xMinYMin meet" x="278.5" y="-521.643"/>
<text text-anchor="start" x="293.5" y="-511.7433" font-family="Helvetica,sans-Serif" font-size="11.00" fill="#000000">PatientId</text>
<polygon fill="none" stroke="#000000" points="466.5,-504.6433 466.5,-526.6433 547.5,-526.6433 547.5,-504.6433 466.5,-504.6433"/>
<text text-anchor="start" x="469.5" y="-512.3433" font-family="Helvetica,sans-Serif" font-size="11.00" fill="#000000">int[4]</text>
<polygon fill="#ffffff" stroke="transparent" points="273.5,-482.6433 273.5,-504.6433 466.5,-504.6433 466.5,-482.6433 273.5,-482.6433"/>
<polygon fill="none" stroke="#000000" points="273.5,-482.6433 273.5,-504.6433 466.5,-504.6433 466.5,-482.6433 273.5,-482.6433"/>
<image xlink:href="../../images/foreignKeys.png" width="11px" height="12px" preserveAspectRatio="xMinYMin meet" x="278.5" y="-499.643"/>
<text text-anchor="start" x="293.5" y="-489.7433" font-family="Helvetica,sans-Serif" font-size="11.00" fill="#000000">FacilityId</text>
<polygon fill="none" stroke="#000000" points="466.5,-482.6433 466.5,-504.6433 547.5,-504.6433 547.5,-482.6433 466.5,-482.6433"/>
<text text-anchor="start" x="469.5" y="-490.3433" font-family="Helvetica,sans-Serif" font-size="11.00" fill="#000000">int[4]</text>
<polygon fill="#ffffff" stroke="transparent" points="273.5,-460.6433 273.5,-482.6433 466.5,-482.6433 466.5,-460.6433 273.5,-460.6433"/>
<polygon fill="none" stroke="#000000" points="273.5,-460.6433 273.5,-482.6433 466.5,-482.6433 466.5,-460.6433 273.5,-460.6433"/>
<text text-anchor="start" x="293.5" y="-467.7433" font-family="Helvetica,sans-Serif" font-size="11.00" fill="#000000">CaseId</text>
<polygon fill="none" stroke="#000000" points="466.5,-460.6433 466.5,-482.6433 547.5,-482.6433 547.5,-460.6433 466.5,-460.6433"/>
<text text-anchor="start" x="469.5" y="-468.3433" font-family="Helvetica,sans-Serif" font-size="11.00" fill="#000000">int[4]</text>
<polygon fill="none" stroke="#000000" points="273.5,-438.6433 273.5,-460.6433 466.5,-460.6433 466.5,-438.6433 273.5,-438.6433"/>
<text text-anchor="start" x="293.5" y="-445.7433" font-family="Helvetica,sans-Serif" font-size="11.00" fill="#000000">AdmissionDate</text>
<polygon fill="none" stroke="#000000" points="466.5,-438.6433 466.5,-460.6433 547.5,-460.6433 547.5,-438.6433 466.5,-438.6433"/>
<text text-anchor="start" x="469.0968" y="-446.3433" font-family="Helvetica,sans-Serif" font-size="11.00" fill="#000000">datetime2[16,7]</text>
<polygon fill="none" stroke="#000000" points="273.5,-416.6433 273.5,-438.6433 466.5,-438.6433 466.5,-416.6433 273.5,-416.6433"/>
<text text-anchor="start" x="293.5" y="-423.7433" font-family="Helvetica,sans-Serif" font-size="11.00" fill="#000000">DischargeDate</text>
<polygon fill="none" stroke="#000000" points="466.5,-416.6433 466.5,-438.6433 547.5,-438.6433 547.5,-416.6433 466.5,-416.6433"/>
<text text-anchor="start" x="469.0968" y="-424.3433" font-family="Helvetica,sans-Serif" font-size="11.00" fill="#000000">datetime2[16,7]</text>
<polygon fill="#ffffff" stroke="transparent" points="273.5,-394.6433 273.5,-416.6433 466.5,-416.6433 466.5,-394.6433 273.5,-394.6433"/>
<polygon fill="none" stroke="#000000" points="273.5,-394.6433 273.5,-416.6433 466.5,-416.6433 466.5,-394.6433 273.5,-394.6433"/>
<image xlink:href="../../images/foreignKeys.png" width="11px" height="12px" preserveAspectRatio="xMinYMin meet" x="278.5" y="-411.643"/>
<text text-anchor="start" x="293.5" y="-401.7433" font-family="Helvetica,sans-Serif" font-size="11.00" fill="#000000">HospitalizationStatusId</text>
<polygon fill="none" stroke="#000000" points="466.5,-394.6433 466.5,-416.6433 547.5,-416.6433 547.5,-394.6433 466.5,-394.6433"/>
<text text-anchor="start" x="469.5" y="-402.3433" font-family="Helvetica,sans-Serif" font-size="11.00" fill="#000000">int[4]</text>
<polygon fill="none" stroke="#000000" points="273.5,-372.6433 273.5,-394.6433 466.5,-394.6433 466.5,-372.6433 273.5,-372.6433"/>
<text text-anchor="start" x="293.5" y="-379.7433" font-family="Helvetica,sans-Serif" font-size="11.00" fill="#000000">PsychEvaluation</text>
<polygon fill="none" stroke="#000000" points="466.5,-372.6433 466.5,-394.6433 547.5,-394.6433 547.5,-372.6433 466.5,-372.6433"/>
<text text-anchor="start" x="469.5" y="-380.3433" font-family="Helvetica,sans-Serif" font-size="11.00" fill="#000000">bit[1]</text>
<polygon fill="none" stroke="#000000" points="273.5,-350.6433 273.5,-372.6433 466.5,-372.6433 466.5,-350.6433 273.5,-350.6433"/>
<text text-anchor="start" x="293.5" y="-357.7433" font-family="Helvetica,sans-Serif" font-size="11.00" fill="#000000">CreatedAtUtc</text>
<polygon fill="none" stroke="#000000" points="466.5,-350.6433 466.5,-372.6433 547.5,-372.6433 547.5,-350.6433 466.5,-350.6433"/>
<text text-anchor="start" x="469.0968" y="-358.3433" font-family="Helvetica,sans-Serif" font-size="11.00" fill="#000000">datetime2[16,7]</text>
<polygon fill="none" stroke="#000000" points="273.5,-328.6433 273.5,-350.6433 466.5,-350.6433 466.5,-328.6433 273.5,-328.6433"/>
<text text-anchor="start" x="293.5" y="-335.7433" font-family="Helvetica,sans-Serif" font-size="11.00" fill="#000000">UpdatedAtUtc</text>
<polygon fill="none" stroke="#000000" points="466.5,-328.6433 466.5,-350.6433 547.5,-350.6433 547.5,-328.6433 466.5,-328.6433"/>
<text text-anchor="start" x="469.0968" y="-336.3433" font-family="Helvetica,sans-Serif" font-size="11.00" fill="#000000">datetime2[16,7]</text>
<polygon fill="none" stroke="#000000" points="273.5,-306.6433 273.5,-328.6433 466.5,-328.6433 466.5,-306.6433 273.5,-306.6433"/>
<text text-anchor="start" x="293.5" y="-313.7433" font-family="Helvetica,sans-Serif" font-size="11.00" fill="#000000">RowVersion</text>
<polygon fill="none" stroke="#000000" points="466.5,-306.6433 466.5,-328.6433 547.5,-328.6433 547.5,-306.6433 466.5,-306.6433"/>
<text text-anchor="start" x="469.5" y="-314.3433" font-family="Helvetica,sans-Serif" font-size="11.00" fill="#000000">timestamp[8]</text>
<polygon fill="#ffffff" stroke="transparent" points="273.5,-287.6433 273.5,-306.6433 547.5,-306.6433 547.5,-287.6433 273.5,-287.6433"/>
<polygon fill="none" stroke="#000000" points="273.5,-287.6433 273.5,-306.6433 547.5,-306.6433 547.5,-287.6433 273.5,-287.6433"/>
<polygon fill="#ffffff" stroke="transparent" points="274.5,-288.6433 274.5,-305.6433 368.5,-305.6433 368.5,-288.6433 274.5,-288.6433"/>
<text text-anchor="start" x="276.5" y="-293.7433" font-family="Helvetica,sans-Serif" font-size="11.00" fill="#000000">&lt; 3</text>
<polygon fill="#ffffff" stroke="transparent" points="368.5,-288.6433 368.5,-305.6433 453.5,-305.6433 453.5,-288.6433 368.5,-288.6433"/>
<text text-anchor="start" x="407.9431" y="-293.7433" font-family="Helvetica,sans-Serif" font-size="11.00" fill="#000000"> &#160;</text>
<polygon fill="#ffffff" stroke="transparent" points="453.5,-288.6433 453.5,-305.6433 546.5,-305.6433 546.5,-288.6433 453.5,-288.6433"/>
<text text-anchor="start" x="528.9053" y="-293.7433" font-family="Helvetica,sans-Serif" font-size="11.00" fill="#000000">4 &gt;</text>
<polygon fill="#000000" stroke="#000000" points="368.5,-288.6433 368.5,-305.6433 368.5,-305.6433 368.5,-288.6433 368.5,-288.6433"/>
<polygon fill="#000000" stroke="#000000" points="453.5,-288.6433 453.5,-305.6433 453.5,-305.6433 453.5,-288.6433 453.5,-288.6433"/>
<polygon fill="none" stroke="#000000" stroke-width="2" points="272.5,-286.6433 272.5,-572.6433 548.5,-572.6433 548.5,-286.6433 272.5,-286.6433"/>
</a>
</g>
</g>
<!-- HospitalizationInsurances&#45;&gt;Hospitalizations -->
<g id="edge1" class="edge">
<title>HospitalizationInsurances:w&#45;&gt;Hospitalizations:e</title>
<path fill="none" stroke="#000000" d="M602.2747,-303.4072C522.1424,-325.0035 651.29,-537.6433 547.5,-537.6433"/>
<polygon fill="#000000" stroke="#000000" points="609.0568,-302.5949 617.4282,-305.2177 613.0284,-302.1191 617,-301.6433 617,-301.6433 617,-301.6433 613.0284,-302.1191 616.5718,-298.0689 609.0568,-302.5949 609.0568,-302.5949"/>
<ellipse fill="none" stroke="#000000" cx="605.8795" cy="-302.9755" rx="3.2" ry="3.2"/>
</g>
<!-- Insurances -->
<g id="node3" class="node">
<title>Insurances</title>
<g id="a_node3"><a xlink:href="../../tables/Insurances.html" xlink:title="Insurances" target="_top">
<polygon fill="#ffffff" stroke="transparent" points="351.5,-203.1433 351.5,-264.1433 469.5,-264.1433 469.5,-203.1433 351.5,-203.1433"/>
<polygon fill="#f5f5f5" stroke="transparent" points="351.5,-240.6433 351.5,-263.6433 469.5,-263.6433 469.5,-240.6433 351.5,-240.6433"/>
<polygon fill="none" stroke="#000000" points="351.5,-240.6433 351.5,-263.6433 469.5,-263.6433 469.5,-240.6433 351.5,-240.6433"/>
<text text-anchor="start" x="356.5" y="-249.2433" font-family="Helvetica,sans-Serif" font-weight="bold" font-size="11.00" fill="#000000">Insurances</text>
<text text-anchor="start" x="435.0219" y="-248.7433" font-family="Helvetica,sans-Serif" font-size="11.00" fill="#000000">[table]</text>
<polygon fill="none" stroke="#000000" points="351.5,-221.6433 351.5,-240.6433 469.5,-240.6433 469.5,-221.6433 351.5,-221.6433"/>
<text text-anchor="start" x="354.5" y="-227.7433" font-family="Helvetica,sans-Serif" font-size="11.00" fill="#000000">...</text>
<polygon fill="#ffffff" stroke="transparent" points="351.5,-202.6433 351.5,-221.6433 469.5,-221.6433 469.5,-202.6433 351.5,-202.6433"/>
<polygon fill="none" stroke="#000000" points="351.5,-202.6433 351.5,-221.6433 469.5,-221.6433 469.5,-202.6433 351.5,-202.6433"/>
<polygon fill="#ffffff" stroke="transparent" points="352.5,-203.6433 352.5,-220.6433 388.5,-220.6433 388.5,-203.6433 352.5,-203.6433"/>
<text text-anchor="start" x="354.5" y="-208.7433" font-family="Helvetica,sans-Serif" font-size="11.00" fill="#000000"> &#160;</text>
<polygon fill="#ffffff" stroke="transparent" points="388.5,-203.6433 388.5,-220.6433 424.5,-220.6433 424.5,-203.6433 388.5,-203.6433"/>
<text text-anchor="start" x="403.4431" y="-208.7433" font-family="Helvetica,sans-Serif" font-size="11.00" fill="#000000"> &#160;</text>
<polygon fill="#ffffff" stroke="transparent" points="424.5,-203.6433 424.5,-220.6433 468.5,-220.6433 468.5,-203.6433 424.5,-203.6433"/>
<text text-anchor="start" x="450.9053" y="-208.7433" font-family="Helvetica,sans-Serif" font-size="11.00" fill="#000000">1 &gt;</text>
<polygon fill="#000000" stroke="#000000" points="388.5,-203.6433 388.5,-220.6433 388.5,-220.6433 388.5,-203.6433 388.5,-203.6433"/>
<polygon fill="#000000" stroke="#000000" points="424.5,-203.6433 424.5,-220.6433 424.5,-220.6433 424.5,-203.6433 424.5,-203.6433"/>
</a>
</g>
</g>
<!-- HospitalizationInsurances&#45;&gt;Insurances -->
<g id="edge2" class="edge">
<title>HospitalizationInsurances:w&#45;&gt;Insurances:e</title>
<path fill="none" stroke="#000000" d="M602.5576,-278.8736C546.2058,-272.6398 533.4513,-230.6433 469.5,-230.6433"/>
<polygon fill="#000000" stroke="#000000" points="609.0113,-279.2175 616.8084,-283.2382 613.0057,-279.4304 617,-279.6433 617,-279.6433 617,-279.6433 613.0057,-279.4304 617.1916,-276.0484 609.0113,-279.2175 609.0113,-279.2175"/>
<ellipse fill="none" stroke="#000000" cx="605.8159" cy="-279.0472" rx="3.2" ry="3.2"/>
</g>
<!-- Facilities -->
<g id="node4" class="node">
<title>Facilities</title>
<g id="a_node4"><a xlink:href="../../tables/Facilities.html" xlink:title="Facilities" target="_top">
<polygon fill="#ffffff" stroke="transparent" points="52.5,-656.1433 52.5,-739.1433 176.5,-739.1433 176.5,-656.1433 52.5,-656.1433"/>
<polygon fill="#f5f5f5" stroke="transparent" points="52.5,-715.6433 52.5,-738.6433 176.5,-738.6433 176.5,-715.6433 52.5,-715.6433"/>
<polygon fill="none" stroke="#000000" points="52.5,-715.6433 52.5,-738.6433 176.5,-738.6433 176.5,-715.6433 52.5,-715.6433"/>
<text text-anchor="start" x="57.5" y="-724.2433" font-family="Helvetica,sans-Serif" font-weight="bold" font-size="11.00" fill="#000000">Facilities</text>
<text text-anchor="start" x="141.5437" y="-723.7433" font-family="Helvetica,sans-Serif" font-size="11.00" fill="#000000">[table]</text>
<polygon fill="none" stroke="#000000" points="52.5,-693.6433 52.5,-715.6433 176.5,-715.6433 176.5,-693.6433 52.5,-693.6433"/>
<image xlink:href="../../images/primaryKeys.png" width="11px" height="12px" preserveAspectRatio="xMinYMin meet" x="57.5" y="-710.643"/>
<text text-anchor="start" x="72.5" y="-700.7433" font-family="Helvetica,sans-Serif" font-size="11.00" fill="#000000">Id</text>
<polygon fill="none" stroke="#000000" points="52.5,-674.6433 52.5,-693.6433 176.5,-693.6433 176.5,-674.6433 52.5,-674.6433"/>
<text text-anchor="start" x="55.5" y="-680.7433" font-family="Helvetica,sans-Serif" font-size="11.00" fill="#000000">...</text>
<polygon fill="#ffffff" stroke="transparent" points="52.5,-655.6433 52.5,-674.6433 176.5,-674.6433 176.5,-655.6433 52.5,-655.6433"/>
<polygon fill="none" stroke="#000000" points="52.5,-655.6433 52.5,-674.6433 176.5,-674.6433 176.5,-655.6433 52.5,-655.6433"/>
<polygon fill="#ffffff" stroke="transparent" points="53.5,-656.6433 53.5,-673.6433 91.5,-673.6433 91.5,-656.6433 53.5,-656.6433"/>
<text text-anchor="start" x="55.5" y="-661.7433" font-family="Helvetica,sans-Serif" font-size="11.00" fill="#000000"> &#160;</text>
<polygon fill="#ffffff" stroke="transparent" points="91.5,-656.6433 91.5,-673.6433 129.5,-673.6433 129.5,-656.6433 91.5,-656.6433"/>
<text text-anchor="start" x="107.4431" y="-661.7433" font-family="Helvetica,sans-Serif" font-size="11.00" fill="#000000"> &#160;</text>
<polygon fill="#ffffff" stroke="transparent" points="129.5,-656.6433 129.5,-673.6433 175.5,-673.6433 175.5,-656.6433 129.5,-656.6433"/>
<text text-anchor="start" x="157.9053" y="-661.7433" font-family="Helvetica,sans-Serif" font-size="11.00" fill="#000000">3 &gt;</text>
<polygon fill="#000000" stroke="#000000" points="91.5,-656.6433 91.5,-673.6433 91.5,-673.6433 91.5,-656.6433 91.5,-656.6433"/>
<polygon fill="#000000" stroke="#000000" points="129.5,-656.6433 129.5,-673.6433 129.5,-673.6433 129.5,-656.6433 129.5,-656.6433"/>
</a>
</g>
</g>
<!-- Hospitalizations&#45;&gt;Facilities -->
<g id="edge3" class="edge">
<title>Hospitalizations:w&#45;&gt;Facilities:e</title>
<path fill="none" stroke="#000000" d="M259.9275,-499.287C222.5557,-532.842 223.0666,-704.6433 176.5,-704.6433"/>
<polygon fill="#000000" stroke="#000000" points="266.1132,-496.7149 274.8822,-496.9674 269.8066,-495.1791 273.5,-493.6433 273.5,-493.6433 273.5,-493.6433 269.8066,-495.1791 272.1178,-490.3192 266.1132,-496.7149 266.1132,-496.7149"/>
<ellipse fill="none" stroke="#000000" cx="263.1584" cy="-497.9436" rx="3.2" ry="3.2"/>
</g>
<!-- HospitalizationStatuses -->
<g id="node5" class="node">
<title>HospitalizationStatuses</title>
<g id="a_node5"><a xlink:href="../../tables/HospitalizationStatuses.html" xlink:title="HospitalizationStatuses" target="_top">
<polygon fill="#ffffff" stroke="transparent" points="8,-110.1433 8,-171.1433 221,-171.1433 221,-110.1433 8,-110.1433"/>
<polygon fill="#f5f5f5" stroke="transparent" points="8.5,-147.6433 8.5,-170.6433 221.5,-170.6433 221.5,-147.6433 8.5,-147.6433"/>
<polygon fill="none" stroke="#000000" points="8.5,-147.6433 8.5,-170.6433 221.5,-170.6433 221.5,-147.6433 8.5,-147.6433"/>
<text text-anchor="start" x="13.5" y="-156.2433" font-family="Helvetica,sans-Serif" font-weight="bold" font-size="11.00" fill="#000000">HospitalizationStatuses</text>
<text text-anchor="start" x="187.0219" y="-155.7433" font-family="Helvetica,sans-Serif" font-size="11.00" fill="#000000">[table]</text>
<polygon fill="none" stroke="#000000" points="8.5,-128.6433 8.5,-147.6433 221.5,-147.6433 221.5,-128.6433 8.5,-128.6433"/>
<text text-anchor="start" x="11.5" y="-134.7433" font-family="Helvetica,sans-Serif" font-size="11.00" fill="#000000">...</text>
<polygon fill="#ffffff" stroke="transparent" points="8.5,-109.6433 8.5,-128.6433 221.5,-128.6433 221.5,-109.6433 8.5,-109.6433"/>
<polygon fill="none" stroke="#000000" points="8.5,-109.6433 8.5,-128.6433 221.5,-128.6433 221.5,-109.6433 8.5,-109.6433"/>
<polygon fill="#ffffff" stroke="transparent" points="9.5,-110.6433 9.5,-127.6433 77.5,-127.6433 77.5,-110.6433 9.5,-110.6433"/>
<text text-anchor="start" x="11.5" y="-115.7433" font-family="Helvetica,sans-Serif" font-size="11.00" fill="#000000"> &#160;</text>
<polygon fill="#ffffff" stroke="transparent" points="77.5,-110.6433 77.5,-127.6433 144.5,-127.6433 144.5,-110.6433 77.5,-110.6433"/>
<text text-anchor="start" x="107.9431" y="-115.7433" font-family="Helvetica,sans-Serif" font-size="11.00" fill="#000000"> &#160;</text>
<polygon fill="#ffffff" stroke="transparent" points="144.5,-110.6433 144.5,-127.6433 220.5,-127.6433 220.5,-110.6433 144.5,-110.6433"/>
<text text-anchor="start" x="202.9053" y="-115.7433" font-family="Helvetica,sans-Serif" font-size="11.00" fill="#000000">3 &gt;</text>
<polygon fill="#000000" stroke="#000000" points="77.5,-110.6433 77.5,-127.6433 77.5,-127.6433 77.5,-110.6433 77.5,-110.6433"/>
<polygon fill="#000000" stroke="#000000" points="144.5,-110.6433 144.5,-127.6433 144.5,-127.6433 144.5,-110.6433 144.5,-110.6433"/>
</a>
</g>
</g>
<!-- Hospitalizations&#45;&gt;HospitalizationStatuses -->
<g id="edge4" class="edge">
<title>Hospitalizations:w&#45;&gt;HospitalizationStatuses:e</title>
<path fill="none" stroke="#000000" d="M259.0128,-404.6236C163.8533,-390.9721 129.718,-243.7517 118.9275,-175.2874"/>
<polygon fill="#000000" stroke="#000000" points="265.5197,-405.0815 273.2472,-409.2344 269.5099,-405.3624 273.5,-405.6433 273.5,-405.6433 273.5,-405.6433 269.5099,-405.3624 273.7528,-402.0522 265.5197,-405.0815 265.5197,-405.0815"/>
<ellipse fill="none" stroke="#000000" cx="262.3276" cy="-404.8568" rx="3.2" ry="3.2"/>
</g>
<!-- Patients -->
<g id="node6" class="node">
<title>Patients</title>
<g id="a_node6"><a xlink:href="../../tables/Patients.html" xlink:title="Patients" target="_top">
<polygon fill="#ffffff" stroke="transparent" points="65,-485.1433 65,-546.1433 164,-546.1433 164,-485.1433 65,-485.1433"/>
<polygon fill="#f5f5f5" stroke="transparent" points="65.5,-522.6433 65.5,-545.6433 164.5,-545.6433 164.5,-522.6433 65.5,-522.6433"/>
<polygon fill="none" stroke="#000000" points="65.5,-522.6433 65.5,-545.6433 164.5,-545.6433 164.5,-522.6433 65.5,-522.6433"/>
<text text-anchor="start" x="70.5" y="-531.2433" font-family="Helvetica,sans-Serif" font-weight="bold" font-size="11.00" fill="#000000">Patients</text>
<text text-anchor="start" x="130.0219" y="-530.7433" font-family="Helvetica,sans-Serif" font-size="11.00" fill="#000000">[table]</text>
<polygon fill="none" stroke="#000000" points="65.5,-503.6433 65.5,-522.6433 164.5,-522.6433 164.5,-503.6433 65.5,-503.6433"/>
<text text-anchor="start" x="68.5" y="-509.7433" font-family="Helvetica,sans-Serif" font-size="11.00" fill="#000000">...</text>
<polygon fill="#ffffff" stroke="transparent" points="65.5,-484.6433 65.5,-503.6433 164.5,-503.6433 164.5,-484.6433 65.5,-484.6433"/>
<polygon fill="none" stroke="#000000" points="65.5,-484.6433 65.5,-503.6433 164.5,-503.6433 164.5,-484.6433 65.5,-484.6433"/>
<polygon fill="#ffffff" stroke="transparent" points="66.5,-485.6433 66.5,-502.6433 96.5,-502.6433 96.5,-485.6433 66.5,-485.6433"/>
<text text-anchor="start" x="68.5" y="-490.7433" font-family="Helvetica,sans-Serif" font-size="11.00" fill="#000000"> &#160;</text>
<polygon fill="#ffffff" stroke="transparent" points="96.5,-485.6433 96.5,-502.6433 125.5,-502.6433 125.5,-485.6433 96.5,-485.6433"/>
<text text-anchor="start" x="107.9431" y="-490.7433" font-family="Helvetica,sans-Serif" font-size="11.00" fill="#000000"> &#160;</text>
<polygon fill="#ffffff" stroke="transparent" points="125.5,-485.6433 125.5,-502.6433 163.5,-502.6433 163.5,-485.6433 125.5,-485.6433"/>
<text text-anchor="start" x="145.9053" y="-490.7433" font-family="Helvetica,sans-Serif" font-size="11.00" fill="#000000">3 &gt;</text>
<polygon fill="#000000" stroke="#000000" points="96.5,-485.6433 96.5,-502.6433 96.5,-502.6433 96.5,-485.6433 96.5,-485.6433"/>
<polygon fill="#000000" stroke="#000000" points="125.5,-485.6433 125.5,-502.6433 125.5,-502.6433 125.5,-485.6433 125.5,-485.6433"/>
</a>
</g>
</g>
<!-- Hospitalizations&#45;&gt;Patients -->
<g id="edge5" class="edge">
<title>Hospitalizations:w&#45;&gt;Patients:e</title>
<path fill="none" stroke="#000000" d="M258.7425,-515.6433C229.2693,-515.6433 198.0825,-515.6433 172.2766,-515.6433"/>
<polygon fill="#000000" stroke="#000000" points="265.5,-515.6434 273.5,-519.2433 269.5,-515.6433 273.5,-515.6433 273.5,-515.6433 273.5,-515.6433 269.5,-515.6433 273.5,-512.0433 265.5,-515.6434 265.5,-515.6434"/>
<ellipse fill="none" stroke="#000000" cx="262.3" cy="-515.6434" rx="3.2" ry="3.2"/>
</g>
<!-- HospitalizationStatusHistories -->
<g id="node7" class="node">
<title>HospitalizationStatusHistories</title>
<g id="a_node7"><a xlink:href="../../tables/HospitalizationStatusHistories.html" xlink:title="HospitalizationStatusHistories" target="_top">
<polygon fill="#ffffff" stroke="transparent" points="600,-110.1433 600,-171.1433 862,-171.1433 862,-110.1433 600,-110.1433"/>
<polygon fill="#f5f5f5" stroke="transparent" points="600,-147.6433 600,-170.6433 862,-170.6433 862,-147.6433 600,-147.6433"/>
<polygon fill="none" stroke="#000000" points="600,-147.6433 600,-170.6433 862,-170.6433 862,-147.6433 600,-147.6433"/>
<text text-anchor="start" x="605" y="-156.2433" font-family="Helvetica,sans-Serif" font-weight="bold" font-size="11.00" fill="#000000">HospitalizationStatusHistories</text>
<text text-anchor="start" x="827.5219" y="-155.7433" font-family="Helvetica,sans-Serif" font-size="11.00" fill="#000000">[table]</text>
<polygon fill="none" stroke="#000000" points="600,-128.6433 600,-147.6433 862,-147.6433 862,-128.6433 600,-128.6433"/>
<text text-anchor="start" x="603" y="-134.7433" font-family="Helvetica,sans-Serif" font-size="11.00" fill="#000000">...</text>
<polygon fill="#ffffff" stroke="transparent" points="600,-109.6433 600,-128.6433 862,-128.6433 862,-109.6433 600,-109.6433"/>
<polygon fill="none" stroke="#000000" points="600,-109.6433 600,-128.6433 862,-128.6433 862,-109.6433 600,-109.6433"/>
<polygon fill="#ffffff" stroke="transparent" points="601,-110.6433 601,-127.6433 694,-127.6433 694,-110.6433 601,-110.6433"/>
<text text-anchor="start" x="603" y="-115.7433" font-family="Helvetica,sans-Serif" font-size="11.00" fill="#000000">&lt; 2</text>
<polygon fill="#ffffff" stroke="transparent" points="694,-110.6433 694,-127.6433 778,-127.6433 778,-110.6433 694,-110.6433"/>
<text text-anchor="start" x="732.9431" y="-115.7433" font-family="Helvetica,sans-Serif" font-size="11.00" fill="#000000"> &#160;</text>
<polygon fill="#ffffff" stroke="transparent" points="778,-110.6433 778,-127.6433 861,-127.6433 861,-110.6433 778,-110.6433"/>
<text text-anchor="start" x="852.8862" y="-115.7433" font-family="Helvetica,sans-Serif" font-size="11.00" fill="#000000"> &#160;</text>
<polygon fill="#000000" stroke="#000000" points="694,-110.6433 694,-127.6433 694,-127.6433 694,-110.6433 694,-110.6433"/>
<polygon fill="#000000" stroke="#000000" points="778,-110.6433 778,-127.6433 778,-127.6433 778,-110.6433 778,-110.6433"/>
</a>
</g>
</g>
<!-- HospitalizationStatusHistories&#45;&gt;Hospitalizations -->
<g id="edge6" class="edge">
<title>HospitalizationStatusHistories:w&#45;&gt;Hospitalizations:e</title>
<path fill="none" stroke="#000000" d="M630.7647,-183.0752C615.7798,-193.3731 602.0216,-205.8048 592,-220.6433 552.1864,-279.5931 618.6352,-537.6433 547.5,-537.6433"/>
<polygon fill="#000000" stroke="#000000" points="636.2536,-179.5724 644.9341,-178.3035 639.6255,-177.4206 642.9975,-175.2687 642.9975,-175.2687 642.9975,-175.2687 639.6255,-177.4206 641.0608,-172.234 636.2536,-179.5724 636.2536,-179.5724"/>
<ellipse fill="none" stroke="#000000" cx="633.5561" cy="-181.2938" rx="3.2" ry="3.2"/>
</g>
<!-- HospitalizationStatusHistories&#45;&gt;HospitalizationStatuses -->
<g id="edge7" class="edge">
<title>HospitalizationStatusHistories:w&#45;&gt;HospitalizationStatuses:e</title>
<path fill="none" stroke="#000000" d="M577.2253,-140.6433C469.3565,-140.6433 327.4524,-140.6433 229.3691,-140.6433"/>
<polygon fill="#000000" stroke="#000000" points="583.8767,-140.6434 591.8767,-144.2433 587.8767,-140.6433 591.8767,-140.6433 591.8767,-140.6433 591.8767,-140.6433 587.8767,-140.6433 591.8766,-137.0433 583.8767,-140.6434 583.8767,-140.6434"/>
<ellipse fill="none" stroke="#000000" cx="580.6767" cy="-140.6434" rx="3.2" ry="3.2"/>
</g>
<!-- PatientFacilities -->
<g id="node8" class="node">
<title>PatientFacilities</title>
<g id="a_node8"><a xlink:href="../../tables/PatientFacilities.html" xlink:title="PatientFacilities" target="_top">
<polygon fill="#ffffff" stroke="transparent" points="331.5,-677.1433 331.5,-738.1433 489.5,-738.1433 489.5,-677.1433 331.5,-677.1433"/>
<polygon fill="#f5f5f5" stroke="transparent" points="331.5,-714.6433 331.5,-737.6433 489.5,-737.6433 489.5,-714.6433 331.5,-714.6433"/>
<polygon fill="none" stroke="#000000" points="331.5,-714.6433 331.5,-737.6433 489.5,-737.6433 489.5,-714.6433 331.5,-714.6433"/>
<text text-anchor="start" x="336.5" y="-723.2433" font-family="Helvetica,sans-Serif" font-weight="bold" font-size="11.00" fill="#000000">PatientFacilities</text>
<text text-anchor="start" x="455.0219" y="-722.7433" font-family="Helvetica,sans-Serif" font-size="11.00" fill="#000000">[table]</text>
<polygon fill="none" stroke="#000000" points="331.5,-695.6433 331.5,-714.6433 489.5,-714.6433 489.5,-695.6433 331.5,-695.6433"/>
<text text-anchor="start" x="334.5" y="-701.7433" font-family="Helvetica,sans-Serif" font-size="11.00" fill="#000000">...</text>
<polygon fill="#ffffff" stroke="transparent" points="331.5,-676.6433 331.5,-695.6433 489.5,-695.6433 489.5,-676.6433 331.5,-676.6433"/>
<polygon fill="none" stroke="#000000" points="331.5,-676.6433 331.5,-695.6433 489.5,-695.6433 489.5,-676.6433 331.5,-676.6433"/>
<polygon fill="#ffffff" stroke="transparent" points="332.5,-677.6433 332.5,-694.6433 390.5,-694.6433 390.5,-677.6433 332.5,-677.6433"/>
<text text-anchor="start" x="334.5" y="-682.7433" font-family="Helvetica,sans-Serif" font-size="11.00" fill="#000000">&lt; 2</text>
<polygon fill="#ffffff" stroke="transparent" points="390.5,-677.6433 390.5,-694.6433 439.5,-694.6433 439.5,-677.6433 390.5,-677.6433"/>
<text text-anchor="start" x="411.9431" y="-682.7433" font-family="Helvetica,sans-Serif" font-size="11.00" fill="#000000"> &#160;</text>
<polygon fill="#ffffff" stroke="transparent" points="439.5,-677.6433 439.5,-694.6433 488.5,-694.6433 488.5,-677.6433 439.5,-677.6433"/>
<text text-anchor="start" x="480.3862" y="-682.7433" font-family="Helvetica,sans-Serif" font-size="11.00" fill="#000000"> &#160;</text>
<polygon fill="#000000" stroke="#000000" points="390.5,-677.6433 390.5,-694.6433 390.5,-694.6433 390.5,-677.6433 390.5,-677.6433"/>
<polygon fill="#000000" stroke="#000000" points="439.5,-677.6433 439.5,-694.6433 439.5,-694.6433 439.5,-677.6433 439.5,-677.6433"/>
</a>
</g>
</g>
<!-- PatientFacilities&#45;&gt;Facilities -->
<g id="edge8" class="edge">
<title>PatientFacilities:w&#45;&gt;Facilities:e</title>
<path fill="none" stroke="#000000" d="M316.973,-704.6433C259.7701,-704.6433 240.276,-704.6433 176.5,-704.6433"/>
<polygon fill="#000000" stroke="#000000" points="323.5,-704.6434 331.5,-708.2433 327.5,-704.6433 331.5,-704.6433 331.5,-704.6433 331.5,-704.6433 327.5,-704.6433 331.5,-701.0433 323.5,-704.6434 323.5,-704.6434"/>
<ellipse fill="none" stroke="#000000" cx="320.3" cy="-704.6434" rx="3.2" ry="3.2"/>
</g>
<!-- PatientFacilities&#45;&gt;Patients -->
<g id="edge9" class="edge">
<title>PatientFacilities:w&#45;&gt;Patients:e</title>
<path fill="none" stroke="#000000" d="M317.2687,-702.1321C267.9093,-686.3334 187.0701,-599.7563 143.8794,-550.3088"/>
<polygon fill="#000000" stroke="#000000" points="323.6217,-703.2531 330.8744,-708.1885 327.5609,-703.9482 331.5,-704.6433 331.5,-704.6433 331.5,-704.6433 327.5609,-703.9482 332.1256,-701.0981 323.6217,-703.2531 323.6217,-703.2531"/>
<ellipse fill="none" stroke="#000000" cx="320.4704" cy="-702.697" rx="3.2" ry="3.2"/>
</g>
<!-- VisitAttendants -->
<g id="node9" class="node">
<title>VisitAttendants</title>
<g id="a_node9"><a xlink:href="../../tables/VisitAttendants.html" xlink:title="VisitAttendants" target="_top">
<polygon fill="#ffffff" stroke="transparent" points="962,-439.1433 962,-500.1433 1115,-500.1433 1115,-439.1433 962,-439.1433"/>
<polygon fill="#f5f5f5" stroke="transparent" points="962.5,-476.6433 962.5,-499.6433 1115.5,-499.6433 1115.5,-476.6433 962.5,-476.6433"/>
<polygon fill="none" stroke="#000000" points="962.5,-476.6433 962.5,-499.6433 1115.5,-499.6433 1115.5,-476.6433 962.5,-476.6433"/>
<text text-anchor="start" x="967.5" y="-485.2433" font-family="Helvetica,sans-Serif" font-weight="bold" font-size="11.00" fill="#000000">VisitAttendants</text>
<text text-anchor="start" x="1081.0219" y="-484.7433" font-family="Helvetica,sans-Serif" font-size="11.00" fill="#000000">[table]</text>
<polygon fill="none" stroke="#000000" points="962.5,-457.6433 962.5,-476.6433 1115.5,-476.6433 1115.5,-457.6433 962.5,-457.6433"/>
<text text-anchor="start" x="965.5" y="-463.7433" font-family="Helvetica,sans-Serif" font-size="11.00" fill="#000000">...</text>
<polygon fill="#ffffff" stroke="transparent" points="962.5,-438.6433 962.5,-457.6433 1115.5,-457.6433 1115.5,-438.6433 962.5,-438.6433"/>
<polygon fill="none" stroke="#000000" points="962.5,-438.6433 962.5,-457.6433 1115.5,-457.6433 1115.5,-438.6433 962.5,-438.6433"/>
<polygon fill="#ffffff" stroke="transparent" points="963.5,-439.6433 963.5,-456.6433 1020.5,-456.6433 1020.5,-439.6433 963.5,-439.6433"/>
<text text-anchor="start" x="965.5" y="-444.7433" font-family="Helvetica,sans-Serif" font-size="11.00" fill="#000000">&lt; 2</text>
<polygon fill="#ffffff" stroke="transparent" points="1020.5,-439.6433 1020.5,-456.6433 1067.5,-456.6433 1067.5,-439.6433 1020.5,-439.6433"/>
<text text-anchor="start" x="1040.9431" y="-444.7433" font-family="Helvetica,sans-Serif" font-size="11.00" fill="#000000"> &#160;</text>
<polygon fill="#ffffff" stroke="transparent" points="1067.5,-439.6433 1067.5,-456.6433 1114.5,-456.6433 1114.5,-439.6433 1067.5,-439.6433"/>
<text text-anchor="start" x="1106.3862" y="-444.7433" font-family="Helvetica,sans-Serif" font-size="11.00" fill="#000000"> &#160;</text>
<polygon fill="#000000" stroke="#000000" points="1020.5,-439.6433 1020.5,-456.6433 1020.5,-456.6433 1020.5,-439.6433 1020.5,-439.6433"/>
<polygon fill="#000000" stroke="#000000" points="1067.5,-439.6433 1067.5,-456.6433 1067.5,-456.6433 1067.5,-439.6433 1067.5,-439.6433"/>
</a>
</g>
</g>
<!-- Providers -->
<g id="node10" class="node">
<title>Providers</title>
<g id="a_node10"><a xlink:href="../../tables/Providers.html" xlink:title="Providers" target="_top">
<polygon fill="#ffffff" stroke="transparent" points="676.5,-412.1433 676.5,-473.1433 785.5,-473.1433 785.5,-412.1433 676.5,-412.1433"/>
<polygon fill="#f5f5f5" stroke="transparent" points="677,-449.6433 677,-472.6433 786,-472.6433 786,-449.6433 677,-449.6433"/>
<polygon fill="none" stroke="#000000" points="677,-449.6433 677,-472.6433 786,-472.6433 786,-449.6433 677,-449.6433"/>
<text text-anchor="start" x="682" y="-458.2433" font-family="Helvetica,sans-Serif" font-weight="bold" font-size="11.00" fill="#000000">Providers</text>
<text text-anchor="start" x="751.5219" y="-457.7433" font-family="Helvetica,sans-Serif" font-size="11.00" fill="#000000">[table]</text>
<polygon fill="none" stroke="#000000" points="677,-430.6433 677,-449.6433 786,-449.6433 786,-430.6433 677,-430.6433"/>
<text text-anchor="start" x="680" y="-436.7433" font-family="Helvetica,sans-Serif" font-size="11.00" fill="#000000">...</text>
<polygon fill="#ffffff" stroke="transparent" points="677,-411.6433 677,-430.6433 786,-430.6433 786,-411.6433 677,-411.6433"/>
<polygon fill="none" stroke="#000000" points="677,-411.6433 677,-430.6433 786,-430.6433 786,-411.6433 677,-411.6433"/>
<polygon fill="#ffffff" stroke="transparent" points="678,-412.6433 678,-429.6433 717,-429.6433 717,-412.6433 678,-412.6433"/>
<text text-anchor="start" x="680" y="-417.7433" font-family="Helvetica,sans-Serif" font-size="11.00" fill="#000000">&lt; 1</text>
<polygon fill="#ffffff" stroke="transparent" points="717,-412.6433 717,-429.6433 747,-429.6433 747,-412.6433 717,-412.6433"/>
<text text-anchor="start" x="728.9431" y="-417.7433" font-family="Helvetica,sans-Serif" font-size="11.00" fill="#000000"> &#160;</text>
<polygon fill="#ffffff" stroke="transparent" points="747,-412.6433 747,-429.6433 785,-429.6433 785,-412.6433 747,-412.6433"/>
<text text-anchor="start" x="767.4053" y="-417.7433" font-family="Helvetica,sans-Serif" font-size="11.00" fill="#000000">3 &gt;</text>
<polygon fill="#000000" stroke="#000000" points="717,-412.6433 717,-429.6433 717,-429.6433 717,-412.6433 717,-412.6433"/>
<polygon fill="#000000" stroke="#000000" points="747,-412.6433 747,-429.6433 747,-429.6433 747,-412.6433 747,-412.6433"/>
</a>
</g>
</g>
<!-- VisitAttendants&#45;&gt;Providers -->
<g id="edge10" class="edge">
<title>VisitAttendants:w&#45;&gt;Providers:e</title>
<path fill="none" stroke="#000000" d="M947.8899,-466.3213C880.5945,-463.275 860.2422,-439.6433 786,-439.6433"/>
<polygon fill="#000000" stroke="#000000" points="954.5019,-466.467 962.4206,-470.2424 958.501,-466.5551 962.5,-466.6433 962.5,-466.6433 962.5,-466.6433 958.501,-466.5551 962.5794,-463.0442 954.5019,-466.467 954.5019,-466.467"/>
<ellipse fill="none" stroke="#000000" cx="951.3027" cy="-466.3964" rx="3.2" ry="3.2"/>
</g>
<!-- Visits -->
<g id="node11" class="node">
<title>Visits</title>
<g id="a_node11"><a xlink:href="../../tables/Visits.html" xlink:title="Visits" target="_top">
<polygon fill="#ffffff" stroke="transparent" points="691.5,-507.1433 691.5,-568.1433 770.5,-568.1433 770.5,-507.1433 691.5,-507.1433"/>
<polygon fill="#f5f5f5" stroke="transparent" points="692,-544.6433 692,-567.6433 771,-567.6433 771,-544.6433 692,-544.6433"/>
<polygon fill="none" stroke="#000000" points="692,-544.6433 692,-567.6433 771,-567.6433 771,-544.6433 692,-544.6433"/>
<text text-anchor="start" x="697" y="-553.2433" font-family="Helvetica,sans-Serif" font-weight="bold" font-size="11.00" fill="#000000">Visits</text>
<text text-anchor="start" x="736.5219" y="-552.7433" font-family="Helvetica,sans-Serif" font-size="11.00" fill="#000000">[table]</text>
<polygon fill="none" stroke="#000000" points="692,-525.6433 692,-544.6433 771,-544.6433 771,-525.6433 692,-525.6433"/>
<text text-anchor="start" x="695" y="-531.7433" font-family="Helvetica,sans-Serif" font-size="11.00" fill="#000000">...</text>
<polygon fill="#ffffff" stroke="transparent" points="692,-506.6433 692,-525.6433 771,-525.6433 771,-506.6433 692,-506.6433"/>
<polygon fill="none" stroke="#000000" points="692,-506.6433 692,-525.6433 771,-525.6433 771,-506.6433 692,-506.6433"/>
<polygon fill="#ffffff" stroke="transparent" points="693,-507.6433 693,-524.6433 722,-524.6433 722,-507.6433 693,-507.6433"/>
<text text-anchor="start" x="695" y="-512.7433" font-family="Helvetica,sans-Serif" font-size="11.00" fill="#000000">&lt; 2</text>
<polygon fill="#ffffff" stroke="transparent" points="722,-507.6433 722,-524.6433 742,-524.6433 742,-507.6433 722,-507.6433"/>
<text text-anchor="start" x="728.9431" y="-512.7433" font-family="Helvetica,sans-Serif" font-size="11.00" fill="#000000"> &#160;</text>
<polygon fill="#ffffff" stroke="transparent" points="742,-507.6433 742,-524.6433 770,-524.6433 770,-507.6433 742,-507.6433"/>
<text text-anchor="start" x="752.4053" y="-512.7433" font-family="Helvetica,sans-Serif" font-size="11.00" fill="#000000">3 &gt;</text>
<polygon fill="#000000" stroke="#000000" points="722,-507.6433 722,-524.6433 722,-524.6433 722,-507.6433 722,-507.6433"/>
<polygon fill="#000000" stroke="#000000" points="742,-507.6433 742,-524.6433 742,-524.6433 742,-507.6433 742,-507.6433"/>
</a>
</g>
</g>
<!-- VisitAttendants&#45;&gt;Visits -->
<g id="edge11" class="edge">
<title>VisitAttendants:w&#45;&gt;Visits:e</title>
<path fill="none" stroke="#000000" d="M948.01,-467.8405C905.9939,-473.803 828.8168,-500.7464 778.7294,-519.359"/>
<polygon fill="#000000" stroke="#000000" points="954.5272,-467.3021 962.7965,-470.2311 958.5136,-466.9727 962.5,-466.6433 962.5,-466.6433 962.5,-466.6433 958.5136,-466.9727 962.2035,-463.0555 954.5272,-467.3021 954.5272,-467.3021"/>
<ellipse fill="none" stroke="#000000" cx="951.338" cy="-467.5656" rx="3.2" ry="3.2"/>
</g>
<!-- Visits&#45;&gt;Hospitalizations -->
<g id="edge13" class="edge">
<title>Visits:w&#45;&gt;Hospitalizations:e</title>
<path fill="none" stroke="#000000" d="M668.8902,-537.6433C633.3468,-537.6433 587.9194,-537.6433 547.5,-537.6433"/>
<polygon fill="#000000" stroke="#000000" points="675.4745,-537.6434 683.4745,-541.2433 679.4745,-537.6433 683.4745,-537.6433 683.4745,-537.6433 683.4745,-537.6433 679.4745,-537.6433 683.4745,-534.0433 675.4745,-537.6434 675.4745,-537.6434"/>
<ellipse fill="none" stroke="#000000" cx="672.2745" cy="-537.6434" rx="3.2" ry="3.2"/>
</g>
<!-- ServiceTypes -->
<g id="node13" class="node">
<title>ServiceTypes</title>
<g id="a_node13"><a xlink:href="../../tables/ServiceTypes.html" xlink:title="ServiceTypes" target="_top">
<polygon fill="#ffffff" stroke="transparent" points="342.5,-595.1433 342.5,-656.1433 478.5,-656.1433 478.5,-595.1433 342.5,-595.1433"/>
<polygon fill="#f5f5f5" stroke="transparent" points="342.5,-632.6433 342.5,-655.6433 478.5,-655.6433 478.5,-632.6433 342.5,-632.6433"/>
<polygon fill="none" stroke="#000000" points="342.5,-632.6433 342.5,-655.6433 478.5,-655.6433 478.5,-632.6433 342.5,-632.6433"/>
<text text-anchor="start" x="347.5" y="-641.2433" font-family="Helvetica,sans-Serif" font-weight="bold" font-size="11.00" fill="#000000">ServiceTypes</text>
<text text-anchor="start" x="444.0219" y="-640.7433" font-family="Helvetica,sans-Serif" font-size="11.00" fill="#000000">[table]</text>
<polygon fill="none" stroke="#000000" points="342.5,-613.6433 342.5,-632.6433 478.5,-632.6433 478.5,-613.6433 342.5,-613.6433"/>
<text text-anchor="start" x="345.5" y="-619.7433" font-family="Helvetica,sans-Serif" font-size="11.00" fill="#000000">...</text>
<polygon fill="#ffffff" stroke="transparent" points="342.5,-594.6433 342.5,-613.6433 478.5,-613.6433 478.5,-594.6433 342.5,-594.6433"/>
<polygon fill="none" stroke="#000000" points="342.5,-594.6433 342.5,-613.6433 478.5,-613.6433 478.5,-594.6433 342.5,-594.6433"/>
<polygon fill="#ffffff" stroke="transparent" points="343.5,-595.6433 343.5,-612.6433 385.5,-612.6433 385.5,-595.6433 343.5,-595.6433"/>
<text text-anchor="start" x="345.5" y="-600.7433" font-family="Helvetica,sans-Serif" font-size="11.00" fill="#000000"> &#160;</text>
<polygon fill="#ffffff" stroke="transparent" points="385.5,-595.6433 385.5,-612.6433 427.5,-612.6433 427.5,-595.6433 385.5,-595.6433"/>
<text text-anchor="start" x="403.4431" y="-600.7433" font-family="Helvetica,sans-Serif" font-size="11.00" fill="#000000"> &#160;</text>
<polygon fill="#ffffff" stroke="transparent" points="427.5,-595.6433 427.5,-612.6433 477.5,-612.6433 477.5,-595.6433 427.5,-595.6433"/>
<text text-anchor="start" x="459.9053" y="-600.7433" font-family="Helvetica,sans-Serif" font-size="11.00" fill="#000000">1 &gt;</text>
<polygon fill="#000000" stroke="#000000" points="385.5,-595.6433 385.5,-612.6433 385.5,-612.6433 385.5,-595.6433 385.5,-595.6433"/>
<polygon fill="#000000" stroke="#000000" points="427.5,-595.6433 427.5,-612.6433 427.5,-612.6433 427.5,-595.6433 427.5,-595.6433"/>
</a>
</g>
</g>
<!-- Visits&#45;&gt;ServiceTypes -->
<g id="edge14" class="edge">
<title>Visits:w&#45;&gt;ServiceTypes:e</title>
<path fill="none" stroke="#000000" d="M670.1207,-570.517C620.1331,-594.4337 546.7147,-622.6433 478.5,-622.6433"/>
<polygon fill="#000000" stroke="#000000" points="676.0749,-567.5957 684.8427,-567.3039 679.6659,-565.8338 683.257,-564.0719 683.257,-564.0719 683.257,-564.0719 679.6659,-565.8338 681.6713,-560.8399 676.0749,-567.5957 676.0749,-567.5957"/>
<ellipse fill="none" stroke="#000000" cx="673.202" cy="-569.0052" rx="3.2" ry="3.2"/>
</g>
<!-- VisitEvents -->
<g id="node12" class="node">
<title>VisitEvents</title>
<g id="a_node12"><a xlink:href="../../tables/VisitEvents.html" xlink:title="VisitEvents" target="_top">
<polygon fill="#ffffff" stroke="transparent" points="978,-521.1433 978,-582.1433 1099,-582.1433 1099,-521.1433 978,-521.1433"/>
<polygon fill="#f5f5f5" stroke="transparent" points="978.5,-558.6433 978.5,-581.6433 1099.5,-581.6433 1099.5,-558.6433 978.5,-558.6433"/>
<polygon fill="none" stroke="#000000" points="978.5,-558.6433 978.5,-581.6433 1099.5,-581.6433 1099.5,-558.6433 978.5,-558.6433"/>
<text text-anchor="start" x="983.5" y="-567.2433" font-family="Helvetica,sans-Serif" font-weight="bold" font-size="11.00" fill="#000000">VisitEvents</text>
<text text-anchor="start" x="1065.0219" y="-566.7433" font-family="Helvetica,sans-Serif" font-size="11.00" fill="#000000">[table]</text>
<polygon fill="none" stroke="#000000" points="978.5,-539.6433 978.5,-558.6433 1099.5,-558.6433 1099.5,-539.6433 978.5,-539.6433"/>
<text text-anchor="start" x="981.5" y="-545.7433" font-family="Helvetica,sans-Serif" font-size="11.00" fill="#000000">...</text>
<polygon fill="#ffffff" stroke="transparent" points="978.5,-520.6433 978.5,-539.6433 1099.5,-539.6433 1099.5,-520.6433 978.5,-520.6433"/>
<polygon fill="none" stroke="#000000" points="978.5,-520.6433 978.5,-539.6433 1099.5,-539.6433 1099.5,-520.6433 978.5,-520.6433"/>
<polygon fill="#ffffff" stroke="transparent" points="979.5,-521.6433 979.5,-538.6433 1025.5,-538.6433 1025.5,-521.6433 979.5,-521.6433"/>
<text text-anchor="start" x="981.5" y="-526.7433" font-family="Helvetica,sans-Serif" font-size="11.00" fill="#000000">&lt; 2</text>
<polygon fill="#ffffff" stroke="transparent" points="1025.5,-521.6433 1025.5,-538.6433 1062.5,-538.6433 1062.5,-521.6433 1025.5,-521.6433"/>
<text text-anchor="start" x="1040.9431" y="-526.7433" font-family="Helvetica,sans-Serif" font-size="11.00" fill="#000000"> &#160;</text>
<polygon fill="#ffffff" stroke="transparent" points="1062.5,-521.6433 1062.5,-538.6433 1098.5,-538.6433 1098.5,-521.6433 1062.5,-521.6433"/>
<text text-anchor="start" x="1090.3862" y="-526.7433" font-family="Helvetica,sans-Serif" font-size="11.00" fill="#000000"> &#160;</text>
<polygon fill="#000000" stroke="#000000" points="1025.5,-521.6433 1025.5,-538.6433 1025.5,-538.6433 1025.5,-521.6433 1025.5,-521.6433"/>
<polygon fill="#000000" stroke="#000000" points="1062.5,-521.6433 1062.5,-538.6433 1062.5,-538.6433 1062.5,-521.6433 1062.5,-521.6433"/>
</a>
</g>
</g>
<!-- VisitEvents&#45;&gt;Visits -->
<g id="edge12" class="edge">
<title>VisitEvents:w&#45;&gt;Visits:e</title>
<path fill="none" stroke="#000000" d="M963.701,-548.5803C897.8925,-548.0333 825.2118,-544.0382 778.8816,-541.0334"/>
<polygon fill="#000000" stroke="#000000" points="970.5001,-548.6092 978.4846,-552.2433 974.5,-548.6262 978.5,-548.6433 978.5,-548.6433 978.5,-548.6433 974.5,-548.6262 978.5154,-545.0433 970.5001,-548.6092 970.5001,-548.6092"/>
<ellipse fill="none" stroke="#000000" cx="967.3001" cy="-548.5955" rx="3.2" ry="3.2"/>
</g>
<!-- Compensation.ProviderContracts -->
<g id="node14" class="node">
<title>Compensation.ProviderContracts</title>
<g id="a_node14"><a xlink:title="Compensation.ProviderContracts">
<polygon fill="#ffffff" stroke="transparent" points="270,-759.1433 270,-820.1433 551,-820.1433 551,-759.1433 270,-759.1433"/>
<polygon fill="#f5f5f5" stroke="transparent" points="270.5,-796.6433 270.5,-819.6433 551.5,-819.6433 551.5,-796.6433 270.5,-796.6433"/>
<polygon fill="none" stroke="#000000" points="270.5,-796.6433 270.5,-819.6433 551.5,-819.6433 551.5,-796.6433 270.5,-796.6433"/>
<text text-anchor="start" x="275.5" y="-805.2433" font-family="Helvetica,sans-Serif" font-weight="bold" font-size="11.00" fill="#000000">Compensation.ProviderContracts</text>
<text text-anchor="start" x="517.0219" y="-804.7433" font-family="Helvetica,sans-Serif" font-size="11.00" fill="#000000">[table]</text>
<polygon fill="none" stroke="#000000" points="270.5,-777.6433 270.5,-796.6433 551.5,-796.6433 551.5,-777.6433 270.5,-777.6433"/>
<text text-anchor="start" x="273.5" y="-783.7433" font-family="Helvetica,sans-Serif" font-size="11.00" fill="#000000">...</text>
<polygon fill="#ffffff" stroke="transparent" points="270.5,-758.6433 270.5,-777.6433 551.5,-777.6433 551.5,-758.6433 270.5,-758.6433"/>
<polygon fill="none" stroke="#000000" points="270.5,-758.6433 270.5,-777.6433 551.5,-777.6433 551.5,-758.6433 270.5,-758.6433"/>
<polygon fill="#ffffff" stroke="transparent" points="271.5,-759.6433 271.5,-776.6433 370.5,-776.6433 370.5,-759.6433 271.5,-759.6433"/>
<text text-anchor="start" x="273.5" y="-764.7433" font-family="Helvetica,sans-Serif" font-size="11.00" fill="#000000">&lt; 1</text>
<polygon fill="#ffffff" stroke="transparent" points="370.5,-759.6433 370.5,-776.6433 460.5,-776.6433 460.5,-759.6433 370.5,-759.6433"/>
<text text-anchor="start" x="412.4431" y="-764.7433" font-family="Helvetica,sans-Serif" font-size="11.00" fill="#000000"> &#160;</text>
<polygon fill="#ffffff" stroke="transparent" points="460.5,-759.6433 460.5,-776.6433 550.5,-776.6433 550.5,-759.6433 460.5,-759.6433"/>
<text text-anchor="start" x="542.3862" y="-764.7433" font-family="Helvetica,sans-Serif" font-size="11.00" fill="#000000"> &#160;</text>
<polygon fill="#000000" stroke="#000000" points="370.5,-759.6433 370.5,-776.6433 370.5,-776.6433 370.5,-759.6433 370.5,-759.6433"/>
<polygon fill="#000000" stroke="#000000" points="460.5,-759.6433 460.5,-776.6433 460.5,-776.6433 460.5,-759.6433 460.5,-759.6433"/>
</a>
</g>
</g>
<!-- Compensation.ProviderContracts&#45;&gt;Facilities -->
<g id="edge15" class="edge">
<title>Compensation.ProviderContracts:w&#45;&gt;Facilities:e</title>
<path fill="none" stroke="#000000" d="M256.1922,-784.45C217.6673,-771.4097 226.5258,-704.6433 176.5,-704.6433"/>
<polygon fill="#000000" stroke="#000000" points="262.5924,-785.4311 269.9545,-790.2017 266.5462,-786.0372 270.5,-786.6433 270.5,-786.6433 270.5,-786.6433 266.5462,-786.0372 271.0455,-783.0849 262.5924,-785.4311 262.5924,-785.4311"/>
<ellipse fill="none" stroke="#000000" cx="259.4293" cy="-784.9462" rx="3.2" ry="3.2"/>
</g>
<!-- staging.ProviderAssignments -->
<g id="node15" class="node">
<title>staging.ProviderAssignments</title>
<g id="a_node15"><a xlink:title="staging.ProviderAssignments">
<polygon fill="#ffffff" stroke="transparent" points="911,-357.1433 911,-418.1433 1166,-418.1433 1166,-357.1433 911,-357.1433"/>
<polygon fill="#f5f5f5" stroke="transparent" points="911.5,-394.6433 911.5,-417.6433 1166.5,-417.6433 1166.5,-394.6433 911.5,-394.6433"/>
<polygon fill="none" stroke="#000000" points="911.5,-394.6433 911.5,-417.6433 1166.5,-417.6433 1166.5,-394.6433 911.5,-394.6433"/>
<text text-anchor="start" x="916.5" y="-403.2433" font-family="Helvetica,sans-Serif" font-weight="bold" font-size="11.00" fill="#000000">staging.ProviderAssignments</text>
<text text-anchor="start" x="1132.0219" y="-402.7433" font-family="Helvetica,sans-Serif" font-size="11.00" fill="#000000">[table]</text>
<polygon fill="none" stroke="#000000" points="911.5,-375.6433 911.5,-394.6433 1166.5,-394.6433 1166.5,-375.6433 911.5,-375.6433"/>
<text text-anchor="start" x="914.5" y="-381.7433" font-family="Helvetica,sans-Serif" font-size="11.00" fill="#000000">...</text>
<polygon fill="#ffffff" stroke="transparent" points="911.5,-356.6433 911.5,-375.6433 1166.5,-375.6433 1166.5,-356.6433 911.5,-356.6433"/>
<polygon fill="none" stroke="#000000" points="911.5,-356.6433 911.5,-375.6433 1166.5,-375.6433 1166.5,-356.6433 911.5,-356.6433"/>
<polygon fill="#ffffff" stroke="transparent" points="912.5,-357.6433 912.5,-374.6433 1003.5,-374.6433 1003.5,-357.6433 912.5,-357.6433"/>
<text text-anchor="start" x="914.5" y="-362.7433" font-family="Helvetica,sans-Serif" font-size="11.00" fill="#000000">&lt; 6</text>
<polygon fill="#ffffff" stroke="transparent" points="1003.5,-357.6433 1003.5,-374.6433 1084.5,-374.6433 1084.5,-357.6433 1003.5,-357.6433"/>
<text text-anchor="start" x="1040.9431" y="-362.7433" font-family="Helvetica,sans-Serif" font-size="11.00" fill="#000000"> &#160;</text>
<polygon fill="#ffffff" stroke="transparent" points="1084.5,-357.6433 1084.5,-374.6433 1165.5,-374.6433 1165.5,-357.6433 1084.5,-357.6433"/>
<text text-anchor="start" x="1157.3862" y="-362.7433" font-family="Helvetica,sans-Serif" font-size="11.00" fill="#000000"> &#160;</text>
<polygon fill="#000000" stroke="#000000" points="1003.5,-357.6433 1003.5,-374.6433 1003.5,-374.6433 1003.5,-357.6433 1003.5,-357.6433"/>
<polygon fill="#000000" stroke="#000000" points="1084.5,-357.6433 1084.5,-374.6433 1084.5,-374.6433 1084.5,-357.6433 1084.5,-357.6433"/>
</a>
</g>
</g>
<!-- staging.ProviderAssignments&#45;&gt;Hospitalizations -->
<g id="edge16" class="edge">
<title>staging.ProviderAssignments:w&#45;&gt;Hospitalizations:e</title>
<path fill="none" stroke="#000000" d="M888.439,-374.4513C777.2615,-367.9208 637.4894,-367.5649 592,-401.6433 541.101,-439.7744 611.0979,-537.6433 547.5,-537.6433"/>
<polygon fill="#000000" stroke="#000000" points="894.8987,-374.8502 902.6615,-378.9364 898.8911,-375.0967 902.8835,-375.3433 902.8835,-375.3433 902.8835,-375.3433 898.8911,-375.0967 903.1054,-371.7501 894.8987,-374.8502 894.8987,-374.8502"/>
<ellipse fill="none" stroke="#000000" cx="891.7047" cy="-374.6529" rx="3.2" ry="3.2"/>
</g>
<!-- staging.ProviderAssignments&#45;&gt;HospitalizationStatuses -->
<g id="edge17" class="edge">
<title>staging.ProviderAssignments:w&#45;&gt;HospitalizationStatuses:e</title>
<path fill="none" stroke="#000000" d="M1026.3095,-339.0109C1006.4262,-271.3134 959.887,-151.1944 870,-99.6433 657.7741,22.0704 354.4574,-55.0207 204.9281,-106.0647"/>
<polygon fill="#000000" stroke="#000000" points="1028.0896,-345.3191 1026.7977,-353.9961 1029.176,-349.1687 1030.2623,-353.0184 1030.2623,-353.0184 1030.2623,-353.0184 1029.176,-349.1687 1033.727,-352.0406 1028.0896,-345.3191 1028.0896,-345.3191"/>
<ellipse fill="none" stroke="#000000" cx="1027.2205" cy="-342.2393" rx="3.2" ry="3.2"/>
</g>
<!-- staging.ProviderAssignments&#45;&gt;Patients -->
<g id="edge19" class="edge">
<title>staging.ProviderAssignments:w&#45;&gt;Patients:e</title>
<path fill="none" stroke="#000000" d="M1006.4597,-341.3226C976.2652,-301.7912 927.1961,-247.2465 870,-220.6433 808.6812,-192.1225 318.8912,-156.0806 262,-192.6433 160.6135,-257.8021 128.0578,-411.8129 118.3327,-480.9679"/>
<polygon fill="#000000" stroke="#000000" points="1010.4305,-346.648 1012.3265,-355.2134 1012.8215,-349.8547 1015.2126,-353.0614 1015.2126,-353.0614 1015.2126,-353.0614 1012.8215,-349.8547 1018.0986,-350.9095 1010.4305,-346.648 1010.4305,-346.648"/>
<ellipse fill="none" stroke="#000000" cx="1008.5177" cy="-344.0826" rx="3.2" ry="3.2"/>
</g>
<!-- staging.ProviderAssignments&#45;&gt;Providers -->
<g id="edge18" class="edge">
<title>staging.ProviderAssignments:w&#45;&gt;Providers:e</title>
<path fill="none" stroke="#000000" d="M888.7006,-425.1316C855.1685,-432.1747 819.5815,-437.8848 786,-439.6433"/>
<polygon fill="#000000" stroke="#000000" points="895.1163,-423.7377 903.6983,-425.557 899.0251,-422.8884 902.9339,-422.0391 902.9339,-422.0391 902.9339,-422.0391 899.0251,-422.8884 902.1696,-418.5212 895.1163,-423.7377 895.1163,-423.7377"/>
<ellipse fill="none" stroke="#000000" cx="891.9893" cy="-424.4171" rx="3.2" ry="3.2"/>
</g>
<!-- staging.ProviderAssignments&#45;&gt;Providers -->
<g id="edge20" class="edge">
<title>staging.ProviderAssignments:w&#45;&gt;Providers:e</title>
<path fill="none" stroke="#000000" d="M928.07,-425.5593C884.2519,-435.4135 833.1493,-442.5238 786,-439.6433"/>
<polygon fill="#000000" stroke="#000000" points="934.5434,-424.0334 943.156,-425.7018 938.4367,-423.1156 942.33,-422.1978 942.33,-422.1978 942.33,-422.1978 938.4367,-423.1156 941.504,-418.6939 934.5434,-424.0334 934.5434,-424.0334"/>
<ellipse fill="none" stroke="#000000" cx="931.4287" cy="-424.7676" rx="3.2" ry="3.2"/>
</g>
<!-- staging.ProviderAssignments&#45;&gt;Visits -->
<g id="edge21" class="edge">
<title>staging.ProviderAssignments:w&#45;&gt;Visits:e</title>
<path fill="none" stroke="#000000" d="M901.0895,-432.0418C883.0345,-451.5262 888.7299,-467.8526 870,-483.6433 843.7738,-505.7539 807.4595,-519.4425 778.5256,-527.504"/>
<polygon fill="#000000" stroke="#000000" points="906.1109,-427.5472 914.4728,-424.894 909.0914,-424.8794 912.0718,-422.2116 912.0718,-422.2116 912.0718,-422.2116 909.0914,-424.8794 909.6708,-419.5292 906.1109,-427.5472 906.1109,-427.5472"/>
<ellipse fill="none" stroke="#000000" cx="903.7266" cy="-429.6814" rx="3.2" ry="3.2"/>
</g>
</g>
</svg>
