<?xml version="1.0" encoding="UTF-8" standalone="no"?>
<!DOCTYPE svg PUBLIC "-//W3C//DTD SVG 1.1//EN"
 "http://www.w3.org/Graphics/SVG/1.1/DTD/svg11.dtd">
<!-- Generated by graphviz version 2.40.1 (20161225.0304)
 -->
<!-- Title: twoDegreesRelationshipsDiagram Pages: 1 -->
<svg width="540pt" height="355pt"
 viewBox="0.00 0.00 540.00 354.70" xmlns="http://www.w3.org/2000/svg" xmlns:xlink="http://www.w3.org/1999/xlink">
<g id="graph0" class="graph" transform="scale(1 1) rotate(0) translate(4 350.7)">
<title>twoDegreesRelationshipsDiagram</title>
<polygon fill="#ffffff" stroke="transparent" points="-4,4 -4,-350.7 536,-350.7 536,4 -4,4"/>
<text text-anchor="middle" x="72.4936" y="-7.3" font-family="Helvetica,sans-Serif" font-size="11.00" fill="#000000">Generated by SchemaSpy</text>
<!-- HospitalizationInsurances -->
<g id="node1" class="node">
<title>HospitalizationInsurances</title>
<g id="a_node1"><a xlink:href="../../tables/HospitalizationInsurances.html" xlink:title="HospitalizationInsurances" target="_top">
<polygon fill="#ffffff" stroke="transparent" points="295,-206.7 295,-333.7 524,-333.7 524,-206.7 295,-206.7"/>
<polygon fill="#f5f5f5" stroke="transparent" points="295.5,-310.2 295.5,-333.2 524.5,-333.2 524.5,-310.2 295.5,-310.2"/>
<polygon fill="none" stroke="#000000" points="295.5,-310.2 295.5,-333.2 524.5,-333.2 524.5,-310.2 295.5,-310.2"/>
<text text-anchor="start" x="300.5" y="-318.8" font-family="Helvetica,sans-Serif" font-weight="bold" font-size="11.00" fill="#000000">HospitalizationInsurances</text>
<text text-anchor="start" x="490.0219" y="-318.3" font-family="Helvetica,sans-Serif" font-size="11.00" fill="#000000">[table]</text>
<polygon fill="none" stroke="#000000" points="295.5,-288.2 295.5,-310.2 524.5,-310.2 524.5,-288.2 295.5,-288.2"/>
<image xlink:href="../../images/primaryKeys.png" width="11px" height="12px" preserveAspectRatio="xMinYMin meet" x="300.5" y="-305.2"/>
<text text-anchor="start" x="324.5" y="-295.3" font-family="Helvetica,sans-Serif" font-size="11.00" fill="#000000">Id</text>
<polygon fill="#ffffff" stroke="transparent" points="295.5,-266.2 295.5,-288.2 524.5,-288.2 524.5,-266.2 295.5,-266.2"/>
<polygon fill="none" stroke="#000000" points="295.5,-266.2 295.5,-288.2 524.5,-288.2 524.5,-266.2 295.5,-266.2"/>
<image xlink:href="../../images/foreignKeys.png" width="11px" height="12px" preserveAspectRatio="xMinYMin meet" x="300.5" y="-283.2"/>
<text text-anchor="start" x="324.5" y="-273.3" font-family="Helvetica,sans-Serif" font-size="11.00" fill="#000000">HospitalizationId</text>
<polygon fill="#ffffff" stroke="transparent" points="295.5,-244.2 295.5,-266.2 524.5,-266.2 524.5,-244.2 295.5,-244.2"/>
<polygon fill="none" stroke="#000000" points="295.5,-244.2 295.5,-266.2 524.5,-266.2 524.5,-244.2 295.5,-244.2"/>
<image xlink:href="../../images/foreignKeys.png" width="11px" height="12px" preserveAspectRatio="xMinYMin meet" x="300.5" y="-261.2"/>
<text text-anchor="start" x="324.5" y="-251.3" font-family="Helvetica,sans-Serif" font-size="11.00" fill="#000000">InsuranceId</text>
<polygon fill="none" stroke="#000000" points="295.5,-225.2 295.5,-244.2 524.5,-244.2 524.5,-225.2 295.5,-225.2"/>
<text text-anchor="start" x="298.5" y="-231.3" font-family="Helvetica,sans-Serif" font-size="11.00" fill="#000000">...</text>
<polygon fill="#ffffff" stroke="transparent" points="295.5,-206.2 295.5,-225.2 524.5,-225.2 524.5,-206.2 295.5,-206.2"/>
<polygon fill="none" stroke="#000000" points="295.5,-206.2 295.5,-225.2 524.5,-225.2 524.5,-206.2 295.5,-206.2"/>
<polygon fill="#ffffff" stroke="transparent" points="296.5,-207.2 296.5,-224.2 378.5,-224.2 378.5,-207.2 296.5,-207.2"/>
<text text-anchor="start" x="298.5" y="-212.3" font-family="Helvetica,sans-Serif" font-size="11.00" fill="#000000">&lt; 2</text>
<polygon fill="#ffffff" stroke="transparent" points="378.5,-207.2 378.5,-224.2 451.5,-224.2 451.5,-207.2 378.5,-207.2"/>
<text text-anchor="start" x="411.9431" y="-212.3" font-family="Helvetica,sans-Serif" font-size="11.00" fill="#000000"> &#160;</text>
<polygon fill="#ffffff" stroke="transparent" points="451.5,-207.2 451.5,-224.2 523.5,-224.2 523.5,-207.2 451.5,-207.2"/>
<text text-anchor="start" x="515.3862" y="-212.3" font-family="Helvetica,sans-Serif" font-size="11.00" fill="#000000"> &#160;</text>
<polygon fill="#000000" stroke="#000000" points="378.5,-207.2 378.5,-224.2 378.5,-224.2 378.5,-207.2 378.5,-207.2"/>
<polygon fill="#000000" stroke="#000000" points="451.5,-207.2 451.5,-224.2 451.5,-224.2 451.5,-207.2 451.5,-207.2"/>
</a>
</g>
</g>
<!-- Hospitalizations -->
<g id="node2" class="node">
<title>Hospitalizations</title>
<g id="a_node2"><a xlink:href="../../tables/Hospitalizations.html" xlink:title="Hospitalizations" target="_top">
<polygon fill="#ffffff" stroke="transparent" points="48.5,-281.7 48.5,-342.7 205.5,-342.7 205.5,-281.7 48.5,-281.7"/>
<polygon fill="#f5f5f5" stroke="transparent" points="49,-319.2 49,-342.2 206,-342.2 206,-319.2 49,-319.2"/>
<polygon fill="none" stroke="#000000" points="49,-319.2 49,-342.2 206,-342.2 206,-319.2 49,-319.2"/>
<text text-anchor="start" x="54" y="-327.8" font-family="Helvetica,sans-Serif" font-weight="bold" font-size="11.00" fill="#000000">Hospitalizations</text>
<text text-anchor="start" x="171.5219" y="-327.3" font-family="Helvetica,sans-Serif" font-size="11.00" fill="#000000">[table]</text>
<polygon fill="none" stroke="#000000" points="49,-300.2 49,-319.2 206,-319.2 206,-300.2 49,-300.2"/>
<text text-anchor="start" x="52" y="-306.3" font-family="Helvetica,sans-Serif" font-size="11.00" fill="#000000">...</text>
<polygon fill="#ffffff" stroke="transparent" points="49,-281.2 49,-300.2 206,-300.2 206,-281.2 49,-281.2"/>
<polygon fill="none" stroke="#000000" points="49,-281.2 49,-300.2 206,-300.2 206,-281.2 49,-281.2"/>
<polygon fill="#ffffff" stroke="transparent" points="50,-282.2 50,-299.2 105,-299.2 105,-282.2 50,-282.2"/>
<text text-anchor="start" x="52" y="-287.3" font-family="Helvetica,sans-Serif" font-size="11.00" fill="#000000">&lt; 3</text>
<polygon fill="#ffffff" stroke="transparent" points="105,-282.2 105,-299.2 151,-299.2 151,-282.2 105,-282.2"/>
<text text-anchor="start" x="124.9431" y="-287.3" font-family="Helvetica,sans-Serif" font-size="11.00" fill="#000000"> &#160;</text>
<polygon fill="#ffffff" stroke="transparent" points="151,-282.2 151,-299.2 205,-299.2 205,-282.2 151,-282.2"/>
<text text-anchor="start" x="187.4053" y="-287.3" font-family="Helvetica,sans-Serif" font-size="11.00" fill="#000000">4 &gt;</text>
<polygon fill="#000000" stroke="#000000" points="105,-282.2 105,-299.2 105,-299.2 105,-282.2 105,-282.2"/>
<polygon fill="#000000" stroke="#000000" points="151,-282.2 151,-299.2 151,-299.2 151,-282.2 151,-282.2"/>
</a>
</g>
</g>
<!-- HospitalizationInsurances&#45;&gt;Hospitalizations -->
<g id="edge1" class="edge">
<title>HospitalizationInsurances:w&#45;&gt;Hospitalizations:e</title>
<path fill="none" stroke="#000000" d="M280.86,-278.6581C251.3452,-284.9183 242.7984,-309.2 206,-309.2"/>
<polygon fill="#000000" stroke="#000000" points="287.5394,-277.9929 295.8568,-280.7823 291.5197,-277.5965 295.5,-277.2 295.5,-277.2 295.5,-277.2 291.5197,-277.5965 295.1432,-273.6177 287.5394,-277.9929 287.5394,-277.9929"/>
<ellipse fill="none" stroke="#000000" cx="284.3551" cy="-278.3101" rx="3.2" ry="3.2"/>
</g>
<!-- Insurances -->
<g id="node3" class="node">
<title>Insurances</title>
<g id="a_node3"><a xlink:href="../../tables/Insurances.html" xlink:title="Insurances" target="_top">
<polygon fill="#ffffff" stroke="transparent" points="8,-38.2 8,-260.2 246,-260.2 246,-38.2 8,-38.2"/>
<polygon fill="#f5f5f5" stroke="transparent" points="10,-235.2 10,-258.2 244,-258.2 244,-235.2 10,-235.2"/>
<polygon fill="none" stroke="#000000" points="10,-235.2 10,-258.2 244,-258.2 244,-235.2 10,-235.2"/>
<text text-anchor="start" x="15" y="-243.8" font-family="Helvetica,sans-Serif" font-weight="bold" font-size="11.00" fill="#000000">Insurances</text>
<text text-anchor="start" x="209.0437" y="-243.3" font-family="Helvetica,sans-Serif" font-size="11.00" fill="#000000">[table]</text>
<polygon fill="none" stroke="#000000" points="10,-213.2 10,-235.2 163,-235.2 163,-213.2 10,-213.2"/>
<image xlink:href="../../images/primaryKeys.png" width="11px" height="12px" preserveAspectRatio="xMinYMin meet" x="15" y="-230.2"/>
<text text-anchor="start" x="30" y="-220.3" font-family="Helvetica,sans-Serif" font-size="11.00" fill="#000000">Id</text>
<polygon fill="none" stroke="#000000" points="163,-213.2 163,-235.2 244,-235.2 244,-213.2 163,-213.2"/>
<text text-anchor="start" x="166" y="-220.9" font-family="Helvetica,sans-Serif" font-size="11.00" fill="#000000">int identity[4]</text>
<polygon fill="none" stroke="#000000" points="10,-191.2 10,-213.2 163,-213.2 163,-191.2 10,-191.2"/>
<text text-anchor="start" x="30" y="-198.3" font-family="Helvetica,sans-Serif" font-size="11.00" fill="#000000">Code</text>
<polygon fill="none" stroke="#000000" points="163,-191.2 163,-213.2 244,-213.2 244,-191.2 163,-191.2"/>
<text text-anchor="start" x="166" y="-198.9" font-family="Helvetica,sans-Serif" font-size="11.00" fill="#000000">nvarchar[20]</text>
<polygon fill="none" stroke="#000000" points="10,-169.2 10,-191.2 163,-191.2 163,-169.2 10,-169.2"/>
<text text-anchor="start" x="30" y="-176.3" font-family="Helvetica,sans-Serif" font-size="11.00" fill="#000000">Description</text>
<polygon fill="none" stroke="#000000" points="163,-169.2 163,-191.2 244,-191.2 244,-169.2 163,-169.2"/>
<text text-anchor="start" x="166" y="-176.9" font-family="Helvetica,sans-Serif" font-size="11.00" fill="#000000">nvarchar[200]</text>
<polygon fill="none" stroke="#000000" points="10,-147.2 10,-169.2 163,-169.2 163,-147.2 10,-147.2"/>
<text text-anchor="start" x="30" y="-154.3" font-family="Helvetica,sans-Serif" font-size="11.00" fill="#000000">PhysicianIncluded</text>
<polygon fill="none" stroke="#000000" points="163,-147.2 163,-169.2 244,-169.2 244,-147.2 163,-147.2"/>
<text text-anchor="start" x="166" y="-154.9" font-family="Helvetica,sans-Serif" font-size="11.00" fill="#000000">bit[1]</text>
<polygon fill="none" stroke="#000000" points="10,-125.2 10,-147.2 163,-147.2 163,-125.2 10,-125.2"/>
<text text-anchor="start" x="30" y="-132.3" font-family="Helvetica,sans-Serif" font-size="11.00" fill="#000000">IsContracted</text>
<polygon fill="none" stroke="#000000" points="163,-125.2 163,-147.2 244,-147.2 244,-125.2 163,-125.2"/>
<text text-anchor="start" x="166" y="-132.9" font-family="Helvetica,sans-Serif" font-size="11.00" fill="#000000">bit[1]</text>
<polygon fill="none" stroke="#000000" points="10,-103.2 10,-125.2 163,-125.2 163,-103.2 10,-103.2"/>
<text text-anchor="start" x="30" y="-110.3" font-family="Helvetica,sans-Serif" font-size="11.00" fill="#000000">CreatedAtUtc</text>
<polygon fill="none" stroke="#000000" points="163,-103.2 163,-125.2 244,-125.2 244,-103.2 163,-103.2"/>
<text text-anchor="start" x="165.5967" y="-110.9" font-family="Helvetica,sans-Serif" font-size="11.00" fill="#000000">datetime2[16,7]</text>
<polygon fill="none" stroke="#000000" points="10,-81.2 10,-103.2 163,-103.2 163,-81.2 10,-81.2"/>
<text text-anchor="start" x="30" y="-88.3" font-family="Helvetica,sans-Serif" font-size="11.00" fill="#000000">UpdatedAtUtc</text>
<polygon fill="none" stroke="#000000" points="163,-81.2 163,-103.2 244,-103.2 244,-81.2 163,-81.2"/>
<text text-anchor="start" x="165.5967" y="-88.9" font-family="Helvetica,sans-Serif" font-size="11.00" fill="#000000">datetime2[16,7]</text>
<polygon fill="none" stroke="#000000" points="10,-59.2 10,-81.2 163,-81.2 163,-59.2 10,-59.2"/>
<text text-anchor="start" x="30" y="-66.3" font-family="Helvetica,sans-Serif" font-size="11.00" fill="#000000">RowVersion</text>
<polygon fill="none" stroke="#000000" points="163,-59.2 163,-81.2 244,-81.2 244,-59.2 163,-59.2"/>
<text text-anchor="start" x="166" y="-66.9" font-family="Helvetica,sans-Serif" font-size="11.00" fill="#000000">timestamp[8]</text>
<polygon fill="#ffffff" stroke="transparent" points="10,-40.2 10,-59.2 244,-59.2 244,-40.2 10,-40.2"/>
<polygon fill="none" stroke="#000000" points="10,-40.2 10,-59.2 244,-59.2 244,-40.2 10,-40.2"/>
<polygon fill="#ffffff" stroke="transparent" points="11,-41.2 11,-58.2 92,-58.2 92,-41.2 11,-41.2"/>
<text text-anchor="start" x="13" y="-46.3" font-family="Helvetica,sans-Serif" font-size="11.00" fill="#000000">&lt; 0</text>
<polygon fill="#ffffff" stroke="transparent" points="92,-41.2 92,-58.2 163,-58.2 163,-41.2 92,-41.2"/>
<text text-anchor="start" x="124.4431" y="-46.3" font-family="Helvetica,sans-Serif" font-size="11.00" fill="#000000"> &#160;</text>
<polygon fill="#ffffff" stroke="transparent" points="163,-41.2 163,-58.2 243,-58.2 243,-41.2 163,-41.2"/>
<text text-anchor="start" x="225.4053" y="-46.3" font-family="Helvetica,sans-Serif" font-size="11.00" fill="#000000">1 &gt;</text>
<polygon fill="#000000" stroke="#000000" points="92,-41.2 92,-58.2 92,-58.2 92,-41.2 92,-41.2"/>
<polygon fill="#000000" stroke="#000000" points="163,-41.2 163,-58.2 163,-58.2 163,-41.2 163,-41.2"/>
<polygon fill="none" stroke="#000000" stroke-width="2" points="9,-39.2 9,-259.2 245,-259.2 245,-39.2 9,-39.2"/>
</a>
</g>
</g>
<!-- HospitalizationInsurances&#45;&gt;Insurances -->
<g id="edge2" class="edge">
<title>HospitalizationInsurances:w&#45;&gt;Insurances:e</title>
<path fill="none" stroke="#000000" d="M281.4805,-251.3988C268.2585,-243.1209 264.8716,-224.2 244,-224.2"/>
<polygon fill="#000000" stroke="#000000" points="287.7788,-253.1064 294.5579,-258.6745 291.6394,-254.1532 295.5,-255.2 295.5,-255.2 295.5,-255.2 291.6394,-254.1532 296.4421,-251.7255 287.7788,-253.1064 287.7788,-253.1064"/>
<ellipse fill="none" stroke="#000000" cx="284.6903" cy="-252.269" rx="3.2" ry="3.2"/>
</g>
</g>
</svg>
