<?xml version="1.0" encoding="UTF-8" standalone="no"?>
<!DOCTYPE svg PUBLIC "-//W3C//DTD SVG 1.1//EN"
 "http://www.w3.org/Graphics/SVG/1.1/DTD/svg11.dtd">
<!-- Generated by graphviz version 2.40.1 (20161225.0304)
 -->
<!-- Title: oneDegreeRelationshipsDiagram Pages: 1 -->
<svg width="422pt" height="268pt"
 viewBox="0.00 0.00 422.00 267.70" xmlns="http://www.w3.org/2000/svg" xmlns:xlink="http://www.w3.org/1999/xlink">
<g id="graph0" class="graph" transform="scale(1 1) rotate(0) translate(4 263.7)">
<title>oneDegreeRelationshipsDiagram</title>
<polygon fill="#ffffff" stroke="transparent" points="-4,4 -4,-263.7 418,-263.7 418,4 -4,4"/>
<text text-anchor="middle" x="72.4936" y="-7.3" font-family="Helvetica,sans-Serif" font-size="11.00" fill="#000000">Generated by SchemaSpy</text>
<!-- PatientFacilities -->
<g id="node1" class="node">
<title>PatientFacilities</title>
<g id="a_node1"><a xlink:href="../../tables/PatientFacilities.html" xlink:title="PatientFacilities" target="_top">
<polygon fill="#ffffff" stroke="transparent" points="181,-38.2 181,-238.2 406,-238.2 406,-38.2 181,-38.2"/>
<polygon fill="#f5f5f5" stroke="transparent" points="183.5,-213.2 183.5,-236.2 404.5,-236.2 404.5,-213.2 183.5,-213.2"/>
<polygon fill="none" stroke="#000000" points="183.5,-213.2 183.5,-236.2 404.5,-236.2 404.5,-213.2 183.5,-213.2"/>
<text text-anchor="start" x="188.5" y="-221.8" font-family="Helvetica,sans-Serif" font-weight="bold" font-size="11.00" fill="#000000">PatientFacilities</text>
<text text-anchor="start" x="369.5437" y="-221.3" font-family="Helvetica,sans-Serif" font-size="11.00" fill="#000000">[table]</text>
<polygon fill="none" stroke="#000000" points="183.5,-191.2 183.5,-213.2 323.5,-213.2 323.5,-191.2 183.5,-191.2"/>
<image xlink:href="../../images/primaryKeys.png" width="11px" height="12px" preserveAspectRatio="xMinYMin meet" x="188.5" y="-208.2"/>
<text text-anchor="start" x="203.5" y="-198.3" font-family="Helvetica,sans-Serif" font-size="11.00" fill="#000000">Id</text>
<polygon fill="none" stroke="#000000" points="323.5,-191.2 323.5,-213.2 404.5,-213.2 404.5,-191.2 323.5,-191.2"/>
<text text-anchor="start" x="326.5" y="-198.9" font-family="Helvetica,sans-Serif" font-size="11.00" fill="#000000">int identity[4]</text>
<polygon fill="#ffffff" stroke="transparent" points="183.5,-169.2 183.5,-191.2 323.5,-191.2 323.5,-169.2 183.5,-169.2"/>
<polygon fill="none" stroke="#000000" points="183.5,-169.2 183.5,-191.2 323.5,-191.2 323.5,-169.2 183.5,-169.2"/>
<image xlink:href="../../images/foreignKeys.png" width="11px" height="12px" preserveAspectRatio="xMinYMin meet" x="188.5" y="-186.2"/>
<text text-anchor="start" x="203.5" y="-176.3" font-family="Helvetica,sans-Serif" font-size="11.00" fill="#000000">PatientId</text>
<polygon fill="none" stroke="#000000" points="323.5,-169.2 323.5,-191.2 404.5,-191.2 404.5,-169.2 323.5,-169.2"/>
<text text-anchor="start" x="326.5" y="-176.9" font-family="Helvetica,sans-Serif" font-size="11.00" fill="#000000">int[4]</text>
<polygon fill="#ffffff" stroke="transparent" points="183.5,-147.2 183.5,-169.2 323.5,-169.2 323.5,-147.2 183.5,-147.2"/>
<polygon fill="none" stroke="#000000" points="183.5,-147.2 183.5,-169.2 323.5,-169.2 323.5,-147.2 183.5,-147.2"/>
<image xlink:href="../../images/foreignKeys.png" width="11px" height="12px" preserveAspectRatio="xMinYMin meet" x="188.5" y="-164.2"/>
<text text-anchor="start" x="203.5" y="-154.3" font-family="Helvetica,sans-Serif" font-size="11.00" fill="#000000">FacilityId</text>
<polygon fill="none" stroke="#000000" points="323.5,-147.2 323.5,-169.2 404.5,-169.2 404.5,-147.2 323.5,-147.2"/>
<text text-anchor="start" x="326.5" y="-154.9" font-family="Helvetica,sans-Serif" font-size="11.00" fill="#000000">int[4]</text>
<polygon fill="#ffffff" stroke="transparent" points="183.5,-125.2 183.5,-147.2 323.5,-147.2 323.5,-125.2 183.5,-125.2"/>
<polygon fill="none" stroke="#000000" points="183.5,-125.2 183.5,-147.2 323.5,-147.2 323.5,-125.2 183.5,-125.2"/>
<text text-anchor="start" x="203.5" y="-132.3" font-family="Helvetica,sans-Serif" font-size="11.00" fill="#000000">MRN</text>
<polygon fill="none" stroke="#000000" points="323.5,-125.2 323.5,-147.2 404.5,-147.2 404.5,-125.2 323.5,-125.2"/>
<text text-anchor="start" x="326.5" y="-132.9" font-family="Helvetica,sans-Serif" font-size="11.00" fill="#000000">nvarchar[900]</text>
<polygon fill="none" stroke="#000000" points="183.5,-103.2 183.5,-125.2 323.5,-125.2 323.5,-103.2 183.5,-103.2"/>
<text text-anchor="start" x="203.5" y="-110.3" font-family="Helvetica,sans-Serif" font-size="11.00" fill="#000000">CreatedAtUtc</text>
<polygon fill="none" stroke="#000000" points="323.5,-103.2 323.5,-125.2 404.5,-125.2 404.5,-103.2 323.5,-103.2"/>
<text text-anchor="start" x="326.0968" y="-110.9" font-family="Helvetica,sans-Serif" font-size="11.00" fill="#000000">datetime2[16,7]</text>
<polygon fill="none" stroke="#000000" points="183.5,-81.2 183.5,-103.2 323.5,-103.2 323.5,-81.2 183.5,-81.2"/>
<text text-anchor="start" x="203.5" y="-88.3" font-family="Helvetica,sans-Serif" font-size="11.00" fill="#000000">UpdatedAtUtc</text>
<polygon fill="none" stroke="#000000" points="323.5,-81.2 323.5,-103.2 404.5,-103.2 404.5,-81.2 323.5,-81.2"/>
<text text-anchor="start" x="326.0968" y="-88.9" font-family="Helvetica,sans-Serif" font-size="11.00" fill="#000000">datetime2[16,7]</text>
<polygon fill="none" stroke="#000000" points="183.5,-59.2 183.5,-81.2 323.5,-81.2 323.5,-59.2 183.5,-59.2"/>
<text text-anchor="start" x="203.5" y="-66.3" font-family="Helvetica,sans-Serif" font-size="11.00" fill="#000000">RowVersion</text>
<polygon fill="none" stroke="#000000" points="323.5,-59.2 323.5,-81.2 404.5,-81.2 404.5,-59.2 323.5,-59.2"/>
<text text-anchor="start" x="326.5" y="-66.9" font-family="Helvetica,sans-Serif" font-size="11.00" fill="#000000">timestamp[8]</text>
<polygon fill="#ffffff" stroke="transparent" points="183.5,-40.2 183.5,-59.2 404.5,-59.2 404.5,-40.2 183.5,-40.2"/>
<polygon fill="none" stroke="#000000" points="183.5,-40.2 183.5,-59.2 404.5,-59.2 404.5,-40.2 183.5,-40.2"/>
<polygon fill="#ffffff" stroke="transparent" points="184.5,-41.2 184.5,-58.2 260.5,-58.2 260.5,-41.2 184.5,-41.2"/>
<text text-anchor="start" x="186.5" y="-46.3" font-family="Helvetica,sans-Serif" font-size="11.00" fill="#000000">&lt; 2</text>
<polygon fill="#ffffff" stroke="transparent" points="260.5,-41.2 260.5,-58.2 327.5,-58.2 327.5,-41.2 260.5,-41.2"/>
<text text-anchor="start" x="290.9431" y="-46.3" font-family="Helvetica,sans-Serif" font-size="11.00" fill="#000000"> &#160;</text>
<polygon fill="#ffffff" stroke="transparent" points="327.5,-41.2 327.5,-58.2 403.5,-58.2 403.5,-41.2 327.5,-41.2"/>
<text text-anchor="start" x="385.9053" y="-46.3" font-family="Helvetica,sans-Serif" font-size="11.00" fill="#000000">0 &gt;</text>
<polygon fill="#000000" stroke="#000000" points="260.5,-41.2 260.5,-58.2 260.5,-58.2 260.5,-41.2 260.5,-41.2"/>
<polygon fill="#000000" stroke="#000000" points="327.5,-41.2 327.5,-58.2 327.5,-58.2 327.5,-41.2 327.5,-41.2"/>
<polygon fill="none" stroke="#000000" stroke-width="2" points="182,-39.2 182,-237.2 405,-237.2 405,-39.2 182,-39.2"/>
</a>
</g>
</g>
<!-- Facilities -->
<g id="node2" class="node">
<title>Facilities</title>
<g id="a_node2"><a xlink:href="../../tables/Facilities.html" xlink:title="Facilities" target="_top">
<polygon fill="#ffffff" stroke="transparent" points="8,-68.7 8,-151.7 132,-151.7 132,-68.7 8,-68.7"/>
<polygon fill="#f5f5f5" stroke="transparent" points="8,-128.2 8,-151.2 132,-151.2 132,-128.2 8,-128.2"/>
<polygon fill="none" stroke="#000000" points="8,-128.2 8,-151.2 132,-151.2 132,-128.2 8,-128.2"/>
<text text-anchor="start" x="13" y="-136.8" font-family="Helvetica,sans-Serif" font-weight="bold" font-size="11.00" fill="#000000">Facilities</text>
<text text-anchor="start" x="97.0437" y="-136.3" font-family="Helvetica,sans-Serif" font-size="11.00" fill="#000000">[table]</text>
<polygon fill="none" stroke="#000000" points="8,-106.2 8,-128.2 132,-128.2 132,-106.2 8,-106.2"/>
<image xlink:href="../../images/primaryKeys.png" width="11px" height="12px" preserveAspectRatio="xMinYMin meet" x="13" y="-123.2"/>
<text text-anchor="start" x="28" y="-113.3" font-family="Helvetica,sans-Serif" font-size="11.00" fill="#000000">Id</text>
<polygon fill="none" stroke="#000000" points="8,-87.2 8,-106.2 132,-106.2 132,-87.2 8,-87.2"/>
<text text-anchor="start" x="11" y="-93.3" font-family="Helvetica,sans-Serif" font-size="11.00" fill="#000000">...</text>
<polygon fill="#ffffff" stroke="transparent" points="8,-68.2 8,-87.2 132,-87.2 132,-68.2 8,-68.2"/>
<polygon fill="none" stroke="#000000" points="8,-68.2 8,-87.2 132,-87.2 132,-68.2 8,-68.2"/>
<polygon fill="#ffffff" stroke="transparent" points="9,-69.2 9,-86.2 47,-86.2 47,-69.2 9,-69.2"/>
<text text-anchor="start" x="11" y="-74.3" font-family="Helvetica,sans-Serif" font-size="11.00" fill="#000000"> &#160;</text>
<polygon fill="#ffffff" stroke="transparent" points="47,-69.2 47,-86.2 85,-86.2 85,-69.2 47,-69.2"/>
<text text-anchor="start" x="62.9431" y="-74.3" font-family="Helvetica,sans-Serif" font-size="11.00" fill="#000000"> &#160;</text>
<polygon fill="#ffffff" stroke="transparent" points="85,-69.2 85,-86.2 131,-86.2 131,-69.2 85,-69.2"/>
<text text-anchor="start" x="113.4053" y="-74.3" font-family="Helvetica,sans-Serif" font-size="11.00" fill="#000000">3 &gt;</text>
<polygon fill="#000000" stroke="#000000" points="47,-69.2 47,-86.2 47,-86.2 47,-69.2 47,-69.2"/>
<polygon fill="#000000" stroke="#000000" points="85,-69.2 85,-86.2 85,-86.2 85,-69.2 85,-69.2"/>
</a>
</g>
</g>
<!-- PatientFacilities&#45;&gt;Facilities -->
<g id="edge1" class="edge">
<title>PatientFacilities:w&#45;&gt;Facilities:e</title>
<path fill="none" stroke="#000000" d="M169.5533,-153.8123C155.596,-143.2354 155.3139,-117.2 132,-117.2"/>
<polygon fill="#000000" stroke="#000000" points="175.8687,-155.7991 182.4196,-161.6341 179.6844,-156.9996 183.5,-158.2 183.5,-158.2 183.5,-158.2 179.6844,-156.9996 184.5804,-154.7659 175.8687,-155.7991 175.8687,-155.7991"/>
<ellipse fill="none" stroke="#000000" cx="172.8162" cy="-154.8388" rx="3.2" ry="3.2"/>
</g>
<!-- Patients -->
<g id="node3" class="node">
<title>Patients</title>
<g id="a_node3"><a xlink:href="../../tables/Patients.html" xlink:title="Patients" target="_top">
<polygon fill="#ffffff" stroke="transparent" points="8,-172.7 8,-255.7 132,-255.7 132,-172.7 8,-172.7"/>
<polygon fill="#f5f5f5" stroke="transparent" points="8,-232.2 8,-255.2 132,-255.2 132,-232.2 8,-232.2"/>
<polygon fill="none" stroke="#000000" points="8,-232.2 8,-255.2 132,-255.2 132,-232.2 8,-232.2"/>
<text text-anchor="start" x="13" y="-240.8" font-family="Helvetica,sans-Serif" font-weight="bold" font-size="11.00" fill="#000000">Patients</text>
<text text-anchor="start" x="97.0437" y="-240.3" font-family="Helvetica,sans-Serif" font-size="11.00" fill="#000000">[table]</text>
<polygon fill="none" stroke="#000000" points="8,-210.2 8,-232.2 132,-232.2 132,-210.2 8,-210.2"/>
<image xlink:href="../../images/primaryKeys.png" width="11px" height="12px" preserveAspectRatio="xMinYMin meet" x="13" y="-227.2"/>
<text text-anchor="start" x="28" y="-217.3" font-family="Helvetica,sans-Serif" font-size="11.00" fill="#000000">Id</text>
<polygon fill="none" stroke="#000000" points="8,-191.2 8,-210.2 132,-210.2 132,-191.2 8,-191.2"/>
<text text-anchor="start" x="11" y="-197.3" font-family="Helvetica,sans-Serif" font-size="11.00" fill="#000000">...</text>
<polygon fill="#ffffff" stroke="transparent" points="8,-172.2 8,-191.2 132,-191.2 132,-172.2 8,-172.2"/>
<polygon fill="none" stroke="#000000" points="8,-172.2 8,-191.2 132,-191.2 132,-172.2 8,-172.2"/>
<polygon fill="#ffffff" stroke="transparent" points="9,-173.2 9,-190.2 47,-190.2 47,-173.2 9,-173.2"/>
<text text-anchor="start" x="11" y="-178.3" font-family="Helvetica,sans-Serif" font-size="11.00" fill="#000000"> &#160;</text>
<polygon fill="#ffffff" stroke="transparent" points="47,-173.2 47,-190.2 85,-190.2 85,-173.2 47,-173.2"/>
<text text-anchor="start" x="62.9431" y="-178.3" font-family="Helvetica,sans-Serif" font-size="11.00" fill="#000000"> &#160;</text>
<polygon fill="#ffffff" stroke="transparent" points="85,-173.2 85,-190.2 131,-190.2 131,-173.2 85,-173.2"/>
<text text-anchor="start" x="113.4053" y="-178.3" font-family="Helvetica,sans-Serif" font-size="11.00" fill="#000000">3 &gt;</text>
<polygon fill="#000000" stroke="#000000" points="47,-173.2 47,-190.2 47,-190.2 47,-173.2 47,-173.2"/>
<polygon fill="#000000" stroke="#000000" points="85,-173.2 85,-190.2 85,-190.2 85,-173.2 85,-173.2"/>
</a>
</g>
</g>
<!-- PatientFacilities&#45;&gt;Patients -->
<g id="edge2" class="edge">
<title>PatientFacilities:w&#45;&gt;Patients:e</title>
<path fill="none" stroke="#000000" d="M169.5533,-184.5877C155.596,-195.1646 155.3139,-221.2 132,-221.2"/>
<polygon fill="#000000" stroke="#000000" points="175.8687,-182.6009 184.5804,-183.6341 179.6844,-181.4004 183.5,-180.2 183.5,-180.2 183.5,-180.2 179.6844,-181.4004 182.4196,-176.7659 175.8687,-182.6009 175.8687,-182.6009"/>
<ellipse fill="none" stroke="#000000" cx="172.8162" cy="-183.5612" rx="3.2" ry="3.2"/>
</g>
</g>
</svg>
