<?xml version="1.0" encoding="UTF-8" standalone="no"?>
<!DOCTYPE svg PUBLIC "-//W3C//DTD SVG 1.1//EN"
 "http://www.w3.org/Graphics/SVG/1.1/DTD/svg11.dtd">
<!-- Generated by graphviz version 2.40.1 (20161225.0304)
 -->
<!-- Title: twoDegreesRelationshipsDiagram Pages: 1 -->
<svg width="1059pt" height="535pt"
 viewBox="0.00 0.00 1059.00 534.70" xmlns="http://www.w3.org/2000/svg" xmlns:xlink="http://www.w3.org/1999/xlink">
<g id="graph0" class="graph" transform="scale(1 1) rotate(0) translate(4 530.7)">
<title>twoDegreesRelationshipsDiagram</title>
<polygon fill="#ffffff" stroke="transparent" points="-4,4 -4,-530.7 1055,-530.7 1055,4 -4,4"/>
<text text-anchor="middle" x="72.4936" y="-7.3" font-family="Helvetica,sans-Serif" font-size="11.00" fill="#000000">Generated by SchemaSpy</text>
<!-- HospitalizationInsurances -->
<g id="node1" class="node">
<title>HospitalizationInsurances</title>
<g id="a_node1"><a xlink:href="../../tables/HospitalizationInsurances.html" xlink:title="HospitalizationInsurances" target="_top">
<polygon fill="#ffffff" stroke="transparent" points="493.5,-230.2 493.5,-291.2 722.5,-291.2 722.5,-230.2 493.5,-230.2"/>
<polygon fill="#f5f5f5" stroke="transparent" points="494,-267.7 494,-290.7 723,-290.7 723,-267.7 494,-267.7"/>
<polygon fill="none" stroke="#000000" points="494,-267.7 494,-290.7 723,-290.7 723,-267.7 494,-267.7"/>
<text text-anchor="start" x="499" y="-276.3" font-family="Helvetica,sans-Serif" font-weight="bold" font-size="11.00" fill="#000000">HospitalizationInsurances</text>
<text text-anchor="start" x="688.5219" y="-275.8" font-family="Helvetica,sans-Serif" font-size="11.00" fill="#000000">[table]</text>
<polygon fill="none" stroke="#000000" points="494,-248.7 494,-267.7 723,-267.7 723,-248.7 494,-248.7"/>
<text text-anchor="start" x="497" y="-254.8" font-family="Helvetica,sans-Serif" font-size="11.00" fill="#000000">...</text>
<polygon fill="#ffffff" stroke="transparent" points="494,-229.7 494,-248.7 723,-248.7 723,-229.7 494,-229.7"/>
<polygon fill="none" stroke="#000000" points="494,-229.7 494,-248.7 723,-248.7 723,-229.7 494,-229.7"/>
<polygon fill="#ffffff" stroke="transparent" points="495,-230.7 495,-247.7 577,-247.7 577,-230.7 495,-230.7"/>
<text text-anchor="start" x="497" y="-235.8" font-family="Helvetica,sans-Serif" font-size="11.00" fill="#000000">&lt; 2</text>
<polygon fill="#ffffff" stroke="transparent" points="577,-230.7 577,-247.7 650,-247.7 650,-230.7 577,-230.7"/>
<text text-anchor="start" x="610.4431" y="-235.8" font-family="Helvetica,sans-Serif" font-size="11.00" fill="#000000"> &#160;</text>
<polygon fill="#ffffff" stroke="transparent" points="650,-230.7 650,-247.7 722,-247.7 722,-230.7 650,-230.7"/>
<text text-anchor="start" x="713.8862" y="-235.8" font-family="Helvetica,sans-Serif" font-size="11.00" fill="#000000"> &#160;</text>
<polygon fill="#000000" stroke="#000000" points="577,-230.7 577,-247.7 577,-247.7 577,-230.7 577,-230.7"/>
<polygon fill="#000000" stroke="#000000" points="650,-230.7 650,-247.7 650,-247.7 650,-230.7 650,-230.7"/>
</a>
</g>
</g>
<!-- Hospitalizations -->
<g id="node2" class="node">
<title>Hospitalizations</title>
<g id="a_node2"><a xlink:href="../../tables/Hospitalizations.html" xlink:title="Hospitalizations" target="_top">
<polygon fill="#ffffff" stroke="transparent" points="270.5,-227.2 270.5,-288.2 427.5,-288.2 427.5,-227.2 270.5,-227.2"/>
<polygon fill="#f5f5f5" stroke="transparent" points="271,-264.7 271,-287.7 428,-287.7 428,-264.7 271,-264.7"/>
<polygon fill="none" stroke="#000000" points="271,-264.7 271,-287.7 428,-287.7 428,-264.7 271,-264.7"/>
<text text-anchor="start" x="276" y="-273.3" font-family="Helvetica,sans-Serif" font-weight="bold" font-size="11.00" fill="#000000">Hospitalizations</text>
<text text-anchor="start" x="393.5219" y="-272.8" font-family="Helvetica,sans-Serif" font-size="11.00" fill="#000000">[table]</text>
<polygon fill="none" stroke="#000000" points="271,-245.7 271,-264.7 428,-264.7 428,-245.7 271,-245.7"/>
<text text-anchor="start" x="274" y="-251.8" font-family="Helvetica,sans-Serif" font-size="11.00" fill="#000000">...</text>
<polygon fill="#ffffff" stroke="transparent" points="271,-226.7 271,-245.7 428,-245.7 428,-226.7 271,-226.7"/>
<polygon fill="none" stroke="#000000" points="271,-226.7 271,-245.7 428,-245.7 428,-226.7 271,-226.7"/>
<polygon fill="#ffffff" stroke="transparent" points="272,-227.7 272,-244.7 327,-244.7 327,-227.7 272,-227.7"/>
<text text-anchor="start" x="274" y="-232.8" font-family="Helvetica,sans-Serif" font-size="11.00" fill="#000000">&lt; 3</text>
<polygon fill="#ffffff" stroke="transparent" points="327,-227.7 327,-244.7 373,-244.7 373,-227.7 327,-227.7"/>
<text text-anchor="start" x="346.9431" y="-232.8" font-family="Helvetica,sans-Serif" font-size="11.00" fill="#000000"> &#160;</text>
<polygon fill="#ffffff" stroke="transparent" points="373,-227.7 373,-244.7 427,-244.7 427,-227.7 373,-227.7"/>
<text text-anchor="start" x="409.4053" y="-232.8" font-family="Helvetica,sans-Serif" font-size="11.00" fill="#000000">4 &gt;</text>
<polygon fill="#000000" stroke="#000000" points="327,-227.7 327,-244.7 327,-244.7 327,-227.7 327,-227.7"/>
<polygon fill="#000000" stroke="#000000" points="373,-227.7 373,-244.7 373,-244.7 373,-227.7 373,-227.7"/>
</a>
</g>
</g>
<!-- HospitalizationInsurances&#45;&gt;Hospitalizations -->
<g id="edge1" class="edge">
<title>HospitalizationInsurances:w&#45;&gt;Hospitalizations:e</title>
<path fill="none" stroke="#000000" d="M479.1633,-257.7C464.7413,-257.7 449.9029,-257.7 435.6416,-257.7"/>
<polygon fill="#000000" stroke="#000000" points="486,-257.7001 494,-261.3 490,-257.7 494,-257.7 494,-257.7 494,-257.7 490,-257.7 494,-254.1 486,-257.7001 486,-257.7001"/>
<ellipse fill="none" stroke="#000000" cx="482.8" cy="-257.7001" rx="3.2" ry="3.2"/>
</g>
<!-- Facilities -->
<g id="node3" class="node">
<title>Facilities</title>
<g id="a_node3"><a xlink:href="../../tables/Facilities.html" xlink:title="Facilities" target="_top">
<polygon fill="#ffffff" stroke="transparent" points="62.5,-218.2 62.5,-279.2 166.5,-279.2 166.5,-218.2 62.5,-218.2"/>
<polygon fill="#f5f5f5" stroke="transparent" points="62.5,-255.7 62.5,-278.7 166.5,-278.7 166.5,-255.7 62.5,-255.7"/>
<polygon fill="none" stroke="#000000" points="62.5,-255.7 62.5,-278.7 166.5,-278.7 166.5,-255.7 62.5,-255.7"/>
<text text-anchor="start" x="67.5" y="-264.3" font-family="Helvetica,sans-Serif" font-weight="bold" font-size="11.00" fill="#000000">Facilities</text>
<text text-anchor="start" x="132.0219" y="-263.8" font-family="Helvetica,sans-Serif" font-size="11.00" fill="#000000">[table]</text>
<polygon fill="none" stroke="#000000" points="62.5,-236.7 62.5,-255.7 166.5,-255.7 166.5,-236.7 62.5,-236.7"/>
<text text-anchor="start" x="65.5" y="-242.8" font-family="Helvetica,sans-Serif" font-size="11.00" fill="#000000">...</text>
<polygon fill="#ffffff" stroke="transparent" points="62.5,-217.7 62.5,-236.7 166.5,-236.7 166.5,-217.7 62.5,-217.7"/>
<polygon fill="none" stroke="#000000" points="62.5,-217.7 62.5,-236.7 166.5,-236.7 166.5,-217.7 62.5,-217.7"/>
<polygon fill="#ffffff" stroke="transparent" points="63.5,-218.7 63.5,-235.7 94.5,-235.7 94.5,-218.7 63.5,-218.7"/>
<text text-anchor="start" x="65.5" y="-223.8" font-family="Helvetica,sans-Serif" font-size="11.00" fill="#000000"> &#160;</text>
<polygon fill="#ffffff" stroke="transparent" points="94.5,-218.7 94.5,-235.7 125.5,-235.7 125.5,-218.7 94.5,-218.7"/>
<text text-anchor="start" x="106.9431" y="-223.8" font-family="Helvetica,sans-Serif" font-size="11.00" fill="#000000"> &#160;</text>
<polygon fill="#ffffff" stroke="transparent" points="125.5,-218.7 125.5,-235.7 165.5,-235.7 165.5,-218.7 125.5,-218.7"/>
<text text-anchor="start" x="147.9053" y="-223.8" font-family="Helvetica,sans-Serif" font-size="11.00" fill="#000000">3 &gt;</text>
<polygon fill="#000000" stroke="#000000" points="94.5,-218.7 94.5,-235.7 94.5,-235.7 94.5,-218.7 94.5,-218.7"/>
<polygon fill="#000000" stroke="#000000" points="125.5,-218.7 125.5,-235.7 125.5,-235.7 125.5,-218.7 125.5,-218.7"/>
</a>
</g>
</g>
<!-- Hospitalizations&#45;&gt;Facilities -->
<g id="edge2" class="edge">
<title>Hospitalizations:w&#45;&gt;Facilities:e</title>
<path fill="none" stroke="#000000" d="M247.8236,-248.673C221.3788,-246.9647 192.8893,-245.7 166.5,-245.7"/>
<polygon fill="#000000" stroke="#000000" points="254.2971,-249.1161 262.0326,-253.2541 258.2878,-249.3893 262.2784,-249.6625 262.2784,-249.6625 262.2784,-249.6625 258.2878,-249.3893 262.5243,-246.0709 254.2971,-249.1161 254.2971,-249.1161"/>
<ellipse fill="none" stroke="#000000" cx="251.1046" cy="-248.8976" rx="3.2" ry="3.2"/>
</g>
<!-- HospitalizationStatuses -->
<g id="node4" class="node">
<title>HospitalizationStatuses</title>
<g id="a_node4"><a xlink:href="../../tables/HospitalizationStatuses.html" xlink:title="HospitalizationStatuses" target="_top">
<polygon fill="#ffffff" stroke="transparent" points="8,-136.2 8,-197.2 221,-197.2 221,-136.2 8,-136.2"/>
<polygon fill="#f5f5f5" stroke="transparent" points="8.5,-173.7 8.5,-196.7 221.5,-196.7 221.5,-173.7 8.5,-173.7"/>
<polygon fill="none" stroke="#000000" points="8.5,-173.7 8.5,-196.7 221.5,-196.7 221.5,-173.7 8.5,-173.7"/>
<text text-anchor="start" x="13.5" y="-182.3" font-family="Helvetica,sans-Serif" font-weight="bold" font-size="11.00" fill="#000000">HospitalizationStatuses</text>
<text text-anchor="start" x="187.0219" y="-181.8" font-family="Helvetica,sans-Serif" font-size="11.00" fill="#000000">[table]</text>
<polygon fill="none" stroke="#000000" points="8.5,-154.7 8.5,-173.7 221.5,-173.7 221.5,-154.7 8.5,-154.7"/>
<text text-anchor="start" x="11.5" y="-160.8" font-family="Helvetica,sans-Serif" font-size="11.00" fill="#000000">...</text>
<polygon fill="#ffffff" stroke="transparent" points="8.5,-135.7 8.5,-154.7 221.5,-154.7 221.5,-135.7 8.5,-135.7"/>
<polygon fill="none" stroke="#000000" points="8.5,-135.7 8.5,-154.7 221.5,-154.7 221.5,-135.7 8.5,-135.7"/>
<polygon fill="#ffffff" stroke="transparent" points="9.5,-136.7 9.5,-153.7 77.5,-153.7 77.5,-136.7 9.5,-136.7"/>
<text text-anchor="start" x="11.5" y="-141.8" font-family="Helvetica,sans-Serif" font-size="11.00" fill="#000000"> &#160;</text>
<polygon fill="#ffffff" stroke="transparent" points="77.5,-136.7 77.5,-153.7 144.5,-153.7 144.5,-136.7 77.5,-136.7"/>
<text text-anchor="start" x="107.9431" y="-141.8" font-family="Helvetica,sans-Serif" font-size="11.00" fill="#000000"> &#160;</text>
<polygon fill="#ffffff" stroke="transparent" points="144.5,-136.7 144.5,-153.7 220.5,-153.7 220.5,-136.7 144.5,-136.7"/>
<text text-anchor="start" x="202.9053" y="-141.8" font-family="Helvetica,sans-Serif" font-size="11.00" fill="#000000">3 &gt;</text>
<polygon fill="#000000" stroke="#000000" points="77.5,-136.7 77.5,-153.7 77.5,-153.7 77.5,-136.7 77.5,-136.7"/>
<polygon fill="#000000" stroke="#000000" points="144.5,-136.7 144.5,-153.7 144.5,-153.7 144.5,-136.7 144.5,-136.7"/>
</a>
</g>
</g>
<!-- Hospitalizations&#45;&gt;HospitalizationStatuses -->
<g id="edge3" class="edge">
<title>Hospitalizations:w&#45;&gt;HospitalizationStatuses:e</title>
<path fill="none" stroke="#000000" d="M301.562,-213.3773C273.4183,-189.0197 239.7693,-163.7 221.5,-163.7"/>
<polygon fill="#000000" stroke="#000000" points="306.4307,-217.6724 310.0482,-225.6646 309.4302,-220.3187 312.4298,-222.9649 312.4298,-222.9649 312.4298,-222.9649 309.4302,-220.3187 314.8114,-220.2653 306.4307,-217.6724 306.4307,-217.6724"/>
<ellipse fill="none" stroke="#000000" cx="304.031" cy="-215.5554" rx="3.2" ry="3.2"/>
</g>
<!-- Patients -->
<g id="node5" class="node">
<title>Patients</title>
<g id="a_node5"><a xlink:href="../../tables/Patients.html" xlink:title="Patients" target="_top">
<polygon fill="#ffffff" stroke="transparent" points="10,-300.7 10,-522.7 219,-522.7 219,-300.7 10,-300.7"/>
<polygon fill="#f5f5f5" stroke="transparent" points="12.5,-497.7 12.5,-520.7 217.5,-520.7 217.5,-497.7 12.5,-497.7"/>
<polygon fill="none" stroke="#000000" points="12.5,-497.7 12.5,-520.7 217.5,-520.7 217.5,-497.7 12.5,-497.7"/>
<text text-anchor="start" x="17.5" y="-506.3" font-family="Helvetica,sans-Serif" font-weight="bold" font-size="11.00" fill="#000000">Patients</text>
<text text-anchor="start" x="182.5437" y="-505.8" font-family="Helvetica,sans-Serif" font-size="11.00" fill="#000000">[table]</text>
<polygon fill="none" stroke="#000000" points="12.5,-475.7 12.5,-497.7 136.5,-497.7 136.5,-475.7 12.5,-475.7"/>
<image xlink:href="../../images/primaryKeys.png" width="11px" height="12px" preserveAspectRatio="xMinYMin meet" x="17.5" y="-492.7"/>
<text text-anchor="start" x="32.5" y="-482.8" font-family="Helvetica,sans-Serif" font-size="11.00" fill="#000000">Id</text>
<polygon fill="none" stroke="#000000" points="136.5,-475.7 136.5,-497.7 217.5,-497.7 217.5,-475.7 136.5,-475.7"/>
<text text-anchor="start" x="139.5" y="-483.4" font-family="Helvetica,sans-Serif" font-size="11.00" fill="#000000">int identity[4]</text>
<polygon fill="none" stroke="#000000" points="12.5,-453.7 12.5,-475.7 136.5,-475.7 136.5,-453.7 12.5,-453.7"/>
<text text-anchor="start" x="32.5" y="-460.8" font-family="Helvetica,sans-Serif" font-size="11.00" fill="#000000">BirthDate</text>
<polygon fill="none" stroke="#000000" points="136.5,-453.7 136.5,-475.7 217.5,-475.7 217.5,-453.7 136.5,-453.7"/>
<text text-anchor="start" x="139.5" y="-461.4" font-family="Helvetica,sans-Serif" font-size="11.00" fill="#000000">date[6]</text>
<polygon fill="none" stroke="#000000" points="12.5,-431.7 12.5,-453.7 136.5,-453.7 136.5,-431.7 12.5,-431.7"/>
<text text-anchor="start" x="32.5" y="-438.8" font-family="Helvetica,sans-Serif" font-size="11.00" fill="#000000">FirstName</text>
<polygon fill="none" stroke="#000000" points="136.5,-431.7 136.5,-453.7 217.5,-453.7 217.5,-431.7 136.5,-431.7"/>
<text text-anchor="start" x="139.5" y="-439.4" font-family="Helvetica,sans-Serif" font-size="11.00" fill="#000000">nvarchar[100]</text>
<polygon fill="none" stroke="#000000" points="12.5,-409.7 12.5,-431.7 136.5,-431.7 136.5,-409.7 12.5,-409.7"/>
<text text-anchor="start" x="32.5" y="-416.8" font-family="Helvetica,sans-Serif" font-size="11.00" fill="#000000">Gender</text>
<polygon fill="none" stroke="#000000" points="136.5,-409.7 136.5,-431.7 217.5,-431.7 217.5,-409.7 136.5,-409.7"/>
<text text-anchor="start" x="139.5" y="-417.4" font-family="Helvetica,sans-Serif" font-size="11.00" fill="#000000">int[4]</text>
<polygon fill="none" stroke="#000000" points="12.5,-387.7 12.5,-409.7 136.5,-409.7 136.5,-387.7 12.5,-387.7"/>
<text text-anchor="start" x="32.5" y="-394.8" font-family="Helvetica,sans-Serif" font-size="11.00" fill="#000000">LastName</text>
<polygon fill="none" stroke="#000000" points="136.5,-387.7 136.5,-409.7 217.5,-409.7 217.5,-387.7 136.5,-387.7"/>
<text text-anchor="start" x="139.5" y="-395.4" font-family="Helvetica,sans-Serif" font-size="11.00" fill="#000000">nvarchar[100]</text>
<polygon fill="none" stroke="#000000" points="12.5,-365.7 12.5,-387.7 136.5,-387.7 136.5,-365.7 12.5,-365.7"/>
<text text-anchor="start" x="32.5" y="-372.8" font-family="Helvetica,sans-Serif" font-size="11.00" fill="#000000">CreatedAtUtc</text>
<polygon fill="none" stroke="#000000" points="136.5,-365.7 136.5,-387.7 217.5,-387.7 217.5,-365.7 136.5,-365.7"/>
<text text-anchor="start" x="139.0967" y="-373.4" font-family="Helvetica,sans-Serif" font-size="11.00" fill="#000000">datetime2[16,7]</text>
<polygon fill="none" stroke="#000000" points="12.5,-343.7 12.5,-365.7 136.5,-365.7 136.5,-343.7 12.5,-343.7"/>
<text text-anchor="start" x="32.5" y="-350.8" font-family="Helvetica,sans-Serif" font-size="11.00" fill="#000000">UpdatedAtUtc</text>
<polygon fill="none" stroke="#000000" points="136.5,-343.7 136.5,-365.7 217.5,-365.7 217.5,-343.7 136.5,-343.7"/>
<text text-anchor="start" x="139.0967" y="-351.4" font-family="Helvetica,sans-Serif" font-size="11.00" fill="#000000">datetime2[16,7]</text>
<polygon fill="none" stroke="#000000" points="12.5,-321.7 12.5,-343.7 136.5,-343.7 136.5,-321.7 12.5,-321.7"/>
<text text-anchor="start" x="32.5" y="-328.8" font-family="Helvetica,sans-Serif" font-size="11.00" fill="#000000">RowVersion</text>
<polygon fill="none" stroke="#000000" points="136.5,-321.7 136.5,-343.7 217.5,-343.7 217.5,-321.7 136.5,-321.7"/>
<text text-anchor="start" x="139.5" y="-329.4" font-family="Helvetica,sans-Serif" font-size="11.00" fill="#000000">timestamp[8]</text>
<polygon fill="#ffffff" stroke="transparent" points="12.5,-302.7 12.5,-321.7 217.5,-321.7 217.5,-302.7 12.5,-302.7"/>
<polygon fill="none" stroke="#000000" points="12.5,-302.7 12.5,-321.7 217.5,-321.7 217.5,-302.7 12.5,-302.7"/>
<polygon fill="#ffffff" stroke="transparent" points="13.5,-303.7 13.5,-320.7 84.5,-320.7 84.5,-303.7 13.5,-303.7"/>
<text text-anchor="start" x="15.5" y="-308.8" font-family="Helvetica,sans-Serif" font-size="11.00" fill="#000000">&lt; 0</text>
<polygon fill="#ffffff" stroke="transparent" points="84.5,-303.7 84.5,-320.7 146.5,-320.7 146.5,-303.7 84.5,-303.7"/>
<text text-anchor="start" x="112.4431" y="-308.8" font-family="Helvetica,sans-Serif" font-size="11.00" fill="#000000"> &#160;</text>
<polygon fill="#ffffff" stroke="transparent" points="146.5,-303.7 146.5,-320.7 216.5,-320.7 216.5,-303.7 146.5,-303.7"/>
<text text-anchor="start" x="198.9053" y="-308.8" font-family="Helvetica,sans-Serif" font-size="11.00" fill="#000000">3 &gt;</text>
<polygon fill="#000000" stroke="#000000" points="84.5,-303.7 84.5,-320.7 84.5,-320.7 84.5,-303.7 84.5,-303.7"/>
<polygon fill="#000000" stroke="#000000" points="146.5,-303.7 146.5,-320.7 146.5,-320.7 146.5,-303.7 146.5,-303.7"/>
<polygon fill="none" stroke="#000000" stroke-width="2" points="11,-301.7 11,-521.7 218,-521.7 218,-301.7 11,-301.7"/>
</a>
</g>
</g>
<!-- Hospitalizations&#45;&gt;Patients -->
<g id="edge4" class="edge">
<title>Hospitalizations:w&#45;&gt;Patients:e</title>
<path fill="none" stroke="#000000" d="M261.2583,-304.6932C218.3624,-379.4266 298.0172,-486.7 217.5,-486.7"/>
<polygon fill="#000000" stroke="#000000" points="265.0798,-299.132 272.5775,-294.5775 267.3451,-295.8353 269.6105,-292.5386 269.6105,-292.5386 269.6105,-292.5386 267.3451,-295.8353 266.6435,-290.4998 265.0798,-299.132 265.0798,-299.132"/>
<ellipse fill="none" stroke="#000000" cx="263.2675" cy="-301.7693" rx="3.2" ry="3.2"/>
</g>
<!-- HospitalizationStatusHistories -->
<g id="node6" class="node">
<title>HospitalizationStatusHistories</title>
<g id="a_node6"><a xlink:href="../../tables/HospitalizationStatusHistories.html" xlink:title="HospitalizationStatusHistories" target="_top">
<polygon fill="#ffffff" stroke="transparent" points="477,-148.2 477,-209.2 739,-209.2 739,-148.2 477,-148.2"/>
<polygon fill="#f5f5f5" stroke="transparent" points="477,-185.7 477,-208.7 739,-208.7 739,-185.7 477,-185.7"/>
<polygon fill="none" stroke="#000000" points="477,-185.7 477,-208.7 739,-208.7 739,-185.7 477,-185.7"/>
<text text-anchor="start" x="482" y="-194.3" font-family="Helvetica,sans-Serif" font-weight="bold" font-size="11.00" fill="#000000">HospitalizationStatusHistories</text>
<text text-anchor="start" x="704.5219" y="-193.8" font-family="Helvetica,sans-Serif" font-size="11.00" fill="#000000">[table]</text>
<polygon fill="none" stroke="#000000" points="477,-166.7 477,-185.7 739,-185.7 739,-166.7 477,-166.7"/>
<text text-anchor="start" x="480" y="-172.8" font-family="Helvetica,sans-Serif" font-size="11.00" fill="#000000">...</text>
<polygon fill="#ffffff" stroke="transparent" points="477,-147.7 477,-166.7 739,-166.7 739,-147.7 477,-147.7"/>
<polygon fill="none" stroke="#000000" points="477,-147.7 477,-166.7 739,-166.7 739,-147.7 477,-147.7"/>
<polygon fill="#ffffff" stroke="transparent" points="478,-148.7 478,-165.7 571,-165.7 571,-148.7 478,-148.7"/>
<text text-anchor="start" x="480" y="-153.8" font-family="Helvetica,sans-Serif" font-size="11.00" fill="#000000">&lt; 2</text>
<polygon fill="#ffffff" stroke="transparent" points="571,-148.7 571,-165.7 655,-165.7 655,-148.7 571,-148.7"/>
<text text-anchor="start" x="609.9431" y="-153.8" font-family="Helvetica,sans-Serif" font-size="11.00" fill="#000000"> &#160;</text>
<polygon fill="#ffffff" stroke="transparent" points="655,-148.7 655,-165.7 738,-165.7 738,-148.7 655,-148.7"/>
<text text-anchor="start" x="729.8862" y="-153.8" font-family="Helvetica,sans-Serif" font-size="11.00" fill="#000000"> &#160;</text>
<polygon fill="#000000" stroke="#000000" points="571,-148.7 571,-165.7 571,-165.7 571,-148.7 571,-148.7"/>
<polygon fill="#000000" stroke="#000000" points="655,-148.7 655,-165.7 655,-165.7 655,-148.7 655,-148.7"/>
</a>
</g>
</g>
<!-- HospitalizationStatusHistories&#45;&gt;Hospitalizations -->
<g id="edge5" class="edge">
<title>HospitalizationStatusHistories:w&#45;&gt;Hospitalizations:e</title>
<path fill="none" stroke="#000000" d="M462.2572,-176.9608C430.5124,-182.3079 401.3032,-203.7286 380.5012,-223.1623"/>
<polygon fill="#000000" stroke="#000000" points="469.0291,-176.3817 477.3068,-179.2869 473.0145,-176.0409 477,-175.7 477,-175.7 477,-175.7 473.0145,-176.0409 476.6932,-172.1131 469.0291,-176.3817 469.0291,-176.3817"/>
<ellipse fill="none" stroke="#000000" cx="465.8407" cy="-176.6544" rx="3.2" ry="3.2"/>
</g>
<!-- HospitalizationStatusHistories&#45;&gt;HospitalizationStatuses -->
<g id="edge6" class="edge">
<title>HospitalizationStatusHistories:w&#45;&gt;HospitalizationStatuses:e</title>
<path fill="none" stroke="#000000" d="M462.4939,-175.6325C360.681,-174.6685 330.185,-163.7 221.5,-163.7"/>
<polygon fill="#000000" stroke="#000000" points="469.0001,-175.6627 476.9832,-179.3 473,-175.6814 477,-175.7 477,-175.7 477,-175.7 473,-175.6814 477.0168,-172.1 469.0001,-175.6627 469.0001,-175.6627"/>
<ellipse fill="none" stroke="#000000" cx="465.8001" cy="-175.6478" rx="3.2" ry="3.2"/>
</g>
<!-- PatientFacilities -->
<g id="node7" class="node">
<title>PatientFacilities</title>
<g id="a_node7"><a xlink:href="../../tables/PatientFacilities.html" xlink:title="PatientFacilities" target="_top">
<polygon fill="#ffffff" stroke="transparent" points="270,-311.2 270,-460.2 428,-460.2 428,-311.2 270,-311.2"/>
<polygon fill="#f5f5f5" stroke="transparent" points="270,-436.7 270,-459.7 428,-459.7 428,-436.7 270,-436.7"/>
<polygon fill="none" stroke="#000000" points="270,-436.7 270,-459.7 428,-459.7 428,-436.7 270,-436.7"/>
<text text-anchor="start" x="275" y="-445.3" font-family="Helvetica,sans-Serif" font-weight="bold" font-size="11.00" fill="#000000">PatientFacilities</text>
<text text-anchor="start" x="393.5219" y="-444.8" font-family="Helvetica,sans-Serif" font-size="11.00" fill="#000000">[table]</text>
<polygon fill="none" stroke="#000000" points="270,-414.7 270,-436.7 428,-436.7 428,-414.7 270,-414.7"/>
<image xlink:href="../../images/primaryKeys.png" width="11px" height="12px" preserveAspectRatio="xMinYMin meet" x="275" y="-431.7"/>
<text text-anchor="start" x="299" y="-421.8" font-family="Helvetica,sans-Serif" font-size="11.00" fill="#000000">Id</text>
<polygon fill="#ffffff" stroke="transparent" points="270,-392.7 270,-414.7 428,-414.7 428,-392.7 270,-392.7"/>
<polygon fill="none" stroke="#000000" points="270,-392.7 270,-414.7 428,-414.7 428,-392.7 270,-392.7"/>
<image xlink:href="../../images/foreignKeys.png" width="11px" height="12px" preserveAspectRatio="xMinYMin meet" x="275" y="-409.7"/>
<text text-anchor="start" x="299" y="-399.8" font-family="Helvetica,sans-Serif" font-size="11.00" fill="#000000">PatientId</text>
<polygon fill="#ffffff" stroke="transparent" points="270,-370.7 270,-392.7 428,-392.7 428,-370.7 270,-370.7"/>
<polygon fill="none" stroke="#000000" points="270,-370.7 270,-392.7 428,-392.7 428,-370.7 270,-370.7"/>
<image xlink:href="../../images/foreignKeys.png" width="11px" height="12px" preserveAspectRatio="xMinYMin meet" x="275" y="-387.7"/>
<text text-anchor="start" x="299" y="-377.8" font-family="Helvetica,sans-Serif" font-size="11.00" fill="#000000">FacilityId</text>
<polygon fill="#ffffff" stroke="transparent" points="270,-348.7 270,-370.7 428,-370.7 428,-348.7 270,-348.7"/>
<polygon fill="none" stroke="#000000" points="270,-348.7 270,-370.7 428,-370.7 428,-348.7 270,-348.7"/>
<text text-anchor="start" x="299" y="-355.8" font-family="Helvetica,sans-Serif" font-size="11.00" fill="#000000">MRN</text>
<polygon fill="none" stroke="#000000" points="270,-329.7 270,-348.7 428,-348.7 428,-329.7 270,-329.7"/>
<text text-anchor="start" x="273" y="-335.8" font-family="Helvetica,sans-Serif" font-size="11.00" fill="#000000">...</text>
<polygon fill="#ffffff" stroke="transparent" points="270,-310.7 270,-329.7 428,-329.7 428,-310.7 270,-310.7"/>
<polygon fill="none" stroke="#000000" points="270,-310.7 270,-329.7 428,-329.7 428,-310.7 270,-310.7"/>
<polygon fill="#ffffff" stroke="transparent" points="271,-311.7 271,-328.7 329,-328.7 329,-311.7 271,-311.7"/>
<text text-anchor="start" x="273" y="-316.8" font-family="Helvetica,sans-Serif" font-size="11.00" fill="#000000">&lt; 2</text>
<polygon fill="#ffffff" stroke="transparent" points="329,-311.7 329,-328.7 378,-328.7 378,-311.7 329,-311.7"/>
<text text-anchor="start" x="350.4431" y="-316.8" font-family="Helvetica,sans-Serif" font-size="11.00" fill="#000000"> &#160;</text>
<polygon fill="#ffffff" stroke="transparent" points="378,-311.7 378,-328.7 427,-328.7 427,-311.7 378,-311.7"/>
<text text-anchor="start" x="418.8862" y="-316.8" font-family="Helvetica,sans-Serif" font-size="11.00" fill="#000000"> &#160;</text>
<polygon fill="#000000" stroke="#000000" points="329,-311.7 329,-328.7 329,-328.7 329,-311.7 329,-311.7"/>
<polygon fill="#000000" stroke="#000000" points="378,-311.7 378,-328.7 378,-328.7 378,-311.7 378,-311.7"/>
</a>
</g>
</g>
<!-- PatientFacilities&#45;&gt;Facilities -->
<g id="edge7" class="edge">
<title>PatientFacilities:w&#45;&gt;Facilities:e</title>
<path fill="none" stroke="#000000" d="M255.7096,-378.7251C233.1213,-366.6271 253.2295,-320.3554 229,-290.7 207.3433,-264.1935 200.7287,-245.7 166.5,-245.7"/>
<polygon fill="#000000" stroke="#000000" points="262.1679,-380.0695 269.2663,-385.2244 266.084,-380.8848 270,-381.7 270,-381.7 270,-381.7 266.084,-380.8848 270.7337,-378.1756 262.1679,-380.0695 262.1679,-380.0695"/>
<ellipse fill="none" stroke="#000000" cx="259.0351" cy="-379.4174" rx="3.2" ry="3.2"/>
</g>
<!-- PatientFacilities&#45;&gt;Patients -->
<g id="edge8" class="edge">
<title>PatientFacilities:w&#45;&gt;Patients:e</title>
<path fill="none" stroke="#000000" d="M256.0951,-407.9301C234.3997,-424.8439 255.1814,-486.7 217.5,-486.7"/>
<polygon fill="#000000" stroke="#000000" points="262.3463,-406.0284 271.0478,-407.1442 266.1732,-404.8642 270,-403.7 270,-403.7 270,-403.7 266.1732,-404.8642 268.9522,-400.2558 262.3463,-406.0284 262.3463,-406.0284"/>
<ellipse fill="none" stroke="#000000" cx="259.2849" cy="-406.9598" rx="3.2" ry="3.2"/>
</g>
<!-- Visits -->
<g id="node8" class="node">
<title>Visits</title>
<g id="a_node8"><a xlink:href="../../tables/Visits.html" xlink:title="Visits" target="_top">
<polygon fill="#ffffff" stroke="transparent" points="568.5,-340.2 568.5,-401.2 647.5,-401.2 647.5,-340.2 568.5,-340.2"/>
<polygon fill="#f5f5f5" stroke="transparent" points="569,-377.7 569,-400.7 648,-400.7 648,-377.7 569,-377.7"/>
<polygon fill="none" stroke="#000000" points="569,-377.7 569,-400.7 648,-400.7 648,-377.7 569,-377.7"/>
<text text-anchor="start" x="574" y="-386.3" font-family="Helvetica,sans-Serif" font-weight="bold" font-size="11.00" fill="#000000">Visits</text>
<text text-anchor="start" x="613.5219" y="-385.8" font-family="Helvetica,sans-Serif" font-size="11.00" fill="#000000">[table]</text>
<polygon fill="none" stroke="#000000" points="569,-358.7 569,-377.7 648,-377.7 648,-358.7 569,-358.7"/>
<text text-anchor="start" x="572" y="-364.8" font-family="Helvetica,sans-Serif" font-size="11.00" fill="#000000">...</text>
<polygon fill="#ffffff" stroke="transparent" points="569,-339.7 569,-358.7 648,-358.7 648,-339.7 569,-339.7"/>
<polygon fill="none" stroke="#000000" points="569,-339.7 569,-358.7 648,-358.7 648,-339.7 569,-339.7"/>
<polygon fill="#ffffff" stroke="transparent" points="570,-340.7 570,-357.7 599,-357.7 599,-340.7 570,-340.7"/>
<text text-anchor="start" x="572" y="-345.8" font-family="Helvetica,sans-Serif" font-size="11.00" fill="#000000">&lt; 1</text>
<polygon fill="#ffffff" stroke="transparent" points="599,-340.7 599,-357.7 619,-357.7 619,-340.7 599,-340.7"/>
<text text-anchor="start" x="605.9431" y="-345.8" font-family="Helvetica,sans-Serif" font-size="11.00" fill="#000000"> &#160;</text>
<polygon fill="#ffffff" stroke="transparent" points="619,-340.7 619,-357.7 647,-357.7 647,-340.7 619,-340.7"/>
<text text-anchor="start" x="629.4053" y="-345.8" font-family="Helvetica,sans-Serif" font-size="11.00" fill="#000000">4 &gt;</text>
<polygon fill="#000000" stroke="#000000" points="599,-340.7 599,-357.7 599,-357.7 599,-340.7 599,-340.7"/>
<polygon fill="#000000" stroke="#000000" points="619,-340.7 619,-357.7 619,-357.7 619,-340.7 619,-340.7"/>
</a>
</g>
</g>
<!-- Visits&#45;&gt;Hospitalizations -->
<g id="edge9" class="edge">
<title>Visits:w&#45;&gt;Hospitalizations:e</title>
<path fill="none" stroke="#000000" d="M554.4611,-367.0722C518.2204,-363.7057 506.1942,-347.1434 469,-325.7 453.0593,-316.5098 451.6511,-310.3753 436,-300.7 431.4141,-297.865 426.6152,-295.0669 421.7284,-292.3408"/>
<polygon fill="#000000" stroke="#000000" points="561.0074,-367.3548 568.8447,-371.2966 565.0037,-367.5274 569,-367.7 569,-367.7 569,-367.7 565.0037,-367.5274 569.1553,-364.1034 561.0074,-367.3548 561.0074,-367.3548"/>
<ellipse fill="none" stroke="#000000" cx="557.8104" cy="-367.2167" rx="3.2" ry="3.2"/>
</g>
<!-- staging.ProviderAssignments -->
<g id="node9" class="node">
<title>staging.ProviderAssignments</title>
<g id="a_node9"><a xlink:title="staging.ProviderAssignments">
<polygon fill="#ffffff" stroke="transparent" points="788,-189.2 788,-250.2 1043,-250.2 1043,-189.2 788,-189.2"/>
<polygon fill="#f5f5f5" stroke="transparent" points="788.5,-226.7 788.5,-249.7 1043.5,-249.7 1043.5,-226.7 788.5,-226.7"/>
<polygon fill="none" stroke="#000000" points="788.5,-226.7 788.5,-249.7 1043.5,-249.7 1043.5,-226.7 788.5,-226.7"/>
<text text-anchor="start" x="793.5" y="-235.3" font-family="Helvetica,sans-Serif" font-weight="bold" font-size="11.00" fill="#000000">staging.ProviderAssignments</text>
<text text-anchor="start" x="1009.0219" y="-234.8" font-family="Helvetica,sans-Serif" font-size="11.00" fill="#000000">[table]</text>
<polygon fill="none" stroke="#000000" points="788.5,-207.7 788.5,-226.7 1043.5,-226.7 1043.5,-207.7 788.5,-207.7"/>
<text text-anchor="start" x="791.5" y="-213.8" font-family="Helvetica,sans-Serif" font-size="11.00" fill="#000000">...</text>
<polygon fill="#ffffff" stroke="transparent" points="788.5,-188.7 788.5,-207.7 1043.5,-207.7 1043.5,-188.7 788.5,-188.7"/>
<polygon fill="none" stroke="#000000" points="788.5,-188.7 788.5,-207.7 1043.5,-207.7 1043.5,-188.7 788.5,-188.7"/>
<polygon fill="#ffffff" stroke="transparent" points="789.5,-189.7 789.5,-206.7 880.5,-206.7 880.5,-189.7 789.5,-189.7"/>
<text text-anchor="start" x="791.5" y="-194.8" font-family="Helvetica,sans-Serif" font-size="11.00" fill="#000000">&lt; 6</text>
<polygon fill="#ffffff" stroke="transparent" points="880.5,-189.7 880.5,-206.7 961.5,-206.7 961.5,-189.7 880.5,-189.7"/>
<text text-anchor="start" x="917.9431" y="-194.8" font-family="Helvetica,sans-Serif" font-size="11.00" fill="#000000"> &#160;</text>
<polygon fill="#ffffff" stroke="transparent" points="961.5,-189.7 961.5,-206.7 1042.5,-206.7 1042.5,-189.7 961.5,-189.7"/>
<text text-anchor="start" x="1034.3862" y="-194.8" font-family="Helvetica,sans-Serif" font-size="11.00" fill="#000000"> &#160;</text>
<polygon fill="#000000" stroke="#000000" points="880.5,-189.7 880.5,-206.7 880.5,-206.7 880.5,-189.7 880.5,-189.7"/>
<polygon fill="#000000" stroke="#000000" points="961.5,-189.7 961.5,-206.7 961.5,-206.7 961.5,-189.7 961.5,-189.7"/>
</a>
</g>
</g>
<!-- staging.ProviderAssignments&#45;&gt;Hospitalizations -->
<g id="edge10" class="edge">
<title>staging.ProviderAssignments:w&#45;&gt;Hospitalizations:e</title>
<path fill="none" stroke="#000000" d="M847.7806,-261.367C818.0143,-277.3381 781.9345,-293.6509 747,-301.7 626.599,-329.4411 590.6529,-323.2999 469,-301.7 456.6559,-299.5083 443.9154,-296.1407 431.5547,-292.2232"/>
<polygon fill="#000000" stroke="#000000" points="853.5497,-258.1881 862.2938,-257.4801 857.053,-256.2576 860.5564,-254.3271 860.5564,-254.3271 860.5564,-254.3271 857.053,-256.2576 858.8189,-251.1741 853.5497,-258.1881 853.5497,-258.1881"/>
<ellipse fill="none" stroke="#000000" cx="850.747" cy="-259.7325" rx="3.2" ry="3.2"/>
</g>
<!-- staging.ProviderAssignments&#45;&gt;HospitalizationStatuses -->
<g id="edge11" class="edge">
<title>staging.ProviderAssignments:w&#45;&gt;HospitalizationStatuses:e</title>
<path fill="none" stroke="#000000" d="M847.7806,-178.033C818.0143,-162.0619 781.9345,-145.7491 747,-137.7 626.599,-109.9589 592.3864,-131.2369 469,-137.7 413.7731,-140.5928 276.8026,-163.7 221.5,-163.7"/>
<polygon fill="#000000" stroke="#000000" points="853.5497,-181.2119 858.8189,-188.2259 857.053,-183.1424 860.5564,-185.0729 860.5564,-185.0729 860.5564,-185.0729 857.053,-183.1424 862.2938,-181.9199 853.5497,-181.2119 853.5497,-181.2119"/>
<ellipse fill="none" stroke="#000000" cx="850.747" cy="-179.6675" rx="3.2" ry="3.2"/>
</g>
<!-- staging.ProviderAssignments&#45;&gt;Patients -->
<g id="edge13" class="edge">
<title>staging.ProviderAssignments:w&#45;&gt;Patients:e</title>
<path fill="none" stroke="#000000" d="M887.4687,-266.6896C858.2163,-311.371 808.1175,-376.7886 747,-411.7 540.6153,-529.5908 455.1823,-486.7 217.5,-486.7"/>
<polygon fill="#000000" stroke="#000000" points="891.0234,-261.135 898.3678,-256.3371 893.1795,-257.7658 895.3355,-254.3966 895.3355,-254.3966 895.3355,-254.3966 893.1795,-257.7658 892.3033,-252.4562 891.0234,-261.135 891.0234,-261.135"/>
<ellipse fill="none" stroke="#000000" cx="889.2985" cy="-263.8303" rx="3.2" ry="3.2"/>
</g>
<!-- staging.ProviderAssignments&#45;&gt;Visits -->
<g id="edge15" class="edge">
<title>staging.ProviderAssignments:w&#45;&gt;Visits:e</title>
<path fill="none" stroke="#000000" d="M869.641,-263.9764C819.4707,-307.5812 734.5974,-367.7 648,-367.7"/>
<polygon fill="#000000" stroke="#000000" points="874.4353,-259.7145 882.8062,-257.09 877.4249,-257.057 880.4144,-254.3994 880.4144,-254.3994 880.4144,-254.3994 877.4249,-257.057 878.0226,-251.7088 874.4353,-259.7145 874.4353,-259.7145"/>
<ellipse fill="none" stroke="#000000" cx="872.0437" cy="-261.8406" rx="3.2" ry="3.2"/>
</g>
<!-- Providers -->
<g id="node10" class="node">
<title>Providers</title>
<g id="a_node10"><a xlink:href="../../tables/Providers.html" xlink:title="Providers" target="_top">
<polygon fill="#ffffff" stroke="transparent" points="553.5,-38.2 553.5,-99.2 662.5,-99.2 662.5,-38.2 553.5,-38.2"/>
<polygon fill="#f5f5f5" stroke="transparent" points="554,-75.7 554,-98.7 663,-98.7 663,-75.7 554,-75.7"/>
<polygon fill="none" stroke="#000000" points="554,-75.7 554,-98.7 663,-98.7 663,-75.7 554,-75.7"/>
<text text-anchor="start" x="559" y="-84.3" font-family="Helvetica,sans-Serif" font-weight="bold" font-size="11.00" fill="#000000">Providers</text>
<text text-anchor="start" x="628.5219" y="-83.8" font-family="Helvetica,sans-Serif" font-size="11.00" fill="#000000">[table]</text>
<polygon fill="none" stroke="#000000" points="554,-56.7 554,-75.7 663,-75.7 663,-56.7 554,-56.7"/>
<text text-anchor="start" x="557" y="-62.8" font-family="Helvetica,sans-Serif" font-size="11.00" fill="#000000">...</text>
<polygon fill="#ffffff" stroke="transparent" points="554,-37.7 554,-56.7 663,-56.7 663,-37.7 554,-37.7"/>
<polygon fill="none" stroke="#000000" points="554,-37.7 554,-56.7 663,-56.7 663,-37.7 554,-37.7"/>
<polygon fill="#ffffff" stroke="transparent" points="555,-38.7 555,-55.7 594,-55.7 594,-38.7 555,-38.7"/>
<text text-anchor="start" x="557" y="-43.8" font-family="Helvetica,sans-Serif" font-size="11.00" fill="#000000">&lt; 2</text>
<polygon fill="#ffffff" stroke="transparent" points="594,-38.7 594,-55.7 624,-55.7 624,-38.7 594,-38.7"/>
<text text-anchor="start" x="605.9431" y="-43.8" font-family="Helvetica,sans-Serif" font-size="11.00" fill="#000000"> &#160;</text>
<polygon fill="#ffffff" stroke="transparent" points="624,-38.7 624,-55.7 662,-55.7 662,-38.7 624,-38.7"/>
<text text-anchor="start" x="644.4053" y="-43.8" font-family="Helvetica,sans-Serif" font-size="11.00" fill="#000000">3 &gt;</text>
<polygon fill="#000000" stroke="#000000" points="594,-38.7 594,-55.7 594,-55.7 594,-38.7 594,-38.7"/>
<polygon fill="#000000" stroke="#000000" points="624,-38.7 624,-55.7 624,-55.7 624,-38.7 624,-38.7"/>
</a>
</g>
</g>
<!-- staging.ProviderAssignments&#45;&gt;Providers -->
<g id="edge12" class="edge">
<title>staging.ProviderAssignments:w&#45;&gt;Providers:e</title>
<path fill="none" stroke="#000000" d="M877.7767,-174.2657C831.8733,-127.3886 749.6977,-61.7426 663,-65.7"/>
<polygon fill="#000000" stroke="#000000" points="882.3157,-179.0392 885.2195,-187.3174 885.072,-181.938 887.8284,-184.8367 887.8284,-184.8367 887.8284,-184.8367 885.072,-181.938 890.4372,-182.356 882.3157,-179.0392 882.3157,-179.0392"/>
<ellipse fill="none" stroke="#000000" cx="880.1106" cy="-176.7202" rx="3.2" ry="3.2"/>
</g>
<!-- staging.ProviderAssignments&#45;&gt;Providers -->
<g id="edge14" class="edge">
<title>staging.ProviderAssignments:w&#45;&gt;Providers:e</title>
<path fill="none" stroke="#000000" d="M869.4758,-175.1561C822.3765,-131.1834 744.6959,-70.0506 663,-65.7"/>
<polygon fill="#000000" stroke="#000000" points="874.1166,-179.5707 877.4317,-187.6929 877.0148,-182.3276 879.913,-185.0845 879.913,-185.0845 879.913,-185.0845 877.0148,-182.3276 882.3942,-182.4761 874.1166,-179.5707 874.1166,-179.5707"/>
<ellipse fill="none" stroke="#000000" cx="871.798" cy="-177.3651" rx="3.2" ry="3.2"/>
</g>
</g>
</svg>
