<?xml version="1.0" encoding="UTF-8" standalone="no"?>
<!DOCTYPE svg PUBLIC "-//W3C//DTD SVG 1.1//EN"
 "http://www.w3.org/Graphics/SVG/1.1/DTD/svg11.dtd">
<!-- Generated by graphviz version 2.40.1 (20161225.0304)
 -->
<!-- Title: oneDegreeRelationshipsDiagram Pages: 1 -->
<svg width="831pt" height="463pt"
 viewBox="0.00 0.00 831.00 462.70" xmlns="http://www.w3.org/2000/svg" xmlns:xlink="http://www.w3.org/1999/xlink">
<g id="graph0" class="graph" transform="scale(1 1) rotate(0) translate(4 458.7)">
<title>oneDegreeRelationshipsDiagram</title>
<polygon fill="#ffffff" stroke="transparent" points="-4,4 -4,-458.7 827,-458.7 827,4 -4,4"/>
<text text-anchor="middle" x="72.4936" y="-7.3" font-family="Helvetica,sans-Serif" font-size="11.00" fill="#000000">Generated by SchemaSpy</text>
<!-- Hospitalizations -->
<g id="node1" class="node">
<title>Hospitalizations</title>
<g id="a_node1"><a xlink:href="../../tables/Hospitalizations.html" xlink:title="Hospitalizations" target="_top">
<polygon fill="#ffffff" stroke="transparent" points="266,-109.7 266,-280.7 459,-280.7 459,-109.7 266,-109.7"/>
<polygon fill="#f5f5f5" stroke="transparent" points="266.5,-257.2 266.5,-280.2 459.5,-280.2 459.5,-257.2 266.5,-257.2"/>
<polygon fill="none" stroke="#000000" points="266.5,-257.2 266.5,-280.2 459.5,-280.2 459.5,-257.2 266.5,-257.2"/>
<text text-anchor="start" x="271.5" y="-265.8" font-family="Helvetica,sans-Serif" font-weight="bold" font-size="11.00" fill="#000000">Hospitalizations</text>
<text text-anchor="start" x="424.5437" y="-265.3" font-family="Helvetica,sans-Serif" font-size="11.00" fill="#000000">[table]</text>
<polygon fill="none" stroke="#000000" points="266.5,-235.2 266.5,-257.2 459.5,-257.2 459.5,-235.2 266.5,-235.2"/>
<image xlink:href="../../images/primaryKeys.png" width="11px" height="12px" preserveAspectRatio="xMinYMin meet" x="271.5" y="-252.2"/>
<text text-anchor="start" x="286.5" y="-242.3" font-family="Helvetica,sans-Serif" font-size="11.00" fill="#000000">Id</text>
<polygon fill="#ffffff" stroke="transparent" points="266.5,-213.2 266.5,-235.2 459.5,-235.2 459.5,-213.2 266.5,-213.2"/>
<polygon fill="none" stroke="#000000" points="266.5,-213.2 266.5,-235.2 459.5,-235.2 459.5,-213.2 266.5,-213.2"/>
<image xlink:href="../../images/foreignKeys.png" width="11px" height="12px" preserveAspectRatio="xMinYMin meet" x="271.5" y="-230.2"/>
<text text-anchor="start" x="286.5" y="-220.3" font-family="Helvetica,sans-Serif" font-size="11.00" fill="#000000">PatientId</text>
<polygon fill="#ffffff" stroke="transparent" points="266.5,-191.2 266.5,-213.2 459.5,-213.2 459.5,-191.2 266.5,-191.2"/>
<polygon fill="none" stroke="#000000" points="266.5,-191.2 266.5,-213.2 459.5,-213.2 459.5,-191.2 266.5,-191.2"/>
<text text-anchor="start" x="286.5" y="-198.3" font-family="Helvetica,sans-Serif" font-size="11.00" fill="#000000">CaseId</text>
<polygon fill="#ffffff" stroke="transparent" points="266.5,-169.2 266.5,-191.2 459.5,-191.2 459.5,-169.2 266.5,-169.2"/>
<polygon fill="none" stroke="#000000" points="266.5,-169.2 266.5,-191.2 459.5,-191.2 459.5,-169.2 266.5,-169.2"/>
<image xlink:href="../../images/foreignKeys.png" width="11px" height="12px" preserveAspectRatio="xMinYMin meet" x="271.5" y="-186.2"/>
<text text-anchor="start" x="286.5" y="-176.3" font-family="Helvetica,sans-Serif" font-size="11.00" fill="#000000">FacilityId</text>
<polygon fill="#ffffff" stroke="transparent" points="266.5,-147.2 266.5,-169.2 459.5,-169.2 459.5,-147.2 266.5,-147.2"/>
<polygon fill="none" stroke="#000000" points="266.5,-147.2 266.5,-169.2 459.5,-169.2 459.5,-147.2 266.5,-147.2"/>
<image xlink:href="../../images/foreignKeys.png" width="11px" height="12px" preserveAspectRatio="xMinYMin meet" x="271.5" y="-164.2"/>
<text text-anchor="start" x="286.5" y="-154.3" font-family="Helvetica,sans-Serif" font-size="11.00" fill="#000000">HospitalizationStatusId</text>
<polygon fill="none" stroke="#000000" points="266.5,-128.2 266.5,-147.2 459.5,-147.2 459.5,-128.2 266.5,-128.2"/>
<text text-anchor="start" x="269.5" y="-134.3" font-family="Helvetica,sans-Serif" font-size="11.00" fill="#000000">...</text>
<polygon fill="#ffffff" stroke="transparent" points="266.5,-109.2 266.5,-128.2 459.5,-128.2 459.5,-109.2 266.5,-109.2"/>
<polygon fill="none" stroke="#000000" points="266.5,-109.2 266.5,-128.2 459.5,-128.2 459.5,-109.2 266.5,-109.2"/>
<polygon fill="#ffffff" stroke="transparent" points="267.5,-110.2 267.5,-127.2 334.5,-127.2 334.5,-110.2 267.5,-110.2"/>
<text text-anchor="start" x="269.5" y="-115.3" font-family="Helvetica,sans-Serif" font-size="11.00" fill="#000000">&lt; 3</text>
<polygon fill="#ffffff" stroke="transparent" points="334.5,-110.2 334.5,-127.2 392.5,-127.2 392.5,-110.2 334.5,-110.2"/>
<text text-anchor="start" x="360.4431" y="-115.3" font-family="Helvetica,sans-Serif" font-size="11.00" fill="#000000"> &#160;</text>
<polygon fill="#ffffff" stroke="transparent" points="392.5,-110.2 392.5,-127.2 458.5,-127.2 458.5,-110.2 392.5,-110.2"/>
<text text-anchor="start" x="440.9053" y="-115.3" font-family="Helvetica,sans-Serif" font-size="11.00" fill="#000000">4 &gt;</text>
<polygon fill="#000000" stroke="#000000" points="334.5,-110.2 334.5,-127.2 334.5,-127.2 334.5,-110.2 334.5,-110.2"/>
<polygon fill="#000000" stroke="#000000" points="392.5,-110.2 392.5,-127.2 392.5,-127.2 392.5,-110.2 392.5,-110.2"/>
</a>
</g>
</g>
<!-- Patients -->
<g id="node2" class="node">
<title>Patients</title>
<g id="a_node2"><a xlink:href="../../tables/Patients.html" xlink:title="Patients" target="_top">
<polygon fill="#ffffff" stroke="transparent" points="8,-38.2 8,-260.2 217,-260.2 217,-38.2 8,-38.2"/>
<polygon fill="#f5f5f5" stroke="transparent" points="10.5,-235.2 10.5,-258.2 215.5,-258.2 215.5,-235.2 10.5,-235.2"/>
<polygon fill="none" stroke="#000000" points="10.5,-235.2 10.5,-258.2 215.5,-258.2 215.5,-235.2 10.5,-235.2"/>
<text text-anchor="start" x="15.5" y="-243.8" font-family="Helvetica,sans-Serif" font-weight="bold" font-size="11.00" fill="#000000">Patients</text>
<text text-anchor="start" x="180.5437" y="-243.3" font-family="Helvetica,sans-Serif" font-size="11.00" fill="#000000">[table]</text>
<polygon fill="none" stroke="#000000" points="10.5,-213.2 10.5,-235.2 134.5,-235.2 134.5,-213.2 10.5,-213.2"/>
<image xlink:href="../../images/primaryKeys.png" width="11px" height="12px" preserveAspectRatio="xMinYMin meet" x="15.5" y="-230.2"/>
<text text-anchor="start" x="30.5" y="-220.3" font-family="Helvetica,sans-Serif" font-size="11.00" fill="#000000">Id</text>
<polygon fill="none" stroke="#000000" points="134.5,-213.2 134.5,-235.2 215.5,-235.2 215.5,-213.2 134.5,-213.2"/>
<text text-anchor="start" x="137.5" y="-220.9" font-family="Helvetica,sans-Serif" font-size="11.00" fill="#000000">int identity[4]</text>
<polygon fill="none" stroke="#000000" points="10.5,-191.2 10.5,-213.2 134.5,-213.2 134.5,-191.2 10.5,-191.2"/>
<text text-anchor="start" x="30.5" y="-198.3" font-family="Helvetica,sans-Serif" font-size="11.00" fill="#000000">BirthDate</text>
<polygon fill="none" stroke="#000000" points="134.5,-191.2 134.5,-213.2 215.5,-213.2 215.5,-191.2 134.5,-191.2"/>
<text text-anchor="start" x="137.5" y="-198.9" font-family="Helvetica,sans-Serif" font-size="11.00" fill="#000000">date[6]</text>
<polygon fill="none" stroke="#000000" points="10.5,-169.2 10.5,-191.2 134.5,-191.2 134.5,-169.2 10.5,-169.2"/>
<text text-anchor="start" x="30.5" y="-176.3" font-family="Helvetica,sans-Serif" font-size="11.00" fill="#000000">FirstName</text>
<polygon fill="none" stroke="#000000" points="134.5,-169.2 134.5,-191.2 215.5,-191.2 215.5,-169.2 134.5,-169.2"/>
<text text-anchor="start" x="137.5" y="-176.9" font-family="Helvetica,sans-Serif" font-size="11.00" fill="#000000">nvarchar[100]</text>
<polygon fill="none" stroke="#000000" points="10.5,-147.2 10.5,-169.2 134.5,-169.2 134.5,-147.2 10.5,-147.2"/>
<text text-anchor="start" x="30.5" y="-154.3" font-family="Helvetica,sans-Serif" font-size="11.00" fill="#000000">Gender</text>
<polygon fill="none" stroke="#000000" points="134.5,-147.2 134.5,-169.2 215.5,-169.2 215.5,-147.2 134.5,-147.2"/>
<text text-anchor="start" x="137.5" y="-154.9" font-family="Helvetica,sans-Serif" font-size="11.00" fill="#000000">int[4]</text>
<polygon fill="none" stroke="#000000" points="10.5,-125.2 10.5,-147.2 134.5,-147.2 134.5,-125.2 10.5,-125.2"/>
<text text-anchor="start" x="30.5" y="-132.3" font-family="Helvetica,sans-Serif" font-size="11.00" fill="#000000">LastName</text>
<polygon fill="none" stroke="#000000" points="134.5,-125.2 134.5,-147.2 215.5,-147.2 215.5,-125.2 134.5,-125.2"/>
<text text-anchor="start" x="137.5" y="-132.9" font-family="Helvetica,sans-Serif" font-size="11.00" fill="#000000">nvarchar[100]</text>
<polygon fill="none" stroke="#000000" points="10.5,-103.2 10.5,-125.2 134.5,-125.2 134.5,-103.2 10.5,-103.2"/>
<text text-anchor="start" x="30.5" y="-110.3" font-family="Helvetica,sans-Serif" font-size="11.00" fill="#000000">CreatedAtUtc</text>
<polygon fill="none" stroke="#000000" points="134.5,-103.2 134.5,-125.2 215.5,-125.2 215.5,-103.2 134.5,-103.2"/>
<text text-anchor="start" x="137.0967" y="-110.9" font-family="Helvetica,sans-Serif" font-size="11.00" fill="#000000">datetime2[16,7]</text>
<polygon fill="none" stroke="#000000" points="10.5,-81.2 10.5,-103.2 134.5,-103.2 134.5,-81.2 10.5,-81.2"/>
<text text-anchor="start" x="30.5" y="-88.3" font-family="Helvetica,sans-Serif" font-size="11.00" fill="#000000">UpdatedAtUtc</text>
<polygon fill="none" stroke="#000000" points="134.5,-81.2 134.5,-103.2 215.5,-103.2 215.5,-81.2 134.5,-81.2"/>
<text text-anchor="start" x="137.0967" y="-88.9" font-family="Helvetica,sans-Serif" font-size="11.00" fill="#000000">datetime2[16,7]</text>
<polygon fill="none" stroke="#000000" points="10.5,-59.2 10.5,-81.2 134.5,-81.2 134.5,-59.2 10.5,-59.2"/>
<text text-anchor="start" x="30.5" y="-66.3" font-family="Helvetica,sans-Serif" font-size="11.00" fill="#000000">RowVersion</text>
<polygon fill="none" stroke="#000000" points="134.5,-59.2 134.5,-81.2 215.5,-81.2 215.5,-59.2 134.5,-59.2"/>
<text text-anchor="start" x="137.5" y="-66.9" font-family="Helvetica,sans-Serif" font-size="11.00" fill="#000000">timestamp[8]</text>
<polygon fill="#ffffff" stroke="transparent" points="10.5,-40.2 10.5,-59.2 215.5,-59.2 215.5,-40.2 10.5,-40.2"/>
<polygon fill="none" stroke="#000000" points="10.5,-40.2 10.5,-59.2 215.5,-59.2 215.5,-40.2 10.5,-40.2"/>
<polygon fill="#ffffff" stroke="transparent" points="11.5,-41.2 11.5,-58.2 82.5,-58.2 82.5,-41.2 11.5,-41.2"/>
<text text-anchor="start" x="13.5" y="-46.3" font-family="Helvetica,sans-Serif" font-size="11.00" fill="#000000">&lt; 0</text>
<polygon fill="#ffffff" stroke="transparent" points="82.5,-41.2 82.5,-58.2 144.5,-58.2 144.5,-41.2 82.5,-41.2"/>
<text text-anchor="start" x="110.4431" y="-46.3" font-family="Helvetica,sans-Serif" font-size="11.00" fill="#000000"> &#160;</text>
<polygon fill="#ffffff" stroke="transparent" points="144.5,-41.2 144.5,-58.2 214.5,-58.2 214.5,-41.2 144.5,-41.2"/>
<text text-anchor="start" x="196.9053" y="-46.3" font-family="Helvetica,sans-Serif" font-size="11.00" fill="#000000">3 &gt;</text>
<polygon fill="#000000" stroke="#000000" points="82.5,-41.2 82.5,-58.2 82.5,-58.2 82.5,-41.2 82.5,-41.2"/>
<polygon fill="#000000" stroke="#000000" points="144.5,-41.2 144.5,-58.2 144.5,-58.2 144.5,-41.2 144.5,-41.2"/>
<polygon fill="none" stroke="#000000" stroke-width="2" points="9,-39.2 9,-259.2 216,-259.2 216,-39.2 9,-39.2"/>
</a>
</g>
</g>
<!-- Hospitalizations&#45;&gt;Patients -->
<g id="edge1" class="edge">
<title>Hospitalizations:w&#45;&gt;Patients:e</title>
<path fill="none" stroke="#000000" d="M251.776,-224.2C239.7815,-224.2 232.3229,-224.2 215.5,-224.2"/>
<polygon fill="#000000" stroke="#000000" points="258.5,-224.2001 266.5,-227.8 262.5,-224.2 266.5,-224.2 266.5,-224.2 266.5,-224.2 262.5,-224.2 266.5,-220.6 258.5,-224.2001 258.5,-224.2001"/>
<ellipse fill="none" stroke="#000000" cx="255.3" cy="-224.2001" rx="3.2" ry="3.2"/>
</g>
<!-- PatientFacilities -->
<g id="node3" class="node">
<title>PatientFacilities</title>
<g id="a_node3"><a xlink:href="../../tables/PatientFacilities.html" xlink:title="PatientFacilities" target="_top">
<polygon fill="#ffffff" stroke="transparent" points="283.5,-301.7 283.5,-450.7 441.5,-450.7 441.5,-301.7 283.5,-301.7"/>
<polygon fill="#f5f5f5" stroke="transparent" points="283.5,-427.2 283.5,-450.2 441.5,-450.2 441.5,-427.2 283.5,-427.2"/>
<polygon fill="none" stroke="#000000" points="283.5,-427.2 283.5,-450.2 441.5,-450.2 441.5,-427.2 283.5,-427.2"/>
<text text-anchor="start" x="288.5" y="-435.8" font-family="Helvetica,sans-Serif" font-weight="bold" font-size="11.00" fill="#000000">PatientFacilities</text>
<text text-anchor="start" x="407.0219" y="-435.3" font-family="Helvetica,sans-Serif" font-size="11.00" fill="#000000">[table]</text>
<polygon fill="none" stroke="#000000" points="283.5,-405.2 283.5,-427.2 441.5,-427.2 441.5,-405.2 283.5,-405.2"/>
<image xlink:href="../../images/primaryKeys.png" width="11px" height="12px" preserveAspectRatio="xMinYMin meet" x="288.5" y="-422.2"/>
<text text-anchor="start" x="312.5" y="-412.3" font-family="Helvetica,sans-Serif" font-size="11.00" fill="#000000">Id</text>
<polygon fill="#ffffff" stroke="transparent" points="283.5,-383.2 283.5,-405.2 441.5,-405.2 441.5,-383.2 283.5,-383.2"/>
<polygon fill="none" stroke="#000000" points="283.5,-383.2 283.5,-405.2 441.5,-405.2 441.5,-383.2 283.5,-383.2"/>
<image xlink:href="../../images/foreignKeys.png" width="11px" height="12px" preserveAspectRatio="xMinYMin meet" x="288.5" y="-400.2"/>
<text text-anchor="start" x="312.5" y="-390.3" font-family="Helvetica,sans-Serif" font-size="11.00" fill="#000000">PatientId</text>
<polygon fill="#ffffff" stroke="transparent" points="283.5,-361.2 283.5,-383.2 441.5,-383.2 441.5,-361.2 283.5,-361.2"/>
<polygon fill="none" stroke="#000000" points="283.5,-361.2 283.5,-383.2 441.5,-383.2 441.5,-361.2 283.5,-361.2"/>
<image xlink:href="../../images/foreignKeys.png" width="11px" height="12px" preserveAspectRatio="xMinYMin meet" x="288.5" y="-378.2"/>
<text text-anchor="start" x="312.5" y="-368.3" font-family="Helvetica,sans-Serif" font-size="11.00" fill="#000000">FacilityId</text>
<polygon fill="#ffffff" stroke="transparent" points="283.5,-339.2 283.5,-361.2 441.5,-361.2 441.5,-339.2 283.5,-339.2"/>
<polygon fill="none" stroke="#000000" points="283.5,-339.2 283.5,-361.2 441.5,-361.2 441.5,-339.2 283.5,-339.2"/>
<text text-anchor="start" x="312.5" y="-346.3" font-family="Helvetica,sans-Serif" font-size="11.00" fill="#000000">MRN</text>
<polygon fill="none" stroke="#000000" points="283.5,-320.2 283.5,-339.2 441.5,-339.2 441.5,-320.2 283.5,-320.2"/>
<text text-anchor="start" x="286.5" y="-326.3" font-family="Helvetica,sans-Serif" font-size="11.00" fill="#000000">...</text>
<polygon fill="#ffffff" stroke="transparent" points="283.5,-301.2 283.5,-320.2 441.5,-320.2 441.5,-301.2 283.5,-301.2"/>
<polygon fill="none" stroke="#000000" points="283.5,-301.2 283.5,-320.2 441.5,-320.2 441.5,-301.2 283.5,-301.2"/>
<polygon fill="#ffffff" stroke="transparent" points="284.5,-302.2 284.5,-319.2 342.5,-319.2 342.5,-302.2 284.5,-302.2"/>
<text text-anchor="start" x="286.5" y="-307.3" font-family="Helvetica,sans-Serif" font-size="11.00" fill="#000000">&lt; 2</text>
<polygon fill="#ffffff" stroke="transparent" points="342.5,-302.2 342.5,-319.2 391.5,-319.2 391.5,-302.2 342.5,-302.2"/>
<text text-anchor="start" x="363.9431" y="-307.3" font-family="Helvetica,sans-Serif" font-size="11.00" fill="#000000"> &#160;</text>
<polygon fill="#ffffff" stroke="transparent" points="391.5,-302.2 391.5,-319.2 440.5,-319.2 440.5,-302.2 391.5,-302.2"/>
<text text-anchor="start" x="432.3862" y="-307.3" font-family="Helvetica,sans-Serif" font-size="11.00" fill="#000000"> &#160;</text>
<polygon fill="#000000" stroke="#000000" points="342.5,-302.2 342.5,-319.2 342.5,-319.2 342.5,-302.2 342.5,-302.2"/>
<polygon fill="#000000" stroke="#000000" points="391.5,-302.2 391.5,-319.2 391.5,-319.2 391.5,-302.2 391.5,-302.2"/>
</a>
</g>
</g>
<!-- PatientFacilities&#45;&gt;Patients -->
<g id="edge2" class="edge">
<title>PatientFacilities:w&#45;&gt;Patients:e</title>
<path fill="none" stroke="#000000" d="M269.1682,-391.9254C214.2555,-371.7522 291.313,-224.2 215.5,-224.2"/>
<polygon fill="#000000" stroke="#000000" points="275.5989,-392.946 282.9357,-397.7555 279.5494,-393.573 283.5,-394.2 283.5,-394.2 283.5,-394.2 279.5494,-393.573 284.0643,-390.6445 275.5989,-392.946 275.5989,-392.946"/>
<ellipse fill="none" stroke="#000000" cx="272.4384" cy="-392.4443" rx="3.2" ry="3.2"/>
</g>
<!-- staging.ProviderAssignments -->
<g id="node4" class="node">
<title>staging.ProviderAssignments</title>
<g id="a_node4"><a xlink:title="staging.ProviderAssignments">
<polygon fill="#ffffff" stroke="transparent" points="508,-39.7 508,-232.7 815,-232.7 815,-39.7 508,-39.7"/>
<polygon fill="#f5f5f5" stroke="transparent" points="508.5,-209.2 508.5,-232.2 815.5,-232.2 815.5,-209.2 508.5,-209.2"/>
<polygon fill="none" stroke="#000000" points="508.5,-209.2 508.5,-232.2 815.5,-232.2 815.5,-209.2 508.5,-209.2"/>
<text text-anchor="start" x="513.5" y="-217.8" font-family="Helvetica,sans-Serif" font-weight="bold" font-size="11.00" fill="#000000">staging.ProviderAssignments</text>
<text text-anchor="start" x="780.5437" y="-217.3" font-family="Helvetica,sans-Serif" font-size="11.00" fill="#000000">[table]</text>
<polygon fill="none" stroke="#000000" points="508.5,-187.2 508.5,-209.2 815.5,-209.2 815.5,-187.2 508.5,-187.2"/>
<image xlink:href="../../images/foreignKeys.png" width="11px" height="12px" preserveAspectRatio="xMinYMin meet" x="513.5" y="-204.2"/>
<text text-anchor="start" x="528.5" y="-194.3" font-family="Helvetica,sans-Serif" font-size="11.00" fill="#000000">ResolvedPhysicianId</text>
<polygon fill="none" stroke="#000000" points="508.5,-165.2 508.5,-187.2 815.5,-187.2 815.5,-165.2 508.5,-165.2"/>
<image xlink:href="../../images/foreignKeys.png" width="11px" height="12px" preserveAspectRatio="xMinYMin meet" x="513.5" y="-182.2"/>
<text text-anchor="start" x="528.5" y="-172.3" font-family="Helvetica,sans-Serif" font-size="11.00" fill="#000000">ResolvedHospitalizationId</text>
<polygon fill="none" stroke="#000000" points="508.5,-143.2 508.5,-165.2 815.5,-165.2 815.5,-143.2 508.5,-143.2"/>
<image xlink:href="../../images/foreignKeys.png" width="11px" height="12px" preserveAspectRatio="xMinYMin meet" x="513.5" y="-160.2"/>
<text text-anchor="start" x="528.5" y="-150.3" font-family="Helvetica,sans-Serif" font-size="11.00" fill="#000000">ResolvedPatientId</text>
<polygon fill="none" stroke="#000000" points="508.5,-121.2 508.5,-143.2 815.5,-143.2 815.5,-121.2 508.5,-121.2"/>
<image xlink:href="../../images/foreignKeys.png" width="11px" height="12px" preserveAspectRatio="xMinYMin meet" x="513.5" y="-138.2"/>
<text text-anchor="start" x="528.5" y="-128.3" font-family="Helvetica,sans-Serif" font-size="11.00" fill="#000000">ResolvedNursePractitionerId</text>
<polygon fill="none" stroke="#000000" points="508.5,-99.2 508.5,-121.2 815.5,-121.2 815.5,-99.2 508.5,-99.2"/>
<image xlink:href="../../images/foreignKeys.png" width="11px" height="12px" preserveAspectRatio="xMinYMin meet" x="513.5" y="-116.2"/>
<text text-anchor="start" x="528.5" y="-106.3" font-family="Helvetica,sans-Serif" font-size="11.00" fill="#000000">ResolvedVisitId</text>
<polygon fill="none" stroke="#000000" points="508.5,-77.2 508.5,-99.2 815.5,-99.2 815.5,-77.2 508.5,-77.2"/>
<image xlink:href="../../images/foreignKeys.png" width="11px" height="12px" preserveAspectRatio="xMinYMin meet" x="513.5" y="-94.2"/>
<text text-anchor="start" x="528.5" y="-84.3" font-family="Helvetica,sans-Serif" font-size="11.00" fill="#000000">ResolvedHospitalizationStatusId</text>
<polygon fill="none" stroke="#000000" points="508.5,-58.2 508.5,-77.2 815.5,-77.2 815.5,-58.2 508.5,-58.2"/>
<text text-anchor="start" x="511.5" y="-64.3" font-family="Helvetica,sans-Serif" font-size="11.00" fill="#000000">...</text>
<polygon fill="#ffffff" stroke="transparent" points="508.5,-39.2 508.5,-58.2 815.5,-58.2 815.5,-39.2 508.5,-39.2"/>
<polygon fill="none" stroke="#000000" points="508.5,-39.2 508.5,-58.2 815.5,-58.2 815.5,-39.2 508.5,-39.2"/>
<polygon fill="#ffffff" stroke="transparent" points="509.5,-40.2 509.5,-57.2 617.5,-57.2 617.5,-40.2 509.5,-40.2"/>
<text text-anchor="start" x="511.5" y="-45.3" font-family="Helvetica,sans-Serif" font-size="11.00" fill="#000000">&lt; 6</text>
<polygon fill="#ffffff" stroke="transparent" points="617.5,-40.2 617.5,-57.2 716.5,-57.2 716.5,-40.2 617.5,-40.2"/>
<text text-anchor="start" x="663.9431" y="-45.3" font-family="Helvetica,sans-Serif" font-size="11.00" fill="#000000"> &#160;</text>
<polygon fill="#ffffff" stroke="transparent" points="716.5,-40.2 716.5,-57.2 814.5,-57.2 814.5,-40.2 716.5,-40.2"/>
<text text-anchor="start" x="806.3862" y="-45.3" font-family="Helvetica,sans-Serif" font-size="11.00" fill="#000000"> &#160;</text>
<polygon fill="#000000" stroke="#000000" points="617.5,-40.2 617.5,-57.2 617.5,-57.2 617.5,-40.2 617.5,-40.2"/>
<polygon fill="#000000" stroke="#000000" points="716.5,-40.2 716.5,-57.2 716.5,-57.2 716.5,-40.2 716.5,-40.2"/>
</a>
</g>
</g>
<!-- staging.ProviderAssignments&#45;&gt;Hospitalizations -->
<g id="edge3" class="edge">
<title>staging.ProviderAssignments:w&#45;&gt;Hospitalizations:e</title>
<path fill="none" stroke="#000000" d="M494.4782,-181.2342C477.62,-197.2846 491.2455,-246.2 459.5,-246.2"/>
<polygon fill="#000000" stroke="#000000" points="500.9706,-178.9033 509.7165,-179.5882 504.7353,-177.5517 508.5,-176.2 508.5,-176.2 508.5,-176.2 504.7353,-177.5517 507.2835,-172.8118 500.9706,-178.9033 500.9706,-178.9033"/>
<ellipse fill="none" stroke="#000000" cx="497.9588" cy="-179.9846" rx="3.2" ry="3.2"/>
</g>
<!-- staging.ProviderAssignments&#45;&gt;Patients -->
<g id="edge4" class="edge">
<title>staging.ProviderAssignments:w&#45;&gt;Patients:e</title>
<path fill="none" stroke="#000000" d="M494.5611,-149.329C482.8968,-137.9896 488.6277,-109.9746 467,-99.2 383.8574,-57.7795 333.5177,-45.1128 258,-99.2 210.2947,-133.3675 274.1789,-224.2 215.5,-224.2"/>
<polygon fill="#000000" stroke="#000000" points="500.9478,-151.5609 507.3124,-157.5985 504.7239,-152.8804 508.5,-154.2 508.5,-154.2 508.5,-154.2 504.7239,-152.8804 509.6876,-150.8015 500.9478,-151.5609 500.9478,-151.5609"/>
<ellipse fill="none" stroke="#000000" cx="497.927" cy="-150.5052" rx="3.2" ry="3.2"/>
</g>
</g>
</svg>
