<?xml version="1.0" encoding="UTF-8" standalone="no"?>
<!DOCTYPE svg PUBLIC "-//W3C//DTD SVG 1.1//EN"
 "http://www.w3.org/Graphics/SVG/1.1/DTD/svg11.dtd">
<!-- Generated by graphviz version 2.40.1 (20161225.0304)
 -->
<!-- Title: twoDegreesRelationshipsDiagram Pages: 1 -->
<svg width="1135pt" height="478pt"
 viewBox="0.00 0.00 1135.00 477.70" xmlns="http://www.w3.org/2000/svg" xmlns:xlink="http://www.w3.org/1999/xlink">
<g id="graph0" class="graph" transform="scale(1 1) rotate(0) translate(4 473.7)">
<title>twoDegreesRelationshipsDiagram</title>
<polygon fill="#ffffff" stroke="transparent" points="-4,4 -4,-473.7 1131,-473.7 1131,4 -4,4"/>
<text text-anchor="middle" x="72.4936" y="-7.3" font-family="Helvetica,sans-Serif" font-size="11.00" fill="#000000">Generated by SchemaSpy</text>
<!-- Hospitalizations -->
<g id="node1" class="node">
<title>Hospitalizations</title>
<g id="a_node1"><a xlink:href="../../tables/Hospitalizations.html" xlink:title="Hospitalizations" target="_top">
<polygon fill="#ffffff" stroke="transparent" points="305,-77.2 305,-138.2 462,-138.2 462,-77.2 305,-77.2"/>
<polygon fill="#f5f5f5" stroke="transparent" points="305.5,-114.7 305.5,-137.7 462.5,-137.7 462.5,-114.7 305.5,-114.7"/>
<polygon fill="none" stroke="#000000" points="305.5,-114.7 305.5,-137.7 462.5,-137.7 462.5,-114.7 305.5,-114.7"/>
<text text-anchor="start" x="310.5" y="-123.3" font-family="Helvetica,sans-Serif" font-weight="bold" font-size="11.00" fill="#000000">Hospitalizations</text>
<text text-anchor="start" x="428.0219" y="-122.8" font-family="Helvetica,sans-Serif" font-size="11.00" fill="#000000">[table]</text>
<polygon fill="none" stroke="#000000" points="305.5,-95.7 305.5,-114.7 462.5,-114.7 462.5,-95.7 305.5,-95.7"/>
<text text-anchor="start" x="308.5" y="-101.8" font-family="Helvetica,sans-Serif" font-size="11.00" fill="#000000">...</text>
<polygon fill="#ffffff" stroke="transparent" points="305.5,-76.7 305.5,-95.7 462.5,-95.7 462.5,-76.7 305.5,-76.7"/>
<polygon fill="none" stroke="#000000" points="305.5,-76.7 305.5,-95.7 462.5,-95.7 462.5,-76.7 305.5,-76.7"/>
<polygon fill="#ffffff" stroke="transparent" points="306.5,-77.7 306.5,-94.7 361.5,-94.7 361.5,-77.7 306.5,-77.7"/>
<text text-anchor="start" x="308.5" y="-82.8" font-family="Helvetica,sans-Serif" font-size="11.00" fill="#000000">&lt; 3</text>
<polygon fill="#ffffff" stroke="transparent" points="361.5,-77.7 361.5,-94.7 407.5,-94.7 407.5,-77.7 361.5,-77.7"/>
<text text-anchor="start" x="381.4431" y="-82.8" font-family="Helvetica,sans-Serif" font-size="11.00" fill="#000000"> &#160;</text>
<polygon fill="#ffffff" stroke="transparent" points="407.5,-77.7 407.5,-94.7 461.5,-94.7 461.5,-77.7 407.5,-77.7"/>
<text text-anchor="start" x="443.9053" y="-82.8" font-family="Helvetica,sans-Serif" font-size="11.00" fill="#000000">4 &gt;</text>
<polygon fill="#000000" stroke="#000000" points="361.5,-77.7 361.5,-94.7 361.5,-94.7 361.5,-77.7 361.5,-77.7"/>
<polygon fill="#000000" stroke="#000000" points="407.5,-77.7 407.5,-94.7 407.5,-94.7 407.5,-77.7 407.5,-77.7"/>
</a>
</g>
</g>
<!-- HospitalizationStatuses -->
<g id="node2" class="node">
<title>HospitalizationStatuses</title>
<g id="a_node2"><a xlink:href="../../tables/HospitalizationStatuses.html" xlink:title="HospitalizationStatuses" target="_top">
<polygon fill="#ffffff" stroke="transparent" points="8,-38.2 8,-99.2 221,-99.2 221,-38.2 8,-38.2"/>
<polygon fill="#f5f5f5" stroke="transparent" points="8.5,-75.7 8.5,-98.7 221.5,-98.7 221.5,-75.7 8.5,-75.7"/>
<polygon fill="none" stroke="#000000" points="8.5,-75.7 8.5,-98.7 221.5,-98.7 221.5,-75.7 8.5,-75.7"/>
<text text-anchor="start" x="13.5" y="-84.3" font-family="Helvetica,sans-Serif" font-weight="bold" font-size="11.00" fill="#000000">HospitalizationStatuses</text>
<text text-anchor="start" x="187.0219" y="-83.8" font-family="Helvetica,sans-Serif" font-size="11.00" fill="#000000">[table]</text>
<polygon fill="none" stroke="#000000" points="8.5,-56.7 8.5,-75.7 221.5,-75.7 221.5,-56.7 8.5,-56.7"/>
<text text-anchor="start" x="11.5" y="-62.8" font-family="Helvetica,sans-Serif" font-size="11.00" fill="#000000">...</text>
<polygon fill="#ffffff" stroke="transparent" points="8.5,-37.7 8.5,-56.7 221.5,-56.7 221.5,-37.7 8.5,-37.7"/>
<polygon fill="none" stroke="#000000" points="8.5,-37.7 8.5,-56.7 221.5,-56.7 221.5,-37.7 8.5,-37.7"/>
<polygon fill="#ffffff" stroke="transparent" points="9.5,-38.7 9.5,-55.7 77.5,-55.7 77.5,-38.7 9.5,-38.7"/>
<text text-anchor="start" x="11.5" y="-43.8" font-family="Helvetica,sans-Serif" font-size="11.00" fill="#000000"> &#160;</text>
<polygon fill="#ffffff" stroke="transparent" points="77.5,-38.7 77.5,-55.7 144.5,-55.7 144.5,-38.7 77.5,-38.7"/>
<text text-anchor="start" x="107.9431" y="-43.8" font-family="Helvetica,sans-Serif" font-size="11.00" fill="#000000"> &#160;</text>
<polygon fill="#ffffff" stroke="transparent" points="144.5,-38.7 144.5,-55.7 220.5,-55.7 220.5,-38.7 144.5,-38.7"/>
<text text-anchor="start" x="202.9053" y="-43.8" font-family="Helvetica,sans-Serif" font-size="11.00" fill="#000000">3 &gt;</text>
<polygon fill="#000000" stroke="#000000" points="77.5,-38.7 77.5,-55.7 77.5,-55.7 77.5,-38.7 77.5,-38.7"/>
<polygon fill="#000000" stroke="#000000" points="144.5,-38.7 144.5,-55.7 144.5,-55.7 144.5,-38.7 144.5,-38.7"/>
</a>
</g>
</g>
<!-- Hospitalizations&#45;&gt;HospitalizationStatuses -->
<g id="edge1" class="edge">
<title>Hospitalizations:w&#45;&gt;HospitalizationStatuses:e</title>
<path fill="none" stroke="#000000" d="M291.0043,-102.8189C263.1969,-95.0286 257.1942,-65.7 221.5,-65.7"/>
<polygon fill="#000000" stroke="#000000" points="297.5665,-103.6705 305.0367,-108.2701 301.5333,-104.1852 305.5,-104.7 305.5,-104.7 305.5,-104.7 301.5333,-104.1852 305.9633,-101.1299 297.5665,-103.6705 297.5665,-103.6705"/>
<ellipse fill="none" stroke="#000000" cx="294.3931" cy="-103.2586" rx="3.2" ry="3.2"/>
</g>
<!-- Patients -->
<g id="node3" class="node">
<title>Patients</title>
<g id="a_node3"><a xlink:href="../../tables/Patients.html" xlink:title="Patients" target="_top">
<polygon fill="#ffffff" stroke="transparent" points="65,-134.2 65,-195.2 164,-195.2 164,-134.2 65,-134.2"/>
<polygon fill="#f5f5f5" stroke="transparent" points="65.5,-171.7 65.5,-194.7 164.5,-194.7 164.5,-171.7 65.5,-171.7"/>
<polygon fill="none" stroke="#000000" points="65.5,-171.7 65.5,-194.7 164.5,-194.7 164.5,-171.7 65.5,-171.7"/>
<text text-anchor="start" x="70.5" y="-180.3" font-family="Helvetica,sans-Serif" font-weight="bold" font-size="11.00" fill="#000000">Patients</text>
<text text-anchor="start" x="130.0219" y="-179.8" font-family="Helvetica,sans-Serif" font-size="11.00" fill="#000000">[table]</text>
<polygon fill="none" stroke="#000000" points="65.5,-152.7 65.5,-171.7 164.5,-171.7 164.5,-152.7 65.5,-152.7"/>
<text text-anchor="start" x="68.5" y="-158.8" font-family="Helvetica,sans-Serif" font-size="11.00" fill="#000000">...</text>
<polygon fill="#ffffff" stroke="transparent" points="65.5,-133.7 65.5,-152.7 164.5,-152.7 164.5,-133.7 65.5,-133.7"/>
<polygon fill="none" stroke="#000000" points="65.5,-133.7 65.5,-152.7 164.5,-152.7 164.5,-133.7 65.5,-133.7"/>
<polygon fill="#ffffff" stroke="transparent" points="66.5,-134.7 66.5,-151.7 96.5,-151.7 96.5,-134.7 66.5,-134.7"/>
<text text-anchor="start" x="68.5" y="-139.8" font-family="Helvetica,sans-Serif" font-size="11.00" fill="#000000"> &#160;</text>
<polygon fill="#ffffff" stroke="transparent" points="96.5,-134.7 96.5,-151.7 125.5,-151.7 125.5,-134.7 96.5,-134.7"/>
<text text-anchor="start" x="107.9431" y="-139.8" font-family="Helvetica,sans-Serif" font-size="11.00" fill="#000000"> &#160;</text>
<polygon fill="#ffffff" stroke="transparent" points="125.5,-134.7 125.5,-151.7 163.5,-151.7 163.5,-134.7 125.5,-134.7"/>
<text text-anchor="start" x="145.9053" y="-139.8" font-family="Helvetica,sans-Serif" font-size="11.00" fill="#000000">3 &gt;</text>
<polygon fill="#000000" stroke="#000000" points="96.5,-134.7 96.5,-151.7 96.5,-151.7 96.5,-134.7 96.5,-134.7"/>
<polygon fill="#000000" stroke="#000000" points="125.5,-134.7 125.5,-151.7 125.5,-151.7 125.5,-134.7 125.5,-134.7"/>
</a>
</g>
</g>
<!-- Hospitalizations&#45;&gt;Patients -->
<g id="edge2" class="edge">
<title>Hospitalizations:w&#45;&gt;Patients:e</title>
<path fill="none" stroke="#000000" d="M291.0746,-105.6418C236.6624,-113.0529 226.9448,-161.7 164.5,-161.7"/>
<polygon fill="#000000" stroke="#000000" points="297.517,-105.2212 305.7346,-108.2924 301.5085,-104.9606 305.5,-104.7 305.5,-104.7 305.5,-104.7 301.5085,-104.9606 305.2654,-101.1076 297.517,-105.2212 297.517,-105.2212"/>
<ellipse fill="none" stroke="#000000" cx="294.3238" cy="-105.4297" rx="3.2" ry="3.2"/>
</g>
<!-- Providers -->
<g id="node4" class="node">
<title>Providers</title>
<g id="a_node4"><a xlink:href="../../tables/Providers.html" xlink:title="Providers" target="_top">
<polygon fill="#ffffff" stroke="transparent" points="546,-199.7 546,-465.7 763,-465.7 763,-199.7 546,-199.7"/>
<polygon fill="#f5f5f5" stroke="transparent" points="548.5,-440.7 548.5,-463.7 761.5,-463.7 761.5,-440.7 548.5,-440.7"/>
<polygon fill="none" stroke="#000000" points="548.5,-440.7 548.5,-463.7 761.5,-463.7 761.5,-440.7 548.5,-440.7"/>
<text text-anchor="start" x="553.5" y="-449.3" font-family="Helvetica,sans-Serif" font-weight="bold" font-size="11.00" fill="#000000">Providers</text>
<text text-anchor="start" x="726.5437" y="-448.8" font-family="Helvetica,sans-Serif" font-size="11.00" fill="#000000">[table]</text>
<polygon fill="none" stroke="#000000" points="548.5,-418.7 548.5,-440.7 680.5,-440.7 680.5,-418.7 548.5,-418.7"/>
<image xlink:href="../../images/primaryKeys.png" width="11px" height="12px" preserveAspectRatio="xMinYMin meet" x="553.5" y="-435.7"/>
<text text-anchor="start" x="568.5" y="-425.8" font-family="Helvetica,sans-Serif" font-size="11.00" fill="#000000">Id</text>
<polygon fill="none" stroke="#000000" points="680.5,-418.7 680.5,-440.7 761.5,-440.7 761.5,-418.7 680.5,-418.7"/>
<text text-anchor="start" x="683.5" y="-426.4" font-family="Helvetica,sans-Serif" font-size="11.00" fill="#000000">int identity[4]</text>
<polygon fill="none" stroke="#000000" points="548.5,-396.7 548.5,-418.7 680.5,-418.7 680.5,-396.7 548.5,-396.7"/>
<text text-anchor="start" x="568.5" y="-403.8" font-family="Helvetica,sans-Serif" font-size="11.00" fill="#000000">FirstName</text>
<polygon fill="none" stroke="#000000" points="680.5,-396.7 680.5,-418.7 761.5,-418.7 761.5,-396.7 680.5,-396.7"/>
<text text-anchor="start" x="683.5" y="-404.4" font-family="Helvetica,sans-Serif" font-size="11.00" fill="#000000">nvarchar[100]</text>
<polygon fill="none" stroke="#000000" points="548.5,-374.7 548.5,-396.7 680.5,-396.7 680.5,-374.7 548.5,-374.7"/>
<text text-anchor="start" x="568.5" y="-381.8" font-family="Helvetica,sans-Serif" font-size="11.00" fill="#000000">LastName</text>
<polygon fill="none" stroke="#000000" points="680.5,-374.7 680.5,-396.7 761.5,-396.7 761.5,-374.7 680.5,-374.7"/>
<text text-anchor="start" x="683.5" y="-382.4" font-family="Helvetica,sans-Serif" font-size="11.00" fill="#000000">nvarchar[100]</text>
<polygon fill="none" stroke="#000000" points="548.5,-352.7 548.5,-374.7 680.5,-374.7 680.5,-352.7 548.5,-352.7"/>
<text text-anchor="start" x="568.5" y="-359.8" font-family="Helvetica,sans-Serif" font-size="11.00" fill="#000000">TitleExtension</text>
<polygon fill="none" stroke="#000000" points="680.5,-352.7 680.5,-374.7 761.5,-374.7 761.5,-352.7 680.5,-352.7"/>
<text text-anchor="start" x="683.5" y="-360.4" font-family="Helvetica,sans-Serif" font-size="11.00" fill="#000000">nvarchar[20]</text>
<polygon fill="#ffffff" stroke="transparent" points="548.5,-330.7 548.5,-352.7 680.5,-352.7 680.5,-330.7 548.5,-330.7"/>
<polygon fill="none" stroke="#000000" points="548.5,-330.7 548.5,-352.7 680.5,-352.7 680.5,-330.7 548.5,-330.7"/>
<image xlink:href="../../images/foreignKeys.png" width="11px" height="12px" preserveAspectRatio="xMinYMin meet" x="553.5" y="-347.7"/>
<text text-anchor="start" x="568.5" y="-337.8" font-family="Helvetica,sans-Serif" font-size="11.00" fill="#000000">ProviderTypeId</text>
<polygon fill="none" stroke="#000000" points="680.5,-330.7 680.5,-352.7 761.5,-352.7 761.5,-330.7 680.5,-330.7"/>
<text text-anchor="start" x="683.5" y="-338.4" font-family="Helvetica,sans-Serif" font-size="11.00" fill="#000000">int[4]</text>
<polygon fill="none" stroke="#000000" points="548.5,-308.7 548.5,-330.7 680.5,-330.7 680.5,-308.7 548.5,-308.7"/>
<text text-anchor="start" x="568.5" y="-315.8" font-family="Helvetica,sans-Serif" font-size="11.00" fill="#000000">Email</text>
<polygon fill="none" stroke="#000000" points="680.5,-308.7 680.5,-330.7 761.5,-330.7 761.5,-308.7 680.5,-308.7"/>
<text text-anchor="start" x="683.5" y="-316.4" font-family="Helvetica,sans-Serif" font-size="11.00" fill="#000000">nvarchar[200]</text>
<polygon fill="#ffffff" stroke="transparent" points="548.5,-286.7 548.5,-308.7 680.5,-308.7 680.5,-286.7 548.5,-286.7"/>
<polygon fill="none" stroke="#000000" points="548.5,-286.7 548.5,-308.7 680.5,-308.7 680.5,-286.7 548.5,-286.7"/>
<image xlink:href="../../images/foreignKeys.png" width="11px" height="12px" preserveAspectRatio="xMinYMin meet" x="553.5" y="-303.7"/>
<text text-anchor="start" x="568.5" y="-293.8" font-family="Helvetica,sans-Serif" font-size="11.00" fill="#000000">EmployeeId</text>
<polygon fill="none" stroke="#000000" points="680.5,-286.7 680.5,-308.7 761.5,-308.7 761.5,-286.7 680.5,-286.7"/>
<text text-anchor="start" x="683.5" y="-294.4" font-family="Helvetica,sans-Serif" font-size="11.00" fill="#000000">int[4]</text>
<polygon fill="none" stroke="#000000" points="548.5,-264.7 548.5,-286.7 680.5,-286.7 680.5,-264.7 548.5,-264.7"/>
<text text-anchor="start" x="568.5" y="-271.8" font-family="Helvetica,sans-Serif" font-size="11.00" fill="#000000">CreatedAtUtc</text>
<polygon fill="none" stroke="#000000" points="680.5,-264.7 680.5,-286.7 761.5,-286.7 761.5,-264.7 680.5,-264.7"/>
<text text-anchor="start" x="683.0968" y="-272.4" font-family="Helvetica,sans-Serif" font-size="11.00" fill="#000000">datetime2[16,7]</text>
<polygon fill="none" stroke="#000000" points="548.5,-242.7 548.5,-264.7 680.5,-264.7 680.5,-242.7 548.5,-242.7"/>
<text text-anchor="start" x="568.5" y="-249.8" font-family="Helvetica,sans-Serif" font-size="11.00" fill="#000000">UpdatedAtUtc</text>
<polygon fill="none" stroke="#000000" points="680.5,-242.7 680.5,-264.7 761.5,-264.7 761.5,-242.7 680.5,-242.7"/>
<text text-anchor="start" x="683.0968" y="-250.4" font-family="Helvetica,sans-Serif" font-size="11.00" fill="#000000">datetime2[16,7]</text>
<polygon fill="none" stroke="#000000" points="548.5,-220.7 548.5,-242.7 680.5,-242.7 680.5,-220.7 548.5,-220.7"/>
<text text-anchor="start" x="568.5" y="-227.8" font-family="Helvetica,sans-Serif" font-size="11.00" fill="#000000">RowVersion</text>
<polygon fill="none" stroke="#000000" points="680.5,-220.7 680.5,-242.7 761.5,-242.7 761.5,-220.7 680.5,-220.7"/>
<text text-anchor="start" x="683.5" y="-228.4" font-family="Helvetica,sans-Serif" font-size="11.00" fill="#000000">timestamp[8]</text>
<polygon fill="#ffffff" stroke="transparent" points="548.5,-201.7 548.5,-220.7 761.5,-220.7 761.5,-201.7 548.5,-201.7"/>
<polygon fill="none" stroke="#000000" points="548.5,-201.7 548.5,-220.7 761.5,-220.7 761.5,-201.7 548.5,-201.7"/>
<polygon fill="#ffffff" stroke="transparent" points="549.5,-202.7 549.5,-219.7 623.5,-219.7 623.5,-202.7 549.5,-202.7"/>
<text text-anchor="start" x="551.5" y="-207.8" font-family="Helvetica,sans-Serif" font-size="11.00" fill="#000000">&lt; 2</text>
<polygon fill="#ffffff" stroke="transparent" points="623.5,-202.7 623.5,-219.7 687.5,-219.7 687.5,-202.7 623.5,-202.7"/>
<text text-anchor="start" x="652.4431" y="-207.8" font-family="Helvetica,sans-Serif" font-size="11.00" fill="#000000"> &#160;</text>
<polygon fill="#ffffff" stroke="transparent" points="687.5,-202.7 687.5,-219.7 760.5,-219.7 760.5,-202.7 687.5,-202.7"/>
<text text-anchor="start" x="742.9053" y="-207.8" font-family="Helvetica,sans-Serif" font-size="11.00" fill="#000000">3 &gt;</text>
<polygon fill="#000000" stroke="#000000" points="623.5,-202.7 623.5,-219.7 623.5,-219.7 623.5,-202.7 623.5,-202.7"/>
<polygon fill="#000000" stroke="#000000" points="687.5,-202.7 687.5,-219.7 687.5,-219.7 687.5,-202.7 687.5,-202.7"/>
<polygon fill="none" stroke="#000000" stroke-width="2" points="547,-200.7 547,-464.7 762,-464.7 762,-200.7 547,-200.7"/>
</a>
</g>
</g>
<!-- Compensation.Employees -->
<g id="node5" class="node">
<title>Compensation.Employees</title>
<g id="a_node5"><a xlink:title="Compensation.Employees">
<polygon fill="#ffffff" stroke="transparent" points="270,-233.2 270,-294.2 497,-294.2 497,-233.2 270,-233.2"/>
<polygon fill="#f5f5f5" stroke="transparent" points="270.5,-270.7 270.5,-293.7 497.5,-293.7 497.5,-270.7 270.5,-270.7"/>
<polygon fill="none" stroke="#000000" points="270.5,-270.7 270.5,-293.7 497.5,-293.7 497.5,-270.7 270.5,-270.7"/>
<text text-anchor="start" x="275.5" y="-279.3" font-family="Helvetica,sans-Serif" font-weight="bold" font-size="11.00" fill="#000000">Compensation.Employees</text>
<text text-anchor="start" x="463.0219" y="-278.8" font-family="Helvetica,sans-Serif" font-size="11.00" fill="#000000">[table]</text>
<polygon fill="none" stroke="#000000" points="270.5,-251.7 270.5,-270.7 497.5,-270.7 497.5,-251.7 270.5,-251.7"/>
<text text-anchor="start" x="273.5" y="-257.8" font-family="Helvetica,sans-Serif" font-size="11.00" fill="#000000">...</text>
<polygon fill="#ffffff" stroke="transparent" points="270.5,-232.7 270.5,-251.7 497.5,-251.7 497.5,-232.7 270.5,-232.7"/>
<polygon fill="none" stroke="#000000" points="270.5,-232.7 270.5,-251.7 497.5,-251.7 497.5,-232.7 270.5,-232.7"/>
<polygon fill="#ffffff" stroke="transparent" points="271.5,-233.7 271.5,-250.7 343.5,-250.7 343.5,-233.7 271.5,-233.7"/>
<text text-anchor="start" x="273.5" y="-238.8" font-family="Helvetica,sans-Serif" font-size="11.00" fill="#000000"> &#160;</text>
<polygon fill="#ffffff" stroke="transparent" points="343.5,-233.7 343.5,-250.7 415.5,-250.7 415.5,-233.7 343.5,-233.7"/>
<text text-anchor="start" x="376.4431" y="-238.8" font-family="Helvetica,sans-Serif" font-size="11.00" fill="#000000"> &#160;</text>
<polygon fill="#ffffff" stroke="transparent" points="415.5,-233.7 415.5,-250.7 496.5,-250.7 496.5,-233.7 415.5,-233.7"/>
<text text-anchor="start" x="478.9053" y="-238.8" font-family="Helvetica,sans-Serif" font-size="11.00" fill="#000000">1 &gt;</text>
<polygon fill="#000000" stroke="#000000" points="343.5,-233.7 343.5,-250.7 343.5,-250.7 343.5,-233.7 343.5,-233.7"/>
<polygon fill="#000000" stroke="#000000" points="415.5,-233.7 415.5,-250.7 415.5,-250.7 415.5,-233.7 415.5,-233.7"/>
</a>
</g>
</g>
<!-- Providers&#45;&gt;Compensation.Employees -->
<g id="edge3" class="edge">
<title>Providers:w&#45;&gt;Compensation.Employees:e</title>
<path fill="none" stroke="#000000" d="M537.7697,-297.4784C526.9592,-297.0425 515.9415,-295.9851 505.0189,-294.5014"/>
<polygon fill="#000000" stroke="#000000" points="547.7828,-293.6843 547.6175,-301.6826 546.0179,-301.6496 546.1831,-293.6513 547.7828,-293.6843"/>
<polyline fill="none" stroke="#000000" points="548.5,-297.7 544.5009,-297.6174 "/>
<ellipse fill="none" stroke="#000000" cx="541.3015" cy="-297.5513" rx="3.2" ry="3.2"/>
</g>
<!-- ProviderTypes -->
<g id="node6" class="node">
<title>ProviderTypes</title>
<g id="a_node6"><a xlink:href="../../tables/ProviderTypes.html" xlink:title="ProviderTypes" target="_top">
<polygon fill="#ffffff" stroke="transparent" points="311.5,-315.2 311.5,-420.2 455.5,-420.2 455.5,-315.2 311.5,-315.2"/>
<polygon fill="#f5f5f5" stroke="transparent" points="311.5,-396.7 311.5,-419.7 455.5,-419.7 455.5,-396.7 311.5,-396.7"/>
<polygon fill="none" stroke="#000000" points="311.5,-396.7 311.5,-419.7 455.5,-419.7 455.5,-396.7 311.5,-396.7"/>
<text text-anchor="start" x="316.5" y="-405.3" font-family="Helvetica,sans-Serif" font-weight="bold" font-size="11.00" fill="#000000">ProviderTypes</text>
<text text-anchor="start" x="421.0219" y="-404.8" font-family="Helvetica,sans-Serif" font-size="11.00" fill="#000000">[table]</text>
<polygon fill="none" stroke="#000000" points="311.5,-374.7 311.5,-396.7 455.5,-396.7 455.5,-374.7 311.5,-374.7"/>
<image xlink:href="../../images/primaryKeys.png" width="11px" height="12px" preserveAspectRatio="xMinYMin meet" x="316.5" y="-391.7"/>
<text text-anchor="start" x="340.5" y="-381.8" font-family="Helvetica,sans-Serif" font-size="11.00" fill="#000000">Id</text>
<polygon fill="#ffffff" stroke="transparent" points="311.5,-352.7 311.5,-374.7 455.5,-374.7 455.5,-352.7 311.5,-352.7"/>
<polygon fill="none" stroke="#000000" points="311.5,-352.7 311.5,-374.7 455.5,-374.7 455.5,-352.7 311.5,-352.7"/>
<text text-anchor="start" x="340.5" y="-359.8" font-family="Helvetica,sans-Serif" font-size="11.00" fill="#000000">Code</text>
<polygon fill="none" stroke="#000000" points="311.5,-333.7 311.5,-352.7 455.5,-352.7 455.5,-333.7 311.5,-333.7"/>
<text text-anchor="start" x="314.5" y="-339.8" font-family="Helvetica,sans-Serif" font-size="11.00" fill="#000000">...</text>
<polygon fill="#ffffff" stroke="transparent" points="311.5,-314.7 311.5,-333.7 455.5,-333.7 455.5,-314.7 311.5,-314.7"/>
<polygon fill="none" stroke="#000000" points="311.5,-314.7 311.5,-333.7 455.5,-333.7 455.5,-314.7 311.5,-314.7"/>
<polygon fill="#ffffff" stroke="transparent" points="312.5,-315.7 312.5,-332.7 357.5,-332.7 357.5,-315.7 312.5,-315.7"/>
<text text-anchor="start" x="314.5" y="-320.8" font-family="Helvetica,sans-Serif" font-size="11.00" fill="#000000"> &#160;</text>
<polygon fill="#ffffff" stroke="transparent" points="357.5,-315.7 357.5,-332.7 401.5,-332.7 401.5,-315.7 357.5,-315.7"/>
<text text-anchor="start" x="376.4431" y="-320.8" font-family="Helvetica,sans-Serif" font-size="11.00" fill="#000000"> &#160;</text>
<polygon fill="#ffffff" stroke="transparent" points="401.5,-315.7 401.5,-332.7 454.5,-332.7 454.5,-315.7 401.5,-315.7"/>
<text text-anchor="start" x="436.9053" y="-320.8" font-family="Helvetica,sans-Serif" font-size="11.00" fill="#000000">1 &gt;</text>
<polygon fill="#000000" stroke="#000000" points="357.5,-315.7 357.5,-332.7 357.5,-332.7 357.5,-315.7 357.5,-315.7"/>
<polygon fill="#000000" stroke="#000000" points="401.5,-315.7 401.5,-332.7 401.5,-332.7 401.5,-315.7 401.5,-315.7"/>
</a>
</g>
</g>
<!-- Providers&#45;&gt;ProviderTypes -->
<g id="edge4" class="edge">
<title>Providers:w&#45;&gt;ProviderTypes:e</title>
<path fill="none" stroke="#000000" d="M534.1023,-343.3711C501.8045,-351.4083 495.8675,-385.7 455.5,-385.7"/>
<polygon fill="#000000" stroke="#000000" points="540.5533,-342.6224 548.9151,-345.276 544.5267,-342.1612 548.5,-341.7 548.5,-341.7 548.5,-341.7 544.5267,-342.1612 548.0849,-338.124 540.5533,-342.6224 540.5533,-342.6224"/>
<ellipse fill="none" stroke="#000000" cx="537.3747" cy="-342.9914" rx="3.2" ry="3.2"/>
</g>
<!-- VisitAttendants -->
<g id="node7" class="node">
<title>VisitAttendants</title>
<g id="a_node7"><a xlink:href="../../tables/VisitAttendants.html" xlink:title="VisitAttendants" target="_top">
<polygon fill="#ffffff" stroke="transparent" points="889,-321.2 889,-448.2 1042,-448.2 1042,-321.2 889,-321.2"/>
<polygon fill="#f5f5f5" stroke="transparent" points="889.5,-424.7 889.5,-447.7 1042.5,-447.7 1042.5,-424.7 889.5,-424.7"/>
<polygon fill="none" stroke="#000000" points="889.5,-424.7 889.5,-447.7 1042.5,-447.7 1042.5,-424.7 889.5,-424.7"/>
<text text-anchor="start" x="894.5" y="-433.3" font-family="Helvetica,sans-Serif" font-weight="bold" font-size="11.00" fill="#000000">VisitAttendants</text>
<text text-anchor="start" x="1008.0219" y="-432.8" font-family="Helvetica,sans-Serif" font-size="11.00" fill="#000000">[table]</text>
<polygon fill="none" stroke="#000000" points="889.5,-402.7 889.5,-424.7 1042.5,-424.7 1042.5,-402.7 889.5,-402.7"/>
<image xlink:href="../../images/primaryKeys.png" width="11px" height="12px" preserveAspectRatio="xMinYMin meet" x="894.5" y="-419.7"/>
<text text-anchor="start" x="918.5" y="-409.8" font-family="Helvetica,sans-Serif" font-size="11.00" fill="#000000">Id</text>
<polygon fill="#ffffff" stroke="transparent" points="889.5,-380.7 889.5,-402.7 1042.5,-402.7 1042.5,-380.7 889.5,-380.7"/>
<polygon fill="none" stroke="#000000" points="889.5,-380.7 889.5,-402.7 1042.5,-402.7 1042.5,-380.7 889.5,-380.7"/>
<image xlink:href="../../images/foreignKeys.png" width="11px" height="12px" preserveAspectRatio="xMinYMin meet" x="894.5" y="-397.7"/>
<text text-anchor="start" x="918.5" y="-387.8" font-family="Helvetica,sans-Serif" font-size="11.00" fill="#000000">VisitId</text>
<polygon fill="#ffffff" stroke="transparent" points="889.5,-358.7 889.5,-380.7 1042.5,-380.7 1042.5,-358.7 889.5,-358.7"/>
<polygon fill="none" stroke="#000000" points="889.5,-358.7 889.5,-380.7 1042.5,-380.7 1042.5,-358.7 889.5,-358.7"/>
<image xlink:href="../../images/foreignKeys.png" width="11px" height="12px" preserveAspectRatio="xMinYMin meet" x="894.5" y="-375.7"/>
<text text-anchor="start" x="918.5" y="-365.8" font-family="Helvetica,sans-Serif" font-size="11.00" fill="#000000">ProviderId</text>
<polygon fill="none" stroke="#000000" points="889.5,-339.7 889.5,-358.7 1042.5,-358.7 1042.5,-339.7 889.5,-339.7"/>
<text text-anchor="start" x="892.5" y="-345.8" font-family="Helvetica,sans-Serif" font-size="11.00" fill="#000000">...</text>
<polygon fill="#ffffff" stroke="transparent" points="889.5,-320.7 889.5,-339.7 1042.5,-339.7 1042.5,-320.7 889.5,-320.7"/>
<polygon fill="none" stroke="#000000" points="889.5,-320.7 889.5,-339.7 1042.5,-339.7 1042.5,-320.7 889.5,-320.7"/>
<polygon fill="#ffffff" stroke="transparent" points="890.5,-321.7 890.5,-338.7 947.5,-338.7 947.5,-321.7 890.5,-321.7"/>
<text text-anchor="start" x="892.5" y="-326.8" font-family="Helvetica,sans-Serif" font-size="11.00" fill="#000000">&lt; 2</text>
<polygon fill="#ffffff" stroke="transparent" points="947.5,-321.7 947.5,-338.7 994.5,-338.7 994.5,-321.7 947.5,-321.7"/>
<text text-anchor="start" x="967.9431" y="-326.8" font-family="Helvetica,sans-Serif" font-size="11.00" fill="#000000"> &#160;</text>
<polygon fill="#ffffff" stroke="transparent" points="994.5,-321.7 994.5,-338.7 1041.5,-338.7 1041.5,-321.7 994.5,-321.7"/>
<text text-anchor="start" x="1033.3862" y="-326.8" font-family="Helvetica,sans-Serif" font-size="11.00" fill="#000000"> &#160;</text>
<polygon fill="#000000" stroke="#000000" points="947.5,-321.7 947.5,-338.7 947.5,-338.7 947.5,-321.7 947.5,-321.7"/>
<polygon fill="#000000" stroke="#000000" points="994.5,-321.7 994.5,-338.7 994.5,-338.7 994.5,-321.7 994.5,-321.7"/>
</a>
</g>
</g>
<!-- VisitAttendants&#45;&gt;Providers -->
<g id="edge5" class="edge">
<title>VisitAttendants:w&#45;&gt;Providers:e</title>
<path fill="none" stroke="#000000" d="M874.8783,-370.8985C825.8511,-379.3549 819.0522,-429.7 761.5,-429.7"/>
<polygon fill="#000000" stroke="#000000" points="881.5267,-370.3536 889.7941,-373.288 885.5134,-370.0268 889.5,-369.7 889.5,-369.7 889.5,-369.7 885.5134,-370.0268 889.2059,-366.112 881.5267,-370.3536 881.5267,-370.3536"/>
<ellipse fill="none" stroke="#000000" cx="878.3374" cy="-370.6151" rx="3.2" ry="3.2"/>
</g>
<!-- Visits -->
<g id="node8" class="node">
<title>Visits</title>
<g id="a_node8"><a xlink:href="../../tables/Visits.html" xlink:title="Visits" target="_top">
<polygon fill="#ffffff" stroke="transparent" points="615,-90.2 615,-151.2 694,-151.2 694,-90.2 615,-90.2"/>
<polygon fill="#f5f5f5" stroke="transparent" points="615.5,-127.7 615.5,-150.7 694.5,-150.7 694.5,-127.7 615.5,-127.7"/>
<polygon fill="none" stroke="#000000" points="615.5,-127.7 615.5,-150.7 694.5,-150.7 694.5,-127.7 615.5,-127.7"/>
<text text-anchor="start" x="620.5" y="-136.3" font-family="Helvetica,sans-Serif" font-weight="bold" font-size="11.00" fill="#000000">Visits</text>
<text text-anchor="start" x="660.0219" y="-135.8" font-family="Helvetica,sans-Serif" font-size="11.00" fill="#000000">[table]</text>
<polygon fill="none" stroke="#000000" points="615.5,-108.7 615.5,-127.7 694.5,-127.7 694.5,-108.7 615.5,-108.7"/>
<text text-anchor="start" x="618.5" y="-114.8" font-family="Helvetica,sans-Serif" font-size="11.00" fill="#000000">...</text>
<polygon fill="#ffffff" stroke="transparent" points="615.5,-89.7 615.5,-108.7 694.5,-108.7 694.5,-89.7 615.5,-89.7"/>
<polygon fill="none" stroke="#000000" points="615.5,-89.7 615.5,-108.7 694.5,-108.7 694.5,-89.7 615.5,-89.7"/>
<polygon fill="#ffffff" stroke="transparent" points="616.5,-90.7 616.5,-107.7 645.5,-107.7 645.5,-90.7 616.5,-90.7"/>
<text text-anchor="start" x="618.5" y="-95.8" font-family="Helvetica,sans-Serif" font-size="11.00" fill="#000000">&lt; 1</text>
<polygon fill="#ffffff" stroke="transparent" points="645.5,-90.7 645.5,-107.7 665.5,-107.7 665.5,-90.7 645.5,-90.7"/>
<text text-anchor="start" x="652.4431" y="-95.8" font-family="Helvetica,sans-Serif" font-size="11.00" fill="#000000"> &#160;</text>
<polygon fill="#ffffff" stroke="transparent" points="665.5,-90.7 665.5,-107.7 693.5,-107.7 693.5,-90.7 665.5,-90.7"/>
<text text-anchor="start" x="675.9053" y="-95.8" font-family="Helvetica,sans-Serif" font-size="11.00" fill="#000000">4 &gt;</text>
<polygon fill="#000000" stroke="#000000" points="645.5,-90.7 645.5,-107.7 645.5,-107.7 645.5,-90.7 645.5,-90.7"/>
<polygon fill="#000000" stroke="#000000" points="665.5,-90.7 665.5,-107.7 665.5,-107.7 665.5,-90.7 665.5,-90.7"/>
</a>
</g>
</g>
<!-- VisitAttendants&#45;&gt;Visits -->
<g id="edge6" class="edge">
<title>VisitAttendants:w&#45;&gt;Visits:e</title>
<path fill="none" stroke="#000000" d="M875.0415,-390.7616C746.8402,-373.2896 838.8601,-117.7 694.5,-117.7"/>
<polygon fill="#000000" stroke="#000000" points="881.5168,-391.1818 889.2668,-395.2924 885.5084,-391.4409 889.5,-391.7 889.5,-391.7 889.5,-391.7 885.5084,-391.4409 889.7332,-388.1076 881.5168,-391.1818 881.5168,-391.1818"/>
<ellipse fill="none" stroke="#000000" cx="878.3235" cy="-390.9745" rx="3.2" ry="3.2"/>
</g>
<!-- Visits&#45;&gt;Hospitalizations -->
<g id="edge7" class="edge">
<title>Visits:w&#45;&gt;Hospitalizations:e</title>
<path fill="none" stroke="#000000" d="M600.7597,-117.4852C544.4396,-115.795 525.5467,-104.7 462.5,-104.7"/>
<polygon fill="#000000" stroke="#000000" points="607.5008,-117.5834 615.4475,-121.2996 611.5004,-117.6417 615.5,-117.7 615.5,-117.7 615.5,-117.7 611.5004,-117.6417 615.5525,-114.1004 607.5008,-117.5834 607.5008,-117.5834"/>
<ellipse fill="none" stroke="#000000" cx="604.3012" cy="-117.5367" rx="3.2" ry="3.2"/>
</g>
<!-- staging.ProviderAssignments -->
<g id="node9" class="node">
<title>staging.ProviderAssignments</title>
<g id="a_node9"><a xlink:title="staging.ProviderAssignments">
<polygon fill="#ffffff" stroke="transparent" points="812,-54.2 812,-247.2 1119,-247.2 1119,-54.2 812,-54.2"/>
<polygon fill="#f5f5f5" stroke="transparent" points="812.5,-223.7 812.5,-246.7 1119.5,-246.7 1119.5,-223.7 812.5,-223.7"/>
<polygon fill="none" stroke="#000000" points="812.5,-223.7 812.5,-246.7 1119.5,-246.7 1119.5,-223.7 812.5,-223.7"/>
<text text-anchor="start" x="817.5" y="-232.3" font-family="Helvetica,sans-Serif" font-weight="bold" font-size="11.00" fill="#000000">staging.ProviderAssignments</text>
<text text-anchor="start" x="1084.5437" y="-231.8" font-family="Helvetica,sans-Serif" font-size="11.00" fill="#000000">[table]</text>
<polygon fill="none" stroke="#000000" points="812.5,-201.7 812.5,-223.7 1119.5,-223.7 1119.5,-201.7 812.5,-201.7"/>
<image xlink:href="../../images/foreignKeys.png" width="11px" height="12px" preserveAspectRatio="xMinYMin meet" x="817.5" y="-218.7"/>
<text text-anchor="start" x="832.5" y="-208.8" font-family="Helvetica,sans-Serif" font-size="11.00" fill="#000000">ResolvedPhysicianId</text>
<polygon fill="none" stroke="#000000" points="812.5,-179.7 812.5,-201.7 1119.5,-201.7 1119.5,-179.7 812.5,-179.7"/>
<image xlink:href="../../images/foreignKeys.png" width="11px" height="12px" preserveAspectRatio="xMinYMin meet" x="817.5" y="-196.7"/>
<text text-anchor="start" x="832.5" y="-186.8" font-family="Helvetica,sans-Serif" font-size="11.00" fill="#000000">ResolvedHospitalizationId</text>
<polygon fill="none" stroke="#000000" points="812.5,-157.7 812.5,-179.7 1119.5,-179.7 1119.5,-157.7 812.5,-157.7"/>
<image xlink:href="../../images/foreignKeys.png" width="11px" height="12px" preserveAspectRatio="xMinYMin meet" x="817.5" y="-174.7"/>
<text text-anchor="start" x="832.5" y="-164.8" font-family="Helvetica,sans-Serif" font-size="11.00" fill="#000000">ResolvedPatientId</text>
<polygon fill="none" stroke="#000000" points="812.5,-135.7 812.5,-157.7 1119.5,-157.7 1119.5,-135.7 812.5,-135.7"/>
<image xlink:href="../../images/foreignKeys.png" width="11px" height="12px" preserveAspectRatio="xMinYMin meet" x="817.5" y="-152.7"/>
<text text-anchor="start" x="832.5" y="-142.8" font-family="Helvetica,sans-Serif" font-size="11.00" fill="#000000">ResolvedNursePractitionerId</text>
<polygon fill="none" stroke="#000000" points="812.5,-113.7 812.5,-135.7 1119.5,-135.7 1119.5,-113.7 812.5,-113.7"/>
<image xlink:href="../../images/foreignKeys.png" width="11px" height="12px" preserveAspectRatio="xMinYMin meet" x="817.5" y="-130.7"/>
<text text-anchor="start" x="832.5" y="-120.8" font-family="Helvetica,sans-Serif" font-size="11.00" fill="#000000">ResolvedVisitId</text>
<polygon fill="none" stroke="#000000" points="812.5,-91.7 812.5,-113.7 1119.5,-113.7 1119.5,-91.7 812.5,-91.7"/>
<image xlink:href="../../images/foreignKeys.png" width="11px" height="12px" preserveAspectRatio="xMinYMin meet" x="817.5" y="-108.7"/>
<text text-anchor="start" x="832.5" y="-98.8" font-family="Helvetica,sans-Serif" font-size="11.00" fill="#000000">ResolvedHospitalizationStatusId</text>
<polygon fill="none" stroke="#000000" points="812.5,-72.7 812.5,-91.7 1119.5,-91.7 1119.5,-72.7 812.5,-72.7"/>
<text text-anchor="start" x="815.5" y="-78.8" font-family="Helvetica,sans-Serif" font-size="11.00" fill="#000000">...</text>
<polygon fill="#ffffff" stroke="transparent" points="812.5,-53.7 812.5,-72.7 1119.5,-72.7 1119.5,-53.7 812.5,-53.7"/>
<polygon fill="none" stroke="#000000" points="812.5,-53.7 812.5,-72.7 1119.5,-72.7 1119.5,-53.7 812.5,-53.7"/>
<polygon fill="#ffffff" stroke="transparent" points="813.5,-54.7 813.5,-71.7 921.5,-71.7 921.5,-54.7 813.5,-54.7"/>
<text text-anchor="start" x="815.5" y="-59.8" font-family="Helvetica,sans-Serif" font-size="11.00" fill="#000000">&lt; 6</text>
<polygon fill="#ffffff" stroke="transparent" points="921.5,-54.7 921.5,-71.7 1020.5,-71.7 1020.5,-54.7 921.5,-54.7"/>
<text text-anchor="start" x="967.9431" y="-59.8" font-family="Helvetica,sans-Serif" font-size="11.00" fill="#000000"> &#160;</text>
<polygon fill="#ffffff" stroke="transparent" points="1020.5,-54.7 1020.5,-71.7 1118.5,-71.7 1118.5,-54.7 1020.5,-54.7"/>
<text text-anchor="start" x="1110.3862" y="-59.8" font-family="Helvetica,sans-Serif" font-size="11.00" fill="#000000"> &#160;</text>
<polygon fill="#000000" stroke="#000000" points="921.5,-54.7 921.5,-71.7 921.5,-71.7 921.5,-54.7 921.5,-54.7"/>
<polygon fill="#000000" stroke="#000000" points="1020.5,-54.7 1020.5,-71.7 1020.5,-71.7 1020.5,-54.7 1020.5,-54.7"/>
</a>
</g>
</g>
<!-- staging.ProviderAssignments&#45;&gt;Hospitalizations -->
<g id="edge8" class="edge">
<title>staging.ProviderAssignments:w&#45;&gt;Hospitalizations:e</title>
<path fill="none" stroke="#000000" d="M798.067,-187.5761C771.2497,-172.4204 809.2035,-106.203 771,-79.7 685.9142,-20.6733 640.2348,-63.2139 538,-79.7 503.1035,-85.3273 497.8473,-104.7 462.5,-104.7"/>
<polygon fill="#000000" stroke="#000000" points="804.681,-189.0076 811.7384,-194.2185 808.5905,-189.8538 812.5,-190.7 812.5,-190.7 812.5,-190.7 808.5905,-189.8538 813.2616,-187.1815 804.681,-189.0076 804.681,-189.0076"/>
<ellipse fill="none" stroke="#000000" cx="801.5535" cy="-188.3307" rx="3.2" ry="3.2"/>
</g>
<!-- staging.ProviderAssignments&#45;&gt;HospitalizationStatuses -->
<g id="edge9" class="edge">
<title>staging.ProviderAssignments:w&#45;&gt;HospitalizationStatuses:e</title>
<path fill="none" stroke="#000000" d="M798.7848,-98.0001C787.165,-87.0598 792.2233,-60.0371 771,-49.7 730.9046,-30.1708 255.647,-65.7 221.5,-65.7"/>
<polygon fill="#000000" stroke="#000000" points="804.932,-100.1066 811.333,-106.1056 808.716,-101.4033 812.5,-102.7 812.5,-102.7 812.5,-102.7 808.716,-101.4033 813.667,-99.2944 804.932,-100.1066 804.932,-100.1066"/>
<ellipse fill="none" stroke="#000000" cx="801.9048" cy="-99.0692" rx="3.2" ry="3.2"/>
</g>
<!-- staging.ProviderAssignments&#45;&gt;Patients -->
<g id="edge11" class="edge">
<title>staging.ProviderAssignments:w&#45;&gt;Patients:e</title>
<path fill="none" stroke="#000000" d="M797.9207,-168.6939C521.9603,-168.4628 447.5946,-161.7 164.5,-161.7"/>
<polygon fill="#000000" stroke="#000000" points="804.5,-168.6966 812.4985,-172.3 808.5,-168.6983 812.5,-168.7 812.5,-168.7 812.5,-168.7 808.5,-168.6983 812.5015,-165.1 804.5,-168.6966 804.5,-168.6966"/>
<ellipse fill="none" stroke="#000000" cx="801.3" cy="-168.6953" rx="3.2" ry="3.2"/>
</g>
<!-- staging.ProviderAssignments&#45;&gt;Providers -->
<g id="edge10" class="edge">
<title>staging.ProviderAssignments:w&#45;&gt;Providers:e</title>
<path fill="none" stroke="#000000" d="M799.2104,-152.353C760.5063,-192.2391 820.0352,-429.7 761.5,-429.7"/>
<polygon fill="#000000" stroke="#000000" points="805.1383,-149.8315 813.9092,-150.0128 808.8192,-148.2657 812.5,-146.7 812.5,-146.7 812.5,-146.7 808.8192,-148.2657 811.0908,-143.3872 805.1383,-149.8315 805.1383,-149.8315"/>
<ellipse fill="none" stroke="#000000" cx="802.1937" cy="-151.0841" rx="3.2" ry="3.2"/>
</g>
<!-- staging.ProviderAssignments&#45;&gt;Providers -->
<g id="edge12" class="edge">
<title>staging.ProviderAssignments:w&#45;&gt;Providers:e</title>
<path fill="none" stroke="#000000" d="M797.9457,-214.7096C729.3066,-236.5859 854.9607,-429.7 761.5,-429.7"/>
<polygon fill="#000000" stroke="#000000" points="804.5752,-213.7943 812.9924,-216.2662 808.5376,-213.2471 812.5,-212.7 812.5,-212.7 812.5,-212.7 808.5376,-213.2471 812.0076,-209.1338 804.5752,-213.7943 804.5752,-213.7943"/>
<ellipse fill="none" stroke="#000000" cx="801.4053" cy="-214.232" rx="3.2" ry="3.2"/>
</g>
<!-- staging.ProviderAssignments&#45;&gt;Visits -->
<g id="edge13" class="edge">
<title>staging.ProviderAssignments:w&#45;&gt;Visits:e</title>
<path fill="none" stroke="#000000" d="M797.9013,-124.5055C756.9951,-123.3749 741.8035,-117.7 694.5,-117.7"/>
<polygon fill="#000000" stroke="#000000" points="804.5007,-124.5934 812.452,-128.2997 808.5004,-124.6467 812.5,-124.7 812.5,-124.7 812.5,-124.7 808.5004,-124.6467 812.548,-121.1003 804.5007,-124.5934 804.5007,-124.5934"/>
<ellipse fill="none" stroke="#000000" cx="801.301" cy="-124.5507" rx="3.2" ry="3.2"/>
</g>
</g>
</svg>
