<?xml version="1.0" encoding="UTF-8" standalone="no"?>
<!DOCTYPE svg PUBLIC "-//W3C//DTD SVG 1.1//EN"
 "http://www.w3.org/Graphics/SVG/1.1/DTD/svg11.dtd">
<!-- Generated by graphviz version 2.40.1 (20161225.0304)
 -->
<!-- Title: oneDegreeRelationshipsDiagram Pages: 1 -->
<svg width="416pt" height="271pt"
 viewBox="0.00 0.00 416.00 270.70" xmlns="http://www.w3.org/2000/svg" xmlns:xlink="http://www.w3.org/1999/xlink">
<g id="graph0" class="graph" transform="scale(1 1) rotate(0) translate(4 266.7)">
<title>oneDegreeRelationshipsDiagram</title>
<polygon fill="#ffffff" stroke="transparent" points="-4,4 -4,-266.7 412,-266.7 412,4 -4,4"/>
<text text-anchor="middle" x="72.4936" y="-7.3" font-family="Helvetica,sans-Serif" font-size="11.00" fill="#000000">Generated by SchemaSpy</text>
<!-- Providers -->
<g id="node1" class="node">
<title>Providers</title>
<g id="a_node1"><a xlink:href="../../tables/Providers.html" xlink:title="Providers" target="_top">
<polygon fill="#ffffff" stroke="transparent" points="268,-131.7 268,-258.7 400,-258.7 400,-131.7 268,-131.7"/>
<polygon fill="#f5f5f5" stroke="transparent" points="268,-235.2 268,-258.2 400,-258.2 400,-235.2 268,-235.2"/>
<polygon fill="none" stroke="#000000" points="268,-235.2 268,-258.2 400,-258.2 400,-235.2 268,-235.2"/>
<text text-anchor="start" x="273" y="-243.8" font-family="Helvetica,sans-Serif" font-weight="bold" font-size="11.00" fill="#000000">Providers</text>
<text text-anchor="start" x="365.0437" y="-243.3" font-family="Helvetica,sans-Serif" font-size="11.00" fill="#000000">[table]</text>
<polygon fill="none" stroke="#000000" points="268,-213.2 268,-235.2 400,-235.2 400,-213.2 268,-213.2"/>
<image xlink:href="../../images/primaryKeys.png" width="11px" height="12px" preserveAspectRatio="xMinYMin meet" x="273" y="-230.2"/>
<text text-anchor="start" x="288" y="-220.3" font-family="Helvetica,sans-Serif" font-size="11.00" fill="#000000">Id</text>
<polygon fill="#ffffff" stroke="transparent" points="268,-191.2 268,-213.2 400,-213.2 400,-191.2 268,-191.2"/>
<polygon fill="none" stroke="#000000" points="268,-191.2 268,-213.2 400,-213.2 400,-191.2 268,-191.2"/>
<image xlink:href="../../images/foreignKeys.png" width="11px" height="12px" preserveAspectRatio="xMinYMin meet" x="273" y="-208.2"/>
<text text-anchor="start" x="288" y="-198.3" font-family="Helvetica,sans-Serif" font-size="11.00" fill="#000000">ProviderTypeId</text>
<polygon fill="#ffffff" stroke="transparent" points="268,-169.2 268,-191.2 400,-191.2 400,-169.2 268,-169.2"/>
<polygon fill="none" stroke="#000000" points="268,-169.2 268,-191.2 400,-191.2 400,-169.2 268,-169.2"/>
<image xlink:href="../../images/foreignKeys.png" width="11px" height="12px" preserveAspectRatio="xMinYMin meet" x="273" y="-186.2"/>
<text text-anchor="start" x="288" y="-176.3" font-family="Helvetica,sans-Serif" font-size="11.00" fill="#000000">EmployeeId</text>
<polygon fill="none" stroke="#000000" points="268,-150.2 268,-169.2 400,-169.2 400,-150.2 268,-150.2"/>
<text text-anchor="start" x="271" y="-156.3" font-family="Helvetica,sans-Serif" font-size="11.00" fill="#000000">...</text>
<polygon fill="#ffffff" stroke="transparent" points="268,-131.2 268,-150.2 400,-150.2 400,-131.2 268,-131.2"/>
<polygon fill="none" stroke="#000000" points="268,-131.2 268,-150.2 400,-150.2 400,-131.2 268,-131.2"/>
<polygon fill="#ffffff" stroke="transparent" points="269,-132.2 269,-149.2 316,-149.2 316,-132.2 269,-132.2"/>
<text text-anchor="start" x="271" y="-137.3" font-family="Helvetica,sans-Serif" font-size="11.00" fill="#000000">&lt; 2</text>
<polygon fill="#ffffff" stroke="transparent" points="316,-132.2 316,-149.2 353,-149.2 353,-132.2 316,-132.2"/>
<text text-anchor="start" x="331.4431" y="-137.3" font-family="Helvetica,sans-Serif" font-size="11.00" fill="#000000"> &#160;</text>
<polygon fill="#ffffff" stroke="transparent" points="353,-132.2 353,-149.2 399,-149.2 399,-132.2 353,-132.2"/>
<text text-anchor="start" x="381.4053" y="-137.3" font-family="Helvetica,sans-Serif" font-size="11.00" fill="#000000">3 &gt;</text>
<polygon fill="#000000" stroke="#000000" points="316,-132.2 316,-149.2 316,-149.2 316,-132.2 316,-132.2"/>
<polygon fill="#000000" stroke="#000000" points="353,-132.2 353,-149.2 353,-149.2 353,-132.2 353,-132.2"/>
</a>
</g>
</g>
<!-- ProviderTypes -->
<g id="node2" class="node">
<title>ProviderTypes</title>
<g id="a_node2"><a xlink:href="../../tables/ProviderTypes.html" xlink:title="ProviderTypes" target="_top">
<polygon fill="#ffffff" stroke="transparent" points="8,-38.2 8,-238.2 219,-238.2 219,-38.2 8,-38.2"/>
<polygon fill="#f5f5f5" stroke="transparent" points="10.5,-213.2 10.5,-236.2 217.5,-236.2 217.5,-213.2 10.5,-213.2"/>
<polygon fill="none" stroke="#000000" points="10.5,-213.2 10.5,-236.2 217.5,-236.2 217.5,-213.2 10.5,-213.2"/>
<text text-anchor="start" x="15.5" y="-221.8" font-family="Helvetica,sans-Serif" font-weight="bold" font-size="11.00" fill="#000000">ProviderTypes</text>
<text text-anchor="start" x="182.5437" y="-221.3" font-family="Helvetica,sans-Serif" font-size="11.00" fill="#000000">[table]</text>
<polygon fill="none" stroke="#000000" points="10.5,-191.2 10.5,-213.2 136.5,-213.2 136.5,-191.2 10.5,-191.2"/>
<image xlink:href="../../images/primaryKeys.png" width="11px" height="12px" preserveAspectRatio="xMinYMin meet" x="15.5" y="-208.2"/>
<text text-anchor="start" x="30.5" y="-198.3" font-family="Helvetica,sans-Serif" font-size="11.00" fill="#000000">Id</text>
<polygon fill="none" stroke="#000000" points="136.5,-191.2 136.5,-213.2 217.5,-213.2 217.5,-191.2 136.5,-191.2"/>
<text text-anchor="start" x="139.5" y="-198.9" font-family="Helvetica,sans-Serif" font-size="11.00" fill="#000000">int[4]</text>
<polygon fill="#ffffff" stroke="transparent" points="10.5,-169.2 10.5,-191.2 136.5,-191.2 136.5,-169.2 10.5,-169.2"/>
<polygon fill="none" stroke="#000000" points="10.5,-169.2 10.5,-191.2 136.5,-191.2 136.5,-169.2 10.5,-169.2"/>
<text text-anchor="start" x="30.5" y="-176.3" font-family="Helvetica,sans-Serif" font-size="11.00" fill="#000000">Code</text>
<polygon fill="none" stroke="#000000" points="136.5,-169.2 136.5,-191.2 217.5,-191.2 217.5,-169.2 136.5,-169.2"/>
<text text-anchor="start" x="139.5" y="-176.9" font-family="Helvetica,sans-Serif" font-size="11.00" fill="#000000">nvarchar[100]</text>
<polygon fill="none" stroke="#000000" points="10.5,-147.2 10.5,-169.2 136.5,-169.2 136.5,-147.2 10.5,-147.2"/>
<text text-anchor="start" x="30.5" y="-154.3" font-family="Helvetica,sans-Serif" font-size="11.00" fill="#000000">Name</text>
<polygon fill="none" stroke="#000000" points="136.5,-147.2 136.5,-169.2 217.5,-169.2 217.5,-147.2 136.5,-147.2"/>
<text text-anchor="start" x="139.5" y="-154.9" font-family="Helvetica,sans-Serif" font-size="11.00" fill="#000000">nvarchar[200]</text>
<polygon fill="none" stroke="#000000" points="10.5,-125.2 10.5,-147.2 136.5,-147.2 136.5,-125.2 10.5,-125.2"/>
<text text-anchor="start" x="30.5" y="-132.3" font-family="Helvetica,sans-Serif" font-size="11.00" fill="#000000">DisplayOrder</text>
<polygon fill="none" stroke="#000000" points="136.5,-125.2 136.5,-147.2 217.5,-147.2 217.5,-125.2 136.5,-125.2"/>
<text text-anchor="start" x="139.5" y="-132.9" font-family="Helvetica,sans-Serif" font-size="11.00" fill="#000000">int[4]</text>
<polygon fill="none" stroke="#000000" points="10.5,-103.2 10.5,-125.2 136.5,-125.2 136.5,-103.2 10.5,-103.2"/>
<text text-anchor="start" x="30.5" y="-110.3" font-family="Helvetica,sans-Serif" font-size="11.00" fill="#000000">CreatedAtUtc</text>
<polygon fill="none" stroke="#000000" points="136.5,-103.2 136.5,-125.2 217.5,-125.2 217.5,-103.2 136.5,-103.2"/>
<text text-anchor="start" x="139.0967" y="-110.9" font-family="Helvetica,sans-Serif" font-size="11.00" fill="#000000">datetime2[16,7]</text>
<polygon fill="none" stroke="#000000" points="10.5,-81.2 10.5,-103.2 136.5,-103.2 136.5,-81.2 10.5,-81.2"/>
<text text-anchor="start" x="30.5" y="-88.3" font-family="Helvetica,sans-Serif" font-size="11.00" fill="#000000">UpdatedAtUtc</text>
<polygon fill="none" stroke="#000000" points="136.5,-81.2 136.5,-103.2 217.5,-103.2 217.5,-81.2 136.5,-81.2"/>
<text text-anchor="start" x="139.0967" y="-88.9" font-family="Helvetica,sans-Serif" font-size="11.00" fill="#000000">datetime2[16,7]</text>
<polygon fill="none" stroke="#000000" points="10.5,-59.2 10.5,-81.2 136.5,-81.2 136.5,-59.2 10.5,-59.2"/>
<text text-anchor="start" x="30.5" y="-66.3" font-family="Helvetica,sans-Serif" font-size="11.00" fill="#000000">RowVersion</text>
<polygon fill="none" stroke="#000000" points="136.5,-59.2 136.5,-81.2 217.5,-81.2 217.5,-59.2 136.5,-59.2"/>
<text text-anchor="start" x="139.5" y="-66.9" font-family="Helvetica,sans-Serif" font-size="11.00" fill="#000000">timestamp[8]</text>
<polygon fill="#ffffff" stroke="transparent" points="10.5,-40.2 10.5,-59.2 217.5,-59.2 217.5,-40.2 10.5,-40.2"/>
<polygon fill="none" stroke="#000000" points="10.5,-40.2 10.5,-59.2 217.5,-59.2 217.5,-40.2 10.5,-40.2"/>
<polygon fill="#ffffff" stroke="transparent" points="11.5,-41.2 11.5,-58.2 83.5,-58.2 83.5,-41.2 11.5,-41.2"/>
<text text-anchor="start" x="13.5" y="-46.3" font-family="Helvetica,sans-Serif" font-size="11.00" fill="#000000">&lt; 0</text>
<polygon fill="#ffffff" stroke="transparent" points="83.5,-41.2 83.5,-58.2 145.5,-58.2 145.5,-41.2 83.5,-41.2"/>
<text text-anchor="start" x="111.4431" y="-46.3" font-family="Helvetica,sans-Serif" font-size="11.00" fill="#000000"> &#160;</text>
<polygon fill="#ffffff" stroke="transparent" points="145.5,-41.2 145.5,-58.2 216.5,-58.2 216.5,-41.2 145.5,-41.2"/>
<text text-anchor="start" x="198.9053" y="-46.3" font-family="Helvetica,sans-Serif" font-size="11.00" fill="#000000">1 &gt;</text>
<polygon fill="#000000" stroke="#000000" points="83.5,-41.2 83.5,-58.2 83.5,-58.2 83.5,-41.2 83.5,-41.2"/>
<polygon fill="#000000" stroke="#000000" points="145.5,-41.2 145.5,-58.2 145.5,-58.2 145.5,-41.2 145.5,-41.2"/>
<polygon fill="none" stroke="#000000" stroke-width="2" points="9,-39.2 9,-237.2 218,-237.2 218,-39.2 9,-39.2"/>
</a>
</g>
</g>
<!-- Providers&#45;&gt;ProviderTypes -->
<g id="edge1" class="edge">
<title>Providers:w&#45;&gt;ProviderTypes:e</title>
<path fill="none" stroke="#000000" d="M253.4203,-202.2C241.5435,-202.2 234.158,-202.2 217.5,-202.2"/>
<polygon fill="#000000" stroke="#000000" points="260,-202.2001 268,-205.8 264,-202.2 268,-202.2 268,-202.2 268,-202.2 264,-202.2 268,-198.6 260,-202.2001 260,-202.2001"/>
<ellipse fill="none" stroke="#000000" cx="256.8" cy="-202.2001" rx="3.2" ry="3.2"/>
</g>
</g>
</svg>
