<?xml version="1.0" encoding="UTF-8" standalone="no"?>
<!DOCTYPE svg PUBLIC "-//W3C//DTD SVG 1.1//EN"
 "http://www.w3.org/Graphics/SVG/1.1/DTD/svg11.dtd">
<!-- Generated by graphviz version 2.40.1 (20161225.0304)
 -->
<!-- Title: oneDegreeRelationshipsDiagram Pages: 1 -->
<svg width="866pt" height="463pt"
 viewBox="0.00 0.00 866.00 462.70" xmlns="http://www.w3.org/2000/svg" xmlns:xlink="http://www.w3.org/1999/xlink">
<g id="graph0" class="graph" transform="scale(1 1) rotate(0) translate(4 458.7)">
<title>oneDegreeRelationshipsDiagram</title>
<polygon fill="#ffffff" stroke="transparent" points="-4,4 -4,-458.7 862,-458.7 862,4 -4,4"/>
<text text-anchor="middle" x="72.4936" y="-7.3" font-family="Helvetica,sans-Serif" font-size="11.00" fill="#000000">Generated by SchemaSpy</text>
<!-- Providers -->
<g id="node1" class="node">
<title>Providers</title>
<g id="a_node1"><a xlink:href="../../tables/Providers.html" xlink:title="Providers" target="_top">
<polygon fill="#ffffff" stroke="transparent" points="284,-38.2 284,-304.2 494,-304.2 494,-38.2 284,-38.2"/>
<polygon fill="#f5f5f5" stroke="transparent" points="286,-279.2 286,-302.2 492,-302.2 492,-279.2 286,-279.2"/>
<polygon fill="none" stroke="#000000" points="286,-279.2 286,-302.2 492,-302.2 492,-279.2 286,-279.2"/>
<text text-anchor="start" x="291" y="-287.8" font-family="Helvetica,sans-Serif" font-weight="bold" font-size="11.00" fill="#000000">Providers</text>
<text text-anchor="start" x="457.0437" y="-287.3" font-family="Helvetica,sans-Serif" font-size="11.00" fill="#000000">[table]</text>
<polygon fill="none" stroke="#000000" points="286,-257.2 286,-279.2 411,-279.2 411,-257.2 286,-257.2"/>
<image xlink:href="../../images/primaryKeys.png" width="11px" height="12px" preserveAspectRatio="xMinYMin meet" x="291" y="-274.2"/>
<text text-anchor="start" x="306" y="-264.3" font-family="Helvetica,sans-Serif" font-size="11.00" fill="#000000">Id</text>
<polygon fill="none" stroke="#000000" points="411,-257.2 411,-279.2 492,-279.2 492,-257.2 411,-257.2"/>
<text text-anchor="start" x="414" y="-264.9" font-family="Helvetica,sans-Serif" font-size="11.00" fill="#000000">int identity[4]</text>
<polygon fill="none" stroke="#000000" points="286,-235.2 286,-257.2 411,-257.2 411,-235.2 286,-235.2"/>
<text text-anchor="start" x="306" y="-242.3" font-family="Helvetica,sans-Serif" font-size="11.00" fill="#000000">FirstName</text>
<polygon fill="none" stroke="#000000" points="411,-235.2 411,-257.2 492,-257.2 492,-235.2 411,-235.2"/>
<text text-anchor="start" x="414" y="-242.9" font-family="Helvetica,sans-Serif" font-size="11.00" fill="#000000">nvarchar[100]</text>
<polygon fill="none" stroke="#000000" points="286,-213.2 286,-235.2 411,-235.2 411,-213.2 286,-213.2"/>
<text text-anchor="start" x="306" y="-220.3" font-family="Helvetica,sans-Serif" font-size="11.00" fill="#000000">LastName</text>
<polygon fill="none" stroke="#000000" points="411,-213.2 411,-235.2 492,-235.2 492,-213.2 411,-213.2"/>
<text text-anchor="start" x="414" y="-220.9" font-family="Helvetica,sans-Serif" font-size="11.00" fill="#000000">nvarchar[100]</text>
<polygon fill="none" stroke="#000000" points="286,-191.2 286,-213.2 411,-213.2 411,-191.2 286,-191.2"/>
<text text-anchor="start" x="306" y="-198.3" font-family="Helvetica,sans-Serif" font-size="11.00" fill="#000000">TitleExtension</text>
<polygon fill="none" stroke="#000000" points="411,-191.2 411,-213.2 492,-213.2 492,-191.2 411,-191.2"/>
<text text-anchor="start" x="414" y="-198.9" font-family="Helvetica,sans-Serif" font-size="11.00" fill="#000000">nvarchar[20]</text>
<polygon fill="none" stroke="#000000" points="286,-169.2 286,-191.2 411,-191.2 411,-169.2 286,-169.2"/>
<text text-anchor="start" x="306" y="-176.3" font-family="Helvetica,sans-Serif" font-size="11.00" fill="#000000">Type</text>
<polygon fill="none" stroke="#000000" points="411,-169.2 411,-191.2 492,-191.2 492,-169.2 411,-169.2"/>
<text text-anchor="start" x="414" y="-176.9" font-family="Helvetica,sans-Serif" font-size="11.00" fill="#000000">int[4]</text>
<polygon fill="none" stroke="#000000" points="286,-147.2 286,-169.2 411,-169.2 411,-147.2 286,-147.2"/>
<text text-anchor="start" x="306" y="-154.3" font-family="Helvetica,sans-Serif" font-size="11.00" fill="#000000">Email</text>
<polygon fill="none" stroke="#000000" points="411,-147.2 411,-169.2 492,-169.2 492,-147.2 411,-147.2"/>
<text text-anchor="start" x="414" y="-154.9" font-family="Helvetica,sans-Serif" font-size="11.00" fill="#000000">nvarchar[200]</text>
<polygon fill="#ffffff" stroke="transparent" points="286,-125.2 286,-147.2 411,-147.2 411,-125.2 286,-125.2"/>
<polygon fill="none" stroke="#000000" points="286,-125.2 286,-147.2 411,-147.2 411,-125.2 286,-125.2"/>
<image xlink:href="../../images/foreignKeys.png" width="11px" height="12px" preserveAspectRatio="xMinYMin meet" x="291" y="-142.2"/>
<text text-anchor="start" x="306" y="-132.3" font-family="Helvetica,sans-Serif" font-size="11.00" fill="#000000">EmployeeId</text>
<polygon fill="none" stroke="#000000" points="411,-125.2 411,-147.2 492,-147.2 492,-125.2 411,-125.2"/>
<text text-anchor="start" x="414" y="-132.9" font-family="Helvetica,sans-Serif" font-size="11.00" fill="#000000">int[4]</text>
<polygon fill="none" stroke="#000000" points="286,-103.2 286,-125.2 411,-125.2 411,-103.2 286,-103.2"/>
<text text-anchor="start" x="306" y="-110.3" font-family="Helvetica,sans-Serif" font-size="11.00" fill="#000000">CreatedAtUtc</text>
<polygon fill="none" stroke="#000000" points="411,-103.2 411,-125.2 492,-125.2 492,-103.2 411,-103.2"/>
<text text-anchor="start" x="413.5968" y="-110.9" font-family="Helvetica,sans-Serif" font-size="11.00" fill="#000000">datetime2[16,7]</text>
<polygon fill="none" stroke="#000000" points="286,-81.2 286,-103.2 411,-103.2 411,-81.2 286,-81.2"/>
<text text-anchor="start" x="306" y="-88.3" font-family="Helvetica,sans-Serif" font-size="11.00" fill="#000000">UpdatedAtUtc</text>
<polygon fill="none" stroke="#000000" points="411,-81.2 411,-103.2 492,-103.2 492,-81.2 411,-81.2"/>
<text text-anchor="start" x="413.5968" y="-88.9" font-family="Helvetica,sans-Serif" font-size="11.00" fill="#000000">datetime2[16,7]</text>
<polygon fill="none" stroke="#000000" points="286,-59.2 286,-81.2 411,-81.2 411,-59.2 286,-59.2"/>
<text text-anchor="start" x="306" y="-66.3" font-family="Helvetica,sans-Serif" font-size="11.00" fill="#000000">RowVersion</text>
<polygon fill="none" stroke="#000000" points="411,-59.2 411,-81.2 492,-81.2 492,-59.2 411,-59.2"/>
<text text-anchor="start" x="414" y="-66.9" font-family="Helvetica,sans-Serif" font-size="11.00" fill="#000000">timestamp[8]</text>
<polygon fill="#ffffff" stroke="transparent" points="286,-40.2 286,-59.2 492,-59.2 492,-40.2 286,-40.2"/>
<polygon fill="none" stroke="#000000" points="286,-40.2 286,-59.2 492,-59.2 492,-40.2 286,-40.2"/>
<polygon fill="#ffffff" stroke="transparent" points="287,-41.2 287,-58.2 358,-58.2 358,-41.2 287,-41.2"/>
<text text-anchor="start" x="289" y="-46.3" font-family="Helvetica,sans-Serif" font-size="11.00" fill="#000000">&lt; 1</text>
<polygon fill="#ffffff" stroke="transparent" points="358,-41.2 358,-58.2 420,-58.2 420,-41.2 358,-41.2"/>
<text text-anchor="start" x="385.9431" y="-46.3" font-family="Helvetica,sans-Serif" font-size="11.00" fill="#000000"> &#160;</text>
<polygon fill="#ffffff" stroke="transparent" points="420,-41.2 420,-58.2 491,-58.2 491,-41.2 420,-41.2"/>
<text text-anchor="start" x="473.4053" y="-46.3" font-family="Helvetica,sans-Serif" font-size="11.00" fill="#000000">3 &gt;</text>
<polygon fill="#000000" stroke="#000000" points="358,-41.2 358,-58.2 358,-58.2 358,-41.2 358,-41.2"/>
<polygon fill="#000000" stroke="#000000" points="420,-41.2 420,-58.2 420,-58.2 420,-41.2 420,-41.2"/>
<polygon fill="none" stroke="#000000" stroke-width="2" points="285,-39.2 285,-303.2 493,-303.2 493,-39.2 285,-39.2"/>
</a>
</g>
</g>
<!-- Compensation.Employees -->
<g id="node2" class="node">
<title>Compensation.Employees</title>
<g id="a_node2"><a xlink:title="Compensation.Employees">
<polygon fill="#ffffff" stroke="transparent" points="8,-105.7 8,-166.7 235,-166.7 235,-105.7 8,-105.7"/>
<polygon fill="#f5f5f5" stroke="transparent" points="8.5,-143.2 8.5,-166.2 235.5,-166.2 235.5,-143.2 8.5,-143.2"/>
<polygon fill="none" stroke="#000000" points="8.5,-143.2 8.5,-166.2 235.5,-166.2 235.5,-143.2 8.5,-143.2"/>
<text text-anchor="start" x="13.5" y="-151.8" font-family="Helvetica,sans-Serif" font-weight="bold" font-size="11.00" fill="#000000">Compensation.Employees</text>
<text text-anchor="start" x="201.0219" y="-151.3" font-family="Helvetica,sans-Serif" font-size="11.00" fill="#000000">[table]</text>
<polygon fill="none" stroke="#000000" points="8.5,-124.2 8.5,-143.2 235.5,-143.2 235.5,-124.2 8.5,-124.2"/>
<text text-anchor="start" x="11.5" y="-130.3" font-family="Helvetica,sans-Serif" font-size="11.00" fill="#000000">...</text>
<polygon fill="#ffffff" stroke="transparent" points="8.5,-105.2 8.5,-124.2 235.5,-124.2 235.5,-105.2 8.5,-105.2"/>
<polygon fill="none" stroke="#000000" points="8.5,-105.2 8.5,-124.2 235.5,-124.2 235.5,-105.2 8.5,-105.2"/>
<polygon fill="#ffffff" stroke="transparent" points="9.5,-106.2 9.5,-123.2 81.5,-123.2 81.5,-106.2 9.5,-106.2"/>
<text text-anchor="start" x="11.5" y="-111.3" font-family="Helvetica,sans-Serif" font-size="11.00" fill="#000000"> &#160;</text>
<polygon fill="#ffffff" stroke="transparent" points="81.5,-106.2 81.5,-123.2 153.5,-123.2 153.5,-106.2 81.5,-106.2"/>
<text text-anchor="start" x="114.4431" y="-111.3" font-family="Helvetica,sans-Serif" font-size="11.00" fill="#000000"> &#160;</text>
<polygon fill="#ffffff" stroke="transparent" points="153.5,-106.2 153.5,-123.2 234.5,-123.2 234.5,-106.2 153.5,-106.2"/>
<text text-anchor="start" x="216.9053" y="-111.3" font-family="Helvetica,sans-Serif" font-size="11.00" fill="#000000">1 &gt;</text>
<polygon fill="#000000" stroke="#000000" points="81.5,-106.2 81.5,-123.2 81.5,-123.2 81.5,-106.2 81.5,-106.2"/>
<polygon fill="#000000" stroke="#000000" points="153.5,-106.2 153.5,-123.2 153.5,-123.2 153.5,-106.2 153.5,-106.2"/>
</a>
</g>
</g>
<!-- Providers&#45;&gt;Compensation.Employees -->
<g id="edge1" class="edge">
<title>Providers:w&#45;&gt;Compensation.Employees:e</title>
<path fill="none" stroke="#000000" d="M275.5003,-136.2C264.9009,-136.2 254.0373,-136.2 243.2242,-136.2"/>
<polygon fill="#000000" stroke="#000000" points="285.2,-132.2 285.2,-140.2 283.6,-140.2 283.6,-132.2 285.2,-132.2"/>
<polyline fill="none" stroke="#000000" points="286,-136.2 282,-136.2 "/>
<ellipse fill="none" stroke="#000000" cx="278.8" cy="-136.2001" rx="3.2" ry="3.2"/>
</g>
<!-- VisitAttendants -->
<g id="node3" class="node">
<title>VisitAttendants</title>
<g id="a_node3"><a xlink:href="../../tables/VisitAttendants.html" xlink:title="VisitAttendants" target="_top">
<polygon fill="#ffffff" stroke="transparent" points="620,-323.7 620,-450.7 773,-450.7 773,-323.7 620,-323.7"/>
<polygon fill="#f5f5f5" stroke="transparent" points="620.5,-427.2 620.5,-450.2 773.5,-450.2 773.5,-427.2 620.5,-427.2"/>
<polygon fill="none" stroke="#000000" points="620.5,-427.2 620.5,-450.2 773.5,-450.2 773.5,-427.2 620.5,-427.2"/>
<text text-anchor="start" x="625.5" y="-435.8" font-family="Helvetica,sans-Serif" font-weight="bold" font-size="11.00" fill="#000000">VisitAttendants</text>
<text text-anchor="start" x="739.0219" y="-435.3" font-family="Helvetica,sans-Serif" font-size="11.00" fill="#000000">[table]</text>
<polygon fill="none" stroke="#000000" points="620.5,-405.2 620.5,-427.2 773.5,-427.2 773.5,-405.2 620.5,-405.2"/>
<image xlink:href="../../images/primaryKeys.png" width="11px" height="12px" preserveAspectRatio="xMinYMin meet" x="625.5" y="-422.2"/>
<text text-anchor="start" x="649.5" y="-412.3" font-family="Helvetica,sans-Serif" font-size="11.00" fill="#000000">Id</text>
<polygon fill="#ffffff" stroke="transparent" points="620.5,-383.2 620.5,-405.2 773.5,-405.2 773.5,-383.2 620.5,-383.2"/>
<polygon fill="none" stroke="#000000" points="620.5,-383.2 620.5,-405.2 773.5,-405.2 773.5,-383.2 620.5,-383.2"/>
<image xlink:href="../../images/foreignKeys.png" width="11px" height="12px" preserveAspectRatio="xMinYMin meet" x="625.5" y="-400.2"/>
<text text-anchor="start" x="649.5" y="-390.3" font-family="Helvetica,sans-Serif" font-size="11.00" fill="#000000">VisitId</text>
<polygon fill="#ffffff" stroke="transparent" points="620.5,-361.2 620.5,-383.2 773.5,-383.2 773.5,-361.2 620.5,-361.2"/>
<polygon fill="none" stroke="#000000" points="620.5,-361.2 620.5,-383.2 773.5,-383.2 773.5,-361.2 620.5,-361.2"/>
<image xlink:href="../../images/foreignKeys.png" width="11px" height="12px" preserveAspectRatio="xMinYMin meet" x="625.5" y="-378.2"/>
<text text-anchor="start" x="649.5" y="-368.3" font-family="Helvetica,sans-Serif" font-size="11.00" fill="#000000">ProviderId</text>
<polygon fill="none" stroke="#000000" points="620.5,-342.2 620.5,-361.2 773.5,-361.2 773.5,-342.2 620.5,-342.2"/>
<text text-anchor="start" x="623.5" y="-348.3" font-family="Helvetica,sans-Serif" font-size="11.00" fill="#000000">...</text>
<polygon fill="#ffffff" stroke="transparent" points="620.5,-323.2 620.5,-342.2 773.5,-342.2 773.5,-323.2 620.5,-323.2"/>
<polygon fill="none" stroke="#000000" points="620.5,-323.2 620.5,-342.2 773.5,-342.2 773.5,-323.2 620.5,-323.2"/>
<polygon fill="#ffffff" stroke="transparent" points="621.5,-324.2 621.5,-341.2 678.5,-341.2 678.5,-324.2 621.5,-324.2"/>
<text text-anchor="start" x="623.5" y="-329.3" font-family="Helvetica,sans-Serif" font-size="11.00" fill="#000000">&lt; 2</text>
<polygon fill="#ffffff" stroke="transparent" points="678.5,-324.2 678.5,-341.2 725.5,-341.2 725.5,-324.2 678.5,-324.2"/>
<text text-anchor="start" x="698.9431" y="-329.3" font-family="Helvetica,sans-Serif" font-size="11.00" fill="#000000"> &#160;</text>
<polygon fill="#ffffff" stroke="transparent" points="725.5,-324.2 725.5,-341.2 772.5,-341.2 772.5,-324.2 725.5,-324.2"/>
<text text-anchor="start" x="764.3862" y="-329.3" font-family="Helvetica,sans-Serif" font-size="11.00" fill="#000000"> &#160;</text>
<polygon fill="#000000" stroke="#000000" points="678.5,-324.2 678.5,-341.2 678.5,-341.2 678.5,-324.2 678.5,-324.2"/>
<polygon fill="#000000" stroke="#000000" points="725.5,-324.2 725.5,-341.2 725.5,-341.2 725.5,-324.2 725.5,-324.2"/>
</a>
</g>
</g>
<!-- VisitAttendants&#45;&gt;Providers -->
<g id="edge2" class="edge">
<title>VisitAttendants:w&#45;&gt;Providers:e</title>
<path fill="none" stroke="#000000" d="M605.8804,-371.0487C572.9216,-365.3805 566.0141,-339.6464 535,-313.2 513.9509,-295.2509 519.6629,-268.2 492,-268.2"/>
<polygon fill="#000000" stroke="#000000" points="612.5247,-371.5719 620.2174,-375.7889 616.5123,-371.886 620.5,-372.2 620.5,-372.2 620.5,-372.2 616.5123,-371.886 620.7826,-368.6111 612.5247,-371.5719 612.5247,-371.5719"/>
<ellipse fill="none" stroke="#000000" cx="609.3346" cy="-371.3207" rx="3.2" ry="3.2"/>
</g>
<!-- staging.ProviderAssignments -->
<g id="node4" class="node">
<title>staging.ProviderAssignments</title>
<g id="a_node4"><a xlink:title="staging.ProviderAssignments">
<polygon fill="#ffffff" stroke="transparent" points="543,-109.7 543,-302.7 850,-302.7 850,-109.7 543,-109.7"/>
<polygon fill="#f5f5f5" stroke="transparent" points="543.5,-279.2 543.5,-302.2 850.5,-302.2 850.5,-279.2 543.5,-279.2"/>
<polygon fill="none" stroke="#000000" points="543.5,-279.2 543.5,-302.2 850.5,-302.2 850.5,-279.2 543.5,-279.2"/>
<text text-anchor="start" x="548.5" y="-287.8" font-family="Helvetica,sans-Serif" font-weight="bold" font-size="11.00" fill="#000000">staging.ProviderAssignments</text>
<text text-anchor="start" x="815.5437" y="-287.3" font-family="Helvetica,sans-Serif" font-size="11.00" fill="#000000">[table]</text>
<polygon fill="none" stroke="#000000" points="543.5,-257.2 543.5,-279.2 850.5,-279.2 850.5,-257.2 543.5,-257.2"/>
<image xlink:href="../../images/foreignKeys.png" width="11px" height="12px" preserveAspectRatio="xMinYMin meet" x="548.5" y="-274.2"/>
<text text-anchor="start" x="563.5" y="-264.3" font-family="Helvetica,sans-Serif" font-size="11.00" fill="#000000">ResolvedPhysicianId</text>
<polygon fill="none" stroke="#000000" points="543.5,-235.2 543.5,-257.2 850.5,-257.2 850.5,-235.2 543.5,-235.2"/>
<image xlink:href="../../images/foreignKeys.png" width="11px" height="12px" preserveAspectRatio="xMinYMin meet" x="548.5" y="-252.2"/>
<text text-anchor="start" x="563.5" y="-242.3" font-family="Helvetica,sans-Serif" font-size="11.00" fill="#000000">ResolvedHospitalizationId</text>
<polygon fill="none" stroke="#000000" points="543.5,-213.2 543.5,-235.2 850.5,-235.2 850.5,-213.2 543.5,-213.2"/>
<image xlink:href="../../images/foreignKeys.png" width="11px" height="12px" preserveAspectRatio="xMinYMin meet" x="548.5" y="-230.2"/>
<text text-anchor="start" x="563.5" y="-220.3" font-family="Helvetica,sans-Serif" font-size="11.00" fill="#000000">ResolvedPatientId</text>
<polygon fill="none" stroke="#000000" points="543.5,-191.2 543.5,-213.2 850.5,-213.2 850.5,-191.2 543.5,-191.2"/>
<image xlink:href="../../images/foreignKeys.png" width="11px" height="12px" preserveAspectRatio="xMinYMin meet" x="548.5" y="-208.2"/>
<text text-anchor="start" x="563.5" y="-198.3" font-family="Helvetica,sans-Serif" font-size="11.00" fill="#000000">ResolvedNursePractitionerId</text>
<polygon fill="none" stroke="#000000" points="543.5,-169.2 543.5,-191.2 850.5,-191.2 850.5,-169.2 543.5,-169.2"/>
<image xlink:href="../../images/foreignKeys.png" width="11px" height="12px" preserveAspectRatio="xMinYMin meet" x="548.5" y="-186.2"/>
<text text-anchor="start" x="563.5" y="-176.3" font-family="Helvetica,sans-Serif" font-size="11.00" fill="#000000">ResolvedVisitId</text>
<polygon fill="none" stroke="#000000" points="543.5,-147.2 543.5,-169.2 850.5,-169.2 850.5,-147.2 543.5,-147.2"/>
<image xlink:href="../../images/foreignKeys.png" width="11px" height="12px" preserveAspectRatio="xMinYMin meet" x="548.5" y="-164.2"/>
<text text-anchor="start" x="563.5" y="-154.3" font-family="Helvetica,sans-Serif" font-size="11.00" fill="#000000">ResolvedHospitalizationStatusId</text>
<polygon fill="none" stroke="#000000" points="543.5,-128.2 543.5,-147.2 850.5,-147.2 850.5,-128.2 543.5,-128.2"/>
<text text-anchor="start" x="546.5" y="-134.3" font-family="Helvetica,sans-Serif" font-size="11.00" fill="#000000">...</text>
<polygon fill="#ffffff" stroke="transparent" points="543.5,-109.2 543.5,-128.2 850.5,-128.2 850.5,-109.2 543.5,-109.2"/>
<polygon fill="none" stroke="#000000" points="543.5,-109.2 543.5,-128.2 850.5,-128.2 850.5,-109.2 543.5,-109.2"/>
<polygon fill="#ffffff" stroke="transparent" points="544.5,-110.2 544.5,-127.2 652.5,-127.2 652.5,-110.2 544.5,-110.2"/>
<text text-anchor="start" x="546.5" y="-115.3" font-family="Helvetica,sans-Serif" font-size="11.00" fill="#000000">&lt; 6</text>
<polygon fill="#ffffff" stroke="transparent" points="652.5,-110.2 652.5,-127.2 751.5,-127.2 751.5,-110.2 652.5,-110.2"/>
<text text-anchor="start" x="698.9431" y="-115.3" font-family="Helvetica,sans-Serif" font-size="11.00" fill="#000000"> &#160;</text>
<polygon fill="#ffffff" stroke="transparent" points="751.5,-110.2 751.5,-127.2 849.5,-127.2 849.5,-110.2 751.5,-110.2"/>
<text text-anchor="start" x="841.3862" y="-115.3" font-family="Helvetica,sans-Serif" font-size="11.00" fill="#000000"> &#160;</text>
<polygon fill="#000000" stroke="#000000" points="652.5,-110.2 652.5,-127.2 652.5,-127.2 652.5,-110.2 652.5,-110.2"/>
<polygon fill="#000000" stroke="#000000" points="751.5,-110.2 751.5,-127.2 751.5,-127.2 751.5,-110.2 751.5,-110.2"/>
</a>
</g>
</g>
<!-- staging.ProviderAssignments&#45;&gt;Providers -->
<g id="edge3" class="edge">
<title>staging.ProviderAssignments:w&#45;&gt;Providers:e</title>
<path fill="none" stroke="#000000" d="M529.511,-206.9466C512.1935,-222.0798 523.1026,-268.2 492,-268.2"/>
<polygon fill="#000000" stroke="#000000" points="535.9242,-204.7705 544.6567,-205.6091 539.7121,-203.4853 543.5,-202.2 543.5,-202.2 543.5,-202.2 539.7121,-203.4853 542.3433,-198.7909 535.9242,-204.7705 535.9242,-204.7705"/>
<ellipse fill="none" stroke="#000000" cx="532.8939" cy="-205.7988" rx="3.2" ry="3.2"/>
</g>
<!-- staging.ProviderAssignments&#45;&gt;Providers -->
<g id="edge4" class="edge">
<title>staging.ProviderAssignments:w&#45;&gt;Providers:e</title>
<path fill="none" stroke="#000000" d="M529.0156,-268.2C516.6771,-268.2 509.1667,-268.2 492,-268.2"/>
<polygon fill="#000000" stroke="#000000" points="535.5,-268.2001 543.5,-271.8 539.5,-268.2 543.5,-268.2 543.5,-268.2 543.5,-268.2 539.5,-268.2 543.5,-264.6 535.5,-268.2001 535.5,-268.2001"/>
<ellipse fill="none" stroke="#000000" cx="532.3" cy="-268.2001" rx="3.2" ry="3.2"/>
</g>
</g>
</svg>
