<?xml version="1.0" encoding="UTF-8" standalone="no"?>
<!DOCTYPE svg PUBLIC "-//W3C//DTD SVG 1.1//EN"
 "http://www.w3.org/Graphics/SVG/1.1/DTD/svg11.dtd">
<!-- Generated by graphviz version 2.40.1 (20161225.0304)
 -->
<!-- Title: twoDegreesRelationshipsDiagram Pages: 1 -->
<svg width="552pt" height="354pt"
 viewBox="0.00 0.00 552.00 353.70" xmlns="http://www.w3.org/2000/svg" xmlns:xlink="http://www.w3.org/1999/xlink">
<g id="graph0" class="graph" transform="scale(1 1) rotate(0) translate(4 349.7)">
<title>twoDegreesRelationshipsDiagram</title>
<polygon fill="#ffffff" stroke="transparent" points="-4,4 -4,-349.7 548,-349.7 548,4 -4,4"/>
<text text-anchor="middle" x="72.4936" y="-7.3" font-family="Helvetica,sans-Serif" font-size="11.00" fill="#000000">Generated by SchemaSpy</text>
<!-- Billing.ServiceTypeBillingCodes -->
<g id="node1" class="node">
<title>Billing.ServiceTypeBillingCodes</title>
<g id="a_node1"><a xlink:title="Billing.ServiceTypeBillingCodes">
<polygon fill="#ffffff" stroke="transparent" points="266,-132.7 266,-215.7 536,-215.7 536,-132.7 266,-132.7"/>
<polygon fill="#f5f5f5" stroke="transparent" points="266,-192.2 266,-215.2 536,-215.2 536,-192.2 266,-192.2"/>
<polygon fill="none" stroke="#000000" points="266,-192.2 266,-215.2 536,-215.2 536,-192.2 266,-192.2"/>
<text text-anchor="start" x="271" y="-200.8" font-family="Helvetica,sans-Serif" font-weight="bold" font-size="11.00" fill="#000000">Billing.ServiceTypeBillingCodes</text>
<text text-anchor="start" x="501.5219" y="-200.3" font-family="Helvetica,sans-Serif" font-size="11.00" fill="#000000">[table]</text>
<polygon fill="none" stroke="#000000" points="266,-170.2 266,-192.2 536,-192.2 536,-170.2 266,-170.2"/>
<image xlink:href="../../images/foreignKeys.png" width="11px" height="12px" preserveAspectRatio="xMinYMin meet" x="271" y="-187.2"/>
<text text-anchor="start" x="321" y="-177.3" font-family="Helvetica,sans-Serif" font-size="11.00" fill="#000000">ServiceTypeId</text>
<polygon fill="none" stroke="#000000" points="266,-151.2 266,-170.2 536,-170.2 536,-151.2 266,-151.2"/>
<text text-anchor="start" x="269" y="-157.3" font-family="Helvetica,sans-Serif" font-size="11.00" fill="#000000">...</text>
<polygon fill="#ffffff" stroke="transparent" points="266,-132.2 266,-151.2 536,-151.2 536,-132.2 266,-132.2"/>
<polygon fill="none" stroke="#000000" points="266,-132.2 266,-151.2 536,-151.2 536,-132.2 266,-132.2"/>
<polygon fill="#ffffff" stroke="transparent" points="267,-133.2 267,-150.2 363,-150.2 363,-133.2 267,-133.2"/>
<text text-anchor="start" x="269" y="-138.3" font-family="Helvetica,sans-Serif" font-size="11.00" fill="#000000">&lt; 1</text>
<polygon fill="#ffffff" stroke="transparent" points="363,-133.2 363,-150.2 449,-150.2 449,-133.2 363,-133.2"/>
<text text-anchor="start" x="402.9431" y="-138.3" font-family="Helvetica,sans-Serif" font-size="11.00" fill="#000000"> &#160;</text>
<polygon fill="#ffffff" stroke="transparent" points="449,-133.2 449,-150.2 535,-150.2 535,-133.2 449,-133.2"/>
<text text-anchor="start" x="526.8862" y="-138.3" font-family="Helvetica,sans-Serif" font-size="11.00" fill="#000000"> &#160;</text>
<polygon fill="#000000" stroke="#000000" points="363,-133.2 363,-150.2 363,-150.2 363,-133.2 363,-133.2"/>
<polygon fill="#000000" stroke="#000000" points="449,-133.2 449,-150.2 449,-150.2 449,-133.2 449,-133.2"/>
</a>
</g>
</g>
<!-- ServiceTypes -->
<g id="node2" class="node">
<title>ServiceTypes</title>
<g id="a_node2"><a xlink:href="../../tables/ServiceTypes.html" xlink:title="ServiceTypes" target="_top">
<polygon fill="#ffffff" stroke="transparent" points="8,-38.2 8,-238.2 217,-238.2 217,-38.2 8,-38.2"/>
<polygon fill="#f5f5f5" stroke="transparent" points="10.5,-213.2 10.5,-236.2 215.5,-236.2 215.5,-213.2 10.5,-213.2"/>
<polygon fill="none" stroke="#000000" points="10.5,-213.2 10.5,-236.2 215.5,-236.2 215.5,-213.2 10.5,-213.2"/>
<text text-anchor="start" x="15.5" y="-221.8" font-family="Helvetica,sans-Serif" font-weight="bold" font-size="11.00" fill="#000000">ServiceTypes</text>
<text text-anchor="start" x="180.5437" y="-221.3" font-family="Helvetica,sans-Serif" font-size="11.00" fill="#000000">[table]</text>
<polygon fill="none" stroke="#000000" points="10.5,-191.2 10.5,-213.2 134.5,-213.2 134.5,-191.2 10.5,-191.2"/>
<image xlink:href="../../images/primaryKeys.png" width="11px" height="12px" preserveAspectRatio="xMinYMin meet" x="15.5" y="-208.2"/>
<text text-anchor="start" x="30.5" y="-198.3" font-family="Helvetica,sans-Serif" font-size="11.00" fill="#000000">Id</text>
<polygon fill="none" stroke="#000000" points="134.5,-191.2 134.5,-213.2 215.5,-213.2 215.5,-191.2 134.5,-191.2"/>
<text text-anchor="start" x="137.5" y="-198.9" font-family="Helvetica,sans-Serif" font-size="11.00" fill="#000000">int[4]</text>
<polygon fill="#ffffff" stroke="transparent" points="10.5,-169.2 10.5,-191.2 134.5,-191.2 134.5,-169.2 10.5,-169.2"/>
<polygon fill="none" stroke="#000000" points="10.5,-169.2 10.5,-191.2 134.5,-191.2 134.5,-169.2 10.5,-169.2"/>
<text text-anchor="start" x="30.5" y="-176.3" font-family="Helvetica,sans-Serif" font-size="11.00" fill="#000000">Code</text>
<polygon fill="none" stroke="#000000" points="134.5,-169.2 134.5,-191.2 215.5,-191.2 215.5,-169.2 134.5,-169.2"/>
<text text-anchor="start" x="137.5" y="-176.9" font-family="Helvetica,sans-Serif" font-size="11.00" fill="#000000">nvarchar[100]</text>
<polygon fill="none" stroke="#000000" points="10.5,-147.2 10.5,-169.2 134.5,-169.2 134.5,-147.2 10.5,-147.2"/>
<text text-anchor="start" x="30.5" y="-154.3" font-family="Helvetica,sans-Serif" font-size="11.00" fill="#000000">Name</text>
<polygon fill="none" stroke="#000000" points="134.5,-147.2 134.5,-169.2 215.5,-169.2 215.5,-147.2 134.5,-147.2"/>
<text text-anchor="start" x="137.5" y="-154.9" font-family="Helvetica,sans-Serif" font-size="11.00" fill="#000000">nvarchar[200]</text>
<polygon fill="none" stroke="#000000" points="10.5,-125.2 10.5,-147.2 134.5,-147.2 134.5,-125.2 10.5,-125.2"/>
<text text-anchor="start" x="30.5" y="-132.3" font-family="Helvetica,sans-Serif" font-size="11.00" fill="#000000">DisplayOrder</text>
<polygon fill="none" stroke="#000000" points="134.5,-125.2 134.5,-147.2 215.5,-147.2 215.5,-125.2 134.5,-125.2"/>
<text text-anchor="start" x="137.5" y="-132.9" font-family="Helvetica,sans-Serif" font-size="11.00" fill="#000000">int[4]</text>
<polygon fill="none" stroke="#000000" points="10.5,-103.2 10.5,-125.2 134.5,-125.2 134.5,-103.2 10.5,-103.2"/>
<text text-anchor="start" x="30.5" y="-110.3" font-family="Helvetica,sans-Serif" font-size="11.00" fill="#000000">CreatedAtUtc</text>
<polygon fill="none" stroke="#000000" points="134.5,-103.2 134.5,-125.2 215.5,-125.2 215.5,-103.2 134.5,-103.2"/>
<text text-anchor="start" x="137.0967" y="-110.9" font-family="Helvetica,sans-Serif" font-size="11.00" fill="#000000">datetime2[16,7]</text>
<polygon fill="none" stroke="#000000" points="10.5,-81.2 10.5,-103.2 134.5,-103.2 134.5,-81.2 10.5,-81.2"/>
<text text-anchor="start" x="30.5" y="-88.3" font-family="Helvetica,sans-Serif" font-size="11.00" fill="#000000">UpdatedAtUtc</text>
<polygon fill="none" stroke="#000000" points="134.5,-81.2 134.5,-103.2 215.5,-103.2 215.5,-81.2 134.5,-81.2"/>
<text text-anchor="start" x="137.0967" y="-88.9" font-family="Helvetica,sans-Serif" font-size="11.00" fill="#000000">datetime2[16,7]</text>
<polygon fill="none" stroke="#000000" points="10.5,-59.2 10.5,-81.2 134.5,-81.2 134.5,-59.2 10.5,-59.2"/>
<text text-anchor="start" x="30.5" y="-66.3" font-family="Helvetica,sans-Serif" font-size="11.00" fill="#000000">RowVersion</text>
<polygon fill="none" stroke="#000000" points="134.5,-59.2 134.5,-81.2 215.5,-81.2 215.5,-59.2 134.5,-59.2"/>
<text text-anchor="start" x="137.5" y="-66.9" font-family="Helvetica,sans-Serif" font-size="11.00" fill="#000000">timestamp[8]</text>
<polygon fill="#ffffff" stroke="transparent" points="10.5,-40.2 10.5,-59.2 215.5,-59.2 215.5,-40.2 10.5,-40.2"/>
<polygon fill="none" stroke="#000000" points="10.5,-40.2 10.5,-59.2 215.5,-59.2 215.5,-40.2 10.5,-40.2"/>
<polygon fill="#ffffff" stroke="transparent" points="11.5,-41.2 11.5,-58.2 82.5,-58.2 82.5,-41.2 11.5,-41.2"/>
<text text-anchor="start" x="13.5" y="-46.3" font-family="Helvetica,sans-Serif" font-size="11.00" fill="#000000">&lt; 0</text>
<polygon fill="#ffffff" stroke="transparent" points="82.5,-41.2 82.5,-58.2 144.5,-58.2 144.5,-41.2 82.5,-41.2"/>
<text text-anchor="start" x="110.4431" y="-46.3" font-family="Helvetica,sans-Serif" font-size="11.00" fill="#000000"> &#160;</text>
<polygon fill="#ffffff" stroke="transparent" points="144.5,-41.2 144.5,-58.2 214.5,-58.2 214.5,-41.2 144.5,-41.2"/>
<text text-anchor="start" x="196.9053" y="-46.3" font-family="Helvetica,sans-Serif" font-size="11.00" fill="#000000">2 &gt;</text>
<polygon fill="#000000" stroke="#000000" points="82.5,-41.2 82.5,-58.2 82.5,-58.2 82.5,-41.2 82.5,-41.2"/>
<polygon fill="#000000" stroke="#000000" points="144.5,-41.2 144.5,-58.2 144.5,-58.2 144.5,-41.2 144.5,-41.2"/>
<polygon fill="none" stroke="#000000" stroke-width="2" points="9,-39.2 9,-237.2 216,-237.2 216,-39.2 9,-39.2"/>
</a>
</g>
</g>
<!-- Billing.ServiceTypeBillingCodes&#45;&gt;ServiceTypes -->
<g id="edge1" class="edge">
<title>Billing.ServiceTypeBillingCodes:w&#45;&gt;ServiceTypes:e</title>
<path fill="none" stroke="#000000" d="M251.6475,-184.2986C239.4642,-190.1401 233.9207,-202.2 215.5,-202.2"/>
<polygon fill="#000000" stroke="#000000" points="258.1802,-182.8883 266.7597,-184.7189 262.0901,-182.0442 266,-181.2 266,-181.2 266,-181.2 262.0901,-182.0442 265.2403,-177.6811 258.1802,-182.8883 258.1802,-182.8883"/>
<ellipse fill="none" stroke="#000000" cx="255.0522" cy="-183.5636" rx="3.2" ry="3.2"/>
</g>
<!-- Billing.VisitServiceBillings -->
<g id="node3" class="node">
<title>Billing.VisitServiceBillings</title>
<g id="a_node3"><a xlink:title="Billing.VisitServiceBillings">
<polygon fill="#ffffff" stroke="transparent" points="285.5,-236.7 285.5,-341.7 516.5,-341.7 516.5,-236.7 285.5,-236.7"/>
<polygon fill="#f5f5f5" stroke="transparent" points="286,-318.2 286,-341.2 517,-341.2 517,-318.2 286,-318.2"/>
<polygon fill="none" stroke="#000000" points="286,-318.2 286,-341.2 517,-341.2 517,-318.2 286,-318.2"/>
<text text-anchor="start" x="291" y="-326.8" font-family="Helvetica,sans-Serif" font-weight="bold" font-size="11.00" fill="#000000">Billing.VisitServiceBillings</text>
<text text-anchor="start" x="482.5219" y="-326.3" font-family="Helvetica,sans-Serif" font-size="11.00" fill="#000000">[table]</text>
<polygon fill="none" stroke="#000000" points="286,-296.2 286,-318.2 517,-318.2 517,-296.2 286,-296.2"/>
<image xlink:href="../../images/foreignKeys.png" width="11px" height="12px" preserveAspectRatio="xMinYMin meet" x="291" y="-313.2"/>
<text text-anchor="start" x="341" y="-303.3" font-family="Helvetica,sans-Serif" font-size="11.00" fill="#000000">VisitId</text>
<polygon fill="none" stroke="#000000" points="286,-274.2 286,-296.2 517,-296.2 517,-274.2 286,-274.2"/>
<image xlink:href="../../images/foreignKeys.png" width="11px" height="12px" preserveAspectRatio="xMinYMin meet" x="291" y="-291.2"/>
<text text-anchor="start" x="341" y="-281.3" font-family="Helvetica,sans-Serif" font-size="11.00" fill="#000000">ServiceTypeId</text>
<polygon fill="none" stroke="#000000" points="286,-255.2 286,-274.2 517,-274.2 517,-255.2 286,-255.2"/>
<text text-anchor="start" x="289" y="-261.3" font-family="Helvetica,sans-Serif" font-size="11.00" fill="#000000">...</text>
<polygon fill="#ffffff" stroke="transparent" points="286,-236.2 286,-255.2 517,-255.2 517,-236.2 286,-236.2"/>
<polygon fill="none" stroke="#000000" points="286,-236.2 286,-255.2 517,-255.2 517,-236.2 286,-236.2"/>
<polygon fill="#ffffff" stroke="transparent" points="287,-237.2 287,-254.2 370,-254.2 370,-237.2 287,-237.2"/>
<text text-anchor="start" x="289" y="-242.3" font-family="Helvetica,sans-Serif" font-size="11.00" fill="#000000">&lt; 2</text>
<polygon fill="#ffffff" stroke="transparent" points="370,-237.2 370,-254.2 443,-254.2 443,-237.2 370,-237.2"/>
<text text-anchor="start" x="403.4431" y="-242.3" font-family="Helvetica,sans-Serif" font-size="11.00" fill="#000000"> &#160;</text>
<polygon fill="#ffffff" stroke="transparent" points="443,-237.2 443,-254.2 516,-254.2 516,-237.2 443,-237.2"/>
<text text-anchor="start" x="507.8862" y="-242.3" font-family="Helvetica,sans-Serif" font-size="11.00" fill="#000000"> &#160;</text>
<polygon fill="#000000" stroke="#000000" points="370,-237.2 370,-254.2 370,-254.2 370,-237.2 370,-237.2"/>
<polygon fill="#000000" stroke="#000000" points="443,-237.2 443,-254.2 443,-254.2 443,-237.2 443,-237.2"/>
</a>
</g>
</g>
<!-- Billing.VisitServiceBillings&#45;&gt;ServiceTypes -->
<g id="edge2" class="edge">
<title>Billing.VisitServiceBillings:w&#45;&gt;ServiceTypes:e</title>
<path fill="none" stroke="#000000" d="M271.8215,-282.0477C242.7382,-266.8867 258.2282,-202.2 215.5,-202.2"/>
<polygon fill="#000000" stroke="#000000" points="278.1907,-283.4637 285.2187,-288.7142 282.0953,-284.3318 286,-285.2 286,-285.2 286,-285.2 282.0953,-284.3318 286.7813,-281.6858 278.1907,-283.4637 278.1907,-283.4637"/>
<ellipse fill="none" stroke="#000000" cx="275.067" cy="-282.7692" rx="3.2" ry="3.2"/>
</g>
<!-- Visits -->
<g id="node4" class="node">
<title>Visits</title>
<g id="a_node4"><a xlink:href="../../tables/Visits.html" xlink:title="Visits" target="_top">
<polygon fill="#ffffff" stroke="transparent" points="73,-279.7 73,-340.7 152,-340.7 152,-279.7 73,-279.7"/>
<polygon fill="#f5f5f5" stroke="transparent" points="73.5,-317.2 73.5,-340.2 152.5,-340.2 152.5,-317.2 73.5,-317.2"/>
<polygon fill="none" stroke="#000000" points="73.5,-317.2 73.5,-340.2 152.5,-340.2 152.5,-317.2 73.5,-317.2"/>
<text text-anchor="start" x="78.5" y="-325.8" font-family="Helvetica,sans-Serif" font-weight="bold" font-size="11.00" fill="#000000">Visits</text>
<text text-anchor="start" x="118.0219" y="-325.3" font-family="Helvetica,sans-Serif" font-size="11.00" fill="#000000">[table]</text>
<polygon fill="none" stroke="#000000" points="73.5,-298.2 73.5,-317.2 152.5,-317.2 152.5,-298.2 73.5,-298.2"/>
<text text-anchor="start" x="76.5" y="-304.3" font-family="Helvetica,sans-Serif" font-size="11.00" fill="#000000">...</text>
<polygon fill="#ffffff" stroke="transparent" points="73.5,-279.2 73.5,-298.2 152.5,-298.2 152.5,-279.2 73.5,-279.2"/>
<polygon fill="none" stroke="#000000" points="73.5,-279.2 73.5,-298.2 152.5,-298.2 152.5,-279.2 73.5,-279.2"/>
<polygon fill="#ffffff" stroke="transparent" points="74.5,-280.2 74.5,-297.2 103.5,-297.2 103.5,-280.2 74.5,-280.2"/>
<text text-anchor="start" x="76.5" y="-285.3" font-family="Helvetica,sans-Serif" font-size="11.00" fill="#000000">&lt; 1</text>
<polygon fill="#ffffff" stroke="transparent" points="103.5,-280.2 103.5,-297.2 123.5,-297.2 123.5,-280.2 103.5,-280.2"/>
<text text-anchor="start" x="110.4431" y="-285.3" font-family="Helvetica,sans-Serif" font-size="11.00" fill="#000000"> &#160;</text>
<polygon fill="#ffffff" stroke="transparent" points="123.5,-280.2 123.5,-297.2 151.5,-297.2 151.5,-280.2 123.5,-280.2"/>
<text text-anchor="start" x="133.9053" y="-285.3" font-family="Helvetica,sans-Serif" font-size="11.00" fill="#000000">4 &gt;</text>
<polygon fill="#000000" stroke="#000000" points="103.5,-280.2 103.5,-297.2 103.5,-297.2 103.5,-280.2 103.5,-280.2"/>
<polygon fill="#000000" stroke="#000000" points="123.5,-280.2 123.5,-297.2 123.5,-297.2 123.5,-280.2 123.5,-280.2"/>
</a>
</g>
</g>
<!-- Billing.VisitServiceBillings&#45;&gt;Visits -->
<g id="edge3" class="edge">
<title>Billing.VisitServiceBillings:w&#45;&gt;Visits:e</title>
<path fill="none" stroke="#000000" d="M271.3263,-307.2C223.7155,-307.2 206.6185,-307.2 152.5,-307.2"/>
<polygon fill="#000000" stroke="#000000" points="278,-307.2001 286,-310.8 282,-307.2 286,-307.2 286,-307.2 286,-307.2 282,-307.2 286,-303.6 278,-307.2001 278,-307.2001"/>
<ellipse fill="none" stroke="#000000" cx="274.8" cy="-307.2001" rx="3.2" ry="3.2"/>
</g>
</g>
</svg>
