<?xml version="1.0" encoding="UTF-8" standalone="no"?>
<!DOCTYPE svg PUBLIC "-//W3C//DTD SVG 1.1//EN"
 "http://www.w3.org/Graphics/SVG/1.1/DTD/svg11.dtd">
<!-- Generated by graphviz version 2.40.1 (20161225.0304)
 -->
<!-- Title: oneDegreeRelationshipsDiagram Pages: 1 -->
<svg width="504pt" height="345pt"
 viewBox="0.00 0.00 504.00 344.70" xmlns="http://www.w3.org/2000/svg" xmlns:xlink="http://www.w3.org/1999/xlink">
<g id="graph0" class="graph" transform="scale(1 1) rotate(0) translate(4 340.7)">
<title>oneDegreeRelationshipsDiagram</title>
<polygon fill="#ffffff" stroke="transparent" points="-4,4 -4,-340.7 500,-340.7 500,4 -4,4"/>
<text text-anchor="middle" x="72.4936" y="-7.3" font-family="Helvetica,sans-Serif" font-size="11.00" fill="#000000">Generated by SchemaSpy</text>
<!-- VisitEvents -->
<g id="node1" class="node">
<title>VisitEvents</title>
<g id="a_node1"><a xlink:href="../../tables/VisitEvents.html" xlink:title="VisitEvents" target="_top">
<polygon fill="#ffffff" stroke="transparent" points="223,-38.2 223,-282.2 488,-282.2 488,-38.2 223,-38.2"/>
<polygon fill="#f5f5f5" stroke="transparent" points="225.5,-257.2 225.5,-280.2 486.5,-280.2 486.5,-257.2 225.5,-257.2"/>
<polygon fill="none" stroke="#000000" points="225.5,-257.2 225.5,-280.2 486.5,-280.2 486.5,-257.2 225.5,-257.2"/>
<text text-anchor="start" x="230.5" y="-265.8" font-family="Helvetica,sans-Serif" font-weight="bold" font-size="11.00" fill="#000000">VisitEvents</text>
<text text-anchor="start" x="451.5437" y="-265.3" font-family="Helvetica,sans-Serif" font-size="11.00" fill="#000000">[table]</text>
<polygon fill="none" stroke="#000000" points="225.5,-235.2 225.5,-257.2 370.5,-257.2 370.5,-235.2 225.5,-235.2"/>
<image xlink:href="../../images/primaryKeys.png" width="11px" height="12px" preserveAspectRatio="xMinYMin meet" x="230.5" y="-252.2"/>
<text text-anchor="start" x="245.5" y="-242.3" font-family="Helvetica,sans-Serif" font-size="11.00" fill="#000000">Id</text>
<polygon fill="none" stroke="#000000" points="370.5,-235.2 370.5,-257.2 486.5,-257.2 486.5,-235.2 370.5,-235.2"/>
<text text-anchor="start" x="373.5" y="-242.9" font-family="Helvetica,sans-Serif" font-size="11.00" fill="#000000">int identity[4]</text>
<polygon fill="#ffffff" stroke="transparent" points="225.5,-213.2 225.5,-235.2 370.5,-235.2 370.5,-213.2 225.5,-213.2"/>
<polygon fill="none" stroke="#000000" points="225.5,-213.2 225.5,-235.2 370.5,-235.2 370.5,-213.2 225.5,-213.2"/>
<image xlink:href="../../images/foreignKeys.png" width="11px" height="12px" preserveAspectRatio="xMinYMin meet" x="230.5" y="-230.2"/>
<text text-anchor="start" x="245.5" y="-220.3" font-family="Helvetica,sans-Serif" font-size="11.00" fill="#000000">VisitId</text>
<polygon fill="none" stroke="#000000" points="370.5,-213.2 370.5,-235.2 486.5,-235.2 486.5,-213.2 370.5,-213.2"/>
<text text-anchor="start" x="373.5" y="-220.9" font-family="Helvetica,sans-Serif" font-size="11.00" fill="#000000">int[4]</text>
<polygon fill="#ffffff" stroke="transparent" points="225.5,-191.2 225.5,-213.2 370.5,-213.2 370.5,-191.2 225.5,-191.2"/>
<polygon fill="none" stroke="#000000" points="225.5,-191.2 225.5,-213.2 370.5,-213.2 370.5,-191.2 225.5,-191.2"/>
<image xlink:href="../../images/foreignKeys.png" width="11px" height="12px" preserveAspectRatio="xMinYMin meet" x="230.5" y="-208.2"/>
<text text-anchor="start" x="245.5" y="-198.3" font-family="Helvetica,sans-Serif" font-size="11.00" fill="#000000">EventTypeId</text>
<polygon fill="none" stroke="#000000" points="370.5,-191.2 370.5,-213.2 486.5,-213.2 486.5,-191.2 370.5,-191.2"/>
<text text-anchor="start" x="373.5" y="-198.9" font-family="Helvetica,sans-Serif" font-size="11.00" fill="#000000">int[4]</text>
<polygon fill="#ffffff" stroke="transparent" points="225.5,-169.2 225.5,-191.2 370.5,-191.2 370.5,-169.2 225.5,-169.2"/>
<polygon fill="none" stroke="#000000" points="225.5,-169.2 225.5,-191.2 370.5,-191.2 370.5,-169.2 225.5,-169.2"/>
<text text-anchor="start" x="245.5" y="-176.3" font-family="Helvetica,sans-Serif" font-size="11.00" fill="#000000">EventOccurredAt</text>
<polygon fill="none" stroke="#000000" points="370.5,-169.2 370.5,-191.2 486.5,-191.2 486.5,-169.2 370.5,-169.2"/>
<text text-anchor="start" x="373.5" y="-176.9" font-family="Helvetica,sans-Serif" font-size="11.00" fill="#000000">datetime2[16,7]</text>
<polygon fill="none" stroke="#000000" points="225.5,-147.2 225.5,-169.2 370.5,-169.2 370.5,-147.2 225.5,-147.2"/>
<text text-anchor="start" x="245.5" y="-154.3" font-family="Helvetica,sans-Serif" font-size="11.00" fill="#000000">Description</text>
<polygon fill="none" stroke="#000000" points="370.5,-147.2 370.5,-169.2 486.5,-169.2 486.5,-147.2 370.5,-147.2"/>
<text text-anchor="start" x="373.4769" y="-154.9" font-family="Helvetica,sans-Serif" font-size="11.00" fill="#000000">nvarchar[2147483647]</text>
<polygon fill="#ffffff" stroke="transparent" points="225.5,-125.2 225.5,-147.2 370.5,-147.2 370.5,-125.2 225.5,-125.2"/>
<polygon fill="none" stroke="#000000" points="225.5,-125.2 225.5,-147.2 370.5,-147.2 370.5,-125.2 225.5,-125.2"/>
<text text-anchor="start" x="245.5" y="-132.3" font-family="Helvetica,sans-Serif" font-size="11.00" fill="#000000">EnteredByUserId</text>
<polygon fill="none" stroke="#000000" points="370.5,-125.2 370.5,-147.2 486.5,-147.2 486.5,-125.2 370.5,-125.2"/>
<text text-anchor="start" x="373.5" y="-132.9" font-family="Helvetica,sans-Serif" font-size="11.00" fill="#000000">int[4]</text>
<polygon fill="none" stroke="#000000" points="225.5,-103.2 225.5,-125.2 370.5,-125.2 370.5,-103.2 225.5,-103.2"/>
<text text-anchor="start" x="245.5" y="-110.3" font-family="Helvetica,sans-Serif" font-size="11.00" fill="#000000">CreatedAtUtc</text>
<polygon fill="none" stroke="#000000" points="370.5,-103.2 370.5,-125.2 486.5,-125.2 486.5,-103.2 370.5,-103.2"/>
<text text-anchor="start" x="373.5" y="-110.9" font-family="Helvetica,sans-Serif" font-size="11.00" fill="#000000">datetime2[16,7]</text>
<polygon fill="none" stroke="#000000" points="225.5,-81.2 225.5,-103.2 370.5,-103.2 370.5,-81.2 225.5,-81.2"/>
<text text-anchor="start" x="245.5" y="-88.3" font-family="Helvetica,sans-Serif" font-size="11.00" fill="#000000">UpdatedAtUtc</text>
<polygon fill="none" stroke="#000000" points="370.5,-81.2 370.5,-103.2 486.5,-103.2 486.5,-81.2 370.5,-81.2"/>
<text text-anchor="start" x="373.5" y="-88.9" font-family="Helvetica,sans-Serif" font-size="11.00" fill="#000000">datetime2[16,7]</text>
<polygon fill="none" stroke="#000000" points="225.5,-59.2 225.5,-81.2 370.5,-81.2 370.5,-59.2 225.5,-59.2"/>
<text text-anchor="start" x="245.5" y="-66.3" font-family="Helvetica,sans-Serif" font-size="11.00" fill="#000000">RowVersion</text>
<polygon fill="none" stroke="#000000" points="370.5,-59.2 370.5,-81.2 486.5,-81.2 486.5,-59.2 370.5,-59.2"/>
<text text-anchor="start" x="373.5" y="-66.9" font-family="Helvetica,sans-Serif" font-size="11.00" fill="#000000">timestamp[8]</text>
<polygon fill="#ffffff" stroke="transparent" points="225.5,-40.2 225.5,-59.2 486.5,-59.2 486.5,-40.2 225.5,-40.2"/>
<polygon fill="none" stroke="#000000" points="225.5,-40.2 225.5,-59.2 486.5,-59.2 486.5,-40.2 225.5,-40.2"/>
<polygon fill="#ffffff" stroke="transparent" points="226.5,-41.2 226.5,-58.2 316.5,-58.2 316.5,-41.2 226.5,-41.2"/>
<text text-anchor="start" x="228.5" y="-46.3" font-family="Helvetica,sans-Serif" font-size="11.00" fill="#000000">&lt; 2</text>
<polygon fill="#ffffff" stroke="transparent" points="316.5,-41.2 316.5,-58.2 396.5,-58.2 396.5,-41.2 316.5,-41.2"/>
<text text-anchor="start" x="353.4431" y="-46.3" font-family="Helvetica,sans-Serif" font-size="11.00" fill="#000000"> &#160;</text>
<polygon fill="#ffffff" stroke="transparent" points="396.5,-41.2 396.5,-58.2 485.5,-58.2 485.5,-41.2 396.5,-41.2"/>
<text text-anchor="start" x="467.9053" y="-46.3" font-family="Helvetica,sans-Serif" font-size="11.00" fill="#000000">0 &gt;</text>
<polygon fill="#000000" stroke="#000000" points="316.5,-41.2 316.5,-58.2 316.5,-58.2 316.5,-41.2 316.5,-41.2"/>
<polygon fill="#000000" stroke="#000000" points="396.5,-41.2 396.5,-58.2 396.5,-58.2 396.5,-41.2 396.5,-41.2"/>
<polygon fill="none" stroke="#000000" stroke-width="2" points="224,-39.2 224,-281.2 487,-281.2 487,-39.2 224,-39.2"/>
</a>
</g>
</g>
<!-- VisitEventTypes -->
<g id="node2" class="node">
<title>VisitEventTypes</title>
<g id="a_node2"><a xlink:href="../../tables/VisitEventTypes.html" xlink:title="VisitEventTypes" target="_top">
<polygon fill="#ffffff" stroke="transparent" points="13,-57.7 13,-162.7 169,-162.7 169,-57.7 13,-57.7"/>
<polygon fill="#f5f5f5" stroke="transparent" points="13,-139.2 13,-162.2 169,-162.2 169,-139.2 13,-139.2"/>
<polygon fill="none" stroke="#000000" points="13,-139.2 13,-162.2 169,-162.2 169,-139.2 13,-139.2"/>
<text text-anchor="start" x="18" y="-147.8" font-family="Helvetica,sans-Serif" font-weight="bold" font-size="11.00" fill="#000000">VisitEventTypes</text>
<text text-anchor="start" x="134.5219" y="-147.3" font-family="Helvetica,sans-Serif" font-size="11.00" fill="#000000">[table]</text>
<polygon fill="none" stroke="#000000" points="13,-117.2 13,-139.2 169,-139.2 169,-117.2 13,-117.2"/>
<image xlink:href="../../images/primaryKeys.png" width="11px" height="12px" preserveAspectRatio="xMinYMin meet" x="18" y="-134.2"/>
<text text-anchor="start" x="42" y="-124.3" font-family="Helvetica,sans-Serif" font-size="11.00" fill="#000000">Id</text>
<polygon fill="#ffffff" stroke="transparent" points="13,-95.2 13,-117.2 169,-117.2 169,-95.2 13,-95.2"/>
<polygon fill="none" stroke="#000000" points="13,-95.2 13,-117.2 169,-117.2 169,-95.2 13,-95.2"/>
<text text-anchor="start" x="42" y="-102.3" font-family="Helvetica,sans-Serif" font-size="11.00" fill="#000000">Code</text>
<polygon fill="none" stroke="#000000" points="13,-76.2 13,-95.2 169,-95.2 169,-76.2 13,-76.2"/>
<text text-anchor="start" x="16" y="-82.3" font-family="Helvetica,sans-Serif" font-size="11.00" fill="#000000">...</text>
<polygon fill="#ffffff" stroke="transparent" points="13,-57.2 13,-76.2 169,-76.2 169,-57.2 13,-57.2"/>
<polygon fill="none" stroke="#000000" points="13,-57.2 13,-76.2 169,-76.2 169,-57.2 13,-57.2"/>
<polygon fill="#ffffff" stroke="transparent" points="14,-58.2 14,-75.2 63,-75.2 63,-58.2 14,-58.2"/>
<text text-anchor="start" x="16" y="-63.3" font-family="Helvetica,sans-Serif" font-size="11.00" fill="#000000"> &#160;</text>
<polygon fill="#ffffff" stroke="transparent" points="63,-58.2 63,-75.2 111,-75.2 111,-58.2 63,-58.2"/>
<text text-anchor="start" x="83.9431" y="-63.3" font-family="Helvetica,sans-Serif" font-size="11.00" fill="#000000"> &#160;</text>
<polygon fill="#ffffff" stroke="transparent" points="111,-58.2 111,-75.2 168,-75.2 168,-58.2 111,-58.2"/>
<text text-anchor="start" x="150.4053" y="-63.3" font-family="Helvetica,sans-Serif" font-size="11.00" fill="#000000">1 &gt;</text>
<polygon fill="#000000" stroke="#000000" points="63,-58.2 63,-75.2 63,-75.2 63,-58.2 63,-58.2"/>
<polygon fill="#000000" stroke="#000000" points="111,-58.2 111,-75.2 111,-75.2 111,-58.2 111,-58.2"/>
</a>
</g>
</g>
<!-- VisitEvents&#45;&gt;VisitEventTypes -->
<g id="edge1" class="edge">
<title>VisitEvents:w&#45;&gt;VisitEventTypes:e</title>
<path fill="none" stroke="#000000" d="M211.3885,-198.0094C190.2982,-182.3552 204.3987,-128.2 169,-128.2"/>
<polygon fill="#000000" stroke="#000000" points="217.831,-199.9226 224.4752,-205.651 221.6655,-201.0613 225.5,-202.2 225.5,-202.2 225.5,-202.2 221.6655,-201.0613 226.5248,-198.749 217.831,-199.9226 217.831,-199.9226"/>
<ellipse fill="none" stroke="#000000" cx="214.7634" cy="-199.0116" rx="3.2" ry="3.2"/>
</g>
<!-- Visits -->
<g id="node3" class="node">
<title>Visits</title>
<g id="a_node3"><a xlink:href="../../tables/Visits.html" xlink:title="Visits" target="_top">
<polygon fill="#ffffff" stroke="transparent" points="8,-183.7 8,-332.7 174,-332.7 174,-183.7 8,-183.7"/>
<polygon fill="#f5f5f5" stroke="transparent" points="8,-309.2 8,-332.2 174,-332.2 174,-309.2 8,-309.2"/>
<polygon fill="none" stroke="#000000" points="8,-309.2 8,-332.2 174,-332.2 174,-309.2 8,-309.2"/>
<text text-anchor="start" x="13" y="-317.8" font-family="Helvetica,sans-Serif" font-weight="bold" font-size="11.00" fill="#000000">Visits</text>
<text text-anchor="start" x="139.0437" y="-317.3" font-family="Helvetica,sans-Serif" font-size="11.00" fill="#000000">[table]</text>
<polygon fill="none" stroke="#000000" points="8,-287.2 8,-309.2 174,-309.2 174,-287.2 8,-287.2"/>
<image xlink:href="../../images/primaryKeys.png" width="11px" height="12px" preserveAspectRatio="xMinYMin meet" x="13" y="-304.2"/>
<text text-anchor="start" x="28" y="-294.3" font-family="Helvetica,sans-Serif" font-size="11.00" fill="#000000">Id</text>
<polygon fill="#ffffff" stroke="transparent" points="8,-265.2 8,-287.2 174,-287.2 174,-265.2 8,-265.2"/>
<polygon fill="none" stroke="#000000" points="8,-265.2 8,-287.2 174,-287.2 174,-265.2 8,-265.2"/>
<text text-anchor="start" x="28" y="-272.3" font-family="Helvetica,sans-Serif" font-size="11.00" fill="#000000">DateServiced</text>
<polygon fill="#ffffff" stroke="transparent" points="8,-243.2 8,-265.2 174,-265.2 174,-243.2 8,-243.2"/>
<polygon fill="none" stroke="#000000" points="8,-243.2 8,-265.2 174,-265.2 174,-243.2 8,-243.2"/>
<image xlink:href="../../images/foreignKeys.png" width="11px" height="12px" preserveAspectRatio="xMinYMin meet" x="13" y="-260.2"/>
<text text-anchor="start" x="28" y="-250.3" font-family="Helvetica,sans-Serif" font-size="11.00" fill="#000000">HospitalizationId</text>
<polygon fill="#ffffff" stroke="transparent" points="8,-221.2 8,-243.2 174,-243.2 174,-221.2 8,-221.2"/>
<polygon fill="none" stroke="#000000" points="8,-221.2 8,-243.2 174,-243.2 174,-221.2 8,-221.2"/>
<image xlink:href="../../images/foreignKeys.png" width="11px" height="12px" preserveAspectRatio="xMinYMin meet" x="13" y="-238.2"/>
<text text-anchor="start" x="28" y="-228.3" font-family="Helvetica,sans-Serif" font-size="11.00" fill="#000000">ServiceTypeId</text>
<polygon fill="none" stroke="#000000" points="8,-202.2 8,-221.2 174,-221.2 174,-202.2 8,-202.2"/>
<text text-anchor="start" x="11" y="-208.3" font-family="Helvetica,sans-Serif" font-size="11.00" fill="#000000">...</text>
<polygon fill="#ffffff" stroke="transparent" points="8,-183.2 8,-202.2 174,-202.2 174,-183.2 8,-183.2"/>
<polygon fill="none" stroke="#000000" points="8,-183.2 8,-202.2 174,-202.2 174,-183.2 8,-183.2"/>
<polygon fill="#ffffff" stroke="transparent" points="9,-184.2 9,-201.2 67,-201.2 67,-184.2 9,-184.2"/>
<text text-anchor="start" x="11" y="-189.3" font-family="Helvetica,sans-Serif" font-size="11.00" fill="#000000">&lt; 2</text>
<polygon fill="#ffffff" stroke="transparent" points="67,-184.2 67,-201.2 116,-201.2 116,-184.2 67,-184.2"/>
<text text-anchor="start" x="88.4431" y="-189.3" font-family="Helvetica,sans-Serif" font-size="11.00" fill="#000000"> &#160;</text>
<polygon fill="#ffffff" stroke="transparent" points="116,-184.2 116,-201.2 173,-201.2 173,-184.2 116,-184.2"/>
<text text-anchor="start" x="155.4053" y="-189.3" font-family="Helvetica,sans-Serif" font-size="11.00" fill="#000000">3 &gt;</text>
<polygon fill="#000000" stroke="#000000" points="67,-184.2 67,-201.2 67,-201.2 67,-184.2 67,-184.2"/>
<polygon fill="#000000" stroke="#000000" points="116,-184.2 116,-201.2 116,-201.2 116,-184.2 116,-184.2"/>
</a>
</g>
</g>
<!-- VisitEvents&#45;&gt;Visits -->
<g id="edge2" class="edge">
<title>VisitEvents:w&#45;&gt;Visits:e</title>
<path fill="none" stroke="#000000" d="M211.7488,-228.6074C192.4187,-244.5383 208.1218,-298.2 174,-298.2"/>
<polygon fill="#000000" stroke="#000000" points="217.8817,-226.6418 226.5988,-227.6282 221.6909,-225.4209 225.5,-224.2 225.5,-224.2 225.5,-224.2 221.6909,-225.4209 224.4012,-220.7718 217.8817,-226.6418 217.8817,-226.6418"/>
<ellipse fill="none" stroke="#000000" cx="214.8344" cy="-227.6185" rx="3.2" ry="3.2"/>
</g>
</g>
</svg>
