<?xml version="1.0" encoding="UTF-8" standalone="no"?>
<!DOCTYPE svg PUBLIC "-//W3C//DTD SVG 1.1//EN"
 "http://www.w3.org/Graphics/SVG/1.1/DTD/svg11.dtd">
<!-- Generated by graphviz version 2.40.1 (20161225.0304)
 -->
<!-- Title: oneDegreeRelationshipsDiagram Pages: 1 -->
<svg width="459pt" height="325pt"
 viewBox="0.00 0.00 459.00 325.20" xmlns="http://www.w3.org/2000/svg" xmlns:xlink="http://www.w3.org/1999/xlink">
<g id="graph0" class="graph" transform="scale(1 1) rotate(0) translate(4 321.2)">
<title>oneDegreeRelationshipsDiagram</title>
<polygon fill="#ffffff" stroke="transparent" points="-4,4 -4,-321.2 455,-321.2 455,4 -4,4"/>
<text text-anchor="middle" x="72.4936" y="-7.3" font-family="Helvetica,sans-Serif" font-size="11.00" fill="#000000">Generated by SchemaSpy</text>
<!-- VisitAttendants -->
<g id="node1" class="node">
<title>VisitAttendants</title>
<g id="a_node1"><a xlink:href="../../tables/VisitAttendants.html" xlink:title="VisitAttendants" target="_top">
<polygon fill="#ffffff" stroke="transparent" points="223,-95.7 223,-273.7 443,-273.7 443,-95.7 223,-95.7"/>
<polygon fill="#f5f5f5" stroke="transparent" points="225,-248.7 225,-271.7 441,-271.7 441,-248.7 225,-248.7"/>
<polygon fill="none" stroke="#000000" points="225,-248.7 225,-271.7 441,-271.7 441,-248.7 225,-248.7"/>
<text text-anchor="start" x="230" y="-257.3" font-family="Helvetica,sans-Serif" font-weight="bold" font-size="11.00" fill="#000000">VisitAttendants</text>
<text text-anchor="start" x="406.0437" y="-256.8" font-family="Helvetica,sans-Serif" font-size="11.00" fill="#000000">[table]</text>
<polygon fill="none" stroke="#000000" points="225,-226.7 225,-248.7 360,-248.7 360,-226.7 225,-226.7"/>
<image xlink:href="../../images/primaryKeys.png" width="11px" height="12px" preserveAspectRatio="xMinYMin meet" x="230" y="-243.7"/>
<text text-anchor="start" x="245" y="-233.8" font-family="Helvetica,sans-Serif" font-size="11.00" fill="#000000">Id</text>
<polygon fill="none" stroke="#000000" points="360,-226.7 360,-248.7 441,-248.7 441,-226.7 360,-226.7"/>
<text text-anchor="start" x="363" y="-234.4" font-family="Helvetica,sans-Serif" font-size="11.00" fill="#000000">int identity[4]</text>
<polygon fill="#ffffff" stroke="transparent" points="225,-204.7 225,-226.7 360,-226.7 360,-204.7 225,-204.7"/>
<polygon fill="none" stroke="#000000" points="225,-204.7 225,-226.7 360,-226.7 360,-204.7 225,-204.7"/>
<image xlink:href="../../images/foreignKeys.png" width="11px" height="12px" preserveAspectRatio="xMinYMin meet" x="230" y="-221.7"/>
<text text-anchor="start" x="245" y="-211.8" font-family="Helvetica,sans-Serif" font-size="11.00" fill="#000000">VisitId</text>
<polygon fill="none" stroke="#000000" points="360,-204.7 360,-226.7 441,-226.7 441,-204.7 360,-204.7"/>
<text text-anchor="start" x="363" y="-212.4" font-family="Helvetica,sans-Serif" font-size="11.00" fill="#000000">int[4]</text>
<polygon fill="#ffffff" stroke="transparent" points="225,-182.7 225,-204.7 360,-204.7 360,-182.7 225,-182.7"/>
<polygon fill="none" stroke="#000000" points="225,-182.7 225,-204.7 360,-204.7 360,-182.7 225,-182.7"/>
<image xlink:href="../../images/foreignKeys.png" width="11px" height="12px" preserveAspectRatio="xMinYMin meet" x="230" y="-199.7"/>
<text text-anchor="start" x="245" y="-189.8" font-family="Helvetica,sans-Serif" font-size="11.00" fill="#000000">ProviderId</text>
<polygon fill="none" stroke="#000000" points="360,-182.7 360,-204.7 441,-204.7 441,-182.7 360,-182.7"/>
<text text-anchor="start" x="363" y="-190.4" font-family="Helvetica,sans-Serif" font-size="11.00" fill="#000000">int[4]</text>
<polygon fill="none" stroke="#000000" points="225,-160.7 225,-182.7 360,-182.7 360,-160.7 225,-160.7"/>
<text text-anchor="start" x="245" y="-167.8" font-family="Helvetica,sans-Serif" font-size="11.00" fill="#000000">CreatedAtUtc</text>
<polygon fill="none" stroke="#000000" points="360,-160.7 360,-182.7 441,-182.7 441,-160.7 360,-160.7"/>
<text text-anchor="start" x="362.5968" y="-168.4" font-family="Helvetica,sans-Serif" font-size="11.00" fill="#000000">datetime2[16,7]</text>
<polygon fill="none" stroke="#000000" points="225,-138.7 225,-160.7 360,-160.7 360,-138.7 225,-138.7"/>
<text text-anchor="start" x="245" y="-145.8" font-family="Helvetica,sans-Serif" font-size="11.00" fill="#000000">UpdatedAtUtc</text>
<polygon fill="none" stroke="#000000" points="360,-138.7 360,-160.7 441,-160.7 441,-138.7 360,-138.7"/>
<text text-anchor="start" x="362.5968" y="-146.4" font-family="Helvetica,sans-Serif" font-size="11.00" fill="#000000">datetime2[16,7]</text>
<polygon fill="none" stroke="#000000" points="225,-116.7 225,-138.7 360,-138.7 360,-116.7 225,-116.7"/>
<text text-anchor="start" x="245" y="-123.8" font-family="Helvetica,sans-Serif" font-size="11.00" fill="#000000">RowVersion</text>
<polygon fill="none" stroke="#000000" points="360,-116.7 360,-138.7 441,-138.7 441,-116.7 360,-116.7"/>
<text text-anchor="start" x="363" y="-124.4" font-family="Helvetica,sans-Serif" font-size="11.00" fill="#000000">timestamp[8]</text>
<polygon fill="#ffffff" stroke="transparent" points="225,-97.7 225,-116.7 441,-116.7 441,-97.7 225,-97.7"/>
<polygon fill="none" stroke="#000000" points="225,-97.7 225,-116.7 441,-116.7 441,-97.7 225,-97.7"/>
<polygon fill="#ffffff" stroke="transparent" points="226,-98.7 226,-115.7 301,-115.7 301,-98.7 226,-98.7"/>
<text text-anchor="start" x="228" y="-103.8" font-family="Helvetica,sans-Serif" font-size="11.00" fill="#000000">&lt; 2</text>
<polygon fill="#ffffff" stroke="transparent" points="301,-98.7 301,-115.7 366,-115.7 366,-98.7 301,-98.7"/>
<text text-anchor="start" x="330.4431" y="-103.8" font-family="Helvetica,sans-Serif" font-size="11.00" fill="#000000"> &#160;</text>
<polygon fill="#ffffff" stroke="transparent" points="366,-98.7 366,-115.7 440,-115.7 440,-98.7 366,-98.7"/>
<text text-anchor="start" x="422.4053" y="-103.8" font-family="Helvetica,sans-Serif" font-size="11.00" fill="#000000">0 &gt;</text>
<polygon fill="#000000" stroke="#000000" points="301,-98.7 301,-115.7 301,-115.7 301,-98.7 301,-98.7"/>
<polygon fill="#000000" stroke="#000000" points="366,-98.7 366,-115.7 366,-115.7 366,-98.7 366,-98.7"/>
<polygon fill="none" stroke="#000000" stroke-width="2" points="224,-96.7 224,-272.7 442,-272.7 442,-96.7 224,-96.7"/>
</a>
</g>
</g>
<!-- Providers -->
<g id="node2" class="node">
<title>Providers</title>
<g id="a_node2"><a xlink:href="../../tables/Providers.html" xlink:title="Providers" target="_top">
<polygon fill="#ffffff" stroke="transparent" points="25,-38.2 25,-165.2 157,-165.2 157,-38.2 25,-38.2"/>
<polygon fill="#f5f5f5" stroke="transparent" points="25,-141.7 25,-164.7 157,-164.7 157,-141.7 25,-141.7"/>
<polygon fill="none" stroke="#000000" points="25,-141.7 25,-164.7 157,-164.7 157,-141.7 25,-141.7"/>
<text text-anchor="start" x="30" y="-150.3" font-family="Helvetica,sans-Serif" font-weight="bold" font-size="11.00" fill="#000000">Providers</text>
<text text-anchor="start" x="122.0437" y="-149.8" font-family="Helvetica,sans-Serif" font-size="11.00" fill="#000000">[table]</text>
<polygon fill="none" stroke="#000000" points="25,-119.7 25,-141.7 157,-141.7 157,-119.7 25,-119.7"/>
<image xlink:href="../../images/primaryKeys.png" width="11px" height="12px" preserveAspectRatio="xMinYMin meet" x="30" y="-136.7"/>
<text text-anchor="start" x="45" y="-126.8" font-family="Helvetica,sans-Serif" font-size="11.00" fill="#000000">Id</text>
<polygon fill="#ffffff" stroke="transparent" points="25,-97.7 25,-119.7 157,-119.7 157,-97.7 25,-97.7"/>
<polygon fill="none" stroke="#000000" points="25,-97.7 25,-119.7 157,-119.7 157,-97.7 25,-97.7"/>
<image xlink:href="../../images/foreignKeys.png" width="11px" height="12px" preserveAspectRatio="xMinYMin meet" x="30" y="-114.7"/>
<text text-anchor="start" x="45" y="-104.8" font-family="Helvetica,sans-Serif" font-size="11.00" fill="#000000">ProviderTypeId</text>
<polygon fill="#ffffff" stroke="transparent" points="25,-75.7 25,-97.7 157,-97.7 157,-75.7 25,-75.7"/>
<polygon fill="none" stroke="#000000" points="25,-75.7 25,-97.7 157,-97.7 157,-75.7 25,-75.7"/>
<image xlink:href="../../images/foreignKeys.png" width="11px" height="12px" preserveAspectRatio="xMinYMin meet" x="30" y="-92.7"/>
<text text-anchor="start" x="45" y="-82.8" font-family="Helvetica,sans-Serif" font-size="11.00" fill="#000000">EmployeeId</text>
<polygon fill="none" stroke="#000000" points="25,-56.7 25,-75.7 157,-75.7 157,-56.7 25,-56.7"/>
<text text-anchor="start" x="28" y="-62.8" font-family="Helvetica,sans-Serif" font-size="11.00" fill="#000000">...</text>
<polygon fill="#ffffff" stroke="transparent" points="25,-37.7 25,-56.7 157,-56.7 157,-37.7 25,-37.7"/>
<polygon fill="none" stroke="#000000" points="25,-37.7 25,-56.7 157,-56.7 157,-37.7 25,-37.7"/>
<polygon fill="#ffffff" stroke="transparent" points="26,-38.7 26,-55.7 73,-55.7 73,-38.7 26,-38.7"/>
<text text-anchor="start" x="28" y="-43.8" font-family="Helvetica,sans-Serif" font-size="11.00" fill="#000000">&lt; 2</text>
<polygon fill="#ffffff" stroke="transparent" points="73,-38.7 73,-55.7 110,-55.7 110,-38.7 73,-38.7"/>
<text text-anchor="start" x="88.4431" y="-43.8" font-family="Helvetica,sans-Serif" font-size="11.00" fill="#000000"> &#160;</text>
<polygon fill="#ffffff" stroke="transparent" points="110,-38.7 110,-55.7 156,-55.7 156,-38.7 110,-38.7"/>
<text text-anchor="start" x="138.4053" y="-43.8" font-family="Helvetica,sans-Serif" font-size="11.00" fill="#000000">3 &gt;</text>
<polygon fill="#000000" stroke="#000000" points="73,-38.7 73,-55.7 73,-55.7 73,-38.7 73,-38.7"/>
<polygon fill="#000000" stroke="#000000" points="110,-38.7 110,-55.7 110,-55.7 110,-38.7 110,-38.7"/>
</a>
</g>
</g>
<!-- VisitAttendants&#45;&gt;Providers -->
<g id="edge1" class="edge">
<title>VisitAttendants:w&#45;&gt;Providers:e</title>
<path fill="none" stroke="#000000" d="M210.9354,-190.4892C186.6986,-177.651 192.5666,-130.7 157,-130.7"/>
<polygon fill="#000000" stroke="#000000" points="217.2007,-191.9195 224.1988,-197.2097 221.1003,-192.8097 225,-193.7 225,-193.7 225,-193.7 221.1003,-192.8097 225.8012,-190.1903 217.2007,-191.9195 217.2007,-191.9195"/>
<ellipse fill="none" stroke="#000000" cx="214.0809" cy="-191.2072" rx="3.2" ry="3.2"/>
</g>
<!-- Visits -->
<g id="node3" class="node">
<title>Visits</title>
<g id="a_node3"><a xlink:href="../../tables/Visits.html" xlink:title="Visits" target="_top">
<polygon fill="#ffffff" stroke="transparent" points="8,-186.2 8,-313.2 174,-313.2 174,-186.2 8,-186.2"/>
<polygon fill="#f5f5f5" stroke="transparent" points="8,-289.7 8,-312.7 174,-312.7 174,-289.7 8,-289.7"/>
<polygon fill="none" stroke="#000000" points="8,-289.7 8,-312.7 174,-312.7 174,-289.7 8,-289.7"/>
<text text-anchor="start" x="13" y="-298.3" font-family="Helvetica,sans-Serif" font-weight="bold" font-size="11.00" fill="#000000">Visits</text>
<text text-anchor="start" x="139.0437" y="-297.8" font-family="Helvetica,sans-Serif" font-size="11.00" fill="#000000">[table]</text>
<polygon fill="none" stroke="#000000" points="8,-267.7 8,-289.7 174,-289.7 174,-267.7 8,-267.7"/>
<image xlink:href="../../images/primaryKeys.png" width="11px" height="12px" preserveAspectRatio="xMinYMin meet" x="13" y="-284.7"/>
<text text-anchor="start" x="28" y="-274.8" font-family="Helvetica,sans-Serif" font-size="11.00" fill="#000000">Id</text>
<polygon fill="#ffffff" stroke="transparent" points="8,-245.7 8,-267.7 174,-267.7 174,-245.7 8,-245.7"/>
<polygon fill="none" stroke="#000000" points="8,-245.7 8,-267.7 174,-267.7 174,-245.7 8,-245.7"/>
<text text-anchor="start" x="28" y="-252.8" font-family="Helvetica,sans-Serif" font-size="11.00" fill="#000000">DateServiced</text>
<polygon fill="#ffffff" stroke="transparent" points="8,-223.7 8,-245.7 174,-245.7 174,-223.7 8,-223.7"/>
<polygon fill="none" stroke="#000000" points="8,-223.7 8,-245.7 174,-245.7 174,-223.7 8,-223.7"/>
<image xlink:href="../../images/foreignKeys.png" width="11px" height="12px" preserveAspectRatio="xMinYMin meet" x="13" y="-240.7"/>
<text text-anchor="start" x="28" y="-230.8" font-family="Helvetica,sans-Serif" font-size="11.00" fill="#000000">HospitalizationId</text>
<polygon fill="none" stroke="#000000" points="8,-204.7 8,-223.7 174,-223.7 174,-204.7 8,-204.7"/>
<text text-anchor="start" x="11" y="-210.8" font-family="Helvetica,sans-Serif" font-size="11.00" fill="#000000">...</text>
<polygon fill="#ffffff" stroke="transparent" points="8,-185.7 8,-204.7 174,-204.7 174,-185.7 8,-185.7"/>
<polygon fill="none" stroke="#000000" points="8,-185.7 8,-204.7 174,-204.7 174,-185.7 8,-185.7"/>
<polygon fill="#ffffff" stroke="transparent" points="9,-186.7 9,-203.7 67,-203.7 67,-186.7 9,-186.7"/>
<text text-anchor="start" x="11" y="-191.8" font-family="Helvetica,sans-Serif" font-size="11.00" fill="#000000">&lt; 1</text>
<polygon fill="#ffffff" stroke="transparent" points="67,-186.7 67,-203.7 116,-203.7 116,-186.7 67,-186.7"/>
<text text-anchor="start" x="88.4431" y="-191.8" font-family="Helvetica,sans-Serif" font-size="11.00" fill="#000000"> &#160;</text>
<polygon fill="#ffffff" stroke="transparent" points="116,-186.7 116,-203.7 173,-203.7 173,-186.7 116,-186.7"/>
<text text-anchor="start" x="155.4053" y="-191.8" font-family="Helvetica,sans-Serif" font-size="11.00" fill="#000000">4 &gt;</text>
<polygon fill="#000000" stroke="#000000" points="67,-186.7 67,-203.7 67,-203.7 67,-186.7 67,-186.7"/>
<polygon fill="#000000" stroke="#000000" points="116,-186.7 116,-203.7 116,-203.7 116,-186.7 116,-186.7"/>
</a>
</g>
</g>
<!-- VisitAttendants&#45;&gt;Visits -->
<g id="edge2" class="edge">
<title>VisitAttendants:w&#45;&gt;Visits:e</title>
<path fill="none" stroke="#000000" d="M210.9033,-220.6435C194.525,-235.4952 203.8329,-278.7 174,-278.7"/>
<polygon fill="#000000" stroke="#000000" points="217.4507,-218.3474 226.1913,-219.0972 221.2254,-217.0237 225,-215.7 225,-215.7 225,-215.7 221.2254,-217.0237 223.8087,-212.3028 217.4507,-218.3474 217.4507,-218.3474"/>
<ellipse fill="none" stroke="#000000" cx="214.431" cy="-219.4064" rx="3.2" ry="3.2"/>
</g>
</g>
</svg>
