<?xml version="1.0" encoding="UTF-8" standalone="no"?>
<!DOCTYPE svg PUBLIC "-//W3C//DTD SVG 1.1//EN"
 "http://www.w3.org/Graphics/SVG/1.1/DTD/svg11.dtd">
<!-- Generated by graphviz version 2.40.1 (20161225.0304)
 -->
<!-- Title: oneDegreeRelationshipsDiagram Pages: 1 -->
<svg width="459pt" height="303pt"
 viewBox="0.00 0.00 459.00 303.20" xmlns="http://www.w3.org/2000/svg" xmlns:xlink="http://www.w3.org/1999/xlink">
<g id="graph0" class="graph" transform="scale(1 1) rotate(0) translate(4 299.2)">
<title>oneDegreeRelationshipsDiagram</title>
<polygon fill="#ffffff" stroke="transparent" points="-4,4 -4,-299.2 455,-299.2 455,4 -4,4"/>
<text text-anchor="middle" x="72.4936" y="-7.3" font-family="Helvetica,sans-Serif" font-size="11.00" fill="#000000">Generated by SchemaSpy</text>
<!-- VisitAttendants -->
<g id="node1" class="node">
<title>VisitAttendants</title>
<g id="a_node1"><a xlink:href="../../tables/VisitAttendants.html" xlink:title="VisitAttendants" target="_top">
<polygon fill="#ffffff" stroke="transparent" points="223,-73.7 223,-251.7 443,-251.7 443,-73.7 223,-73.7"/>
<polygon fill="#f5f5f5" stroke="transparent" points="225,-226.7 225,-249.7 441,-249.7 441,-226.7 225,-226.7"/>
<polygon fill="none" stroke="#000000" points="225,-226.7 225,-249.7 441,-249.7 441,-226.7 225,-226.7"/>
<text text-anchor="start" x="230" y="-235.3" font-family="Helvetica,sans-Serif" font-weight="bold" font-size="11.00" fill="#000000">VisitAttendants</text>
<text text-anchor="start" x="406.0437" y="-234.8" font-family="Helvetica,sans-Serif" font-size="11.00" fill="#000000">[table]</text>
<polygon fill="none" stroke="#000000" points="225,-204.7 225,-226.7 360,-226.7 360,-204.7 225,-204.7"/>
<image xlink:href="../../images/primaryKeys.png" width="11px" height="12px" preserveAspectRatio="xMinYMin meet" x="230" y="-221.7"/>
<text text-anchor="start" x="245" y="-211.8" font-family="Helvetica,sans-Serif" font-size="11.00" fill="#000000">Id</text>
<polygon fill="none" stroke="#000000" points="360,-204.7 360,-226.7 441,-226.7 441,-204.7 360,-204.7"/>
<text text-anchor="start" x="363" y="-212.4" font-family="Helvetica,sans-Serif" font-size="11.00" fill="#000000">int identity[4]</text>
<polygon fill="#ffffff" stroke="transparent" points="225,-182.7 225,-204.7 360,-204.7 360,-182.7 225,-182.7"/>
<polygon fill="none" stroke="#000000" points="225,-182.7 225,-204.7 360,-204.7 360,-182.7 225,-182.7"/>
<image xlink:href="../../images/foreignKeys.png" width="11px" height="12px" preserveAspectRatio="xMinYMin meet" x="230" y="-199.7"/>
<text text-anchor="start" x="245" y="-189.8" font-family="Helvetica,sans-Serif" font-size="11.00" fill="#000000">VisitId</text>
<polygon fill="none" stroke="#000000" points="360,-182.7 360,-204.7 441,-204.7 441,-182.7 360,-182.7"/>
<text text-anchor="start" x="363" y="-190.4" font-family="Helvetica,sans-Serif" font-size="11.00" fill="#000000">int[4]</text>
<polygon fill="#ffffff" stroke="transparent" points="225,-160.7 225,-182.7 360,-182.7 360,-160.7 225,-160.7"/>
<polygon fill="none" stroke="#000000" points="225,-160.7 225,-182.7 360,-182.7 360,-160.7 225,-160.7"/>
<image xlink:href="../../images/foreignKeys.png" width="11px" height="12px" preserveAspectRatio="xMinYMin meet" x="230" y="-177.7"/>
<text text-anchor="start" x="245" y="-167.8" font-family="Helvetica,sans-Serif" font-size="11.00" fill="#000000">ProviderId</text>
<polygon fill="none" stroke="#000000" points="360,-160.7 360,-182.7 441,-182.7 441,-160.7 360,-160.7"/>
<text text-anchor="start" x="363" y="-168.4" font-family="Helvetica,sans-Serif" font-size="11.00" fill="#000000">int[4]</text>
<polygon fill="none" stroke="#000000" points="225,-138.7 225,-160.7 360,-160.7 360,-138.7 225,-138.7"/>
<text text-anchor="start" x="245" y="-145.8" font-family="Helvetica,sans-Serif" font-size="11.00" fill="#000000">CreatedAtUtc</text>
<polygon fill="none" stroke="#000000" points="360,-138.7 360,-160.7 441,-160.7 441,-138.7 360,-138.7"/>
<text text-anchor="start" x="362.5968" y="-146.4" font-family="Helvetica,sans-Serif" font-size="11.00" fill="#000000">datetime2[16,7]</text>
<polygon fill="none" stroke="#000000" points="225,-116.7 225,-138.7 360,-138.7 360,-116.7 225,-116.7"/>
<text text-anchor="start" x="245" y="-123.8" font-family="Helvetica,sans-Serif" font-size="11.00" fill="#000000">UpdatedAtUtc</text>
<polygon fill="none" stroke="#000000" points="360,-116.7 360,-138.7 441,-138.7 441,-116.7 360,-116.7"/>
<text text-anchor="start" x="362.5968" y="-124.4" font-family="Helvetica,sans-Serif" font-size="11.00" fill="#000000">datetime2[16,7]</text>
<polygon fill="none" stroke="#000000" points="225,-94.7 225,-116.7 360,-116.7 360,-94.7 225,-94.7"/>
<text text-anchor="start" x="245" y="-101.8" font-family="Helvetica,sans-Serif" font-size="11.00" fill="#000000">RowVersion</text>
<polygon fill="none" stroke="#000000" points="360,-94.7 360,-116.7 441,-116.7 441,-94.7 360,-94.7"/>
<text text-anchor="start" x="363" y="-102.4" font-family="Helvetica,sans-Serif" font-size="11.00" fill="#000000">timestamp[8]</text>
<polygon fill="#ffffff" stroke="transparent" points="225,-75.7 225,-94.7 441,-94.7 441,-75.7 225,-75.7"/>
<polygon fill="none" stroke="#000000" points="225,-75.7 225,-94.7 441,-94.7 441,-75.7 225,-75.7"/>
<polygon fill="#ffffff" stroke="transparent" points="226,-76.7 226,-93.7 301,-93.7 301,-76.7 226,-76.7"/>
<text text-anchor="start" x="228" y="-81.8" font-family="Helvetica,sans-Serif" font-size="11.00" fill="#000000">&lt; 2</text>
<polygon fill="#ffffff" stroke="transparent" points="301,-76.7 301,-93.7 366,-93.7 366,-76.7 301,-76.7"/>
<text text-anchor="start" x="330.4431" y="-81.8" font-family="Helvetica,sans-Serif" font-size="11.00" fill="#000000"> &#160;</text>
<polygon fill="#ffffff" stroke="transparent" points="366,-76.7 366,-93.7 440,-93.7 440,-76.7 366,-76.7"/>
<text text-anchor="start" x="422.4053" y="-81.8" font-family="Helvetica,sans-Serif" font-size="11.00" fill="#000000">0 &gt;</text>
<polygon fill="#000000" stroke="#000000" points="301,-76.7 301,-93.7 301,-93.7 301,-76.7 301,-76.7"/>
<polygon fill="#000000" stroke="#000000" points="366,-76.7 366,-93.7 366,-93.7 366,-76.7 366,-76.7"/>
<polygon fill="none" stroke="#000000" stroke-width="2" points="224,-74.7 224,-250.7 442,-250.7 442,-74.7 224,-74.7"/>
</a>
</g>
</g>
<!-- Providers -->
<g id="node2" class="node">
<title>Providers</title>
<g id="a_node2"><a xlink:href="../../tables/Providers.html" xlink:title="Providers" target="_top">
<polygon fill="#ffffff" stroke="transparent" points="28.5,-38.2 28.5,-143.2 153.5,-143.2 153.5,-38.2 28.5,-38.2"/>
<polygon fill="#f5f5f5" stroke="transparent" points="29,-119.7 29,-142.7 154,-142.7 154,-119.7 29,-119.7"/>
<polygon fill="none" stroke="#000000" points="29,-119.7 29,-142.7 154,-142.7 154,-119.7 29,-119.7"/>
<text text-anchor="start" x="34" y="-128.3" font-family="Helvetica,sans-Serif" font-weight="bold" font-size="11.00" fill="#000000">Providers</text>
<text text-anchor="start" x="119.0437" y="-127.8" font-family="Helvetica,sans-Serif" font-size="11.00" fill="#000000">[table]</text>
<polygon fill="none" stroke="#000000" points="29,-97.7 29,-119.7 154,-119.7 154,-97.7 29,-97.7"/>
<image xlink:href="../../images/primaryKeys.png" width="11px" height="12px" preserveAspectRatio="xMinYMin meet" x="34" y="-114.7"/>
<text text-anchor="start" x="49" y="-104.8" font-family="Helvetica,sans-Serif" font-size="11.00" fill="#000000">Id</text>
<polygon fill="#ffffff" stroke="transparent" points="29,-75.7 29,-97.7 154,-97.7 154,-75.7 29,-75.7"/>
<polygon fill="none" stroke="#000000" points="29,-75.7 29,-97.7 154,-97.7 154,-75.7 29,-75.7"/>
<image xlink:href="../../images/foreignKeys.png" width="11px" height="12px" preserveAspectRatio="xMinYMin meet" x="34" y="-92.7"/>
<text text-anchor="start" x="49" y="-82.8" font-family="Helvetica,sans-Serif" font-size="11.00" fill="#000000">EmployeeId</text>
<polygon fill="none" stroke="#000000" points="29,-56.7 29,-75.7 154,-75.7 154,-56.7 29,-56.7"/>
<text text-anchor="start" x="32" y="-62.8" font-family="Helvetica,sans-Serif" font-size="11.00" fill="#000000">...</text>
<polygon fill="#ffffff" stroke="transparent" points="29,-37.7 29,-56.7 154,-56.7 154,-37.7 29,-37.7"/>
<polygon fill="none" stroke="#000000" points="29,-37.7 29,-56.7 154,-56.7 154,-37.7 29,-37.7"/>
<polygon fill="#ffffff" stroke="transparent" points="30,-38.7 30,-55.7 74,-55.7 74,-38.7 30,-38.7"/>
<text text-anchor="start" x="32" y="-43.8" font-family="Helvetica,sans-Serif" font-size="11.00" fill="#000000">&lt; 1</text>
<polygon fill="#ffffff" stroke="transparent" points="74,-38.7 74,-55.7 109,-55.7 109,-38.7 74,-38.7"/>
<text text-anchor="start" x="88.4431" y="-43.8" font-family="Helvetica,sans-Serif" font-size="11.00" fill="#000000"> &#160;</text>
<polygon fill="#ffffff" stroke="transparent" points="109,-38.7 109,-55.7 153,-55.7 153,-38.7 109,-38.7"/>
<text text-anchor="start" x="135.4053" y="-43.8" font-family="Helvetica,sans-Serif" font-size="11.00" fill="#000000">3 &gt;</text>
<polygon fill="#000000" stroke="#000000" points="74,-38.7 74,-55.7 74,-55.7 74,-38.7 74,-38.7"/>
<polygon fill="#000000" stroke="#000000" points="109,-38.7 109,-55.7 109,-55.7 109,-38.7 109,-38.7"/>
</a>
</g>
</g>
<!-- VisitAttendants&#45;&gt;Providers -->
<g id="edge1" class="edge">
<title>VisitAttendants:w&#45;&gt;Providers:e</title>
<path fill="none" stroke="#000000" d="M210.8709,-168.6614C185.3854,-156.0769 190.5841,-108.7 154,-108.7"/>
<polygon fill="#000000" stroke="#000000" points="217.1788,-170.0179 224.2431,-175.2195 221.0894,-170.859 225,-171.7 225,-171.7 225,-171.7 221.0894,-170.859 225.7569,-168.1805 217.1788,-170.0179 217.1788,-170.0179"/>
<ellipse fill="none" stroke="#000000" cx="214.0504" cy="-169.3451" rx="3.2" ry="3.2"/>
</g>
<!-- Visits -->
<g id="node3" class="node">
<title>Visits</title>
<g id="a_node3"><a xlink:href="../../tables/Visits.html" xlink:title="Visits" target="_top">
<polygon fill="#ffffff" stroke="transparent" points="8,-164.2 8,-291.2 174,-291.2 174,-164.2 8,-164.2"/>
<polygon fill="#f5f5f5" stroke="transparent" points="8,-267.7 8,-290.7 174,-290.7 174,-267.7 8,-267.7"/>
<polygon fill="none" stroke="#000000" points="8,-267.7 8,-290.7 174,-290.7 174,-267.7 8,-267.7"/>
<text text-anchor="start" x="13" y="-276.3" font-family="Helvetica,sans-Serif" font-weight="bold" font-size="11.00" fill="#000000">Visits</text>
<text text-anchor="start" x="139.0437" y="-275.8" font-family="Helvetica,sans-Serif" font-size="11.00" fill="#000000">[table]</text>
<polygon fill="none" stroke="#000000" points="8,-245.7 8,-267.7 174,-267.7 174,-245.7 8,-245.7"/>
<image xlink:href="../../images/primaryKeys.png" width="11px" height="12px" preserveAspectRatio="xMinYMin meet" x="13" y="-262.7"/>
<text text-anchor="start" x="28" y="-252.8" font-family="Helvetica,sans-Serif" font-size="11.00" fill="#000000">Id</text>
<polygon fill="#ffffff" stroke="transparent" points="8,-223.7 8,-245.7 174,-245.7 174,-223.7 8,-223.7"/>
<polygon fill="none" stroke="#000000" points="8,-223.7 8,-245.7 174,-245.7 174,-223.7 8,-223.7"/>
<text text-anchor="start" x="28" y="-230.8" font-family="Helvetica,sans-Serif" font-size="11.00" fill="#000000">DateServiced</text>
<polygon fill="#ffffff" stroke="transparent" points="8,-201.7 8,-223.7 174,-223.7 174,-201.7 8,-201.7"/>
<polygon fill="none" stroke="#000000" points="8,-201.7 8,-223.7 174,-223.7 174,-201.7 8,-201.7"/>
<image xlink:href="../../images/foreignKeys.png" width="11px" height="12px" preserveAspectRatio="xMinYMin meet" x="13" y="-218.7"/>
<text text-anchor="start" x="28" y="-208.8" font-family="Helvetica,sans-Serif" font-size="11.00" fill="#000000">HospitalizationId</text>
<polygon fill="none" stroke="#000000" points="8,-182.7 8,-201.7 174,-201.7 174,-182.7 8,-182.7"/>
<text text-anchor="start" x="11" y="-188.8" font-family="Helvetica,sans-Serif" font-size="11.00" fill="#000000">...</text>
<polygon fill="#ffffff" stroke="transparent" points="8,-163.7 8,-182.7 174,-182.7 174,-163.7 8,-163.7"/>
<polygon fill="none" stroke="#000000" points="8,-163.7 8,-182.7 174,-182.7 174,-163.7 8,-163.7"/>
<polygon fill="#ffffff" stroke="transparent" points="9,-164.7 9,-181.7 67,-181.7 67,-164.7 9,-164.7"/>
<text text-anchor="start" x="11" y="-169.8" font-family="Helvetica,sans-Serif" font-size="11.00" fill="#000000">&lt; 1</text>
<polygon fill="#ffffff" stroke="transparent" points="67,-164.7 67,-181.7 116,-181.7 116,-164.7 67,-164.7"/>
<text text-anchor="start" x="88.4431" y="-169.8" font-family="Helvetica,sans-Serif" font-size="11.00" fill="#000000"> &#160;</text>
<polygon fill="#ffffff" stroke="transparent" points="116,-164.7 116,-181.7 173,-181.7 173,-164.7 116,-164.7"/>
<text text-anchor="start" x="155.4053" y="-169.8" font-family="Helvetica,sans-Serif" font-size="11.00" fill="#000000">4 &gt;</text>
<polygon fill="#000000" stroke="#000000" points="67,-164.7 67,-181.7 67,-181.7 67,-164.7 67,-164.7"/>
<polygon fill="#000000" stroke="#000000" points="116,-164.7 116,-181.7 116,-181.7 116,-164.7 116,-164.7"/>
</a>
</g>
</g>
<!-- VisitAttendants&#45;&gt;Visits -->
<g id="edge2" class="edge">
<title>VisitAttendants:w&#45;&gt;Visits:e</title>
<path fill="none" stroke="#000000" d="M210.9033,-198.6435C194.525,-213.4952 203.8329,-256.7 174,-256.7"/>
<polygon fill="#000000" stroke="#000000" points="217.4507,-196.3474 226.1913,-197.0972 221.2254,-195.0237 225,-193.7 225,-193.7 225,-193.7 221.2254,-195.0237 223.8087,-190.3028 217.4507,-196.3474 217.4507,-196.3474"/>
<ellipse fill="none" stroke="#000000" cx="214.431" cy="-197.4064" rx="3.2" ry="3.2"/>
</g>
</g>
</svg>
