<?xml version="1.0" encoding="UTF-8" standalone="no"?>
<!DOCTYPE svg PUBLIC "-//W3C//DTD SVG 1.1//EN"
 "http://www.w3.org/Graphics/SVG/1.1/DTD/svg11.dtd">
<!-- Generated by graphviz version 2.40.1 (20161225.0304)
 -->
<!-- Title: twoDegreesRelationshipsDiagram Pages: 1 -->
<svg width="441pt" height="311pt"
 viewBox="0.00 0.00 441.00 310.70" xmlns="http://www.w3.org/2000/svg" xmlns:xlink="http://www.w3.org/1999/xlink">
<g id="graph0" class="graph" transform="scale(1 1) rotate(0) translate(4 306.7)">
<title>twoDegreesRelationshipsDiagram</title>
<polygon fill="#ffffff" stroke="transparent" points="-4,4 -4,-306.7 437,-306.7 437,4 -4,4"/>
<text text-anchor="middle" x="72.4936" y="-7.3" font-family="Helvetica,sans-Serif" font-size="11.00" fill="#000000">Generated by SchemaSpy</text>
<!-- VisitEvents -->
<g id="node1" class="node">
<title>VisitEvents</title>
<g id="a_node1"><a xlink:href="../../tables/VisitEvents.html" xlink:title="VisitEvents" target="_top">
<polygon fill="#ffffff" stroke="transparent" points="280,-118.7 280,-289.7 425,-289.7 425,-118.7 280,-118.7"/>
<polygon fill="#f5f5f5" stroke="transparent" points="280.5,-266.2 280.5,-289.2 425.5,-289.2 425.5,-266.2 280.5,-266.2"/>
<polygon fill="none" stroke="#000000" points="280.5,-266.2 280.5,-289.2 425.5,-289.2 425.5,-266.2 280.5,-266.2"/>
<text text-anchor="start" x="285.5" y="-274.8" font-family="Helvetica,sans-Serif" font-weight="bold" font-size="11.00" fill="#000000">VisitEvents</text>
<text text-anchor="start" x="390.5437" y="-274.3" font-family="Helvetica,sans-Serif" font-size="11.00" fill="#000000">[table]</text>
<polygon fill="none" stroke="#000000" points="280.5,-244.2 280.5,-266.2 425.5,-266.2 425.5,-244.2 280.5,-244.2"/>
<image xlink:href="../../images/primaryKeys.png" width="11px" height="12px" preserveAspectRatio="xMinYMin meet" x="285.5" y="-261.2"/>
<text text-anchor="start" x="300.5" y="-251.3" font-family="Helvetica,sans-Serif" font-size="11.00" fill="#000000">Id</text>
<polygon fill="#ffffff" stroke="transparent" points="280.5,-222.2 280.5,-244.2 425.5,-244.2 425.5,-222.2 280.5,-222.2"/>
<polygon fill="none" stroke="#000000" points="280.5,-222.2 280.5,-244.2 425.5,-244.2 425.5,-222.2 280.5,-222.2"/>
<image xlink:href="../../images/foreignKeys.png" width="11px" height="12px" preserveAspectRatio="xMinYMin meet" x="285.5" y="-239.2"/>
<text text-anchor="start" x="300.5" y="-229.3" font-family="Helvetica,sans-Serif" font-size="11.00" fill="#000000">VisitId</text>
<polygon fill="#ffffff" stroke="transparent" points="280.5,-200.2 280.5,-222.2 425.5,-222.2 425.5,-200.2 280.5,-200.2"/>
<polygon fill="none" stroke="#000000" points="280.5,-200.2 280.5,-222.2 425.5,-222.2 425.5,-200.2 280.5,-200.2"/>
<image xlink:href="../../images/foreignKeys.png" width="11px" height="12px" preserveAspectRatio="xMinYMin meet" x="285.5" y="-217.2"/>
<text text-anchor="start" x="300.5" y="-207.3" font-family="Helvetica,sans-Serif" font-size="11.00" fill="#000000">EventTypeId</text>
<polygon fill="#ffffff" stroke="transparent" points="280.5,-178.2 280.5,-200.2 425.5,-200.2 425.5,-178.2 280.5,-178.2"/>
<polygon fill="none" stroke="#000000" points="280.5,-178.2 280.5,-200.2 425.5,-200.2 425.5,-178.2 280.5,-178.2"/>
<text text-anchor="start" x="300.5" y="-185.3" font-family="Helvetica,sans-Serif" font-size="11.00" fill="#000000">EventOccurredAt</text>
<polygon fill="#ffffff" stroke="transparent" points="280.5,-156.2 280.5,-178.2 425.5,-178.2 425.5,-156.2 280.5,-156.2"/>
<polygon fill="none" stroke="#000000" points="280.5,-156.2 280.5,-178.2 425.5,-178.2 425.5,-156.2 280.5,-156.2"/>
<text text-anchor="start" x="300.5" y="-163.3" font-family="Helvetica,sans-Serif" font-size="11.00" fill="#000000">EnteredByUserId</text>
<polygon fill="none" stroke="#000000" points="280.5,-137.2 280.5,-156.2 425.5,-156.2 425.5,-137.2 280.5,-137.2"/>
<text text-anchor="start" x="283.5" y="-143.3" font-family="Helvetica,sans-Serif" font-size="11.00" fill="#000000">...</text>
<polygon fill="#ffffff" stroke="transparent" points="280.5,-118.2 280.5,-137.2 425.5,-137.2 425.5,-118.2 280.5,-118.2"/>
<polygon fill="none" stroke="#000000" points="280.5,-118.2 280.5,-137.2 425.5,-137.2 425.5,-118.2 280.5,-118.2"/>
<polygon fill="#ffffff" stroke="transparent" points="281.5,-119.2 281.5,-136.2 335.5,-136.2 335.5,-119.2 281.5,-119.2"/>
<text text-anchor="start" x="283.5" y="-124.3" font-family="Helvetica,sans-Serif" font-size="11.00" fill="#000000">&lt; 2</text>
<polygon fill="#ffffff" stroke="transparent" points="335.5,-119.2 335.5,-136.2 380.5,-136.2 380.5,-119.2 335.5,-119.2"/>
<text text-anchor="start" x="354.9431" y="-124.3" font-family="Helvetica,sans-Serif" font-size="11.00" fill="#000000"> &#160;</text>
<polygon fill="#ffffff" stroke="transparent" points="380.5,-119.2 380.5,-136.2 424.5,-136.2 424.5,-119.2 380.5,-119.2"/>
<text text-anchor="start" x="416.3862" y="-124.3" font-family="Helvetica,sans-Serif" font-size="11.00" fill="#000000"> &#160;</text>
<polygon fill="#000000" stroke="#000000" points="335.5,-119.2 335.5,-136.2 335.5,-136.2 335.5,-119.2 335.5,-119.2"/>
<polygon fill="#000000" stroke="#000000" points="380.5,-119.2 380.5,-136.2 380.5,-136.2 380.5,-119.2 380.5,-119.2"/>
</a>
</g>
</g>
<!-- VisitEventTypes -->
<g id="node2" class="node">
<title>VisitEventTypes</title>
<g id="a_node2"><a xlink:href="../../tables/VisitEventTypes.html" xlink:title="VisitEventTypes" target="_top">
<polygon fill="#ffffff" stroke="transparent" points="8,-38.2 8,-216.2 231,-216.2 231,-38.2 8,-38.2"/>
<polygon fill="#f5f5f5" stroke="transparent" points="10.5,-191.2 10.5,-214.2 229.5,-214.2 229.5,-191.2 10.5,-191.2"/>
<polygon fill="none" stroke="#000000" points="10.5,-191.2 10.5,-214.2 229.5,-214.2 229.5,-191.2 10.5,-191.2"/>
<text text-anchor="start" x="15.5" y="-199.8" font-family="Helvetica,sans-Serif" font-weight="bold" font-size="11.00" fill="#000000">VisitEventTypes</text>
<text text-anchor="start" x="194.5437" y="-199.3" font-family="Helvetica,sans-Serif" font-size="11.00" fill="#000000">[table]</text>
<polygon fill="none" stroke="#000000" points="10.5,-169.2 10.5,-191.2 148.5,-191.2 148.5,-169.2 10.5,-169.2"/>
<image xlink:href="../../images/primaryKeys.png" width="11px" height="12px" preserveAspectRatio="xMinYMin meet" x="15.5" y="-186.2"/>
<text text-anchor="start" x="30.5" y="-176.3" font-family="Helvetica,sans-Serif" font-size="11.00" fill="#000000">Id</text>
<polygon fill="none" stroke="#000000" points="148.5,-169.2 148.5,-191.2 229.5,-191.2 229.5,-169.2 148.5,-169.2"/>
<text text-anchor="start" x="151.5" y="-176.9" font-family="Helvetica,sans-Serif" font-size="11.00" fill="#000000">int identity[4]</text>
<polygon fill="#ffffff" stroke="transparent" points="10.5,-147.2 10.5,-169.2 148.5,-169.2 148.5,-147.2 10.5,-147.2"/>
<polygon fill="none" stroke="#000000" points="10.5,-147.2 10.5,-169.2 148.5,-169.2 148.5,-147.2 10.5,-147.2"/>
<text text-anchor="start" x="30.5" y="-154.3" font-family="Helvetica,sans-Serif" font-size="11.00" fill="#000000">Code</text>
<polygon fill="none" stroke="#000000" points="148.5,-147.2 148.5,-169.2 229.5,-169.2 229.5,-147.2 148.5,-147.2"/>
<text text-anchor="start" x="151.5" y="-154.9" font-family="Helvetica,sans-Serif" font-size="11.00" fill="#000000">nvarchar[100]</text>
<polygon fill="none" stroke="#000000" points="10.5,-125.2 10.5,-147.2 148.5,-147.2 148.5,-125.2 10.5,-125.2"/>
<text text-anchor="start" x="30.5" y="-132.3" font-family="Helvetica,sans-Serif" font-size="11.00" fill="#000000">Name</text>
<polygon fill="none" stroke="#000000" points="148.5,-125.2 148.5,-147.2 229.5,-147.2 229.5,-125.2 148.5,-125.2"/>
<text text-anchor="start" x="151.5" y="-132.9" font-family="Helvetica,sans-Serif" font-size="11.00" fill="#000000">nvarchar[200]</text>
<polygon fill="none" stroke="#000000" points="10.5,-103.2 10.5,-125.2 148.5,-125.2 148.5,-103.2 10.5,-103.2"/>
<text text-anchor="start" x="30.5" y="-110.3" font-family="Helvetica,sans-Serif" font-size="11.00" fill="#000000">CreatedAtUtc</text>
<polygon fill="none" stroke="#000000" points="148.5,-103.2 148.5,-125.2 229.5,-125.2 229.5,-103.2 148.5,-103.2"/>
<text text-anchor="start" x="151.0967" y="-110.9" font-family="Helvetica,sans-Serif" font-size="11.00" fill="#000000">datetime2[16,7]</text>
<polygon fill="none" stroke="#000000" points="10.5,-81.2 10.5,-103.2 148.5,-103.2 148.5,-81.2 10.5,-81.2"/>
<text text-anchor="start" x="30.5" y="-88.3" font-family="Helvetica,sans-Serif" font-size="11.00" fill="#000000">UpdatedAtUtc</text>
<polygon fill="none" stroke="#000000" points="148.5,-81.2 148.5,-103.2 229.5,-103.2 229.5,-81.2 148.5,-81.2"/>
<text text-anchor="start" x="151.0967" y="-88.9" font-family="Helvetica,sans-Serif" font-size="11.00" fill="#000000">datetime2[16,7]</text>
<polygon fill="none" stroke="#000000" points="10.5,-59.2 10.5,-81.2 148.5,-81.2 148.5,-59.2 10.5,-59.2"/>
<text text-anchor="start" x="30.5" y="-66.3" font-family="Helvetica,sans-Serif" font-size="11.00" fill="#000000">RowVersion</text>
<polygon fill="none" stroke="#000000" points="148.5,-59.2 148.5,-81.2 229.5,-81.2 229.5,-59.2 148.5,-59.2"/>
<text text-anchor="start" x="151.5" y="-66.9" font-family="Helvetica,sans-Serif" font-size="11.00" fill="#000000">timestamp[8]</text>
<polygon fill="#ffffff" stroke="transparent" points="10.5,-40.2 10.5,-59.2 229.5,-59.2 229.5,-40.2 10.5,-40.2"/>
<polygon fill="none" stroke="#000000" points="10.5,-40.2 10.5,-59.2 229.5,-59.2 229.5,-40.2 10.5,-40.2"/>
<polygon fill="#ffffff" stroke="transparent" points="11.5,-41.2 11.5,-58.2 87.5,-58.2 87.5,-41.2 11.5,-41.2"/>
<text text-anchor="start" x="13.5" y="-46.3" font-family="Helvetica,sans-Serif" font-size="11.00" fill="#000000">&lt; 0</text>
<polygon fill="#ffffff" stroke="transparent" points="87.5,-41.2 87.5,-58.2 153.5,-58.2 153.5,-41.2 87.5,-41.2"/>
<text text-anchor="start" x="117.4431" y="-46.3" font-family="Helvetica,sans-Serif" font-size="11.00" fill="#000000"> &#160;</text>
<polygon fill="#ffffff" stroke="transparent" points="153.5,-41.2 153.5,-58.2 228.5,-58.2 228.5,-41.2 153.5,-41.2"/>
<text text-anchor="start" x="210.9053" y="-46.3" font-family="Helvetica,sans-Serif" font-size="11.00" fill="#000000">1 &gt;</text>
<polygon fill="#000000" stroke="#000000" points="87.5,-41.2 87.5,-58.2 87.5,-58.2 87.5,-41.2 87.5,-41.2"/>
<polygon fill="#000000" stroke="#000000" points="153.5,-41.2 153.5,-58.2 153.5,-58.2 153.5,-41.2 153.5,-41.2"/>
<polygon fill="none" stroke="#000000" stroke-width="2" points="9,-39.2 9,-215.2 230,-215.2 230,-39.2 9,-39.2"/>
</a>
</g>
</g>
<!-- VisitEvents&#45;&gt;VisitEventTypes -->
<g id="edge1" class="edge">
<title>VisitEvents:w&#45;&gt;VisitEventTypes:e</title>
<path fill="none" stroke="#000000" d="M266.5967,-207.3988C253.5044,-199.1209 250.2231,-180.2 229.5,-180.2"/>
<polygon fill="#000000" stroke="#000000" points="272.7832,-209.0902 279.5506,-214.6726 276.6416,-210.1451 280.5,-211.2 280.5,-211.2 280.5,-211.2 276.6416,-210.1451 281.4494,-207.7274 272.7832,-209.0902 272.7832,-209.0902"/>
<ellipse fill="none" stroke="#000000" cx="269.6965" cy="-208.2462" rx="3.2" ry="3.2"/>
</g>
<!-- Visits -->
<g id="node3" class="node">
<title>Visits</title>
<g id="a_node3"><a xlink:href="../../tables/Visits.html" xlink:title="Visits" target="_top">
<polygon fill="#ffffff" stroke="transparent" points="80,-237.7 80,-298.7 159,-298.7 159,-237.7 80,-237.7"/>
<polygon fill="#f5f5f5" stroke="transparent" points="80.5,-275.2 80.5,-298.2 159.5,-298.2 159.5,-275.2 80.5,-275.2"/>
<polygon fill="none" stroke="#000000" points="80.5,-275.2 80.5,-298.2 159.5,-298.2 159.5,-275.2 80.5,-275.2"/>
<text text-anchor="start" x="85.5" y="-283.8" font-family="Helvetica,sans-Serif" font-weight="bold" font-size="11.00" fill="#000000">Visits</text>
<text text-anchor="start" x="125.0219" y="-283.3" font-family="Helvetica,sans-Serif" font-size="11.00" fill="#000000">[table]</text>
<polygon fill="none" stroke="#000000" points="80.5,-256.2 80.5,-275.2 159.5,-275.2 159.5,-256.2 80.5,-256.2"/>
<text text-anchor="start" x="83.5" y="-262.3" font-family="Helvetica,sans-Serif" font-size="11.00" fill="#000000">...</text>
<polygon fill="#ffffff" stroke="transparent" points="80.5,-237.2 80.5,-256.2 159.5,-256.2 159.5,-237.2 80.5,-237.2"/>
<polygon fill="none" stroke="#000000" points="80.5,-237.2 80.5,-256.2 159.5,-256.2 159.5,-237.2 80.5,-237.2"/>
<polygon fill="#ffffff" stroke="transparent" points="81.5,-238.2 81.5,-255.2 110.5,-255.2 110.5,-238.2 81.5,-238.2"/>
<text text-anchor="start" x="83.5" y="-243.3" font-family="Helvetica,sans-Serif" font-size="11.00" fill="#000000">&lt; 1</text>
<polygon fill="#ffffff" stroke="transparent" points="110.5,-238.2 110.5,-255.2 130.5,-255.2 130.5,-238.2 110.5,-238.2"/>
<text text-anchor="start" x="117.4431" y="-243.3" font-family="Helvetica,sans-Serif" font-size="11.00" fill="#000000"> &#160;</text>
<polygon fill="#ffffff" stroke="transparent" points="130.5,-238.2 130.5,-255.2 158.5,-255.2 158.5,-238.2 130.5,-238.2"/>
<text text-anchor="start" x="140.9053" y="-243.3" font-family="Helvetica,sans-Serif" font-size="11.00" fill="#000000">4 &gt;</text>
<polygon fill="#000000" stroke="#000000" points="110.5,-238.2 110.5,-255.2 110.5,-255.2 110.5,-238.2 110.5,-238.2"/>
<polygon fill="#000000" stroke="#000000" points="130.5,-238.2 130.5,-255.2 130.5,-255.2 130.5,-238.2 130.5,-238.2"/>
</a>
</g>
</g>
<!-- VisitEvents&#45;&gt;Visits -->
<g id="edge2" class="edge">
<title>VisitEvents:w&#45;&gt;Visits:e</title>
<path fill="none" stroke="#000000" d="M265.9891,-233.991C222.6426,-238.9188 209.9116,-265.2 159.5,-265.2"/>
<polygon fill="#000000" stroke="#000000" points="272.5119,-233.6355 280.696,-236.7947 276.5059,-233.4178 280.5,-233.2 280.5,-233.2 280.5,-233.2 276.5059,-233.4178 280.304,-229.6053 272.5119,-233.6355 272.5119,-233.6355"/>
<ellipse fill="none" stroke="#000000" cx="269.3166" cy="-233.8097" rx="3.2" ry="3.2"/>
</g>
</g>
</svg>
