<?xml version="1.0" encoding="UTF-8" standalone="no"?>
<!DOCTYPE svg PUBLIC "-//W3C//DTD SVG 1.1//EN"
 "http://www.w3.org/Graphics/SVG/1.1/DTD/svg11.dtd">
<!-- Generated by graphviz version 2.40.1 (20161225.0304)
 -->
<!-- Title: twoDegreesRelationshipsDiagram Pages: 1 -->
<svg width="770pt" height="549pt"
 viewBox="0.00 0.00 770.00 549.20" xmlns="http://www.w3.org/2000/svg" xmlns:xlink="http://www.w3.org/1999/xlink">
<g id="graph0" class="graph" transform="scale(1 1) rotate(0) translate(4 545.2)">
<title>twoDegreesRelationshipsDiagram</title>
<polygon fill="#ffffff" stroke="transparent" points="-4,4 -4,-545.2 766,-545.2 766,4 -4,4"/>
<text text-anchor="middle" x="72.4936" y="-7.3" font-family="Helvetica,sans-Serif" font-size="11.00" fill="#000000">Generated by SchemaSpy</text>
<!-- Billing.VisitServiceBillings -->
<g id="node1" class="node">
<title>Billing.VisitServiceBillings</title>
<g id="a_node1"><a xlink:title="Billing.VisitServiceBillings">
<polygon fill="#ffffff" stroke="transparent" points="511,-476.2 511,-537.2 742,-537.2 742,-476.2 511,-476.2"/>
<polygon fill="#f5f5f5" stroke="transparent" points="511.5,-513.7 511.5,-536.7 742.5,-536.7 742.5,-513.7 511.5,-513.7"/>
<polygon fill="none" stroke="#000000" points="511.5,-513.7 511.5,-536.7 742.5,-536.7 742.5,-513.7 511.5,-513.7"/>
<text text-anchor="start" x="516.5" y="-522.3" font-family="Helvetica,sans-Serif" font-weight="bold" font-size="11.00" fill="#000000">Billing.VisitServiceBillings</text>
<text text-anchor="start" x="708.0219" y="-521.8" font-family="Helvetica,sans-Serif" font-size="11.00" fill="#000000">[table]</text>
<polygon fill="none" stroke="#000000" points="511.5,-494.7 511.5,-513.7 742.5,-513.7 742.5,-494.7 511.5,-494.7"/>
<text text-anchor="start" x="514.5" y="-500.8" font-family="Helvetica,sans-Serif" font-size="11.00" fill="#000000">...</text>
<polygon fill="#ffffff" stroke="transparent" points="511.5,-475.7 511.5,-494.7 742.5,-494.7 742.5,-475.7 511.5,-475.7"/>
<polygon fill="none" stroke="#000000" points="511.5,-475.7 511.5,-494.7 742.5,-494.7 742.5,-475.7 511.5,-475.7"/>
<polygon fill="#ffffff" stroke="transparent" points="512.5,-476.7 512.5,-493.7 595.5,-493.7 595.5,-476.7 512.5,-476.7"/>
<text text-anchor="start" x="514.5" y="-481.8" font-family="Helvetica,sans-Serif" font-size="11.00" fill="#000000">&lt; 2</text>
<polygon fill="#ffffff" stroke="transparent" points="595.5,-476.7 595.5,-493.7 668.5,-493.7 668.5,-476.7 595.5,-476.7"/>
<text text-anchor="start" x="628.9431" y="-481.8" font-family="Helvetica,sans-Serif" font-size="11.00" fill="#000000"> &#160;</text>
<polygon fill="#ffffff" stroke="transparent" points="668.5,-476.7 668.5,-493.7 741.5,-493.7 741.5,-476.7 668.5,-476.7"/>
<text text-anchor="start" x="733.3862" y="-481.8" font-family="Helvetica,sans-Serif" font-size="11.00" fill="#000000"> &#160;</text>
<polygon fill="#000000" stroke="#000000" points="595.5,-476.7 595.5,-493.7 595.5,-493.7 595.5,-476.7 595.5,-476.7"/>
<polygon fill="#000000" stroke="#000000" points="668.5,-476.7 668.5,-493.7 668.5,-493.7 668.5,-476.7 668.5,-476.7"/>
</a>
</g>
</g>
<!-- Visits -->
<g id="node2" class="node">
<title>Visits</title>
<g id="a_node2"><a xlink:href="../../tables/Visits.html" xlink:title="Visits" target="_top">
<polygon fill="#ffffff" stroke="transparent" points="284,-223.2 284,-350.2 450,-350.2 450,-223.2 284,-223.2"/>
<polygon fill="#f5f5f5" stroke="transparent" points="284,-326.7 284,-349.7 450,-349.7 450,-326.7 284,-326.7"/>
<polygon fill="none" stroke="#000000" points="284,-326.7 284,-349.7 450,-349.7 450,-326.7 284,-326.7"/>
<text text-anchor="start" x="289" y="-335.3" font-family="Helvetica,sans-Serif" font-weight="bold" font-size="11.00" fill="#000000">Visits</text>
<text text-anchor="start" x="415.0437" y="-334.8" font-family="Helvetica,sans-Serif" font-size="11.00" fill="#000000">[table]</text>
<polygon fill="none" stroke="#000000" points="284,-304.7 284,-326.7 450,-326.7 450,-304.7 284,-304.7"/>
<image xlink:href="../../images/primaryKeys.png" width="11px" height="12px" preserveAspectRatio="xMinYMin meet" x="289" y="-321.7"/>
<text text-anchor="start" x="304" y="-311.8" font-family="Helvetica,sans-Serif" font-size="11.00" fill="#000000">Id</text>
<polygon fill="#ffffff" stroke="transparent" points="284,-282.7 284,-304.7 450,-304.7 450,-282.7 284,-282.7"/>
<polygon fill="none" stroke="#000000" points="284,-282.7 284,-304.7 450,-304.7 450,-282.7 284,-282.7"/>
<text text-anchor="start" x="304" y="-289.8" font-family="Helvetica,sans-Serif" font-size="11.00" fill="#000000">DateServiced</text>
<polygon fill="#ffffff" stroke="transparent" points="284,-260.7 284,-282.7 450,-282.7 450,-260.7 284,-260.7"/>
<polygon fill="none" stroke="#000000" points="284,-260.7 284,-282.7 450,-282.7 450,-260.7 284,-260.7"/>
<image xlink:href="../../images/foreignKeys.png" width="11px" height="12px" preserveAspectRatio="xMinYMin meet" x="289" y="-277.7"/>
<text text-anchor="start" x="304" y="-267.8" font-family="Helvetica,sans-Serif" font-size="11.00" fill="#000000">HospitalizationId</text>
<polygon fill="none" stroke="#000000" points="284,-241.7 284,-260.7 450,-260.7 450,-241.7 284,-241.7"/>
<text text-anchor="start" x="287" y="-247.8" font-family="Helvetica,sans-Serif" font-size="11.00" fill="#000000">...</text>
<polygon fill="#ffffff" stroke="transparent" points="284,-222.7 284,-241.7 450,-241.7 450,-222.7 284,-222.7"/>
<polygon fill="none" stroke="#000000" points="284,-222.7 284,-241.7 450,-241.7 450,-222.7 284,-222.7"/>
<polygon fill="#ffffff" stroke="transparent" points="285,-223.7 285,-240.7 343,-240.7 343,-223.7 285,-223.7"/>
<text text-anchor="start" x="287" y="-228.8" font-family="Helvetica,sans-Serif" font-size="11.00" fill="#000000">&lt; 1</text>
<polygon fill="#ffffff" stroke="transparent" points="343,-223.7 343,-240.7 392,-240.7 392,-223.7 343,-223.7"/>
<text text-anchor="start" x="364.4431" y="-228.8" font-family="Helvetica,sans-Serif" font-size="11.00" fill="#000000"> &#160;</text>
<polygon fill="#ffffff" stroke="transparent" points="392,-223.7 392,-240.7 449,-240.7 449,-223.7 392,-223.7"/>
<text text-anchor="start" x="431.4053" y="-228.8" font-family="Helvetica,sans-Serif" font-size="11.00" fill="#000000">4 &gt;</text>
<polygon fill="#000000" stroke="#000000" points="343,-223.7 343,-240.7 343,-240.7 343,-223.7 343,-223.7"/>
<polygon fill="#000000" stroke="#000000" points="392,-223.7 392,-240.7 392,-240.7 392,-223.7 392,-223.7"/>
</a>
</g>
</g>
<!-- Billing.VisitServiceBillings&#45;&gt;Visits -->
<g id="edge1" class="edge">
<title>Billing.VisitServiceBillings:w&#45;&gt;Visits:e</title>
<path fill="none" stroke="#000000" d="M496.9134,-501.4577C437.4844,-480.2466 532.2464,-315.7 450,-315.7"/>
<polygon fill="#000000" stroke="#000000" points="503.5929,-502.4844 510.953,-507.2582 507.5464,-503.0922 511.5,-503.7 511.5,-503.7 511.5,-503.7 507.5464,-503.0922 512.047,-500.1418 503.5929,-502.4844 503.5929,-502.4844"/>
<ellipse fill="none" stroke="#000000" cx="500.43" cy="-501.9982" rx="3.2" ry="3.2"/>
</g>
<!-- Hospitalizations -->
<g id="node8" class="node">
<title>Hospitalizations</title>
<g id="a_node8"><a xlink:href="../../tables/Hospitalizations.html" xlink:title="Hospitalizations" target="_top">
<polygon fill="#ffffff" stroke="transparent" points="43,-223.2 43,-284.2 200,-284.2 200,-223.2 43,-223.2"/>
<polygon fill="#f5f5f5" stroke="transparent" points="43.5,-260.7 43.5,-283.7 200.5,-283.7 200.5,-260.7 43.5,-260.7"/>
<polygon fill="none" stroke="#000000" points="43.5,-260.7 43.5,-283.7 200.5,-283.7 200.5,-260.7 43.5,-260.7"/>
<text text-anchor="start" x="48.5" y="-269.3" font-family="Helvetica,sans-Serif" font-weight="bold" font-size="11.00" fill="#000000">Hospitalizations</text>
<text text-anchor="start" x="166.0219" y="-268.8" font-family="Helvetica,sans-Serif" font-size="11.00" fill="#000000">[table]</text>
<polygon fill="none" stroke="#000000" points="43.5,-241.7 43.5,-260.7 200.5,-260.7 200.5,-241.7 43.5,-241.7"/>
<text text-anchor="start" x="46.5" y="-247.8" font-family="Helvetica,sans-Serif" font-size="11.00" fill="#000000">...</text>
<polygon fill="#ffffff" stroke="transparent" points="43.5,-222.7 43.5,-241.7 200.5,-241.7 200.5,-222.7 43.5,-222.7"/>
<polygon fill="none" stroke="#000000" points="43.5,-222.7 43.5,-241.7 200.5,-241.7 200.5,-222.7 43.5,-222.7"/>
<polygon fill="#ffffff" stroke="transparent" points="44.5,-223.7 44.5,-240.7 99.5,-240.7 99.5,-223.7 44.5,-223.7"/>
<text text-anchor="start" x="46.5" y="-228.8" font-family="Helvetica,sans-Serif" font-size="11.00" fill="#000000">&lt; 3</text>
<polygon fill="#ffffff" stroke="transparent" points="99.5,-223.7 99.5,-240.7 145.5,-240.7 145.5,-223.7 99.5,-223.7"/>
<text text-anchor="start" x="119.4431" y="-228.8" font-family="Helvetica,sans-Serif" font-size="11.00" fill="#000000"> &#160;</text>
<polygon fill="#ffffff" stroke="transparent" points="145.5,-223.7 145.5,-240.7 199.5,-240.7 199.5,-223.7 145.5,-223.7"/>
<text text-anchor="start" x="181.9053" y="-228.8" font-family="Helvetica,sans-Serif" font-size="11.00" fill="#000000">4 &gt;</text>
<polygon fill="#000000" stroke="#000000" points="99.5,-223.7 99.5,-240.7 99.5,-240.7 99.5,-223.7 99.5,-223.7"/>
<polygon fill="#000000" stroke="#000000" points="145.5,-223.7 145.5,-240.7 145.5,-240.7 145.5,-223.7 145.5,-223.7"/>
</a>
</g>
</g>
<!-- Visits&#45;&gt;Hospitalizations -->
<g id="edge7" class="edge">
<title>Visits:w&#45;&gt;Hospitalizations:e</title>
<path fill="none" stroke="#000000" d="M269.539,-270.5709C243.1549,-266.209 233.3855,-250.7 200.5,-250.7"/>
<polygon fill="#000000" stroke="#000000" points="276.0243,-271.0772 283.7198,-275.2891 280.0121,-271.3886 284,-271.7 284,-271.7 284,-271.7 280.0121,-271.3886 284.2802,-268.1109 276.0243,-271.0772 276.0243,-271.0772"/>
<ellipse fill="none" stroke="#000000" cx="272.834" cy="-270.8281" rx="3.2" ry="3.2"/>
</g>
<!-- Providers -->
<g id="node3" class="node">
<title>Providers</title>
<g id="a_node3"><a xlink:href="../../tables/Providers.html" xlink:title="Providers" target="_top">
<polygon fill="#ffffff" stroke="transparent" points="301,-47.2 301,-174.2 433,-174.2 433,-47.2 301,-47.2"/>
<polygon fill="#f5f5f5" stroke="transparent" points="301,-150.7 301,-173.7 433,-173.7 433,-150.7 301,-150.7"/>
<polygon fill="none" stroke="#000000" points="301,-150.7 301,-173.7 433,-173.7 433,-150.7 301,-150.7"/>
<text text-anchor="start" x="306" y="-159.3" font-family="Helvetica,sans-Serif" font-weight="bold" font-size="11.00" fill="#000000">Providers</text>
<text text-anchor="start" x="398.0437" y="-158.8" font-family="Helvetica,sans-Serif" font-size="11.00" fill="#000000">[table]</text>
<polygon fill="none" stroke="#000000" points="301,-128.7 301,-150.7 433,-150.7 433,-128.7 301,-128.7"/>
<image xlink:href="../../images/primaryKeys.png" width="11px" height="12px" preserveAspectRatio="xMinYMin meet" x="306" y="-145.7"/>
<text text-anchor="start" x="321" y="-135.8" font-family="Helvetica,sans-Serif" font-size="11.00" fill="#000000">Id</text>
<polygon fill="#ffffff" stroke="transparent" points="301,-106.7 301,-128.7 433,-128.7 433,-106.7 301,-106.7"/>
<polygon fill="none" stroke="#000000" points="301,-106.7 301,-128.7 433,-128.7 433,-106.7 301,-106.7"/>
<image xlink:href="../../images/foreignKeys.png" width="11px" height="12px" preserveAspectRatio="xMinYMin meet" x="306" y="-123.7"/>
<text text-anchor="start" x="321" y="-113.8" font-family="Helvetica,sans-Serif" font-size="11.00" fill="#000000">ProviderTypeId</text>
<polygon fill="#ffffff" stroke="transparent" points="301,-84.7 301,-106.7 433,-106.7 433,-84.7 301,-84.7"/>
<polygon fill="none" stroke="#000000" points="301,-84.7 301,-106.7 433,-106.7 433,-84.7 301,-84.7"/>
<image xlink:href="../../images/foreignKeys.png" width="11px" height="12px" preserveAspectRatio="xMinYMin meet" x="306" y="-101.7"/>
<text text-anchor="start" x="321" y="-91.8" font-family="Helvetica,sans-Serif" font-size="11.00" fill="#000000">EmployeeId</text>
<polygon fill="none" stroke="#000000" points="301,-65.7 301,-84.7 433,-84.7 433,-65.7 301,-65.7"/>
<text text-anchor="start" x="304" y="-71.8" font-family="Helvetica,sans-Serif" font-size="11.00" fill="#000000">...</text>
<polygon fill="#ffffff" stroke="transparent" points="301,-46.7 301,-65.7 433,-65.7 433,-46.7 301,-46.7"/>
<polygon fill="none" stroke="#000000" points="301,-46.7 301,-65.7 433,-65.7 433,-46.7 301,-46.7"/>
<polygon fill="#ffffff" stroke="transparent" points="302,-47.7 302,-64.7 349,-64.7 349,-47.7 302,-47.7"/>
<text text-anchor="start" x="304" y="-52.8" font-family="Helvetica,sans-Serif" font-size="11.00" fill="#000000">&lt; 2</text>
<polygon fill="#ffffff" stroke="transparent" points="349,-47.7 349,-64.7 386,-64.7 386,-47.7 349,-47.7"/>
<text text-anchor="start" x="364.4431" y="-52.8" font-family="Helvetica,sans-Serif" font-size="11.00" fill="#000000"> &#160;</text>
<polygon fill="#ffffff" stroke="transparent" points="386,-47.7 386,-64.7 432,-64.7 432,-47.7 386,-47.7"/>
<text text-anchor="start" x="414.4053" y="-52.8" font-family="Helvetica,sans-Serif" font-size="11.00" fill="#000000">3 &gt;</text>
<polygon fill="#000000" stroke="#000000" points="349,-47.7 349,-64.7 349,-64.7 349,-47.7 349,-47.7"/>
<polygon fill="#000000" stroke="#000000" points="386,-47.7 386,-64.7 386,-64.7 386,-47.7 386,-47.7"/>
</a>
</g>
</g>
<!-- Compensation.Employees -->
<g id="node4" class="node">
<title>Compensation.Employees</title>
<g id="a_node4"><a xlink:title="Compensation.Employees">
<polygon fill="#ffffff" stroke="transparent" points="8,-38.2 8,-99.2 235,-99.2 235,-38.2 8,-38.2"/>
<polygon fill="#f5f5f5" stroke="transparent" points="8.5,-75.7 8.5,-98.7 235.5,-98.7 235.5,-75.7 8.5,-75.7"/>
<polygon fill="none" stroke="#000000" points="8.5,-75.7 8.5,-98.7 235.5,-98.7 235.5,-75.7 8.5,-75.7"/>
<text text-anchor="start" x="13.5" y="-84.3" font-family="Helvetica,sans-Serif" font-weight="bold" font-size="11.00" fill="#000000">Compensation.Employees</text>
<text text-anchor="start" x="201.0219" y="-83.8" font-family="Helvetica,sans-Serif" font-size="11.00" fill="#000000">[table]</text>
<polygon fill="none" stroke="#000000" points="8.5,-56.7 8.5,-75.7 235.5,-75.7 235.5,-56.7 8.5,-56.7"/>
<text text-anchor="start" x="11.5" y="-62.8" font-family="Helvetica,sans-Serif" font-size="11.00" fill="#000000">...</text>
<polygon fill="#ffffff" stroke="transparent" points="8.5,-37.7 8.5,-56.7 235.5,-56.7 235.5,-37.7 8.5,-37.7"/>
<polygon fill="none" stroke="#000000" points="8.5,-37.7 8.5,-56.7 235.5,-56.7 235.5,-37.7 8.5,-37.7"/>
<polygon fill="#ffffff" stroke="transparent" points="9.5,-38.7 9.5,-55.7 81.5,-55.7 81.5,-38.7 9.5,-38.7"/>
<text text-anchor="start" x="11.5" y="-43.8" font-family="Helvetica,sans-Serif" font-size="11.00" fill="#000000"> &#160;</text>
<polygon fill="#ffffff" stroke="transparent" points="81.5,-38.7 81.5,-55.7 153.5,-55.7 153.5,-38.7 81.5,-38.7"/>
<text text-anchor="start" x="114.4431" y="-43.8" font-family="Helvetica,sans-Serif" font-size="11.00" fill="#000000"> &#160;</text>
<polygon fill="#ffffff" stroke="transparent" points="153.5,-38.7 153.5,-55.7 234.5,-55.7 234.5,-38.7 153.5,-38.7"/>
<text text-anchor="start" x="216.9053" y="-43.8" font-family="Helvetica,sans-Serif" font-size="11.00" fill="#000000">1 &gt;</text>
<polygon fill="#000000" stroke="#000000" points="81.5,-38.7 81.5,-55.7 81.5,-55.7 81.5,-38.7 81.5,-38.7"/>
<polygon fill="#000000" stroke="#000000" points="153.5,-38.7 153.5,-55.7 153.5,-55.7 153.5,-38.7 153.5,-38.7"/>
</a>
</g>
</g>
<!-- Providers&#45;&gt;Compensation.Employees -->
<g id="edge2" class="edge">
<title>Providers:w&#45;&gt;Compensation.Employees:e</title>
<path fill="none" stroke="#000000" d="M290.6037,-94.4868C268.1787,-88.8743 263.6419,-65.7 235.5,-65.7"/>
<polygon fill="#000000" stroke="#000000" points="300.6691,-91.6342 299.7417,-99.5803 298.1525,-99.3948 299.0798,-91.4488 300.6691,-91.6342"/>
<polyline fill="none" stroke="#000000" points="301,-95.7 297.027,-95.2363 "/>
<ellipse fill="none" stroke="#000000" cx="293.8485" cy="-94.8654" rx="3.2" ry="3.2"/>
</g>
<!-- ProviderTypes -->
<g id="node5" class="node">
<title>ProviderTypes</title>
<g id="a_node5"><a xlink:href="../../tables/ProviderTypes.html" xlink:title="ProviderTypes" target="_top">
<polygon fill="#ffffff" stroke="transparent" points="49.5,-120.2 49.5,-181.2 193.5,-181.2 193.5,-120.2 49.5,-120.2"/>
<polygon fill="#f5f5f5" stroke="transparent" points="49.5,-157.7 49.5,-180.7 193.5,-180.7 193.5,-157.7 49.5,-157.7"/>
<polygon fill="none" stroke="#000000" points="49.5,-157.7 49.5,-180.7 193.5,-180.7 193.5,-157.7 49.5,-157.7"/>
<text text-anchor="start" x="54.5" y="-166.3" font-family="Helvetica,sans-Serif" font-weight="bold" font-size="11.00" fill="#000000">ProviderTypes</text>
<text text-anchor="start" x="159.0219" y="-165.8" font-family="Helvetica,sans-Serif" font-size="11.00" fill="#000000">[table]</text>
<polygon fill="none" stroke="#000000" points="49.5,-138.7 49.5,-157.7 193.5,-157.7 193.5,-138.7 49.5,-138.7"/>
<text text-anchor="start" x="52.5" y="-144.8" font-family="Helvetica,sans-Serif" font-size="11.00" fill="#000000">...</text>
<polygon fill="#ffffff" stroke="transparent" points="49.5,-119.7 49.5,-138.7 193.5,-138.7 193.5,-119.7 49.5,-119.7"/>
<polygon fill="none" stroke="#000000" points="49.5,-119.7 49.5,-138.7 193.5,-138.7 193.5,-119.7 49.5,-119.7"/>
<polygon fill="#ffffff" stroke="transparent" points="50.5,-120.7 50.5,-137.7 95.5,-137.7 95.5,-120.7 50.5,-120.7"/>
<text text-anchor="start" x="52.5" y="-125.8" font-family="Helvetica,sans-Serif" font-size="11.00" fill="#000000"> &#160;</text>
<polygon fill="#ffffff" stroke="transparent" points="95.5,-120.7 95.5,-137.7 139.5,-137.7 139.5,-120.7 95.5,-120.7"/>
<text text-anchor="start" x="114.4431" y="-125.8" font-family="Helvetica,sans-Serif" font-size="11.00" fill="#000000"> &#160;</text>
<polygon fill="#ffffff" stroke="transparent" points="139.5,-120.7 139.5,-137.7 192.5,-137.7 192.5,-120.7 139.5,-120.7"/>
<text text-anchor="start" x="174.9053" y="-125.8" font-family="Helvetica,sans-Serif" font-size="11.00" fill="#000000">1 &gt;</text>
<polygon fill="#000000" stroke="#000000" points="95.5,-120.7 95.5,-137.7 95.5,-137.7 95.5,-120.7 95.5,-120.7"/>
<polygon fill="#000000" stroke="#000000" points="139.5,-120.7 139.5,-137.7 139.5,-137.7 139.5,-120.7 139.5,-120.7"/>
</a>
</g>
</g>
<!-- Providers&#45;&gt;ProviderTypes -->
<g id="edge3" class="edge">
<title>Providers:w&#45;&gt;ProviderTypes:e</title>
<path fill="none" stroke="#000000" d="M286.5868,-118.6307C249.1878,-123.6944 237.8718,-147.7 193.5,-147.7"/>
<polygon fill="#000000" stroke="#000000" points="293.0166,-118.2156 301.232,-121.2925 297.0083,-117.9578 301,-117.7 301,-117.7 301,-117.7 297.0083,-117.9578 300.768,-114.1075 293.0166,-118.2156 293.0166,-118.2156"/>
<ellipse fill="none" stroke="#000000" cx="289.8233" cy="-118.4218" rx="3.2" ry="3.2"/>
</g>
<!-- VisitAttendants -->
<g id="node6" class="node">
<title>VisitAttendants</title>
<g id="a_node6"><a xlink:href="../../tables/VisitAttendants.html" xlink:title="VisitAttendants" target="_top">
<polygon fill="#ffffff" stroke="transparent" points="516.5,-194.7 516.5,-372.7 736.5,-372.7 736.5,-194.7 516.5,-194.7"/>
<polygon fill="#f5f5f5" stroke="transparent" points="518.5,-347.7 518.5,-370.7 734.5,-370.7 734.5,-347.7 518.5,-347.7"/>
<polygon fill="none" stroke="#000000" points="518.5,-347.7 518.5,-370.7 734.5,-370.7 734.5,-347.7 518.5,-347.7"/>
<text text-anchor="start" x="523.5" y="-356.3" font-family="Helvetica,sans-Serif" font-weight="bold" font-size="11.00" fill="#000000">VisitAttendants</text>
<text text-anchor="start" x="699.5437" y="-355.8" font-family="Helvetica,sans-Serif" font-size="11.00" fill="#000000">[table]</text>
<polygon fill="none" stroke="#000000" points="518.5,-325.7 518.5,-347.7 653.5,-347.7 653.5,-325.7 518.5,-325.7"/>
<image xlink:href="../../images/primaryKeys.png" width="11px" height="12px" preserveAspectRatio="xMinYMin meet" x="523.5" y="-342.7"/>
<text text-anchor="start" x="538.5" y="-332.8" font-family="Helvetica,sans-Serif" font-size="11.00" fill="#000000">Id</text>
<polygon fill="none" stroke="#000000" points="653.5,-325.7 653.5,-347.7 734.5,-347.7 734.5,-325.7 653.5,-325.7"/>
<text text-anchor="start" x="656.5" y="-333.4" font-family="Helvetica,sans-Serif" font-size="11.00" fill="#000000">int identity[4]</text>
<polygon fill="#ffffff" stroke="transparent" points="518.5,-303.7 518.5,-325.7 653.5,-325.7 653.5,-303.7 518.5,-303.7"/>
<polygon fill="none" stroke="#000000" points="518.5,-303.7 518.5,-325.7 653.5,-325.7 653.5,-303.7 518.5,-303.7"/>
<image xlink:href="../../images/foreignKeys.png" width="11px" height="12px" preserveAspectRatio="xMinYMin meet" x="523.5" y="-320.7"/>
<text text-anchor="start" x="538.5" y="-310.8" font-family="Helvetica,sans-Serif" font-size="11.00" fill="#000000">VisitId</text>
<polygon fill="none" stroke="#000000" points="653.5,-303.7 653.5,-325.7 734.5,-325.7 734.5,-303.7 653.5,-303.7"/>
<text text-anchor="start" x="656.5" y="-311.4" font-family="Helvetica,sans-Serif" font-size="11.00" fill="#000000">int[4]</text>
<polygon fill="#ffffff" stroke="transparent" points="518.5,-281.7 518.5,-303.7 653.5,-303.7 653.5,-281.7 518.5,-281.7"/>
<polygon fill="none" stroke="#000000" points="518.5,-281.7 518.5,-303.7 653.5,-303.7 653.5,-281.7 518.5,-281.7"/>
<image xlink:href="../../images/foreignKeys.png" width="11px" height="12px" preserveAspectRatio="xMinYMin meet" x="523.5" y="-298.7"/>
<text text-anchor="start" x="538.5" y="-288.8" font-family="Helvetica,sans-Serif" font-size="11.00" fill="#000000">ProviderId</text>
<polygon fill="none" stroke="#000000" points="653.5,-281.7 653.5,-303.7 734.5,-303.7 734.5,-281.7 653.5,-281.7"/>
<text text-anchor="start" x="656.5" y="-289.4" font-family="Helvetica,sans-Serif" font-size="11.00" fill="#000000">int[4]</text>
<polygon fill="none" stroke="#000000" points="518.5,-259.7 518.5,-281.7 653.5,-281.7 653.5,-259.7 518.5,-259.7"/>
<text text-anchor="start" x="538.5" y="-266.8" font-family="Helvetica,sans-Serif" font-size="11.00" fill="#000000">CreatedAtUtc</text>
<polygon fill="none" stroke="#000000" points="653.5,-259.7 653.5,-281.7 734.5,-281.7 734.5,-259.7 653.5,-259.7"/>
<text text-anchor="start" x="656.0968" y="-267.4" font-family="Helvetica,sans-Serif" font-size="11.00" fill="#000000">datetime2[16,7]</text>
<polygon fill="none" stroke="#000000" points="518.5,-237.7 518.5,-259.7 653.5,-259.7 653.5,-237.7 518.5,-237.7"/>
<text text-anchor="start" x="538.5" y="-244.8" font-family="Helvetica,sans-Serif" font-size="11.00" fill="#000000">UpdatedAtUtc</text>
<polygon fill="none" stroke="#000000" points="653.5,-237.7 653.5,-259.7 734.5,-259.7 734.5,-237.7 653.5,-237.7"/>
<text text-anchor="start" x="656.0968" y="-245.4" font-family="Helvetica,sans-Serif" font-size="11.00" fill="#000000">datetime2[16,7]</text>
<polygon fill="none" stroke="#000000" points="518.5,-215.7 518.5,-237.7 653.5,-237.7 653.5,-215.7 518.5,-215.7"/>
<text text-anchor="start" x="538.5" y="-222.8" font-family="Helvetica,sans-Serif" font-size="11.00" fill="#000000">RowVersion</text>
<polygon fill="none" stroke="#000000" points="653.5,-215.7 653.5,-237.7 734.5,-237.7 734.5,-215.7 653.5,-215.7"/>
<text text-anchor="start" x="656.5" y="-223.4" font-family="Helvetica,sans-Serif" font-size="11.00" fill="#000000">timestamp[8]</text>
<polygon fill="#ffffff" stroke="transparent" points="518.5,-196.7 518.5,-215.7 734.5,-215.7 734.5,-196.7 518.5,-196.7"/>
<polygon fill="none" stroke="#000000" points="518.5,-196.7 518.5,-215.7 734.5,-215.7 734.5,-196.7 518.5,-196.7"/>
<polygon fill="#ffffff" stroke="transparent" points="519.5,-197.7 519.5,-214.7 594.5,-214.7 594.5,-197.7 519.5,-197.7"/>
<text text-anchor="start" x="521.5" y="-202.8" font-family="Helvetica,sans-Serif" font-size="11.00" fill="#000000">&lt; 2</text>
<polygon fill="#ffffff" stroke="transparent" points="594.5,-197.7 594.5,-214.7 659.5,-214.7 659.5,-197.7 594.5,-197.7"/>
<text text-anchor="start" x="623.9431" y="-202.8" font-family="Helvetica,sans-Serif" font-size="11.00" fill="#000000"> &#160;</text>
<polygon fill="#ffffff" stroke="transparent" points="659.5,-197.7 659.5,-214.7 733.5,-214.7 733.5,-197.7 659.5,-197.7"/>
<text text-anchor="start" x="715.9053" y="-202.8" font-family="Helvetica,sans-Serif" font-size="11.00" fill="#000000">0 &gt;</text>
<polygon fill="#000000" stroke="#000000" points="594.5,-197.7 594.5,-214.7 594.5,-214.7 594.5,-197.7 594.5,-197.7"/>
<polygon fill="#000000" stroke="#000000" points="659.5,-197.7 659.5,-214.7 659.5,-214.7 659.5,-197.7 659.5,-197.7"/>
<polygon fill="none" stroke="#000000" stroke-width="2" points="517.5,-195.7 517.5,-371.7 735.5,-371.7 735.5,-195.7 517.5,-195.7"/>
</a>
</g>
</g>
<!-- VisitAttendants&#45;&gt;Visits -->
<g id="edge5" class="edge">
<title>VisitAttendants:w&#45;&gt;Visits:e</title>
<path fill="none" stroke="#000000" d="M504.0344,-314.7853C484.5819,-315.0271 474.9766,-315.7 450,-315.7"/>
<polygon fill="#000000" stroke="#000000" points="510.5001,-314.7472 518.5212,-318.2999 514.5001,-314.7236 518.5,-314.7 518.5,-314.7 518.5,-314.7 514.5001,-314.7236 518.4788,-311.1001 510.5001,-314.7472 510.5001,-314.7472"/>
<ellipse fill="none" stroke="#000000" cx="507.3002" cy="-314.7661" rx="3.2" ry="3.2"/>
</g>
<!-- VisitAttendants&#45;&gt;Providers -->
<g id="edge4" class="edge">
<title>VisitAttendants:w&#45;&gt;Providers:e</title>
<path fill="none" stroke="#000000" d="M504.1634,-290.5371C449.7552,-271.9408 505.4202,-139.7 433,-139.7"/>
<polygon fill="#000000" stroke="#000000" points="510.5895,-291.5066 517.963,-296.2597 514.5448,-292.1033 518.5,-292.7 518.5,-292.7 518.5,-292.7 514.5448,-292.1033 519.037,-289.1403 510.5895,-291.5066 510.5895,-291.5066"/>
<ellipse fill="none" stroke="#000000" cx="507.4253" cy="-291.0292" rx="3.2" ry="3.2"/>
</g>
<!-- VisitEvents -->
<g id="node7" class="node">
<title>VisitEvents</title>
<g id="a_node7"><a xlink:href="../../tables/VisitEvents.html" xlink:title="VisitEvents" target="_top">
<polygon fill="#ffffff" stroke="transparent" points="566,-394.2 566,-455.2 687,-455.2 687,-394.2 566,-394.2"/>
<polygon fill="#f5f5f5" stroke="transparent" points="566.5,-431.7 566.5,-454.7 687.5,-454.7 687.5,-431.7 566.5,-431.7"/>
<polygon fill="none" stroke="#000000" points="566.5,-431.7 566.5,-454.7 687.5,-454.7 687.5,-431.7 566.5,-431.7"/>
<text text-anchor="start" x="571.5" y="-440.3" font-family="Helvetica,sans-Serif" font-weight="bold" font-size="11.00" fill="#000000">VisitEvents</text>
<text text-anchor="start" x="653.0219" y="-439.8" font-family="Helvetica,sans-Serif" font-size="11.00" fill="#000000">[table]</text>
<polygon fill="none" stroke="#000000" points="566.5,-412.7 566.5,-431.7 687.5,-431.7 687.5,-412.7 566.5,-412.7"/>
<text text-anchor="start" x="569.5" y="-418.8" font-family="Helvetica,sans-Serif" font-size="11.00" fill="#000000">...</text>
<polygon fill="#ffffff" stroke="transparent" points="566.5,-393.7 566.5,-412.7 687.5,-412.7 687.5,-393.7 566.5,-393.7"/>
<polygon fill="none" stroke="#000000" points="566.5,-393.7 566.5,-412.7 687.5,-412.7 687.5,-393.7 566.5,-393.7"/>
<polygon fill="#ffffff" stroke="transparent" points="567.5,-394.7 567.5,-411.7 613.5,-411.7 613.5,-394.7 567.5,-394.7"/>
<text text-anchor="start" x="569.5" y="-399.8" font-family="Helvetica,sans-Serif" font-size="11.00" fill="#000000">&lt; 2</text>
<polygon fill="#ffffff" stroke="transparent" points="613.5,-394.7 613.5,-411.7 650.5,-411.7 650.5,-394.7 613.5,-394.7"/>
<text text-anchor="start" x="628.9431" y="-399.8" font-family="Helvetica,sans-Serif" font-size="11.00" fill="#000000"> &#160;</text>
<polygon fill="#ffffff" stroke="transparent" points="650.5,-394.7 650.5,-411.7 686.5,-411.7 686.5,-394.7 650.5,-394.7"/>
<text text-anchor="start" x="678.3862" y="-399.8" font-family="Helvetica,sans-Serif" font-size="11.00" fill="#000000"> &#160;</text>
<polygon fill="#000000" stroke="#000000" points="613.5,-394.7 613.5,-411.7 613.5,-411.7 613.5,-394.7 613.5,-394.7"/>
<polygon fill="#000000" stroke="#000000" points="650.5,-394.7 650.5,-411.7 650.5,-411.7 650.5,-394.7 650.5,-394.7"/>
</a>
</g>
</g>
<!-- VisitEvents&#45;&gt;Visits -->
<g id="edge6" class="edge">
<title>VisitEvents:w&#45;&gt;Visits:e</title>
<path fill="none" stroke="#000000" d="M551.7815,-420.9168C525.5754,-417.8228 514.574,-405.5409 491,-383.7 465.1123,-359.7155 485.2907,-315.7 450,-315.7"/>
<polygon fill="#000000" stroke="#000000" points="558.5113,-421.2749 566.3087,-425.2949 562.5057,-421.4874 566.5,-421.7 566.5,-421.7 566.5,-421.7 562.5057,-421.4874 566.6913,-418.1051 558.5113,-421.2749 558.5113,-421.2749"/>
<ellipse fill="none" stroke="#000000" cx="555.3158" cy="-421.1048" rx="3.2" ry="3.2"/>
</g>
<!-- staging.ProviderAssignments -->
<g id="node9" class="node">
<title>staging.ProviderAssignments</title>
<g id="a_node9"><a xlink:title="staging.ProviderAssignments">
<polygon fill="#ffffff" stroke="transparent" points="499,-112.2 499,-173.2 754,-173.2 754,-112.2 499,-112.2"/>
<polygon fill="#f5f5f5" stroke="transparent" points="499.5,-149.7 499.5,-172.7 754.5,-172.7 754.5,-149.7 499.5,-149.7"/>
<polygon fill="none" stroke="#000000" points="499.5,-149.7 499.5,-172.7 754.5,-172.7 754.5,-149.7 499.5,-149.7"/>
<text text-anchor="start" x="504.5" y="-158.3" font-family="Helvetica,sans-Serif" font-weight="bold" font-size="11.00" fill="#000000">staging.ProviderAssignments</text>
<text text-anchor="start" x="720.0219" y="-157.8" font-family="Helvetica,sans-Serif" font-size="11.00" fill="#000000">[table]</text>
<polygon fill="none" stroke="#000000" points="499.5,-130.7 499.5,-149.7 754.5,-149.7 754.5,-130.7 499.5,-130.7"/>
<text text-anchor="start" x="502.5" y="-136.8" font-family="Helvetica,sans-Serif" font-size="11.00" fill="#000000">...</text>
<polygon fill="#ffffff" stroke="transparent" points="499.5,-111.7 499.5,-130.7 754.5,-130.7 754.5,-111.7 499.5,-111.7"/>
<polygon fill="none" stroke="#000000" points="499.5,-111.7 499.5,-130.7 754.5,-130.7 754.5,-111.7 499.5,-111.7"/>
<polygon fill="#ffffff" stroke="transparent" points="500.5,-112.7 500.5,-129.7 591.5,-129.7 591.5,-112.7 500.5,-112.7"/>
<text text-anchor="start" x="502.5" y="-117.8" font-family="Helvetica,sans-Serif" font-size="11.00" fill="#000000">&lt; 6</text>
<polygon fill="#ffffff" stroke="transparent" points="591.5,-112.7 591.5,-129.7 672.5,-129.7 672.5,-112.7 591.5,-112.7"/>
<text text-anchor="start" x="628.9431" y="-117.8" font-family="Helvetica,sans-Serif" font-size="11.00" fill="#000000"> &#160;</text>
<polygon fill="#ffffff" stroke="transparent" points="672.5,-112.7 672.5,-129.7 753.5,-129.7 753.5,-112.7 672.5,-112.7"/>
<text text-anchor="start" x="745.3862" y="-117.8" font-family="Helvetica,sans-Serif" font-size="11.00" fill="#000000"> &#160;</text>
<polygon fill="#000000" stroke="#000000" points="591.5,-112.7 591.5,-129.7 591.5,-129.7 591.5,-112.7 591.5,-112.7"/>
<polygon fill="#000000" stroke="#000000" points="672.5,-112.7 672.5,-129.7 672.5,-129.7 672.5,-112.7 672.5,-112.7"/>
</a>
</g>
</g>
<!-- staging.ProviderAssignments&#45;&gt;Visits -->
<g id="edge11" class="edge">
<title>staging.ProviderAssignments:w&#45;&gt;Visits:e</title>
<path fill="none" stroke="#000000" d="M485.1061,-142.188C433.1751,-163.5799 525.5437,-315.7 450,-315.7"/>
<polygon fill="#000000" stroke="#000000" points="491.6169,-141.0626 500.1132,-143.2474 495.5584,-140.3813 499.5,-139.7 499.5,-139.7 499.5,-139.7 495.5584,-140.3813 498.8868,-136.1526 491.6169,-141.0626 491.6169,-141.0626"/>
<ellipse fill="none" stroke="#000000" cx="488.4637" cy="-141.6077" rx="3.2" ry="3.2"/>
</g>
<!-- staging.ProviderAssignments&#45;&gt;Providers -->
<g id="edge9" class="edge">
<title>staging.ProviderAssignments:w&#45;&gt;Providers:e</title>
<path fill="none" stroke="#000000" d="M485.1885,-137.002C466.4842,-133.9022 457.1293,-134.8016 433,-139.7"/>
<polygon fill="#000000" stroke="#000000" points="491.6385,-138.2179 498.8331,-143.2377 495.5692,-138.959 499.5,-139.7 499.5,-139.7 499.5,-139.7 495.5692,-138.959 500.1669,-136.1623 491.6385,-138.2179 491.6385,-138.2179"/>
<ellipse fill="none" stroke="#000000" cx="488.4939" cy="-137.6251" rx="3.2" ry="3.2"/>
</g>
<!-- staging.ProviderAssignments&#45;&gt;Providers -->
<g id="edge10" class="edge">
<title>staging.ProviderAssignments:w&#45;&gt;Providers:e</title>
<path fill="none" stroke="#000000" d="M485.1885,-142.8476C466.4842,-146.4641 457.1293,-145.4148 433,-139.7"/>
<polygon fill="#000000" stroke="#000000" points="491.6867,-141.4185 500.2733,-143.216 495.5934,-140.5592 499.5,-139.7 499.5,-139.7 499.5,-139.7 495.5934,-140.5592 498.7267,-136.184 491.6867,-141.4185 491.6867,-141.4185"/>
<ellipse fill="none" stroke="#000000" cx="488.5614" cy="-142.1059" rx="3.2" ry="3.2"/>
</g>
<!-- staging.ProviderAssignments&#45;&gt;Hospitalizations -->
<g id="edge8" class="edge">
<title>staging.ProviderAssignments:w&#45;&gt;Hospitalizations:e</title>
<path fill="none" stroke="#000000" d="M485.5462,-144.3438C474.9972,-153.7331 476.3864,-174.9107 458,-184.7 385.7603,-223.1617 353.9527,-187.775 276,-212.7 240.2185,-224.1409 238.0661,-250.7 200.5,-250.7"/>
<polygon fill="#000000" stroke="#000000" points="491.9093,-142.2262 500.6368,-143.1158 495.7047,-140.9631 499.5,-139.7 499.5,-139.7 499.5,-139.7 495.7047,-140.9631 498.3632,-136.2842 491.9093,-142.2262 491.9093,-142.2262"/>
<ellipse fill="none" stroke="#000000" cx="488.873" cy="-143.2367" rx="3.2" ry="3.2"/>
</g>
</g>
</svg>
