<?xml version="1.0" encoding="UTF-8" standalone="no"?>
<!DOCTYPE svg PUBLIC "-//W3C//DTD SVG 1.1//EN"
 "http://www.w3.org/Graphics/SVG/1.1/DTD/svg11.dtd">
<!-- Generated by graphviz version 2.40.1 (20161225.0304)
 -->
<!-- Title: twoDegreesRelationshipsDiagram Pages: 1 -->
<svg width="770pt" height="509pt"
 viewBox="0.00 0.00 770.00 509.20" xmlns="http://www.w3.org/2000/svg" xmlns:xlink="http://www.w3.org/1999/xlink">
<g id="graph0" class="graph" transform="scale(1 1) rotate(0) translate(4 505.2)">
<title>twoDegreesRelationshipsDiagram</title>
<polygon fill="#ffffff" stroke="transparent" points="-4,4 -4,-505.2 766,-505.2 766,4 -4,4"/>
<text text-anchor="middle" x="72.4936" y="-7.3" font-family="Helvetica,sans-Serif" font-size="11.00" fill="#000000">Generated by SchemaSpy</text>
<!-- Billing.VisitServiceBillings -->
<g id="node1" class="node">
<title>Billing.VisitServiceBillings</title>
<g id="a_node1"><a xlink:title="Billing.VisitServiceBillings">
<polygon fill="#ffffff" stroke="transparent" points="511,-436.2 511,-497.2 742,-497.2 742,-436.2 511,-436.2"/>
<polygon fill="#f5f5f5" stroke="transparent" points="511.5,-473.7 511.5,-496.7 742.5,-496.7 742.5,-473.7 511.5,-473.7"/>
<polygon fill="none" stroke="#000000" points="511.5,-473.7 511.5,-496.7 742.5,-496.7 742.5,-473.7 511.5,-473.7"/>
<text text-anchor="start" x="516.5" y="-482.3" font-family="Helvetica,sans-Serif" font-weight="bold" font-size="11.00" fill="#000000">Billing.VisitServiceBillings</text>
<text text-anchor="start" x="708.0219" y="-481.8" font-family="Helvetica,sans-Serif" font-size="11.00" fill="#000000">[table]</text>
<polygon fill="none" stroke="#000000" points="511.5,-454.7 511.5,-473.7 742.5,-473.7 742.5,-454.7 511.5,-454.7"/>
<text text-anchor="start" x="514.5" y="-460.8" font-family="Helvetica,sans-Serif" font-size="11.00" fill="#000000">...</text>
<polygon fill="#ffffff" stroke="transparent" points="511.5,-435.7 511.5,-454.7 742.5,-454.7 742.5,-435.7 511.5,-435.7"/>
<polygon fill="none" stroke="#000000" points="511.5,-435.7 511.5,-454.7 742.5,-454.7 742.5,-435.7 511.5,-435.7"/>
<polygon fill="#ffffff" stroke="transparent" points="512.5,-436.7 512.5,-453.7 595.5,-453.7 595.5,-436.7 512.5,-436.7"/>
<text text-anchor="start" x="514.5" y="-441.8" font-family="Helvetica,sans-Serif" font-size="11.00" fill="#000000">&lt; 2</text>
<polygon fill="#ffffff" stroke="transparent" points="595.5,-436.7 595.5,-453.7 668.5,-453.7 668.5,-436.7 595.5,-436.7"/>
<text text-anchor="start" x="628.9431" y="-441.8" font-family="Helvetica,sans-Serif" font-size="11.00" fill="#000000"> &#160;</text>
<polygon fill="#ffffff" stroke="transparent" points="668.5,-436.7 668.5,-453.7 741.5,-453.7 741.5,-436.7 668.5,-436.7"/>
<text text-anchor="start" x="733.3862" y="-441.8" font-family="Helvetica,sans-Serif" font-size="11.00" fill="#000000"> &#160;</text>
<polygon fill="#000000" stroke="#000000" points="595.5,-436.7 595.5,-453.7 595.5,-453.7 595.5,-436.7 595.5,-436.7"/>
<polygon fill="#000000" stroke="#000000" points="668.5,-436.7 668.5,-453.7 668.5,-453.7 668.5,-436.7 668.5,-436.7"/>
</a>
</g>
</g>
<!-- Visits -->
<g id="node2" class="node">
<title>Visits</title>
<g id="a_node2"><a xlink:href="../../tables/Visits.html" xlink:title="Visits" target="_top">
<polygon fill="#ffffff" stroke="transparent" points="284,-216.2 284,-343.2 450,-343.2 450,-216.2 284,-216.2"/>
<polygon fill="#f5f5f5" stroke="transparent" points="284,-319.7 284,-342.7 450,-342.7 450,-319.7 284,-319.7"/>
<polygon fill="none" stroke="#000000" points="284,-319.7 284,-342.7 450,-342.7 450,-319.7 284,-319.7"/>
<text text-anchor="start" x="289" y="-328.3" font-family="Helvetica,sans-Serif" font-weight="bold" font-size="11.00" fill="#000000">Visits</text>
<text text-anchor="start" x="415.0437" y="-327.8" font-family="Helvetica,sans-Serif" font-size="11.00" fill="#000000">[table]</text>
<polygon fill="none" stroke="#000000" points="284,-297.7 284,-319.7 450,-319.7 450,-297.7 284,-297.7"/>
<image xlink:href="../../images/primaryKeys.png" width="11px" height="12px" preserveAspectRatio="xMinYMin meet" x="289" y="-314.7"/>
<text text-anchor="start" x="304" y="-304.8" font-family="Helvetica,sans-Serif" font-size="11.00" fill="#000000">Id</text>
<polygon fill="#ffffff" stroke="transparent" points="284,-275.7 284,-297.7 450,-297.7 450,-275.7 284,-275.7"/>
<polygon fill="none" stroke="#000000" points="284,-275.7 284,-297.7 450,-297.7 450,-275.7 284,-275.7"/>
<text text-anchor="start" x="304" y="-282.8" font-family="Helvetica,sans-Serif" font-size="11.00" fill="#000000">DateServiced</text>
<polygon fill="#ffffff" stroke="transparent" points="284,-253.7 284,-275.7 450,-275.7 450,-253.7 284,-253.7"/>
<polygon fill="none" stroke="#000000" points="284,-253.7 284,-275.7 450,-275.7 450,-253.7 284,-253.7"/>
<image xlink:href="../../images/foreignKeys.png" width="11px" height="12px" preserveAspectRatio="xMinYMin meet" x="289" y="-270.7"/>
<text text-anchor="start" x="304" y="-260.8" font-family="Helvetica,sans-Serif" font-size="11.00" fill="#000000">HospitalizationId</text>
<polygon fill="none" stroke="#000000" points="284,-234.7 284,-253.7 450,-253.7 450,-234.7 284,-234.7"/>
<text text-anchor="start" x="287" y="-240.8" font-family="Helvetica,sans-Serif" font-size="11.00" fill="#000000">...</text>
<polygon fill="#ffffff" stroke="transparent" points="284,-215.7 284,-234.7 450,-234.7 450,-215.7 284,-215.7"/>
<polygon fill="none" stroke="#000000" points="284,-215.7 284,-234.7 450,-234.7 450,-215.7 284,-215.7"/>
<polygon fill="#ffffff" stroke="transparent" points="285,-216.7 285,-233.7 343,-233.7 343,-216.7 285,-216.7"/>
<text text-anchor="start" x="287" y="-221.8" font-family="Helvetica,sans-Serif" font-size="11.00" fill="#000000">&lt; 1</text>
<polygon fill="#ffffff" stroke="transparent" points="343,-216.7 343,-233.7 392,-233.7 392,-216.7 343,-216.7"/>
<text text-anchor="start" x="364.4431" y="-221.8" font-family="Helvetica,sans-Serif" font-size="11.00" fill="#000000"> &#160;</text>
<polygon fill="#ffffff" stroke="transparent" points="392,-216.7 392,-233.7 449,-233.7 449,-216.7 392,-216.7"/>
<text text-anchor="start" x="431.4053" y="-221.8" font-family="Helvetica,sans-Serif" font-size="11.00" fill="#000000">4 &gt;</text>
<polygon fill="#000000" stroke="#000000" points="343,-216.7 343,-233.7 343,-233.7 343,-216.7 343,-216.7"/>
<polygon fill="#000000" stroke="#000000" points="392,-216.7 392,-233.7 392,-233.7 392,-216.7 392,-216.7"/>
</a>
</g>
</g>
<!-- Billing.VisitServiceBillings&#45;&gt;Visits -->
<g id="edge1" class="edge">
<title>Billing.VisitServiceBillings:w&#45;&gt;Visits:e</title>
<path fill="none" stroke="#000000" d="M497.2214,-461.139C449.6657,-440.9861 518.468,-308.7 450,-308.7"/>
<polygon fill="#000000" stroke="#000000" points="503.6257,-462.2876 510.8644,-467.2435 507.5628,-462.9938 511.5,-463.7 511.5,-463.7 511.5,-463.7 507.5628,-462.9938 512.1356,-460.1565 503.6257,-462.2876 503.6257,-462.2876"/>
<ellipse fill="none" stroke="#000000" cx="500.4759" cy="-461.7227" rx="3.2" ry="3.2"/>
</g>
<!-- Hospitalizations -->
<g id="node7" class="node">
<title>Hospitalizations</title>
<g id="a_node7"><a xlink:href="../../tables/Hospitalizations.html" xlink:title="Hospitalizations" target="_top">
<polygon fill="#ffffff" stroke="transparent" points="43,-38.2 43,-99.2 200,-99.2 200,-38.2 43,-38.2"/>
<polygon fill="#f5f5f5" stroke="transparent" points="43.5,-75.7 43.5,-98.7 200.5,-98.7 200.5,-75.7 43.5,-75.7"/>
<polygon fill="none" stroke="#000000" points="43.5,-75.7 43.5,-98.7 200.5,-98.7 200.5,-75.7 43.5,-75.7"/>
<text text-anchor="start" x="48.5" y="-84.3" font-family="Helvetica,sans-Serif" font-weight="bold" font-size="11.00" fill="#000000">Hospitalizations</text>
<text text-anchor="start" x="166.0219" y="-83.8" font-family="Helvetica,sans-Serif" font-size="11.00" fill="#000000">[table]</text>
<polygon fill="none" stroke="#000000" points="43.5,-56.7 43.5,-75.7 200.5,-75.7 200.5,-56.7 43.5,-56.7"/>
<text text-anchor="start" x="46.5" y="-62.8" font-family="Helvetica,sans-Serif" font-size="11.00" fill="#000000">...</text>
<polygon fill="#ffffff" stroke="transparent" points="43.5,-37.7 43.5,-56.7 200.5,-56.7 200.5,-37.7 43.5,-37.7"/>
<polygon fill="none" stroke="#000000" points="43.5,-37.7 43.5,-56.7 200.5,-56.7 200.5,-37.7 43.5,-37.7"/>
<polygon fill="#ffffff" stroke="transparent" points="44.5,-38.7 44.5,-55.7 99.5,-55.7 99.5,-38.7 44.5,-38.7"/>
<text text-anchor="start" x="46.5" y="-43.8" font-family="Helvetica,sans-Serif" font-size="11.00" fill="#000000">&lt; 3</text>
<polygon fill="#ffffff" stroke="transparent" points="99.5,-38.7 99.5,-55.7 145.5,-55.7 145.5,-38.7 99.5,-38.7"/>
<text text-anchor="start" x="119.4431" y="-43.8" font-family="Helvetica,sans-Serif" font-size="11.00" fill="#000000"> &#160;</text>
<polygon fill="#ffffff" stroke="transparent" points="145.5,-38.7 145.5,-55.7 199.5,-55.7 199.5,-38.7 145.5,-38.7"/>
<text text-anchor="start" x="181.9053" y="-43.8" font-family="Helvetica,sans-Serif" font-size="11.00" fill="#000000">4 &gt;</text>
<polygon fill="#000000" stroke="#000000" points="99.5,-38.7 99.5,-55.7 99.5,-55.7 99.5,-38.7 99.5,-38.7"/>
<polygon fill="#000000" stroke="#000000" points="145.5,-38.7 145.5,-55.7 145.5,-55.7 145.5,-38.7 145.5,-38.7"/>
</a>
</g>
</g>
<!-- Visits&#45;&gt;Hospitalizations -->
<g id="edge6" class="edge">
<title>Visits:w&#45;&gt;Hospitalizations:e</title>
<path fill="none" stroke="#000000" d="M269.6855,-263.0575C222.3255,-250.3686 275.2594,-166.9246 243,-109.7 229.6484,-86.0157 227.6884,-65.7 200.5,-65.7"/>
<polygon fill="#000000" stroke="#000000" points="276.0522,-263.788 283.5896,-268.2765 280.0261,-264.244 284,-264.7 284,-264.7 284,-264.7 280.0261,-264.244 284.4104,-261.1235 276.0522,-263.788 276.0522,-263.788"/>
<ellipse fill="none" stroke="#000000" cx="272.873" cy="-263.4232" rx="3.2" ry="3.2"/>
</g>
<!-- Providers -->
<g id="node3" class="node">
<title>Providers</title>
<g id="a_node3"><a xlink:href="../../tables/Providers.html" xlink:title="Providers" target="_top">
<polygon fill="#ffffff" stroke="transparent" points="304.5,-90.2 304.5,-195.2 429.5,-195.2 429.5,-90.2 304.5,-90.2"/>
<polygon fill="#f5f5f5" stroke="transparent" points="305,-171.7 305,-194.7 430,-194.7 430,-171.7 305,-171.7"/>
<polygon fill="none" stroke="#000000" points="305,-171.7 305,-194.7 430,-194.7 430,-171.7 305,-171.7"/>
<text text-anchor="start" x="310" y="-180.3" font-family="Helvetica,sans-Serif" font-weight="bold" font-size="11.00" fill="#000000">Providers</text>
<text text-anchor="start" x="395.0437" y="-179.8" font-family="Helvetica,sans-Serif" font-size="11.00" fill="#000000">[table]</text>
<polygon fill="none" stroke="#000000" points="305,-149.7 305,-171.7 430,-171.7 430,-149.7 305,-149.7"/>
<image xlink:href="../../images/primaryKeys.png" width="11px" height="12px" preserveAspectRatio="xMinYMin meet" x="310" y="-166.7"/>
<text text-anchor="start" x="325" y="-156.8" font-family="Helvetica,sans-Serif" font-size="11.00" fill="#000000">Id</text>
<polygon fill="#ffffff" stroke="transparent" points="305,-127.7 305,-149.7 430,-149.7 430,-127.7 305,-127.7"/>
<polygon fill="none" stroke="#000000" points="305,-127.7 305,-149.7 430,-149.7 430,-127.7 305,-127.7"/>
<image xlink:href="../../images/foreignKeys.png" width="11px" height="12px" preserveAspectRatio="xMinYMin meet" x="310" y="-144.7"/>
<text text-anchor="start" x="325" y="-134.8" font-family="Helvetica,sans-Serif" font-size="11.00" fill="#000000">EmployeeId</text>
<polygon fill="none" stroke="#000000" points="305,-108.7 305,-127.7 430,-127.7 430,-108.7 305,-108.7"/>
<text text-anchor="start" x="308" y="-114.8" font-family="Helvetica,sans-Serif" font-size="11.00" fill="#000000">...</text>
<polygon fill="#ffffff" stroke="transparent" points="305,-89.7 305,-108.7 430,-108.7 430,-89.7 305,-89.7"/>
<polygon fill="none" stroke="#000000" points="305,-89.7 305,-108.7 430,-108.7 430,-89.7 305,-89.7"/>
<polygon fill="#ffffff" stroke="transparent" points="306,-90.7 306,-107.7 350,-107.7 350,-90.7 306,-90.7"/>
<text text-anchor="start" x="308" y="-95.8" font-family="Helvetica,sans-Serif" font-size="11.00" fill="#000000">&lt; 1</text>
<polygon fill="#ffffff" stroke="transparent" points="350,-90.7 350,-107.7 385,-107.7 385,-90.7 350,-90.7"/>
<text text-anchor="start" x="364.4431" y="-95.8" font-family="Helvetica,sans-Serif" font-size="11.00" fill="#000000"> &#160;</text>
<polygon fill="#ffffff" stroke="transparent" points="385,-90.7 385,-107.7 429,-107.7 429,-90.7 385,-90.7"/>
<text text-anchor="start" x="411.4053" y="-95.8" font-family="Helvetica,sans-Serif" font-size="11.00" fill="#000000">3 &gt;</text>
<polygon fill="#000000" stroke="#000000" points="350,-90.7 350,-107.7 350,-107.7 350,-90.7 350,-90.7"/>
<polygon fill="#000000" stroke="#000000" points="385,-90.7 385,-107.7 385,-107.7 385,-90.7 385,-90.7"/>
</a>
</g>
</g>
<!-- Compensation.Employees -->
<g id="node4" class="node">
<title>Compensation.Employees</title>
<g id="a_node4"><a xlink:title="Compensation.Employees">
<polygon fill="#ffffff" stroke="transparent" points="8,-120.2 8,-181.2 235,-181.2 235,-120.2 8,-120.2"/>
<polygon fill="#f5f5f5" stroke="transparent" points="8.5,-157.7 8.5,-180.7 235.5,-180.7 235.5,-157.7 8.5,-157.7"/>
<polygon fill="none" stroke="#000000" points="8.5,-157.7 8.5,-180.7 235.5,-180.7 235.5,-157.7 8.5,-157.7"/>
<text text-anchor="start" x="13.5" y="-166.3" font-family="Helvetica,sans-Serif" font-weight="bold" font-size="11.00" fill="#000000">Compensation.Employees</text>
<text text-anchor="start" x="201.0219" y="-165.8" font-family="Helvetica,sans-Serif" font-size="11.00" fill="#000000">[table]</text>
<polygon fill="none" stroke="#000000" points="8.5,-138.7 8.5,-157.7 235.5,-157.7 235.5,-138.7 8.5,-138.7"/>
<text text-anchor="start" x="11.5" y="-144.8" font-family="Helvetica,sans-Serif" font-size="11.00" fill="#000000">...</text>
<polygon fill="#ffffff" stroke="transparent" points="8.5,-119.7 8.5,-138.7 235.5,-138.7 235.5,-119.7 8.5,-119.7"/>
<polygon fill="none" stroke="#000000" points="8.5,-119.7 8.5,-138.7 235.5,-138.7 235.5,-119.7 8.5,-119.7"/>
<polygon fill="#ffffff" stroke="transparent" points="9.5,-120.7 9.5,-137.7 81.5,-137.7 81.5,-120.7 9.5,-120.7"/>
<text text-anchor="start" x="11.5" y="-125.8" font-family="Helvetica,sans-Serif" font-size="11.00" fill="#000000"> &#160;</text>
<polygon fill="#ffffff" stroke="transparent" points="81.5,-120.7 81.5,-137.7 153.5,-137.7 153.5,-120.7 81.5,-120.7"/>
<text text-anchor="start" x="114.4431" y="-125.8" font-family="Helvetica,sans-Serif" font-size="11.00" fill="#000000"> &#160;</text>
<polygon fill="#ffffff" stroke="transparent" points="153.5,-120.7 153.5,-137.7 234.5,-137.7 234.5,-120.7 153.5,-120.7"/>
<text text-anchor="start" x="216.9053" y="-125.8" font-family="Helvetica,sans-Serif" font-size="11.00" fill="#000000">1 &gt;</text>
<polygon fill="#000000" stroke="#000000" points="81.5,-120.7 81.5,-137.7 81.5,-137.7 81.5,-120.7 81.5,-120.7"/>
<polygon fill="#000000" stroke="#000000" points="153.5,-120.7 153.5,-137.7 153.5,-137.7 153.5,-120.7 153.5,-120.7"/>
</a>
</g>
</g>
<!-- Providers&#45;&gt;Compensation.Employees -->
<g id="edge2" class="edge">
<title>Providers:w&#45;&gt;Compensation.Employees:e</title>
<path fill="none" stroke="#000000" d="M294.3486,-139.0867C271.6775,-140.8094 262.7535,-147.7 235.5,-147.7"/>
<polygon fill="#000000" stroke="#000000" points="304.0554,-134.7317 304.3457,-142.7264 302.7467,-142.7845 302.4564,-134.7897 304.0554,-134.7317"/>
<polyline fill="none" stroke="#000000" points="305,-138.7 301.0026,-138.8452 "/>
<ellipse fill="none" stroke="#000000" cx="297.8047" cy="-138.9613" rx="3.2" ry="3.2"/>
</g>
<!-- VisitAttendants -->
<g id="node5" class="node">
<title>VisitAttendants</title>
<g id="a_node5"><a xlink:href="../../tables/VisitAttendants.html" xlink:title="VisitAttendants" target="_top">
<polygon fill="#ffffff" stroke="transparent" points="516.5,-154.7 516.5,-332.7 736.5,-332.7 736.5,-154.7 516.5,-154.7"/>
<polygon fill="#f5f5f5" stroke="transparent" points="518.5,-307.7 518.5,-330.7 734.5,-330.7 734.5,-307.7 518.5,-307.7"/>
<polygon fill="none" stroke="#000000" points="518.5,-307.7 518.5,-330.7 734.5,-330.7 734.5,-307.7 518.5,-307.7"/>
<text text-anchor="start" x="523.5" y="-316.3" font-family="Helvetica,sans-Serif" font-weight="bold" font-size="11.00" fill="#000000">VisitAttendants</text>
<text text-anchor="start" x="699.5437" y="-315.8" font-family="Helvetica,sans-Serif" font-size="11.00" fill="#000000">[table]</text>
<polygon fill="none" stroke="#000000" points="518.5,-285.7 518.5,-307.7 653.5,-307.7 653.5,-285.7 518.5,-285.7"/>
<image xlink:href="../../images/primaryKeys.png" width="11px" height="12px" preserveAspectRatio="xMinYMin meet" x="523.5" y="-302.7"/>
<text text-anchor="start" x="538.5" y="-292.8" font-family="Helvetica,sans-Serif" font-size="11.00" fill="#000000">Id</text>
<polygon fill="none" stroke="#000000" points="653.5,-285.7 653.5,-307.7 734.5,-307.7 734.5,-285.7 653.5,-285.7"/>
<text text-anchor="start" x="656.5" y="-293.4" font-family="Helvetica,sans-Serif" font-size="11.00" fill="#000000">int identity[4]</text>
<polygon fill="#ffffff" stroke="transparent" points="518.5,-263.7 518.5,-285.7 653.5,-285.7 653.5,-263.7 518.5,-263.7"/>
<polygon fill="none" stroke="#000000" points="518.5,-263.7 518.5,-285.7 653.5,-285.7 653.5,-263.7 518.5,-263.7"/>
<image xlink:href="../../images/foreignKeys.png" width="11px" height="12px" preserveAspectRatio="xMinYMin meet" x="523.5" y="-280.7"/>
<text text-anchor="start" x="538.5" y="-270.8" font-family="Helvetica,sans-Serif" font-size="11.00" fill="#000000">VisitId</text>
<polygon fill="none" stroke="#000000" points="653.5,-263.7 653.5,-285.7 734.5,-285.7 734.5,-263.7 653.5,-263.7"/>
<text text-anchor="start" x="656.5" y="-271.4" font-family="Helvetica,sans-Serif" font-size="11.00" fill="#000000">int[4]</text>
<polygon fill="#ffffff" stroke="transparent" points="518.5,-241.7 518.5,-263.7 653.5,-263.7 653.5,-241.7 518.5,-241.7"/>
<polygon fill="none" stroke="#000000" points="518.5,-241.7 518.5,-263.7 653.5,-263.7 653.5,-241.7 518.5,-241.7"/>
<image xlink:href="../../images/foreignKeys.png" width="11px" height="12px" preserveAspectRatio="xMinYMin meet" x="523.5" y="-258.7"/>
<text text-anchor="start" x="538.5" y="-248.8" font-family="Helvetica,sans-Serif" font-size="11.00" fill="#000000">ProviderId</text>
<polygon fill="none" stroke="#000000" points="653.5,-241.7 653.5,-263.7 734.5,-263.7 734.5,-241.7 653.5,-241.7"/>
<text text-anchor="start" x="656.5" y="-249.4" font-family="Helvetica,sans-Serif" font-size="11.00" fill="#000000">int[4]</text>
<polygon fill="none" stroke="#000000" points="518.5,-219.7 518.5,-241.7 653.5,-241.7 653.5,-219.7 518.5,-219.7"/>
<text text-anchor="start" x="538.5" y="-226.8" font-family="Helvetica,sans-Serif" font-size="11.00" fill="#000000">CreatedAtUtc</text>
<polygon fill="none" stroke="#000000" points="653.5,-219.7 653.5,-241.7 734.5,-241.7 734.5,-219.7 653.5,-219.7"/>
<text text-anchor="start" x="656.0968" y="-227.4" font-family="Helvetica,sans-Serif" font-size="11.00" fill="#000000">datetime2[16,7]</text>
<polygon fill="none" stroke="#000000" points="518.5,-197.7 518.5,-219.7 653.5,-219.7 653.5,-197.7 518.5,-197.7"/>
<text text-anchor="start" x="538.5" y="-204.8" font-family="Helvetica,sans-Serif" font-size="11.00" fill="#000000">UpdatedAtUtc</text>
<polygon fill="none" stroke="#000000" points="653.5,-197.7 653.5,-219.7 734.5,-219.7 734.5,-197.7 653.5,-197.7"/>
<text text-anchor="start" x="656.0968" y="-205.4" font-family="Helvetica,sans-Serif" font-size="11.00" fill="#000000">datetime2[16,7]</text>
<polygon fill="none" stroke="#000000" points="518.5,-175.7 518.5,-197.7 653.5,-197.7 653.5,-175.7 518.5,-175.7"/>
<text text-anchor="start" x="538.5" y="-182.8" font-family="Helvetica,sans-Serif" font-size="11.00" fill="#000000">RowVersion</text>
<polygon fill="none" stroke="#000000" points="653.5,-175.7 653.5,-197.7 734.5,-197.7 734.5,-175.7 653.5,-175.7"/>
<text text-anchor="start" x="656.5" y="-183.4" font-family="Helvetica,sans-Serif" font-size="11.00" fill="#000000">timestamp[8]</text>
<polygon fill="#ffffff" stroke="transparent" points="518.5,-156.7 518.5,-175.7 734.5,-175.7 734.5,-156.7 518.5,-156.7"/>
<polygon fill="none" stroke="#000000" points="518.5,-156.7 518.5,-175.7 734.5,-175.7 734.5,-156.7 518.5,-156.7"/>
<polygon fill="#ffffff" stroke="transparent" points="519.5,-157.7 519.5,-174.7 594.5,-174.7 594.5,-157.7 519.5,-157.7"/>
<text text-anchor="start" x="521.5" y="-162.8" font-family="Helvetica,sans-Serif" font-size="11.00" fill="#000000">&lt; 2</text>
<polygon fill="#ffffff" stroke="transparent" points="594.5,-157.7 594.5,-174.7 659.5,-174.7 659.5,-157.7 594.5,-157.7"/>
<text text-anchor="start" x="623.9431" y="-162.8" font-family="Helvetica,sans-Serif" font-size="11.00" fill="#000000"> &#160;</text>
<polygon fill="#ffffff" stroke="transparent" points="659.5,-157.7 659.5,-174.7 733.5,-174.7 733.5,-157.7 659.5,-157.7"/>
<text text-anchor="start" x="715.9053" y="-162.8" font-family="Helvetica,sans-Serif" font-size="11.00" fill="#000000">0 &gt;</text>
<polygon fill="#000000" stroke="#000000" points="594.5,-157.7 594.5,-174.7 594.5,-174.7 594.5,-157.7 594.5,-157.7"/>
<polygon fill="#000000" stroke="#000000" points="659.5,-157.7 659.5,-174.7 659.5,-174.7 659.5,-157.7 659.5,-157.7"/>
<polygon fill="none" stroke="#000000" stroke-width="2" points="517.5,-155.7 517.5,-331.7 735.5,-331.7 735.5,-155.7 517.5,-155.7"/>
</a>
</g>
</g>
<!-- VisitAttendants&#45;&gt;Visits -->
<g id="edge4" class="edge">
<title>VisitAttendants:w&#45;&gt;Visits:e</title>
<path fill="none" stroke="#000000" d="M504.1781,-277.1452C483.4392,-284.9411 478.4122,-308.7 450,-308.7"/>
<polygon fill="#000000" stroke="#000000" points="510.6141,-276.0464 519.1059,-278.2487 514.5571,-275.3732 518.5,-274.7 518.5,-274.7 518.5,-274.7 514.5571,-275.3732 517.8941,-271.1513 510.6141,-276.0464 510.6141,-276.0464"/>
<ellipse fill="none" stroke="#000000" cx="507.4597" cy="-276.585" rx="3.2" ry="3.2"/>
</g>
<!-- VisitAttendants&#45;&gt;Providers -->
<g id="edge3" class="edge">
<title>VisitAttendants:w&#45;&gt;Providers:e</title>
<path fill="none" stroke="#000000" d="M504.0635,-250.2392C465.8619,-235.6086 481.1957,-160.7 430,-160.7"/>
<polygon fill="#000000" stroke="#000000" points="510.6137,-251.3557 517.8951,-256.2488 514.5569,-252.0278 518.5,-252.7 518.5,-252.7 518.5,-252.7 514.5569,-252.0278 519.1049,-249.1512 510.6137,-251.3557 510.6137,-251.3557"/>
<ellipse fill="none" stroke="#000000" cx="507.4592" cy="-250.818" rx="3.2" ry="3.2"/>
</g>
<!-- VisitEvents -->
<g id="node6" class="node">
<title>VisitEvents</title>
<g id="a_node6"><a xlink:href="../../tables/VisitEvents.html" xlink:title="VisitEvents" target="_top">
<polygon fill="#ffffff" stroke="transparent" points="566,-354.2 566,-415.2 687,-415.2 687,-354.2 566,-354.2"/>
<polygon fill="#f5f5f5" stroke="transparent" points="566.5,-391.7 566.5,-414.7 687.5,-414.7 687.5,-391.7 566.5,-391.7"/>
<polygon fill="none" stroke="#000000" points="566.5,-391.7 566.5,-414.7 687.5,-414.7 687.5,-391.7 566.5,-391.7"/>
<text text-anchor="start" x="571.5" y="-400.3" font-family="Helvetica,sans-Serif" font-weight="bold" font-size="11.00" fill="#000000">VisitEvents</text>
<text text-anchor="start" x="653.0219" y="-399.8" font-family="Helvetica,sans-Serif" font-size="11.00" fill="#000000">[table]</text>
<polygon fill="none" stroke="#000000" points="566.5,-372.7 566.5,-391.7 687.5,-391.7 687.5,-372.7 566.5,-372.7"/>
<text text-anchor="start" x="569.5" y="-378.8" font-family="Helvetica,sans-Serif" font-size="11.00" fill="#000000">...</text>
<polygon fill="#ffffff" stroke="transparent" points="566.5,-353.7 566.5,-372.7 687.5,-372.7 687.5,-353.7 566.5,-353.7"/>
<polygon fill="none" stroke="#000000" points="566.5,-353.7 566.5,-372.7 687.5,-372.7 687.5,-353.7 566.5,-353.7"/>
<polygon fill="#ffffff" stroke="transparent" points="567.5,-354.7 567.5,-371.7 613.5,-371.7 613.5,-354.7 567.5,-354.7"/>
<text text-anchor="start" x="569.5" y="-359.8" font-family="Helvetica,sans-Serif" font-size="11.00" fill="#000000">&lt; 2</text>
<polygon fill="#ffffff" stroke="transparent" points="613.5,-354.7 613.5,-371.7 650.5,-371.7 650.5,-354.7 613.5,-354.7"/>
<text text-anchor="start" x="628.9431" y="-359.8" font-family="Helvetica,sans-Serif" font-size="11.00" fill="#000000"> &#160;</text>
<polygon fill="#ffffff" stroke="transparent" points="650.5,-354.7 650.5,-371.7 686.5,-371.7 686.5,-354.7 650.5,-354.7"/>
<text text-anchor="start" x="678.3862" y="-359.8" font-family="Helvetica,sans-Serif" font-size="11.00" fill="#000000"> &#160;</text>
<polygon fill="#000000" stroke="#000000" points="613.5,-354.7 613.5,-371.7 613.5,-371.7 613.5,-354.7 613.5,-354.7"/>
<polygon fill="#000000" stroke="#000000" points="650.5,-354.7 650.5,-371.7 650.5,-371.7 650.5,-354.7 650.5,-354.7"/>
</a>
</g>
</g>
<!-- VisitEvents&#45;&gt;Visits -->
<g id="edge5" class="edge">
<title>VisitEvents:w&#45;&gt;Visits:e</title>
<path fill="none" stroke="#000000" d="M551.9816,-380.6626C526.4984,-376.6503 517.7668,-361.4847 491,-343.7 471.0445,-330.4409 473.9588,-308.7 450,-308.7"/>
<polygon fill="#000000" stroke="#000000" points="558.5203,-381.1298 566.2434,-385.2908 562.5102,-381.4149 566.5,-381.7 566.5,-381.7 566.5,-381.7 562.5102,-381.4149 566.7566,-378.1092 558.5203,-381.1298 558.5203,-381.1298"/>
<ellipse fill="none" stroke="#000000" cx="555.3285" cy="-380.9017" rx="3.2" ry="3.2"/>
</g>
<!-- staging.ProviderAssignments -->
<g id="node8" class="node">
<title>staging.ProviderAssignments</title>
<g id="a_node8"><a xlink:title="staging.ProviderAssignments">
<polygon fill="#ffffff" stroke="transparent" points="499,-72.2 499,-133.2 754,-133.2 754,-72.2 499,-72.2"/>
<polygon fill="#f5f5f5" stroke="transparent" points="499.5,-109.7 499.5,-132.7 754.5,-132.7 754.5,-109.7 499.5,-109.7"/>
<polygon fill="none" stroke="#000000" points="499.5,-109.7 499.5,-132.7 754.5,-132.7 754.5,-109.7 499.5,-109.7"/>
<text text-anchor="start" x="504.5" y="-118.3" font-family="Helvetica,sans-Serif" font-weight="bold" font-size="11.00" fill="#000000">staging.ProviderAssignments</text>
<text text-anchor="start" x="720.0219" y="-117.8" font-family="Helvetica,sans-Serif" font-size="11.00" fill="#000000">[table]</text>
<polygon fill="none" stroke="#000000" points="499.5,-90.7 499.5,-109.7 754.5,-109.7 754.5,-90.7 499.5,-90.7"/>
<text text-anchor="start" x="502.5" y="-96.8" font-family="Helvetica,sans-Serif" font-size="11.00" fill="#000000">...</text>
<polygon fill="#ffffff" stroke="transparent" points="499.5,-71.7 499.5,-90.7 754.5,-90.7 754.5,-71.7 499.5,-71.7"/>
<polygon fill="none" stroke="#000000" points="499.5,-71.7 499.5,-90.7 754.5,-90.7 754.5,-71.7 499.5,-71.7"/>
<polygon fill="#ffffff" stroke="transparent" points="500.5,-72.7 500.5,-89.7 591.5,-89.7 591.5,-72.7 500.5,-72.7"/>
<text text-anchor="start" x="502.5" y="-77.8" font-family="Helvetica,sans-Serif" font-size="11.00" fill="#000000">&lt; 6</text>
<polygon fill="#ffffff" stroke="transparent" points="591.5,-72.7 591.5,-89.7 672.5,-89.7 672.5,-72.7 591.5,-72.7"/>
<text text-anchor="start" x="628.9431" y="-77.8" font-family="Helvetica,sans-Serif" font-size="11.00" fill="#000000"> &#160;</text>
<polygon fill="#ffffff" stroke="transparent" points="672.5,-72.7 672.5,-89.7 753.5,-89.7 753.5,-72.7 672.5,-72.7"/>
<text text-anchor="start" x="745.3862" y="-77.8" font-family="Helvetica,sans-Serif" font-size="11.00" fill="#000000"> &#160;</text>
<polygon fill="#000000" stroke="#000000" points="591.5,-72.7 591.5,-89.7 591.5,-89.7 591.5,-72.7 591.5,-72.7"/>
<polygon fill="#000000" stroke="#000000" points="672.5,-72.7 672.5,-89.7 672.5,-89.7 672.5,-72.7 672.5,-72.7"/>
</a>
</g>
</g>
<!-- staging.ProviderAssignments&#45;&gt;Visits -->
<g id="edge10" class="edge">
<title>staging.ProviderAssignments:w&#45;&gt;Visits:e</title>
<path fill="none" stroke="#000000" d="M485.0646,-101.7685C419.8005,-123.4746 539.8653,-308.7 450,-308.7"/>
<polygon fill="#000000" stroke="#000000" points="491.5809,-100.8348 500.0107,-103.2636 495.5404,-100.2674 499.5,-99.7 499.5,-99.7 499.5,-99.7 495.5404,-100.2674 498.9893,-96.1364 491.5809,-100.8348 491.5809,-100.8348"/>
<ellipse fill="none" stroke="#000000" cx="488.4132" cy="-101.2888" rx="3.2" ry="3.2"/>
</g>
<!-- staging.ProviderAssignments&#45;&gt;Providers -->
<g id="edge8" class="edge">
<title>staging.ProviderAssignments:w&#45;&gt;Providers:e</title>
<path fill="none" stroke="#000000" d="M485.0537,-100.8043C460.9084,-109.7686 465.3195,-155.5438 430,-160.7"/>
<polygon fill="#000000" stroke="#000000" points="491.5233,-100.3098 499.7744,-103.2895 495.5116,-100.0049 499.5,-99.7 499.5,-99.7 499.5,-99.7 495.5116,-100.0049 499.2256,-96.1105 491.5233,-100.3098 491.5233,-100.3098"/>
<ellipse fill="none" stroke="#000000" cx="488.3326" cy="-100.5538" rx="3.2" ry="3.2"/>
</g>
<!-- staging.ProviderAssignments&#45;&gt;Providers -->
<g id="edge9" class="edge">
<title>staging.ProviderAssignments:w&#45;&gt;Providers:e</title>
<path fill="none" stroke="#000000" d="M485.7193,-105.0608C460.8249,-121.7037 465.6406,-166.7703 430,-160.7"/>
<polygon fill="#000000" stroke="#000000" points="492.0443,-102.6004 500.8052,-103.0551 495.7721,-101.1502 499.5,-99.7 499.5,-99.7 499.5,-99.7 495.7721,-101.1502 498.1948,-96.3449 492.0443,-102.6004 492.0443,-102.6004"/>
<ellipse fill="none" stroke="#000000" cx="489.062" cy="-103.7605" rx="3.2" ry="3.2"/>
</g>
<!-- staging.ProviderAssignments&#45;&gt;Hospitalizations -->
<g id="edge7" class="edge">
<title>staging.ProviderAssignments:w&#45;&gt;Hospitalizations:e</title>
<path fill="none" stroke="#000000" d="M485.3702,-96.4065C476.673,-91.7165 471.9426,-83.2854 458,-79.7 346.998,-51.1554 315.1135,-65.7 200.5,-65.7"/>
<polygon fill="#000000" stroke="#000000" points="491.7088,-97.8839 498.6828,-103.206 495.6044,-98.792 499.5,-99.7 499.5,-99.7 499.5,-99.7 495.6044,-98.792 500.3172,-96.194 491.7088,-97.8839 491.7088,-97.8839"/>
<ellipse fill="none" stroke="#000000" cx="488.5924" cy="-97.1575" rx="3.2" ry="3.2"/>
</g>
</g>
</svg>
