<?xml version="1.0" encoding="UTF-8" standalone="no"?>
<!DOCTYPE svg PUBLIC "-//W3C//DTD SVG 1.1//EN"
 "http://www.w3.org/Graphics/SVG/1.1/DTD/svg11.dtd">
<!-- Generated by graphviz version 2.40.1 (20161225.0304)
 -->
<!-- Title: twoDegreesRelationshipsDiagram Pages: 1 -->
<svg width="710pt" height="541pt"
 viewBox="0.00 0.00 710.00 540.70" xmlns="http://www.w3.org/2000/svg" xmlns:xlink="http://www.w3.org/1999/xlink">
<g id="graph0" class="graph" transform="scale(1 1) rotate(0) translate(4 536.7)">
<title>twoDegreesRelationshipsDiagram</title>
<polygon fill="#ffffff" stroke="transparent" points="-4,4 -4,-536.7 706,-536.7 706,4 -4,4"/>
<text text-anchor="middle" x="72.4936" y="-7.3" font-family="Helvetica,sans-Serif" font-size="11.00" fill="#000000">Generated by SchemaSpy</text>
<!-- Billing.VisitServiceBillings -->
<g id="node1" class="node">
<title>Billing.VisitServiceBillings</title>
<g id="a_node1"><a xlink:title="Billing.VisitServiceBillings">
<polygon fill="#ffffff" stroke="transparent" points="446,-303.7 446,-364.7 677,-364.7 677,-303.7 446,-303.7"/>
<polygon fill="#f5f5f5" stroke="transparent" points="446.5,-341.2 446.5,-364.2 677.5,-364.2 677.5,-341.2 446.5,-341.2"/>
<polygon fill="none" stroke="#000000" points="446.5,-341.2 446.5,-364.2 677.5,-364.2 677.5,-341.2 446.5,-341.2"/>
<text text-anchor="start" x="451.5" y="-349.8" font-family="Helvetica,sans-Serif" font-weight="bold" font-size="11.00" fill="#000000">Billing.VisitServiceBillings</text>
<text text-anchor="start" x="643.0219" y="-349.3" font-family="Helvetica,sans-Serif" font-size="11.00" fill="#000000">[table]</text>
<polygon fill="none" stroke="#000000" points="446.5,-322.2 446.5,-341.2 677.5,-341.2 677.5,-322.2 446.5,-322.2"/>
<text text-anchor="start" x="449.5" y="-328.3" font-family="Helvetica,sans-Serif" font-size="11.00" fill="#000000">...</text>
<polygon fill="#ffffff" stroke="transparent" points="446.5,-303.2 446.5,-322.2 677.5,-322.2 677.5,-303.2 446.5,-303.2"/>
<polygon fill="none" stroke="#000000" points="446.5,-303.2 446.5,-322.2 677.5,-322.2 677.5,-303.2 446.5,-303.2"/>
<polygon fill="#ffffff" stroke="transparent" points="447.5,-304.2 447.5,-321.2 530.5,-321.2 530.5,-304.2 447.5,-304.2"/>
<text text-anchor="start" x="449.5" y="-309.3" font-family="Helvetica,sans-Serif" font-size="11.00" fill="#000000">&lt; 2</text>
<polygon fill="#ffffff" stroke="transparent" points="530.5,-304.2 530.5,-321.2 603.5,-321.2 603.5,-304.2 530.5,-304.2"/>
<text text-anchor="start" x="563.9431" y="-309.3" font-family="Helvetica,sans-Serif" font-size="11.00" fill="#000000"> &#160;</text>
<polygon fill="#ffffff" stroke="transparent" points="603.5,-304.2 603.5,-321.2 676.5,-321.2 676.5,-304.2 603.5,-304.2"/>
<text text-anchor="start" x="668.3862" y="-309.3" font-family="Helvetica,sans-Serif" font-size="11.00" fill="#000000"> &#160;</text>
<polygon fill="#000000" stroke="#000000" points="530.5,-304.2 530.5,-321.2 530.5,-321.2 530.5,-304.2 530.5,-304.2"/>
<polygon fill="#000000" stroke="#000000" points="603.5,-304.2 603.5,-321.2 603.5,-321.2 603.5,-304.2 603.5,-304.2"/>
</a>
</g>
</g>
<!-- Visits -->
<g id="node2" class="node">
<title>Visits</title>
<g id="a_node2"><a xlink:href="../../tables/Visits.html" xlink:title="Visits" target="_top">
<polygon fill="#ffffff" stroke="transparent" points="214,-320.7 214,-447.7 380,-447.7 380,-320.7 214,-320.7"/>
<polygon fill="#f5f5f5" stroke="transparent" points="214,-424.2 214,-447.2 380,-447.2 380,-424.2 214,-424.2"/>
<polygon fill="none" stroke="#000000" points="214,-424.2 214,-447.2 380,-447.2 380,-424.2 214,-424.2"/>
<text text-anchor="start" x="219" y="-432.8" font-family="Helvetica,sans-Serif" font-weight="bold" font-size="11.00" fill="#000000">Visits</text>
<text text-anchor="start" x="345.0437" y="-432.3" font-family="Helvetica,sans-Serif" font-size="11.00" fill="#000000">[table]</text>
<polygon fill="none" stroke="#000000" points="214,-402.2 214,-424.2 380,-424.2 380,-402.2 214,-402.2"/>
<image xlink:href="../../images/primaryKeys.png" width="11px" height="12px" preserveAspectRatio="xMinYMin meet" x="219" y="-419.2"/>
<text text-anchor="start" x="234" y="-409.3" font-family="Helvetica,sans-Serif" font-size="11.00" fill="#000000">Id</text>
<polygon fill="#ffffff" stroke="transparent" points="214,-380.2 214,-402.2 380,-402.2 380,-380.2 214,-380.2"/>
<polygon fill="none" stroke="#000000" points="214,-380.2 214,-402.2 380,-402.2 380,-380.2 214,-380.2"/>
<text text-anchor="start" x="234" y="-387.3" font-family="Helvetica,sans-Serif" font-size="11.00" fill="#000000">DateServiced</text>
<polygon fill="#ffffff" stroke="transparent" points="214,-358.2 214,-380.2 380,-380.2 380,-358.2 214,-358.2"/>
<polygon fill="none" stroke="#000000" points="214,-358.2 214,-380.2 380,-380.2 380,-358.2 214,-358.2"/>
<image xlink:href="../../images/foreignKeys.png" width="11px" height="12px" preserveAspectRatio="xMinYMin meet" x="219" y="-375.2"/>
<text text-anchor="start" x="234" y="-365.3" font-family="Helvetica,sans-Serif" font-size="11.00" fill="#000000">HospitalizationId</text>
<polygon fill="none" stroke="#000000" points="214,-339.2 214,-358.2 380,-358.2 380,-339.2 214,-339.2"/>
<text text-anchor="start" x="217" y="-345.3" font-family="Helvetica,sans-Serif" font-size="11.00" fill="#000000">...</text>
<polygon fill="#ffffff" stroke="transparent" points="214,-320.2 214,-339.2 380,-339.2 380,-320.2 214,-320.2"/>
<polygon fill="none" stroke="#000000" points="214,-320.2 214,-339.2 380,-339.2 380,-320.2 214,-320.2"/>
<polygon fill="#ffffff" stroke="transparent" points="215,-321.2 215,-338.2 273,-338.2 273,-321.2 215,-321.2"/>
<text text-anchor="start" x="217" y="-326.3" font-family="Helvetica,sans-Serif" font-size="11.00" fill="#000000">&lt; 1</text>
<polygon fill="#ffffff" stroke="transparent" points="273,-321.2 273,-338.2 322,-338.2 322,-321.2 273,-321.2"/>
<text text-anchor="start" x="294.4431" y="-326.3" font-family="Helvetica,sans-Serif" font-size="11.00" fill="#000000"> &#160;</text>
<polygon fill="#ffffff" stroke="transparent" points="322,-321.2 322,-338.2 379,-338.2 379,-321.2 322,-321.2"/>
<text text-anchor="start" x="361.4053" y="-326.3" font-family="Helvetica,sans-Serif" font-size="11.00" fill="#000000">4 &gt;</text>
<polygon fill="#000000" stroke="#000000" points="273,-321.2 273,-338.2 273,-338.2 273,-321.2 273,-321.2"/>
<polygon fill="#000000" stroke="#000000" points="322,-321.2 322,-338.2 322,-338.2 322,-321.2 322,-321.2"/>
</a>
</g>
</g>
<!-- Billing.VisitServiceBillings&#45;&gt;Visits -->
<g id="edge1" class="edge">
<title>Billing.VisitServiceBillings:w&#45;&gt;Visits:e</title>
<path fill="none" stroke="#000000" d="M432.4573,-334.5161C405.111,-349.857 421.2405,-413.2 380,-413.2"/>
<polygon fill="#000000" stroke="#000000" points="438.7141,-333.0386 447.3274,-334.7036 442.6071,-332.1193 446.5,-331.2 446.5,-331.2 446.5,-331.2 442.6071,-332.1193 445.6726,-327.6964 438.7141,-333.0386 438.7141,-333.0386"/>
<ellipse fill="none" stroke="#000000" cx="435.5998" cy="-333.774" rx="3.2" ry="3.2"/>
</g>
<!-- Hospitalizations -->
<g id="node6" class="node">
<title>Hospitalizations</title>
<g id="a_node6"><a xlink:href="../../tables/Hospitalizations.html" xlink:title="Hospitalizations" target="_top">
<polygon fill="#ffffff" stroke="transparent" points="8,-398.7 8,-459.7 165,-459.7 165,-398.7 8,-398.7"/>
<polygon fill="#f5f5f5" stroke="transparent" points="8.5,-436.2 8.5,-459.2 165.5,-459.2 165.5,-436.2 8.5,-436.2"/>
<polygon fill="none" stroke="#000000" points="8.5,-436.2 8.5,-459.2 165.5,-459.2 165.5,-436.2 8.5,-436.2"/>
<text text-anchor="start" x="13.5" y="-444.8" font-family="Helvetica,sans-Serif" font-weight="bold" font-size="11.00" fill="#000000">Hospitalizations</text>
<text text-anchor="start" x="131.0219" y="-444.3" font-family="Helvetica,sans-Serif" font-size="11.00" fill="#000000">[table]</text>
<polygon fill="none" stroke="#000000" points="8.5,-417.2 8.5,-436.2 165.5,-436.2 165.5,-417.2 8.5,-417.2"/>
<text text-anchor="start" x="11.5" y="-423.3" font-family="Helvetica,sans-Serif" font-size="11.00" fill="#000000">...</text>
<polygon fill="#ffffff" stroke="transparent" points="8.5,-398.2 8.5,-417.2 165.5,-417.2 165.5,-398.2 8.5,-398.2"/>
<polygon fill="none" stroke="#000000" points="8.5,-398.2 8.5,-417.2 165.5,-417.2 165.5,-398.2 8.5,-398.2"/>
<polygon fill="#ffffff" stroke="transparent" points="9.5,-399.2 9.5,-416.2 64.5,-416.2 64.5,-399.2 9.5,-399.2"/>
<text text-anchor="start" x="11.5" y="-404.3" font-family="Helvetica,sans-Serif" font-size="11.00" fill="#000000">&lt; 3</text>
<polygon fill="#ffffff" stroke="transparent" points="64.5,-399.2 64.5,-416.2 110.5,-416.2 110.5,-399.2 64.5,-399.2"/>
<text text-anchor="start" x="84.4431" y="-404.3" font-family="Helvetica,sans-Serif" font-size="11.00" fill="#000000"> &#160;</text>
<polygon fill="#ffffff" stroke="transparent" points="110.5,-399.2 110.5,-416.2 164.5,-416.2 164.5,-399.2 110.5,-399.2"/>
<text text-anchor="start" x="146.9053" y="-404.3" font-family="Helvetica,sans-Serif" font-size="11.00" fill="#000000">4 &gt;</text>
<polygon fill="#000000" stroke="#000000" points="64.5,-399.2 64.5,-416.2 64.5,-416.2 64.5,-399.2 64.5,-399.2"/>
<polygon fill="#000000" stroke="#000000" points="110.5,-399.2 110.5,-416.2 110.5,-416.2 110.5,-399.2 110.5,-399.2"/>
</a>
</g>
</g>
<!-- Visits&#45;&gt;Hospitalizations -->
<g id="edge5" class="edge">
<title>Visits:w&#45;&gt;Hospitalizations:e</title>
<path fill="none" stroke="#000000" d="M200.4421,-374.0598C185.5591,-387.844 192.786,-426.2 165.5,-426.2"/>
<polygon fill="#000000" stroke="#000000" points="206.4692,-371.8994 215.2147,-372.5889 210.2346,-370.5497 214,-369.2 214,-369.2 214,-369.2 210.2346,-370.5497 212.7853,-365.8111 206.4692,-371.8994 206.4692,-371.8994"/>
<ellipse fill="none" stroke="#000000" cx="203.4568" cy="-372.9792" rx="3.2" ry="3.2"/>
</g>
<!-- VisitAttendants -->
<g id="node3" class="node">
<title>VisitAttendants</title>
<g id="a_node3"><a xlink:href="../../tables/VisitAttendants.html" xlink:title="VisitAttendants" target="_top">
<polygon fill="#ffffff" stroke="transparent" points="485,-385.7 485,-446.7 638,-446.7 638,-385.7 485,-385.7"/>
<polygon fill="#f5f5f5" stroke="transparent" points="485.5,-423.2 485.5,-446.2 638.5,-446.2 638.5,-423.2 485.5,-423.2"/>
<polygon fill="none" stroke="#000000" points="485.5,-423.2 485.5,-446.2 638.5,-446.2 638.5,-423.2 485.5,-423.2"/>
<text text-anchor="start" x="490.5" y="-431.8" font-family="Helvetica,sans-Serif" font-weight="bold" font-size="11.00" fill="#000000">VisitAttendants</text>
<text text-anchor="start" x="604.0219" y="-431.3" font-family="Helvetica,sans-Serif" font-size="11.00" fill="#000000">[table]</text>
<polygon fill="none" stroke="#000000" points="485.5,-404.2 485.5,-423.2 638.5,-423.2 638.5,-404.2 485.5,-404.2"/>
<text text-anchor="start" x="488.5" y="-410.3" font-family="Helvetica,sans-Serif" font-size="11.00" fill="#000000">...</text>
<polygon fill="#ffffff" stroke="transparent" points="485.5,-385.2 485.5,-404.2 638.5,-404.2 638.5,-385.2 485.5,-385.2"/>
<polygon fill="none" stroke="#000000" points="485.5,-385.2 485.5,-404.2 638.5,-404.2 638.5,-385.2 485.5,-385.2"/>
<polygon fill="#ffffff" stroke="transparent" points="486.5,-386.2 486.5,-403.2 543.5,-403.2 543.5,-386.2 486.5,-386.2"/>
<text text-anchor="start" x="488.5" y="-391.3" font-family="Helvetica,sans-Serif" font-size="11.00" fill="#000000">&lt; 2</text>
<polygon fill="#ffffff" stroke="transparent" points="543.5,-386.2 543.5,-403.2 590.5,-403.2 590.5,-386.2 543.5,-386.2"/>
<text text-anchor="start" x="563.9431" y="-391.3" font-family="Helvetica,sans-Serif" font-size="11.00" fill="#000000"> &#160;</text>
<polygon fill="#ffffff" stroke="transparent" points="590.5,-386.2 590.5,-403.2 637.5,-403.2 637.5,-386.2 590.5,-386.2"/>
<text text-anchor="start" x="629.3862" y="-391.3" font-family="Helvetica,sans-Serif" font-size="11.00" fill="#000000"> &#160;</text>
<polygon fill="#000000" stroke="#000000" points="543.5,-386.2 543.5,-403.2 543.5,-403.2 543.5,-386.2 543.5,-386.2"/>
<polygon fill="#000000" stroke="#000000" points="590.5,-386.2 590.5,-403.2 590.5,-403.2 590.5,-386.2 590.5,-386.2"/>
</a>
</g>
</g>
<!-- VisitAttendants&#45;&gt;Visits -->
<g id="edge2" class="edge">
<title>VisitAttendants:w&#45;&gt;Visits:e</title>
<path fill="none" stroke="#000000" d="M470.8167,-413.2C435.504,-413.2 421.5773,-413.2 380,-413.2"/>
<polygon fill="#000000" stroke="#000000" points="477.5,-413.2001 485.5,-416.8 481.5,-413.2 485.5,-413.2 485.5,-413.2 485.5,-413.2 481.5,-413.2 485.5,-409.6 477.5,-413.2001 477.5,-413.2001"/>
<ellipse fill="none" stroke="#000000" cx="474.3" cy="-413.2001" rx="3.2" ry="3.2"/>
</g>
<!-- VisitEvents -->
<g id="node4" class="node">
<title>VisitEvents</title>
<g id="a_node4"><a xlink:href="../../tables/VisitEvents.html" xlink:title="VisitEvents" target="_top">
<polygon fill="#ffffff" stroke="transparent" points="429,-38.2 429,-282.2 694,-282.2 694,-38.2 429,-38.2"/>
<polygon fill="#f5f5f5" stroke="transparent" points="431.5,-257.2 431.5,-280.2 692.5,-280.2 692.5,-257.2 431.5,-257.2"/>
<polygon fill="none" stroke="#000000" points="431.5,-257.2 431.5,-280.2 692.5,-280.2 692.5,-257.2 431.5,-257.2"/>
<text text-anchor="start" x="436.5" y="-265.8" font-family="Helvetica,sans-Serif" font-weight="bold" font-size="11.00" fill="#000000">VisitEvents</text>
<text text-anchor="start" x="657.5437" y="-265.3" font-family="Helvetica,sans-Serif" font-size="11.00" fill="#000000">[table]</text>
<polygon fill="none" stroke="#000000" points="431.5,-235.2 431.5,-257.2 576.5,-257.2 576.5,-235.2 431.5,-235.2"/>
<image xlink:href="../../images/primaryKeys.png" width="11px" height="12px" preserveAspectRatio="xMinYMin meet" x="436.5" y="-252.2"/>
<text text-anchor="start" x="451.5" y="-242.3" font-family="Helvetica,sans-Serif" font-size="11.00" fill="#000000">Id</text>
<polygon fill="none" stroke="#000000" points="576.5,-235.2 576.5,-257.2 692.5,-257.2 692.5,-235.2 576.5,-235.2"/>
<text text-anchor="start" x="579.5" y="-242.9" font-family="Helvetica,sans-Serif" font-size="11.00" fill="#000000">int identity[4]</text>
<polygon fill="#ffffff" stroke="transparent" points="431.5,-213.2 431.5,-235.2 576.5,-235.2 576.5,-213.2 431.5,-213.2"/>
<polygon fill="none" stroke="#000000" points="431.5,-213.2 431.5,-235.2 576.5,-235.2 576.5,-213.2 431.5,-213.2"/>
<image xlink:href="../../images/foreignKeys.png" width="11px" height="12px" preserveAspectRatio="xMinYMin meet" x="436.5" y="-230.2"/>
<text text-anchor="start" x="451.5" y="-220.3" font-family="Helvetica,sans-Serif" font-size="11.00" fill="#000000">VisitId</text>
<polygon fill="none" stroke="#000000" points="576.5,-213.2 576.5,-235.2 692.5,-235.2 692.5,-213.2 576.5,-213.2"/>
<text text-anchor="start" x="579.5" y="-220.9" font-family="Helvetica,sans-Serif" font-size="11.00" fill="#000000">int[4]</text>
<polygon fill="#ffffff" stroke="transparent" points="431.5,-191.2 431.5,-213.2 576.5,-213.2 576.5,-191.2 431.5,-191.2"/>
<polygon fill="none" stroke="#000000" points="431.5,-191.2 431.5,-213.2 576.5,-213.2 576.5,-191.2 431.5,-191.2"/>
<image xlink:href="../../images/foreignKeys.png" width="11px" height="12px" preserveAspectRatio="xMinYMin meet" x="436.5" y="-208.2"/>
<text text-anchor="start" x="451.5" y="-198.3" font-family="Helvetica,sans-Serif" font-size="11.00" fill="#000000">EventTypeId</text>
<polygon fill="none" stroke="#000000" points="576.5,-191.2 576.5,-213.2 692.5,-213.2 692.5,-191.2 576.5,-191.2"/>
<text text-anchor="start" x="579.5" y="-198.9" font-family="Helvetica,sans-Serif" font-size="11.00" fill="#000000">int[4]</text>
<polygon fill="#ffffff" stroke="transparent" points="431.5,-169.2 431.5,-191.2 576.5,-191.2 576.5,-169.2 431.5,-169.2"/>
<polygon fill="none" stroke="#000000" points="431.5,-169.2 431.5,-191.2 576.5,-191.2 576.5,-169.2 431.5,-169.2"/>
<text text-anchor="start" x="451.5" y="-176.3" font-family="Helvetica,sans-Serif" font-size="11.00" fill="#000000">EventOccurredAt</text>
<polygon fill="none" stroke="#000000" points="576.5,-169.2 576.5,-191.2 692.5,-191.2 692.5,-169.2 576.5,-169.2"/>
<text text-anchor="start" x="579.5" y="-176.9" font-family="Helvetica,sans-Serif" font-size="11.00" fill="#000000">datetime2[16,7]</text>
<polygon fill="none" stroke="#000000" points="431.5,-147.2 431.5,-169.2 576.5,-169.2 576.5,-147.2 431.5,-147.2"/>
<text text-anchor="start" x="451.5" y="-154.3" font-family="Helvetica,sans-Serif" font-size="11.00" fill="#000000">Description</text>
<polygon fill="none" stroke="#000000" points="576.5,-147.2 576.5,-169.2 692.5,-169.2 692.5,-147.2 576.5,-147.2"/>
<text text-anchor="start" x="579.4769" y="-154.9" font-family="Helvetica,sans-Serif" font-size="11.00" fill="#000000">nvarchar[2147483647]</text>
<polygon fill="#ffffff" stroke="transparent" points="431.5,-125.2 431.5,-147.2 576.5,-147.2 576.5,-125.2 431.5,-125.2"/>
<polygon fill="none" stroke="#000000" points="431.5,-125.2 431.5,-147.2 576.5,-147.2 576.5,-125.2 431.5,-125.2"/>
<text text-anchor="start" x="451.5" y="-132.3" font-family="Helvetica,sans-Serif" font-size="11.00" fill="#000000">EnteredByUserId</text>
<polygon fill="none" stroke="#000000" points="576.5,-125.2 576.5,-147.2 692.5,-147.2 692.5,-125.2 576.5,-125.2"/>
<text text-anchor="start" x="579.5" y="-132.9" font-family="Helvetica,sans-Serif" font-size="11.00" fill="#000000">int[4]</text>
<polygon fill="none" stroke="#000000" points="431.5,-103.2 431.5,-125.2 576.5,-125.2 576.5,-103.2 431.5,-103.2"/>
<text text-anchor="start" x="451.5" y="-110.3" font-family="Helvetica,sans-Serif" font-size="11.00" fill="#000000">CreatedAtUtc</text>
<polygon fill="none" stroke="#000000" points="576.5,-103.2 576.5,-125.2 692.5,-125.2 692.5,-103.2 576.5,-103.2"/>
<text text-anchor="start" x="579.5" y="-110.9" font-family="Helvetica,sans-Serif" font-size="11.00" fill="#000000">datetime2[16,7]</text>
<polygon fill="none" stroke="#000000" points="431.5,-81.2 431.5,-103.2 576.5,-103.2 576.5,-81.2 431.5,-81.2"/>
<text text-anchor="start" x="451.5" y="-88.3" font-family="Helvetica,sans-Serif" font-size="11.00" fill="#000000">UpdatedAtUtc</text>
<polygon fill="none" stroke="#000000" points="576.5,-81.2 576.5,-103.2 692.5,-103.2 692.5,-81.2 576.5,-81.2"/>
<text text-anchor="start" x="579.5" y="-88.9" font-family="Helvetica,sans-Serif" font-size="11.00" fill="#000000">datetime2[16,7]</text>
<polygon fill="none" stroke="#000000" points="431.5,-59.2 431.5,-81.2 576.5,-81.2 576.5,-59.2 431.5,-59.2"/>
<text text-anchor="start" x="451.5" y="-66.3" font-family="Helvetica,sans-Serif" font-size="11.00" fill="#000000">RowVersion</text>
<polygon fill="none" stroke="#000000" points="576.5,-59.2 576.5,-81.2 692.5,-81.2 692.5,-59.2 576.5,-59.2"/>
<text text-anchor="start" x="579.5" y="-66.9" font-family="Helvetica,sans-Serif" font-size="11.00" fill="#000000">timestamp[8]</text>
<polygon fill="#ffffff" stroke="transparent" points="431.5,-40.2 431.5,-59.2 692.5,-59.2 692.5,-40.2 431.5,-40.2"/>
<polygon fill="none" stroke="#000000" points="431.5,-40.2 431.5,-59.2 692.5,-59.2 692.5,-40.2 431.5,-40.2"/>
<polygon fill="#ffffff" stroke="transparent" points="432.5,-41.2 432.5,-58.2 522.5,-58.2 522.5,-41.2 432.5,-41.2"/>
<text text-anchor="start" x="434.5" y="-46.3" font-family="Helvetica,sans-Serif" font-size="11.00" fill="#000000">&lt; 2</text>
<polygon fill="#ffffff" stroke="transparent" points="522.5,-41.2 522.5,-58.2 602.5,-58.2 602.5,-41.2 522.5,-41.2"/>
<text text-anchor="start" x="559.4431" y="-46.3" font-family="Helvetica,sans-Serif" font-size="11.00" fill="#000000"> &#160;</text>
<polygon fill="#ffffff" stroke="transparent" points="602.5,-41.2 602.5,-58.2 691.5,-58.2 691.5,-41.2 602.5,-41.2"/>
<text text-anchor="start" x="673.9053" y="-46.3" font-family="Helvetica,sans-Serif" font-size="11.00" fill="#000000">0 &gt;</text>
<polygon fill="#000000" stroke="#000000" points="522.5,-41.2 522.5,-58.2 522.5,-58.2 522.5,-41.2 522.5,-41.2"/>
<polygon fill="#000000" stroke="#000000" points="602.5,-41.2 602.5,-58.2 602.5,-58.2 602.5,-41.2 602.5,-41.2"/>
<polygon fill="none" stroke="#000000" stroke-width="2" points="430,-39.2 430,-281.2 693,-281.2 693,-39.2 430,-39.2"/>
</a>
</g>
</g>
<!-- VisitEvents&#45;&gt;Visits -->
<g id="edge4" class="edge">
<title>VisitEvents:w&#45;&gt;Visits:e</title>
<path fill="none" stroke="#000000" d="M417.1666,-226.4542C359.3734,-247.7781 461.4512,-413.2 380,-413.2"/>
<polygon fill="#000000" stroke="#000000" points="423.5971,-225.4429 432.0593,-227.7563 427.5486,-224.8215 431.5,-224.2 431.5,-224.2 431.5,-224.2 427.5486,-224.8215 430.9407,-220.6437 423.5971,-225.4429 423.5971,-225.4429"/>
<ellipse fill="none" stroke="#000000" cx="420.436" cy="-225.9401" rx="3.2" ry="3.2"/>
</g>
<!-- VisitEventTypes -->
<g id="node5" class="node">
<title>VisitEventTypes</title>
<g id="a_node5"><a xlink:href="../../tables/VisitEventTypes.html" xlink:title="VisitEventTypes" target="_top">
<polygon fill="#ffffff" stroke="transparent" points="219,-131.7 219,-236.7 375,-236.7 375,-131.7 219,-131.7"/>
<polygon fill="#f5f5f5" stroke="transparent" points="219,-213.2 219,-236.2 375,-236.2 375,-213.2 219,-213.2"/>
<polygon fill="none" stroke="#000000" points="219,-213.2 219,-236.2 375,-236.2 375,-213.2 219,-213.2"/>
<text text-anchor="start" x="224" y="-221.8" font-family="Helvetica,sans-Serif" font-weight="bold" font-size="11.00" fill="#000000">VisitEventTypes</text>
<text text-anchor="start" x="340.5219" y="-221.3" font-family="Helvetica,sans-Serif" font-size="11.00" fill="#000000">[table]</text>
<polygon fill="none" stroke="#000000" points="219,-191.2 219,-213.2 375,-213.2 375,-191.2 219,-191.2"/>
<image xlink:href="../../images/primaryKeys.png" width="11px" height="12px" preserveAspectRatio="xMinYMin meet" x="224" y="-208.2"/>
<text text-anchor="start" x="248" y="-198.3" font-family="Helvetica,sans-Serif" font-size="11.00" fill="#000000">Id</text>
<polygon fill="#ffffff" stroke="transparent" points="219,-169.2 219,-191.2 375,-191.2 375,-169.2 219,-169.2"/>
<polygon fill="none" stroke="#000000" points="219,-169.2 219,-191.2 375,-191.2 375,-169.2 219,-169.2"/>
<text text-anchor="start" x="248" y="-176.3" font-family="Helvetica,sans-Serif" font-size="11.00" fill="#000000">Code</text>
<polygon fill="none" stroke="#000000" points="219,-150.2 219,-169.2 375,-169.2 375,-150.2 219,-150.2"/>
<text text-anchor="start" x="222" y="-156.3" font-family="Helvetica,sans-Serif" font-size="11.00" fill="#000000">...</text>
<polygon fill="#ffffff" stroke="transparent" points="219,-131.2 219,-150.2 375,-150.2 375,-131.2 219,-131.2"/>
<polygon fill="none" stroke="#000000" points="219,-131.2 219,-150.2 375,-150.2 375,-131.2 219,-131.2"/>
<polygon fill="#ffffff" stroke="transparent" points="220,-132.2 220,-149.2 269,-149.2 269,-132.2 220,-132.2"/>
<text text-anchor="start" x="222" y="-137.3" font-family="Helvetica,sans-Serif" font-size="11.00" fill="#000000"> &#160;</text>
<polygon fill="#ffffff" stroke="transparent" points="269,-132.2 269,-149.2 317,-149.2 317,-132.2 269,-132.2"/>
<text text-anchor="start" x="289.9431" y="-137.3" font-family="Helvetica,sans-Serif" font-size="11.00" fill="#000000"> &#160;</text>
<polygon fill="#ffffff" stroke="transparent" points="317,-132.2 317,-149.2 374,-149.2 374,-132.2 317,-132.2"/>
<text text-anchor="start" x="356.4053" y="-137.3" font-family="Helvetica,sans-Serif" font-size="11.00" fill="#000000">1 &gt;</text>
<polygon fill="#000000" stroke="#000000" points="269,-132.2 269,-149.2 269,-149.2 269,-132.2 269,-132.2"/>
<polygon fill="#000000" stroke="#000000" points="317,-132.2 317,-149.2 317,-149.2 317,-132.2 317,-132.2"/>
</a>
</g>
</g>
<!-- VisitEvents&#45;&gt;VisitEventTypes -->
<g id="edge3" class="edge">
<title>VisitEvents:w&#45;&gt;VisitEventTypes:e</title>
<path fill="none" stroke="#000000" d="M416.8944,-202.2C402.5775,-202.2 394.4219,-202.2 375,-202.2"/>
<polygon fill="#000000" stroke="#000000" points="423.5,-202.2001 431.5,-205.8 427.5,-202.2 431.5,-202.2 431.5,-202.2 431.5,-202.2 427.5,-202.2 431.5,-198.6 423.5,-202.2001 423.5,-202.2001"/>
<ellipse fill="none" stroke="#000000" cx="420.3" cy="-202.2001" rx="3.2" ry="3.2"/>
</g>
<!-- staging.ProviderAssignments -->
<g id="node7" class="node">
<title>staging.ProviderAssignments</title>
<g id="a_node7"><a xlink:title="staging.ProviderAssignments">
<polygon fill="#ffffff" stroke="transparent" points="434,-467.7 434,-528.7 689,-528.7 689,-467.7 434,-467.7"/>
<polygon fill="#f5f5f5" stroke="transparent" points="434.5,-505.2 434.5,-528.2 689.5,-528.2 689.5,-505.2 434.5,-505.2"/>
<polygon fill="none" stroke="#000000" points="434.5,-505.2 434.5,-528.2 689.5,-528.2 689.5,-505.2 434.5,-505.2"/>
<text text-anchor="start" x="439.5" y="-513.8" font-family="Helvetica,sans-Serif" font-weight="bold" font-size="11.00" fill="#000000">staging.ProviderAssignments</text>
<text text-anchor="start" x="655.0219" y="-513.3" font-family="Helvetica,sans-Serif" font-size="11.00" fill="#000000">[table]</text>
<polygon fill="none" stroke="#000000" points="434.5,-486.2 434.5,-505.2 689.5,-505.2 689.5,-486.2 434.5,-486.2"/>
<text text-anchor="start" x="437.5" y="-492.3" font-family="Helvetica,sans-Serif" font-size="11.00" fill="#000000">...</text>
<polygon fill="#ffffff" stroke="transparent" points="434.5,-467.2 434.5,-486.2 689.5,-486.2 689.5,-467.2 434.5,-467.2"/>
<polygon fill="none" stroke="#000000" points="434.5,-467.2 434.5,-486.2 689.5,-486.2 689.5,-467.2 434.5,-467.2"/>
<polygon fill="#ffffff" stroke="transparent" points="435.5,-468.2 435.5,-485.2 526.5,-485.2 526.5,-468.2 435.5,-468.2"/>
<text text-anchor="start" x="437.5" y="-473.3" font-family="Helvetica,sans-Serif" font-size="11.00" fill="#000000">&lt; 6</text>
<polygon fill="#ffffff" stroke="transparent" points="526.5,-468.2 526.5,-485.2 607.5,-485.2 607.5,-468.2 526.5,-468.2"/>
<text text-anchor="start" x="563.9431" y="-473.3" font-family="Helvetica,sans-Serif" font-size="11.00" fill="#000000"> &#160;</text>
<polygon fill="#ffffff" stroke="transparent" points="607.5,-468.2 607.5,-485.2 688.5,-485.2 688.5,-468.2 607.5,-468.2"/>
<text text-anchor="start" x="680.3862" y="-473.3" font-family="Helvetica,sans-Serif" font-size="11.00" fill="#000000"> &#160;</text>
<polygon fill="#000000" stroke="#000000" points="526.5,-468.2 526.5,-485.2 526.5,-485.2 526.5,-468.2 526.5,-468.2"/>
<polygon fill="#000000" stroke="#000000" points="607.5,-468.2 607.5,-485.2 607.5,-485.2 607.5,-468.2 607.5,-468.2"/>
</a>
</g>
</g>
<!-- staging.ProviderAssignments&#45;&gt;Visits -->
<g id="edge7" class="edge">
<title>staging.ProviderAssignments:w&#45;&gt;Visits:e</title>
<path fill="none" stroke="#000000" d="M420.4647,-491.0209C398.3339,-474.3109 417.777,-413.2 380,-413.2"/>
<polygon fill="#000000" stroke="#000000" points="426.8327,-492.9169 433.4726,-498.6503 430.6663,-494.0585 434.5,-495.2 434.5,-495.2 434.5,-495.2 430.6663,-494.0585 435.5274,-491.7497 426.8327,-492.9169 426.8327,-492.9169"/>
<ellipse fill="none" stroke="#000000" cx="423.7657" cy="-492.0037" rx="3.2" ry="3.2"/>
</g>
<!-- staging.ProviderAssignments&#45;&gt;Hospitalizations -->
<g id="edge6" class="edge">
<title>staging.ProviderAssignments:w&#45;&gt;Hospitalizations:e</title>
<path fill="none" stroke="#000000" d="M419.9251,-495.2259C328.3999,-495.5245 295.564,-497.6193 206,-458.2 185.0031,-448.9587 188.4406,-426.2 165.5,-426.2"/>
<polygon fill="#000000" stroke="#000000" points="426.5,-495.2143 434.5064,-498.8 430.5,-495.2071 434.5,-495.2 434.5,-495.2 434.5,-495.2 430.5,-495.2071 434.4936,-491.6 426.5,-495.2143 426.5,-495.2143"/>
<ellipse fill="none" stroke="#000000" cx="423.3" cy="-495.22" rx="3.2" ry="3.2"/>
</g>
</g>
</svg>
