<?xml version="1.0" encoding="UTF-8" standalone="no"?>
<!DOCTYPE svg PUBLIC "-//W3C//DTD SVG 1.1//EN"
 "http://www.w3.org/Graphics/SVG/1.1/DTD/svg11.dtd">
<!-- Generated by graphviz version 2.40.1 (20161225.0304)
 -->
<!-- Title: compactRelationshipsDiagram Pages: 1 -->
<svg width="993pt" height="631pt"
 viewBox="0.00 0.00 993.00 631.20" xmlns="http://www.w3.org/2000/svg" xmlns:xlink="http://www.w3.org/1999/xlink">
<g id="graph0" class="graph" transform="scale(1 1) rotate(0) translate(4 627.2)">
<title>compactRelationshipsDiagram</title>
<polygon fill="#ffffff" stroke="transparent" points="-4,4 -4,-627.2 989,-627.2 989,4 -4,4"/>
<text text-anchor="middle" x="72.4936" y="-7.3" font-family="Helvetica,sans-Serif" font-size="11.00" fill="#000000">Generated by SchemaSpy</text>
<!-- ProviderAssignmentBatchStatuses -->
<g id="node1" class="node">
<title>ProviderAssignmentBatchStatuses</title>
<g id="a_node1"><a xlink:href="../../tables/ProviderAssignmentBatchStatuses.html" xlink:title="ProviderAssignmentBatchStatuses" target="_top">
<polygon fill="#ffffff" stroke="transparent" points="8,-448.2 8,-553.2 301,-553.2 301,-448.2 8,-448.2"/>
<polygon fill="#f5f5f5" stroke="transparent" points="8.5,-529.7 8.5,-552.7 301.5,-552.7 301.5,-529.7 8.5,-529.7"/>
<polygon fill="none" stroke="#000000" points="8.5,-529.7 8.5,-552.7 301.5,-552.7 301.5,-529.7 8.5,-529.7"/>
<text text-anchor="start" x="13.5" y="-538.3" font-family="Helvetica,sans-Serif" font-weight="bold" font-size="11.00" fill="#000000">ProviderAssignmentBatchStatuses</text>
<text text-anchor="start" x="267.0219" y="-537.8" font-family="Helvetica,sans-Serif" font-size="11.00" fill="#000000">[table]</text>
<polygon fill="none" stroke="#000000" points="8.5,-507.7 8.5,-529.7 301.5,-529.7 301.5,-507.7 8.5,-507.7"/>
<image xlink:href="../../images/primaryKeys.png" width="11px" height="12px" preserveAspectRatio="xMinYMin meet" x="13.5" y="-524.7"/>
<text text-anchor="start" x="37.5" y="-514.8" font-family="Helvetica,sans-Serif" font-size="11.00" fill="#000000">Id</text>
<polygon fill="#ffffff" stroke="transparent" points="8.5,-485.7 8.5,-507.7 301.5,-507.7 301.5,-485.7 8.5,-485.7"/>
<polygon fill="none" stroke="#000000" points="8.5,-485.7 8.5,-507.7 301.5,-507.7 301.5,-485.7 8.5,-485.7"/>
<text text-anchor="start" x="37.5" y="-492.8" font-family="Helvetica,sans-Serif" font-size="11.00" fill="#000000">Code</text>
<polygon fill="none" stroke="#000000" points="8.5,-466.7 8.5,-485.7 301.5,-485.7 301.5,-466.7 8.5,-466.7"/>
<text text-anchor="start" x="11.5" y="-472.8" font-family="Helvetica,sans-Serif" font-size="11.00" fill="#000000">...</text>
<polygon fill="#ffffff" stroke="transparent" points="8.5,-447.7 8.5,-466.7 301.5,-466.7 301.5,-447.7 8.5,-447.7"/>
<polygon fill="none" stroke="#000000" points="8.5,-447.7 8.5,-466.7 301.5,-466.7 301.5,-447.7 8.5,-447.7"/>
<polygon fill="#ffffff" stroke="transparent" points="9.5,-448.7 9.5,-465.7 103.5,-465.7 103.5,-448.7 9.5,-448.7"/>
<text text-anchor="start" x="11.5" y="-453.8" font-family="Helvetica,sans-Serif" font-size="11.00" fill="#000000"> &#160;</text>
<polygon fill="#ffffff" stroke="transparent" points="103.5,-448.7 103.5,-465.7 197.5,-465.7 197.5,-448.7 103.5,-448.7"/>
<text text-anchor="start" x="147.4431" y="-453.8" font-family="Helvetica,sans-Serif" font-size="11.00" fill="#000000"> &#160;</text>
<polygon fill="#ffffff" stroke="transparent" points="197.5,-448.7 197.5,-465.7 300.5,-465.7 300.5,-448.7 197.5,-448.7"/>
<text text-anchor="start" x="282.9053" y="-453.8" font-family="Helvetica,sans-Serif" font-size="11.00" fill="#000000">1 &gt;</text>
<polygon fill="#000000" stroke="#000000" points="103.5,-448.7 103.5,-465.7 103.5,-465.7 103.5,-448.7 103.5,-448.7"/>
<polygon fill="#000000" stroke="#000000" points="197.5,-448.7 197.5,-465.7 197.5,-465.7 197.5,-448.7 197.5,-448.7"/>
</a>
</g>
</g>
<!-- ProviderAssignments -->
<g id="node2" class="node">
<title>ProviderAssignments</title>
<g id="a_node2"><a xlink:href="../../tables/ProviderAssignments.html" xlink:title="ProviderAssignments" target="_top">
<polygon fill="#ffffff" stroke="transparent" points="670,-178.2 670,-415.2 977,-415.2 977,-178.2 670,-178.2"/>
<polygon fill="#f5f5f5" stroke="transparent" points="670.5,-391.7 670.5,-414.7 977.5,-414.7 977.5,-391.7 670.5,-391.7"/>
<polygon fill="none" stroke="#000000" points="670.5,-391.7 670.5,-414.7 977.5,-414.7 977.5,-391.7 670.5,-391.7"/>
<text text-anchor="start" x="675.5" y="-400.3" font-family="Helvetica,sans-Serif" font-weight="bold" font-size="11.00" fill="#000000">ProviderAssignments</text>
<text text-anchor="start" x="942.5437" y="-399.8" font-family="Helvetica,sans-Serif" font-size="11.00" fill="#000000">[table]</text>
<polygon fill="none" stroke="#000000" points="670.5,-369.7 670.5,-391.7 977.5,-391.7 977.5,-369.7 670.5,-369.7"/>
<image xlink:href="../../images/primaryKeys.png" width="11px" height="12px" preserveAspectRatio="xMinYMin meet" x="675.5" y="-386.7"/>
<text text-anchor="start" x="690.5" y="-376.8" font-family="Helvetica,sans-Serif" font-size="11.00" fill="#000000">Id</text>
<polygon fill="#ffffff" stroke="transparent" points="670.5,-347.7 670.5,-369.7 977.5,-369.7 977.5,-347.7 670.5,-347.7"/>
<polygon fill="none" stroke="#000000" points="670.5,-347.7 670.5,-369.7 977.5,-369.7 977.5,-347.7 670.5,-347.7"/>
<image xlink:href="../../images/foreignKeys.png" width="11px" height="12px" preserveAspectRatio="xMinYMin meet" x="675.5" y="-364.7"/>
<text text-anchor="start" x="690.5" y="-354.8" font-family="Helvetica,sans-Serif" font-size="11.00" fill="#000000">BatchId</text>
<polygon fill="#ffffff" stroke="transparent" points="670.5,-325.7 670.5,-347.7 977.5,-347.7 977.5,-325.7 670.5,-325.7"/>
<polygon fill="none" stroke="#000000" points="670.5,-325.7 670.5,-347.7 977.5,-347.7 977.5,-325.7 670.5,-325.7"/>
<image xlink:href="../../images/foreignKeys.png" width="11px" height="12px" preserveAspectRatio="xMinYMin meet" x="675.5" y="-342.7"/>
<text text-anchor="start" x="690.5" y="-332.8" font-family="Helvetica,sans-Serif" font-size="11.00" fill="#000000">ResolvedPhysicianId</text>
<polygon fill="#ffffff" stroke="transparent" points="670.5,-303.7 670.5,-325.7 977.5,-325.7 977.5,-303.7 670.5,-303.7"/>
<polygon fill="none" stroke="#000000" points="670.5,-303.7 670.5,-325.7 977.5,-325.7 977.5,-303.7 670.5,-303.7"/>
<image xlink:href="../../images/foreignKeys.png" width="11px" height="12px" preserveAspectRatio="xMinYMin meet" x="675.5" y="-320.7"/>
<text text-anchor="start" x="690.5" y="-310.8" font-family="Helvetica,sans-Serif" font-size="11.00" fill="#000000">ResolvedHospitalizationId</text>
<polygon fill="#ffffff" stroke="transparent" points="670.5,-281.7 670.5,-303.7 977.5,-303.7 977.5,-281.7 670.5,-281.7"/>
<polygon fill="none" stroke="#000000" points="670.5,-281.7 670.5,-303.7 977.5,-303.7 977.5,-281.7 670.5,-281.7"/>
<image xlink:href="../../images/foreignKeys.png" width="11px" height="12px" preserveAspectRatio="xMinYMin meet" x="675.5" y="-298.7"/>
<text text-anchor="start" x="690.5" y="-288.8" font-family="Helvetica,sans-Serif" font-size="11.00" fill="#000000">ResolvedPatientId</text>
<polygon fill="#ffffff" stroke="transparent" points="670.5,-259.7 670.5,-281.7 977.5,-281.7 977.5,-259.7 670.5,-259.7"/>
<polygon fill="none" stroke="#000000" points="670.5,-259.7 670.5,-281.7 977.5,-281.7 977.5,-259.7 670.5,-259.7"/>
<image xlink:href="../../images/foreignKeys.png" width="11px" height="12px" preserveAspectRatio="xMinYMin meet" x="675.5" y="-276.7"/>
<text text-anchor="start" x="690.5" y="-266.8" font-family="Helvetica,sans-Serif" font-size="11.00" fill="#000000">ResolvedNursePractitionerId</text>
<polygon fill="#ffffff" stroke="transparent" points="670.5,-237.7 670.5,-259.7 977.5,-259.7 977.5,-237.7 670.5,-237.7"/>
<polygon fill="none" stroke="#000000" points="670.5,-237.7 670.5,-259.7 977.5,-259.7 977.5,-237.7 670.5,-237.7"/>
<image xlink:href="../../images/foreignKeys.png" width="11px" height="12px" preserveAspectRatio="xMinYMin meet" x="675.5" y="-254.7"/>
<text text-anchor="start" x="690.5" y="-244.8" font-family="Helvetica,sans-Serif" font-size="11.00" fill="#000000">ResolvedVisitId</text>
<polygon fill="#ffffff" stroke="transparent" points="670.5,-215.7 670.5,-237.7 977.5,-237.7 977.5,-215.7 670.5,-215.7"/>
<polygon fill="none" stroke="#000000" points="670.5,-215.7 670.5,-237.7 977.5,-237.7 977.5,-215.7 670.5,-215.7"/>
<image xlink:href="../../images/foreignKeys.png" width="11px" height="12px" preserveAspectRatio="xMinYMin meet" x="675.5" y="-232.7"/>
<text text-anchor="start" x="690.5" y="-222.8" font-family="Helvetica,sans-Serif" font-size="11.00" fill="#000000">ResolvedHospitalizationStatusId</text>
<polygon fill="none" stroke="#000000" points="670.5,-196.7 670.5,-215.7 977.5,-215.7 977.5,-196.7 670.5,-196.7"/>
<text text-anchor="start" x="673.5" y="-202.8" font-family="Helvetica,sans-Serif" font-size="11.00" fill="#000000">...</text>
<polygon fill="#ffffff" stroke="transparent" points="670.5,-177.7 670.5,-196.7 977.5,-196.7 977.5,-177.7 670.5,-177.7"/>
<polygon fill="none" stroke="#000000" points="670.5,-177.7 670.5,-196.7 977.5,-196.7 977.5,-177.7 670.5,-177.7"/>
<polygon fill="#ffffff" stroke="transparent" points="671.5,-178.7 671.5,-195.7 779.5,-195.7 779.5,-178.7 671.5,-178.7"/>
<text text-anchor="start" x="673.5" y="-183.8" font-family="Helvetica,sans-Serif" font-size="11.00" fill="#000000">&lt; 7</text>
<polygon fill="#ffffff" stroke="transparent" points="779.5,-178.7 779.5,-195.7 878.5,-195.7 878.5,-178.7 779.5,-178.7"/>
<text text-anchor="start" x="825.9431" y="-183.8" font-family="Helvetica,sans-Serif" font-size="11.00" fill="#000000"> &#160;</text>
<polygon fill="#ffffff" stroke="transparent" points="878.5,-178.7 878.5,-195.7 976.5,-195.7 976.5,-178.7 878.5,-178.7"/>
<text text-anchor="start" x="968.3862" y="-183.8" font-family="Helvetica,sans-Serif" font-size="11.00" fill="#000000"> &#160;</text>
<polygon fill="#000000" stroke="#000000" points="779.5,-178.7 779.5,-195.7 779.5,-195.7 779.5,-178.7 779.5,-178.7"/>
<polygon fill="#000000" stroke="#000000" points="878.5,-178.7 878.5,-195.7 878.5,-195.7 878.5,-178.7 878.5,-178.7"/>
</a>
</g>
</g>
<!-- ProviderAssignmentBatches -->
<g id="node3" class="node">
<title>ProviderAssignmentBatches</title>
<g id="a_node3"><a xlink:href="../../tables/ProviderAssignmentBatches.html" xlink:title="ProviderAssignmentBatches" target="_top">
<polygon fill="#ffffff" stroke="transparent" points="362.5,-448.2 362.5,-619.2 608.5,-619.2 608.5,-448.2 362.5,-448.2"/>
<polygon fill="#f5f5f5" stroke="transparent" points="362.5,-595.7 362.5,-618.7 608.5,-618.7 608.5,-595.7 362.5,-595.7"/>
<polygon fill="none" stroke="#000000" points="362.5,-595.7 362.5,-618.7 608.5,-618.7 608.5,-595.7 362.5,-595.7"/>
<text text-anchor="start" x="367.5" y="-604.3" font-family="Helvetica,sans-Serif" font-weight="bold" font-size="11.00" fill="#000000">ProviderAssignmentBatches</text>
<text text-anchor="start" x="574.0219" y="-603.8" font-family="Helvetica,sans-Serif" font-size="11.00" fill="#000000">[table]</text>
<polygon fill="none" stroke="#000000" points="362.5,-573.7 362.5,-595.7 608.5,-595.7 608.5,-573.7 362.5,-573.7"/>
<image xlink:href="../../images/primaryKeys.png" width="11px" height="12px" preserveAspectRatio="xMinYMin meet" x="367.5" y="-590.7"/>
<text text-anchor="start" x="391.5" y="-580.8" font-family="Helvetica,sans-Serif" font-size="11.00" fill="#000000">Id</text>
<polygon fill="#ffffff" stroke="transparent" points="362.5,-551.7 362.5,-573.7 608.5,-573.7 608.5,-551.7 362.5,-551.7"/>
<polygon fill="none" stroke="#000000" points="362.5,-551.7 362.5,-573.7 608.5,-573.7 608.5,-551.7 362.5,-551.7"/>
<text text-anchor="start" x="391.5" y="-558.8" font-family="Helvetica,sans-Serif" font-size="11.00" fill="#000000">Date</text>
<polygon fill="#ffffff" stroke="transparent" points="362.5,-529.7 362.5,-551.7 608.5,-551.7 608.5,-529.7 362.5,-529.7"/>
<polygon fill="none" stroke="#000000" points="362.5,-529.7 362.5,-551.7 608.5,-551.7 608.5,-529.7 362.5,-529.7"/>
<text text-anchor="start" x="391.5" y="-536.8" font-family="Helvetica,sans-Serif" font-size="11.00" fill="#000000">FacilityId</text>
<polygon fill="#ffffff" stroke="transparent" points="362.5,-507.7 362.5,-529.7 608.5,-529.7 608.5,-507.7 362.5,-507.7"/>
<polygon fill="none" stroke="#000000" points="362.5,-507.7 362.5,-529.7 608.5,-529.7 608.5,-507.7 362.5,-507.7"/>
<image xlink:href="../../images/foreignKeys.png" width="11px" height="12px" preserveAspectRatio="xMinYMin meet" x="367.5" y="-524.7"/>
<text text-anchor="start" x="391.5" y="-514.8" font-family="Helvetica,sans-Serif" font-size="11.00" fill="#000000">StatusId</text>
<polygon fill="#ffffff" stroke="transparent" points="362.5,-485.7 362.5,-507.7 608.5,-507.7 608.5,-485.7 362.5,-485.7"/>
<polygon fill="none" stroke="#000000" points="362.5,-485.7 362.5,-507.7 608.5,-507.7 608.5,-485.7 362.5,-485.7"/>
<text text-anchor="start" x="391.5" y="-492.8" font-family="Helvetica,sans-Serif" font-size="11.00" fill="#000000">CreatedByUserId</text>
<polygon fill="none" stroke="#000000" points="362.5,-466.7 362.5,-485.7 608.5,-485.7 608.5,-466.7 362.5,-466.7"/>
<text text-anchor="start" x="365.5" y="-472.8" font-family="Helvetica,sans-Serif" font-size="11.00" fill="#000000">...</text>
<polygon fill="#ffffff" stroke="transparent" points="362.5,-447.7 362.5,-466.7 608.5,-466.7 608.5,-447.7 362.5,-447.7"/>
<polygon fill="none" stroke="#000000" points="362.5,-447.7 362.5,-466.7 608.5,-466.7 608.5,-447.7 362.5,-447.7"/>
<polygon fill="#ffffff" stroke="transparent" points="363.5,-448.7 363.5,-465.7 448.5,-465.7 448.5,-448.7 363.5,-448.7"/>
<text text-anchor="start" x="365.5" y="-453.8" font-family="Helvetica,sans-Serif" font-size="11.00" fill="#000000">&lt; 1</text>
<polygon fill="#ffffff" stroke="transparent" points="448.5,-448.7 448.5,-465.7 523.5,-465.7 523.5,-448.7 448.5,-448.7"/>
<text text-anchor="start" x="482.9431" y="-453.8" font-family="Helvetica,sans-Serif" font-size="11.00" fill="#000000"> &#160;</text>
<polygon fill="#ffffff" stroke="transparent" points="523.5,-448.7 523.5,-465.7 607.5,-465.7 607.5,-448.7 523.5,-448.7"/>
<text text-anchor="start" x="589.9053" y="-453.8" font-family="Helvetica,sans-Serif" font-size="11.00" fill="#000000">1 &gt;</text>
<polygon fill="#000000" stroke="#000000" points="448.5,-448.7 448.5,-465.7 448.5,-465.7 448.5,-448.7 448.5,-448.7"/>
<polygon fill="#000000" stroke="#000000" points="523.5,-448.7 523.5,-465.7 523.5,-465.7 523.5,-448.7 523.5,-448.7"/>
</a>
</g>
</g>
<!-- ProviderAssignments&#45;&gt;ProviderAssignmentBatches -->
<g id="edge2" class="edge">
<title>ProviderAssignments:w&#45;&gt;ProviderAssignmentBatches:e</title>
<path fill="none" stroke="#000000" d="M656.0384,-360.5192C581.0791,-381.9075 707.163,-584.7 608.5,-584.7"/>
<polygon fill="#000000" stroke="#000000" points="662.5626,-359.6985 670.9493,-362.2719 666.5313,-359.1993 670.5,-358.7 670.5,-358.7 670.5,-358.7 666.5313,-359.1993 670.0507,-355.1281 662.5626,-359.6985 662.5626,-359.6985"/>
<ellipse fill="none" stroke="#000000" cx="659.3876" cy="-360.0979" rx="3.2" ry="3.2"/>
</g>
<!-- Clinical.Patients -->
<g id="node4" class="node">
<title>Clinical.Patients</title>
<g id="a_node4"><a xlink:title="Clinical.Patients">
<polygon fill="#ffffff" stroke="transparent" points="406.5,-202.2 406.5,-263.2 564.5,-263.2 564.5,-202.2 406.5,-202.2"/>
<polygon fill="#f5f5f5" stroke="transparent" points="406.5,-239.7 406.5,-262.7 564.5,-262.7 564.5,-239.7 406.5,-239.7"/>
<polygon fill="none" stroke="#000000" points="406.5,-239.7 406.5,-262.7 564.5,-262.7 564.5,-239.7 406.5,-239.7"/>
<text text-anchor="start" x="411.5" y="-248.3" font-family="Helvetica,sans-Serif" font-weight="bold" font-size="11.00" fill="#000000">Clinical.Patients</text>
<text text-anchor="start" x="530.0219" y="-247.8" font-family="Helvetica,sans-Serif" font-size="11.00" fill="#000000">[table]</text>
<polygon fill="none" stroke="#000000" points="406.5,-220.7 406.5,-239.7 564.5,-239.7 564.5,-220.7 406.5,-220.7"/>
<text text-anchor="start" x="409.5" y="-226.8" font-family="Helvetica,sans-Serif" font-size="11.00" fill="#000000">...</text>
<polygon fill="#ffffff" stroke="transparent" points="406.5,-201.7 406.5,-220.7 564.5,-220.7 564.5,-201.7 406.5,-201.7"/>
<polygon fill="none" stroke="#000000" points="406.5,-201.7 406.5,-220.7 564.5,-220.7 564.5,-201.7 406.5,-201.7"/>
<polygon fill="#ffffff" stroke="transparent" points="407.5,-202.7 407.5,-219.7 456.5,-219.7 456.5,-202.7 407.5,-202.7"/>
<text text-anchor="start" x="409.5" y="-207.8" font-family="Helvetica,sans-Serif" font-size="11.00" fill="#000000"> &#160;</text>
<polygon fill="#ffffff" stroke="transparent" points="456.5,-202.7 456.5,-219.7 505.5,-219.7 505.5,-202.7 456.5,-202.7"/>
<text text-anchor="start" x="477.9431" y="-207.8" font-family="Helvetica,sans-Serif" font-size="11.00" fill="#000000"> &#160;</text>
<polygon fill="#ffffff" stroke="transparent" points="505.5,-202.7 505.5,-219.7 563.5,-219.7 563.5,-202.7 505.5,-202.7"/>
<text text-anchor="start" x="545.9053" y="-207.8" font-family="Helvetica,sans-Serif" font-size="11.00" fill="#000000">1 &gt;</text>
<polygon fill="#000000" stroke="#000000" points="456.5,-202.7 456.5,-219.7 456.5,-219.7 456.5,-202.7 456.5,-202.7"/>
<polygon fill="#000000" stroke="#000000" points="505.5,-202.7 505.5,-219.7 505.5,-219.7 505.5,-202.7 505.5,-202.7"/>
</a>
</g>
</g>
<!-- ProviderAssignments&#45;&gt;Clinical.Patients -->
<g id="edge6" class="edge">
<title>ProviderAssignments:w&#45;&gt;Clinical.Patients:e</title>
<path fill="none" stroke="#000000" d="M656.3046,-289.9773C647.4323,-286.0277 642.3798,-278.6421 629,-273.7 611.0142,-267.0566 591.436,-260.8281 572.6889,-255.3297"/>
<polygon fill="#000000" stroke="#000000" points="662.6432,-291.193 669.8219,-296.2356 666.5716,-291.9465 670.5,-292.7 670.5,-292.7 670.5,-292.7 666.5716,-291.9465 671.1781,-289.1644 662.6432,-291.193 662.6432,-291.193"/>
<ellipse fill="none" stroke="#000000" cx="659.5005" cy="-290.5902" rx="3.2" ry="3.2"/>
</g>
<!-- Clinical.Providers -->
<g id="node5" class="node">
<title>Clinical.Providers</title>
<g id="a_node5"><a xlink:title="Clinical.Providers">
<polygon fill="#ffffff" stroke="transparent" points="402,-366.2 402,-427.2 569,-427.2 569,-366.2 402,-366.2"/>
<polygon fill="#f5f5f5" stroke="transparent" points="402.5,-403.7 402.5,-426.7 569.5,-426.7 569.5,-403.7 402.5,-403.7"/>
<polygon fill="none" stroke="#000000" points="402.5,-403.7 402.5,-426.7 569.5,-426.7 569.5,-403.7 402.5,-403.7"/>
<text text-anchor="start" x="407.5" y="-412.3" font-family="Helvetica,sans-Serif" font-weight="bold" font-size="11.00" fill="#000000">Clinical.Providers</text>
<text text-anchor="start" x="535.0219" y="-411.8" font-family="Helvetica,sans-Serif" font-size="11.00" fill="#000000">[table]</text>
<polygon fill="none" stroke="#000000" points="402.5,-384.7 402.5,-403.7 569.5,-403.7 569.5,-384.7 402.5,-384.7"/>
<text text-anchor="start" x="405.5" y="-390.8" font-family="Helvetica,sans-Serif" font-size="11.00" fill="#000000">...</text>
<polygon fill="#ffffff" stroke="transparent" points="402.5,-365.7 402.5,-384.7 569.5,-384.7 569.5,-365.7 402.5,-365.7"/>
<polygon fill="none" stroke="#000000" points="402.5,-365.7 402.5,-384.7 569.5,-384.7 569.5,-365.7 402.5,-365.7"/>
<polygon fill="#ffffff" stroke="transparent" points="403.5,-366.7 403.5,-383.7 455.5,-383.7 455.5,-366.7 403.5,-366.7"/>
<text text-anchor="start" x="405.5" y="-371.8" font-family="Helvetica,sans-Serif" font-size="11.00" fill="#000000"> &#160;</text>
<polygon fill="#ffffff" stroke="transparent" points="455.5,-366.7 455.5,-383.7 507.5,-383.7 507.5,-366.7 455.5,-366.7"/>
<text text-anchor="start" x="478.4431" y="-371.8" font-family="Helvetica,sans-Serif" font-size="11.00" fill="#000000"> &#160;</text>
<polygon fill="#ffffff" stroke="transparent" points="507.5,-366.7 507.5,-383.7 568.5,-383.7 568.5,-366.7 507.5,-366.7"/>
<text text-anchor="start" x="550.9053" y="-371.8" font-family="Helvetica,sans-Serif" font-size="11.00" fill="#000000">2 &gt;</text>
<polygon fill="#000000" stroke="#000000" points="455.5,-366.7 455.5,-383.7 455.5,-383.7 455.5,-366.7 455.5,-366.7"/>
<polygon fill="#000000" stroke="#000000" points="507.5,-366.7 507.5,-383.7 507.5,-383.7 507.5,-366.7 507.5,-366.7"/>
</a>
</g>
</g>
<!-- ProviderAssignments&#45;&gt;Clinical.Providers -->
<g id="edge5" class="edge">
<title>ProviderAssignments:w&#45;&gt;Clinical.Providers:e</title>
<path fill="none" stroke="#000000" d="M656.2664,-274.2427C636.7546,-287.2355 656.4398,-332.7071 629,-355.7 614.2046,-368.0977 595.8675,-376.7518 577.3032,-382.7913"/>
<polygon fill="#000000" stroke="#000000" points="662.7369,-272.6323 671.3695,-274.1934 666.6184,-271.6661 670.5,-270.7 670.5,-270.7 670.5,-270.7 666.6184,-271.6661 669.6305,-267.2066 662.7369,-272.6323 662.7369,-272.6323"/>
<ellipse fill="none" stroke="#000000" cx="659.6316" cy="-273.4052" rx="3.2" ry="3.2"/>
</g>
<!-- ProviderAssignments&#45;&gt;Clinical.Providers -->
<g id="edge7" class="edge">
<title>ProviderAssignments:w&#45;&gt;Clinical.Providers:e</title>
<path fill="none" stroke="#000000" d="M656.3046,-339.4227C647.4323,-343.3723 642.3798,-350.7579 629,-355.7 612.4725,-361.8047 594.6004,-367.5591 577.2641,-372.7186"/>
<polygon fill="#000000" stroke="#000000" points="662.6432,-338.207 671.1781,-340.2356 666.5716,-337.4535 670.5,-336.7 670.5,-336.7 670.5,-336.7 666.5716,-337.4535 669.8219,-333.1644 662.6432,-338.207 662.6432,-338.207"/>
<ellipse fill="none" stroke="#000000" cx="659.5005" cy="-338.8098" rx="3.2" ry="3.2"/>
</g>
<!-- Clinical.HospitalizationStatuses -->
<g id="node6" class="node">
<title>Clinical.HospitalizationStatuses</title>
<g id="a_node6"><a xlink:title="Clinical.HospitalizationStatuses">
<polygon fill="#ffffff" stroke="transparent" points="350,-38.2 350,-99.2 621,-99.2 621,-38.2 350,-38.2"/>
<polygon fill="#f5f5f5" stroke="transparent" points="350.5,-75.7 350.5,-98.7 621.5,-98.7 621.5,-75.7 350.5,-75.7"/>
<polygon fill="none" stroke="#000000" points="350.5,-75.7 350.5,-98.7 621.5,-98.7 621.5,-75.7 350.5,-75.7"/>
<text text-anchor="start" x="355.5" y="-84.3" font-family="Helvetica,sans-Serif" font-weight="bold" font-size="11.00" fill="#000000">Clinical.HospitalizationStatuses</text>
<text text-anchor="start" x="587.0219" y="-83.8" font-family="Helvetica,sans-Serif" font-size="11.00" fill="#000000">[table]</text>
<polygon fill="none" stroke="#000000" points="350.5,-56.7 350.5,-75.7 621.5,-75.7 621.5,-56.7 350.5,-56.7"/>
<text text-anchor="start" x="353.5" y="-62.8" font-family="Helvetica,sans-Serif" font-size="11.00" fill="#000000">...</text>
<polygon fill="#ffffff" stroke="transparent" points="350.5,-37.7 350.5,-56.7 621.5,-56.7 621.5,-37.7 350.5,-37.7"/>
<polygon fill="none" stroke="#000000" points="350.5,-37.7 350.5,-56.7 621.5,-56.7 621.5,-37.7 350.5,-37.7"/>
<polygon fill="#ffffff" stroke="transparent" points="351.5,-38.7 351.5,-55.7 438.5,-55.7 438.5,-38.7 351.5,-38.7"/>
<text text-anchor="start" x="353.5" y="-43.8" font-family="Helvetica,sans-Serif" font-size="11.00" fill="#000000"> &#160;</text>
<polygon fill="#ffffff" stroke="transparent" points="438.5,-38.7 438.5,-55.7 525.5,-55.7 525.5,-38.7 438.5,-38.7"/>
<text text-anchor="start" x="478.9431" y="-43.8" font-family="Helvetica,sans-Serif" font-size="11.00" fill="#000000"> &#160;</text>
<polygon fill="#ffffff" stroke="transparent" points="525.5,-38.7 525.5,-55.7 620.5,-55.7 620.5,-38.7 525.5,-38.7"/>
<text text-anchor="start" x="602.9053" y="-43.8" font-family="Helvetica,sans-Serif" font-size="11.00" fill="#000000">1 &gt;</text>
<polygon fill="#000000" stroke="#000000" points="438.5,-38.7 438.5,-55.7 438.5,-55.7 438.5,-38.7 438.5,-38.7"/>
<polygon fill="#000000" stroke="#000000" points="525.5,-38.7 525.5,-55.7 525.5,-55.7 525.5,-38.7 525.5,-38.7"/>
</a>
</g>
</g>
<!-- ProviderAssignments&#45;&gt;Clinical.HospitalizationStatuses -->
<g id="edge4" class="edge">
<title>ProviderAssignments:w&#45;&gt;Clinical.HospitalizationStatuses:e</title>
<path fill="none" stroke="#000000" d="M656.0443,-224.0146C625.9883,-209.8654 664.8166,-143.3433 629,-109.7 626.6393,-107.4826 624.1671,-105.384 621.5998,-103.3978"/>
<polygon fill="#000000" stroke="#000000" points="662.6346,-225.2388 669.8425,-230.2394 666.5673,-225.9694 670.5,-226.7 670.5,-226.7 670.5,-226.7 666.5673,-225.9694 671.1575,-223.1606 662.6346,-225.2388 662.6346,-225.2388"/>
<ellipse fill="none" stroke="#000000" cx="659.4884" cy="-224.6544" rx="3.2" ry="3.2"/>
</g>
<!-- Clinical.Visits -->
<g id="node7" class="node">
<title>Clinical.Visits</title>
<g id="a_node7"><a xlink:title="Clinical.Visits">
<polygon fill="#ffffff" stroke="transparent" points="417,-120.2 417,-181.2 554,-181.2 554,-120.2 417,-120.2"/>
<polygon fill="#f5f5f5" stroke="transparent" points="417.5,-157.7 417.5,-180.7 554.5,-180.7 554.5,-157.7 417.5,-157.7"/>
<polygon fill="none" stroke="#000000" points="417.5,-157.7 417.5,-180.7 554.5,-180.7 554.5,-157.7 417.5,-157.7"/>
<text text-anchor="start" x="422.5" y="-166.3" font-family="Helvetica,sans-Serif" font-weight="bold" font-size="11.00" fill="#000000">Clinical.Visits</text>
<text text-anchor="start" x="520.0219" y="-165.8" font-family="Helvetica,sans-Serif" font-size="11.00" fill="#000000">[table]</text>
<polygon fill="none" stroke="#000000" points="417.5,-138.7 417.5,-157.7 554.5,-157.7 554.5,-138.7 417.5,-138.7"/>
<text text-anchor="start" x="420.5" y="-144.8" font-family="Helvetica,sans-Serif" font-size="11.00" fill="#000000">...</text>
<polygon fill="#ffffff" stroke="transparent" points="417.5,-119.7 417.5,-138.7 554.5,-138.7 554.5,-119.7 417.5,-119.7"/>
<polygon fill="none" stroke="#000000" points="417.5,-119.7 417.5,-138.7 554.5,-138.7 554.5,-119.7 417.5,-119.7"/>
<polygon fill="#ffffff" stroke="transparent" points="418.5,-120.7 418.5,-137.7 460.5,-137.7 460.5,-120.7 418.5,-120.7"/>
<text text-anchor="start" x="420.5" y="-125.8" font-family="Helvetica,sans-Serif" font-size="11.00" fill="#000000"> &#160;</text>
<polygon fill="#ffffff" stroke="transparent" points="460.5,-120.7 460.5,-137.7 502.5,-137.7 502.5,-120.7 460.5,-120.7"/>
<text text-anchor="start" x="478.4431" y="-125.8" font-family="Helvetica,sans-Serif" font-size="11.00" fill="#000000"> &#160;</text>
<polygon fill="#ffffff" stroke="transparent" points="502.5,-120.7 502.5,-137.7 553.5,-137.7 553.5,-120.7 502.5,-120.7"/>
<text text-anchor="start" x="535.9053" y="-125.8" font-family="Helvetica,sans-Serif" font-size="11.00" fill="#000000">1 &gt;</text>
<polygon fill="#000000" stroke="#000000" points="460.5,-120.7 460.5,-137.7 460.5,-137.7 460.5,-120.7 460.5,-120.7"/>
<polygon fill="#000000" stroke="#000000" points="502.5,-120.7 502.5,-137.7 502.5,-137.7 502.5,-120.7 502.5,-120.7"/>
</a>
</g>
</g>
<!-- ProviderAssignments&#45;&gt;Clinical.Visits -->
<g id="edge8" class="edge">
<title>ProviderAssignments:w&#45;&gt;Clinical.Visits:e</title>
<path fill="none" stroke="#000000" d="M656.4665,-244.3704C643.7696,-233.7061 649.4692,-206.003 629,-191.7 609.3541,-177.9723 585.1703,-168.8122 562.293,-162.7111"/>
<polygon fill="#000000" stroke="#000000" points="662.8555,-246.3415 669.4387,-252.14 666.6778,-247.5208 670.5,-248.7 670.5,-248.7 670.5,-248.7 666.6778,-247.5208 671.5613,-245.26 662.8555,-246.3415 662.8555,-246.3415"/>
<ellipse fill="none" stroke="#000000" cx="659.7978" cy="-245.3981" rx="3.2" ry="3.2"/>
</g>
<!-- Clinical.Hospitalizations -->
<g id="node8" class="node">
<title>Clinical.Hospitalizations</title>
<g id="a_node8"><a xlink:title="Clinical.Hospitalizations">
<polygon fill="#ffffff" stroke="transparent" points="378,-284.2 378,-345.2 593,-345.2 593,-284.2 378,-284.2"/>
<polygon fill="#f5f5f5" stroke="transparent" points="378.5,-321.7 378.5,-344.7 593.5,-344.7 593.5,-321.7 378.5,-321.7"/>
<polygon fill="none" stroke="#000000" points="378.5,-321.7 378.5,-344.7 593.5,-344.7 593.5,-321.7 378.5,-321.7"/>
<text text-anchor="start" x="383.5" y="-330.3" font-family="Helvetica,sans-Serif" font-weight="bold" font-size="11.00" fill="#000000">Clinical.Hospitalizations</text>
<text text-anchor="start" x="559.0219" y="-329.8" font-family="Helvetica,sans-Serif" font-size="11.00" fill="#000000">[table]</text>
<polygon fill="none" stroke="#000000" points="378.5,-302.7 378.5,-321.7 593.5,-321.7 593.5,-302.7 378.5,-302.7"/>
<text text-anchor="start" x="381.5" y="-308.8" font-family="Helvetica,sans-Serif" font-size="11.00" fill="#000000">...</text>
<polygon fill="#ffffff" stroke="transparent" points="378.5,-283.7 378.5,-302.7 593.5,-302.7 593.5,-283.7 378.5,-283.7"/>
<polygon fill="none" stroke="#000000" points="378.5,-283.7 378.5,-302.7 593.5,-302.7 593.5,-283.7 378.5,-283.7"/>
<polygon fill="#ffffff" stroke="transparent" points="379.5,-284.7 379.5,-301.7 447.5,-301.7 447.5,-284.7 379.5,-284.7"/>
<text text-anchor="start" x="381.5" y="-289.8" font-family="Helvetica,sans-Serif" font-size="11.00" fill="#000000"> &#160;</text>
<polygon fill="#ffffff" stroke="transparent" points="447.5,-284.7 447.5,-301.7 515.5,-301.7 515.5,-284.7 447.5,-284.7"/>
<text text-anchor="start" x="478.4431" y="-289.8" font-family="Helvetica,sans-Serif" font-size="11.00" fill="#000000"> &#160;</text>
<polygon fill="#ffffff" stroke="transparent" points="515.5,-284.7 515.5,-301.7 592.5,-301.7 592.5,-284.7 515.5,-284.7"/>
<text text-anchor="start" x="574.9053" y="-289.8" font-family="Helvetica,sans-Serif" font-size="11.00" fill="#000000">1 &gt;</text>
<polygon fill="#000000" stroke="#000000" points="447.5,-284.7 447.5,-301.7 447.5,-301.7 447.5,-284.7 447.5,-284.7"/>
<polygon fill="#000000" stroke="#000000" points="515.5,-284.7 515.5,-301.7 515.5,-301.7 515.5,-284.7 515.5,-284.7"/>
</a>
</g>
</g>
<!-- ProviderAssignments&#45;&gt;Clinical.Hospitalizations -->
<g id="edge3" class="edge">
<title>ProviderAssignments:w&#45;&gt;Clinical.Hospitalizations:e</title>
<path fill="none" stroke="#000000" d="M655.9274,-314.7C637.9794,-314.7 619.4243,-314.7 601.4566,-314.7"/>
<polygon fill="#000000" stroke="#000000" points="662.5,-314.7001 670.5,-318.3 666.5,-314.7 670.5,-314.7 670.5,-314.7 670.5,-314.7 666.5,-314.7 670.5,-311.1 662.5,-314.7001 662.5,-314.7001"/>
<ellipse fill="none" stroke="#000000" cx="659.3" cy="-314.7001" rx="3.2" ry="3.2"/>
</g>
<!-- ProviderAssignmentBatches&#45;&gt;ProviderAssignmentBatchStatuses -->
<g id="edge1" class="edge">
<title>ProviderAssignmentBatches:w&#45;&gt;ProviderAssignmentBatchStatuses:e</title>
<path fill="none" stroke="#000000" d="M347.6762,-518.7C331.6248,-518.7 322.8924,-518.7 301.5,-518.7"/>
<polygon fill="#000000" stroke="#000000" points="354.5,-518.7001 362.5,-522.3 358.5,-518.7 362.5,-518.7 362.5,-518.7 362.5,-518.7 358.5,-518.7 362.5,-515.1 354.5,-518.7001 354.5,-518.7001"/>
<ellipse fill="none" stroke="#000000" cx="351.3" cy="-518.7001" rx="3.2" ry="3.2"/>
</g>
</g>
</svg>
