<?xml version="1.0" encoding="UTF-8" standalone="no"?>
<!DOCTYPE svg PUBLIC "-//W3C//DTD SVG 1.1//EN"
 "http://www.w3.org/Graphics/SVG/1.1/DTD/svg11.dtd">
<!-- Generated by graphviz version 2.40.1 (20161225.0304)
 -->
<!-- Title: compactRelationshipsDiagram Pages: 1 -->
<svg width="651pt" height="609pt"
 viewBox="0.00 0.00 651.00 609.20" xmlns="http://www.w3.org/2000/svg" xmlns:xlink="http://www.w3.org/1999/xlink">
<g id="graph0" class="graph" transform="scale(1 1) rotate(0) translate(4 605.2)">
<title>compactRelationshipsDiagram</title>
<polygon fill="#ffffff" stroke="transparent" points="-4,4 -4,-605.2 647,-605.2 647,4 -4,4"/>
<text text-anchor="middle" x="72.4936" y="-7.3" font-family="Helvetica,sans-Serif" font-size="11.00" fill="#000000">Generated by SchemaSpy</text>
<!-- ProviderAssignments -->
<g id="node1" class="node">
<title>ProviderAssignments</title>
<g id="a_node1"><a xlink:href="../../tables/ProviderAssignments.html" xlink:title="ProviderAssignments" target="_top">
<polygon fill="#ffffff" stroke="transparent" points="328,-178.2 328,-415.2 635,-415.2 635,-178.2 328,-178.2"/>
<polygon fill="#f5f5f5" stroke="transparent" points="328.5,-391.7 328.5,-414.7 635.5,-414.7 635.5,-391.7 328.5,-391.7"/>
<polygon fill="none" stroke="#000000" points="328.5,-391.7 328.5,-414.7 635.5,-414.7 635.5,-391.7 328.5,-391.7"/>
<text text-anchor="start" x="333.5" y="-400.3" font-family="Helvetica,sans-Serif" font-weight="bold" font-size="11.00" fill="#000000">ProviderAssignments</text>
<text text-anchor="start" x="600.5437" y="-399.8" font-family="Helvetica,sans-Serif" font-size="11.00" fill="#000000">[table]</text>
<polygon fill="none" stroke="#000000" points="328.5,-369.7 328.5,-391.7 635.5,-391.7 635.5,-369.7 328.5,-369.7"/>
<image xlink:href="../../images/primaryKeys.png" width="11px" height="12px" preserveAspectRatio="xMinYMin meet" x="333.5" y="-386.7"/>
<text text-anchor="start" x="348.5" y="-376.8" font-family="Helvetica,sans-Serif" font-size="11.00" fill="#000000">Id</text>
<polygon fill="#ffffff" stroke="transparent" points="328.5,-347.7 328.5,-369.7 635.5,-369.7 635.5,-347.7 328.5,-347.7"/>
<polygon fill="none" stroke="#000000" points="328.5,-347.7 328.5,-369.7 635.5,-369.7 635.5,-347.7 328.5,-347.7"/>
<image xlink:href="../../images/foreignKeys.png" width="11px" height="12px" preserveAspectRatio="xMinYMin meet" x="333.5" y="-364.7"/>
<text text-anchor="start" x="348.5" y="-354.8" font-family="Helvetica,sans-Serif" font-size="11.00" fill="#000000">BatchId</text>
<polygon fill="#ffffff" stroke="transparent" points="328.5,-325.7 328.5,-347.7 635.5,-347.7 635.5,-325.7 328.5,-325.7"/>
<polygon fill="none" stroke="#000000" points="328.5,-325.7 328.5,-347.7 635.5,-347.7 635.5,-325.7 328.5,-325.7"/>
<image xlink:href="../../images/foreignKeys.png" width="11px" height="12px" preserveAspectRatio="xMinYMin meet" x="333.5" y="-342.7"/>
<text text-anchor="start" x="348.5" y="-332.8" font-family="Helvetica,sans-Serif" font-size="11.00" fill="#000000">ResolvedPhysicianId</text>
<polygon fill="#ffffff" stroke="transparent" points="328.5,-303.7 328.5,-325.7 635.5,-325.7 635.5,-303.7 328.5,-303.7"/>
<polygon fill="none" stroke="#000000" points="328.5,-303.7 328.5,-325.7 635.5,-325.7 635.5,-303.7 328.5,-303.7"/>
<image xlink:href="../../images/foreignKeys.png" width="11px" height="12px" preserveAspectRatio="xMinYMin meet" x="333.5" y="-320.7"/>
<text text-anchor="start" x="348.5" y="-310.8" font-family="Helvetica,sans-Serif" font-size="11.00" fill="#000000">ResolvedHospitalizationId</text>
<polygon fill="#ffffff" stroke="transparent" points="328.5,-281.7 328.5,-303.7 635.5,-303.7 635.5,-281.7 328.5,-281.7"/>
<polygon fill="none" stroke="#000000" points="328.5,-281.7 328.5,-303.7 635.5,-303.7 635.5,-281.7 328.5,-281.7"/>
<image xlink:href="../../images/foreignKeys.png" width="11px" height="12px" preserveAspectRatio="xMinYMin meet" x="333.5" y="-298.7"/>
<text text-anchor="start" x="348.5" y="-288.8" font-family="Helvetica,sans-Serif" font-size="11.00" fill="#000000">ResolvedPatientId</text>
<polygon fill="#ffffff" stroke="transparent" points="328.5,-259.7 328.5,-281.7 635.5,-281.7 635.5,-259.7 328.5,-259.7"/>
<polygon fill="none" stroke="#000000" points="328.5,-259.7 328.5,-281.7 635.5,-281.7 635.5,-259.7 328.5,-259.7"/>
<image xlink:href="../../images/foreignKeys.png" width="11px" height="12px" preserveAspectRatio="xMinYMin meet" x="333.5" y="-276.7"/>
<text text-anchor="start" x="348.5" y="-266.8" font-family="Helvetica,sans-Serif" font-size="11.00" fill="#000000">ResolvedNursePractitionerId</text>
<polygon fill="#ffffff" stroke="transparent" points="328.5,-237.7 328.5,-259.7 635.5,-259.7 635.5,-237.7 328.5,-237.7"/>
<polygon fill="none" stroke="#000000" points="328.5,-237.7 328.5,-259.7 635.5,-259.7 635.5,-237.7 328.5,-237.7"/>
<image xlink:href="../../images/foreignKeys.png" width="11px" height="12px" preserveAspectRatio="xMinYMin meet" x="333.5" y="-254.7"/>
<text text-anchor="start" x="348.5" y="-244.8" font-family="Helvetica,sans-Serif" font-size="11.00" fill="#000000">ResolvedVisitId</text>
<polygon fill="#ffffff" stroke="transparent" points="328.5,-215.7 328.5,-237.7 635.5,-237.7 635.5,-215.7 328.5,-215.7"/>
<polygon fill="none" stroke="#000000" points="328.5,-215.7 328.5,-237.7 635.5,-237.7 635.5,-215.7 328.5,-215.7"/>
<image xlink:href="../../images/foreignKeys.png" width="11px" height="12px" preserveAspectRatio="xMinYMin meet" x="333.5" y="-232.7"/>
<text text-anchor="start" x="348.5" y="-222.8" font-family="Helvetica,sans-Serif" font-size="11.00" fill="#000000">ResolvedHospitalizationStatusId</text>
<polygon fill="none" stroke="#000000" points="328.5,-196.7 328.5,-215.7 635.5,-215.7 635.5,-196.7 328.5,-196.7"/>
<text text-anchor="start" x="331.5" y="-202.8" font-family="Helvetica,sans-Serif" font-size="11.00" fill="#000000">...</text>
<polygon fill="#ffffff" stroke="transparent" points="328.5,-177.7 328.5,-196.7 635.5,-196.7 635.5,-177.7 328.5,-177.7"/>
<polygon fill="none" stroke="#000000" points="328.5,-177.7 328.5,-196.7 635.5,-196.7 635.5,-177.7 328.5,-177.7"/>
<polygon fill="#ffffff" stroke="transparent" points="329.5,-178.7 329.5,-195.7 437.5,-195.7 437.5,-178.7 329.5,-178.7"/>
<text text-anchor="start" x="331.5" y="-183.8" font-family="Helvetica,sans-Serif" font-size="11.00" fill="#000000">&lt; 7</text>
<polygon fill="#ffffff" stroke="transparent" points="437.5,-178.7 437.5,-195.7 536.5,-195.7 536.5,-178.7 437.5,-178.7"/>
<text text-anchor="start" x="483.9431" y="-183.8" font-family="Helvetica,sans-Serif" font-size="11.00" fill="#000000"> &#160;</text>
<polygon fill="#ffffff" stroke="transparent" points="536.5,-178.7 536.5,-195.7 634.5,-195.7 634.5,-178.7 536.5,-178.7"/>
<text text-anchor="start" x="626.3862" y="-183.8" font-family="Helvetica,sans-Serif" font-size="11.00" fill="#000000"> &#160;</text>
<polygon fill="#000000" stroke="#000000" points="437.5,-178.7 437.5,-195.7 437.5,-195.7 437.5,-178.7 437.5,-178.7"/>
<polygon fill="#000000" stroke="#000000" points="536.5,-178.7 536.5,-195.7 536.5,-195.7 536.5,-178.7 536.5,-178.7"/>
</a>
</g>
</g>
<!-- ProviderAssignmentBatches -->
<g id="node2" class="node">
<title>ProviderAssignmentBatches</title>
<g id="a_node2"><a xlink:href="../../tables/ProviderAssignmentBatches.html" xlink:title="ProviderAssignmentBatches" target="_top">
<polygon fill="#ffffff" stroke="transparent" points="20.5,-448.2 20.5,-597.2 266.5,-597.2 266.5,-448.2 20.5,-448.2"/>
<polygon fill="#f5f5f5" stroke="transparent" points="20.5,-573.7 20.5,-596.7 266.5,-596.7 266.5,-573.7 20.5,-573.7"/>
<polygon fill="none" stroke="#000000" points="20.5,-573.7 20.5,-596.7 266.5,-596.7 266.5,-573.7 20.5,-573.7"/>
<text text-anchor="start" x="25.5" y="-582.3" font-family="Helvetica,sans-Serif" font-weight="bold" font-size="11.00" fill="#000000">ProviderAssignmentBatches</text>
<text text-anchor="start" x="232.0219" y="-581.8" font-family="Helvetica,sans-Serif" font-size="11.00" fill="#000000">[table]</text>
<polygon fill="none" stroke="#000000" points="20.5,-551.7 20.5,-573.7 266.5,-573.7 266.5,-551.7 20.5,-551.7"/>
<image xlink:href="../../images/primaryKeys.png" width="11px" height="12px" preserveAspectRatio="xMinYMin meet" x="25.5" y="-568.7"/>
<text text-anchor="start" x="49.5" y="-558.8" font-family="Helvetica,sans-Serif" font-size="11.00" fill="#000000">Id</text>
<polygon fill="#ffffff" stroke="transparent" points="20.5,-529.7 20.5,-551.7 266.5,-551.7 266.5,-529.7 20.5,-529.7"/>
<polygon fill="none" stroke="#000000" points="20.5,-529.7 20.5,-551.7 266.5,-551.7 266.5,-529.7 20.5,-529.7"/>
<text text-anchor="start" x="49.5" y="-536.8" font-family="Helvetica,sans-Serif" font-size="11.00" fill="#000000">Date</text>
<polygon fill="#ffffff" stroke="transparent" points="20.5,-507.7 20.5,-529.7 266.5,-529.7 266.5,-507.7 20.5,-507.7"/>
<polygon fill="none" stroke="#000000" points="20.5,-507.7 20.5,-529.7 266.5,-529.7 266.5,-507.7 20.5,-507.7"/>
<text text-anchor="start" x="49.5" y="-514.8" font-family="Helvetica,sans-Serif" font-size="11.00" fill="#000000">FacilityId</text>
<polygon fill="#ffffff" stroke="transparent" points="20.5,-485.7 20.5,-507.7 266.5,-507.7 266.5,-485.7 20.5,-485.7"/>
<polygon fill="none" stroke="#000000" points="20.5,-485.7 20.5,-507.7 266.5,-507.7 266.5,-485.7 20.5,-485.7"/>
<text text-anchor="start" x="49.5" y="-492.8" font-family="Helvetica,sans-Serif" font-size="11.00" fill="#000000">Status</text>
<polygon fill="none" stroke="#000000" points="20.5,-466.7 20.5,-485.7 266.5,-485.7 266.5,-466.7 20.5,-466.7"/>
<text text-anchor="start" x="23.5" y="-472.8" font-family="Helvetica,sans-Serif" font-size="11.00" fill="#000000">...</text>
<polygon fill="#ffffff" stroke="transparent" points="20.5,-447.7 20.5,-466.7 266.5,-466.7 266.5,-447.7 20.5,-447.7"/>
<polygon fill="none" stroke="#000000" points="20.5,-447.7 20.5,-466.7 266.5,-466.7 266.5,-447.7 20.5,-447.7"/>
<polygon fill="#ffffff" stroke="transparent" points="21.5,-448.7 21.5,-465.7 100.5,-465.7 100.5,-448.7 21.5,-448.7"/>
<text text-anchor="start" x="23.5" y="-453.8" font-family="Helvetica,sans-Serif" font-size="11.00" fill="#000000"> &#160;</text>
<polygon fill="#ffffff" stroke="transparent" points="100.5,-448.7 100.5,-465.7 178.5,-465.7 178.5,-448.7 100.5,-448.7"/>
<text text-anchor="start" x="136.4431" y="-453.8" font-family="Helvetica,sans-Serif" font-size="11.00" fill="#000000"> &#160;</text>
<polygon fill="#ffffff" stroke="transparent" points="178.5,-448.7 178.5,-465.7 265.5,-465.7 265.5,-448.7 178.5,-448.7"/>
<text text-anchor="start" x="247.9053" y="-453.8" font-family="Helvetica,sans-Serif" font-size="11.00" fill="#000000">1 &gt;</text>
<polygon fill="#000000" stroke="#000000" points="100.5,-448.7 100.5,-465.7 100.5,-465.7 100.5,-448.7 100.5,-448.7"/>
<polygon fill="#000000" stroke="#000000" points="178.5,-448.7 178.5,-465.7 178.5,-465.7 178.5,-448.7 178.5,-448.7"/>
</a>
</g>
</g>
<!-- ProviderAssignments&#45;&gt;ProviderAssignmentBatches -->
<g id="edge1" class="edge">
<title>ProviderAssignments:w&#45;&gt;ProviderAssignmentBatches:e</title>
<path fill="none" stroke="#000000" d="M314.0427,-360.7191C247.9194,-381.9059 355.7091,-562.7 266.5,-562.7"/>
<polygon fill="#000000" stroke="#000000" points="320.5769,-359.8066 328.998,-362.2654 324.5384,-359.2533 328.5,-358.7 328.5,-358.7 328.5,-358.7 324.5384,-359.2533 328.002,-355.1346 320.5769,-359.8066 320.5769,-359.8066"/>
<ellipse fill="none" stroke="#000000" cx="317.4076" cy="-360.2492" rx="3.2" ry="3.2"/>
</g>
<!-- Clinical.Patients -->
<g id="node3" class="node">
<title>Clinical.Patients</title>
<g id="a_node3"><a xlink:title="Clinical.Patients">
<polygon fill="#ffffff" stroke="transparent" points="64.5,-202.2 64.5,-263.2 222.5,-263.2 222.5,-202.2 64.5,-202.2"/>
<polygon fill="#f5f5f5" stroke="transparent" points="64.5,-239.7 64.5,-262.7 222.5,-262.7 222.5,-239.7 64.5,-239.7"/>
<polygon fill="none" stroke="#000000" points="64.5,-239.7 64.5,-262.7 222.5,-262.7 222.5,-239.7 64.5,-239.7"/>
<text text-anchor="start" x="69.5" y="-248.3" font-family="Helvetica,sans-Serif" font-weight="bold" font-size="11.00" fill="#000000">Clinical.Patients</text>
<text text-anchor="start" x="188.0219" y="-247.8" font-family="Helvetica,sans-Serif" font-size="11.00" fill="#000000">[table]</text>
<polygon fill="none" stroke="#000000" points="64.5,-220.7 64.5,-239.7 222.5,-239.7 222.5,-220.7 64.5,-220.7"/>
<text text-anchor="start" x="67.5" y="-226.8" font-family="Helvetica,sans-Serif" font-size="11.00" fill="#000000">...</text>
<polygon fill="#ffffff" stroke="transparent" points="64.5,-201.7 64.5,-220.7 222.5,-220.7 222.5,-201.7 64.5,-201.7"/>
<polygon fill="none" stroke="#000000" points="64.5,-201.7 64.5,-220.7 222.5,-220.7 222.5,-201.7 64.5,-201.7"/>
<polygon fill="#ffffff" stroke="transparent" points="65.5,-202.7 65.5,-219.7 114.5,-219.7 114.5,-202.7 65.5,-202.7"/>
<text text-anchor="start" x="67.5" y="-207.8" font-family="Helvetica,sans-Serif" font-size="11.00" fill="#000000"> &#160;</text>
<polygon fill="#ffffff" stroke="transparent" points="114.5,-202.7 114.5,-219.7 163.5,-219.7 163.5,-202.7 114.5,-202.7"/>
<text text-anchor="start" x="135.9431" y="-207.8" font-family="Helvetica,sans-Serif" font-size="11.00" fill="#000000"> &#160;</text>
<polygon fill="#ffffff" stroke="transparent" points="163.5,-202.7 163.5,-219.7 221.5,-219.7 221.5,-202.7 163.5,-202.7"/>
<text text-anchor="start" x="203.9053" y="-207.8" font-family="Helvetica,sans-Serif" font-size="11.00" fill="#000000">1 &gt;</text>
<polygon fill="#000000" stroke="#000000" points="114.5,-202.7 114.5,-219.7 114.5,-219.7 114.5,-202.7 114.5,-202.7"/>
<polygon fill="#000000" stroke="#000000" points="163.5,-202.7 163.5,-219.7 163.5,-219.7 163.5,-202.7 163.5,-202.7"/>
</a>
</g>
</g>
<!-- ProviderAssignments&#45;&gt;Clinical.Patients -->
<g id="edge5" class="edge">
<title>ProviderAssignments:w&#45;&gt;Clinical.Patients:e</title>
<path fill="none" stroke="#000000" d="M314.3046,-289.9773C305.4323,-286.0277 300.3798,-278.6421 287,-273.7 269.0142,-267.0566 249.436,-260.8281 230.6889,-255.3297"/>
<polygon fill="#000000" stroke="#000000" points="320.6432,-291.193 327.8219,-296.2356 324.5716,-291.9465 328.5,-292.7 328.5,-292.7 328.5,-292.7 324.5716,-291.9465 329.1781,-289.1644 320.6432,-291.193 320.6432,-291.193"/>
<ellipse fill="none" stroke="#000000" cx="317.5005" cy="-290.5902" rx="3.2" ry="3.2"/>
</g>
<!-- Clinical.Providers -->
<g id="node4" class="node">
<title>Clinical.Providers</title>
<g id="a_node4"><a xlink:title="Clinical.Providers">
<polygon fill="#ffffff" stroke="transparent" points="60,-366.2 60,-427.2 227,-427.2 227,-366.2 60,-366.2"/>
<polygon fill="#f5f5f5" stroke="transparent" points="60.5,-403.7 60.5,-426.7 227.5,-426.7 227.5,-403.7 60.5,-403.7"/>
<polygon fill="none" stroke="#000000" points="60.5,-403.7 60.5,-426.7 227.5,-426.7 227.5,-403.7 60.5,-403.7"/>
<text text-anchor="start" x="65.5" y="-412.3" font-family="Helvetica,sans-Serif" font-weight="bold" font-size="11.00" fill="#000000">Clinical.Providers</text>
<text text-anchor="start" x="193.0219" y="-411.8" font-family="Helvetica,sans-Serif" font-size="11.00" fill="#000000">[table]</text>
<polygon fill="none" stroke="#000000" points="60.5,-384.7 60.5,-403.7 227.5,-403.7 227.5,-384.7 60.5,-384.7"/>
<text text-anchor="start" x="63.5" y="-390.8" font-family="Helvetica,sans-Serif" font-size="11.00" fill="#000000">...</text>
<polygon fill="#ffffff" stroke="transparent" points="60.5,-365.7 60.5,-384.7 227.5,-384.7 227.5,-365.7 60.5,-365.7"/>
<polygon fill="none" stroke="#000000" points="60.5,-365.7 60.5,-384.7 227.5,-384.7 227.5,-365.7 60.5,-365.7"/>
<polygon fill="#ffffff" stroke="transparent" points="61.5,-366.7 61.5,-383.7 113.5,-383.7 113.5,-366.7 61.5,-366.7"/>
<text text-anchor="start" x="63.5" y="-371.8" font-family="Helvetica,sans-Serif" font-size="11.00" fill="#000000"> &#160;</text>
<polygon fill="#ffffff" stroke="transparent" points="113.5,-366.7 113.5,-383.7 165.5,-383.7 165.5,-366.7 113.5,-366.7"/>
<text text-anchor="start" x="136.4431" y="-371.8" font-family="Helvetica,sans-Serif" font-size="11.00" fill="#000000"> &#160;</text>
<polygon fill="#ffffff" stroke="transparent" points="165.5,-366.7 165.5,-383.7 226.5,-383.7 226.5,-366.7 165.5,-366.7"/>
<text text-anchor="start" x="208.9053" y="-371.8" font-family="Helvetica,sans-Serif" font-size="11.00" fill="#000000">2 &gt;</text>
<polygon fill="#000000" stroke="#000000" points="113.5,-366.7 113.5,-383.7 113.5,-383.7 113.5,-366.7 113.5,-366.7"/>
<polygon fill="#000000" stroke="#000000" points="165.5,-366.7 165.5,-383.7 165.5,-383.7 165.5,-366.7 165.5,-366.7"/>
</a>
</g>
</g>
<!-- ProviderAssignments&#45;&gt;Clinical.Providers -->
<g id="edge4" class="edge">
<title>ProviderAssignments:w&#45;&gt;Clinical.Providers:e</title>
<path fill="none" stroke="#000000" d="M314.2664,-274.2427C294.7546,-287.2355 314.4398,-332.7071 287,-355.7 272.2046,-368.0977 253.8675,-376.7518 235.3032,-382.7913"/>
<polygon fill="#000000" stroke="#000000" points="320.7369,-272.6323 329.3695,-274.1934 324.6184,-271.6661 328.5,-270.7 328.5,-270.7 328.5,-270.7 324.6184,-271.6661 327.6305,-267.2066 320.7369,-272.6323 320.7369,-272.6323"/>
<ellipse fill="none" stroke="#000000" cx="317.6316" cy="-273.4052" rx="3.2" ry="3.2"/>
</g>
<!-- ProviderAssignments&#45;&gt;Clinical.Providers -->
<g id="edge6" class="edge">
<title>ProviderAssignments:w&#45;&gt;Clinical.Providers:e</title>
<path fill="none" stroke="#000000" d="M314.3046,-339.4227C305.4323,-343.3723 300.3798,-350.7579 287,-355.7 270.4725,-361.8047 252.6004,-367.5591 235.2641,-372.7186"/>
<polygon fill="#000000" stroke="#000000" points="320.6432,-338.207 329.1781,-340.2356 324.5716,-337.4535 328.5,-336.7 328.5,-336.7 328.5,-336.7 324.5716,-337.4535 327.8219,-333.1644 320.6432,-338.207 320.6432,-338.207"/>
<ellipse fill="none" stroke="#000000" cx="317.5005" cy="-338.8098" rx="3.2" ry="3.2"/>
</g>
<!-- Clinical.HospitalizationStatuses -->
<g id="node5" class="node">
<title>Clinical.HospitalizationStatuses</title>
<g id="a_node5"><a xlink:title="Clinical.HospitalizationStatuses">
<polygon fill="#ffffff" stroke="transparent" points="8,-38.2 8,-99.2 279,-99.2 279,-38.2 8,-38.2"/>
<polygon fill="#f5f5f5" stroke="transparent" points="8.5,-75.7 8.5,-98.7 279.5,-98.7 279.5,-75.7 8.5,-75.7"/>
<polygon fill="none" stroke="#000000" points="8.5,-75.7 8.5,-98.7 279.5,-98.7 279.5,-75.7 8.5,-75.7"/>
<text text-anchor="start" x="13.5" y="-84.3" font-family="Helvetica,sans-Serif" font-weight="bold" font-size="11.00" fill="#000000">Clinical.HospitalizationStatuses</text>
<text text-anchor="start" x="245.0219" y="-83.8" font-family="Helvetica,sans-Serif" font-size="11.00" fill="#000000">[table]</text>
<polygon fill="none" stroke="#000000" points="8.5,-56.7 8.5,-75.7 279.5,-75.7 279.5,-56.7 8.5,-56.7"/>
<text text-anchor="start" x="11.5" y="-62.8" font-family="Helvetica,sans-Serif" font-size="11.00" fill="#000000">...</text>
<polygon fill="#ffffff" stroke="transparent" points="8.5,-37.7 8.5,-56.7 279.5,-56.7 279.5,-37.7 8.5,-37.7"/>
<polygon fill="none" stroke="#000000" points="8.5,-37.7 8.5,-56.7 279.5,-56.7 279.5,-37.7 8.5,-37.7"/>
<polygon fill="#ffffff" stroke="transparent" points="9.5,-38.7 9.5,-55.7 96.5,-55.7 96.5,-38.7 9.5,-38.7"/>
<text text-anchor="start" x="11.5" y="-43.8" font-family="Helvetica,sans-Serif" font-size="11.00" fill="#000000"> &#160;</text>
<polygon fill="#ffffff" stroke="transparent" points="96.5,-38.7 96.5,-55.7 183.5,-55.7 183.5,-38.7 96.5,-38.7"/>
<text text-anchor="start" x="136.9431" y="-43.8" font-family="Helvetica,sans-Serif" font-size="11.00" fill="#000000"> &#160;</text>
<polygon fill="#ffffff" stroke="transparent" points="183.5,-38.7 183.5,-55.7 278.5,-55.7 278.5,-38.7 183.5,-38.7"/>
<text text-anchor="start" x="260.9053" y="-43.8" font-family="Helvetica,sans-Serif" font-size="11.00" fill="#000000">1 &gt;</text>
<polygon fill="#000000" stroke="#000000" points="96.5,-38.7 96.5,-55.7 96.5,-55.7 96.5,-38.7 96.5,-38.7"/>
<polygon fill="#000000" stroke="#000000" points="183.5,-38.7 183.5,-55.7 183.5,-55.7 183.5,-38.7 183.5,-38.7"/>
</a>
</g>
</g>
<!-- ProviderAssignments&#45;&gt;Clinical.HospitalizationStatuses -->
<g id="edge3" class="edge">
<title>ProviderAssignments:w&#45;&gt;Clinical.HospitalizationStatuses:e</title>
<path fill="none" stroke="#000000" d="M314.0443,-224.0146C283.9883,-209.8654 322.8166,-143.3433 287,-109.7 284.6393,-107.4826 282.1671,-105.384 279.5998,-103.3978"/>
<polygon fill="#000000" stroke="#000000" points="320.6346,-225.2388 327.8425,-230.2394 324.5673,-225.9694 328.5,-226.7 328.5,-226.7 328.5,-226.7 324.5673,-225.9694 329.1575,-223.1606 320.6346,-225.2388 320.6346,-225.2388"/>
<ellipse fill="none" stroke="#000000" cx="317.4884" cy="-224.6544" rx="3.2" ry="3.2"/>
</g>
<!-- Clinical.Visits -->
<g id="node6" class="node">
<title>Clinical.Visits</title>
<g id="a_node6"><a xlink:title="Clinical.Visits">
<polygon fill="#ffffff" stroke="transparent" points="75,-120.2 75,-181.2 212,-181.2 212,-120.2 75,-120.2"/>
<polygon fill="#f5f5f5" stroke="transparent" points="75.5,-157.7 75.5,-180.7 212.5,-180.7 212.5,-157.7 75.5,-157.7"/>
<polygon fill="none" stroke="#000000" points="75.5,-157.7 75.5,-180.7 212.5,-180.7 212.5,-157.7 75.5,-157.7"/>
<text text-anchor="start" x="80.5" y="-166.3" font-family="Helvetica,sans-Serif" font-weight="bold" font-size="11.00" fill="#000000">Clinical.Visits</text>
<text text-anchor="start" x="178.0219" y="-165.8" font-family="Helvetica,sans-Serif" font-size="11.00" fill="#000000">[table]</text>
<polygon fill="none" stroke="#000000" points="75.5,-138.7 75.5,-157.7 212.5,-157.7 212.5,-138.7 75.5,-138.7"/>
<text text-anchor="start" x="78.5" y="-144.8" font-family="Helvetica,sans-Serif" font-size="11.00" fill="#000000">...</text>
<polygon fill="#ffffff" stroke="transparent" points="75.5,-119.7 75.5,-138.7 212.5,-138.7 212.5,-119.7 75.5,-119.7"/>
<polygon fill="none" stroke="#000000" points="75.5,-119.7 75.5,-138.7 212.5,-138.7 212.5,-119.7 75.5,-119.7"/>
<polygon fill="#ffffff" stroke="transparent" points="76.5,-120.7 76.5,-137.7 118.5,-137.7 118.5,-120.7 76.5,-120.7"/>
<text text-anchor="start" x="78.5" y="-125.8" font-family="Helvetica,sans-Serif" font-size="11.00" fill="#000000"> &#160;</text>
<polygon fill="#ffffff" stroke="transparent" points="118.5,-120.7 118.5,-137.7 160.5,-137.7 160.5,-120.7 118.5,-120.7"/>
<text text-anchor="start" x="136.4431" y="-125.8" font-family="Helvetica,sans-Serif" font-size="11.00" fill="#000000"> &#160;</text>
<polygon fill="#ffffff" stroke="transparent" points="160.5,-120.7 160.5,-137.7 211.5,-137.7 211.5,-120.7 160.5,-120.7"/>
<text text-anchor="start" x="193.9053" y="-125.8" font-family="Helvetica,sans-Serif" font-size="11.00" fill="#000000">1 &gt;</text>
<polygon fill="#000000" stroke="#000000" points="118.5,-120.7 118.5,-137.7 118.5,-137.7 118.5,-120.7 118.5,-120.7"/>
<polygon fill="#000000" stroke="#000000" points="160.5,-120.7 160.5,-137.7 160.5,-137.7 160.5,-120.7 160.5,-120.7"/>
</a>
</g>
</g>
<!-- ProviderAssignments&#45;&gt;Clinical.Visits -->
<g id="edge7" class="edge">
<title>ProviderAssignments:w&#45;&gt;Clinical.Visits:e</title>
<path fill="none" stroke="#000000" d="M314.4665,-244.3704C301.7696,-233.7061 307.4692,-206.003 287,-191.7 267.3541,-177.9723 243.1703,-168.8122 220.293,-162.7111"/>
<polygon fill="#000000" stroke="#000000" points="320.8555,-246.3415 327.4387,-252.14 324.6778,-247.5208 328.5,-248.7 328.5,-248.7 328.5,-248.7 324.6778,-247.5208 329.5613,-245.26 320.8555,-246.3415 320.8555,-246.3415"/>
<ellipse fill="none" stroke="#000000" cx="317.7978" cy="-245.3981" rx="3.2" ry="3.2"/>
</g>
<!-- Clinical.Hospitalizations -->
<g id="node7" class="node">
<title>Clinical.Hospitalizations</title>
<g id="a_node7"><a xlink:title="Clinical.Hospitalizations">
<polygon fill="#ffffff" stroke="transparent" points="36,-284.2 36,-345.2 251,-345.2 251,-284.2 36,-284.2"/>
<polygon fill="#f5f5f5" stroke="transparent" points="36.5,-321.7 36.5,-344.7 251.5,-344.7 251.5,-321.7 36.5,-321.7"/>
<polygon fill="none" stroke="#000000" points="36.5,-321.7 36.5,-344.7 251.5,-344.7 251.5,-321.7 36.5,-321.7"/>
<text text-anchor="start" x="41.5" y="-330.3" font-family="Helvetica,sans-Serif" font-weight="bold" font-size="11.00" fill="#000000">Clinical.Hospitalizations</text>
<text text-anchor="start" x="217.0219" y="-329.8" font-family="Helvetica,sans-Serif" font-size="11.00" fill="#000000">[table]</text>
<polygon fill="none" stroke="#000000" points="36.5,-302.7 36.5,-321.7 251.5,-321.7 251.5,-302.7 36.5,-302.7"/>
<text text-anchor="start" x="39.5" y="-308.8" font-family="Helvetica,sans-Serif" font-size="11.00" fill="#000000">...</text>
<polygon fill="#ffffff" stroke="transparent" points="36.5,-283.7 36.5,-302.7 251.5,-302.7 251.5,-283.7 36.5,-283.7"/>
<polygon fill="none" stroke="#000000" points="36.5,-283.7 36.5,-302.7 251.5,-302.7 251.5,-283.7 36.5,-283.7"/>
<polygon fill="#ffffff" stroke="transparent" points="37.5,-284.7 37.5,-301.7 105.5,-301.7 105.5,-284.7 37.5,-284.7"/>
<text text-anchor="start" x="39.5" y="-289.8" font-family="Helvetica,sans-Serif" font-size="11.00" fill="#000000"> &#160;</text>
<polygon fill="#ffffff" stroke="transparent" points="105.5,-284.7 105.5,-301.7 173.5,-301.7 173.5,-284.7 105.5,-284.7"/>
<text text-anchor="start" x="136.4431" y="-289.8" font-family="Helvetica,sans-Serif" font-size="11.00" fill="#000000"> &#160;</text>
<polygon fill="#ffffff" stroke="transparent" points="173.5,-284.7 173.5,-301.7 250.5,-301.7 250.5,-284.7 173.5,-284.7"/>
<text text-anchor="start" x="232.9053" y="-289.8" font-family="Helvetica,sans-Serif" font-size="11.00" fill="#000000">1 &gt;</text>
<polygon fill="#000000" stroke="#000000" points="105.5,-284.7 105.5,-301.7 105.5,-301.7 105.5,-284.7 105.5,-284.7"/>
<polygon fill="#000000" stroke="#000000" points="173.5,-284.7 173.5,-301.7 173.5,-301.7 173.5,-284.7 173.5,-284.7"/>
</a>
</g>
</g>
<!-- ProviderAssignments&#45;&gt;Clinical.Hospitalizations -->
<g id="edge2" class="edge">
<title>ProviderAssignments:w&#45;&gt;Clinical.Hospitalizations:e</title>
<path fill="none" stroke="#000000" d="M313.9274,-314.7C295.9794,-314.7 277.4243,-314.7 259.4566,-314.7"/>
<polygon fill="#000000" stroke="#000000" points="320.5,-314.7001 328.5,-318.3 324.5,-314.7 328.5,-314.7 328.5,-314.7 328.5,-314.7 324.5,-314.7 328.5,-311.1 320.5,-314.7001 320.5,-314.7001"/>
<ellipse fill="none" stroke="#000000" cx="317.3" cy="-314.7001" rx="3.2" ry="3.2"/>
</g>
</g>
</svg>
