<?xml version="1.0" encoding="UTF-8" standalone="no"?>
<!DOCTYPE svg PUBLIC "-//W3C//DTD SVG 1.1//EN"
 "http://www.w3.org/Graphics/SVG/1.1/DTD/svg11.dtd">
<!-- Generated by graphviz version 2.40.1 (20161225.0304)
 -->
<!-- Title: largeRelationshipsDiagram Pages: 1 -->
<svg width="651pt" height="1601pt"
 viewBox="0.00 0.00 651.00 1601.20" xmlns="http://www.w3.org/2000/svg" xmlns:xlink="http://www.w3.org/1999/xlink">
<g id="graph0" class="graph" transform="scale(1 1) rotate(0) translate(4 1597.2)">
<title>largeRelationshipsDiagram</title>
<polygon fill="#ffffff" stroke="transparent" points="-4,4 -4,-1597.2 647,-1597.2 647,4 -4,4"/>
<text text-anchor="middle" x="72.4936" y="-7.3" font-family="Helvetica,sans-Serif" font-size="11.00" fill="#000000">Generated by SchemaSpy</text>
<!-- ProviderAssignments -->
<g id="node1" class="node">
<title>ProviderAssignments</title>
<g id="a_node1"><a xlink:href="../../tables/ProviderAssignments.html" xlink:title="ProviderAssignments" target="_top">
<polygon fill="#ffffff" stroke="transparent" points="328,-645.2 328,-1589.2 635,-1589.2 635,-645.2 328,-645.2"/>
<polygon fill="#f5f5f5" stroke="transparent" points="328.5,-1566.2 328.5,-1589.2 635.5,-1589.2 635.5,-1566.2 328.5,-1566.2"/>
<polygon fill="none" stroke="#000000" points="328.5,-1566.2 328.5,-1589.2 635.5,-1589.2 635.5,-1566.2 328.5,-1566.2"/>
<text text-anchor="start" x="333.5" y="-1574.8" font-family="Helvetica,sans-Serif" font-weight="bold" font-size="11.00" fill="#000000">ProviderAssignments</text>
<text text-anchor="start" x="600.5437" y="-1574.3" font-family="Helvetica,sans-Serif" font-size="11.00" fill="#000000">[table]</text>
<polygon fill="none" stroke="#000000" points="328.5,-1544.2 328.5,-1566.2 635.5,-1566.2 635.5,-1544.2 328.5,-1544.2"/>
<image xlink:href="../../images/primaryKeys.png" width="11px" height="12px" preserveAspectRatio="xMinYMin meet" x="333.5" y="-1561.2"/>
<text text-anchor="start" x="348.5" y="-1551.3" font-family="Helvetica,sans-Serif" font-size="11.00" fill="#000000">Id</text>
<polygon fill="none" stroke="#000000" points="328.5,-1522.2 328.5,-1544.2 635.5,-1544.2 635.5,-1522.2 328.5,-1522.2"/>
<text text-anchor="start" x="348.5" y="-1529.3" font-family="Helvetica,sans-Serif" font-size="11.00" fill="#000000">Age</text>
<polygon fill="none" stroke="#000000" points="328.5,-1500.2 328.5,-1522.2 635.5,-1522.2 635.5,-1500.2 328.5,-1500.2"/>
<text text-anchor="start" x="348.5" y="-1507.3" font-family="Helvetica,sans-Serif" font-size="11.00" fill="#000000">AttendingMD</text>
<polygon fill="none" stroke="#000000" points="328.5,-1478.2 328.5,-1500.2 635.5,-1500.2 635.5,-1478.2 328.5,-1478.2"/>
<text text-anchor="start" x="348.5" y="-1485.3" font-family="Helvetica,sans-Serif" font-size="11.00" fill="#000000">HospitalNumber</text>
<polygon fill="none" stroke="#000000" points="328.5,-1456.2 328.5,-1478.2 635.5,-1478.2 635.5,-1456.2 328.5,-1456.2"/>
<text text-anchor="start" x="348.5" y="-1463.3" font-family="Helvetica,sans-Serif" font-size="11.00" fill="#000000">Admit</text>
<polygon fill="none" stroke="#000000" points="328.5,-1434.2 328.5,-1456.2 635.5,-1456.2 635.5,-1434.2 328.5,-1434.2"/>
<text text-anchor="start" x="348.5" y="-1441.3" font-family="Helvetica,sans-Serif" font-size="11.00" fill="#000000">Dob</text>
<polygon fill="none" stroke="#000000" points="328.5,-1412.2 328.5,-1434.2 635.5,-1434.2 635.5,-1412.2 328.5,-1412.2"/>
<text text-anchor="start" x="348.5" y="-1419.3" font-family="Helvetica,sans-Serif" font-size="11.00" fill="#000000">FacilityId</text>
<polygon fill="none" stroke="#000000" points="328.5,-1390.2 328.5,-1412.2 635.5,-1412.2 635.5,-1390.2 328.5,-1390.2"/>
<text text-anchor="start" x="348.5" y="-1397.3" font-family="Helvetica,sans-Serif" font-size="11.00" fill="#000000">Mrn</text>
<polygon fill="none" stroke="#000000" points="328.5,-1368.2 328.5,-1390.2 635.5,-1390.2 635.5,-1368.2 328.5,-1368.2"/>
<text text-anchor="start" x="348.5" y="-1375.3" font-family="Helvetica,sans-Serif" font-size="11.00" fill="#000000">Name</text>
<polygon fill="none" stroke="#000000" points="328.5,-1346.2 328.5,-1368.2 635.5,-1368.2 635.5,-1346.2 328.5,-1346.2"/>
<text text-anchor="start" x="348.5" y="-1353.3" font-family="Helvetica,sans-Serif" font-size="11.00" fill="#000000">Insurance</text>
<polygon fill="none" stroke="#000000" points="328.5,-1324.2 328.5,-1346.2 635.5,-1346.2 635.5,-1324.2 328.5,-1324.2"/>
<text text-anchor="start" x="348.5" y="-1331.3" font-family="Helvetica,sans-Serif" font-size="11.00" fill="#000000">NursePractitioner</text>
<polygon fill="none" stroke="#000000" points="328.5,-1302.2 328.5,-1324.2 635.5,-1324.2 635.5,-1302.2 328.5,-1302.2"/>
<text text-anchor="start" x="348.5" y="-1309.3" font-family="Helvetica,sans-Serif" font-size="11.00" fill="#000000">IsCleared</text>
<polygon fill="none" stroke="#000000" points="328.5,-1280.2 328.5,-1302.2 635.5,-1302.2 635.5,-1280.2 328.5,-1280.2"/>
<text text-anchor="start" x="348.5" y="-1287.3" font-family="Helvetica,sans-Serif" font-size="11.00" fill="#000000">Location</text>
<polygon fill="none" stroke="#000000" points="328.5,-1258.2 328.5,-1280.2 635.5,-1280.2 635.5,-1258.2 328.5,-1258.2"/>
<text text-anchor="start" x="348.5" y="-1265.3" font-family="Helvetica,sans-Serif" font-size="11.00" fill="#000000">ServiceDate</text>
<polygon fill="none" stroke="#000000" points="328.5,-1236.2 328.5,-1258.2 635.5,-1258.2 635.5,-1236.2 328.5,-1236.2"/>
<text text-anchor="start" x="348.5" y="-1243.3" font-family="Helvetica,sans-Serif" font-size="11.00" fill="#000000">H_P</text>
<polygon fill="none" stroke="#000000" points="328.5,-1214.2 328.5,-1236.2 635.5,-1236.2 635.5,-1214.2 328.5,-1214.2"/>
<text text-anchor="start" x="348.5" y="-1221.3" font-family="Helvetica,sans-Serif" font-size="11.00" fill="#000000">PsychEval</text>
<polygon fill="#ffffff" stroke="transparent" points="328.5,-1192.2 328.5,-1214.2 635.5,-1214.2 635.5,-1192.2 328.5,-1192.2"/>
<polygon fill="none" stroke="#000000" points="328.5,-1192.2 328.5,-1214.2 635.5,-1214.2 635.5,-1192.2 328.5,-1192.2"/>
<image xlink:href="../../images/foreignKeys.png" width="11px" height="12px" preserveAspectRatio="xMinYMin meet" x="333.5" y="-1209.2"/>
<text text-anchor="start" x="348.5" y="-1199.3" font-family="Helvetica,sans-Serif" font-size="11.00" fill="#000000">BatchId</text>
<polygon fill="none" stroke="#000000" points="328.5,-1170.2 328.5,-1192.2 635.5,-1192.2 635.5,-1170.2 328.5,-1170.2"/>
<text text-anchor="start" x="348.5" y="-1177.3" font-family="Helvetica,sans-Serif" font-size="11.00" fill="#000000">NormalizedPatientLastName</text>
<polygon fill="none" stroke="#000000" points="328.5,-1148.2 328.5,-1170.2 635.5,-1170.2 635.5,-1148.2 328.5,-1148.2"/>
<text text-anchor="start" x="348.5" y="-1155.3" font-family="Helvetica,sans-Serif" font-size="11.00" fill="#000000">NormalizedPatientFirstName</text>
<polygon fill="none" stroke="#000000" points="328.5,-1126.2 328.5,-1148.2 635.5,-1148.2 635.5,-1126.2 328.5,-1126.2"/>
<text text-anchor="start" x="348.5" y="-1133.3" font-family="Helvetica,sans-Serif" font-size="11.00" fill="#000000">NormalizedPhysicianLastName</text>
<polygon fill="none" stroke="#000000" points="328.5,-1104.2 328.5,-1126.2 635.5,-1126.2 635.5,-1104.2 328.5,-1104.2"/>
<text text-anchor="start" x="348.5" y="-1111.3" font-family="Helvetica,sans-Serif" font-size="11.00" fill="#000000">NormalizedNursePractitionerLastName</text>
<polygon fill="none" stroke="#000000" points="328.5,-1082.2 328.5,-1104.2 635.5,-1104.2 635.5,-1082.2 328.5,-1082.2"/>
<text text-anchor="start" x="348.5" y="-1089.3" font-family="Helvetica,sans-Serif" font-size="11.00" fill="#000000">Room</text>
<polygon fill="none" stroke="#000000" points="328.5,-1060.2 328.5,-1082.2 635.5,-1082.2 635.5,-1060.2 328.5,-1060.2"/>
<text text-anchor="start" x="348.5" y="-1067.3" font-family="Helvetica,sans-Serif" font-size="11.00" fill="#000000">Bed</text>
<polygon fill="#ffffff" stroke="transparent" points="328.5,-1038.2 328.5,-1060.2 635.5,-1060.2 635.5,-1038.2 328.5,-1038.2"/>
<polygon fill="none" stroke="#000000" points="328.5,-1038.2 328.5,-1060.2 635.5,-1060.2 635.5,-1038.2 328.5,-1038.2"/>
<image xlink:href="../../images/foreignKeys.png" width="11px" height="12px" preserveAspectRatio="xMinYMin meet" x="333.5" y="-1055.2"/>
<text text-anchor="start" x="348.5" y="-1045.3" font-family="Helvetica,sans-Serif" font-size="11.00" fill="#000000">ResolvedPhysicianId</text>
<polygon fill="#ffffff" stroke="transparent" points="328.5,-1016.2 328.5,-1038.2 635.5,-1038.2 635.5,-1016.2 328.5,-1016.2"/>
<polygon fill="none" stroke="#000000" points="328.5,-1016.2 328.5,-1038.2 635.5,-1038.2 635.5,-1016.2 328.5,-1016.2"/>
<image xlink:href="../../images/foreignKeys.png" width="11px" height="12px" preserveAspectRatio="xMinYMin meet" x="333.5" y="-1033.2"/>
<text text-anchor="start" x="348.5" y="-1023.3" font-family="Helvetica,sans-Serif" font-size="11.00" fill="#000000">ResolvedHospitalizationId</text>
<polygon fill="#ffffff" stroke="transparent" points="328.5,-994.2 328.5,-1016.2 635.5,-1016.2 635.5,-994.2 328.5,-994.2"/>
<polygon fill="none" stroke="#000000" points="328.5,-994.2 328.5,-1016.2 635.5,-1016.2 635.5,-994.2 328.5,-994.2"/>
<image xlink:href="../../images/foreignKeys.png" width="11px" height="12px" preserveAspectRatio="xMinYMin meet" x="333.5" y="-1011.2"/>
<text text-anchor="start" x="348.5" y="-1001.3" font-family="Helvetica,sans-Serif" font-size="11.00" fill="#000000">ResolvedPatientId</text>
<polygon fill="#ffffff" stroke="transparent" points="328.5,-972.2 328.5,-994.2 635.5,-994.2 635.5,-972.2 328.5,-972.2"/>
<polygon fill="none" stroke="#000000" points="328.5,-972.2 328.5,-994.2 635.5,-994.2 635.5,-972.2 328.5,-972.2"/>
<image xlink:href="../../images/foreignKeys.png" width="11px" height="12px" preserveAspectRatio="xMinYMin meet" x="333.5" y="-989.2"/>
<text text-anchor="start" x="348.5" y="-979.3" font-family="Helvetica,sans-Serif" font-size="11.00" fill="#000000">ResolvedNursePractitionerId</text>
<polygon fill="#ffffff" stroke="transparent" points="328.5,-950.2 328.5,-972.2 635.5,-972.2 635.5,-950.2 328.5,-950.2"/>
<polygon fill="none" stroke="#000000" points="328.5,-950.2 328.5,-972.2 635.5,-972.2 635.5,-950.2 328.5,-950.2"/>
<image xlink:href="../../images/foreignKeys.png" width="11px" height="12px" preserveAspectRatio="xMinYMin meet" x="333.5" y="-967.2"/>
<text text-anchor="start" x="348.5" y="-957.3" font-family="Helvetica,sans-Serif" font-size="11.00" fill="#000000">ResolvedVisitId</text>
<polygon fill="#ffffff" stroke="transparent" points="328.5,-928.2 328.5,-950.2 635.5,-950.2 635.5,-928.2 328.5,-928.2"/>
<polygon fill="none" stroke="#000000" points="328.5,-928.2 328.5,-950.2 635.5,-950.2 635.5,-928.2 328.5,-928.2"/>
<image xlink:href="../../images/foreignKeys.png" width="11px" height="12px" preserveAspectRatio="xMinYMin meet" x="333.5" y="-945.2"/>
<text text-anchor="start" x="348.5" y="-935.3" font-family="Helvetica,sans-Serif" font-size="11.00" fill="#000000">ResolvedHospitalizationStatusId</text>
<polygon fill="none" stroke="#000000" points="328.5,-906.2 328.5,-928.2 635.5,-928.2 635.5,-906.2 328.5,-906.2"/>
<text text-anchor="start" x="348.5" y="-913.3" font-family="Helvetica,sans-Serif" font-size="11.00" fill="#000000">ShouldImport</text>
<polygon fill="none" stroke="#000000" points="328.5,-884.2 328.5,-906.2 635.5,-906.2 635.5,-884.2 328.5,-884.2"/>
<text text-anchor="start" x="348.5" y="-891.3" font-family="Helvetica,sans-Serif" font-size="11.00" fill="#000000">Imported</text>
<polygon fill="none" stroke="#000000" points="328.5,-862.2 328.5,-884.2 635.5,-884.2 635.5,-862.2 328.5,-862.2"/>
<text text-anchor="start" x="348.5" y="-869.3" font-family="Helvetica,sans-Serif" font-size="11.00" fill="#000000">ValidationErrors</text>
<polygon fill="none" stroke="#000000" points="328.5,-840.2 328.5,-862.2 635.5,-862.2 635.5,-840.2 328.5,-840.2"/>
<text text-anchor="start" x="348.5" y="-847.3" font-family="Helvetica,sans-Serif" font-size="11.00" fill="#000000">ExclusionReason</text>
<polygon fill="none" stroke="#000000" points="328.5,-818.2 328.5,-840.2 635.5,-840.2 635.5,-818.2 328.5,-818.2"/>
<text text-anchor="start" x="348.5" y="-825.3" font-family="Helvetica,sans-Serif" font-size="11.00" fill="#000000">PatientWasCreated</text>
<polygon fill="none" stroke="#000000" points="328.5,-796.2 328.5,-818.2 635.5,-818.2 635.5,-796.2 328.5,-796.2"/>
<text text-anchor="start" x="348.5" y="-803.3" font-family="Helvetica,sans-Serif" font-size="11.00" fill="#000000">PatientFacilityWasCreated</text>
<polygon fill="none" stroke="#000000" points="328.5,-774.2 328.5,-796.2 635.5,-796.2 635.5,-774.2 328.5,-774.2"/>
<text text-anchor="start" x="348.5" y="-781.3" font-family="Helvetica,sans-Serif" font-size="11.00" fill="#000000">PhysicianWasCreated</text>
<polygon fill="none" stroke="#000000" points="328.5,-752.2 328.5,-774.2 635.5,-774.2 635.5,-752.2 328.5,-752.2"/>
<text text-anchor="start" x="348.5" y="-759.3" font-family="Helvetica,sans-Serif" font-size="11.00" fill="#000000">NursePractitionerWasCreated</text>
<polygon fill="none" stroke="#000000" points="328.5,-730.2 328.5,-752.2 635.5,-752.2 635.5,-730.2 328.5,-730.2"/>
<text text-anchor="start" x="348.5" y="-737.3" font-family="Helvetica,sans-Serif" font-size="11.00" fill="#000000">HospitalizationWasCreated</text>
<polygon fill="none" stroke="#000000" points="328.5,-708.2 328.5,-730.2 635.5,-730.2 635.5,-708.2 328.5,-708.2"/>
<text text-anchor="start" x="348.5" y="-715.3" font-family="Helvetica,sans-Serif" font-size="11.00" fill="#000000">CreatedAtUtc</text>
<polygon fill="none" stroke="#000000" points="328.5,-686.2 328.5,-708.2 635.5,-708.2 635.5,-686.2 328.5,-686.2"/>
<text text-anchor="start" x="348.5" y="-693.3" font-family="Helvetica,sans-Serif" font-size="11.00" fill="#000000">UpdatedAtUtc</text>
<polygon fill="none" stroke="#000000" points="328.5,-664.2 328.5,-686.2 635.5,-686.2 635.5,-664.2 328.5,-664.2"/>
<text text-anchor="start" x="348.5" y="-671.3" font-family="Helvetica,sans-Serif" font-size="11.00" fill="#000000">RowVersion</text>
<polygon fill="#ffffff" stroke="transparent" points="328.5,-645.2 328.5,-664.2 635.5,-664.2 635.5,-645.2 328.5,-645.2"/>
<polygon fill="none" stroke="#000000" points="328.5,-645.2 328.5,-664.2 635.5,-664.2 635.5,-645.2 328.5,-645.2"/>
<polygon fill="#ffffff" stroke="transparent" points="329.5,-646.2 329.5,-663.2 437.5,-663.2 437.5,-646.2 329.5,-646.2"/>
<text text-anchor="start" x="331.5" y="-651.3" font-family="Helvetica,sans-Serif" font-size="11.00" fill="#000000">&lt; 7</text>
<polygon fill="#ffffff" stroke="transparent" points="437.5,-646.2 437.5,-663.2 536.5,-663.2 536.5,-646.2 437.5,-646.2"/>
<text text-anchor="start" x="483.9431" y="-651.3" font-family="Helvetica,sans-Serif" font-size="11.00" fill="#000000"> &#160;</text>
<polygon fill="#ffffff" stroke="transparent" points="536.5,-646.2 536.5,-663.2 634.5,-663.2 634.5,-646.2 536.5,-646.2"/>
<text text-anchor="start" x="626.3862" y="-651.3" font-family="Helvetica,sans-Serif" font-size="11.00" fill="#000000"> &#160;</text>
<polygon fill="#000000" stroke="#000000" points="437.5,-646.2 437.5,-663.2 437.5,-663.2 437.5,-646.2 437.5,-646.2"/>
<polygon fill="#000000" stroke="#000000" points="536.5,-646.2 536.5,-663.2 536.5,-663.2 536.5,-646.2 536.5,-646.2"/>
</a>
</g>
</g>
<!-- ProviderAssignmentBatches -->
<g id="node2" class="node">
<title>ProviderAssignmentBatches</title>
<g id="a_node2"><a xlink:href="../../tables/ProviderAssignmentBatches.html" xlink:title="ProviderAssignmentBatches" target="_top">
<polygon fill="#ffffff" stroke="transparent" points="20.5,-1365.2 20.5,-1561.2 266.5,-1561.2 266.5,-1365.2 20.5,-1365.2"/>
<polygon fill="#f5f5f5" stroke="transparent" points="20.5,-1538.2 20.5,-1561.2 266.5,-1561.2 266.5,-1538.2 20.5,-1538.2"/>
<polygon fill="none" stroke="#000000" points="20.5,-1538.2 20.5,-1561.2 266.5,-1561.2 266.5,-1538.2 20.5,-1538.2"/>
<text text-anchor="start" x="25.5" y="-1546.8" font-family="Helvetica,sans-Serif" font-weight="bold" font-size="11.00" fill="#000000">ProviderAssignmentBatches</text>
<text text-anchor="start" x="232.0219" y="-1546.3" font-family="Helvetica,sans-Serif" font-size="11.00" fill="#000000">[table]</text>
<polygon fill="none" stroke="#000000" points="20.5,-1516.2 20.5,-1538.2 266.5,-1538.2 266.5,-1516.2 20.5,-1516.2"/>
<image xlink:href="../../images/primaryKeys.png" width="11px" height="12px" preserveAspectRatio="xMinYMin meet" x="25.5" y="-1533.2"/>
<text text-anchor="start" x="49.5" y="-1523.3" font-family="Helvetica,sans-Serif" font-size="11.00" fill="#000000">Id</text>
<polygon fill="#ffffff" stroke="transparent" points="20.5,-1494.2 20.5,-1516.2 266.5,-1516.2 266.5,-1494.2 20.5,-1494.2"/>
<polygon fill="none" stroke="#000000" points="20.5,-1494.2 20.5,-1516.2 266.5,-1516.2 266.5,-1494.2 20.5,-1494.2"/>
<text text-anchor="start" x="49.5" y="-1501.3" font-family="Helvetica,sans-Serif" font-size="11.00" fill="#000000">Date</text>
<polygon fill="#ffffff" stroke="transparent" points="20.5,-1472.2 20.5,-1494.2 266.5,-1494.2 266.5,-1472.2 20.5,-1472.2"/>
<polygon fill="none" stroke="#000000" points="20.5,-1472.2 20.5,-1494.2 266.5,-1494.2 266.5,-1472.2 20.5,-1472.2"/>
<text text-anchor="start" x="49.5" y="-1479.3" font-family="Helvetica,sans-Serif" font-size="11.00" fill="#000000">FacilityId</text>
<polygon fill="#ffffff" stroke="transparent" points="20.5,-1450.2 20.5,-1472.2 266.5,-1472.2 266.5,-1450.2 20.5,-1450.2"/>
<polygon fill="none" stroke="#000000" points="20.5,-1450.2 20.5,-1472.2 266.5,-1472.2 266.5,-1450.2 20.5,-1450.2"/>
<text text-anchor="start" x="49.5" y="-1457.3" font-family="Helvetica,sans-Serif" font-size="11.00" fill="#000000">Status</text>
<polygon fill="none" stroke="#000000" points="20.5,-1428.2 20.5,-1450.2 266.5,-1450.2 266.5,-1428.2 20.5,-1428.2"/>
<text text-anchor="start" x="49.5" y="-1435.3" font-family="Helvetica,sans-Serif" font-size="11.00" fill="#000000">CreatedAtUtc</text>
<polygon fill="none" stroke="#000000" points="20.5,-1406.2 20.5,-1428.2 266.5,-1428.2 266.5,-1406.2 20.5,-1406.2"/>
<text text-anchor="start" x="49.5" y="-1413.3" font-family="Helvetica,sans-Serif" font-size="11.00" fill="#000000">UpdatedAtUtc</text>
<polygon fill="none" stroke="#000000" points="20.5,-1384.2 20.5,-1406.2 266.5,-1406.2 266.5,-1384.2 20.5,-1384.2"/>
<text text-anchor="start" x="49.5" y="-1391.3" font-family="Helvetica,sans-Serif" font-size="11.00" fill="#000000">RowVersion</text>
<polygon fill="#ffffff" stroke="transparent" points="20.5,-1365.2 20.5,-1384.2 266.5,-1384.2 266.5,-1365.2 20.5,-1365.2"/>
<polygon fill="none" stroke="#000000" points="20.5,-1365.2 20.5,-1384.2 266.5,-1384.2 266.5,-1365.2 20.5,-1365.2"/>
<polygon fill="#ffffff" stroke="transparent" points="21.5,-1366.2 21.5,-1383.2 100.5,-1383.2 100.5,-1366.2 21.5,-1366.2"/>
<text text-anchor="start" x="23.5" y="-1371.3" font-family="Helvetica,sans-Serif" font-size="11.00" fill="#000000"> &#160;</text>
<polygon fill="#ffffff" stroke="transparent" points="100.5,-1366.2 100.5,-1383.2 178.5,-1383.2 178.5,-1366.2 100.5,-1366.2"/>
<text text-anchor="start" x="136.4431" y="-1371.3" font-family="Helvetica,sans-Serif" font-size="11.00" fill="#000000"> &#160;</text>
<polygon fill="#ffffff" stroke="transparent" points="178.5,-1366.2 178.5,-1383.2 265.5,-1383.2 265.5,-1366.2 178.5,-1366.2"/>
<text text-anchor="start" x="247.9053" y="-1371.3" font-family="Helvetica,sans-Serif" font-size="11.00" fill="#000000">1 &gt;</text>
<polygon fill="#000000" stroke="#000000" points="100.5,-1366.2 100.5,-1383.2 100.5,-1383.2 100.5,-1366.2 100.5,-1366.2"/>
<polygon fill="#000000" stroke="#000000" points="178.5,-1366.2 178.5,-1383.2 178.5,-1383.2 178.5,-1366.2 178.5,-1366.2"/>
</a>
</g>
</g>
<!-- ProviderAssignments&#45;&gt;ProviderAssignmentBatches -->
<g id="edge1" class="edge">
<title>ProviderAssignments:w&#45;&gt;ProviderAssignmentBatches:e</title>
<path fill="none" stroke="#000000" d="M314.6584,-1208.2893C266.8834,-1249.509 334.3657,-1527.2 266.5,-1527.2"/>
<polygon fill="#000000" stroke="#000000" points="320.9914,-1205.9608 329.7423,-1206.5788 324.7457,-1204.5804 328.5,-1203.2 328.5,-1203.2 328.5,-1203.2 324.7457,-1204.5804 327.2577,-1199.8212 320.9914,-1205.9608 320.9914,-1205.9608"/>
<ellipse fill="none" stroke="#000000" cx="317.988" cy="-1207.0651" rx="3.2" ry="3.2"/>
</g>
<!-- Clinical.Patients -->
<g id="node3" class="node">
<title>Clinical.Patients</title>
<g id="a_node3"><a xlink:title="Clinical.Patients">
<polygon fill="#ffffff" stroke="transparent" points="64.5,-538.2 64.5,-756.2 222.5,-756.2 222.5,-538.2 64.5,-538.2"/>
<polygon fill="#f5f5f5" stroke="transparent" points="64.5,-733.2 64.5,-756.2 222.5,-756.2 222.5,-733.2 64.5,-733.2"/>
<polygon fill="none" stroke="#000000" points="64.5,-733.2 64.5,-756.2 222.5,-756.2 222.5,-733.2 64.5,-733.2"/>
<text text-anchor="start" x="69.5" y="-741.8" font-family="Helvetica,sans-Serif" font-weight="bold" font-size="11.00" fill="#000000">Clinical.Patients</text>
<text text-anchor="start" x="188.0219" y="-741.3" font-family="Helvetica,sans-Serif" font-size="11.00" fill="#000000">[table]</text>
<polygon fill="none" stroke="#000000" points="64.5,-711.2 64.5,-733.2 222.5,-733.2 222.5,-711.2 64.5,-711.2"/>
<text text-anchor="start" x="101.5" y="-718.3" font-family="Helvetica,sans-Serif" font-size="11.00" fill="#000000">Id</text>
<polygon fill="none" stroke="#000000" points="64.5,-689.2 64.5,-711.2 222.5,-711.2 222.5,-689.2 64.5,-689.2"/>
<text text-anchor="start" x="101.5" y="-696.3" font-family="Helvetica,sans-Serif" font-size="11.00" fill="#000000">BirthDate</text>
<polygon fill="none" stroke="#000000" points="64.5,-667.2 64.5,-689.2 222.5,-689.2 222.5,-667.2 64.5,-667.2"/>
<text text-anchor="start" x="101.5" y="-674.3" font-family="Helvetica,sans-Serif" font-size="11.00" fill="#000000">FirstName</text>
<polygon fill="none" stroke="#000000" points="64.5,-645.2 64.5,-667.2 222.5,-667.2 222.5,-645.2 64.5,-645.2"/>
<text text-anchor="start" x="101.5" y="-652.3" font-family="Helvetica,sans-Serif" font-size="11.00" fill="#000000">Gender</text>
<polygon fill="none" stroke="#000000" points="64.5,-623.2 64.5,-645.2 222.5,-645.2 222.5,-623.2 64.5,-623.2"/>
<text text-anchor="start" x="101.5" y="-630.3" font-family="Helvetica,sans-Serif" font-size="11.00" fill="#000000">LastName</text>
<polygon fill="none" stroke="#000000" points="64.5,-601.2 64.5,-623.2 222.5,-623.2 222.5,-601.2 64.5,-601.2"/>
<text text-anchor="start" x="101.5" y="-608.3" font-family="Helvetica,sans-Serif" font-size="11.00" fill="#000000">CreatedAtUtc</text>
<polygon fill="none" stroke="#000000" points="64.5,-579.2 64.5,-601.2 222.5,-601.2 222.5,-579.2 64.5,-579.2"/>
<text text-anchor="start" x="101.5" y="-586.3" font-family="Helvetica,sans-Serif" font-size="11.00" fill="#000000">UpdatedAtUtc</text>
<polygon fill="none" stroke="#000000" points="64.5,-557.2 64.5,-579.2 222.5,-579.2 222.5,-557.2 64.5,-557.2"/>
<text text-anchor="start" x="101.5" y="-564.3" font-family="Helvetica,sans-Serif" font-size="11.00" fill="#000000">RowVersion</text>
<polygon fill="#ffffff" stroke="transparent" points="64.5,-538.2 64.5,-557.2 222.5,-557.2 222.5,-538.2 64.5,-538.2"/>
<polygon fill="none" stroke="#000000" points="64.5,-538.2 64.5,-557.2 222.5,-557.2 222.5,-538.2 64.5,-538.2"/>
<polygon fill="#ffffff" stroke="transparent" points="65.5,-539.2 65.5,-556.2 114.5,-556.2 114.5,-539.2 65.5,-539.2"/>
<text text-anchor="start" x="67.5" y="-544.3" font-family="Helvetica,sans-Serif" font-size="11.00" fill="#000000"> &#160;</text>
<polygon fill="#ffffff" stroke="transparent" points="114.5,-539.2 114.5,-556.2 163.5,-556.2 163.5,-539.2 114.5,-539.2"/>
<text text-anchor="start" x="135.9431" y="-544.3" font-family="Helvetica,sans-Serif" font-size="11.00" fill="#000000"> &#160;</text>
<polygon fill="#ffffff" stroke="transparent" points="163.5,-539.2 163.5,-556.2 221.5,-556.2 221.5,-539.2 163.5,-539.2"/>
<text text-anchor="start" x="203.9053" y="-544.3" font-family="Helvetica,sans-Serif" font-size="11.00" fill="#000000">1 &gt;</text>
<polygon fill="#000000" stroke="#000000" points="114.5,-539.2 114.5,-556.2 114.5,-556.2 114.5,-539.2 114.5,-539.2"/>
<polygon fill="#000000" stroke="#000000" points="163.5,-539.2 163.5,-556.2 163.5,-556.2 163.5,-539.2 163.5,-539.2"/>
</a>
</g>
</g>
<!-- ProviderAssignments&#45;&gt;Clinical.Patients -->
<g id="edge5" class="edge">
<title>ProviderAssignments:w&#45;&gt;Clinical.Patients:e</title>
<path fill="none" stroke="#000000" d="M314.8564,-999.565C282.3116,-967.3898 313.2177,-806.921 287,-766.2 268.2146,-737.0228 257.2015,-722.2 222.5,-722.2"/>
<polygon fill="#000000" stroke="#000000" points="321.1058,-1002.1461 327.1257,-1008.5274 324.8029,-1003.673 328.5,-1005.2 328.5,-1005.2 328.5,-1005.2 324.8029,-1003.673 329.8743,-1001.8726 321.1058,-1002.1461 321.1058,-1002.1461"/>
<ellipse fill="none" stroke="#000000" cx="318.1481" cy="-1000.9245" rx="3.2" ry="3.2"/>
</g>
<!-- Clinical.Providers -->
<g id="node4" class="node">
<title>Clinical.Providers</title>
<g id="a_node4"><a xlink:title="Clinical.Providers">
<polygon fill="#ffffff" stroke="transparent" points="60,-1082.2 60,-1344.2 227,-1344.2 227,-1082.2 60,-1082.2"/>
<polygon fill="#f5f5f5" stroke="transparent" points="60.5,-1321.2 60.5,-1344.2 227.5,-1344.2 227.5,-1321.2 60.5,-1321.2"/>
<polygon fill="none" stroke="#000000" points="60.5,-1321.2 60.5,-1344.2 227.5,-1344.2 227.5,-1321.2 60.5,-1321.2"/>
<text text-anchor="start" x="65.5" y="-1329.8" font-family="Helvetica,sans-Serif" font-weight="bold" font-size="11.00" fill="#000000">Clinical.Providers</text>
<text text-anchor="start" x="193.0219" y="-1329.3" font-family="Helvetica,sans-Serif" font-size="11.00" fill="#000000">[table]</text>
<polygon fill="none" stroke="#000000" points="60.5,-1299.2 60.5,-1321.2 227.5,-1321.2 227.5,-1299.2 60.5,-1299.2"/>
<text text-anchor="start" x="101.5" y="-1306.3" font-family="Helvetica,sans-Serif" font-size="11.00" fill="#000000">Id</text>
<polygon fill="none" stroke="#000000" points="60.5,-1277.2 60.5,-1299.2 227.5,-1299.2 227.5,-1277.2 60.5,-1277.2"/>
<text text-anchor="start" x="101.5" y="-1284.3" font-family="Helvetica,sans-Serif" font-size="11.00" fill="#000000">FirstName</text>
<polygon fill="none" stroke="#000000" points="60.5,-1255.2 60.5,-1277.2 227.5,-1277.2 227.5,-1255.2 60.5,-1255.2"/>
<text text-anchor="start" x="101.5" y="-1262.3" font-family="Helvetica,sans-Serif" font-size="11.00" fill="#000000">LastName</text>
<polygon fill="none" stroke="#000000" points="60.5,-1233.2 60.5,-1255.2 227.5,-1255.2 227.5,-1233.2 60.5,-1233.2"/>
<text text-anchor="start" x="101.5" y="-1240.3" font-family="Helvetica,sans-Serif" font-size="11.00" fill="#000000">TitleExtension</text>
<polygon fill="none" stroke="#000000" points="60.5,-1211.2 60.5,-1233.2 227.5,-1233.2 227.5,-1211.2 60.5,-1211.2"/>
<text text-anchor="start" x="101.5" y="-1218.3" font-family="Helvetica,sans-Serif" font-size="11.00" fill="#000000">Type</text>
<polygon fill="none" stroke="#000000" points="60.5,-1189.2 60.5,-1211.2 227.5,-1211.2 227.5,-1189.2 60.5,-1189.2"/>
<text text-anchor="start" x="101.5" y="-1196.3" font-family="Helvetica,sans-Serif" font-size="11.00" fill="#000000">Email</text>
<polygon fill="none" stroke="#000000" points="60.5,-1167.2 60.5,-1189.2 227.5,-1189.2 227.5,-1167.2 60.5,-1167.2"/>
<text text-anchor="start" x="101.5" y="-1174.3" font-family="Helvetica,sans-Serif" font-size="11.00" fill="#000000">EmployeeId</text>
<polygon fill="none" stroke="#000000" points="60.5,-1145.2 60.5,-1167.2 227.5,-1167.2 227.5,-1145.2 60.5,-1145.2"/>
<text text-anchor="start" x="101.5" y="-1152.3" font-family="Helvetica,sans-Serif" font-size="11.00" fill="#000000">CreatedAtUtc</text>
<polygon fill="none" stroke="#000000" points="60.5,-1123.2 60.5,-1145.2 227.5,-1145.2 227.5,-1123.2 60.5,-1123.2"/>
<text text-anchor="start" x="101.5" y="-1130.3" font-family="Helvetica,sans-Serif" font-size="11.00" fill="#000000">UpdatedAtUtc</text>
<polygon fill="none" stroke="#000000" points="60.5,-1101.2 60.5,-1123.2 227.5,-1123.2 227.5,-1101.2 60.5,-1101.2"/>
<text text-anchor="start" x="101.5" y="-1108.3" font-family="Helvetica,sans-Serif" font-size="11.00" fill="#000000">RowVersion</text>
<polygon fill="#ffffff" stroke="transparent" points="60.5,-1082.2 60.5,-1101.2 227.5,-1101.2 227.5,-1082.2 60.5,-1082.2"/>
<polygon fill="none" stroke="#000000" points="60.5,-1082.2 60.5,-1101.2 227.5,-1101.2 227.5,-1082.2 60.5,-1082.2"/>
<polygon fill="#ffffff" stroke="transparent" points="61.5,-1083.2 61.5,-1100.2 113.5,-1100.2 113.5,-1083.2 61.5,-1083.2"/>
<text text-anchor="start" x="63.5" y="-1088.3" font-family="Helvetica,sans-Serif" font-size="11.00" fill="#000000"> &#160;</text>
<polygon fill="#ffffff" stroke="transparent" points="113.5,-1083.2 113.5,-1100.2 165.5,-1100.2 165.5,-1083.2 113.5,-1083.2"/>
<text text-anchor="start" x="136.4431" y="-1088.3" font-family="Helvetica,sans-Serif" font-size="11.00" fill="#000000"> &#160;</text>
<polygon fill="#ffffff" stroke="transparent" points="165.5,-1083.2 165.5,-1100.2 226.5,-1100.2 226.5,-1083.2 165.5,-1083.2"/>
<text text-anchor="start" x="208.9053" y="-1088.3" font-family="Helvetica,sans-Serif" font-size="11.00" fill="#000000">2 &gt;</text>
<polygon fill="#000000" stroke="#000000" points="113.5,-1083.2 113.5,-1100.2 113.5,-1100.2 113.5,-1083.2 113.5,-1083.2"/>
<polygon fill="#000000" stroke="#000000" points="165.5,-1083.2 165.5,-1100.2 165.5,-1100.2 165.5,-1083.2 165.5,-1083.2"/>
</a>
</g>
</g>
<!-- ProviderAssignments&#45;&gt;Clinical.Providers -->
<g id="edge4" class="edge">
<title>ProviderAssignments:w&#45;&gt;Clinical.Providers:e</title>
<path fill="none" stroke="#000000" d="M317.291,-992.6338C285.2709,-1046.2489 261.6648,-1310.2 227.5,-1310.2"/>
<polygon fill="#000000" stroke="#000000" points="322.3793,-988.3514 330.8181,-985.9543 325.4396,-985.7757 328.5,-983.2 328.5,-983.2 328.5,-983.2 325.4396,-985.7757 326.1819,-980.4457 322.3793,-988.3514 322.3793,-988.3514"/>
<ellipse fill="none" stroke="#000000" cx="319.931" cy="-990.412" rx="3.2" ry="3.2"/>
</g>
<!-- ProviderAssignments&#45;&gt;Clinical.Providers -->
<g id="edge6" class="edge">
<title>ProviderAssignments:w&#45;&gt;Clinical.Providers:e</title>
<path fill="none" stroke="#000000" d="M314.8282,-1054.1808C269.5691,-1090.264 284.5896,-1310.2 227.5,-1310.2"/>
<polygon fill="#000000" stroke="#000000" points="320.9833,-1051.9384 329.7323,-1052.5825 324.7416,-1050.5692 328.5,-1049.2 328.5,-1049.2 328.5,-1049.2 324.7416,-1050.5692 327.2677,-1045.8175 320.9833,-1051.9384 320.9833,-1051.9384"/>
<ellipse fill="none" stroke="#000000" cx="317.9766" cy="-1053.0338" rx="3.2" ry="3.2"/>
</g>
<!-- Clinical.HospitalizationStatuses -->
<g id="node5" class="node">
<title>Clinical.HospitalizationStatuses</title>
<g id="a_node5"><a xlink:title="Clinical.HospitalizationStatuses">
<polygon fill="#ffffff" stroke="transparent" points="8,-38.2 8,-256.2 279,-256.2 279,-38.2 8,-38.2"/>
<polygon fill="#f5f5f5" stroke="transparent" points="8.5,-233.2 8.5,-256.2 279.5,-256.2 279.5,-233.2 8.5,-233.2"/>
<polygon fill="none" stroke="#000000" points="8.5,-233.2 8.5,-256.2 279.5,-256.2 279.5,-233.2 8.5,-233.2"/>
<text text-anchor="start" x="13.5" y="-241.8" font-family="Helvetica,sans-Serif" font-weight="bold" font-size="11.00" fill="#000000">Clinical.HospitalizationStatuses</text>
<text text-anchor="start" x="245.0219" y="-241.3" font-family="Helvetica,sans-Serif" font-size="11.00" fill="#000000">[table]</text>
<polygon fill="none" stroke="#000000" points="8.5,-211.2 8.5,-233.2 279.5,-233.2 279.5,-211.2 8.5,-211.2"/>
<text text-anchor="start" x="66.5" y="-218.3" font-family="Helvetica,sans-Serif" font-size="11.00" fill="#000000">Id</text>
<polygon fill="none" stroke="#000000" points="8.5,-189.2 8.5,-211.2 279.5,-211.2 279.5,-189.2 8.5,-189.2"/>
<text text-anchor="start" x="66.5" y="-196.3" font-family="Helvetica,sans-Serif" font-size="11.00" fill="#000000">Code</text>
<polygon fill="none" stroke="#000000" points="8.5,-167.2 8.5,-189.2 279.5,-189.2 279.5,-167.2 8.5,-167.2"/>
<text text-anchor="start" x="66.5" y="-174.3" font-family="Helvetica,sans-Serif" font-size="11.00" fill="#000000">Name</text>
<polygon fill="none" stroke="#000000" points="8.5,-145.2 8.5,-167.2 279.5,-167.2 279.5,-145.2 8.5,-145.2"/>
<text text-anchor="start" x="66.5" y="-152.3" font-family="Helvetica,sans-Serif" font-size="11.00" fill="#000000">Color</text>
<polygon fill="none" stroke="#000000" points="8.5,-123.2 8.5,-145.2 279.5,-145.2 279.5,-123.2 8.5,-123.2"/>
<text text-anchor="start" x="66.5" y="-130.3" font-family="Helvetica,sans-Serif" font-size="11.00" fill="#000000">DisplayOrder</text>
<polygon fill="none" stroke="#000000" points="8.5,-101.2 8.5,-123.2 279.5,-123.2 279.5,-101.2 8.5,-101.2"/>
<text text-anchor="start" x="66.5" y="-108.3" font-family="Helvetica,sans-Serif" font-size="11.00" fill="#000000">CreatedAtUtc</text>
<polygon fill="none" stroke="#000000" points="8.5,-79.2 8.5,-101.2 279.5,-101.2 279.5,-79.2 8.5,-79.2"/>
<text text-anchor="start" x="66.5" y="-86.3" font-family="Helvetica,sans-Serif" font-size="11.00" fill="#000000">UpdatedAtUtc</text>
<polygon fill="none" stroke="#000000" points="8.5,-57.2 8.5,-79.2 279.5,-79.2 279.5,-57.2 8.5,-57.2"/>
<text text-anchor="start" x="66.5" y="-64.3" font-family="Helvetica,sans-Serif" font-size="11.00" fill="#000000">RowVersion</text>
<polygon fill="#ffffff" stroke="transparent" points="8.5,-38.2 8.5,-57.2 279.5,-57.2 279.5,-38.2 8.5,-38.2"/>
<polygon fill="none" stroke="#000000" points="8.5,-38.2 8.5,-57.2 279.5,-57.2 279.5,-38.2 8.5,-38.2"/>
<polygon fill="#ffffff" stroke="transparent" points="9.5,-39.2 9.5,-56.2 96.5,-56.2 96.5,-39.2 9.5,-39.2"/>
<text text-anchor="start" x="11.5" y="-44.3" font-family="Helvetica,sans-Serif" font-size="11.00" fill="#000000"> &#160;</text>
<polygon fill="#ffffff" stroke="transparent" points="96.5,-39.2 96.5,-56.2 183.5,-56.2 183.5,-39.2 96.5,-39.2"/>
<text text-anchor="start" x="136.9431" y="-44.3" font-family="Helvetica,sans-Serif" font-size="11.00" fill="#000000"> &#160;</text>
<polygon fill="#ffffff" stroke="transparent" points="183.5,-39.2 183.5,-56.2 278.5,-56.2 278.5,-39.2 183.5,-39.2"/>
<text text-anchor="start" x="260.9053" y="-44.3" font-family="Helvetica,sans-Serif" font-size="11.00" fill="#000000">1 &gt;</text>
<polygon fill="#000000" stroke="#000000" points="96.5,-39.2 96.5,-56.2 96.5,-56.2 96.5,-39.2 96.5,-39.2"/>
<polygon fill="#000000" stroke="#000000" points="183.5,-39.2 183.5,-56.2 183.5,-56.2 183.5,-39.2 183.5,-39.2"/>
</a>
</g>
</g>
<!-- ProviderAssignments&#45;&gt;Clinical.HospitalizationStatuses -->
<g id="edge3" class="edge">
<title>ProviderAssignments:w&#45;&gt;Clinical.HospitalizationStatuses:e</title>
<path fill="none" stroke="#000000" d="M316.0067,-931.6329C261.3546,-855.0042 354.5177,-222.2 279.5,-222.2"/>
<polygon fill="#000000" stroke="#000000" points="321.6573,-935.0554 326.6349,-942.2792 325.0786,-937.1277 328.5,-939.2 328.5,-939.2 328.5,-939.2 325.0786,-937.1277 330.3651,-936.1208 321.6573,-935.0554 321.6573,-935.0554"/>
<ellipse fill="none" stroke="#000000" cx="318.9202" cy="-933.3976" rx="3.2" ry="3.2"/>
</g>
<!-- Clinical.Visits -->
<g id="node6" class="node">
<title>Clinical.Visits</title>
<g id="a_node6"><a xlink:title="Clinical.Visits">
<polygon fill="#ffffff" stroke="transparent" points="60.5,-277.2 60.5,-517.2 226.5,-517.2 226.5,-277.2 60.5,-277.2"/>
<polygon fill="#f5f5f5" stroke="transparent" points="60.5,-494.2 60.5,-517.2 226.5,-517.2 226.5,-494.2 60.5,-494.2"/>
<polygon fill="none" stroke="#000000" points="60.5,-494.2 60.5,-517.2 226.5,-517.2 226.5,-494.2 60.5,-494.2"/>
<text text-anchor="start" x="65.5" y="-502.8" font-family="Helvetica,sans-Serif" font-weight="bold" font-size="11.00" fill="#000000">Clinical.Visits</text>
<text text-anchor="start" x="191.5437" y="-502.3" font-family="Helvetica,sans-Serif" font-size="11.00" fill="#000000">[table]</text>
<polygon fill="none" stroke="#000000" points="60.5,-472.2 60.5,-494.2 226.5,-494.2 226.5,-472.2 60.5,-472.2"/>
<text text-anchor="start" x="80.5" y="-479.3" font-family="Helvetica,sans-Serif" font-size="11.00" fill="#000000">Id</text>
<polygon fill="none" stroke="#000000" points="60.5,-450.2 60.5,-472.2 226.5,-472.2 226.5,-450.2 60.5,-450.2"/>
<text text-anchor="start" x="80.5" y="-457.3" font-family="Helvetica,sans-Serif" font-size="11.00" fill="#000000">DateServiced</text>
<polygon fill="none" stroke="#000000" points="60.5,-428.2 60.5,-450.2 226.5,-450.2 226.5,-428.2 60.5,-428.2"/>
<text text-anchor="start" x="80.5" y="-435.3" font-family="Helvetica,sans-Serif" font-size="11.00" fill="#000000">HospitalizationId</text>
<polygon fill="none" stroke="#000000" points="60.5,-406.2 60.5,-428.2 226.5,-428.2 226.5,-406.2 60.5,-406.2"/>
<text text-anchor="start" x="80.5" y="-413.3" font-family="Helvetica,sans-Serif" font-size="11.00" fill="#000000">IsScribeServiceOnly</text>
<polygon fill="none" stroke="#000000" points="60.5,-384.2 60.5,-406.2 226.5,-406.2 226.5,-384.2 60.5,-384.2"/>
<text text-anchor="start" x="80.5" y="-391.3" font-family="Helvetica,sans-Serif" font-size="11.00" fill="#000000">Room</text>
<polygon fill="none" stroke="#000000" points="60.5,-362.2 60.5,-384.2 226.5,-384.2 226.5,-362.2 60.5,-362.2"/>
<text text-anchor="start" x="80.5" y="-369.3" font-family="Helvetica,sans-Serif" font-size="11.00" fill="#000000">Bed</text>
<polygon fill="none" stroke="#000000" points="60.5,-340.2 60.5,-362.2 226.5,-362.2 226.5,-340.2 60.5,-340.2"/>
<text text-anchor="start" x="80.5" y="-347.3" font-family="Helvetica,sans-Serif" font-size="11.00" fill="#000000">CreatedAtUtc</text>
<polygon fill="none" stroke="#000000" points="60.5,-318.2 60.5,-340.2 226.5,-340.2 226.5,-318.2 60.5,-318.2"/>
<text text-anchor="start" x="80.5" y="-325.3" font-family="Helvetica,sans-Serif" font-size="11.00" fill="#000000">UpdatedAtUtc</text>
<polygon fill="none" stroke="#000000" points="60.5,-296.2 60.5,-318.2 226.5,-318.2 226.5,-296.2 60.5,-296.2"/>
<text text-anchor="start" x="80.5" y="-303.3" font-family="Helvetica,sans-Serif" font-size="11.00" fill="#000000">RowVersion</text>
<polygon fill="#ffffff" stroke="transparent" points="60.5,-277.2 60.5,-296.2 226.5,-296.2 226.5,-277.2 60.5,-277.2"/>
<polygon fill="none" stroke="#000000" points="60.5,-277.2 60.5,-296.2 226.5,-296.2 226.5,-277.2 60.5,-277.2"/>
<polygon fill="#ffffff" stroke="transparent" points="61.5,-278.2 61.5,-295.2 113.5,-295.2 113.5,-278.2 61.5,-278.2"/>
<text text-anchor="start" x="63.5" y="-283.3" font-family="Helvetica,sans-Serif" font-size="11.00" fill="#000000"> &#160;</text>
<polygon fill="#ffffff" stroke="transparent" points="113.5,-278.2 113.5,-295.2 165.5,-295.2 165.5,-278.2 113.5,-278.2"/>
<text text-anchor="start" x="136.4431" y="-283.3" font-family="Helvetica,sans-Serif" font-size="11.00" fill="#000000"> &#160;</text>
<polygon fill="#ffffff" stroke="transparent" points="165.5,-278.2 165.5,-295.2 225.5,-295.2 225.5,-278.2 165.5,-278.2"/>
<text text-anchor="start" x="207.9053" y="-283.3" font-family="Helvetica,sans-Serif" font-size="11.00" fill="#000000">1 &gt;</text>
<polygon fill="#000000" stroke="#000000" points="113.5,-278.2 113.5,-295.2 113.5,-295.2 113.5,-278.2 113.5,-278.2"/>
<polygon fill="#000000" stroke="#000000" points="165.5,-278.2 165.5,-295.2 165.5,-295.2 165.5,-278.2 165.5,-278.2"/>
</a>
</g>
</g>
<!-- ProviderAssignments&#45;&gt;Clinical.Visits -->
<g id="edge7" class="edge">
<title>ProviderAssignments:w&#45;&gt;Clinical.Visits:e</title>
<path fill="none" stroke="#000000" d="M317.0627,-951.8658C285.2779,-892.1924 308.8095,-565.4091 287,-527.2 270.5182,-498.3247 259.748,-483.2 226.5,-483.2"/>
<polygon fill="#000000" stroke="#000000" points="322.3021,-956.1417 326.2238,-963.9891 325.401,-958.6709 328.5,-961.2 328.5,-961.2 328.5,-961.2 325.401,-958.6709 330.7762,-958.4109 322.3021,-956.1417 322.3021,-956.1417"/>
<ellipse fill="none" stroke="#000000" cx="319.8229" cy="-954.1184" rx="3.2" ry="3.2"/>
</g>
<!-- Clinical.Hospitalizations -->
<g id="node7" class="node">
<title>Clinical.Hospitalizations</title>
<g id="a_node7"><a xlink:title="Clinical.Hospitalizations">
<polygon fill="#ffffff" stroke="transparent" points="36,-777.2 36,-1061.2 251,-1061.2 251,-777.2 36,-777.2"/>
<polygon fill="#f5f5f5" stroke="transparent" points="36.5,-1038.2 36.5,-1061.2 251.5,-1061.2 251.5,-1038.2 36.5,-1038.2"/>
<polygon fill="none" stroke="#000000" points="36.5,-1038.2 36.5,-1061.2 251.5,-1061.2 251.5,-1038.2 36.5,-1038.2"/>
<text text-anchor="start" x="41.5" y="-1046.8" font-family="Helvetica,sans-Serif" font-weight="bold" font-size="11.00" fill="#000000">Clinical.Hospitalizations</text>
<text text-anchor="start" x="217.0219" y="-1046.3" font-family="Helvetica,sans-Serif" font-size="11.00" fill="#000000">[table]</text>
<polygon fill="none" stroke="#000000" points="36.5,-1016.2 36.5,-1038.2 251.5,-1038.2 251.5,-1016.2 36.5,-1016.2"/>
<text text-anchor="start" x="67.5" y="-1023.3" font-family="Helvetica,sans-Serif" font-size="11.00" fill="#000000">Id</text>
<polygon fill="none" stroke="#000000" points="36.5,-994.2 36.5,-1016.2 251.5,-1016.2 251.5,-994.2 36.5,-994.2"/>
<text text-anchor="start" x="67.5" y="-1001.3" font-family="Helvetica,sans-Serif" font-size="11.00" fill="#000000">PatientId</text>
<polygon fill="none" stroke="#000000" points="36.5,-972.2 36.5,-994.2 251.5,-994.2 251.5,-972.2 36.5,-972.2"/>
<text text-anchor="start" x="67.5" y="-979.3" font-family="Helvetica,sans-Serif" font-size="11.00" fill="#000000">FacilityId</text>
<polygon fill="none" stroke="#000000" points="36.5,-950.2 36.5,-972.2 251.5,-972.2 251.5,-950.2 36.5,-950.2"/>
<text text-anchor="start" x="67.5" y="-957.3" font-family="Helvetica,sans-Serif" font-size="11.00" fill="#000000">CaseId</text>
<polygon fill="none" stroke="#000000" points="36.5,-928.2 36.5,-950.2 251.5,-950.2 251.5,-928.2 36.5,-928.2"/>
<text text-anchor="start" x="67.5" y="-935.3" font-family="Helvetica,sans-Serif" font-size="11.00" fill="#000000">AdmissionDate</text>
<polygon fill="none" stroke="#000000" points="36.5,-906.2 36.5,-928.2 251.5,-928.2 251.5,-906.2 36.5,-906.2"/>
<text text-anchor="start" x="67.5" y="-913.3" font-family="Helvetica,sans-Serif" font-size="11.00" fill="#000000">DischargeDate</text>
<polygon fill="none" stroke="#000000" points="36.5,-884.2 36.5,-906.2 251.5,-906.2 251.5,-884.2 36.5,-884.2"/>
<text text-anchor="start" x="67.5" y="-891.3" font-family="Helvetica,sans-Serif" font-size="11.00" fill="#000000">HospitalizationStatusId</text>
<polygon fill="none" stroke="#000000" points="36.5,-862.2 36.5,-884.2 251.5,-884.2 251.5,-862.2 36.5,-862.2"/>
<text text-anchor="start" x="67.5" y="-869.3" font-family="Helvetica,sans-Serif" font-size="11.00" fill="#000000">PsychEvaluation</text>
<polygon fill="none" stroke="#000000" points="36.5,-840.2 36.5,-862.2 251.5,-862.2 251.5,-840.2 36.5,-840.2"/>
<text text-anchor="start" x="67.5" y="-847.3" font-family="Helvetica,sans-Serif" font-size="11.00" fill="#000000">CreatedAtUtc</text>
<polygon fill="none" stroke="#000000" points="36.5,-818.2 36.5,-840.2 251.5,-840.2 251.5,-818.2 36.5,-818.2"/>
<text text-anchor="start" x="67.5" y="-825.3" font-family="Helvetica,sans-Serif" font-size="11.00" fill="#000000">UpdatedAtUtc</text>
<polygon fill="none" stroke="#000000" points="36.5,-796.2 36.5,-818.2 251.5,-818.2 251.5,-796.2 36.5,-796.2"/>
<text text-anchor="start" x="67.5" y="-803.3" font-family="Helvetica,sans-Serif" font-size="11.00" fill="#000000">RowVersion</text>
<polygon fill="#ffffff" stroke="transparent" points="36.5,-777.2 36.5,-796.2 251.5,-796.2 251.5,-777.2 36.5,-777.2"/>
<polygon fill="none" stroke="#000000" points="36.5,-777.2 36.5,-796.2 251.5,-796.2 251.5,-777.2 36.5,-777.2"/>
<polygon fill="#ffffff" stroke="transparent" points="37.5,-778.2 37.5,-795.2 105.5,-795.2 105.5,-778.2 37.5,-778.2"/>
<text text-anchor="start" x="39.5" y="-783.3" font-family="Helvetica,sans-Serif" font-size="11.00" fill="#000000"> &#160;</text>
<polygon fill="#ffffff" stroke="transparent" points="105.5,-778.2 105.5,-795.2 173.5,-795.2 173.5,-778.2 105.5,-778.2"/>
<text text-anchor="start" x="136.4431" y="-783.3" font-family="Helvetica,sans-Serif" font-size="11.00" fill="#000000"> &#160;</text>
<polygon fill="#ffffff" stroke="transparent" points="173.5,-778.2 173.5,-795.2 250.5,-795.2 250.5,-778.2 173.5,-778.2"/>
<text text-anchor="start" x="232.9053" y="-783.3" font-family="Helvetica,sans-Serif" font-size="11.00" fill="#000000">1 &gt;</text>
<polygon fill="#000000" stroke="#000000" points="105.5,-778.2 105.5,-795.2 105.5,-795.2 105.5,-778.2 105.5,-778.2"/>
<polygon fill="#000000" stroke="#000000" points="173.5,-778.2 173.5,-795.2 173.5,-795.2 173.5,-778.2 173.5,-778.2"/>
</a>
</g>
</g>
<!-- ProviderAssignments&#45;&gt;Clinical.Hospitalizations -->
<g id="edge2" class="edge">
<title>ProviderAssignments:w&#45;&gt;Clinical.Hospitalizations:e</title>
<path fill="none" stroke="#000000" d="M313.8215,-1027.2C290.879,-1027.2 280.2413,-1027.2 251.5,-1027.2"/>
<polygon fill="#000000" stroke="#000000" points="320.5,-1027.2001 328.5,-1030.8 324.5,-1027.2 328.5,-1027.2 328.5,-1027.2 328.5,-1027.2 324.5,-1027.2 328.5,-1023.6 320.5,-1027.2001 320.5,-1027.2001"/>
<ellipse fill="none" stroke="#000000" cx="317.3" cy="-1027.2001" rx="3.2" ry="3.2"/>
</g>
</g>
</svg>
