<?xml version="1.0" encoding="UTF-8" standalone="no"?>
<!DOCTYPE svg PUBLIC "-//W3C//DTD SVG 1.1//EN"
 "http://www.w3.org/Graphics/SVG/1.1/DTD/svg11.dtd">
<!-- Generated by graphviz version 2.40.1 (20161225.0304)
 -->
<!-- Title: largeRelationshipsDiagram Pages: 1 -->
<svg width="411pt" height="585pt"
 viewBox="0.00 0.00 411.00 585.20" xmlns="http://www.w3.org/2000/svg" xmlns:xlink="http://www.w3.org/1999/xlink">
<g id="graph0" class="graph" transform="scale(1 1) rotate(0) translate(4 581.2)">
<title>largeRelationshipsDiagram</title>
<polygon fill="#ffffff" stroke="transparent" points="-4,4 -4,-581.2 407,-581.2 407,4 -4,4"/>
<text text-anchor="middle" x="72.4936" y="-7.3" font-family="Helvetica,sans-Serif" font-size="11.00" fill="#000000">Generated by SchemaSpy</text>
<!-- Employees -->
<g id="node1" class="node">
<title>Employees</title>
<g id="a_node1"><a xlink:href="../../tables/Employees.html" xlink:title="Employees" target="_top">
<polygon fill="#ffffff" stroke="transparent" points="8,-38.2 8,-344.2 148,-344.2 148,-38.2 8,-38.2"/>
<polygon fill="#f5f5f5" stroke="transparent" points="8,-321.2 8,-344.2 148,-344.2 148,-321.2 8,-321.2"/>
<polygon fill="none" stroke="#000000" points="8,-321.2 8,-344.2 148,-344.2 148,-321.2 8,-321.2"/>
<text text-anchor="start" x="13" y="-329.8" font-family="Helvetica,sans-Serif" font-weight="bold" font-size="11.00" fill="#000000">Employees</text>
<text text-anchor="start" x="113.0437" y="-329.3" font-family="Helvetica,sans-Serif" font-size="11.00" fill="#000000">[table]</text>
<polygon fill="none" stroke="#000000" points="8,-299.2 8,-321.2 148,-321.2 148,-299.2 8,-299.2"/>
<image xlink:href="../../images/primaryKeys.png" width="11px" height="12px" preserveAspectRatio="xMinYMin meet" x="13" y="-316.2"/>
<text text-anchor="start" x="28" y="-306.3" font-family="Helvetica,sans-Serif" font-size="11.00" fill="#000000">Id</text>
<polygon fill="none" stroke="#000000" points="8,-277.2 8,-299.2 148,-299.2 148,-277.2 8,-277.2"/>
<text text-anchor="start" x="28" y="-284.3" font-family="Helvetica,sans-Serif" font-size="11.00" fill="#000000">FirstName</text>
<polygon fill="none" stroke="#000000" points="8,-255.2 8,-277.2 148,-277.2 148,-255.2 8,-255.2"/>
<text text-anchor="start" x="28" y="-262.3" font-family="Helvetica,sans-Serif" font-size="11.00" fill="#000000">LastName</text>
<polygon fill="none" stroke="#000000" points="8,-233.2 8,-255.2 148,-255.2 148,-233.2 8,-233.2"/>
<text text-anchor="start" x="28" y="-240.3" font-family="Helvetica,sans-Serif" font-size="11.00" fill="#000000">TitleExtension</text>
<polygon fill="none" stroke="#000000" points="8,-211.2 8,-233.2 148,-233.2 148,-211.2 8,-211.2"/>
<text text-anchor="start" x="28" y="-218.3" font-family="Helvetica,sans-Serif" font-size="11.00" fill="#000000">IsProvider</text>
<polygon fill="none" stroke="#000000" points="8,-189.2 8,-211.2 148,-211.2 148,-189.2 8,-189.2"/>
<text text-anchor="start" x="28" y="-196.3" font-family="Helvetica,sans-Serif" font-size="11.00" fill="#000000">Role</text>
<polygon fill="none" stroke="#000000" points="8,-167.2 8,-189.2 148,-189.2 148,-167.2 8,-167.2"/>
<text text-anchor="start" x="28" y="-174.3" font-family="Helvetica,sans-Serif" font-size="11.00" fill="#000000">IsAdministrator</text>
<polygon fill="none" stroke="#000000" points="8,-145.2 8,-167.2 148,-167.2 148,-145.2 8,-145.2"/>
<text text-anchor="start" x="28" y="-152.3" font-family="Helvetica,sans-Serif" font-size="11.00" fill="#000000">Email</text>
<polygon fill="none" stroke="#000000" points="8,-123.2 8,-145.2 148,-145.2 148,-123.2 8,-123.2"/>
<text text-anchor="start" x="28" y="-130.3" font-family="Helvetica,sans-Serif" font-size="11.00" fill="#000000">CanApproveVisits</text>
<polygon fill="none" stroke="#000000" points="8,-101.2 8,-123.2 148,-123.2 148,-101.2 8,-101.2"/>
<text text-anchor="start" x="28" y="-108.3" font-family="Helvetica,sans-Serif" font-size="11.00" fill="#000000">CreatedAtUtc</text>
<polygon fill="none" stroke="#000000" points="8,-79.2 8,-101.2 148,-101.2 148,-79.2 8,-79.2"/>
<text text-anchor="start" x="28" y="-86.3" font-family="Helvetica,sans-Serif" font-size="11.00" fill="#000000">UpdatedAtUtc</text>
<polygon fill="none" stroke="#000000" points="8,-57.2 8,-79.2 148,-79.2 148,-57.2 8,-57.2"/>
<text text-anchor="start" x="28" y="-64.3" font-family="Helvetica,sans-Serif" font-size="11.00" fill="#000000">RowVersion</text>
<polygon fill="#ffffff" stroke="transparent" points="8,-38.2 8,-57.2 67,-57.2 67,-38.2 8,-38.2"/>
<polygon fill="none" stroke="#000000" points="8,-38.2 8,-57.2 67,-57.2 67,-38.2 8,-38.2"/>
<text text-anchor="start" x="11" y="-44.3" font-family="Helvetica,sans-Serif" font-size="11.00" fill="#000000"> &#160;</text>
<polygon fill="#ffffff" stroke="transparent" points="67,-38.2 67,-57.2 103,-57.2 103,-38.2 67,-38.2"/>
<polygon fill="none" stroke="#000000" points="67,-38.2 67,-57.2 103,-57.2 103,-38.2 67,-38.2"/>
<text text-anchor="start" x="93.8862" y="-44.3" font-family="Helvetica,sans-Serif" font-size="11.00" fill="#000000"> &#160;</text>
<polygon fill="#ffffff" stroke="transparent" points="103,-38.2 103,-57.2 148,-57.2 148,-38.2 103,-38.2"/>
<polygon fill="none" stroke="#000000" points="103,-38.2 103,-57.2 148,-57.2 148,-38.2 103,-38.2"/>
<text text-anchor="start" x="129.4053" y="-44.3" font-family="Helvetica,sans-Serif" font-size="11.00" fill="#000000">2 &gt;</text>
</a>
</g>
</g>
<!-- Clinical.VisitEvents -->
<g id="node2" class="node">
<title>Clinical.VisitEvents</title>
<g id="a_node2"><a xlink:title="Clinical.VisitEvents">
<polygon fill="#ffffff" stroke="transparent" points="212,-311.2 212,-573.2 380,-573.2 380,-311.2 212,-311.2"/>
<polygon fill="#f5f5f5" stroke="transparent" points="212,-550.2 212,-573.2 380,-573.2 380,-550.2 212,-550.2"/>
<polygon fill="none" stroke="#000000" points="212,-550.2 212,-573.2 380,-573.2 380,-550.2 212,-550.2"/>
<text text-anchor="start" x="217" y="-558.8" font-family="Helvetica,sans-Serif" font-weight="bold" font-size="11.00" fill="#000000">Clinical.VisitEvents</text>
<text text-anchor="start" x="345.5219" y="-558.3" font-family="Helvetica,sans-Serif" font-size="11.00" fill="#000000">[table]</text>
<polygon fill="none" stroke="#000000" points="212,-528.2 212,-550.2 380,-550.2 380,-528.2 212,-528.2"/>
<text text-anchor="start" x="249" y="-535.3" font-family="Helvetica,sans-Serif" font-size="11.00" fill="#000000">Id</text>
<polygon fill="none" stroke="#000000" points="212,-506.2 212,-528.2 380,-528.2 380,-506.2 212,-506.2"/>
<text text-anchor="start" x="249" y="-513.3" font-family="Helvetica,sans-Serif" font-size="11.00" fill="#000000">VisitId</text>
<polygon fill="none" stroke="#000000" points="212,-484.2 212,-506.2 380,-506.2 380,-484.2 212,-484.2"/>
<text text-anchor="start" x="249" y="-491.3" font-family="Helvetica,sans-Serif" font-size="11.00" fill="#000000">EventTypeId</text>
<polygon fill="none" stroke="#000000" points="212,-462.2 212,-484.2 380,-484.2 380,-462.2 212,-462.2"/>
<text text-anchor="start" x="249" y="-469.3" font-family="Helvetica,sans-Serif" font-size="11.00" fill="#000000">EventOccurredAt</text>
<polygon fill="none" stroke="#000000" points="212,-440.2 212,-462.2 380,-462.2 380,-440.2 212,-440.2"/>
<text text-anchor="start" x="249" y="-447.3" font-family="Helvetica,sans-Serif" font-size="11.00" fill="#000000">Description</text>
<polygon fill="none" stroke="#000000" points="212,-418.2 212,-440.2 380,-440.2 380,-418.2 212,-418.2"/>
<text text-anchor="start" x="249" y="-425.3" font-family="Helvetica,sans-Serif" font-size="11.00" fill="#000000">EnteredByUserId</text>
<polygon fill="none" stroke="#000000" points="212,-396.2 212,-418.2 380,-418.2 380,-396.2 212,-396.2"/>
<image xlink:href="../../images/foreignKeys.png" width="11px" height="12px" preserveAspectRatio="xMinYMin meet" x="217" y="-413.2"/>
<text text-anchor="start" x="249" y="-403.3" font-family="Helvetica,sans-Serif" font-size="11.00" fill="#000000">EmployeeId</text>
<polygon fill="none" stroke="#000000" points="212,-374.2 212,-396.2 380,-396.2 380,-374.2 212,-374.2"/>
<text text-anchor="start" x="249" y="-381.3" font-family="Helvetica,sans-Serif" font-size="11.00" fill="#000000">CreatedAtUtc</text>
<polygon fill="none" stroke="#000000" points="212,-352.2 212,-374.2 380,-374.2 380,-352.2 212,-352.2"/>
<text text-anchor="start" x="249" y="-359.3" font-family="Helvetica,sans-Serif" font-size="11.00" fill="#000000">UpdatedAtUtc</text>
<polygon fill="none" stroke="#000000" points="212,-330.2 212,-352.2 380,-352.2 380,-330.2 212,-330.2"/>
<text text-anchor="start" x="249" y="-337.3" font-family="Helvetica,sans-Serif" font-size="11.00" fill="#000000">RowVersion</text>
<polygon fill="#ffffff" stroke="transparent" points="212,-311.2 212,-330.2 294,-330.2 294,-311.2 212,-311.2"/>
<polygon fill="none" stroke="#000000" points="212,-311.2 212,-330.2 294,-330.2 294,-311.2 212,-311.2"/>
<text text-anchor="start" x="215" y="-317.3" font-family="Helvetica,sans-Serif" font-size="11.00" fill="#000000">&lt; 1</text>
<polygon fill="#ffffff" stroke="transparent" points="294,-311.2 294,-330.2 337,-330.2 337,-311.2 294,-311.2"/>
<polygon fill="none" stroke="#000000" points="294,-311.2 294,-330.2 337,-330.2 337,-311.2 294,-311.2"/>
<text text-anchor="start" x="327.8862" y="-317.3" font-family="Helvetica,sans-Serif" font-size="11.00" fill="#000000"> &#160;</text>
<polygon fill="#ffffff" stroke="transparent" points="337,-311.2 337,-330.2 380,-330.2 380,-311.2 337,-311.2"/>
<polygon fill="none" stroke="#000000" points="337,-311.2 337,-330.2 380,-330.2 380,-311.2 337,-311.2"/>
<text text-anchor="start" x="370.8862" y="-317.3" font-family="Helvetica,sans-Serif" font-size="11.00" fill="#000000"> &#160;</text>
</a>
</g>
</g>
<!-- Clinical.VisitEvents&#45;&gt;Employees -->
<g id="edge2" class="edge">
<title>Clinical.VisitEvents:w&#45;&gt;Employees:e</title>
<path fill="none" stroke="#000000" d="M197.6842,-403.7477C168.0872,-386.4682 193.7984,-310.2 148,-310.2"/>
<polygon fill="#000000" stroke="#000000" points="204.2229,-405.3245 211.156,-410.6997 208.1115,-406.2623 212,-407.2 212,-407.2 212,-407.2 208.1115,-406.2623 212.844,-403.7003 204.2229,-405.3245 204.2229,-405.3245"/>
<ellipse fill="none" stroke="#000000" cx="201.1121" cy="-404.5743" rx="3.2" ry="3.2"/>
</g>
<!-- Clinical.VisitAttendants -->
<g id="node3" class="node">
<title>Clinical.VisitAttendants</title>
<g id="a_node3"><a xlink:title="Clinical.VisitAttendants">
<polygon fill="#ffffff" stroke="transparent" points="197,-116.2 197,-290.2 395,-290.2 395,-116.2 197,-116.2"/>
<polygon fill="#f5f5f5" stroke="transparent" points="197,-267.2 197,-290.2 395,-290.2 395,-267.2 197,-267.2"/>
<polygon fill="none" stroke="#000000" points="197,-267.2 197,-290.2 395,-290.2 395,-267.2 197,-267.2"/>
<text text-anchor="start" x="202" y="-275.8" font-family="Helvetica,sans-Serif" font-weight="bold" font-size="11.00" fill="#000000">Clinical.VisitAttendants</text>
<text text-anchor="start" x="360.5219" y="-275.3" font-family="Helvetica,sans-Serif" font-size="11.00" fill="#000000">[table]</text>
<polygon fill="none" stroke="#000000" points="197,-245.2 197,-267.2 395,-267.2 395,-245.2 197,-245.2"/>
<text text-anchor="start" x="253" y="-252.3" font-family="Helvetica,sans-Serif" font-size="11.00" fill="#000000">Id</text>
<polygon fill="none" stroke="#000000" points="197,-223.2 197,-245.2 395,-245.2 395,-223.2 197,-223.2"/>
<text text-anchor="start" x="253" y="-230.3" font-family="Helvetica,sans-Serif" font-size="11.00" fill="#000000">VisitId</text>
<polygon fill="none" stroke="#000000" points="197,-201.2 197,-223.2 395,-223.2 395,-201.2 197,-201.2"/>
<image xlink:href="../../images/foreignKeys.png" width="11px" height="12px" preserveAspectRatio="xMinYMin meet" x="202" y="-218.2"/>
<text text-anchor="start" x="253" y="-208.3" font-family="Helvetica,sans-Serif" font-size="11.00" fill="#000000">EmployeeId</text>
<polygon fill="none" stroke="#000000" points="197,-179.2 197,-201.2 395,-201.2 395,-179.2 197,-179.2"/>
<text text-anchor="start" x="253" y="-186.3" font-family="Helvetica,sans-Serif" font-size="11.00" fill="#000000">CreatedAtUtc</text>
<polygon fill="none" stroke="#000000" points="197,-157.2 197,-179.2 395,-179.2 395,-157.2 197,-157.2"/>
<text text-anchor="start" x="253" y="-164.3" font-family="Helvetica,sans-Serif" font-size="11.00" fill="#000000">UpdatedAtUtc</text>
<polygon fill="none" stroke="#000000" points="197,-135.2 197,-157.2 395,-157.2 395,-135.2 197,-135.2"/>
<text text-anchor="start" x="253" y="-142.3" font-family="Helvetica,sans-Serif" font-size="11.00" fill="#000000">RowVersion</text>
<polygon fill="#ffffff" stroke="transparent" points="197,-116.2 197,-135.2 294,-135.2 294,-116.2 197,-116.2"/>
<polygon fill="none" stroke="#000000" points="197,-116.2 197,-135.2 294,-135.2 294,-116.2 197,-116.2"/>
<text text-anchor="start" x="200" y="-122.3" font-family="Helvetica,sans-Serif" font-size="11.00" fill="#000000">&lt; 1</text>
<polygon fill="#ffffff" stroke="transparent" points="294,-116.2 294,-135.2 344,-135.2 344,-116.2 294,-116.2"/>
<polygon fill="none" stroke="#000000" points="294,-116.2 294,-135.2 344,-135.2 344,-116.2 294,-116.2"/>
<text text-anchor="start" x="334.8862" y="-122.3" font-family="Helvetica,sans-Serif" font-size="11.00" fill="#000000"> &#160;</text>
<polygon fill="#ffffff" stroke="transparent" points="344,-116.2 344,-135.2 395,-135.2 395,-116.2 344,-116.2"/>
<polygon fill="none" stroke="#000000" points="344,-116.2 344,-135.2 395,-135.2 395,-116.2 344,-116.2"/>
<text text-anchor="start" x="385.8862" y="-122.3" font-family="Helvetica,sans-Serif" font-size="11.00" fill="#000000"> &#160;</text>
</a>
</g>
</g>
<!-- Clinical.VisitAttendants&#45;&gt;Employees -->
<g id="edge1" class="edge">
<title>Clinical.VisitAttendants:w&#45;&gt;Employees:e</title>
<path fill="none" stroke="#000000" d="M182.9106,-216.4109C158.8847,-235.1688 190.6095,-310.2 148,-310.2"/>
<polygon fill="#000000" stroke="#000000" points="189.335,-214.4909 198.0309,-215.6492 193.1675,-213.3454 197,-212.2 197,-212.2 197,-212.2 193.1675,-213.3454 195.9691,-208.7508 189.335,-214.4909 189.335,-214.4909"/>
<ellipse fill="none" stroke="#000000" cx="186.269" cy="-215.4073" rx="3.2" ry="3.2"/>
</g>
</g>
</svg>
