<?xml version="1.0" encoding="UTF-8" standalone="no"?>
<!DOCTYPE svg PUBLIC "-//W3C//DTD SVG 1.1//EN"
 "http://www.w3.org/Graphics/SVG/1.1/DTD/svg11.dtd">
<!-- Generated by graphviz version 2.40.1 (20161225.0304)
 -->
<!-- Title: compactRelationshipsDiagram Pages: 1 -->
<svg width="411pt" height="237pt"
 viewBox="0.00 0.00 411.00 237.20" xmlns="http://www.w3.org/2000/svg" xmlns:xlink="http://www.w3.org/1999/xlink">
<g id="graph0" class="graph" transform="scale(1 1) rotate(0) translate(4 233.2)">
<title>compactRelationshipsDiagram</title>
<polygon fill="#ffffff" stroke="transparent" points="-4,4 -4,-233.2 407,-233.2 407,4 -4,4"/>
<text text-anchor="middle" x="72.4936" y="-7.3" font-family="Helvetica,sans-Serif" font-size="11.00" fill="#000000">Generated by SchemaSpy</text>
<!-- Employees -->
<g id="node1" class="node">
<title>Employees</title>
<g id="a_node1"><a xlink:href="../../tables/Employees.html" xlink:title="Employees" target="_top">
<polygon fill="#ffffff" stroke="transparent" points="8,-90.2 8,-173.2 148,-173.2 148,-90.2 8,-90.2"/>
<polygon fill="#f5f5f5" stroke="transparent" points="8,-149.7 8,-172.7 148,-172.7 148,-149.7 8,-149.7"/>
<polygon fill="none" stroke="#000000" points="8,-149.7 8,-172.7 148,-172.7 148,-149.7 8,-149.7"/>
<text text-anchor="start" x="13" y="-158.3" font-family="Helvetica,sans-Serif" font-weight="bold" font-size="11.00" fill="#000000">Employees</text>
<text text-anchor="start" x="113.0437" y="-157.8" font-family="Helvetica,sans-Serif" font-size="11.00" fill="#000000">[table]</text>
<polygon fill="none" stroke="#000000" points="8,-127.7 8,-149.7 148,-149.7 148,-127.7 8,-127.7"/>
<image xlink:href="../../images/primaryKeys.png" width="11px" height="12px" preserveAspectRatio="xMinYMin meet" x="13" y="-144.7"/>
<text text-anchor="start" x="28" y="-134.8" font-family="Helvetica,sans-Serif" font-size="11.00" fill="#000000">Id</text>
<polygon fill="none" stroke="#000000" points="8,-108.7 8,-127.7 148,-127.7 148,-108.7 8,-108.7"/>
<text text-anchor="start" x="11" y="-114.8" font-family="Helvetica,sans-Serif" font-size="11.00" fill="#000000">...</text>
<polygon fill="#ffffff" stroke="transparent" points="8,-89.7 8,-108.7 67,-108.7 67,-89.7 8,-89.7"/>
<polygon fill="none" stroke="#000000" points="8,-89.7 8,-108.7 67,-108.7 67,-89.7 8,-89.7"/>
<text text-anchor="start" x="11" y="-95.8" font-family="Helvetica,sans-Serif" font-size="11.00" fill="#000000"> &#160;</text>
<polygon fill="#ffffff" stroke="transparent" points="67,-89.7 67,-108.7 103,-108.7 103,-89.7 67,-89.7"/>
<polygon fill="none" stroke="#000000" points="67,-89.7 67,-108.7 103,-108.7 103,-89.7 67,-89.7"/>
<text text-anchor="start" x="93.8862" y="-95.8" font-family="Helvetica,sans-Serif" font-size="11.00" fill="#000000"> &#160;</text>
<polygon fill="#ffffff" stroke="transparent" points="103,-89.7 103,-108.7 148,-108.7 148,-89.7 103,-89.7"/>
<polygon fill="none" stroke="#000000" points="103,-89.7 103,-108.7 148,-108.7 148,-89.7 103,-89.7"/>
<text text-anchor="start" x="129.4053" y="-95.8" font-family="Helvetica,sans-Serif" font-size="11.00" fill="#000000">2 &gt;</text>
</a>
</g>
</g>
<!-- Clinical.VisitEvents -->
<g id="node2" class="node">
<title>Clinical.VisitEvents</title>
<g id="a_node2"><a xlink:title="Clinical.VisitEvents">
<polygon fill="#ffffff" stroke="transparent" points="212,-142.2 212,-225.2 380,-225.2 380,-142.2 212,-142.2"/>
<polygon fill="#f5f5f5" stroke="transparent" points="212,-201.7 212,-224.7 380,-224.7 380,-201.7 212,-201.7"/>
<polygon fill="none" stroke="#000000" points="212,-201.7 212,-224.7 380,-224.7 380,-201.7 212,-201.7"/>
<text text-anchor="start" x="217" y="-210.3" font-family="Helvetica,sans-Serif" font-weight="bold" font-size="11.00" fill="#000000">Clinical.VisitEvents</text>
<text text-anchor="start" x="345.5219" y="-209.8" font-family="Helvetica,sans-Serif" font-size="11.00" fill="#000000">[table]</text>
<polygon fill="none" stroke="#000000" points="212,-179.7 212,-201.7 380,-201.7 380,-179.7 212,-179.7"/>
<image xlink:href="../../images/foreignKeys.png" width="11px" height="12px" preserveAspectRatio="xMinYMin meet" x="217" y="-196.7"/>
<text text-anchor="start" x="249" y="-186.8" font-family="Helvetica,sans-Serif" font-size="11.00" fill="#000000">EmployeeId</text>
<polygon fill="none" stroke="#000000" points="212,-160.7 212,-179.7 380,-179.7 380,-160.7 212,-160.7"/>
<text text-anchor="start" x="215" y="-166.8" font-family="Helvetica,sans-Serif" font-size="11.00" fill="#000000">...</text>
<polygon fill="#ffffff" stroke="transparent" points="212,-141.7 212,-160.7 294,-160.7 294,-141.7 212,-141.7"/>
<polygon fill="none" stroke="#000000" points="212,-141.7 212,-160.7 294,-160.7 294,-141.7 212,-141.7"/>
<text text-anchor="start" x="215" y="-147.8" font-family="Helvetica,sans-Serif" font-size="11.00" fill="#000000">&lt; 1</text>
<polygon fill="#ffffff" stroke="transparent" points="294,-141.7 294,-160.7 337,-160.7 337,-141.7 294,-141.7"/>
<polygon fill="none" stroke="#000000" points="294,-141.7 294,-160.7 337,-160.7 337,-141.7 294,-141.7"/>
<text text-anchor="start" x="327.8862" y="-147.8" font-family="Helvetica,sans-Serif" font-size="11.00" fill="#000000"> &#160;</text>
<polygon fill="#ffffff" stroke="transparent" points="337,-141.7 337,-160.7 380,-160.7 380,-141.7 337,-141.7"/>
<polygon fill="none" stroke="#000000" points="337,-141.7 337,-160.7 380,-160.7 380,-141.7 337,-141.7"/>
<text text-anchor="start" x="370.8862" y="-147.8" font-family="Helvetica,sans-Serif" font-size="11.00" fill="#000000"> &#160;</text>
</a>
</g>
</g>
<!-- Clinical.VisitEvents&#45;&gt;Employees -->
<g id="edge2" class="edge">
<title>Clinical.VisitEvents:w&#45;&gt;Employees:e</title>
<path fill="none" stroke="#000000" d="M197.8353,-187.2881C177.1345,-175.7195 178.9233,-138.7 148,-138.7"/>
<polygon fill="#000000" stroke="#000000" points="204.2224,-188.8266 211.157,-194.1999 208.1112,-189.7633 212,-190.7 212,-190.7 212,-190.7 208.1112,-189.7633 212.843,-187.2001 204.2224,-188.8266 204.2224,-188.8266"/>
<ellipse fill="none" stroke="#000000" cx="201.1114" cy="-188.0772" rx="3.2" ry="3.2"/>
</g>
<!-- Clinical.VisitAttendants -->
<g id="node3" class="node">
<title>Clinical.VisitAttendants</title>
<g id="a_node3"><a xlink:title="Clinical.VisitAttendants">
<polygon fill="#ffffff" stroke="transparent" points="197,-38.2 197,-121.2 395,-121.2 395,-38.2 197,-38.2"/>
<polygon fill="#f5f5f5" stroke="transparent" points="197,-97.7 197,-120.7 395,-120.7 395,-97.7 197,-97.7"/>
<polygon fill="none" stroke="#000000" points="197,-97.7 197,-120.7 395,-120.7 395,-97.7 197,-97.7"/>
<text text-anchor="start" x="202" y="-106.3" font-family="Helvetica,sans-Serif" font-weight="bold" font-size="11.00" fill="#000000">Clinical.VisitAttendants</text>
<text text-anchor="start" x="360.5219" y="-105.8" font-family="Helvetica,sans-Serif" font-size="11.00" fill="#000000">[table]</text>
<polygon fill="none" stroke="#000000" points="197,-75.7 197,-97.7 395,-97.7 395,-75.7 197,-75.7"/>
<image xlink:href="../../images/foreignKeys.png" width="11px" height="12px" preserveAspectRatio="xMinYMin meet" x="202" y="-92.7"/>
<text text-anchor="start" x="253" y="-82.8" font-family="Helvetica,sans-Serif" font-size="11.00" fill="#000000">EmployeeId</text>
<polygon fill="none" stroke="#000000" points="197,-56.7 197,-75.7 395,-75.7 395,-56.7 197,-56.7"/>
<text text-anchor="start" x="200" y="-62.8" font-family="Helvetica,sans-Serif" font-size="11.00" fill="#000000">...</text>
<polygon fill="#ffffff" stroke="transparent" points="197,-37.7 197,-56.7 294,-56.7 294,-37.7 197,-37.7"/>
<polygon fill="none" stroke="#000000" points="197,-37.7 197,-56.7 294,-56.7 294,-37.7 197,-37.7"/>
<text text-anchor="start" x="200" y="-43.8" font-family="Helvetica,sans-Serif" font-size="11.00" fill="#000000">&lt; 1</text>
<polygon fill="#ffffff" stroke="transparent" points="294,-37.7 294,-56.7 344,-56.7 344,-37.7 294,-37.7"/>
<polygon fill="none" stroke="#000000" points="294,-37.7 294,-56.7 344,-56.7 344,-37.7 294,-37.7"/>
<text text-anchor="start" x="334.8862" y="-43.8" font-family="Helvetica,sans-Serif" font-size="11.00" fill="#000000"> &#160;</text>
<polygon fill="#ffffff" stroke="transparent" points="344,-37.7 344,-56.7 395,-56.7 395,-37.7 344,-37.7"/>
<polygon fill="none" stroke="#000000" points="344,-37.7 344,-56.7 395,-56.7 395,-37.7 344,-37.7"/>
<text text-anchor="start" x="385.8862" y="-43.8" font-family="Helvetica,sans-Serif" font-size="11.00" fill="#000000"> &#160;</text>
</a>
</g>
</g>
<!-- Clinical.VisitAttendants&#45;&gt;Employees -->
<g id="edge1" class="edge">
<title>Clinical.VisitAttendants:w&#45;&gt;Employees:e</title>
<path fill="none" stroke="#000000" d="M183.4073,-91.4988C169.0597,-104.3719 173.8011,-138.7 148,-138.7"/>
<polygon fill="#000000" stroke="#000000" points="189.4563,-89.3633 198.1985,-90.0947 193.2282,-88.0316 197,-86.7 197,-86.7 197,-86.7 193.2282,-88.0316 195.8015,-83.3053 189.4563,-89.3633 189.4563,-89.3633"/>
<ellipse fill="none" stroke="#000000" cx="186.4388" cy="-90.4286" rx="3.2" ry="3.2"/>
</g>
</g>
</svg>
