<?xml version="1.0" encoding="UTF-8" standalone="no"?>
<!DOCTYPE svg PUBLIC "-//W3C//DTD SVG 1.1//EN"
 "http://www.w3.org/Graphics/SVG/1.1/DTD/svg11.dtd">
<!-- Generated by graphviz version 2.40.1 (20161225.0304)
 -->
<!-- Title: oneDegreeRelationshipsDiagram Pages: 1 -->
<svg width="462pt" height="293pt"
 viewBox="0.00 0.00 462.00 292.70" xmlns="http://www.w3.org/2000/svg" xmlns:xlink="http://www.w3.org/1999/xlink">
<g id="graph0" class="graph" transform="scale(1 1) rotate(0) translate(4 288.7)">
<title>oneDegreeRelationshipsDiagram</title>
<polygon fill="#ffffff" stroke="transparent" points="-4,4 -4,-288.7 458,-288.7 458,4 -4,4"/>
<text text-anchor="middle" x="72.4936" y="-7.3" font-family="Helvetica,sans-Serif" font-size="11.00" fill="#000000">Generated by SchemaSpy</text>
<!-- VisitServiceBillings -->
<g id="node1" class="node">
<title>VisitServiceBillings</title>
<g id="a_node1"><a xlink:href="../../tables/VisitServiceBillings.html" xlink:title="VisitServiceBillings" target="_top">
<polygon fill="#ffffff" stroke="transparent" points="266,-131.7 266,-280.7 446,-280.7 446,-131.7 266,-131.7"/>
<polygon fill="#f5f5f5" stroke="transparent" points="266,-257.2 266,-280.2 446,-280.2 446,-257.2 266,-257.2"/>
<polygon fill="none" stroke="#000000" points="266,-257.2 266,-280.2 446,-280.2 446,-257.2 266,-257.2"/>
<text text-anchor="start" x="271" y="-265.8" font-family="Helvetica,sans-Serif" font-weight="bold" font-size="11.00" fill="#000000">VisitServiceBillings</text>
<text text-anchor="start" x="411.5219" y="-265.3" font-family="Helvetica,sans-Serif" font-size="11.00" fill="#000000">[table]</text>
<polygon fill="none" stroke="#000000" points="266,-235.2 266,-257.2 446,-257.2 446,-235.2 266,-235.2"/>
<image xlink:href="../../images/primaryKeys.png" width="11px" height="12px" preserveAspectRatio="xMinYMin meet" x="271" y="-252.2"/>
<text text-anchor="start" x="295" y="-242.3" font-family="Helvetica,sans-Serif" font-size="11.00" fill="#000000">Id</text>
<polygon fill="#ffffff" stroke="transparent" points="266,-213.2 266,-235.2 446,-235.2 446,-213.2 266,-213.2"/>
<polygon fill="none" stroke="#000000" points="266,-213.2 266,-235.2 446,-235.2 446,-213.2 266,-213.2"/>
<image xlink:href="../../images/foreignKeys.png" width="11px" height="12px" preserveAspectRatio="xMinYMin meet" x="271" y="-230.2"/>
<text text-anchor="start" x="295" y="-220.3" font-family="Helvetica,sans-Serif" font-size="11.00" fill="#000000">VisitId</text>
<polygon fill="#ffffff" stroke="transparent" points="266,-191.2 266,-213.2 446,-213.2 446,-191.2 266,-191.2"/>
<polygon fill="none" stroke="#000000" points="266,-191.2 266,-213.2 446,-213.2 446,-191.2 266,-191.2"/>
<image xlink:href="../../images/foreignKeys.png" width="11px" height="12px" preserveAspectRatio="xMinYMin meet" x="271" y="-208.2"/>
<text text-anchor="start" x="295" y="-198.3" font-family="Helvetica,sans-Serif" font-size="11.00" fill="#000000">ServiceTypeId</text>
<polygon fill="#ffffff" stroke="transparent" points="266,-169.2 266,-191.2 446,-191.2 446,-169.2 266,-169.2"/>
<polygon fill="none" stroke="#000000" points="266,-169.2 266,-191.2 446,-191.2 446,-169.2 266,-169.2"/>
<image xlink:href="../../images/foreignKeys.png" width="11px" height="12px" preserveAspectRatio="xMinYMin meet" x="271" y="-186.2"/>
<text text-anchor="start" x="295" y="-176.3" font-family="Helvetica,sans-Serif" font-size="11.00" fill="#000000">BillingCodeId</text>
<polygon fill="none" stroke="#000000" points="266,-150.2 266,-169.2 446,-169.2 446,-150.2 266,-150.2"/>
<text text-anchor="start" x="269" y="-156.3" font-family="Helvetica,sans-Serif" font-size="11.00" fill="#000000">...</text>
<polygon fill="#ffffff" stroke="transparent" points="266,-131.2 266,-150.2 446,-150.2 446,-131.2 266,-131.2"/>
<polygon fill="none" stroke="#000000" points="266,-131.2 266,-150.2 446,-150.2 446,-131.2 266,-131.2"/>
<polygon fill="#ffffff" stroke="transparent" points="267,-132.2 267,-149.2 333,-149.2 333,-132.2 267,-132.2"/>
<text text-anchor="start" x="269" y="-137.3" font-family="Helvetica,sans-Serif" font-size="11.00" fill="#000000">&lt; 3</text>
<polygon fill="#ffffff" stroke="transparent" points="333,-132.2 333,-149.2 389,-149.2 389,-132.2 333,-132.2"/>
<text text-anchor="start" x="357.9431" y="-137.3" font-family="Helvetica,sans-Serif" font-size="11.00" fill="#000000"> &#160;</text>
<polygon fill="#ffffff" stroke="transparent" points="389,-132.2 389,-149.2 445,-149.2 445,-132.2 389,-132.2"/>
<text text-anchor="start" x="436.8862" y="-137.3" font-family="Helvetica,sans-Serif" font-size="11.00" fill="#000000"> &#160;</text>
<polygon fill="#000000" stroke="#000000" points="333,-132.2 333,-149.2 333,-149.2 333,-132.2 333,-132.2"/>
<polygon fill="#000000" stroke="#000000" points="389,-132.2 389,-149.2 389,-149.2 389,-132.2 389,-132.2"/>
</a>
</g>
</g>
<!-- BillingCodes -->
<g id="node2" class="node">
<title>BillingCodes</title>
<g id="a_node2"><a xlink:href="../../tables/BillingCodes.html" xlink:title="BillingCodes" target="_top">
<polygon fill="#ffffff" stroke="transparent" points="8,-38.2 8,-216.2 217,-216.2 217,-38.2 8,-38.2"/>
<polygon fill="#f5f5f5" stroke="transparent" points="10.5,-191.2 10.5,-214.2 215.5,-214.2 215.5,-191.2 10.5,-191.2"/>
<polygon fill="none" stroke="#000000" points="10.5,-191.2 10.5,-214.2 215.5,-214.2 215.5,-191.2 10.5,-191.2"/>
<text text-anchor="start" x="15.5" y="-199.8" font-family="Helvetica,sans-Serif" font-weight="bold" font-size="11.00" fill="#000000">BillingCodes</text>
<text text-anchor="start" x="180.5437" y="-199.3" font-family="Helvetica,sans-Serif" font-size="11.00" fill="#000000">[table]</text>
<polygon fill="none" stroke="#000000" points="10.5,-169.2 10.5,-191.2 134.5,-191.2 134.5,-169.2 10.5,-169.2"/>
<image xlink:href="../../images/primaryKeys.png" width="11px" height="12px" preserveAspectRatio="xMinYMin meet" x="15.5" y="-186.2"/>
<text text-anchor="start" x="30.5" y="-176.3" font-family="Helvetica,sans-Serif" font-size="11.00" fill="#000000">Id</text>
<polygon fill="none" stroke="#000000" points="134.5,-169.2 134.5,-191.2 215.5,-191.2 215.5,-169.2 134.5,-169.2"/>
<text text-anchor="start" x="137.5" y="-176.9" font-family="Helvetica,sans-Serif" font-size="11.00" fill="#000000">int[4]</text>
<polygon fill="#ffffff" stroke="transparent" points="10.5,-147.2 10.5,-169.2 134.5,-169.2 134.5,-147.2 10.5,-147.2"/>
<polygon fill="none" stroke="#000000" points="10.5,-147.2 10.5,-169.2 134.5,-169.2 134.5,-147.2 10.5,-147.2"/>
<text text-anchor="start" x="30.5" y="-154.3" font-family="Helvetica,sans-Serif" font-size="11.00" fill="#000000">Code</text>
<polygon fill="none" stroke="#000000" points="134.5,-147.2 134.5,-169.2 215.5,-169.2 215.5,-147.2 134.5,-147.2"/>
<text text-anchor="start" x="137.5" y="-154.9" font-family="Helvetica,sans-Serif" font-size="11.00" fill="#000000">varchar[20]</text>
<polygon fill="none" stroke="#000000" points="10.5,-125.2 10.5,-147.2 134.5,-147.2 134.5,-125.2 10.5,-125.2"/>
<text text-anchor="start" x="30.5" y="-132.3" font-family="Helvetica,sans-Serif" font-size="11.00" fill="#000000">Description</text>
<polygon fill="none" stroke="#000000" points="134.5,-125.2 134.5,-147.2 215.5,-147.2 215.5,-125.2 134.5,-125.2"/>
<text text-anchor="start" x="137.5" y="-132.9" font-family="Helvetica,sans-Serif" font-size="11.00" fill="#000000">nvarchar[400]</text>
<polygon fill="none" stroke="#000000" points="10.5,-103.2 10.5,-125.2 134.5,-125.2 134.5,-103.2 10.5,-103.2"/>
<text text-anchor="start" x="30.5" y="-110.3" font-family="Helvetica,sans-Serif" font-size="11.00" fill="#000000">CreatedAtUtc</text>
<polygon fill="none" stroke="#000000" points="134.5,-103.2 134.5,-125.2 215.5,-125.2 215.5,-103.2 134.5,-103.2"/>
<text text-anchor="start" x="137.0967" y="-110.9" font-family="Helvetica,sans-Serif" font-size="11.00" fill="#000000">datetime2[16,7]</text>
<polygon fill="none" stroke="#000000" points="10.5,-81.2 10.5,-103.2 134.5,-103.2 134.5,-81.2 10.5,-81.2"/>
<text text-anchor="start" x="30.5" y="-88.3" font-family="Helvetica,sans-Serif" font-size="11.00" fill="#000000">UpdatedAtUtc</text>
<polygon fill="none" stroke="#000000" points="134.5,-81.2 134.5,-103.2 215.5,-103.2 215.5,-81.2 134.5,-81.2"/>
<text text-anchor="start" x="137.0967" y="-88.9" font-family="Helvetica,sans-Serif" font-size="11.00" fill="#000000">datetime2[16,7]</text>
<polygon fill="none" stroke="#000000" points="10.5,-59.2 10.5,-81.2 134.5,-81.2 134.5,-59.2 10.5,-59.2"/>
<text text-anchor="start" x="30.5" y="-66.3" font-family="Helvetica,sans-Serif" font-size="11.00" fill="#000000">RowVersion</text>
<polygon fill="none" stroke="#000000" points="134.5,-59.2 134.5,-81.2 215.5,-81.2 215.5,-59.2 134.5,-59.2"/>
<text text-anchor="start" x="137.5" y="-66.9" font-family="Helvetica,sans-Serif" font-size="11.00" fill="#000000">timestamp[8]</text>
<polygon fill="#ffffff" stroke="transparent" points="10.5,-40.2 10.5,-59.2 215.5,-59.2 215.5,-40.2 10.5,-40.2"/>
<polygon fill="none" stroke="#000000" points="10.5,-40.2 10.5,-59.2 215.5,-59.2 215.5,-40.2 10.5,-40.2"/>
<polygon fill="#ffffff" stroke="transparent" points="11.5,-41.2 11.5,-58.2 82.5,-58.2 82.5,-41.2 11.5,-41.2"/>
<text text-anchor="start" x="13.5" y="-46.3" font-family="Helvetica,sans-Serif" font-size="11.00" fill="#000000">&lt; 0</text>
<polygon fill="#ffffff" stroke="transparent" points="82.5,-41.2 82.5,-58.2 144.5,-58.2 144.5,-41.2 82.5,-41.2"/>
<text text-anchor="start" x="110.4431" y="-46.3" font-family="Helvetica,sans-Serif" font-size="11.00" fill="#000000"> &#160;</text>
<polygon fill="#ffffff" stroke="transparent" points="144.5,-41.2 144.5,-58.2 214.5,-58.2 214.5,-41.2 144.5,-41.2"/>
<text text-anchor="start" x="196.9053" y="-46.3" font-family="Helvetica,sans-Serif" font-size="11.00" fill="#000000">1 &gt;</text>
<polygon fill="#000000" stroke="#000000" points="82.5,-41.2 82.5,-58.2 82.5,-58.2 82.5,-41.2 82.5,-41.2"/>
<polygon fill="#000000" stroke="#000000" points="144.5,-41.2 144.5,-58.2 144.5,-58.2 144.5,-41.2 144.5,-41.2"/>
<polygon fill="none" stroke="#000000" stroke-width="2" points="9,-39.2 9,-215.2 216,-215.2 216,-39.2 9,-39.2"/>
</a>
</g>
</g>
<!-- VisitServiceBillings&#45;&gt;BillingCodes -->
<g id="edge1" class="edge">
<title>VisitServiceBillings:w&#45;&gt;BillingCodes:e</title>
<path fill="none" stroke="#000000" d="M251.4203,-180.2C239.5435,-180.2 232.158,-180.2 215.5,-180.2"/>
<polygon fill="#000000" stroke="#000000" points="258,-180.2001 266,-183.8 262,-180.2 266,-180.2 266,-180.2 266,-180.2 262,-180.2 266,-176.6 258,-180.2001 258,-180.2001"/>
<ellipse fill="none" stroke="#000000" cx="254.8" cy="-180.2001" rx="3.2" ry="3.2"/>
</g>
</g>
</svg>
