<?xml version="1.0" encoding="UTF-8" standalone="no"?>
<!DOCTYPE svg PUBLIC "-//W3C//DTD SVG 1.1//EN"
 "http://www.w3.org/Graphics/SVG/1.1/DTD/svg11.dtd">
<!-- Generated by graphviz version 2.40.1 (20161225.0304)
 -->
<!-- Title: twoDegreesRelationshipsDiagram Pages: 1 -->
<svg width="501pt" height="434pt"
 viewBox="0.00 0.00 501.00 433.70" xmlns="http://www.w3.org/2000/svg" xmlns:xlink="http://www.w3.org/1999/xlink">
<g id="graph0" class="graph" transform="scale(1 1) rotate(0) translate(4 429.7)">
<title>twoDegreesRelationshipsDiagram</title>
<polygon fill="#ffffff" stroke="transparent" points="-4,4 -4,-429.7 497,-429.7 497,4 -4,4"/>
<text text-anchor="middle" x="72.4936" y="-7.3" font-family="Helvetica,sans-Serif" font-size="11.00" fill="#000000">Generated by SchemaSpy</text>
<!-- ServiceTypeBillingCodes -->
<g id="node1" class="node">
<title>ServiceTypeBillingCodes</title>
<g id="a_node1"><a xlink:href="../../tables/ServiceTypeBillingCodes.html" xlink:title="ServiceTypeBillingCodes" target="_top">
<polygon fill="#ffffff" stroke="transparent" points="266,-124.7 266,-251.7 485,-251.7 485,-124.7 266,-124.7"/>
<polygon fill="#f5f5f5" stroke="transparent" points="266.5,-228.2 266.5,-251.2 485.5,-251.2 485.5,-228.2 266.5,-228.2"/>
<polygon fill="none" stroke="#000000" points="266.5,-228.2 266.5,-251.2 485.5,-251.2 485.5,-228.2 266.5,-228.2"/>
<text text-anchor="start" x="271.5" y="-236.8" font-family="Helvetica,sans-Serif" font-weight="bold" font-size="11.00" fill="#000000">ServiceTypeBillingCodes</text>
<text text-anchor="start" x="451.0219" y="-236.3" font-family="Helvetica,sans-Serif" font-size="11.00" fill="#000000">[table]</text>
<polygon fill="none" stroke="#000000" points="266.5,-206.2 266.5,-228.2 485.5,-228.2 485.5,-206.2 266.5,-206.2"/>
<image xlink:href="../../images/primaryKeys.png" width="11px" height="12px" preserveAspectRatio="xMinYMin meet" x="271.5" y="-223.2"/>
<text text-anchor="start" x="295.5" y="-213.3" font-family="Helvetica,sans-Serif" font-size="11.00" fill="#000000">Id</text>
<polygon fill="#ffffff" stroke="transparent" points="266.5,-184.2 266.5,-206.2 485.5,-206.2 485.5,-184.2 266.5,-184.2"/>
<polygon fill="none" stroke="#000000" points="266.5,-184.2 266.5,-206.2 485.5,-206.2 485.5,-184.2 266.5,-184.2"/>
<image xlink:href="../../images/foreignKeys.png" width="11px" height="12px" preserveAspectRatio="xMinYMin meet" x="271.5" y="-201.2"/>
<text text-anchor="start" x="295.5" y="-191.3" font-family="Helvetica,sans-Serif" font-size="11.00" fill="#000000">ServiceTypeId</text>
<polygon fill="#ffffff" stroke="transparent" points="266.5,-162.2 266.5,-184.2 485.5,-184.2 485.5,-162.2 266.5,-162.2"/>
<polygon fill="none" stroke="#000000" points="266.5,-162.2 266.5,-184.2 485.5,-184.2 485.5,-162.2 266.5,-162.2"/>
<image xlink:href="../../images/foreignKeys.png" width="11px" height="12px" preserveAspectRatio="xMinYMin meet" x="271.5" y="-179.2"/>
<text text-anchor="start" x="295.5" y="-169.3" font-family="Helvetica,sans-Serif" font-size="11.00" fill="#000000">BillingCodeId</text>
<polygon fill="none" stroke="#000000" points="266.5,-143.2 266.5,-162.2 485.5,-162.2 485.5,-143.2 266.5,-143.2"/>
<text text-anchor="start" x="269.5" y="-149.3" font-family="Helvetica,sans-Serif" font-size="11.00" fill="#000000">...</text>
<polygon fill="#ffffff" stroke="transparent" points="266.5,-124.2 266.5,-143.2 485.5,-143.2 485.5,-124.2 266.5,-124.2"/>
<polygon fill="none" stroke="#000000" points="266.5,-124.2 266.5,-143.2 485.5,-143.2 485.5,-124.2 266.5,-124.2"/>
<polygon fill="#ffffff" stroke="transparent" points="267.5,-125.2 267.5,-142.2 346.5,-142.2 346.5,-125.2 267.5,-125.2"/>
<text text-anchor="start" x="269.5" y="-130.3" font-family="Helvetica,sans-Serif" font-size="11.00" fill="#000000">&lt; 2</text>
<polygon fill="#ffffff" stroke="transparent" points="346.5,-125.2 346.5,-142.2 415.5,-142.2 415.5,-125.2 346.5,-125.2"/>
<text text-anchor="start" x="377.9431" y="-130.3" font-family="Helvetica,sans-Serif" font-size="11.00" fill="#000000"> &#160;</text>
<polygon fill="#ffffff" stroke="transparent" points="415.5,-125.2 415.5,-142.2 484.5,-142.2 484.5,-125.2 415.5,-125.2"/>
<text text-anchor="start" x="476.3862" y="-130.3" font-family="Helvetica,sans-Serif" font-size="11.00" fill="#000000"> &#160;</text>
<polygon fill="#000000" stroke="#000000" points="346.5,-125.2 346.5,-142.2 346.5,-142.2 346.5,-125.2 346.5,-125.2"/>
<polygon fill="#000000" stroke="#000000" points="415.5,-125.2 415.5,-142.2 415.5,-142.2 415.5,-125.2 415.5,-125.2"/>
</a>
</g>
</g>
<!-- BillingCodes -->
<g id="node2" class="node">
<title>BillingCodes</title>
<g id="a_node2"><a xlink:href="../../tables/BillingCodes.html" xlink:title="BillingCodes" target="_top">
<polygon fill="#ffffff" stroke="transparent" points="8,-38.2 8,-216.2 217,-216.2 217,-38.2 8,-38.2"/>
<polygon fill="#f5f5f5" stroke="transparent" points="10.5,-191.2 10.5,-214.2 215.5,-214.2 215.5,-191.2 10.5,-191.2"/>
<polygon fill="none" stroke="#000000" points="10.5,-191.2 10.5,-214.2 215.5,-214.2 215.5,-191.2 10.5,-191.2"/>
<text text-anchor="start" x="15.5" y="-199.8" font-family="Helvetica,sans-Serif" font-weight="bold" font-size="11.00" fill="#000000">BillingCodes</text>
<text text-anchor="start" x="180.5437" y="-199.3" font-family="Helvetica,sans-Serif" font-size="11.00" fill="#000000">[table]</text>
<polygon fill="none" stroke="#000000" points="10.5,-169.2 10.5,-191.2 134.5,-191.2 134.5,-169.2 10.5,-169.2"/>
<image xlink:href="../../images/primaryKeys.png" width="11px" height="12px" preserveAspectRatio="xMinYMin meet" x="15.5" y="-186.2"/>
<text text-anchor="start" x="30.5" y="-176.3" font-family="Helvetica,sans-Serif" font-size="11.00" fill="#000000">Id</text>
<polygon fill="none" stroke="#000000" points="134.5,-169.2 134.5,-191.2 215.5,-191.2 215.5,-169.2 134.5,-169.2"/>
<text text-anchor="start" x="137.5" y="-176.9" font-family="Helvetica,sans-Serif" font-size="11.00" fill="#000000">int[4]</text>
<polygon fill="#ffffff" stroke="transparent" points="10.5,-147.2 10.5,-169.2 134.5,-169.2 134.5,-147.2 10.5,-147.2"/>
<polygon fill="none" stroke="#000000" points="10.5,-147.2 10.5,-169.2 134.5,-169.2 134.5,-147.2 10.5,-147.2"/>
<text text-anchor="start" x="30.5" y="-154.3" font-family="Helvetica,sans-Serif" font-size="11.00" fill="#000000">Code</text>
<polygon fill="none" stroke="#000000" points="134.5,-147.2 134.5,-169.2 215.5,-169.2 215.5,-147.2 134.5,-147.2"/>
<text text-anchor="start" x="137.5" y="-154.9" font-family="Helvetica,sans-Serif" font-size="11.00" fill="#000000">varchar[20]</text>
<polygon fill="none" stroke="#000000" points="10.5,-125.2 10.5,-147.2 134.5,-147.2 134.5,-125.2 10.5,-125.2"/>
<text text-anchor="start" x="30.5" y="-132.3" font-family="Helvetica,sans-Serif" font-size="11.00" fill="#000000">Description</text>
<polygon fill="none" stroke="#000000" points="134.5,-125.2 134.5,-147.2 215.5,-147.2 215.5,-125.2 134.5,-125.2"/>
<text text-anchor="start" x="137.5" y="-132.9" font-family="Helvetica,sans-Serif" font-size="11.00" fill="#000000">nvarchar[400]</text>
<polygon fill="none" stroke="#000000" points="10.5,-103.2 10.5,-125.2 134.5,-125.2 134.5,-103.2 10.5,-103.2"/>
<text text-anchor="start" x="30.5" y="-110.3" font-family="Helvetica,sans-Serif" font-size="11.00" fill="#000000">CreatedAtUtc</text>
<polygon fill="none" stroke="#000000" points="134.5,-103.2 134.5,-125.2 215.5,-125.2 215.5,-103.2 134.5,-103.2"/>
<text text-anchor="start" x="137.0967" y="-110.9" font-family="Helvetica,sans-Serif" font-size="11.00" fill="#000000">datetime2[16,7]</text>
<polygon fill="none" stroke="#000000" points="10.5,-81.2 10.5,-103.2 134.5,-103.2 134.5,-81.2 10.5,-81.2"/>
<text text-anchor="start" x="30.5" y="-88.3" font-family="Helvetica,sans-Serif" font-size="11.00" fill="#000000">UpdatedAtUtc</text>
<polygon fill="none" stroke="#000000" points="134.5,-81.2 134.5,-103.2 215.5,-103.2 215.5,-81.2 134.5,-81.2"/>
<text text-anchor="start" x="137.0967" y="-88.9" font-family="Helvetica,sans-Serif" font-size="11.00" fill="#000000">datetime2[16,7]</text>
<polygon fill="none" stroke="#000000" points="10.5,-59.2 10.5,-81.2 134.5,-81.2 134.5,-59.2 10.5,-59.2"/>
<text text-anchor="start" x="30.5" y="-66.3" font-family="Helvetica,sans-Serif" font-size="11.00" fill="#000000">RowVersion</text>
<polygon fill="none" stroke="#000000" points="134.5,-59.2 134.5,-81.2 215.5,-81.2 215.5,-59.2 134.5,-59.2"/>
<text text-anchor="start" x="137.5" y="-66.9" font-family="Helvetica,sans-Serif" font-size="11.00" fill="#000000">timestamp[8]</text>
<polygon fill="#ffffff" stroke="transparent" points="10.5,-40.2 10.5,-59.2 215.5,-59.2 215.5,-40.2 10.5,-40.2"/>
<polygon fill="none" stroke="#000000" points="10.5,-40.2 10.5,-59.2 215.5,-59.2 215.5,-40.2 10.5,-40.2"/>
<polygon fill="#ffffff" stroke="transparent" points="11.5,-41.2 11.5,-58.2 82.5,-58.2 82.5,-41.2 11.5,-41.2"/>
<text text-anchor="start" x="13.5" y="-46.3" font-family="Helvetica,sans-Serif" font-size="11.00" fill="#000000">&lt; 0</text>
<polygon fill="#ffffff" stroke="transparent" points="82.5,-41.2 82.5,-58.2 144.5,-58.2 144.5,-41.2 82.5,-41.2"/>
<text text-anchor="start" x="110.4431" y="-46.3" font-family="Helvetica,sans-Serif" font-size="11.00" fill="#000000"> &#160;</text>
<polygon fill="#ffffff" stroke="transparent" points="144.5,-41.2 144.5,-58.2 214.5,-58.2 214.5,-41.2 144.5,-41.2"/>
<text text-anchor="start" x="196.9053" y="-46.3" font-family="Helvetica,sans-Serif" font-size="11.00" fill="#000000">2 &gt;</text>
<polygon fill="#000000" stroke="#000000" points="82.5,-41.2 82.5,-58.2 82.5,-58.2 82.5,-41.2 82.5,-41.2"/>
<polygon fill="#000000" stroke="#000000" points="144.5,-41.2 144.5,-58.2 144.5,-58.2 144.5,-41.2 144.5,-41.2"/>
<polygon fill="none" stroke="#000000" stroke-width="2" points="9,-39.2 9,-215.2 216,-215.2 216,-39.2 9,-39.2"/>
</a>
</g>
</g>
<!-- ServiceTypeBillingCodes&#45;&gt;BillingCodes -->
<g id="edge1" class="edge">
<title>ServiceTypeBillingCodes:w&#45;&gt;BillingCodes:e</title>
<path fill="none" stroke="#000000" d="M252.0965,-174.2938C239.8977,-176.2625 232.6594,-180.2 215.5,-180.2"/>
<polygon fill="#000000" stroke="#000000" points="258.523,-173.8058 266.7726,-176.7897 262.5115,-173.5029 266.5,-173.2 266.5,-173.2 266.5,-173.2 262.5115,-173.5029 266.2274,-169.6103 258.523,-173.8058 258.523,-173.8058"/>
<ellipse fill="none" stroke="#000000" cx="255.3322" cy="-174.0481" rx="3.2" ry="3.2"/>
</g>
<!-- Clinical.ServiceTypes -->
<g id="node3" class="node">
<title>Clinical.ServiceTypes</title>
<g id="a_node3"><a xlink:title="Clinical.ServiceTypes">
<polygon fill="#ffffff" stroke="transparent" points="15.5,-249.7 15.5,-310.7 209.5,-310.7 209.5,-249.7 15.5,-249.7"/>
<polygon fill="#f5f5f5" stroke="transparent" points="15.5,-287.2 15.5,-310.2 209.5,-310.2 209.5,-287.2 15.5,-287.2"/>
<polygon fill="none" stroke="#000000" points="15.5,-287.2 15.5,-310.2 209.5,-310.2 209.5,-287.2 15.5,-287.2"/>
<text text-anchor="start" x="20.5" y="-295.8" font-family="Helvetica,sans-Serif" font-weight="bold" font-size="11.00" fill="#000000">Clinical.ServiceTypes</text>
<text text-anchor="start" x="175.0219" y="-295.3" font-family="Helvetica,sans-Serif" font-size="11.00" fill="#000000">[table]</text>
<polygon fill="none" stroke="#000000" points="15.5,-268.2 15.5,-287.2 209.5,-287.2 209.5,-268.2 15.5,-268.2"/>
<text text-anchor="start" x="18.5" y="-274.3" font-family="Helvetica,sans-Serif" font-size="11.00" fill="#000000">...</text>
<polygon fill="#ffffff" stroke="transparent" points="15.5,-249.2 15.5,-268.2 209.5,-268.2 209.5,-249.2 15.5,-249.2"/>
<polygon fill="none" stroke="#000000" points="15.5,-249.2 15.5,-268.2 209.5,-268.2 209.5,-249.2 15.5,-249.2"/>
<polygon fill="#ffffff" stroke="transparent" points="16.5,-250.2 16.5,-267.2 77.5,-267.2 77.5,-250.2 16.5,-250.2"/>
<text text-anchor="start" x="18.5" y="-255.3" font-family="Helvetica,sans-Serif" font-size="11.00" fill="#000000"> &#160;</text>
<polygon fill="#ffffff" stroke="transparent" points="77.5,-250.2 77.5,-267.2 138.5,-267.2 138.5,-250.2 77.5,-250.2"/>
<text text-anchor="start" x="104.9431" y="-255.3" font-family="Helvetica,sans-Serif" font-size="11.00" fill="#000000"> &#160;</text>
<polygon fill="#ffffff" stroke="transparent" points="138.5,-250.2 138.5,-267.2 208.5,-267.2 208.5,-250.2 138.5,-250.2"/>
<text text-anchor="start" x="190.9053" y="-255.3" font-family="Helvetica,sans-Serif" font-size="11.00" fill="#000000">2 &gt;</text>
<polygon fill="#000000" stroke="#000000" points="77.5,-250.2 77.5,-267.2 77.5,-267.2 77.5,-250.2 77.5,-250.2"/>
<polygon fill="#000000" stroke="#000000" points="138.5,-250.2 138.5,-267.2 138.5,-267.2 138.5,-250.2 138.5,-250.2"/>
</a>
</g>
</g>
<!-- ServiceTypeBillingCodes&#45;&gt;Clinical.ServiceTypes -->
<g id="edge2" class="edge">
<title>ServiceTypeBillingCodes:w&#45;&gt;Clinical.ServiceTypes:e</title>
<path fill="none" stroke="#000000" d="M252.4886,-199.155C229.2109,-215.5348 247.9896,-277.2 209.5,-277.2"/>
<polygon fill="#000000" stroke="#000000" points="258.8008,-197.3733 267.478,-198.6646 262.6504,-196.2867 266.5,-195.2 266.5,-195.2 266.5,-195.2 262.6504,-196.2867 265.522,-191.7354 258.8008,-197.3733 258.8008,-197.3733"/>
<ellipse fill="none" stroke="#000000" cx="255.7212" cy="-198.2426" rx="3.2" ry="3.2"/>
</g>
<!-- VisitServiceBillings -->
<g id="node4" class="node">
<title>VisitServiceBillings</title>
<g id="a_node4"><a xlink:href="../../tables/VisitServiceBillings.html" xlink:title="VisitServiceBillings" target="_top">
<polygon fill="#ffffff" stroke="transparent" points="285.5,-272.7 285.5,-421.7 465.5,-421.7 465.5,-272.7 285.5,-272.7"/>
<polygon fill="#f5f5f5" stroke="transparent" points="285.5,-398.2 285.5,-421.2 465.5,-421.2 465.5,-398.2 285.5,-398.2"/>
<polygon fill="none" stroke="#000000" points="285.5,-398.2 285.5,-421.2 465.5,-421.2 465.5,-398.2 285.5,-398.2"/>
<text text-anchor="start" x="290.5" y="-406.8" font-family="Helvetica,sans-Serif" font-weight="bold" font-size="11.00" fill="#000000">VisitServiceBillings</text>
<text text-anchor="start" x="431.0219" y="-406.3" font-family="Helvetica,sans-Serif" font-size="11.00" fill="#000000">[table]</text>
<polygon fill="none" stroke="#000000" points="285.5,-376.2 285.5,-398.2 465.5,-398.2 465.5,-376.2 285.5,-376.2"/>
<image xlink:href="../../images/primaryKeys.png" width="11px" height="12px" preserveAspectRatio="xMinYMin meet" x="290.5" y="-393.2"/>
<text text-anchor="start" x="314.5" y="-383.3" font-family="Helvetica,sans-Serif" font-size="11.00" fill="#000000">Id</text>
<polygon fill="#ffffff" stroke="transparent" points="285.5,-354.2 285.5,-376.2 465.5,-376.2 465.5,-354.2 285.5,-354.2"/>
<polygon fill="none" stroke="#000000" points="285.5,-354.2 285.5,-376.2 465.5,-376.2 465.5,-354.2 285.5,-354.2"/>
<image xlink:href="../../images/foreignKeys.png" width="11px" height="12px" preserveAspectRatio="xMinYMin meet" x="290.5" y="-371.2"/>
<text text-anchor="start" x="314.5" y="-361.3" font-family="Helvetica,sans-Serif" font-size="11.00" fill="#000000">VisitId</text>
<polygon fill="#ffffff" stroke="transparent" points="285.5,-332.2 285.5,-354.2 465.5,-354.2 465.5,-332.2 285.5,-332.2"/>
<polygon fill="none" stroke="#000000" points="285.5,-332.2 285.5,-354.2 465.5,-354.2 465.5,-332.2 285.5,-332.2"/>
<image xlink:href="../../images/foreignKeys.png" width="11px" height="12px" preserveAspectRatio="xMinYMin meet" x="290.5" y="-349.2"/>
<text text-anchor="start" x="314.5" y="-339.3" font-family="Helvetica,sans-Serif" font-size="11.00" fill="#000000">ServiceTypeId</text>
<polygon fill="#ffffff" stroke="transparent" points="285.5,-310.2 285.5,-332.2 465.5,-332.2 465.5,-310.2 285.5,-310.2"/>
<polygon fill="none" stroke="#000000" points="285.5,-310.2 285.5,-332.2 465.5,-332.2 465.5,-310.2 285.5,-310.2"/>
<image xlink:href="../../images/foreignKeys.png" width="11px" height="12px" preserveAspectRatio="xMinYMin meet" x="290.5" y="-327.2"/>
<text text-anchor="start" x="314.5" y="-317.3" font-family="Helvetica,sans-Serif" font-size="11.00" fill="#000000">BillingCodeId</text>
<polygon fill="none" stroke="#000000" points="285.5,-291.2 285.5,-310.2 465.5,-310.2 465.5,-291.2 285.5,-291.2"/>
<text text-anchor="start" x="288.5" y="-297.3" font-family="Helvetica,sans-Serif" font-size="11.00" fill="#000000">...</text>
<polygon fill="#ffffff" stroke="transparent" points="285.5,-272.2 285.5,-291.2 465.5,-291.2 465.5,-272.2 285.5,-272.2"/>
<polygon fill="none" stroke="#000000" points="285.5,-272.2 285.5,-291.2 465.5,-291.2 465.5,-272.2 285.5,-272.2"/>
<polygon fill="#ffffff" stroke="transparent" points="286.5,-273.2 286.5,-290.2 352.5,-290.2 352.5,-273.2 286.5,-273.2"/>
<text text-anchor="start" x="288.5" y="-278.3" font-family="Helvetica,sans-Serif" font-size="11.00" fill="#000000">&lt; 3</text>
<polygon fill="#ffffff" stroke="transparent" points="352.5,-273.2 352.5,-290.2 408.5,-290.2 408.5,-273.2 352.5,-273.2"/>
<text text-anchor="start" x="377.4431" y="-278.3" font-family="Helvetica,sans-Serif" font-size="11.00" fill="#000000"> &#160;</text>
<polygon fill="#ffffff" stroke="transparent" points="408.5,-273.2 408.5,-290.2 464.5,-290.2 464.5,-273.2 408.5,-273.2"/>
<text text-anchor="start" x="456.3862" y="-278.3" font-family="Helvetica,sans-Serif" font-size="11.00" fill="#000000"> &#160;</text>
<polygon fill="#000000" stroke="#000000" points="352.5,-273.2 352.5,-290.2 352.5,-290.2 352.5,-273.2 352.5,-273.2"/>
<polygon fill="#000000" stroke="#000000" points="408.5,-273.2 408.5,-290.2 408.5,-290.2 408.5,-273.2 408.5,-273.2"/>
</a>
</g>
</g>
<!-- VisitServiceBillings&#45;&gt;BillingCodes -->
<g id="edge3" class="edge">
<title>VisitServiceBillings:w&#45;&gt;BillingCodes:e</title>
<path fill="none" stroke="#000000" d="M271.2397,-318.6323C225.8381,-299.5221 279.8617,-180.2 215.5,-180.2"/>
<polygon fill="#000000" stroke="#000000" points="277.6266,-319.7823 284.862,-324.743 281.5633,-320.4911 285.5,-321.2 285.5,-321.2 285.5,-321.2 281.5633,-320.4911 286.138,-317.657 277.6266,-319.7823 277.6266,-319.7823"/>
<ellipse fill="none" stroke="#000000" cx="274.4773" cy="-319.2152" rx="3.2" ry="3.2"/>
</g>
<!-- VisitServiceBillings&#45;&gt;Clinical.ServiceTypes -->
<g id="edge4" class="edge">
<title>VisitServiceBillings:w&#45;&gt;Clinical.ServiceTypes:e</title>
<path fill="none" stroke="#000000" d="M271.2249,-340.3641C243.2221,-327.7313 248.6447,-277.2 209.5,-277.2"/>
<polygon fill="#000000" stroke="#000000" points="277.6533,-341.6411 284.7985,-346.731 281.5767,-342.4206 285.5,-343.2 285.5,-343.2 285.5,-343.2 281.5767,-342.4206 286.2015,-339.669 277.6533,-341.6411 277.6533,-341.6411"/>
<ellipse fill="none" stroke="#000000" cx="274.5147" cy="-341.0176" rx="3.2" ry="3.2"/>
</g>
<!-- Clinical.Visits -->
<g id="node5" class="node">
<title>Clinical.Visits</title>
<g id="a_node5"><a xlink:title="Clinical.Visits">
<polygon fill="#ffffff" stroke="transparent" points="44,-337.7 44,-398.7 181,-398.7 181,-337.7 44,-337.7"/>
<polygon fill="#f5f5f5" stroke="transparent" points="44.5,-375.2 44.5,-398.2 181.5,-398.2 181.5,-375.2 44.5,-375.2"/>
<polygon fill="none" stroke="#000000" points="44.5,-375.2 44.5,-398.2 181.5,-398.2 181.5,-375.2 44.5,-375.2"/>
<text text-anchor="start" x="49.5" y="-383.8" font-family="Helvetica,sans-Serif" font-weight="bold" font-size="11.00" fill="#000000">Clinical.Visits</text>
<text text-anchor="start" x="147.0219" y="-383.3" font-family="Helvetica,sans-Serif" font-size="11.00" fill="#000000">[table]</text>
<polygon fill="none" stroke="#000000" points="44.5,-356.2 44.5,-375.2 181.5,-375.2 181.5,-356.2 44.5,-356.2"/>
<text text-anchor="start" x="47.5" y="-362.3" font-family="Helvetica,sans-Serif" font-size="11.00" fill="#000000">...</text>
<polygon fill="#ffffff" stroke="transparent" points="44.5,-337.2 44.5,-356.2 181.5,-356.2 181.5,-337.2 44.5,-337.2"/>
<polygon fill="none" stroke="#000000" points="44.5,-337.2 44.5,-356.2 181.5,-356.2 181.5,-337.2 44.5,-337.2"/>
<polygon fill="#ffffff" stroke="transparent" points="45.5,-338.2 45.5,-355.2 87.5,-355.2 87.5,-338.2 45.5,-338.2"/>
<text text-anchor="start" x="47.5" y="-343.3" font-family="Helvetica,sans-Serif" font-size="11.00" fill="#000000"> &#160;</text>
<polygon fill="#ffffff" stroke="transparent" points="87.5,-338.2 87.5,-355.2 129.5,-355.2 129.5,-338.2 87.5,-338.2"/>
<text text-anchor="start" x="105.4431" y="-343.3" font-family="Helvetica,sans-Serif" font-size="11.00" fill="#000000"> &#160;</text>
<polygon fill="#ffffff" stroke="transparent" points="129.5,-338.2 129.5,-355.2 180.5,-355.2 180.5,-338.2 129.5,-338.2"/>
<text text-anchor="start" x="162.9053" y="-343.3" font-family="Helvetica,sans-Serif" font-size="11.00" fill="#000000">1 &gt;</text>
<polygon fill="#000000" stroke="#000000" points="87.5,-338.2 87.5,-355.2 87.5,-355.2 87.5,-338.2 87.5,-338.2"/>
<polygon fill="#000000" stroke="#000000" points="129.5,-338.2 129.5,-355.2 129.5,-355.2 129.5,-338.2 129.5,-338.2"/>
</a>
</g>
</g>
<!-- VisitServiceBillings&#45;&gt;Clinical.Visits -->
<g id="edge5" class="edge">
<title>VisitServiceBillings:w&#45;&gt;Clinical.Visits:e</title>
<path fill="none" stroke="#000000" d="M271.0255,-365.2C236.2149,-365.2 222.4861,-365.2 181.5,-365.2"/>
<polygon fill="#000000" stroke="#000000" points="277.5,-365.2001 285.5,-368.8 281.5,-365.2 285.5,-365.2 285.5,-365.2 285.5,-365.2 281.5,-365.2 285.5,-361.6 277.5,-365.2001 277.5,-365.2001"/>
<ellipse fill="none" stroke="#000000" cx="274.3" cy="-365.2001" rx="3.2" ry="3.2"/>
</g>
</g>
</svg>
