<?xml version="1.0" encoding="UTF-8" standalone="no"?>
<!DOCTYPE svg PUBLIC "-//W3C//DTD SVG 1.1//EN"
 "http://www.w3.org/Graphics/SVG/1.1/DTD/svg11.dtd">
<!-- Generated by graphviz version 2.40.1 (20161225.0304)
 -->
<!-- Title: twoDegreesRelationshipsDiagram Pages: 1 -->
<svg width="462pt" height="393pt"
 viewBox="0.00 0.00 462.00 392.70" xmlns="http://www.w3.org/2000/svg" xmlns:xlink="http://www.w3.org/1999/xlink">
<g id="graph0" class="graph" transform="scale(1 1) rotate(0) translate(4 388.7)">
<title>twoDegreesRelationshipsDiagram</title>
<polygon fill="#ffffff" stroke="transparent" points="-4,4 -4,-388.7 458,-388.7 458,4 -4,4"/>
<text text-anchor="middle" x="72.4936" y="-7.3" font-family="Helvetica,sans-Serif" font-size="11.00" fill="#000000">Generated by SchemaSpy</text>
<!-- VisitServiceBillings -->
<g id="node1" class="node">
<title>VisitServiceBillings</title>
<g id="a_node1"><a xlink:href="../../tables/VisitServiceBillings.html" xlink:title="VisitServiceBillings" target="_top">
<polygon fill="#ffffff" stroke="transparent" points="266,-194.7 266,-343.7 446,-343.7 446,-194.7 266,-194.7"/>
<polygon fill="#f5f5f5" stroke="transparent" points="266,-320.2 266,-343.2 446,-343.2 446,-320.2 266,-320.2"/>
<polygon fill="none" stroke="#000000" points="266,-320.2 266,-343.2 446,-343.2 446,-320.2 266,-320.2"/>
<text text-anchor="start" x="271" y="-328.8" font-family="Helvetica,sans-Serif" font-weight="bold" font-size="11.00" fill="#000000">VisitServiceBillings</text>
<text text-anchor="start" x="411.5219" y="-328.3" font-family="Helvetica,sans-Serif" font-size="11.00" fill="#000000">[table]</text>
<polygon fill="none" stroke="#000000" points="266,-298.2 266,-320.2 446,-320.2 446,-298.2 266,-298.2"/>
<image xlink:href="../../images/primaryKeys.png" width="11px" height="12px" preserveAspectRatio="xMinYMin meet" x="271" y="-315.2"/>
<text text-anchor="start" x="295" y="-305.3" font-family="Helvetica,sans-Serif" font-size="11.00" fill="#000000">Id</text>
<polygon fill="#ffffff" stroke="transparent" points="266,-276.2 266,-298.2 446,-298.2 446,-276.2 266,-276.2"/>
<polygon fill="none" stroke="#000000" points="266,-276.2 266,-298.2 446,-298.2 446,-276.2 266,-276.2"/>
<image xlink:href="../../images/foreignKeys.png" width="11px" height="12px" preserveAspectRatio="xMinYMin meet" x="271" y="-293.2"/>
<text text-anchor="start" x="295" y="-283.3" font-family="Helvetica,sans-Serif" font-size="11.00" fill="#000000">VisitId</text>
<polygon fill="#ffffff" stroke="transparent" points="266,-254.2 266,-276.2 446,-276.2 446,-254.2 266,-254.2"/>
<polygon fill="none" stroke="#000000" points="266,-254.2 266,-276.2 446,-276.2 446,-254.2 266,-254.2"/>
<image xlink:href="../../images/foreignKeys.png" width="11px" height="12px" preserveAspectRatio="xMinYMin meet" x="271" y="-271.2"/>
<text text-anchor="start" x="295" y="-261.3" font-family="Helvetica,sans-Serif" font-size="11.00" fill="#000000">ServiceTypeId</text>
<polygon fill="#ffffff" stroke="transparent" points="266,-232.2 266,-254.2 446,-254.2 446,-232.2 266,-232.2"/>
<polygon fill="none" stroke="#000000" points="266,-232.2 266,-254.2 446,-254.2 446,-232.2 266,-232.2"/>
<image xlink:href="../../images/foreignKeys.png" width="11px" height="12px" preserveAspectRatio="xMinYMin meet" x="271" y="-249.2"/>
<text text-anchor="start" x="295" y="-239.3" font-family="Helvetica,sans-Serif" font-size="11.00" fill="#000000">BillingCodeId</text>
<polygon fill="none" stroke="#000000" points="266,-213.2 266,-232.2 446,-232.2 446,-213.2 266,-213.2"/>
<text text-anchor="start" x="269" y="-219.3" font-family="Helvetica,sans-Serif" font-size="11.00" fill="#000000">...</text>
<polygon fill="#ffffff" stroke="transparent" points="266,-194.2 266,-213.2 446,-213.2 446,-194.2 266,-194.2"/>
<polygon fill="none" stroke="#000000" points="266,-194.2 266,-213.2 446,-213.2 446,-194.2 266,-194.2"/>
<polygon fill="#ffffff" stroke="transparent" points="267,-195.2 267,-212.2 333,-212.2 333,-195.2 267,-195.2"/>
<text text-anchor="start" x="269" y="-200.3" font-family="Helvetica,sans-Serif" font-size="11.00" fill="#000000">&lt; 3</text>
<polygon fill="#ffffff" stroke="transparent" points="333,-195.2 333,-212.2 389,-212.2 389,-195.2 333,-195.2"/>
<text text-anchor="start" x="357.9431" y="-200.3" font-family="Helvetica,sans-Serif" font-size="11.00" fill="#000000"> &#160;</text>
<polygon fill="#ffffff" stroke="transparent" points="389,-195.2 389,-212.2 445,-212.2 445,-195.2 389,-195.2"/>
<text text-anchor="start" x="436.8862" y="-200.3" font-family="Helvetica,sans-Serif" font-size="11.00" fill="#000000"> &#160;</text>
<polygon fill="#000000" stroke="#000000" points="333,-195.2 333,-212.2 333,-212.2 333,-195.2 333,-195.2"/>
<polygon fill="#000000" stroke="#000000" points="389,-195.2 389,-212.2 389,-212.2 389,-195.2 389,-195.2"/>
</a>
</g>
</g>
<!-- BillingCodes -->
<g id="node2" class="node">
<title>BillingCodes</title>
<g id="a_node2"><a xlink:href="../../tables/BillingCodes.html" xlink:title="BillingCodes" target="_top">
<polygon fill="#ffffff" stroke="transparent" points="8,-38.2 8,-216.2 217,-216.2 217,-38.2 8,-38.2"/>
<polygon fill="#f5f5f5" stroke="transparent" points="10.5,-191.2 10.5,-214.2 215.5,-214.2 215.5,-191.2 10.5,-191.2"/>
<polygon fill="none" stroke="#000000" points="10.5,-191.2 10.5,-214.2 215.5,-214.2 215.5,-191.2 10.5,-191.2"/>
<text text-anchor="start" x="15.5" y="-199.8" font-family="Helvetica,sans-Serif" font-weight="bold" font-size="11.00" fill="#000000">BillingCodes</text>
<text text-anchor="start" x="180.5437" y="-199.3" font-family="Helvetica,sans-Serif" font-size="11.00" fill="#000000">[table]</text>
<polygon fill="none" stroke="#000000" points="10.5,-169.2 10.5,-191.2 134.5,-191.2 134.5,-169.2 10.5,-169.2"/>
<image xlink:href="../../images/primaryKeys.png" width="11px" height="12px" preserveAspectRatio="xMinYMin meet" x="15.5" y="-186.2"/>
<text text-anchor="start" x="30.5" y="-176.3" font-family="Helvetica,sans-Serif" font-size="11.00" fill="#000000">Id</text>
<polygon fill="none" stroke="#000000" points="134.5,-169.2 134.5,-191.2 215.5,-191.2 215.5,-169.2 134.5,-169.2"/>
<text text-anchor="start" x="137.5" y="-176.9" font-family="Helvetica,sans-Serif" font-size="11.00" fill="#000000">int[4]</text>
<polygon fill="#ffffff" stroke="transparent" points="10.5,-147.2 10.5,-169.2 134.5,-169.2 134.5,-147.2 10.5,-147.2"/>
<polygon fill="none" stroke="#000000" points="10.5,-147.2 10.5,-169.2 134.5,-169.2 134.5,-147.2 10.5,-147.2"/>
<text text-anchor="start" x="30.5" y="-154.3" font-family="Helvetica,sans-Serif" font-size="11.00" fill="#000000">Code</text>
<polygon fill="none" stroke="#000000" points="134.5,-147.2 134.5,-169.2 215.5,-169.2 215.5,-147.2 134.5,-147.2"/>
<text text-anchor="start" x="137.5" y="-154.9" font-family="Helvetica,sans-Serif" font-size="11.00" fill="#000000">varchar[20]</text>
<polygon fill="none" stroke="#000000" points="10.5,-125.2 10.5,-147.2 134.5,-147.2 134.5,-125.2 10.5,-125.2"/>
<text text-anchor="start" x="30.5" y="-132.3" font-family="Helvetica,sans-Serif" font-size="11.00" fill="#000000">Description</text>
<polygon fill="none" stroke="#000000" points="134.5,-125.2 134.5,-147.2 215.5,-147.2 215.5,-125.2 134.5,-125.2"/>
<text text-anchor="start" x="137.5" y="-132.9" font-family="Helvetica,sans-Serif" font-size="11.00" fill="#000000">nvarchar[400]</text>
<polygon fill="none" stroke="#000000" points="10.5,-103.2 10.5,-125.2 134.5,-125.2 134.5,-103.2 10.5,-103.2"/>
<text text-anchor="start" x="30.5" y="-110.3" font-family="Helvetica,sans-Serif" font-size="11.00" fill="#000000">CreatedAtUtc</text>
<polygon fill="none" stroke="#000000" points="134.5,-103.2 134.5,-125.2 215.5,-125.2 215.5,-103.2 134.5,-103.2"/>
<text text-anchor="start" x="137.0967" y="-110.9" font-family="Helvetica,sans-Serif" font-size="11.00" fill="#000000">datetime2[16,7]</text>
<polygon fill="none" stroke="#000000" points="10.5,-81.2 10.5,-103.2 134.5,-103.2 134.5,-81.2 10.5,-81.2"/>
<text text-anchor="start" x="30.5" y="-88.3" font-family="Helvetica,sans-Serif" font-size="11.00" fill="#000000">UpdatedAtUtc</text>
<polygon fill="none" stroke="#000000" points="134.5,-81.2 134.5,-103.2 215.5,-103.2 215.5,-81.2 134.5,-81.2"/>
<text text-anchor="start" x="137.0967" y="-88.9" font-family="Helvetica,sans-Serif" font-size="11.00" fill="#000000">datetime2[16,7]</text>
<polygon fill="none" stroke="#000000" points="10.5,-59.2 10.5,-81.2 134.5,-81.2 134.5,-59.2 10.5,-59.2"/>
<text text-anchor="start" x="30.5" y="-66.3" font-family="Helvetica,sans-Serif" font-size="11.00" fill="#000000">RowVersion</text>
<polygon fill="none" stroke="#000000" points="134.5,-59.2 134.5,-81.2 215.5,-81.2 215.5,-59.2 134.5,-59.2"/>
<text text-anchor="start" x="137.5" y="-66.9" font-family="Helvetica,sans-Serif" font-size="11.00" fill="#000000">timestamp[8]</text>
<polygon fill="#ffffff" stroke="transparent" points="10.5,-40.2 10.5,-59.2 215.5,-59.2 215.5,-40.2 10.5,-40.2"/>
<polygon fill="none" stroke="#000000" points="10.5,-40.2 10.5,-59.2 215.5,-59.2 215.5,-40.2 10.5,-40.2"/>
<polygon fill="#ffffff" stroke="transparent" points="11.5,-41.2 11.5,-58.2 82.5,-58.2 82.5,-41.2 11.5,-41.2"/>
<text text-anchor="start" x="13.5" y="-46.3" font-family="Helvetica,sans-Serif" font-size="11.00" fill="#000000">&lt; 0</text>
<polygon fill="#ffffff" stroke="transparent" points="82.5,-41.2 82.5,-58.2 144.5,-58.2 144.5,-41.2 82.5,-41.2"/>
<text text-anchor="start" x="110.4431" y="-46.3" font-family="Helvetica,sans-Serif" font-size="11.00" fill="#000000"> &#160;</text>
<polygon fill="#ffffff" stroke="transparent" points="144.5,-41.2 144.5,-58.2 214.5,-58.2 214.5,-41.2 144.5,-41.2"/>
<text text-anchor="start" x="196.9053" y="-46.3" font-family="Helvetica,sans-Serif" font-size="11.00" fill="#000000">1 &gt;</text>
<polygon fill="#000000" stroke="#000000" points="82.5,-41.2 82.5,-58.2 82.5,-58.2 82.5,-41.2 82.5,-41.2"/>
<polygon fill="#000000" stroke="#000000" points="144.5,-41.2 144.5,-58.2 144.5,-58.2 144.5,-41.2 144.5,-41.2"/>
<polygon fill="none" stroke="#000000" stroke-width="2" points="9,-39.2 9,-215.2 216,-215.2 216,-39.2 9,-39.2"/>
</a>
</g>
</g>
<!-- VisitServiceBillings&#45;&gt;BillingCodes -->
<g id="edge1" class="edge">
<title>VisitServiceBillings:w&#45;&gt;BillingCodes:e</title>
<path fill="none" stroke="#000000" d="M251.9816,-238.2565C235.738,-223.4048 245.2175,-180.2 215.5,-180.2"/>
<polygon fill="#000000" stroke="#000000" points="258.4554,-240.5394 264.8027,-246.5951 262.2277,-241.8697 266,-243.2 266,-243.2 266,-243.2 262.2277,-241.8697 267.1973,-239.8049 258.4554,-240.5394 258.4554,-240.5394"/>
<ellipse fill="none" stroke="#000000" cx="255.4375" cy="-239.4752" rx="3.2" ry="3.2"/>
</g>
<!-- Clinical.ServiceTypes -->
<g id="node3" class="node">
<title>Clinical.ServiceTypes</title>
<g id="a_node3"><a xlink:title="Clinical.ServiceTypes">
<polygon fill="#ffffff" stroke="transparent" points="15.5,-237.7 15.5,-298.7 209.5,-298.7 209.5,-237.7 15.5,-237.7"/>
<polygon fill="#f5f5f5" stroke="transparent" points="15.5,-275.2 15.5,-298.2 209.5,-298.2 209.5,-275.2 15.5,-275.2"/>
<polygon fill="none" stroke="#000000" points="15.5,-275.2 15.5,-298.2 209.5,-298.2 209.5,-275.2 15.5,-275.2"/>
<text text-anchor="start" x="20.5" y="-283.8" font-family="Helvetica,sans-Serif" font-weight="bold" font-size="11.00" fill="#000000">Clinical.ServiceTypes</text>
<text text-anchor="start" x="175.0219" y="-283.3" font-family="Helvetica,sans-Serif" font-size="11.00" fill="#000000">[table]</text>
<polygon fill="none" stroke="#000000" points="15.5,-256.2 15.5,-275.2 209.5,-275.2 209.5,-256.2 15.5,-256.2"/>
<text text-anchor="start" x="18.5" y="-262.3" font-family="Helvetica,sans-Serif" font-size="11.00" fill="#000000">...</text>
<polygon fill="#ffffff" stroke="transparent" points="15.5,-237.2 15.5,-256.2 209.5,-256.2 209.5,-237.2 15.5,-237.2"/>
<polygon fill="none" stroke="#000000" points="15.5,-237.2 15.5,-256.2 209.5,-256.2 209.5,-237.2 15.5,-237.2"/>
<polygon fill="#ffffff" stroke="transparent" points="16.5,-238.2 16.5,-255.2 77.5,-255.2 77.5,-238.2 16.5,-238.2"/>
<text text-anchor="start" x="18.5" y="-243.3" font-family="Helvetica,sans-Serif" font-size="11.00" fill="#000000"> &#160;</text>
<polygon fill="#ffffff" stroke="transparent" points="77.5,-238.2 77.5,-255.2 138.5,-255.2 138.5,-238.2 77.5,-238.2"/>
<text text-anchor="start" x="104.9431" y="-243.3" font-family="Helvetica,sans-Serif" font-size="11.00" fill="#000000"> &#160;</text>
<polygon fill="#ffffff" stroke="transparent" points="138.5,-238.2 138.5,-255.2 208.5,-255.2 208.5,-238.2 138.5,-238.2"/>
<text text-anchor="start" x="190.9053" y="-243.3" font-family="Helvetica,sans-Serif" font-size="11.00" fill="#000000">1 &gt;</text>
<polygon fill="#000000" stroke="#000000" points="77.5,-238.2 77.5,-255.2 77.5,-255.2 77.5,-238.2 77.5,-238.2"/>
<polygon fill="#000000" stroke="#000000" points="138.5,-238.2 138.5,-255.2 138.5,-255.2 138.5,-238.2 138.5,-238.2"/>
</a>
</g>
</g>
<!-- VisitServiceBillings&#45;&gt;Clinical.ServiceTypes -->
<g id="edge2" class="edge">
<title>VisitServiceBillings:w&#45;&gt;Clinical.ServiceTypes:e</title>
<path fill="none" stroke="#000000" d="M251.3944,-265.2C237.0775,-265.2 228.9219,-265.2 209.5,-265.2"/>
<polygon fill="#000000" stroke="#000000" points="258,-265.2001 266,-268.8 262,-265.2 266,-265.2 266,-265.2 266,-265.2 262,-265.2 266,-261.6 258,-265.2001 258,-265.2001"/>
<ellipse fill="none" stroke="#000000" cx="254.8" cy="-265.2001" rx="3.2" ry="3.2"/>
</g>
<!-- Clinical.Visits -->
<g id="node4" class="node">
<title>Clinical.Visits</title>
<g id="a_node4"><a xlink:title="Clinical.Visits">
<polygon fill="#ffffff" stroke="transparent" points="44,-319.7 44,-380.7 181,-380.7 181,-319.7 44,-319.7"/>
<polygon fill="#f5f5f5" stroke="transparent" points="44.5,-357.2 44.5,-380.2 181.5,-380.2 181.5,-357.2 44.5,-357.2"/>
<polygon fill="none" stroke="#000000" points="44.5,-357.2 44.5,-380.2 181.5,-380.2 181.5,-357.2 44.5,-357.2"/>
<text text-anchor="start" x="49.5" y="-365.8" font-family="Helvetica,sans-Serif" font-weight="bold" font-size="11.00" fill="#000000">Clinical.Visits</text>
<text text-anchor="start" x="147.0219" y="-365.3" font-family="Helvetica,sans-Serif" font-size="11.00" fill="#000000">[table]</text>
<polygon fill="none" stroke="#000000" points="44.5,-338.2 44.5,-357.2 181.5,-357.2 181.5,-338.2 44.5,-338.2"/>
<text text-anchor="start" x="47.5" y="-344.3" font-family="Helvetica,sans-Serif" font-size="11.00" fill="#000000">...</text>
<polygon fill="#ffffff" stroke="transparent" points="44.5,-319.2 44.5,-338.2 181.5,-338.2 181.5,-319.2 44.5,-319.2"/>
<polygon fill="none" stroke="#000000" points="44.5,-319.2 44.5,-338.2 181.5,-338.2 181.5,-319.2 44.5,-319.2"/>
<polygon fill="#ffffff" stroke="transparent" points="45.5,-320.2 45.5,-337.2 87.5,-337.2 87.5,-320.2 45.5,-320.2"/>
<text text-anchor="start" x="47.5" y="-325.3" font-family="Helvetica,sans-Serif" font-size="11.00" fill="#000000"> &#160;</text>
<polygon fill="#ffffff" stroke="transparent" points="87.5,-320.2 87.5,-337.2 129.5,-337.2 129.5,-320.2 87.5,-320.2"/>
<text text-anchor="start" x="105.4431" y="-325.3" font-family="Helvetica,sans-Serif" font-size="11.00" fill="#000000"> &#160;</text>
<polygon fill="#ffffff" stroke="transparent" points="129.5,-320.2 129.5,-337.2 180.5,-337.2 180.5,-320.2 129.5,-320.2"/>
<text text-anchor="start" x="162.9053" y="-325.3" font-family="Helvetica,sans-Serif" font-size="11.00" fill="#000000">1 &gt;</text>
<polygon fill="#000000" stroke="#000000" points="87.5,-320.2 87.5,-337.2 87.5,-337.2 87.5,-320.2 87.5,-320.2"/>
<polygon fill="#000000" stroke="#000000" points="129.5,-320.2 129.5,-337.2 129.5,-337.2 129.5,-320.2 129.5,-320.2"/>
</a>
</g>
</g>
<!-- VisitServiceBillings&#45;&gt;Clinical.Visits -->
<g id="edge3" class="edge">
<title>VisitServiceBillings:w&#45;&gt;Clinical.Visits:e</title>
<path fill="none" stroke="#000000" d="M251.4381,-289.6264C220.9983,-300.8514 221.9825,-347.2 181.5,-347.2"/>
<polygon fill="#000000" stroke="#000000" points="258.1088,-288.5149 266.5917,-290.751 262.0544,-287.8575 266,-287.2 266,-287.2 266,-287.2 262.0544,-287.8575 265.4083,-283.649 258.1088,-288.5149 258.1088,-288.5149"/>
<ellipse fill="none" stroke="#000000" cx="254.9523" cy="-289.0409" rx="3.2" ry="3.2"/>
</g>
</g>
</svg>
