<?xml version="1.0" encoding="UTF-8" standalone="no"?>
<!DOCTYPE svg PUBLIC "-//W3C//DTD SVG 1.1//EN"
 "http://www.w3.org/Graphics/SVG/1.1/DTD/svg11.dtd">
<!-- Generated by graphviz version 2.40.1 (20161225.0304)
 -->
<!-- Title: oneDegreeRelationshipsDiagram Pages: 1 -->
<svg width="501pt" height="356pt"
 viewBox="0.00 0.00 501.00 355.70" xmlns="http://www.w3.org/2000/svg" xmlns:xlink="http://www.w3.org/1999/xlink">
<g id="graph0" class="graph" transform="scale(1 1) rotate(0) translate(4 351.7)">
<title>oneDegreeRelationshipsDiagram</title>
<polygon fill="#ffffff" stroke="transparent" points="-4,4 -4,-351.7 497,-351.7 497,4 -4,4"/>
<text text-anchor="middle" x="72.4936" y="-7.3" font-family="Helvetica,sans-Serif" font-size="11.00" fill="#000000">Generated by SchemaSpy</text>
<!-- ServiceTypeBillingCodes -->
<g id="node1" class="node">
<title>ServiceTypeBillingCodes</title>
<g id="a_node1"><a xlink:href="../../tables/ServiceTypeBillingCodes.html" xlink:title="ServiceTypeBillingCodes" target="_top">
<polygon fill="#ffffff" stroke="transparent" points="266,-216.7 266,-343.7 485,-343.7 485,-216.7 266,-216.7"/>
<polygon fill="#f5f5f5" stroke="transparent" points="266.5,-320.2 266.5,-343.2 485.5,-343.2 485.5,-320.2 266.5,-320.2"/>
<polygon fill="none" stroke="#000000" points="266.5,-320.2 266.5,-343.2 485.5,-343.2 485.5,-320.2 266.5,-320.2"/>
<text text-anchor="start" x="271.5" y="-328.8" font-family="Helvetica,sans-Serif" font-weight="bold" font-size="11.00" fill="#000000">ServiceTypeBillingCodes</text>
<text text-anchor="start" x="451.0219" y="-328.3" font-family="Helvetica,sans-Serif" font-size="11.00" fill="#000000">[table]</text>
<polygon fill="none" stroke="#000000" points="266.5,-298.2 266.5,-320.2 485.5,-320.2 485.5,-298.2 266.5,-298.2"/>
<image xlink:href="../../images/primaryKeys.png" width="11px" height="12px" preserveAspectRatio="xMinYMin meet" x="271.5" y="-315.2"/>
<text text-anchor="start" x="295.5" y="-305.3" font-family="Helvetica,sans-Serif" font-size="11.00" fill="#000000">Id</text>
<polygon fill="#ffffff" stroke="transparent" points="266.5,-276.2 266.5,-298.2 485.5,-298.2 485.5,-276.2 266.5,-276.2"/>
<polygon fill="none" stroke="#000000" points="266.5,-276.2 266.5,-298.2 485.5,-298.2 485.5,-276.2 266.5,-276.2"/>
<image xlink:href="../../images/foreignKeys.png" width="11px" height="12px" preserveAspectRatio="xMinYMin meet" x="271.5" y="-293.2"/>
<text text-anchor="start" x="295.5" y="-283.3" font-family="Helvetica,sans-Serif" font-size="11.00" fill="#000000">ServiceTypeId</text>
<polygon fill="#ffffff" stroke="transparent" points="266.5,-254.2 266.5,-276.2 485.5,-276.2 485.5,-254.2 266.5,-254.2"/>
<polygon fill="none" stroke="#000000" points="266.5,-254.2 266.5,-276.2 485.5,-276.2 485.5,-254.2 266.5,-254.2"/>
<image xlink:href="../../images/foreignKeys.png" width="11px" height="12px" preserveAspectRatio="xMinYMin meet" x="271.5" y="-271.2"/>
<text text-anchor="start" x="295.5" y="-261.3" font-family="Helvetica,sans-Serif" font-size="11.00" fill="#000000">BillingCodeId</text>
<polygon fill="none" stroke="#000000" points="266.5,-235.2 266.5,-254.2 485.5,-254.2 485.5,-235.2 266.5,-235.2"/>
<text text-anchor="start" x="269.5" y="-241.3" font-family="Helvetica,sans-Serif" font-size="11.00" fill="#000000">...</text>
<polygon fill="#ffffff" stroke="transparent" points="266.5,-216.2 266.5,-235.2 485.5,-235.2 485.5,-216.2 266.5,-216.2"/>
<polygon fill="none" stroke="#000000" points="266.5,-216.2 266.5,-235.2 485.5,-235.2 485.5,-216.2 266.5,-216.2"/>
<polygon fill="#ffffff" stroke="transparent" points="267.5,-217.2 267.5,-234.2 346.5,-234.2 346.5,-217.2 267.5,-217.2"/>
<text text-anchor="start" x="269.5" y="-222.3" font-family="Helvetica,sans-Serif" font-size="11.00" fill="#000000">&lt; 2</text>
<polygon fill="#ffffff" stroke="transparent" points="346.5,-217.2 346.5,-234.2 415.5,-234.2 415.5,-217.2 346.5,-217.2"/>
<text text-anchor="start" x="377.9431" y="-222.3" font-family="Helvetica,sans-Serif" font-size="11.00" fill="#000000"> &#160;</text>
<polygon fill="#ffffff" stroke="transparent" points="415.5,-217.2 415.5,-234.2 484.5,-234.2 484.5,-217.2 415.5,-217.2"/>
<text text-anchor="start" x="476.3862" y="-222.3" font-family="Helvetica,sans-Serif" font-size="11.00" fill="#000000"> &#160;</text>
<polygon fill="#000000" stroke="#000000" points="346.5,-217.2 346.5,-234.2 346.5,-234.2 346.5,-217.2 346.5,-217.2"/>
<polygon fill="#000000" stroke="#000000" points="415.5,-217.2 415.5,-234.2 415.5,-234.2 415.5,-217.2 415.5,-217.2"/>
</a>
</g>
</g>
<!-- BillingCodes -->
<g id="node2" class="node">
<title>BillingCodes</title>
<g id="a_node2"><a xlink:href="../../tables/BillingCodes.html" xlink:title="BillingCodes" target="_top">
<polygon fill="#ffffff" stroke="transparent" points="8,-38.2 8,-216.2 217,-216.2 217,-38.2 8,-38.2"/>
<polygon fill="#f5f5f5" stroke="transparent" points="10.5,-191.2 10.5,-214.2 215.5,-214.2 215.5,-191.2 10.5,-191.2"/>
<polygon fill="none" stroke="#000000" points="10.5,-191.2 10.5,-214.2 215.5,-214.2 215.5,-191.2 10.5,-191.2"/>
<text text-anchor="start" x="15.5" y="-199.8" font-family="Helvetica,sans-Serif" font-weight="bold" font-size="11.00" fill="#000000">BillingCodes</text>
<text text-anchor="start" x="180.5437" y="-199.3" font-family="Helvetica,sans-Serif" font-size="11.00" fill="#000000">[table]</text>
<polygon fill="none" stroke="#000000" points="10.5,-169.2 10.5,-191.2 134.5,-191.2 134.5,-169.2 10.5,-169.2"/>
<image xlink:href="../../images/primaryKeys.png" width="11px" height="12px" preserveAspectRatio="xMinYMin meet" x="15.5" y="-186.2"/>
<text text-anchor="start" x="30.5" y="-176.3" font-family="Helvetica,sans-Serif" font-size="11.00" fill="#000000">Id</text>
<polygon fill="none" stroke="#000000" points="134.5,-169.2 134.5,-191.2 215.5,-191.2 215.5,-169.2 134.5,-169.2"/>
<text text-anchor="start" x="137.5" y="-176.9" font-family="Helvetica,sans-Serif" font-size="11.00" fill="#000000">int[4]</text>
<polygon fill="#ffffff" stroke="transparent" points="10.5,-147.2 10.5,-169.2 134.5,-169.2 134.5,-147.2 10.5,-147.2"/>
<polygon fill="none" stroke="#000000" points="10.5,-147.2 10.5,-169.2 134.5,-169.2 134.5,-147.2 10.5,-147.2"/>
<text text-anchor="start" x="30.5" y="-154.3" font-family="Helvetica,sans-Serif" font-size="11.00" fill="#000000">Code</text>
<polygon fill="none" stroke="#000000" points="134.5,-147.2 134.5,-169.2 215.5,-169.2 215.5,-147.2 134.5,-147.2"/>
<text text-anchor="start" x="137.5" y="-154.9" font-family="Helvetica,sans-Serif" font-size="11.00" fill="#000000">varchar[20]</text>
<polygon fill="none" stroke="#000000" points="10.5,-125.2 10.5,-147.2 134.5,-147.2 134.5,-125.2 10.5,-125.2"/>
<text text-anchor="start" x="30.5" y="-132.3" font-family="Helvetica,sans-Serif" font-size="11.00" fill="#000000">Description</text>
<polygon fill="none" stroke="#000000" points="134.5,-125.2 134.5,-147.2 215.5,-147.2 215.5,-125.2 134.5,-125.2"/>
<text text-anchor="start" x="137.5" y="-132.9" font-family="Helvetica,sans-Serif" font-size="11.00" fill="#000000">nvarchar[400]</text>
<polygon fill="none" stroke="#000000" points="10.5,-103.2 10.5,-125.2 134.5,-125.2 134.5,-103.2 10.5,-103.2"/>
<text text-anchor="start" x="30.5" y="-110.3" font-family="Helvetica,sans-Serif" font-size="11.00" fill="#000000">CreatedAtUtc</text>
<polygon fill="none" stroke="#000000" points="134.5,-103.2 134.5,-125.2 215.5,-125.2 215.5,-103.2 134.5,-103.2"/>
<text text-anchor="start" x="137.0967" y="-110.9" font-family="Helvetica,sans-Serif" font-size="11.00" fill="#000000">datetime2[16,7]</text>
<polygon fill="none" stroke="#000000" points="10.5,-81.2 10.5,-103.2 134.5,-103.2 134.5,-81.2 10.5,-81.2"/>
<text text-anchor="start" x="30.5" y="-88.3" font-family="Helvetica,sans-Serif" font-size="11.00" fill="#000000">UpdatedAtUtc</text>
<polygon fill="none" stroke="#000000" points="134.5,-81.2 134.5,-103.2 215.5,-103.2 215.5,-81.2 134.5,-81.2"/>
<text text-anchor="start" x="137.0967" y="-88.9" font-family="Helvetica,sans-Serif" font-size="11.00" fill="#000000">datetime2[16,7]</text>
<polygon fill="none" stroke="#000000" points="10.5,-59.2 10.5,-81.2 134.5,-81.2 134.5,-59.2 10.5,-59.2"/>
<text text-anchor="start" x="30.5" y="-66.3" font-family="Helvetica,sans-Serif" font-size="11.00" fill="#000000">RowVersion</text>
<polygon fill="none" stroke="#000000" points="134.5,-59.2 134.5,-81.2 215.5,-81.2 215.5,-59.2 134.5,-59.2"/>
<text text-anchor="start" x="137.5" y="-66.9" font-family="Helvetica,sans-Serif" font-size="11.00" fill="#000000">timestamp[8]</text>
<polygon fill="#ffffff" stroke="transparent" points="10.5,-40.2 10.5,-59.2 215.5,-59.2 215.5,-40.2 10.5,-40.2"/>
<polygon fill="none" stroke="#000000" points="10.5,-40.2 10.5,-59.2 215.5,-59.2 215.5,-40.2 10.5,-40.2"/>
<polygon fill="#ffffff" stroke="transparent" points="11.5,-41.2 11.5,-58.2 82.5,-58.2 82.5,-41.2 11.5,-41.2"/>
<text text-anchor="start" x="13.5" y="-46.3" font-family="Helvetica,sans-Serif" font-size="11.00" fill="#000000">&lt; 0</text>
<polygon fill="#ffffff" stroke="transparent" points="82.5,-41.2 82.5,-58.2 144.5,-58.2 144.5,-41.2 82.5,-41.2"/>
<text text-anchor="start" x="110.4431" y="-46.3" font-family="Helvetica,sans-Serif" font-size="11.00" fill="#000000"> &#160;</text>
<polygon fill="#ffffff" stroke="transparent" points="144.5,-41.2 144.5,-58.2 214.5,-58.2 214.5,-41.2 144.5,-41.2"/>
<text text-anchor="start" x="196.9053" y="-46.3" font-family="Helvetica,sans-Serif" font-size="11.00" fill="#000000">2 &gt;</text>
<polygon fill="#000000" stroke="#000000" points="82.5,-41.2 82.5,-58.2 82.5,-58.2 82.5,-41.2 82.5,-41.2"/>
<polygon fill="#000000" stroke="#000000" points="144.5,-41.2 144.5,-58.2 144.5,-58.2 144.5,-41.2 144.5,-41.2"/>
<polygon fill="none" stroke="#000000" stroke-width="2" points="9,-39.2 9,-215.2 216,-215.2 216,-39.2 9,-39.2"/>
</a>
</g>
</g>
<!-- ServiceTypeBillingCodes&#45;&gt;BillingCodes -->
<g id="edge1" class="edge">
<title>ServiceTypeBillingCodes:w&#45;&gt;BillingCodes:e</title>
<path fill="none" stroke="#000000" d="M252.5669,-260.868C231.0746,-243.5466 253.5328,-180.2 215.5,-180.2"/>
<polygon fill="#000000" stroke="#000000" points="258.8607,-262.8248 265.4312,-268.6377 262.6804,-264.0124 266.5,-265.2 266.5,-265.2 266.5,-265.2 262.6804,-264.0124 267.5688,-261.7623 258.8607,-262.8248 258.8607,-262.8248"/>
<ellipse fill="none" stroke="#000000" cx="255.805" cy="-261.8747" rx="3.2" ry="3.2"/>
</g>
<!-- VisitServiceBillings -->
<g id="node3" class="node">
<title>VisitServiceBillings</title>
<g id="a_node3"><a xlink:href="../../tables/VisitServiceBillings.html" xlink:title="VisitServiceBillings" target="_top">
<polygon fill="#ffffff" stroke="transparent" points="285.5,-46.7 285.5,-195.7 465.5,-195.7 465.5,-46.7 285.5,-46.7"/>
<polygon fill="#f5f5f5" stroke="transparent" points="285.5,-172.2 285.5,-195.2 465.5,-195.2 465.5,-172.2 285.5,-172.2"/>
<polygon fill="none" stroke="#000000" points="285.5,-172.2 285.5,-195.2 465.5,-195.2 465.5,-172.2 285.5,-172.2"/>
<text text-anchor="start" x="290.5" y="-180.8" font-family="Helvetica,sans-Serif" font-weight="bold" font-size="11.00" fill="#000000">VisitServiceBillings</text>
<text text-anchor="start" x="431.0219" y="-180.3" font-family="Helvetica,sans-Serif" font-size="11.00" fill="#000000">[table]</text>
<polygon fill="none" stroke="#000000" points="285.5,-150.2 285.5,-172.2 465.5,-172.2 465.5,-150.2 285.5,-150.2"/>
<image xlink:href="../../images/primaryKeys.png" width="11px" height="12px" preserveAspectRatio="xMinYMin meet" x="290.5" y="-167.2"/>
<text text-anchor="start" x="314.5" y="-157.3" font-family="Helvetica,sans-Serif" font-size="11.00" fill="#000000">Id</text>
<polygon fill="#ffffff" stroke="transparent" points="285.5,-128.2 285.5,-150.2 465.5,-150.2 465.5,-128.2 285.5,-128.2"/>
<polygon fill="none" stroke="#000000" points="285.5,-128.2 285.5,-150.2 465.5,-150.2 465.5,-128.2 285.5,-128.2"/>
<image xlink:href="../../images/foreignKeys.png" width="11px" height="12px" preserveAspectRatio="xMinYMin meet" x="290.5" y="-145.2"/>
<text text-anchor="start" x="314.5" y="-135.3" font-family="Helvetica,sans-Serif" font-size="11.00" fill="#000000">VisitId</text>
<polygon fill="#ffffff" stroke="transparent" points="285.5,-106.2 285.5,-128.2 465.5,-128.2 465.5,-106.2 285.5,-106.2"/>
<polygon fill="none" stroke="#000000" points="285.5,-106.2 285.5,-128.2 465.5,-128.2 465.5,-106.2 285.5,-106.2"/>
<image xlink:href="../../images/foreignKeys.png" width="11px" height="12px" preserveAspectRatio="xMinYMin meet" x="290.5" y="-123.2"/>
<text text-anchor="start" x="314.5" y="-113.3" font-family="Helvetica,sans-Serif" font-size="11.00" fill="#000000">ServiceTypeId</text>
<polygon fill="#ffffff" stroke="transparent" points="285.5,-84.2 285.5,-106.2 465.5,-106.2 465.5,-84.2 285.5,-84.2"/>
<polygon fill="none" stroke="#000000" points="285.5,-84.2 285.5,-106.2 465.5,-106.2 465.5,-84.2 285.5,-84.2"/>
<image xlink:href="../../images/foreignKeys.png" width="11px" height="12px" preserveAspectRatio="xMinYMin meet" x="290.5" y="-101.2"/>
<text text-anchor="start" x="314.5" y="-91.3" font-family="Helvetica,sans-Serif" font-size="11.00" fill="#000000">BillingCodeId</text>
<polygon fill="none" stroke="#000000" points="285.5,-65.2 285.5,-84.2 465.5,-84.2 465.5,-65.2 285.5,-65.2"/>
<text text-anchor="start" x="288.5" y="-71.3" font-family="Helvetica,sans-Serif" font-size="11.00" fill="#000000">...</text>
<polygon fill="#ffffff" stroke="transparent" points="285.5,-46.2 285.5,-65.2 465.5,-65.2 465.5,-46.2 285.5,-46.2"/>
<polygon fill="none" stroke="#000000" points="285.5,-46.2 285.5,-65.2 465.5,-65.2 465.5,-46.2 285.5,-46.2"/>
<polygon fill="#ffffff" stroke="transparent" points="286.5,-47.2 286.5,-64.2 352.5,-64.2 352.5,-47.2 286.5,-47.2"/>
<text text-anchor="start" x="288.5" y="-52.3" font-family="Helvetica,sans-Serif" font-size="11.00" fill="#000000">&lt; 3</text>
<polygon fill="#ffffff" stroke="transparent" points="352.5,-47.2 352.5,-64.2 408.5,-64.2 408.5,-47.2 352.5,-47.2"/>
<text text-anchor="start" x="377.4431" y="-52.3" font-family="Helvetica,sans-Serif" font-size="11.00" fill="#000000"> &#160;</text>
<polygon fill="#ffffff" stroke="transparent" points="408.5,-47.2 408.5,-64.2 464.5,-64.2 464.5,-47.2 408.5,-47.2"/>
<text text-anchor="start" x="456.3862" y="-52.3" font-family="Helvetica,sans-Serif" font-size="11.00" fill="#000000"> &#160;</text>
<polygon fill="#000000" stroke="#000000" points="352.5,-47.2 352.5,-64.2 352.5,-64.2 352.5,-47.2 352.5,-47.2"/>
<polygon fill="#000000" stroke="#000000" points="408.5,-47.2 408.5,-64.2 408.5,-64.2 408.5,-47.2 408.5,-47.2"/>
</a>
</g>
</g>
<!-- VisitServiceBillings&#45;&gt;BillingCodes -->
<g id="edge2" class="edge">
<title>VisitServiceBillings:w&#45;&gt;BillingCodes:e</title>
<path fill="none" stroke="#000000" d="M271.2123,-98.4283C242.0398,-113.9546 258.7043,-180.2 215.5,-180.2"/>
<polygon fill="#000000" stroke="#000000" points="277.6967,-96.9632 286.2934,-98.7115 281.5984,-96.0816 285.5,-95.2 285.5,-95.2 285.5,-95.2 281.5984,-96.0816 284.7066,-91.6885 277.6967,-96.9632 277.6967,-96.9632"/>
<ellipse fill="none" stroke="#000000" cx="274.5754" cy="-97.6685" rx="3.2" ry="3.2"/>
</g>
</g>
</svg>
