<?xml version="1.0" encoding="UTF-8" standalone="no"?>
<!DOCTYPE svg PUBLIC "-//W3C//DTD SVG 1.1//EN"
 "http://www.w3.org/Graphics/SVG/1.1/DTD/svg11.dtd">
<!-- Generated by graphviz version 2.40.1 (20161225.0304)
 -->
<!-- Title: oneDegreeRelationshipsDiagram Pages: 1 -->
<svg width="553pt" height="255pt"
 viewBox="0.00 0.00 553.00 254.70" xmlns="http://www.w3.org/2000/svg" xmlns:xlink="http://www.w3.org/1999/xlink">
<g id="graph0" class="graph" transform="scale(1 1) rotate(0) translate(4 250.7)">
<title>oneDegreeRelationshipsDiagram</title>
<polygon fill="#ffffff" stroke="transparent" points="-4,4 -4,-250.7 549,-250.7 549,4 -4,4"/>
<text text-anchor="middle" x="72.4936" y="-7.3" font-family="Helvetica,sans-Serif" font-size="11.00" fill="#000000">Generated by SchemaSpy</text>
<!-- ServiceTypeBillingCodes -->
<g id="node1" class="node">
<title>ServiceTypeBillingCodes</title>
<g id="a_node1"><a xlink:href="../../tables/ServiceTypeBillingCodes.html" xlink:title="ServiceTypeBillingCodes" target="_top">
<polygon fill="#ffffff" stroke="transparent" points="251,-38.2 251,-238.2 537,-238.2 537,-38.2 251,-38.2"/>
<polygon fill="#f5f5f5" stroke="transparent" points="253,-213.2 253,-236.2 535,-236.2 535,-213.2 253,-213.2"/>
<polygon fill="none" stroke="#000000" points="253,-213.2 253,-236.2 535,-236.2 535,-213.2 253,-213.2"/>
<text text-anchor="start" x="258" y="-221.8" font-family="Helvetica,sans-Serif" font-weight="bold" font-size="11.00" fill="#000000">ServiceTypeBillingCodes</text>
<text text-anchor="start" x="500.0437" y="-221.3" font-family="Helvetica,sans-Serif" font-size="11.00" fill="#000000">[table]</text>
<polygon fill="none" stroke="#000000" points="253,-191.2 253,-213.2 454,-213.2 454,-191.2 253,-191.2"/>
<image xlink:href="../../images/primaryKeys.png" width="11px" height="12px" preserveAspectRatio="xMinYMin meet" x="258" y="-208.2"/>
<text text-anchor="start" x="273" y="-198.3" font-family="Helvetica,sans-Serif" font-size="11.00" fill="#000000">Id</text>
<polygon fill="none" stroke="#000000" points="454,-191.2 454,-213.2 535,-213.2 535,-191.2 454,-191.2"/>
<text text-anchor="start" x="457" y="-198.9" font-family="Helvetica,sans-Serif" font-size="11.00" fill="#000000">int identity[4]</text>
<polygon fill="#ffffff" stroke="transparent" points="253,-169.2 253,-191.2 454,-191.2 454,-169.2 253,-169.2"/>
<polygon fill="none" stroke="#000000" points="253,-169.2 253,-191.2 454,-191.2 454,-169.2 253,-169.2"/>
<image xlink:href="../../images/foreignKeys.png" width="11px" height="12px" preserveAspectRatio="xMinYMin meet" x="258" y="-186.2"/>
<text text-anchor="start" x="273" y="-176.3" font-family="Helvetica,sans-Serif" font-size="11.00" fill="#000000">ServiceTypeId</text>
<polygon fill="none" stroke="#000000" points="454,-169.2 454,-191.2 535,-191.2 535,-169.2 454,-169.2"/>
<text text-anchor="start" x="457" y="-176.9" font-family="Helvetica,sans-Serif" font-size="11.00" fill="#000000">int[4]</text>
<polygon fill="#ffffff" stroke="transparent" points="253,-147.2 253,-169.2 454,-169.2 454,-147.2 253,-147.2"/>
<polygon fill="none" stroke="#000000" points="253,-147.2 253,-169.2 454,-169.2 454,-147.2 253,-147.2"/>
<image xlink:href="../../images/foreignKeys.png" width="11px" height="12px" preserveAspectRatio="xMinYMin meet" x="258" y="-164.2"/>
<text text-anchor="start" x="273" y="-154.3" font-family="Helvetica,sans-Serif" font-size="11.00" fill="#000000">BillingCodeId</text>
<polygon fill="none" stroke="#000000" points="454,-147.2 454,-169.2 535,-169.2 535,-147.2 454,-147.2"/>
<text text-anchor="start" x="457" y="-154.9" font-family="Helvetica,sans-Serif" font-size="11.00" fill="#000000">int[4]</text>
<polygon fill="none" stroke="#000000" points="253,-125.2 253,-147.2 454,-147.2 454,-125.2 253,-125.2"/>
<text text-anchor="start" x="273" y="-132.3" font-family="Helvetica,sans-Serif" font-size="11.00" fill="#000000">IsDefault</text>
<polygon fill="none" stroke="#000000" points="454,-125.2 454,-147.2 535,-147.2 535,-125.2 454,-125.2"/>
<text text-anchor="start" x="457" y="-132.9" font-family="Helvetica,sans-Serif" font-size="11.00" fill="#000000">bit[1]</text>
<polygon fill="none" stroke="#000000" points="253,-103.2 253,-125.2 454,-125.2 454,-103.2 253,-103.2"/>
<text text-anchor="start" x="273" y="-110.3" font-family="Helvetica,sans-Serif" font-size="11.00" fill="#000000">CreatedAtUtc</text>
<polygon fill="none" stroke="#000000" points="454,-103.2 454,-125.2 535,-125.2 535,-103.2 454,-103.2"/>
<text text-anchor="start" x="456.5968" y="-110.9" font-family="Helvetica,sans-Serif" font-size="11.00" fill="#000000">datetime2[16,7]</text>
<polygon fill="none" stroke="#000000" points="253,-81.2 253,-103.2 454,-103.2 454,-81.2 253,-81.2"/>
<text text-anchor="start" x="273" y="-88.3" font-family="Helvetica,sans-Serif" font-size="11.00" fill="#000000">UpdatedAtUtc</text>
<polygon fill="none" stroke="#000000" points="454,-81.2 454,-103.2 535,-103.2 535,-81.2 454,-81.2"/>
<text text-anchor="start" x="456.5968" y="-88.9" font-family="Helvetica,sans-Serif" font-size="11.00" fill="#000000">datetime2[16,7]</text>
<polygon fill="none" stroke="#000000" points="253,-59.2 253,-81.2 454,-81.2 454,-59.2 253,-59.2"/>
<text text-anchor="start" x="273" y="-66.3" font-family="Helvetica,sans-Serif" font-size="11.00" fill="#000000">RowVersion</text>
<polygon fill="none" stroke="#000000" points="454,-59.2 454,-81.2 535,-81.2 535,-59.2 454,-59.2"/>
<text text-anchor="start" x="457" y="-66.9" font-family="Helvetica,sans-Serif" font-size="11.00" fill="#000000">timestamp[8]</text>
<polygon fill="#ffffff" stroke="transparent" points="253,-40.2 253,-59.2 535,-59.2 535,-40.2 253,-40.2"/>
<polygon fill="none" stroke="#000000" points="253,-40.2 253,-59.2 535,-59.2 535,-40.2 253,-40.2"/>
<polygon fill="#ffffff" stroke="transparent" points="254,-41.2 254,-58.2 351,-58.2 351,-41.2 254,-41.2"/>
<text text-anchor="start" x="256" y="-46.3" font-family="Helvetica,sans-Serif" font-size="11.00" fill="#000000">&lt; 2</text>
<polygon fill="#ffffff" stroke="transparent" points="351,-41.2 351,-58.2 438,-58.2 438,-41.2 351,-41.2"/>
<text text-anchor="start" x="391.4431" y="-46.3" font-family="Helvetica,sans-Serif" font-size="11.00" fill="#000000"> &#160;</text>
<polygon fill="#ffffff" stroke="transparent" points="438,-41.2 438,-58.2 534,-58.2 534,-41.2 438,-41.2"/>
<text text-anchor="start" x="516.4053" y="-46.3" font-family="Helvetica,sans-Serif" font-size="11.00" fill="#000000">0 &gt;</text>
<polygon fill="#000000" stroke="#000000" points="351,-41.2 351,-58.2 351,-58.2 351,-41.2 351,-41.2"/>
<polygon fill="#000000" stroke="#000000" points="438,-41.2 438,-58.2 438,-58.2 438,-41.2 438,-41.2"/>
<polygon fill="none" stroke="#000000" stroke-width="2" points="252,-39.2 252,-237.2 536,-237.2 536,-39.2 252,-39.2"/>
</a>
</g>
</g>
<!-- BillingCodes -->
<g id="node2" class="node">
<title>BillingCodes</title>
<g id="a_node2"><a xlink:href="../../tables/BillingCodes.html" xlink:title="BillingCodes" target="_top">
<polygon fill="#ffffff" stroke="transparent" points="40.5,-55.7 40.5,-160.7 169.5,-160.7 169.5,-55.7 40.5,-55.7"/>
<polygon fill="#f5f5f5" stroke="transparent" points="41,-137.2 41,-160.2 170,-160.2 170,-137.2 41,-137.2"/>
<polygon fill="none" stroke="#000000" points="41,-137.2 41,-160.2 170,-160.2 170,-137.2 41,-137.2"/>
<text text-anchor="start" x="46" y="-145.8" font-family="Helvetica,sans-Serif" font-weight="bold" font-size="11.00" fill="#000000">BillingCodes</text>
<text text-anchor="start" x="135.5219" y="-145.3" font-family="Helvetica,sans-Serif" font-size="11.00" fill="#000000">[table]</text>
<polygon fill="none" stroke="#000000" points="41,-115.2 41,-137.2 170,-137.2 170,-115.2 41,-115.2"/>
<image xlink:href="../../images/primaryKeys.png" width="11px" height="12px" preserveAspectRatio="xMinYMin meet" x="46" y="-132.2"/>
<text text-anchor="start" x="64" y="-122.3" font-family="Helvetica,sans-Serif" font-size="11.00" fill="#000000">Id</text>
<polygon fill="#ffffff" stroke="transparent" points="41,-93.2 41,-115.2 170,-115.2 170,-93.2 41,-93.2"/>
<polygon fill="none" stroke="#000000" points="41,-93.2 41,-115.2 170,-115.2 170,-93.2 41,-93.2"/>
<text text-anchor="start" x="64" y="-100.3" font-family="Helvetica,sans-Serif" font-size="11.00" fill="#000000">Code</text>
<polygon fill="none" stroke="#000000" points="41,-74.2 41,-93.2 170,-93.2 170,-74.2 41,-74.2"/>
<text text-anchor="start" x="44" y="-80.3" font-family="Helvetica,sans-Serif" font-size="11.00" fill="#000000">...</text>
<polygon fill="#ffffff" stroke="transparent" points="41,-55.2 41,-74.2 170,-74.2 170,-55.2 41,-55.2"/>
<polygon fill="none" stroke="#000000" points="41,-55.2 41,-74.2 170,-74.2 170,-55.2 41,-55.2"/>
<polygon fill="#ffffff" stroke="transparent" points="42,-56.2 42,-73.2 82,-73.2 82,-56.2 42,-56.2"/>
<text text-anchor="start" x="44" y="-61.3" font-family="Helvetica,sans-Serif" font-size="11.00" fill="#000000"> &#160;</text>
<polygon fill="#ffffff" stroke="transparent" points="82,-56.2 82,-73.2 121,-73.2 121,-56.2 82,-56.2"/>
<text text-anchor="start" x="98.4431" y="-61.3" font-family="Helvetica,sans-Serif" font-size="11.00" fill="#000000"> &#160;</text>
<polygon fill="#ffffff" stroke="transparent" points="121,-56.2 121,-73.2 169,-73.2 169,-56.2 121,-56.2"/>
<text text-anchor="start" x="151.4053" y="-61.3" font-family="Helvetica,sans-Serif" font-size="11.00" fill="#000000">2 &gt;</text>
<polygon fill="#000000" stroke="#000000" points="82,-56.2 82,-73.2 82,-73.2 82,-56.2 82,-56.2"/>
<polygon fill="#000000" stroke="#000000" points="121,-56.2 121,-73.2 121,-73.2 121,-56.2 121,-56.2"/>
</a>
</g>
</g>
<!-- ServiceTypeBillingCodes&#45;&gt;BillingCodes -->
<g id="edge1" class="edge">
<title>ServiceTypeBillingCodes:w&#45;&gt;BillingCodes:e</title>
<path fill="none" stroke="#000000" d="M238.5989,-156.5691C211.7246,-150.0481 204.1303,-126.2 170,-126.2"/>
<polygon fill="#000000" stroke="#000000" points="245.0508,-157.2997 252.5949,-161.7771 249.0254,-157.7499 253,-158.2 253,-158.2 253,-158.2 249.0254,-157.7499 253.4051,-154.6229 245.0508,-157.2997 245.0508,-157.2997"/>
<ellipse fill="none" stroke="#000000" cx="241.8711" cy="-156.9396" rx="3.2" ry="3.2"/>
</g>
<!-- Clinical.ServiceTypes -->
<g id="node3" class="node">
<title>Clinical.ServiceTypes</title>
<g id="a_node3"><a xlink:title="Clinical.ServiceTypes">
<polygon fill="#ffffff" stroke="transparent" points="8,-181.7 8,-242.7 202,-242.7 202,-181.7 8,-181.7"/>
<polygon fill="#f5f5f5" stroke="transparent" points="8,-219.2 8,-242.2 202,-242.2 202,-219.2 8,-219.2"/>
<polygon fill="none" stroke="#000000" points="8,-219.2 8,-242.2 202,-242.2 202,-219.2 8,-219.2"/>
<text text-anchor="start" x="13" y="-227.8" font-family="Helvetica,sans-Serif" font-weight="bold" font-size="11.00" fill="#000000">Clinical.ServiceTypes</text>
<text text-anchor="start" x="167.5219" y="-227.3" font-family="Helvetica,sans-Serif" font-size="11.00" fill="#000000">[table]</text>
<polygon fill="none" stroke="#000000" points="8,-200.2 8,-219.2 202,-219.2 202,-200.2 8,-200.2"/>
<text text-anchor="start" x="11" y="-206.3" font-family="Helvetica,sans-Serif" font-size="11.00" fill="#000000">...</text>
<polygon fill="#ffffff" stroke="transparent" points="8,-181.2 8,-200.2 202,-200.2 202,-181.2 8,-181.2"/>
<polygon fill="none" stroke="#000000" points="8,-181.2 8,-200.2 202,-200.2 202,-181.2 8,-181.2"/>
<polygon fill="#ffffff" stroke="transparent" points="9,-182.2 9,-199.2 70,-199.2 70,-182.2 9,-182.2"/>
<text text-anchor="start" x="11" y="-187.3" font-family="Helvetica,sans-Serif" font-size="11.00" fill="#000000"> &#160;</text>
<polygon fill="#ffffff" stroke="transparent" points="70,-182.2 70,-199.2 131,-199.2 131,-182.2 70,-182.2"/>
<text text-anchor="start" x="97.4431" y="-187.3" font-family="Helvetica,sans-Serif" font-size="11.00" fill="#000000"> &#160;</text>
<polygon fill="#ffffff" stroke="transparent" points="131,-182.2 131,-199.2 201,-199.2 201,-182.2 131,-182.2"/>
<text text-anchor="start" x="183.4053" y="-187.3" font-family="Helvetica,sans-Serif" font-size="11.00" fill="#000000">2 &gt;</text>
<polygon fill="#000000" stroke="#000000" points="70,-182.2 70,-199.2 70,-199.2 70,-182.2 70,-182.2"/>
<polygon fill="#000000" stroke="#000000" points="131,-182.2 131,-199.2 131,-199.2 131,-182.2 131,-182.2"/>
</a>
</g>
</g>
<!-- ServiceTypeBillingCodes&#45;&gt;Clinical.ServiceTypes -->
<g id="edge2" class="edge">
<title>ServiceTypeBillingCodes:w&#45;&gt;Clinical.ServiceTypes:e</title>
<path fill="none" stroke="#000000" d="M238.4621,-180.6631C229.1243,-181.2379 219.6627,-182.3193 210.3132,-183.7468"/>
<polygon fill="#000000" stroke="#000000" points="245.0041,-180.4548 253.1147,-183.7982 249.002,-180.3274 253,-180.2 253,-180.2 253,-180.2 249.002,-180.3274 252.8853,-176.6018 245.0041,-180.4548 245.0041,-180.4548"/>
<ellipse fill="none" stroke="#000000" cx="241.8057" cy="-180.5567" rx="3.2" ry="3.2"/>
</g>
</g>
</svg>
