<?xml version="1.0" encoding="UTF-8" standalone="no"?>
<!DOCTYPE svg PUBLIC "-//W3C//DTD SVG 1.1//EN"
 "http://www.w3.org/Graphics/SVG/1.1/DTD/svg11.dtd">
<!-- Generated by graphviz version 2.40.1 (20161225.0304)
 -->
<!-- Title: twoDegreesRelationshipsDiagram Pages: 1 -->
<svg width="553pt" height="348pt"
 viewBox="0.00 0.00 553.00 347.70" xmlns="http://www.w3.org/2000/svg" xmlns:xlink="http://www.w3.org/1999/xlink">
<g id="graph0" class="graph" transform="scale(1 1) rotate(0) translate(4 343.7)">
<title>twoDegreesRelationshipsDiagram</title>
<polygon fill="#ffffff" stroke="transparent" points="-4,4 -4,-343.7 549,-343.7 549,4 -4,4"/>
<text text-anchor="middle" x="72.4936" y="-7.3" font-family="Helvetica,sans-Serif" font-size="11.00" fill="#000000">Generated by SchemaSpy</text>
<!-- ServiceTypeBillingCodes -->
<g id="node1" class="node">
<title>ServiceTypeBillingCodes</title>
<g id="a_node1"><a xlink:href="../../tables/ServiceTypeBillingCodes.html" xlink:title="ServiceTypeBillingCodes" target="_top">
<polygon fill="#ffffff" stroke="transparent" points="251,-135.7 251,-335.7 537,-335.7 537,-135.7 251,-135.7"/>
<polygon fill="#f5f5f5" stroke="transparent" points="253,-310.7 253,-333.7 535,-333.7 535,-310.7 253,-310.7"/>
<polygon fill="none" stroke="#000000" points="253,-310.7 253,-333.7 535,-333.7 535,-310.7 253,-310.7"/>
<text text-anchor="start" x="258" y="-319.3" font-family="Helvetica,sans-Serif" font-weight="bold" font-size="11.00" fill="#000000">ServiceTypeBillingCodes</text>
<text text-anchor="start" x="500.0437" y="-318.8" font-family="Helvetica,sans-Serif" font-size="11.00" fill="#000000">[table]</text>
<polygon fill="none" stroke="#000000" points="253,-288.7 253,-310.7 454,-310.7 454,-288.7 253,-288.7"/>
<image xlink:href="../../images/primaryKeys.png" width="11px" height="12px" preserveAspectRatio="xMinYMin meet" x="258" y="-305.7"/>
<text text-anchor="start" x="273" y="-295.8" font-family="Helvetica,sans-Serif" font-size="11.00" fill="#000000">Id</text>
<polygon fill="none" stroke="#000000" points="454,-288.7 454,-310.7 535,-310.7 535,-288.7 454,-288.7"/>
<text text-anchor="start" x="457" y="-296.4" font-family="Helvetica,sans-Serif" font-size="11.00" fill="#000000">int identity[4]</text>
<polygon fill="#ffffff" stroke="transparent" points="253,-266.7 253,-288.7 454,-288.7 454,-266.7 253,-266.7"/>
<polygon fill="none" stroke="#000000" points="253,-266.7 253,-288.7 454,-288.7 454,-266.7 253,-266.7"/>
<image xlink:href="../../images/foreignKeys.png" width="11px" height="12px" preserveAspectRatio="xMinYMin meet" x="258" y="-283.7"/>
<text text-anchor="start" x="273" y="-273.8" font-family="Helvetica,sans-Serif" font-size="11.00" fill="#000000">ServiceTypeId</text>
<polygon fill="none" stroke="#000000" points="454,-266.7 454,-288.7 535,-288.7 535,-266.7 454,-266.7"/>
<text text-anchor="start" x="457" y="-274.4" font-family="Helvetica,sans-Serif" font-size="11.00" fill="#000000">int[4]</text>
<polygon fill="#ffffff" stroke="transparent" points="253,-244.7 253,-266.7 454,-266.7 454,-244.7 253,-244.7"/>
<polygon fill="none" stroke="#000000" points="253,-244.7 253,-266.7 454,-266.7 454,-244.7 253,-244.7"/>
<image xlink:href="../../images/foreignKeys.png" width="11px" height="12px" preserveAspectRatio="xMinYMin meet" x="258" y="-261.7"/>
<text text-anchor="start" x="273" y="-251.8" font-family="Helvetica,sans-Serif" font-size="11.00" fill="#000000">BillingCodeId</text>
<polygon fill="none" stroke="#000000" points="454,-244.7 454,-266.7 535,-266.7 535,-244.7 454,-244.7"/>
<text text-anchor="start" x="457" y="-252.4" font-family="Helvetica,sans-Serif" font-size="11.00" fill="#000000">int[4]</text>
<polygon fill="none" stroke="#000000" points="253,-222.7 253,-244.7 454,-244.7 454,-222.7 253,-222.7"/>
<text text-anchor="start" x="273" y="-229.8" font-family="Helvetica,sans-Serif" font-size="11.00" fill="#000000">IsDefault</text>
<polygon fill="none" stroke="#000000" points="454,-222.7 454,-244.7 535,-244.7 535,-222.7 454,-222.7"/>
<text text-anchor="start" x="457" y="-230.4" font-family="Helvetica,sans-Serif" font-size="11.00" fill="#000000">bit[1]</text>
<polygon fill="none" stroke="#000000" points="253,-200.7 253,-222.7 454,-222.7 454,-200.7 253,-200.7"/>
<text text-anchor="start" x="273" y="-207.8" font-family="Helvetica,sans-Serif" font-size="11.00" fill="#000000">CreatedAtUtc</text>
<polygon fill="none" stroke="#000000" points="454,-200.7 454,-222.7 535,-222.7 535,-200.7 454,-200.7"/>
<text text-anchor="start" x="456.5968" y="-208.4" font-family="Helvetica,sans-Serif" font-size="11.00" fill="#000000">datetime2[16,7]</text>
<polygon fill="none" stroke="#000000" points="253,-178.7 253,-200.7 454,-200.7 454,-178.7 253,-178.7"/>
<text text-anchor="start" x="273" y="-185.8" font-family="Helvetica,sans-Serif" font-size="11.00" fill="#000000">UpdatedAtUtc</text>
<polygon fill="none" stroke="#000000" points="454,-178.7 454,-200.7 535,-200.7 535,-178.7 454,-178.7"/>
<text text-anchor="start" x="456.5968" y="-186.4" font-family="Helvetica,sans-Serif" font-size="11.00" fill="#000000">datetime2[16,7]</text>
<polygon fill="none" stroke="#000000" points="253,-156.7 253,-178.7 454,-178.7 454,-156.7 253,-156.7"/>
<text text-anchor="start" x="273" y="-163.8" font-family="Helvetica,sans-Serif" font-size="11.00" fill="#000000">RowVersion</text>
<polygon fill="none" stroke="#000000" points="454,-156.7 454,-178.7 535,-178.7 535,-156.7 454,-156.7"/>
<text text-anchor="start" x="457" y="-164.4" font-family="Helvetica,sans-Serif" font-size="11.00" fill="#000000">timestamp[8]</text>
<polygon fill="#ffffff" stroke="transparent" points="253,-137.7 253,-156.7 535,-156.7 535,-137.7 253,-137.7"/>
<polygon fill="none" stroke="#000000" points="253,-137.7 253,-156.7 535,-156.7 535,-137.7 253,-137.7"/>
<polygon fill="#ffffff" stroke="transparent" points="254,-138.7 254,-155.7 351,-155.7 351,-138.7 254,-138.7"/>
<text text-anchor="start" x="256" y="-143.8" font-family="Helvetica,sans-Serif" font-size="11.00" fill="#000000">&lt; 2</text>
<polygon fill="#ffffff" stroke="transparent" points="351,-138.7 351,-155.7 438,-155.7 438,-138.7 351,-138.7"/>
<text text-anchor="start" x="391.4431" y="-143.8" font-family="Helvetica,sans-Serif" font-size="11.00" fill="#000000"> &#160;</text>
<polygon fill="#ffffff" stroke="transparent" points="438,-138.7 438,-155.7 534,-155.7 534,-138.7 438,-138.7"/>
<text text-anchor="start" x="516.4053" y="-143.8" font-family="Helvetica,sans-Serif" font-size="11.00" fill="#000000">0 &gt;</text>
<polygon fill="#000000" stroke="#000000" points="351,-138.7 351,-155.7 351,-155.7 351,-138.7 351,-138.7"/>
<polygon fill="#000000" stroke="#000000" points="438,-138.7 438,-155.7 438,-155.7 438,-138.7 438,-138.7"/>
<polygon fill="none" stroke="#000000" stroke-width="2" points="252,-136.7 252,-334.7 536,-334.7 536,-136.7 252,-136.7"/>
</a>
</g>
</g>
<!-- BillingCodes -->
<g id="node2" class="node">
<title>BillingCodes</title>
<g id="a_node2"><a xlink:href="../../tables/BillingCodes.html" xlink:title="BillingCodes" target="_top">
<polygon fill="#ffffff" stroke="transparent" points="40.5,-38.2 40.5,-143.2 169.5,-143.2 169.5,-38.2 40.5,-38.2"/>
<polygon fill="#f5f5f5" stroke="transparent" points="41,-119.7 41,-142.7 170,-142.7 170,-119.7 41,-119.7"/>
<polygon fill="none" stroke="#000000" points="41,-119.7 41,-142.7 170,-142.7 170,-119.7 41,-119.7"/>
<text text-anchor="start" x="46" y="-128.3" font-family="Helvetica,sans-Serif" font-weight="bold" font-size="11.00" fill="#000000">BillingCodes</text>
<text text-anchor="start" x="135.5219" y="-127.8" font-family="Helvetica,sans-Serif" font-size="11.00" fill="#000000">[table]</text>
<polygon fill="none" stroke="#000000" points="41,-97.7 41,-119.7 170,-119.7 170,-97.7 41,-97.7"/>
<image xlink:href="../../images/primaryKeys.png" width="11px" height="12px" preserveAspectRatio="xMinYMin meet" x="46" y="-114.7"/>
<text text-anchor="start" x="64" y="-104.8" font-family="Helvetica,sans-Serif" font-size="11.00" fill="#000000">Id</text>
<polygon fill="#ffffff" stroke="transparent" points="41,-75.7 41,-97.7 170,-97.7 170,-75.7 41,-75.7"/>
<polygon fill="none" stroke="#000000" points="41,-75.7 41,-97.7 170,-97.7 170,-75.7 41,-75.7"/>
<text text-anchor="start" x="64" y="-82.8" font-family="Helvetica,sans-Serif" font-size="11.00" fill="#000000">Code</text>
<polygon fill="none" stroke="#000000" points="41,-56.7 41,-75.7 170,-75.7 170,-56.7 41,-56.7"/>
<text text-anchor="start" x="44" y="-62.8" font-family="Helvetica,sans-Serif" font-size="11.00" fill="#000000">...</text>
<polygon fill="#ffffff" stroke="transparent" points="41,-37.7 41,-56.7 170,-56.7 170,-37.7 41,-37.7"/>
<polygon fill="none" stroke="#000000" points="41,-37.7 41,-56.7 170,-56.7 170,-37.7 41,-37.7"/>
<polygon fill="#ffffff" stroke="transparent" points="42,-38.7 42,-55.7 82,-55.7 82,-38.7 42,-38.7"/>
<text text-anchor="start" x="44" y="-43.8" font-family="Helvetica,sans-Serif" font-size="11.00" fill="#000000"> &#160;</text>
<polygon fill="#ffffff" stroke="transparent" points="82,-38.7 82,-55.7 121,-55.7 121,-38.7 82,-38.7"/>
<text text-anchor="start" x="98.4431" y="-43.8" font-family="Helvetica,sans-Serif" font-size="11.00" fill="#000000"> &#160;</text>
<polygon fill="#ffffff" stroke="transparent" points="121,-38.7 121,-55.7 169,-55.7 169,-38.7 121,-38.7"/>
<text text-anchor="start" x="151.4053" y="-43.8" font-family="Helvetica,sans-Serif" font-size="11.00" fill="#000000">2 &gt;</text>
<polygon fill="#000000" stroke="#000000" points="82,-38.7 82,-55.7 82,-55.7 82,-38.7 82,-38.7"/>
<polygon fill="#000000" stroke="#000000" points="121,-38.7 121,-55.7 121,-55.7 121,-38.7 121,-38.7"/>
</a>
</g>
</g>
<!-- ServiceTypeBillingCodes&#45;&gt;BillingCodes -->
<g id="edge1" class="edge">
<title>ServiceTypeBillingCodes:w&#45;&gt;BillingCodes:e</title>
<path fill="none" stroke="#000000" d="M238.5263,-253.391C187.1428,-234.6894 239.4597,-108.7 170,-108.7"/>
<polygon fill="#000000" stroke="#000000" points="245.0999,-254.4396 252.4328,-259.255 249.0499,-255.0698 253,-255.7 253,-255.7 253,-255.7 249.0499,-255.0698 253.5672,-252.145 245.0999,-254.4396 245.0999,-254.4396"/>
<ellipse fill="none" stroke="#000000" cx="241.9399" cy="-253.9355" rx="3.2" ry="3.2"/>
</g>
<!-- Clinical.ServiceTypes -->
<g id="node3" class="node">
<title>Clinical.ServiceTypes</title>
<g id="a_node3"><a xlink:title="Clinical.ServiceTypes">
<polygon fill="#ffffff" stroke="transparent" points="8,-219.2 8,-280.2 202,-280.2 202,-219.2 8,-219.2"/>
<polygon fill="#f5f5f5" stroke="transparent" points="8,-256.7 8,-279.7 202,-279.7 202,-256.7 8,-256.7"/>
<polygon fill="none" stroke="#000000" points="8,-256.7 8,-279.7 202,-279.7 202,-256.7 8,-256.7"/>
<text text-anchor="start" x="13" y="-265.3" font-family="Helvetica,sans-Serif" font-weight="bold" font-size="11.00" fill="#000000">Clinical.ServiceTypes</text>
<text text-anchor="start" x="167.5219" y="-264.8" font-family="Helvetica,sans-Serif" font-size="11.00" fill="#000000">[table]</text>
<polygon fill="none" stroke="#000000" points="8,-237.7 8,-256.7 202,-256.7 202,-237.7 8,-237.7"/>
<text text-anchor="start" x="11" y="-243.8" font-family="Helvetica,sans-Serif" font-size="11.00" fill="#000000">...</text>
<polygon fill="#ffffff" stroke="transparent" points="8,-218.7 8,-237.7 202,-237.7 202,-218.7 8,-218.7"/>
<polygon fill="none" stroke="#000000" points="8,-218.7 8,-237.7 202,-237.7 202,-218.7 8,-218.7"/>
<polygon fill="#ffffff" stroke="transparent" points="9,-219.7 9,-236.7 70,-236.7 70,-219.7 9,-219.7"/>
<text text-anchor="start" x="11" y="-224.8" font-family="Helvetica,sans-Serif" font-size="11.00" fill="#000000"> &#160;</text>
<polygon fill="#ffffff" stroke="transparent" points="70,-219.7 70,-236.7 131,-236.7 131,-219.7 70,-219.7"/>
<text text-anchor="start" x="97.4431" y="-224.8" font-family="Helvetica,sans-Serif" font-size="11.00" fill="#000000"> &#160;</text>
<polygon fill="#ffffff" stroke="transparent" points="131,-219.7 131,-236.7 201,-236.7 201,-219.7 131,-219.7"/>
<text text-anchor="start" x="183.4053" y="-224.8" font-family="Helvetica,sans-Serif" font-size="11.00" fill="#000000">2 &gt;</text>
<polygon fill="#000000" stroke="#000000" points="70,-219.7 70,-236.7 70,-236.7 70,-219.7 70,-219.7"/>
<polygon fill="#000000" stroke="#000000" points="131,-219.7 131,-236.7 131,-236.7 131,-219.7 131,-219.7"/>
</a>
</g>
</g>
<!-- ServiceTypeBillingCodes&#45;&gt;Clinical.ServiceTypes -->
<g id="edge2" class="edge">
<title>ServiceTypeBillingCodes:w&#45;&gt;Clinical.ServiceTypes:e</title>
<path fill="none" stroke="#000000" d="M238.3892,-277.2873C228.9974,-276.7752 219.4687,-275.8121 210.0486,-274.5425"/>
<polygon fill="#000000" stroke="#000000" points="245.0032,-277.474 252.8983,-281.2986 249.0016,-277.587 253,-277.7 253,-277.7 253,-277.7 249.0016,-277.587 253.1017,-274.1014 245.0032,-277.474 245.0032,-277.474"/>
<ellipse fill="none" stroke="#000000" cx="241.8045" cy="-277.3837" rx="3.2" ry="3.2"/>
</g>
<!-- VisitServiceBillings -->
<g id="node4" class="node">
<title>VisitServiceBillings</title>
<g id="a_node4"><a xlink:href="../../tables/VisitServiceBillings.html" xlink:title="VisitServiceBillings" target="_top">
<polygon fill="#ffffff" stroke="transparent" points="304,-53.2 304,-114.2 484,-114.2 484,-53.2 304,-53.2"/>
<polygon fill="#f5f5f5" stroke="transparent" points="304,-90.7 304,-113.7 484,-113.7 484,-90.7 304,-90.7"/>
<polygon fill="none" stroke="#000000" points="304,-90.7 304,-113.7 484,-113.7 484,-90.7 304,-90.7"/>
<text text-anchor="start" x="309" y="-99.3" font-family="Helvetica,sans-Serif" font-weight="bold" font-size="11.00" fill="#000000">VisitServiceBillings</text>
<text text-anchor="start" x="449.5219" y="-98.8" font-family="Helvetica,sans-Serif" font-size="11.00" fill="#000000">[table]</text>
<polygon fill="none" stroke="#000000" points="304,-71.7 304,-90.7 484,-90.7 484,-71.7 304,-71.7"/>
<text text-anchor="start" x="307" y="-77.8" font-family="Helvetica,sans-Serif" font-size="11.00" fill="#000000">...</text>
<polygon fill="#ffffff" stroke="transparent" points="304,-52.7 304,-71.7 484,-71.7 484,-52.7 304,-52.7"/>
<polygon fill="none" stroke="#000000" points="304,-52.7 304,-71.7 484,-71.7 484,-52.7 304,-52.7"/>
<polygon fill="#ffffff" stroke="transparent" points="305,-53.7 305,-70.7 371,-70.7 371,-53.7 305,-53.7"/>
<text text-anchor="start" x="307" y="-58.8" font-family="Helvetica,sans-Serif" font-size="11.00" fill="#000000">&lt; 3</text>
<polygon fill="#ffffff" stroke="transparent" points="371,-53.7 371,-70.7 427,-70.7 427,-53.7 371,-53.7"/>
<text text-anchor="start" x="395.9431" y="-58.8" font-family="Helvetica,sans-Serif" font-size="11.00" fill="#000000"> &#160;</text>
<polygon fill="#ffffff" stroke="transparent" points="427,-53.7 427,-70.7 483,-70.7 483,-53.7 427,-53.7"/>
<text text-anchor="start" x="474.8862" y="-58.8" font-family="Helvetica,sans-Serif" font-size="11.00" fill="#000000"> &#160;</text>
<polygon fill="#000000" stroke="#000000" points="371,-53.7 371,-70.7 371,-70.7 371,-53.7 371,-53.7"/>
<polygon fill="#000000" stroke="#000000" points="427,-53.7 427,-70.7 427,-70.7 427,-53.7 427,-53.7"/>
</a>
</g>
</g>
<!-- VisitServiceBillings&#45;&gt;BillingCodes -->
<g id="edge3" class="edge">
<title>VisitServiceBillings:w&#45;&gt;BillingCodes:e</title>
<path fill="none" stroke="#000000" d="M289.3277,-81.2848C240.6829,-85.3057 225.6132,-108.7 170,-108.7"/>
<polygon fill="#000000" stroke="#000000" points="296.0063,-81.0187 304.1434,-84.2971 300.0032,-80.8593 304,-80.7 304,-80.7 304,-80.7 300.0032,-80.8593 303.8566,-77.1029 296.0063,-81.0187 296.0063,-81.0187"/>
<ellipse fill="none" stroke="#000000" cx="292.8089" cy="-81.1461" rx="3.2" ry="3.2"/>
</g>
<!-- VisitServiceBillings&#45;&gt;Clinical.ServiceTypes -->
<g id="edge4" class="edge">
<title>VisitServiceBillings:w&#45;&gt;Clinical.ServiceTypes:e</title>
<path fill="none" stroke="#000000" d="M289.5018,-82.5835C269.2057,-88.5986 264.7291,-107.9916 243,-125.7 223.5249,-141.5715 176.5405,-184.1455 142.8055,-214.9847"/>
<polygon fill="#000000" stroke="#000000" points="296.0667,-81.7307 304.4638,-84.27 300.0333,-81.2153 304,-80.7 304,-80.7 304,-80.7 300.0333,-81.2153 303.5362,-77.13 296.0667,-81.7307 296.0667,-81.7307"/>
<ellipse fill="none" stroke="#000000" cx="292.8933" cy="-82.1429" rx="3.2" ry="3.2"/>
</g>
</g>
</svg>
