<?xml version="1.0" encoding="UTF-8" standalone="no"?>
<!DOCTYPE svg PUBLIC "-//W3C//DTD SVG 1.1//EN"
 "http://www.w3.org/Graphics/SVG/1.1/DTD/svg11.dtd">
<!-- Generated by graphviz version 2.40.1 (20161225.0304)
 -->
<!-- Title: twoDegreesRelationshipsDiagram Pages: 1 -->
<svg width="514pt" height="368pt"
 viewBox="0.00 0.00 514.00 367.70" xmlns="http://www.w3.org/2000/svg" xmlns:xlink="http://www.w3.org/1999/xlink">
<g id="graph0" class="graph" transform="scale(1 1) rotate(0) translate(4 363.7)">
<title>twoDegreesRelationshipsDiagram</title>
<polygon fill="#ffffff" stroke="transparent" points="-4,4 -4,-363.7 510,-363.7 510,4 -4,4"/>
<text text-anchor="middle" x="72.4936" y="-7.3" font-family="Helvetica,sans-Serif" font-size="11.00" fill="#000000">Generated by SchemaSpy</text>
<!-- ServiceTypeBillingCodes -->
<g id="node1" class="node">
<title>ServiceTypeBillingCodes</title>
<g id="a_node1"><a xlink:href="../../tables/ServiceTypeBillingCodes.html" xlink:title="ServiceTypeBillingCodes" target="_top">
<polygon fill="#ffffff" stroke="transparent" points="265,-73.2 265,-134.2 484,-134.2 484,-73.2 265,-73.2"/>
<polygon fill="#f5f5f5" stroke="transparent" points="265.5,-110.7 265.5,-133.7 484.5,-133.7 484.5,-110.7 265.5,-110.7"/>
<polygon fill="none" stroke="#000000" points="265.5,-110.7 265.5,-133.7 484.5,-133.7 484.5,-110.7 265.5,-110.7"/>
<text text-anchor="start" x="270.5" y="-119.3" font-family="Helvetica,sans-Serif" font-weight="bold" font-size="11.00" fill="#000000">ServiceTypeBillingCodes</text>
<text text-anchor="start" x="450.0219" y="-118.8" font-family="Helvetica,sans-Serif" font-size="11.00" fill="#000000">[table]</text>
<polygon fill="none" stroke="#000000" points="265.5,-91.7 265.5,-110.7 484.5,-110.7 484.5,-91.7 265.5,-91.7"/>
<text text-anchor="start" x="268.5" y="-97.8" font-family="Helvetica,sans-Serif" font-size="11.00" fill="#000000">...</text>
<polygon fill="#ffffff" stroke="transparent" points="265.5,-72.7 265.5,-91.7 484.5,-91.7 484.5,-72.7 265.5,-72.7"/>
<polygon fill="none" stroke="#000000" points="265.5,-72.7 265.5,-91.7 484.5,-91.7 484.5,-72.7 265.5,-72.7"/>
<polygon fill="#ffffff" stroke="transparent" points="266.5,-73.7 266.5,-90.7 345.5,-90.7 345.5,-73.7 266.5,-73.7"/>
<text text-anchor="start" x="268.5" y="-78.8" font-family="Helvetica,sans-Serif" font-size="11.00" fill="#000000">&lt; 2</text>
<polygon fill="#ffffff" stroke="transparent" points="345.5,-73.7 345.5,-90.7 414.5,-90.7 414.5,-73.7 345.5,-73.7"/>
<text text-anchor="start" x="376.9431" y="-78.8" font-family="Helvetica,sans-Serif" font-size="11.00" fill="#000000"> &#160;</text>
<polygon fill="#ffffff" stroke="transparent" points="414.5,-73.7 414.5,-90.7 483.5,-90.7 483.5,-73.7 414.5,-73.7"/>
<text text-anchor="start" x="475.3862" y="-78.8" font-family="Helvetica,sans-Serif" font-size="11.00" fill="#000000"> &#160;</text>
<polygon fill="#000000" stroke="#000000" points="345.5,-73.7 345.5,-90.7 345.5,-90.7 345.5,-73.7 345.5,-73.7"/>
<polygon fill="#000000" stroke="#000000" points="414.5,-73.7 414.5,-90.7 414.5,-90.7 414.5,-73.7 414.5,-73.7"/>
</a>
</g>
</g>
<!-- BillingCodes -->
<g id="node2" class="node">
<title>BillingCodes</title>
<g id="a_node2"><a xlink:href="../../tables/BillingCodes.html" xlink:title="BillingCodes" target="_top">
<polygon fill="#ffffff" stroke="transparent" points="40.5,-38.2 40.5,-143.2 169.5,-143.2 169.5,-38.2 40.5,-38.2"/>
<polygon fill="#f5f5f5" stroke="transparent" points="41,-119.7 41,-142.7 170,-142.7 170,-119.7 41,-119.7"/>
<polygon fill="none" stroke="#000000" points="41,-119.7 41,-142.7 170,-142.7 170,-119.7 41,-119.7"/>
<text text-anchor="start" x="46" y="-128.3" font-family="Helvetica,sans-Serif" font-weight="bold" font-size="11.00" fill="#000000">BillingCodes</text>
<text text-anchor="start" x="135.5219" y="-127.8" font-family="Helvetica,sans-Serif" font-size="11.00" fill="#000000">[table]</text>
<polygon fill="none" stroke="#000000" points="41,-97.7 41,-119.7 170,-119.7 170,-97.7 41,-97.7"/>
<image xlink:href="../../images/primaryKeys.png" width="11px" height="12px" preserveAspectRatio="xMinYMin meet" x="46" y="-114.7"/>
<text text-anchor="start" x="64" y="-104.8" font-family="Helvetica,sans-Serif" font-size="11.00" fill="#000000">Id</text>
<polygon fill="#ffffff" stroke="transparent" points="41,-75.7 41,-97.7 170,-97.7 170,-75.7 41,-75.7"/>
<polygon fill="none" stroke="#000000" points="41,-75.7 41,-97.7 170,-97.7 170,-75.7 41,-75.7"/>
<text text-anchor="start" x="64" y="-82.8" font-family="Helvetica,sans-Serif" font-size="11.00" fill="#000000">Code</text>
<polygon fill="none" stroke="#000000" points="41,-56.7 41,-75.7 170,-75.7 170,-56.7 41,-56.7"/>
<text text-anchor="start" x="44" y="-62.8" font-family="Helvetica,sans-Serif" font-size="11.00" fill="#000000">...</text>
<polygon fill="#ffffff" stroke="transparent" points="41,-37.7 41,-56.7 170,-56.7 170,-37.7 41,-37.7"/>
<polygon fill="none" stroke="#000000" points="41,-37.7 41,-56.7 170,-56.7 170,-37.7 41,-37.7"/>
<polygon fill="#ffffff" stroke="transparent" points="42,-38.7 42,-55.7 82,-55.7 82,-38.7 42,-38.7"/>
<text text-anchor="start" x="44" y="-43.8" font-family="Helvetica,sans-Serif" font-size="11.00" fill="#000000"> &#160;</text>
<polygon fill="#ffffff" stroke="transparent" points="82,-38.7 82,-55.7 121,-55.7 121,-38.7 82,-38.7"/>
<text text-anchor="start" x="98.4431" y="-43.8" font-family="Helvetica,sans-Serif" font-size="11.00" fill="#000000"> &#160;</text>
<polygon fill="#ffffff" stroke="transparent" points="121,-38.7 121,-55.7 169,-55.7 169,-38.7 121,-38.7"/>
<text text-anchor="start" x="151.4053" y="-43.8" font-family="Helvetica,sans-Serif" font-size="11.00" fill="#000000">2 &gt;</text>
<polygon fill="#000000" stroke="#000000" points="82,-38.7 82,-55.7 82,-55.7 82,-38.7 82,-38.7"/>
<polygon fill="#000000" stroke="#000000" points="121,-38.7 121,-55.7 121,-55.7 121,-38.7 121,-38.7"/>
</a>
</g>
</g>
<!-- ServiceTypeBillingCodes&#45;&gt;BillingCodes -->
<g id="edge1" class="edge">
<title>ServiceTypeBillingCodes:w&#45;&gt;BillingCodes:e</title>
<path fill="none" stroke="#000000" d="M250.9146,-101.0437C219.8241,-102.575 207.269,-108.7 170,-108.7"/>
<polygon fill="#000000" stroke="#000000" points="257.5022,-100.8885 265.5848,-104.299 261.5011,-100.7943 265.5,-100.7 265.5,-100.7 265.5,-100.7 261.5011,-100.7943 265.4152,-97.101 257.5022,-100.8885 257.5022,-100.8885"/>
<ellipse fill="none" stroke="#000000" cx="254.3031" cy="-100.964" rx="3.2" ry="3.2"/>
</g>
<!-- Clinical.ServiceTypes -->
<g id="node3" class="node">
<title>Clinical.ServiceTypes</title>
<g id="a_node3"><a xlink:title="Clinical.ServiceTypes">
<polygon fill="#ffffff" stroke="transparent" points="8,-178.2 8,-239.2 202,-239.2 202,-178.2 8,-178.2"/>
<polygon fill="#f5f5f5" stroke="transparent" points="8,-215.7 8,-238.7 202,-238.7 202,-215.7 8,-215.7"/>
<polygon fill="none" stroke="#000000" points="8,-215.7 8,-238.7 202,-238.7 202,-215.7 8,-215.7"/>
<text text-anchor="start" x="13" y="-224.3" font-family="Helvetica,sans-Serif" font-weight="bold" font-size="11.00" fill="#000000">Clinical.ServiceTypes</text>
<text text-anchor="start" x="167.5219" y="-223.8" font-family="Helvetica,sans-Serif" font-size="11.00" fill="#000000">[table]</text>
<polygon fill="none" stroke="#000000" points="8,-196.7 8,-215.7 202,-215.7 202,-196.7 8,-196.7"/>
<text text-anchor="start" x="11" y="-202.8" font-family="Helvetica,sans-Serif" font-size="11.00" fill="#000000">...</text>
<polygon fill="#ffffff" stroke="transparent" points="8,-177.7 8,-196.7 202,-196.7 202,-177.7 8,-177.7"/>
<polygon fill="none" stroke="#000000" points="8,-177.7 8,-196.7 202,-196.7 202,-177.7 8,-177.7"/>
<polygon fill="#ffffff" stroke="transparent" points="9,-178.7 9,-195.7 70,-195.7 70,-178.7 9,-178.7"/>
<text text-anchor="start" x="11" y="-183.8" font-family="Helvetica,sans-Serif" font-size="11.00" fill="#000000"> &#160;</text>
<polygon fill="#ffffff" stroke="transparent" points="70,-178.7 70,-195.7 131,-195.7 131,-178.7 70,-178.7"/>
<text text-anchor="start" x="97.4431" y="-183.8" font-family="Helvetica,sans-Serif" font-size="11.00" fill="#000000"> &#160;</text>
<polygon fill="#ffffff" stroke="transparent" points="131,-178.7 131,-195.7 201,-195.7 201,-178.7 131,-178.7"/>
<text text-anchor="start" x="183.4053" y="-183.8" font-family="Helvetica,sans-Serif" font-size="11.00" fill="#000000">2 &gt;</text>
<polygon fill="#000000" stroke="#000000" points="70,-178.7 70,-195.7 70,-195.7 70,-178.7 70,-178.7"/>
<polygon fill="#000000" stroke="#000000" points="131,-178.7 131,-195.7 131,-195.7 131,-178.7 131,-178.7"/>
</a>
</g>
</g>
<!-- ServiceTypeBillingCodes&#45;&gt;Clinical.ServiceTypes -->
<g id="edge2" class="edge">
<title>ServiceTypeBillingCodes:w&#45;&gt;Clinical.ServiceTypes:e</title>
<path fill="none" stroke="#000000" d="M251.118,-103.3994C232.5593,-111.6924 232.948,-137.2326 210,-153.7 199.8848,-160.9586 188.6863,-167.8582 177.4814,-174.163"/>
<polygon fill="#000000" stroke="#000000" points="257.6373,-102.1758 266.1641,-104.2382 261.5686,-101.4379 265.5,-100.7 265.5,-100.7 265.5,-100.7 261.5686,-101.4379 264.8359,-97.1618 257.6373,-102.1758 257.6373,-102.1758"/>
<ellipse fill="none" stroke="#000000" cx="254.4922" cy="-102.7662" rx="3.2" ry="3.2"/>
</g>
<!-- VisitServiceBillings -->
<g id="node4" class="node">
<title>VisitServiceBillings</title>
<g id="a_node4"><a xlink:href="../../tables/VisitServiceBillings.html" xlink:title="VisitServiceBillings" target="_top">
<polygon fill="#ffffff" stroke="transparent" points="251,-155.7 251,-355.7 498,-355.7 498,-155.7 251,-155.7"/>
<polygon fill="#f5f5f5" stroke="transparent" points="253.5,-330.7 253.5,-353.7 496.5,-353.7 496.5,-330.7 253.5,-330.7"/>
<polygon fill="none" stroke="#000000" points="253.5,-330.7 253.5,-353.7 496.5,-353.7 496.5,-330.7 253.5,-330.7"/>
<text text-anchor="start" x="258.5" y="-339.3" font-family="Helvetica,sans-Serif" font-weight="bold" font-size="11.00" fill="#000000">VisitServiceBillings</text>
<text text-anchor="start" x="461.5437" y="-338.8" font-family="Helvetica,sans-Serif" font-size="11.00" fill="#000000">[table]</text>
<polygon fill="none" stroke="#000000" points="253.5,-308.7 253.5,-330.7 415.5,-330.7 415.5,-308.7 253.5,-308.7"/>
<image xlink:href="../../images/primaryKeys.png" width="11px" height="12px" preserveAspectRatio="xMinYMin meet" x="258.5" y="-325.7"/>
<text text-anchor="start" x="273.5" y="-315.8" font-family="Helvetica,sans-Serif" font-size="11.00" fill="#000000">Id</text>
<polygon fill="none" stroke="#000000" points="415.5,-308.7 415.5,-330.7 496.5,-330.7 496.5,-308.7 415.5,-308.7"/>
<text text-anchor="start" x="418.5" y="-316.4" font-family="Helvetica,sans-Serif" font-size="11.00" fill="#000000">int identity[4]</text>
<polygon fill="#ffffff" stroke="transparent" points="253.5,-286.7 253.5,-308.7 415.5,-308.7 415.5,-286.7 253.5,-286.7"/>
<polygon fill="none" stroke="#000000" points="253.5,-286.7 253.5,-308.7 415.5,-308.7 415.5,-286.7 253.5,-286.7"/>
<image xlink:href="../../images/foreignKeys.png" width="11px" height="12px" preserveAspectRatio="xMinYMin meet" x="258.5" y="-303.7"/>
<text text-anchor="start" x="273.5" y="-293.8" font-family="Helvetica,sans-Serif" font-size="11.00" fill="#000000">VisitId</text>
<polygon fill="none" stroke="#000000" points="415.5,-286.7 415.5,-308.7 496.5,-308.7 496.5,-286.7 415.5,-286.7"/>
<text text-anchor="start" x="418.5" y="-294.4" font-family="Helvetica,sans-Serif" font-size="11.00" fill="#000000">int[4]</text>
<polygon fill="#ffffff" stroke="transparent" points="253.5,-264.7 253.5,-286.7 415.5,-286.7 415.5,-264.7 253.5,-264.7"/>
<polygon fill="none" stroke="#000000" points="253.5,-264.7 253.5,-286.7 415.5,-286.7 415.5,-264.7 253.5,-264.7"/>
<image xlink:href="../../images/foreignKeys.png" width="11px" height="12px" preserveAspectRatio="xMinYMin meet" x="258.5" y="-281.7"/>
<text text-anchor="start" x="273.5" y="-271.8" font-family="Helvetica,sans-Serif" font-size="11.00" fill="#000000">ServiceTypeId</text>
<polygon fill="none" stroke="#000000" points="415.5,-264.7 415.5,-286.7 496.5,-286.7 496.5,-264.7 415.5,-264.7"/>
<text text-anchor="start" x="418.5" y="-272.4" font-family="Helvetica,sans-Serif" font-size="11.00" fill="#000000">int[4]</text>
<polygon fill="#ffffff" stroke="transparent" points="253.5,-242.7 253.5,-264.7 415.5,-264.7 415.5,-242.7 253.5,-242.7"/>
<polygon fill="none" stroke="#000000" points="253.5,-242.7 253.5,-264.7 415.5,-264.7 415.5,-242.7 253.5,-242.7"/>
<image xlink:href="../../images/foreignKeys.png" width="11px" height="12px" preserveAspectRatio="xMinYMin meet" x="258.5" y="-259.7"/>
<text text-anchor="start" x="273.5" y="-249.8" font-family="Helvetica,sans-Serif" font-size="11.00" fill="#000000">BillingCodeId</text>
<polygon fill="none" stroke="#000000" points="415.5,-242.7 415.5,-264.7 496.5,-264.7 496.5,-242.7 415.5,-242.7"/>
<text text-anchor="start" x="418.5" y="-250.4" font-family="Helvetica,sans-Serif" font-size="11.00" fill="#000000">int[4]</text>
<polygon fill="none" stroke="#000000" points="253.5,-220.7 253.5,-242.7 415.5,-242.7 415.5,-220.7 253.5,-220.7"/>
<text text-anchor="start" x="273.5" y="-227.8" font-family="Helvetica,sans-Serif" font-size="11.00" fill="#000000">CreatedAtUtc</text>
<polygon fill="none" stroke="#000000" points="415.5,-220.7 415.5,-242.7 496.5,-242.7 496.5,-220.7 415.5,-220.7"/>
<text text-anchor="start" x="418.0968" y="-228.4" font-family="Helvetica,sans-Serif" font-size="11.00" fill="#000000">datetime2[16,7]</text>
<polygon fill="none" stroke="#000000" points="253.5,-198.7 253.5,-220.7 415.5,-220.7 415.5,-198.7 253.5,-198.7"/>
<text text-anchor="start" x="273.5" y="-205.8" font-family="Helvetica,sans-Serif" font-size="11.00" fill="#000000">UpdatedAtUtc</text>
<polygon fill="none" stroke="#000000" points="415.5,-198.7 415.5,-220.7 496.5,-220.7 496.5,-198.7 415.5,-198.7"/>
<text text-anchor="start" x="418.0968" y="-206.4" font-family="Helvetica,sans-Serif" font-size="11.00" fill="#000000">datetime2[16,7]</text>
<polygon fill="none" stroke="#000000" points="253.5,-176.7 253.5,-198.7 415.5,-198.7 415.5,-176.7 253.5,-176.7"/>
<text text-anchor="start" x="273.5" y="-183.8" font-family="Helvetica,sans-Serif" font-size="11.00" fill="#000000">RowVersion</text>
<polygon fill="none" stroke="#000000" points="415.5,-176.7 415.5,-198.7 496.5,-198.7 496.5,-176.7 415.5,-176.7"/>
<text text-anchor="start" x="418.5" y="-184.4" font-family="Helvetica,sans-Serif" font-size="11.00" fill="#000000">timestamp[8]</text>
<polygon fill="#ffffff" stroke="transparent" points="253.5,-157.7 253.5,-176.7 496.5,-176.7 496.5,-157.7 253.5,-157.7"/>
<polygon fill="none" stroke="#000000" points="253.5,-157.7 253.5,-176.7 496.5,-176.7 496.5,-157.7 253.5,-157.7"/>
<polygon fill="#ffffff" stroke="transparent" points="254.5,-158.7 254.5,-175.7 338.5,-175.7 338.5,-158.7 254.5,-158.7"/>
<text text-anchor="start" x="256.5" y="-163.8" font-family="Helvetica,sans-Serif" font-size="11.00" fill="#000000">&lt; 3</text>
<polygon fill="#ffffff" stroke="transparent" points="338.5,-158.7 338.5,-175.7 412.5,-175.7 412.5,-158.7 338.5,-158.7"/>
<text text-anchor="start" x="372.4431" y="-163.8" font-family="Helvetica,sans-Serif" font-size="11.00" fill="#000000"> &#160;</text>
<polygon fill="#ffffff" stroke="transparent" points="412.5,-158.7 412.5,-175.7 495.5,-175.7 495.5,-158.7 412.5,-158.7"/>
<text text-anchor="start" x="477.9053" y="-163.8" font-family="Helvetica,sans-Serif" font-size="11.00" fill="#000000">0 &gt;</text>
<polygon fill="#000000" stroke="#000000" points="338.5,-158.7 338.5,-175.7 338.5,-175.7 338.5,-158.7 338.5,-158.7"/>
<polygon fill="#000000" stroke="#000000" points="412.5,-158.7 412.5,-175.7 412.5,-175.7 412.5,-158.7 412.5,-158.7"/>
<polygon fill="none" stroke="#000000" stroke-width="2" points="252,-156.7 252,-354.7 497,-354.7 497,-156.7 252,-156.7"/>
</a>
</g>
</g>
<!-- VisitServiceBillings&#45;&gt;BillingCodes -->
<g id="edge3" class="edge">
<title>VisitServiceBillings:w&#45;&gt;BillingCodes:e</title>
<path fill="none" stroke="#000000" d="M239.1347,-251.4224C188.0478,-232.9753 238.8468,-108.7 170,-108.7"/>
<polygon fill="#000000" stroke="#000000" points="245.5987,-252.4472 252.9362,-257.2556 249.5493,-253.0736 253.5,-253.7 253.5,-253.7 253.5,-253.7 249.5493,-253.0736 254.0638,-250.1444 245.5987,-252.4472 245.5987,-252.4472"/>
<ellipse fill="none" stroke="#000000" cx="242.4382" cy="-251.9461" rx="3.2" ry="3.2"/>
</g>
<!-- VisitServiceBillings&#45;&gt;Clinical.ServiceTypes -->
<g id="edge4" class="edge">
<title>VisitServiceBillings:w&#45;&gt;Clinical.ServiceTypes:e</title>
<path fill="none" stroke="#000000" d="M240.0713,-270.0111C226.3025,-263.9186 203.7556,-253.723 180.9919,-243.3775"/>
<polygon fill="#000000" stroke="#000000" points="246.1337,-272.5794 252.0957,-279.0148 249.8169,-274.1397 253.5,-275.7 253.5,-275.7 253.5,-275.7 249.8169,-274.1397 254.9043,-272.3852 246.1337,-272.5794 246.1337,-272.5794"/>
<ellipse fill="none" stroke="#000000" cx="243.1872" cy="-271.3311" rx="3.2" ry="3.2"/>
</g>
<!-- Clinical.Visits -->
<g id="node5" class="node">
<title>Clinical.Visits</title>
<g id="a_node5"><a xlink:title="Clinical.Visits">
<polygon fill="#ffffff" stroke="transparent" points="36.5,-267.2 36.5,-328.2 173.5,-328.2 173.5,-267.2 36.5,-267.2"/>
<polygon fill="#f5f5f5" stroke="transparent" points="37,-304.7 37,-327.7 174,-327.7 174,-304.7 37,-304.7"/>
<polygon fill="none" stroke="#000000" points="37,-304.7 37,-327.7 174,-327.7 174,-304.7 37,-304.7"/>
<text text-anchor="start" x="42" y="-313.3" font-family="Helvetica,sans-Serif" font-weight="bold" font-size="11.00" fill="#000000">Clinical.Visits</text>
<text text-anchor="start" x="139.5219" y="-312.8" font-family="Helvetica,sans-Serif" font-size="11.00" fill="#000000">[table]</text>
<polygon fill="none" stroke="#000000" points="37,-285.7 37,-304.7 174,-304.7 174,-285.7 37,-285.7"/>
<text text-anchor="start" x="40" y="-291.8" font-family="Helvetica,sans-Serif" font-size="11.00" fill="#000000">...</text>
<polygon fill="#ffffff" stroke="transparent" points="37,-266.7 37,-285.7 174,-285.7 174,-266.7 37,-266.7"/>
<polygon fill="none" stroke="#000000" points="37,-266.7 37,-285.7 174,-285.7 174,-266.7 37,-266.7"/>
<polygon fill="#ffffff" stroke="transparent" points="38,-267.7 38,-284.7 80,-284.7 80,-267.7 38,-267.7"/>
<text text-anchor="start" x="40" y="-272.8" font-family="Helvetica,sans-Serif" font-size="11.00" fill="#000000"> &#160;</text>
<polygon fill="#ffffff" stroke="transparent" points="80,-267.7 80,-284.7 122,-284.7 122,-267.7 80,-267.7"/>
<text text-anchor="start" x="97.9431" y="-272.8" font-family="Helvetica,sans-Serif" font-size="11.00" fill="#000000"> &#160;</text>
<polygon fill="#ffffff" stroke="transparent" points="122,-267.7 122,-284.7 173,-284.7 173,-267.7 122,-267.7"/>
<text text-anchor="start" x="155.4053" y="-272.8" font-family="Helvetica,sans-Serif" font-size="11.00" fill="#000000">1 &gt;</text>
<polygon fill="#000000" stroke="#000000" points="80,-267.7 80,-284.7 80,-284.7 80,-267.7 80,-267.7"/>
<polygon fill="#000000" stroke="#000000" points="122,-267.7 122,-284.7 122,-284.7 122,-267.7 122,-267.7"/>
</a>
</g>
</g>
<!-- VisitServiceBillings&#45;&gt;Clinical.Visits -->
<g id="edge5" class="edge">
<title>VisitServiceBillings:w&#45;&gt;Clinical.Visits:e</title>
<path fill="none" stroke="#000000" d="M239.0635,-297.7C219.947,-297.7 200.0853,-297.7 181.6915,-297.7"/>
<polygon fill="#000000" stroke="#000000" points="245.5,-297.7001 253.5,-301.3 249.5,-297.7 253.5,-297.7 253.5,-297.7 253.5,-297.7 249.5,-297.7 253.5,-294.1 245.5,-297.7001 245.5,-297.7001"/>
<ellipse fill="none" stroke="#000000" cx="242.3" cy="-297.7001" rx="3.2" ry="3.2"/>
</g>
</g>
</svg>
