<?xml version="1.0" encoding="UTF-8" standalone="no"?>
<!DOCTYPE svg PUBLIC "-//W3C//DTD SVG 1.1//EN"
 "http://www.w3.org/Graphics/SVG/1.1/DTD/svg11.dtd">
<!-- Generated by graphviz version 2.40.1 (20161225.0304)
 -->
<!-- Title: oneDegreeRelationshipsDiagram Pages: 1 -->
<svg width="514pt" height="319pt"
 viewBox="0.00 0.00 514.00 319.20" xmlns="http://www.w3.org/2000/svg" xmlns:xlink="http://www.w3.org/1999/xlink">
<g id="graph0" class="graph" transform="scale(1 1) rotate(0) translate(4 315.2)">
<title>oneDegreeRelationshipsDiagram</title>
<polygon fill="#ffffff" stroke="transparent" points="-4,4 -4,-315.2 510,-315.2 510,4 -4,4"/>
<text text-anchor="middle" x="72.4936" y="-7.3" font-family="Helvetica,sans-Serif" font-size="11.00" fill="#000000">Generated by SchemaSpy</text>
<!-- VisitServiceBillings -->
<g id="node1" class="node">
<title>VisitServiceBillings</title>
<g id="a_node1"><a xlink:href="../../tables/VisitServiceBillings.html" xlink:title="VisitServiceBillings" target="_top">
<polygon fill="#ffffff" stroke="transparent" points="251,-74.7 251,-274.7 498,-274.7 498,-74.7 251,-74.7"/>
<polygon fill="#f5f5f5" stroke="transparent" points="253.5,-249.7 253.5,-272.7 496.5,-272.7 496.5,-249.7 253.5,-249.7"/>
<polygon fill="none" stroke="#000000" points="253.5,-249.7 253.5,-272.7 496.5,-272.7 496.5,-249.7 253.5,-249.7"/>
<text text-anchor="start" x="258.5" y="-258.3" font-family="Helvetica,sans-Serif" font-weight="bold" font-size="11.00" fill="#000000">VisitServiceBillings</text>
<text text-anchor="start" x="461.5437" y="-257.8" font-family="Helvetica,sans-Serif" font-size="11.00" fill="#000000">[table]</text>
<polygon fill="none" stroke="#000000" points="253.5,-227.7 253.5,-249.7 415.5,-249.7 415.5,-227.7 253.5,-227.7"/>
<image xlink:href="../../images/primaryKeys.png" width="11px" height="12px" preserveAspectRatio="xMinYMin meet" x="258.5" y="-244.7"/>
<text text-anchor="start" x="273.5" y="-234.8" font-family="Helvetica,sans-Serif" font-size="11.00" fill="#000000">Id</text>
<polygon fill="none" stroke="#000000" points="415.5,-227.7 415.5,-249.7 496.5,-249.7 496.5,-227.7 415.5,-227.7"/>
<text text-anchor="start" x="418.5" y="-235.4" font-family="Helvetica,sans-Serif" font-size="11.00" fill="#000000">int identity[4]</text>
<polygon fill="#ffffff" stroke="transparent" points="253.5,-205.7 253.5,-227.7 415.5,-227.7 415.5,-205.7 253.5,-205.7"/>
<polygon fill="none" stroke="#000000" points="253.5,-205.7 253.5,-227.7 415.5,-227.7 415.5,-205.7 253.5,-205.7"/>
<image xlink:href="../../images/foreignKeys.png" width="11px" height="12px" preserveAspectRatio="xMinYMin meet" x="258.5" y="-222.7"/>
<text text-anchor="start" x="273.5" y="-212.8" font-family="Helvetica,sans-Serif" font-size="11.00" fill="#000000">VisitId</text>
<polygon fill="none" stroke="#000000" points="415.5,-205.7 415.5,-227.7 496.5,-227.7 496.5,-205.7 415.5,-205.7"/>
<text text-anchor="start" x="418.5" y="-213.4" font-family="Helvetica,sans-Serif" font-size="11.00" fill="#000000">int[4]</text>
<polygon fill="#ffffff" stroke="transparent" points="253.5,-183.7 253.5,-205.7 415.5,-205.7 415.5,-183.7 253.5,-183.7"/>
<polygon fill="none" stroke="#000000" points="253.5,-183.7 253.5,-205.7 415.5,-205.7 415.5,-183.7 253.5,-183.7"/>
<image xlink:href="../../images/foreignKeys.png" width="11px" height="12px" preserveAspectRatio="xMinYMin meet" x="258.5" y="-200.7"/>
<text text-anchor="start" x="273.5" y="-190.8" font-family="Helvetica,sans-Serif" font-size="11.00" fill="#000000">ServiceTypeId</text>
<polygon fill="none" stroke="#000000" points="415.5,-183.7 415.5,-205.7 496.5,-205.7 496.5,-183.7 415.5,-183.7"/>
<text text-anchor="start" x="418.5" y="-191.4" font-family="Helvetica,sans-Serif" font-size="11.00" fill="#000000">int[4]</text>
<polygon fill="#ffffff" stroke="transparent" points="253.5,-161.7 253.5,-183.7 415.5,-183.7 415.5,-161.7 253.5,-161.7"/>
<polygon fill="none" stroke="#000000" points="253.5,-161.7 253.5,-183.7 415.5,-183.7 415.5,-161.7 253.5,-161.7"/>
<image xlink:href="../../images/foreignKeys.png" width="11px" height="12px" preserveAspectRatio="xMinYMin meet" x="258.5" y="-178.7"/>
<text text-anchor="start" x="273.5" y="-168.8" font-family="Helvetica,sans-Serif" font-size="11.00" fill="#000000">BillingCodeId</text>
<polygon fill="none" stroke="#000000" points="415.5,-161.7 415.5,-183.7 496.5,-183.7 496.5,-161.7 415.5,-161.7"/>
<text text-anchor="start" x="418.5" y="-169.4" font-family="Helvetica,sans-Serif" font-size="11.00" fill="#000000">int[4]</text>
<polygon fill="none" stroke="#000000" points="253.5,-139.7 253.5,-161.7 415.5,-161.7 415.5,-139.7 253.5,-139.7"/>
<text text-anchor="start" x="273.5" y="-146.8" font-family="Helvetica,sans-Serif" font-size="11.00" fill="#000000">CreatedAtUtc</text>
<polygon fill="none" stroke="#000000" points="415.5,-139.7 415.5,-161.7 496.5,-161.7 496.5,-139.7 415.5,-139.7"/>
<text text-anchor="start" x="418.0968" y="-147.4" font-family="Helvetica,sans-Serif" font-size="11.00" fill="#000000">datetime2[16,7]</text>
<polygon fill="none" stroke="#000000" points="253.5,-117.7 253.5,-139.7 415.5,-139.7 415.5,-117.7 253.5,-117.7"/>
<text text-anchor="start" x="273.5" y="-124.8" font-family="Helvetica,sans-Serif" font-size="11.00" fill="#000000">UpdatedAtUtc</text>
<polygon fill="none" stroke="#000000" points="415.5,-117.7 415.5,-139.7 496.5,-139.7 496.5,-117.7 415.5,-117.7"/>
<text text-anchor="start" x="418.0968" y="-125.4" font-family="Helvetica,sans-Serif" font-size="11.00" fill="#000000">datetime2[16,7]</text>
<polygon fill="none" stroke="#000000" points="253.5,-95.7 253.5,-117.7 415.5,-117.7 415.5,-95.7 253.5,-95.7"/>
<text text-anchor="start" x="273.5" y="-102.8" font-family="Helvetica,sans-Serif" font-size="11.00" fill="#000000">RowVersion</text>
<polygon fill="none" stroke="#000000" points="415.5,-95.7 415.5,-117.7 496.5,-117.7 496.5,-95.7 415.5,-95.7"/>
<text text-anchor="start" x="418.5" y="-103.4" font-family="Helvetica,sans-Serif" font-size="11.00" fill="#000000">timestamp[8]</text>
<polygon fill="#ffffff" stroke="transparent" points="253.5,-76.7 253.5,-95.7 496.5,-95.7 496.5,-76.7 253.5,-76.7"/>
<polygon fill="none" stroke="#000000" points="253.5,-76.7 253.5,-95.7 496.5,-95.7 496.5,-76.7 253.5,-76.7"/>
<polygon fill="#ffffff" stroke="transparent" points="254.5,-77.7 254.5,-94.7 338.5,-94.7 338.5,-77.7 254.5,-77.7"/>
<text text-anchor="start" x="256.5" y="-82.8" font-family="Helvetica,sans-Serif" font-size="11.00" fill="#000000">&lt; 3</text>
<polygon fill="#ffffff" stroke="transparent" points="338.5,-77.7 338.5,-94.7 412.5,-94.7 412.5,-77.7 338.5,-77.7"/>
<text text-anchor="start" x="372.4431" y="-82.8" font-family="Helvetica,sans-Serif" font-size="11.00" fill="#000000"> &#160;</text>
<polygon fill="#ffffff" stroke="transparent" points="412.5,-77.7 412.5,-94.7 495.5,-94.7 495.5,-77.7 412.5,-77.7"/>
<text text-anchor="start" x="477.9053" y="-82.8" font-family="Helvetica,sans-Serif" font-size="11.00" fill="#000000">0 &gt;</text>
<polygon fill="#000000" stroke="#000000" points="338.5,-77.7 338.5,-94.7 338.5,-94.7 338.5,-77.7 338.5,-77.7"/>
<polygon fill="#000000" stroke="#000000" points="412.5,-77.7 412.5,-94.7 412.5,-94.7 412.5,-77.7 412.5,-77.7"/>
<polygon fill="none" stroke="#000000" stroke-width="2" points="252,-75.7 252,-273.7 497,-273.7 497,-75.7 252,-75.7"/>
</a>
</g>
</g>
<!-- BillingCodes -->
<g id="node2" class="node">
<title>BillingCodes</title>
<g id="a_node2"><a xlink:href="../../tables/BillingCodes.html" xlink:title="BillingCodes" target="_top">
<polygon fill="#ffffff" stroke="transparent" points="40.5,-38.2 40.5,-143.2 169.5,-143.2 169.5,-38.2 40.5,-38.2"/>
<polygon fill="#f5f5f5" stroke="transparent" points="41,-119.7 41,-142.7 170,-142.7 170,-119.7 41,-119.7"/>
<polygon fill="none" stroke="#000000" points="41,-119.7 41,-142.7 170,-142.7 170,-119.7 41,-119.7"/>
<text text-anchor="start" x="46" y="-128.3" font-family="Helvetica,sans-Serif" font-weight="bold" font-size="11.00" fill="#000000">BillingCodes</text>
<text text-anchor="start" x="135.5219" y="-127.8" font-family="Helvetica,sans-Serif" font-size="11.00" fill="#000000">[table]</text>
<polygon fill="none" stroke="#000000" points="41,-97.7 41,-119.7 170,-119.7 170,-97.7 41,-97.7"/>
<image xlink:href="../../images/primaryKeys.png" width="11px" height="12px" preserveAspectRatio="xMinYMin meet" x="46" y="-114.7"/>
<text text-anchor="start" x="64" y="-104.8" font-family="Helvetica,sans-Serif" font-size="11.00" fill="#000000">Id</text>
<polygon fill="#ffffff" stroke="transparent" points="41,-75.7 41,-97.7 170,-97.7 170,-75.7 41,-75.7"/>
<polygon fill="none" stroke="#000000" points="41,-75.7 41,-97.7 170,-97.7 170,-75.7 41,-75.7"/>
<text text-anchor="start" x="64" y="-82.8" font-family="Helvetica,sans-Serif" font-size="11.00" fill="#000000">Code</text>
<polygon fill="none" stroke="#000000" points="41,-56.7 41,-75.7 170,-75.7 170,-56.7 41,-56.7"/>
<text text-anchor="start" x="44" y="-62.8" font-family="Helvetica,sans-Serif" font-size="11.00" fill="#000000">...</text>
<polygon fill="#ffffff" stroke="transparent" points="41,-37.7 41,-56.7 170,-56.7 170,-37.7 41,-37.7"/>
<polygon fill="none" stroke="#000000" points="41,-37.7 41,-56.7 170,-56.7 170,-37.7 41,-37.7"/>
<polygon fill="#ffffff" stroke="transparent" points="42,-38.7 42,-55.7 82,-55.7 82,-38.7 42,-38.7"/>
<text text-anchor="start" x="44" y="-43.8" font-family="Helvetica,sans-Serif" font-size="11.00" fill="#000000"> &#160;</text>
<polygon fill="#ffffff" stroke="transparent" points="82,-38.7 82,-55.7 121,-55.7 121,-38.7 82,-38.7"/>
<text text-anchor="start" x="98.4431" y="-43.8" font-family="Helvetica,sans-Serif" font-size="11.00" fill="#000000"> &#160;</text>
<polygon fill="#ffffff" stroke="transparent" points="121,-38.7 121,-55.7 169,-55.7 169,-38.7 121,-38.7"/>
<text text-anchor="start" x="151.4053" y="-43.8" font-family="Helvetica,sans-Serif" font-size="11.00" fill="#000000">2 &gt;</text>
<polygon fill="#000000" stroke="#000000" points="82,-38.7 82,-55.7 82,-55.7 82,-38.7 82,-38.7"/>
<polygon fill="#000000" stroke="#000000" points="121,-38.7 121,-55.7 121,-55.7 121,-38.7 121,-38.7"/>
</a>
</g>
</g>
<!-- VisitServiceBillings&#45;&gt;BillingCodes -->
<g id="edge1" class="edge">
<title>VisitServiceBillings:w&#45;&gt;BillingCodes:e</title>
<path fill="none" stroke="#000000" d="M239.2179,-170.2693C208.3098,-158.5789 211.2786,-108.7 170,-108.7"/>
<polygon fill="#000000" stroke="#000000" points="245.6134,-171.3577 252.896,-176.249 249.5567,-172.0289 253.5,-172.7 253.5,-172.7 253.5,-172.7 249.5567,-172.0289 254.104,-169.151 245.6134,-171.3577 245.6134,-171.3577"/>
<ellipse fill="none" stroke="#000000" cx="242.4588" cy="-170.8208" rx="3.2" ry="3.2"/>
</g>
<!-- Clinical.ServiceTypes -->
<g id="node3" class="node">
<title>Clinical.ServiceTypes</title>
<g id="a_node3"><a xlink:title="Clinical.ServiceTypes">
<polygon fill="#ffffff" stroke="transparent" points="8,-164.2 8,-225.2 202,-225.2 202,-164.2 8,-164.2"/>
<polygon fill="#f5f5f5" stroke="transparent" points="8,-201.7 8,-224.7 202,-224.7 202,-201.7 8,-201.7"/>
<polygon fill="none" stroke="#000000" points="8,-201.7 8,-224.7 202,-224.7 202,-201.7 8,-201.7"/>
<text text-anchor="start" x="13" y="-210.3" font-family="Helvetica,sans-Serif" font-weight="bold" font-size="11.00" fill="#000000">Clinical.ServiceTypes</text>
<text text-anchor="start" x="167.5219" y="-209.8" font-family="Helvetica,sans-Serif" font-size="11.00" fill="#000000">[table]</text>
<polygon fill="none" stroke="#000000" points="8,-182.7 8,-201.7 202,-201.7 202,-182.7 8,-182.7"/>
<text text-anchor="start" x="11" y="-188.8" font-family="Helvetica,sans-Serif" font-size="11.00" fill="#000000">...</text>
<polygon fill="#ffffff" stroke="transparent" points="8,-163.7 8,-182.7 202,-182.7 202,-163.7 8,-163.7"/>
<polygon fill="none" stroke="#000000" points="8,-163.7 8,-182.7 202,-182.7 202,-163.7 8,-163.7"/>
<polygon fill="#ffffff" stroke="transparent" points="9,-164.7 9,-181.7 70,-181.7 70,-164.7 9,-164.7"/>
<text text-anchor="start" x="11" y="-169.8" font-family="Helvetica,sans-Serif" font-size="11.00" fill="#000000"> &#160;</text>
<polygon fill="#ffffff" stroke="transparent" points="70,-164.7 70,-181.7 131,-181.7 131,-164.7 70,-164.7"/>
<text text-anchor="start" x="97.4431" y="-169.8" font-family="Helvetica,sans-Serif" font-size="11.00" fill="#000000"> &#160;</text>
<polygon fill="#ffffff" stroke="transparent" points="131,-164.7 131,-181.7 201,-181.7 201,-164.7 131,-164.7"/>
<text text-anchor="start" x="183.4053" y="-169.8" font-family="Helvetica,sans-Serif" font-size="11.00" fill="#000000">2 &gt;</text>
<polygon fill="#000000" stroke="#000000" points="70,-164.7 70,-181.7 70,-181.7 70,-164.7 70,-164.7"/>
<polygon fill="#000000" stroke="#000000" points="131,-164.7 131,-181.7 131,-181.7 131,-164.7 131,-164.7"/>
</a>
</g>
</g>
<!-- VisitServiceBillings&#45;&gt;Clinical.ServiceTypes -->
<g id="edge2" class="edge">
<title>VisitServiceBillings:w&#45;&gt;Clinical.ServiceTypes:e</title>
<path fill="none" stroke="#000000" d="M238.7838,-194.7C229.2997,-194.7 219.6349,-194.7 210.0594,-194.7"/>
<polygon fill="#000000" stroke="#000000" points="245.5,-194.7001 253.5,-198.3 249.5,-194.7 253.5,-194.7 253.5,-194.7 253.5,-194.7 249.5,-194.7 253.5,-191.1 245.5,-194.7001 245.5,-194.7001"/>
<ellipse fill="none" stroke="#000000" cx="242.3" cy="-194.7001" rx="3.2" ry="3.2"/>
</g>
<!-- Clinical.Visits -->
<g id="node4" class="node">
<title>Clinical.Visits</title>
<g id="a_node4"><a xlink:title="Clinical.Visits">
<polygon fill="#ffffff" stroke="transparent" points="36.5,-246.2 36.5,-307.2 173.5,-307.2 173.5,-246.2 36.5,-246.2"/>
<polygon fill="#f5f5f5" stroke="transparent" points="37,-283.7 37,-306.7 174,-306.7 174,-283.7 37,-283.7"/>
<polygon fill="none" stroke="#000000" points="37,-283.7 37,-306.7 174,-306.7 174,-283.7 37,-283.7"/>
<text text-anchor="start" x="42" y="-292.3" font-family="Helvetica,sans-Serif" font-weight="bold" font-size="11.00" fill="#000000">Clinical.Visits</text>
<text text-anchor="start" x="139.5219" y="-291.8" font-family="Helvetica,sans-Serif" font-size="11.00" fill="#000000">[table]</text>
<polygon fill="none" stroke="#000000" points="37,-264.7 37,-283.7 174,-283.7 174,-264.7 37,-264.7"/>
<text text-anchor="start" x="40" y="-270.8" font-family="Helvetica,sans-Serif" font-size="11.00" fill="#000000">...</text>
<polygon fill="#ffffff" stroke="transparent" points="37,-245.7 37,-264.7 174,-264.7 174,-245.7 37,-245.7"/>
<polygon fill="none" stroke="#000000" points="37,-245.7 37,-264.7 174,-264.7 174,-245.7 37,-245.7"/>
<polygon fill="#ffffff" stroke="transparent" points="38,-246.7 38,-263.7 80,-263.7 80,-246.7 38,-246.7"/>
<text text-anchor="start" x="40" y="-251.8" font-family="Helvetica,sans-Serif" font-size="11.00" fill="#000000"> &#160;</text>
<polygon fill="#ffffff" stroke="transparent" points="80,-246.7 80,-263.7 122,-263.7 122,-246.7 80,-246.7"/>
<text text-anchor="start" x="97.9431" y="-251.8" font-family="Helvetica,sans-Serif" font-size="11.00" fill="#000000"> &#160;</text>
<polygon fill="#ffffff" stroke="transparent" points="122,-246.7 122,-263.7 173,-263.7 173,-246.7 122,-246.7"/>
<text text-anchor="start" x="155.4053" y="-251.8" font-family="Helvetica,sans-Serif" font-size="11.00" fill="#000000">1 &gt;</text>
<polygon fill="#000000" stroke="#000000" points="80,-246.7 80,-263.7 80,-263.7 80,-246.7 80,-246.7"/>
<polygon fill="#000000" stroke="#000000" points="122,-246.7 122,-263.7 122,-263.7 122,-246.7 122,-246.7"/>
</a>
</g>
</g>
<!-- VisitServiceBillings&#45;&gt;Clinical.Visits -->
<g id="edge3" class="edge">
<title>VisitServiceBillings:w&#45;&gt;Clinical.Visits:e</title>
<path fill="none" stroke="#000000" d="M239.2423,-218.9885C229.4558,-222.6257 224.0131,-229.9064 210,-235.7 200.8671,-239.4759 191.2515,-243.3575 181.699,-247.1563"/>
<polygon fill="#000000" stroke="#000000" points="245.6011,-217.9679 254.0706,-220.2545 249.5506,-217.334 253.5,-216.7 253.5,-216.7 253.5,-216.7 249.5506,-217.334 252.9294,-213.1455 245.6011,-217.9679 245.6011,-217.9679"/>
<ellipse fill="none" stroke="#000000" cx="242.4416" cy="-218.4751" rx="3.2" ry="3.2"/>
</g>
</g>
</svg>
