<?xml version="1.0" encoding="UTF-8" standalone="no"?>
<!DOCTYPE svg PUBLIC "-//W3C//DTD SVG 1.1//EN"
 "http://www.w3.org/Graphics/SVG/1.1/DTD/svg11.dtd">
<!-- Generated by graphviz version 2.40.1 (20161225.0304)
 -->
<!-- Title: twoDegreesRelationshipsDiagram Pages: 1 -->
<svg width="455pt" height="377pt"
 viewBox="0.00 0.00 455.00 376.70" xmlns="http://www.w3.org/2000/svg" xmlns:xlink="http://www.w3.org/1999/xlink">
<g id="graph0" class="graph" transform="scale(1 1) rotate(0) translate(4 372.7)">
<title>twoDegreesRelationshipsDiagram</title>
<polygon fill="#ffffff" stroke="transparent" points="-4,4 -4,-372.7 451,-372.7 451,4 -4,4"/>
<text text-anchor="middle" x="72.4936" y="-7.3" font-family="Helvetica,sans-Serif" font-size="11.00" fill="#000000">Generated by SchemaSpy</text>
<!-- Clinical.Providers -->
<g id="node1" class="node">
<title>Clinical.Providers</title>
<g id="a_node1"><a xlink:title="Clinical.Providers">
<polygon fill="#ffffff" stroke="transparent" points="269.5,-280.2 269.5,-363.2 436.5,-363.2 436.5,-280.2 269.5,-280.2"/>
<polygon fill="#f5f5f5" stroke="transparent" points="270,-339.7 270,-362.7 437,-362.7 437,-339.7 270,-339.7"/>
<polygon fill="none" stroke="#000000" points="270,-339.7 270,-362.7 437,-362.7 437,-339.7 270,-339.7"/>
<text text-anchor="start" x="275" y="-348.3" font-family="Helvetica,sans-Serif" font-weight="bold" font-size="11.00" fill="#000000">Clinical.Providers</text>
<text text-anchor="start" x="402.5219" y="-347.8" font-family="Helvetica,sans-Serif" font-size="11.00" fill="#000000">[table]</text>
<polygon fill="none" stroke="#000000" points="270,-317.7 270,-339.7 437,-339.7 437,-317.7 270,-317.7"/>
<image xlink:href="../../images/foreignKeys.png" width="11px" height="12px" preserveAspectRatio="xMinYMin meet" x="275" y="-334.7"/>
<text text-anchor="start" x="308" y="-324.8" font-family="Helvetica,sans-Serif" font-size="11.00" fill="#000000">EmployeeId</text>
<polygon fill="none" stroke="#000000" points="270,-298.7 270,-317.7 437,-317.7 437,-298.7 270,-298.7"/>
<text text-anchor="start" x="273" y="-304.8" font-family="Helvetica,sans-Serif" font-size="11.00" fill="#000000">...</text>
<polygon fill="#ffffff" stroke="transparent" points="270,-279.7 270,-298.7 437,-298.7 437,-279.7 270,-279.7"/>
<polygon fill="none" stroke="#000000" points="270,-279.7 270,-298.7 437,-298.7 437,-279.7 270,-279.7"/>
<polygon fill="#ffffff" stroke="transparent" points="271,-280.7 271,-297.7 332,-297.7 332,-280.7 271,-280.7"/>
<text text-anchor="start" x="273" y="-285.8" font-family="Helvetica,sans-Serif" font-size="11.00" fill="#000000">&lt; 1</text>
<polygon fill="#ffffff" stroke="transparent" points="332,-280.7 332,-297.7 384,-297.7 384,-280.7 332,-280.7"/>
<text text-anchor="start" x="354.9431" y="-285.8" font-family="Helvetica,sans-Serif" font-size="11.00" fill="#000000"> &#160;</text>
<polygon fill="#ffffff" stroke="transparent" points="384,-280.7 384,-297.7 436,-297.7 436,-280.7 384,-280.7"/>
<text text-anchor="start" x="427.8862" y="-285.8" font-family="Helvetica,sans-Serif" font-size="11.00" fill="#000000"> &#160;</text>
<polygon fill="#000000" stroke="#000000" points="332,-280.7 332,-297.7 332,-297.7 332,-280.7 332,-280.7"/>
<polygon fill="#000000" stroke="#000000" points="384,-280.7 384,-297.7 384,-297.7 384,-280.7 384,-280.7"/>
</a>
</g>
</g>
<!-- Employees -->
<g id="node2" class="node">
<title>Employees</title>
<g id="a_node2"><a xlink:href="../../tables/Employees.html" xlink:title="Employees" target="_top">
<polygon fill="#ffffff" stroke="transparent" points="8,-120.7 8,-364.7 218,-364.7 218,-120.7 8,-120.7"/>
<polygon fill="#f5f5f5" stroke="transparent" points="10,-339.7 10,-362.7 216,-362.7 216,-339.7 10,-339.7"/>
<polygon fill="none" stroke="#000000" points="10,-339.7 10,-362.7 216,-362.7 216,-339.7 10,-339.7"/>
<text text-anchor="start" x="15" y="-348.3" font-family="Helvetica,sans-Serif" font-weight="bold" font-size="11.00" fill="#000000">Employees</text>
<text text-anchor="start" x="181.0437" y="-347.8" font-family="Helvetica,sans-Serif" font-size="11.00" fill="#000000">[table]</text>
<polygon fill="none" stroke="#000000" points="10,-317.7 10,-339.7 135,-339.7 135,-317.7 10,-317.7"/>
<image xlink:href="../../images/primaryKeys.png" width="11px" height="12px" preserveAspectRatio="xMinYMin meet" x="15" y="-334.7"/>
<text text-anchor="start" x="30" y="-324.8" font-family="Helvetica,sans-Serif" font-size="11.00" fill="#000000">Id</text>
<polygon fill="none" stroke="#000000" points="135,-317.7 135,-339.7 216,-339.7 216,-317.7 135,-317.7"/>
<text text-anchor="start" x="138" y="-325.4" font-family="Helvetica,sans-Serif" font-size="11.00" fill="#000000">int identity[4]</text>
<polygon fill="none" stroke="#000000" points="10,-295.7 10,-317.7 135,-317.7 135,-295.7 10,-295.7"/>
<text text-anchor="start" x="30" y="-302.8" font-family="Helvetica,sans-Serif" font-size="11.00" fill="#000000">FirstName</text>
<polygon fill="none" stroke="#000000" points="135,-295.7 135,-317.7 216,-317.7 216,-295.7 135,-295.7"/>
<text text-anchor="start" x="138" y="-303.4" font-family="Helvetica,sans-Serif" font-size="11.00" fill="#000000">nvarchar[100]</text>
<polygon fill="none" stroke="#000000" points="10,-273.7 10,-295.7 135,-295.7 135,-273.7 10,-273.7"/>
<text text-anchor="start" x="30" y="-280.8" font-family="Helvetica,sans-Serif" font-size="11.00" fill="#000000">LastName</text>
<polygon fill="none" stroke="#000000" points="135,-273.7 135,-295.7 216,-295.7 216,-273.7 135,-273.7"/>
<text text-anchor="start" x="138" y="-281.4" font-family="Helvetica,sans-Serif" font-size="11.00" fill="#000000">nvarchar[100]</text>
<polygon fill="none" stroke="#000000" points="10,-251.7 10,-273.7 135,-273.7 135,-251.7 10,-251.7"/>
<text text-anchor="start" x="30" y="-258.8" font-family="Helvetica,sans-Serif" font-size="11.00" fill="#000000">TitleExtension</text>
<polygon fill="none" stroke="#000000" points="135,-251.7 135,-273.7 216,-273.7 216,-251.7 135,-251.7"/>
<text text-anchor="start" x="138" y="-259.4" font-family="Helvetica,sans-Serif" font-size="11.00" fill="#000000">nvarchar[4]</text>
<polygon fill="none" stroke="#000000" points="10,-229.7 10,-251.7 135,-251.7 135,-229.7 10,-229.7"/>
<text text-anchor="start" x="30" y="-236.8" font-family="Helvetica,sans-Serif" font-size="11.00" fill="#000000">Role</text>
<polygon fill="none" stroke="#000000" points="135,-229.7 135,-251.7 216,-251.7 216,-229.7 135,-229.7"/>
<text text-anchor="start" x="138" y="-237.4" font-family="Helvetica,sans-Serif" font-size="11.00" fill="#000000">int[4]</text>
<polygon fill="none" stroke="#000000" points="10,-207.7 10,-229.7 135,-229.7 135,-207.7 10,-207.7"/>
<text text-anchor="start" x="30" y="-214.8" font-family="Helvetica,sans-Serif" font-size="11.00" fill="#000000">Email</text>
<polygon fill="none" stroke="#000000" points="135,-207.7 135,-229.7 216,-229.7 216,-207.7 135,-207.7"/>
<text text-anchor="start" x="138" y="-215.4" font-family="Helvetica,sans-Serif" font-size="11.00" fill="#000000">nvarchar[200]</text>
<polygon fill="none" stroke="#000000" points="10,-185.7 10,-207.7 135,-207.7 135,-185.7 10,-185.7"/>
<text text-anchor="start" x="30" y="-192.8" font-family="Helvetica,sans-Serif" font-size="11.00" fill="#000000">CreatedAtUtc</text>
<polygon fill="none" stroke="#000000" points="135,-185.7 135,-207.7 216,-207.7 216,-185.7 135,-185.7"/>
<text text-anchor="start" x="137.5967" y="-193.4" font-family="Helvetica,sans-Serif" font-size="11.00" fill="#000000">datetime2[16,7]</text>
<polygon fill="none" stroke="#000000" points="10,-163.7 10,-185.7 135,-185.7 135,-163.7 10,-163.7"/>
<text text-anchor="start" x="30" y="-170.8" font-family="Helvetica,sans-Serif" font-size="11.00" fill="#000000">UpdatedAtUtc</text>
<polygon fill="none" stroke="#000000" points="135,-163.7 135,-185.7 216,-185.7 216,-163.7 135,-163.7"/>
<text text-anchor="start" x="137.5967" y="-171.4" font-family="Helvetica,sans-Serif" font-size="11.00" fill="#000000">datetime2[16,7]</text>
<polygon fill="none" stroke="#000000" points="10,-141.7 10,-163.7 135,-163.7 135,-141.7 10,-141.7"/>
<text text-anchor="start" x="30" y="-148.8" font-family="Helvetica,sans-Serif" font-size="11.00" fill="#000000">RowVersion</text>
<polygon fill="none" stroke="#000000" points="135,-141.7 135,-163.7 216,-163.7 216,-141.7 135,-141.7"/>
<text text-anchor="start" x="138" y="-149.4" font-family="Helvetica,sans-Serif" font-size="11.00" fill="#000000">timestamp[8]</text>
<polygon fill="#ffffff" stroke="transparent" points="10,-122.7 10,-141.7 216,-141.7 216,-122.7 10,-122.7"/>
<polygon fill="none" stroke="#000000" points="10,-122.7 10,-141.7 216,-141.7 216,-122.7 10,-122.7"/>
<polygon fill="#ffffff" stroke="transparent" points="11,-123.7 11,-140.7 82,-140.7 82,-123.7 11,-123.7"/>
<text text-anchor="start" x="13" y="-128.8" font-family="Helvetica,sans-Serif" font-size="11.00" fill="#000000">&lt; 0</text>
<polygon fill="#ffffff" stroke="transparent" points="82,-123.7 82,-140.7 144,-140.7 144,-123.7 82,-123.7"/>
<text text-anchor="start" x="109.9431" y="-128.8" font-family="Helvetica,sans-Serif" font-size="11.00" fill="#000000"> &#160;</text>
<polygon fill="#ffffff" stroke="transparent" points="144,-123.7 144,-140.7 215,-140.7 215,-123.7 144,-123.7"/>
<text text-anchor="start" x="197.4053" y="-128.8" font-family="Helvetica,sans-Serif" font-size="11.00" fill="#000000">2 &gt;</text>
<polygon fill="#000000" stroke="#000000" points="82,-123.7 82,-140.7 82,-140.7 82,-123.7 82,-123.7"/>
<polygon fill="#000000" stroke="#000000" points="144,-123.7 144,-140.7 144,-140.7 144,-123.7 144,-123.7"/>
<polygon fill="none" stroke="#000000" stroke-width="2" points="9,-121.7 9,-363.7 217,-363.7 217,-121.7 9,-121.7"/>
</a>
</g>
</g>
<!-- Clinical.Providers&#45;&gt;Employees -->
<g id="edge1" class="edge">
<title>Clinical.Providers:w&#45;&gt;Employees:e</title>
<path fill="none" stroke="#000000" d="M255.2185,-328.7C242.038,-328.7 234.1875,-328.7 216,-328.7"/>
<polygon fill="#000000" stroke="#000000" points="262,-328.7001 270,-332.3 266,-328.7 270,-328.7 270,-328.7 270,-328.7 266,-328.7 270,-325.1 262,-328.7001 262,-328.7001"/>
<ellipse fill="none" stroke="#000000" cx="258.8" cy="-328.7001" rx="3.2" ry="3.2"/>
</g>
<!-- ProviderContracts -->
<g id="node3" class="node">
<title>ProviderContracts</title>
<g id="a_node3"><a xlink:href="../../tables/ProviderContracts.html" xlink:title="ProviderContracts" target="_top">
<polygon fill="#ffffff" stroke="transparent" points="267,-75.2 267,-202.2 439,-202.2 439,-75.2 267,-75.2"/>
<polygon fill="#f5f5f5" stroke="transparent" points="267,-178.7 267,-201.7 439,-201.7 439,-178.7 267,-178.7"/>
<polygon fill="none" stroke="#000000" points="267,-178.7 267,-201.7 439,-201.7 439,-178.7 267,-178.7"/>
<text text-anchor="start" x="272" y="-187.3" font-family="Helvetica,sans-Serif" font-weight="bold" font-size="11.00" fill="#000000">ProviderContracts</text>
<text text-anchor="start" x="404.5219" y="-186.8" font-family="Helvetica,sans-Serif" font-size="11.00" fill="#000000">[table]</text>
<polygon fill="none" stroke="#000000" points="267,-156.7 267,-178.7 439,-178.7 439,-156.7 267,-156.7"/>
<image xlink:href="../../images/primaryKeys.png" width="11px" height="12px" preserveAspectRatio="xMinYMin meet" x="272" y="-173.7"/>
<text text-anchor="start" x="296" y="-163.8" font-family="Helvetica,sans-Serif" font-size="11.00" fill="#000000">Id</text>
<polygon fill="#ffffff" stroke="transparent" points="267,-134.7 267,-156.7 439,-156.7 439,-134.7 267,-134.7"/>
<polygon fill="none" stroke="#000000" points="267,-134.7 267,-156.7 439,-156.7 439,-134.7 267,-134.7"/>
<image xlink:href="../../images/foreignKeys.png" width="11px" height="12px" preserveAspectRatio="xMinYMin meet" x="272" y="-151.7"/>
<text text-anchor="start" x="296" y="-141.8" font-family="Helvetica,sans-Serif" font-size="11.00" fill="#000000">EmployeeID</text>
<polygon fill="#ffffff" stroke="transparent" points="267,-112.7 267,-134.7 439,-134.7 439,-112.7 267,-112.7"/>
<polygon fill="none" stroke="#000000" points="267,-112.7 267,-134.7 439,-134.7 439,-112.7 267,-112.7"/>
<image xlink:href="../../images/foreignKeys.png" width="11px" height="12px" preserveAspectRatio="xMinYMin meet" x="272" y="-129.7"/>
<text text-anchor="start" x="296" y="-119.8" font-family="Helvetica,sans-Serif" font-size="11.00" fill="#000000">FacilityId</text>
<polygon fill="none" stroke="#000000" points="267,-93.7 267,-112.7 439,-112.7 439,-93.7 267,-93.7"/>
<text text-anchor="start" x="270" y="-99.8" font-family="Helvetica,sans-Serif" font-size="11.00" fill="#000000">...</text>
<polygon fill="#ffffff" stroke="transparent" points="267,-74.7 267,-93.7 439,-93.7 439,-74.7 267,-74.7"/>
<polygon fill="none" stroke="#000000" points="267,-74.7 267,-93.7 439,-93.7 439,-74.7 267,-74.7"/>
<polygon fill="#ffffff" stroke="transparent" points="268,-75.7 268,-92.7 331,-92.7 331,-75.7 268,-75.7"/>
<text text-anchor="start" x="270" y="-80.8" font-family="Helvetica,sans-Serif" font-size="11.00" fill="#000000">&lt; 2</text>
<polygon fill="#ffffff" stroke="transparent" points="331,-75.7 331,-92.7 385,-92.7 385,-75.7 331,-75.7"/>
<text text-anchor="start" x="354.9431" y="-80.8" font-family="Helvetica,sans-Serif" font-size="11.00" fill="#000000"> &#160;</text>
<polygon fill="#ffffff" stroke="transparent" points="385,-75.7 385,-92.7 438,-92.7 438,-75.7 385,-75.7"/>
<text text-anchor="start" x="429.8862" y="-80.8" font-family="Helvetica,sans-Serif" font-size="11.00" fill="#000000"> &#160;</text>
<polygon fill="#000000" stroke="#000000" points="331,-75.7 331,-92.7 331,-92.7 331,-75.7 331,-75.7"/>
<polygon fill="#000000" stroke="#000000" points="385,-75.7 385,-92.7 385,-92.7 385,-75.7 385,-75.7"/>
</a>
</g>
</g>
<!-- ProviderContracts&#45;&gt;Employees -->
<g id="edge2" class="edge">
<title>ProviderContracts:w&#45;&gt;Employees:e</title>
<path fill="none" stroke="#000000" d="M252.7372,-148.0138C197.3292,-169.1977 294.8259,-328.7 216,-328.7"/>
<polygon fill="#000000" stroke="#000000" points="259.1032,-146.9811 267.5765,-149.2535 263.0516,-146.3406 267,-145.7 267,-145.7 267,-145.7 263.0516,-146.3406 266.4235,-142.1465 259.1032,-146.9811 259.1032,-146.9811"/>
<ellipse fill="none" stroke="#000000" cx="255.9445" cy="-147.4936" rx="3.2" ry="3.2"/>
</g>
<!-- Clinical.Facilities -->
<g id="node4" class="node">
<title>Clinical.Facilities</title>
<g id="a_node4"><a xlink:title="Clinical.Facilities">
<polygon fill="#ffffff" stroke="transparent" points="32,-38.2 32,-99.2 194,-99.2 194,-38.2 32,-38.2"/>
<polygon fill="#f5f5f5" stroke="transparent" points="32,-75.7 32,-98.7 194,-98.7 194,-75.7 32,-75.7"/>
<polygon fill="none" stroke="#000000" points="32,-75.7 32,-98.7 194,-98.7 194,-75.7 32,-75.7"/>
<text text-anchor="start" x="37" y="-84.3" font-family="Helvetica,sans-Serif" font-weight="bold" font-size="11.00" fill="#000000">Clinical.Facilities</text>
<text text-anchor="start" x="159.5219" y="-83.8" font-family="Helvetica,sans-Serif" font-size="11.00" fill="#000000">[table]</text>
<polygon fill="none" stroke="#000000" points="32,-56.7 32,-75.7 194,-75.7 194,-56.7 32,-56.7"/>
<text text-anchor="start" x="35" y="-62.8" font-family="Helvetica,sans-Serif" font-size="11.00" fill="#000000">...</text>
<polygon fill="#ffffff" stroke="transparent" points="32,-37.7 32,-56.7 194,-56.7 194,-37.7 32,-37.7"/>
<polygon fill="none" stroke="#000000" points="32,-37.7 32,-56.7 194,-56.7 194,-37.7 32,-37.7"/>
<polygon fill="#ffffff" stroke="transparent" points="33,-38.7 33,-55.7 84,-55.7 84,-38.7 33,-38.7"/>
<text text-anchor="start" x="35" y="-43.8" font-family="Helvetica,sans-Serif" font-size="11.00" fill="#000000"> &#160;</text>
<polygon fill="#ffffff" stroke="transparent" points="84,-38.7 84,-55.7 134,-55.7 134,-38.7 84,-38.7"/>
<text text-anchor="start" x="105.9431" y="-43.8" font-family="Helvetica,sans-Serif" font-size="11.00" fill="#000000"> &#160;</text>
<polygon fill="#ffffff" stroke="transparent" points="134,-38.7 134,-55.7 193,-55.7 193,-38.7 134,-38.7"/>
<text text-anchor="start" x="175.4053" y="-43.8" font-family="Helvetica,sans-Serif" font-size="11.00" fill="#000000">1 &gt;</text>
<polygon fill="#000000" stroke="#000000" points="84,-38.7 84,-55.7 84,-55.7 84,-38.7 84,-38.7"/>
<polygon fill="#000000" stroke="#000000" points="134,-38.7 134,-55.7 134,-55.7 134,-38.7 134,-38.7"/>
</a>
</g>
</g>
<!-- ProviderContracts&#45;&gt;Clinical.Facilities -->
<g id="edge3" class="edge">
<title>ProviderContracts:w&#45;&gt;Clinical.Facilities:e</title>
<path fill="none" stroke="#000000" d="M252.6191,-120.744C227.3031,-108.9248 229.7729,-65.7 194,-65.7"/>
<polygon fill="#000000" stroke="#000000" points="259.1638,-122.0892 266.2752,-127.2263 263.0819,-122.8946 267,-123.7 267,-123.7 267,-123.7 263.0819,-122.8946 267.7248,-120.1737 259.1638,-122.0892 259.1638,-122.0892"/>
<ellipse fill="none" stroke="#000000" cx="256.0294" cy="-121.4449" rx="3.2" ry="3.2"/>
</g>
</g>
</svg>
