<?xml version="1.0" encoding="UTF-8" standalone="no"?>
<!DOCTYPE svg PUBLIC "-//W3C//DTD SVG 1.1//EN"
 "http://www.w3.org/Graphics/SVG/1.1/DTD/svg11.dtd">
<!-- Generated by graphviz version 2.40.1 (20161225.0304)
 -->
<!-- Title: oneDegreeRelationshipsDiagram Pages: 1 -->
<svg width="455pt" height="356pt"
 viewBox="0.00 0.00 455.00 355.70" xmlns="http://www.w3.org/2000/svg" xmlns:xlink="http://www.w3.org/1999/xlink">
<g id="graph0" class="graph" transform="scale(1 1) rotate(0) translate(4 351.7)">
<title>oneDegreeRelationshipsDiagram</title>
<polygon fill="#ffffff" stroke="transparent" points="-4,4 -4,-351.7 451,-351.7 451,4 -4,4"/>
<text text-anchor="middle" x="72.4936" y="-7.3" font-family="Helvetica,sans-Serif" font-size="11.00" fill="#000000">Generated by SchemaSpy</text>
<!-- Clinical.Providers -->
<g id="node1" class="node">
<title>Clinical.Providers</title>
<g id="a_node1"><a xlink:title="Clinical.Providers">
<polygon fill="#ffffff" stroke="transparent" points="269.5,-260.7 269.5,-343.7 436.5,-343.7 436.5,-260.7 269.5,-260.7"/>
<polygon fill="#f5f5f5" stroke="transparent" points="270,-320.2 270,-343.2 437,-343.2 437,-320.2 270,-320.2"/>
<polygon fill="none" stroke="#000000" points="270,-320.2 270,-343.2 437,-343.2 437,-320.2 270,-320.2"/>
<text text-anchor="start" x="275" y="-328.8" font-family="Helvetica,sans-Serif" font-weight="bold" font-size="11.00" fill="#000000">Clinical.Providers</text>
<text text-anchor="start" x="402.5219" y="-328.3" font-family="Helvetica,sans-Serif" font-size="11.00" fill="#000000">[table]</text>
<polygon fill="none" stroke="#000000" points="270,-298.2 270,-320.2 437,-320.2 437,-298.2 270,-298.2"/>
<image xlink:href="../../images/foreignKeys.png" width="11px" height="12px" preserveAspectRatio="xMinYMin meet" x="275" y="-315.2"/>
<text text-anchor="start" x="308" y="-305.3" font-family="Helvetica,sans-Serif" font-size="11.00" fill="#000000">EmployeeId</text>
<polygon fill="none" stroke="#000000" points="270,-279.2 270,-298.2 437,-298.2 437,-279.2 270,-279.2"/>
<text text-anchor="start" x="273" y="-285.3" font-family="Helvetica,sans-Serif" font-size="11.00" fill="#000000">...</text>
<polygon fill="#ffffff" stroke="transparent" points="270,-260.2 270,-279.2 437,-279.2 437,-260.2 270,-260.2"/>
<polygon fill="none" stroke="#000000" points="270,-260.2 270,-279.2 437,-279.2 437,-260.2 270,-260.2"/>
<polygon fill="#ffffff" stroke="transparent" points="271,-261.2 271,-278.2 332,-278.2 332,-261.2 271,-261.2"/>
<text text-anchor="start" x="273" y="-266.3" font-family="Helvetica,sans-Serif" font-size="11.00" fill="#000000">&lt; 1</text>
<polygon fill="#ffffff" stroke="transparent" points="332,-261.2 332,-278.2 384,-278.2 384,-261.2 332,-261.2"/>
<text text-anchor="start" x="354.9431" y="-266.3" font-family="Helvetica,sans-Serif" font-size="11.00" fill="#000000"> &#160;</text>
<polygon fill="#ffffff" stroke="transparent" points="384,-261.2 384,-278.2 436,-278.2 436,-261.2 384,-261.2"/>
<text text-anchor="start" x="427.8862" y="-266.3" font-family="Helvetica,sans-Serif" font-size="11.00" fill="#000000"> &#160;</text>
<polygon fill="#000000" stroke="#000000" points="332,-261.2 332,-278.2 332,-278.2 332,-261.2 332,-261.2"/>
<polygon fill="#000000" stroke="#000000" points="384,-261.2 384,-278.2 384,-278.2 384,-261.2 384,-261.2"/>
</a>
</g>
</g>
<!-- Employees -->
<g id="node2" class="node">
<title>Employees</title>
<g id="a_node2"><a xlink:href="../../tables/Employees.html" xlink:title="Employees" target="_top">
<polygon fill="#ffffff" stroke="transparent" points="8,-38.2 8,-282.2 218,-282.2 218,-38.2 8,-38.2"/>
<polygon fill="#f5f5f5" stroke="transparent" points="10,-257.2 10,-280.2 216,-280.2 216,-257.2 10,-257.2"/>
<polygon fill="none" stroke="#000000" points="10,-257.2 10,-280.2 216,-280.2 216,-257.2 10,-257.2"/>
<text text-anchor="start" x="15" y="-265.8" font-family="Helvetica,sans-Serif" font-weight="bold" font-size="11.00" fill="#000000">Employees</text>
<text text-anchor="start" x="181.0437" y="-265.3" font-family="Helvetica,sans-Serif" font-size="11.00" fill="#000000">[table]</text>
<polygon fill="none" stroke="#000000" points="10,-235.2 10,-257.2 135,-257.2 135,-235.2 10,-235.2"/>
<image xlink:href="../../images/primaryKeys.png" width="11px" height="12px" preserveAspectRatio="xMinYMin meet" x="15" y="-252.2"/>
<text text-anchor="start" x="30" y="-242.3" font-family="Helvetica,sans-Serif" font-size="11.00" fill="#000000">Id</text>
<polygon fill="none" stroke="#000000" points="135,-235.2 135,-257.2 216,-257.2 216,-235.2 135,-235.2"/>
<text text-anchor="start" x="138" y="-242.9" font-family="Helvetica,sans-Serif" font-size="11.00" fill="#000000">int identity[4]</text>
<polygon fill="none" stroke="#000000" points="10,-213.2 10,-235.2 135,-235.2 135,-213.2 10,-213.2"/>
<text text-anchor="start" x="30" y="-220.3" font-family="Helvetica,sans-Serif" font-size="11.00" fill="#000000">FirstName</text>
<polygon fill="none" stroke="#000000" points="135,-213.2 135,-235.2 216,-235.2 216,-213.2 135,-213.2"/>
<text text-anchor="start" x="138" y="-220.9" font-family="Helvetica,sans-Serif" font-size="11.00" fill="#000000">nvarchar[100]</text>
<polygon fill="none" stroke="#000000" points="10,-191.2 10,-213.2 135,-213.2 135,-191.2 10,-191.2"/>
<text text-anchor="start" x="30" y="-198.3" font-family="Helvetica,sans-Serif" font-size="11.00" fill="#000000">LastName</text>
<polygon fill="none" stroke="#000000" points="135,-191.2 135,-213.2 216,-213.2 216,-191.2 135,-191.2"/>
<text text-anchor="start" x="138" y="-198.9" font-family="Helvetica,sans-Serif" font-size="11.00" fill="#000000">nvarchar[100]</text>
<polygon fill="none" stroke="#000000" points="10,-169.2 10,-191.2 135,-191.2 135,-169.2 10,-169.2"/>
<text text-anchor="start" x="30" y="-176.3" font-family="Helvetica,sans-Serif" font-size="11.00" fill="#000000">TitleExtension</text>
<polygon fill="none" stroke="#000000" points="135,-169.2 135,-191.2 216,-191.2 216,-169.2 135,-169.2"/>
<text text-anchor="start" x="138" y="-176.9" font-family="Helvetica,sans-Serif" font-size="11.00" fill="#000000">nvarchar[4]</text>
<polygon fill="none" stroke="#000000" points="10,-147.2 10,-169.2 135,-169.2 135,-147.2 10,-147.2"/>
<text text-anchor="start" x="30" y="-154.3" font-family="Helvetica,sans-Serif" font-size="11.00" fill="#000000">Role</text>
<polygon fill="none" stroke="#000000" points="135,-147.2 135,-169.2 216,-169.2 216,-147.2 135,-147.2"/>
<text text-anchor="start" x="138" y="-154.9" font-family="Helvetica,sans-Serif" font-size="11.00" fill="#000000">int[4]</text>
<polygon fill="none" stroke="#000000" points="10,-125.2 10,-147.2 135,-147.2 135,-125.2 10,-125.2"/>
<text text-anchor="start" x="30" y="-132.3" font-family="Helvetica,sans-Serif" font-size="11.00" fill="#000000">Email</text>
<polygon fill="none" stroke="#000000" points="135,-125.2 135,-147.2 216,-147.2 216,-125.2 135,-125.2"/>
<text text-anchor="start" x="138" y="-132.9" font-family="Helvetica,sans-Serif" font-size="11.00" fill="#000000">nvarchar[200]</text>
<polygon fill="none" stroke="#000000" points="10,-103.2 10,-125.2 135,-125.2 135,-103.2 10,-103.2"/>
<text text-anchor="start" x="30" y="-110.3" font-family="Helvetica,sans-Serif" font-size="11.00" fill="#000000">CreatedAtUtc</text>
<polygon fill="none" stroke="#000000" points="135,-103.2 135,-125.2 216,-125.2 216,-103.2 135,-103.2"/>
<text text-anchor="start" x="137.5967" y="-110.9" font-family="Helvetica,sans-Serif" font-size="11.00" fill="#000000">datetime2[16,7]</text>
<polygon fill="none" stroke="#000000" points="10,-81.2 10,-103.2 135,-103.2 135,-81.2 10,-81.2"/>
<text text-anchor="start" x="30" y="-88.3" font-family="Helvetica,sans-Serif" font-size="11.00" fill="#000000">UpdatedAtUtc</text>
<polygon fill="none" stroke="#000000" points="135,-81.2 135,-103.2 216,-103.2 216,-81.2 135,-81.2"/>
<text text-anchor="start" x="137.5967" y="-88.9" font-family="Helvetica,sans-Serif" font-size="11.00" fill="#000000">datetime2[16,7]</text>
<polygon fill="none" stroke="#000000" points="10,-59.2 10,-81.2 135,-81.2 135,-59.2 10,-59.2"/>
<text text-anchor="start" x="30" y="-66.3" font-family="Helvetica,sans-Serif" font-size="11.00" fill="#000000">RowVersion</text>
<polygon fill="none" stroke="#000000" points="135,-59.2 135,-81.2 216,-81.2 216,-59.2 135,-59.2"/>
<text text-anchor="start" x="138" y="-66.9" font-family="Helvetica,sans-Serif" font-size="11.00" fill="#000000">timestamp[8]</text>
<polygon fill="#ffffff" stroke="transparent" points="10,-40.2 10,-59.2 216,-59.2 216,-40.2 10,-40.2"/>
<polygon fill="none" stroke="#000000" points="10,-40.2 10,-59.2 216,-59.2 216,-40.2 10,-40.2"/>
<polygon fill="#ffffff" stroke="transparent" points="11,-41.2 11,-58.2 82,-58.2 82,-41.2 11,-41.2"/>
<text text-anchor="start" x="13" y="-46.3" font-family="Helvetica,sans-Serif" font-size="11.00" fill="#000000">&lt; 0</text>
<polygon fill="#ffffff" stroke="transparent" points="82,-41.2 82,-58.2 144,-58.2 144,-41.2 82,-41.2"/>
<text text-anchor="start" x="109.9431" y="-46.3" font-family="Helvetica,sans-Serif" font-size="11.00" fill="#000000"> &#160;</text>
<polygon fill="#ffffff" stroke="transparent" points="144,-41.2 144,-58.2 215,-58.2 215,-41.2 144,-41.2"/>
<text text-anchor="start" x="197.4053" y="-46.3" font-family="Helvetica,sans-Serif" font-size="11.00" fill="#000000">2 &gt;</text>
<polygon fill="#000000" stroke="#000000" points="82,-41.2 82,-58.2 82,-58.2 82,-41.2 82,-41.2"/>
<polygon fill="#000000" stroke="#000000" points="144,-41.2 144,-58.2 144,-58.2 144,-41.2 144,-41.2"/>
<polygon fill="none" stroke="#000000" stroke-width="2" points="9,-39.2 9,-281.2 217,-281.2 217,-39.2 9,-39.2"/>
</a>
</g>
</g>
<!-- Clinical.Providers&#45;&gt;Employees -->
<g id="edge1" class="edge">
<title>Clinical.Providers:w&#45;&gt;Employees:e</title>
<path fill="none" stroke="#000000" d="M255.922,-304.6692C238.08,-290.2239 246.8279,-246.2 216,-246.2"/>
<polygon fill="#000000" stroke="#000000" points="262.3847,-306.7491 268.8971,-312.6269 266.1923,-307.9745 270,-309.2 270,-309.2 270,-309.2 266.1923,-307.9745 271.1029,-305.7731 262.3847,-306.7491 262.3847,-306.7491"/>
<ellipse fill="none" stroke="#000000" cx="259.3385" cy="-305.7687" rx="3.2" ry="3.2"/>
</g>
<!-- ProviderContracts -->
<g id="node3" class="node">
<title>ProviderContracts</title>
<g id="a_node3"><a xlink:href="../../tables/ProviderContracts.html" xlink:title="ProviderContracts" target="_top">
<polygon fill="#ffffff" stroke="transparent" points="267,-112.7 267,-239.7 439,-239.7 439,-112.7 267,-112.7"/>
<polygon fill="#f5f5f5" stroke="transparent" points="267,-216.2 267,-239.2 439,-239.2 439,-216.2 267,-216.2"/>
<polygon fill="none" stroke="#000000" points="267,-216.2 267,-239.2 439,-239.2 439,-216.2 267,-216.2"/>
<text text-anchor="start" x="272" y="-224.8" font-family="Helvetica,sans-Serif" font-weight="bold" font-size="11.00" fill="#000000">ProviderContracts</text>
<text text-anchor="start" x="404.5219" y="-224.3" font-family="Helvetica,sans-Serif" font-size="11.00" fill="#000000">[table]</text>
<polygon fill="none" stroke="#000000" points="267,-194.2 267,-216.2 439,-216.2 439,-194.2 267,-194.2"/>
<image xlink:href="../../images/primaryKeys.png" width="11px" height="12px" preserveAspectRatio="xMinYMin meet" x="272" y="-211.2"/>
<text text-anchor="start" x="296" y="-201.3" font-family="Helvetica,sans-Serif" font-size="11.00" fill="#000000">Id</text>
<polygon fill="#ffffff" stroke="transparent" points="267,-172.2 267,-194.2 439,-194.2 439,-172.2 267,-172.2"/>
<polygon fill="none" stroke="#000000" points="267,-172.2 267,-194.2 439,-194.2 439,-172.2 267,-172.2"/>
<image xlink:href="../../images/foreignKeys.png" width="11px" height="12px" preserveAspectRatio="xMinYMin meet" x="272" y="-189.2"/>
<text text-anchor="start" x="296" y="-179.3" font-family="Helvetica,sans-Serif" font-size="11.00" fill="#000000">EmployeeID</text>
<polygon fill="#ffffff" stroke="transparent" points="267,-150.2 267,-172.2 439,-172.2 439,-150.2 267,-150.2"/>
<polygon fill="none" stroke="#000000" points="267,-150.2 267,-172.2 439,-172.2 439,-150.2 267,-150.2"/>
<image xlink:href="../../images/foreignKeys.png" width="11px" height="12px" preserveAspectRatio="xMinYMin meet" x="272" y="-167.2"/>
<text text-anchor="start" x="296" y="-157.3" font-family="Helvetica,sans-Serif" font-size="11.00" fill="#000000">FacilityId</text>
<polygon fill="none" stroke="#000000" points="267,-131.2 267,-150.2 439,-150.2 439,-131.2 267,-131.2"/>
<text text-anchor="start" x="270" y="-137.3" font-family="Helvetica,sans-Serif" font-size="11.00" fill="#000000">...</text>
<polygon fill="#ffffff" stroke="transparent" points="267,-112.2 267,-131.2 439,-131.2 439,-112.2 267,-112.2"/>
<polygon fill="none" stroke="#000000" points="267,-112.2 267,-131.2 439,-131.2 439,-112.2 267,-112.2"/>
<polygon fill="#ffffff" stroke="transparent" points="268,-113.2 268,-130.2 331,-130.2 331,-113.2 268,-113.2"/>
<text text-anchor="start" x="270" y="-118.3" font-family="Helvetica,sans-Serif" font-size="11.00" fill="#000000">&lt; 2</text>
<polygon fill="#ffffff" stroke="transparent" points="331,-113.2 331,-130.2 385,-130.2 385,-113.2 331,-113.2"/>
<text text-anchor="start" x="354.9431" y="-118.3" font-family="Helvetica,sans-Serif" font-size="11.00" fill="#000000"> &#160;</text>
<polygon fill="#ffffff" stroke="transparent" points="385,-113.2 385,-130.2 438,-130.2 438,-113.2 385,-113.2"/>
<text text-anchor="start" x="429.8862" y="-118.3" font-family="Helvetica,sans-Serif" font-size="11.00" fill="#000000"> &#160;</text>
<polygon fill="#000000" stroke="#000000" points="331,-113.2 331,-130.2 331,-130.2 331,-113.2 331,-113.2"/>
<polygon fill="#000000" stroke="#000000" points="385,-113.2 385,-130.2 385,-130.2 385,-113.2 385,-113.2"/>
</a>
</g>
</g>
<!-- ProviderContracts&#45;&gt;Employees -->
<g id="edge2" class="edge">
<title>ProviderContracts:w&#45;&gt;Employees:e</title>
<path fill="none" stroke="#000000" d="M252.9033,-188.1435C236.525,-202.9952 245.8329,-246.2 216,-246.2"/>
<polygon fill="#000000" stroke="#000000" points="259.4507,-185.8474 268.1913,-186.5972 263.2254,-184.5237 267,-183.2 267,-183.2 267,-183.2 263.2254,-184.5237 265.8087,-179.8028 259.4507,-185.8474 259.4507,-185.8474"/>
<ellipse fill="none" stroke="#000000" cx="256.431" cy="-186.9064" rx="3.2" ry="3.2"/>
</g>
</g>
</svg>
