<?xml version="1.0" encoding="UTF-8" standalone="no"?>
<!DOCTYPE svg PUBLIC "-//W3C//DTD SVG 1.1//EN"
 "http://www.w3.org/Graphics/SVG/1.1/DTD/svg11.dtd">
<!-- Generated by graphviz version 2.40.1 (20161225.0304)
 -->
<!-- Title: oneDegreeRelationshipsDiagram Pages: 1 -->
<svg width="474pt" height="288pt"
 viewBox="0.00 0.00 474.00 287.70" xmlns="http://www.w3.org/2000/svg" xmlns:xlink="http://www.w3.org/1999/xlink">
<g id="graph0" class="graph" transform="scale(1 1) rotate(0) translate(4 283.7)">
<title>oneDegreeRelationshipsDiagram</title>
<polygon fill="#ffffff" stroke="transparent" points="-4,4 -4,-283.7 470,-283.7 470,4 -4,4"/>
<text text-anchor="middle" x="72.4936" y="-7.3" font-family="Helvetica,sans-Serif" font-size="11.00" fill="#000000">Generated by SchemaSpy</text>
<!-- ProviderContracts -->
<g id="node1" class="node">
<title>ProviderContracts</title>
<g id="a_node1"><a xlink:href="../../tables/ProviderContracts.html" xlink:title="ProviderContracts" target="_top">
<polygon fill="#ffffff" stroke="transparent" points="219,-38.2 219,-260.2 458,-260.2 458,-38.2 219,-38.2"/>
<polygon fill="#f5f5f5" stroke="transparent" points="221.5,-235.2 221.5,-258.2 456.5,-258.2 456.5,-235.2 221.5,-235.2"/>
<polygon fill="none" stroke="#000000" points="221.5,-235.2 221.5,-258.2 456.5,-258.2 456.5,-235.2 221.5,-235.2"/>
<text text-anchor="start" x="226.5" y="-243.8" font-family="Helvetica,sans-Serif" font-weight="bold" font-size="11.00" fill="#000000">ProviderContracts</text>
<text text-anchor="start" x="421.5437" y="-243.3" font-family="Helvetica,sans-Serif" font-size="11.00" fill="#000000">[table]</text>
<polygon fill="none" stroke="#000000" points="221.5,-213.2 221.5,-235.2 375.5,-235.2 375.5,-213.2 221.5,-213.2"/>
<image xlink:href="../../images/primaryKeys.png" width="11px" height="12px" preserveAspectRatio="xMinYMin meet" x="226.5" y="-230.2"/>
<text text-anchor="start" x="241.5" y="-220.3" font-family="Helvetica,sans-Serif" font-size="11.00" fill="#000000">Id</text>
<polygon fill="none" stroke="#000000" points="375.5,-213.2 375.5,-235.2 456.5,-235.2 456.5,-213.2 375.5,-213.2"/>
<text text-anchor="start" x="378.5" y="-220.9" font-family="Helvetica,sans-Serif" font-size="11.00" fill="#000000">int identity[4]</text>
<polygon fill="#ffffff" stroke="transparent" points="221.5,-191.2 221.5,-213.2 375.5,-213.2 375.5,-191.2 221.5,-191.2"/>
<polygon fill="none" stroke="#000000" points="221.5,-191.2 221.5,-213.2 375.5,-213.2 375.5,-191.2 221.5,-191.2"/>
<image xlink:href="../../images/foreignKeys.png" width="11px" height="12px" preserveAspectRatio="xMinYMin meet" x="226.5" y="-208.2"/>
<text text-anchor="start" x="241.5" y="-198.3" font-family="Helvetica,sans-Serif" font-size="11.00" fill="#000000">EmployeeID</text>
<polygon fill="none" stroke="#000000" points="375.5,-191.2 375.5,-213.2 456.5,-213.2 456.5,-191.2 375.5,-191.2"/>
<text text-anchor="start" x="378.5" y="-198.9" font-family="Helvetica,sans-Serif" font-size="11.00" fill="#000000">int[4]</text>
<polygon fill="#ffffff" stroke="transparent" points="221.5,-169.2 221.5,-191.2 375.5,-191.2 375.5,-169.2 221.5,-169.2"/>
<polygon fill="none" stroke="#000000" points="221.5,-169.2 221.5,-191.2 375.5,-191.2 375.5,-169.2 221.5,-169.2"/>
<image xlink:href="../../images/foreignKeys.png" width="11px" height="12px" preserveAspectRatio="xMinYMin meet" x="226.5" y="-186.2"/>
<text text-anchor="start" x="241.5" y="-176.3" font-family="Helvetica,sans-Serif" font-size="11.00" fill="#000000">FacilityId</text>
<polygon fill="none" stroke="#000000" points="375.5,-169.2 375.5,-191.2 456.5,-191.2 456.5,-169.2 375.5,-169.2"/>
<text text-anchor="start" x="378.5" y="-176.9" font-family="Helvetica,sans-Serif" font-size="11.00" fill="#000000">int[4]</text>
<polygon fill="none" stroke="#000000" points="221.5,-147.2 221.5,-169.2 375.5,-169.2 375.5,-147.2 221.5,-147.2"/>
<text text-anchor="start" x="241.5" y="-154.3" font-family="Helvetica,sans-Serif" font-size="11.00" fill="#000000">StartDate</text>
<polygon fill="none" stroke="#000000" points="375.5,-147.2 375.5,-169.2 456.5,-169.2 456.5,-147.2 375.5,-147.2"/>
<text text-anchor="start" x="378.5" y="-154.9" font-family="Helvetica,sans-Serif" font-size="11.00" fill="#000000">date[6]</text>
<polygon fill="none" stroke="#000000" points="221.5,-125.2 221.5,-147.2 375.5,-147.2 375.5,-125.2 221.5,-125.2"/>
<text text-anchor="start" x="241.5" y="-132.3" font-family="Helvetica,sans-Serif" font-size="11.00" fill="#000000">EndDate</text>
<polygon fill="none" stroke="#000000" points="375.5,-125.2 375.5,-147.2 456.5,-147.2 456.5,-125.2 375.5,-125.2"/>
<text text-anchor="start" x="378.5" y="-132.9" font-family="Helvetica,sans-Serif" font-size="11.00" fill="#000000">date[6]</text>
<polygon fill="none" stroke="#000000" points="221.5,-103.2 221.5,-125.2 375.5,-125.2 375.5,-103.2 221.5,-103.2"/>
<text text-anchor="start" x="241.5" y="-110.3" font-family="Helvetica,sans-Serif" font-size="11.00" fill="#000000">CreatedAtUtc</text>
<polygon fill="none" stroke="#000000" points="375.5,-103.2 375.5,-125.2 456.5,-125.2 456.5,-103.2 375.5,-103.2"/>
<text text-anchor="start" x="378.0968" y="-110.9" font-family="Helvetica,sans-Serif" font-size="11.00" fill="#000000">datetime2[16,7]</text>
<polygon fill="none" stroke="#000000" points="221.5,-81.2 221.5,-103.2 375.5,-103.2 375.5,-81.2 221.5,-81.2"/>
<text text-anchor="start" x="241.5" y="-88.3" font-family="Helvetica,sans-Serif" font-size="11.00" fill="#000000">UpdatedAtUtc</text>
<polygon fill="none" stroke="#000000" points="375.5,-81.2 375.5,-103.2 456.5,-103.2 456.5,-81.2 375.5,-81.2"/>
<text text-anchor="start" x="378.0968" y="-88.9" font-family="Helvetica,sans-Serif" font-size="11.00" fill="#000000">datetime2[16,7]</text>
<polygon fill="none" stroke="#000000" points="221.5,-59.2 221.5,-81.2 375.5,-81.2 375.5,-59.2 221.5,-59.2"/>
<text text-anchor="start" x="241.5" y="-66.3" font-family="Helvetica,sans-Serif" font-size="11.00" fill="#000000">RowVersion</text>
<polygon fill="none" stroke="#000000" points="375.5,-59.2 375.5,-81.2 456.5,-81.2 456.5,-59.2 375.5,-59.2"/>
<text text-anchor="start" x="378.5" y="-66.9" font-family="Helvetica,sans-Serif" font-size="11.00" fill="#000000">timestamp[8]</text>
<polygon fill="#ffffff" stroke="transparent" points="221.5,-40.2 221.5,-59.2 456.5,-59.2 456.5,-40.2 221.5,-40.2"/>
<polygon fill="none" stroke="#000000" points="221.5,-40.2 221.5,-59.2 456.5,-59.2 456.5,-40.2 221.5,-40.2"/>
<polygon fill="#ffffff" stroke="transparent" points="222.5,-41.2 222.5,-58.2 303.5,-58.2 303.5,-41.2 222.5,-41.2"/>
<text text-anchor="start" x="224.5" y="-46.3" font-family="Helvetica,sans-Serif" font-size="11.00" fill="#000000">&lt; 2</text>
<polygon fill="#ffffff" stroke="transparent" points="303.5,-41.2 303.5,-58.2 375.5,-58.2 375.5,-41.2 303.5,-41.2"/>
<text text-anchor="start" x="336.4431" y="-46.3" font-family="Helvetica,sans-Serif" font-size="11.00" fill="#000000"> &#160;</text>
<polygon fill="#ffffff" stroke="transparent" points="375.5,-41.2 375.5,-58.2 455.5,-58.2 455.5,-41.2 375.5,-41.2"/>
<text text-anchor="start" x="437.9053" y="-46.3" font-family="Helvetica,sans-Serif" font-size="11.00" fill="#000000">0 &gt;</text>
<polygon fill="#000000" stroke="#000000" points="303.5,-41.2 303.5,-58.2 303.5,-58.2 303.5,-41.2 303.5,-41.2"/>
<polygon fill="#000000" stroke="#000000" points="375.5,-41.2 375.5,-58.2 375.5,-58.2 375.5,-41.2 375.5,-41.2"/>
<polygon fill="none" stroke="#000000" stroke-width="2" points="220,-39.2 220,-259.2 457,-259.2 457,-39.2 220,-39.2"/>
</a>
</g>
</g>
<!-- Employees -->
<g id="node2" class="node">
<title>Employees</title>
<g id="a_node2"><a xlink:href="../../tables/Employees.html" xlink:title="Employees" target="_top">
<polygon fill="#ffffff" stroke="transparent" points="26.5,-192.7 26.5,-275.7 151.5,-275.7 151.5,-192.7 26.5,-192.7"/>
<polygon fill="#f5f5f5" stroke="transparent" points="27,-252.2 27,-275.2 152,-275.2 152,-252.2 27,-252.2"/>
<polygon fill="none" stroke="#000000" points="27,-252.2 27,-275.2 152,-275.2 152,-252.2 27,-252.2"/>
<text text-anchor="start" x="32" y="-260.8" font-family="Helvetica,sans-Serif" font-weight="bold" font-size="11.00" fill="#000000">Employees</text>
<text text-anchor="start" x="117.0437" y="-260.3" font-family="Helvetica,sans-Serif" font-size="11.00" fill="#000000">[table]</text>
<polygon fill="none" stroke="#000000" points="27,-230.2 27,-252.2 152,-252.2 152,-230.2 27,-230.2"/>
<image xlink:href="../../images/primaryKeys.png" width="11px" height="12px" preserveAspectRatio="xMinYMin meet" x="32" y="-247.2"/>
<text text-anchor="start" x="47" y="-237.3" font-family="Helvetica,sans-Serif" font-size="11.00" fill="#000000">Id</text>
<polygon fill="none" stroke="#000000" points="27,-211.2 27,-230.2 152,-230.2 152,-211.2 27,-211.2"/>
<text text-anchor="start" x="30" y="-217.3" font-family="Helvetica,sans-Serif" font-size="11.00" fill="#000000">...</text>
<polygon fill="#ffffff" stroke="transparent" points="27,-192.2 27,-211.2 152,-211.2 152,-192.2 27,-192.2"/>
<polygon fill="none" stroke="#000000" points="27,-192.2 27,-211.2 152,-211.2 152,-192.2 27,-192.2"/>
<polygon fill="#ffffff" stroke="transparent" points="28,-193.2 28,-210.2 66,-210.2 66,-193.2 28,-193.2"/>
<text text-anchor="start" x="30" y="-198.3" font-family="Helvetica,sans-Serif" font-size="11.00" fill="#000000"> &#160;</text>
<polygon fill="#ffffff" stroke="transparent" points="66,-193.2 66,-210.2 104,-210.2 104,-193.2 66,-193.2"/>
<text text-anchor="start" x="81.9431" y="-198.3" font-family="Helvetica,sans-Serif" font-size="11.00" fill="#000000"> &#160;</text>
<polygon fill="#ffffff" stroke="transparent" points="104,-193.2 104,-210.2 151,-210.2 151,-193.2 104,-193.2"/>
<text text-anchor="start" x="133.4053" y="-198.3" font-family="Helvetica,sans-Serif" font-size="11.00" fill="#000000">2 &gt;</text>
<polygon fill="#000000" stroke="#000000" points="66,-193.2 66,-210.2 66,-210.2 66,-193.2 66,-193.2"/>
<polygon fill="#000000" stroke="#000000" points="104,-193.2 104,-210.2 104,-210.2 104,-193.2 104,-193.2"/>
</a>
</g>
</g>
<!-- ProviderContracts&#45;&gt;Employees -->
<g id="edge1" class="edge">
<title>ProviderContracts:w&#45;&gt;Employees:e</title>
<path fill="none" stroke="#000000" d="M207.3088,-204.7589C185.6013,-213.4354 181.8855,-241.2 152,-241.2"/>
<polygon fill="#000000" stroke="#000000" points="213.627,-203.6197 222.1389,-205.7429 217.5635,-202.9098 221.5,-202.2 221.5,-202.2 221.5,-202.2 217.5635,-202.9098 220.8611,-198.6571 213.627,-203.6197 213.627,-203.6197"/>
<ellipse fill="none" stroke="#000000" cx="210.4778" cy="-204.1876" rx="3.2" ry="3.2"/>
</g>
<!-- Clinical.Facilities -->
<g id="node3" class="node">
<title>Clinical.Facilities</title>
<g id="a_node3"><a xlink:title="Clinical.Facilities">
<polygon fill="#ffffff" stroke="transparent" points="8,-110.7 8,-171.7 170,-171.7 170,-110.7 8,-110.7"/>
<polygon fill="#f5f5f5" stroke="transparent" points="8,-148.2 8,-171.2 170,-171.2 170,-148.2 8,-148.2"/>
<polygon fill="none" stroke="#000000" points="8,-148.2 8,-171.2 170,-171.2 170,-148.2 8,-148.2"/>
<text text-anchor="start" x="13" y="-156.8" font-family="Helvetica,sans-Serif" font-weight="bold" font-size="11.00" fill="#000000">Clinical.Facilities</text>
<text text-anchor="start" x="135.5219" y="-156.3" font-family="Helvetica,sans-Serif" font-size="11.00" fill="#000000">[table]</text>
<polygon fill="none" stroke="#000000" points="8,-129.2 8,-148.2 170,-148.2 170,-129.2 8,-129.2"/>
<text text-anchor="start" x="11" y="-135.3" font-family="Helvetica,sans-Serif" font-size="11.00" fill="#000000">...</text>
<polygon fill="#ffffff" stroke="transparent" points="8,-110.2 8,-129.2 170,-129.2 170,-110.2 8,-110.2"/>
<polygon fill="none" stroke="#000000" points="8,-110.2 8,-129.2 170,-129.2 170,-110.2 8,-110.2"/>
<polygon fill="#ffffff" stroke="transparent" points="9,-111.2 9,-128.2 60,-128.2 60,-111.2 9,-111.2"/>
<text text-anchor="start" x="11" y="-116.3" font-family="Helvetica,sans-Serif" font-size="11.00" fill="#000000"> &#160;</text>
<polygon fill="#ffffff" stroke="transparent" points="60,-111.2 60,-128.2 110,-128.2 110,-111.2 60,-111.2"/>
<text text-anchor="start" x="81.9431" y="-116.3" font-family="Helvetica,sans-Serif" font-size="11.00" fill="#000000"> &#160;</text>
<polygon fill="#ffffff" stroke="transparent" points="110,-111.2 110,-128.2 169,-128.2 169,-111.2 110,-111.2"/>
<text text-anchor="start" x="151.4053" y="-116.3" font-family="Helvetica,sans-Serif" font-size="11.00" fill="#000000">1 &gt;</text>
<polygon fill="#000000" stroke="#000000" points="60,-111.2 60,-128.2 60,-128.2 60,-111.2 60,-111.2"/>
<polygon fill="#000000" stroke="#000000" points="110,-111.2 110,-128.2 110,-128.2 110,-111.2 110,-111.2"/>
</a>
</g>
</g>
<!-- ProviderContracts&#45;&gt;Clinical.Facilities -->
<g id="edge2" class="edge">
<title>ProviderContracts:w&#45;&gt;Clinical.Facilities:e</title>
<path fill="none" stroke="#000000" d="M206.9815,-179.5239C197.3485,-178.6573 187.6342,-177.0067 178.1358,-174.859"/>
<polygon fill="#000000" stroke="#000000" points="213.5087,-179.8278 221.3325,-183.7961 217.5043,-180.0139 221.5,-180.2 221.5,-180.2 221.5,-180.2 217.5043,-180.0139 221.6675,-176.6039 213.5087,-179.8278 213.5087,-179.8278"/>
<ellipse fill="none" stroke="#000000" cx="210.3121" cy="-179.6789" rx="3.2" ry="3.2"/>
</g>
</g>
</svg>
