<?xml version="1.0" encoding="UTF-8" standalone="no"?>
<!DOCTYPE svg PUBLIC "-//W3C//DTD SVG 1.1//EN"
 "http://www.w3.org/Graphics/SVG/1.1/DTD/svg11.dtd">
<!-- Generated by graphviz version 2.40.1 (20161225.0304)
 -->
<!-- Title: twoDegreesRelationshipsDiagram Pages: 1 -->
<svg width="474pt" height="355pt"
 viewBox="0.00 0.00 474.00 354.70" xmlns="http://www.w3.org/2000/svg" xmlns:xlink="http://www.w3.org/1999/xlink">
<g id="graph0" class="graph" transform="scale(1 1) rotate(0) translate(4 350.7)">
<title>twoDegreesRelationshipsDiagram</title>
<polygon fill="#ffffff" stroke="transparent" points="-4,4 -4,-350.7 470,-350.7 470,4 -4,4"/>
<text text-anchor="middle" x="72.4936" y="-7.3" font-family="Helvetica,sans-Serif" font-size="11.00" fill="#000000">Generated by SchemaSpy</text>
<!-- Clinical.Providers -->
<g id="node1" class="node">
<title>Clinical.Providers</title>
<g id="a_node1"><a xlink:title="Clinical.Providers">
<polygon fill="#ffffff" stroke="transparent" points="255,-281.7 255,-342.7 422,-342.7 422,-281.7 255,-281.7"/>
<polygon fill="#f5f5f5" stroke="transparent" points="255.5,-319.2 255.5,-342.2 422.5,-342.2 422.5,-319.2 255.5,-319.2"/>
<polygon fill="none" stroke="#000000" points="255.5,-319.2 255.5,-342.2 422.5,-342.2 422.5,-319.2 255.5,-319.2"/>
<text text-anchor="start" x="260.5" y="-327.8" font-family="Helvetica,sans-Serif" font-weight="bold" font-size="11.00" fill="#000000">Clinical.Providers</text>
<text text-anchor="start" x="388.0219" y="-327.3" font-family="Helvetica,sans-Serif" font-size="11.00" fill="#000000">[table]</text>
<polygon fill="none" stroke="#000000" points="255.5,-300.2 255.5,-319.2 422.5,-319.2 422.5,-300.2 255.5,-300.2"/>
<text text-anchor="start" x="258.5" y="-306.3" font-family="Helvetica,sans-Serif" font-size="11.00" fill="#000000">...</text>
<polygon fill="#ffffff" stroke="transparent" points="255.5,-281.2 255.5,-300.2 422.5,-300.2 422.5,-281.2 255.5,-281.2"/>
<polygon fill="none" stroke="#000000" points="255.5,-281.2 255.5,-300.2 422.5,-300.2 422.5,-281.2 255.5,-281.2"/>
<polygon fill="#ffffff" stroke="transparent" points="256.5,-282.2 256.5,-299.2 317.5,-299.2 317.5,-282.2 256.5,-282.2"/>
<text text-anchor="start" x="258.5" y="-287.3" font-family="Helvetica,sans-Serif" font-size="11.00" fill="#000000">&lt; 1</text>
<polygon fill="#ffffff" stroke="transparent" points="317.5,-282.2 317.5,-299.2 369.5,-299.2 369.5,-282.2 317.5,-282.2"/>
<text text-anchor="start" x="340.4431" y="-287.3" font-family="Helvetica,sans-Serif" font-size="11.00" fill="#000000"> &#160;</text>
<polygon fill="#ffffff" stroke="transparent" points="369.5,-282.2 369.5,-299.2 421.5,-299.2 421.5,-282.2 369.5,-282.2"/>
<text text-anchor="start" x="413.3862" y="-287.3" font-family="Helvetica,sans-Serif" font-size="11.00" fill="#000000"> &#160;</text>
<polygon fill="#000000" stroke="#000000" points="317.5,-282.2 317.5,-299.2 317.5,-299.2 317.5,-282.2 317.5,-282.2"/>
<polygon fill="#000000" stroke="#000000" points="369.5,-282.2 369.5,-299.2 369.5,-299.2 369.5,-282.2 369.5,-282.2"/>
</a>
</g>
</g>
<!-- Employees -->
<g id="node2" class="node">
<title>Employees</title>
<g id="a_node2"><a xlink:href="../../tables/Employees.html" xlink:title="Employees" target="_top">
<polygon fill="#ffffff" stroke="transparent" points="26.5,-245.7 26.5,-328.7 151.5,-328.7 151.5,-245.7 26.5,-245.7"/>
<polygon fill="#f5f5f5" stroke="transparent" points="27,-305.2 27,-328.2 152,-328.2 152,-305.2 27,-305.2"/>
<polygon fill="none" stroke="#000000" points="27,-305.2 27,-328.2 152,-328.2 152,-305.2 27,-305.2"/>
<text text-anchor="start" x="32" y="-313.8" font-family="Helvetica,sans-Serif" font-weight="bold" font-size="11.00" fill="#000000">Employees</text>
<text text-anchor="start" x="117.0437" y="-313.3" font-family="Helvetica,sans-Serif" font-size="11.00" fill="#000000">[table]</text>
<polygon fill="none" stroke="#000000" points="27,-283.2 27,-305.2 152,-305.2 152,-283.2 27,-283.2"/>
<image xlink:href="../../images/primaryKeys.png" width="11px" height="12px" preserveAspectRatio="xMinYMin meet" x="32" y="-300.2"/>
<text text-anchor="start" x="47" y="-290.3" font-family="Helvetica,sans-Serif" font-size="11.00" fill="#000000">Id</text>
<polygon fill="none" stroke="#000000" points="27,-264.2 27,-283.2 152,-283.2 152,-264.2 27,-264.2"/>
<text text-anchor="start" x="30" y="-270.3" font-family="Helvetica,sans-Serif" font-size="11.00" fill="#000000">...</text>
<polygon fill="#ffffff" stroke="transparent" points="27,-245.2 27,-264.2 152,-264.2 152,-245.2 27,-245.2"/>
<polygon fill="none" stroke="#000000" points="27,-245.2 27,-264.2 152,-264.2 152,-245.2 27,-245.2"/>
<polygon fill="#ffffff" stroke="transparent" points="28,-246.2 28,-263.2 66,-263.2 66,-246.2 28,-246.2"/>
<text text-anchor="start" x="30" y="-251.3" font-family="Helvetica,sans-Serif" font-size="11.00" fill="#000000"> &#160;</text>
<polygon fill="#ffffff" stroke="transparent" points="66,-246.2 66,-263.2 104,-263.2 104,-246.2 66,-246.2"/>
<text text-anchor="start" x="81.9431" y="-251.3" font-family="Helvetica,sans-Serif" font-size="11.00" fill="#000000"> &#160;</text>
<polygon fill="#ffffff" stroke="transparent" points="104,-246.2 104,-263.2 151,-263.2 151,-246.2 104,-246.2"/>
<text text-anchor="start" x="133.4053" y="-251.3" font-family="Helvetica,sans-Serif" font-size="11.00" fill="#000000">2 &gt;</text>
<polygon fill="#000000" stroke="#000000" points="66,-246.2 66,-263.2 66,-263.2 66,-246.2 66,-246.2"/>
<polygon fill="#000000" stroke="#000000" points="104,-246.2 104,-263.2 104,-263.2 104,-246.2 104,-246.2"/>
</a>
</g>
</g>
<!-- Clinical.Providers&#45;&gt;Employees -->
<g id="edge1" class="edge">
<title>Clinical.Providers:w&#45;&gt;Employees:e</title>
<path fill="none" stroke="#000000" d="M240.9831,-308.6661C206.1705,-305.9941 193.2152,-294.2 152,-294.2"/>
<polygon fill="#000000" stroke="#000000" points="247.5054,-308.9059 255.3677,-312.7976 251.5027,-309.053 255.5,-309.2 255.5,-309.2 255.5,-309.2 251.5027,-309.053 255.6323,-305.6024 247.5054,-308.9059 247.5054,-308.9059"/>
<ellipse fill="none" stroke="#000000" cx="244.3076" cy="-308.7883" rx="3.2" ry="3.2"/>
</g>
<!-- ProviderContracts -->
<g id="node3" class="node">
<title>ProviderContracts</title>
<g id="a_node3"><a xlink:href="../../tables/ProviderContracts.html" xlink:title="ProviderContracts" target="_top">
<polygon fill="#ffffff" stroke="transparent" points="219,-38.2 219,-260.2 458,-260.2 458,-38.2 219,-38.2"/>
<polygon fill="#f5f5f5" stroke="transparent" points="221.5,-235.2 221.5,-258.2 456.5,-258.2 456.5,-235.2 221.5,-235.2"/>
<polygon fill="none" stroke="#000000" points="221.5,-235.2 221.5,-258.2 456.5,-258.2 456.5,-235.2 221.5,-235.2"/>
<text text-anchor="start" x="226.5" y="-243.8" font-family="Helvetica,sans-Serif" font-weight="bold" font-size="11.00" fill="#000000">ProviderContracts</text>
<text text-anchor="start" x="421.5437" y="-243.3" font-family="Helvetica,sans-Serif" font-size="11.00" fill="#000000">[table]</text>
<polygon fill="none" stroke="#000000" points="221.5,-213.2 221.5,-235.2 375.5,-235.2 375.5,-213.2 221.5,-213.2"/>
<image xlink:href="../../images/primaryKeys.png" width="11px" height="12px" preserveAspectRatio="xMinYMin meet" x="226.5" y="-230.2"/>
<text text-anchor="start" x="241.5" y="-220.3" font-family="Helvetica,sans-Serif" font-size="11.00" fill="#000000">Id</text>
<polygon fill="none" stroke="#000000" points="375.5,-213.2 375.5,-235.2 456.5,-235.2 456.5,-213.2 375.5,-213.2"/>
<text text-anchor="start" x="378.5" y="-220.9" font-family="Helvetica,sans-Serif" font-size="11.00" fill="#000000">int identity[4]</text>
<polygon fill="#ffffff" stroke="transparent" points="221.5,-191.2 221.5,-213.2 375.5,-213.2 375.5,-191.2 221.5,-191.2"/>
<polygon fill="none" stroke="#000000" points="221.5,-191.2 221.5,-213.2 375.5,-213.2 375.5,-191.2 221.5,-191.2"/>
<image xlink:href="../../images/foreignKeys.png" width="11px" height="12px" preserveAspectRatio="xMinYMin meet" x="226.5" y="-208.2"/>
<text text-anchor="start" x="241.5" y="-198.3" font-family="Helvetica,sans-Serif" font-size="11.00" fill="#000000">EmployeeID</text>
<polygon fill="none" stroke="#000000" points="375.5,-191.2 375.5,-213.2 456.5,-213.2 456.5,-191.2 375.5,-191.2"/>
<text text-anchor="start" x="378.5" y="-198.9" font-family="Helvetica,sans-Serif" font-size="11.00" fill="#000000">int[4]</text>
<polygon fill="#ffffff" stroke="transparent" points="221.5,-169.2 221.5,-191.2 375.5,-191.2 375.5,-169.2 221.5,-169.2"/>
<polygon fill="none" stroke="#000000" points="221.5,-169.2 221.5,-191.2 375.5,-191.2 375.5,-169.2 221.5,-169.2"/>
<image xlink:href="../../images/foreignKeys.png" width="11px" height="12px" preserveAspectRatio="xMinYMin meet" x="226.5" y="-186.2"/>
<text text-anchor="start" x="241.5" y="-176.3" font-family="Helvetica,sans-Serif" font-size="11.00" fill="#000000">FacilityId</text>
<polygon fill="none" stroke="#000000" points="375.5,-169.2 375.5,-191.2 456.5,-191.2 456.5,-169.2 375.5,-169.2"/>
<text text-anchor="start" x="378.5" y="-176.9" font-family="Helvetica,sans-Serif" font-size="11.00" fill="#000000">int[4]</text>
<polygon fill="none" stroke="#000000" points="221.5,-147.2 221.5,-169.2 375.5,-169.2 375.5,-147.2 221.5,-147.2"/>
<text text-anchor="start" x="241.5" y="-154.3" font-family="Helvetica,sans-Serif" font-size="11.00" fill="#000000">StartDate</text>
<polygon fill="none" stroke="#000000" points="375.5,-147.2 375.5,-169.2 456.5,-169.2 456.5,-147.2 375.5,-147.2"/>
<text text-anchor="start" x="378.5" y="-154.9" font-family="Helvetica,sans-Serif" font-size="11.00" fill="#000000">date[6]</text>
<polygon fill="none" stroke="#000000" points="221.5,-125.2 221.5,-147.2 375.5,-147.2 375.5,-125.2 221.5,-125.2"/>
<text text-anchor="start" x="241.5" y="-132.3" font-family="Helvetica,sans-Serif" font-size="11.00" fill="#000000">EndDate</text>
<polygon fill="none" stroke="#000000" points="375.5,-125.2 375.5,-147.2 456.5,-147.2 456.5,-125.2 375.5,-125.2"/>
<text text-anchor="start" x="378.5" y="-132.9" font-family="Helvetica,sans-Serif" font-size="11.00" fill="#000000">date[6]</text>
<polygon fill="none" stroke="#000000" points="221.5,-103.2 221.5,-125.2 375.5,-125.2 375.5,-103.2 221.5,-103.2"/>
<text text-anchor="start" x="241.5" y="-110.3" font-family="Helvetica,sans-Serif" font-size="11.00" fill="#000000">CreatedAtUtc</text>
<polygon fill="none" stroke="#000000" points="375.5,-103.2 375.5,-125.2 456.5,-125.2 456.5,-103.2 375.5,-103.2"/>
<text text-anchor="start" x="378.0968" y="-110.9" font-family="Helvetica,sans-Serif" font-size="11.00" fill="#000000">datetime2[16,7]</text>
<polygon fill="none" stroke="#000000" points="221.5,-81.2 221.5,-103.2 375.5,-103.2 375.5,-81.2 221.5,-81.2"/>
<text text-anchor="start" x="241.5" y="-88.3" font-family="Helvetica,sans-Serif" font-size="11.00" fill="#000000">UpdatedAtUtc</text>
<polygon fill="none" stroke="#000000" points="375.5,-81.2 375.5,-103.2 456.5,-103.2 456.5,-81.2 375.5,-81.2"/>
<text text-anchor="start" x="378.0968" y="-88.9" font-family="Helvetica,sans-Serif" font-size="11.00" fill="#000000">datetime2[16,7]</text>
<polygon fill="none" stroke="#000000" points="221.5,-59.2 221.5,-81.2 375.5,-81.2 375.5,-59.2 221.5,-59.2"/>
<text text-anchor="start" x="241.5" y="-66.3" font-family="Helvetica,sans-Serif" font-size="11.00" fill="#000000">RowVersion</text>
<polygon fill="none" stroke="#000000" points="375.5,-59.2 375.5,-81.2 456.5,-81.2 456.5,-59.2 375.5,-59.2"/>
<text text-anchor="start" x="378.5" y="-66.9" font-family="Helvetica,sans-Serif" font-size="11.00" fill="#000000">timestamp[8]</text>
<polygon fill="#ffffff" stroke="transparent" points="221.5,-40.2 221.5,-59.2 456.5,-59.2 456.5,-40.2 221.5,-40.2"/>
<polygon fill="none" stroke="#000000" points="221.5,-40.2 221.5,-59.2 456.5,-59.2 456.5,-40.2 221.5,-40.2"/>
<polygon fill="#ffffff" stroke="transparent" points="222.5,-41.2 222.5,-58.2 303.5,-58.2 303.5,-41.2 222.5,-41.2"/>
<text text-anchor="start" x="224.5" y="-46.3" font-family="Helvetica,sans-Serif" font-size="11.00" fill="#000000">&lt; 2</text>
<polygon fill="#ffffff" stroke="transparent" points="303.5,-41.2 303.5,-58.2 375.5,-58.2 375.5,-41.2 303.5,-41.2"/>
<text text-anchor="start" x="336.4431" y="-46.3" font-family="Helvetica,sans-Serif" font-size="11.00" fill="#000000"> &#160;</text>
<polygon fill="#ffffff" stroke="transparent" points="375.5,-41.2 375.5,-58.2 455.5,-58.2 455.5,-41.2 375.5,-41.2"/>
<text text-anchor="start" x="437.9053" y="-46.3" font-family="Helvetica,sans-Serif" font-size="11.00" fill="#000000">0 &gt;</text>
<polygon fill="#000000" stroke="#000000" points="303.5,-41.2 303.5,-58.2 303.5,-58.2 303.5,-41.2 303.5,-41.2"/>
<polygon fill="#000000" stroke="#000000" points="375.5,-41.2 375.5,-58.2 375.5,-58.2 375.5,-41.2 375.5,-41.2"/>
<polygon fill="none" stroke="#000000" stroke-width="2" points="220,-39.2 220,-259.2 457,-259.2 457,-39.2 220,-39.2"/>
</a>
</g>
</g>
<!-- ProviderContracts&#45;&gt;Employees -->
<g id="edge2" class="edge">
<title>ProviderContracts:w&#45;&gt;Employees:e</title>
<path fill="none" stroke="#000000" d="M207.0827,-205.4743C176.6485,-221.8631 197.4397,-294.2 152,-294.2"/>
<polygon fill="#000000" stroke="#000000" points="213.6987,-203.9718 222.2973,-205.7106 217.5993,-203.0859 221.5,-202.2 221.5,-202.2 221.5,-202.2 217.5993,-203.0859 220.7027,-198.6894 213.6987,-203.9718 213.6987,-203.9718"/>
<ellipse fill="none" stroke="#000000" cx="210.5781" cy="-204.6805" rx="3.2" ry="3.2"/>
</g>
<!-- Clinical.Facilities -->
<g id="node4" class="node">
<title>Clinical.Facilities</title>
<g id="a_node4"><a xlink:title="Clinical.Facilities">
<polygon fill="#ffffff" stroke="transparent" points="8,-149.7 8,-210.7 170,-210.7 170,-149.7 8,-149.7"/>
<polygon fill="#f5f5f5" stroke="transparent" points="8,-187.2 8,-210.2 170,-210.2 170,-187.2 8,-187.2"/>
<polygon fill="none" stroke="#000000" points="8,-187.2 8,-210.2 170,-210.2 170,-187.2 8,-187.2"/>
<text text-anchor="start" x="13" y="-195.8" font-family="Helvetica,sans-Serif" font-weight="bold" font-size="11.00" fill="#000000">Clinical.Facilities</text>
<text text-anchor="start" x="135.5219" y="-195.3" font-family="Helvetica,sans-Serif" font-size="11.00" fill="#000000">[table]</text>
<polygon fill="none" stroke="#000000" points="8,-168.2 8,-187.2 170,-187.2 170,-168.2 8,-168.2"/>
<text text-anchor="start" x="11" y="-174.3" font-family="Helvetica,sans-Serif" font-size="11.00" fill="#000000">...</text>
<polygon fill="#ffffff" stroke="transparent" points="8,-149.2 8,-168.2 170,-168.2 170,-149.2 8,-149.2"/>
<polygon fill="none" stroke="#000000" points="8,-149.2 8,-168.2 170,-168.2 170,-149.2 8,-149.2"/>
<polygon fill="#ffffff" stroke="transparent" points="9,-150.2 9,-167.2 60,-167.2 60,-150.2 9,-150.2"/>
<text text-anchor="start" x="11" y="-155.3" font-family="Helvetica,sans-Serif" font-size="11.00" fill="#000000"> &#160;</text>
<polygon fill="#ffffff" stroke="transparent" points="60,-150.2 60,-167.2 110,-167.2 110,-150.2 60,-150.2"/>
<text text-anchor="start" x="81.9431" y="-155.3" font-family="Helvetica,sans-Serif" font-size="11.00" fill="#000000"> &#160;</text>
<polygon fill="#ffffff" stroke="transparent" points="110,-150.2 110,-167.2 169,-167.2 169,-150.2 110,-150.2"/>
<text text-anchor="start" x="151.4053" y="-155.3" font-family="Helvetica,sans-Serif" font-size="11.00" fill="#000000">1 &gt;</text>
<polygon fill="#000000" stroke="#000000" points="60,-150.2 60,-167.2 60,-167.2 60,-150.2 60,-150.2"/>
<polygon fill="#000000" stroke="#000000" points="110,-150.2 110,-167.2 110,-167.2 110,-150.2 110,-150.2"/>
</a>
</g>
</g>
<!-- ProviderContracts&#45;&gt;Clinical.Facilities -->
<g id="edge3" class="edge">
<title>ProviderContracts:w&#45;&gt;Clinical.Facilities:e</title>
<path fill="none" stroke="#000000" d="M206.7816,-180.2C197.2886,-180.2 187.6125,-180.2 178.091,-180.2"/>
<polygon fill="#000000" stroke="#000000" points="213.5,-180.2001 221.5,-183.8 217.5,-180.2 221.5,-180.2 221.5,-180.2 221.5,-180.2 217.5,-180.2 221.5,-176.6 213.5,-180.2001 213.5,-180.2001"/>
<ellipse fill="none" stroke="#000000" cx="210.3" cy="-180.2001" rx="3.2" ry="3.2"/>
</g>
</g>
</svg>
